<?xml version="1.0" encoding="UTF-8" standalone="no"?>
<svg
   xmlns:dc="http://purl.org/dc/elements/1.1/"
   xmlns:cc="http://creativecommons.org/ns#"
   xmlns:rdf="http://www.w3.org/1999/02/22-rdf-syntax-ns#"
   xmlns:svg="http://www.w3.org/2000/svg"
   xmlns="http://www.w3.org/2000/svg"
   xmlns:sodipodi="http://sodipodi.sourceforge.net/DTD/sodipodi-0.dtd"
   xmlns:inkscape="http://www.inkscape.org/namespaces/inkscape"
   xml:space="preserve"
   width="36.501114mm"
   height="26.198606mm"
   version="1.1"
   style="clip-rule:evenodd;fill-rule:evenodd;image-rendering:optimizeQuality;shape-rendering:geometricPrecision;text-rendering:geometricPrecision"
   viewBox="0 0 123.21461 88.438269"
   id="svg323"
   sodipodi:docname="финансы.svg"
   inkscape:version="1.0 (4035a4fb49, 2020-05-01)"><metadata
   id="metadata327"><rdf:RDF><cc:Work
       rdf:about=""><dc:format>image/svg+xml</dc:format><dc:type
         rdf:resource="http://purl.org/dc/dcmitype/StillImage" /><dc:title></dc:title></cc:Work></rdf:RDF></metadata><sodipodi:namedview
   inkscape:document-rotation="0"
   pagecolor="#ffffff"
   bordercolor="#666666"
   borderopacity="1"
   objecttolerance="10"
   gridtolerance="10"
   guidetolerance="10"
   inkscape:pageopacity="0"
   inkscape:pageshadow="2"
   inkscape:window-width="1920"
   inkscape:window-height="1018"
   id="namedview325"
   showgrid="false"
   inkscape:zoom="1.4193712"
   inkscape:cx="94.851385"
   inkscape:cy="50.178507"
   inkscape:window-x="-6"
   inkscape:window-y="-6"
   inkscape:window-maximized="1"
   inkscape:current-layer="svg323" />
 <defs
   id="defs317">
  <style
   type="text/css"
   id="style315">
   <![CDATA[
    .fil0 {fill:black}
   ]]>
  </style>
 </defs>
 
<path
   id="path8"
   d="m 53.758541,88.295169 c 0,-0.114483 -0.0303,-0.143104 -0.15152,-0.143104 h -0.15152 v -4.751053 -4.751053 h -0.181825 c -0.15354,0 -0.181824,-0.02226 -0.181824,-0.143104 V 78.363751 H 50.90996 48.728068 v -0.171724 -0.171725 h -0.636386 -0.636385 v -0.143104 c 0,-0.139921 -0.0101,-0.143104 -0.454561,-0.143104 -0.444459,0 -0.454561,-0.0032 -0.454561,-0.143104 0,-0.140717 -0.0081,-0.143104 -0.484864,-0.143104 -0.476784,0 -0.484865,-0.0024 -0.484865,-0.143104 0,-0.140717 -0.0081,-0.143104 -0.484865,-0.143104 -0.476784,0 -0.484865,-0.0024 -0.484865,-0.143104 0,-0.139922 -0.0101,-0.143104 -0.454561,-0.143104 h -0.454561 v -0.171725 c 0,-0.167907 -0.0067,-0.171725 -0.303041,-0.171725 -0.282838,0 -0.30304,-0.0095 -0.30304,-0.143104 0,-0.135296 -0.01818,-0.143104 -0.333345,-0.143104 -0.315162,0 -0.333344,-0.0078 -0.333344,-0.143104 0,-0.133562 -0.0202,-0.143104 -0.303041,-0.143104 -0.282838,0 -0.303041,-0.0095 -0.303041,-0.143104 0,-0.135296 -0.01818,-0.143104 -0.333344,-0.143104 -0.315162,0 -0.333345,-0.0078 -0.333345,-0.143104 0,-0.114483 -0.0303,-0.143104 -0.15152,-0.143104 -0.121216,0 -0.15152,-0.02862 -0.15152,-0.143104 0,-0.133562 -0.0202,-0.143104 -0.303041,-0.143104 -0.296306,0 -0.303041,-0.0038 -0.303041,-0.171725 0,-0.167906 -0.0067,-0.171724 -0.30304,-0.171724 -0.282838,0 -0.303041,-0.0095 -0.303041,-0.143104 0,-0.120843 -0.02828,-0.143104 -0.181824,-0.143104 -0.15354,0 -0.181824,-0.02226 -0.181824,-0.143104 0,-0.133562 -0.0202,-0.143104 -0.303041,-0.143104 -0.282838,0 -0.303041,-0.0095 -0.303041,-0.143104 0,-0.114484 -0.0303,-0.143104 -0.15152,-0.143104 -0.121216,0 -0.15152,-0.02862 -0.15152,-0.143104 0,-0.114484 -0.0303,-0.143104 -0.15152,-0.143104 -0.127951,0 -0.151521,-0.02671 -0.151521,-0.171725 0,-0.169991 -0.0034,-0.171725 -0.333344,-0.171725 -0.315163,0 -0.333345,-0.0078 -0.333345,-0.143104 0,-0.114483 -0.0303,-0.143104 -0.15152,-0.143104 -0.121216,0 -0.151521,-0.02862 -0.151521,-0.143104 0,-0.114483 -0.0303,-0.143104 -0.15152,-0.143104 -0.121216,0 -0.15152,-0.02862 -0.15152,-0.143104 0,-0.114483 -0.0303,-0.143104 -0.15152,-0.143104 -0.121217,0 -0.151521,-0.02862 -0.151521,-0.143104 0,-0.120843 -0.02828,-0.143104 -0.181824,-0.143104 -0.15354,0 -0.181824,-0.02226 -0.181824,-0.143104 0,-0.114483 -0.0303,-0.143104 -0.151521,-0.143104 -0.12795,0 -0.15152,-0.02671 -0.15152,-0.171725 0,-0.14501 -0.02357,-0.171725 -0.15152,-0.171725 -0.121216,0 -0.151521,-0.02862 -0.151521,-0.143104 0,-0.114483 -0.0303,-0.143104 -0.15152,-0.143104 -0.121216,0 -0.15152,-0.02862 -0.15152,-0.143104 0,-0.114483 -0.0303,-0.143104 -0.15152,-0.143104 -0.121217,0 -0.151521,-0.02862 -0.151521,-0.143104 0,-0.114483 -0.0303,-0.143104 -0.15152,-0.143104 -0.121216,0 -0.15152,-0.02862 -0.15152,-0.143104 0,-0.120842 -0.02828,-0.143104 -0.181825,-0.143104 -0.161621,0 -0.181824,-0.01908 -0.181824,-0.171724 0,-0.145011 -0.02357,-0.171725 -0.15152,-0.171725 -0.121216,0 -0.151521,-0.02862 -0.151521,-0.143104 0,-0.114483 -0.0303,-0.143104 -0.15152,-0.143104 -0.121216,0 -0.15152,-0.02862 -0.15152,-0.143104 0,-0.114483 -0.0303,-0.143104 -0.15152,-0.143104 -0.141419,0 -0.151521,-0.01908 -0.151521,-0.286208 0,-0.26713 -0.0101,-0.286208 -0.15152,-0.286208 -0.121216,0 -0.15152,-0.02862 -0.15152,-0.143104 0,-0.120843 -0.02828,-0.143104 -0.181825,-0.143104 -0.161621,0 -0.181824,-0.01908 -0.181824,-0.171725 0,-0.14501 -0.02357,-0.171725 -0.15152,-0.171725 -0.141419,0 -0.151521,-0.01908 -0.151521,-0.286208 0,-0.267129 -0.0101,-0.286208 -0.15152,-0.286208 -0.141419,0 -0.15152,-0.01908 -0.15152,-0.286208 0,-0.267129 -0.0101,-0.286208 -0.15152,-0.286208 -0.143256,0 -0.151521,-0.01717 -0.151521,-0.314829 0,-0.297656 -0.0083,-0.314828 -0.15152,-0.314828 -0.121216,0 -0.15152,-0.02862 -0.15152,-0.143104 0,-0.114484 -0.0303,-0.143104 -0.151521,-0.143104 -0.141418,0 -0.15152,-0.01908 -0.15152,-0.286208 0,-0.279849 -0.004,-0.286208 -0.181824,-0.286208 h -0.181825 v -0.457933 c 0,-0.450303 -0.0025,-0.457933 -0.15152,-0.457933 -0.141419,0 -0.15152,-0.01908 -0.15152,-0.286208 0,-0.267129 -0.0101,-0.286208 -0.15152,-0.286208 -0.148995,0 -0.151521,-0.0076 -0.151521,-0.457933 0,-0.450302 -0.0025,-0.457933 -0.15152,-0.457933 -0.148153,0 -0.15152,-0.0095 -0.15152,-0.429312 0,-0.41977 -0.0034,-0.429312 -0.151521,-0.429312 -0.148994,0 -0.15152,-0.0076 -0.15152,-0.457933 v -0.457932 h -0.181824 -0.181825 v -0.744141 -0.744141 h -0.15152 -0.15152 v -0.887245 -0.887245 h -0.15152 c -0.148153,0 -0.151521,-0.0095 -0.151521,-0.429312 0,-0.419769 0.0034,-0.429312 0.151521,-0.429312 0.12795,0 0.15152,-0.02671 0.15152,-0.171724 v -0.171725 h 6.303244 6.303244 v 0.171725 c 0,0.14501 0.02357,0.171724 0.15152,0.171724 0.148153,0 0.15152,0.0095 0.15152,0.429312 0,0.41977 0.0034,0.429312 0.151521,0.429312 0.141419,0 0.15152,0.01908 0.15152,0.286208 0,0.26713 0.0101,0.286208 0.15152,0.286208 0.148995,0 0.151521,0.0076 0.151521,0.457933 0,0.450303 0.0025,0.457933 0.15152,0.457933 0.141419,0 0.15152,0.01908 0.15152,0.286208 0,0.279849 0.004,0.286208 0.181825,0.286208 0.161621,0 0.181824,0.01908 0.181824,0.171725 0,0.14501 0.02357,0.171725 0.15152,0.171725 0.141419,0 0.15152,0.01908 0.15152,0.286208 0,0.267129 0.0101,0.286208 0.151521,0.286208 0.121216,0 0.15152,0.02862 0.15152,0.143104 0,0.114483 0.0303,0.143104 0.15152,0.143104 0.121217,0 0.151521,0.02862 0.151521,0.143104 0,0.114483 0.0303,0.143104 0.15152,0.143104 0.12795,0 0.15152,0.02671 0.15152,0.171724 0,0.145011 0.02357,0.171725 0.151521,0.171725 0.121216,0 0.15152,0.02862 0.15152,0.143104 0,0.120843 0.02828,0.143104 0.181824,0.143104 0.153541,0 0.181824,0.02226 0.181824,0.143104 0,0.114484 0.0303,0.143104 0.151521,0.143104 0.121216,0 0.15152,0.02862 0.15152,0.143104 0,0.133562 0.0202,0.143104 0.303041,0.143104 0.282838,0 0.30304,0.0095 0.30304,0.143104 0,0.114484 0.0303,0.143104 0.151521,0.143104 0.121216,0 0.15152,0.02862 0.15152,0.143104 0,0.120843 0.02828,0.143104 0.181824,0.143104 0.161622,0 0.181824,0.01908 0.181824,0.171725 0,0.167907 0.0067,0.171725 0.303041,0.171725 0.282838,0 0.303041,0.0095 0.303041,0.143104 0,0.133562 0.0202,0.143104 0.30304,0.143104 0.282838,0 0.303041,0.0095 0.303041,0.143104 0,0.135296 0.01818,0.143104 0.333344,0.143104 0.315163,0 0.333345,0.0078 0.333345,0.143104 v 0.143104 h 0.606081 0.606081 v 0.143104 0.143104 h 1.121251 1.12125 v 0.171725 0.171725 h 0.787905 0.787906 v -8.013825 -8.013824 h -0.939426 -0.939426 v -0.171724 -0.171725 h -1.12125 -1.12125 V 48.798465 48.655361 H 48.546243 47.758338 V 48.512257 48.369153 H 47.152257 46.546175 V 48.226049 48.082945 H 45.90979 45.273405 v -0.143104 c 0,-0.140719 -0.0081,-0.143104 -0.484865,-0.143104 -0.476784,0 -0.484865,-0.0024 -0.484865,-0.143104 v -0.143104 h -0.606081 -0.606081 v -0.171725 c 0,-0.16999 -0.0034,-0.171725 -0.333345,-0.171725 -0.315162,0 -0.333344,-0.0078 -0.333344,-0.143104 0,-0.139924 -0.0101,-0.143104 -0.454561,-0.143104 -0.44446,0 -0.454561,-0.0032 -0.454561,-0.143104 0,-0.135298 -0.01818,-0.143104 -0.333345,-0.143104 -0.315162,0 -0.333344,-0.0078 -0.333344,-0.143104 0,-0.133563 -0.0202,-0.143104 -0.303041,-0.143104 -0.282838,0 -0.303041,-0.0095 -0.303041,-0.143104 0,-0.133563 -0.0202,-0.143104 -0.30304,-0.143104 -0.296307,0 -0.303041,-0.0038 -0.303041,-0.171725 0,-0.16999 -0.0034,-0.171724 -0.333344,-0.171724 -0.315163,0 -0.333345,-0.0078 -0.333345,-0.143104 0,-0.133564 -0.0202,-0.143104 -0.303041,-0.143104 -0.282838,0 -0.30304,-0.0095 -0.30304,-0.143104 0,-0.135299 -0.01818,-0.143104 -0.333345,-0.143104 -0.315162,0 -0.333344,-0.0078 -0.333344,-0.143104 0,-0.114484 -0.0303,-0.143104 -0.151521,-0.143104 -0.121216,0 -0.15152,-0.02862 -0.15152,-0.143104 0,-0.133564 -0.0202,-0.143104 -0.303041,-0.143104 -0.282838,0 -0.30304,-0.0095 -0.30304,-0.143104 0,-0.114484 -0.0303,-0.143104 -0.15152,-0.143104 -0.127951,0 -0.151521,-0.02671 -0.151521,-0.171725 0,-0.152645 -0.0202,-0.171725 -0.181824,-0.171725 -0.15354,0 -0.181824,-0.02226 -0.181824,-0.143104 0,-0.114483 -0.0303,-0.143104 -0.151521,-0.143104 -0.121216,0 -0.15152,-0.02862 -0.15152,-0.143104 0,-0.114483 -0.0303,-0.143104 -0.15152,-0.143104 -0.121216,0 -0.151521,-0.02862 -0.151521,-0.143104 0,-0.133564 -0.0202,-0.143104 -0.30304,-0.143104 -0.282838,0 -0.303041,-0.0095 -0.303041,-0.143104 0,-0.114483 -0.0303,-0.143104 -0.15152,-0.143104 -0.12795,0 -0.15152,-0.02671 -0.15152,-0.171725 0,-0.152644 -0.0202,-0.171725 -0.181825,-0.171725 -0.15354,0 -0.181824,-0.02226 -0.181824,-0.143104 0,-0.114483 -0.0303,-0.143104 -0.15152,-0.143104 -0.121216,0 -0.151521,-0.02862 -0.151521,-0.143104 0,-0.114483 -0.0303,-0.143104 -0.15152,-0.143104 -0.141419,0 -0.15152,-0.01908 -0.15152,-0.286208 0,-0.267127 -0.0101,-0.286208 -0.15152,-0.286208 -0.127951,0 -0.151521,-0.02671 -0.151521,-0.171725 0,-0.145011 -0.02357,-0.171724 -0.15152,-0.171724 -0.121216,0 -0.15152,-0.02862 -0.15152,-0.143104 0,-0.120844 -0.02828,-0.143104 -0.181825,-0.143104 -0.15354,0 -0.181824,-0.02226 -0.181824,-0.143104 0,-0.114484 -0.0303,-0.143104 -0.15152,-0.143104 -0.141419,0 -0.151521,-0.01908 -0.151521,-0.286208 0,-0.267128 -0.0101,-0.286208 -0.15152,-0.286208 -0.121216,0 -0.15152,-0.02862 -0.15152,-0.143104 0,-0.114484 -0.0303,-0.143104 -0.15152,-0.143104 -0.143256,0 -0.151521,-0.01717 -0.151521,-0.314829 0,-0.297656 -0.0083,-0.314829 -0.15152,-0.314829 -0.141419,0 -0.15152,-0.01908 -0.15152,-0.286208 0,-0.267128 -0.0101,-0.286208 -0.151521,-0.286208 -0.143255,0 -0.15152,-0.01717 -0.15152,-0.314829 0,-0.311648 -0.0018,-0.314829 -0.181824,-0.314829 -0.177784,0 -0.181825,-0.0064 -0.181825,-0.286208 0,-0.267127 -0.0101,-0.286208 -0.15152,-0.286208 -0.148153,0 -0.15152,-0.0095 -0.15152,-0.429312 0,-0.419771 -0.0034,-0.429312 -0.15152,-0.429312 -0.143256,0 -0.151521,-0.01717 -0.151521,-0.314828 0,-0.297657 -0.0083,-0.314829 -0.15152,-0.314829 h -0.15152 v -0.601037 -0.601037 h -0.151521 -0.15152 V 33.829786 33.25737 h -0.181824 -0.181825 v -0.887245 -0.887244 h -0.15152 -0.15152 v -2.232423 -2.232422 h 0.15152 0.15152 v -0.744141 -0.744141 h 0.181825 0.181824 v -0.457933 c 0,-0.4503 0.0025,-0.457933 0.15152,-0.457933 0.141419,0 0.151521,-0.01908 0.151521,-0.286208 0,-0.267127 0.0101,-0.286208 0.15152,-0.286208 0.141419,0 0.15152,-0.01908 0.15152,-0.286208 0,-0.267127 0.0101,-0.286208 0.151521,-0.286208 0.148994,0 0.15152,-0.0076 0.15152,-0.457932 0,-0.450301 0.0025,-0.457933 0.15152,-0.457933 0.141419,0 0.15152,-0.01908 0.15152,-0.286208 0,-0.279848 0.004,-0.286208 0.181825,-0.286208 0.15354,0 0.181824,-0.02226 0.181824,-0.143104 0,-0.114483 0.0303,-0.143104 0.15152,-0.143104 0.143256,0 0.151521,-0.01717 0.151521,-0.314829 0,-0.297656 0.0083,-0.314829 0.15152,-0.314829 0.141419,0 0.15152,-0.01908 0.15152,-0.286208 0,-0.267127 0.0101,-0.286208 0.151521,-0.286208 0.121216,0 0.15152,-0.02862 0.15152,-0.143104 0,-0.114483 0.0303,-0.143104 0.15152,-0.143104 0.127951,0 0.15152,-0.02671 0.15152,-0.171725 0,-0.145011 0.02357,-0.171724 0.151521,-0.171724 0.141418,0 0.15152,-0.01908 0.15152,-0.286208 0,-0.279848 0.004,-0.286208 0.181824,-0.286208 0.153541,0 0.181825,-0.02226 0.181825,-0.143104 0,-0.114484 0.0303,-0.143104 0.15152,-0.143104 0.121216,0 0.15152,-0.02862 0.15152,-0.143104 0,-0.114484 0.0303,-0.143104 0.151521,-0.143104 0.121216,0 0.15152,-0.02862 0.15152,-0.143104 0,-0.114484 0.0303,-0.143104 0.15152,-0.143104 0.143256,0 0.15152,-0.01717 0.15152,-0.314829 0,-0.297657 0.0083,-0.314829 0.151521,-0.314829 0.121216,0 0.15152,-0.02862 0.15152,-0.143104 0,-0.120843 0.02828,-0.143104 0.181824,-0.143104 0.153541,0 0.181825,-0.02226 0.181825,-0.143104 0,-0.114483 0.0303,-0.143104 0.15152,-0.143104 0.121216,0 0.15152,-0.02862 0.15152,-0.143104 0,-0.114483 0.0303,-0.143104 0.151521,-0.143104 0.12795,0 0.15152,-0.02671 0.15152,-0.171725 0,-0.145012 0.02357,-0.171725 0.15152,-0.171725 0.121216,0 0.15152,-0.02862 0.15152,-0.143104 0,-0.114483 0.03031,-0.143104 0.151521,-0.143104 0.121216,0 0.15152,-0.02862 0.15152,-0.143104 0,-0.114483 0.0303,-0.143104 0.15152,-0.143104 0.121217,0 0.151521,-0.02862 0.151521,-0.143104 0,-0.120843 0.02828,-0.143104 0.181824,-0.143104 0.15354,0 0.181824,-0.02226 0.181824,-0.143104 0,-0.133563 0.0202,-0.143104 0.303041,-0.143104 0.282838,0 0.30304,-0.0095 0.30304,-0.143104 0,-0.114483 0.0303,-0.143104 0.151521,-0.143104 0.12795,0 0.15152,-0.02671 0.15152,-0.171724 0,-0.145012 0.02357,-0.171725 0.15152,-0.171725 0.121217,0 0.151521,-0.02862 0.151521,-0.143104 0,-0.120844 0.02828,-0.143104 0.181824,-0.143104 0.15354,0 0.181824,-0.02226 0.181824,-0.143104 0,-0.133564 0.0202,-0.143104 0.303041,-0.143104 0.282838,0 0.30304,-0.0095 0.30304,-0.143104 0,-0.114483 0.0303,-0.143104 0.151521,-0.143104 0.121216,0 0.15152,-0.02862 0.15152,-0.143104 0,-0.135299 0.01818,-0.143104 0.333345,-0.143104 0.329977,0 0.333344,-0.0017 0.333344,-0.171725 0,-0.145012 0.02357,-0.171725 0.151521,-0.171725 0.121216,0 0.15152,-0.02862 0.15152,-0.143104 0,-0.133563 0.0202,-0.143104 0.30304,-0.143104 0.282839,0 0.303041,-0.0095 0.303041,-0.143104 0,-0.114483 0.0303,-0.143104 0.15152,-0.143104 0.121217,0 0.151521,-0.02862 0.151521,-0.143104 0,-0.135298 0.01818,-0.143104 0.333344,-0.143104 0.315162,0 0.333345,-0.0078 0.333345,-0.143104 0,-0.133563 0.0202,-0.143104 0.30304,-0.143104 0.282839,0 0.303041,-0.0095 0.303041,-0.143104 0,-0.133563 0.0202,-0.143104 0.303041,-0.143104 0.296306,0 0.30304,-0.0038 0.30304,-0.171725 0,-0.16999 0.0034,-0.171724 0.333345,-0.171724 0.315162,0 0.333344,-0.0078 0.333344,-0.143104 0,-0.139924 0.0101,-0.143104 0.454561,-0.143104 0.44446,0 0.454561,-0.0032 0.454561,-0.143104 0,-0.135299 0.01818,-0.143104 0.333345,-0.143104 0.315162,0 0.333344,-0.0078 0.333344,-0.143104 0,-0.139924 0.0101,-0.143104 0.454561,-0.143104 0.44446,0 0.454561,-0.0032 0.454561,-0.143104 0,-0.140719 0.0081,-0.143104 0.484865,-0.143104 h 0.484865 v -0.171725 -0.171725 h 0.636385 0.636385 V 9.9314178 9.7883138 h 0.939426 0.939426 v -0.143104 -0.143104 h 1.545507 1.545507 v -0.143104 c 0,-0.120843 0.02828,-0.143104 0.181824,-0.143104 h 0.181825 V 4.7510529 0.28620796 h 0.15152 c 0.121216,0 0.15152,-0.028621 0.15152,-0.143104 V 0 h 5.666859 5.666859 v 0.14310396 c 0,0.1144832 0.0303,0.143104 0.15152,0.143104 h 0.15152 V 4.6079489 8.9296898 h 1.090946 1.090947 v 0.143104 0.143104 h 0.939425 0.939426 v 0.143104 0.143104 h 0.636385 0.636386 v 0.143104 0.143104 h 0.636385 0.636385 v 0.143104 c 0,0.1399242 0.0101,0.1431042 0.454561,0.1431042 h 0.454561 v 0.171725 0.171725 h 0.484865 c 0.476786,0 0.484865,0.0024 0.484865,0.143104 0,0.114483 0.0303,0.143104 0.15152,0.143104 0.121216,0 0.15152,0.02862 0.15152,0.143104 0,0.139923 0.0101,0.143104 0.454561,0.143104 0.444458,0 0.454561,0.0032 0.454561,0.143104 0,0.135298 0.01818,0.143104 0.333345,0.143104 0.315162,0 0.333344,0.0078 0.333344,0.143104 0,0.133563 0.0202,0.143104 0.303041,0.143104 0.296307,0 0.30304,0.0038 0.30304,0.171724 0,0.169991 0.0034,0.171725 0.333345,0.171725 0.315162,0 0.333345,0.0078 0.333345,0.143104 0,0.114483 0.0303,0.143104 0.15152,0.143104 0.121216,0 0.15152,0.02862 0.15152,0.143104 0,0.133564 0.0202,0.143104 0.303041,0.143104 0.28284,0 0.30304,0.0095 0.30304,0.143104 0,0.114483 0.0303,0.143104 0.151521,0.143104 0.121216,0 0.15152,0.02862 0.15152,0.143104 0,0.135299 0.01818,0.143104 0.333345,0.143104 0.315162,0 0.333344,0.0078 0.333344,0.143104 0,0.114483 0.0303,0.143104 0.15152,0.143104 0.12795,0 0.151521,0.02671 0.151521,0.171725 0,0.145012 0.02357,0.171725 0.15152,0.171725 0.121216,0 0.15152,0.02862 0.15152,0.143104 0,0.114483 0.0303,0.143104 0.151521,0.143104 0.121216,0 0.15152,0.02862 0.15152,0.143104 0,0.135298 0.01818,0.143104 0.333345,0.143104 0.315162,0 0.333344,0.0078 0.333344,0.143104 0,0.114483 0.0303,0.143104 0.15152,0.143104 0.121217,0 0.151521,0.02862 0.151521,0.143104 0,0.114483 0.0303,0.143104 0.15152,0.143104 0.12795,0 0.15152,0.02671 0.15152,0.171725 0,0.145011 0.02357,0.171724 0.151521,0.171724 0.121216,0 0.15152,0.02862 0.15152,0.143104 0,0.114484 0.0303,0.143104 0.15152,0.143104 0.121216,0 0.15152,0.02862 0.15152,0.143104 0,0.120844 0.02829,0.143104 0.181825,0.143104 0.153538,0 0.181824,0.02226 0.181824,0.143104 0,0.114484 0.0303,0.143104 0.15152,0.143104 0.121217,0 0.151521,0.02862 0.151521,0.143104 0,0.114484 0.0303,0.143104 0.15152,0.143104 0.121216,0 0.15152,0.02862 0.15152,0.143104 0,0.114484 0.0303,0.143104 0.151521,0.143104 0.143253,0 0.15152,0.01717 0.15152,0.314829 0,0.297657 0.0083,0.314829 0.15152,0.314829 0.121216,0 0.15152,0.02862 0.15152,0.143104 0,0.114483 0.0303,0.143104 0.151521,0.143104 0.121216,0 0.15152,0.02862 0.15152,0.143104 0,0.120843 0.02829,0.143104 0.181824,0.143104 0.179988,0 0.181825,0.0032 0.181825,0.314829 0,0.297656 0.0083,0.314829 0.15152,0.314829 0.121216,0 0.15152,0.02862 0.15152,0.143104 0,0.114483 0.0303,0.143104 0.151521,0.143104 0.121216,0 0.15152,0.02862 0.15152,0.143104 0,0.114483 0.0303,0.143104 0.15152,0.143104 0.141417,0 0.151521,0.01908 0.151521,0.286208 0,0.267127 0.0101,0.286208 0.15152,0.286208 0.121216,0 0.15152,0.02862 0.15152,0.143104 0,0.120843 0.02829,0.143104 0.181824,0.143104 0.179988,0 0.181825,0.0032 0.181825,0.314828 0,0.297657 0.0083,0.314829 0.15152,0.314829 0.141417,0 0.15152,0.01908 0.15152,0.286208 0,0.267128 0.0101,0.286208 0.151521,0.286208 0.143253,0 0.15152,0.01717 0.15152,0.314829 0,0.297656 0.0083,0.314829 0.15152,0.314829 0.141417,0 0.151521,0.01908 0.151521,0.286208 0,0.267128 0.0101,0.286208 0.15152,0.286208 0.141417,0 0.15152,0.01908 0.15152,0.286208 0,0.279848 0.0041,0.286208 0.181824,0.286208 0.179988,0 0.181825,0.0032 0.181825,0.314829 0,0.297656 0.0083,0.314828 0.15152,0.314828 0.141417,0 0.15152,0.01908 0.15152,0.286208 0,0.267128 0.0101,0.286208 0.151521,0.286208 0.148993,0 0.15152,0.0076 0.15152,0.457933 0,0.450301 0.0025,0.457933 0.15152,0.457933 0.148151,0 0.151521,0.0095 0.151521,0.429312 0,0.419772 0.0034,0.429312 0.15152,0.429312 0.148993,0 0.15152,0.0076 0.15152,0.457933 0,0.450301 0.0025,0.457933 0.15152,0.457933 h 0.151521 v 0.572416 0.572416 h 0.181824 0.181824 v 0.744141 0.74414 h 0.151521 c 0.127949,0 0.15152,0.02671 0.15152,0.171725 v 0.171725 H 82.365572 75.456247 V 28.792525 27.87666 h -0.181825 -0.181824 v -0.429312 c 0,-0.419772 -0.0034,-0.429312 -0.15152,-0.429312 -0.141417,0 -0.151521,-0.01908 -0.151521,-0.286208 0,-0.267128 -0.0101,-0.286208 -0.15152,-0.286208 -0.12795,0 -0.15152,-0.02671 -0.15152,-0.171725 0,-0.145012 -0.02357,-0.171725 -0.151521,-0.171725 -0.121216,0 -0.15152,-0.02862 -0.15152,-0.143104 0,-0.114483 -0.0303,-0.143104 -0.15152,-0.143104 -0.141417,0 -0.15152,-0.01908 -0.15152,-0.286208 0,-0.267128 -0.0101,-0.286208 -0.151521,-0.286208 -0.121216,0 -0.15152,-0.02862 -0.15152,-0.143104 0,-0.135298 -0.01818,-0.143104 -0.333345,-0.143104 -0.329974,0 -0.333344,-0.0017 -0.333344,-0.171725 0,-0.145012 -0.02357,-0.171725 -0.151521,-0.171725 -0.121216,0 -0.15152,-0.02862 -0.15152,-0.143104 0,-0.114483 -0.0303,-0.143104 -0.15152,-0.143104 -0.121216,0 -0.15152,-0.02862 -0.15152,-0.143104 0,-0.135298 -0.01818,-0.143104 -0.333345,-0.143104 -0.315162,0 -0.333345,-0.0078 -0.333345,-0.143104 0,-0.133563 -0.0202,-0.143104 -0.30304,-0.143104 -0.28284,0 -0.303041,-0.0095 -0.303041,-0.143104 0,-0.133563 -0.0202,-0.143104 -0.30304,-0.143104 -0.296307,0 -0.303041,-0.0038 -0.303041,-0.171724 v -0.171725 h -0.484865 c -0.476786,0 -0.484865,-0.0024 -0.484865,-0.143104 0,-0.139924 -0.0101,-0.143104 -0.454561,-0.143104 -0.444457,0 -0.454561,-0.0032 -0.454561,-0.143104 V 22.553191 H 66.97111 65.395299 v 7.727616 7.727616 h 1.727332 1.727331 v 0.143104 0.143104 h 1.242466 1.242467 v 0.143104 0.143104 h 0.787905 0.787906 v 0.143104 0.143104 h 0.636385 0.636385 v 0.143104 0.143104 h 0.636385 0.636386 v 0.171725 0.171725 h 0.45456 c 0.444458,0 0.454561,0.0032 0.454561,0.143104 0,0.135298 0.01818,0.143104 0.333345,0.143104 0.315162,0 0.333345,0.0078 0.333345,0.143104 0,0.139923 0.0101,0.143104 0.45456,0.143104 0.444458,0 0.454561,0.0032 0.454561,0.143104 0,0.133563 0.0202,0.143104 0.303041,0.143104 0.28284,0 0.30304,0.0095 0.30304,0.143104 0,0.135298 0.01818,0.143104 0.333345,0.143104 0.315162,0 0.333345,0.0078 0.333345,0.143104 0,0.133563 0.0202,0.143104 0.30304,0.143104 0.296307,0 0.303041,0.0038 0.303041,0.171724 0,0.169991 0.0034,0.171725 0.333345,0.171725 0.315162,0 0.333344,0.0078 0.333344,0.143104 0,0.133564 0.0202,0.143104 0.303041,0.143104 0.28284,0 0.30304,0.0095 0.30304,0.143104 0,0.114483 0.0303,0.143104 0.151521,0.143104 0.121216,0 0.15152,0.02862 0.15152,0.143104 0,0.135299 0.01818,0.143104 0.333345,0.143104 0.315162,0 0.333344,0.0078 0.333344,0.143104 0,0.114483 0.0303,0.143104 0.15152,0.143104 0.12795,0 0.151521,0.02671 0.151521,0.171725 0,0.167909 0.0067,0.171725 0.30304,0.171725 0.28284,0 0.303041,0.0095 0.303041,0.143104 0,0.114483 0.0303,0.143104 0.15152,0.143104 0.121216,0 0.15152,0.02862 0.15152,0.143104 0,0.114483 0.0303,0.143104 0.151521,0.143104 0.121216,0 0.15152,0.02862 0.15152,0.143104 0,0.120843 0.02829,0.143104 0.181824,0.143104 0.153539,0 0.181825,0.02226 0.181825,0.143104 0,0.133563 0.0202,0.143104 0.30304,0.143104 0.296307,0 0.303041,0.0038 0.303041,0.171725 0,0.145012 0.02357,0.171725 0.15152,0.171725 0.121216,0 0.151521,0.02862 0.151521,0.143104 0,0.114483 0.0303,0.143104 0.15152,0.143104 0.121216,0 0.15152,0.02862 0.15152,0.143104 0,0.120843 0.02829,0.143104 0.181824,0.143104 0.153539,0 0.181825,0.02226 0.181825,0.143104 0,0.114483 0.0303,0.143104 0.15152,0.143104 0.121216,0 0.15152,0.02862 0.15152,0.143104 0,0.114483 0.0303,0.143104 0.151521,0.143104 0.143253,0 0.15152,0.01717 0.15152,0.314828 0,0.297657 0.0083,0.314829 0.15152,0.314829 0.121216,0 0.151521,0.02862 0.151521,0.143104 0,0.114483 0.0303,0.143104 0.15152,0.143104 0.121216,0 0.15152,0.02862 0.15152,0.143104 0,0.120843 0.02829,0.143104 0.181824,0.143104 0.153539,0 0.181825,0.02226 0.181825,0.143104 0,0.114483 0.0303,0.143104 0.15152,0.143104 0.121216,0 0.15152,0.02862 0.15152,0.143104 0,0.114483 0.0303,0.143104 0.151521,0.143104 0.143253,0 0.15152,0.01717 0.15152,0.314829 0,0.297656 0.0083,0.314829 0.15152,0.314829 0.121216,0 0.151521,0.02862 0.151521,0.143104 0,0.114483 0.0303,0.143104 0.15152,0.143104 0.141417,0 0.15152,0.01908 0.15152,0.286208 0,0.267127 0.0101,0.286208 0.15152,0.286208 0.143254,0 0.151521,0.01717 0.151521,0.314829 0,0.311648 0.0018,0.314828 0.181824,0.314828 0.177782,0 0.181824,0.0064 0.181824,0.286208 0,0.267128 0.0101,0.286208 0.151521,0.286208 0.148993,0 0.15152,0.0076 0.15152,0.457933 0,0.450301 0.0025,0.457933 0.15152,0.457933 0.141417,0 0.151521,0.01908 0.151521,0.286208 0,0.267128 0.0101,0.286208 0.15152,0.286208 0.14815,0 0.15152,0.0095 0.15152,0.429312 0,0.419772 0.0034,0.429312 0.15152,0.429312 h 0.151521 v 0.601037 0.601037 h 0.181824 0.181824 v 0.887244 0.887245 h 0.151521 0.15152 v 1.488282 1.488281 h -0.15152 -0.151521 v 1.030349 1.030349 h -0.181824 -0.181824 v 0.601037 0.601037 h -0.151521 c -0.148993,0 -0.15152,0.0076 -0.15152,0.457932 0,0.450303 -0.0025,0.457933 -0.15152,0.457933 -0.148151,0 -0.15152,0.0095 -0.15152,0.429312 0,0.41977 -0.0034,0.429312 -0.151521,0.429312 -0.143253,0 -0.15152,0.01717 -0.15152,0.314829 0,0.297656 -0.0083,0.314829 -0.15152,0.314829 -0.148151,0 -0.151521,0.0095 -0.151521,0.429312 v 0.429312 h -0.181824 c -0.153539,0 -0.181824,0.02226 -0.181824,0.143104 0,0.114483 -0.0303,0.143104 -0.151521,0.143104 -0.143253,0 -0.15152,0.01717 -0.15152,0.314829 0,0.297656 -0.0083,0.314829 -0.15152,0.314829 -0.141417,0 -0.15152,0.01908 -0.15152,0.286208 0,0.267129 -0.0101,0.286208 -0.151521,0.286208 -0.121216,0 -0.15152,0.02862 -0.15152,0.143104 0,0.114483 -0.0303,0.143104 -0.15152,0.143104 -0.143254,0 -0.151521,0.01717 -0.151521,0.314828 0,0.297657 -0.0083,0.314829 -0.15152,0.314829 -0.141417,0 -0.15152,0.01908 -0.15152,0.286208 0,0.279849 -0.0041,0.286208 -0.181825,0.286208 -0.153538,0 -0.181824,0.02226 -0.181824,0.143104 0,0.114483 -0.0303,0.143104 -0.15152,0.143104 -0.121216,0 -0.15152,0.02862 -0.15152,0.143104 0,0.114483 -0.0303,0.143104 -0.151521,0.143104 -0.143253,0 -0.15152,0.01717 -0.15152,0.314829 0,0.297656 -0.0083,0.314829 -0.15152,0.314829 -0.121217,0 -0.151521,0.02862 -0.151521,0.143104 0,0.114483 -0.0303,0.143104 -0.15152,0.143104 -0.121216,0 -0.15152,0.02862 -0.15152,0.143104 0,0.120843 -0.02829,0.143104 -0.181825,0.143104 -0.153538,0 -0.181824,0.02226 -0.181824,0.143104 0,0.114483 -0.0303,0.143104 -0.15152,0.143104 -0.121216,0 -0.15152,0.02862 -0.15152,0.143104 0,0.114483 -0.0303,0.143104 -0.151521,0.143104 -0.12795,0 -0.15152,0.02671 -0.15152,0.171725 0,0.14501 -0.02357,0.171724 -0.15152,0.171724 -0.121217,0 -0.151521,0.02862 -0.151521,0.143104 0,0.114484 -0.0303,0.143104 -0.15152,0.143104 -0.121216,0 -0.15152,0.02862 -0.15152,0.143104 0,0.120843 -0.02829,0.143104 -0.181825,0.143104 -0.153538,0 -0.181824,0.02226 -0.181824,0.143104 0,0.114484 -0.0303,0.143104 -0.15152,0.143104 -0.121216,0 -0.151521,0.02862 -0.151521,0.143104 0,0.133562 -0.0202,0.143104 -0.30304,0.143104 -0.296307,0 -0.303041,0.0038 -0.303041,0.171725 0,0.14501 -0.02357,0.171725 -0.15152,0.171725 -0.121216,0 -0.15152,0.02862 -0.15152,0.143104 0,0.114483 -0.0303,0.143104 -0.151521,0.143104 -0.121216,0 -0.15152,0.02862 -0.15152,0.143104 0,0.120843 -0.02829,0.143104 -0.181824,0.143104 -0.153539,0 -0.181825,0.02226 -0.181825,0.143104 0,0.133562 -0.0202,0.143104 -0.30304,0.143104 -0.28284,0 -0.303041,0.0095 -0.303041,0.143104 0,0.114483 -0.0303,0.143104 -0.15152,0.143104 -0.121216,0 -0.15152,0.02862 -0.15152,0.143104 0,0.114483 -0.0303,0.143104 -0.151521,0.143104 -0.127949,0 -0.15152,0.02672 -0.15152,0.171725 0,0.16999 -0.0034,0.171725 -0.333344,0.171725 -0.315163,0 -0.333345,0.0078 -0.333345,0.143104 0,0.133561 -0.0202,0.143104 -0.303041,0.143104 -0.28284,0 -0.30304,0.0095 -0.30304,0.143104 0,0.114483 -0.0303,0.143104 -0.151521,0.143104 -0.121216,0 -0.15152,0.02862 -0.15152,0.143104 0,0.135296 -0.01818,0.143104 -0.333344,0.143104 -0.315163,0 -0.333345,0.0078 -0.333345,0.143104 0,0.133561 -0.0202,0.143104 -0.303041,0.143104 -0.296307,0 -0.30304,0.0038 -0.30304,0.171724 0,0.167907 -0.0067,0.171725 -0.303041,0.171725 -0.28284,0 -0.30304,0.0095 -0.30304,0.143104 0,0.135296 -0.01818,0.143104 -0.333345,0.143104 -0.315162,0 -0.333345,0.0078 -0.333345,0.143104 0,0.133562 -0.0202,0.143104 -0.30304,0.143104 -0.28284,0 -0.303041,0.0095 -0.303041,0.143104 0,0.135297 -0.01818,0.143104 -0.333344,0.143104 -0.315163,0 -0.333345,0.0078 -0.333345,0.143104 0,0.139922 -0.0101,0.143104 -0.454561,0.143104 -0.444457,0 -0.454561,0.0032 -0.454561,0.143104 0,0.133562 -0.0202,0.143104 -0.30304,0.143104 -0.296307,0 -0.303041,0.0038 -0.303041,0.171725 V 76.87547 H 73.09253 c -0.476786,0 -0.484865,0.0024 -0.484865,0.143104 v 0.143104 H 71.97128 71.334895 v 0.143104 0.143104 H 70.69851 70.062124 v 0.143104 0.143104 h -0.757601 -0.757602 v 0.143104 0.143104 h -1.27277 -1.27277 v 0.171725 c 0,0.167906 -0.0067,0.171724 -0.303041,0.171724 h -0.303041 v 4.894157 4.894157 h -0.15152 c -0.121216,0 -0.15152,0.02862 -0.15152,0.143104 v 0.143104 H 59.4254 53.758541 Z M 67.880232,65.140942 v -0.171725 h 1.090946 1.090946 v -0.143104 -0.143104 h 0.787906 0.787905 v -0.143104 c 0,-0.140717 0.0081,-0.143104 0.484865,-0.143104 0.476786,0 0.484865,-0.0024 0.484865,-0.143104 0,-0.133562 0.0202,-0.143104 0.303041,-0.143104 0.28284,0 0.30304,-0.0095 0.30304,-0.143104 0,-0.135296 0.01818,-0.143104 0.333345,-0.143104 0.329975,0 0.333345,-0.0017 0.333345,-0.171725 0,-0.167907 0.0067,-0.171725 0.30304,-0.171725 0.28284,0 0.303041,-0.0095 0.303041,-0.143104 0,-0.114483 0.0303,-0.143104 0.15152,-0.143104 0.121216,0 0.15152,-0.02862 0.15152,-0.143104 0,-0.114483 0.0303,-0.143104 0.151521,-0.143104 0.121216,0 0.15152,-0.02862 0.15152,-0.143104 0,-0.120842 0.02829,-0.143104 0.181824,-0.143104 0.153539,0 0.181825,-0.02226 0.181825,-0.143104 0,-0.114483 0.0303,-0.143104 0.15152,-0.143104 0.121216,0 0.15152,-0.02862 0.15152,-0.143104 0,-0.114483 0.0303,-0.143104 0.15152,-0.143104 0.12795,0 0.151521,-0.02671 0.151521,-0.171725 0,-0.14501 0.02357,-0.171724 0.15152,-0.171724 0.121216,0 0.15152,-0.02862 0.15152,-0.143104 0,-0.114484 0.0303,-0.143104 0.151521,-0.143104 0.14815,0 0.15152,-0.0095 0.15152,-0.429312 v -0.429312 h 0.181824 0.181825 v -2.232423 -2.232422 h -0.181825 c -0.179988,0 -0.181824,-0.0032 -0.181824,-0.314829 0,-0.297656 -0.0083,-0.314829 -0.15152,-0.314829 -0.141417,0 -0.151521,-0.01908 -0.151521,-0.286208 0,-0.267127 -0.0101,-0.286208 -0.15152,-0.286208 -0.121216,0 -0.15152,-0.02862 -0.15152,-0.143104 0,-0.114483 -0.0303,-0.143104 -0.151521,-0.143104 -0.141416,0 -0.15152,-0.01908 -0.15152,-0.286208 0,-0.267127 -0.0101,-0.286208 -0.15152,-0.286208 -0.12795,0 -0.15152,-0.02671 -0.15152,-0.171725 0,-0.152644 -0.0202,-0.171724 -0.181825,-0.171724 -0.153538,0 -0.181824,-0.02226 -0.181824,-0.143104 0,-0.133564 -0.0202,-0.143104 -0.303041,-0.143104 -0.28284,0 -0.30304,-0.0095 -0.30304,-0.143104 0,-0.114484 -0.0303,-0.143104 -0.151521,-0.143104 -0.121216,0 -0.15152,-0.02862 -0.15152,-0.143104 0,-0.133564 -0.0202,-0.143104 -0.30304,-0.143104 -0.28284,0 -0.303041,-0.0095 -0.303041,-0.143104 0,-0.135299 -0.01818,-0.143104 -0.333345,-0.143104 -0.329974,0 -0.333344,-0.0017 -0.333344,-0.171725 0,-0.167909 -0.0067,-0.171725 -0.303041,-0.171725 -0.28284,0 -0.30304,-0.0095 -0.30304,-0.143104 0,-0.140719 -0.0081,-0.143104 -0.484865,-0.143104 -0.476786,0 -0.484865,-0.0024 -0.484865,-0.143104 V 51.631924 H 70.546989 69.759084 V 51.48882 51.345716 h -2.181892 -2.181893 v 6.983475 6.983476 h 1.242467 1.242466 z M 53.455501,28.792525 v -6.81175 h -2.060676 -2.060676 v 0.143104 0.143104 h -0.606081 -0.606082 v 0.143104 c 0,0.140719 -0.0081,0.143104 -0.484864,0.143104 -0.476784,0 -0.484865,0.0024 -0.484865,0.143104 0,0.133563 -0.0202,0.143104 -0.303041,0.143104 -0.282838,0 -0.303041,0.0095 -0.303041,0.143104 0,0.120843 -0.02828,0.143104 -0.181824,0.143104 -0.161622,0 -0.181824,0.01908 -0.181824,0.171725 0,0.167908 -0.0067,0.171724 -0.303041,0.171724 -0.282838,0 -0.30304,0.0095 -0.30304,0.143104 0,0.114484 -0.0303,0.143104 -0.151521,0.143104 -0.121216,0 -0.15152,0.02862 -0.15152,0.143104 0,0.114484 -0.0303,0.143104 -0.15152,0.143104 -0.121216,0 -0.151521,0.02862 -0.151521,0.143104 0,0.120844 -0.02828,0.143104 -0.181824,0.143104 -0.15354,0 -0.181824,0.02226 -0.181824,0.143104 0,0.114484 -0.0303,0.143104 -0.15152,0.143104 -0.127951,0 -0.151521,0.02671 -0.151521,0.171725 0,0.145012 -0.02357,0.171725 -0.15152,0.171725 -0.121216,0 -0.15152,0.02862 -0.15152,0.143104 0,0.114483 -0.0303,0.143104 -0.151521,0.143104 -0.141418,0 -0.15152,0.01908 -0.15152,0.286208 0,0.267128 -0.0101,0.286208 -0.15152,0.286208 h -0.151521 v 0.601037 0.601037 h -0.15152 -0.15152 v 1.631385 1.631386 h 0.15152 c 0.148153,0 0.15152,0.0095 0.15152,0.429312 0,0.419771 0.0034,0.429312 0.151521,0.429312 0.12795,0 0.15152,0.02671 0.15152,0.171725 0,0.145012 0.02357,0.171725 0.15152,0.171725 0.121217,0 0.151521,0.02862 0.151521,0.143104 0,0.114483 0.0303,0.143104 0.15152,0.143104 0.141419,0 0.15152,0.01908 0.15152,0.286208 0,0.267127 0.0101,0.286208 0.151521,0.286208 0.121216,0 0.15152,0.02862 0.15152,0.143104 0,0.120843 0.02828,0.143104 0.181824,0.143104 0.161622,0 0.181824,0.01908 0.181824,0.171724 0,0.145012 0.02357,0.171725 0.151521,0.171725 0.121216,0 0.15152,0.02862 0.15152,0.143104 0,0.114483 0.0303,0.143104 0.15152,0.143104 0.121217,0 0.151521,0.02862 0.151521,0.143104 0,0.114483 0.0303,0.143104 0.15152,0.143104 0.121216,0 0.15152,0.02862 0.15152,0.143104 0,0.135299 0.01818,0.143104 0.333345,0.143104 0.315162,0 0.333344,0.0078 0.333344,0.143104 0,0.114483 0.0303,0.143104 0.151521,0.143104 0.121216,0 0.15152,0.02862 0.15152,0.143104 0,0.133564 0.0202,0.143104 0.303041,0.143104 0.296306,0 0.30304,0.0038 0.30304,0.171725 0,0.16999 0.0034,0.171725 0.333345,0.171725 0.315162,0 0.333344,0.0078 0.333344,0.143104 0,0.139923 0.0101,0.143104 0.454561,0.143104 0.44446,0 0.454561,0.0032 0.454561,0.143104 0,0.140719 0.0081,0.143104 0.484865,0.143104 0.476784,0 0.484865,0.0024 0.484865,0.143104 v 0.143104 h 1.727331 1.727332 z M 0.30218017,87.98034 c 0,-0.14501 -0.0236,-0.171724 -0.15152,-0.171724 -0.12121,0 -0.15151999768,-0.02862 -0.15151999768,-0.143104 0,-0.114484 0.0302999977,-0.143104 0.15151999768,-0.143104 0.12122,0 0.15152,-0.02862 0.15152,-0.143104 V 87.2362 h 1.27277003 1.27277 v -0.143104 c 0,-0.133562 0.0202,-0.143104 0.30304,-0.143104 0.28284,0 0.30305,-0.0095 0.30305,-0.143104 0,-0.114484 0.0303,-0.143104 0.15152,-0.143104 0.12121,0 0.15152,-0.02862 0.15152,-0.143104 0,-0.120843 0.0283,-0.143104 0.18182,-0.143104 0.16162,0 0.18182,-0.01908 0.18182,-0.171725 0,-0.14501 0.0236,-0.171725 0.15152,-0.171725 0.12122,0 0.15153,-0.02862 0.15153,-0.143104 0,-0.114483 0.0303,-0.143104 0.15152,-0.143104 h 0.15152 v -0.744141 -0.744141 h 0.15152 0.15152 V 80.853761 77.447886 H 2.5143802 -8.5982768e-4 V 76.846849 76.245812 H 0.33249017 c 0.31516,0 0.33334,-0.0078 0.33334,-0.143104 v -0.143104 h 2.18189003 2.1819 v -0.887245 -0.887244 h -1.87886 -1.87885 V 74.042011 73.898907 H 0.63553017 -8.5982768e-4 V 73.29787 72.696833 H 0.33249017 c 0.31516,0 0.33334,-0.0078 0.33334,-0.143104 v -0.143104 h 2.18189003 2.1819 v -5.781402 -5.781401 h -0.15152 -0.15152 v -0.887245 -0.887245 h -0.15152 c -0.14326,0 -0.15152,-0.01717 -0.15152,-0.314829 0,-0.297656 -0.008,-0.314829 -0.15153,-0.314829 -0.12121,0 -0.15152,-0.02862 -0.15152,-0.143104 0,-0.135296 -0.0182,-0.143104 -0.33334,-0.143104 -0.31516,0 -0.33334,-0.0078 -0.33334,-0.143104 0,-0.139921 -0.0101,-0.143104 -0.45457,-0.143104 -0.44446,0 -0.45456,-0.0032 -0.45456,-0.143104 V 57.58505 h -1.12125 -1.12125003 v -0.143104 c 0,-0.114483 -0.0303,-0.143104 -0.15152,-0.143104 -0.12795,0 -0.15151999768,-0.02671 -0.15151999768,-0.171724 0,-0.145011 0.0235999977,-0.171725 0.15151999768,-0.171725 0.12122,0 0.15152,-0.02862 0.15152,-0.143104 V 56.669185 H 7.8478902 15.3936 v 0.143104 0.143104 h 1.12125 1.12125 v 0.171725 0.171724 h 0.60609 0.60608 v 0.143104 c 0,0.140717 0.008,0.143104 0.48486,0.143104 0.47679,0 0.48487,0.0024 0.48487,0.143104 0,0.133562 0.0202,0.143104 0.30304,0.143104 0.28283,0 0.30304,0.0095 0.30304,0.143104 0,0.135297 0.0182,0.143104 0.333342,0.143104 0.315163,0 0.333345,0.0078 0.333345,0.143104 0,0.133562 0.0202,0.143104 0.303041,0.143104 0.282838,0 0.30304,0.0095 0.30304,0.143104 0,0.114484 0.0303,0.143104 0.15152,0.143104 0.127951,0 0.151521,0.02671 0.151521,0.171725 0,0.169991 0.0034,0.171725 0.333344,0.171725 0.315163,0 0.333345,0.0078 0.333345,0.143104 0,0.114483 0.0303,0.143104 0.15152,0.143104 0.121217,0 0.151521,0.02862 0.151521,0.143104 0,0.114483 0.0303,0.143104 0.15152,0.143104 0.121216,0 0.15152,0.02862 0.15152,0.143104 0,0.114483 0.0303,0.143104 0.15152,0.143104 0.121217,0 0.151521,0.02862 0.151521,0.143104 0,0.114483 0.0303,0.143104 0.15152,0.143104 0.12795,0 0.15152,0.02672 0.15152,0.171725 0,0.14501 0.02357,0.171725 0.151521,0.171725 0.141418,0 0.15152,0.01908 0.15152,0.286208 0,0.279848 0.004,0.286208 0.181824,0.286208 0.153541,0 0.181825,0.02226 0.181825,0.143104 0,0.114483 0.0303,0.143104 0.15152,0.143104 0.143256,0 0.15152,0.01717 0.15152,0.314828 0,0.297657 0.0083,0.314829 0.15152,0.314829 0.148153,0 0.151521,0.0095 0.151521,0.429312 0,0.41977 0.0034,0.429312 0.15152,0.429312 h 0.15152 v 0.744141 0.744141 h 0.151521 0.15152 v 1.173453 1.173453 h -0.15152 -0.151521 v 0.74414 0.744141 h -0.15152 c -0.143256,0 -0.15152,0.01717 -0.15152,0.314829 0,0.297656 -0.0083,0.314829 -0.151521,0.314829 -0.148152,0 -0.15152,0.0095 -0.15152,0.429312 0,0.41977 -0.0034,0.429312 -0.15152,0.429312 -0.121216,0 -0.15152,0.02862 -0.15152,0.143104 0,0.120843 -0.02828,0.143104 -0.181825,0.143104 -0.179988,0 -0.181824,0.0032 -0.181824,0.314829 0,0.297656 -0.0083,0.314828 -0.15152,0.314828 -0.121217,0 -0.151521,0.02862 -0.151521,0.143104 0,0.114484 -0.0303,0.143104 -0.15152,0.143104 -0.121216,0 -0.15152,0.02862 -0.15152,0.143104 0,0.114484 -0.0303,0.143104 -0.151521,0.143104 -0.121216,0 -0.15152,0.02862 -0.15152,0.143104 0,0.114484 -0.0303,0.143104 -0.15152,0.143104 -0.127951,0 -0.15152,0.02672 -0.15152,0.171725 0,0.14501 -0.02357,0.171725 -0.151521,0.171725 -0.121216,0 -0.15152,0.02862 -0.15152,0.143104 0,0.120843 -0.02828,0.143104 -0.181824,0.143104 -0.153541,0 -0.181825,0.02226 -0.181825,0.143104 0,0.133562 -0.0202,0.143104 -0.30304,0.143104 -0.282838,0 -0.303041,0.0095 -0.303041,0.143104 0,0.133562 -0.0202,0.143104 -0.30304,0.143104 -0.282839,0 -0.303041,0.0095 -0.303041,0.143104 0,0.135296 -0.01818,0.143104 -0.333345,0.143104 -0.315162,0 -0.333342,0.0078 -0.333342,0.143104 0,0.139921 -0.0101,0.143104 -0.45456,0.143104 h -0.45456 v 0.171725 0.171725 h -0.48487 c -0.47678,0 -0.48486,0.0024 -0.48486,0.143104 v 0.143104 h -2.1819 -2.18189 v 0.143104 0.143104 H 11.96925 9.7570502 v 0.887244 0.887245 h 7.0608398 7.06085 v 0.143104 c 0,0.114483 0.0303,0.143104 0.151521,0.143104 h 0.15152 v 0.601037 0.601037 H 16.96941 9.7570502 v 3.863808 3.863808 h 0.15152 c 0.1481498,0 0.1515198,0.0095 0.1515198,0.429312 0,0.41977 0.003,0.429312 0.15152,0.429312 0.12795,0 0.15152,0.02671 0.15152,0.171725 0,0.14501 0.0236,0.171725 0.15152,0.171725 0.12122,0 0.15152,0.02862 0.15152,0.143104 0,0.120842 0.0283,0.143104 0.18182,0.143104 0.15355,0 0.18183,0.02226 0.18183,0.143104 0,0.139921 0.0101,0.143104 0.45456,0.143104 0.44446,0 0.45456,0.0032 0.45456,0.143104 V 87.2362 h 1.27277 1.27277 v 0.457932 0.457933 H 7.3933302 0.30218017 Z M 15.69664,72.267521 c 0,-0.135296 0.0182,-0.143104 0.33335,-0.143104 0.31516,0 0.33334,-0.0078 0.33334,-0.143104 0,-0.133562 0.0202,-0.143104 0.30304,-0.143104 0.29631,0 0.30304,-0.0038 0.30304,-0.171725 0,-0.14501 0.0236,-0.171725 0.15152,-0.171725 0.12122,0 0.15153,-0.02862 0.15153,-0.143104 0,-0.135296 0.0182,-0.143104 0.33334,-0.143104 0.31516,0 0.33334,-0.0078 0.33334,-0.143104 0,-0.114483 0.0303,-0.143104 0.15152,-0.143104 0.12122,0 0.15153,-0.02862 0.15153,-0.143104 0,-0.114483 0.0303,-0.143104 0.15152,-0.143104 0.14325,0 0.15152,-0.01717 0.15152,-0.314828 0,-0.297657 0.008,-0.314829 0.15152,-0.314829 0.12121,0 0.15152,-0.02862 0.15152,-0.143104 0,-0.114483 0.0303,-0.143104 0.15152,-0.143104 0.14142,0 0.15152,-0.01908 0.15152,-0.286208 0,-0.279849 0.004,-0.286208 0.18182,-0.286208 0.17778,0 0.18183,-0.0064 0.18183,-0.286208 0,-0.26713 0.0101,-0.286208 0.15152,-0.286208 H 19.818 v -0.601037 -0.601037 h 0.15152 0.15152 V 65.741979 64.110593 H 19.96952 19.818 v -0.744141 -0.744141 h -0.15152 c -0.14142,0 -0.15152,-0.01908 -0.15152,-0.286208 0,-0.279848 -0.004,-0.286208 -0.18183,-0.286208 -0.17999,0 -0.18182,-0.0032 -0.18182,-0.314829 0,-0.297656 -0.008,-0.314828 -0.15152,-0.314828 -0.14142,0 -0.15152,-0.01908 -0.15152,-0.286208 0,-0.26713 -0.0101,-0.286208 -0.15152,-0.286208 -0.12122,0 -0.15152,-0.02862 -0.15152,-0.143104 0,-0.114484 -0.0303,-0.143104 -0.15152,-0.143104 -0.12796,0 -0.15152,-0.02671 -0.15152,-0.171725 0,-0.14501 -0.0236,-0.171725 -0.15153,-0.171725 -0.12121,0 -0.15152,-0.02862 -0.15152,-0.143104 0,-0.114483 -0.0303,-0.143104 -0.15152,-0.143104 -0.12121,0 -0.15152,-0.02862 -0.15152,-0.143104 0,-0.135296 -0.0182,-0.143104 -0.33334,-0.143104 -0.31516,0 -0.33335,-0.0078 -0.33335,-0.143104 0,-0.133562 -0.0202,-0.143104 -0.30304,-0.143104 -0.28283,0 -0.30304,-0.0095 -0.30304,-0.143104 0,-0.140717 -0.008,-0.143104 -0.48486,-0.143104 H 15.3936 v -0.171725 -0.171725 h -2.51523 -2.51524 v 0.171725 c 0,0.167907 -0.007,0.171725 -0.30304,0.171725 H 9.7570502 v 6.668647 6.668646 H 12.72685 15.69664 Z M 113.1545,44.67707 v -0.143104 h -1.27277 -1.27277 v -0.143104 -0.143104 h -0.60608 -0.60608 v -0.171725 -0.171725 h -0.48487 c -0.47678,0 -0.48486,-0.0024 -0.48486,-0.143104 0,-0.139924 -0.0101,-0.143104 -0.45456,-0.143104 -0.44446,0 -0.45457,-0.0032 -0.45457,-0.143104 0,-0.135299 -0.0182,-0.143104 -0.33334,-0.143104 -0.31516,0 -0.33334,-0.0078 -0.33334,-0.143104 0,-0.133564 -0.0202,-0.143104 -0.30305,-0.143104 -0.28284,0 -0.30304,-0.0095 -0.30304,-0.143104 0,-0.135299 -0.0182,-0.143104 -0.33334,-0.143104 -0.32998,0 -0.33334,-0.0017 -0.33334,-0.171725 0,-0.167908 -0.007,-0.171725 -0.30305,-0.171725 -0.28284,0 -0.30304,-0.0095 -0.30304,-0.143104 0,-0.114483 -0.0303,-0.143104 -0.15152,-0.143104 -0.12121,0 -0.15152,-0.02862 -0.15152,-0.143104 0,-0.133563 -0.0202,-0.143104 -0.30304,-0.143104 -0.28284,0 -0.30304,-0.0095 -0.30304,-0.143104 0,-0.120843 -0.0283,-0.143104 -0.18182,-0.143104 -0.15354,0 -0.18183,-0.02226 -0.18183,-0.143104 0,-0.114483 -0.0303,-0.143104 -0.15152,-0.143104 -0.12795,0 -0.15152,-0.02671 -0.15152,-0.171725 0,-0.145011 -0.0236,-0.171724 -0.15152,-0.171724 -0.12121,0 -0.15152,-0.02862 -0.15152,-0.143104 0,-0.114484 -0.0303,-0.143104 -0.15152,-0.143104 -0.12121,0 -0.15152,-0.02862 -0.15152,-0.143104 0,-0.114484 -0.0303,-0.143104 -0.15152,-0.143104 -0.12121,0 -0.15152,-0.02862 -0.15152,-0.143104 0,-0.120844 -0.0283,-0.143104 -0.18182,-0.143104 -0.15354,0 -0.18183,-0.02226 -0.18183,-0.143104 0,-0.114484 -0.0303,-0.143104 -0.15152,-0.143104 -0.12121,0 -0.15152,-0.02862 -0.15152,-0.143104 0,-0.114484 -0.0303,-0.143104 -0.15152,-0.143104 -0.12795,0 -0.15152,-0.02671 -0.15152,-0.171725 0,-0.145012 -0.0236,-0.171725 -0.15152,-0.171725 -0.14142,0 -0.15152,-0.01908 -0.15152,-0.286208 0,-0.267128 -0.0101,-0.286208 -0.15152,-0.286208 -0.12122,0 -0.15152,-0.02862 -0.15152,-0.143104 0,-0.120843 -0.0283,-0.143104 -0.18182,-0.143104 -0.17999,0 -0.18183,-0.0032 -0.18183,-0.314829 0,-0.297656 -0.008,-0.314829 -0.15152,-0.314829 -0.12122,0 -0.15152,-0.02862 -0.15152,-0.143104 0,-0.114483 -0.0303,-0.143104 -0.15152,-0.143104 -0.141425,0 -0.151525,-0.01908 -0.151525,-0.286208 0,-0.267127 -0.0101,-0.286208 -0.15152,-0.286208 -0.14142,0 -0.15152,-0.01908 -0.15152,-0.286208 0,-0.267127 -0.0101,-0.286208 -0.15152,-0.286208 -0.14325,0 -0.15152,-0.01717 -0.15152,-0.314828 0,-0.297657 -0.008,-0.314829 -0.15152,-0.314829 -0.14815,0 -0.15152,-0.0095 -0.15152,-0.429312 v -0.429312 h -0.18183 c -0.17998,0 -0.18182,-0.0032 -0.18182,-0.314829 0,-0.297656 -0.008,-0.314829 -0.15152,-0.314829 h -0.151521 v -0.572416 -0.572416 h -0.15152 -0.15152 v -0.601037 -0.601036 h -0.151521 c -0.121216,0 -0.15152,-0.02862 -0.15152,-0.143104 v -0.143104 h -1.727331 -1.727331 v -0.887245 -0.887245 h 0.15152 0.15152 V 28.96425 28.220109 h 0.15152 c 0.12795,0 0.151521,-0.02671 0.151521,-0.171724 V 27.87666 h 1.27277 1.272771 v -1.030349 -1.030349 h -1.121251 -1.12125 v -0.143104 c 0,-0.114483 -0.0303,-0.143104 -0.15152,-0.143104 -0.121216,0 -0.15152,-0.02862 -0.15152,-0.143104 0,-0.114483 0.0303,-0.143104 0.15152,-0.143104 h 0.15152 v -0.887245 -0.887245 h 0.181825 0.181824 V 22.86802 22.266983 h 0.15152 c 0.121216,0 0.151521,-0.02862 0.151521,-0.143104 v -0.143104 h 0.939425 0.939426 v -0.314829 c 0,-0.297656 0.0083,-0.314829 0.15152,-0.314829 h 0.151521 v -0.572416 -0.572416 h 0.15152 0.15152 v -0.601037 -0.601036 h 0.151521 c 0.14142,0 0.15152,-0.01908 0.15152,-0.286208 0,-0.279848 0.004,-0.286208 0.18182,-0.286208 h 0.18183 v -0.457933 c 0,-0.450301 0.003,-0.457933 0.15152,-0.457933 0.14142,0 0.15152,-0.01908 0.15152,-0.286208 0,-0.267128 0.0101,-0.286208 0.15152,-0.286208 0.14325,0 0.15152,-0.01717 0.15152,-0.314829 0,-0.297656 0.008,-0.314829 0.15152,-0.314829 0.12122,0 0.15152,-0.02862 0.15152,-0.143104 0,-0.114483 0.0303,-0.143104 0.151525,-0.143104 0.14142,0 0.15152,-0.01908 0.15152,-0.286208 0,-0.267127 0.0101,-0.286208 0.15152,-0.286208 0.12122,0 0.15152,-0.02862 0.15152,-0.143104 0,-0.120843 0.0283,-0.143104 0.18183,-0.143104 0.17998,0 0.18182,-0.0032 0.18182,-0.314828 0,-0.297657 0.008,-0.314829 0.15152,-0.314829 0.12122,0 0.15152,-0.02862 0.15152,-0.143104 0,-0.114483 0.0303,-0.143104 0.15152,-0.143104 0.12122,0 0.15152,-0.02862 0.15152,-0.143104 0,-0.114483 0.0303,-0.143104 0.15152,-0.143104 0.12122,0 0.15152,-0.02862 0.15152,-0.143104 0,-0.114483 0.0303,-0.143104 0.15152,-0.143104 0.12795,0 0.15152,-0.02671 0.15152,-0.171725 0,-0.152645 0.0202,-0.171725 0.18183,-0.171725 0.15354,0 0.18182,-0.02226 0.18182,-0.143104 0,-0.114483 0.0303,-0.143104 0.15152,-0.143104 0.12122,0 0.15152,-0.02862 0.15152,-0.143104 0,-0.114483 0.0303,-0.143104 0.15152,-0.143104 0.12122,0 0.15152,-0.02862 0.15152,-0.143104 0,-0.114483 0.0303,-0.143104 0.15152,-0.143104 0.12122,0 0.15152,-0.02862 0.15152,-0.143104 0,-0.135298 0.0182,-0.143104 0.33335,-0.143104 0.31516,0 0.33334,-0.0078 0.33334,-0.143104 0,-0.114483 0.0303,-0.143104 0.15152,-0.143104 0.12795,0 0.15152,-0.02671 0.15152,-0.171725 0,-0.167908 0.007,-0.171724 0.30304,-0.171724 0.28284,0 0.30304,-0.0095 0.30304,-0.143104 0,-0.114484 0.0303,-0.143104 0.15152,-0.143104 0.12122,0 0.15152,-0.02862 0.15152,-0.143104 0,-0.135299 0.0182,-0.143104 0.33335,-0.143104 0.31516,0 0.33334,-0.0078 0.33334,-0.143104 0,-0.133564 0.0202,-0.143104 0.30304,-0.143104 0.28284,0 0.30304,-0.0095 0.30304,-0.143104 0,-0.133564 0.0202,-0.143104 0.30305,-0.143104 0.2963,0 0.30304,-0.0038 0.30304,-0.171725 v -0.171725 h 0.48486 c 0.47679,0 0.48487,-0.0024 0.48487,-0.1431042 0,-0.139924 0.0101,-0.143104 0.45456,-0.143104 0.44445,0 0.45456,-0.0032 0.45456,-0.143104 v -0.143104 h 0.63638 0.63639 v -0.143104 -0.143104 h 1.27277 1.27277 v -0.143104 -0.143104 h 0.60608 0.60608 v 0.143104 0.143104 h 1.27277 1.27277 v 0.143104 0.143104 h 0.78791 0.7879 v 0.143104 c 0,0.139924 0.0101,0.143104 0.45456,0.143104 0.44446,0 0.45456,0.0032 0.45456,0.143104 0,0.1352982 0.0182,0.1431042 0.33335,0.1431042 0.32997,0 0.33334,0.0017 0.33334,0.171725 0,0.167908 0.007,0.171725 0.30304,0.171725 0.28284,0 0.30305,0.0095 0.30305,0.143104 0,0.135298 0.0182,0.143104 0.33334,0.143104 0.31516,0 0.33334,0.0078 0.33334,0.143104 0,0.133563 0.0202,0.143104 0.30305,0.143104 0.28283,0 0.30304,0.0095 0.30304,0.143104 0,0.133563 0.0202,0.143104 0.30304,0.143104 0.28284,0 0.30304,0.0095 0.30304,0.143104 0,0.114483 0.0303,0.143104 0.15152,0.143104 0.12795,0 0.15152,0.02671 0.15152,0.171724 0,0.152645 0.0202,0.171725 0.18182,0.171725 h 0.18183 v 2.203802 2.203801 h -0.33335 c -0.31516,0 -0.33334,-0.0078 -0.33334,-0.143104 0,-0.114483 -0.0303,-0.143104 -0.15152,-0.143104 -0.12122,0 -0.15152,-0.02862 -0.15152,-0.143104 0,-0.133563 -0.0202,-0.143104 -0.30304,-0.143104 -0.28284,0 -0.30304,-0.0095 -0.30304,-0.143104 0,-0.135298 -0.0182,-0.143104 -0.33335,-0.143104 -0.31516,0 -0.33334,-0.0078 -0.33334,-0.143104 0,-0.133563 -0.0202,-0.143104 -0.30304,-0.143104 -0.29631,0 -0.30305,-0.0038 -0.30305,-0.171724 0,-0.167909 -0.007,-0.171725 -0.30304,-0.171725 -0.28284,0 -0.30304,-0.0095 -0.30304,-0.143104 0,-0.140719 -0.008,-0.143104 -0.48486,-0.143104 -0.47679,0 -0.48487,-0.0024 -0.48487,-0.143104 0,-0.133564 -0.0202,-0.143104 -0.30304,-0.143104 -0.28284,0 -0.30304,-0.0095 -0.30304,-0.143104 v -0.143104 h -0.63638 -0.63639 v -0.143104 -0.143104 h -2.51523 -2.51524 v 0.143104 0.143104 h -0.63639 -0.63638 v 0.143104 c 0,0.139923 -0.0101,0.143104 -0.45456,0.143104 -0.44446,0 -0.45456,0.0032 -0.45456,0.143104 0,0.135298 -0.0182,0.143104 -0.33335,0.143104 -0.31516,0 -0.33334,0.0078 -0.33334,0.143104 0,0.133563 -0.0202,0.143104 -0.30304,0.143104 -0.29631,0 -0.30304,0.0038 -0.30304,0.171725 0,0.167908 -0.007,0.171724 -0.30304,0.171724 -0.28284,0 -0.30305,0.0095 -0.30305,0.143104 0,0.120844 -0.0283,0.143104 -0.18182,0.143104 -0.15354,0 -0.18182,0.02226 -0.18182,0.143104 0,0.114484 -0.0303,0.143104 -0.15152,0.143104 -0.12122,0 -0.15152,0.02862 -0.15152,0.143104 0,0.133564 -0.0202,0.143104 -0.30305,0.143104 -0.28284,0 -0.30304,0.0095 -0.30304,0.143104 0,0.114484 -0.0303,0.143104 -0.15152,0.143104 -0.12121,0 -0.15152,0.02862 -0.15152,0.143104 0,0.120844 -0.0283,0.143104 -0.18182,0.143104 -0.16162,0 -0.18182,0.01908 -0.18182,0.171725 0,0.145012 -0.0236,0.171725 -0.15153,0.171725 -0.12121,0 -0.15152,0.02862 -0.15152,0.143104 0,0.114483 -0.0303,0.143104 -0.15152,0.143104 -0.14141,0 -0.15152,0.01908 -0.15152,0.286208 0,0.267128 -0.0101,0.286208 -0.15152,0.286208 -0.12121,0 -0.15152,0.02862 -0.15152,0.143104 0,0.114483 -0.0303,0.143104 -0.15152,0.143104 -0.12795,0 -0.15152,0.02671 -0.15152,0.171725 0,0.145012 -0.0236,0.171725 -0.15152,0.171725 -0.14141,0 -0.15152,0.01908 -0.15152,0.286208 0,0.279848 -0.004,0.286208 -0.18182,0.286208 -0.17778,0 -0.18183,0.0064 -0.18183,0.286208 0,0.267127 -0.0101,0.286208 -0.15152,0.286208 -0.14325,0 -0.15152,0.01717 -0.15152,0.314828 0,0.297657 -0.008,0.314829 -0.15152,0.314829 -0.14815,0 -0.15152,0.0095 -0.15152,0.429312 0,0.419772 -0.003,0.429312 -0.15152,0.429312 -0.14899,0 -0.15152,0.0076 -0.15152,0.457933 v 0.457933 h 8.33362 8.33361 v 0.744141 0.74414 h -0.18182 -0.18183 v 0.744141 0.744141 h -0.15152 c -0.14141,0 -0.15152,0.01908 -0.15152,0.286208 0,0.267128 -0.0101,0.286208 -0.15152,0.286208 -0.12121,0 -0.15152,0.02862 -0.15152,0.143104 v 0.143104 h -8.18209 -8.1821 v 1.030349 1.030349 h 8.1821 8.18209 v 0.744141 0.74414 h -0.15152 -0.15152 v 0.887245 0.887245 h -0.15152 c -0.12795,0 -0.15152,0.02671 -0.15152,0.171725 v 0.171725 h -7.54571 -7.54571 v 0.429312 c 0,0.419771 0.003,0.429312 0.15152,0.429312 0.14899,0 0.15152,0.0076 0.15152,0.457932 0,0.450301 0.003,0.457933 0.15152,0.457933 0.14142,0 0.15152,0.01908 0.15152,0.286208 0,0.267128 0.0101,0.286208 0.15152,0.286208 0.14142,0 0.15152,0.01908 0.15152,0.286208 0,0.279848 0.004,0.286208 0.18183,0.286208 0.17999,0 0.18182,0.0032 0.18182,0.314829 0,0.297656 0.008,0.314829 0.15152,0.314829 0.12122,0 0.15152,0.02862 0.15152,0.143104 0,0.114483 0.0303,0.143104 0.15152,0.143104 0.14142,0 0.15152,0.01908 0.15152,0.286208 0,0.267127 0.0101,0.286208 0.15152,0.286208 0.12795,0 0.15152,0.02671 0.15152,0.171725 0,0.145011 0.0236,0.171724 0.15152,0.171724 0.12122,0 0.15152,0.02862 0.15152,0.143104 0,0.114484 0.0303,0.143104 0.15152,0.143104 0.12122,0 0.15153,0.02862 0.15153,0.143104 0,0.120844 0.0283,0.143104 0.18182,0.143104 0.15354,0 0.18182,0.02226 0.18182,0.143104 0,0.114484 0.0303,0.143104 0.15152,0.143104 0.12122,0 0.15152,0.02862 0.15152,0.143104 0,0.114484 0.0303,0.143104 0.15152,0.143104 0.12122,0 0.15152,0.02862 0.15152,0.143104 0,0.114484 0.0303,0.143104 0.15153,0.143104 0.12794,0 0.15152,0.02671 0.15152,0.171725 0,0.145012 0.0236,0.171725 0.15152,0.171725 0.12121,0 0.15152,0.02862 0.15152,0.143104 0,0.135299 0.0182,0.143104 0.33334,0.143104 0.31516,0 0.33335,0.0078 0.33335,0.143104 0,0.114483 0.0303,0.143104 0.15152,0.143104 0.12121,0 0.15152,0.02862 0.15152,0.143104 0,0.133564 0.0202,0.143104 0.30304,0.143104 0.28284,0 0.30304,0.0095 0.30304,0.143104 0,0.135299 0.0182,0.143104 0.33334,0.143104 0.32998,0 0.33335,0.0017 0.33335,0.171725 v 0.171725 h 0.45456 c 0.44445,0 0.45456,0.0032 0.45456,0.143104 0,0.140718 0.008,0.143104 0.48486,0.143104 0.47679,0 0.48487,0.0024 0.48487,0.143104 v 0.143104 h 2.81828 2.81827 v -0.143104 -0.143104 h 0.63639 0.63638 v -0.143104 c 0,-0.133564 0.0202,-0.143104 0.30304,-0.143104 0.29631,0 0.30304,-0.0038 0.30304,-0.171725 v -0.171725 h 0.48487 c 0.47678,0 0.48486,-0.0024 0.48486,-0.143104 0,-0.133564 0.0202,-0.143104 0.30304,-0.143104 0.28284,0 0.30305,-0.0095 0.30305,-0.143104 0,-0.135298 0.0182,-0.143104 0.33334,-0.143104 0.31516,0 0.33334,-0.0078 0.33334,-0.143104 0,-0.114483 0.0303,-0.143104 0.15152,-0.143104 0.12122,0 0.15153,-0.02862 0.15153,-0.143104 0,-0.133564 0.0202,-0.143104 0.30304,-0.143104 0.2963,0 0.30304,-0.0038 0.30304,-0.171725 0,-0.145012 0.0236,-0.171725 0.15152,-0.171725 0.12121,0 0.15152,-0.02862 0.15152,-0.143104 0,-0.135298 0.0182,-0.143104 0.33334,-0.143104 0.31516,0 0.33335,0.0078 0.33335,0.143104 0,0.114484 0.0303,0.143104 0.15152,0.143104 h 0.15152 v 2.089319 2.089318 h -0.15152 c -0.14142,0 -0.15152,0.01908 -0.15152,0.286208 v 0.286208 h -0.33335 c -0.32997,0 -0.33334,0.0017 -0.33334,0.171725 0,0.167909 -0.007,0.171725 -0.30304,0.171725 -0.28284,0 -0.30304,0.0095 -0.30304,0.143104 0,0.133563 -0.0202,0.143104 -0.30304,0.143104 -0.28284,0 -0.30305,0.0095 -0.30305,0.143104 0,0.135298 -0.0182,0.143104 -0.33334,0.143104 -0.31516,0 -0.33334,0.0078 -0.33334,0.143104 0,0.133563 -0.0202,0.143104 -0.30305,0.143104 -0.28284,0 -0.30304,0.0095 -0.30304,0.143104 0,0.140719 -0.008,0.143104 -0.48486,0.143104 h -0.48487 v 0.171725 0.171725 h -0.7879 -0.78791 v 0.143104 0.143104 h -1.24246 -1.24247 v 0.143104 0.143104 h -0.78791 -0.7879 z"
   style="fill:#000000;stroke-width:0.0589008" /></svg>
