<?xml version="1.0" encoding="UTF-8" standalone="no"?>
<svg
   xmlns:dc="http://purl.org/dc/elements/1.1/"
   xmlns:cc="http://creativecommons.org/ns#"
   xmlns:rdf="http://www.w3.org/1999/02/22-rdf-syntax-ns#"
   xmlns:svg="http://www.w3.org/2000/svg"
   xmlns="http://www.w3.org/2000/svg"
   xmlns:sodipodi="http://sodipodi.sourceforge.net/DTD/sodipodi-0.dtd"
   xmlns:inkscape="http://www.inkscape.org/namespaces/inkscape"
   inkscape:version="1.0 (4035a4fb49, 2020-05-01)"
   sodipodi:docname="БИАТЛОН.svg"
   viewBox="0 0 497.45752 548.11633"
   height="548.11633"
   width="497.45752"
   id="svg634"
   version="1.1">
  <metadata
     id="metadata640">
    <rdf:RDF>
      <cc:Work
         rdf:about="">
        <dc:format>image/svg+xml</dc:format>
        <dc:type
           rdf:resource="http://purl.org/dc/dcmitype/StillImage" />
        <dc:title></dc:title>
      </cc:Work>
    </rdf:RDF>
  </metadata>
  <defs
     id="defs638" />
  <sodipodi:namedview
     inkscape:current-layer="g642"
     inkscape:window-maximized="1"
     inkscape:window-y="-6"
     inkscape:window-x="-6"
     inkscape:cy="260.26862"
     inkscape:cx="184.20367"
     inkscape:zoom="1.0928014"
     showgrid="false"
     id="namedview636"
     inkscape:window-height="1018"
     inkscape:window-width="1920"
     inkscape:pageshadow="2"
     inkscape:pageopacity="0"
     guidetolerance="10"
     gridtolerance="10"
     objecttolerance="10"
     borderopacity="1"
     bordercolor="#666666"
     pagecolor="#ffffff"
     inkscape:document-rotation="0" />
  <g
     transform="translate(-0.20538063,-3.4745126)"
     id="g642"
     inkscape:label="Image"
     inkscape:groupmode="layer">
    <path
       id="path82"
       d="m 293.5325,550.27832 c -14.01644,-3.84568 -38.40763,-10.67323 -42.3192,-11.84593 -6.42103,-1.92504 -69.08243,-18.615 -87.15742,-23.2145 C 119.8086,503.95836 93.886401,497.43611 53.72368,487.45733 16.558866,478.22341 1.1365268,474.21772 0.55041676,473.64651 c -1.30336001,-1.27023 0.82777004,-1.16928 10.85405924,0.51415 25.8872,4.3465 61.712486,7.9619 65.470343,6.6071 1.68765,-0.60843 2.038854,-1.6122 2.038854,-5.82707 0,-3.50648 1.568728,-9.64424 5.038004,-19.71163 l 5.038004,-14.61961 v -15.68801 c 0,-16.09896 2.277616,-34.46747 5.714009,-46.08237 2.084146,-7.04436 9.58122,-21.60255 13.25469,-25.73864 5.41201,-6.09358 6.59459,-18.74958 3.5606,-38.10585 -0.88889,-5.67101 -1.72707,-17.82317 -1.8626,-27.00481 -0.20491,-13.88217 -0.72453,-18.92672 -3.0851,-29.95079 -2.55851,-11.94841 -2.85335,-15.34081 -2.98715,-34.36976 -0.0998,-14.18087 -0.55618,-22.07473 -1.39029,-24.04246 -0.68302,-1.61128 -5.015712,-8.46068 -9.628213,-15.22089 -5.775138,-8.4642 -10.75632,-17.48918 -15.997856,-28.98517 -14.599694,-32.02068 -17.542077,-50.25412 -11.138767,-69.025019 3.308343,-9.698198 6.284104,-11.687387 19.473419,-13.017259 10.581823,-1.066959 12.148058,-1.573549 12.148058,-3.929214 0,-2.698295 1.850059,-3.389867 9.068409,-3.389867 h 6.54939 l 0.17424,-5.212331 c 0.0958,-2.866782 0.88854,-6.274749 1.76153,-7.573259 0.87301,-1.29851 2.03991,-5.581415 2.59312,-9.517565 1.38226,-9.834839 5.326,-19.967845 10.02479,-25.757564 3.80695,-4.690842 3.88844,-4.94753 2.43805,-7.680987 -2.19264,-4.1323314 -0.55537,-5.35601 8.24113,-6.1593611 l 7.48702,-0.6837613 7.74262,5.760594 c 19.75514,14.6980314 24.51983,23.2084684 19.99351,35.7113824 -2.06654,5.708332 -1.90867,8.561631 0.5445,9.841158 1.74121,0.908188 2.46956,0.612867 4.75857,-1.929437 2.93621,-3.261125 7.65402,-4.093594 8.6639,-1.528766 0.31899,0.810145 1.51528,1.47299 2.65842,1.47299 2.58598,0 3.67384,2.471234 1.96912,4.473093 -2.07306,2.434406 0.12194,3.499348 9.26541,4.495264 4.62753,0.504034 10.34541,1.827262 12.70641,2.940506 3.57277,1.684611 4.82317,1.843868 7.45545,0.949568 4.3781,-1.487428 8.47459,-1.343184 11.97653,0.421712 2.50454,1.262234 11.54548,1.594296 57.81093,2.123322 l 54.84211,0.627097 0.32793,-3.350814 c 0.3143,-3.21148 0.51553,-3.363824 4.83945,-3.66369 2.48134,-0.172082 5.99535,-0.04159 7.8089,0.289995 3.18886,0.58303 3.29739,0.760313 3.29739,5.386508 0,2.948428 -0.4832,4.944634 -1.2595,5.203294 -0.69273,0.230811 -12.84807,0.206708 -27.01186,-0.05357 -29.06369,-0.534071 -29.79076,-0.401258 -30.77909,5.622278 l -0.62328,3.798738 -15.25324,0.591392 c -8.38928,0.325271 -24.77506,0.921851 -36.41284,1.325739 l -21.15961,0.734342 -0.77722,9.328934 c -0.80215,9.627998 -7.35267,42.950078 -11.00093,55.960958 -3.29225,11.74122 -9.79157,23.17284 -18.29153,32.17292 -4.33279,4.58769 -5.95262,4.96091 -11.11615,2.56116 -6.11135,-2.84024 -6.81276,-1.77673 -6.06774,9.20015 0.59893,8.82438 0.9528,10.0714 4.39547,15.48899 4.80011,7.5538 11.52469,24.42035 13.50724,33.87877 4.05698,19.3553 4.13182,46.73204 0.18793,68.74902 -1.29454,7.22689 -1.28056,8.78267 0.12702,14.12151 2.12285,8.05178 1.25766,18.45658 -2.78524,33.49565 -3.28381,12.21536 -3.74929,18.47447 -2.99417,40.26171 0.16848,4.86087 -0.48333,15.0245 -1.44848,22.58585 -2.04707,16.03784 -1.54812,26.26597 1.58943,32.5826 2.54435,5.12235 9.82984,11.57834 14.8592,13.16742 11.52417,3.64117 23.31006,11.46151 27.0259,17.93261 1.04779,1.82473 25.89254,5.62412 65.32323,9.98959 12.73885,1.41035 26.11474,2.96021 29.72421,3.44413 13.99648,1.87652 34.09934,4.09398 67.01865,7.39257 62.88701,6.3014 76.19104,7.35237 80.09692,6.32735 4.63124,-1.21537 11.39564,-6.27285 14.80744,-11.07097 3.60909,-5.07557 5.5447,-3.29615 2.21629,2.03747 -3.24566,5.20102 -8.60473,9.54314 -13.48984,10.92999 -10.99816,3.12228 -37.48049,2.07653 -98.24102,-3.87942 -10.8065,-1.05929 -39.59868,-3.50272 -63.9826,-5.42984 -24.38392,-1.92711 -48.41519,-3.91294 -53.4028,-4.41293 -9.19924,-0.92221 -41.40281,-3.5872 -101.95763,-8.43748 -33.22227,-2.66102 -38.66974,-2.60203 -36.74038,0.39786 0.44197,0.68721 15.73341,5.63454 33.98099,10.99407 18.24758,5.35955 42.92594,12.66 54.84081,16.22325 11.91487,3.56324 27.78457,8.20049 35.26601,10.30502 7.48143,2.10452 15.64299,4.53659 18.1368,5.40461 2.49381,0.86801 10.20195,3.13049 17.1292,5.02772 6.92725,1.89724 14.37272,4.02959 16.54549,4.73857 5.46621,1.78364 9.53042,0.49699 18.63129,-5.89826 4.10727,-2.88622 7.84798,-5.01865 8.3127,-4.73875 1.28656,0.77493 1.01006,4.98087 -0.56968,8.66565 -2.13303,4.97529 -9.73308,7.45981 -22.55369,7.37298 -5.38247,-0.0365 -11.8267,-0.6261 -14.32051,-1.31032 z M 160.39577,478.74193 c -0.10994,-3.31859 0.64175,-7.25476 2.10973,-11.04742 1.63385,-4.22122 2.42629,-8.84511 2.79458,-16.30634 0.56421,-11.43051 -0.65235,-20.31215 -5.90416,-43.10424 -3.73686,-16.21736 -3.51621,-19.26624 2.67148,-36.91602 4.89072,-13.9503 5.2966,-16.97713 2.99609,-22.3431 -1.08678,-2.53493 -1.5114,-7.20022 -1.5114,-16.60573 0,-11.62648 -0.252,-13.56194 -2.26711,-17.41285 -4.40877,-8.42527 -5.65266,-6.09777 -8.35555,15.63445 l -1.64062,13.1911 -7.34689,14.3047 c -9.19638,17.90577 -15.05243,31.81046 -21.55914,51.19037 -8.66745,25.81552 -9.2107,28.34181 -9.2107,42.83319 0,16.47554 1.17468,21.98705 5.73457,26.90602 l 3.50202,3.77781 9.23621,0.32296 c 5.07991,0.17762 13.66543,0.41467 19.07895,0.52676 l 9.84273,0.2038 z m 34.36086,-336.27168 c 3.18879,-3.95089 10.10706,-18.64771 10.10706,-21.47096 0,-1.35774 -1.07172,-4.55294 -2.38161,-7.10044 -1.30989,-2.5475 -2.71072,-6.39941 -3.11297,-8.55979 -1.34018,-7.197857 -3.68552,-8.194567 -6.35443,-2.70048 -1.64462,3.38552 -2.11245,3.67364 -5.80164,3.57305 -2.20701,-0.0602 -6.39321,-0.45317 -9.30265,-0.87329 -4.79209,-0.69196 -5.28954,-0.58926 -5.28609,1.09143 0.008,4.07647 8.11623,27.30512 11.12648,31.87697 4.87596,7.40542 7.56746,8.42361 11.00585,4.16351 z m 18.54205,-50.350957 c 2.76911,-2.647875 1.19414,-3.967062 -4.71596,-3.95007 -7.49198,0.02154 -8.78249,1.109655 -5.17762,4.365628 3.22011,2.908463 6.56424,2.768001 9.89358,-0.415558 z m -39.18993,-22.1897 c 2.61566,-3.342154 3.08181,-3.546165 6.78438,-2.969147 3.36487,0.524389 3.92497,0.368049 3.64525,-1.017497 -0.60336,-2.988708 -3.23699,-3.745031 -8.26415,-2.373284 -3.74317,1.021389 -4.66134,1.699313 -4.66134,3.441665 0,1.36144 -0.93842,2.586438 -2.519,3.288302 -2.39988,1.065668 -3.25444,3.062568 -1.88272,4.399431 1.04948,1.022808 3.91522,-0.958767 6.89758,-4.76947 z"
       style="fill:#000000;stroke-width:0.994713" />
  </g>
</svg>
