<?xml version="1.0" encoding="UTF-8" standalone="no"?>
<svg
   xmlns:dc="http://purl.org/dc/elements/1.1/"
   xmlns:cc="http://creativecommons.org/ns#"
   xmlns:rdf="http://www.w3.org/1999/02/22-rdf-syntax-ns#"
   xmlns:svg="http://www.w3.org/2000/svg"
   xmlns="http://www.w3.org/2000/svg"
   xmlns:sodipodi="http://sodipodi.sourceforge.net/DTD/sodipodi-0.dtd"
   xmlns:inkscape="http://www.inkscape.org/namespaces/inkscape"
   version="1.1"
   id="svg646"
   width="1278.8553"
   height="1129.0896"
   viewBox="0 0 1278.8553 1129.0896"
   sodipodi:docname="лыжи спуск.svg"
   inkscape:version="1.0 (4035a4fb49, 2020-05-01)">
  <metadata
     id="metadata652">
    <rdf:RDF>
      <cc:Work
         rdf:about="">
        <dc:format>image/svg+xml</dc:format>
        <dc:type
           rdf:resource="http://purl.org/dc/dcmitype/StillImage" />
        <dc:title></dc:title>
      </cc:Work>
    </rdf:RDF>
  </metadata>
  <defs
     id="defs650" />
  <sodipodi:namedview
     inkscape:document-rotation="0"
     pagecolor="#ffffff"
     bordercolor="#666666"
     borderopacity="1"
     objecttolerance="10"
     gridtolerance="10"
     guidetolerance="10"
     inkscape:pageopacity="0"
     inkscape:pageshadow="2"
     inkscape:window-width="1920"
     inkscape:window-height="1018"
     id="namedview648"
     showgrid="false"
     inkscape:zoom="0.75221239"
     inkscape:cx="607.00732"
     inkscape:cy="514.21114"
     inkscape:window-x="-6"
     inkscape:window-y="-6"
     inkscape:window-maximized="1"
     inkscape:current-layer="g654" />
  <g
     transform="translate(-32.992676,-50.788864)"
     inkscape:groupmode="layer"
     inkscape:label="Image"
     id="g654">
    <path
       id="path64"
       d="m 1182.4059,1134.8539 c -42.9,-25.0234 -116.025,-67.1203 -162.5,-93.5485 -46.47505,-26.4282 -92.66605,-53.19797 -102.64675,-59.48832 l -18.1468,-11.43701 -0.5857,-4.18121 c -0.3221,-2.29967 -1.7191,-16.10622 -3.1043,-30.68122 -1.3853,-14.575 -2.7632,-28.36185 -3.062,-30.63745 -0.4724,-3.59788 -4.0314,-8.44877 -27.2904,-37.19675 -28.9064,-35.72805 -37.6275,-48.53714 -60.7087,-89.1658 l -11.6461,-20.5 -1.8817,-12.5 c -1.0349,-6.875 -1.892,-13.02895 -1.9046,-13.67545 -0.013,-0.6465 -6.4355,-6.24801 -14.273,-12.44778 -23.3408,-18.46352 -43.0613,-36.91189 -47.6531,-44.5791 l -3.9503,-6.59597 -0.5282,3.39915 c -0.2904,1.86953 -1.2677,15.94218 -2.1716,31.27254 l -1.6435,27.8734 -5.3879,11.6266 c -3.5162,7.58744 -5.3928,12.95325 -5.4017,15.4453 -0.01,2.10028 1.3288,13.12528 2.9695,24.5 2.2536,15.62368 4.6979,27.1619 9.9951,47.18131 3.8565,14.575 8.8668,33.7 11.1339,42.5 3.7828,14.68317 4.7914,17.21894 12.2549,30.8107 4.4731,8.14589 9.7105,16.92089 11.6388,19.5 2.4907,3.33158 17.9809,15.58178 53.5,42.30972 47.3768,35.65084 50.8744,38.07794 66.8075,46.35974 l 16.8133,8.7393 6.6867,-0.6856 c 3.6776,-0.377 7.6219,-0.9058 8.765,-1.175 1.8018,-0.4244 2.6441,0.7951 6.3287,9.1638 2.3377,5.3093 4.1024,9.7922 3.9216,9.9619 -0.1808,0.1697 -17.8387,0.7972 -39.2398,1.3945 l -38.9111,1.0858 -6.5889,-5.3016 c -3.6239,-2.9158 -49.3389,-39.65549 -101.5889,-81.64364 -87.6035,-70.39829 -239.70052,-194.15622 -239.21011,-194.63995 0.11558,-0.114 13.20598,0.90077 29.08978,2.25505 l 28.87964,2.46231 38.12039,30.86304 c 20.9662,16.97467 38.2526,30.73309 38.4142,30.57427 0.1616,-0.15882 -0.3733,-8.23277 -1.1888,-17.94211 -1.62,-19.28682 -1.0689,-17.74261 -9.9974,-28.01325 -2.6907,-3.09525 -4.7157,-5.78569 -4.5,-5.97876 0.2158,-0.19308 3.6601,-2.43252 7.654,-4.97656 l 7.2617,-4.62551 -0.6363,-4.24907 c -0.35,-2.337 -2.5795,-9.42408 -4.9546,-15.74908 l -4.3182,-11.5 -3.1146,-38.5 c -2.2974,-28.39937 -3.0339,-43.02195 -2.8071,-55.73608 l 0.3074,-17.23607 -12,-4.38542 c -6.6,-2.41197 -21.0826,-7.68072 -32.1837,-11.70832 l -20.1837,-7.32291 -11.2307,-10.0556 c -6.17688,-5.53058 -12.05822,-11.1806 -13.06964,-12.5556 -1.01143,-1.375 -5.37028,-11.77316 -9.68635,-23.10702 l -7.84741,-20.60702 6.33765,-17.89298 c 9.04914,-25.54828 16.04673,-56.41618 16.86451,-74.39298 0.33776,-7.425 0.82187,-14.5125 1.0758,-15.75 0.26846,-1.30839 -0.0251,-2.25 -0.70152,-2.25 -0.63976,0 -90.53583,29.67421 -199.76905,65.94269 -109.23322,36.26848 -208.34293,69.14758 -220.24379,73.06467 -24.809827,8.16599 -22.862067,6.36685 -22.862067,21.11764 0,4.33125 -0.3524,7.875 -0.78311,7.875 -0.43071,0 -4.75048,-2.92389 -9.59949,-6.49753 -4.84901,-3.57364 -9.10912,-6.3245 -9.46689,-6.11302 -1.47095,0.86943 -24.4507,9.63498 -24.59965,9.38344 -0.0889,-0.15009 -2.28487,-2.80892 -4.87999,-5.90852 -5.5066,-6.57706 -7.08101,-5.52493 13.32913,-8.9075 7.425,-1.23054 13.84947,-2.54621 14.2766,-2.92371 0.42713,-0.3775 1.64955,-5.77431 2.7165,-11.99292 1.06694,-6.21861 2.1466,-11.51327 2.39924,-11.76592 0.97421,-0.9742 11.61812,2.8636 14.37443,5.18289 2.86204,2.40824 2.97679,2.4205 8.81651,0.9414 34.438327,-8.72259 287.943117,-97.17776 398.916717,-139.19361 38.87693,-14.71925 38.66293,-14.62127 38.07191,-17.43029 -0.26322,-1.25109 -1.23274,-8.12471 -2.15448,-15.27471 -1.80954,-14.03678 -1.58696,-28.85084 0.95408,-63.5 0.70586,-9.625 1.08058,-23.53475 0.83269,-30.91055 -0.41335,-12.29935 -0.21261,-14.35854 2.42255,-24.85151 l 2.87325,-11.44096 11.78398,-7.04748 c 12.63811,-7.55831 12.99403,-7.9185 24.95009,-25.2495 9.3496,-13.55273 35.0743,-43.75056 38.0685,-44.68795 1.2086,-0.37838 14.8626,-2.76019 30.3422,-5.29292 26.8354,-4.39072 29.1277,-4.94317 49.2731,-11.87499 l 21.1283,-7.27002 4.6004,-7.43706 c 2.5302,-4.09038 4.7557,-7.61051 4.9457,-7.82251 0.1899,-0.21201 1.4685,0.35049 2.8413,1.25 1.3728,0.8995 2.858,1.63545 3.3003,1.63545 0.4423,0 2.751,-4.24403 5.1304,-9.43117 5.3413,-11.6443 6.4251,-12.74401 11.4437,-11.61214 2.0726,0.46746 4.8002,0.55594 6.0612,0.19662 1.2611,-0.35932 9.7535,-9.2033 18.8722,-19.653302 9.1186,-10.45 19.0916,-21.025 22.1622,-23.5 3.0706,-2.475 5.5859,-4.754154 5.5896,-5.064788 0,-0.310633 -1.6483,-1.354085 -3.6713,-2.318781 l -3.6782,-1.753994 4.3971,-2.497625 c 10.8881,-6.184513 13.5001,-6.832658 22.3435,-5.544286 4.4637,0.650295 14.5234,2.678344 22.3549,4.506775 l 14.2392,3.324419 11.6154,7.92414 c 6.3884,4.358277 12.5808,8.886319 13.7608,10.062317 2.907,2.897216 10.2456,17.05292 11.0274,21.271365 0.3475,1.87525 2.6617,7.83775 5.1425,13.25 5.4331,11.85262 6.9782,18.00275 6.0604,24.12279 -0.6135,4.09128 -1.1696,4.87031 -5.1364,7.19501 -2.4467,1.43383 -4.4485,2.94972 -4.4485,3.36864 0,0.41892 1.5449,2.25903 3.4331,4.08913 1.8882,1.8301 3.9698,4.62321 4.6258,6.20692 1.4659,3.53909 0.2495,5.55948 -12.558,20.85796 -4.8347,5.775 -13.9356,16.6875 -20.2243,24.25 -6.2887,7.5625 -11.8635,13.75 -12.3885,13.75 -0.525,0 -3.1975,-1.13659 -5.9389,-2.52576 -5.7019,-2.88939 -4.8392,-3.12665 -17.6992,4.86734 -5.9544,3.70138 -8.243,5.68903 -8.2249,7.14338 0.029,2.3136 2.1301,5.11687 17.9749,23.97884 6.325,7.5294 11.7783,14.44275 12.1184,15.36301 0.3402,0.92025 0.9426,6.03341 1.3388,11.36256 l 0.7204,9.68936 5.4112,3.72685 5.4112,3.72686 0.015,12.58378 c 0.01,8.15075 0.4613,13.46448 1.2823,15.08378 1.2224,2.41089 1.6229,2.50119 11.2353,2.53336 8.6304,0.0289 10.8733,0.41209 16.7177,2.85634 3.7125,1.55264 6.7466,3.11263 6.7424,3.46664 -0.01,0.7397 -1.7435,12.29036 -2.4648,16.41056 l -0.4844,2.7669 5.2597,-3.36458 c 2.8928,-1.85052 7.0456,-3.68212 9.2284,-4.07022 2.1828,-0.3881 4.7197,-0.92538 5.6376,-1.19396 1.0753,-0.31464 3.9661,1.66065 8.1274,5.55331 3.5522,3.32291 7.1822,6.04165 8.0668,6.04165 0.8845,0 4.577,-1.575 8.2056,-3.5 3.6286,-1.925 7.7975,-3.49012 9.2643,-3.47804 4.0277,0.0332 9.9531,3.09387 17.0809,8.82285 3.5276,2.83535 7.3526,5.17025 8.5,5.18866 1.1473,0.0184 8.6111,0.65616 16.5861,1.41722 l 14.50005,1.38375 5.5,-3.61417 c 3.025,-1.9878 13.0027,-11.01123 22.1728,-20.05208 l 16.6728,-16.4379 13.6532,0.94878 c 8.5794,0.59619 13.9281,1.39359 14.3929,2.14573 0.4069,0.65833 1.5226,7.37956 2.4793,14.93608 0.9567,7.55652 2.597,16.88912 3.6451,20.73912 3.2746,12.0289 4.2309,23.34175 2.5737,30.44545 -0.7914,3.39224 -1.9817,6.82179 -2.6451,7.62123 -0.6635,0.79943 -3.735,2.14758 -6.8255,2.99589 -3.0906,0.84831 -8.8817,2.68942 -12.8692,4.09136 l -7.25,2.54898 0.012,9.14854 c 0.01,5.0317 0.4422,32.09855 0.9685,60.14855 0.5264,28.05 1.4398,79.125 2.03,113.5 2.6387,153.69498 2.6886,155.24402 6.9505,216 2.2184,31.625 4.0348,58.98496 4.0364,60.7999 v 3.29991 l -5.75,-0.29991 -5.75,-0.2999 -0.7552,-10.5 c -0.4153,-5.775 -2.106,-28.95 -3.7571,-51.5 -11.6276,-158.80729 -10.8093,-143.53824 -11.9773,-223.5 -0.5905,-40.425 -0.9469,-96.29721 -0.792,-124.16047 0.1549,-27.86326 -0.012,-50.95695 -0.371,-51.31931 -0.359,-0.36236 -2.5361,-0.0945 -4.8381,0.59514 -4.467,1.33834 -4.4787,1.38099 -2.3983,8.7053 0.6297,2.21684 0.4854,2.28968 -3.2259,1.62832 -2.1368,-0.38079 -5.3394,-1.56922 -7.1169,-2.64095 -3.7125,-2.2385 -3.7154,-2.23734 -11.8702,4.86324 -5.7566,5.01237 -6.6555,5.42701 -15.87895,7.32479 l -9.7768,2.01166 -4.1211,-2.34919 -4.1212,-2.34919 -5.0696,5.53744 -5.0697,5.53744 -8.0321,-2.65466 c -13.0625,-4.31806 -16.3462,-4.80492 -24.9939,-3.70606 -42.1095,5.35078 -49.7713,5.9765 -73.1802,5.9765 h -23.7655 l -3.3496,-6.92408 c -3.2209,-6.65776 -3.6064,-7.04239 -10.023,-10 -3.6703,-1.69176 -7.0594,-3.07592 -7.5314,-3.07592 -0.4719,0 -4.936,3.95075 -9.9202,8.77943 -4.9842,4.82869 -19.0906,18.47601 -31.3476,30.32738 l -22.2855,21.54794 5.7249,16.90473 c 6.77,19.9904 9.4153,24.81234 54.2354,98.86171 l 29.6106,48.92119 14.4608,16.07881 c 7.9535,8.84335 20.0315,22.1058 26.8401,29.47212 6.8085,7.36632 14.1387,15.61923 16.2892,18.3398 l 3.9099,4.94649 v 10.83471 10.83472 l 16.25,14.96354 16.25,14.96354 6.9071,15.36195 c 4.6636,10.37232 10.4313,26.39628 17.7576,49.33424 9.6957,30.35622 11.8249,35.94443 20.0036,52.5 l 9.1529,18.5277 2.0894,14.60112 2.0894,14.60113 12.50475,10.89887 c 6.8776,5.99439 15.8956,13.66306 20.04,17.0415 6.978,5.68835 8.1058,7.17581 15.2498,20.11298 4.243,7.68369 11.2859,21.34451 15.6509,30.35736 l 7.9364,16.387 28.8091,17.2313 c 26.8945,16.0861 32.9296,19.168 90.8091,46.3741 34.1,16.0286 74.825,34.4031 90.5,40.8322 l 28.5,11.6892 2.6918,5.4366 c 1.4805,2.9901 2.718,5.7319 2.75,6.0929 0.06,0.6788 -47.2779,28.3584 -49.9418,29.2021 -0.825,0.2613 -36.6,-19.9987 -79.5,-45.0221 z"
       style="fill:#000000" />
  </g>
</svg>
