<?xml version="1.0" encoding="UTF-8" standalone="no"?>
<svg
   xmlns:dc="http://purl.org/dc/elements/1.1/"
   xmlns:cc="http://creativecommons.org/ns#"
   xmlns:rdf="http://www.w3.org/1999/02/22-rdf-syntax-ns#"
   xmlns:svg="http://www.w3.org/2000/svg"
   xmlns="http://www.w3.org/2000/svg"
   xmlns:sodipodi="http://sodipodi.sourceforge.net/DTD/sodipodi-0.dtd"
   xmlns:inkscape="http://www.inkscape.org/namespaces/inkscape"
   version="1.1"
   id="svg658"
   width="393.58896"
   height="799.81702"
   viewBox="0 0 393.58896 799.81702"
   sodipodi:docname="фигурное1.svg"
   inkscape:version="1.0 (4035a4fb49, 2020-05-01)">
  <metadata
     id="metadata664">
    <rdf:RDF>
      <cc:Work
         rdf:about="">
        <dc:format>image/svg+xml</dc:format>
        <dc:type
           rdf:resource="http://purl.org/dc/dcmitype/StillImage" />
        <dc:title></dc:title>
      </cc:Work>
    </rdf:RDF>
  </metadata>
  <defs
     id="defs662" />
  <sodipodi:namedview
     inkscape:document-rotation="0"
     pagecolor="#ffffff"
     bordercolor="#666666"
     borderopacity="1"
     objecttolerance="10"
     gridtolerance="10"
     guidetolerance="10"
     inkscape:pageopacity="0"
     inkscape:pageshadow="2"
     inkscape:window-width="1920"
     inkscape:window-height="1018"
     id="namedview660"
     showgrid="false"
     inkscape:zoom="1.0625"
     inkscape:cx="-2.52941"
     inkscape:cy="400.24303"
     inkscape:window-x="-6"
     inkscape:window-y="-6"
     inkscape:window-maximized="1"
     inkscape:current-layer="g666" />
  <g
     transform="translate(-402.52941,0.24302937)"
     inkscape:groupmode="layer"
     inkscape:label="Image"
     id="g666">
    <path
       id="path104"
       d="m 571.02941,798.51495 c -11.55,-0.73046 -23.15162,-1.37015 -25.78138,-1.42153 -3.3564,-0.0656 -4.96062,-0.56049 -5.38279,-1.66064 -0.91828,-2.393 0.76623,-3.4205 8.1354,-4.96233 8.07197,-1.68887 9.11221,-2.43644 10.00385,-7.1893 0.62601,-3.33695 0.37305,-3.9089 -2.97016,-6.71571 l -3.65446,-3.0681 -0.17523,-15.49867 -0.17523,-15.49867 3.23957,-6.20082 c 5.5131,-10.55255 7.6808,-20.08887 7.6829,-33.79918 0.002,-11.11469 -0.26615,-12.81154 -3.63058,-23 -7.12736,-21.5837 -10.16906,-43.80711 -10.19674,-74.5 -0.0179,-19.81087 0.20014,-22.52133 2.77495,-34.5 1.82273,-8.47981 2.97423,-17.34634 3.3117,-25.5 0.45506,-10.99494 0.21089,-13.82445 -2.02798,-23.5 -3.14891,-13.60839 -5.18645,-26.38889 -6.69587,-42 -1.17921,-12.19585 -3.1815,-84.70769 -2.96843,-107.5 l 0.11686,-12.5 -18.73316,-20.5 c -21.2379,-23.24098 -32.50408,-37.0685 -40.14299,-49.26942 -5.6928,-9.09259 -7.37583,-12.9412 -12.28928,-28.10212 -3.00356,-9.26779 -3.65246,-12.7313 -5.92563,-31.62846 -0.4962,-4.125 -1.82886,-10.64465 -2.96146,-14.48812 -2.09975,-7.12548 -3.21131,-18.45464 -5.00503,-51.01188 -1.13956,-20.68381 -3.44619,-31.80645 -7.42023,-35.78049 -1.38498,-1.38498 -3.23736,-5.1395 -4.12758,-8.36604 -0.88826,-3.21941 -2.23126,-7.42847 -2.98446,-9.35347 -0.7532,-1.925 -1.61699,-6.93042 -1.91953,-11.123153 -0.66034,-9.151281 -1.40937,-11.303625 -6.04898,-17.381842 -1.96003,-2.567776 -6.48779,-10.419229 -10.06169,-17.447672 -3.57391,-7.028444 -8.30762,-14.834815 -10.51937,-17.347491 -7.23973,-8.22477 -10.36612,-18.415491 -7.64651,-24.924431 1.44955,-3.469258 1.39087,-3.878333 -1.40385,-9.787783 -1.60415,-3.3919625 -2.91663,-6.2764858 -2.91663,-6.4100518 0,-0.1335659 1.84166,-1.7228428 4.09257,-3.5317263 l 4.09257,-3.28887927 8.15743,4.25767637 c 4.48659,2.341722 19.78353,11.01971 33.9932,19.284418 20.0065,11.636293 26.98583,15.208541 30.93294,15.832496 2.80345,0.443165 5.69712,1.405697 6.43038,2.13896 0.73326,0.733262 3.54222,6.623183 6.24213,13.088711 5.72783,13.716586 7.37455,16.097813 19.4918,28.18603 6.9385,6.921883 14.23149,12.527889 31.06698,23.880708 25.00806,16.86389 26.49117,17.99996 39.5,30.25716 6.65326,6.26885 11.44777,9.85701 16,11.97424 3.575,1.66272 11.675,7.15597 18,12.20722 8.2099,6.55657 14.64705,10.70657 22.5,14.50562 6.05,2.92684 14.77015,7.85837 19.37812,10.95895 l 8.37812,5.63744 9.58223,0.12282 c 9.25324,0.11861 9.66243,0.0296 11.91854,-2.59331 1.28497,-1.49387 2.16985,-3.21552 1.9664,-3.82588 -0.20345,-0.61036 -3.14316,-1.67105 -6.53267,-2.35707 -7.573,-1.53276 -11.95829,-3.71448 -13.28877,-6.61126 -0.55622,-1.21104 -4.00967,-3.79518 -7.67432,-5.74253 -8.60735,-4.57383 -10.76933,-8.02378 -10.52559,-16.79606 0.15224,-5.47889 0.65988,-7.04246 3.73706,-11.51038 2.86178,-4.15518 3.56088,-6.10742 3.56088,-9.94371 0,-8.2992 5.09433,-17.23655 11.57887,-20.31367 1.94234,-0.9217 7.37394,-5.18566 12.07022,-9.47546 8.02995,-7.334925 8.8757,-7.839207 14.1948,-8.463724 3.11086,-0.365246 6.96275,-1.292347 8.55975,-2.060225 5.20543,-2.502901 7.82556,-1.763343 15.42496,4.353859 6.99729,5.63252 7.14352,5.84482 7.15732,10.3908 0.008,2.55243 0.9042,6.60243 1.99212,9 1.08792,2.39756 1.98792,5.82534 2,7.6173 0.0192,2.84766 0.51473,3.45526 3.93366,4.82324 3.7188,1.48797 3.93687,1.82044 4.42226,6.74191 0.70875,7.18628 1.74106,11.95563 2.90334,13.41376 0.54232,0.68036 0.70124,2.37174 0.35315,3.75863 -0.3735,1.48813 -0.009,3.72728 0.88833,5.46333 0.83667,1.61794 1.52122,4.51987 1.52122,6.44874 0,2.86715 -0.67086,4.01656 -3.67686,6.29966 -10.67604,8.10863 -12.20882,10.20057 -15.246,20.80782 -1.57721,5.50835 -3.19227,13.04632 -3.58901,16.75104 l -0.72135,6.73585 3.99734,3.74896 c 2.19853,2.06193 6.26945,5.41852 9.0465,7.4591 6.03912,4.43756 10.13329,12.16937 13.02894,24.60507 2.81688,12.09741 10.15298,20.53078 9.35824,10.75796 -0.28713,-3.53081 -0.16401,-3.70006 2.46926,-3.39463 1.96187,0.22756 3.60248,1.56209 5.61631,4.5685 4.03224,6.01968 6.22596,6.24219 14.9441,1.51573 11.17684,-6.05942 10.54211,-6.16518 10.23348,1.70511 -0.14667,3.74033 -0.7812,7.76199 -1.41006,8.93702 -0.62886,1.17504 -0.89563,2.53729 -0.59283,3.02723 0.3028,0.48994 -0.13538,2.16814 -0.97372,3.72934 -0.83834,1.56119 -1.94519,4.0525 -2.45966,5.53623 -1.41218,4.07271 -4.93911,5.78687 -15.02468,7.3023 -5.03968,0.75725 -10.32658,2.13919 -11.74866,3.07097 -2.79858,1.8337 -7.63777,2.23165 -13.37665,1.10004 l -3.62531,-0.71485 -2.63834,8.46207 c -3.62264,11.61907 -7.41361,16.39209 -15.53724,19.56216 -5.52935,2.15771 -7.08022,3.39361 -11.92112,9.5 -15.86107,20.00745 -38.30408,37.69423 -57.27552,45.13742 -6.92111,2.71541 -7.03918,2.82219 -6.43981,5.82416 0.9994,5.00554 5.94083,14.70704 11.98977,23.53947 5.77256,8.42889 9.69616,15.51484 11.08456,20.01856 0.42389,1.375 1.84403,4.075 3.15588,6 1.31185,1.925 3.29124,6.41793 4.39864,9.98429 2.40036,7.73029 2.27896,7.89766 -8.05197,11.10067 -12.69151,3.93489 -25.80025,4.60749 -34.76423,1.78373 -3.20253,-1.00884 -3.25022,-1.11395 -3.26531,-7.19624 -0.008,-3.39485 -0.34592,-6.67593 -0.75,-7.2913 -0.40408,-0.61537 -3.04238,-2.28268 -5.86289,-3.70513 -5.06686,-2.55533 -11.3718,-7.96272 -11.3718,-9.75294 0,-1.38602 -6.36161,-1.11037 -8.3765,0.36295 -1.79864,1.3152 -2.30983,5.13516 -5.53021,41.3249 -0.59273,6.66101 -2.68347,20.38601 -4.64607,30.5 -2.59423,13.36891 -3.80083,22.89351 -4.41984,34.88907 -0.82411,15.96999 -1.00273,16.9497 -5.56072,30.5 -3.96752,11.79488 -4.70641,15.18132 -4.69115,21.5 0.01,4.125 -0.0197,18.525 -0.066,32 -0.0463,13.475 -0.11234,32.825 -0.14682,43 l -0.0627,18.5 3.13948,-0.13543 c 3.44387,-0.14856 3.37023,-0.6028 1.86555,11.50777 -0.86845,6.9898 8.03076,29.52471 17.71502,44.85866 4.61852,7.3129 8.23264,10.00482 22.77995,16.96726 5.775,2.76395 11.79838,6.41321 13.38528,8.10948 2.74681,2.93609 2.85163,3.38159 2.18403,9.28238 -0.66659,5.89188 -0.5439,6.41736 2.48198,10.63083 l 3.18323,4.43257 -1.79653,3.984 c -0.9881,2.1912 -2.71735,4.4768 -3.84279,5.07912 -3.09359,1.65564 -51.62489,1.84589 -76.0952,0.29831 z m 71.11819,-7.00747 c 1.86815,-2.55484 1.74546,-3.77545 -0.69077,-6.87262 -2.0023,-2.54551 -2.42617,-2.63486 -12.5,-2.63486 h -10.42742 v 5.42668 c 0,6.5438 -0.005,6.54125 12.86819,6.21093 7.86016,-0.20169 9.59062,-0.54458 10.75,-2.13013 z m -32.59344,-2.07258 c 0.53639,-1.4108 0.97525,-3.86846 0.97525,-5.46146 0,-2.50034 -0.51273,-3.0347 -3.75,-3.90823 -2.0625,-0.55653 -7.8,-3.34433 -12.75,-6.19512 -8.92907,-5.14241 -16.77248,-8.26428 -17.90866,-7.1281 -0.32523,0.32524 -0.59134,2.50644 -0.59134,4.84712 0,4.03809 -0.19182,4.31709 -3.75,5.45414 -2.0625,0.6591 -4.03292,1.48149 -4.37871,1.82755 -1.11574,1.11661 -1.86347,7.58937 -1.02888,8.90649 1.4637,2.30995 13.27257,4.06157 27.93234,4.14321 L 608.57891,792 Z m 23.13703,-494.13141 c 3.52088,-7.76515 8.27916,-27.68298 7.34027,-30.72586 -0.35259,-1.1427 -0.99676,-8.37763 -1.4315,-16.07763 -0.76522,-13.55338 -0.928,-14.31103 -5.10262,-23.74956 -4.26681,-9.64699 -4.41821,-9.83617 -14.39005,-17.98075 -5.54284,-4.52715 -17.72788,-15.68622 -27.07788,-24.79794 -9.48005,-9.23845 -22.52938,-20.71527 -29.5,-25.9451 -18.87259,-14.15949 -28.87761,-22.7923 -47,-40.55384 -13.68317,-13.41072 -17.65358,-16.718643 -23.25724,-19.376674 -6.43858,-3.05406 -8.74276,-3.290656 -8.74276,-0.897718 0,0.594212 -1.35,3.274414 -3,5.956002 -3.37865,5.491 -3.61347,7.97159 -1.5,15.84558 0.81194,3.025 1.4816,6.67113 1.48813,8.1025 0.007,1.43138 2.19919,7.28138 4.87258,13 5.81732,12.44378 9.44399,22.83658 12.68878,36.36166 3.43901,14.33469 4.49629,22.75354 5.27902,42.03584 0.68823,16.95394 0.69884,17.01355 3.91761,22 1.77513,2.75 4.62419,7.35858 6.33124,10.24128 2.75145,4.6464 4.76756,6.2912 17.76318,14.49169 8.0627,5.08773 18.25946,12.16013 22.65946,15.71646 7.31023,5.90855 8.51732,6.52248 14,7.12055 4.21761,0.46007 7.51121,1.60095 11.08716,3.84051 3.75736,2.35317 7.67843,3.65748 15,4.98961 5.45206,0.99198 12.38784,2.99087 15.41284,4.44198 4.38688,2.10441 6.97999,2.64036 12.81272,2.64815 l 7.31271,0.01 3.03635,-6.69651 z M 454.98285,41.388199 c 2.50061,-2.53649 4.54656,-4.750233 4.54656,-4.919429 0,-0.473038 -19.68134,-12.677365 -27.07138,-16.786867 l -6.57138,-3.654255 -1.76699,3.705411 c -2.02314,4.242567 -2.77346,3.221987 8.10868,11.029377 3.2676,2.344339 8.07302,6.731839 10.67871,9.75 2.60569,3.01816 5.36573,5.487564 6.13343,5.487564 0.7677,0 3.44176,-2.07531 5.94237,-4.611801 z m -35.61454,-25.315354 2.20719,-3.927156 -2.24555,-1.572844 C 416.82064,8.8152559 411.97363,8.472214 411.03807,9.9859949 410.38892,11.036336 415.22452,20 416.44029,20 c 0.39646,0 1.71407,-1.76722 2.92802,-3.927155 z"
       style="fill:#000000" />
  </g>
</svg>
