<?xml version="1.0" encoding="UTF-8" standalone="no"?>
<svg
   xmlns:dc="http://purl.org/dc/elements/1.1/"
   xmlns:cc="http://creativecommons.org/ns#"
   xmlns:rdf="http://www.w3.org/1999/02/22-rdf-syntax-ns#"
   xmlns:svg="http://www.w3.org/2000/svg"
   xmlns="http://www.w3.org/2000/svg"
   xmlns:sodipodi="http://sodipodi.sourceforge.net/DTD/sodipodi-0.dtd"
   xmlns:inkscape="http://www.inkscape.org/namespaces/inkscape"
   inkscape:version="1.0 (4035a4fb49, 2020-05-01)"
   sodipodi:docname="хоккей.svg"
   viewBox="0 0 196.45987 186.32942"
   height="186.32942"
   width="196.45987"
   id="svg8"
   version="1.1">
  <metadata
     id="metadata14">
    <rdf:RDF>
      <cc:Work
         rdf:about="">
        <dc:format>image/svg+xml</dc:format>
        <dc:type
           rdf:resource="http://purl.org/dc/dcmitype/StillImage" />
        <dc:title></dc:title>
      </cc:Work>
    </rdf:RDF>
  </metadata>
  <defs
     id="defs12" />
  <sodipodi:namedview
     inkscape:current-layer="g16"
     inkscape:window-maximized="1"
     inkscape:window-y="-6"
     inkscape:window-x="-6"
     inkscape:cy="85.662149"
     inkscape:cx="109.9105"
     inkscape:zoom="3.0935922"
     showgrid="false"
     id="namedview10"
     inkscape:window-height="1018"
     inkscape:window-width="1920"
     inkscape:pageshadow="2"
     inkscape:pageopacity="0"
     guidetolerance="10"
     gridtolerance="10"
     objecttolerance="10"
     borderopacity="1"
     bordercolor="#666666"
     pagecolor="#ffffff"
     inkscape:document-rotation="0" />
  <g
     transform="translate(-16.51293,-5.0670825)"
     id="g16"
     inkscape:label="Image"
     inkscape:groupmode="layer">
    <path
       id="path118"
       d="m 121.85335,190.7481 c 0,-0.45286 -0.55597,-0.64841 -1.84346,-0.64841 -1.0139,0 -1.84346,-0.19452 -1.84346,-0.43227 0,-0.23775 -0.71105,-0.43227 -1.5801,-0.43227 -0.86906,0 -1.58011,-0.19452 -1.58011,-0.43227 0,-0.23775 -0.93114,-0.43227 -2.06919,-0.43227 -1.13806,0 -2.42471,-0.29178 -2.85924,-0.64841 -0.43453,-0.35662 -1.51803,-0.6484 -2.40778,-0.6484 -0.88975,0 -1.61773,-0.19453 -1.61773,-0.43228 0,-0.23775 -0.82955,-0.43227 -1.84346,-0.43227 -1.0139,0 -1.84345,-0.19452 -1.84345,-0.43227 0,-0.23775 -0.47403,-0.43227 -1.05341,-0.43227 -0.58522,0 -1.0534,-0.28818 -1.0534,-0.64841 0,-0.35662 -0.35552,-0.6484 -0.79005,-0.6484 -0.62703,0 -0.79006,-0.62439 -0.79006,-3.0259 0,-1.72908 -0.22573,-3.0259 -0.5267,-3.0259 -0.28969,0 -0.5267,-0.38904 -0.5267,-0.86454 0,-0.4755 -0.25754,-0.86454 -0.5723,-0.86454 -0.37132,0 -0.53716,-1.17652 -0.47221,-3.3501 0.17099,-5.72277 0.0656,-6.59214 -0.79895,-6.59214 -0.59693,0 -0.79005,-0.52833 -0.79005,-2.16135 0,-1.18875 -0.23702,-2.16136 -0.5267,-2.16136 -0.28969,0 -0.52671,-0.38904 -0.52671,-0.86454 0,-0.4755 0.23702,-0.86454 0.52671,-0.86454 0.28968,0 0.5267,-0.4701 0.5267,-1.04466 0,-0.57456 0.29627,-1.15812 0.65838,-1.29681 0.5267,-0.20173 0.5267,-0.30259 0,-0.50432 -0.43991,-0.16848 -0.65838,-1.31602 -0.65838,-3.45816 0,-1.84916 -0.22291,-3.20602 -0.5267,-3.20602 -0.31212,0 -0.52671,-1.58499 -0.52671,-3.89044 0,-2.30544 0.21459,-3.89044 0.52671,-3.89044 0.28968,0 0.53424,-0.82671 0.54345,-1.83715 0.009,-1.01043 0.36474,-2.21474 0.79005,-2.67624 0.42532,-0.4615 0.7733,-1.19096 0.7733,-1.62102 0,-0.43006 0.23702,-0.78192 0.52671,-0.78192 0.28968,0 0.5267,-0.88924 0.5267,-1.9761 0,-1.90427 -0.84212,-3.21116 -2.06919,-3.21116 -0.31038,0 -0.56432,-0.36823 -0.56432,-0.81829 0,-0.91712 -0.97902,-1.34306 -3.08702,-1.34306 -0.81653,0 -1.74364,-0.36767 -2.18,-0.86454 -0.41759,-0.4755 -1.06245,-0.86455 -1.43303,-0.86455 -0.37058,0 -0.67378,-0.24884 -0.67378,-0.55297 0,-0.30414 -0.47403,-0.83339 -1.0534,-1.17611 -0.57938,-0.34272 -1.05341,-1.06649 -1.05341,-1.60838 0,-0.58759 -0.31887,-0.98525 -0.79005,-0.98525 -0.43453,0 -0.79005,-0.3461 -0.79005,-0.76911 0,-0.42301 -0.47404,-1.04952 -1.05341,-1.39224 -0.57937,-0.34272 -1.0534,-0.87197 -1.0534,-1.17611 0,-0.30413 -0.35553,-0.55298 -0.79006,-0.55298 -0.43891,0 -0.79005,-0.38424 -0.79005,-0.86454 0,-0.4755 -0.23701,-0.86454 -0.5267,-0.86454 -0.28969,0 -0.5267,-0.20842 -0.5267,-0.46315 0,-0.76284 -1.42981,-1.69821 -2.59589,-1.69821 -0.60007,0 -1.09103,0.19453 -1.09103,0.43228 0,0.23774 0.23702,0.43227 0.52671,0.43227 0.75585,0 0.6509,1.1772 -0.13168,1.47692 -0.5267,0.20173 -0.5267,0.30259 0,0.50432 0.8237,0.31548 0.95127,10.12235 0.13168,10.12235 -0.28969,0 -0.52671,0.68082 -0.52671,1.51295 0,0.83212 0.23702,1.51294 0.52671,1.51294 0.31769,0 0.5267,1.80114 0.5267,4.53885 0,2.73772 -0.20901,4.53885 -0.5267,4.53885 -0.28969,0 -0.52671,0.40293 -0.52671,0.89542 0,0.95701 -1.1397,2.13047 -2.06918,2.13047 -0.31038,0 -0.56433,0.19453 -0.56433,0.43228 0,0.23775 -0.65837,0.43227 -1.46305,0.43227 -0.81404,0 -1.86545,0.3857 -2.37016,0.86948 -0.9736,0.93322 -1.2512,3.45323 -0.3804,3.45323 0.28968,0 0.5267,0.68082 0.5267,1.51295 0,1.05666 0.23827,1.51295 0.79005,1.51295 0.63643,0 0.79005,0.67242 0.79005,3.45816 0,1.902 -0.22104,3.45817 -0.4912,3.45817 -0.27017,0 -0.65696,0.4286 -0.85954,0.95245 -0.51061,1.32036 -1.53677,2.07345 -2.82525,2.07345 -0.73989,0 -1.09103,0.27824 -1.09103,0.86454 0,0.4755 -0.0991,0.86454 -0.22027,0.86454 -0.12115,0 -0.59518,0.11808 -1.0534,0.26239 -0.62841,0.19791 -0.83313,-0.0145 -0.83313,-0.86454 0,-0.91388 -0.24894,-1.12693 -1.31676,-1.12693 -0.72421,0 -1.31675,-0.19452 -1.31675,-0.43227 0,-0.23775 -0.59254,-0.43227 -1.31676,-0.43227 -0.99293,0 -1.31675,-0.22672 -1.31675,-0.92191 0,-0.50705 -0.43731,-1.2365 -0.9718,-1.62101 -0.78289,-0.56322 -1.04371,-1.62318 -1.3418,-5.45304 -0.20351,-2.61467 -0.59576,-4.9392 -0.87167,-5.16564 -0.27591,-0.22644 -0.50165,-1.73446 -0.50165,-3.35116 0,-1.67145 -0.2272,-2.93944 -0.5267,-2.93944 -0.28969,0 -0.5267,-1.06987 -0.5267,-2.37749 0,-1.30762 0.23701,-2.37749 0.5267,-2.37749 0.28969,0 0.5267,-0.68083 0.5267,-1.51295 0,-1.05666 0.23827,-1.51295 0.79005,-1.51295 0.55179,0 0.79006,-0.45629 0.79006,-1.51295 0,-1.24216 -0.19528,-1.51295 -1.09103,-1.51295 -1.56819,0 -2.59589,-1.0268 -2.59589,-2.59362 0,-0.74721 -0.35552,-1.65035 -0.79005,-2.00698 -0.43453,-0.35662 -0.79005,-1.31533 -0.79005,-2.13048 0,-0.81513 -0.23702,-1.48207 -0.5267,-1.48207 -0.29262,0 -0.52671,-1.15272 -0.52671,-2.59362 0,-1.44091 -0.23409,-2.59363 -0.5267,-2.59363 -0.28969,0 -0.5267,-1.06987 -0.5267,-2.37749 0,-1.30762 -0.23702,-2.37749 -0.5267,-2.37749 -0.30439,0 -0.53378,-1.41405 -0.54346,-3.3501 -0.0113,-2.25821 -0.26879,-3.62359 -0.79005,-4.1892 -0.52663,-0.57144 -0.7733,-1.91584 -0.7733,-4.21465 0,-3.087364 -0.0899,-3.375546 -1.05341,-3.375546 -1.01327,0 -1.0534,-0.288182 -1.0534,-7.564744 0,-6.436036 -0.11788,-7.564743 -0.79005,-7.564743 -0.58302,0 -0.79006,-0.500315 -0.79006,-1.909199 0,-1.050056 0.25231,-1.97822 0.56068,-2.062582 0.30838,-0.08436 0.69511,-0.975921 0.85941,-1.981241 0.1643,-1.005324 0.5284,-1.827858 0.80911,-1.827858 0.305,0 0.37491,-0.826273 0.17372,-2.053288 -0.18517,-1.129308 -0.4671,-3.171789 -0.62652,-4.538846 -0.20283,-1.73929 -0.51301,-2.485559 -1.03312,-2.485559 -0.53622,0 -0.74328,-0.575521 -0.74328,-2.065927 0,-1.570039 -0.25285,-2.215497 -1.0534,-2.689055 -0.57937,-0.342721 -1.0534,-0.925998 -1.0534,-1.296173 0,-0.811861 -1.81281,-2.161995 -2.90289,-2.161995 -0.43121,0 -0.78403,-0.194522 -0.78403,-0.432271 0,-0.237749 -0.35552,-0.432271 -0.79005,-0.432271 -0.43453,0 -0.79005,-0.203362 -0.79005,-0.451918 0,-0.586782 -2.42131,-2.57398 -3.13628,-2.57398 -0.30285,0 -0.55064,-0.291783 -0.55064,-0.648407 0,-0.360224 -0.46818,-0.648406 -1.0534,-0.648406 -0.57937,0 -1.05341,-0.194522 -1.05341,-0.432271 0,-0.237749 -0.59254,-0.432271 -1.31675,-0.432271 -0.72422,0 -1.31676,-0.194522 -1.31676,-0.432271 0,-0.237749 -0.82955,-0.432271 -1.84345,-0.432271 -1.2875,0 -1.84346,-0.195551 -1.84346,-0.648407 0,-0.365027 -0.47084,-0.648407 -1.07735,-0.648407 -1.37349,0 -3.66297,-1.859707 -3.66297,-2.975372 0,-0.469323 -0.35552,-1.145097 -0.79005,-1.501721 -0.48866,-0.401046 -0.79006,-1.461622 -0.79006,-2.780089 0,-1.769199 0.22391,-2.269684 1.31676,-2.943238 0.72421,-0.446355 1.31675,-0.973801 1.31675,-1.172103 0,-0.673397 1.50035,-1.595609 2.59589,-1.595609 0.60007,0 1.09103,-0.194522 1.09103,-0.432271 0,-0.237749 1.06657,-0.432271 2.37016,-0.432271 1.75567,0 2.37016,-0.168106 2.37016,-0.648407 0,-0.514608 0.76079,-0.648407 3.68691,-0.648407 2.10681,0 3.68692,-0.185258 3.68692,-0.432271 0,-0.237749 0.82955,-0.432271 1.84345,-0.432271 1.0139,0 1.84346,-0.194522 1.84346,-0.432271 0,-0.237749 0.35552,-0.432271 0.79005,-0.432271 0.43453,0 0.79006,-0.291783 0.79006,-0.648406 0,-0.360226 0.46818,-0.648407 1.0534,-0.648407 0.57937,0 1.0534,-0.194522 1.0534,-0.432271 0,-0.237749 0.35553,-0.432271 0.79006,-0.432271 0.43453,0 0.79005,-0.194522 0.79005,-0.432271 0,-0.237749 0.47403,-0.432271 1.0534,-0.432271 0.57938,0 1.05341,-0.194522 1.05341,-0.432271 0,-0.23775 0.82955,-0.432272 1.84346,-0.432272 1.28749,0 1.84345,-0.195551 1.84345,-0.648406 0,-0.923433 6.58727,-0.923433 7.71243,0 0.43453,0.356623 1.60267,0.648406 2.59588,0.648406 0.99321,0 1.80584,0.194522 1.80584,0.432272 0,0.237749 0.59254,0.432271 1.31676,0.432271 0.72421,0 1.31675,0.194522 1.31675,0.432271 0,0.237749 0.82956,0.432271 1.84346,0.432271 1.0139,0 1.84345,-0.194522 1.84345,-0.432271 0,-0.237749 1.06658,-0.432271 2.37016,-0.432271 2.17704,0 2.37016,-0.08806 2.37016,-1.080678 0,-0.594373 -0.23701,-1.080678 -0.5267,-1.080678 -0.28969,0 -0.5267,-0.486305 -0.5267,-1.080677 0,-0.594373 -0.23702,-1.080678 -0.5267,-1.080678 -0.28969,0 -0.52671,-0.389044 -0.52671,-0.864542 0,-0.480302 -0.35113,-0.864543 -0.79005,-0.864543 -0.49159,0 -0.79005,-0.408255 -0.79005,-1.080677 0,-0.594373 -0.23702,-1.080678 -0.5267,-1.080678 -0.28969,0 -0.52671,-0.875349 -0.52671,-1.94522 0,-1.069871 0.23702,-1.94522 0.52671,-1.94522 0.28968,0 0.5267,-0.875349 0.5267,-1.94522 0,-1.440903 0.20483,-1.945219 0.79005,-1.945219 0.49159,0 0.79005,-0.408256 0.79005,-1.080678 0,-0.594373 0.23702,-1.080678 0.52671,-1.080678 0.28968,0 0.5267,-0.4863045 0.5267,-1.0806773 0,-0.8645421 0.26335,-1.0806777 1.31675,-1.0806777 0.72422,0 1.31676,-0.194522 1.31676,-0.4322711 0,-0.2377491 0.47403,-0.432271 1.0534,-0.432271 0.57938,0 1.05341,-0.1734343 1.05341,-0.3854095 0,-0.2119752 0.59254,-0.5074642 1.31675,-0.6566422 0.72422,-0.1491781 1.31676,-0.4620488 1.31676,-0.6952683 0,-0.7141263 6.81031,-0.5159993 7.71242,0.2243712 0.43453,0.3566236 1.31334,0.6484066 1.95291,0.6484066 0.63958,0 1.50452,0.389044 1.92211,0.8645422 0.41759,0.4754982 1.29947,0.8645421 1.95973,0.8645421 0.92938,0 1.20048,0.2440477 1.20048,1.0806777 0,0.5943728 0.23702,1.0806773 0.52671,1.0806773 0.28968,0 0.5267,0.486305 0.5267,1.080678 0,0.672422 0.29847,1.080678 0.79005,1.080678 0.65211,0 0.79005,0.792496 0.79005,4.538846 0,2.939443 -0.19885,4.538846 -0.56432,4.538846 -0.92948,0 -2.06919,1.173462 -2.06919,2.130479 0,0.49248 -0.23701,0.895419 -0.5267,0.895419 -0.28968,0 -0.5267,0.562754 -0.5267,1.250565 0,0.712847 -0.33971,1.357551 -0.79005,1.499382 -0.43453,0.13685 -0.79006,0.601023 -0.79006,1.031498 0,0.430475 -0.47403,1.063088 -1.0534,1.405808 -0.57937,0.342719 -1.0534,1.066489 -1.0534,1.608376 0,0.587597 -0.31887,0.98525 -0.79006,0.98525 -0.55178,0 -0.79005,0.456287 -0.79005,1.512949 0,0.832122 0.25394,1.512949 0.56432,1.512949 0.72921,0 2.06919,1.099739 2.06919,1.698208 0,0.254731 0.59254,0.463147 1.31676,0.463147 0.72421,0 1.31675,0.194522 1.31675,0.432271 0,0.237749 0.47403,0.432271 1.0534,0.432271 0.57938,0 1.05341,0.194522 1.05341,0.432272 0,0.237749 0.24702,0.432271 0.54893,0.432271 0.51661,0 1.11239,0.33824 2.85529,1.621016 0.40378,0.297187 0.88652,0.540339 1.07275,0.540339 0.73343,0 1.84345,1.282854 1.84345,2.130479 0,0.49248 0.23702,0.895419 0.52671,0.895419 0.28968,0 0.5267,0.486305 0.5267,1.080677 0,0.672422 0.29846,1.080678 0.79005,1.080678 0.55178,0 0.79005,0.456286 0.79005,1.512949 0,0.832122 0.23702,1.512949 0.52671,1.512949 0.32772,0 0.5267,2.449537 0.5267,6.484066 0,4.034528 0.19898,6.484066 0.5267,6.484066 0.28969,0 0.5267,0.666934 0.5267,1.482072 0,0.815142 0.35553,1.773854 0.79005,2.130478 0.65107,0.534335 0.79006,2.212817 0.79006,9.540841 0,5.640109 0.19263,8.892434 0.5267,8.892434 0.28969,0 0.5267,0.680827 0.5267,1.512949 0,0.832122 0.23702,1.512949 0.5267,1.512949 0.28969,0 0.52671,0.486305 0.52671,1.080677 0,0.594373 -0.23702,1.080678 -0.52671,1.080678 -0.30476,0 -0.5267,1.379152 -0.5267,3.27291 0,3.205805 0.5977,4.507969 2.06919,4.507969 0.31038,0 0.56432,0.291783 0.56432,0.648407 0,0.360225 0.46818,0.648407 1.05341,0.648407 0.57937,0 1.0534,0.194522 1.0534,0.432271 0,0.237749 0.25394,0.432271 0.56432,0.432271 0.60608,0 2.06919,1.061858 2.06919,1.501728 0,0.6393 2.68264,2.38872 3.66298,2.38872 0.59254,0 1.07734,0.20841 1.07734,0.46314 0,0.50379 1.29658,1.69821 1.84346,1.69821 0.43947,0 1.84346,1.15227 1.84346,1.51295 0,0.44883 1.45534,1.51295 2.06918,1.51295 0.31038,0 0.56433,0.19452 0.56433,0.43227 0,0.23775 0.47403,0.43227 1.0534,0.43227 0.58522,0 1.0534,0.28818 1.0534,0.64841 0,0.35662 0.24779,0.6484 0.55064,0.6484 0.71497,0 3.13628,1.9872 3.13628,2.57398 0,0.24856 0.35552,0.45192 0.79005,0.45192 0.43453,0 0.79005,0.19452 0.79005,0.43227 0,0.23775 0.47404,0.43227 1.05341,0.43227 0.57937,0 1.0534,0.19453 1.0534,0.43228 0,0.23774 0.35553,0.43227 0.79006,0.43227 0.43452,0 0.79005,0.20336 0.79005,0.45191 0,0.47436 2.3616,2.57398 2.89515,2.57398 0.29682,0 1.03458,0.45718 2.61588,1.62102 0.40378,0.29719 0.88036,0.54034 1.05907,0.54034 0.54502,0 2.91054,2.09198 2.91054,2.57398 0,0.24856 0.3032,0.45192 0.67377,0.45192 0.37058,0 1.01544,0.38904 1.43303,0.86454 0.41759,0.4755 1.29947,0.86454 1.95974,0.86454 0.66026,0 1.20048,0.20336 1.20048,0.45192 0,0.24856 0.58176,0.92938 1.29281,1.51295 0.71105,0.58356 1.54061,1.06103 1.84346,1.06103 0.30285,0 0.55064,0.20841 0.55064,0.46315 0,0.70016 1.39295,1.6982 2.37016,1.6982 0.85151,0 2.37016,0.96941 2.37016,1.51295 0,0.36069 1.40398,1.51295 1.84346,1.51295 0.54687,0 1.84345,1.19442 1.84345,1.69821 0,0.25473 0.47403,0.46315 1.05341,0.46315 0.57937,0 1.0534,0.19452 1.0534,0.43227 0,0.23775 0.25395,0.43227 0.56433,0.43227 0.7292,0 2.06918,1.09974 2.06918,1.69821 0,0.25473 0.35553,0.46315 0.79005,0.46315 0.43453,0 0.79006,0.19452 0.79006,0.43227 0,0.23775 0.47403,0.43227 1.0534,0.43227 0.57937,0 1.05341,0.19452 1.05341,0.43227 0,0.26601 2.63351,0.43227 6.84712,0.43227 4.21362,0 6.84713,-0.16626 6.84713,-0.43227 0,-0.23775 1.06657,-0.43227 2.37016,-0.43227 1.30359,0 2.37016,-0.19452 2.37016,-0.43227 0,-0.23775 1.06657,-0.43227 2.37016,-0.43227 1.75567,0 2.37016,-0.16811 2.37016,-0.64841 0,-0.50432 0.70226,-0.64841 3.16021,-0.64841 1.75567,0 3.16021,-0.19212 3.16021,-0.43227 0,-0.24015 1.40454,-0.43227 3.16021,-0.43227 1.75567,0 3.16021,0.19212 3.16021,0.43227 0,0.23775 0.47404,0.43227 1.05341,0.43227 0.7725,0 1.0534,0.28818 1.0534,1.08068 0,0.67242 0.29847,1.08068 0.79006,1.08068 0.49158,0 0.79005,0.40825 0.79005,1.08068 0,0.59437 -0.3032,1.08067 -0.67378,1.08067 -0.37058,0 -1.01544,0.38905 -1.43303,0.86454 -0.60665,0.69079 -1.36347,0.86455 -3.76557,0.86455 -1.97001,0 -3.27865,0.22351 -3.79636,0.6484 -0.44355,0.36402 -1.7306,0.64841 -2.93449,0.64841 -1.17944,0 -2.14443,0.19452 -2.14443,0.43227 0,0.25428 -1.84346,0.43227 -4.47697,0.43227 -2.63351,0 -4.47696,0.17799 -4.47696,0.43227 0,0.26471 -2.50697,0.43227 -6.4675,0.43227 -5.86329,0 -6.53844,-0.0808 -7.22676,-0.86454 -0.41759,-0.4755 -1.29946,-0.86454 -1.95973,-0.86454 -0.66026,0 -1.20048,-0.20841 -1.20048,-0.46315 0,-0.50378 -1.29658,-1.69821 -1.84346,-1.69821 -0.54687,0 -1.84345,-1.19442 -1.84345,-1.6982 0,-0.25474 -0.35553,-0.46315 -0.79006,-0.46315 -0.43452,0 -0.79005,-0.19452 -0.79005,-0.43227 0,-0.23775 -0.37245,-0.43227 -0.82767,-0.43227 -0.94596,0 -2.33254,-1.00951 -2.33254,-1.69821 0,-0.25473 -0.23918,-0.46315 -0.5315,-0.46315 -0.29232,0 -1.27554,-0.58356 -2.18492,-1.29681 -0.90939,-0.71325 -1.84452,-1.29681 -2.07808,-1.29681 -0.23355,0 -1.01718,-0.48631 -1.74139,-1.08068 -0.72422,-0.59437 -1.56455,-1.08068 -1.86741,-1.08068 -0.30285,0 -0.55064,-0.20842 -0.55064,-0.46315 0,-0.49741 -1.29382,-1.69821 -1.82977,-1.69821 -0.1787,0 -0.89527,-0.43767 -1.59237,-0.97261 -1.90991,-1.46561 -2.81921,-2.05328 -3.17702,-2.05328 -0.42773,0 -1.82807,-1.15895 -1.82807,-1.51295 0,-0.54355 -1.51865,-1.51295 -2.37016,-1.51295 -0.97721,0 -2.37016,-0.99804 -2.37016,-1.69821 0,-0.25473 -0.26043,-0.46315 -0.57873,-0.46315 -0.3183,0 -1.24296,-0.58356 -2.05478,-1.29681 -0.81182,-0.71325 -1.72569,-1.29681 -2.03083,-1.29681 -0.30514,0 -1.14733,-0.48631 -1.87155,-1.08068 -0.72422,-0.59437 -1.46297,-1.08068 -1.64167,-1.08068 -0.42903,0 -1.82978,-1.1582 -1.82978,-1.51295 0,-0.44882 -1.45534,-1.51295 -2.06918,-1.51295 -0.31038,0 -0.56433,-0.19452 -0.56433,-0.43227 0,-0.23775 -0.47403,-0.43227 -1.0534,-0.43227 -0.58522,0 -1.0534,-0.28818 -1.0534,-0.6484 0,-0.35663 -0.24779,-0.64841 -0.55064,-0.64841 -0.71497,0 -3.13628,-1.9872 -3.13628,-2.57398 0,-0.24856 -0.35552,-0.45192 -0.79005,-0.45192 -0.43453,0 -0.79005,-0.19452 -0.79005,-0.43227 0,-0.23775 -0.47404,-0.43227 -1.05341,-0.43227 -0.57937,0 -1.0534,-0.19452 -1.0534,-0.43227 0,-0.23775 -0.35553,-0.43227 -0.79006,-0.43227 -0.43452,0 -0.79005,-0.217 -0.79005,-0.48221 0,-0.58414 -4.25547,-3.8405 -5.01884,-3.8405 -0.29828,0 -0.884,-0.38905 -1.30159,-0.86455 -0.41759,-0.47549 -1.06245,-0.86454 -1.43303,-0.86454 -0.37057,0 -0.67377,-0.20841 -0.67377,-0.46315 0,-0.59847 -1.33998,-1.698208 -2.06919,-1.698208 -0.31038,0 -0.56432,-0.194522 -0.56432,-0.432271 0,-0.243844 -1.49232,-0.432271 -3.42357,-0.432271 -3.60284,0 -4.10135,0.272754 -2.37016,1.29681 0.57938,0.34273 1.05341,1.06649 1.05341,1.60838 0,0.54189 0.25394,0.98525 0.56432,0.98525 0.85312,0 2.06919,1.14321 2.06919,1.94522 0,0.80201 1.21606,1.94522 2.06918,1.94522 0.31038,0 0.56433,0.44337 0.56433,0.98525 0,0.54189 0.47403,1.26566 1.0534,1.60838 0.57937,0.34272 1.05341,1.06649 1.05341,1.60838 0,0.54188 0.29627,0.98676 0.65837,0.98862 0.74709,0.004 1.97514,1.93668 1.97514,3.1087 0,0.4281 0.23701,0.77837 0.5267,0.77837 0.28968,0 0.5267,0.4863 0.5267,1.08067 0,0.59438 -0.23702,1.08068 -0.5267,1.08068 -0.28969,0 -0.5267,0.87535 -0.5267,1.94522 0,1.06987 0.23701,1.94522 0.5267,1.94522 0.28968,0 0.5267,0.48631 0.5267,1.08068 0,0.67242 0.29847,1.08068 0.79005,1.08068 0.49159,0 0.79006,0.40825 0.79006,1.08068 0,0.59437 0.23701,1.08067 0.5267,1.08067 0.3206,0 0.5267,1.94522 0.5267,4.97112 0,3.0259 -0.2061,4.97112 -0.5267,4.97112 -0.28969,0 -0.5267,0.68082 -0.5267,1.51295 0,0.83212 0.23701,1.51295 0.5267,1.51295 0.30724,0 0.5267,1.4409 0.5267,3.45816 0,2.01727 0.21946,3.45817 0.52671,3.45817 0.28968,0 0.5267,0.68083 0.5267,1.51295 0,0.83212 -0.23702,1.51295 -0.5267,1.51295 -0.29262,0 -0.52671,1.15272 -0.52671,2.59363 0,1.4409 -0.23408,2.59362 -0.5267,2.59362 -0.28969,0 -0.5267,0.87535 -0.5267,1.94522 0,1.44091 -0.20483,1.94522 -0.79006,1.94522 -0.55178,0 -0.79005,0.45629 -0.79005,1.51295 0,0.83212 -0.23702,1.51295 -0.5267,1.51295 -0.28969,0 -0.5267,0.48631 -0.5267,1.08068 0,0.59437 0.23701,1.08068 0.5267,1.08068 0.28968,0 0.5267,-0.29179 0.5267,-0.64841 0,-0.40345 0.49744,-0.64841 1.31676,-0.64841 0.72421,0 1.31675,0.20842 1.31675,0.46315 0,0.50379 -1.29658,1.69821 -1.84346,1.69821 -0.18622,0 -0.67718,0.27789 -1.09102,0.61753 -0.84924,0.69697 -1.03694,4.13745 -0.22573,4.13745 0.28968,0 0.5267,0.68083 0.5267,1.51295 0,1.05666 0.23827,1.51295 0.79005,1.51295 0.43454,0 0.79006,0.29178 0.79006,0.6484 0,0.35663 0.42171,0.64841 0.93713,0.64841 0.51542,0 1.27879,0.38904 1.69638,0.86454 0.41759,0.4755 1.29947,0.86454 1.95973,0.86454 0.71596,0 1.20048,0.26171 1.20048,0.64841 0,0.36503 0.47084,0.64841 1.07734,0.64841 0.98034,0 3.66298,1.74942 3.66298,2.38872 0,0.14666 0.35552,0.55844 0.79005,0.91507 1.08512,0.89056 1.08512,4.47709 0,4.47709 -0.62703,0 -0.79005,0.62439 -0.79005,3.0259 0,1.72908 -0.22573,3.02589 -0.5267,3.02589 -0.28969,0 -0.5267,0.29179 -0.5267,0.64841 0,0.40345 -0.49744,0.64841 -1.31676,0.64841 -0.81932,0 -1.31675,-0.24496 -1.31675,-0.64841 z m -2.10681,-4.53885 c 0,-0.4803 -0.35114,-0.86454 -0.79006,-0.86454 -0.43891,0 -0.79005,0.38424 -0.79005,0.86454 0,0.4803 0.35114,0.86455 0.79005,0.86455 0.43892,0 0.79006,-0.38425 0.79006,-0.86455 z m -7.37383,-1.32769 c 0,-0.76283 -1.42981,-1.6982 -2.59589,-1.6982 -0.60007,0 -1.09103,-0.19453 -1.09103,-0.43228 0,-0.23774 -0.23701,-0.43227 -0.5267,-0.43227 -0.28969,0 -0.5267,0.38905 -0.5267,0.86455 0,0.57636 0.35113,0.86454 1.0534,0.86454 0.58523,0 1.05341,0.28818 1.05341,0.6484 0,0.40346 0.49743,0.64841 1.31675,0.64841 0.72422,0 1.31676,-0.20841 1.31676,-0.46315 z M 96.65356,85.598154 c 0.14923,-2.165618 -0.12756,-3.344386 -0.89933,-3.830026 -0.41948,-0.263962 -0.76269,-1.09068 -0.76269,-1.837152 0,-0.746476 -0.23702,-1.357227 -0.5267,-1.357227 -0.28969,0 -0.52671,-0.875349 -0.52671,-1.94522 0,-1.069871 -0.23701,-1.94522 -0.5267,-1.94522 -0.28968,0 -0.5267,-0.875349 -0.5267,-1.94522 0,-1.440902 -0.20483,-1.94522 -0.79005,-1.94522 -0.49159,0 -0.79006,-0.408254 -0.79006,-1.080677 0,-0.594373 -0.23701,-1.080678 -0.5267,-1.080678 -0.33057,0 -0.5267,2.748008 -0.5267,7.379486 0,5.81919 0.15909,7.510053 0.75243,7.997015 0.41384,0.339639 0.9048,0.617529 1.09103,0.617529 0.54687,0 1.84345,1.194421 1.84345,1.698207 0,0.254733 0.59254,0.463148 1.31676,0.463148 1.06547,0 1.33239,-0.22686 1.39867,-1.188745 z m 76.81659,90.020456 c 0,-0.4803 -0.61449,-0.64841 -2.37016,-0.64841 h -2.37016 v -1.75996 c 0,-2.81491 0.52036,-2.99502 8.65296,-2.99502 h 7.1481 v 2.37749 2.37749 h -1.80584 c -0.99321,0 -2.16135,0.29179 -2.59588,0.64841 -0.5132,0.42119 -1.81838,0.64841 -3.72454,0.64841 -2.2573,0 -2.93448,-0.14963 -2.93448,-0.64841 z"
       style="fill:#000000;stroke-width:0.477156" />
  </g>
</svg>
