<?xml version="1.0" encoding="UTF-8" standalone="no"?>
<svg
   xmlns:dc="http://purl.org/dc/elements/1.1/"
   xmlns:cc="http://creativecommons.org/ns#"
   xmlns:rdf="http://www.w3.org/1999/02/22-rdf-syntax-ns#"
   xmlns:svg="http://www.w3.org/2000/svg"
   xmlns="http://www.w3.org/2000/svg"
   xmlns:sodipodi="http://sodipodi.sourceforge.net/DTD/sodipodi-0.dtd"
   xmlns:inkscape="http://www.inkscape.org/namespaces/inkscape"
   version="1.1"
   id="svg146"
   width="1259.7454"
   height="818.24158"
   viewBox="0 0 1259.7454 818.24158"
   sodipodi:docname="КЕРЛИНГ.svg"
   inkscape:version="1.0 (4035a4fb49, 2020-05-01)">
  <metadata
     id="metadata152">
    <rdf:RDF>
      <cc:Work
         rdf:about="">
        <dc:format>image/svg+xml</dc:format>
        <dc:type
           rdf:resource="http://purl.org/dc/dcmitype/StillImage" />
        <dc:title></dc:title>
      </cc:Work>
    </rdf:RDF>
  </metadata>
  <defs
     id="defs150" />
  <sodipodi:namedview
     inkscape:document-rotation="0"
     pagecolor="#ffffff"
     bordercolor="#666666"
     borderopacity="1"
     objecttolerance="10"
     gridtolerance="10"
     guidetolerance="10"
     inkscape:pageopacity="0"
     inkscape:pageshadow="2"
     inkscape:window-width="1920"
     inkscape:window-height="1018"
     id="namedview148"
     showgrid="false"
     inkscape:zoom="0.51282051"
     inkscape:cx="274.71063"
     inkscape:cy="332.23696"
     inkscape:window-x="-6"
     inkscape:window-y="-6"
     inkscape:window-maximized="1"
     inkscape:current-layer="g154" />
  <g
     transform="translate(-565.47728,-24.342341)"
     inkscape:groupmode="layer"
     inkscape:label="Image"
     id="g154">
    <path
       id="path36"
       d="m 625.46516,839.95085 c 0,-1.95041 -2.49949,-2.63306 -9.64091,-2.63306 -5.3025,0 -9.64091,-0.78991 -9.64091,-1.75536 0,-0.96546 -2.41022,-1.75537 -5.35606,-1.75537 -3.33266,0 -5.35606,-0.99472 -5.35606,-2.63306 0,-1.44817 -1.44613,-2.63305 -3.21363,-2.63305 -1.7675,0 -3.21364,-1.18487 -3.21364,-2.63305 0,-1.44818 -1.44614,-2.63305 -3.21364,-2.63305 -1.7675,0 -3.21363,-1.18488 -3.21363,-2.63306 0,-1.44817 -1.03296,-2.63305 -2.29546,-2.63305 -4.08839,0 -8.41666,-4.90037 -8.41666,-9.52914 0,-2.84203 -1.19024,-4.51381 -3.21364,-4.51381 -2.55051,0 -3.21364,-2.53552 -3.21364,-12.28757 0,-9.75206 0.66313,-12.28758 3.21364,-12.28758 1.99959,0 3.21364,-1.65784 3.21364,-4.38842 0,-2.41364 0.96409,-4.38842 2.14242,-4.38842 1.17833,0 2.14242,-1.18488 2.14242,-2.63306 0,-1.44818 1.44614,-2.63305 3.21364,-2.63305 2.14242,0 3.21364,-1.75537 3.21364,-5.26611 0,-3.51073 1.07121,-5.2661 3.21363,-5.2661 1.9996,0 3.21364,-1.65784 3.21364,-4.38842 0,-2.73058 1.21404,-4.38842 3.21364,-4.38842 1.7675,0 3.21363,-1.18488 3.21363,-2.63306 0,-1.44817 0.96409,-2.63305 2.14243,-2.63305 1.17833,0 2.14242,-1.18487 2.14242,-2.63305 0,-1.75537 2.14242,-2.63305 6.42727,-2.63305 4.28485,0 6.42728,-0.87769 6.42728,-2.63306 0,-1.44817 1.44613,-2.63305 3.21363,-2.63305 1.7675,0 3.21364,-0.78991 3.21364,-1.75537 0,-0.96545 2.41023,-1.75536 5.35606,-1.75536 3.33266,0 5.35606,-0.99472 5.35606,-2.63306 0,-1.44818 1.44614,-2.63305 3.21364,-2.63305 2.38047,0 3.21363,-2.04794 3.21363,-7.89916 0,-5.85122 0.83317,-7.89916 3.21364,-7.89916 1.7675,0 3.21364,-0.78991 3.21364,-1.75536 0,-0.96546 1.44613,-1.75537 3.21363,-1.75537 2.14243,0 3.21364,-1.75537 3.21364,-5.26611 0,-2.89636 0.96409,-5.2661 2.14242,-5.2661 1.17834,0 2.14243,-1.18488 2.14243,-2.63306 0,-1.44817 1.44613,-2.63305 3.21363,-2.63305 1.7675,0 3.21364,-0.78991 3.21364,-1.75537 0,-0.96545 5.3025,-1.75536 11.78333,-1.75536 9.04579,0 11.78333,-0.61172 11.78333,-2.63306 0,-2.08973 3.09461,-2.63305 14.99697,-2.63305 11.90236,0 14.99697,-0.54332 14.99697,-2.63305 0,-2.13399 3.45168,-2.63306 18.21061,-2.63306 h 18.2106 v 5.26611 c 0,3.51074 -1.07121,5.26611 -3.21363,5.26611 -1.7675,0 -3.21364,0.78991 -3.21364,1.75536 0,0.96546 -3.85636,1.75537 -8.5697,1.75537 -6.18922,0 -8.56969,0.73141 -8.56969,2.63305 0,2.08974 -3.09461,2.63306 -14.99697,2.63306 -11.90236,0 -14.99697,0.54332 -14.99697,2.63305 0,2.02134 -2.73754,2.63305 -11.78334,2.63305 -9.04579,0 -11.78333,0.61171 -11.78333,2.63305 0,1.44818 -1.44614,2.63306 -3.21364,2.63306 -1.7675,0 -3.21363,0.78991 -3.21363,1.75537 0,0.96545 -1.44614,1.75536 -3.21364,1.75536 -1.7675,0 -3.21363,1.18488 -3.21363,2.63306 0,2.02134 2.73754,2.63305 11.78333,2.63305 9.04579,0 11.78333,-0.61171 11.78333,-2.63305 0,-2.13399 3.45169,-2.63306 18.21061,-2.63306 10.71212,0 18.2106,-0.72279 18.2106,-1.75536 0,-1.11705 17.1394,-1.75537 47.13334,-1.75537 29.99394,0 47.13333,0.63832 47.13333,1.75537 0,0.96545 2.89227,1.75536 6.42727,1.75536 4.28485,0 6.42728,0.87769 6.42728,2.63306 0,1.63833 2.02339,2.63305 5.35606,2.63305 3.33267,0 5.35606,0.99471 5.35606,2.63305 0,1.44818 1.44613,2.63305 3.21363,2.63305 1.7675,0 3.21364,1.18488 3.21364,2.63306 0,1.44818 1.44614,2.63305 3.21364,2.63305 1.7675,0 3.21363,1.18487 3.21363,2.63305 0,1.44818 1.44614,2.63306 3.21364,2.63306 2.32095,0 3.21364,1.9504 3.21364,7.02147 0,5.07106 0.89268,7.02147 3.21363,7.02147 2.32095,0 3.21364,1.95041 3.21364,7.02148 0,5.07106 -0.89269,7.02147 -3.21364,7.02147 -1.7675,0 -3.21363,-1.18487 -3.21363,-2.63305 0,-1.95041 -2.49951,-2.63306 -9.64091,-2.63306 -7.14141,0 -9.64091,0.68265 -9.64091,2.63306 0,1.44818 -0.96409,2.63305 -2.14243,2.63305 -1.17833,0 -2.14242,4.34454 -2.14242,9.65453 0,5.30999 0.96409,9.65452 2.14242,9.65452 1.17834,0 2.14243,1.18488 2.14243,2.63305 0,1.75537 2.14242,2.63306 6.42727,2.63306 5.71314,0 6.42727,0.58511 6.42727,5.2661 0,3.51074 -1.07121,5.26611 -3.21363,5.26611 -1.7675,0 -3.21364,0.78991 -3.21364,1.75537 0,0.96545 -1.44614,1.75536 -3.21364,1.75536 -1.7675,0 -3.21363,1.18488 -3.21363,2.63306 0,1.44818 -0.96409,2.63305 -2.14243,2.63305 -1.17833,0 -2.14242,1.18487 -2.14242,2.63305 0,1.44818 -1.44614,2.63305 -3.21364,2.63305 -1.7675,0 -3.21363,1.18488 -3.21363,2.63306 0,1.44818 -1.44614,2.63305 -3.21364,2.63305 -1.7675,0 -3.21364,1.18487 -3.21364,2.63305 0,1.63834 -2.02339,2.63306 -5.35606,2.63306 -2.94583,0 -5.35606,0.78991 -5.35606,1.75536 0,0.96546 -2.89227,1.75537 -6.42727,1.75537 -4.28485,0 -6.42727,0.87769 -6.42727,2.63305 0,1.90165 -2.38047,2.63306 -8.5697,2.63306 -6.18923,0 -8.5697,0.73141 -8.5697,2.63305 0,1.95041 -2.4995,2.63305 -9.64091,2.63305 -7.14141,0 -9.64091,0.68265 -9.64091,2.63305 0,2.07044 -2.97558,2.63306 -13.92575,2.63306 -7.85556,0 -13.92576,0.76516 -13.92576,1.75537 0,1.00307 -6.42727,1.75536 -14.99697,1.75536 -11.90236,0 -14.99697,0.54333 -14.99697,2.63306 0,2.24297 -5.71313,2.63305 -38.56364,2.63305 -32.8505,0 -38.56363,-0.39008 -38.56363,-2.63305 z m 422.05754,-63.19327 c 0,-1.9504 -2.4995,-2.63305 -9.6409,-2.63305 -5.3025,0 -9.6409,-0.78991 -9.6409,-1.75537 0,-0.96545 -5.3025,-1.75536 -11.7833,-1.75536 -9.0458,0 -11.7833,-0.61172 -11.7833,-2.63306 0,-1.44818 -1.4462,-2.63305 -3.2137,-2.63305 -1.76749,0 -3.21362,-1.18487 -3.21362,-2.63305 0,-1.63834 -2.0234,-2.63306 -5.35606,-2.63306 -3.33267,0 -5.35607,-0.99471 -5.35607,-2.63305 0,-1.90164 -2.38046,-2.63305 -8.56969,-2.63305 -6.18923,0 -8.5697,-0.73141 -8.5697,-2.63305 0,-1.75537 -2.14242,-2.63306 -6.42727,-2.63306 -3.535,0 -6.42727,-0.78991 -6.42727,-1.75536 0,-0.96546 -1.44614,-1.75537 -3.21364,-1.75537 -1.7675,0 -3.21364,-1.18488 -3.21364,-2.63306 0,-1.44817 -1.44613,-2.63305 -3.21363,-2.63305 -1.7675,0 -3.21364,-1.18487 -3.21364,-2.63305 0,-1.63834 -2.02339,-2.63305 -5.35606,-2.63305 -3.33267,0 -5.35606,-0.99472 -5.35606,-2.63306 0,-1.44817 -1.44614,-2.63305 -3.21364,-2.63305 -1.7675,0 -3.21363,-0.78991 -3.21363,-1.75537 0,-0.96545 -1.44614,-1.75536 -3.21364,-1.75536 -1.7675,0 -3.21364,-1.18488 -3.21364,-2.63306 0,-1.44818 -0.96409,-2.63305 -2.14242,-2.63305 -1.17833,0 -2.14243,-1.18487 -2.14243,-2.63305 0,-1.44818 -1.34162,-2.63306 -2.98137,-2.63306 -1.63977,0 -3.58631,-1.97478 -4.32566,-4.38842 -0.73938,-2.41363 -2.29002,-4.38842 -3.4459,-4.38842 -1.15588,0 -2.10161,-3.55462 -2.10161,-7.89916 0,-5.85122 0.83317,-7.89915 3.21364,-7.89915 1.7675,0 3.21363,-1.18488 3.21363,-2.63306 0,-1.63833 2.02339,-2.63305 5.35606,-2.63305 2.94584,0 5.35606,-0.78991 5.35606,-1.75537 0,-0.96545 4.33841,-1.75536 9.64091,-1.75536 7.14141,0 9.64091,-0.68265 9.64091,-2.63306 0,-2.20005 4.40388,-2.63305 26.7803,-2.63305 22.37643,0 26.78031,0.433 26.78031,2.63305 0,1.90165 2.38047,2.63306 8.56967,2.63306 4.7134,0 8.5697,0.78991 8.5697,1.75536 0,0.96546 2.8923,1.75537 6.4273,1.75537 4.2848,0 6.4273,0.87769 6.4273,2.63305 0,1.63834 2.0234,2.63306 5.356,2.63306 3.3327,0 5.3561,-0.99472 5.3561,-2.63306 0,-1.44817 1.4461,-2.63305 3.2136,-2.63305 1.7675,0 3.2137,-0.78991 3.2137,-1.75537 0,-0.96545 2.4102,-1.75536 5.356,-1.75536 3.3327,0 5.3561,-0.99472 5.3561,-2.63306 0,-1.44818 1.2348,-2.63305 2.7439,-2.63305 1.5092,0 3.8357,-2.36975 5.17,-5.26611 1.628,-3.53392 3.8966,-5.2661 6.897,-5.2661 3.3407,0 4.4709,-1.10936 4.4709,-4.38842 0,-3.51074 1.0712,-4.38842 5.3561,-4.38842 3.3326,0 5.356,-0.99472 5.356,-2.63306 0,-1.44817 1.4462,-2.63305 3.2137,-2.63305 1.7675,0 3.2136,-1.18487 3.2136,-2.63305 0,-1.44818 1.4461,-2.63305 3.2136,-2.63305 1.7675,0 3.2137,-1.18488 3.2137,-2.63306 0,-1.44817 1.0329,-2.63305 2.2954,-2.63305 2.9662,0 8.4167,-4.46581 8.4167,-6.89609 0,-1.03442 1.4461,-1.88075 3.2136,-1.88075 1.7675,0 3.2137,-1.18487 3.2137,-2.63305 0,-1.44818 1.4461,-2.63306 3.2136,-2.63306 1.7675,0 3.2136,-1.18487 3.2136,-2.63305 0,-1.63834 2.0234,-2.63305 5.3561,-2.63305 3.3327,0 5.3561,-0.99472 5.3561,-2.63305 0,-1.44818 1.4461,-2.63306 3.2136,-2.63306 1.7675,0 3.2136,-0.78991 3.2136,-1.75536 0,-0.96546 1.4462,-1.75537 3.2137,-1.75537 1.7675,0 3.2136,-1.18488 3.2136,-2.63306 0,-1.44817 1.4461,-2.63305 3.2136,-2.63305 1.7675,0 3.2137,-1.18487 3.2137,-2.63305 0,-1.44818 1.4461,-2.63305 3.2136,-2.63305 1.7675,0 3.2137,-0.84634 3.2137,-1.88076 0,-2.43027 5.4505,-6.89608 8.4166,-6.89608 1.2625,0 2.2955,-1.18488 2.2955,-2.63306 0,-1.44818 1.4461,-2.63305 3.2136,-2.63305 1.7675,0 3.2136,-1.18487 3.2136,-2.63305 0,-1.44818 1.4462,-2.63306 3.2137,-2.63306 1.7675,0 3.2136,-1.18487 3.2136,-2.63305 0,-1.44818 0.9641,-2.63305 2.1424,-2.63305 1.1784,0 2.1425,-1.18487 2.1425,-2.63305 0,-1.44818 1.4461,-2.63306 3.2136,-2.63306 1.7675,0 3.2136,-0.78991 3.2136,-1.75536 0,-0.96546 1.4462,-1.75537 3.2137,-1.75537 1.7675,0 3.2136,-1.18488 3.2136,-2.63306 0,-1.44817 1.4461,-2.63305 3.2136,-2.63305 1.7675,0 3.2137,-1.18487 3.2137,-2.63305 0,-1.63834 2.0234,-2.63305 5.356,-2.63305 3.3327,0 5.3561,-0.99472 5.3561,-2.63306 0,-1.44817 1.4461,-2.63305 3.2136,-2.63305 1.7675,0 3.2137,-0.78991 3.2137,-1.75537 0,-0.96545 1.4461,-1.75536 3.2136,-1.75536 1.7675,0 3.2137,-1.18488 3.2137,-2.63306 0,-1.44818 1.4461,-2.63305 3.2136,-2.63305 1.7675,0 3.2136,-1.18487 3.2136,-2.63305 0,-1.44818 0.9641,-2.63306 2.1424,-2.63306 1.1784,0 2.1425,-1.18487 2.1425,-2.63305 0,-1.44818 1.4461,-2.63305 3.2136,-2.63305 1.7675,0 3.2136,-1.18487 3.2136,-2.63305 0,-1.44818 1.4462,-2.63306 3.2137,-2.63306 1.7675,0 3.2136,-0.78991 3.2136,-1.75536 0,-0.96546 1.4462,-1.75537 3.2137,-1.75537 1.7675,0 3.2136,-1.18488 3.2136,-2.63306 0,-1.44817 1.4461,-2.63305 3.2136,-2.63305 1.7675,0 3.2137,-1.18487 3.2137,-2.63305 0,-1.44818 0.9641,-2.63305 2.1424,-2.63305 1.1783,0 2.1424,-1.18488 2.1424,-2.63306 0,-1.44817 1.4461,-2.63305 3.2136,-2.63305 1.9996,0 3.2137,-1.65784 3.2137,-4.38842 0,-2.73058 1.214,-4.38842 3.2136,-4.38842 1.7675,0 3.2137,-1.18487 3.2137,-2.63305 0,-1.44818 1.4461,-2.63306 3.2136,-2.63306 2.467,0 3.2136,-2.24297 3.2136,-9.65452 0,-5.30999 0.9641,-9.65453 2.1425,-9.65453 1.1783,0 2.1424,-4.34453 2.1424,-9.65452 0,-7.41156 0.7466,-9.65453 3.2136,-9.65453 2.5505,0 3.2137,-2.53552 3.2137,-12.28758 0,-9.75205 0.6631,-12.28758 3.2136,-12.28758 2.3209,0 3.2136,-1.95041 3.2136,-7.02147 0,-5.07107 0.8927,-7.02147 3.2137,-7.02147 2.1424,0 3.2136,-1.75537 3.2136,-5.26611 0,-3.51074 1.0712,-5.26611 3.2136,-5.26611 1.7675,0 3.2137,-1.18487 3.2137,-2.63305 0,-1.44818 0.9641,-2.63305 2.1424,-2.63305 1.1783,0 2.1424,-1.18487 2.1424,-2.63305 0,-1.44818 1.4462,-2.63306 3.2137,-2.63306 1.9995,0 3.2136,-1.65784 3.2136,-4.38842 0,-2.73058 1.214,-4.38842 3.2136,-4.38842 1.7675,0 3.2137,-1.18487 3.2137,-2.63305 0,-1.44818 1.4461,-2.63305 3.2136,-2.63305 1.7675,0 3.2136,-0.84634 3.2136,-1.88076 0,-3.34977 5.9809,-6.89608 11.6303,-6.89608 3.4687,0 5.5091,-0.97522 5.5091,-2.63306 0,-1.44818 1.4462,-2.63305 3.2137,-2.63305 1.7675,0 3.2136,-1.18487 3.2136,-2.63305 0,-1.90165 2.3805,-2.63306 8.5697,-2.63306 6.1892,0 8.5697,-0.7314 8.5697,-2.63305 0,-1.90164 2.3805,-2.63305 8.5697,-2.63305 6.1892,0 8.5697,-0.73141 8.5697,-2.63305 0,-1.94306 2.4797,-2.63306 9.4624,-2.63306 5.475,0 9.989,-0.9246 10.7121,-2.19421 0.9998,-1.75536 1.4997,-1.75536 2.4995,0 1.4855,2.60817 7.3199,2.95794 7.3199,0.43885 0,-0.96546 4.3384,-1.75537 9.6409,-1.75537 7.1414,0 9.6409,-0.68265 9.6409,-2.63306 0,-1.44817 -1.4461,-2.63305 -3.2136,-2.63305 -1.7675,0 -3.2136,-1.18487 -3.2136,-2.63305 0,-1.44818 -1.4462,-2.63305 -3.2137,-2.63305 -1.9996,0 -3.2136,-1.65784 -3.2136,-4.38842 0,-2.73058 -1.214,-4.38842 -3.2136,-4.38842 -1.7675,0 -3.2137,-1.18488 -3.2137,-2.63306 0,-1.44818 -1.4461,-2.63305 -3.2136,-2.63305 -2.1424,0 -3.2136,-1.75537 -3.2136,-5.26611 0,-4.44692 -0.8332,-5.2661 -5.3561,-5.2661 -3.3327,0 -5.3561,-0.99472 -5.3561,-2.63305 0,-1.75537 -2.1424,-2.63306 -6.4272,-2.63306 -5.4275,0 -6.4273,-0.68264 -6.4273,-4.38842 0,-2.41363 -0.9641,-4.38842 -2.1424,-4.38842 -1.1784,0 -2.1425,-1.18487 -2.1425,-2.63305 0,-1.44818 -1.4461,-2.63305 -3.2136,-2.63305 -1.7675,0 -3.2136,-1.18488 -3.2136,-2.63306 0,-1.44817 -1.4462,-2.63305 -3.2137,-2.63305 -1.7675,0 -3.2136,-0.78991 -3.2136,-1.75537 0,-0.96545 -2.8923,-1.75536 -6.4273,-1.75536 -4.2848,0 -6.4272,-0.87769 -6.4272,-2.63306 0,-1.44818 -0.9641,-2.63305 -2.1425,-2.63305 -1.1783,0 -2.1424,-1.18487 -2.1424,-2.63305 0,-1.44818 -1.4461,-2.63306 -3.2136,-2.63306 -1.7675,0 -3.2137,-1.18487 -3.2137,-2.63305 0,-1.44818 -1.4461,-2.63305 -3.2136,-2.63305 -1.7675,0 -3.2136,-1.18487 -3.2136,-2.63305 0,-1.44818 -1.4462,-2.63306 -3.2137,-2.63306 -1.7675,0 -3.2136,1.18488 -3.2136,2.63306 0,1.44818 -0.9641,2.63305 -2.1424,2.63305 -1.1784,0 -2.1425,2.36975 -2.1425,5.2661 0,3.51074 -1.0712,5.26611 -3.2136,5.26611 -1.7675,0 -3.2136,1.18487 -3.2136,2.63305 0,1.44818 -1.4462,2.63306 -3.2137,2.63306 -1.7675,0 -3.2136,0.78991 -3.2136,1.75536 0,0.96546 -1.4461,1.75537 -3.2136,1.75537 -1.7675,0 -3.2137,1.18488 -3.2137,2.63305 0,1.44818 -0.9641,2.63306 -2.1424,2.63306 -1.1783,0 -2.1424,1.18487 -2.1424,2.63305 0,1.44818 -1.4462,2.63305 -3.2137,2.63305 -1.7675,0 -3.2136,1.18488 -3.2136,2.63305 0,1.44818 -1.4461,2.63306 -3.2136,2.63306 -1.7675,0 -3.2137,0.78991 -3.2137,1.75537 0,0.96545 -1.4461,1.75536 -3.2136,1.75536 -1.7675,0 -3.2136,1.18488 -3.2136,2.63306 0,1.44818 -1.4462,2.63305 -3.2137,2.63305 -1.7675,0 -3.2136,1.18487 -3.2136,2.63305 0,1.44818 -0.9641,2.63305 -2.1424,2.63305 -1.1784,0 -2.1425,1.18488 -2.1425,2.63306 0,1.44818 -1.4461,2.63305 -3.2136,2.63305 -1.9996,0 -3.2136,1.65784 -3.2136,4.38842 0,2.73058 -1.2141,4.38842 -3.2137,4.38842 -1.7675,0 -3.2136,1.18488 -3.2136,2.63305 0,1.44818 -1.4462,2.63306 -3.2137,2.63306 -1.7675,0 -3.2136,1.18487 -3.2136,2.63305 0,1.44818 -0.9641,2.63305 -2.1424,2.63305 -1.1783,0 -2.1424,1.18488 -2.1424,2.63305 0,1.44818 -1.4462,2.63306 -3.2137,2.63306 -1.9996,0 -3.2136,1.65784 -3.2136,4.38842 0,2.73058 -1.2141,4.38842 -3.2136,4.38842 -1.7675,0 -3.2137,1.18487 -3.2137,2.63305 0,1.75537 -2.1424,2.63305 -6.4273,2.63305 -4.2848,0 -6.4272,0.87769 -6.4272,2.63306 0,1.44818 -0.9641,2.63305 -2.1425,2.63305 -1.1783,0 -2.1424,1.18487 -2.1424,2.63305 0,1.44818 -1.4461,2.63306 -3.2136,2.63306 -1.7675,0 -3.2136,0.78991 -3.2136,1.75536 0,0.96546 -2.8923,1.75537 -6.4273,1.75537 -4.2849,0 -6.4273,0.87769 -6.4273,2.63305 0,1.63834 -2.0234,2.63306 -5.3561,2.63306 -3.3326,0 -5.356,0.99471 -5.356,2.63305 0,1.44818 -1.4462,2.63305 -3.2137,2.63305 -1.7675,0 -3.2136,1.18488 -3.2136,2.63305 0,1.44818 -1.4461,2.63306 -3.2136,2.63306 -1.7675,0 -3.2137,0.78991 -3.2137,1.75537 0,0.96545 -1.4461,1.75536 -3.2136,1.75536 -2.1424,0 -3.2136,1.75537 -3.2136,5.26611 0,2.89636 -0.9641,5.2661 -2.1425,5.2661 -1.1783,0 -2.1424,1.18488 -2.1424,2.63306 0,1.75537 -2.1424,2.63305 -6.4273,2.63305 -4.2848,0 -6.4272,0.87768 -6.4272,2.63305 0,1.44818 -1.4462,2.63306 -3.2137,2.63306 -1.9996,0 -3.2136,1.65784 -3.2136,4.38842 0,2.41363 -0.9641,4.38842 -2.1424,4.38842 -1.1784,0 -2.1424,1.18487 -2.1424,2.63305 0,1.75537 -2.1425,2.63305 -6.4273,2.63305 -5.4275,0 -6.4273,0.68265 -6.4273,4.38842 0,2.73058 -1.214,4.38842 -3.2136,4.38842 -1.7675,0 -3.2137,1.18488 -3.2137,2.63306 0,1.63833 -2.0234,2.63305 -5.356,2.63305 -3.3327,0 -5.3561,0.99471 -5.3561,2.63305 0,1.75537 -2.1424,2.63305 -6.4273,2.63305 -4.2848,0 -6.4272,0.87769 -6.4272,2.63306 0,1.90164 -2.3805,2.63305 -8.5697,2.63305 -6.1893,0 -8.5697,-0.73141 -8.5697,-2.63305 0,-1.44818 -1.4462,-2.63306 -3.2137,-2.63306 -2.1424,0 -3.2136,-1.75536 -3.2136,-5.2661 0,-3.51074 1.0712,-5.26611 3.2136,-5.26611 1.7675,0 3.2137,-0.78991 3.2137,-1.75536 0,-0.96546 1.4461,-1.75537 3.2136,-1.75537 2.125,0 3.2136,-1.74143 3.2136,-5.14072 0,-5.48177 -4.7564,-10.6576 -9.7939,-10.6576 -1.6833,0 -3.0606,-0.78991 -3.0606,-1.75537 0,-1.10523 -14.2828,-1.75536 -38.5636,-1.75536 h -38.5637 v -5.26611 c 0,-3.51074 1.0712,-5.26611 3.2137,-5.26611 1.7675,0 3.2136,-1.18487 3.2136,-2.63305 0,-1.44818 1.4461,-2.63305 3.2136,-2.63305 1.7675,0 3.2137,-1.18487 3.2137,-2.63305 0,-1.90165 2.3804,-2.63306 8.5697,-2.63306 4.7133,0 8.5697,-0.78991 8.5697,-1.75536 0,-0.96546 3.8563,-1.75537 8.5697,-1.75537 6.1892,0 8.5697,-0.73141 8.5697,-2.63306 0,-2.02134 2.7375,-2.63305 11.7833,-2.63305 9.0458,0 11.7833,-0.61171 11.7833,-2.63305 0,-2.02134 2.7376,-2.63305 11.7834,-2.63305 9.0457,0 11.7833,-0.61171 11.7833,-2.63306 0,-1.9504 2.4995,-2.63305 9.6409,-2.63305 5.3025,0 9.6409,-0.78991 9.6409,-1.75537 0,-0.96545 2.4102,-1.75536 5.3561,-1.75536 3.3326,0 5.356,-0.99472 5.356,-2.63306 0,-1.9504 2.4995,-2.63305 9.6409,-2.63305 7.1414,0 9.641,-0.68265 9.641,-2.63305 0,-1.44818 0.964,-2.63306 2.1424,-2.63306 1.1783,0 2.1424,-2.36974 2.1424,-5.2661 0,-3.51074 1.0712,-5.26611 3.2136,-5.26611 1.7675,0 3.2137,-0.78991 3.2137,-1.75536 0,-0.96546 1.4461,-1.75537 3.2136,-1.75537 1.7675,0 3.2136,-1.18488 3.2136,-2.63306 0,-1.44817 1.4462,-2.63305 3.2137,-2.63305 1.7675,0 3.2136,-1.18487 3.2136,-2.63305 0,-1.44818 0.9641,-2.63305 2.1424,-2.63305 1.1784,0 2.1425,-1.97479 2.1425,-4.38842 0,-2.73058 1.214,-4.38842 3.2136,-4.38842 1.7675,0 3.2136,-1.18488 3.2136,-2.63306 0,-1.44818 1.4462,-2.63305 3.2137,-2.63305 2.1424,0 3.2136,-1.75537 3.2136,-5.26611 0,-4.68098 0.7141,-5.2661 6.4273,-5.2661 3.535,0 6.4273,-0.85069 6.4273,-1.89039 0,-2.45676 11.8337,-12.15256 14.8321,-12.15256 1.269,0 2.3073,-1.18487 2.3073,-2.63305 0,-1.44818 1.4461,-2.63305 3.2136,-2.63305 1.7675,0 3.2136,-1.18488 3.2136,-2.63306 0,-1.44817 0.9641,-2.63305 2.1424,-2.63305 1.1784,0 2.1425,-1.97479 2.1425,-4.38842 0,-2.73058 1.214,-4.38842 3.2136,-4.38842 1.7675,0 3.2136,-1.18487 3.2136,-2.63305 0,-1.44818 1.4462,-2.63306 3.2137,-2.63306 1.7675,0 3.2136,-1.18487 3.2136,-2.63305 0,-1.44818 1.4462,-2.63305 3.2137,-2.63305 1.9995,0 3.2136,-1.65784 3.2136,-4.38842 0,-2.73058 1.214,-4.38842 3.2136,-4.38842 1.7675,0 3.2137,-1.18488 3.2137,-2.63306 0,-1.44817 0.9641,-2.63305 2.1424,-2.63305 1.1783,0 2.1424,-2.36975 2.1424,-5.2661 0,-3.51074 1.0712,-5.26611 3.2136,-5.26611 2.321,0 3.2137,-1.95041 3.2137,-7.02147 0,-5.07107 0.8927,-7.02148 3.2136,-7.02148 2.321,0 3.2137,-1.9504 3.2137,-7.02147 0,-5.07107 0.8926,-7.02147 3.2136,-7.02147 2.1424,0 3.2136,-1.75537 3.2136,-5.26611 0,-2.89636 0.9641,-5.2661 2.1425,-5.2661 1.1783,0 2.1424,-1.97479 2.1424,-4.38842 0,-2.73058 1.214,-4.38842 3.2136,-4.38842 1.7675,0 3.2137,-1.18488 3.2137,-2.63306 0,-1.44818 -1.4462,-2.63305 -3.2137,-2.63305 -1.7675,0 -3.2136,-1.12846 -3.2136,-2.50767 0,-3.23324 5.8477,-8.02454 9.7939,-8.02454 1.6833,0 3.0606,-1.18487 3.0606,-2.63305 0,-1.44818 1.4462,-2.63306 3.2137,-2.63306 1.9995,0 3.2136,-1.65784 3.2136,-4.38842 0,-2.73057 -1.2141,-4.38842 -3.2136,-4.38842 -1.7675,0 -3.2137,1.18488 -3.2137,2.63305 0,1.75537 -2.1424,2.63306 -6.4272,2.63306 -4.2849,0 -6.4273,-0.87769 -6.4273,-2.63306 0,-1.44817 -0.9641,-2.63305 -2.1424,-2.63305 -1.1784,0 -2.1425,-1.18487 -2.1425,-2.63305 0,-1.44818 -1.4461,-2.63305 -3.2136,-2.63305 -1.9996,0 -3.2136,-1.65785 -3.2136,-4.38842 0,-2.73058 -1.2141,-4.38842 -3.2137,-4.38842 -2.1424,0 -3.2136,-1.75537 -3.2136,-5.26611 0,-3.51074 -1.0712,-5.26611 -3.2137,-5.26611 -1.7675,0 -3.2136,-1.18487 -3.2136,-2.63305 0,-1.63834 -2.0234,-2.63305 -5.356,-2.63305 -4.2849,0 -5.3561,-0.87768 -5.3561,-4.38842 0,-2.48677 1.2378,-4.38842 2.8565,-4.38842 1.9573,0 2.8566,-2.48677 2.8566,-7.89916 0,-5.41239 -0.8993,-7.89916 -2.8566,-7.89916 -1.6187,0 -2.8565,-1.90165 -2.8565,-4.38842 0,-2.73057 -1.2141,-4.38842 -3.2136,-4.38842 -1.7675,0 -3.2137,-1.18487 -3.2137,-2.63305 0,-1.44818 -1.4461,-2.63305 -3.2136,-2.63305 -1.7675,0 -3.2137,-1.18488 -3.2137,-2.633058 0,-1.638343 -2.0233,-2.633053 -5.356,-2.633053 -4.6085,0 -5.3602,-0.796307 -5.3853,-5.704947 -0.017,-3.137721 -0.6106,-7.482258 -1.3211,-9.654526 -0.9497,-2.903615 -0.3746,-3.949579 2.1717,-3.949579 1.9049,0 3.4635,-1.184874 3.4635,-2.633053 0,-1.448178 1.4461,-2.633052 3.2136,-2.633052 2.321,0 3.2136,-1.950409 3.2136,-7.021474 0,-5.071064 0.8927,-7.021473 3.2137,-7.021473 2.1424,0 3.2136,-1.755369 3.2136,-5.266105 0,-3.510737 1.0712,-5.266106 3.2137,-5.266106 1.7675,0 3.2136,-0.789915 3.2136,-1.755368 0,-0.965453 1.4461,-1.755368 3.2136,-1.755368 1.7675,0 3.2137,-1.184874 3.2137,-2.633053 0,-1.638343 2.0234,-2.633053 5.356,-2.633053 3.3327,0 5.3561,-0.994709 5.3561,-2.633052 0,-1.448179 1.4461,-2.633053 3.2136,-2.633053 1.7675,0 3.2137,-1.184874 3.2137,-2.633052 0,-1.892312 2.3606,-2.633053 8.3911,-2.633053 4.6152,0 8.7423,-0.863153 9.1715,-1.918118 1.0264,-2.522886 51.7366,-2.402545 52.765,0.125218 0.4012,0.986095 2.0952,1.7929 3.7645,1.7929 1.6693,0 3.0351,1.184874 3.0351,2.633053 0,1.638343 2.0234,2.633052 5.3561,2.633052 4.5229,0 5.3561,0.819173 5.3561,5.266105 0,3.510737 1.0712,5.266106 3.2136,5.266106 1.7675,0 3.2136,0.789915 3.2136,1.755368 0,0.965453 1.4462,1.755368 3.2137,1.755368 1.7675,0 3.2136,1.184874 3.2136,2.633053 0,1.448179 1.4461,2.633053 3.2136,2.633053 2.5505,0 3.2137,2.535531 3.2137,12.287578 0,9.752048 0.6631,12.287579 3.2136,12.287579 2.467,0 3.2136,2.242971 3.2136,9.654526 0,7.411555 -0.7466,9.654526 -3.2136,9.654526 -2.467,0 -3.2136,2.242972 -3.2136,9.654531 0,7.41155 0.7466,9.65452 3.2136,9.65452 1.7675,0 3.2136,1.18488 3.2136,2.63306 0,1.44817 0.9641,2.63305 2.1425,2.63305 1.1783,0 2.1424,1.18487 2.1424,2.63305 0,2.08972 3.0946,2.63305 14.997,2.63305 11.9023,0 14.9969,-0.54333 14.9969,-2.63305 0,-2.23723 5.4751,-2.63305 36.4212,-2.63305 30.9462,0 36.4213,0.39582 36.4213,2.63305 0,1.90165 2.3804,2.63305 8.5697,2.63305 6.1892,0 8.5696,0.73141 8.5696,2.63305 0,1.44818 1.033,2.63306 2.2955,2.63306 2.9661,0 8.4167,4.46582 8.4167,6.89609 0,1.05879 4.2134,1.88075 9.6409,1.88075 7.1414,0 9.6409,0.68264 9.6409,2.63305 0,1.44818 1.4461,2.63305 3.2136,2.63305 1.7675,0 3.2137,1.18488 3.2137,2.63306 0,1.44818 0.9641,2.63305 2.1424,2.63305 1.1783,0 2.1424,1.18487 2.1424,2.63305 0,1.44818 1.4461,2.63306 3.2136,2.63306 1.9996,0 3.2137,1.65784 3.2137,4.38842 0,2.73057 1.214,4.38842 3.2136,4.38842 1.7675,0 3.2136,1.18487 3.2136,2.63305 0,1.44818 1.4462,2.63305 3.2137,2.63305 1.9996,0 3.2136,1.65785 3.2136,4.38842 0,2.41363 0.9641,4.38842 2.1424,4.38842 1.1784,0 2.1425,1.18488 2.1425,2.63306 0,1.44818 1.4461,2.63305 3.2136,2.63305 2.4671,0 3.2136,2.24297 3.2136,9.65453 0,7.41155 0.7466,9.65452 3.2137,9.65452 2.1424,0 3.2136,1.75537 3.2136,5.26611 0,3.51073 1.0712,5.2661 3.2137,5.2661 1.9995,0 3.2136,1.65784 3.2136,4.38842 0,2.73058 1.214,4.38842 3.2136,4.38842 2.4995,0 3.2137,2.34049 3.2137,10.53221 0,5.85123 0.9521,10.53222 2.1424,10.53222 1.1783,0 2.1424,3.15966 2.1424,7.02147 0,5.07106 0.8927,7.02147 3.2136,7.02147 2.321,0 3.2137,1.95041 3.2137,7.02148 0,5.07106 0.8927,7.02147 3.2136,7.02147 2.1424,0 3.2137,1.75537 3.2137,5.2661 0,3.51074 1.0712,5.26611 3.2136,5.26611 2.3209,0 3.2136,1.95041 3.2136,7.02147 0,3.86181 0.9641,7.02148 2.1425,7.02148 1.1783,0 2.1424,3.15966 2.1424,7.02147 0,5.07107 0.8927,7.02147 3.2136,7.02147 2.1424,0 3.2136,1.75537 3.2136,5.26611 0,3.51074 1.0713,5.2661 3.2137,5.2661 1.7675,0 3.2136,1.18488 3.2136,2.63306 0,1.44818 1.4462,2.63305 3.2137,2.63305 2.467,0 3.2136,2.24297 3.2136,9.65453 0,7.71351 0.695,9.65452 3.4569,9.65452 2.8695,0 3.2175,1.30784 2.0482,7.69659 -1.0561,5.7703 -0.5808,8.37492 1.8992,10.40683 3.7081,3.0382 4.7225,20.51469 1.1907,20.51469 -1.1644,0 -2.7338,3.15966 -3.4874,7.02147 -0.7537,3.86181 -2.2113,7.02147 -3.239,7.02147 -1.0277,0 -1.8686,3.55463 -1.8686,7.89916 0,5.85122 -0.8332,7.89916 -3.2136,7.89916 -1.9996,0 -3.2137,1.65784 -3.2137,4.38842 0,2.73058 -1.214,4.38842 -3.2136,4.38842 -1.7675,0 -3.2137,1.18488 -3.2137,2.63305 0,1.44818 -1.4461,2.63306 -3.2136,2.63306 -1.7675,0 -3.2136,1.18487 -3.2136,2.63305 0,1.44818 -0.9641,2.63305 -2.1424,2.63305 -1.1784,0 -2.1425,1.18488 -2.1425,2.63305 0,1.44818 -1.4461,2.63306 -3.2136,2.63306 -1.7675,0 -3.2136,0.78991 -3.2136,1.75537 0,0.96545 -1.4462,1.75536 -3.2137,1.75536 -1.7675,0 -3.2136,1.18488 -3.2136,2.63306 0,1.90164 -2.3805,2.63305 -8.5697,2.63305 -6.1892,0 -8.5697,0.73141 -8.5697,2.63305 0,2.08973 -3.0946,2.63305 -14.997,2.63305 -11.9023,0 -14.997,0.54333 -14.997,2.63306 0,1.44818 -1.4461,2.63305 -3.2136,2.63305 -1.7675,0 -3.2136,0.84633 -3.2136,1.88075 0,1.03441 -1.4462,3.06563 -3.2137,4.51381 -2.5118,2.05801 -3.2136,7.39762 -3.2136,24.44977 0,13.37424 -0.8291,21.81672 -2.1424,21.81672 -1.1783,0 -2.1424,3.55462 -2.1424,7.89916 v 7.89916 h 8.5697 c 6.1892,0 8.5696,-0.73141 8.5696,-2.63306 0,-2.13398 3.4517,-2.63305 18.2107,-2.63305 14.7589,0 18.2106,-0.49907 18.2106,-2.63305 0,-2.15572 3.6897,-2.63305 20.353,-2.63305 16.6633,0 20.353,0.47733 20.353,2.63305 0,1.90164 2.3805,2.63305 8.5697,2.63305 6.1892,0 8.5697,0.73141 8.5697,2.63305 0,2.02135 2.7376,2.63306 11.7833,2.63306 6.4809,0 11.7834,0.78991 11.7834,1.75537 0,0.96545 5.3025,1.75536 11.7833,1.75536 6.4808,0 11.7833,-0.78991 11.7833,-1.75536 0,-0.96546 1.4462,-1.75537 3.2137,-1.75537 2.1424,0 3.2136,-1.75537 3.2136,-5.26611 0,-3.51073 1.0712,-5.2661 3.2137,-5.2661 1.7675,0 3.2136,-1.18488 3.2136,-2.63306 0,-1.44817 1.4461,-2.63305 3.2136,-2.63305 1.7675,0 3.2137,-0.78991 3.2137,-1.75537 0,-0.96545 2.8922,-1.75536 6.4272,-1.75536 3.535,0 6.4273,0.78991 6.4273,1.75536 0,0.96546 2.4102,1.75537 5.3561,1.75537 3.3326,0 5.356,0.99472 5.356,2.63305 0,1.44818 1.4462,2.63306 3.2137,2.63306 2.1424,0 3.2136,1.75537 3.2136,5.2661 0,4.44693 0.8332,5.26611 5.3561,5.26611 4.2848,0 5.356,0.87768 5.356,4.38842 0,3.70577 0.9998,4.38842 6.4273,4.38842 4.2848,0 6.4273,0.87768 6.4273,2.63305 0,1.44818 1.4461,2.63305 3.2136,2.63305 1.7675,0 3.2136,0.77488 3.2136,1.72193 0,0.94706 2.4103,2.21756 5.3561,2.82336 2.9458,0.60577 5.3561,2.20065 5.3561,3.54417 0,1.45345 2.2311,2.44276 5.5091,2.44276 7.0281,0 11.6303,3.77072 11.6303,9.52914 0,2.84202 1.1902,4.5138 3.2136,4.5138 1.7675,0 3.2136,1.18488 3.2136,2.63305 0,1.44818 -1.0329,2.63306 -2.2954,2.63306 -2.9662,0 -8.4167,4.46581 -8.4167,6.89609 0,1.03442 -2.8923,1.88075 -6.4273,1.88075 -4.2848,0 -6.4272,0.87768 -6.4272,2.63305 0,2.08973 -3.0946,2.63305 -14.997,2.63305 -11.9024,0 -14.997,0.54333 -14.997,2.63306 0,1.44818 -1.4461,2.63305 -3.2136,2.63305 -1.7675,0 -3.2136,0.77487 -3.2136,1.72193 0,0.94705 -2.4103,2.21756 -5.3561,2.82335 -2.9458,0.60578 -5.3561,1.8057 -5.3561,2.66649 0,0.86078 -1.4461,1.56507 -3.2136,1.56507 -1.7675,0 -3.2136,1.18488 -3.2136,2.63305 0,2.08714 -3.0777,2.63306 -14.844,2.63306 -10.338,0 -15.8194,0.79927 -18.0575,2.63305 -2.5158,2.06122 -9.0628,2.63305 -30.147,2.63305 -22.5125,0 -26.9334,0.43219 -26.9334,2.63305 0,2.07044 -2.9755,2.63306 -13.9257,2.63306 -7.8556,0 -13.9258,0.76516 -13.9258,1.75537 0,0.96545 -5.3327,1.75536 -11.8505,1.75536 -8.5575,0 -12.1933,0.73169 -13.0838,2.63306 -1.5959,3.40754 -5.0596,3.40754 -5.0596,0 0,-1.44818 -1.4461,-2.63306 -3.2136,-2.63306 -1.7675,0 -3.2137,1.13395 -3.2137,2.51991 0,2.07372 -6.7024,2.61764 -37.8525,3.07189 -27.8864,0.40667 -38.0867,1.1297 -38.7421,2.7462 -1.3072,3.22384 -13.3872,2.82785 -13.3872,-0.43884 0,-2.13398 -3.4517,-2.63305 -18.2106,-2.63305 -10.4763,0 -18.2106,-0.73132 -18.2106,-1.72193 0,-0.94706 -2.4102,-2.21756 -5.3561,-2.82335 -2.9458,-0.60578 -5.356,-1.8057 -5.356,-2.66649 0,-0.86078 -1.4462,-1.56507 -3.2137,-1.56507 -1.7675,0 -3.2136,-1.18488 -3.2136,-2.63306 0,-1.63833 -2.0234,-2.63305 -5.3561,-2.63305 -4.5229,0 -5.356,-0.81918 -5.356,-5.2661 0,-3.51074 -1.0712,-5.26611 -3.2137,-5.26611 -1.9996,0 -3.2136,-1.65784 -3.2136,-4.38842 0,-2.73058 -1.214,-4.38842 -3.2136,-4.38842 -2.6424,0 -3.2137,-3.12066 -3.2137,-17.55368 0,-14.43303 -0.5713,-17.55369 -3.2136,-17.55369 -2.7138,0 -3.2136,-4.09585 -3.2136,-26.33052 0,-22.23468 0.4998,-26.33053 3.2136,-26.33053 2.6045,0 3.2136,-2.82809 3.2136,-14.92063 0,-14.7451 -0.063,-14.92063 -5.356,-14.92063 -4.5229,0 -5.3561,0.81917 -5.3561,5.2661 0,3.51074 -1.0712,5.26611 -3.2136,5.26611 -2.5505,0 -3.2137,2.53552 -3.2137,12.28758 0,9.75205 -0.6631,12.28758 -3.2136,12.28758 -2.5888,0 -3.2136,2.73058 -3.2136,14.04294 0,11.31237 -0.6249,14.04295 -3.2137,14.04295 -2.3804,0 -3.2136,2.04794 -3.2136,7.89916 0,4.34453 -0.9641,7.89916 -2.1424,7.89916 -1.1784,0 -2.1425,3.15966 -2.1425,7.02147 0,5.07106 -0.8926,7.02147 -3.2136,7.02147 -1.9996,0 -3.2136,1.65784 -3.2136,4.38842 0,2.73058 -1.2141,4.38842 -3.2137,4.38842 -2.1424,0 -3.2136,1.75537 -3.2136,5.26611 0,3.51074 -1.0712,5.2661 -3.2136,5.2661 -2.1425,0 -3.2137,1.75537 -3.2137,5.26611 0,2.89636 -0.9457,5.26611 -2.1016,5.26611 -1.1559,0 -2.7065,1.97478 -3.4459,4.38842 -0.7393,2.41363 -2.2038,4.38842 -3.2544,4.38842 -1.0506,0 -1.9102,2.36974 -1.9102,5.2661 0,3.51074 -1.0712,5.26611 -3.2136,5.26611 -1.9996,0 -3.2137,1.65784 -3.2137,4.38842 0,2.73058 -1.214,4.38842 -3.2136,4.38842 -2.3805,0 -3.2136,2.04794 -3.2136,7.89916 0,4.44692 -1.0032,7.89916 -2.2955,7.89916 -1.2625,0 -3.6727,1.12845 -5.3561,2.50766 -1.6833,1.37923 -3.0606,3.35402 -3.0606,4.38842 0,1.03442 -2.8922,1.88076 -6.4272,1.88076 -4.2849,0 -6.4273,-0.87769 -6.4273,-2.63306 0,-1.44817 -1.4461,-2.63305 -3.2136,-2.63305 -2.1425,0 -3.2137,1.75537 -3.2137,5.26611 0,3.51073 1.0712,5.2661 3.2137,5.2661 1.7675,0 3.2136,0.84634 3.2136,1.88076 0,1.0344 -1.4461,3.06562 -3.2136,4.5138 -4.1358,3.38858 -4.1358,7.64839 0,7.64839 2.467,0 3.2136,2.24297 3.2136,9.65453 0,7.41155 -0.7466,9.65452 -3.2136,9.65452 -2.3805,0 -3.2137,2.04794 -3.2137,7.89916 0,7.25552 -0.4364,7.89916 -5.356,7.89916 -2.9459,0 -5.3561,0.78991 -5.3561,1.75537 0,1.05322 -8.5697,1.75536 -21.4242,1.75536 -17.6155,0 -21.4243,0.46811 -21.4243,2.63306 0,2.02134 -2.7375,2.63305 -11.7833,2.63305 -9.0458,0 -11.7834,0.61171 -11.7834,2.63305 0,1.63834 -2.0233,2.63305 -5.356,2.63305 -3.3327,0 -5.3561,0.99472 -5.3561,2.63306 0,1.9504 -2.4995,2.63305 -9.6409,2.63305 -7.1414,0 -9.6409,0.68265 -9.6409,2.63305 0,1.90165 -2.3805,2.63306 -8.5697,2.63306 -4.7133,0 -8.5697,0.78991 -8.5697,1.75536 0,1.07662 -10.355,1.75537 -26.7803,1.75537 -16.4253,0 -26.7803,-0.67875 -26.7803,-1.75537 0,-0.96545 -2.8923,-1.75536 -6.4273,-1.75536 -4.2848,0 -6.4272,-0.87769 -6.4272,-2.63306 0,-1.44818 -0.9641,-2.63305 -2.1425,-2.63305 -1.1783,0 -2.1424,-4.34454 -2.1424,-9.65453 0,-5.30999 0.9641,-9.65452 2.1424,-9.65452 1.1784,0 2.1425,-3.55462 2.1425,-7.89916 0,-5.85122 0.8331,-7.89916 3.2136,-7.89916 1.7675,0 3.2136,-0.78991 3.2136,-1.75537 0,-0.96545 2.8923,-1.75536 6.4273,-1.75536 4.2849,0 6.4273,-0.87769 6.4273,-2.63306 0,-1.63834 2.0234,-2.63305 5.356,-2.63305 3.3327,0 5.3561,-0.99471 5.3561,-2.63305 0,-2.02134 2.7375,-2.63306 11.7833,-2.63306 9.0458,0 11.7834,-0.61171 11.7834,-2.63305 0,-1.75537 2.1424,-2.63305 6.4272,-2.63305 4.2849,0 6.4273,-0.87768 6.4273,-2.63305 0,-1.65784 2.0404,-2.63306 5.5091,-2.63306 5.6494,0 11.6303,-3.54631 11.6303,-6.89608 0,-1.03442 1.4461,-1.88076 3.2136,-1.88076 1.7675,0 3.2137,-1.18487 3.2137,-2.63305 0,-1.44818 1.4461,-2.63305 3.2136,-2.63305 1.7675,0 3.2137,-1.18488 3.2137,-2.63306 0,-1.44817 1.0329,-2.63305 2.2954,-2.63305 1.2625,0 3.6727,-1.12845 5.3561,-2.50766 1.6833,-1.37923 3.0606,-3.35402 3.0606,-4.38843 0,-1.03442 2.8922,-1.88075 6.4272,-1.88075 4.2849,0 6.4273,-0.87768 6.4273,-2.63305 0,-1.90165 -2.3805,-2.63306 -8.5697,-2.63306 -6.1892,0 -8.5697,-0.7314 -8.5697,-2.63305 0,-1.44818 -1.4461,-2.63305 -3.2136,-2.63305 -2.6311,0 -3.2136,-3.02313 -3.2136,-16.676 0,-13.65287 0.5825,-16.676 3.2136,-16.676 1.7675,0 3.2136,-1.18487 3.2136,-2.63305 0,-1.44818 0.9641,-2.63306 2.1424,-2.63306 1.1784,0 2.1425,-3.15966 2.1425,-7.02147 0,-5.07107 0.8927,-7.02147 3.2136,-7.02147 2.3805,0 3.2136,-2.04794 3.2136,-7.89916 0,-5.85122 0.8332,-7.89916 3.2137,-7.89916 1.7675,0 3.2136,-0.78991 3.2136,-1.75537 0,-0.96545 -1.4461,-1.75536 -3.2136,-1.75536 -1.7675,0 -3.2137,0.78991 -3.2137,1.75536 0,0.96546 -1.4461,1.75537 -3.2136,1.75537 -1.7675,0 -3.2136,1.18488 -3.2136,2.63305 0,1.44818 -0.9641,2.63306 -2.1425,2.63306 -1.1783,0 -2.1424,1.18487 -2.1424,2.63305 0,1.44818 -1.4461,2.63305 -3.2136,2.63305 -1.7675,0 -3.2136,1.18488 -3.2136,2.63305 0,1.44818 -1.4462,2.63306 -3.2137,2.63306 -1.7675,0 -3.2136,0.78991 -3.2136,1.75537 0,0.96545 -1.4462,1.75536 -3.2137,1.75536 -1.7675,0 -3.2136,1.18488 -3.2136,2.63306 0,1.44818 -0.9641,2.63305 -2.1424,2.63305 -1.1784,0 -2.1424,1.18487 -2.1424,2.63305 0,1.75537 -2.1425,2.63305 -6.4273,2.63305 -5.7132,0 -6.4273,0.58512 -6.4273,5.26611 0,4.44693 -0.8332,5.26611 -5.356,5.26611 -2.9459,0 -5.3561,0.78991 -5.3561,1.75536 0,0.96546 -1.4461,1.75537 -3.2136,1.75537 -2.1425,0 -3.2137,1.75537 -3.2137,5.26611 0,3.51073 -1.0712,5.2661 -3.2136,5.2661 -1.7675,0 -3.2137,0.77487 -3.2137,1.72193 0,0.94706 -2.6417,2.26516 -5.8704,2.92913 -6.4096,1.31805 -11.2689,4.55701 -11.2689,7.51114 0,1.03442 -1.4462,1.88075 -3.2137,1.88075 -1.7675,0 -3.2136,1.18487 -3.2136,2.63305 0,1.44818 -1.4462,2.63305 -3.2137,2.63305 -1.7675,0 -3.2136,1.18488 -3.2136,2.63306 0,1.44818 -1.4461,2.63305 -3.2136,2.63305 -1.7675,0 -3.2137,1.18487 -3.2137,2.63305 0,1.44818 -1.0329,2.63306 -2.2954,2.63306 -2.9662,0 -8.4167,4.46581 -8.4167,6.89608 0,1.03442 -1.4461,1.88076 -3.2136,1.88076 -1.7675,0 -3.2137,1.18487 -3.2137,2.63305 0,1.44818 -1.4461,2.63305 -3.2136,2.63305 -1.7675,0 -3.2136,0.77487 -3.2136,1.72193 0,0.94706 -2.4103,2.21756 -5.3561,2.82335 -3.8454,0.79076 -5.3561,2.28551 -5.3561,5.29955 0,2.56141 -1.2528,4.19812 -3.2136,4.19812 -1.7675,0 -3.2136,1.18487 -3.2136,2.63305 0,1.44818 -1.4462,2.63305 -3.2137,2.63305 -1.7675,0 -3.2136,1.18488 -3.2136,2.63306 0,1.75537 -2.1424,2.63305 -6.4273,2.63305 -3.535,0 -6.4272,0.84633 -6.4272,1.88075 0,2.43028 -5.4506,6.89609 -8.4167,6.89609 -1.2625,0 -2.2955,1.18488 -2.2955,2.63305 0,1.44818 -1.4461,2.63306 -3.2136,2.63306 -1.7675,0 -3.2136,1.18487 -3.2136,2.63305 0,1.44818 -1.4462,2.63305 -3.2137,2.63305 -1.7675,0 -3.2136,1.18488 -3.2136,2.63305 0,1.44818 1.4461,2.63306 3.2136,2.63306 1.7675,0 3.2137,0.78991 3.2137,1.75537 0,0.96545 2.8922,1.75536 6.4272,1.75536 4.2849,0 6.4273,0.87769 6.4273,2.63306 0,1.44818 1.4461,2.63305 3.2136,2.63305 1.7675,0 3.2137,1.18487 3.2137,2.63305 0,1.44818 1.0329,2.63305 2.2954,2.63305 3.4134,0 8.4167,4.62115 8.4167,7.77378 0,1.79253 1.9291,2.75844 5.5091,2.75844 5.6494,0 11.6303,3.54631 11.6303,6.89608 0,1.03442 1.4461,1.88076 3.2136,1.88076 1.7675,0 3.2137,1.18487 3.2137,2.63305 0,1.44818 1.4461,2.63305 3.2136,2.63305 2.467,0 3.2136,2.24298 3.2136,9.65453 0,7.41155 -0.7466,9.65452 -3.2136,9.65452 -1.7675,0 -3.2136,1.18488 -3.2136,2.63306 0,1.63834 -2.0234,2.63305 -5.3561,2.63305 -3.3327,0 -5.3561,0.99471 -5.3561,2.63305 0,1.90165 -2.3804,2.63306 -8.5697,2.63306 -4.7133,0 -8.5696,0.78991 -8.5696,1.75536 0,0.96546 -1.9282,1.75537 -4.2849,1.75537 -2.3805,0 -4.2848,1.17025 -4.2848,2.63305 0,2.07044 -2.9756,2.63306 -13.9258,2.63306 -10.9502,0 -13.9258,-0.56262 -13.9258,-2.63306 z"
       style="fill:#000000;stroke-width:1.93926" />
  </g>
</svg>
