<?xml version="1.0" encoding="UTF-8" standalone="no"?>
<svg
   xmlns:dc="http://purl.org/dc/elements/1.1/"
   xmlns:cc="http://creativecommons.org/ns#"
   xmlns:rdf="http://www.w3.org/1999/02/22-rdf-syntax-ns#"
   xmlns:svg="http://www.w3.org/2000/svg"
   xmlns="http://www.w3.org/2000/svg"
   xmlns:sodipodi="http://sodipodi.sourceforge.net/DTD/sodipodi-0.dtd"
   xmlns:inkscape="http://www.inkscape.org/namespaces/inkscape"
   version="1.1"
   id="svg211"
   width="985.05231"
   height="271.11517"
   viewBox="0 0 985.05234 271.11517"
   sodipodi:docname="САНКИ.svg"
   inkscape:version="1.0 (4035a4fb49, 2020-05-01)">
  <metadata
     id="metadata217">
    <rdf:RDF>
      <cc:Work
         rdf:about="">
        <dc:format>image/svg+xml</dc:format>
        <dc:type
           rdf:resource="http://purl.org/dc/dcmitype/StillImage" />
        <dc:title></dc:title>
      </cc:Work>
    </rdf:RDF>
  </metadata>
  <defs
     id="defs215" />
  <sodipodi:namedview
     inkscape:document-rotation="0"
     pagecolor="#ffffff"
     bordercolor="#666666"
     borderopacity="1"
     objecttolerance="10"
     gridtolerance="10"
     guidetolerance="10"
     inkscape:pageopacity="0"
     inkscape:pageshadow="2"
     inkscape:window-width="1920"
     inkscape:window-height="1018"
     id="namedview213"
     showgrid="false"
     inkscape:zoom="0.4416668"
     inkscape:cx="514.53961"
     inkscape:cy="110.79614"
     inkscape:window-x="-6"
     inkscape:window-y="-6"
     inkscape:window-maximized="1"
     inkscape:current-layer="g219" />
  <g
     transform="translate(55.545139,-348.97056)"
     inkscape:groupmode="layer"
     inkscape:label="Image"
     id="g219">
    <path
       id="path78"
       d="m 16.3896,618.30792 v -1.77781 H 11.205114 6.0206289 v -1.7778 -1.77781 h 2.592243 2.5922421 v -1.7778 -1.7778 h 2.592246 2.59224 v -1.77781 -1.7778 h 2.59224 2.59225 v -1.77781 -1.7778 h 2.59224 2.59224 v -3.33338 -3.33339 h 2.59224 2.59225 v -1.7778 c 0,-1.73548 0.054,-1.77781 2.26821,-1.77781 h 2.26821 v -10.66682 -10.66683 h -2.26821 c -2.21421,0 -2.26821,-0.0423 -2.26821,-1.7778 v -1.77781 h -2.59225 -2.59224 v -1.7778 -1.77781 H 16.3896 6.0206289 v 1.77781 1.7778 H 3.4283859 0.83614286 v 3.55561 3.55561 h -2.59224296 -2.592243 v 1.7778 1.77781 h -2.592243 -2.592242 v 1.7778 1.77781 h -2.5922429 -2.592243 v 1.7778 1.77781 h -2.592243 -2.592243 v 1.7778 1.77781 h -2.592243 -2.592243 v 1.7778 1.7778 h 2.592243 2.592243 v 1.77781 1.7778 h 2.592243 2.592243 v 1.77781 1.7778 h 2.592243 2.5922429 v 3.33338 3.33339 h 2.592242 2.592243 v 1.7778 1.77781 h 2.592243 2.59224296 v 1.7778 1.7778 h -2.59224296 -2.592243 v -1.7778 -1.7778 h -2.592243 -2.592242 v -1.77781 -1.7778 h -2.5922429 -2.592243 v -3.33339 -3.33338 h -2.592243 -2.592243 v -1.7778 -1.77781 h -2.592243 -2.592243 v -1.7778 c 0,-1.73548 -0.054,-1.77781 -2.268212,-1.77781 -2.214208,0 -2.268213,-0.0423 -2.268213,-1.7778 v -1.7778 h -2.592242 -2.592243 v -1.77781 -1.7778 h -2.592243 -2.592243 v -1.77781 -1.7778 h -2.592243 -2.592243 v -3.55561 -3.55561 h -2.592243 -2.592243 v -3.55561 -3.55561 h -2.592242 -2.592243 v -15.77801 -15.77801 h 2.592243 2.592242 v -5.33342 -5.33341 h 2.592243 2.592243 v -1.7778 -1.77781 h 2.592243 2.592243 v -1.7778 -1.77781 h 2.592243 2.592243 v -1.7778 -1.77781 h 2.592243 2.592242 v -1.7778 c 0,-1.73548 0.054,-1.7778 2.268213,-1.7778 2.160202,0 2.268212,-0.0741 2.268212,-1.55558 v -1.55558 h 5.184486 5.184486 v -1.77781 -1.7778 H 6.0206289 26.75857 v 1.7778 1.77781 h 4.86046 4.86045 v 1.55558 1.55558 h 5.18449 5.18448 v 1.7778 1.7778 h 2.59225 2.59224 v 1.77781 1.7778 h 2.59224 2.59225 v 1.77781 1.7778 h 2.59224 2.59224 v 1.77781 1.7778 h 2.59224 2.59225 v 1.7778 1.77781 h 2.59224 2.59224 v 1.7778 1.77781 h 2.59225 2.59224 v 1.7778 1.77781 h 2.59224 2.59224 v 1.7778 1.7778 h 2.59225 2.59224 v 1.77781 1.7778 h 2.59224 2.59225 v -1.7778 c 0,-1.73548 0.054,-1.77781 2.26821,-1.77781 2.21421,0 2.26821,-0.0423 2.26821,-1.7778 v -1.7778 h 2.59224 2.59225 v -3.55561 -3.55561 h 2.59224 2.59224 v -1.77781 -1.7778 h 2.59224 2.59225 v -1.7778 -1.77781 h 2.59224 2.59224 v -1.7778 -1.77781 h 5.18449 5.18448 v -1.7778 -1.77781 h 2.59225 2.59224 v -1.7778 -1.7778 h 2.59224 c 2.53052,0 2.59225,-0.037 2.59225,-1.55558 v -1.55558 h 5.18448 5.18449 v -1.77781 -1.7778 h 2.59224 2.59224 v -1.77781 -1.7778 h 7.4527 7.4527 v -1.7778 -1.77781 h 5.18449 5.18448 v -1.7778 -1.77781 h 10.36897 10.36897 v -1.7778 -1.77781 h 46.01232 46.01231 v -1.7778 -1.7778 h 10.36897 10.36897 v -1.77781 -1.7778 h 7.77673 7.77673 v -1.77781 -1.7778 h 5.18448 5.18449 v -1.77781 c 0,-1.73547 0.054,-1.7778 2.26821,-1.7778 2.21421,0 2.26821,-0.0423 2.26821,-1.77781 v -1.7778 h 2.59225 2.59224 v -1.7778 -1.77781 h 2.59224 2.59224 v -1.7778 -1.77781 h 2.59225 2.59224 v -1.7778 -1.77781 h 5.18449 5.18448 v -1.55557 -1.55558 h 7.77673 7.77673 v -1.77781 -1.7778 h 5.18448 5.18449 v -1.77781 -1.7778 h 7.4527 7.4527 v -1.7778 -1.77781 h 20.73794 20.73794 v 1.77781 1.7778 h 10.04494 10.04494 v 1.7778 1.77781 h 5.18449 5.18449 v -1.77781 -1.7778 h 7.77672 7.77673 v -1.7778 -1.77781 h 5.18449 5.18448 v -1.7778 -1.77781 h 10.36898 10.36897 v -1.7778 -1.77781 h 10.04494 10.04494 v -1.7778 -1.77781 h 15.55346 15.55345 v -1.7778 -1.7778 h 2.59225 2.59224 v -1.77781 -1.7778 h 2.59224 2.59225 v -1.77781 c 0,-1.73547 0.0538,-1.7778 2.26821,-1.7778 2.21423,0 2.26821,-0.0423 2.26821,-1.77781 v -1.7778 h 2.59224 2.59225 v -1.77781 -1.7778 h 2.59224 2.59224 v -1.77781 -1.7778 h 2.59224 c 2.53055,0 2.59225,-0.037 2.59225,-1.55558 0,-1.51854 0.0616,-1.55558 2.59224,-1.55558 h 2.59224 v -1.7778 -1.77781 h 2.59225 2.59224 v -1.7778 -1.7778 h 2.59224 2.59224 v -1.77781 -1.7778 h 7.77673 7.77673 v -1.77781 -1.7778 h 12.63719 12.63718 v -1.77781 -1.7778 h 2.59224 2.59225 v -1.77781 -1.7778 h 5.18448 5.18449 v -1.7778 -1.77781 h 5.18448 5.18449 v -1.7778 -1.77781 h 25.5984 25.5984 v -1.7778 -1.77781 h 2.59224 2.59224 v -1.7778 -1.7778 h 2.59224 2.59225 v -5.11119 -5.11119 h 2.59224 2.59224 v -1.7778 -1.77781 h 2.59225 2.59224 v -1.7778 -1.77781 h 2.59224 2.59224 v 1.77781 1.7778 h 4.86046 4.86045 v 1.77781 1.7778 h 2.59225 c 2.53054,0 2.59224,0.037 2.59224,1.55558 v 1.55558 h 5.18449 5.18448 v -1.55558 c 0,-1.51854 0.0616,-1.55558 2.59224,-1.55558 h 2.59225 v -5.33341 -5.33342 h 2.59224 2.59224 v -1.7778 -1.7778 h 2.59225 2.59224 v -1.77781 -1.7778 h 10.36897 10.36897 v 1.7778 1.77781 h 7.4527 7.4527 v 1.7778 1.7778 h 12.96121 12.96122 v 1.77781 1.7778 h 12.96121 12.96122 v 1.77781 1.7778 h 7.45269 7.45275 v 1.77781 1.7778 h 2.5922 c 2.5305,0 2.5922,0.037 2.5922,1.55558 0,1.51854 0.062,1.55558 2.5923,1.55558 h 2.5922 v 3.55561 3.55561 h 2.5923 2.5922 v 5.33341 5.33341 h -2.5922 -2.5923 v 3.55561 3.55561 h -2.5922 -2.5923 v 1.7778 1.77781 h -5.1844 -5.18453 v 1.7778 1.77781 h -4.86046 -4.86045 v -1.77781 -1.7778 h -7.77673 -7.77673 v 1.7778 1.77781 h -2.59224 -2.59225 v 1.7778 1.77781 h -2.59224 -2.59224 v 1.7778 1.7778 h -7.77673 -7.77673 v 1.77781 1.7778 h -17.82167 -17.82167 v 1.55558 1.55558 h -18.1457 -18.1457 v 1.7778 1.77781 h -10.04494 -10.04494 v 1.7778 1.77781 h -5.18449 -5.18448 v 1.7778 1.77781 h -5.18449 -5.18448 v 1.7778 1.77781 h -5.18449 -5.18449 v 1.7778 1.77781 h -2.59224 -2.59224 v 1.7778 1.7778 h -5.18449 -5.18448 v 1.77781 1.7778 h -4.86046 -4.86045 v 1.77781 1.7778 h -5.18449 -5.18449 v 1.77781 1.7778 h -2.59224 -2.59224 v 1.77781 1.7778 h -5.18449 -5.18448 v 1.7778 1.77781 h -2.59225 -2.59224 v 3.33338 3.33338 h -2.59224 -2.59224 v 1.77781 1.7778 h -2.59225 -2.59224 v 1.77781 1.7778 h 10.36897 10.36897 v 3.55561 3.55561 h -2.59224 -2.59224 v 1.7778 1.77781 h -5.18449 -5.18448 v 1.7778 1.77781 h -5.18449 -5.18449 v 1.7778 1.77781 h -2.59224 -2.59224 v 3.5556 3.55561 h -2.26821 -2.26822 v 3.55561 3.55561 h -2.59224 -2.59224 v 1.7778 1.77781 h -2.59225 -2.59224 v 1.7778 1.77781 h -5.18448 -5.18449 v 1.55558 1.55558 h -5.18449 -5.18448 v 1.7778 1.7778 h -5.18449 -5.18448 v 1.77781 1.7778 h -5.18449 -5.18448 v 1.77781 1.7778 h -4.86046 -4.86045 v 1.77781 1.7778 h -5.18449 -5.18449 v 1.7778 1.77781 h -5.18448 -5.18449 v 1.7778 1.77781 h -7.77673 -7.77672 v 1.7778 1.77781 h -2.59225 -2.59224 v 1.7778 1.7778 h -7.77673 -7.77673 v 1.77781 1.7778 h -4.86045 -4.86046 v 1.77781 1.7778 h -5.18448 -5.18449 v 1.77781 1.7778 h -5.18449 -5.18448 v 1.77781 1.7778 h -5.18449 -5.18448 v 1.55558 1.55558 h -5.18449 -5.18448 v 1.7778 1.77781 h -5.18449 -5.18449 v 1.7778 1.7778 h -7.45269 -7.4527 v 1.77781 1.7778 h -5.18449 -5.18448 v 1.77781 1.7778 h -5.18449 -5.18449 v 1.77781 1.7778 h -5.18448 -5.18449 v 1.7778 1.77781 h -5.18448 -5.18449 v 1.7778 1.77781 h -5.18448 -5.18449 v 1.7778 1.77781 h -7.4527 -7.4527 v 1.7778 1.77781 h -5.18448 -5.18449 v 1.7778 1.7778 h -2.59224 -2.59224 v 1.77781 1.7778 h -7.77673 -7.77673 v 1.77781 1.7778 h -7.77673 -7.77673 v 1.55558 1.55558 h -12.63718 -12.63719 v -1.55558 -1.55558 h -5.18448 -5.18449 v 1.55558 1.55558 h -5.18448 -5.18449 v 1.7778 1.77781 h -15.22943 -15.22942 v 1.7778 1.77781 h -7.77673 -7.77673 v 1.7778 1.7778 h -10.36897 -10.36897 v 1.77781 1.7778 h -10.04494 -10.04494 v 1.77781 1.7778 h -2.59225 -2.59224 v -1.7778 -1.77781 h -10.36897 -10.36897 v -1.7778 -1.77781 h 2.59224 2.59224 v -1.7778 -1.7778 h 2.59225 2.59224 v -1.77781 -1.7778 h -7.77673 -7.77673 v -1.77781 -1.7778 h -7.77673 -7.77673 v -1.55558 -1.55558 h -7.45269 -7.4527 v -1.7778 -1.77781 h -20.73795 -20.73794 v 1.77781 1.7778 h -7.4527 -7.45269 v -1.7778 -1.77781 H 77.95537 62.40191 v 3.33339 3.33338 h -2.59224 -2.59224 v 1.7778 1.77781 h -2.59225 -2.59224 v 3.55561 3.5556 H 49.4407 46.84845 v 1.77781 1.7778 h -2.59224 -2.59224 v 1.77781 1.7778 H 29.02678 16.3896 Z m 333.10321,-24.44481 v -1.77781 h 7.77673 7.77673 v -1.7778 -1.7778 h 5.18448 5.18449 v -1.77781 -1.7778 h 5.18448 5.18449 v -1.77781 -1.7778 h 5.18448 5.18449 v -1.77781 -1.7778 h 4.86046 4.86045 v -1.77781 -1.7778 h 5.18449 5.18448 v -1.7778 -1.77781 h 5.18449 5.18448 v -1.7778 -1.77781 h 7.77673 7.77673 v -1.7778 -1.77781 h 5.18449 5.18448 v -1.7778 -1.7778 h 5.18449 5.18448 v -1.77781 -1.7778 h 4.86046 4.86045 v -1.55558 -1.55558 h 5.18449 5.18449 v -3.55561 -3.55561 h -5.18449 -5.18449 v 1.77781 1.7778 h -4.86045 -4.86046 v 1.77781 1.7778 h -5.18448 -5.18449 v 1.55558 1.55558 h -5.18448 -5.18449 v 1.7778 1.77781 h -5.18449 -5.18448 v 1.7778 1.7778 h -7.77673 -7.77673 v 1.77781 1.7778 h -5.18448 -5.18449 v 1.77781 1.7778 h -4.86045 -4.86046 v 1.77781 1.7778 h -5.18449 -5.18448 v 1.7778 1.77781 h -5.18449 -5.18448 v 1.7778 1.77781 h -5.18449 -5.18448 v 1.7778 1.77781 h -7.77673 -7.77673 v 1.7778 1.77781 h -4.86046 -4.86045 v 1.7778 1.7778 h -5.18449 -5.18448 v 1.77781 1.7778 h 10.04494 10.04494 z m 154.23845,-49.33407 v -1.77781 h 5.18448 5.18449 v -1.7778 -1.77781 h 5.18449 5.18448 v -1.7778 -1.7778 h 7.4527 7.4527 v -1.77781 -1.7778 h 5.18448 5.18449 v -1.77781 -1.7778 h 5.18449 5.18448 v -1.77781 -1.7778 h 5.18449 5.18448 v -1.7778 -1.77781 h 5.18449 5.18448 v -1.7778 -1.77781 h 5.18449 5.18449 v -1.7778 -1.77781 h 7.45269 7.4527 v -1.7778 -1.7778 h 5.18449 5.18448 v -1.55558 -1.55558 h 5.18449 5.18448 v -1.77781 -1.7778 h 2.59225 2.59224 v -1.77781 -1.7778 h 2.59224 2.59225 v -1.7778 -1.77781 h 2.59224 2.59224 v -1.7778 -1.77781 h -5.18448 -5.18449 v 1.77781 1.7778 h -5.18449 -5.18448 v 1.77781 1.7778 h -7.77673 -7.77673 v 1.7778 1.77781 h -5.18448 -5.18449 v 1.7778 c 0,1.73548 -0.0538,1.77781 -2.26821,1.77781 -2.16018,0 -2.26821,0.0741 -2.26821,1.55558 v 1.55558 h -7.77673 -7.77673 v 1.7778 1.7778 h -2.59224 -2.59225 v 1.77781 1.7778 h -5.18448 -5.18449 v 1.77781 1.7778 h -5.18448 -5.18449 v 1.77781 1.7778 h -5.18449 -5.18448 v 1.7778 1.77781 h -4.86046 -4.86045 v 1.7778 1.77781 h -5.18449 -5.18448 v 1.7778 1.77781 h -5.18449 -5.18449 v 1.7778 1.7778 h -7.77672 -7.77673 v 3.55561 3.55561 h 5.18448 5.18449 z"
       style="fill:#000000;stroke-width:0.536685" />
  </g>
</svg>
