<?xml version="1.0" encoding="UTF-8" standalone="no"?>
<svg
   xmlns:dc="http://purl.org/dc/elements/1.1/"
   xmlns:cc="http://creativecommons.org/ns#"
   xmlns:rdf="http://www.w3.org/1999/02/22-rdf-syntax-ns#"
   xmlns:svg="http://www.w3.org/2000/svg"
   xmlns="http://www.w3.org/2000/svg"
   xmlns:sodipodi="http://sodipodi.sourceforge.net/DTD/sodipodi-0.dtd"
   xmlns:inkscape="http://www.inkscape.org/namespaces/inkscape"
   inkscape:version="1.0 (4035a4fb49, 2020-05-01)"
   sodipodi:docname="КОНЬКОБЕЖЦЫ.svg"
   viewBox="0 0 767.16821 1179.5261"
   height="1179.5261"
   width="767.16821"
   id="svg20"
   version="1.1">
  <metadata
     id="metadata26">
    <rdf:RDF>
      <cc:Work
         rdf:about="">
        <dc:format>image/svg+xml</dc:format>
        <dc:type
           rdf:resource="http://purl.org/dc/dcmitype/StillImage" />
        <dc:title></dc:title>
      </cc:Work>
    </rdf:RDF>
  </metadata>
  <defs
     id="defs24" />
  <sodipodi:namedview
     inkscape:current-layer="g28"
     inkscape:window-maximized="1"
     inkscape:window-y="-6"
     inkscape:window-x="-6"
     inkscape:cy="736.28116"
     inkscape:cx="1006.0401"
     inkscape:zoom="0.46403883"
     showguides="false"
     showgrid="false"
     id="namedview22"
     inkscape:window-height="1018"
     inkscape:window-width="1920"
     inkscape:pageshadow="2"
     inkscape:pageopacity="0"
     guidetolerance="10"
     gridtolerance="10"
     objecttolerance="10"
     borderopacity="1"
     bordercolor="#666666"
     pagecolor="#ffffff"
     inkscape:document-rotation="0" />
  <g
     transform="translate(962.97385,-26.076969)"
     id="g28"
     inkscape:label="Image"
     inkscape:groupmode="layer">
    <path
       id="path50"
       d="m -956.67411,1194.9345 v -10.6687 h 2.79988 2.79988 v -3.8407 -3.8407 h -2.79988 -2.79988 v -6.828 -6.8279 h -3.14987 -3.14987 v -14.5094 -14.5093 h 3.14987 3.14987 v -10.6687 -10.6686 h 2.79988 2.79988 v -7.2547 -7.2547 h 3.14987 3.14987 v -3.8407 -3.8407 h 2.79989 2.79988 v -3.414 -3.414 h 3.14987 3.14987 v -3.8407 -3.8407 h 2.79988 2.79989 v -3.414 -3.4139 h 2.79988 2.79989 v -3.414 -3.414 h 3.14987 3.14986 v -3.8407 -3.8407 h 2.79989 2.79988 v -7.2547 -7.2547 h 3.14987 3.14987 v -3.4139 -3.414 h 2.79989 2.79988 v -7.2547 -7.2547 h 3.14987 3.14987 v -3.4139 -3.414 h 2.79988 2.79989 v -3.8407 -3.8407 h 2.79988 2.79989 v -3.414 -3.41404 h 3.14987 3.14987 v -7.2546 -7.25473 h 2.79988 2.79988 v -3.41397 -3.41397 h 3.14987 3.14987 v -3.84071 -3.84072 h 2.79989 2.79988 v -7.25468 -7.25468 h 2.79989 2.79988 v -7.25468 -7.25469 h 3.14987 3.14987 v -6.82793 -6.82794 h 2.79988 2.79989 v -11.0954 -11.0954 h 3.14987 3.14986 v -7.25468 -7.25468 h 2.79989 2.79988 v -6.82794 -6.82794 h 3.14987 3.14987 v -7.25468 -7.25468 h 2.79989 2.79988 v -7.25468 -7.25469 h 2.79988 2.79989 v -7.25468 -7.25468 h 3.14987 3.14987 v -7.25469 -7.25468 h 2.79988 2.79988 v -3.41397 -3.41397 h 3.14987 3.14987 v -3.84071 -3.84072 h 2.79989 2.79988 v -3.41396 -3.41397 h 3.14987 3.14987 v -3.84072 -3.84071 h 2.79988 2.79989 v -3.41397 -3.41397 h 2.79988 2.79989 v -3.41397 -3.41396 h 3.14987 3.14986 v -3.84072 -3.84071 h 2.79989 2.79988 v -3.41397 -3.41397 h 3.14987 3.14987 v -3.84072 -3.84071 h 2.79989 2.79988 v -3.41397 -3.41397 h 3.14987 3.14987 v -3.41397 -3.41396 h 2.79988 2.79989 v -7.25469 -7.25468 h 2.79988 2.79988 v -3.84071 -3.84072 h 3.14987 3.14987 v -3.41397 -3.41397 h 2.79989 2.79988 v -7.25468 -7.25468 h 3.14987 3.14987 v -7.25468 -7.25469 h 2.79988 2.79989 v -7.25468 -7.25468 h 3.14987 3.14987 v -10.66865 -10.66866 h 2.79988 2.79988 V 634.1901 623.52145 h 2.79989 2.79988 v -7.25468 -7.25468 h 3.14987 3.14987 v -3.84072 -3.84071 h 2.79989 2.79988 v -6.82794 -6.82794 h 3.14987 3.14987 v -3.84071 -3.84072 h 2.79988 2.79989 v -7.25468 -7.25468 h 2.79988 2.79988 v -3.41397 -3.41397 h 3.14987 3.14987 v -3.84071 -3.84072 h 2.79989 2.79988 v -3.41397 -3.41396 h 3.14987 3.14987 v -3.41397 -3.41397 h 2.79988 2.79989 v -3.84072 -3.84071 h 3.14987 3.14987 v -3.41397 -3.41397 h 2.79988 2.79988 v -3.84071 -3.84072 h 5.94976 5.94975 v -3.41397 -3.41396 h 2.79989 2.79988 v -3.84072 -3.84071 h 3.14987 3.14987 v -3.41397 -3.41397 h 5.94975 5.94976 v -3.41397 -3.41397 h 2.79988 2.79988 v -3.84071 -3.84072 h 2.79989 2.79988 v -82.78873 -82.78873 h 3.14987 3.14987 v -6.82794 -6.82794 h 2.79988 2.79989 v -3.84071 -3.84072 h 3.14987 3.14987 v -3.41397 -3.41396 h 2.79988 2.79988 v -3.84072 -3.84071 h 8.74964 8.74964 v -3.41397 -3.41397 h 9.09962 9.09962 v -3.84071 -3.84072 h 26.24892 26.24891 v -3.41397 -3.41397 h 9.09962 9.09962 v -7.25468 -7.25468 h 2.79989 2.79988 v -3.41397 -3.41397 h 5.94976 5.94975 v -7.25468 -7.25468 h 2.79988 2.79989 v -10.66866 -10.66865 h 3.14987 3.14987 v -7.25468 -7.25468 h 2.79988 2.79988 v -3.84072 -3.84071 h 3.14987 3.14987 v -3.41397 -3.41397 h 2.79989 2.79988 v -3.41397 -3.41397 h 5.94975 5.94976 v -3.84071 -3.84072 h 23.44903 23.44902 v 3.84072 3.84071 h 5.94976 5.94975 v 3.41397 3.41397 h 3.14987 3.14987 v 3.41397 3.41397 h 2.79988 2.79989 v 3.84071 3.84072 h 3.14987 3.14987 v 7.25468 7.25468 h 2.79988 2.79988 v 3.41397 3.41397 h 2.79989 2.79988 v -3.41397 -3.41397 h 3.14987 3.14987 v -7.25468 -7.25468 h 2.79989 2.79988 v -7.25469 -7.25468 h 3.14987 3.14987 v -3.41397 -3.41397 h 2.79988 2.79989 v -3.84071 -3.84072 h 2.79988 2.79988 v -3.41396 -3.41397 h 3.14987 3.14987 v -3.84072 -3.84071 h 5.94976 5.94975 v -3.41397 -3.41397 h 2.79988 2.79989 V 98.623795 62.77713 h 3.14987 3.14987 v -7.254683 -7.254683 h -3.14987 -3.14987 v -7.254683 -7.254683 h 3.14987 3.14987 v -3.840715 -3.840714 h 5.59976 5.59977 v 3.840714 3.840715 h 3.14987 3.14987 v 3.413968 3.413969 h 2.79989 2.79988 v 3.840714 3.840715 h 3.14987 3.14987 v 3.413968 3.413969 h 2.79988 2.79989 v 14.509366 14.509365 h 3.14987 3.14987 v 25.178018 25.17802 h -3.14987 -3.14987 v 10.66865 10.66865 h -2.79989 -2.79988 v 25.17802 25.17802 h -3.14987 -3.14987 v 10.66865 10.66865 h -2.79988 -2.79989 v 3.84072 3.84071 h -3.14987 -3.14987 v 7.25468 7.25469 h -2.79988 -2.79989 v 35.84667 35.84666 h -2.79988 -2.79988 v 7.25469 7.25468 h -3.14987 -3.14987 v 7.25468 7.25469 h -2.79989 -2.79988 v 6.82793 6.82794 h -3.14987 -3.14987 v 3.84071 3.84072 h -2.79988 -2.79989 v 3.41397 3.41397 h -3.14987 -3.14987 v 7.25468 7.25468 h -2.79988 -2.79988 v 3.84072 3.84071 h -2.79989 -2.79988 v 10.66865 10.66865 h -3.14987 -3.14987 v 10.66865 10.66866 h -2.79988 -2.79989 v 7.25468 7.25468 h -3.14987 -3.14987 v 7.25468 7.25469 h -2.79988 -2.79989 v 3.41397 3.41396 h -2.79988 -2.79988 v 3.84072 3.84071 h 5.59976 5.59977 v -3.84071 -3.84072 h 5.94976 5.94975 v -3.41396 -3.41397 h 8.74964 8.74963 v 10.66865 10.66865 h 3.14987 3.14987 v -3.41397 -3.41397 h 5.94976 5.94975 v -3.84071 -3.84072 h 5.94975 5.94976 v -3.41396 -3.41397 h 8.74963 8.74964 v 3.41397 3.41396 h 5.94975 5.94976 v 3.84072 3.84071 h 2.79988 2.79989 v 3.41397 3.41397 h -2.79989 -2.79988 v 10.66865 10.66865 h -3.14987 -3.14987 v 3.84072 3.84071 h -5.94975 -5.94976 v 3.41397 3.41397 h 3.14987 3.14987 v 7.25468 7.25469 h -3.14987 -3.14987 v 3.41396 3.41397 h -5.59977 -5.59976 v 3.84072 3.84071 h -9.09963 -9.09962 v 3.41397 3.41397 h -8.74964 -8.74963 v 3.84071 3.84072 h -11.89951 -11.89951 v 3.41397 3.41396 h -8.74963 -8.74964 v 10.66866 10.66865 h 3.14987 3.14987 v 14.50936 14.50937 h 2.79988 2.79988 v 10.66865 10.66865 h 2.79989 2.79988 v 61.45143 61.45144 h -2.79988 -2.79989 v 50.35603 50.35603 h -2.79988 -2.79988 v 3.41397 3.41397 h -3.14987 -3.14987 v 3.41397 3.41397 h -2.79989 -2.79988 v 3.84071 3.84072 h -11.89951 -11.8995 v -3.84072 -3.84071 h -5.94976 -5.94975 v -3.41397 -3.41397 h -17.49928 -17.49927 v 14.50937 14.50936 h 2.79988 2.79989 v 17.92334 17.92333 h 2.79988 2.79989 v 21.3373 21.3373 h -2.79989 -2.79988 v 11.09544 11.0954 h -2.79989 -2.79988 v 3.414 3.4139 h -3.14987 -3.14987 v 3.8408 3.8407 h -2.79988 -2.79989 v 3.4139 3.414 h -3.14987 -3.14987 v 14.5094 14.5093 h -2.79988 -2.79988 v 3.414 3.414 h -3.14987 -3.14987 v -3.414 -3.414 h -2.79989 -2.79988 v -14.5093 -14.5094 h -2.79988 -2.79989 v -3.414 -3.4139 h -3.14987 -3.14987 v -7.2547 -7.2547 h -2.79988 -2.79989 v -57.61076 -57.61071 h -3.14986 -3.14987 v -10.66865 -10.66866 h -2.79989 -2.79988 v -21.76404 -21.76405 h 2.79988 2.79989 v -3.41397 -3.41397 h 3.14987 3.14986 v -3.84071 -3.84072 h 14.6994 14.69939 v -10.66865 -10.66865 h 2.79988 2.79988 v -3.84072 -3.84071 h 3.14987 3.14987 v -10.66865 -10.66865 h -3.14987 -3.14987 v -7.25469 -7.25468 h -2.79988 -2.79988 v -6.82794 -6.82793 h -3.14987 -3.14987 v -11.0954 -11.0954 h -2.79989 -2.79988 v -10.66865 -10.66865 h -2.79988 -2.79989 v -7.25468 -7.25469 h -3.14987 -3.14987 v -7.25468 -7.25468 h -8.74963 -8.74964 v 3.84071 3.84072 h -5.94976 -5.94975 v 3.41396 3.41397 h -11.89951 -11.8995 v 3.84072 3.84071 h -14.69939 -14.69939 v -3.84071 -3.84072 h -2.79989 -2.79988 v -3.41397 -3.41396 h -3.14987 -3.14987 v -3.84072 -3.84071 h -2.79988 -2.79989 v -7.25469 -7.25468 h -2.79988 -2.79989 v 3.84072 3.84071 h -3.14987 -3.14987 v 3.41397 3.41397 h -2.79988 -2.79988 v 3.84071 3.84072 h -3.14987 -3.14987 v 3.41396 3.41397 h -2.79989 -2.79988 v 3.84072 3.84071 h -3.14987 -3.14987 v 3.41397 3.41397 h -2.79988 -2.79989 v 3.41397 3.41397 h -5.94975 -5.94975 v 3.84071 3.84071 h -2.79989 -2.79988 v 3.41397 3.41397 h -3.14987 -3.14987 v 3.84072 3.84071 h -2.79988 -2.79989 v 3.41397 3.41397 h -3.14987 -3.14987 v 3.84071 3.84072 h -2.79988 -2.79989 v 6.82793 6.82794 h -2.79988 -2.79988 v 3.84071 3.84072 h -3.14987 -3.14987 v 3.41397 3.41397 h -2.79989 -2.79988 v 3.84071 3.84072 h -3.14987 -3.14987 v 3.41396 3.41397 h -2.79988 -2.79989 v 3.41397 3.41397 h -3.14987 -3.14987 v 3.84071 3.84072 h -2.79988 -2.79988 v 3.41397 3.41396 h -2.79989 -2.79988 v 3.84072 3.84071 h -5.94976 -5.94975 v 3.41397 3.41397 h -3.14987 -3.14987 v 3.84072 3.84071 h -2.79988 -2.79989 v 3.41397 3.41397 h -2.79988 -2.79988 v 7.25468 7.25468 h -3.14987 -3.14987 v 7.25469 7.25468 h -2.79989 -2.79988 v 7.25468 7.25468 h -3.14987 -3.14987 v 6.82794 6.82794 h -2.79988 -2.79989 v 3.84071 3.84072 h -3.14987 -3.14987 v 3.41397 3.41396 h -2.79988 -2.79988 v 3.84072 3.84071 h -2.79989 -2.79988 v 3.41397 3.41397 h -3.14987 -3.14987 v 3.84071 3.84072 h -2.79988 -2.79989 v 3.41397 3.41397 h -5.94975 -5.94976 v 3.41396 3.41397 h -3.14986 -3.14987 v 3.84072 3.84071 h -2.79989 -2.79988 v 3.41397 3.41397 h -2.79989 -2.79988 v 3.84071 3.84072 h -3.14987 -3.14987 v 3.41397 3.41396 h -2.79988 -2.79989 v 3.84072 3.84071 h -3.14987 -3.14987 v 3.41397 3.41397 h -2.79988 -2.79988 v 3.41393 3.414 h -3.14987 -3.14987 v 3.8407 3.8407 h -2.79989 -2.79988 v 3.41404 3.414 h -2.79988 -2.79989 v 3.8407 3.8407 h -3.14987 -3.14987 v 7.2547 7.2547 h -2.79988 -2.79989 v 10.6686 10.6687 h -3.14986 -3.14987 v 7.2547 7.2546 h -2.79989 -2.79988 v 3.414 3.414 h -3.14987 -3.14987 v 7.2547 7.2546 h -2.79988 -2.79989 v 3.414 3.414 h -2.79988 -2.79989 v 7.2547 7.2546 h -3.14987 -3.14987 v 10.6687 10.6686 h -2.79988 -2.79988 v 7.2547 7.2547 h -3.14987 -3.14987 v 11.0954 11.0954 h -2.79989 -2.79988 v 3.414 3.4139 h -2.79989 -2.79988 v 3.414 3.414 h -3.14987 -3.14987 v 3.8407 3.8407 h -2.79988 -2.79989 v 3.414 3.4139 h -3.14987 -3.14987 v 3.8408 3.8407 h -14.69939 -14.69939 v 3.4139 3.414 h -8.74964 -8.74963 z"
       style="fill:#000000;stroke-width:0.772929" />
  </g>
</svg>
