<?xml version="1.0" encoding="UTF-8" standalone="no"?>
<svg
   xmlns:dc="http://purl.org/dc/elements/1.1/"
   xmlns:cc="http://creativecommons.org/ns#"
   xmlns:rdf="http://www.w3.org/1999/02/22-rdf-syntax-ns#"
   xmlns:svg="http://www.w3.org/2000/svg"
   xmlns="http://www.w3.org/2000/svg"
   xmlns:sodipodi="http://sodipodi.sourceforge.net/DTD/sodipodi-0.dtd"
   xmlns:inkscape="http://www.inkscape.org/namespaces/inkscape"
   version="1.1"
   id="svg146"
   width="1230.0907"
   height="811.90723"
   viewBox="0 0 1230.0907 811.90723"
   sodipodi:docname="БЕГ ЛЫЖИ.svg"
   inkscape:version="1.0 (4035a4fb49, 2020-05-01)">
  <metadata
     id="metadata152">
    <rdf:RDF>
      <cc:Work
         rdf:about="">
        <dc:format>image/svg+xml</dc:format>
        <dc:type
           rdf:resource="http://purl.org/dc/dcmitype/StillImage" />
        <dc:title></dc:title>
      </cc:Work>
    </rdf:RDF>
  </metadata>
  <defs
     id="defs150" />
  <sodipodi:namedview
     inkscape:document-rotation="0"
     pagecolor="#ffffff"
     bordercolor="#666666"
     borderopacity="1"
     objecttolerance="10"
     gridtolerance="10"
     guidetolerance="10"
     inkscape:pageopacity="0"
     inkscape:pageshadow="2"
     inkscape:window-width="1920"
     inkscape:window-height="1018"
     id="namedview148"
     showgrid="false"
     inkscape:zoom="0.51282051"
     inkscape:cx="162.38332"
     inkscape:cy="379.19762"
     inkscape:window-x="-6"
     inkscape:window-y="-6"
     inkscape:window-maximized="1"
     inkscape:current-layer="g154" />
  <g
     transform="translate(-677.80459,22.618324)"
     inkscape:groupmode="layer"
     inkscape:label="Image"
     id="g154">
    <path
       id="path22"
       d="m 739.87339,786.98495 v -2.30394 H 727.1775 714.48161 v -2.76472 c 0,-2.7368 -0.0523,-2.76473 -5.1724,-2.76473 -4.89027,0 -5.1724,-0.12566 -5.1724,-2.30393 0,-2.17827 -0.28213,-2.30394 -5.1724,-2.30394 -5.12016,0 -5.1724,-0.0279 -5.1724,-2.76472 0,-2.45754 -0.31348,-2.76473 -2.82131,-2.76473 -2.38244,0 -2.82131,-0.35839 -2.82131,-2.30393 0,-1.84315 -0.47022,-2.30394 -2.35109,-2.30394 -1.98537,0 -2.35109,-0.43007 -2.35109,-2.76472 0,-2.45754 -0.31348,-2.76473 -2.82131,-2.76473 -2.38244,0 -2.82131,-0.35839 -2.82131,-2.30393 0,-2.17828 0.28213,-2.30394 5.1724,-2.30394 4.89027,0 5.1724,0.12566 5.1724,2.30394 0,1.94554 0.43887,2.30393 2.82131,2.30393 2.50783,0 2.82131,0.30719 2.82131,2.76473 0,2.33465 0.36572,2.76472 2.35109,2.76472 1.88087,0 2.35109,0.46079 2.35109,2.30394 0,2.17827 0.28213,2.30393 5.1724,2.30393 5.12015,0 5.1724,0.0279 5.1724,2.76473 v 2.76472 h 10.3448 10.3448 v 2.30394 2.30393 h 74.76468 74.76469 v -2.30393 -2.30394 h 40.90899 40.90898 v -2.76472 -2.76473 h 43.73027 43.7303 v -5.06866 c 0,-5.01746 0.029,-5.06866 2.8213,-5.06866 2.3825,0 2.8213,-0.35839 2.8213,-2.30393 0,-1.84315 0.4702,-2.30394 2.3511,-2.30394 1.9854,0 2.3511,-0.43007 2.3511,-2.76472 v -2.76473 h 7.9937 c 7.8997,0 7.9937,-0.0271 7.9937,-2.30393 0,-1.94555 -0.4388,-2.30394 -2.8213,-2.30394 -2.7928,0 -2.8213,-0.0512 -2.8213,-5.06866 0,-4.79219 -0.1282,-5.06866 -2.3511,-5.06866 -1.9853,0 -2.3511,-0.43007 -2.3511,-2.76473 0,-2.33465 0.3658,-2.76472 2.3511,-2.76472 1.9854,0 2.3511,0.43007 2.3511,2.76472 0,2.7368 0.052,2.76473 5.1724,2.76473 4.8903,0 5.1724,0.12566 5.1724,2.30393 0,2.17828 0.2821,2.30394 5.1724,2.30394 5.1202,0 5.1724,0.0279 5.1724,2.76472 v 2.76473 h 17.8683 17.8683 V 741.367 c 0,-2.45753 0.3135,-2.76472 2.8213,-2.76472 2.3824,0 2.8213,-0.35839 2.8213,-2.30394 0,-2.26553 0.1254,-2.30393 7.5235,-2.30393 h 7.5235 v -2.76473 c 0,-2.45753 0.3135,-2.76472 2.8213,-2.76472 2.3824,0 2.8213,-0.35839 2.8213,-2.30394 0,-1.84314 0.4702,-2.30393 2.3511,-2.30393 1.9854,0 2.3511,-0.43007 2.3511,-2.76473 0,-2.45753 0.3135,-2.76472 2.8213,-2.76472 h 2.8213 v -7.3726 c 0,-7.24972 0.039,-7.37259 2.3511,-7.37259 h 2.3511 v -15.20598 -15.20598 h -2.3511 -2.3511 v -17.50992 -17.50992 h -2.8213 -2.8213 v -17.50992 -17.50991 h -2.3511 -2.3511 v -17.97071 -17.9707 h -2.8213 c -2.7928,0 -2.8213,-0.0512 -2.8213,-5.06866 0,-4.79219 -0.1282,-5.06866 -2.3511,-5.06866 h -2.3511 V 542.3069 527.5617 h -2.8213 -2.8213 V 509.591 491.62029 h 2.8213 2.8213 V 476.8751 462.12991 h 2.3511 2.3511 v -12.90205 -12.90204 h 2.8213 2.8213 v -7.3726 c 0,-7.24972 0.039,-7.3726 2.3511,-7.3726 2.3234,0 2.3511,-0.0922 2.3511,-7.83338 v -7.83338 h 2.8213 c 2.7928,0 2.8213,-0.0512 2.8213,-5.06866 0,-4.79219 0.1282,-5.06866 2.3511,-5.06866 2.1943,0 2.3511,-0.30719 2.3511,-4.60788 0,-4.30068 0.1567,-4.60787 2.3511,-4.60787 1.9853,0 2.3511,-0.43007 2.3511,-2.76472 0,-2.45754 0.3134,-2.76473 2.8213,-2.76473 2.7928,0 2.8213,-0.0512 2.8213,-5.06866 0,-4.79218 0.1282,-5.06866 2.3511,-5.06866 2.2228,0 2.3511,-0.27647 2.3511,-5.06866 0,-4.79219 -0.1283,-5.06866 -2.3511,-5.06866 -1.8809,0 -2.3511,-0.46078 -2.3511,-2.30393 0,-1.94555 -0.4389,-2.30394 -2.8213,-2.30394 -2.7928,0 -2.8213,-0.0512 -2.8213,-5.06866 0,-4.79219 -0.1283,-5.06866 -2.3511,-5.06866 h -2.3511 v -25.3433 -25.3433 h -2.3511 c -2.2229,0 -2.3511,-0.27648 -2.3511,-5.06866 0,-5.01746 -0.029,-5.06866 -2.8213,-5.06866 -2.7928,0 -2.8213,-0.0512 -2.8213,-5.06866 0,-4.79219 -0.1282,-5.06866 -2.3511,-5.06866 -1.8809,0 -2.3511,-0.46079 -2.3511,-2.30394 0,-1.94555 -0.4389,-2.30394 -2.8213,-2.30394 -2.7928,0 -2.8213,-0.0512 -2.8213,-5.06866 0,-4.79218 -0.1282,-5.06866 -2.3511,-5.06866 -2.2229,0 -2.3511,-0.27647 -2.3511,-5.06866 0,-5.01745 -0.028,-5.06866 -2.8213,-5.06866 -2.7928,0 -2.8213,-0.0512 -2.8213,-5.06866 0,-4.79219 -0.1282,-5.06866 -2.3511,-5.06866 -1.8809,0 -2.3511,0.46079 -2.3511,2.30394 0,2.17827 -0.2821,2.30394 -5.1724,2.30394 -5.1201,0 -5.1724,0.0279 -5.1724,2.76472 0,2.45753 -0.3135,2.76472 -2.8213,2.76472 -2.3824,0 -2.8213,0.35839 -2.8213,2.30394 0,2.17827 -0.2821,2.30394 -5.1724,2.30394 -5.1202,0 -5.1724,0.0279 -5.1724,2.76472 0,2.7368 -0.052,2.76472 -5.1724,2.76472 -4.8903,0 -5.1724,0.12567 -5.1724,2.30394 v 2.30394 h -15.047 -15.047 v -2.30394 c 0,-1.94555 -0.4388,-2.30394 -2.8213,-2.30394 -2.5078,0 -2.8213,-0.30719 -2.8213,-2.76472 0,-2.33465 -0.3657,-2.76472 -2.3511,-2.76472 -1.8809,0 -2.3511,-0.46079 -2.3511,-2.30394 0,-1.94555 -0.4388,-2.30394 -2.8213,-2.30394 -2.7928,0 -2.8213,-0.0512 -2.8213,-5.06866 0,-4.79219 -0.1282,-5.06866 -2.3511,-5.06866 -1.9853,0 -2.3511,-0.43007 -2.3511,-2.76472 0,-2.45754 -0.3134,-2.76473 -2.8213,-2.76473 -2.7928,0 -2.8213,-0.0512 -2.8213,-5.06866 0,-4.79218 -0.1282,-5.06866 -2.3511,-5.06866 -2.1943,0 -2.3511,-0.30718 -2.3511,-4.60787 0,-4.50548 -0.063,-4.60787 -2.8213,-4.60787 -2.5078,0 -2.8213,-0.30719 -2.8213,-2.76473 0,-2.33465 -0.3657,-2.76472 -2.3511,-2.76472 -2.2228,0 -2.3511,-0.27647 -2.3511,-5.06866 0,-5.01746 -0.029,-5.06866 -2.8213,-5.06866 -2.3824,0 -2.8213,-0.35839 -2.8213,-2.30394 0,-1.84314 -0.4702,-2.30393 -2.3511,-2.30393 -2.2228,0 -2.3511,-0.27647 -2.3511,-5.06866 0,-5.01746 -0.029,-5.06866 -2.8213,-5.06866 -2.5078,0 -2.8213,-0.30719 -2.8213,-2.76473 0,-2.33465 -0.3657,-2.76472 -2.3511,-2.76472 -1.8809,0 -2.3511,-0.46079 -2.3511,-2.30394 0,-1.84315 -0.4702,-2.30393 -2.35107,-2.30393 -1.98536,0 -2.35109,-0.43007 -2.35109,-2.76473 v -2.76472 h -7.99371 -7.9937 v 47.92188 47.92188 h -2.3511 -2.35109 v 50.6866 50.6866 h -2.82131 -2.8213 v 55.29447 55.29448 h -2.3511 -2.35109 v 50.22581 50.22582 h -2.82131 -2.8213 v 17.9707 17.97071 h 2.8213 c 2.38244,0 2.82131,0.35839 2.82131,2.30393 0,1.94555 -0.43887,2.30394 -2.82131,2.30394 -2.50783,0 -2.8213,0.30719 -2.8213,2.76472 0,2.33466 -0.36573,2.76473 -2.35109,2.76473 -1.98537,0 -2.3511,-0.43007 -2.3511,-2.76473 0,-2.45753 -0.31347,-2.76472 -2.8213,-2.76472 -2.38244,0 -2.82131,-0.35839 -2.82131,-2.30394 0,-1.94554 0.43887,-2.30393 2.82131,-2.30393 h 2.8213 V 592.9935 572.71886 h 2.3511 2.35109 v -52.99054 -52.99054 h 2.8213 2.82131 V 413.74724 360.7567 h 2.35109 2.3511 v -52.99054 -52.99053 h 2.8213 2.82131 v -45.15716 -45.15715 h -2.82131 c -2.50783,0 -2.8213,-0.30719 -2.8213,-2.76473 0,-2.33465 -0.36573,-2.76472 -2.3511,-2.76472 -2.22285,0 -2.35109,-0.27647 -2.35109,-5.06866 0,-5.01746 -0.0285,-5.06866 -2.82131,-5.06866 h -2.8213 v -7.3726 -7.37259 h 2.8213 2.82131 v -10.13733 -10.13732 h 2.35109 c 1.88088,0 2.3511,-0.46078 2.3511,-2.30393 0,-2.17827 0.28213,-2.30394 5.1724,-2.30394 5.12014,0 5.1724,-0.0279 5.1724,-2.76472 0,-2.33465 -0.36573,-2.76473 -2.3511,-2.76473 -2.22285,0 -2.35109,-0.27647 -2.35109,-5.06866 v -5.06866 h 7.52349 7.5235 v 5.06866 c 0,5.01746 0.0285,5.06866 2.8213,5.06866 2.79282,0 2.82131,0.0512 2.82131,5.06866 0,4.79219 0.12824,5.06866 2.35109,5.06866 1.98537,0 2.35107,0.43008 2.35107,2.76473 0,2.7368 0.052,2.76472 5.1724,2.76472 h 5.1724 v 5.06866 c 0,4.79219 0.1283,5.06866 2.3511,5.06866 2.2229,0 2.3511,0.27647 2.3511,5.06866 0,5.01746 0.029,5.06866 2.8213,5.06866 2.3825,0 2.8213,0.35839 2.8213,2.30394 0,1.84315 0.4702,2.30394 2.3511,2.30394 1.8809,0 2.3511,0.46078 2.3511,2.30393 0,1.94555 0.4389,2.30394 2.8213,2.30394 2.7928,0 2.8213,0.0512 2.8213,5.06866 0,4.79219 0.1283,5.06866 2.3511,5.06866 1.9854,0 2.3511,0.43007 2.3511,2.76472 0,2.45754 0.3135,2.76473 2.8213,2.76473 2.3825,0 2.8213,0.35839 2.8213,2.30393 0,1.84315 0.4702,2.30394 2.3511,2.30394 1.9854,0 2.3511,0.43007 2.3511,2.76472 0,2.45754 0.3135,2.76473 2.8213,2.76473 2.3825,0 2.8213,0.35839 2.8213,2.30393 0,1.84315 0.4702,2.30394 2.3511,2.30394 2.2229,0 2.3511,0.27647 2.3511,5.06866 0,5.01746 0.029,5.06866 2.8213,5.06866 2.5079,0 2.8213,0.30719 2.8213,2.76472 0,2.33466 0.3658,2.76473 2.3511,2.76473 1.8809,0 2.3511,0.46079 2.3511,2.30393 0,1.94555 0.4389,2.30394 2.8213,2.30394 2.7928,0 2.8213,0.0512 2.8213,5.06866 0,4.79219 0.1283,5.06866 2.3511,5.06866 1.8809,0 2.3511,-0.46079 2.3511,-2.30394 0,-1.94554 0.4389,-2.30393 2.8213,-2.30393 2.5079,0 2.8213,-0.30719 2.8213,-2.76473 0,-2.33465 0.3658,-2.76472 2.3511,-2.76472 1.8809,0 2.3511,-0.46079 2.3511,-2.30394 0,-1.84314 0.4702,-2.30393 2.3511,-2.30393 1.9854,0 2.3511,-0.43007 2.3511,-2.76473 0,-2.45753 0.3135,-2.76472 2.8213,-2.76472 2.3824,0 2.8213,-0.35839 2.8213,-2.30394 0,-1.84315 0.4702,-2.30393 2.3511,-2.30393 1.9854,0 2.3511,-0.43007 2.3511,-2.76473 0,-2.45753 0.3135,-2.76472 2.8213,-2.76472 2.7928,0 2.8213,-0.0512 2.8213,-5.06866 0,-4.79219 0.1282,-5.06866 2.3511,-5.06866 1.8809,0 2.3511,-0.46079 2.3511,-2.30394 0,-1.94554 0.4389,-2.30393 2.8213,-2.30393 h 2.8213 V 152.02006 139.5788 h 2.3511 2.3511 v -10.13732 -10.13732 h -2.3511 -2.3511 V 106.40212 93.50007 h -5.1724 c -4.8903,0 -5.1724,-0.12566 -5.1724,-2.30393 0,-1.94555 -0.4389,-2.30394 -2.8213,-2.30394 h -2.8213 v -7.83338 c 0,-7.74123 -0.028,-7.83339 -2.3511,-7.83339 -2.3119,0 -2.3511,-0.12287 -2.3511,-7.372594 V 58.48024 h -5.1724 c -4.8903,0 -5.1724,-0.12567 -5.1724,-2.303937 0,-1.843149 0.4702,-2.303936 2.3511,-2.303936 1.9854,0 2.3511,-0.430069 2.3511,-2.764724 0,-2.457533 0.3135,-2.764724 2.8213,-2.764724 2.3824,0 2.8213,-0.35839 2.8213,-2.303936 0,-2.178267 0.2821,-2.303937 5.1724,-2.303937 4.8903,0 5.1724,0.12567 5.1724,2.303937 0,2.178267 0.2821,2.303936 5.1724,2.303936 4.8903,0 5.1724,-0.125669 5.1724,-2.303936 0,-2.265537 0.1254,-2.303937 7.5235,-2.303937 h 7.5235 v -7.833384 -7.833384 h -7.5235 c -7.3981,0 -7.5235,-0.0384 -7.5235,-2.303936 v -2.303936 h -10.3448 -10.3448 v -7.833384 c 0,-7.7412272 0.028,-7.8333842 2.3511,-7.8333842 2.2229,0 2.3511,-0.276473 2.3511,-5.068661 0,-5.017461 0.028,-5.06866 2.8213,-5.06866 2.3824,0 2.8213,-0.35839 2.8213,-2.303936 0,-1.843149 0.4702,-2.303937 2.3511,-2.303937 1.9854,0 2.3511,-0.430068 2.3511,-2.764723 0,-2.4575328 0.3135,-2.7647238 2.8213,-2.7647238 2.3824,0 2.8213,-0.35839 2.8213,-2.303937 0,-2.178267 0.2821,-2.303936 5.1724,-2.303936 5.1202,0 5.1724,-0.02792 5.1724,-2.764724 v -2.764724 h 23.0407 23.0407 v 2.764724 c 0,2.736797 0.052,2.764724 5.1724,2.764724 4.8903,0 5.1724,0.125669 5.1724,2.303936 0,1.84315 0.4702,2.303937 2.3511,2.303937 1.9853,0 2.3511,0.430068 2.3511,2.7647238 0,2.457532 0.3134,2.764723 2.8213,2.764723 2.3824,0 2.8213,0.358391 2.8213,2.303937 0,1.843149 0.4702,2.303936 2.3511,2.303936 2.3234,0 2.3511,0.09216 2.3511,7.833384 v 7.8333842 h 2.8213 2.8213 v 7.372597 7.372596 h -2.8213 -2.8213 v 12.902045 12.902044 h -2.3511 c -1.8809,0 -2.3511,0.460787 -2.3511,2.303936 0,1.945546 -0.4389,2.303937 -2.8213,2.303937 h -2.8213 v 7.372596 7.372594 h 2.8213 2.8213 v 7.83339 c 0,7.74122 0.028,7.83338 2.3511,7.83338 1.8809,0 2.3511,0.46079 2.3511,2.30394 v 2.30393 h 10.3448 10.3448 v 2.76473 2.76472 h 10.3448 10.3448 v 2.30394 c 0,2.17827 0.2821,2.30393 5.1724,2.30393 5.1201,0 5.1724,0.0279 5.1724,2.76473 0,2.33465 0.3657,2.76472 2.3511,2.76472 1.8808,0 2.3511,0.46079 2.3511,2.30394 0,1.94554 0.4388,2.30393 2.8213,2.30393 2.7928,0 2.8213,0.0512 2.8213,5.06866 0,4.79219 0.1282,5.06866 2.3511,5.06866 1.9853,0 2.3511,0.43008 2.3511,2.76473 0,2.45753 0.3134,2.76472 2.8213,2.76472 2.3824,0 2.8213,0.35839 2.8213,2.30394 0,1.84315 0.4702,2.30394 2.3511,2.30394 1.9853,0 2.3511,0.43007 2.3511,2.76472 0,2.7368 0.052,2.76472 5.1724,2.76472 4.8902,0 5.1724,0.12567 5.1724,2.30394 0,1.94554 0.4388,2.30394 2.8213,2.30394 2.3824,0 2.8213,0.35839 2.8213,2.30393 0,1.84315 0.4702,2.30394 2.3511,2.30394 1.9853,0 2.3511,0.43007 2.3511,2.76472 0,2.45754 0.3134,2.76473 2.8213,2.76473 2.3824,0 2.8213,0.35839 2.8213,2.30393 0,2.17827 0.2821,2.30394 5.1724,2.30394 5.1201,0 5.1724,0.0279 5.1724,2.76472 0,2.33466 0.3657,2.76473 2.3511,2.76473 1.8808,0 2.3511,0.46078 2.3511,2.30393 0,2.17827 0.2821,2.30394 5.1724,2.30394 5.1201,0 5.1724,0.0279 5.1724,2.76472 0,2.33466 0.3657,2.76473 2.351,2.76473 2.2229,0 2.3511,0.27647 2.3511,5.06866 v 5.06866 h 5.1724 c 4.8903,0 5.1724,0.12566 5.1724,2.30393 0,1.94555 0.4389,2.30394 2.8213,2.30394 2.5079,0 2.8213,0.30719 2.8213,2.76472 0,2.7368 0.052,2.76473 5.1724,2.76473 4.8903,0 5.1724,0.12566 5.1724,2.30393 0,1.84315 0.4703,2.30394 2.3511,2.30394 1.9854,0 2.3511,0.43007 2.3511,2.76472 0,2.45754 0.3135,2.76473 2.8213,2.76473 2.3825,0 2.8213,0.35839 2.8213,2.30393 0,1.84315 0.4703,2.30394 2.3511,2.30394 1.9854,0 2.3511,0.43007 2.3511,2.76472 v 2.76473 h 7.9937 c 7.8997,0 7.9937,0.0271 7.9937,2.30394 v 2.30393 h 23.0407 23.0407 v 2.30394 c 0,2.17827 0.2822,2.30393 5.1724,2.30393 5.1202,0 5.1724,0.0279 5.1724,2.76473 0,2.45753 -0.3134,2.76472 -2.8213,2.76472 -2.3824,0 -2.8213,0.35839 -2.8213,2.30394 0,1.94554 0.4389,2.30393 2.8213,2.30393 2.5079,0 2.8213,0.30719 2.8213,2.76473 0,2.33465 0.3658,2.76472 2.3511,2.76472 2.2229,0 2.3511,0.27647 2.3511,5.06866 0,4.79219 -0.1282,5.06866 -2.3511,5.06866 -1.8809,0 -2.3511,0.46079 -2.3511,2.30394 0,1.94554 -0.4388,2.30394 -2.8213,2.30394 -2.5078,0 -2.8213,0.30718 -2.8213,2.76472 0,2.33465 -0.3657,2.76472 -2.3511,2.76472 -1.8809,0 -2.3511,0.46079 -2.3511,2.30394 0,1.94554 -0.4388,2.30394 -2.8213,2.30394 h -2.8213 v 7.83338 7.83338 h 2.8213 c 2.3825,0 2.8213,0.3584 2.8213,2.30394 0,1.84315 0.4702,2.30394 2.3511,2.30394 2.2229,0 2.3511,0.27647 2.3511,5.06866 0,5.01745 0.029,5.06866 2.8213,5.06866 2.5079,0 2.8213,0.30719 2.8213,2.76472 0,2.33465 0.3658,2.76472 2.3511,2.76472 1.8809,0 2.3511,0.46079 2.3511,2.30394 0,1.94555 0.4389,2.30394 2.8213,2.30394 2.3825,0 2.8213,0.35839 2.8213,2.30393 0,1.84315 0.4702,2.30394 2.3511,2.30394 2.2229,0 2.3511,0.27647 2.3511,5.06866 0,5.01746 0.028,5.06866 2.8213,5.06866 2.5079,0 2.8213,0.30719 2.8213,2.76472 0,2.33466 0.3658,2.76473 2.3511,2.76473 1.8809,0 2.3511,0.46079 2.3511,2.30393 0,1.94555 0.4389,2.30394 2.8213,2.30394 2.5079,0 2.8213,0.30719 2.8213,2.76473 0,2.33465 0.3658,2.76472 2.3511,2.76472 2.2229,0 2.3511,0.27647 2.3511,5.06866 0,5.01746 0.028,5.06866 2.8213,5.06866 2.3825,0 2.8213,0.35839 2.8213,2.30394 0,1.84314 0.4702,2.30393 2.3511,2.30393 1.9854,0 2.3511,0.43007 2.3511,2.76473 0,2.33465 0.3657,2.76472 2.3511,2.76472 2.2229,0 2.3511,0.27647 2.3511,5.06866 0,5.01746 0.028,5.06866 2.8213,5.06866 2.3824,0 2.8213,0.35839 2.8213,2.30394 0,1.84315 0.4702,2.30393 2.3511,2.30393 1.9854,0 2.3511,0.43007 2.3511,2.76473 0,2.45753 0.3135,2.76472 2.8213,2.76472 2.3824,0 2.8213,0.35839 2.8213,2.30394 0,1.84315 0.4702,2.30393 2.3511,2.30393 2.2229,0 2.3511,0.27648 2.3511,5.06866 0,5.01746 0.029,5.06866 2.8213,5.06866 2.3824,0 2.8213,0.35839 2.8213,2.30394 0,1.84315 0.4702,2.30394 2.3511,2.30394 1.9854,0 2.3511,0.43007 2.3511,2.76472 0,2.45754 0.3135,2.76472 2.8213,2.76472 2.3824,0 2.8213,0.3584 2.8213,2.30394 0,1.84315 0.4702,2.30394 2.3511,2.30394 2.2229,0 2.3511,0.27647 2.3511,5.06866 0,5.01745 0.029,5.06866 2.8213,5.06866 2.5078,0 2.8213,0.30719 2.8213,2.76472 0,2.33465 0.3657,2.76472 2.3511,2.76472 1.8809,0 2.3511,0.46079 2.3511,2.30394 0,1.94555 0.4389,2.30394 2.8213,2.30394 2.5078,0 2.8213,0.30719 2.8213,2.76472 0,2.33465 0.3657,2.76473 2.3511,2.76473 2.2229,0 2.3511,0.27647 2.3511,5.06866 0,5.01745 0.028,5.06866 2.8213,5.06866 2.3824,0 2.8213,0.35839 2.8213,2.30393 0,1.84315 0.4702,2.30394 2.3511,2.30394 1.9854,0 2.3511,0.43007 2.3511,2.76472 0,2.45754 0.3135,2.76473 2.8213,2.76473 2.7928,0 2.8213,0.0512 2.8213,5.06866 0,4.79218 0.1282,5.06866 2.3511,5.06866 1.8809,0 2.3511,0.46078 2.3511,2.30393 0,1.84315 0.4702,2.30394 2.3511,2.30394 1.8809,0 2.3511,0.46079 2.3511,2.30394 0,1.94554 0.4388,2.30393 2.8213,2.30393 2.5078,0 2.8213,0.30719 2.8213,2.76473 0,2.33465 0.3657,2.76472 2.3511,2.76472 1.8809,0 2.3511,0.46079 2.3511,2.30394 0,1.94554 0.4388,2.30393 2.8213,2.30393 2.7928,0 2.8213,0.0512 2.8213,5.06866 0,4.79219 0.1282,5.06866 2.3511,5.06866 1.9853,0 2.3511,0.43007 2.3511,2.76473 0,2.45753 0.3134,2.76472 2.8213,2.76472 2.3824,0 2.8213,0.35839 2.8213,2.30394 0,1.84315 0.4702,2.30393 2.3511,2.30393 2.2228,0 2.3511,0.27648 2.3511,5.06866 0,5.01746 0.028,5.06866 2.8213,5.06866 2.5078,0 2.8213,0.30719 2.8213,2.76473 0,2.33465 0.3657,2.76472 2.3511,2.76472 1.8809,0 2.3511,0.46079 2.3511,2.30394 0,1.94554 0.4389,2.30393 2.8213,2.30393 2.5078,0 2.8213,0.30719 2.8213,2.76473 0,2.33465 0.3657,2.76472 2.3511,2.76472 2.2228,0 2.3511,0.27647 2.3511,5.06866 0,5.01746 0.028,5.06866 2.8213,5.06866 2.3824,0 2.8213,0.35839 2.8213,2.30394 0,1.84315 0.4702,2.30394 2.3511,2.30394 1.9853,0 2.3511,0.43007 2.3511,2.76472 0,2.45753 0.3134,2.76472 2.8213,2.76472 2.3824,0 2.8213,0.35839 2.8213,2.30394 0,1.84315 0.4702,2.30394 2.3511,2.30394 2.2228,0 2.3511,0.27647 2.3511,5.06866 0,4.79218 0.1282,5.06866 2.3511,5.06866 1.8808,0 2.351,0.46078 2.351,2.30393 0,1.94555 0.4389,2.30394 2.8214,2.30394 2.5078,0 2.8213,0.30719 2.8213,2.76472 0,2.33466 0.3657,2.76473 2.3511,2.76473 2.2228,0 2.351,0.27647 2.351,5.06866 0,5.01745 0.028,5.06866 2.8214,5.06866 2.3824,0 2.8213,0.35839 2.8213,2.30393 0,1.84315 0.4702,2.30394 2.3511,2.30394 1.9853,0 2.351,0.43007 2.351,2.76472 0,2.45754 0.3135,2.76473 2.8214,2.76473 2.3824,0 2.8213,0.35839 2.8213,2.30393 0,1.84315 0.4702,2.30394 2.3511,2.30394 1.9853,0 2.351,0.43007 2.351,2.76472 0,2.45754 0.3135,2.76473 2.8214,2.76473 2.7928,0 2.8213,0.0512 2.8213,5.06866 v 5.06866 h 10.3448 10.3448 v -2.76473 -2.76472 h 12.6959 12.6958 v -2.30394 -2.30393 h 12.6959 12.6959 v -2.76473 -2.76472 h 13.1661 13.1661 v -2.30394 -2.30393 h 12.6959 12.6959 v -2.76473 -2.76472 h 12.6959 12.6959 v -2.30394 -2.30393 h 13.1661 13.1661 v -2.76473 -2.76472 h 10.3448 10.3448 v -2.30394 c 0,-2.17827 0.2822,-2.30393 5.1724,-2.30393 h 5.1724 v 5.06866 5.06866 h -5.1724 c -4.8902,0 -5.1724,0.12566 -5.1724,2.30393 v 2.30394 h -13.1661 -13.1661 v 2.76472 2.76473 h -10.3448 -10.3448 v 2.30393 2.30394 h -12.6959 -12.6959 v 2.76472 2.76473 h -10.3448 -10.3448 v 2.30393 2.30394 h -10.3448 -10.3448 v 2.76472 2.76473 h -12.6959 -12.6959 v 2.30393 2.30394 h -10.3448 -10.3448 v 2.76472 2.76473 h -10.3448 -10.3448 v 4.60787 c 0,4.50548 0.063,4.60787 2.8214,4.60787 2.5078,0 2.8213,0.30719 2.8213,2.76473 0,2.33465 0.3657,2.76472 2.3511,2.76472 1.8808,0 2.351,0.46079 2.351,2.30394 0,1.94554 0.4389,2.30393 2.8214,2.30393 2.5078,0 2.8213,0.30719 2.8213,2.76473 0,2.33465 0.3657,2.76472 2.3511,2.76472 2.2228,0 2.351,0.27647 2.351,5.06866 0,5.01746 0.028,5.06866 2.8214,5.06866 2.3824,0 2.8213,0.35839 2.8213,2.30394 0,1.84315 0.4702,2.30394 2.3511,2.30394 1.9853,0 2.351,0.43007 2.351,2.76472 0,2.33465 0.3658,2.76472 2.3511,2.76472 1.8809,0 2.3511,0.46079 2.3511,2.30394 0,2.17827 0.2822,2.30394 5.1724,2.30394 4.8903,0 5.1724,-0.12567 5.1724,-2.30394 0,-1.94555 0.4389,-2.30394 2.8213,-2.30394 2.3824,0 2.8213,0.35839 2.8213,2.30394 0,1.94554 -0.4389,2.30394 -2.8213,2.30394 -2.5078,0 -2.8213,0.30718 -2.8213,2.76472 0,2.33465 -0.3657,2.76472 -2.3511,2.76472 -1.8808,0 -2.3511,0.46079 -2.3511,2.30394 0,2.17827 -0.2821,2.30394 -5.1724,2.30394 -5.1201,0 -5.1724,0.0279 -5.1724,2.76472 0,2.33465 -0.3657,2.76472 -2.351,2.76472 -1.9854,0 -2.3511,-0.43007 -2.3511,-2.76472 0,-2.33465 0.3657,-2.76472 2.3511,-2.76472 2.2228,0 2.351,-0.27648 2.351,-5.06866 0,-4.79219 -0.1282,-5.06866 -2.351,-5.06866 -1.8809,0 -2.3511,-0.46079 -2.3511,-2.30394 0,-1.94555 -0.4389,-2.30394 -2.8213,-2.30394 -2.7929,0 -2.8214,-0.0512 -2.8214,-5.06866 0,-4.79219 -0.1282,-5.06866 -2.351,-5.06866 -1.9854,0 -2.3511,-0.43007 -2.3511,-2.76472 0,-2.45754 -0.3135,-2.76473 -2.8213,-2.76473 -2.3825,0 -2.8214,-0.35839 -2.8214,-2.30393 0,-1.84315 -0.4702,-2.30394 -2.351,-2.30394 -1.9854,0 -2.3511,-0.43007 -2.3511,-2.76472 0,-2.45754 -0.3135,-2.76473 -2.8213,-2.76473 -2.7929,0 -2.8214,-0.0512 -2.8214,-5.06866 0,-4.79218 -0.1282,-5.06866 -2.351,-5.06866 -1.8809,0 -2.3511,-0.46078 -2.3511,-2.30393 0,-2.27684 -0.094,-2.30394 -7.9937,-2.30394 -7.8997,0 -7.9938,0.0271 -7.9938,2.30394 v 2.30393 h -10.3448 -10.3448 v 2.76473 2.76472 h -9.8745 -9.8746 v 2.30394 2.30393 h -13.1661 -13.1661 v 2.76473 2.76472 h -10.3448 -10.3448 v 2.30394 2.30393 h -12.6959 -12.6959 v 2.76473 2.76472 h -7.5235 c -7.3981,0 -7.5235,0.0384 -7.5235,2.30394 v 2.30394 h -13.1661 -13.1661 v 2.76472 2.76472 h -10.3448 -10.3448 v 2.30394 2.30394 h -12.6959 -12.6959 v 2.76472 2.76472 h -10.3448 -10.3448 v 2.30394 2.30394 h -10.3448 -10.3448 v 2.76472 2.76472 h -10.3448 -10.3448 v 2.30394 2.30394 h -9.8746 -9.8746 v 2.76472 2.76472 h -13.1661 -13.1661 v 2.30394 2.30394 h -10.3448 -10.3448 v 2.76472 2.76472 h -12.6959 -12.6959 v 2.30394 2.30394 h -15.5171 -15.5172 v 2.30393 c 0,2.26554 -0.1254,2.30394 -7.5235,2.30394 h -7.5235 v 2.76472 2.76473 h -10.3448 -10.3448 v 2.30393 c 0,2.27684 -0.094,2.30394 -7.9937,2.30394 h -7.9937 v 2.76472 2.76473 h -15.047 -15.047 v 5.06866 c 0,4.79219 0.1282,5.06866 2.3511,5.06866 1.8809,0 2.3511,0.46079 2.3511,2.30394 0,1.94554 0.4388,2.30393 2.8213,2.30393 h 2.8213 v 10.13732 10.13732 h 107.6799 107.68 v 2.76473 2.76472 h 43.7303 43.7303 v 2.30394 c 0,1.84315 -0.4702,2.30393 -2.3511,2.30393 -1.9854,0 -2.3511,0.43007 -2.3511,2.76473 v 2.76472 h -131.1909 -131.1908 v 2.30394 2.30393 H 1007.4275 739.87339 Z m 493.72911,-65.89259 v -2.76472 h 10.3448 10.3448 v -2.30394 -2.30393 h 12.6959 12.6959 v -2.30394 c 0,-2.27683 0.094,-2.30394 7.9937,-2.30394 h 7.9937 v -2.76472 -2.76472 h 10.3448 10.3448 v -2.30394 c 0,-2.26553 0.1254,-2.30394 7.5235,-2.30394 h 7.5235 v -2.76472 -2.76472 h 7.5234 c 7.3981,0 7.5235,-0.0384 7.5235,-2.30394 v -2.30394 h 10.3448 10.3448 v -2.76472 -2.76472 h 10.3448 10.3448 v -2.30394 c 0,-2.27683 0.094,-2.30394 7.9937,-2.30394 h 7.9937 v -2.76472 -2.76472 h 9.8746 9.8746 v -2.30394 c 0,-1.94555 0.4389,-2.30394 2.8213,-2.30394 2.7928,0 2.8213,-0.0512 2.8213,-5.06866 0,-4.79219 0.1283,-5.06866 2.3511,-5.06866 1.9854,0 2.3511,-0.43007 2.3511,-2.76472 0,-2.45754 0.3135,-2.76473 2.8213,-2.76473 2.3825,0 2.8213,-0.35839 2.8213,-2.30393 0,-2.17827 0.2822,-2.30394 5.1724,-2.30394 5.1202,0 5.1724,-0.0279 5.1724,-2.76472 v -2.76473 h 15.5172 15.5172 v -5.06866 c 0,-4.79218 0.1283,-5.06866 2.3511,-5.06866 2.3119,0 2.3511,-0.12287 2.3511,-7.37259 v -7.3726 h 2.8213 2.8213 v -7.3726 c 0,-7.24972 0.039,-7.37259 2.3511,-7.37259 2.3235,0 2.3511,-0.0922 2.3511,-7.83339 0,-7.74122 -0.028,-7.83338 -2.3511,-7.83338 -1.8809,0 -2.3511,-0.46079 -2.3511,-2.30394 0,-1.94554 -0.4388,-2.30393 -2.8213,-2.30393 -2.7928,0 -2.8213,-0.0512 -2.8213,-5.06866 v -5.06866 h -5.1724 c -5.1201,0 -5.1724,-0.0279 -5.1724,-2.76473 v -2.76472 h -7.5235 c -7.3981,0 -7.5235,-0.0384 -7.5235,-2.30394 0,-2.17827 -0.2821,-2.30393 -5.1724,-2.30393 -5.1201,0 -5.1724,-0.0279 -5.1724,-2.76473 v -2.76472 h -7.9937 c -7.8996,0 -7.9937,-0.0271 -7.9937,-2.30394 0,-2.26553 -0.1254,-2.30393 -7.5235,-2.30393 -7.3981,0 -7.5235,-0.0384 -7.5235,-2.30394 0,-2.17827 -0.2821,-2.30394 -5.1724,-2.30394 -5.1201,0 -5.1724,-0.0279 -5.1724,-2.76472 v -2.76472 h -7.5235 c -7.3981,0 -7.5235,-0.0384 -7.5235,-2.30394 v -2.30394 h -10.3448 -10.3448 v -2.76472 -2.76473 h -13.1661 -13.1661 v -2.30393 c 0,-2.26554 -0.1254,-2.30394 -7.5235,-2.30394 h -7.5234 v -2.76472 c 0,-2.33465 -0.3658,-2.76473 -2.3511,-2.76473 -1.8809,0 -2.3511,-0.46078 -2.3511,-2.30393 0,-2.17827 -0.2822,-2.30394 -5.1724,-2.30394 -5.1202,0 -5.1724,-0.0279 -5.1724,-2.76472 0,-2.45754 -0.3135,-2.76473 -2.8213,-2.76473 -2.3825,0 -2.8213,-0.35839 -2.8213,-2.30393 0,-2.17827 -0.2822,-2.30394 -5.1724,-2.30394 -5.1202,0 -5.1724,-0.0279 -5.1724,-2.76472 0,-2.33466 -0.3658,-2.76473 -2.3511,-2.76473 -1.8809,0 -2.3511,-0.46078 -2.3511,-2.30393 0,-2.17827 -0.2822,-2.30394 -5.1724,-2.30394 -5.1202,0 -5.1724,-0.0279 -5.1724,-2.76472 0,-2.7368 -0.052,-2.76473 -5.1724,-2.76473 -4.8903,0 -5.1724,-0.12566 -5.1724,-2.30393 0,-1.94555 -0.4389,-2.30394 -2.8213,-2.30394 -2.5079,0 -2.8213,-0.30719 -2.8213,-2.76472 0,-2.33466 -0.3658,-2.76473 -2.3511,-2.76473 -1.8809,0 -2.3511,-0.46078 -2.3511,-2.30393 0,-1.94555 -0.4389,-2.30394 -2.8213,-2.30394 -2.5079,0 -2.8213,-0.30719 -2.8213,-2.76472 0,-2.33466 -0.3658,-2.76473 -2.3511,-2.76473 -1.8809,0 -2.3511,-0.46078 -2.3511,-2.30393 0,-1.84315 -0.4702,-2.30394 -2.3511,-2.30394 -1.8809,0 -2.3511,0.46079 -2.3511,2.30394 0,1.94554 -0.4389,2.30393 -2.8213,2.30393 -2.7928,0 -2.8213,0.0512 -2.8213,5.06866 0,4.79219 -0.1283,5.06866 -2.3511,5.06866 -2.2229,0 -2.3511,0.27648 -2.3511,5.06866 0,5.01746 -0.029,5.06866 -2.8213,5.06866 -2.5079,0 -2.8213,0.30719 -2.8213,2.76473 0,2.33465 -0.3658,2.76472 -2.3511,2.76472 -2.2229,0 -2.3511,0.27647 -2.3511,5.06866 0,5.01746 -0.029,5.06866 -2.8213,5.06866 -2.3825,0 -2.8213,0.35839 -2.8213,2.30394 0,1.84315 -0.4702,2.30393 -2.3511,2.30393 -1.9854,0 -2.3511,0.43008 -2.3511,2.76473 0,2.45753 -0.3135,2.76472 -2.8213,2.76472 -2.7928,0 -2.8213,0.0512 -2.8213,5.06866 0,4.79219 -0.1283,5.06866 -2.3511,5.06866 -2.2229,0 -2.3511,0.27647 -2.3511,5.06866 0,5.01746 -0.029,5.06866 -2.8213,5.06866 -2.7928,0 -2.8213,0.0512 -2.8213,5.06866 0,5.01746 0.029,5.06866 2.8213,5.06866 2.7586,0 2.8213,0.1024 2.8213,4.60788 0,4.30068 0.1567,4.60787 2.3511,4.60787 2.3234,0 2.3511,0.0922 2.3511,7.83338 v 7.83339 h 2.8213 2.8213 v 7.37259 c 0,7.24973 0.039,7.3726 2.3511,7.3726 2.2228,0 2.3511,0.27647 2.3511,5.06866 0,5.01746 0.028,5.06866 2.8213,5.06866 h 2.8213 v 15.20598 15.20598 h -2.8213 -2.8213 v 10.13732 10.13732 h -2.3511 -2.3511 v 20.27464 20.27464 h -2.8213 -2.8213 v 10.13732 10.13732 h 2.8213 c 2.3824,0 2.8213,0.3584 2.8213,2.30394 0,1.84315 0.4702,2.30394 2.3511,2.30394 2.2228,0 2.3511,0.27647 2.3511,5.06866 v 5.06866 h 5.1724 c 5.1201,0 5.1724,-0.0279 5.1724,-2.76473 z m 329.1527,-80.63777 v -2.30394 h 12.6959 12.6959 v -2.76472 -2.76473 h 10.3448 10.3448 v -2.30393 -2.30394 h 15.5172 15.5172 v -2.30394 -2.30393 h 15.5172 15.5172 v -2.76473 -2.76472 h 10.3448 10.3448 v -2.30394 c 0,-1.84314 0.4702,-2.30393 2.3511,-2.30393 1.9853,0 2.351,-0.43007 2.351,-2.76473 0,-2.33465 -0.3657,-2.76472 -2.351,-2.76472 -1.8809,0 -2.3511,-0.46079 -2.3511,-2.30394 0,-1.94554 -0.4389,-2.30393 -2.8213,-2.30393 -2.5079,0 -2.8214,-0.30719 -2.8214,-2.76473 0,-2.33465 -0.3657,-2.76472 -2.351,-2.76472 -2.2229,0 -2.3511,-0.27647 -2.3511,-5.06866 0,-5.01746 -0.028,-5.06866 -2.8213,-5.06866 -2.3825,0 -2.8214,-0.35839 -2.8214,-2.30394 0,-1.84315 -0.4702,-2.30393 -2.351,-2.30393 -1.9854,0 -2.3511,-0.43007 -2.3511,-2.76473 0,-2.45753 -0.3135,-2.76472 -2.8213,-2.76472 -2.7929,0 -2.8214,-0.0512 -2.8214,-5.06866 0,-4.79219 -0.1282,-5.06866 -2.351,-5.06866 -1.8809,0 -2.3511,-0.46079 -2.3511,-2.30394 0,-1.84315 -0.4703,-2.30393 -2.3511,-2.30393 -1.9854,0 -2.3511,-0.43008 -2.3511,-2.76473 0,-2.45753 -0.3135,-2.76472 -2.8213,-2.76472 -2.3824,0 -2.8213,-0.35839 -2.8213,-2.30394 0,-1.84315 -0.4702,-2.30393 -2.3511,-2.30393 -1.8809,0 -2.3511,-0.46079 -2.3511,-2.30394 0,-1.94555 -0.4389,-2.30394 -2.8213,-2.30394 -2.7928,0 -2.8213,-0.0512 -2.8213,-5.06866 0,-4.79219 -0.1283,-5.06866 -2.3511,-5.06866 -1.9854,0 -2.3511,-0.43007 -2.3511,-2.76472 0,-2.45754 -0.3135,-2.76473 -2.8213,-2.76473 -2.7928,0 -2.8213,-0.0512 -2.8213,-5.06866 0,-4.79218 -0.1283,-5.06866 -2.3511,-5.06866 -1.8809,0 -2.3511,-0.46078 -2.3511,-2.30393 0,-1.94555 -0.4389,-2.30394 -2.8213,-2.30394 -2.5079,0 -2.8213,-0.30719 -2.8213,-2.76472 0,-2.33465 -0.3658,-2.76473 -2.3511,-2.76473 -1.8809,0 -2.3511,-0.46078 -2.3511,-2.30393 0,-1.94555 -0.4389,-2.30394 -2.8213,-2.30394 -2.5079,0 -2.8213,-0.30719 -2.8213,-2.76472 0,-2.33466 -0.3658,-2.76473 -2.3511,-2.76473 -2.2229,0 -2.3511,-0.27647 -2.3511,-5.06866 0,-5.01745 -0.028,-5.06866 -2.8213,-5.06866 -2.3825,0 -2.8213,-0.35839 -2.8213,-2.30393 0,-1.84315 -0.4702,-2.30394 -2.3511,-2.30394 -1.9854,0 -2.3511,-0.43007 -2.3511,-2.76472 0,-2.45754 -0.3135,-2.76473 -2.8213,-2.76473 -2.3825,0 -2.8213,-0.35839 -2.8213,-2.30393 0,-1.84315 -0.4702,-2.30394 -2.3511,-2.30394 -2.2229,0 -2.3511,-0.27647 -2.3511,-5.06866 0,-4.79219 -0.1282,-5.06866 -2.3511,-5.06866 -1.8809,0 -2.3511,-0.46079 -2.3511,-2.30394 0,-1.94554 -0.4389,-2.30393 -2.8213,-2.30393 -2.5078,0 -2.8213,-0.30719 -2.8213,-2.76473 0,-2.33465 -0.3657,-2.76472 -2.3511,-2.76472 -1.8809,0 -2.3511,-0.46079 -2.3511,-2.30394 0,-1.94554 -0.4389,-2.30393 -2.8213,-2.30393 -2.7928,0 -2.8213,-0.0512 -2.8213,-5.06866 0,-4.79219 -0.1282,-5.06866 -2.3511,-5.06866 -1.9854,0 -2.3511,-0.43008 -2.3511,-2.76473 0,-2.45753 -0.3135,-2.76472 -2.8213,-2.76472 -2.3824,0 -2.8213,-0.35839 -2.8213,-2.30394 0,-1.84315 -0.4702,-2.30393 -2.3511,-2.30393 -1.9854,0 -2.3511,-0.43008 -2.3511,-2.76473 0,-2.45753 -0.3135,-2.76472 -2.8213,-2.76472 -2.7928,0 -2.8213,-0.0512 -2.8213,-5.06866 0,-4.79219 -0.1282,-5.06866 -2.3511,-5.06866 -1.8809,0 -2.3511,-0.46079 -2.3511,-2.30394 0,-1.94554 -0.4389,-2.30394 -2.8213,-2.30394 -2.5078,0 -2.8213,-0.30718 -2.8213,-2.76472 0,-2.33465 -0.3657,-2.76472 -2.3511,-2.76472 -1.8809,0 -2.3511,-0.46079 -2.3511,-2.30394 0,-1.94554 -0.4389,-2.30394 -2.8213,-2.30394 -2.7928,0 -2.8213,-0.0512 -2.8213,-5.06866 0,-4.79218 -0.1282,-5.06866 -2.3511,-5.06866 -1.8809,0 -2.3511,-0.46078 -2.3511,-2.30393 0,-1.94555 -0.4389,-2.30394 -2.8213,-2.30394 -2.5078,0 -2.8213,-0.30719 -2.8213,-2.76472 0,-2.33466 -0.3657,-2.76473 -2.3511,-2.76473 -2.2229,0 -2.3511,-0.27647 -2.3511,-5.06866 0,-5.01745 -0.028,-5.06866 -2.8213,-5.06866 -2.3824,0 -2.8213,-0.35839 -2.8213,-2.30393 0,-1.84315 -0.4702,-2.30394 -2.3511,-2.30394 -1.9854,0 -2.3511,-0.43007 -2.3511,-2.76472 0,-2.33466 -0.3657,-2.76473 -2.3511,-2.76473 -1.8809,0 -2.3511,-0.46078 -2.3511,-2.30393 0,-1.94555 -0.4388,-2.30394 -2.8213,-2.30394 -2.7928,0 -2.8213,-0.0512 -2.8213,-5.06866 0,-4.79219 -0.1282,-5.06866 -2.3511,-5.06866 -1.9853,0 -2.3511,-0.43007 -2.3511,-2.76472 0,-2.45754 -0.3134,-2.76473 -2.8213,-2.76473 -2.3824,0 -2.8213,-0.35839 -2.8213,-2.30393 0,-1.84315 -0.4702,-2.30394 -2.3511,-2.30394 -1.9853,0 -2.3511,-0.43007 -2.3511,-2.76472 0,-2.45754 -0.3134,-2.76473 -2.8213,-2.76473 -2.7928,0 -2.8213,-0.0512 -2.8213,-5.06866 0,-4.79219 -0.1282,-5.06866 -2.3511,-5.06866 -1.8809,0 -2.3511,-0.46079 -2.3511,-2.30394 0,-1.94554 -0.4388,-2.30393 -2.8213,-2.30393 -2.5078,0 -2.8213,-0.30719 -2.8213,-2.76473 0,-2.33465 -0.3657,-2.76472 -2.3511,-2.76472 -2.1943,0 -2.3511,-0.30719 -2.3511,-4.60787 0,-4.50548 -0.063,-4.60788 -2.8213,-4.60788 -2.5078,0 -2.8213,-0.30718 -2.8213,-2.76472 0,-2.33465 -0.3657,-2.76472 -2.3511,-2.76472 -1.8809,0 -2.3511,-0.46079 -2.3511,-2.30394 0,-1.94554 -0.4388,-2.30394 -2.8213,-2.30394 -2.5078,0 -2.8213,-0.30718 -2.8213,-2.76472 0,-2.33465 -0.3657,-2.76472 -2.3511,-2.76472 -1.8809,0 -2.3511,-0.46079 -2.3511,-2.30394 0,-2.17827 -0.2821,-2.30394 -5.1724,-2.30394 -5.1201,0 -5.1724,-0.0279 -5.1724,-2.76472 v -2.76472 h -7.5235 c -7.3981,0 -7.5235,-0.0384 -7.5235,-2.30394 0,-1.94555 -0.4388,-2.30394 -2.8213,-2.30394 -2.5078,0 -2.8213,-0.30718 -2.8213,-2.76472 0,-2.33465 -0.3657,-2.76472 -2.3511,-2.76472 -1.8808,0 -2.3511,-0.46079 -2.3511,-2.30394 0,-2.27683 -0.094,-2.30394 -7.9937,-2.30394 h -7.9937 v -2.76472 c 0,-2.7368 -0.052,-2.76472 -5.1724,-2.76472 -4.8902,0 -5.1724,-0.12567 -5.1724,-2.30394 0,-1.84315 -0.4702,-2.30394 -2.3511,-2.30394 -1.9853,0 -2.3511,-0.43007 -2.3511,-2.76472 v -2.76472 h -7.9937 c -7.8996,0 -7.9937,-0.0271 -7.9937,-2.30394 0,-2.26554 -0.1254,-2.30394 -7.5235,-2.30394 h -7.5234 v -2.76472 c 0,-2.33465 -0.3658,-2.76473 -2.3511,-2.76473 -1.8809,0 -2.3511,-0.46078 -2.3511,-2.30393 0,-2.17827 -0.2822,-2.30394 -5.1724,-2.30394 -5.1202,0 -5.1724,-0.0279 -5.1724,-2.76472 0,-2.7368 -0.052,-2.76473 -5.1724,-2.76473 -4.8903,0 -5.1724,-0.12566 -5.1724,-2.30393 0,-2.17827 -0.2822,-2.30394 -5.1724,-2.30394 -4.8903,0 -5.1724,-0.12566 -5.1724,-2.30393 0,-2.17828 -0.2822,-2.30394 -5.1724,-2.30394 -5.1202,0 -5.1724,-0.0279 -5.1724,-2.76473 0,-2.45753 -0.3135,-2.76472 -2.8213,-2.76472 h -2.8213 v 7.3726 7.37259 h 2.8213 2.8213 v 10.13732 10.13733 h 2.3511 c 2.2228,0 2.3511,0.27647 2.3511,5.06866 0,5.01745 0.028,5.06866 2.8213,5.06866 h 2.8213 v 10.13732 10.13732 h 2.3511 c 2.3234,0 2.3511,0.0922 2.3511,7.83338 v 7.83338 h 2.8213 2.8213 v 9.67654 9.67653 h 2.3511 c 2.3234,0 2.3511,0.0922 2.3511,7.83338 v 7.83339 h 2.8213 c 2.7928,0 2.8213,0.0512 2.8213,5.06866 0,5.01746 -0.028,5.06866 -2.8213,5.06866 h -2.8213 v 7.3726 c 0,7.24972 -0.039,7.37259 -2.3511,7.37259 -1.9854,0 -2.3511,0.43007 -2.3511,2.76473 0,2.45753 -0.3135,2.76472 -2.8213,2.76472 h -2.8213 v 12.44126 12.44125 h 2.8213 c 2.5078,0 2.8213,0.30719 2.8213,2.76473 0,2.33465 0.3657,2.76472 2.3511,2.76472 1.8808,0 2.3511,0.46079 2.3511,2.30394 0,1.94554 0.4388,2.30393 2.8213,2.30393 2.3824,0 2.8213,0.35839 2.8213,2.30394 0,1.84315 0.4702,2.30394 2.3511,2.30394 1.9853,0 2.3511,0.43007 2.3511,2.76472 0,2.7368 0.052,2.76472 5.1724,2.76472 4.8902,0 5.1724,0.12567 5.1724,2.30394 0,1.84315 0.4702,2.30394 2.351,2.30394 2.2229,0 2.3511,0.27647 2.3511,5.06866 0,5.01745 0.029,5.06866 2.8213,5.06866 2.7929,0 2.8213,0.0512 2.8213,5.06866 0,4.79219 0.1283,5.06866 2.3511,5.06866 1.9854,0 2.3511,0.43007 2.3511,2.76472 0,2.45754 0.3135,2.76473 2.8213,2.76473 2.7929,0 2.8213,0.0512 2.8213,5.06866 0,4.79218 0.1283,5.06866 2.3511,5.06866 2.2229,0 2.3511,0.27647 2.3511,5.06866 0,5.01745 0.028,5.06866 2.8213,5.06866 2.7929,0 2.8213,0.0512 2.8213,5.06866 0,4.79218 0.1283,5.06866 2.3511,5.06866 2.1944,0 2.3511,0.30718 2.3511,4.60787 0,4.50548 0.063,4.60787 2.8213,4.60787 2.5079,0 2.8213,0.30719 2.8213,2.76473 v 2.76472 h 15.5172 15.5172 v 2.30394 2.30393 h 15.047 15.047 v 2.76473 2.76472 h 7.9937 c 7.8997,0 7.9937,0.0271 7.9937,2.30394 0,1.84315 0.4702,2.30393 2.3511,2.30393 1.9854,0 2.3511,0.43007 2.3511,2.76473 0,2.45753 0.3135,2.76472 2.8213,2.76472 2.3825,0 2.8213,0.35839 2.8213,2.30394 0,1.84315 0.4702,2.30393 2.3511,2.30393 1.9854,0 2.3511,0.43007 2.3511,2.76473 0,2.45753 0.3135,2.76472 2.8213,2.76472 2.3825,0 2.8213,0.35839 2.8213,2.30394 0,2.17827 0.2822,2.30393 5.1724,2.30393 5.1202,0 5.1724,0.0279 5.1724,2.76473 0,2.33465 0.3658,2.76472 2.3511,2.76472 1.8809,0 2.3511,0.46079 2.3511,2.30394 0,2.17827 0.2821,2.30393 5.1724,2.30393 5.1202,0 5.1724,0.0279 5.1724,2.76473 0,2.33465 0.3657,2.76472 2.3511,2.76472 1.8809,0 2.3511,0.46079 2.3511,2.30394 0,2.17827 0.2821,2.30393 5.1724,2.30393 5.1201,0 5.1724,0.0279 5.1724,2.76473 0,2.45753 0.3135,2.76472 2.8213,2.76472 2.3824,0 2.8213,0.35839 2.8213,2.30394 0,2.17827 0.2821,2.30394 5.1724,2.30394 5.1202,0 5.1724,0.0279 5.1724,2.76472 0,2.33465 0.3657,2.76472 2.3511,2.76472 1.9854,0 2.3511,-0.43007 2.3511,-2.76472 0,-2.45754 0.3135,-2.76472 2.8213,-2.76472 2.5078,0 2.8213,0.30718 2.8213,2.76472 0,2.33465 0.3657,2.76472 2.3511,2.76472 1.8809,0 2.3511,0.46079 2.3511,2.30394 0,2.17827 0.2821,2.30394 5.1724,2.30394 4.8903,0 5.1724,0.12566 5.1724,2.30393 0,2.17827 0.2821,2.30394 5.1724,2.30394 5.1201,0 5.1724,0.0279 5.1724,2.76472 0,2.7368 0.052,2.76473 5.1724,2.76473 4.8903,0 5.1724,0.12566 5.1724,2.30393 0,1.94555 0.4389,2.30394 2.8213,2.30394 2.5078,0 2.8213,0.30719 2.8213,2.76472 0,2.33466 0.3657,2.76473 2.3511,2.76473 1.8809,0 2.3511,0.46078 2.3511,2.30393 0,1.84315 0.4702,2.30394 2.3511,2.30394 2.3234,0 2.3511,0.0922 2.3511,7.83338 0,7.74123 -0.028,7.83339 -2.3511,7.83339 -1.8809,0 -2.3511,0.46078 -2.3511,2.30393 0,1.84315 -0.4702,2.30394 -2.3511,2.30394 -1.9854,0 -2.3511,0.43007 -2.3511,2.76472 0,2.7368 -0.052,2.76473 -5.1724,2.76473 -4.8903,0 -5.1724,0.12566 -5.1724,2.30393 0,1.94555 -0.4389,2.30394 -2.8213,2.30394 -2.5078,0 -2.8213,0.30719 -2.8213,2.76472 0,2.33466 -0.3657,2.76473 -2.3511,2.76473 -1.8809,0 -2.3511,0.46079 -2.3511,2.30393 0,1.94555 -0.4389,2.30394 -2.8213,2.30394 -2.7928,0 -2.8213,0.0512 -2.8213,5.06866 0,4.79219 -0.1282,5.06866 -2.3511,5.06866 -1.8809,0 -2.3511,0.46079 -2.3511,2.30394 0,1.94554 -0.4389,2.30393 -2.8213,2.30393 -2.7928,0 -2.8213,0.0512 -2.8213,5.06866 v 5.06866 h 10.3448 10.3448 z M 991.91033,108.70605 c 0,-4.79218 -0.12824,-5.06866 -2.3511,-5.06866 -2.22285,0 -2.35109,0.27648 -2.35109,5.06866 0,4.79219 0.12824,5.06866 2.35109,5.06866 2.22286,0 2.3511,-0.27647 2.3511,-5.06866 z m 473.03947,158.97162 c 0,-2.7368 0.052,-2.76472 5.1724,-2.76472 4.8903,0 5.1724,-0.12567 5.1724,-2.30394 0,-1.94555 0.4389,-2.30394 2.8213,-2.30394 2.5079,0 2.8213,-0.30719 2.8213,-2.76472 0,-2.45754 -0.3134,-2.76472 -2.8213,-2.76472 h -2.8213 v -7.3726 c 0,-7.24972 -0.039,-7.3726 -2.3511,-7.3726 -1.9853,0 -2.3511,-0.43007 -2.3511,-2.76472 0,-2.33465 0.3658,-2.76473 2.3511,-2.76473 1.9854,0 2.3511,0.43008 2.3511,2.76473 0,2.45753 0.3135,2.76472 2.8213,2.76472 2.7928,0 2.8213,0.0512 2.8213,5.06866 0,4.79219 0.1283,5.06866 2.3511,5.06866 2.2229,0 2.3511,0.27648 2.3511,5.06866 0,4.79219 -0.1282,5.06866 -2.3511,5.06866 -2.2228,0 -2.3511,0.27648 -2.3511,5.06866 v 5.06866 h -7.9937 -7.9937 z m -10.3448,-35.48062 c 0,-2.17827 0.2821,-2.30394 5.1724,-2.30394 4.8903,0 5.1724,0.12567 5.1724,2.30394 0,2.17827 -0.2821,2.30393 -5.1724,2.30393 -4.8903,0 -5.1724,-0.12566 -5.1724,-2.30393 z"
       style="fill:#000000;stroke-width:0.930958" />
  </g>
</svg>
