<?xml version="1.0" encoding="UTF-8" standalone="no"?>
<svg
   xmlns:dc="http://purl.org/dc/elements/1.1/"
   xmlns:cc="http://creativecommons.org/ns#"
   xmlns:rdf="http://www.w3.org/1999/02/22-rdf-syntax-ns#"
   xmlns:svg="http://www.w3.org/2000/svg"
   xmlns="http://www.w3.org/2000/svg"
   xmlns:sodipodi="http://sodipodi.sourceforge.net/DTD/sodipodi-0.dtd"
   xmlns:inkscape="http://www.inkscape.org/namespaces/inkscape"
   inkscape:version="1.0 (4035a4fb49, 2020-05-01)"
   sodipodi:docname="ЗИМНИЕ.svg"
   viewBox="0 0 510.49429 488.82715"
   height="488.82715"
   width="510.49429"
   id="svg3001"
   version="1.1">
  <metadata
     id="metadata3007">
    <rdf:RDF>
      <cc:Work
         rdf:about="">
        <dc:format>image/svg+xml</dc:format>
        <dc:type
           rdf:resource="http://purl.org/dc/dcmitype/StillImage" />
        <dc:title></dc:title>
      </cc:Work>
    </rdf:RDF>
  </metadata>
  <defs
     id="defs3005" />
  <sodipodi:namedview
     inkscape:current-layer="g3009"
     inkscape:window-maximized="1"
     inkscape:window-y="-6"
     inkscape:window-x="-6"
     inkscape:cy="245.28182"
     inkscape:cx="325.30133"
     inkscape:zoom="1.1600971"
     showgrid="false"
     id="namedview3003"
     inkscape:window-height="1018"
     inkscape:window-width="1920"
     inkscape:pageshadow="2"
     inkscape:pageopacity="0"
     guidetolerance="10"
     gridtolerance="10"
     objecttolerance="10"
     borderopacity="1"
     bordercolor="#666666"
     pagecolor="#ffffff"
     inkscape:document-rotation="0" />
  <g
     transform="translate(82.429927,0.13815973)"
     id="g3009"
     inkscape:label="Image"
     inkscape:groupmode="layer">
    <path
       id="path8"
       d="m 162.95187,487.30861 c -0.82639,-0.89483 -1.27465,-5.54643 -1.27465,-13.22708 0,-6.51578 -0.39615,-11.84687 -0.88032,-11.84687 -0.48418,0 -9.98115,4.91906 -21.10438,10.93125 l -20.22405,10.93127 -3.86395,-1.74819 c -2.12517,-0.96149 -6.73105,-2.07266 -10.23527,-2.46926 -3.50423,-0.3966 -7.20577,-1.42645 -8.22562,-2.28854 -1.7112,-1.44649 -1.52643,-1.87625 2.39454,-5.56942 2.33685,-2.20109 4.81031,-4.00968 5.49657,-4.01909 0.98995,-0.0136 13.72624,-6.7678 23.7141,-12.57592 0.87632,-0.5096 8.6437,-4.67823 17.26084,-9.26364 l 15.66754,-8.3371 v -13.67476 c 0,-7.52111 -0.35425,-13.67475 -0.78724,-13.67475 -0.43299,0 -4.13743,1.78345 -8.2321,3.9632 -4.09466,2.17977 -8.63983,4.50765 -10.10037,5.17308 -1.46053,0.66542 -3.3725,1.67338 -4.24882,2.23992 -0.87632,0.56653 -2.78829,1.59918 -4.24882,2.29476 -1.46054,0.69558 -3.37251,1.75163 -4.24883,2.34678 -0.87632,0.59515 -8.28521,4.52062 -16.46419,8.72325 -8.17899,4.20263 -15.74483,8.1486 -16.81298,8.76883 -3.46017,2.00914 -4.96225,-0.7881 -4.96225,-9.24093 0,-8.69351 1.47413,-11.87601 6.70983,-14.48593 1.85962,-0.92699 4.09812,-2.21375 4.97444,-2.85944 0.87632,-0.6457 2.78829,-1.69003 4.24883,-2.32074 1.46053,-0.63071 3.3725,-1.61545 4.24882,-2.18831 0.87632,-0.57287 4.70026,-2.66222 8.49765,-4.64301 3.79738,-1.98078 7.62133,-4.04072 8.49765,-4.57765 0.87632,-0.53691 8.2852,-4.49366 16.46419,-8.79278 8.17899,-4.29911 15.22206,-8.37085 15.65128,-9.04833 0.42921,-0.67748 0.78771,-7.05457 0.79665,-14.17132 0.015,-11.89771 -0.14431,-12.93953 -1.97809,-12.93953 -1.09689,0 -2.55048,0.72559 -3.23018,1.61242 -0.67972,0.88683 -2.53072,1.96232 -4.11334,2.38998 -1.58263,0.42765 -3.59449,1.40954 -4.47081,2.18198 -0.87632,0.77244 -4.22227,2.65627 -7.43544,4.18628 -3.21317,1.53002 -6.98208,3.7044 -8.37534,4.83196 -1.39327,1.12754 -3.10766,2.05009 -3.80975,2.05009 -0.70209,0 -8.3626,3.8554 -17.02336,8.56755 -18.85682,10.25964 -19.39988,10.22194 -19.87031,-1.37952 -0.36865,-9.09143 -1.54412,-9.94817 -7.57194,-5.5188 -4.86794,3.57708 -8.79787,4.73019 -10.60039,3.11033 -1.0641,-0.95627 -1.32847,-8.60279 -1.19392,-34.53337 0.0951,-18.31783 -0.2008,-33.95975 -0.65744,-34.7598 -0.631,-1.10555 -2.50057,-0.56427 -7.79007,2.25541 -3.82789,2.04055 -7.24095,4.20266 -7.58456,4.80471 -0.34363,0.60204 -1.51588,1.09462 -2.605,1.09462 -1.08912,0 -3.45088,1.33996 -5.24834,2.97769 l -3.26812,2.9777 v 35.97562 35.97562 l -4.28867,3.07317 c -2.35876,1.69024 -5.34622,3.56932 -6.63879,4.17573 -1.29256,0.6064 -3.14654,1.72075 -4.11994,2.47633 -1.38563,1.07556 -2.13503,1.04559 -3.45217,-0.13808 -1.46658,-1.31797 -1.68234,-5.93759 -1.68234,-36.02023 v -34.50838 l -3.13016,0.67788 c -3.49669,0.75726 -6.94497,2.41504 -17.0517604,8.19771 l -6.90434,3.95038 -0.5311,35.30043 c -0.468,31.10559 -0.73863,35.44207 -2.27742,36.49229 -1.85812,1.26814 -2.97693,0.444 -14.1867796,-10.45024 l -5.31103,-5.16149 -0.20905,-21.39978 c -0.11773,-12.05086 -0.64345,-21.55657 -1.20339,-21.75867 -0.85763,-0.30955 -4.79373,1.74117 -16.77392,8.73931 -3.8844,2.26906 -8.67351,0.68677 -11.02547,-3.64269 -1.08409,-1.99558 -2.78211,-4.50961 -3.77339,-5.58674 -0.99128,-1.07712 -1.52635,-2.73716 -1.18904,-3.68898 0.72029,-2.03248 8.50818,-7.57969 10.64137,-7.57969 0.80915,0 2.61112,-0.96397 4.00438,-2.14214 1.39327,-1.17818 3.6087,-2.50702 4.92318,-2.95297 4.21707,-1.43067 2.3209,-4.3921 -3.70554,-5.78728 -1.89199,-0.43803 -3.70317,-1.2575 -4.02483,-1.82106 -0.69508,-1.21783 -22.09297,-12.60054 -23.68722,-12.60054 -2.26898,0 -8.70088,-10.09295 -9.60729,-15.07579 -0.50548,-2.77881 -1.03838,-5.56996 -1.18422,-6.20256 -0.55442,-2.40488 0.0534,-3.9835 1.95889,-5.08777 1.54103,-0.89303 4.38729,0.12139 13.01203,4.63756 6.07174,3.17935 11.75653,6.26467 12.63285,6.85626 0.87632,0.59159 2.78829,1.59166 4.24882,2.22237 1.46053,0.63071 3.3725,1.66839 4.24882,2.30596 0.87632,0.63757 2.7883,1.72833 4.24883,2.42392 1.46053,0.69558 3.3725,1.71992 4.24882,2.27632 3.52283,2.23671 14.84459,7.9441 15.75874,7.9441 0.53704,0 1.57148,0.77637 2.29877,1.72527 1.70832,2.22889 7.85152,2.22889 9.5598496,0 0.72728,-0.9489 1.86129,-1.73 2.52002,-1.73579 0.65874,-0.006 3.58766,-1.28355 6.50873002,-2.83948 2.92106998,-1.55593 5.83443998,-2.84516 6.47415998,-2.86494 1.81685,-0.0562 4.9665504,-4.35257 4.1892704,-5.7144 -0.3838204,-0.67246 -1.5671004,-1.22266 -2.6295104,-1.22266 -1.06241,0 -2.50121,-0.74309 -3.19733,-1.65134 -0.69611,-0.90824 -2.63358,-1.97666 -4.30548998,-2.37429 -1.67190002,-0.39763 -3.59887002,-1.45236 -4.28216002,-2.34386 -0.68328,-0.8915 -2.87256,-1.95207 -4.86505,-2.35682 -1.9924996,-0.40475 -3.8807796,-1.18805 -4.1961896,-1.74066 -0.31541,-0.5526 -4.12326,-2.85354 -8.4619,-5.11316 -4.33863,-2.25964 -8.13371,-4.53819 -8.43351,-5.06346 -0.2998,-0.52526 -1.86408,-1.31147 -3.47619,-1.74713 -1.61211,-0.43567 -3.64809,-1.46273 -4.52441,-2.28236 -0.87632,-0.81965 -3.26629,-2.08657 -5.31103,-2.8154 -2.04475,-0.72882 -5.37131,-2.81032 -7.39236,-4.62556 -3.03985,-2.73029 -3.4486,-3.59535 -2.36614,-5.00766 0.71967,-0.93898 2.81988,-2.03455 4.66714,-2.43459 1.84726,-0.40006 4.1894,-1.54145 5.20477,-2.53645 1.01536,-0.995 3.71664,-2.08076 6.00285,-2.4128 4.01391,-0.58297 8.69212,1.33386 20.43889,8.37456 1.46053,0.8754 3.46379,1.59927 4.45168,1.60859 0.9879,0.009 2.06216,0.48298 2.3872596,1.05256 1.16086,2.03388 41.6028104,23.1182 44.3431404,23.1182 2.42917,0 10.90113,-3.79878 15.7369,-7.05634 0.87632,-0.59031 3.36762,-1.90282 5.53621,-2.91668 3.27424,-1.53078 3.7711,-2.19097 2.9299,-3.89296 -0.55715,-1.12726 -2.57045,-2.40805 -4.474,-2.84616 -1.90356,-0.43813 -4.178,-1.45414 -5.05432,-2.25781 -0.87632,-0.80367 -2.78829,-1.84245 -4.24882,-2.3084 -1.46053,-0.46595 -3.3725,-1.50111 -4.24882,-2.30036 -0.87632,-0.79925 -2.78829,-1.8444 -4.24883,-2.32254 -1.46053,-0.47814 -3.79546,-1.83332 -5.18873,-3.01149 -1.39326,-1.17818 -3.22984,-2.14215 -4.08128,-2.14215 -0.85144,0 -2.76341,-1.03516 -4.24882,-2.30036 -1.48542,-1.2652 -3.39235,-2.30036 -4.23764,-2.30036 -0.84528,0 -4.27961,-1.74061 -7.63184,-3.86802 -3.3522304,-2.12741 -7.8158604,-4.483 -9.9191704,-5.23464 -6.10879,-2.18307 -6.98139,-4.17354 -3.5365,-8.06703 1.59826002,-1.80639 4.37403,-3.60229 6.16838,-3.99089 6.33586,-1.37212 8.3307904,-5.8313 3.19938,-7.15143 -1.60659,-0.41332 -3.63805,-1.37967 -4.51437,-2.14745 -0.87632,-0.76778 -2.44063998,-1.72168 -3.47627,-2.11979 -2.45767,-0.94476 -3.44293,-3.8536 -1.96042,-5.78787 0.64582,-0.84263 5.83772,-3.98894 11.53755,-6.99182 5.6998304,-3.00287 11.0803204,-5.897 11.9566404,-6.43138 1.57193,-0.95859 9.70171,-5.23546 14.87089,-7.8232 1.46053,-0.73116 3.3725,-1.85104 4.24882,-2.4886 0.87632,-0.63757 2.78829,-1.67525 4.24882,-2.30597 1.46054,-0.63071 3.37251,-1.62894 4.24883,-2.21828 0.87632,-0.58936 3.86521,-2.19026 6.64196,-3.55756 2.77676,-1.36731 4.77387,-2.96744 4.43804,-3.55585 -0.33585,-0.58841 -6.13156,-3.9768 -12.87935,-7.52975 L 33.95311,181.2748 6.9820096,195.94519 c -14.83409,8.06871 -27.1982596,15.06841 -27.4759196,15.55488 -0.27766,0.48648 -2.13507,1.21567 -4.12756,1.62042 -1.9925,0.40475 -4.20727,1.49859 -4.92172,2.43075 -2.51213,3.27763 -8.17871,2.10505 -19.0254,-3.93691 -2.69005,-1.49846 -3.89359,-4.52119 -2.65008,-6.65584 1.31586,-2.25884 1.87287,-2.61538 11.27213,-7.2153 3.90485,-1.911 7.36502,-3.93935 7.68926,-4.50743 0.32425,-0.56809 2.21976,-1.36406 4.21226,-1.76881 1.99249,-0.40475 4.18177,-1.46532 4.86505,-2.35681 0.68329,-0.89151 2.63781,-1.95279 4.34338,-2.35843 1.70557,-0.40563 3.35067,-1.17487 3.65578,-1.70944 0.67877,-1.18924 13.5410996,-8.05253 15.09103962,-8.05253 0.61257,0 1.66099998,-0.714 2.32984998,-1.58667 0.66884,-0.87265 2.57899,-1.88181 4.24475,-2.24255 1.66577,-0.36074 3.30772,-1.44331 3.6487704,-2.4057 0.8229,-2.32205 -2.0160904,-5.2669 -5.0775804,-5.2669 -1.34727,0 -3.02927,-0.75632 -3.73777,-1.68072 -0.70850998,-0.9244 -2.32051,-2.03039 -3.58223,-2.45775 -1.26172,-0.42735 -3.6452,-2.00015 -5.29661,-3.49508 -3.8789396,-3.51143 -8.2408096,-3.45518 -12.2057096,0.15738 -1.73574,1.5815 -3.85892,2.87545 -4.71817,2.87545 -0.85926,0 -2.77762,1.03516 -4.26303,2.30036 -1.48542,1.2652 -3.19793,2.30036 -3.80559,2.30036 -0.60766,0 -11.03619,5.46148 -23.17451,12.13662 -16.45729,9.05025 -22.71328,11.9617 -24.60058,11.44879 -2.13195,-0.5794 -2.42166,-1.17808 -1.83781,-3.7978 0.38121,-1.71048 1.06563,-4.92151 1.52094,-7.13561 1.14883,-5.58667 6.08805,-13.68436 9.10424,-14.92609 1.38212,-0.569 2.80504,-1.5463 3.16204,-2.17177 0.35699,-0.62547 2.43489,-1.75799 4.61756,-2.51672 2.18266,-0.75873 4.71683,-2.0843 5.63148,-2.94571 0.91466,-0.8614 3.1744,-1.89351 5.02166,-2.29356 1.84726,-0.40005 3.90589,-1.44136 4.57474,-2.31402 0.66885,-0.87266 1.80046,-1.58666 2.5147,-1.58666 0.71424,0 2.16378,-1.03516 3.22119,-2.30036 1.05741,-1.2652 2.56547,-2.30037 3.35125,-2.30037 2.11213,0 1.7423,-1.58033 -1.02975,-4.40023 -1.35213,-1.37547 -3.71388,-2.50085 -5.24834,-2.50085 -1.53445,0 -3.11547,-0.5704 -3.51338,-1.26754 -0.3979,-0.69715 -2.35888,-2.00745 -4.35773,-2.9118 -1.99885,-0.90435 -3.87921,-2.33543 -4.17858,-3.18019 -0.57627,-1.62611 3.91814,-9.48906 8.44834,-14.78032 l 2.70708,-3.16186 4.83162,3.53089 c 2.65739,1.94199 4.83162,4.0118 4.83162,4.59959 0,0.58778 1.1209,1.06869 2.49089,1.06869 1.36999,0 3.35604,1.03516 4.41345,2.30036 3.83297,4.58618 4.7643,3.03489 5.00632,-8.33881 0.12452,-5.85155 0.0687,-15.49161 -0.12401,-21.422372 l -0.3504,-10.783186 7.2939,-7.441371 c 9.8995996,-10.099755 11.6624596,-11.324842 13.6830996,-9.50897 1.36392,1.225707 1.56979,6.269539 1.40218,34.353939 -0.10805,18.10452 0.14329,34.03041 0.55852,35.39088 0.419,1.37278 2.03797002,2.82024 3.63798,3.25261 1.58565,0.42848 3.59999,1.45387 4.47631,2.27866 0.87632,0.82479 2.78829,1.87777 4.24883,2.33996 1.4605304,0.4622 3.8504904,2.02161 5.3110304,3.46536 1.46053,1.44375 4.20899,2.97947 6.10769,3.41271 l 3.45217,0.78772 0.22253,-15.33129 c 0.12239,-8.43222 0.1668,-16.88403 0.0987,-18.78183 -0.0681,-1.8978 -0.17484,-4.7445 -0.23715,-6.326 -0.0623,-1.5815 -0.12002,-8.93112 -0.12824,-16.332482 -0.0139,-12.524365 0.14046,-13.547093 2.22739,-14.756484 1.78483,-1.034325 2.63212,-0.917488 4.15275,0.572644 1.05073,1.029654 3.61933,2.383029 5.708,3.007503 5.15655,1.541717 8.60185,6.830957 7.6567,11.754637 -0.38824,2.0225 -0.65971,4.971232 -0.60327,6.552732 0.0564,1.5815 0.27146,10.89797 0.47784,20.70326 0.20638,9.8053 0.42316,19.63934 0.48175,21.85344 0.0586,2.2141 0.0562,6.83754 -0.005,10.27431 -0.10303,5.7591 0.16813,6.49869 3.46137,9.43981 1.96525,1.75512 4.85464,3.50533 6.42086,3.88934 1.56622,0.38402 3.39172,1.40805 4.05667,2.27562 0.66495,0.86757 2.57692,1.90273 4.24882,2.30036 1.6719,0.39763 3.60938,1.46606 4.30549,2.3743 3.51228,4.58256 5.17177,0.74359 4.75528,-11.00066 -0.14583,-4.11189 0.16262,-8.38194 0.68545,-9.48899 0.57215,-1.21149 0.54255,-2.83838 -0.0744,-4.08651 -1.63491,-3.30789 -1.89423,-40.54886 -0.30391,-43.64601 1.38348,-2.69431 2.84616,-3.30094 3.82481,-1.58629 0.31443,0.5509 2.01999,1.31528 3.79014,1.69863 1.77015,0.38335 4.6026,1.80511 6.29436,3.15947 1.69174,1.35436 3.54423,2.14906 4.11663,1.766 1.71428,-1.14724 2.77429,-8.38973 2.12086,-14.490912 -0.45015,-4.20317 2.62713,-4.26731 8.33462,-0.17372 2.67795,1.92073 6.60971,4.082872 8.73721,4.804772 5.10697,1.73289 21.26732,9.63217 25.64341,12.53466 0.87632,0.58123 6.77462,3.762 13.10733,7.06837 8.77133,4.57959 11.71594,5.65787 12.3616,4.52664 0.46616,-0.81673 0.78176,-6.88111 0.70134,-13.4764 l -0.14618,-11.99144 -3.71772,-2.196562 c -2.04475,-1.20811 -5.3907,-2.98184 -7.43544,-3.94163 -2.04475,-0.95978 -4.43471,-2.21726 -5.31103,-2.79439 -0.87632,-0.57713 -7.80722,-4.288037 -15.40199,-8.246456 -7.59477,-3.95842 -14.52567,-7.641037 -15.40199,-8.183591 -0.87632,-0.542555 -2.78829,-1.555577 -4.24882,-2.25116 -1.46054,-0.695584 -3.37251,-1.737395 -4.24883,-2.315138 -0.87632,-0.577741 -3.02728,-1.774014 -4.77992,-2.658381 -1.75264,-0.884369 -4.52451,-3.128465 -6.15972,-4.986881 -2.74518,-3.119927 -2.94873,-3.977571 -2.65551,-11.188401 0.40964,-10.073246 1.5723,-10.935638 9.34633,-6.932538 3.21317,1.654565 6.55912,3.503753 7.43544,4.109304 0.87632,0.605551 2.78829,1.617038 4.24883,2.247748 1.46053,0.63071 3.3725,1.618976 4.24882,2.196145 0.87632,0.577168 8.28521,4.531891 16.46419,8.788274 8.17899,4.256382 15.58788,8.179412 16.4642,8.717843 6.94236,4.265551 9.77504,5.595533 10.65849,5.004311 0.56417,-0.377559 1.02577,-6.537061 1.02577,-13.687781 v -13.00131 l -6.63879,-3.647966 c -3.65133,-2.006381 -7.35577,-4.127382 -8.23209,-4.713338 -0.87632,-0.585954 -4.82355,-2.694561 -8.77164,-4.685794 -3.94807,-1.991234 -7.41899,-4.042115 -7.71316,-4.557514 -0.29418,-0.5154 -1.93033,-1.268972 -3.6359,-1.674604 -1.70558,-0.405634 -3.64509,-1.447348 -4.31004,-2.314922 -0.66495,-0.867573 -2.57692,-1.902736 -4.24882,-2.300362 -1.67191,-0.397626 -3.58388,-1.432789 -4.24883,-2.300362 -0.66495,-0.867574 -2.57692,-1.902737 -4.24882,-2.300363 -1.6719,-0.397625 -3.58388,-1.432788 -4.24883,-2.300362 -0.66495,-0.867573 -2.57692,-1.902736 -4.24882,-2.300362 -3.58494,-0.852597 -6.09338,-3.63856 -4.66689,-5.183199 1.40837,-1.5250127 19.00903,-6.8937027 22.60024,-6.8937027 1.70049,0 10.83133,4.290443 20.80625,9.7765397 9.77674,5.377096 18.68269,9.776539 19.79102,9.776539 1.83424,0 2.01512,-0.960157 2.01512,-10.696684 0,-6.7860687 0.466,-11.2012807 1.27465,-12.0769017 0.76909,-0.83278503 4.49549,-1.38021803 9.39522,-1.38021803 10.8753,0 11.63646,0.927554 11.63646,14.18028573 0,8.991219 0.1965,9.973518 1.99508,9.973518 1.0973,0 9.98446,-4.399443 19.74925,-9.776539 11.43948,-6.2992827 18.97783,-9.7765397 21.19457,-9.7765397 3.18445,0 14.84598,3.307124 20.61134,5.8452267 3.82197,1.682555 2.44007,3.994851 -4.0667,6.804708 -1.46054,0.63071 -3.37251,1.665873 -4.24883,2.300362 -0.87632,0.634489 -2.78829,1.669652 -4.24882,2.300362 -1.46054,0.63071 -3.37251,1.665873 -4.24883,2.300363 -0.87632,0.634489 -2.78829,1.669652 -4.24882,2.300362 -1.46053,0.63071 -3.3725,1.633049 -4.24882,2.227418 -0.87632,0.59437 -6.61224,3.75325 -12.74648,7.019736 -6.13424,3.266484 -12.58714,6.732249 -14.33978,7.701699 -1.75264,0.969449 -4.85959,2.674279 -6.90434,3.788512 l -3.71772,2.025878 -0.29789,13.875768 -0.29789,13.875768 3.4845,-1.286641 c 1.91649,-0.707653 4.62447,-2.238967 6.01773,-3.402919 1.39326,-1.163953 3.19453,-2.116278 4.00282,-2.116278 1.33932,0 10.31176,-4.428811 14.17699,-6.997788 0.87632,-0.582435 2.78829,-1.575009 4.24882,-2.205719 1.46053,-0.63071 3.3725,-1.665873 4.24882,-2.300362 0.87632,-0.634489 2.78742,-1.705987 4.24688,-2.381107 1.45946,-0.675121 3.37143,-1.910235 4.24883,-2.744698 0.87739,-0.834465 3.1157,-1.866872 4.97402,-2.294239 1.85833,-0.427367 3.92282,-1.486864 4.58778,-2.354438 0.66495,-0.867574 2.57692,-1.902737 4.24882,-2.300362 1.6719,-0.397626 3.60938,-1.466058 4.30549,-2.374295 1.54166,-2.011435 4.38049,-2.137524 6.10413,-0.271122 0.73301,0.793717 1.27465,4.594973 1.27465,8.945527 0,8.977178 -1.53247,11.927036 -7.82485,15.062101 -2.41479,1.203121 -5.10751,2.656313 -5.98383,3.229315 -0.87632,0.573002 -2.78829,1.610934 -4.24883,2.306518 -1.46053,0.695583 -3.3725,1.721444 -4.24882,2.27969 -0.87632,0.558247 -10.19718,5.541237 -20.71302,11.07331 -10.51584,5.532077 -21.06939,11.112797 -23.45234,12.401607 l -4.33263,2.343292 0.42451,12.18327 c 0.23348,6.70081 0.60313,12.79765 0.82145,13.54855 0.32984,1.1345 18.32835,-7.43581 26.00791,-12.38413 0.87632,-0.56466 4.70026,-2.60686 8.49765,-4.53822 3.79738,-1.93136 8.17307,-4.26754 9.72374,-5.19151 1.55067,-0.92397 3.53468,-1.67994 4.40891,-1.67994 2.21034,0 12.08412,-5.062792 14.51003,-7.440032 1.10177,-1.07968 2.85056,-1.78635 3.88619,-1.57039 1.55119,0.32347 1.93335,1.79382 2.16888,8.344692 0.15725,4.37362 0.66534,8.36288 1.12908,8.86503 0.46374,0.50215 2.03277,0.17891 3.48674,-0.71831 1.45396,-0.89722 3.83855,-2.18179 5.29908,-2.85461 1.46053,-0.67282 3.77904,-1.84551 5.15225,-2.60598 2.13427,-1.18195 2.72964,-1.05327 4.10104,0.88637 1.37753,1.94833 1.51629,6.73984 0.98163,33.89903 -0.34248,17.39649 -0.33972,32.79454 0.006,34.21789 0.71709,2.95127 2.71536,3.36051 4.57318,0.93657 0.69612,-0.90824 2.63359,-1.97667 4.30549,-2.3743 1.67191,-0.39763 3.58388,-1.43279 4.24883,-2.30036 0.66495,-0.86757 2.53402,-1.89253 4.1535,-2.27769 1.61947,-0.38516 4.44711,-2.10057 6.28364,-3.81203 2.75167,-2.56427 3.3243,-3.92115 3.25481,-7.71245 -0.0464,-2.5304 -0.30629,-14.79994 -0.57757,-27.26562 -0.32707,-15.02881 -0.10672,-23.44694 0.65399,-24.98607 0.82804,-1.67535 0.80691,-3.7846 -0.0759,-7.581042 -1.13541,-4.88255 -1.04444,-5.46585 1.26798,-8.131187 1.37013,-1.57922 5.54123,-4.497225 9.26911,-6.484457 9.00053,-4.797926 10.24625,-3.995673 10.42295,6.712447 0.0719,4.359577 -0.33535,8.896967 -0.90508,10.083097 -0.70323,1.464012 -0.63262,2.972512 0.21983,4.697262 0.87868,1.7778 1.15044,9.16019 0.90509,24.58629 l -0.35064,22.04563 2.73591,-0.001 c 1.54384,-6.7e-4 3.82289,-1.25406 5.23064,-2.87663 1.3721,-1.5815 3.24789,-2.88308 4.16842,-2.89241 0.92054,-0.009 2.86869,-0.77185 4.32922,-1.6945 1.46054,-0.92265 4.209,-2.47471 6.10769,-3.44903 l 3.45217,-1.77147 0.26231,-16.94974 c 0.14427,-9.32235 0.14036,-24.758802 -0.008,-34.303209 -0.25092,-16.067725 -0.11446,-17.50688 1.84187,-19.423969 2.05772,-2.016451 2.26835,-1.923756 8.06916,3.551302 3.27597,3.091987 7.35232,6.915749 9.05857,8.497248 2.79,2.58602 3.10174,3.570092 3.097,9.776539 -0.003,3.795597 0.30474,13.482849 0.68364,21.527229 l 0.68891,14.62614 2.75895,-1.58519 c 1.51743,-0.87186 5.35354,-2.97796 8.52471,-4.68023 3.17115,-1.70228 6.58173,-3.64684 7.57906,-4.32127 2.83123,-1.91458 8.18543,1.07981 10.62193,5.94041 1.14375,2.28169 2.62861,4.98394 3.29968,6.00501 2.05857,3.1322 0.27046,5.29169 -8.16307,9.85857 -4.45622,2.41312 -9.02401,4.8984 -10.15062,5.52286 -2.41408,1.33806 -2.69082,2.89026 -0.51531,2.89026 0.84319,0 2.15767,0.90576 2.92106,2.01281 0.76339,1.10705 2.58297,2.59074 4.0435,3.29709 13.43107,6.49558 25.79844,13.89987 28.77925,17.23 2.33635,2.61014 4.08735,6.12112 4.99028,10.00612 0.76505,3.29177 1.6525,7.09866 1.97209,8.45975 1.26623,5.39264 -5.79733,4.16536 -17.68411,-3.0726 -0.87632,-0.5336 -6.61224,-3.64143 -12.74648,-6.9063 -6.13424,-3.26488 -11.87015,-6.40949 -12.74647,-6.98804 -0.87632,-0.57855 -2.78829,-1.62102 -4.24882,-2.3166 -1.46054,-0.69559 -3.37251,-1.7374 -4.24883,-2.31515 -0.87632,-0.57773 -3.25825,-1.87378 -5.29319,-2.88008 -2.03493,-1.00632 -4.85767,-2.81581 -6.27275,-4.02111 -3.03283,-2.5832 -8.90791,-1.961 -12.33369,1.30618 -1.16843,1.11434 -3.3194,2.4077 -4.77993,2.87412 -1.46053,0.46643 -3.32565,1.43095 -4.1447,2.14338 -0.81904,0.71241 -2.96419,1.81362 -4.76698,2.44713 -4.37926,1.53888 -4.87587,4.77038 -0.98935,6.43785 1.64818,0.70714 3.71368,1.74923 4.59,2.31577 0.87632,0.56653 2.78829,1.57905 4.24882,2.25004 2.712,1.24592 19.63367,10.44021 24.43074,13.27429 1.46054,0.86287 3.46379,1.57649 4.45169,1.58582 0.98789,0.009 2.07732,0.50953 2.42095,1.11157 0.34361,0.60205 3.83727,2.71278 7.76367,4.69053 3.9264,1.97775 8.33052,4.22026 9.78691,4.98337 5.32188,2.78847 3.67454,7.9364 -3.1791,9.93474 -2.20074,0.64168 -4.59355,1.93935 -5.31736,2.88372 -1.44589,1.88649 -11.13769,2.44387 -12.13426,0.69783 -0.31994,-0.56054 -14.67833,-8.64696 -31.90755,-17.96981 l -31.32585,-16.95064 -4.00459,1.98601 c -9.36547,4.64463 -21.52174,11.5823 -21.52619,12.28511 -0.002,0.41803 2.26567,1.878 5.04068,3.24439 2.77501,1.36639 5.76247,2.96655 6.63879,3.5559 0.87632,0.58934 2.78829,1.58757 4.24882,2.21828 1.46054,0.63072 3.37251,1.6684 4.24883,2.30597 0.87632,0.63757 2.78829,1.72833 4.24882,2.42391 1.46053,0.69559 3.3725,1.72823 4.24882,2.29476 0.87632,0.56654 2.78829,1.58209 4.24883,2.2568 6.88588,3.18095 28.31219,15.16315 29.62146,16.56515 1.77083,1.89623 0.88634,4.98248 -1.71446,5.98225 -1.03562,0.39811 -2.59994,1.35202 -3.47626,2.1198 -0.87632,0.76778 -2.90779,1.73412 -4.51438,2.14744 -5.13141,1.32013 -3.13648,5.77932 3.19938,7.15144 3.56627,0.77233 9.36038,6.50942 8.3543,8.27211 -0.52141,0.91352 -14.69218,8.74216 -25.09681,13.86472 -1.46053,0.71907 -3.3725,1.77346 -4.24882,2.34307 -0.87632,0.56962 -2.78829,1.60478 -4.24882,2.30036 -1.46054,0.69559 -3.37251,1.73346 -4.24883,2.3064 -3.9365,2.5737 -19.78337,10.49489 -20.97857,10.48632 -0.73026,-0.006 -2.33941,1.08593 -3.57589,2.42482 l -2.24813,2.43433 11.4064,6.19203 c 6.27353,3.40561 12.66262,6.19497 14.19796,6.19857 2.12931,0.005 27.95889,-13.23276 44.74868,-22.93389 0.87632,-0.50633 6.29628,-3.38051 12.04435,-6.38706 8.74372,-4.57343 11.14319,-5.36593 14.68778,-4.85113 2.33021,0.33843 5.06748,1.42942 6.08284,2.42442 1.01537,0.995 3.35751,2.1364 5.20477,2.53645 1.84726,0.40005 3.95467,1.505 4.68314,2.45545 1.10635,1.44349 0.63567,2.3543 -2.8579,5.53025 -2.30031,2.09118 -5.70553,4.11155 -7.56716,4.48972 -1.86164,0.37817 -3.94385,1.41699 -4.62713,2.30848 -0.68328,0.89151 -2.61026,1.94623 -4.28216,2.34386 -1.6719,0.39763 -3.58387,1.4328 -4.24882,2.30037 -0.66495,0.86757 -2.57693,1.90273 -4.24883,2.30036 -1.6719,0.39763 -3.58387,1.43279 -4.24882,2.30036 -0.66495,0.86757 -2.57692,1.90273 -4.24883,2.30036 -1.6719,0.39763 -3.58387,1.43279 -4.24882,2.30037 -0.66495,0.86757 -2.57692,1.90273 -4.24882,2.30036 -1.6719,0.39763 -3.60938,1.46605 -4.3055,2.37429 -0.69654,0.90822 -1.71515,1.65132 -2.264,1.65132 -1.72081,0 -12.55064,5.87313 -12.55064,6.80634 0,1.13692 3.608,4.69547 4.7607,4.69547 1.57802,0 14.16284,6.77705 14.86309,8.00391 1.02035,1.78771 8.60554,1.44558 10.06131,-0.4538 0.69612,-0.90824 2.63359,-1.97667 4.3055,-2.37429 1.6719,-0.39763 3.60937,-1.46606 4.30549,-2.3743 0.69612,-0.90824 1.80462,-1.66253 2.46335,-1.67621 0.65874,-0.0137 4.30465,-1.80843 8.10204,-3.98835 3.79739,-2.17993 8.09932,-4.49754 9.55985,-5.15027 1.46054,-0.65272 3.37251,-1.69351 4.24883,-2.31286 0.87632,-0.61936 3.98327,-2.2898 6.90434,-3.71211 2.92106,-1.42231 8.37578,-4.25357 12.12158,-6.29169 5.18729,-2.82244 7.27598,-3.43597 8.7632,-2.5741 2.30923,1.33821 2.29302,1.11307 0.70344,9.7727 -1.76245,9.60139 -5.04482,13.64556 -15.41873,18.99724 -4.78577,2.46887 -8.96369,4.9484 -9.28427,5.51008 -0.32058,0.56166 -1.90186,1.37766 -3.51397,1.81333 -1.61211,0.43566 -3.6481,1.48406 -4.52442,2.32978 -0.87632,0.84572 -3.26555,2.00265 -5.3094,2.57095 -4.45913,1.2399 -5.47284,4.40886 -1.93777,6.0577 1.35699,0.63293 3.18424,1.66991 4.06056,2.3044 0.87632,0.63448 2.78829,1.69311 4.24882,2.3525 5.57626,2.5175 10.62206,6.3852 10.62206,8.14201 0,0.55515 -0.90589,1.99028 -2.0131,3.18919 -1.1072,1.19891 -2.66068,3.61921 -3.45217,5.37843 -0.79148,1.75923 -2.82212,3.69289 -4.51253,4.29702 -2.58816,0.92498 -4.14286,0.48436 -9.84596,-2.79052 -3.72488,-2.13892 -7.98727,-4.57924 -9.47198,-5.42292 -5.34659,-3.03818 -5.6019,-2.09182 -5.58412,20.69848 l 0.0165,21.02701 -4.11471,4.05804 c -13.16267,12.98142 -14.47282,13.95864 -16.20279,12.08537 -1.40814,-1.52476 -1.58684,-5.70267 -1.26971,-29.68349 0.42462,-32.10787 -0.2767,-42.77777 -2.88098,-43.83081 -2.06458,-0.83481 -7.45757,-3.77336 -9.71175,-5.29177 -4.01142,-2.70209 -9.21571,-4.63077 -11.66128,-4.32163 l -2.67855,0.33861 -0.023,33.82062 c -0.0206,30.38631 -0.20383,33.94422 -1.80476,35.0377 -1.88812,1.28964 -6.25533,-0.83516 -15.19485,-7.39284 l -4.27604,-3.13673 0.23647,-35.72697 0.23647,-35.72697 -3.21182,-2.9264 c -1.76645,-1.60953 -4.10288,-2.9264 -5.192,-2.9264 -1.08912,0 -2.27,-0.5077 -2.62418,-1.12824 -0.35417,-0.62052 -3.75468,-2.80461 -7.55669,-4.85352 -5.23315,-2.82016 -7.11367,-3.3733 -7.73964,-2.27658 -0.45478,0.79681 -0.73708,16.04983 -0.62735,33.89561 0.11444,18.61081 -0.22917,33.35745 -0.80581,34.58226 -1.23502,2.62323 -5.74326,1.94892 -10.11345,-1.5127 -1.60125,-1.26834 -4.10633,-2.44488 -5.56687,-2.61456 -2.5712,-0.29869 -2.67237,-0.0454 -3.18661,7.97639 -0.6469,10.09108 -1.84142,11.83439 -6.02586,8.7942 -2.52254,-1.83276 -23.12117,-13.06952 -32.21356,-17.57284 -1.46053,-0.72338 -5.28448,-2.84046 -8.49765,-4.70464 -3.21317,-1.86418 -6.3811,-3.39809 -7.03983,-3.40869 -0.65873,-0.0104 -1.75382,-0.74486 -2.43353,-1.63169 -0.67971,-0.88683 -2.53071,-1.96232 -4.11334,-2.38998 -1.58262,-0.42764 -3.59448,-1.43492 -4.4708,-2.23837 -0.87632,-0.80346 -2.4298,-1.78206 -3.45217,-2.17466 -1.70638,-0.65526 -1.85886,0.4659 -1.85886,13.66822 v 14.38204 l 4.51437,2.24499 c 2.48291,1.23474 5.23137,2.76202 6.10769,3.39395 0.87632,0.63194 6.13424,3.51632 11.68427,6.40973 5.55002,2.89342 10.80794,5.71045 11.68426,6.26005 3.77143,2.36535 22.12715,11.51424 23.1014,11.51424 0.58807,0 1.62534,0.7256 2.30505,1.61243 0.67972,0.88683 2.53072,1.96231 4.11334,2.38997 5.54809,1.4992 6.59522,3.60296 6.59522,13.25032 0,7.23021 -0.36858,9.20611 -2.01896,10.82339 -1.33795,1.3111 -2.25735,1.56081 -2.72568,0.74026 -0.3887,-0.68101 -3.90159,-2.80175 -7.80644,-4.71276 -3.90485,-1.911 -7.81672,-3.97667 -8.69304,-4.59037 -0.87632,-0.61371 -2.7883,-1.63186 -4.24883,-2.26258 -1.46053,-0.63071 -3.3725,-1.66587 -4.24882,-2.30036 -0.87632,-0.63449 -2.78829,-1.66965 -4.24883,-2.30036 -1.46053,-0.63072 -3.3725,-1.67967 -4.24882,-2.33101 -0.87632,-0.65134 -2.42511,-1.48706 -3.44176,-1.85716 -1.01665,-0.37009 -7.46355,-3.71935 -14.32646,-7.44279 -6.8629,-3.72343 -12.84251,-6.76988 -13.28799,-6.76988 -0.44549,0 -0.80997,6.16244 -0.80997,13.69431 v 13.69431 l 16.10458,8.7475 c 8.85752,4.81112 16.6249,9.19576 17.26085,9.74364 0.63594,0.54786 2.35125,1.37948 3.81178,1.84803 1.46053,0.46855 3.3725,1.50584 4.24882,2.30509 0.87632,0.79925 2.78829,1.83441 4.24883,2.30036 1.46053,0.46595 3.3725,1.49689 4.24882,2.29099 0.87632,0.79409 3.29145,2.03327 5.36696,2.75369 2.0755,0.72044 5.42145,2.85118 7.43544,4.73497 3.393,3.17366 3.52568,3.54047 1.80751,4.99715 -1.01985,0.86465 -4.60939,1.88391 -7.97674,2.26501 -3.36735,0.38111 -8.1036,1.44981 -10.525,2.37488 -4.06112,1.55151 -4.76053,1.50343 -9.01855,-0.62015 -2.53881,-1.26616 -5.33301,-2.76113 -6.20933,-3.32214 -3.63718,-2.32853 -29.30472,-16.04949 -30.02346,-16.04949 -0.42928,0 -0.78051,5.0956 -0.78051,11.32354 0,14.36992 -0.59432,15.13063 -11.82102,15.13063 -4.75618,0 -8.44674,-0.55303 -9.21066,-1.38022 z M 119.29134,356.92015 c 1.98845,-0.98902 4.33235,-2.28949 5.20867,-2.88995 0.87632,-0.60047 3.55504,-2.06963 5.95269,-3.26479 5.93921,-2.96056 21.82693,-11.40737 23.78908,-12.64764 0.87632,-0.55392 2.92512,-1.57746 4.5529,-2.27453 l 2.95959,-1.26738 -0.30407,-11.21993 -0.30408,-11.21991 -14.87089,-7.86288 c -8.17898,-4.32458 -15.58787,-8.32877 -16.46419,-8.8982 -0.87632,-0.56944 -4.62246,-2.62635 -8.32477,-4.57093 -7.00405,-3.67875 -11.43499,-3.84399 -13.98155,-0.52143 -0.66496,0.86757 -2.60447,1.90929 -4.31004,2.31492 -1.70558,0.40564 -3.39196,1.2472 -3.74751,1.87015 -0.35556,0.62295 -1.79502,1.60548 -3.1988,2.1834 l -2.55233,1.05077 -0.12585,23.31964 c -0.12,22.23317 -0.0272,26.3686 0.60759,27.08662 0.31414,0.35531 8.20735,-3.54953 12.24449,-6.05746 2.38792,-1.4834 2.8615,-1.40692 5.04548,0.81474 1.97054,2.00456 2.4102,3.67411 2.4102,9.1524 0,3.68533 0.40455,6.7006 0.89901,6.7006 0.49446,0 2.52593,-0.8092 4.51438,-1.79821 z m 112.49148,-5.4997 c 0,-5.65431 0.445,-7.73399 1.97586,-9.23414 2.14201,-2.09906 2.23092,-2.0743 11.83078,3.29539 3.42373,1.91508 4.99963,2.29516 5.56031,1.34105 0.43034,-0.73231 0.78976,-11.58289 0.7987,-24.11239 l 0.0163,-22.78091 -3.37663,-3.33952 c -1.85714,-1.83672 -4.69207,-3.65235 -6.29984,-4.03472 -1.60777,-0.38238 -3.46725,-1.40506 -4.1322,-2.27263 -0.66496,-0.86757 -2.63218,-1.91588 -4.37163,-2.32957 -2.58801,-0.6155 -6.38621,0.94973 -20.90517,8.61499 -9.7584,5.15193 -18.93753,10.14026 -20.39806,11.08518 -1.46054,0.94491 -3.97,2.26133 -5.57658,2.9254 -2.91628,1.2054 -2.92107,1.22614 -2.92107,12.65537 v 11.44798 l 3.45217,1.68374 c 1.89869,0.92605 4.16916,2.16199 5.04548,2.74653 3.90352,2.60378 36.78218,19.55665 37.97386,19.58007 0.92524,0.0182 1.32776,-2.18637 1.32776,-7.27182 z m -70.1056,-75.44725 c 0,-6.92126 -0.35849,-12.80769 -0.79665,-13.08095 -0.71903,-0.44843 -6.82104,2.22747 -10.88761,4.7745 -0.87632,0.54887 -3.86378,2.22809 -6.63879,3.73159 -2.77501,1.50352 -5.04548,3.05243 -5.04548,3.44206 0,1.1831 3.58169,4.19867 5.88633,4.95594 1.19273,0.39192 5.25567,2.49346 9.02875,4.67009 3.77308,2.17664 7.21864,3.98753 7.6568,4.0242 0.43816,0.0367 0.79665,-5.59617 0.79665,-12.51743 z m 31.22378,7.9784 c 4.61248,-2.52766 8.95984,-4.59574 9.66078,-4.59574 1.29368,0 5.49535,-4.38069 4.69528,-4.89532 -0.23985,-0.15428 -1.39207,-0.93124 -2.56049,-1.72657 -1.16843,-0.79534 -3.3194,-2.01519 -4.77993,-2.71077 -1.46053,-0.69559 -3.37251,-1.73352 -4.24883,-2.30652 -1.96439,-1.28446 -10.63345,-5.61354 -11.24123,-5.61354 -0.24367,0 -0.44303,5.95219 -0.44303,13.22708 0,7.2749 0.1195,13.22484 0.26555,13.22211 0.14605,-0.002 4.03941,-2.07307 8.6519,-4.60073 z M 87.3228,277.63059 c 0.72728,-0.9489 2.05829,-1.72528 2.95781,-1.72528 2.02645,0 10.98173,-5.57505 12.49854,-7.78089 1.24494,-1.81044 1.94738,-35.53496 0.92174,-44.25299 -0.48258,-4.10196 -1.25187,-5.8104 -3.10749,-6.90109 -13.40511,-7.87916 -16.47935,-9.17722 -20.02761,-8.45644 -2.00837,0.40798 -4.21064,1.47119 -4.89392,2.36268 -0.68328,0.8915 -2.61026,1.94623 -4.28216,2.34386 -1.6719,0.39763 -3.60938,1.46606 -4.30549,2.3743 -0.69612,0.90824 -1.70506,1.65134 -2.24211,1.65134 -0.8581,0 -11.38703,5.26913 -15.75873,7.88634 -0.87632,0.52463 -3.86377,2.14223 -6.63878,3.59468 -2.77502,1.45245 -5.04548,3.24996 -5.04548,3.99446 0,1.54689 7.45341,6.37796 9.83997,6.37796 0.87129,0 2.17723,0.77378 2.90209,1.71951 1.95949,2.55658 -1.11169,6.95114 -6.06565,8.67937 -8.52184,2.9729 -8.7684,5.61515 -0.90006,9.64576 3.177,1.62744 6.22543,2.95898 6.77428,2.95898 0.54885,0 1.56747,0.7431 2.26358,1.65134 0.69612,0.90824 2.63359,1.97667 4.3055,2.37429 1.6719,0.39763 3.58387,1.4328 4.24882,2.30037 0.66495,0.86757 2.49045,1.8887 4.05667,2.26917 1.56621,0.38046 5.47663,2.47237 8.6898,4.64867 6.26785,4.24526 11.62603,5.13136 13.80868,2.28361 z m 185.48474,-2.87546 c 4.51585,-2.5304 8.78499,-4.60072 9.48695,-4.60072 0.70197,0 1.84585,-0.7431 2.54196,-1.65134 0.69612,-0.90824 2.63359,-1.97667 4.30549,-2.3743 1.67191,-0.39762 3.58388,-1.43279 4.24883,-2.30036 0.66495,-0.86757 2.57692,-1.90273 4.24882,-2.30036 1.6719,-0.39763 3.60938,-1.46606 4.3055,-2.3743 0.69611,-0.90824 2.1349,-1.65133 3.19732,-1.65133 5.2285,0 2.91455,-5.91418 -3.0741,-7.85702 -4.78612,-1.55272 -8.44381,-6.35378 -6.63681,-8.71144 0.61637,-0.80418 2.96049,-2.05902 5.20916,-2.78854 2.24868,-0.72951 4.8927,-2.28861 5.87559,-3.46463 1.69777,-2.03141 1.58414,-2.29052 -2.27413,-5.18576 -2.23366,-1.67612 -4.84379,-3.04751 -5.80027,-3.04751 -0.9565,0 -2.03787,-0.52347 -2.40304,-1.16328 -0.70802,-1.24047 -13.57936,-8.03816 -15.22015,-8.03816 -0.53705,0 -1.53257,-0.7256 -2.21228,-1.61243 -0.67972,-0.88683 -2.49299,-1.95408 -4.02951,-2.37166 -1.53651,-0.41758 -3.97133,-1.76231 -5.41071,-2.9883 -3.52125,-2.99924 -7.5899,-2.80565 -13.5857,0.64639 -2.74688,1.5815 -5.52064,2.89267 -6.16389,2.91372 -0.64326,0.0211 -2.24504,1.00978 -3.55952,2.19718 -2.3487,2.12163 -2.38996,2.60616 -2.38996,28.05794 v 25.89902 l 6.81462,3.48643 c 3.74805,1.91754 7.12221,4.02531 7.49813,4.68395 1.35844,2.38004 6.97776,1.10748 15.0277,-3.40319 z M 130.25679,255.35161 c 0.31411,-0.55035 3.32978,-2.40962 6.70147,-4.1317 3.3717,-1.7221 7.32196,-3.74812 8.77835,-4.50227 3.90925,-2.0243 3.97912,-4.9483 0.14005,-5.86134 -1.7448,-0.41496 -3.70298,-1.44679 -4.35153,-2.29296 -0.64854,-0.84617 -2.40249,-1.87096 -3.89766,-2.2773 -1.49519,-0.40635 -4.03946,-1.79631 -5.65395,-3.08882 -1.61449,-1.2925 -4.076,-2.17538 -5.47002,-1.96194 -2.44083,0.37371 -2.54598,0.78908 -2.84246,11.22849 -0.16933,5.96224 -0.0648,11.52625 0.23221,12.36445 0.60006,1.69323 5.46734,2.09355 6.36354,0.52339 z m 90.67435,-11.36382 c -0.29236,-11.99026 -0.37695,-12.37602 -2.79539,-12.74675 -1.41314,-0.21661 -3.4846,0.59838 -4.77993,1.88063 -1.25731,1.2446 -3.481,2.64241 -4.94153,3.10625 -1.46054,0.46382 -3.37251,1.51814 -4.24883,2.34294 -0.87632,0.82478 -2.90779,1.85484 -4.51437,2.28901 -1.60659,0.43416 -2.92107,1.48031 -2.92107,2.32475 0,1.98929 4.11159,5.09472 6.87514,5.19271 1.18449,0.042 4.30458,1.81917 6.93354,3.94927 2.62896,2.1301 6.11057,3.90727 7.73693,3.94927 l 2.957,0.0764 z m -59.25392,-31.84965 c 0,-6.84189 -0.46145,-12.31784 -1.07246,-12.72674 -0.58986,-0.39474 -2.32729,0.35108 -3.86096,1.6574 -1.53369,1.30631 -3.48675,2.3751 -4.34016,2.3751 -0.85339,0 -2.82041,0.95969 -4.37112,2.13263 -1.55072,1.17296 -4.12017,2.47302 -5.7099,2.88904 -3.76868,0.98623 -6.00703,5.09098 -3.26308,5.98391 1.04756,0.34089 5.48961,2.63241 9.87121,5.09227 4.3816,2.45984 9.04203,4.50237 10.35651,4.53893 2.3298,0.0648 2.38996,-0.23583 2.38996,-11.94254 z m 30.03161,9.70866 c 1.48542,-1.2652 3.01346,-2.30036 3.39564,-2.30036 0.3822,0 3.29426,-1.33154 6.47126,-2.95898 6.38611,-3.27133 7.28538,-5.6464 2.85528,-7.54107 -1.60658,-0.68711 -3.87705,-1.80906 -5.04547,-2.49324 -6.10299,-3.57363 -12.38663,-6.55979 -13.80348,-6.55979 -1.32172,0 -1.59851,2.09118 -1.59851,12.0769 0,11.93161 0.0302,12.0769 2.51226,12.0769 1.38175,0 3.72761,-1.03516 5.21302,-2.30036 z m -73.58205,-23.57871 c 0.72728,-0.9489 2.15532,-1.72527 3.17343,-1.72527 1.0181,0 3.06644,-1.03517 4.55185,-2.30037 1.48541,-1.2652 3.00379,-2.30036 3.37416,-2.30036 0.66785,0 12.39598,-6.01607 15.45571,-7.92818 0.87632,-0.54763 4.93925,-2.78389 9.02875,-4.96948 l 7.43544,-3.97378 0.5311,-11.2666 c 0.44115,-9.35815 0.26122,-11.35556 -1.0622,-11.79177 -3.40441,-1.12216 -10.44248,-4.68087 -25.36758,-12.82684 -8.54004,-4.66106 -16.82169,-8.88872 -18.40364,-9.39479 l -2.87629,-0.92013 -0.31033,8.12412 c -0.23841,6.24129 -0.74113,8.41724 -2.16919,9.38891 -1.37789,0.93754 -2.33984,0.8936 -3.71772,-0.16979 -1.02238,-0.78902 -3.05385,-1.95448 -4.51438,-2.58991 -1.46053,-0.63541 -3.97376,-1.95981 -5.58497,-2.94309 -2.34695,-1.4323 -3.02979,-1.48791 -3.43403,-0.27967 -0.76986,2.30111 -1.06795,14.70229 -0.79103,32.90925 l 0.25018,16.44876 3.45217,1.74594 c 5.4431,2.75284 9.60564,4.98662 12.48092,6.69769 3.57983,2.13038 6.89537,2.15588 8.49765,0.0653 z m 118.89726,-0.75228 c 2.66735,-1.36265 5.56673,-3.10467 6.44305,-3.87115 0.87632,-0.76648 2.85067,-1.71626 4.38745,-2.1106 1.67852,-0.43072 3.05108,-1.75529 3.43766,-3.31748 0.84781,-3.42601 0.83925,-31.57111 -0.0125,-41.33633 l -0.67001,-7.68096 -3.82109,2.2176 c -2.10163,1.21967 -4.36716,2.21759 -5.03455,2.21759 -0.66738,0 -1.80847,0.77637 -2.53575,1.72527 -2.98722,3.8975 -9.39991,-0.28564 -7.96139,-5.19339 1.04264,-3.55715 -0.34609,-10.33405 -2.11767,-10.33405 -1.21629,0 -23.43064,11.49512 -29.22256,15.12161 -1.91875,1.20139 -5.26891,2.9003 -11.75059,5.95886 l -4.84624,2.28684 0.4049,9.88224 c 0.2227,5.43524 0.57066,10.4576 0.77324,11.16081 0.38947,1.35199 29.97156,17.70736 32.01838,17.70235 0.65872,-0.001 1.76723,0.74017 2.46335,1.64841 0.69612,0.90824 2.63359,1.97667 4.30549,2.37429 1.6719,0.39763 3.60938,1.46606 4.30549,2.3743 1.72885,2.25567 3.74662,2.07894 9.43338,-0.82621 z"
       style="fill:#000000;stroke-width:1.10532" />
  </g>
</svg>
