<?xml version="1.0" encoding="UTF-8" standalone="no"?>
<svg
   xmlns:dc="http://purl.org/dc/elements/1.1/"
   xmlns:cc="http://creativecommons.org/ns#"
   xmlns:rdf="http://www.w3.org/1999/02/22-rdf-syntax-ns#"
   xmlns:svg="http://www.w3.org/2000/svg"
   xmlns="http://www.w3.org/2000/svg"
   xmlns:sodipodi="http://sodipodi.sourceforge.net/DTD/sodipodi-0.dtd"
   xmlns:inkscape="http://www.inkscape.org/namespaces/inkscape"
   inkscape:version="1.0 (4035a4fb49, 2020-05-01)"
   sodipodi:docname="трамплин.svg"
   viewBox="0 0 191.66528 175.62511"
   height="175.62511"
   width="191.66528"
   id="svg8"
   version="1.1">
  <metadata
     id="metadata14">
    <rdf:RDF>
      <cc:Work
         rdf:about="">
        <dc:format>image/svg+xml</dc:format>
        <dc:type
           rdf:resource="http://purl.org/dc/dcmitype/StillImage" />
        <dc:title></dc:title>
      </cc:Work>
    </rdf:RDF>
  </metadata>
  <defs
     id="defs12" />
  <sodipodi:namedview
     inkscape:current-layer="g16"
     inkscape:window-maximized="1"
     inkscape:window-y="-6"
     inkscape:window-x="-6"
     inkscape:cy="68.790623"
     inkscape:cx="44.070684"
     inkscape:zoom="2.1875"
     showgrid="false"
     id="namedview10"
     inkscape:window-height="1018"
     inkscape:window-width="1920"
     inkscape:pageshadow="2"
     inkscape:pageopacity="0"
     guidetolerance="10"
     gridtolerance="10"
     objecttolerance="10"
     borderopacity="1"
     bordercolor="#666666"
     pagecolor="#ffffff"
     inkscape:document-rotation="0" />
  <g
     transform="translate(-80.776746,-8.6617719)"
     id="g16"
     inkscape:label="Image"
     inkscape:groupmode="layer">
    <path
       id="path8"
       d="m 231.77265,183.67778 v -0.60911 h -2.37959 -2.3796 v -0.50759 -0.50758 h -2.27142 -2.27143 v -0.50759 c 0,-0.4799 -0.0649,-0.50759 -1.1898,-0.50759 -1.17777,0 -1.18979,-0.006 -1.18979,-0.6091 v -0.60911 h -1.73062 c -1.70176,0 -1.73061,-0.008 -1.73061,-0.50758 0,-0.49913 -0.0288,-0.50759 -1.73061,-0.50759 h -1.73061 v -0.6091 -0.60911 h -1.73061 c -1.70177,0 -1.73062,-0.008 -1.73062,-0.50759 0,-0.49912 -0.0288,-0.50758 -1.73061,-0.50758 -1.70177,0 -1.73061,-0.008 -1.73061,-0.50759 0,-0.49913 -0.0288,-0.50759 -1.73061,-0.50759 h -1.73061 v -0.6091 -0.60911 h -1.73062 c -1.70177,0 -1.73061,-0.008 -1.73061,-0.50758 0,-0.49913 -0.0288,-0.50759 -1.73061,-0.50759 -1.70177,0 -1.73061,-0.008 -1.73061,-0.50759 0,-0.50161 -0.0216,-0.50758 -1.83878,-0.50758 h -1.83877 v -0.60911 -0.6091 h -1.73061 c -1.70177,0 -1.73062,-0.008 -1.73062,-0.50759 0,-0.49913 -0.0288,-0.50759 -1.73061,-0.50759 h -1.73061 v -0.6091 -0.60911 h -1.73061 c -1.70177,0 -1.73062,-0.008 -1.73062,-0.50758 0,-0.49913 -0.0288,-0.50759 -1.73061,-0.50759 -1.70177,0 -1.73061,-0.008 -1.73061,-0.50759 0,-0.49912 -0.0288,-0.50758 -1.73061,-0.50758 h -1.73061 v -0.60911 -0.6091 h -1.73062 c -1.70177,0 -1.73061,-0.008 -1.73061,-0.50759 v -0.50759 h -2.37959 -2.37959 v -0.50758 c 0,-0.49913 -0.0288,-0.50759 -1.73061,-0.50759 h -1.73062 v -0.60911 -0.6091 h -1.73061 c -1.70177,0 -1.73061,-0.008 -1.73061,-0.50759 0,-0.49912 -0.0288,-0.50758 -1.73061,-0.50758 -1.70177,0 -1.73061,-0.008 -1.73061,-0.50759 0,-0.49913 -0.0288,-0.50759 -1.73062,-0.50759 h -1.73061 v -0.6091 -0.60911 h -1.73061 c -1.70177,0 -1.73061,-0.008 -1.73061,-0.50758 0,-0.49913 -0.0288,-0.50759 -1.73061,-0.50759 h -1.73061 v -0.60911 -0.6091 h -1.73062 c -1.70177,0 -1.73061,-0.008 -1.73061,-0.50759 0,-0.49912 -0.0288,-0.50758 -1.73061,-0.50758 -1.70177,0 -1.73061,-0.008 -1.73061,-0.50759 0,-0.49913 -0.0288,-0.50759 -1.73062,-0.50759 h -1.73061 v -0.6091 c 0,-0.60296 -0.012,-0.60911 -1.18979,-0.60911 -1.1249,0 -1.1898,-0.0277 -1.1898,-0.50758 v -0.50759 h -2.37959 -2.37959 v -0.50759 c 0,-0.49912 -0.0288,-0.50759 -1.73061,-0.50759 h -1.73062 v -0.6091 -0.6091 h -1.73061 c -1.70177,0 -1.73061,-0.008 -1.73061,-0.50759 v -0.50759 h -2.27143 -2.27143 v -0.6091 -0.60911 h -1.73061 c -1.70177,0 -1.73061,-0.008 -1.73061,-0.50758 0,-0.50162 -0.0216,-0.50759 -1.83878,-0.50759 -1.81714,0 -1.83877,-0.006 -1.83877,-0.50759 0,-0.49912 -0.0288,-0.50759 -1.73061,-0.50759 h -1.73062 v -0.6091 -0.6091 h -1.73061 c -1.70177,0 -1.73061,-0.008 -1.73061,-0.50759 0,-0.49913 -0.0288,-0.50759 -1.73061,-0.50759 -1.701771,0 -1.730614,-0.008 -1.730614,-0.50759 0,-0.4799 -0.0649,-0.50758 -1.189796,-0.50758 -1.177778,0 -1.189796,-0.006 -1.189796,-0.60911 0,-0.59556 -0.02404,-0.6091 -1.081632,-0.6091 -1.009524,0 -1.081633,-0.0338 -1.081633,-0.50759 0,-0.4799 -0.0649,-0.50759 -1.189796,-0.50759 -1.124897,0 -1.189795,-0.0277 -1.189795,-0.50758 0,-0.4799 -0.0649,-0.50759 -1.189796,-0.50759 -1.177778,0 -1.189796,-0.006 -1.189796,-0.6091 0,-0.59557 -0.02404,-0.60911 -1.081633,-0.60911 -1.009523,0 -1.081632,-0.0338 -1.081632,-0.50758 0,-0.42863 -0.100952,-0.50759 -0.64898,-0.50759 -0.57687,0 -0.648979,-0.0677 -0.648979,-0.60911 0,-0.51435 -0.08413,-0.6091 -0.540816,-0.6091 -0.432653,0 -0.540817,-0.10152 -0.540817,-0.50759 0,-0.42863 -0.100952,-0.50758 -0.648979,-0.50758 -0.548027,0 -0.64898,-0.079 -0.64898,-0.50759 0,-0.40607 -0.108163,-0.50759 -0.540816,-0.50759 -0.456689,0 -0.540816,-0.0948 -0.540816,-0.6091 0,-0.51436 -0.08413,-0.60911 -0.540816,-0.60911 -0.504762,0 -0.540817,-0.0677 -0.540817,-1.01517 0,-0.99262 -0.01442,-1.01518 -0.648979,-1.01518 -0.642424,0 -0.64898,-0.0113 -0.64898,-1.11669 0,-1.10541 0.0066,-1.11669 0.64898,-1.11669 0.576871,0 0.648979,-0.0677 0.648979,-0.6091 0,-0.51436 0.08413,-0.60911 0.540817,-0.60911 0.456689,0 0.540816,0.0948 0.540816,0.60911 v 0.6091 h 1.730612 c 1.701769,0 1.730612,0.008 1.730612,0.50759 0,0.42863 0.100952,0.50759 0.648979,0.50759 0.576871,0 0.64898,0.0677 0.64898,0.6091 0,0.59557 0.02404,0.6091 1.081632,0.6091 1.009524,0 1.081633,0.0338 1.081633,0.50759 0,0.42863 0.100952,0.50759 0.64898,0.50759 0.548027,0 0.648979,0.079 0.648979,0.50759 0,0.47374 0.07211,0.50758 1.081633,0.50758 1.057596,0 1.081632,0.0135 1.081632,0.60911 0,0.54142 0.07211,0.6091 0.64898,0.6091 0.548027,0 0.648979,0.079 0.648979,0.50759 0,0.40607 0.108163,0.50759 0.540816,0.50759 0.432653,0 0.540817,0.10151 0.540817,0.50758 0,0.4799 0.0649,0.50759 1.189795,0.50759 1.177778,0 1.189796,0.006 1.189796,0.6091 0,0.60296 0.01202,0.60911 1.189796,0.60911 1.124901,0 1.189801,0.0277 1.189801,0.50759 0,0.40606 0.10816,0.50758 0.54081,0.50758 0.45669,0 0.54082,0.0948 0.54082,0.60911 0,0.60295 0.012,0.6091 1.18979,0.6091 1.1249,0 1.1898,0.0277 1.1898,0.50759 0,0.47375 0.0721,0.50758 1.08163,0.50758 1.00953,0 1.08163,0.0338 1.08163,0.50759 0,0.49913 0.0288,0.50759 1.73062,0.50759 h 1.73061 v 0.6091 0.60911 h 1.83877 c 1.81715,0 1.83878,0.006 1.83878,0.50758 0,0.47375 0.0721,0.50759 1.08163,0.50759 1.00953,0 1.08163,0.0338 1.08163,0.50759 0,0.49913 0.0288,0.50759 1.73062,0.50759 h 1.73061 v 0.6091 0.6091 h 1.83877 c 1.81715,0 1.83878,0.006 1.83878,0.50759 0,0.49913 0.0288,0.50759 1.73061,0.50759 1.70177,0 1.73061,0.008 1.73061,0.50759 0,0.49912 0.0288,0.50758 1.73062,0.50758 h 1.73061 v 0.60911 0.6091 h 1.73061 c 1.70177,0 1.73061,0.008 1.73061,0.50759 v 0.50759 h 2.27143 2.27143 v 0.6091 c 0,0.60295 0.012,0.6091 1.18979,0.6091 1.1249,0 1.1898,0.0277 1.1898,0.50759 0,0.49913 0.0288,0.50759 1.73061,0.50759 1.70177,0 1.73061,0.008 1.73061,0.50759 0,0.49912 0.0288,0.50758 1.73062,0.50758 h 1.73061 v 0.60911 0.6091 h 1.73061 c 1.70177,0 1.73061,0.008 1.73061,0.50759 0,0.49913 0.0288,0.50759 1.73061,0.50759 1.70177,0 1.73062,0.008 1.73062,0.50758 0,0.4799 0.0649,0.50759 1.18979,0.50759 1.1249,0 1.1898,-0.0277 1.1898,-0.50759 v -0.50758 h 4.1102 4.1102 v -0.50759 -0.50759 h 4.65102 4.65102 v -0.6091 -0.60911 h 1.73062 1.73061 v -1.01517 c 0,-0.99262 -0.0144,-1.01518 -0.64898,-1.01518 h -0.64898 v -1.72579 c 0,-1.70549 -0.006,-1.7258 -0.54082,-1.7258 h -0.54081 v -3.75614 -3.75615 h -0.54082 -0.54082 v -2.23338 -2.23338 h -0.64897 -0.64898 v -4.36525 -4.36525 h -0.54082 -0.54082 v -2.63945 -2.63945 h -0.64898 -0.64898 v -3.35008 -3.35007 h -0.54081 -0.54082 v -2.13187 -2.13186 h -0.54082 -0.54081 v -2.23339 -2.23338 h -0.64898 -0.64898 v -2.13186 -2.13187 h -0.54082 -0.54081 v -2.13187 -2.131857 h -0.54082 -0.54082 v -2.74097 -2.74097 h -0.64898 -0.64898 v -4.974352 -4.974353 h -0.54081 c -0.43265,0 -0.54082,-0.101518 -0.54082,-0.507587 0,-0.40607 -0.10816,-0.507587 -0.54081,-0.507587 h -0.54082 v -2.131866 -2.131865 h -0.64898 c -0.64242,0 -0.64898,-0.01129 -0.64898,-1.116692 0,-1.055781 -0.0295,-1.116691 -0.54081,-1.116691 -0.51132,0 -0.54082,-0.06091 -0.54082,-1.116692 0,-1.105411 -0.007,-1.116691 -0.64898,-1.116691 h -0.64898 v 3.248557 3.248557 h 0.64898 0.64898 v 2.233383 2.233383 h 0.54082 0.54081 v 2.74097 2.74097 h 0.64898 0.64898 v 4.872835 4.872832 h -1.83877 c -1.81715,0 -1.83878,-0.006 -1.83878,-0.507584 0,-0.406069 -0.10816,-0.507587 -0.54082,-0.507587 -0.51132,0 -0.54081,-0.06091 -0.54081,-1.116691 0,-1.055781 -0.0295,-1.116692 -0.54082,-1.116692 -0.51132,0 -0.54082,-0.06091 -0.54082,-1.116691 0,-1.105411 -0.007,-1.116691 -0.64898,-1.116691 -0.54802,0 -0.64897,-0.07896 -0.64897,-0.507587 0,-0.40607 -0.10817,-0.507588 -0.54082,-0.507588 -0.51132,0 -0.54082,-0.06091 -0.54082,-1.116691 0,-1.055781 -0.0295,-1.116691 -0.54081,-1.116691 -0.53181,0 -0.54082,-0.02707 -0.54082,-1.624279 v -1.624278 h -0.64898 c -0.64242,0 -0.64898,-0.01129 -0.64898,-1.116692 0,-1.055781 -0.0295,-1.116691 -0.54082,-1.116691 h -0.54081 v -2.74097 -2.74097 h -0.54082 c -0.50476,0 -0.54081,-0.06768 -0.54081,-1.015174 0,-0.992615 -0.0144,-1.015174 -0.64898,-1.015174 -0.57688,0 -0.64898,-0.06768 -0.64898,-0.609105 0,-0.514354 -0.0841,-0.609104 -0.54082,-0.609104 -0.51132,0 -0.54082,-0.06091 -0.54082,-1.116692 0,-1.105411 -0.007,-1.116691 -0.64898,-1.116691 -0.63455,0 -0.64897,-0.02256 -0.64897,-1.015174 0,-0.947497 -0.0361,-1.015174 -0.54082,-1.015174 -0.51132,0 -0.54082,-0.06091 -0.54082,-1.116692 0,-1.055781 -0.0295,-1.116691 -0.54081,-1.116691 -0.53181,0 -0.54082,-0.02707 -0.54082,-1.624279 v -1.624278 h -0.64898 -0.64898 v -1.624279 c 0,-1.597208 -0.009,-1.624278 -0.54082,-1.624278 -0.51131,0 -0.54081,-0.06091 -0.54081,-1.116692 0,-1.055781 -0.0295,-1.116691 -0.54082,-1.116691 -0.43265,0 -0.54081,-0.101517 -0.54081,-0.507587 0,-0.428629 -0.10096,-0.507587 -0.64898,-0.507587 -0.64243,0 -0.64898,-0.01129 -0.64898,-1.116692 0,-1.055781 -0.0295,-1.116691 -0.54082,-1.116691 -0.43265,0 -0.54082,-0.101517 -0.54082,-0.507587 0,-0.40607 -0.10816,-0.507587 -0.54081,-0.507587 -0.45669,0 -0.54082,-0.09475 -0.54082,-0.609105 0,-0.541426 -0.0721,-0.609104 -0.64898,-0.609104 -0.54802,0 -0.64898,-0.07896 -0.64898,-0.507587 0,-0.40607 -0.10816,-0.507587 -0.54081,-0.507587 -0.45669,0 -0.54082,-0.09475 -0.54082,-0.609104 0,-0.541427 -0.0721,-0.609105 -0.64898,-0.609105 -0.54803,0 -0.64898,-0.07896 -0.64898,-0.507587 0,-0.40607 -0.10816,-0.507587 -0.54081,-0.507587 -0.53181,0 -0.54082,-0.02707 -0.54082,-1.624278 0,-1.597208 -0.009,-1.624279 -0.54082,-1.624279 h -0.54081 v -2.74097 -2.74097 h 0.54081 c 0.5318,0 0.54082,-0.02707 0.54082,-1.624278 0,-1.597208 0.009,-1.624279 0.54082,-1.624279 0.43265,0 0.54081,-0.101517 0.54081,-0.507587 0,-0.428629 0.10095,-0.507587 0.64898,-0.507587 0.57687,0 0.64898,-0.06768 0.64898,-0.609104 0,-0.514355 0.0841,-0.609105 0.54082,-0.609105 0.43265,0 0.54081,-0.101517 0.54081,-0.507587 0,-0.428629 0.10096,-0.507587 0.64898,-0.507587 0.54803,0 0.64898,-0.07896 0.64898,-0.507587 0,-0.406069 0.10817,-0.507587 0.54082,-0.507587 0.51132,0 0.54081,-0.06091 0.54081,-1.116691 v -1.116692 h -1.18979 c -1.17778,0 -1.1898,-0.0062 -1.1898,-0.609104 0,-0.514354 -0.0841,-0.609105 -0.54081,-0.609105 -0.43266,0 -0.54082,-0.101517 -0.54082,-0.507587 0,-0.428629 -0.10095,-0.507587 -0.64898,-0.507587 -0.54803,0 -0.64898,-0.07896 -0.64898,-0.507587 0,-0.473747 -0.0721,-0.507587 -1.08163,-0.507587 -1.0576,0 -1.08163,-0.01354 -1.08163,-0.609104 0,-0.541427 -0.0721,-0.609105 -0.64898,-0.609105 -0.63456,0 -0.64898,-0.02256 -0.64898,-1.015174 0,-0.947496 -0.0361,-1.015174 -0.54082,-1.015174 -0.45669,0 -0.54082,-0.09475 -0.54082,-0.609104 0,-0.514355 -0.0841,-0.609105 -0.54081,-0.609105 -0.43265,0 -0.54082,-0.101517 -0.54082,-0.507587 0,-0.428629 -0.10095,-0.507587 -0.64898,-0.507587 -0.64242,0 -0.64898,-0.01128 -0.64898,-1.116691 0,-1.055781 -0.0295,-1.116692 -0.54081,-1.116692 h -0.54082 v -3.248557 -3.248557 h 0.54082 c 0.5318,0 0.54081,-0.02707 0.54081,-1.624278 v -1.624279 h 0.64898 c 0.57688,0 0.64898,-0.06768 0.64898,-0.609104 0,-0.514355 0.0841,-0.609104 0.54082,-0.609104 0.43265,0 0.54082,-0.101518 0.54082,-0.507587 0,-0.40607 0.10816,-0.507588 0.54081,-0.507588 0.43265,0 0.54082,-0.101517 0.54082,-0.507587 0,-0.4798997 0.0649,-0.5075867 1.18979,-0.5075867 1.17778,0 1.1898,-0.0062 1.1898,-0.609104 V 8.6617719 h 5.19183 5.19184 v 0.6091044 c 0,0.541426 0.0721,0.609104 0.64898,0.609104 0.54803,0 0.64898,0.07896 0.64898,0.5075867 0,0.40607 0.10816,0.507587 0.54082,0.507587 0.43265,0 0.54081,0.101518 0.54081,0.507588 0,0.406069 0.10817,0.507587 0.54082,0.507587 0.45669,0 0.54082,0.09475 0.54082,0.609104 0,0.541426 0.0721,0.609104 0.64898,0.609104 0.64242,0 0.64898,0.01128 0.64898,1.116692 0,1.055781 0.0295,1.116691 0.54081,1.116691 0.5318,0 0.54082,0.02707 0.54082,1.624279 v 1.624278 h 0.64898 0.64898 v 2.131866 2.131865 h 0.54081 c 0.45669,0 0.54082,0.09475 0.54082,0.609105 0,0.514355 -0.0841,0.609104 -0.54082,0.609104 -0.43265,0 -0.54081,0.101518 -0.54081,0.507587 v 0.507587 h 2.27143 2.27142 v 0.507587 c 0,0.40607 0.10817,0.507587 0.54082,0.507587 0.43265,0 0.54082,-0.101517 0.54082,-0.507587 v -0.507587 h 2.37959 2.37959 v -0.507587 c 0,-0.499127 0.0288,-0.507587 1.73061,-0.507587 h 1.73061 v -0.609104 -0.609105 h 3.46123 3.46122 v 0.609105 0.609104 h 1.73061 c 1.70177,0 1.73062,0.0085 1.73062,0.507587 0,0.479901 0.0649,0.507587 1.18979,0.507587 1.1249,0 1.1898,0.02769 1.1898,0.507587 0,0.40607 0.10816,0.507587 0.54081,0.507587 0.45669,0 0.54082,0.09475 0.54082,0.609105 0,0.541426 0.0721,0.609104 0.64898,0.609104 0.54803,0 0.64898,0.07896 0.64898,0.507587 0,0.473747 0.0721,0.507587 1.08163,0.507587 1.00953,0 1.08163,0.03384 1.08163,0.507587 0,0.428629 0.10096,0.507587 0.64898,0.507587 0.57687,0 0.64898,0.06768 0.64898,0.609105 0,0.514354 0.0841,0.609104 0.54082,0.609104 0.43265,0 0.54081,0.101518 0.54081,0.507587 0,0.428629 0.10096,0.507587 0.64898,0.507587 0.54803,0 0.64898,0.07896 0.64898,0.507587 0,0.40607 0.10817,0.507587 0.54082,0.507587 0.45669,0 0.54082,0.09475 0.54082,0.609105 0,0.514354 0.0841,0.609104 0.54081,0.609104 0.43266,0 0.54082,0.101518 0.54082,0.507587 0,0.428629 0.10095,0.507587 0.64898,0.507587 0.57687,0 0.64898,0.06768 0.64898,0.609105 0,0.514354 0.0841,0.609104 0.54081,0.609104 0.43266,0 0.54082,0.101518 0.54082,0.507587 0,0.40607 0.10816,0.507587 0.54082,0.507587 0.43265,0 0.54081,0.101518 0.54081,0.507587 0,0.428629 0.10096,0.507587 0.64898,0.507587 0.57687,0 0.64898,0.06768 0.64898,0.609105 0,0.514354 0.0841,0.609104 0.54082,0.609104 0.50476,0 0.54081,0.06768 0.54081,1.015174 v 1.015174 h 1.1898 c 1.17778,0 1.1898,0.0062 1.1898,0.609105 0,0.514354 0.0841,0.609104 0.54081,0.609104 0.43266,0 0.54082,0.101517 0.54082,0.507587 0,0.428629 0.10095,0.507587 0.64898,0.507587 0.57687,0 0.64898,0.06768 0.64898,0.609105 0,0.514354 0.0841,0.609104 0.54081,0.609104 0.43266,0 0.54082,0.101517 0.54082,0.507587 0,0.40607 0.10816,0.507587 0.54082,0.507587 0.43265,0 0.54081,0.101517 0.54081,0.507587 0,0.428629 0.10096,0.507587 0.64898,0.507587 0.57687,0 0.64898,0.06768 0.64898,0.609105 0,0.514354 0.0841,0.609104 0.54082,0.609104 0.43265,0 0.54081,0.101517 0.54081,0.507587 0,0.40607 0.10817,0.507587 0.54082,0.507587 0.43265,0 0.54082,0.101517 0.54082,0.507587 0,0.428629 0.10095,0.507587 0.64898,0.507587 0.64242,0 0.64898,0.01129 0.64898,1.116692 0,1.055781 0.0295,1.116691 0.54081,1.116691 0.43266,0 0.54082,0.101517 0.54082,0.507587 0,0.40607 0.10816,0.507587 0.54081,0.507587 0.45669,0 0.54082,0.09475 0.54082,0.609105 0,0.541426 0.0721,0.609104 0.64898,0.609104 0.54803,0 0.64898,0.07896 0.64898,0.507587 0,0.40607 0.10816,0.507587 0.54082,0.507587 0.51131,0 0.54081,0.06091 0.54081,1.116691 v 1.116692 h 1.1898 c 1.1249,0 1.18979,0.02769 1.18979,0.507587 0,0.40607 0.10817,0.507587 0.54082,0.507587 0.45669,0 0.54082,0.09475 0.54082,0.609104 0,0.541427 0.0721,0.609105 0.64898,0.609105 0.54802,0 0.64898,0.07896 0.64898,0.507587 0,0.40607 0.10816,0.507587 0.54081,0.507587 0.51132,0 0.54082,0.06091 0.54082,1.116691 0,1.055781 0.0295,1.116692 0.54081,1.116692 0.43266,0 0.54082,0.101517 0.54082,0.507587 0,0.428629 0.10095,0.507587 0.64898,0.507587 0.57687,0 0.64898,0.06768 0.64898,0.609104 0,0.514355 0.0841,0.609105 0.54082,0.609105 0.43265,0 0.54081,0.101517 0.54081,0.507587 0,0.406069 0.10817,0.507587 0.54082,0.507587 0.43265,0 0.54081,0.101517 0.54081,0.507587 0,0.428629 0.10096,0.507587 0.64898,0.507587 0.57688,0 0.64898,0.06768 0.64898,0.609104 0,0.514354 0.0841,0.609105 0.54082,0.609105 h 0.54082 v 2.131865 2.131866 h 0.64898 0.64898 v 2.233383 2.233383 H 220.74 c -0.54803,0 -0.64898,0.07896 -0.64898,0.507587 0,0.499126 -0.0289,0.507587 -1.73062,0.507587 -1.70176,0 -1.73061,-0.0085 -1.73061,-0.507587 0,-0.40607 -0.10816,-0.507587 -0.54081,-0.507587 -0.51132,0 -0.54082,-0.06091 -0.54082,-1.116692 0,-1.105411 -0.007,-1.116691 -0.64898,-1.116691 -0.54803,0 -0.64898,0.07896 -0.64898,0.507587 v 0.507587 h -2.27143 -2.27143 v 0.609104 c 0,0.514354 0.0841,0.609105 0.54082,0.609105 0.43265,0 0.54082,0.101517 0.54082,0.507587 0,0.428628 0.10095,0.507587 0.64898,0.507587 0.54802,0 0.64898,0.07896 0.64898,0.507587 0,0.406069 0.10816,0.507587 0.54081,0.507587 0.45669,0 0.54082,0.09475 0.54082,0.609104 0,0.514354 0.0841,0.609105 0.54081,0.609105 0.43266,0 0.54082,0.101517 0.54082,0.507587 0,0.428628 0.10095,0.507587 0.64898,0.507587 0.54803,0 0.64898,0.07896 0.64898,0.507587 0,0.406069 0.10816,0.507587 0.54082,0.507587 0.45669,0 0.54081,0.09475 0.54081,0.609104 0,0.514354 0.0841,0.609105 0.54082,0.609105 0.43265,0 0.54081,0.101517 0.54081,0.507587 0,0.428628 0.10096,0.507587 0.64898,0.507587 0.57688,0 0.64898,0.06768 0.64898,0.609104 0,0.514354 0.0841,0.609105 0.54082,0.609105 0.43265,0 0.54082,0.101517 0.54082,0.507587 0,0.428628 0.10095,0.507587 0.64898,0.507587 0.64242,0 0.64898,0.01129 0.64898,1.116691 0,1.055781 0.0295,1.116692 0.54081,1.116692 0.43265,0 0.54082,0.101517 0.54082,0.507587 0,0.406069 0.10816,0.507587 0.54081,0.507587 0.43266,0 0.54082,0.101517 0.54082,0.507587 0,0.428628 0.10095,0.507587 0.64898,0.507587 0.57687,0 0.64898,0.06768 0.64898,0.609104 0,0.514354 0.0841,0.609104 0.54082,0.609104 0.43265,0 0.54081,0.101518 0.54081,0.507588 0,0.406069 0.10817,0.507587 0.54082,0.507587 0.43265,0 0.54081,0.101517 0.54081,0.507587 0,0.479901 0.0649,0.507587 1.1898,0.507587 1.17778,0 1.1898,0.0062 1.1898,0.609104 0,0.514354 0.0841,0.609104 0.54081,0.609104 0.43266,0 0.54082,0.101518 0.54082,0.507588 0,0.479901 0.0649,0.507587 1.18979,0.507587 h 1.1898 v -1.624279 c 0,-1.597208 -0.009,-1.624278 -0.54082,-1.624278 -0.5318,0 -0.54081,-0.02707 -0.54081,-1.624279 v -1.624278 h -0.64898 -0.64898 v -1.624279 c 0,-1.597208 -0.009,-1.624278 -0.54082,-1.624278 -0.5318,0 -0.54081,-0.02707 -0.54081,-1.624279 0,-1.597208 -0.009,-1.624278 -0.54082,-1.624278 -0.5318,0 -0.54082,-0.02707 -0.54082,-1.624279 V 80.73913 h -0.64898 -0.64898 v -1.624279 c 0,-1.597208 -0.009,-1.624278 -0.54081,-1.624278 -0.53446,0 -0.54082,-0.0203 -0.54082,-1.725796 0,-1.705493 -0.006,-1.725796 -0.54081,-1.725796 -0.53181,0 -0.54082,-0.02707 -0.54082,-1.624279 v -1.624278 h -0.64898 -0.64898 v -1.624279 c 0,-1.597207 -0.009,-1.624278 -0.54082,-1.624278 -0.5318,0 -0.54081,-0.02707 -0.54081,-1.624279 0,-1.597207 -0.009,-1.624278 -0.54082,-1.624278 -0.5318,0 -0.54081,-0.02707 -0.54081,-1.624279 V 61.044753 H 220.74 220.09102 v -2.74097 -2.74097 H 220.74 c 0.64242,0 0.64898,-0.01129 0.64898,-1.116691 0,-1.055781 0.0295,-1.116692 0.54081,-1.116692 0.43265,0 0.54082,-0.101517 0.54082,-0.507587 0,-0.40607 0.10816,-0.507587 0.54081,-0.507587 0.43266,0 0.54082,-0.101517 0.54082,-0.507587 0,-0.479901 0.0649,-0.507587 1.1898,-0.507587 1.17777,0 1.18979,-0.0062 1.18979,-0.609104 v -0.609105 h 3.46123 3.46122 v 0.609105 c 0,0.541426 0.0721,0.609104 0.64898,0.609104 0.54803,0 0.64898,0.07896 0.64898,0.507587 0,0.473747 0.0721,0.507587 1.08163,0.507587 h 1.08163 v 1.116691 c 0,1.105411 0.007,1.116692 0.64898,1.116692 h 0.64898 v 1.624278 c 0,1.597208 0.009,1.624279 0.54082,1.624279 h 0.54082 v 2.131865 2.131866 h 0.54081 c 0.53446,0 0.54082,0.0203 0.54082,1.725796 v 1.725796 h 0.64898 0.64898 v 2.131865 2.131866 h 0.54081 c 0.53181,0 0.54082,0.02707 0.54082,1.624278 0,1.597208 0.009,1.624279 0.54082,1.624279 h 0.54081 v 2.233383 2.233383 h 0.64898 0.64898 v 2.131865 2.131866 h 0.54082 c 0.5318,0 0.54081,0.02707 0.54081,1.624278 v 1.624279 h 0.64898 0.64898 v 2.233383 2.233383 h 0.54082 c 0.5318,0 0.54082,0.02707 0.54082,1.624278 0,1.597208 0.009,1.624278 0.54081,1.624278 h 0.54082 v 2.131866 2.131866 h 0.64898 0.64898 v 2.233379 2.233386 h 0.54081 c 0.53181,0 0.54082,0.0271 0.54082,1.62427 0,1.59721 0.009,1.62428 0.54082,1.62428 0.5318,0 0.54081,0.0271 0.54081,1.62428 v 1.62428 h 0.64898 0.64898 v 2.13187 2.13186 h 0.54082 0.54081 v 2.23338 2.23339 h 0.64898 0.64898 v 1.62428 c 0,1.5972 0.009,1.62427 0.54082,1.62427 h 0.54082 v 2.13187 2.13187 h 0.54081 c 0.5318,0 0.54082,0.0271 0.54082,1.62427 v 1.62428 h 0.64898 0.64898 v 2.23339 2.23338 h 0.54081 0.54082 v 2.13186 2.13187 h 0.54082 c 0.53445,0 0.54081,0.0203 0.54081,1.7258 v 1.72579 h 0.64898 0.64898 v 2.13187 2.13186 h 0.54082 c 0.5318,0 0.54081,0.0271 0.54081,1.62428 0,1.59721 0.009,1.62428 0.54082,1.62428 h 0.54082 v 2.23338 2.23338 h 0.64898 0.64898 v 2.13187 2.13187 h 0.54081 c 0.5318,0 0.54082,0.0271 0.54082,1.62427 v 1.62428 h 0.64898 0.64898 v 2.23339 2.23338 h 0.54081 c 0.53181,0 0.54082,0.0271 0.54082,1.62428 0,1.59721 0.009,1.62428 0.54082,1.62428 h 0.54081 v 2.13186 2.13187 h 0.64898 0.64898 v 2.74097 2.74097 h -1.18979 c -1.1249,0 -1.1898,0.0277 -1.1898,0.50758 0,0.49913 -0.0288,0.50759 -1.73061,0.50759 h -1.73061 v 0.60911 0.6091 h -2.3796 -2.37959 v -1.11669 c 0,-1.05578 -0.0295,-1.11669 -0.54081,-1.11669 -0.51132,0 -0.54082,-0.0609 -0.54082,-1.11669 0,-1.05579 -0.0295,-1.1167 -0.54082,-1.1167 -0.5318,0 -0.54081,-0.0271 -0.54081,-1.62427 v -1.62428 h -0.64898 -0.64898 v -1.62428 c 0,-1.59721 -0.009,-1.62428 -0.54082,-1.62428 -0.5318,0 -0.54081,-0.0271 -0.54081,-1.62428 0,-1.59721 -0.009,-1.62428 -0.54082,-1.62428 h -0.54082 v -2.13186 -2.13187 h -0.64898 c -0.64242,0 -0.64898,-0.0113 -0.64898,-1.11669 0,-1.05578 -0.0295,-1.11669 -0.54081,-1.11669 h -0.54082 v -2.23338 -2.23339 h -0.64898 -0.64898 v -1.62428 c 0,-1.5972 -0.009,-1.62427 -0.54081,-1.62427 -0.53181,0 -0.54082,-0.0271 -0.54082,-1.62428 0,-1.59721 -0.009,-1.62428 -0.54082,-1.62428 -0.5318,0 -0.54081,-0.0271 -0.54081,-1.62428 v -1.62428 h -0.64898 -0.64898 v -1.62428 c 0,-1.5972 -0.009,-1.62428 -0.54082,-1.62428 -0.5318,0 -0.54081,-0.0271 -0.54081,-1.62427 0,-1.59721 -0.009,-1.62428 -0.54082,-1.62428 -0.5318,0 -0.54082,-0.0271 -0.54082,-1.62428 v -1.62428 h -0.64898 c -0.57687,0 -0.64898,-0.0677 -0.64898,-0.6091 0,-0.51436 -0.0841,-0.60911 -0.54081,-0.60911 -0.43265,0 -0.54082,-0.10152 -0.54082,-0.50758 0,-0.42863 -0.10095,-0.50759 -0.64898,-0.50759 -0.54802,0 -0.64898,-0.079 -0.64898,-0.50759 0,-0.40607 -0.10816,-0.50759 -0.54081,-0.50759 -0.45669,0 -0.54082,-0.0948 -0.54082,-0.6091 0,-0.51435 -0.0841,-0.6091 -0.54082,-0.6091 -0.43265,0 -0.54081,-0.10152 -0.54081,-0.50759 0,-0.4799 -0.0649,-0.50759 -1.1898,-0.50759 -1.17777,0 -1.18979,-0.006 -1.18979,-0.6091 0,-0.51436 -0.0841,-0.60911 -0.54082,-0.60911 -0.43265,0 -0.54082,-0.10152 -0.54082,-0.50758 0,-0.42863 -0.10095,-0.50759 -0.64898,-0.50759 -0.54802,0 -0.64898,-0.079 -0.64898,-0.50759 0,-0.47375 -0.0721,-0.50759 -1.08163,-0.50759 -1.05759,0 -1.08163,-0.0135 -1.08163,-0.6091 0,-0.54143 -0.0721,-0.6091 -0.64898,-0.6091 -0.54803,0 -0.64898,-0.079 -0.64898,-0.50759 0,-0.4799 -0.0649,-0.50759 -1.1898,-0.50759 -1.12489,0 -1.18979,-0.0277 -1.18979,-0.50759 0,-0.40607 -0.10816,-0.50758 -0.54082,-0.50758 -0.45669,0 -0.54081,-0.0947 -0.54081,-0.60911 0,-0.51435 -0.0841,-0.6091 -0.54082,-0.6091 -0.43265,0 -0.54082,-0.10152 -0.54082,-0.50759 0,-0.4799 -0.0649,-0.50759 -1.18979,-0.50759 -1.1249,0 -1.1898,-0.0277 -1.1898,-0.50758 0,-0.40607 -0.10816,-0.50759 -0.54081,-0.50759 -0.51132,0 -0.54082,-0.0609 -0.54082,-1.11669 0,-1.10541 -0.007,-1.11669 -0.64898,-1.11669 -0.57687,0 -0.64898,-0.0677 -0.64898,-0.60911 0,-0.51435 -0.0841,-0.6091 -0.54082,-0.6091 -0.43265,0 -0.54081,-0.10152 -0.54081,-0.50759 0,-0.40607 -0.10817,-0.50759 -0.54082,-0.50759 -0.51132,0 -0.54081,-0.0609 -0.54081,-1.11669 0,-1.10541 -0.007,-1.11669 -0.64898,-1.11669 -0.54803,0 -0.64898,-0.079 -0.64898,-0.50759 0,-0.40607 -0.10817,-0.50758 -0.54082,-0.50758 -0.43265,0 -0.54082,-0.10152 -0.54082,-0.50759 0,-0.42863 -0.10095,-0.50759 -0.64898,-0.50759 -0.57687,0 -0.64898,-0.0677 -0.64898,-0.6091 0,-0.51436 -0.0841,-0.60911 -0.54081,-0.60911 -0.43265,0 -0.54082,-0.10151 -0.54082,-0.50758 0,-0.4799 -0.0649,-0.50759 -1.18979,-0.50759 -1.17778,0 -1.1898,-0.006 -1.1898,-0.6091 0,-0.51436 -0.0841,-0.60911 -0.54082,-0.60911 -0.43265,0 -0.54081,-0.10152 -0.54081,-0.50759 0,-0.40607 -0.10816,-0.50758 -0.54082,-0.50758 -0.43265,0 -0.54081,-0.10152 -0.54081,-0.50759 0,-0.42863 -0.10096,-0.50759 -0.64898,-0.50759 -0.57688,0 -0.64898,-0.0677 -0.64898,-0.6091 0,-0.59557 -0.024,-0.60911 -1.08164,-0.60911 -1.00952,0 -1.08163,-0.0338 -1.08163,-0.50758 0,-0.42863 -0.10095,-0.50759 -0.64898,-0.50759 -0.54802,0 -0.64898,-0.079 -0.64898,-0.50759 0,-0.40607 -0.10816,-0.50758 -0.54081,-0.50758 -0.45669,0 -0.54082,-0.0948 -0.54082,-0.60911 0,-0.54142 -0.0721,-0.6091 -0.64898,-0.6091 -0.54803,0 -0.64898,-0.079 -0.64898,-0.507586 0,-0.47375 -0.0721,-0.50759 -1.08163,-0.50759 -1.00953,0 -1.08163,-0.0338 -1.08163,-0.507584 0,-0.428628 -0.10096,-0.507587 -0.64898,-0.507587 -0.57687,0 -0.64898,-0.06768 -0.64898,-0.609104 v -0.609104 h -1.73062 c -1.70176,0 -1.73061,-0.0085 -1.73061,-0.507587 0,-0.473748 -0.0721,-0.507588 -1.08163,-0.507588 -1.0576,0 -1.08163,-0.01354 -1.08163,-0.609104 0,-0.602952 -0.012,-0.609104 -1.1898,-0.609104 -1.1249,0 -1.18979,-0.02769 -1.18979,-0.507587 0,-0.428629 -0.10096,-0.507587 -0.64898,-0.507587 -0.54803,0 -0.64898,-0.07896 -0.64898,-0.507587 0,-0.473748 -0.0721,-0.507588 -1.08164,-0.507588 h -1.08163 v 13.603327 13.60333 h 0.54082 0.54081 v 5.48194 5.48194 h 0.54082 0.54082 v 6.49712 6.49711 h 0.64898 0.64898 v 2.13187 2.13186 h 0.54081 c 0.51132,0 0.54082,0.0609 0.54082,1.11669 0,1.10542 0.007,1.1167 0.64898,1.1167 h 0.64898 v 3.24855 3.24856 h 1.08163 1.08163 v 1.7258 c 0,1.70549 -0.006,1.72579 -0.54081,1.72579 h -0.54082 v 2.63945 2.63946 h 1.1898 1.18979 v 2.74097 2.74097 h 1.08163 c 1.0576,0 1.08164,0.0135 1.08164,0.6091 v 0.60911 h 2.37959 2.37959 v 0.50758 c 0,0.49913 0.0288,0.50759 1.73061,0.50759 1.70177,0 1.73061,0.008 1.73061,0.50759 0,0.49912 0.0289,0.50758 1.73062,0.50758 h 1.73061 v 0.60911 0.6091 h 1.73061 c 1.70177,0 1.73061,0.008 1.73061,0.50759 0,0.49913 0.0289,0.50759 1.73061,0.50759 1.70177,0 1.73062,0.008 1.73062,0.50758 0,0.49913 0.0288,0.50759 1.73061,0.50759 h 1.73061 v 0.60911 0.6091 h 1.73061 c 1.70177,0 1.73061,0.008 1.73061,0.50759 v 0.50758 h 2.3796 2.37959 v 0.60911 0.6091 h 2.27143 2.27142 v 0.50759 0.50759 h 2.3796 2.37959 v 0.50758 c 0,0.4799 -0.0649,0.50759 -1.1898,0.50759 -1.17777,0 -1.18979,0.006 -1.18979,0.60911 v 0.6091 h -3.46123 -3.46122 z m 2.37959,-86.086761 c 0,-0.541427 -0.0721,-0.609104 -0.64898,-0.609104 -0.57687,0 -0.64898,0.06768 -0.64898,0.609104 0,0.541427 0.0721,0.609104 0.64898,0.609104 0.57687,0 0.64898,-0.06768 0.64898,-0.609104 z m -24.4449,-21.826242 c 0,-0.40607 -0.10816,-0.507587 -0.54081,-0.507587 -0.51132,0 -0.54082,-0.06091 -0.54082,-1.116692 0,-1.105411 -0.007,-1.116691 -0.64898,-1.116691 -0.54802,0 -0.64898,-0.07896 -0.64898,-0.507587 0,-0.40607 -0.10816,-0.507587 -0.54081,-0.507587 -0.45669,0 -0.54082,-0.09475 -0.54082,-0.609105 0,-0.541427 -0.0721,-0.609104 -0.64898,-0.609104 -0.63456,0 -0.64898,-0.02256 -0.64898,-1.015174 0,-0.947497 -0.036,-1.015174 -0.54082,-1.015174 -0.45668,0 -0.54081,-0.09475 -0.54081,-0.609105 0,-0.514354 -0.0841,-0.609104 -0.54082,-0.609104 -0.50476,0 -0.54081,-0.06768 -0.54081,-1.015174 0,-0.992615 -0.0144,-1.015174 -0.64898,-1.015174 h -0.64898 v -1.725796 -1.725796 h -1.08164 c -1.00952,0 -1.08163,-0.03384 -1.08163,-0.507587 0,-0.479901 -0.0649,-0.507587 -1.18979,-0.507587 -1.1249,0 -1.1898,-0.02769 -1.1898,-0.507587 0,-0.479901 -0.0649,-0.507587 -1.1898,-0.507587 -1.17777,0 -1.18979,-0.0062 -1.18979,-0.609105 0,-0.514354 -0.0841,-0.609104 -0.54082,-0.609104 -0.43265,0 -0.54081,-0.101517 -0.54081,-0.507587 0,-0.479901 -0.0649,-0.507587 -1.1898,-0.507587 -1.1249,0 -1.1898,-0.02769 -1.1898,-0.507587 0,-0.40607 -0.10816,-0.507587 -0.54081,-0.507587 -0.45669,0 -0.54082,-0.09475 -0.54082,-0.609105 0,-0.541426 -0.0721,-0.609104 -0.64898,-0.609104 -0.57687,0 -0.64898,0.06768 -0.64898,0.609104 0,0.541427 0.0721,0.609105 0.64898,0.609105 0.54803,0 0.64898,0.07896 0.64898,0.507587 0,0.40607 0.10817,0.507587 0.54082,0.507587 0.43265,0 0.54081,0.101517 0.54081,0.507587 0,0.40607 0.10817,0.507587 0.54082,0.507587 0.45669,0 0.54082,0.09475 0.54082,0.609104 0,0.541427 0.0721,0.609105 0.64898,0.609105 0.54802,0 0.64898,0.07896 0.64898,0.507587 0,0.479901 0.0649,0.507587 1.18979,0.507587 1.1249,0 1.1898,0.02769 1.1898,0.507587 0,0.40607 0.10816,0.507587 0.54081,0.507587 0.45669,0 0.54082,0.09475 0.54082,0.609104 0,0.514355 0.0841,0.609105 0.54082,0.609105 0.5318,0 0.54081,0.02707 0.54081,1.624278 v 1.624279 h 0.64898 c 0.54803,0 0.64898,0.07896 0.64898,0.507587 0,0.406069 0.10817,0.507587 0.54082,0.507587 0.45669,0 0.54081,0.09475 0.54081,0.609104 0,0.514354 0.0841,0.609105 0.54082,0.609105 0.43265,0 0.54082,0.101517 0.54082,0.507587 0,0.428629 0.10095,0.507587 0.64898,0.507587 0.54802,0 0.64898,0.07896 0.64898,0.507587 0,0.406069 0.10816,0.507587 0.54081,0.507587 0.45669,0 0.54082,0.09475 0.54082,0.609104 0,0.514354 0.0841,0.609105 0.54081,0.609105 0.43266,0 0.54082,0.101517 0.54082,0.507587 0,0.428629 0.10095,0.507587 0.64898,0.507587 0.54803,0 0.64898,0.07896 0.64898,0.507587 0,0.406069 0.10816,0.507587 0.54082,0.507587 0.45669,0 0.54081,0.09475 0.54081,0.609104 0,0.541427 0.0721,0.609105 0.64898,0.609105 0.54803,0 0.64898,0.07896 0.64898,0.507587 0,0.406069 0.10816,0.507587 0.54082,0.507587 0.43265,0 0.54081,-0.101518 0.54081,-0.507587 z m -52.35101,-4.365249 c 0,-0.514354 -0.0841,-0.609104 -0.54082,-0.609104 -0.45669,0 -0.54081,0.09475 -0.54081,0.609104 0,0.514354 0.0841,0.609105 0.54081,0.609105 0.45669,0 0.54082,-0.09475 0.54082,-0.609105 z M 131.8298,27.239457 c 0,-1.105412 0.007,-1.116692 0.64898,-1.116692 0.54803,0 0.64898,-0.07896 0.64898,-0.507587 0,-0.4799 0.0649,-0.507587 1.1898,-0.507587 1.12489,0 1.18979,0.02769 1.18979,0.507587 0,0.473748 0.0721,0.507587 1.08164,0.507587 1.00952,0 1.08163,-0.03384 1.08163,-0.507587 0,-0.4799 0.0649,-0.507587 1.18979,-0.507587 1.1249,0 1.1898,-0.02769 1.1898,-0.507587 0,-0.406069 0.10816,-0.507587 0.54082,-0.507587 0.51131,0 0.54081,-0.06091 0.54081,-1.116691 0,-1.055781 -0.0295,-1.116692 -0.54081,-1.116692 -0.45669,0 -0.54082,-0.09475 -0.54082,-0.609104 0,-0.602952 -0.012,-0.609105 -1.1898,-0.609105 -1.17777,0 -1.18979,0.0062 -1.18979,0.609105 v 0.609104 h -2.27143 -2.27143 v 0.507587 c 0,0.479901 -0.0649,0.507587 -1.18979,0.507587 -1.17778,0 -1.1898,0.0062 -1.1898,0.609105 0,0.514355 -0.0841,0.609104 -0.54082,0.609104 -0.43265,0 -0.54081,0.101518 -0.54081,0.507587 0,0.428629 -0.10096,0.507587 -0.64898,0.507587 -0.64243,0 -0.64898,0.01128 -0.64898,1.116692 0,1.105411 0.007,1.116691 0.64898,1.116691 0.54802,0 0.64898,0.07896 0.64898,0.507587 0,0.473747 0.0721,0.507587 1.08163,0.507587 h 1.08163 z"
       style="fill:#000000;stroke-width:0.209575" />
  </g>
</svg>
