<?xml version="1.0" encoding="UTF-8" standalone="no"?>
<!-- Created with Inkscape (http://www.inkscape.org/) -->

<svg
   version="1.1"
   id="svg224"
   width="311.95459"
   height="286.60919"
   viewBox="0 0 311.95459 286.60919"
   sodipodi:docname="ГРУППА ДОБАВИТЬ.svg"
   inkscape:version="1.2.1 (9c6d41e410, 2022-07-14)"
   xml:space="preserve"
   xmlns:inkscape="http://www.inkscape.org/namespaces/inkscape"
   xmlns:sodipodi="http://sodipodi.sourceforge.net/DTD/sodipodi-0.dtd"
   xmlns="http://www.w3.org/2000/svg"
   xmlns:svg="http://www.w3.org/2000/svg"><defs
     id="defs228" /><sodipodi:namedview
     id="namedview226"
     pagecolor="#ffffff"
     bordercolor="#111111"
     borderopacity="1"
     inkscape:showpageshadow="0"
     inkscape:pageopacity="0"
     inkscape:pagecheckerboard="1"
     inkscape:deskcolor="#d1d1d1"
     showgrid="false"
     inkscape:zoom="1.0557862"
     inkscape:cx="-100.39911"
     inkscape:cy="185.17007"
     inkscape:window-width="1920"
     inkscape:window-height="1018"
     inkscape:window-x="-6"
     inkscape:window-y="-6"
     inkscape:window-maximized="1"
     inkscape:current-layer="g230" /><g
     inkscape:groupmode="layer"
     inkscape:label="Image"
     id="g230"
     transform="translate(84.131999,-129.12997)"><g
       id="g7182"
       transform="translate(0.94716146,-1.8943234)"><path
         style="fill:#fefefe;stroke-width:0.967708"
         d="m 50.04998,412.6153 c -11.146875,-1.7322 -23.035676,-4.70438 -32.98037,-8.24501 -9.8053198,-3.49101 -22.7741623,-9.50454 -25.6936486,-11.91389 -1.0765238,-0.88842 -2.8630434,-1.8803 -3.9700304,-2.20418 -2.089666,-0.61136 -2.371427,-0.78482 -6.958716,-4.28378 -1.526436,-1.16429 -4.212683,-3.16213 -5.969437,-4.43965 -4.361513,-3.17172 -17.357223,-14.86568 -16.52049,-14.86568 0.371365,0 -0.595456,-1.08553 -2.148489,-2.41229 -1.553032,-1.32676 -2.823696,-2.75493 -2.823696,-3.17371 0,-0.41878 -1.020514,-1.5773 -2.267808,-2.57449 -1.247295,-0.99718 -2.267809,-2.4957 -2.267809,-3.33002 0,-0.83432 -0.680343,-1.51695 -1.511873,-1.51695 -0.83153,0 -1.511872,-0.79147 -1.511872,-1.75881 0,-0.96734 -0.680343,-1.99946 -1.511873,-2.2936 -0.83153,-0.29414 -1.511872,-1.17506 -1.511872,-1.95762 0,-0.78254 -0.453562,-1.42281 -1.007915,-1.42281 -0.554354,0 -1.007915,-0.80633 -1.007915,-1.79184 0,-0.98552 -0.680343,-2.41899 -1.511873,-3.1855 -0.83153,-0.76651 -1.511872,-1.8591 -1.511872,-2.42798 0,-0.56888 -0.873797,-1.89889 -1.941771,-2.9556 -1.067974,-1.0567 -1.699791,-2.50255 -1.404036,-3.21301 0.295753,-0.71046 0.03565,-1.29174 -0.578018,-1.29174 -0.613663,0 -1.11575,-0.8362 -1.11575,-1.85821 0,-1.02202 -0.48033,-1.85821 -1.0674,-1.85821 -0.587069,0 -0.784931,-0.4213 -0.439694,-0.93623 0.345237,-0.51493 -0.06229,-1.57227 -0.905606,-2.34965 -0.843319,-0.77738 -1.277273,-2.02847 -0.964342,-2.78019 0.312933,-0.75172 0.102918,-1.36677 -0.466699,-1.36677 -0.909271,0 -2.589758,-4.375 -2.676596,-6.96828 -0.01711,-0.51101 -0.425483,-1.19371 -0.907493,-1.51711 -0.482011,-0.3234 -0.850611,-2.30937 -0.819112,-4.41325 0.0315,-2.10388 -0.352241,-3.82524 -0.852754,-3.82524 -1.050875,0 -2.498887,-8.32667 -2.221613,-12.77519 0.103515,-1.66078 -0.254994,-3.01959 -0.796688,-3.01959 -0.598893,0 -0.984899,-5.64415 -0.984899,-14.40112 0,-8.33934 0.397664,-14.40113 0.944739,-14.40113 0.519608,0 0.920696,-1.60595 0.891309,-3.56879 -0.08131,-5.43098 1.263393,-13.15509 2.290193,-13.15509 0.502334,0 0.913335,-1.67239 0.913335,-3.71642 0,-2.04403 0.473444,-3.71642 1.052098,-3.71642 0.578655,0 0.941348,-0.52262 0.805985,-1.16138 -0.434828,-2.05189 1.224292,-8.12966 2.219248,-8.12966 0.529234,0 0.962244,-1.01538 0.962244,-2.2564 0,-1.24102 0.680342,-2.88354 1.511872,-3.65005 0.83153,-0.76652 1.511873,-2.25972 1.511873,-3.31823 0,-1.05852 0.453561,-1.92458 1.007915,-1.92458 0.554353,0 0.918053,-0.31357 0.808221,-0.69683 -0.363378,-1.26801 1.326473,-4.8778 2.283445,-4.8778 0.516996,0 0.939994,-0.65701 0.939994,-1.46002 0,-0.80301 0.680342,-2.08716 1.511872,-2.85368 0.83153,-0.76651 1.511873,-2.19998 1.511873,-3.1855 0,-0.98551 0.453561,-1.79184 1.007915,-1.79184 0.554353,0 1.007915,-0.64027 1.007915,-1.42282 0,-0.78255 0.680342,-1.66347 1.511872,-1.95761 0.83153,-0.29414 1.511873,-1.32626 1.511873,-2.2936 0,-0.96735 0.680342,-1.75881 1.511872,-1.75881 0.83153,0 1.511873,-0.68373 1.511873,-1.51939 0,-0.83567 1.157273,-2.50806 2.571717,-3.71642 1.414445,-1.20836 2.220486,-2.19703 1.791205,-2.19703 -0.429282,0 0.709247,-1.25429 2.530064,-2.78731 1.820818,-1.53302 2.956964,-2.78731 2.524769,-2.78731 -0.889715,0 11.769464,-11.32005 16.62424,-14.86568 1.749217,-1.27752 4.429298,-3.27536 5.955734,-4.43965 1.526436,-1.16429 3.253656,-2.41858 3.838267,-2.78732 2.789242,-1.75926 5.119179,-3.06049 6.4964344,-3.62815 0.8315299,-0.34273 1.7386534,-0.86692 2.0158301,-1.16487 0.2771766,-0.29795 2.9985471,-1.71356 6.04749,-3.14581 3.048943,-1.43225 6.2238753,-2.97602 7.0554051,-3.43061 1.3369489,-0.73089 5.2617194,-2.30038 11.5910224,-4.63518 16.108296,-5.94213 29.779343,-8.40853 49.891793,-9.00101 19.01854,-0.56025 34.582473,1.31939 51.652973,6.2381 12.10111,3.48683 35.49541,14.31207 44.5921,20.63409 6.63761,4.61302 23.8509,19.77223 28.24521,24.87469 7.03917,8.17355 8.5545,10.1305 8.5545,11.0476 0,0.56522 0.34601,1.02768 0.76891,1.02768 0.4229,0 1.21663,0.7967 1.76385,1.77044 6.83988,12.17118 13.59388,25.06187 13.59388,25.94532 0,0.61143 0.39788,1.83769 0.88418,2.72502 4.4175,8.06035 9.64036,38.03406 8.78059,50.39132 -1.09109,15.68205 -5.28934,36.43415 -8.65242,42.76931 -0.41582,0.78329 -1.07651,2.76925 -1.46823,4.41325 -0.39172,1.644 -1.12973,2.98909 -1.64004,2.98909 -0.5103,0 -0.92783,0.49398 -0.92783,1.09774 0,0.89962 -3.75616,8.12973 -10.57013,20.34611 -0.54722,0.98107 -1.34095,1.78377 -1.76385,1.78377 -0.4229,0 -0.76891,0.46245 -0.76891,1.02768 0,0.91793 -1.30964,2.61082 -8.54651,11.04759 -4.27449,4.98323 -22.66091,21.12035 -28.58597,25.08891 -13.54041,9.06929 -35.38911,18.59762 -51.24568,22.34851 -19.505869,4.61413 -44.468426,5.88777 -62.0001,3.16338 z m 36.98782,-5.54896 c 16.46125,-1.26325 33.88934,-5.74312 49.89179,-12.8246 5.49015,-2.42953 21.99149,-11.70312 24.27454,-13.64206 3.77848,-3.20895 8.16366,-6.02355 9.04724,-5.8069 0.52104,0.12775 0.94733,-0.24241 0.94733,-0.82257 0,-1.31869 4.75063,-5.44889 6.26741,-5.44889 0.61819,0 0.84076,-0.26106 0.49462,-0.58014 -0.34614,-0.31907 0.93895,-1.98408 2.85576,-3.7 1.91681,-1.71593 3.48511,-3.35626 3.48511,-3.64519 0,-0.28894 1.12653,-1.48773 2.5034,-2.664 1.37686,-1.17625 2.1904,-2.42716 1.80786,-2.7798 -0.38254,-0.35263 0.30008,-0.88114 1.51693,-1.17447 1.21685,-0.29334 1.98661,-0.87019 1.71057,-1.2819 -0.27604,-0.41172 0.18262,-1.37956 1.01925,-2.15077 0.83662,-0.77121 1.52114,-1.82939 1.52114,-2.3515 0,-0.52212 0.62978,-1.28365 1.39952,-1.6923 0.76973,-0.40864 1.59041,-1.57919 1.82371,-2.6012 0.2333,-1.02202 0.9642,-1.75369 1.62423,-1.62593 0.67528,0.1307 1.20003,-0.78342 1.20003,-2.09049 0,-1.27752 0.45356,-2.32276 1.00791,-2.32276 0.55436,0 1.00792,-0.80633 1.00792,-1.79184 0,-0.98552 0.68034,-2.41899 1.51187,-3.1855 0.83153,-0.76652 1.51187,-2.01584 1.51187,-2.77626 0,-0.76043 0.50538,-1.53788 1.12307,-1.72768 0.61769,-0.1898 1.26539,-1.54018 1.43934,-3.00085 0.17393,-1.46068 0.73703,-2.9081 1.25132,-3.21649 0.5143,-0.3084 1.24783,-2.12858 1.63009,-4.04485 0.38227,-1.91628 1.12803,-3.48415 1.65726,-3.48415 0.52923,0 0.96224,-1.46334 0.96224,-3.25186 0,-1.78853 0.40505,-3.25187 0.90008,-3.25187 0.49505,0 1.17019,-0.64886 1.50033,-1.44191 0.40277,-0.96752 0.18953,-1.22836 -0.64809,-0.7928 -0.97377,0.50632 -0.97123,0.37388 0.0116,-0.60212 0.69294,-0.68817 1.25989,-3.2581 1.25989,-5.71093 0,-2.45284 0.40842,-4.4597 0.90759,-4.4597 0.49917,0 0.96299,-4.49455 1.03072,-9.98788 0.0686,-5.5663 0.55923,-10.12497 1.10824,-10.29757 1.27765,-0.40167 1.28157,-3.62276 0.005,-4.02613 -0.53929,-0.17033 -1.06985,-4.59519 -1.1792,-9.83302 -0.10935,-5.23783 -0.57538,-9.52332 -1.03563,-9.52332 -0.46024,0 -0.83681,-2.09049 -0.83681,-4.64553 0,-2.81545 -0.44568,-4.64552 -1.13132,-4.64552 -0.81986,0 -0.81029,-0.35659 0.0348,-1.29522 0.9018,-1.00164 0.78698,-1.64472 -0.50653,-2.83709 -0.91996,-0.84802 -1.67265,-2.56471 -1.67265,-3.81485 0,-1.25015 -0.35701,-2.27299 -0.79333,-2.27299 -0.43634,0 -1.11455,-1.75254 -1.50713,-3.89455 -0.39258,-2.14199 -1.32031,-4.45362 -2.0616,-5.13696 -0.74129,-0.68333 -1.11421,-1.80355 -0.82871,-2.48939 0.28551,-0.68583 -0.17113,-1.88323 -1.01475,-2.66088 -0.8436,-0.77765 -1.66342,-1.97137 -1.82181,-2.65271 -0.15838,-0.68134 -0.85492,-1.80125 -1.54786,-2.48867 -0.69294,-0.68743 -1.25989,-2.0562 -1.25989,-3.04172 0,-0.98551 -0.45356,-1.79184 -1.00792,-1.79184 -0.55435,0 -1.00791,-1.06992 -1.00791,-2.3776 0,-1.35958 -0.4346,-2.12999 -1.01503,-1.79932 -0.55828,0.31805 -1.32663,-0.17989 -1.70746,-1.10654 -0.38083,-0.92666 -1.28475,-2.23731 -2.00871,-2.91257 -0.72396,-0.67526 -1.31629,-1.82503 -1.31629,-2.55504 0,-0.73001 -0.45356,-1.32729 -1.00792,-1.32729 -0.55435,0 -1.00791,-0.78743 -1.00791,-1.74985 0,-1.02301 -0.92369,-1.97251 -2.22379,-2.28591 -1.22309,-0.29483 -1.91081,-0.82458 -1.52827,-1.1772 0.38254,-0.35263 -0.431,-1.60354 -1.80786,-2.77981 -1.37687,-1.17626 -2.5034,-2.40335 -2.5034,-2.72685 0,-0.32352 -1.57143,-1.87066 -3.49206,-3.43811 -1.92065,-1.56744 -3.25456,-3.20415 -2.96427,-3.63713 0.2903,-0.43298 0.0708,-0.78723 -0.48766,-0.78723 -1.43374,0 -6.15891,-4.18044 -6.15891,-5.4489 0,-0.58016 -0.42629,-0.95031 -0.94733,-0.82256 -0.89054,0.21835 -5.39377,-2.68009 -9.03172,-5.81313 -2.32048,-1.99843 -14.7401,-9.18415 -21.26631,-12.30423 -39.9479,-19.09848 -88.730641,-19.89943 -129.517081,-2.12652 -17.7578497,7.73808 -31.291628,16.68087 -43.921236,29.02209 -7.510041,7.33856 -16.049707,17.33737 -16.049707,18.79208 0,0.54982 -0.346009,0.99968 -0.76891,0.99968 -0.858836,0 -0.852793,-0.0101 -7.624575,12.70075 -2.676181,5.02326 -5.510942,10.24296 -6.299469,11.59932 -0.788527,1.35636 -1.433686,3.31766 -1.433686,4.35842 0,1.04076 -0.453562,2.15069 -1.007915,2.46651 -0.554354,0.31582 -1.007915,1.72022 -1.007915,3.12088 0,1.40067 -0.446516,2.95826 -0.992256,3.46133 -0.545741,0.50307 -1.432814,3.40885 -1.971274,6.45727 -0.53846,3.04844 -1.489301,8.0512 -2.11298,11.11724 -0.694669,3.41503 -0.954132,11.6935 -0.669759,21.36941 0.448478,15.2597 1.404868,21.3738 5.304686,33.91232 0.874155,2.81054 1.938869,6.36741 2.366031,7.90415 0.427162,1.53675 1.266079,3.62724 1.864261,4.64553 0.59818,1.01829 3.013424,5.61432 5.367207,10.21338 2.353783,4.59907 4.853701,8.99002 5.555374,9.75767 0.701673,0.76766 1.955454,2.60338 2.78618,4.07941 4.924242,8.74934 22.820146,26.20547 36.669642,35.76853 7.4076656,5.11498 23.900673,13.2669 34.914059,17.2568 9.574901,3.46878 27.331561,7.01771 39.406857,7.87604 9.907734,0.70426 11.973053,0.67096 26.226926,-0.4229 z M -0.27541808,333.44762 c -1.25371522,-1.47361 -1.21806532,-1.50648 0.38054839,-0.35079 0.97011819,0.70133 1.76385129,1.433 1.76385129,1.62593 0,0.76469 -0.8276897,0.27252 -2.14439968,-1.27514 z"
         id="path7272" /><path
         style="fill:#fafafa;stroke-width:0.967708"
         d="m 215.00156,239.31396 c -0.3654,-0.545 -0.4482,-1.19018 -0.18399,-1.43373 0.26419,-0.24354 0.74894,0.20237 1.07721,0.99092 0.68153,1.63719 0.10069,1.92516 -0.89322,0.44281 z"
         id="path7270" /><path
         style="fill:#f8f8f8;stroke-width:0.967708"
         d="m 219.73776,272.82354 c 0,-1.27751 0.22878,-1.80014 0.50839,-1.16138 0.2796,0.63876 0.2796,1.68401 0,2.32276 -0.27961,0.63876 -0.50839,0.11614 -0.50839,-1.16138 z"
         id="path7268" /><path
         style="fill:#f6f6f6;stroke-width:0.967708"
         d="m 168.99389,271.25976 c 0.72758,-0.26839 1.59692,-0.23539 1.93184,0.0733 0.33492,0.30874 -0.26038,0.52833 -1.32289,0.48799 -1.17417,-0.0446 -1.41299,-0.26474 -0.60895,-0.56133 z m -181.424703,-0.92911 c 0.727584,-0.26839 1.596911,-0.23538 1.931841,0.0733 0.33492,0.30873 -0.260385,0.52833 -1.322889,0.48798 -1.174166,-0.0446 -1.412999,-0.26473 -0.608952,-0.56132 z"
         id="path7266" /><path
         style="fill:#f2f2f2;stroke-width:0.967708"
         d="m 165.97014,271.25976 c 0.72759,-0.26839 1.59693,-0.23539 1.93185,0.0733 0.33492,0.30874 -0.26039,0.52833 -1.32289,0.48799 -1.17417,-0.0446 -1.413,-0.26474 -0.60896,-0.56133 z"
         id="path7264" /><path
         style="fill:#eeeeee;stroke-width:0.967708"
         d="m 161.93848,271.25976 c 0.72759,-0.26839 1.59693,-0.23539 1.93185,0.0733 0.33492,0.30874 -0.26039,0.52833 -1.32289,0.48799 -1.17417,-0.0446 -1.413,-0.26474 -0.60896,-0.56133 z m -181.99165,-0.93489 c 0.970118,-0.23368 2.557584,-0.23368 3.527703,0 0.970118,0.2337 0.176385,0.42491 -1.763852,0.42491 -1.940236,0 -2.733969,-0.19121 -1.763851,-0.42491 z"
         id="path7262" /><path
         style="fill:#eaeaea;stroke-width:0.967708"
         d="m 158.91474,271.25976 c 0.72758,-0.26839 1.59692,-0.23539 1.93184,0.0733 0.33492,0.30874 -0.26038,0.52833 -1.32289,0.48799 -1.17417,-0.0446 -1.41299,-0.26474 -0.60895,-0.56133 z"
         id="path7260" /><path
         style="fill:#e6e6e6;stroke-width:0.967708"
         d="m 108.51899,391.11426 c 0.72758,-0.26839 1.59691,-0.23539 1.93184,0.0733 0.33492,0.30874 -0.26039,0.52833 -1.32289,0.48799 -1.17417,-0.0446 -1.413,-0.26474 -0.60895,-0.56133 z M -27.108575,270.32487 c 0.970118,-0.23368 2.557584,-0.23368 3.527702,0 0.970119,0.2337 0.176386,0.42491 -1.763851,0.42491 -1.940236,0 -2.733969,-0.19121 -1.763851,-0.42491 z"
         id="path7258" /><path
         style="fill:#e4e4e4;stroke-width:0.967708"
         d="m 152.86725,271.25976 c 0.72758,-0.26839 1.59692,-0.23539 1.93184,0.0733 0.33492,0.30874 -0.26038,0.52833 -1.32289,0.48799 -1.17417,-0.0446 -1.41299,-0.26474 -0.60895,-0.56133 z"
         id="path7256" /><path
         style="fill:#e2e2e2;stroke-width:0.967708"
         d="m 154.33531,181.12743 c 0.98067,-0.23557 2.34135,-0.22008 3.02374,0.0344 0.68239,0.2545 -0.11997,0.44724 -1.78303,0.42831 -1.66306,-0.0189 -2.22138,-0.22717 -1.24071,-0.46274 z"
         id="path7254" /><path
         style="fill:#e0e0e0;stroke-width:0.967708"
         d="m 149.8435,271.25976 c 0.72759,-0.26839 1.59692,-0.23539 1.93185,0.0733 0.33492,0.30874 -0.26039,0.52833 -1.32289,0.48799 -1.17417,-0.0446 -1.413,-0.26474 -0.60896,-0.56133 z"
         id="path7252" /><path
         style="fill:#dedede;stroke-width:0.967708"
         d="m -46.762918,270.35001 c 0.692942,-0.25775 1.826846,-0.25775 2.519788,0 0.692941,0.25774 0.125989,0.46863 -1.259894,0.46863 -1.385883,0 -1.952835,-0.21089 -1.259894,-0.46863 z m 12.598938,-0.0252 c 0.970118,-0.23369 2.557584,-0.23369 3.527702,0 0.970119,0.2337 0.176386,0.42491 -1.763851,0.42491 -1.940236,0 -2.733969,-0.19121 -1.763851,-0.42491 z"
         id="path7250" /><path
         style="fill:#d8d8d8;stroke-width:0.967708"
         d="m 141.23241,271.25058 c 0.98067,-0.23557 2.34136,-0.22008 3.02375,0.0345 0.68239,0.25451 -0.11997,0.44724 -1.78303,0.42831 -1.66306,-0.019 -2.22139,-0.22717 -1.24072,-0.46273 z"
         id="path7248" /><path
         style="fill:#d4d4d4;stroke-width:0.967708"
         d="m 136.19284,271.25058 c 0.98067,-0.23557 2.34135,-0.22008 3.02374,0.0345 0.68239,0.25451 -0.11997,0.44724 -1.78303,0.42831 -1.66306,-0.019 -2.22138,-0.22717 -1.24071,-0.46273 z m -176.908268,-0.90057 c 0.692942,-0.25775 1.826846,-0.25775 2.519788,0 0.692941,0.25774 0.125989,0.46863 -1.259894,0.46863 -1.385883,0 -1.952835,-0.21089 -1.259894,-0.46863 z"
         id="path7246" /><path
         style="fill:#d0d0d0;stroke-width:0.967708"
         d="m 130.14535,271.25058 c 0.98067,-0.23557 2.34135,-0.22008 3.02374,0.0345 0.68239,0.25451 -0.11997,0.44724 -1.78303,0.42831 -1.66306,-0.019 -2.22138,-0.22717 -1.24071,-0.46273 z"
         id="path7244" /><path
         style="fill:#9a9a9a;stroke-width:0.967708"
         d="m 190.62025,270.32147 c 0.98067,-0.23556 2.34135,-0.22007 3.02374,0.0345 0.68239,0.25451 -0.11997,0.44725 -1.78303,0.42831 -1.66306,-0.0189 -2.22138,-0.22716 -1.24071,-0.46273 z"
         id="path7242" /><path
         style="fill:#919191;stroke-width:0.967708"
         d="m 183.54566,270.32487 c 0.97012,-0.23368 2.55759,-0.23368 3.52771,0 0.97011,0.2337 0.17638,0.42491 -1.76386,0.42491 -1.94023,0 -2.73397,-0.19121 -1.76385,-0.42491 z"
         id="path7240" /><path
         style="fill:#898989;stroke-width:0.967708"
         d="m 179.07304,270.33065 c 0.72758,-0.26839 1.59692,-0.23538 1.93184,0.0733 0.33492,0.30873 -0.26038,0.52833 -1.32289,0.48798 -1.17417,-0.0446 -1.41299,-0.26473 -0.60895,-0.56132 z"
         id="path7238" /><path
         style="fill:#818181;stroke-width:0.967708"
         d="m 176.04929,270.33065 c 0.72759,-0.26839 1.59693,-0.23538 1.93185,0.0733 0.33492,0.30873 -0.26039,0.52833 -1.32289,0.48798 -1.17417,-0.0446 -1.413,-0.26473 -0.60896,-0.56132 z"
         id="path7236" /><path
         style="fill:#797979;stroke-width:0.967708"
         d="m 173.02555,270.33065 c 0.72758,-0.26839 1.59692,-0.23538 1.93184,0.0733 0.33492,0.30873 -0.26038,0.52833 -1.32289,0.48798 -1.17417,-0.0446 -1.41299,-0.26473 -0.60895,-0.56132 z"
         id="path7234" /><path
         style="fill:#646464;stroke-width:0.967708"
         d="m 72.234048,192.28586 c 0.727584,-0.26839 1.596911,-0.23538 1.931841,0.0733 0.33492,0.30874 -0.260385,0.52833 -1.322888,0.48799 -1.174171,-0.0446 -1.412997,-0.26474 -0.608953,-0.56134 z"
         id="path7232" /><path
         style="fill:#eb1b23;stroke-width:0.967708"
         d="m 63.053273,291.74985 c -0.390164,-0.35965 -0.709391,-4.75058 -0.709391,-9.7576 v -9.1037 l -10.331128,-0.26478 -10.331129,-0.26478 v -7.89739 -7.89739 l 10.296255,-0.26442 10.296255,-0.26442 0.286852,-9.49118 0.286853,-9.49117 h 8.06332 8.06332 l 0.913756,9.49143 0.913755,9.49143 9.669352,0.26417 9.669357,0.26416 v 7.89739 7.89739 l -9.792312,0.26553 -9.792308,0.26554 -0.286842,9.49006 -0.286843,9.49007 -8.109865,0.26679 c -4.460438,0.14673 -8.429103,-0.0275 -8.819257,-0.38713 z"
         id="path7230" /><path
         style="fill:#606060;stroke-width:0.967708"
         d="m 162.9464,270.33065 c 0.72758,-0.26839 1.59692,-0.23538 1.93184,0.0733 0.33492,0.30873 -0.26038,0.52833 -1.32289,0.48798 -1.17417,-0.0446 -1.41299,-0.26473 -0.60895,-0.56132 z"
         id="path7228" /><path
         style="fill:#595959;stroke-width:0.967708"
         d="m -0.33583251,269.40155 c 0.72758362,-0.26839 1.59691031,-0.23539 1.93184051,0.0733 0.33492,0.30873 -0.2603848,0.52832 -1.32288849,0.48798 -1.1741706,-0.0446 -1.41299601,-0.26474 -0.60895202,-0.56133 z"
         id="path7226" /><path
         style="fill:#555555;stroke-width:0.967708"
         d="m 72.234048,301.92021 c 0.727584,-0.26839 1.596911,-0.23539 1.931841,0.0733 0.33492,0.30873 -0.260385,0.52832 -1.322888,0.48798 -1.174171,-0.0446 -1.412997,-0.26474 -0.608953,-0.56133 z m 86.680692,-31.58956 c 0.72758,-0.26839 1.59692,-0.23538 1.93184,0.0733 0.33492,0.30873 -0.26038,0.52833 -1.32289,0.48798 -1.17417,-0.0446 -1.41299,-0.26473 -0.60895,-0.56132 z"
         id="path7224" /><path
         style="fill:#4d4d4d;stroke-width:0.967708"
         d="m 155.89099,270.33065 c 0.72759,-0.26839 1.59693,-0.23538 1.93185,0.0733 0.33492,0.30873 -0.26039,0.52833 -1.32289,0.48798 -1.17417,-0.0446 -1.413,-0.26473 -0.60896,-0.56132 z"
         id="path7222" /><path
         style="fill:#494949;stroke-width:0.967708"
         d="m -4.3674926,269.40155 c 0.7275837,-0.26839 1.5969103,-0.23539 1.9318405,0.0733 0.3349201,0.30873 -0.2603848,0.52832 -1.3228884,0.48798 -1.1741706,-0.0446 -1.4129961,-0.26474 -0.6089521,-0.56133 z"
         id="path7220" /><path
         style="fill:#3d3d3d;stroke-width:0.967708"
         d="m -8.3991526,269.40155 c 0.7275836,-0.26839 1.5969103,-0.23539 1.9318405,0.0733 0.33492,0.30873 -0.2603848,0.52832 -1.3228885,0.48798 -1.1741706,-0.0446 -1.4129961,-0.26474 -0.608952,-0.56133 z"
         id="path7218" /><path
         style="fill:#3a3a3a;stroke-width:0.967708"
         d="m -12.493807,269.4209 c 0.692941,-0.25774 1.826846,-0.25774 2.5197872,0 0.6929415,0.25775 0.1259894,0.46863 -1.2598942,0.46863 -1.385883,0 -1.952835,-0.21088 -1.259893,-0.46863 z"
         id="path7216" /><path
         style="fill:#363636;stroke-width:0.967708"
         d="m -19.537461,269.37911 c 1.253758,-0.22223 3.068005,-0.21379 4.03166,0.0188 0.963655,0.23254 -0.06215,0.41438 -2.27956,0.40407 -2.217413,-0.0103 -3.005858,-0.20059 -1.7521,-0.42282 z"
         id="path7214" /><path
         style="fill:#303030;stroke-width:0.967708"
         d="m -27.600781,269.37911 c 1.253758,-0.22223 3.068005,-0.21379 4.03166,0.0188 0.963655,0.23254 -0.06215,0.41438 -2.27956,0.40407 -2.217413,-0.0103 -3.005858,-0.20059 -1.7521,-0.42282 z"
         id="path7212" /><path
         style="fill:#2c2c2c;stroke-width:0.967708"
         d="m 63.162813,391.11426 c 0.727584,-0.26839 1.596911,-0.23539 1.931841,0.0733 0.33492,0.30874 -0.260385,0.52833 -1.322889,0.48799 -1.17417,-0.0446 -1.412996,-0.26474 -0.608952,-0.56133 z M -46.239778,269.39237 c 0.980668,-0.23557 2.341354,-0.22008 3.023745,0.0345 0.682391,0.25451 -0.119974,0.44724 -1.783034,0.42831 -1.663059,-0.019 -2.22138,-0.22717 -1.240711,-0.46273 z m 11.583592,-0.0133 c 1.253758,-0.22223 3.068005,-0.21379 4.03166,0.0188 0.963655,0.23255 -0.06215,0.41438 -2.27956,0.40407 -2.217413,-0.0103 -3.005858,-0.20059 -1.7521,-0.42282 z"
         id="path7210" /><path
         style="fill:#2a2a2a;stroke-width:0.967708"
         d="m 140.70927,270.35001 c 0.69295,-0.25775 1.82685,-0.25775 2.51979,0 0.69294,0.25774 0.12599,0.46863 -1.25989,0.46863 -1.38588,0 -1.95284,-0.21089 -1.2599,-0.46863 z"
         id="path7208" /><path
         style="fill:#282828;stroke-width:0.967708"
         d="m -40.715428,269.4209 c 0.692942,-0.25774 1.826846,-0.25774 2.519788,0 0.692941,0.25775 0.125989,0.46863 -1.259894,0.46863 -1.385883,0 -1.952835,-0.21088 -1.259894,-0.46863 z"
         id="path7206" /><path
         style="fill:#222222;stroke-width:0.967708"
         d="m 135.6697,270.35001 c 0.69294,-0.25775 1.82685,-0.25775 2.51979,0 0.69294,0.25774 0.12599,0.46863 -1.2599,0.46863 -1.38588,0 -1.95283,-0.21089 -1.25989,-0.46863 z"
         id="path7204" /><path
         style="fill:#1e1e1e;stroke-width:0.967708"
         d="m 57.575467,391.10508 c 0.980671,-0.23557 2.341356,-0.22008 3.023745,0.0345 0.682388,0.25451 -0.119972,0.44724 -1.783032,0.42831 -1.66306,-0.019 -2.221384,-0.22717 -1.240713,-0.46274 z"
         id="path7202" /><path
         style="fill:#1a1a1a;stroke-width:0.967708"
         d="m 129.62221,270.35001 c 0.69294,-0.25775 1.82685,-0.25775 2.51979,0 0.69294,0.25774 0.12599,0.46863 -1.2599,0.46863 -1.38588,0 -1.95283,-0.21089 -1.25989,-0.46863 z"
         id="path7200" /><path
         style="fill:#0e0e0e;stroke-width:0.967708"
         d="m 52.012754,391.13361 c 0.692941,-0.25774 1.826845,-0.25774 2.519787,0 0.692942,0.25774 0.125989,0.46863 -1.259894,0.46863 -1.385883,0 -1.952835,-0.21089 -1.259893,-0.46863 z"
         id="path7198" /><path
         style="fill:#0c0c0c;stroke-width:0.967708"
         d="m 190.62025,269.39237 c 0.98067,-0.23557 2.34135,-0.22008 3.02374,0.0345 0.68239,0.25451 -0.11997,0.44724 -1.78303,0.42831 -1.66306,-0.019 -2.22138,-0.22717 -1.24071,-0.46273 z"
         id="path7196" /><path
         style="fill:#080808;stroke-width:0.967708"
         d="m 184.06137,269.37911 c 1.25376,-0.22223 3.06801,-0.21379 4.03166,0.0188 0.96366,0.23254 -0.0622,0.41438 -2.27956,0.40407 -2.21741,-0.0103 -3.00585,-0.20059 -1.7521,-0.42282 z"
         id="path7194" /><path
         style="fill:#060606;stroke-width:0.967708"
         d="m 98.708398,323.38232 c 0.04838,-1.08236 0.287195,-1.30251 0.608942,-0.56133 0.291156,0.67069 0.255355,1.47204 -0.07953,1.78078 -0.33493,0.30874 -0.573141,-0.24002 -0.529377,-1.21945 z"
         id="path7192" /><path
         style="fill:#040404;stroke-width:0.967708"
         d="m 180.08095,269.40155 c 0.72759,-0.26839 1.59693,-0.23539 1.93185,0.0733 0.33492,0.30873 -0.26039,0.52832 -1.32289,0.48798 -1.17417,-0.0446 -1.413,-0.26474 -0.60896,-0.56133 z"
         id="path7190" /><path
         style="fill:#020202;stroke-width:0.967708"
         d="m 45.40582,325.31796 c 0.02056,-1.53303 0.246435,-2.04769 0.501982,-1.1437 0.255547,0.90399 0.238745,2.15828 -0.03739,2.78731 -0.276099,0.62903 -0.48518,-0.11059 -0.464639,-1.64361 z M -30.888256,189.20413 c 1.003365,-1.02202 2.051081,-1.85821 2.328258,-1.85821 0.277177,0 -0.316978,0.83619 -1.320343,1.85821 -1.003366,1.02201 -2.051082,1.85821 -2.328259,1.85821 -0.277176,0 0.316978,-0.8362 1.320344,-1.85821 z"
         id="path7188" /><path
         style="fill:#010101;stroke-width:0.967708"
         d="m 67.194473,191.35676 c 0.727584,-0.2684 1.596911,-0.23539 1.931841,0.0734 0.33492,0.30873 -0.260385,0.52833 -1.322889,0.48798 -1.17417,-0.0446 -1.412996,-0.26474 -0.608952,-0.56133 z m 4.491804,-0.009 c 0.980671,-0.23557 2.341356,-0.22008 3.023745,0.0344 0.682389,0.2545 -0.119972,0.44724 -1.783032,0.42831 -1.66306,-0.0189 -2.221384,-0.22717 -1.240713,-0.46274 z"
         id="path7186" /><path
         style="fill:#000000;stroke-width:0.967708"
         d="m 30.687096,386.6022 -5.636069,-5.03201 0.003,-8.61492 c 0.002,-8.19434 0.17453,-8.87776 3.524497,-13.99889 4.917305,-7.51715 9.860412,-11.54584 19.906936,-16.22441 3.364461,-1.5668 3.468387,-2.87565 0.503958,-6.34704 -1.874208,-2.19473 -2.320291,-4.03058 -2.570214,-10.57773 -0.302273,-7.91889 -0.300862,-7.92392 3.527703,-12.50698 2.106562,-2.5217 6.097916,-5.83432 8.869682,-7.36138 4.525196,-2.49308 5.922096,-2.78038 13.685994,-2.81475 8.07084,-0.0358 8.986339,0.1628 13.75289,2.98232 2.808565,1.66133 6.741621,4.95526 8.740125,7.31985 3.490289,4.12966 3.633634,4.59627 3.633634,11.8285 0,6.50025 -0.344364,7.99638 -2.519787,10.94748 -3.176515,4.30914 -3.152557,4.93419 0.251979,6.57392 7.063106,3.40181 8.679126,4.372 12.370596,7.42679 2.17084,1.79641 5.54701,5.71222 7.50261,8.7018 3.3763,5.16145 3.55577,5.86247 3.55823,13.89901 l 0.003,8.46341 -4.02779,4.21802 -4.02779,4.21802 -12.350838,0.53158 c -6.792954,0.29238 -23.761626,0.72685 -37.708146,0.9655 l -25.357318,0.43391 -5.636069,-5.032 z m -8.155857,-40.89707 c -2.217413,-1.19954 -4.712002,-2.48626 -5.543532,-2.85939 -1.845654,-0.82819 -6.792037,-4.01897 -9.1679045,-5.91398 -10.8281821,-8.63662 -13.7247686,-11.32821 -18.3497075,-17.05108 -2.951849,-3.6526 -6.334229,-8.38733 -7.516402,-10.52162 -1.182174,-2.13429 -2.601602,-4.64288 -3.154285,-5.57463 -2.702616,-4.55625 -7.167877,-19.16121 -7.167877,-23.44466 0,-4.60322 0.07801,-4.72891 2.935151,-4.72891 2.681012,0 2.990441,0.3419 3.573699,3.94869 2.742335,16.95826 13.3781399,35.96312 26.4024278,47.17785 5.2610845,4.53012 15.6370962,11.19442 23.2799842,14.95223 2.730261,1.34241 2.79635,1.91065 0.503958,4.3328 -1.761352,1.86105 -1.769556,1.8606 -5.795512,-0.3173 z m 98.480871,-0.65485 c -1.91422,-2.14699 -1.78143,-4.73416 0.2948,-5.7442 10.23278,-4.97802 24.32914,-16.52323 30.55185,-25.02257 7.20513,-9.84122 12.95952,-23.22919 14.72531,-34.25941 0.66756,-4.17005 0.87777,-4.41324 3.81466,-4.41324 h 3.10817 l -0.59776,6.27145 c -0.94045,9.86673 -7.26994,24.21158 -15.83389,35.88513 -4.19575,5.71924 -20.94813,21.02253 -23.01318,21.02253 -0.46844,0 -1.67264,0.8362 -2.67601,1.85821 -1.00337,1.02202 -2.25094,1.85821 -2.77239,1.85821 -0.52145,0 -2.21438,0.83118 -3.76207,1.84706 -2.19089,1.43807 -3.04105,1.59237 -3.83949,0.69683 z m -5.75269,-77.73817 c -4.90343,-3.58566 -7.50167,-8.42211 -7.52097,-13.99976 -0.0176,-5.09053 2.21539,-13.16297 4.578,-16.54975 2.96106,-4.24468 10.12658,-9.98539 15.9872,-12.80826 5.7171,-2.75375 6.62999,-4.21034 4.26421,-6.80392 -3.32565,-3.64587 -4.60902,-13.12918 -2.53728,-18.74888 3.71269,-10.07084 12.62682,-15.51799 25.54544,-15.61006 19.77807,-0.14094 32.10802,15.97906 24.19981,31.63849 -1.38047,2.73353 -2.51438,5.44283 -2.51979,6.02066 -0.005,0.57784 2.49624,2.21944 5.55925,3.64799 8.59475,4.00853 15.65229,10.96956 18.38048,18.12914 3.24096,8.50521 3.04728,15.14954 -0.59539,20.42601 -4.90565,7.10593 -2.2137,6.66572 -43.78603,7.16021 l -37.52327,0.44631 z m -166.809934,0.97317 c 0,-0.497 -0.641024,-1.49453 -1.424499,-2.21674 -5.989751,-5.52141 -7.325221,-15.93122 -3.180071,-24.78824 1.303433,-2.78506 3.326246,-5.97972 4.49514,-7.09923 1.168893,-1.11952 2.144909,-2.39466 2.168926,-2.83364 0.04699,-0.85895 11.137297,-7.7924 14.244669,-8.9055 3.048207,-1.0919 3.143482,-3.02748 0.395115,-8.02704 -6.488584,-11.80339 -1.180993,-23.87893 13.313743,-30.29069 6.188577,-2.73752 15.1326293,-3.16952 19.7420061,-0.95353 1.58783903,0.76336 3.32109,1.38793 3.8516766,1.38793 0.5305766,0 1.6350297,0.61792 2.4543235,1.37316 0.8193039,0.75524 2.0418241,1.69595 2.7167139,2.09048 2.9135999,1.70325 6.8025189,7.20312 8.2330229,11.64349 1.398482,4.341 1.392505,5.28556 -0.06269,9.89987 -0.884778,2.80555 -2.476407,6.11788 -3.536966,7.36074 -2.7011918,3.1655 -2.4883705,3.68948 2.355357,5.7988 7.709068,3.35712 9.494559,4.49641 13.809504,8.81153 5.45409,5.45434 8.243726,11.32419 8.885748,18.69711 0.684506,7.86065 -1.562349,13.37272 -6.636636,16.28128 -3.678013,2.10822 -4.065738,2.12999 -42.768364,2.40069 -24.8351,0.17369 -39.056717,-0.0559 -39.056717,-0.63047 z M 113.74755,199.44311 c -13.34571,-7.07061 -44.824895,-9.94067 -63.498648,-5.78938 -4.712002,1.0475 -11.406503,2.83548 -14.876674,3.97327 -6.089057,1.99647 -6.379447,2.01028 -8.315299,0.39534 -2.467749,-2.05866 -2.52397,-2.87877 -0.242051,-3.53106 0.970118,-0.27731 5.165565,-1.61054 9.323214,-2.96274 16.180392,-5.26237 36.842731,-7.13532 52.040769,-4.71727 15.882489,2.52695 31.561209,7.21554 31.598969,9.44942 0.0164,0.97223 -3.20736,4.15213 -4.09382,4.03805 -0.23352,-0.0301 -1.10493,-0.41508 -1.93646,-0.85563 z"
         id="path7184" /></g></g></svg>
