<?xml version="1.0" encoding="UTF-8" standalone="no"?>
<svg
   xmlns:dc="http://purl.org/dc/elements/1.1/"
   xmlns:cc="http://creativecommons.org/ns#"
   xmlns:rdf="http://www.w3.org/1999/02/22-rdf-syntax-ns#"
   xmlns:svg="http://www.w3.org/2000/svg"
   xmlns="http://www.w3.org/2000/svg"
   xmlns:sodipodi="http://sodipodi.sourceforge.net/DTD/sodipodi-0.dtd"
   xmlns:inkscape="http://www.inkscape.org/namespaces/inkscape"
   version="1.1"
   id="svg11"
   width="1490.422"
   height="1533.6083"
   viewBox="0 0 1490.422 1533.6083"
   sodipodi:docname="ДОБАВИТЬ.svg"
   inkscape:version="1.0 (4035a4fb49, 2020-05-01)">
  <metadata
     id="metadata17">
    <rdf:RDF>
      <cc:Work
         rdf:about="">
        <dc:format>image/svg+xml</dc:format>
        <dc:type
           rdf:resource="http://purl.org/dc/dcmitype/StillImage" />
        <dc:title></dc:title>
      </cc:Work>
    </rdf:RDF>
  </metadata>
  <defs
     id="defs15" />
  <sodipodi:namedview
     inkscape:document-rotation="0"
     pagecolor="#ffffff"
     bordercolor="#666666"
     borderopacity="1"
     objecttolerance="10"
     gridtolerance="10"
     guidetolerance="10"
     inkscape:pageopacity="0"
     inkscape:pageshadow="2"
     inkscape:window-width="1920"
     inkscape:window-height="1018"
     id="namedview13"
     showgrid="false"
     inkscape:zoom="0.26890244"
     inkscape:cx="1451.0867"
     inkscape:cy="710.16108"
     inkscape:window-x="-6"
     inkscape:window-y="-6"
     inkscape:window-maximized="1"
     inkscape:current-layer="g19" />
  <g
     transform="translate(1637.3594,-16.080889)"
     inkscape:groupmode="layer"
     inkscape:label="Image"
     id="g19">
    <path
       id="path8"
       d="m -1103.657,1276.9507 v -272.7385 l -264.3858,0.8138 -264.3857,0.8137 -2.4654,-217.61265 -2.4655,-217.61247 46.1466,-1.15457 c 25.3806,-0.63501 50.2848,-2.19368 55.3426,-3.4637 5.0578,-1.27003 102.3058,-2.8287 216.1066,-3.46371 l 206.9106,-1.15457 V 288.72946 16.080889 l 213.80754,2.479378 213.80759,2.479368 2.43998,271.454745 2.43989,271.45475 264.24486,-3.59469 264.2447,-3.59469 2.4655,219.36815 2.4655,219.36816 h -224.1856 c -123.3021,0 -243.2406,2.62327 -266.5301,5.82954 l -42.34447,5.8295 5.75202,271.2671 5.75203,271.267 H -886.0753 -1103.657 Z"
       style="fill:#000000;stroke-width:9.21627" />
  </g>
</svg>
