<?xml version="1.0" encoding="UTF-8" standalone="no"?>
<svg
   xmlns:dc="http://purl.org/dc/elements/1.1/"
   xmlns:cc="http://creativecommons.org/ns#"
   xmlns:rdf="http://www.w3.org/1999/02/22-rdf-syntax-ns#"
   xmlns:svg="http://www.w3.org/2000/svg"
   xmlns="http://www.w3.org/2000/svg"
   xmlns:sodipodi="http://sodipodi.sourceforge.net/DTD/sodipodi-0.dtd"
   xmlns:inkscape="http://www.inkscape.org/namespaces/inkscape"
   xml:space="preserve"
   width="40.976009mm"
   height="26.039677mm"
   version="1.1"
   style="clip-rule:evenodd;fill-rule:evenodd;image-rendering:optimizeQuality;shape-rendering:geometricPrecision;text-rendering:geometricPrecision"
   viewBox="0 0 130.74492 83.089419"
   id="svg1022"
   sodipodi:docname="РЕКЛАМА.svg"
   inkscape:version="1.0 (4035a4fb49, 2020-05-01)"><metadata
   id="metadata1026"><rdf:RDF><cc:Work
       rdf:about=""><dc:format>image/svg+xml</dc:format><dc:type
         rdf:resource="http://purl.org/dc/dcmitype/StillImage" /><dc:title></dc:title></cc:Work></rdf:RDF></metadata><sodipodi:namedview
   inkscape:document-rotation="0"
   pagecolor="#ffffff"
   bordercolor="#666666"
   borderopacity="1"
   objecttolerance="10"
   gridtolerance="10"
   guidetolerance="10"
   inkscape:pageopacity="0"
   inkscape:pageshadow="2"
   inkscape:window-width="1920"
   inkscape:window-height="1018"
   id="namedview1024"
   showgrid="false"
   inkscape:zoom="4.1672061"
   inkscape:cx="33.738524"
   inkscape:cy="75.459048"
   inkscape:window-x="-6"
   inkscape:window-y="-6"
   inkscape:window-maximized="1"
   inkscape:current-layer="svg1022" />
 <defs
   id="defs1016">
  <style
   type="text/css"
   id="style1014">
   <![CDATA[
    .fil0 {fill:black}
   ]]>
  </style>
 </defs>
 
<path
   id="path8"
   d="m 39.797068,82.613582 c -7.946083,-0.941759 -11.647567,-3.487666 -8.41422,-5.787363 1.143057,-0.812998 8.93626,-1.842539 20.578484,-2.718584 5.211,-0.392115 5.9375,-0.63932 6.6591,-2.265853 0.44548,-1.004144 0.80996,-2.79823 0.80996,-3.98687 V 65.693755 H 31.669383 C 9.4142734,65.693755 3.5865734,65.492096 2.2858294,64.676983 0.75063837,63.714953 0.64536737,62.033416 0.33049637,33.44373 L -0.00229163,3.227248 1.8805894,1.6136241 3.7634694,0 66.028812,0.4010266 c 46.119818,0.2970399 62.583378,0.6272243 63.491838,1.2733601 1.02673,0.7302587 1.22648,5.8904854 1.22648,31.6835783 0,29.708537 -0.0594,30.838526 -1.66198,31.573517 -1.04654,0.479993 -11.8649,0.762273 -29.214088,0.762273 h -27.5521 v 2.161157 c 0,1.18864 0.36448,2.982726 0.80996,3.98687 0.7216,1.626533 1.4481,1.873738 6.65909,2.265853 18.86579,1.4196 23.298348,2.549154 21.217018,5.406772 -2.057408,2.824769 -6.617298,3.334738 -31.693398,3.544521 -13.23227,0.110705 -26.513821,-0.0897 -29.514564,-0.445346 z M 123.01399,61.600291 c 0,-0.583599 -0.77331,-1.061089 -1.71847,-1.061089 -1.87549,0 -2.37781,1.883678 -0.64443,2.416544 1.45361,0.446857 2.3629,-0.07475 2.3629,-1.355455 z m 0.85924,-29.779312 V 6.0482151 H 65.874672 7.8761144 V 31.820979 57.593743 H 65.874672 123.87323 Z M 33.653252,43.749261 c 0,-0.324455 2.465499,-6.37185 5.478887,-13.438655 l 5.478887,-12.848738 h 4.109476 4.10948 l 5.40684,12.886382 c 2.97376,7.08751 5.4255,13.153958 5.4483,13.480995 0.0228,0.327037 -1.57178,0.492719 -3.54352,0.368182 -3.37889,-0.213413 -3.65468,-0.406344 -4.79741,-3.35598 l -1.21244,-3.12955 h -5.83139 -5.831396 l -1.082573,3.313641 c -1.044347,3.196639 -1.199985,3.313641 -4.407857,3.313641 -1.828906,0 -3.325284,-0.265463 -3.325284,-0.589918 z m 18.89173,-10.639643 c -0.10632,-1.701168 -4.26889,-10.915863 -4.57379,-10.125015 -0.23421,0.607501 -1.20627,3.175573 -2.160122,5.706827 l -1.734277,4.602279 h 4.239849 c 2.33191,0 4.23467,-0.08284 4.22834,-0.184091 z m 16.33703,-2.393186 V 16.896786 l 8.45276,0.348824 c 14.11851,0.582633 18.64073,3.77097 18.58428,13.10264 -0.0352,5.831875 -1.72188,8.839243 -6.46629,11.529955 -2.98514,1.692976 -4.57252,1.997669 -12.00537,2.304403 l -8.56538,0.353471 z m 16.32552,7.088089 c 6.69416,-4.173194 5.26977,-13.70119 -2.31821,-15.506987 -7.32338,-1.742827 -7.13341,-1.969531 -7.13341,8.513012 v 9.298672 l 3.65176,-0.482778 c 2.00847,-0.265528 4.6184,-1.085391 5.79986,-1.821919 z"
   style="fill:#ff0000;stroke-width:0.795432" /></svg>
