<?xml version="1.0" encoding="UTF-8" standalone="no"?>
<svg
   xmlns:dc="http://purl.org/dc/elements/1.1/"
   xmlns:cc="http://creativecommons.org/ns#"
   xmlns:rdf="http://www.w3.org/1999/02/22-rdf-syntax-ns#"
   xmlns:svg="http://www.w3.org/2000/svg"
   xmlns="http://www.w3.org/2000/svg"
   xmlns:sodipodi="http://sodipodi.sourceforge.net/DTD/sodipodi-0.dtd"
   xmlns:inkscape="http://www.inkscape.org/namespaces/inkscape"
   viewBox="0 0 19.665277 23.388419"
   width="419.52591"
   height="498.95294"
   version="1.1"
   id="svg1361"
   sodipodi:docname="АНАЛИТИКА.svg"
   inkscape:version="1.0 (4035a4fb49, 2020-05-01)">
  <metadata
     id="metadata1367">
    <rdf:RDF>
      <cc:Work
         rdf:about="">
        <dc:format>image/svg+xml</dc:format>
        <dc:type
           rdf:resource="http://purl.org/dc/dcmitype/StillImage" />
        <dc:title></dc:title>
      </cc:Work>
    </rdf:RDF>
  </metadata>
  <defs
     id="defs1365" />
  <sodipodi:namedview
     inkscape:document-rotation="0"
     pagecolor="#ffffff"
     bordercolor="#666666"
     borderopacity="1"
     objecttolerance="10"
     gridtolerance="10"
     guidetolerance="10"
     inkscape:pageopacity="0"
     inkscape:pageshadow="2"
     inkscape:window-width="1920"
     inkscape:window-height="1018"
     id="namedview1363"
     showgrid="false"
     inkscape:zoom="0.83007813"
     inkscape:cx="256.74529"
     inkscape:cy="282.95358"
     inkscape:window-x="-6"
     inkscape:window-y="-6"
     inkscape:window-maximized="1"
     inkscape:current-layer="_01_align_center" />
  <g
     id="_01_align_center"
     data-name="01 align center"
     transform="matrix(0.62673671,0,0,0.50583049,-0.10696938,9.5170348)">
    <path
       id="path8"
       d="m 0.21744635,26.909522 c 0.0271425,-0.297997 0.13128294,-0.625721 0.24816525,-0.780968 0.11076715,-0.147125 0.20139473,-0.365932 0.20139473,-0.486238 0,-0.120305 0.10230098,-0.491332 0.22733438,-0.824506 0.12503429,-0.333173 0.25699279,-0.894754 0.29324179,-1.247958 0.036252,-0.353204 0.1284844,-0.729876 0.204968,-0.837048 0.076488,-0.107172 0.1857273,-0.580057 0.2427627,-1.050856 0.057037,-0.470798 0.1777523,-0.976267 0.2682613,-1.123263 0.092696,-0.150549 0.1930712,-0.596713 0.2298475,-1.021666 0.046093,-0.532647 0.1043462,-0.7544 0.1981671,-0.7544 0.1647324,0 0.3169232,-0.472688 0.3169232,-0.98433 0,-0.211924 0.078777,-0.510626 0.175051,-0.663779 0.1001233,-0.159271 0.2189071,-0.648521 0.2775123,-1.143031 0.056351,-0.475514 0.1482005,-0.899551 0.2041034,-0.942303 0.1280757,-0.09795 0.2859813,-0.767017 0.2898576,-1.228161 0.00167,-0.193081 0.1073875,-0.61377 0.2350314,-0.934865 0.1276439,-0.321095 0.2324682,-0.668673 0.2329427,-0.772396 4.717e-4,-0.103723 0.089999,-0.32882 0.1989547,-0.500215 C 4.3853901,11.419373 4.498512,10.984325 4.5620758,10.459365 4.6181864,9.9959652 4.7390534,9.4951214 4.8306716,9.3463797 4.9308867,9.1836815 5.0229348,8.7533992 5.0617202,8.2663333 5.097175,7.8210494 5.1563473,7.456727 5.1932088,7.456727 c 0.1237648,0 0.2847127,-0.5870537 0.345326,-1.2595758 C 5.5715987,5.8303044 5.6527519,5.4513436 5.718879,5.3550151 5.785007,5.2586861 5.8888221,4.9489106 5.9495828,4.6666239 6.0103453,4.3843383 6.1387388,4.0165387 6.2349043,3.8492915 6.3310715,3.6820454 6.453121,3.1843215 6.5061263,2.7432387 6.5591324,2.3021548 6.6671807,1.8528274 6.746234,1.7447329 6.8252892,1.6366383 6.9345125,1.1595532 6.9889532,0.68454411 7.0433957,0.20953503 7.1534549,-0.26869317 7.2335303,-0.37818536 7.3136049,-0.48767754 7.42527,-0.96200244 7.4816706,-1.4322394 c 0.056398,-0.470237 0.1580862,-0.9237024 0.2259675,-1.0077008 0.1174828,-0.1453777 0.3176006,-0.8699604 0.31872,-1.1540185 2.836e-4,-0.073403 0.060077,-0.1617361 0.1328509,-0.196294 0.1335737,-0.063428 0.3394628,-1.0065274 0.3394628,-1.5549551 0,-0.1633124 0.080807,-0.4240589 0.1795788,-0.5794361 0.1069464,-0.1682421 0.2063358,-0.5771103 0.2457309,-1.010892 0.036381,-0.4006131 0.1496349,-0.8982016 0.2516709,-1.1057515 0.102035,-0.207551 0.2085842,-0.6804362 0.2367738,-1.0508559 0.031581,-0.4150029 0.1337516,-0.8303389 0.2662013,-1.0821577 0.1182195,-0.224766 0.2427033,-0.605701 0.2766301,-0.846522 0.033926,-0.240822 0.098928,-0.437857 0.1444484,-0.437857 0.114273,0 0.263207,-0.628654 0.338859,-1.430332 0.03484,-0.369259 0.09577,-0.67138 0.135395,-0.67138 0.113926,0 0.266654,-0.585022 0.335305,-1.28438 0.03467,-0.353204 0.124355,-0.728152 0.199298,-0.833216 0.07494,-0.105066 0.184498,-0.551252 0.243454,-0.991526 0.06983,-0.521441 0.168874,-0.8623 0.284125,-0.977783 0.09939,-0.09959 0.200445,-0.394246 0.230586,-0.672331 l 0.05365,-0.495044 h 4.186481 4.186481 v 0.399708 c 0,0.249967 0.08384,0.523354 0.223781,0.72976 0.174699,0.257662 0.23277,0.506345 0.264758,1.133798 0.03199,0.627458 0.08298,0.845836 0.232502,0.995657 0.148082,0.14838 0.2059,0.389834 0.25489,1.064445 0.04696,0.646652 0.109562,0.920234 0.241826,1.056801 0.132566,0.136878 0.195973,0.415475 0.246541,1.083243 0.05249,0.693089 0.109739,0.935085 0.249985,1.056643 0.139961,0.121309 0.195165,0.353295 0.239384,1.005993 0.04688,0.6919448 0.09823,0.8921726 0.278551,1.0861887 0.159851,0.1719924 0.221075,0.361589 0.221075,0.684628 0,0.3310243 0.06111,0.5125141 0.235893,0.7005706 0.205431,0.2210312 0.235894,0.3497844 0.235894,0.9970101 0,0.627347 0.03506,0.7865797 0.224865,1.02146 0.185193,0.229166 0.23163,0.4264012 0.263209,1.1179788 0.03055,0.6691909 0.07756,0.8790235 0.231479,1.0332471 0.151059,0.1513653 0.205871,0.3835952 0.251599,1.0659965 0.04685,0.6992314 0.09676,0.9042802 0.251336,1.0326656 0.133277,0.1106949 0.194143,0.2910883 0.196983,0.58380886 0.0069,0.70212475 0.155401,1.44496432 0.310525,1.55238866 0.08033,0.0556323 0.175106,0.34079142 0.2106,0.63368598 0.0374,0.3086072 0.147607,0.6283045 0.262093,0.7602897 0.154337,0.1779274 0.205606,0.404005 0.234344,1.0333639 0.03033,0.6641187 0.07642,0.8516778 0.262416,1.067909 0.192163,0.2233909 0.225631,0.3726825 0.225631,1.0064713 0,0.6332084 0.03341,0.7825164 0.224009,1.0013128 0.187154,0.2148323 0.230428,0.3980572 0.263024,1.1136352 0.03166,0.6951506 0.07633,0.8931108 0.237105,1.050856 0.159574,0.1565682 0.207092,0.3624379 0.244379,1.0587771 0.03639,0.6795406 0.08657,0.9042911 0.234633,1.0508561 0.104919,0.103856 0.213258,0.393313 0.244587,0.653485 0.03093,0.256876 0.138149,0.549968 0.238256,0.651317 0.137142,0.138839 0.198799,0.405904 0.250092,1.083244 0.05249,0.693088 0.109739,0.935084 0.249986,1.056642 0.139845,0.121208 0.195149,0.353086 0.239164,1.002754 0.04489,0.662595 0.105041,0.908892 0.27855,1.140564 0.184244,0.246005 0.221295,0.420628 0.221295,1.042955 0,0.647327 0.03161,0.783723 0.235893,1.018005 0.198471,0.22761 0.235895,0.376131 0.235895,0.936194 0,0.678031 0.114819,1.101603 0.344024,1.269117 0.07027,0.05136 0.127762,0.27705 0.127762,0.501544 0,0.272549 0.07355,0.499184 0.221349,0.682078 0.177038,0.219074 0.232931,0.445908 0.279206,1.133119 0.04341,0.644682 0.102733,0.904403 0.237585,1.040194 0.134616,0.135553 0.196821,0.406734 0.247839,1.080428 0.05162,0.681693 0.110766,0.93642 0.244293,1.052153 0.128031,0.110968 0.193855,0.366156 0.240845,0.933713 l 0.06466,0.781008 h -3.726464 -3.726463 l -0.057,-0.846522 c -0.04281,-0.63579 -0.102113,-0.891952 -0.238229,-1.029009 -0.133337,-0.134261 -0.199383,-0.40615 -0.249917,-1.028828 -0.04946,-0.609398 -0.11992,-0.905407 -0.251691,-1.057318 -0.133998,-0.154481 -0.198025,-0.432678 -0.239094,-1.038871 -0.04503,-0.664652 -0.09997,-0.878902 -0.278625,-1.086593 -0.202699,-0.23564 -0.222535,-0.354962 -0.222535,-1.338626 0,-0.966863 -0.0235,-1.114479 -0.224432,-1.409978 -0.123437,-0.181529 -0.240618,-0.434053 -0.2604,-0.561165 -0.02041,-0.131156 -0.157996,-0.281975 -0.318123,-0.34872 -0.155185,-0.06468 -0.316111,-0.183992 -0.357612,-0.265126 -0.05943,-0.116186 -1.283843,-0.147518 -5.764768,-0.147518 -6.3848546,0 -5.9141595,-0.06784 -6.0553088,0.872784 -0.038309,0.255266 -0.1268191,0.534868 -0.1966983,0.62134 -0.069881,0.08647 -0.126774,0.29796 -0.1264302,0.469976 0.00139,0.676402 -0.233369,2.187628 -0.3578223,2.303841 -0.072958,0.06812 -0.1796557,0.53556 -0.2394118,1.04883 -0.065312,0.561046 -0.1701998,1.003153 -0.2661493,1.121884 -0.098778,0.122232 -0.1840871,0.496369 -0.2267617,0.9945 -0.041636,0.485965 -0.1357802,0.905217 -0.2405137,1.071047 -0.095905,0.151849 -0.200064,0.578338 -0.2352594,0.963284 L 7.6250782,27.42299 H 3.8978779 0.17067674 Z M 20.10516,9.5572235 C 20.16955,9.4083195 20.18313,9.0008898 20.14228,8.4430102 20.091537,7.7500898 20.03749,7.5285332 19.88748,7.3985143 19.736294,7.2674749 19.685147,7.0529263 19.639129,6.356726 19.592939,5.6579395 19.538535,5.4308052 19.371118,5.2377979 19.195506,5.0353435 19.161061,4.8710107 19.161061,4.235655 c 0,-0.6606615 -0.03083,-0.7953322 -0.235894,-1.0305067 -0.201607,-0.231207 -0.235894,-0.3733493 -0.235894,-0.9779418 0,-0.573744 -0.04228,-0.7697777 -0.223781,-1.0374657 C 18.290794,0.93207907 18.232723,0.68339634 18.200734,0.05594309 18.168597,-0.57449814 18.118037,-0.78960244 17.96628,-0.94166954 17.800319,-1.1079662 17.766094,-1.3079149 17.725637,-2.3475688 17.685401,-3.3814896 17.650418,-3.5877154 17.487542,-3.7509169 17.342667,-3.8960844 17.279926,-4.1478345 17.227437,-4.7945861 17.178583,-5.3965713 17.104959,-5.7129 16.97679,-5.871501 c -0.136608,-0.1690442 -0.200818,-0.4839729 -0.259716,-1.2738231 -0.05575,-0.7476782 -0.127453,-1.1165484 -0.249459,-1.2833742 -0.121906,-0.1666879 -0.187095,-0.5014918 -0.226344,-1.1624759 -0.06163,-1.0380208 -0.247022,-1.4464838 -0.549616,-1.2109868 -0.122332,0.09521 -0.18146,0.371417 -0.23545,1.0998788 -0.04409,0.5949505 -0.127649,1.0487054 -0.21513,1.1683244 -0.157222,0.2149794 -0.324696,1.2837688 -0.325552,2.0776169 -3.77e-4,0.3207738 -0.06651,0.610782 -0.180125,0.7895163 -0.106946,0.168242 -0.206335,0.5771102 -0.245731,1.0108919 -0.03638,0.4006131 -0.145374,0.8896722 -0.242204,1.0867976 -0.09683,0.1971265 -0.205444,0.6700117 -0.241366,1.0508559 -0.03596,0.3812424 -0.145513,0.8272012 -0.243763,0.9922836 -0.104113,0.1749325 -0.200976,0.58837426 -0.232524,0.99247506 -0.02974,0.38095046 -0.136745,0.86272355 -0.237793,1.07060737 -0.101046,0.20788383 -0.224072,0.73056437 -0.27339,1.16151117 -0.04932,0.4309478 -0.155214,0.8731597 -0.235321,0.9826939 -0.0801,0.1095342 -0.190623,0.5851668 -0.245593,1.0569626 -0.05497,0.4717946 -0.161719,0.9454948 -0.237219,1.052667 -0.0755,0.1071721 -0.183937,0.5800573 -0.240972,1.0508559 -0.05704,0.4707987 -0.178661,0.9776966 -0.27028,1.1264382 -0.09985,0.1620992 -0.192182,0.5919834 -0.230493,1.0730804 -0.04097,0.5144746 -0.11055,0.8247853 -0.193813,0.864322 -0.200503,0.095209 -0.153772,0.4869678 0.0824,0.6908362 0.18483,0.1595445 0.752196,0.1840516 4.384301,0.1893841 4.085207,0.006 4.174107,0.00124 4.273517,-0.2286148 z"
       style="fill:#ff0000;stroke-width:0.104964" />
  </g>
</svg>
