<?xml version="1.0" encoding="UTF-8" standalone="no"?>
<!-- Created with Inkscape (http://www.inkscape.org/) -->

<svg
   version="1.1"
   id="svg940"
   width="898.76074"
   height="674.68976"
   viewBox="0 0 898.76074 674.68976"
   sodipodi:docname="АНАЛИТИКА.svg"
   inkscape:version="1.2.1 (9c6d41e410, 2022-07-14)"
   xmlns:inkscape="http://www.inkscape.org/namespaces/inkscape"
   xmlns:sodipodi="http://sodipodi.sourceforge.net/DTD/sodipodi-0.dtd"
   xmlns="http://www.w3.org/2000/svg"
   xmlns:svg="http://www.w3.org/2000/svg">
  <defs
     id="defs944" />
  <sodipodi:namedview
     id="namedview942"
     pagecolor="#ffffff"
     bordercolor="#111111"
     borderopacity="1"
     inkscape:showpageshadow="0"
     inkscape:pageopacity="0"
     inkscape:pagecheckerboard="1"
     inkscape:deskcolor="#d1d1d1"
     showgrid="false"
     inkscape:zoom="1.2529586"
     inkscape:cx="343.18772"
     inkscape:cy="312.46045"
     inkscape:window-width="1920"
     inkscape:window-height="1018"
     inkscape:window-x="-6"
     inkscape:window-y="-6"
     inkscape:window-maximized="1"
     inkscape:current-layer="g946" />
  <g
     inkscape:groupmode="layer"
     inkscape:label="Image"
     id="g946"
     transform="translate(-37.504327,-25.74144)">
    <path
       style="fill:#ff0000"
       d="m 117.63147,699.68548 c -7.15458,-1.44414 -13.74916,-6.52887 -17.43607,-13.44404 -2.081643,-3.90433 -2.133273,-5.04046 -2.158423,-47.5 l -0.0258,-43.5 29.000003,-16.56209 c 35.04816,-20.01623 99.75743,-56.84224 111.5,-63.45459 4.675,-2.63253 9.52213,-5.45129 10.77141,-6.26391 l 2.27141,-1.47749 -0.27141,87.37904 -0.27141,87.37904 -2.16237,4 c -2.79701,5.17397 -7.80665,9.93452 -12.83763,12.19932 -3.68086,1.65701 -8.38819,1.81377 -59,1.96472 -30.25,0.0902 -56.97089,-0.23378 -59.37975,-0.72 z m 215.61422,-0.008 c -8.62821,-2.08723 -13.85043,-6.13123 -17.62162,-13.64587 -2.11091,-4.2063 -2.11282,-4.30628 -2.07892,-109 l 0.0339,-104.79017 41.5064,-23.5 c 22.82852,-12.925 41.86417,-23.41219 42.30144,-23.30488 0.75588,0.18552 38.56702,20.08744 59.3743,31.25172 l 9.75,5.23142 v 109.71453 109.71452 l -2.60338,5.22431 c -2.76092,5.54043 -6.50793,8.97988 -12.95045,11.88744 -3.6144,1.63121 -8.57025,1.79551 -58.94617,1.95425 -30.34504,0.0956 -56.68798,-0.23502 -58.76553,-0.7376 z m 215.59193,0.0435 c -5.54805,-1.1284 -9.26093,-3.138 -13.22318,-7.15706 -7.11049,-7.21245 -6.57403,0.85869 -6.87295,-103.4055 -0.22965,-80.1037 -0.0617,-94.08334 1.13024,-94.08334 0.76998,0 17.54136,-13.29927 37.26973,-29.55394 114.00029,-93.92752 113.82389,-93.78573 114.4615,-92.00587 0.34017,0.94956 0.55794,70.57648 0.48394,154.72648 -0.12111,137.72285 -0.29385,153.35674 -1.73002,156.57273 -2.38685,5.34486 -7.29242,10.43146 -12.60741,13.07267 l -4.73825,2.35429 -55,0.16404 c -30.25,0.0902 -56.87812,-0.21794 -59.1736,-0.68481 z m 214.75918,-0.0411 c -9.08539,-1.83165 -17.02934,-9.7858 -19.01358,-19.03798 -0.74012,-3.4511 -1.06874,-60.01211 -1.06146,-182.69936 l 0.0105,-177.7011 14.23946,-11.62379 c 7.8317,-6.39309 28.5253,-23.36964 45.98576,-37.72567 l 31.7463,-26.10188 31.01156,34.06805 31.01156,34.06805 -0.25786,184.65762 c -0.2449,175.37992 -0.34811,184.83887 -2.05422,188.2652 -2.53687,5.09472 -7.45104,9.85169 -12.70364,12.29726 -4.38179,2.04012 -5.94474,2.09947 -59.5,2.2592 -30.25,0.0902 -56.98649,-0.23644 -59.41442,-0.72592 z M 70.655127,519.49144 c -3.84563,-6.1875 -12.87778,-20.90095 -20.07143,-32.69656 l -13.07937,-21.44655 2.75345,-1.69023 c 2.77948,-1.70622 24.52943,-14.09362 158.753443,-90.41597 86.84522,-49.38186 142.94556,-81.31589 173.36305,-98.68354 l 22.36304,-12.76876 14.63696,7.8425 c 8.05032,4.31338 28.58695,15.15859 45.63695,24.10047 17.05,8.94189 37.55085,19.80187 45.55744,24.13331 8.00659,4.33143 14.86303,7.87533 15.23653,7.87533 0.37351,0 3.49766,-2.37578 6.94257,-5.27951 3.4449,-2.90373 17.73846,-14.69495 31.76346,-26.2027 14.025,-11.50776 30.45,-25.0238 36.5,-30.03564 6.05,-5.01184 27.425,-22.61323 47.5,-39.11419 113.96308,-93.67375 145.62533,-119.73211 146.7456,-120.77312 0.97244,-0.90364 -2.91416,-5.743508 -17.72295,-22.06987 -10.4327,-11.50182 -18.85732,-21.023631 -18.72137,-21.15958 0.42514,-0.425143 58.65709,-11.643145 103.19872,-19.880555 9.9,-1.830879 32.45135,-6.063964 50.11411,-9.406853 17.66276,-3.34289 32.79138,-6.077982 33.61916,-6.077982 1.59752,0 0.30414,4.024794 -15.26426,47.5 -3.93908,11 -8.65013,24.275 -10.46901,29.5 -1.81888,5.225 -6.53313,18.5 -10.47613,29.5 -3.94299,11 -9.14536,25.625 -11.56082,32.5 -10.26834,29.22631 -12.29758,34.5 -13.27513,34.5 -0.5673,0 -8.56291,-8.325 -17.76801,-18.5 -9.20511,-10.175 -17.06435,-18.63301 -17.465,-18.79559 -0.40064,-0.16257 -12.5919,9.48322 -27.09168,21.4351 -28.80881,23.74654 -72.03165,59.3112 -146.86323,120.84218 -26.675,21.93377 -57.275,47.12943 -68,55.99036 -35.73937,29.52763 -69.48519,57.14193 -70.76729,57.90907 -1.34466,0.80458 -6.32647,-1.72062 -72.73271,-36.86715 -22,-11.64384 -44.08907,-23.31389 -49.08682,-25.93345 l -9.08682,-4.76284 -4.91318,2.95201 c -2.70225,1.62361 -23.13818,13.30512 -45.41318,25.95892 -38.22038,21.71191 -81.53058,46.34438 -138.5,78.77123 -13.75,7.82647 -38.05,21.65137 -54,30.72201 -15.95,9.07064 -38.99324,22.18144 -51.2072,29.13511 -12.213973,6.95367 -22.645873,12.64304 -23.182023,12.64304 -0.53615,0 -4.12124,-5.0625 -7.96687,-11.25 z"
       id="path950" />
  </g>
</svg>
