<?xml version="1.0" encoding="UTF-8" standalone="no"?>
<!-- Created with Inkscape (http://www.inkscape.org/) -->

<svg
   version="1.1"
   id="svg224"
   width="216.14062"
   height="250.75555"
   viewBox="0 0 216.14063 250.75555"
   sodipodi:docname="ПРИКРЕПИТЬ.svg"
   inkscape:version="1.2.1 (9c6d41e410, 2022-07-14)"
   xml:space="preserve"
   xmlns:inkscape="http://www.inkscape.org/namespaces/inkscape"
   xmlns:sodipodi="http://sodipodi.sourceforge.net/DTD/sodipodi-0.dtd"
   xmlns="http://www.w3.org/2000/svg"
   xmlns:svg="http://www.w3.org/2000/svg"><defs
     id="defs228" /><sodipodi:namedview
     id="namedview226"
     pagecolor="#ffffff"
     bordercolor="#111111"
     borderopacity="1"
     inkscape:showpageshadow="0"
     inkscape:pageopacity="0"
     inkscape:pagecheckerboard="1"
     inkscape:deskcolor="#d1d1d1"
     showgrid="false"
     inkscape:zoom="1.0557862"
     inkscape:cx="205.53404"
     inkscape:cy="235.36963"
     inkscape:window-width="1920"
     inkscape:window-height="1018"
     inkscape:window-x="-6"
     inkscape:window-y="-6"
     inkscape:window-maximized="1"
     inkscape:current-layer="g230" /><g
     inkscape:groupmode="layer"
     inkscape:label="Image"
     id="g230"
     transform="translate(307.75317,-148.90092)"><path
       style="fill:#000000"
       d="m -240.94989,398.69186 c -9.55869,-1.21461 -23.99724,-6.82039 -31.8287,-12.35753 -7.95353,-5.62344 -22.6713,-21.23814 -22.6713,-24.05293 0,-0.35108 -0.81361,-1.8328 -1.80802,-3.2927 -4.45076,-6.53421 -8.25766,-18.77668 -10.15795,-32.66652 -1.46279,-10.69203 1.98417,-29.51325 7.39819,-40.3959 4.46158,-8.96818 6.20123,-11.62557 12.20311,-18.64071 6.97116,-8.14806 103.65129,-105.22139 107.36467,-107.80133 21.14418,-14.69026 46.81283,-14.04716 67,1.67861 10.63083,8.2814 16.696593,18.49183 20.159083,33.93355 2.14248,9.55486 2.15289,9.94754 0.49048,18.5 -1.70207,8.75657 -5.43223,18.08094 -9.811063,24.52497 -1.28673,1.8936 -25.83023,27.2701 -54.54111,56.39222 -59.003,59.84813 -57.1576,58.33257 -71.13887,58.42394 -6.617,0.0432 -8.87446,-0.40948 -14.26003,-2.85974 -11.241,-5.11429 -17.8271,-14.90609 -18.66063,-27.74346 -0.49066,-7.55674 1.66842,-17.3474 4.30875,-19.53868 0.79936,-0.66342 1.45339,-1.68399 1.45339,-2.26793 0,-0.58395 7.16897,-8.29135 15.93105,-17.12756 8.76208,-8.83621 29.4386,-29.79083 45.94783,-46.56583 l 30.01679,-30.5 6.49529,6.5 c 3.5724,3.575 6.63338,7.01057 6.80216,7.6346 0.16878,0.62402 -19.71812,21.48 -44.19312,46.34661 -24.475,24.86661 -45.04655,46.18104 -45.71456,47.36541 -1.91731,3.39933 -1.5388,9.48883 0.7934,12.7641 3.88824,5.46053 11.98914,7.63125 16.55202,4.43528 1.76922,-1.23921 75.53658,-75.11547 91.48395,-91.619 10.11473,-10.46749 12.73716,-13.6807 15.53979,-19.04064 2.49253,-4.76687 2.80594,-6.41733 2.82451,-14.87409 0.0191,-8.70466 -0.25348,-10.07677 -3.21069,-16.16107 -7.03324,-14.4705 -22.62033,-22.73611 -37.63947,-19.95967 -3.18303,0.58841 -8.00812,2.27855 -10.72243,3.75587 -3.51282,1.91191 -19.98928,17.9454 -57.17081,55.63379 -45.95913,46.58564 -59.73571,61.47845 -59.73571,64.57571 0,0.45971 -0.69167,2.22231 -1.53705,3.91691 -2.08929,4.18808 -4.42607,15.62768 -4.43803,21.72619 -0.0145,7.38947 1.79734,17.22873 4.01951,21.82808 1.07556,2.22617 1.95557,4.40432 1.95557,4.84033 0,0.43602 1.52409,3.17529 3.38687,6.08728 12.09247,18.90358 36.07225,30.17493 56.85174,26.72235 8.69431,-1.44458 16.45117,-4.43875 23.98572,-9.25854 3.30029,-2.11118 19.29547,-17.41384 39.34183,-37.63854 18.57925,-18.74453 34.35304,-34.08096 35.05287,-34.08096 1.77821,0 13.50562,12.16778 13.16212,13.65636 -0.35157,1.52352 -64.69965,66.50652 -70.828,71.52685 -9.63717,7.89475 -24.57458,14.10304 -37.92692,15.76321 -9.554,1.18789 -12.57193,1.17598 -22.52623,-0.0889 z"
       id="path359" /></g></svg>
