<?xml version="1.0" encoding="UTF-8" standalone="no"?>
<!-- Created with Inkscape (http://www.inkscape.org/) -->

<svg
   version="1.1"
   id="svg263"
   width="355.84335"
   height="249.85069"
   viewBox="0 0 355.84335 249.85069"
   sodipodi:docname="BEST.svg"
   inkscape:version="1.2.1 (9c6d41e410, 2022-07-14)"
   xml:space="preserve"
   xmlns:inkscape="http://www.inkscape.org/namespaces/inkscape"
   xmlns:sodipodi="http://sodipodi.sourceforge.net/DTD/sodipodi-0.dtd"
   xmlns="http://www.w3.org/2000/svg"
   xmlns:svg="http://www.w3.org/2000/svg"><defs
     id="defs267" /><sodipodi:namedview
     id="namedview265"
     pagecolor="#ffffff"
     bordercolor="#111111"
     borderopacity="1"
     inkscape:showpageshadow="0"
     inkscape:pageopacity="0"
     inkscape:pagecheckerboard="1"
     inkscape:deskcolor="#d1d1d1"
     showgrid="false"
     inkscape:zoom="0.41100582"
     inkscape:cx="-158.14861"
     inkscape:cy="414.83597"
     inkscape:window-width="1920"
     inkscape:window-height="1018"
     inkscape:window-x="-6"
     inkscape:window-y="-6"
     inkscape:window-maximized="1"
     inkscape:current-layer="g269" /><g
     inkscape:groupmode="layer"
     inkscape:label="Image"
     id="g269"
     transform="translate(-688.90928,97.415699)"><path
       style="fill:#000000"
       d="m 695.53318,151.01178 c -1.0524,-2.7425 -0.6808,-36.42769 0.42463,-38.49322 1.00154,-1.8714 2.60633,-1.93426 49.37751,-1.93426 39.8657,0 48.5431,0.2418 49.4869,1.37899 0.7942,0.95693 1.0612,7.30783 0.8724,20.75 l -0.272,19.37101 -49.6394,0.25927 c -44.61603,0.23304 -49.70128,0.0983 -50.25004,-1.33179 z m 124.00004,0 c -1.0524,-2.7425 -0.6808,-36.42769 0.4246,-38.49322 1.0015,-1.8714 2.6063,-1.93426 49.3776,-1.93426 39.8656,0 48.543,0.2418 49.4868,1.37899 0.7942,0.95693 1.0612,7.30783 0.8724,20.75 l -0.272,19.37101 -49.6394,0.25927 c -44.616,0.23304 -49.7013,0.0983 -50.25,-1.33179 z m 125,-1 c -1.0524,-2.7425 -0.6808,-36.42769 0.4246,-38.49322 1.0015,-1.8714 2.6063,-1.93426 49.3776,-1.93426 39.86558,0 48.54298,0.2418 49.48678,1.37899 0.7942,0.95693 1.0612,7.30783 0.8724,20.75 l -0.272,19.37101 -49.63938,0.25927 c -44.616,0.23304 -49.7013,0.0983 -50.25,-1.33179 z M 692.53318,83.011781 c -1.0524,-2.7425 -0.6808,-36.42769 0.42463,-38.49322 1.00154,-1.8714 2.60633,-1.93426 49.37751,-1.93426 39.8657,0 48.5431,0.2418 49.4869,1.37899 0.7942,0.95693 1.0612,7.30783 0.8724,20.75 l -0.272,19.37101 -49.6394,0.25927 c -44.61603,0.23304 -49.70128,0.0983 -50.25004,-1.33179 z m 124.00004,0 c -1.0524,-2.7425 -0.6808,-36.42769 0.4246,-38.49322 1.0015,-1.8714 2.6063,-1.93426 49.3776,-1.93426 39.8656,0 48.543,0.2418 49.4868,1.37899 0.7942,0.95693 1.0612,7.30783 0.8724,20.75 l -0.272,19.37101 -49.6394,0.25927 c -44.616,0.23304 -49.7013,0.0983 -50.25,-1.33179 z m 125,-1 c -1.0524,-2.7425 -0.6808,-36.42769 0.4246,-38.49322 1.0015,-1.8714 2.6063,-1.93426 49.3776,-1.93426 39.86558,0 48.54298,0.2418 49.48678,1.37899 0.7942,0.95693 1.0612,7.30783 0.8724,20.75 l -0.272,19.37101 -49.63938,0.25927 c -44.616,0.23304 -49.7013,0.0983 -50.25,-1.33179 z m -250.00004,-72 c -1.0524,-2.7425005 -0.6808,-36.42769 0.42463,-38.49322 1.00154,-1.8714 2.60633,-1.93426 49.37751,-1.93426 39.8657,0 48.5431,0.2418 49.4869,1.37899 0.7942,0.95693 1.0612,7.30783 0.8724,20.7499995 l -0.272,19.3710105 -49.6394,0.25927 c -44.61603,0.23304 -49.70128,0.0983 -50.25004,-1.33179 z m 124.00004,0 c -1.0524,-2.7425005 -0.6808,-36.42769 0.4246,-38.49322 1.0015,-1.8714 2.6063,-1.93426 49.3776,-1.93426 39.8656,0 48.543,0.2418 49.4868,1.37899 0.7942,0.95693 1.0612,7.30783 0.8724,20.7499995 l -0.272,19.3710105 -49.6394,0.25927 c -44.616,0.23304 -49.7013,0.0983 -50.25,-1.33179 z m 125,-1.0000005 c -1.0524,-2.7425 -0.6808,-36.4276895 0.4246,-38.4932195 1.0015,-1.8714 2.6063,-1.93426 49.3776,-1.93426 39.86558,0 48.54298,0.2418 49.48678,1.37899 0.7942,0.95693 1.0612,7.30783 0.8724,20.7499995 l -0.272,19.3710105 -49.63938,0.25927 c -44.616,0.23304 -49.7013,0.0983 -50.25,-1.3317905 z M 689.53318,-55.988219 c -1.0524,-2.7425 -0.6808,-36.42769 0.42463,-38.49322 1.00154,-1.8714 2.60633,-1.93426 49.37751,-1.93426 39.8657,0 48.5431,0.2418 49.4869,1.37899 0.7942,0.95693 1.0612,7.30783 0.8724,20.75 l -0.272,19.37101 -49.6394,0.25927 c -44.61603,0.23304 -49.70128,0.0983 -50.25004,-1.33179 z m 124.00004,0 c -1.0524,-2.7425 -0.6808,-36.42769 0.4246,-38.49322 1.0015,-1.8714 2.6063,-1.93426 49.3776,-1.93426 39.8656,0 48.543,0.2418 49.4868,1.37899 0.7942,0.95693 1.0612,7.30783 0.8724,20.75 l -0.272,19.37101 -49.6394,0.25927 c -44.616,0.23304 -49.7013,0.0983 -50.25,-1.33179 z m 125,-1 c -1.0524,-2.7425 -0.6808,-36.42769 0.4246,-38.49322 1.0015,-1.8714 2.6063,-1.93426 49.3776,-1.93426 39.86558,0 48.54298,0.2418 49.48678,1.37899 0.7942,0.95693 1.0612,7.30783 0.8724,20.75 l -0.272,19.37101 -49.63938,0.25927 c -44.616,0.23304 -49.7013,0.0983 -50.25,-1.33179 z"
       id="path66" /></g></svg>
