<?xml version="1.0" encoding="UTF-8" standalone="no"?>
<svg
   xmlns:dc="http://purl.org/dc/elements/1.1/"
   xmlns:cc="http://creativecommons.org/ns#"
   xmlns:rdf="http://www.w3.org/1999/02/22-rdf-syntax-ns#"
   xmlns:svg="http://www.w3.org/2000/svg"
   xmlns="http://www.w3.org/2000/svg"
   xmlns:sodipodi="http://sodipodi.sourceforge.net/DTD/sodipodi-0.dtd"
   xmlns:inkscape="http://www.inkscape.org/namespaces/inkscape"
   version="1.1"
   id="svg11"
   width="1515.6099"
   height="1545.4019"
   viewBox="0 0 1515.6098 1545.4019"
   sodipodi:docname="БЛОКИРОВАТЬ.svg"
   inkscape:version="1.0 (4035a4fb49, 2020-05-01)">
  <metadata
     id="metadata17">
    <rdf:RDF>
      <cc:Work
         rdf:about="">
        <dc:format>image/svg+xml</dc:format>
        <dc:type
           rdf:resource="http://purl.org/dc/dcmitype/StillImage" />
        <dc:title></dc:title>
      </cc:Work>
    </rdf:RDF>
  </metadata>
  <defs
     id="defs15" />
  <sodipodi:namedview
     inkscape:document-rotation="0"
     pagecolor="#ffffff"
     bordercolor="#666666"
     borderopacity="1"
     objecttolerance="10"
     gridtolerance="10"
     guidetolerance="10"
     inkscape:pageopacity="0"
     inkscape:pageshadow="2"
     inkscape:window-width="1920"
     inkscape:window-height="1018"
     id="namedview13"
     showgrid="false"
     inkscape:zoom="0.26890244"
     inkscape:cx="1131.321"
     inkscape:cy="797.96574"
     inkscape:window-x="-6"
     inkscape:window-y="-6"
     inkscape:window-maximized="1"
     inkscape:current-layer="g19" />
  <g
     transform="translate(1841.8412,71.723766)"
     inkscape:groupmode="layer"
     inkscape:label="Image"
     id="g19">
    <path
       id="path8"
       d="m -1497.1769,1470.187 c 0,-1.92 -1.5408,-3.491 -3.4239,-3.491 -1.8831,0 -3.4238,-1.5709 -3.4238,-3.491 0,-1.9201 -1.5407,-3.491 -3.4238,-3.491 -1.8831,0 -3.4238,-1.571 -3.4238,-3.4911 0,-1.92 -1.5407,-3.491 -3.4238,-3.491 -1.8831,0 -3.4239,-1.5709 -3.4239,-3.491 0,-1.9201 -1.5407,-3.491 -3.4238,-3.491 -1.8831,0 -3.4238,-1.571 -3.4238,-3.4911 0,-1.92 -1.5407,-3.491 -3.4238,-3.491 -1.8831,0 -3.4238,-1.5709 -3.4238,-3.491 0,-1.9201 -1.5407,-3.491 -3.4238,-3.491 -1.8831,0 -3.4239,-1.571 -3.4239,-3.4911 0,-1.92 -1.5407,-3.491 -3.4238,-3.491 -1.8831,0 -3.4238,-1.5709 -3.4238,-3.491 0,-1.9201 -1.5407,-3.491 -3.4238,-3.491 -1.8831,0 -3.4238,-1.571 -3.4238,-3.4911 0,-1.92 -1.5407,-3.491 -3.4238,-3.491 -1.8831,0 -3.4239,-1.571 -3.4239,-3.491 0,-1.9201 -1.5407,-3.491 -3.4238,-3.491 -1.8831,0 -3.4238,-1.0473 -3.4238,-2.3274 0,-1.28 -1.5407,-2.3273 -3.4238,-2.3273 -1.8831,0 -3.4238,-1.571 -3.4238,-3.4911 0,-1.92 -1.5408,-3.491 -3.4239,-3.491 -1.883,0 -3.4238,-1.571 -3.4238,-3.491 0,-1.9201 -1.5407,-3.491 -3.4238,-3.491 -1.8831,0 -3.4238,-1.571 -3.4238,-3.4911 0,-1.92 -1.5407,-3.491 -3.4238,-3.491 -1.8831,0 -3.4238,-1.571 -3.4238,-3.491 0,-1.9201 -1.5408,-3.491 -3.4239,-3.491 -1.8831,0 -3.4238,-1.571 -3.4238,-3.4911 0,-1.92 -1.5407,-3.491 -3.4238,-3.491 -1.8831,0 -3.4238,-1.571 -3.4238,-3.491 0,-1.9201 -1.5407,-3.491 -3.4238,-3.491 -1.8831,0 -3.4238,-1.571 -3.4238,-3.4911 0,-1.92 -1.5408,-3.491 -3.4239,-3.491 -1.8831,0 -3.4238,-1.571 -3.4238,-3.491 0,-1.9201 -1.5407,-3.491 -3.4238,-3.491 -1.8831,0 -3.4238,-1.571 -3.4238,-3.4911 0,-1.92 -1.5407,-3.491 -3.4238,-3.491 -1.8831,0 -3.4238,-1.571 -3.4238,-3.491 0,-1.9201 -1.0272,-3.4911 -2.2826,-3.4911 -1.2554,0 -2.2825,-1.5709 -2.2825,-3.491 0,-1.92 -1.5408,-3.491 -3.4239,-3.491 -1.8831,0 -3.4238,-1.571 -3.4238,-3.491 0,-1.9201 -1.5407,-3.4911 -3.4238,-3.4911 -1.8831,0 -3.4238,-1.5709 -3.4238,-3.491 0,-1.92 -1.5407,-3.491 -3.4238,-3.491 -1.8831,0 -3.4238,-1.571 -3.4238,-3.491 0,-1.9201 -1.5408,-3.4911 -3.4239,-3.4911 -1.8831,0 -3.4238,-1.5709 -3.4238,-3.491 0,-1.92 -1.5407,-3.491 -3.4238,-3.491 -1.8831,0 -3.4238,-1.571 -3.4238,-3.491 0,-1.9201 -1.5407,-3.4911 -3.4238,-3.4911 -1.8831,0 -3.4238,-1.5709 -3.4238,-3.491 0,-1.92 -1.5408,-3.491 -3.4239,-3.491 -1.8831,0 -3.4238,-1.571 -3.4238,-3.491 0,-1.9201 -1.5407,-3.4911 -3.4238,-3.4911 -1.8831,0 -3.4238,-1.5709 -3.4238,-3.491 0,-1.92 -1.5407,-3.491 -3.4238,-3.491 -1.8831,0 -3.4239,-1.0473 -3.4239,-2.3274 0,-1.28 -1.5407,-2.3273 -3.4238,-2.3273 -1.8831,0 -3.4238,-1.571 -3.4238,-3.491 0,-1.9201 -1.5407,-3.4911 -3.4238,-3.4911 -1.8831,0 -3.4238,-1.5709 -3.4238,-3.491 0,-1.92 -1.5407,-3.491 -3.4238,-3.491 -1.8831,0 -3.4239,-1.571 -3.4239,-3.491 0,-1.9201 -1.5407,-3.4911 -3.4238,-3.4911 -1.8831,0 -3.4238,-1.5709 -3.4238,-3.491 0,-1.9201 -1.5407,-3.491 -3.4238,-3.491 -1.8831,0 -3.4238,-1.571 -3.4238,-3.491 0,-1.9201 -1.5408,-3.4911 -3.4239,-3.4911 -1.8831,0 -3.4238,-1.5709 -3.4238,-3.491 0,-1.9201 -1.5407,-3.491 -3.4238,-3.491 -1.8831,0 -3.4238,-1.571 -3.4238,-3.491 0,-1.9201 -1.5407,-3.4911 -3.4238,-3.4911 -1.8831,0 -3.4238,-1.5709 -3.4238,-3.491 0,-1.9201 -1.5408,-3.491 -3.4239,-3.491 -1.8831,0 -3.4238,-1.571 -3.4238,-3.491 0,-1.9201 -1.5407,-3.4911 -3.4238,-3.4911 -1.8831,0 -3.4238,-1.5709 -3.4238,-3.491 0,-1.9201 -1.0272,-3.491 -2.2826,-3.491 -1.2554,0 -2.2825,-1.571 -2.2825,-3.491 0,-1.9201 -1.5407,-3.4911 -3.4238,-3.4911 -1.8831,0 -3.4238,-1.5709 -3.4238,-3.491 0,-1.9201 -1.5408,-3.491 -3.4239,-3.491 -1.8831,0 -3.4238,-1.571 -3.4238,-3.491 0,-1.9201 -1.5407,-3.4911 -3.4238,-3.4911 -1.8831,0 -3.4238,-1.5709 -3.4238,-3.491 0,-1.9201 -1.5407,-3.491 -3.4238,-3.491 -1.8831,0 -3.4238,-1.571 -3.4238,-3.491 0,-1.9201 -1.5408,-3.4911 -3.4239,-3.4911 -1.8831,0 -3.4238,-1.5709 -3.4238,-3.491 0,-1.9201 -1.5407,-3.491 -3.4238,-3.491 -1.8831,0 -3.4238,-1.571 -3.4238,-3.491 0,-1.9201 -1.5407,-3.4911 -3.4238,-3.4911 -1.8831,0 -3.4238,-1.5709 -3.4238,-3.491 0,-1.9201 -1.5408,-3.491 -3.4239,-3.491 -1.8831,0 -3.4238,-1.571 -3.4238,-3.4911 0,-1.92 -1.5407,-3.491 -3.4238,-3.491 -1.8831,0 -3.4238,-1.5709 -3.4238,-3.491 0,-1.9201 -1.5407,-3.491 -3.4238,-3.491 -1.8831,0 -3.4238,-1.0473 -3.4238,-2.3274 0,-1.28 1.5407,-2.3273 3.4238,-2.3273 1.8831,0 3.4238,-1.571 3.4238,-3.4911 0,-1.92 1.5407,-3.491 3.4238,-3.491 1.8831,0 3.4238,-1.5709 3.4238,-3.491 0,-1.9201 1.5407,-3.491 3.4238,-3.491 1.8831,0 3.4239,-1.571 3.4239,-3.4911 0,-1.92 1.5407,-3.491 3.4238,-3.491 1.8831,0 3.4238,-1.5709 3.4238,-3.491 0,-1.9201 1.5407,-3.491 3.4238,-3.491 1.8831,0 3.4238,-1.571 3.4238,-3.4911 0,-1.92 1.5407,-3.491 3.4238,-3.491 1.8831,0 3.4239,-1.4574 3.4239,-3.2387 0,-1.7813 2.5522,-3.8919 5.6716,-4.6901 3.4989,-0.8955 6.2169,-3.6668 7.095,-7.2344 0.783,-3.1806 2.8529,-5.7829 4.5999,-5.7829 1.747,0 3.1764,-1.571 3.1764,-3.4911 0,-1.92 1.5407,-3.491 3.4238,-3.491 1.8831,0 3.4238,-1.5709 3.4238,-3.491 0,-1.9201 1.0271,-3.491 2.2825,-3.491 1.2554,0 2.2826,-1.571 2.2826,-3.4911 0,-1.92 1.5407,-3.491 3.4238,-3.491 1.8831,0 3.4238,-1.5709 3.4238,-3.491 0,-1.9395 2.029,-3.491 4.5651,-3.491 2.5362,0 4.5651,-1.5516 4.5651,-3.4911 0,-1.92 1.0272,-3.491 2.2826,-3.491 1.2554,0 2.2825,-1.571 2.2825,-3.491 0,-2.2983 2.255,-3.491 6.6002,-3.491 5.1366,0 6.9178,-1.2903 8.0324,-5.8184 0.7877,-3.2001 2.4398,-5.8184 3.6712,-5.8184 1.2315,0 2.2391,-2.0946 2.2391,-4.6547 0,-2.5859 1.5217,-4.65472 3.4238,-4.65472 1.8831,0 3.4238,-1.571 3.4238,-3.491 0,-1.9201 1.5408,-3.491 3.4239,-3.491 1.8831,0 3.4238,-1.571 3.4238,-3.4911 0,-1.92 1.5407,-3.491 3.4238,-3.491 1.8831,0 3.4238,-0.9641 3.4238,-2.1424 0,-1.1784 3.0814,-2.8325 6.8476,-3.676 5.2005,-1.1646 6.8477,-2.8279 6.8477,-6.9146 0,-3.7902 1.6769,-5.8103 5.6716,-6.8326 3.4989,-0.8954 6.2169,-3.6668 7.0951,-7.2344 0.7829,-3.1806 2.8528,-5.7829 4.5998,-5.7829 1.747,0 3.1764,-1.571 3.1764,-3.491 0,-1.9201 1.5407,-3.4911 3.4238,-3.4911 1.8831,0 3.4238,-1.5709 3.4238,-3.491 0,-1.92 1.5407,-3.491 3.4238,-3.491 1.8831,0 3.4239,-1.571 3.4239,-3.491 0,-1.9201 1.5407,-3.4911 3.4238,-3.4911 1.8831,0 3.4238,-1.5709 3.4238,-3.491 0,-2.1416 2.1356,-3.491 5.525,-3.491 4.283,0 5.8631,-1.56957 7.029,-6.98205 0.8272,-3.84013 2.4378,-6.98205 3.5791,-6.98205 3.3281,0 11.2574,-7.74117 11.2574,-10.99031 0,-1.63559 1.0272,-2.9738 2.2826,-2.9738 1.2554,0 2.2825,-1.57096 2.2825,-3.49102 0,-1.92007 1.5407,-3.49103 3.4238,-3.49103 1.8831,0 3.4239,-1.57096 3.4239,-3.49102 0,-1.92007 1.5407,-3.49103 3.4238,-3.49103 1.8831,0 3.4238,-1.57096 3.4238,-3.49102 0,-1.92007 1.5407,-3.49103 3.4238,-3.49103 1.8831,0 3.4238,-1.57096 3.4238,-3.49102 0,-2.32735 2.2826,-3.49103 6.8477,-3.49103 4.4005,0 6.8476,-1.18357 6.8476,-3.31201 0,-1.82159 3.0814,-6.4539 6.8476,-10.29403 3.7662,-3.84013 6.8477,-8.10993 6.8477,-9.48844 0,-1.37849 1.5407,-2.50637 3.4238,-2.50637 1.8831,0 3.4238,-1.57096 3.4238,-3.49103 0,-1.92006 1.5407,-3.49102 3.4238,-3.49102 1.8831,0 3.4238,-1.57097 3.4238,-3.49103 0,-1.92006 1.5408,-3.49103 3.4239,-3.49103 1.8831,0 3.4238,-1.57096 3.4238,-3.49102 0,-1.92006 1.5407,-3.49103 3.4238,-3.49103 1.8831,0 3.4238,-1.45743 3.4238,-3.23871 0,-1.78131 2.5522,-3.89187 5.6716,-4.69015 3.4255,-0.87664 6.2157,-3.66171 7.0454,-7.03267 0.812,-3.29872 3.6125,-6.15412 6.8477,-6.98205 3.306,-0.84606 6.0375,-3.69097 6.8973,-7.18374 0.7829,-3.1806 2.8528,-5.78293 4.5998,-5.78293 1.747,0 3.1764,-1.57096 3.1764,-3.49103 0,-1.92006 1.5407,-3.49102 3.4238,-3.49102 1.8831,0 3.4238,-1.57096 3.4238,-3.49103 0,-1.92006 1.5407,-3.49102 3.4238,-3.49102 1.8831,0 3.4239,-1.57096 3.4239,-3.49103 0,-1.92006 1.0271,-3.49102 2.2825,-3.49102 1.2554,0 2.2825,-1.57096 2.2825,-3.49103 0,-1.92006 1.6141,-3.49102 3.5869,-3.49102 4.6131,0 10.1084,-5.60317 10.1084,-10.30684 0,-2.0115 1.6141,-3.65727 3.5869,-3.65727 4.6131,0 10.1084,-5.60316 10.1084,-10.30683 0,-2.01151 1.6141,-3.65727 3.5868,-3.65727 4.6132,0 10.1085,-5.60316 10.1085,-10.30683 0,-2.01151 1.5407,-3.65727 3.4238,-3.65727 1.8831,0 3.4238,-1.57096 3.4238,-3.49103 0,-1.92006 1.5407,-3.49102 3.4238,-3.49102 1.8831,0 3.4238,-1.57096 3.4238,-3.49103 0,-1.92006 1.5407,-3.49102 3.4238,-3.49102 1.8831,0 3.4239,-1.04731 3.4239,-2.32735 0,-1.28004 -1.5408,-2.32735 -3.4239,-2.32735 -1.8831,0 -3.4238,-1.57096 -3.4238,-3.49103 0,-1.92006 -1.5407,-3.49102 -3.4238,-3.49102 -1.8831,0 -3.4238,-1.57096 -3.4238,-3.49103 0,-1.92006 -1.5407,-3.49102 -3.4238,-3.49102 -2.2826,0 -3.4238,-2.32735 -3.4238,-6.98205 0,-6.20628 -0.7609,-6.98206 -6.8477,-6.98206 -4.5651,0 -6.8476,-1.16367 -6.8476,-3.49102 0,-1.92007 -1.5407,-3.49103 -3.4238,-3.49103 -1.8831,0 -3.4239,-1.0473 -3.4239,-2.32735 0,-1.28004 -2.0542,-4.42196 -4.565,-6.98205 -2.5108,-2.56008 -5.5923,-4.6547 -6.8477,-4.6547 -1.2554,0 -2.2825,-1.09732 -2.2825,-2.43848 0,-1.34116 -2.5679,-4.865 -5.7064,-7.83077 -3.1385,-2.96576 -5.7063,-6.58132 -5.7063,-8.03459 0,-1.45327 -1.4592,-2.64231 -3.2425,-2.64231 -1.7833,0 -3.9193,-3.14192 -4.7465,-6.98205 -1.1659,-5.41249 -2.746,-6.98205 -7.029,-6.98205 -3.3894,0 -5.525,-1.3494 -5.525,-3.49103 0,-1.92006 -1.5407,-3.49102 -3.4238,-3.49102 -1.8831,0 -3.4238,-1.57097 -3.4238,-3.49103 0,-1.92006 -1.5407,-3.49102 -3.4238,-3.49102 -1.8831,0 -3.4238,-1.57097 -3.4238,-3.49103 0,-1.92006 -1.5407,-3.49103 -3.4238,-3.49103 -1.8831,0 -3.4239,-1.57096 -3.4239,-3.49102 0,-1.92007 -1.5407,-3.49103 -3.4238,-3.49103 -1.8831,0 -3.4238,-1.57096 -3.4238,-3.49102 0,-1.92007 -1.5407,-3.49103 -3.4238,-3.49103 -1.8831,0 -3.4238,-1.57096 -3.4238,-3.49102 0,-1.92007 -1.5407,-3.49103 -3.4238,-3.49103 -2.1304,0 -3.4239,-2.19804 -3.4239,-5.81837 0,-4.9133 -1.0652,-5.81838 -6.8476,-5.81838 -4.5651,0 -6.8476,-1.16368 -6.8476,-3.49103 0,-1.92006 -1.5408,-3.49102 -3.4239,-3.49102 -1.883,0 -3.4238,-1.57096 -3.4238,-3.49103 0,-1.92006 -1.5407,-3.49102 -3.4238,-3.49102 -1.8831,0 -3.4238,-1.57096 -3.4238,-3.49103 0,-1.92006 -1.5407,-3.49102 -3.4238,-3.49102 -1.8831,0 -3.4238,-1.57096 -3.4238,-3.49103 0,-1.92006 -1.5408,-3.49102 -3.4239,-3.49102 -1.8831,0 -3.4238,-1.64577 -3.4238,-3.65727 0,-4.21611 -5.3413,-10.30684 -9.0388,-10.30684 -1.3844,0 -3.1978,-1.83278 -4.0297,-4.07286 -2.1629,-5.82398 -6.5772,-9.89124 -10.7352,-9.89124 -1.9727,0 -3.5868,-1.57096 -3.5868,-3.49102 0,-1.92007 -1.5407,-3.49103 -3.4238,-3.49103 -1.8831,0 -3.4238,-1.57096 -3.4238,-3.49102 0,-1.92007 -1.0272,-3.49103 -2.2826,-3.49103 -1.2554,0 -2.2825,-1.57096 -2.2825,-3.49102 0,-1.92007 -1.5408,-3.49103 -3.4239,-3.49103 -1.8831,0 -3.4238,-1.57096 -3.4238,-3.49103 0,-1.92006 -1.5407,-3.49102 -3.4238,-3.49102 -1.8831,0 -3.4238,-1.57096 -3.4238,-3.49103 0,-1.92006 -1.5407,-3.49102 -3.4238,-3.49102 -1.8831,0 -3.4238,-1.49039 -3.4238,-3.31201 0,-4.29792 -13.0795,-17.63414 -17.2947,-17.63414 -1.7865,0 -3.2482,-1.57097 -3.2482,-3.49103 0,-1.92006 -1.5408,-3.49103 -3.4239,-3.49103 -1.8831,0 -3.4238,-1.57096 -3.4238,-3.49102 0,-1.92006 -1.5407,-3.49103 -3.4238,-3.49103 -1.8831,0 -3.4238,-1.57096 -3.4238,-3.49102 0,-1.92007 -1.5407,-3.49103 -3.4238,-3.49103 -1.8831,0 -3.4239,-1.57096 -3.4239,-3.49102 0,-1.92007 -1.5407,-3.49103 -3.4238,-3.49103 -2.089,0 -3.4238,-2.17002 -3.4238,-5.56607 0,-3.98707 -1.6089,-5.97782 -5.6716,-7.01749 -3.4989,-0.89543 -6.2169,-3.66674 -7.0951,-7.23436 -0.7829,-3.1806 -2.8528,-5.78293 -4.5998,-5.78293 -1.747,0 -3.1764,-1.57096 -3.1764,-3.49103 0,-2.32735 -2.2825,-3.49102 -6.8476,-3.49102 -4.5651,0 -6.8477,-1.16368 -6.8477,-3.49103 0,-1.92006 -1.0271,-3.49102 -2.2825,-3.49102 -1.2554,0 -2.2826,-1.57096 -2.2826,-3.49103 0,-1.93945 -2.0289,-3.49102 -4.565,-3.49102 -2.5362,0 -4.5651,-1.55158 -4.5651,-3.49103 0,-1.92006 -1.5408,-3.49102 -3.4239,-3.49102 -1.8831,0 -3.4238,-1.57097 -3.4238,-3.49103 0,-1.92006 -1.5407,-3.49103 -3.4238,-3.49103 -1.8831,0 -3.4238,-1.57096 -3.4238,-3.49102 0,-1.92007 -1.0272,-3.49103 -2.2826,-3.49103 -1.2554,0 -2.2825,-1.57096 -2.2825,-3.49102 0,-1.92007 -1.5407,-3.49103 -3.4238,-3.49103 -1.8831,0 -3.4238,-1.57096 -3.4238,-3.49102 0,-1.92007 -1.5408,-3.49103 -3.4239,-3.49103 -1.8831,0 -3.4238,-1.57096 -3.4238,-3.49102 0,-1.92007 -1.5407,-3.49103 -3.4238,-3.49103 -1.8831,0 -3.4238,-1.57096 -3.4238,-3.49102 0,-1.92007 -1.5407,-3.49103 -3.4238,-3.49103 -1.8831,0 -3.4238,-1.57096 -3.4238,-3.49103 0,-1.92006 -1.5408,-3.49102 -3.4239,-3.49102 -1.8831,0 -3.4238,-1.57096 -3.4238,-3.49103 0,-1.92006 -1.5407,-3.49102 -3.4238,-3.49102 -1.8831,0 -3.4238,-1.57096 -3.4238,-3.49103 0,-1.92006 -1.5407,-3.49102 -3.4238,-3.49102 -1.8831,0 -3.4238,-1.57096 -3.4238,-3.49103 0,-1.92006 -1.5408,-3.49102 -3.4239,-3.49102 -1.8831,0 -3.4238,-1.57097 -3.4238,-3.49103 0,-1.92006 -1.5407,-3.49102 -3.4238,-3.49102 -1.8831,0 -3.4238,-1.57097 -3.4238,-3.49103 0,-1.92006 -1.5407,-3.49103 -3.4238,-3.49103 -1.8831,0 -3.4238,-1.0473 -3.4238,-2.32735 0,-1.28004 1.5407,-2.32735 3.4238,-2.32735 1.8831,0 3.4238,-1.57096 3.4238,-3.49102 0,-1.92007 1.5407,-3.49103 3.4238,-3.49103 1.8831,0 3.4238,-1.57096 3.4238,-3.49102 0,-1.92007 1.5407,-3.49103 3.4238,-3.49103 1.8831,0 3.4239,-1.57096 3.4239,-3.49102 0,-1.92007 1.5407,-3.49103 3.4238,-3.49103 1.8831,0 3.4238,-1.57096 3.4238,-3.49102 0,-1.92007 1.5407,-3.49103 3.4238,-3.49103 1.8831,0 3.4238,-1.57096 3.4238,-3.49103 0,-1.92006 1.5407,-3.49102 3.4238,-3.49102 1.8831,0 3.4239,-1.57096 3.4239,-3.49103 0,-1.92006 1.5407,-3.49102 3.4238,-3.49102 1.8831,0 3.4238,-1.57096 3.4238,-3.49103 0,-1.92006 1.5407,-3.49102 3.4238,-3.49102 1.8831,0 3.4238,-1.57096 3.4238,-3.49103 0,-1.92006 1.5407,-3.49102 3.4238,-3.49102 1.8831,0 3.4239,-1.57097 3.4239,-3.49103 0,-1.92006 1.5407,-3.49102 3.4238,-3.49102 1.8831,0 3.4238,-1.57097 3.4238,-3.49103 0,-1.92006 1.0271,-3.49103 2.2825,-3.49103 1.2554,0 2.2826,-1.57096 2.2826,-3.49102 0,-1.92006 1.5407,-3.49103 3.4238,-3.49103 1.8831,0 3.4238,-1.57096 3.4238,-3.49102 0,-1.92007 1.5407,-3.49103 3.4238,-3.49103 1.8831,0 3.4239,-1.57096 3.4239,-3.49102 0,-1.92007 1.5407,-3.49103 3.4238,-3.49103 1.8831,0 3.4238,-1.57096 3.4238,-3.49102 0,-1.92007 1.5407,-3.49103 3.4238,-3.49103 1.8831,0 3.4238,-1.57096 3.4238,-3.49102 0,-1.92007 1.5407,-3.49103 3.4238,-3.49103 1.8831,0 3.4239,-1.57096 3.4239,-3.49103 0,-1.92006 1.5407,-3.49102 3.4238,-3.49102 1.8831,0 3.4238,-1.57096 3.4238,-3.49103 0,-1.92006 1.5407,-3.49102 3.4238,-3.49102 1.8831,0 3.4238,-1.57096 3.4238,-3.49103 0,-1.92006 1.5408,-3.49102 3.4239,-3.49102 1.8831,0 3.4238,-1.57096 3.4238,-3.49103 0,-1.92006 1.5407,-3.49102 3.4238,-3.49102 1.8831,0 3.4238,-1.57096 3.4238,-3.49103 0,-1.92006 1.5407,-3.49102 3.4238,-3.49102 1.8831,0 3.4238,-1.04731 3.4238,-2.32735 0,-1.28005 1.5408,-2.32735 3.4239,-2.32735 1.8831,0 3.4238,-1.57097 3.4238,-3.49103 0,-1.92006 1.5407,-3.49103 3.4238,-3.49103 1.8831,0 3.4238,-1.57096 3.4238,-3.49102 0,-1.92007 1.5407,-3.49103 3.4238,-3.49103 1.8831,0 3.4239,-1.57096 3.4239,-3.49102 0,-1.92007 1.5407,-3.49103 3.4238,-3.49103 1.8831,0 3.4238,-1.57096 3.4238,-3.49102 0,-1.92007 1.5407,-3.49103 3.4238,-3.49103 1.8831,0 3.4238,-1.57096 3.4238,-3.49102 0,-1.92007 1.5407,-3.49103 3.4238,-3.49103 1.8831,0 3.4239,-1.570957 3.4239,-3.491017 0,-1.92007 1.5407,-3.49103 3.4238,-3.49103 1.8831,0 3.4238,-1.57096 3.4238,-3.49103 0,-1.92006 1.5407,-3.49102 3.4238,-3.49102 1.8831,0 3.4238,-1.57096 3.4238,-3.49103 0,-1.92006 1.5407,-3.49102 3.4238,-3.49102 1.8831,0 3.4239,-1.57096 3.4239,-3.49103 0,-1.92006 1.0271,-3.49102 2.2825,-3.49102 1.2554,0 2.2826,-1.57096 2.2826,-3.49103 0,-1.92006 1.5407,-3.49102 3.4238,-3.49102 1.8831,0 3.4238,-1.57097 3.4238,-3.49103 0,-1.92006 1.5407,-3.49102 3.4238,-3.49102 1.8831,0 3.4238,-1.57097 3.4238,-3.49103 0,-1.92006 1.5407,-3.49103 3.4238,-3.49103 1.8831,0 3.4239,-1.57096 3.4239,-3.49102 0,-1.92007 1.5407,-3.49103 3.4238,-3.49103 1.8831,0 3.4238,-1.57096 3.4238,-3.49102 0,-1.92007 1.5407,-3.49103 3.4238,-3.49103 1.8831,0 3.4238,-1.57096 3.4238,-3.49102 0,-1.92007 1.5407,-3.49103 3.4238,-3.49103 1.8831,0 3.4239,-1.57096 3.4239,-3.49102 0,-1.920068 1.5407,-3.491029 3.4238,-3.491029 1.8831,0 3.4238,-1.570962 3.4238,-3.491026 0,-1.920064 1.5407,-3.491025 3.4238,-3.491025 1.8831,0 3.4238,-1.570962 3.4238,-3.491026 0,-1.920064 1.5408,-3.491025 3.4238,-3.491025 1.8831,0 3.4239,-1.570962 3.4239,-3.491026 0,-1.920064 1.5407,-3.491025 3.4238,-3.491025 1.8831,0 3.4238,-1.047308 3.4238,-2.32734996 0,-1.280043 1.5407,-2.32735104 3.4238,-2.32735104 1.8831,0 3.4238,-1.570961 3.4238,-3.491025 0,-1.920064 1.5408,-3.491026 3.4239,-3.491026 1.8831,0 3.4238,-1.570961 3.4238,-3.491025 0,-1.920064 1.5407,-3.491026 3.4238,-3.491026 1.8831,0 3.4238,-1.570961 3.4238,-3.491025 0,-1.920064 1.5407,-3.491025 3.4238,-3.491025 1.8831,0 3.4238,-1.570962 3.4238,-3.491026 0,-1.920064 1.5408,-3.491025 3.4239,-3.491025 1.8831,0 3.4238,-1.570962 3.4238,-3.491026 0,-1.920064 1.5407,-3.491025 3.4238,-3.491025 1.8831,0 3.4238,-1.570962 3.4238,-3.491026 0,-1.920064 1.5407,-3.491025 3.4238,-3.491025 1.8831,0 3.4238,-1.570962 3.4238,-3.491026 0,-1.920064 1.5408,-3.491025 3.4239,-3.491025 1.8831,0 3.4238,-1.570962 3.4238,-3.491026 0,-1.920064 1.5407,-3.491025 3.4238,-3.491025 1.8831,0 3.4238,-1.570961 3.4238,-3.491025 0,-1.920064 1.5407,-3.491026 3.4238,-3.491026 1.8831,0 3.4239,-1.570961 3.4239,-3.491025 0,-6.231911 4.1601,-3.686794 5.7063,3.491025 1.1659,5.412476 2.746,6.982051 7.029,6.982051 3.3894,0 5.525,1.34939 5.525,3.491025 0,1.920064 1.5407,3.491026 3.4238,3.491026 1.8831,0 3.4238,1.570961 3.4238,3.491025 0,1.920064 1.5408,3.491026 3.4239,3.491026 1.8831,0 3.4238,1.570961 3.4238,3.491025 0,1.920064 1.5407,3.491026 3.4238,3.491026 1.8831,0 3.4238,1.570961 3.4238,3.491025 0,1.920064 1.5407,3.491026 3.4238,3.491026 1.8831,0 3.4239,1.570961 3.4239,3.491025 0,1.920064 1.5407,3.491026 3.4238,3.491026 1.8831,0 3.4238,1.570961 3.4238,3.491025 0,1.920064 1.5407,3.491025 3.4238,3.491025 1.8831,0 3.4238,1.570962 3.4238,3.491026 0,1.920064 1.5407,3.491025 3.4238,3.491025 1.8831,0 3.4239,1.570962 3.4239,3.491026 0,1.920064 1.5407,3.491025 3.4238,3.491025 1.8831,0 3.4238,1.04730804 3.4238,2.32735104 0,1.28004196 1.5407,2.32734996 3.4238,2.32734996 1.8831,0 3.4238,1.570961 3.4238,3.491025 0,1.920064 1.5407,3.491026 3.4238,3.491026 1.8831,0 3.4239,1.570961 3.4239,3.491025 0,1.920064 1.5407,3.491026 3.4238,3.491026 1.8831,0 3.4238,1.570961 3.4238,3.491025 0,1.920064 1.5407,3.491026 3.4238,3.491026 1.8831,0 3.4238,1.570961 3.4238,3.491029 0,1.92006 1.5408,3.49102 3.4239,3.49102 1.8831,0 3.4238,1.57096 3.4238,3.49103 0,1.92006 1.5407,3.49102 3.4238,3.49102 1.8831,0 3.4238,1.57096 3.4238,3.49103 0,1.92006 1.5407,3.49102 3.4238,3.49102 1.8831,0 3.4238,1.57096 3.4238,3.49103 0,1.92006 1.5408,3.49102 3.4239,3.49102 1.8831,0 3.4238,1.57097 3.4238,3.49103 0,1.92006 1.5407,3.49103 3.4238,3.49103 1.8831,0 3.4238,1.57096 3.4238,3.49102 0,1.92006 1.0272,3.49103 2.2826,3.49103 1.2554,0 2.2825,1.57096 2.2825,3.49102 0,1.92007 1.5407,3.49103 3.4238,3.49103 1.8831,0 3.4238,1.57096 3.4238,3.49102 0,1.92007 1.5408,3.49103 3.4239,3.49103 1.8831,0 3.4238,1.57096 3.4238,3.49102 0,1.92007 1.5407,3.49103 3.4238,3.49103 1.8831,0 3.4238,1.57096 3.4238,3.49102 0,1.92007 1.5407,3.49103 3.4238,3.49103 1.8831,0 3.4238,1.57096 3.4238,3.49103 0,1.92006 1.5408,3.491017 3.4239,3.491017 1.8831,0 3.4238,1.57096 3.4238,3.49103 0,1.92006 1.5407,3.49102 3.4238,3.49102 1.8831,0 3.4238,1.57096 3.4238,3.49103 0,1.92006 1.5407,3.49102 3.4238,3.49102 1.8831,0 3.4238,1.57096 3.4238,3.49103 0,1.92006 1.5408,3.49102 3.4239,3.49102 1.8831,0 3.4238,1.57096 3.4238,3.49103 0,1.92006 1.5407,3.49102 3.4238,3.49102 1.8831,0 3.4238,1.57097 3.4238,3.49103 0,1.92006 1.5407,3.49103 3.4238,3.49103 1.8831,0 3.4239,1.0473 3.4239,2.32735 0,1.28004 1.5407,2.32735 3.4238,2.32735 1.8831,0 3.4238,1.57096 3.4238,3.49102 0,1.92007 1.5407,3.49103 3.4238,3.49103 1.8831,0 3.4238,1.57096 3.4238,3.49102 0,1.92007 1.5407,3.49103 3.4238,3.49103 1.8831,0 3.4239,1.57096 3.4239,3.49102 0,1.92007 1.5407,3.49103 3.4238,3.49103 1.8831,0 3.4238,1.57096 3.4238,3.49102 0,1.92007 1.5407,3.49103 3.4238,3.49103 1.8831,0 3.4238,1.57096 3.4238,3.49102 0,1.92007 1.5407,3.49103 3.4238,3.49103 1.8831,0 3.4239,1.57096 3.4239,3.49103 0,1.92006 1.5407,3.49102 3.4238,3.49102 1.8831,0 3.4238,1.57096 3.4238,3.49103 0,1.92006 1.5407,3.49102 3.4238,3.49102 1.8831,0 3.4238,1.57096 3.4238,3.49103 0,1.92006 1.5407,3.49102 3.4238,3.49102 1.8831,0 3.4239,1.57096 3.4239,3.49103 0,1.92006 1.5407,3.49102 3.4238,3.49102 1.8831,0 3.4238,1.57097 3.4238,3.49103 0,1.92006 1.0271,3.49102 2.2825,3.49102 1.2554,0 2.2826,1.57097 2.2826,3.49103 0,1.92006 1.5407,3.49103 3.4238,3.49103 1.8831,0 3.4238,1.57096 3.4238,3.49102 0,1.92006 1.5407,3.49103 3.4238,3.49103 1.8831,0 3.4239,1.57096 3.4239,3.49102 0,1.92007 1.5407,3.49103 3.4238,3.49103 1.8831,0 3.4238,1.57096 3.4238,3.49102 0,1.92007 1.5407,3.49103 3.4238,3.49103 1.8831,0 3.4238,1.57096 3.4238,3.49102 0,1.92007 1.5408,3.49103 3.4239,3.49103 1.883,0 3.4238,1.57096 3.4238,3.49102 0,1.92007 1.5407,3.49103 3.4238,3.49103 1.8831,0 3.4238,1.57096 3.4238,3.49103 0,1.92006 1.5407,3.49102 3.4238,3.49102 1.8831,0 3.4238,1.57096 3.4238,3.49103 0,1.92006 1.5408,3.49102 3.4239,3.49102 1.8831,0 3.4238,1.57096 3.4238,3.49103 0,1.92006 1.5407,3.49102 3.4238,3.49102 1.8831,0 3.4238,1.57096 3.4238,3.49103 0,1.92006 1.5407,3.49102 3.4238,3.49102 1.8831,0 3.4238,1.04731 3.4238,2.32735 0,1.28005 1.5408,2.32735 3.4239,2.32735 1.8831,0 3.4238,1.57097 3.4238,3.49103 0,1.92006 1.5407,3.49103 3.4238,3.49103 1.8831,0 3.4238,1.57096 3.4238,3.49102 0,1.92006 1.5407,3.49103 3.4238,3.49103 1.8831,0 3.4238,1.57096 3.4238,3.49102 0,1.92007 1.5408,3.49103 3.4239,3.49103 1.8831,0 3.4238,1.64576 3.4238,3.65727 0,4.70366 5.4953,10.30683 10.1084,10.30683 1.9728,0 3.5869,1.57096 3.5869,3.49102 0,1.92007 1.5407,3.49103 3.4238,3.49103 1.8831,0 3.4238,1.57096 3.4238,3.49103 0,1.92006 1.5407,3.49102 3.4238,3.49102 1.8831,0 3.4238,1.57096 3.4238,3.49103 0,1.92006 1.5407,3.49102 3.4238,3.49102 1.8831,0 3.4239,1.57096 3.4239,3.49103 0,1.92006 1.0271,3.49102 2.2825,3.49102 1.2554,0 2.2825,-1.57096 2.2825,-3.49102 0,-1.92007 1.5408,-3.49103 3.4239,-3.49103 1.8831,0 3.4238,-1.57096 3.4238,-3.49102 0,-1.92007 1.5407,-3.49103 3.4238,-3.49103 1.8831,0 3.4238,-1.57096 3.4238,-3.49102 0,-1.92007 1.5407,-3.49103 3.4238,-3.49103 1.8831,0 3.4239,-1.57096 3.4239,-3.49103 0,-1.92006 1.5407,-3.49102 3.4238,-3.49102 1.8831,0 3.4238,-1.57096 3.4238,-3.49103 0,-1.92006 1.6197,-3.49102 3.5994,-3.49102 4.6654,0 16.9435,-12.51912 16.9435,-17.27611 0,-2.01851 1.5407,-3.67004 3.4238,-3.67004 1.8831,0 3.4238,-1.04731 3.4238,-2.32736 0,-1.28004 1.5407,-2.32735 3.4238,-2.32735 1.8831,0 3.4239,-1.57096 3.4239,-3.49102 0,-1.92006 1.5407,-3.49103 3.4238,-3.49103 1.8831,0 3.4238,-1.57096 3.4238,-3.49102 0,-1.92007 1.5407,-3.49103 3.4238,-3.49103 1.8831,0 3.4238,-1.57096 3.4238,-3.49102 0,-1.92007 1.5408,-3.49103 3.4239,-3.49103 1.8831,0 3.42377,-1.57096 3.42377,-3.49102 0,-1.92007 1.54071,-3.49103 3.42381,-3.49103 1.8831,0 3.42382,-1.45743 3.42382,-3.23872 0,-1.7813 2.55223,-3.89186 5.6716,-4.69014 3.49894,-0.89543 6.2169,-3.66674 7.09509,-7.23436 0.78291,-3.18061 2.85283,-5.78293 4.59985,-5.78293 1.74699,0 3.17637,-1.57096 3.17637,-3.49103 0,-1.92006 1.54071,-3.49102 3.42381,-3.49102 1.8831,0 3.42382,-1.57096 3.42382,-3.49103 0,-1.92006 1.54072,-3.49102 3.42382,-3.49102 1.8831,0 3.42382,-1.57097 3.42382,-3.49103 0,-1.92006 1.54071,-3.49102 3.42381,-3.49102 1.8831,0 3.42382,-1.57097 3.42382,-3.49103 0,-1.92006 1.54072,-3.49103 3.42382,-3.49103 1.8831,0 3.42382,-1.57096 3.42382,-3.49102 0,-1.92006 1.02714,-3.49103 2.28254,-3.49103 1.2554,0 2.28255,-1.57096 2.28255,-3.49102 0,-1.92007 1.61407,-3.49103 3.58686,-3.49103 4.61311,0 10.10841,-5.60316 10.10841,-10.30683 0,-2.01151 0.9929,-3.65727 2.20646,-3.65727 2.8719,0 18.33644,-15.7681 18.33644,-18.69637 0,-1.23738 1.02715,-2.24978 2.28255,-2.24978 1.2554,0 4.33683,-2.09462 6.84763,-4.6547 2.5108,-2.56009 4.56509,-5.70201 4.56509,-6.98205 0,-1.28005 1.54072,-2.32735 3.42382,-2.32735 1.8831,0 3.42382,-0.93377 3.42382,-2.07505 0,-1.14128 2.55222,-2.72819 5.6716,-3.52647 3.49893,-0.89542 6.2169,-3.66673 7.09508,-7.23436 0.78291,-3.18061 2.85284,-5.78293 4.59985,-5.78293 1.747,0 3.17637,-1.57096 3.17637,-3.49102 0,-1.92007 1.54072,-3.49103 3.42382,-3.49103 1.8831,0 3.42382,-1.57096 3.42382,-3.49102 0,-1.92007 1.54071,-3.49103 3.42381,-3.49103 1.8831,0 3.42382,-1.57096 3.42382,-3.49102 0,-1.92007 1.54072,-3.49103 3.42382,-3.49103 1.8831,0 3.42382,-1.57096 3.42382,-3.49102 0,-1.92007 1.54071,-3.49103 3.42381,-3.49103 1.8831,0 3.42382,-1.570957 3.42382,-3.491017 0,-1.92007 1.54072,-3.49103 3.42382,-3.49103 1.88314,0 3.42384,-1.57096 3.42384,-3.49103 0,-1.92006 1.5407,-3.49102 3.4238,-3.49102 1.8831,0 3.4238,-1.57096 3.4238,-3.49103 0,-1.92006 1.5407,-3.49102 3.4238,-3.49102 1.8831,0 3.4238,-1.57096 3.4238,-3.49103 0,-2.17219 2.1558,-3.49102 5.7064,-3.49102 4.8187,0 5.7064,-1.0861 5.7064,-6.98205 0,-5.43049 1.0144,-6.98205 4.5651,-6.98205 2.5108,0 4.5651,-1.18904 4.5651,-2.64231 0,-1.45327 2.5678,-5.06884 5.7063,-8.0346 3.1385,-2.96576 5.7064,-6.48961 5.7064,-7.83077 0,-1.34116 1.5407,-2.43848 3.4238,-2.43848 1.8831,0 3.4238,-1.57096 3.4238,-3.49102 0,-2.32735 2.2826,-3.49103 6.8476,-3.49103 6.0868,0 6.8477,-0.77578 6.8477,-6.982049 0,-6.206269 0.7608,-6.982051 6.8476,-6.982051 6.0868,0 6.8477,-0.775783 6.8477,-6.982051 0,-4.654701 1.1412,-6.982051 3.4238,-6.982051 1.8831,0 3.4238,-1.047308 3.4238,-2.32734996 0,-1.280043 1.5407,-2.32735104 3.4238,-2.32735104 1.8831,0 3.4238,-1.570961 3.4238,-3.491025 0,-1.920064 1.5407,-3.491026 3.4238,-3.491026 1.8831,0 3.4239,-1.570961 3.4239,-3.491025 0,-1.920064 1.5407,-3.491026 3.4238,-3.491026 1.8831,0 3.4238,-1.457424 3.4238,-3.238722 0,-1.781298 2.5522,-3.891862 5.6716,-4.690146 3.4989,-0.895415 6.2169,-3.666726 7.0951,-7.234354 0.7829,-3.180611 2.8528,-5.78293 4.5998,-5.78293 1.747,0 3.1764,-1.570962 3.1764,-3.491026 0,-1.920064 1.5407,-3.491025 3.4238,-3.491025 1.8831,0 3.4238,-1.570962 3.4238,-3.491026 0,-1.920064 1.5408,-3.491025 3.4239,-3.491025 1.8831,0 3.4238,-1.570962 3.4238,-3.491026 0,-1.920064 1.5407,-3.491025 3.4238,-3.491025 1.8831,0 3.4238,-1.570961 3.4238,-3.491025 0,-1.920064 1.5407,-3.491026 3.4238,-3.491026 1.8831,0 3.4238,-1.570961 3.4238,-3.491025 0,-1.920064 1.0272,-3.491026 2.2826,-3.491026 1.2554,0 2.2825,1.570962 2.2825,3.491026 0,1.920064 1.5407,3.491025 3.4238,3.491025 1.8831,0 3.4239,1.570962 3.4239,3.491026 0,1.920064 1.5407,3.491025 3.4238,3.491025 1.8831,0 3.4238,1.570961 3.4238,3.491025 0,1.920064 1.5407,3.491026 3.4238,3.491026 1.8831,0 3.4238,1.570961 3.4238,3.491025 0,1.920064 1.5408,3.491026 3.4239,3.491026 1.8831,0 3.4238,1.570961 3.4238,3.491025 0,1.920064 1.5407,3.491026 3.4238,3.491026 1.8831,0 3.4238,1.570961 3.4238,3.491025 0,1.920064 1.5407,3.491026 3.4238,3.491026 1.8831,0 3.4238,1.570961 3.4238,3.491025 0,1.920064 1.5408,3.491026 3.4239,3.491026 1.8831,0 3.4238,1.570961 3.4238,3.491025 0,1.920064 1.5407,3.491025 3.4238,3.491025 1.8831,0 3.4238,1.570962 3.4238,3.491026 0,1.920064 1.5407,3.491025 3.4238,3.491025 1.8831,0 3.4238,1.570962 3.4238,3.491026 0,1.920064 1.5408,3.491025 3.4239,3.491025 1.8831,0 3.4238,1.04730804 3.4238,2.32735104 0,1.28004196 1.5407,2.32734996 3.4238,2.32734996 1.8831,0 3.4238,1.570961 3.4238,3.491025 0,1.920064 1.5407,3.491026 3.4238,3.491026 1.8831,0 3.4239,1.570961 3.4239,3.491025 0,1.920064 1.5407,3.491026 3.4238,3.491026 1.8831,0 3.4238,1.570961 3.4238,3.491025 0,1.920064 1.5407,3.491026 3.4238,3.491026 1.8831,0 3.4238,1.570961 3.4238,3.491029 0,1.92006 1.5407,3.49102 3.4238,3.49102 1.8831,0 3.4239,1.57096 3.4239,3.49103 0,1.92006 1.5407,3.49102 3.4238,3.49102 1.8831,0 3.4238,1.57096 3.4238,3.49103 0,1.92006 1.5407,3.49102 3.4238,3.49102 1.8831,0 3.4238,1.57096 3.4238,3.49103 0,1.92006 1.5407,3.49102 3.4238,3.49102 1.8831,0 3.4239,1.57097 3.4239,3.49103 0,1.92006 1.5407,3.49103 3.4238,3.49103 1.8831,0 3.4238,1.57096 3.4238,3.49102 0,1.92006 1.5407,3.49103 3.4238,3.49103 1.8831,0 3.4238,1.57096 3.4238,3.49102 0,1.92007 1.0272,3.49103 2.2826,3.49103 1.2554,0 2.2825,1.57096 2.2825,3.49102 0,1.92007 1.5407,3.49103 3.4238,3.49103 1.8831,0 3.4239,1.57096 3.4239,3.49102 0,1.92007 1.5407,3.49103 3.4238,3.49103 1.8831,0 3.4238,1.57096 3.4238,3.49102 0,1.92007 1.5407,3.49103 3.4238,3.49103 1.8831,0 3.4238,1.57096 3.4238,3.49103 0,1.92006 1.5407,3.491017 3.4238,3.491017 1.8831,0 3.4239,1.57096 3.4239,3.49103 0,1.92006 1.5407,3.49102 3.4238,3.49102 1.8831,0 3.4238,1.57096 3.4238,3.49103 0,1.92006 1.5407,3.49102 3.4238,3.49102 1.8831,0 3.4238,1.57096 3.4238,3.49103 0,1.92006 1.5407,3.49102 3.4238,3.49102 1.8831,0 3.4239,1.57096 3.4239,3.49103 0,1.92006 1.5407,3.49102 3.4238,3.49102 1.8831,0 3.4238,1.57097 3.4238,3.49103 0,1.92006 1.5407,3.49103 3.4238,3.49103 1.8831,0 3.4238,1.0473 3.4238,2.32735 0,1.28004 1.5408,2.32735 3.4239,2.32735 1.8831,0 3.4238,1.57096 3.4238,3.49102 0,1.92007 1.5407,3.49103 3.4238,3.49103 1.8831,0 3.4238,1.57096 3.4238,3.49102 0,1.92007 1.5407,3.49103 3.4238,3.49103 1.8831,0 3.4238,1.57096 3.4238,3.49102 0,1.92007 1.5408,3.49103 3.4239,3.49103 1.8831,0 3.4238,1.57096 3.4238,3.49102 0,1.92007 1.5407,3.49103 3.4238,3.49103 1.8831,0 3.4238,1.57096 3.4238,3.49102 0,1.92007 1.5407,3.49103 3.4238,3.49103 1.8831,0 3.4238,1.57096 3.4238,3.49103 0,1.92006 1.5408,3.49102 3.4239,3.49102 1.8831,0 3.4238,1.57096 3.4238,3.49103 0,1.92006 1.5407,3.49102 3.4238,3.49102 1.8831,0 3.4238,1.57096 3.4238,3.49103 0,1.92006 1.5407,3.49102 3.4238,3.49102 1.8831,0 3.4239,1.57096 3.4239,3.49103 0,1.92006 1.5407,3.49102 3.4238,3.49102 1.8831,0 3.4238,1.57097 3.4238,3.49103 0,1.92006 1.0271,3.49102 2.2825,3.49102 1.2554,0 2.2826,1.57097 2.2826,3.49103 0,1.92006 1.5407,3.49103 3.4238,3.49103 1.8831,0 3.4238,1.57096 3.4238,3.49102 0,1.92006 1.5407,3.49103 3.4238,3.49103 1.8831,0 3.4238,1.57096 3.4238,3.49102 0,1.92007 1.5408,3.49103 3.4239,3.49103 1.8831,0 3.4238,1.57096 3.4238,3.49102 0,1.92007 1.5407,3.49103 3.4238,3.49103 1.8831,0 3.4238,1.57096 3.4238,3.49102 0,1.92007 1.5407,3.49103 3.4238,3.49103 1.8831,0 3.4239,1.57096 3.4239,3.49102 0,1.92007 1.5407,3.49103 3.4238,3.49103 1.8831,0 3.4238,1.57096 3.4238,3.49103 0,1.92006 1.5407,3.49102 3.4238,3.49102 1.8831,0 3.4238,1.57096 3.4238,3.49103 0,1.92006 1.5407,3.49102 3.4238,3.49102 1.8831,0 3.4239,1.57096 3.4239,3.49103 0,1.92006 1.5407,3.49102 3.4238,3.49102 1.8831,0 3.4238,1.57096 3.4238,3.49103 0,1.92006 1.5407,3.49102 3.4238,3.49102 1.8831,0 3.4238,1.04731 3.4238,2.32735 0,1.28005 -1.5407,2.32735 -3.4238,2.32735 -1.8831,0 -3.4238,1.45744 -3.4238,3.23872 0,1.78131 -2.5522,3.89187 -5.6716,4.69015 -3.4989,0.89542 -6.2169,3.66674 -7.0951,7.23436 -0.7829,3.1806 -2.8528,5.78293 -4.5998,5.78293 -1.747,0 -3.1764,1.57096 -3.1764,3.49102 0,1.92007 -1.5407,3.49103 -3.4238,3.49103 -1.8831,0 -3.4238,1.57096 -3.4238,3.49102 0,1.92007 -1.5408,3.49103 -3.4239,3.49103 -1.8831,0 -3.4238,1.57096 -3.4238,3.49102 0,1.92007 -1.5407,3.49103 -3.4238,3.49103 -1.8831,0 -3.4238,1.57096 -3.4238,3.49103 0,1.92006 -1.5407,3.49102 -3.4238,3.49102 -1.8831,0 -3.4239,1.57096 -3.4239,3.49103 0,1.92006 -1.5407,3.49102 -3.4238,3.49102 -1.8831,0 -3.4238,1.57096 -3.4238,3.49103 0,1.92006 -1.5407,3.49102 -3.4238,3.49102 -1.8831,0 -3.4238,1.57096 -3.4238,3.49103 0,1.92006 -1.0272,3.49102 -2.2826,3.49102 -1.2554,0 -2.2825,1.57096 -2.2825,3.49103 0,1.92006 -1.5407,3.49102 -3.4238,3.49102 -1.8831,0 -3.4238,1.57097 -3.4238,3.49103 0,1.92006 -1.5408,3.49103 -3.4239,3.49103 -1.8831,0 -3.4238,1.57096 -3.4238,3.49102 0,1.92006 -1.5407,3.49103 -3.4238,3.49103 -1.8831,0 -3.4238,1.57096 -3.4238,3.49102 0,1.92007 -1.5407,3.49103 -3.4238,3.49103 -1.8831,0 -3.4239,1.57096 -3.4239,3.49102 0,1.92007 -1.5407,3.49103 -3.4238,3.49103 -1.8831,0 -3.4238,1.57096 -3.4238,3.49102 0,1.92007 -1.5407,3.49103 -3.4238,3.49103 -1.8831,0 -3.4238,1.57096 -3.4238,3.49102 0,1.92007 -1.5407,3.49103 -3.4238,3.49103 -1.8831,0 -3.4239,1.57096 -3.4239,3.49103 0,1.92006 -1.5407,3.49102 -3.4238,3.49102 -1.8831,0 -3.4238,1.57096 -3.4238,3.49103 0,1.92006 -1.5407,3.49102 -3.4238,3.49102 -1.8831,0 -3.4238,1.04731 -3.4238,2.32735 0,1.28004 -1.5407,2.32735 -3.4238,2.32735 -1.8831,0 -3.4239,1.57096 -3.4239,3.49103 0,1.92006 -1.5407,3.49102 -3.4238,3.49102 -1.8831,0 -3.4238,1.57096 -3.4238,3.49103 0,1.92006 -1.5407,3.49102 -3.4238,3.49102 -1.8831,0 -3.4238,1.57097 -3.4238,3.49103 0,1.92006 -1.5408,3.49102 -3.4239,3.49102 -1.8831,0 -3.4238,1.57097 -3.4238,3.49103 0,1.92006 -1.5407,3.49103 -3.4238,3.49103 -1.8831,0 -3.4238,1.57096 -3.4238,3.49102 0,1.92007 -1.5407,3.49103 -3.4238,3.49103 -1.8831,0 -3.4238,1.57096 -3.4238,3.49102 0,1.92007 -1.5408,3.49103 -3.4239,3.49103 -1.8831,0 -3.4238,1.57096 -3.4238,3.49102 0,1.92007 -1.5407,3.49103 -3.4238,3.49103 -1.8831,0 -3.4238,1.57096 -3.4238,3.49102 0,1.92007 -1.5407,3.49103 -3.4238,3.49103 -1.8831,0 -3.4238,1.57096 -3.4238,3.49102 0,1.92007 -1.5408,3.49103 -3.4239,3.49103 -1.8831,0 -3.4238,1.57096 -3.4238,3.49103 0,1.92006 -1.0271,3.49102 -2.2825,3.49102 -1.2554,0 -2.2826,1.57096 -2.2826,3.49103 0,1.92006 -1.5407,3.49102 -3.4238,3.49102 -1.8831,0 -3.4238,1.57096 -3.4238,3.49103 0,1.92006 -1.5407,3.49102 -3.4238,3.49102 -1.8831,0 -3.4238,1.57096 -3.4238,3.49103 0,1.92006 -1.5408,3.49102 -3.4239,3.49102 -1.8831,0 -3.4238,1.57097 -3.4238,3.49103 0,1.92006 -1.5407,3.49102 -3.4238,3.49102 -1.8831,0 -3.4238,1.57097 -3.4238,3.49103 0,1.92006 -1.5407,3.49103 -3.4238,3.49103 -1.8831,0 -3.4238,1.57096 -3.4238,3.49102 0,1.92007 -1.5408,3.49103 -3.4239,3.49103 -1.8831,0 -3.4238,1.57096 -3.4238,3.49102 0,1.92007 -1.5407,3.49103 -3.4238,3.49103 -1.8831,0 -3.4238,1.57096 -3.4238,3.49102 0,1.92007 -1.5407,3.49103 -3.4238,3.49103 -1.8831,0 -3.4238,1.57096 -3.4238,3.49102 0,1.92007 -1.5408,3.49103 -3.4239,3.49103 -1.8831,0 -3.4238,1.57096 -3.4238,3.49102 0,1.92007 -1.5407,3.49103 -3.4238,3.49103 -1.8831,0 -3.4238,1.04731 -3.4238,2.32735 0,1.28004 -1.5407,2.32735 -3.4238,2.32735 -1.8831,0 -3.4239,1.57096 -3.4239,3.49103 0,1.92006 -1.5407,3.49102 -3.4238,3.49102 -1.8831,0 -3.4238,1.57096 -3.4238,3.49103 0,1.92006 -1.5407,3.49102 -3.4238,3.49102 -1.8831,0 -3.4238,1.57096 -3.4238,3.49103 0,1.92006 -1.5407,3.49102 -3.4238,3.49102 -1.8831,0 -3.4239,1.57096 -3.4239,3.49103 0,1.92006 -1.5407,3.49102 -3.4238,3.49102 -1.8831,0 -3.4238,1.57097 -3.4238,3.49103 0,1.92006 -1.5407,3.49103 -3.4238,3.49103 -1.8831,0 -3.4238,1.57096 -3.4238,3.49102 0,1.92006 -1.5407,3.49103 -3.4238,3.49103 -1.8831,0 -3.4239,1.57096 -3.4239,3.49102 0,1.92007 -1.5407,3.49103 -3.4238,3.49103 -1.8831,0 -3.4238,1.57096 -3.4238,3.49102 0,1.92007 -1.5407,3.49103 -3.4238,3.49103 -1.8831,0 -3.4238,1.57096 -3.4238,3.49102 0,1.92007 -1.5408,3.49103 -3.4239,3.49103 -1.8831,0 -3.4238,1.57096 -3.4238,3.49102 0,1.92007 -1.0271,3.49103 -2.2825,3.49103 -1.2554,0 -2.2826,1.57096 -2.2826,3.49103 0,1.92006 -1.5407,3.49102 -3.4238,3.49102 -1.8831,0 -3.4238,1.57096 -3.4238,3.49103 0,1.92006 -1.5407,3.49102 -3.4238,3.49102 -1.8831,0 -3.4238,1.57096 -3.4238,3.49103 0,1.92006 -1.5407,3.49102 -3.4238,3.49102 -1.8831,0 -3.4239,1.57096 -3.4239,3.49103 0,1.92006 -1.5407,3.49102 -3.4238,3.49102 -1.8831,0 -3.4238,1.57096 -3.4238,3.49103 0,1.92006 -1.5407,3.49102 -3.4238,3.49102 -1.8831,0 -3.4238,1.57097 -3.4238,3.49103 0,1.92006 -1.5408,3.49103 -3.4239,3.49103 -1.8831,0 -3.4238,1.57096 -3.4238,3.49102 0,1.92006 -1.5407,3.49103 -3.4238,3.49103 -1.8831,0 -3.4238,1.57096 -3.4238,3.49102 0,1.92007 -1.5407,3.49103 -3.4238,3.49103 -1.8831,0 -3.4238,1.57096 -3.4238,3.49102 0,1.92007 -1.5408,3.49103 -3.4239,3.49103 -1.8831,0 -3.4238,1.57096 -3.4238,3.49102 0,1.92007 1.5407,3.49103 3.4238,3.49103 1.8831,0 3.4239,1.04731 3.4239,2.32735 0,1.28004 1.5407,2.32735 3.4238,2.32735 1.8831,0 3.4238,1.57096 3.4238,3.49102 0,1.92007 1.5407,3.49103 3.4238,3.49103 1.8831,0 3.4238,1.57096 3.4238,3.49103 0,1.92006 1.5407,3.49102 3.4238,3.49102 1.8831,0 3.4239,1.57096 3.4239,3.49103 0,1.92006 1.5407,3.49102 3.4238,3.49102 1.8831,0 3.4238,1.57096 3.4238,3.49103 0,1.92006 1.5407,3.49102 3.4238,3.49102 1.8831,0 3.4238,1.57096 3.4238,3.49103 0,1.92006 1.5408,3.49102 3.4239,3.49102 1.8831,0 3.4238,1.57097 3.4238,3.49103 0,1.92006 1.5407,3.49102 3.4238,3.49102 1.8831,0 3.4238,1.57097 3.4238,3.49103 0,1.92006 1.5407,3.49103 3.4238,3.49103 1.8831,0 3.4238,1.57096 3.4238,3.49102 0,1.92007 1.0272,3.49103 2.2826,3.49103 1.2554,0 2.2825,1.57096 2.2825,3.49102 0,1.92007 1.5407,3.49103 3.4238,3.49103 1.8831,0 3.4239,1.57096 3.4239,3.49102 0,1.92007 1.5407,3.49103 3.4238,3.49103 1.8831,0 3.4238,1.57096 3.4238,3.49102 0,1.92007 1.5407,3.49103 3.4238,3.49103 1.8831,0 3.4238,1.57096 3.4238,3.49102 0,1.92007 1.5408,3.49103 3.4239,3.49103 1.8831,0 3.4238,1.57096 3.4238,3.49103 0,1.92006 1.5407,3.49102 3.4238,3.49102 1.8831,0 3.4238,1.57096 3.4238,3.49103 0,1.92006 1.5407,3.49102 3.4238,3.49102 1.8831,0 3.4238,1.57096 3.4238,3.49103 0,1.92006 1.5408,3.49102 3.4239,3.49102 1.8831,0 3.4238,1.57096 3.4238,3.49103 0,1.92006 1.5407,3.49102 3.4238,3.49102 1.8831,0 3.4238,1.57097 3.4238,3.49103 0,1.92006 1.5407,3.49102 3.4238,3.49102 1.8831,0 3.4238,1.57097 3.4238,3.49103 0,1.92006 1.5408,3.49103 3.4239,3.49103 1.8831,0 3.4238,1.0473 3.4238,2.32735 0,1.28004 1.5407,2.32735 3.4238,2.32735 1.8831,0 3.4238,1.57096 3.4238,3.49102 0,1.92007 1.5407,3.49103 3.4238,3.49103 1.8831,0 3.4239,1.57096 3.4239,3.49102 0,1.92007 1.5407,3.49103 3.4238,3.49103 1.8831,0 3.4238,1.57096 3.4238,3.49102 0,1.92007 1.5407,3.49103 3.4238,3.49103 1.8831,0 3.4238,1.57096 3.4238,3.49102 0,1.92007 1.5407,3.49103 3.4238,3.49103 1.8831,0 3.4239,1.57096 3.4239,3.49103 0,1.92006 1.5407,3.49102 3.4238,3.49102 1.8831,0 3.4238,1.04731 3.4238,2.32735 0,3.01843 8.4524,11.63675 11.4127,11.63675 1.2554,0 2.2826,1.57096 2.2826,3.49103 0,1.92006 1.5407,3.49102 3.4238,3.49102 1.8831,0 3.4238,1.57096 3.4238,3.49103 0,1.92006 1.5407,3.49102 3.4238,3.49102 1.8831,0 3.4238,1.57097 3.4238,3.49103 0,1.92006 1.0272,3.49103 2.2826,3.49103 1.2554,0 2.2825,1.57096 2.2825,3.49102 0,1.92006 1.5407,3.49103 3.4238,3.49103 1.8831,0 3.4239,1.57096 3.4239,3.49102 0,1.92007 1.5407,3.49103 3.4238,3.49103 1.8831,0 3.4238,1.571 3.4238,3.491 0,1.9201 1.5407,3.491 3.4238,3.491 1.8831,0 3.4238,1.571 3.4238,3.4911 0,1.92 1.5407,3.491 3.4238,3.491 1.8831,0 3.4239,1.571 3.4239,3.491 0,1.9201 1.5407,3.491 3.4238,3.491 1.8831,0 3.4238,1.571 3.4238,3.4911 0,1.92 1.5407,3.491 3.4238,3.491 1.8831,0 3.4238,1.571 3.4238,3.491 0,1.9201 1.5407,3.4911 3.4238,3.4911 1.8831,0 3.4239,1.5709 3.4239,3.491 0,1.92 1.5407,3.491 3.4238,3.491 1.8831,0 3.4238,1.571 3.4238,3.491 0,1.9201 1.5407,3.4911 3.4238,3.4911 1.8831,0 3.4238,1.5709 3.4238,3.491 0,1.92 1.5408,3.491 3.4239,3.491 1.8831,0 3.4238,1.0473 3.4238,2.3274 0,1.28 1.5407,2.3273 3.4238,2.3273 1.8831,0 3.4238,1.571 3.4238,3.491 0,1.9201 1.5407,3.4911 3.4238,3.4911 1.8831,0 3.4238,1.5709 3.4238,3.491 0,1.92 1.5408,3.491 3.4239,3.491 1.8831,0 3.4238,1.57102 3.4238,3.49102 0,1.9201 1.5407,3.4911 3.4238,3.4911 1.8831,0 3.4238,1.0473 3.4238,2.3273 0,3.0184 8.4524,11.6368 11.4127,11.6368 1.2554,0 2.2826,1.5709 2.2826,3.491 0,1.92 1.5407,3.491 3.4238,3.491 1.8831,0 3.4238,1.571 3.4238,3.491 0,1.9201 1.5407,3.4911 3.4238,3.4911 1.8831,0 3.4239,1.5709 3.4239,3.491 0,1.9201 1.5407,3.491 3.4238,3.491 1.8831,0 3.4238,1.571 3.4238,3.491 0,1.9201 1.0271,3.4911 2.2825,3.4911 1.2554,0 2.2826,1.5709 2.2826,3.491 0,1.9201 1.5407,3.491 3.4238,3.491 1.8831,0 3.4238,1.571 3.4238,3.491 0,1.9201 1.5407,3.4911 3.4238,3.4911 1.8831,0 3.4238,1.5709 3.4238,3.491 0,1.9201 1.5408,3.491 3.4239,3.491 1.8831,0 3.4238,1.571 3.4238,3.491 0,1.9201 1.5407,3.4911 3.4238,3.4911 1.8831,0 3.4238,1.5709 3.4238,3.491 0,1.9201 1.5407,3.491 3.4238,3.491 1.8831,0 3.4239,1.571 3.4239,3.491 0,1.9201 1.5407,3.4911 3.4238,3.4911 1.8831,0 3.4238,1.5709 3.4238,3.491 0,1.9201 1.5407,3.491 3.4238,3.491 1.8831,0 3.4238,1.571 3.4238,3.491 0,1.9201 1.5407,3.4911 3.4238,3.4911 1.8831,0 3.4239,1.5709 3.4239,3.491 0,1.9201 1.5407,3.491 3.4238,3.491 1.8831,0 3.4238,1.571 3.4238,3.491 0,1.9201 1.5407,3.4911 3.4238,3.4911 1.8831,0 3.4238,1.0473 3.4238,2.3273 0,1.2801 -1.5407,2.3274 -3.4238,2.3274 -1.8831,0 -3.4238,1.5709 -3.4238,3.491 0,1.9201 -1.5407,3.491 -3.4238,3.491 -1.8831,0 -3.4238,1.571 -3.4238,3.491 0,1.9201 -1.5408,3.4911 -3.4239,3.4911 -1.8831,0 -3.4238,1.5709 -3.4238,3.491 0,1.9201 -1.5407,3.491 -3.4238,3.491 -1.8831,0 -3.4238,1.571 -3.4238,3.4911 0,1.92 -1.5407,3.491 -3.4238,3.491 -1.8831,0 -3.4238,1.5709 -3.4238,3.491 0,1.9201 -1.5408,3.491 -3.4239,3.491 -1.8831,0 -3.4238,1.571 -3.4238,3.4911 0,1.92 -1.5407,3.491 -3.4238,3.491 -1.8831,0 -3.4238,1.5709 -3.4238,3.491 0,1.9201 -1.5407,3.491 -3.4238,3.491 -1.8831,0 -3.4239,1.571 -3.4239,3.4911 0,1.92 -1.5407,3.491 -3.4238,3.491 -1.8831,0 -3.4238,1.5709 -3.4238,3.491 0,1.9201 -1.5407,3.491 -3.4238,3.491 -1.8831,0 -3.4238,1.571 -3.4238,3.4911 0,1.92 -1.0272,3.491 -2.2826,3.491 -1.2554,0 -2.2825,1.5709 -2.2825,3.491 0,1.9201 -1.5407,3.491 -3.4238,3.491 -1.8831,0 -3.4238,1.571 -3.4238,3.4911 0,1.92 -1.5408,3.491 -3.4239,3.491 -1.8831,0 -3.4238,1.5709 -3.4238,3.491 0,1.9201 -1.5407,3.491 -3.4238,3.491 -1.8831,0 -3.4238,1.571 -3.4238,3.4911 0,1.92 -1.5407,3.491 -3.4238,3.491 -1.8831,0 -3.4239,1.5709 -3.4239,3.491 0,1.9201 -1.5407,3.491 -3.4238,3.491 -1.8831,0 -3.4238,1.571 -3.4238,3.4911 0,1.92 -1.5407,3.491 -3.4238,3.491 -1.8831,0 -3.4238,1.5709 -3.4238,3.491 0,1.9201 -1.5407,3.491 -3.4238,3.491 -1.8831,0 -3.4239,1.571 -3.4239,3.4911 0,1.92 -1.5407,3.491 -3.4238,3.491 -1.8831,0 -3.4238,1.571 -3.4238,3.491 0,1.9201 -1.5407,3.491 -3.4238,3.491 -1.8831,0 -3.4238,1.571 -3.4238,3.4911 0,1.92 -1.5407,3.491 -3.4238,3.491 -1.8831,0 -3.4239,1.0473 -3.4239,2.3273 0,1.2801 -1.5407,2.3274 -3.4238,2.3274 -1.8831,0 -3.4238,1.571 -3.4238,3.491 0,1.9201 -1.5407,3.491 -3.4238,3.491 -1.8831,0 -3.4238,1.571 -3.4238,3.4911 0,1.92 -1.5408,3.491 -3.4239,3.491 -1.8831,0 -3.4238,1.571 -3.4238,3.491 0,1.9201 -1.5407,3.491 -3.4238,3.491 -1.8831,0 -3.4238,1.571 -3.4238,3.4911 0,1.92 -1.5407,3.491 -3.4238,3.491 -1.8831,0 -3.4238,1.571 -3.4238,3.491 0,1.9201 -1.5408,3.491 -3.4239,3.491 -1.8831,0 -3.4238,1.571 -3.4238,3.4911 0,1.92 -1.5407,3.491 -3.4238,3.491 -1.8831,0 -3.4238,1.571 -3.4238,3.491 0,1.9201 -1.5407,3.491 -3.4238,3.491 -1.8831,0 -3.4238,1.571 -3.4238,3.4911 0,1.92 -1.5408,3.491 -3.4239,3.491 -1.8831,0 -3.4238,1.571 -3.4238,3.491 0,1.9201 -1.0271,3.491 -2.2825,3.491 -1.2554,0 -2.2826,1.571 -2.2826,3.4911 0,1.92 -1.5407,3.491 -3.4238,3.491 -1.8831,0 -3.4238,1.571 -3.4238,3.491 0,1.9201 -1.5407,3.4911 -3.4238,3.4911 -1.8831,0 -3.4238,1.5709 -3.4238,3.491 0,1.92 -1.5408,3.491 -3.4239,3.491 -1.8831,0 -3.4238,1.571 -3.4238,3.491 0,1.9201 -1.5407,3.4911 -3.4238,3.4911 -1.8831,0 -3.4238,1.5709 -3.4238,3.491 0,1.92 -1.5407,3.491 -3.4238,3.491 -1.8831,0 -3.4238,1.571 -3.4238,3.491 0,1.9201 -1.5408,3.4911 -3.4239,3.4911 -1.8831,0 -3.4238,1.5709 -3.4238,3.491 0,1.92 -1.5407,3.491 -3.4238,3.491 -1.8831,0 -3.4238,1.571 -3.4238,3.491 0,1.9201 -1.5407,3.4911 -3.4238,3.4911 -1.8831,0 -3.4238,1.5709 -3.4238,3.491 0,1.92 -1.5408,3.491 -3.4239,3.491 -1.8831,0 -3.4238,1.571 -3.4238,3.491 0,1.9201 -1.5407,3.4911 -3.4238,3.4911 -1.8831,0 -3.4238,1.0473 -3.4238,2.3273 0,1.2801 -1.5407,2.3274 -3.4238,2.3274 -1.8831,0 -3.4239,1.5709 -3.4239,3.491 0,1.92 -1.5407,3.491 -3.4238,3.491 -1.8831,0 -3.4238,1.571 -3.4238,3.491 0,1.9201 -1.5407,3.4911 -3.4238,3.4911 -1.8831,0 -3.4238,1.5709 -3.4238,3.491 0,1.9201 -1.5407,3.491 -3.4238,3.491 -1.8831,0 -3.4239,1.571 -3.4239,3.491 0,1.9201 -1.5407,3.4911 -3.4238,3.4911 -1.8831,0 -3.4238,1.5709 -3.4238,3.491 0,1.9201 -1.5407,3.491 -3.4238,3.491 -1.8831,0 -3.4238,1.571 -3.4238,3.491 0,1.9201 -1.5407,3.4911 -3.4238,3.4911 -1.8831,0 -3.4239,1.5709 -3.4239,3.491 0,1.9201 -1.5407,3.491 -3.4238,3.491 -1.8831,0 -3.4238,1.571 -3.4238,3.491 0,1.9201 -1.5407,3.4911 -3.4238,3.4911 -1.8831,0 -3.4238,1.5709 -3.4238,3.491 0,1.9201 -1.5408,3.491 -3.4239,3.491 -1.8831,0 -3.4238,1.571 -3.4238,3.491 0,1.9201 -1.0271,3.4911 -2.2825,3.4911 -1.2554,0 -2.2826,-1.571 -2.2826,-3.4911 0,-1.92 -1.4293,-3.491 -3.1763,-3.491 -1.747,0 -3.817,-2.6023 -4.5999,-5.7829 -0.8782,-3.5676 -3.5961,-6.3389 -7.0951,-7.2344 -3.1193,-0.7983 -5.6716,-2.9088 -5.6716,-4.6901 0,-1.7813 -1.5407,-3.2387 -3.4238,-3.2387 -1.8831,0 -3.4238,-1.571 -3.4238,-3.4911 0,-1.92 -1.5407,-3.491 -3.4238,-3.491 -1.8831,0 -3.4238,-1.5709 -3.4238,-3.491 0,-1.9201 -1.5408,-3.491 -3.4239,-3.491 -1.8831,0 -3.4238,-1.571 -3.4238,-3.4911 0,-1.92 -1.5407,-3.491 -3.4238,-3.491 -1.8831,0 -3.4238,-1.5709 -3.4238,-3.491 0,-1.9201 -1.5407,-3.491 -3.4238,-3.491 -1.8831,0 -3.4238,-1.571 -3.4238,-3.4911 0,-1.92 -1.5408,-3.491 -3.4239,-3.491 -1.8831,0 -3.4238,-1.571 -3.4238,-3.491 0,-1.9201 -1.5407,-3.491 -3.4238,-3.491 -1.8831,0 -3.4238,-1.0473 -3.4238,-2.3274 0,-1.28 -1.5407,-2.3273 -3.4238,-2.3273 -1.8831,0 -3.4238,-1.0473 -3.4238,-2.3274 0,-3.0184 -8.4524,-11.6367 -11.4128,-11.6367 -1.2554,0 -2.2825,-1.571 -2.2825,-3.4911 0,-1.92 -1.5407,-3.491 -3.4238,-3.491 -1.8831,0 -3.4239,-1.0473 -3.4239,-2.3273 0,-3.0185 -8.4524,-11.6368 -11.4127,-11.6368 -1.2554,0 -2.2825,-1.0473 -2.2825,-2.3273 0,-3.0185 -8.4524,-11.6368 -11.4127,-11.6368 -1.2554,0 -2.2826,-1.571 -2.2826,-3.491 0,-1.9201 -1.5407,-3.491 -3.4238,-3.491 -1.8831,0 -3.4238,-1.571 -3.4238,-3.4911 0,-1.92 -1.0272,-3.491 -2.2826,-3.491 -1.2554,0 -2.2825,-1.571 -2.2825,-3.491 0,-1.9201 -1.5407,-3.4911 -3.4238,-3.4911 -1.8831,0 -3.4239,-1.5709 -3.4239,-3.491 0,-1.92 -1.5407,-3.491 -3.4238,-3.491 -1.8831,0 -3.4238,-1.571 -3.4238,-3.491 0,-1.9201 -1.5407,-3.4911 -3.4238,-3.4911 -1.8831,0 -3.4238,-1.5709 -3.4238,-3.491 0,-1.92 -1.5407,-3.491 -3.42384,-3.491 -1.8831,0 -3.42382,-1.571 -3.42382,-3.491 0,-1.9201 -1.54072,-3.4911 -3.42382,-3.4911 -1.8831,0 -3.42381,-1.5709 -3.42381,-3.491 0,-1.92 -1.54072,-3.491 -3.42382,-3.491 -1.8831,0 -3.42382,-1.571 -3.42382,-3.491 0,-1.9201 -1.54072,-3.4911 -3.42382,-3.4911 -1.8831,0 -3.42381,-1.5709 -3.42381,-3.491 0,-1.92 -1.54072,-3.491 -3.42382,-3.491 -1.8831,0 -3.42382,-1.571 -3.42382,-3.491 0,-1.9201 -1.54072,-3.4911 -3.42382,-3.4911 -1.8831,0 -3.42381,-1.5709 -3.42381,-3.491 0,-1.92 -1.54072,-3.491 -3.42382,-3.491 -1.8831,0 -3.42382,-1.571 -3.42382,-3.491 0,-1.9201 -1.54072,-3.4911 -3.42382,-3.4911 -1.8831,0 -3.42381,-1.0473 -3.42381,-2.3273 0,-1.2801 -1.54072,-2.3274 -3.42382,-2.3274 -1.8831,0 -3.42382,-1.5709 -3.42382,-3.491 0,-1.92 -1.54072,-3.491 -3.42382,-3.491 -1.8831,0 -3.42381,-1.571 -3.42381,-3.491 0,-1.9201 -1.54072,-3.4911 -3.42382,-3.4911 -1.8831,0 -3.42382,-1.5709 -3.42382,-3.491 0,-1.9201 -1.54072,-3.491 -3.42382,-3.491 -1.8831,0 -3.42381,-1.571 -3.42381,-3.491 0,-1.9201 -1.54072,-3.4911 -3.42382,-3.4911 -1.8831,0 -3.42382,-1.5709 -3.42382,-3.491 0,-1.9201 -1.54072,-3.491 -3.42382,-3.491 -1.8831,0 -3.42381,-1.571 -3.42381,-3.491 0,-1.9201 -1.54072,-3.4911 -3.42382,-3.4911 -1.8831,0 -3.42382,-1.0973 -3.42382,-2.4384 0,-1.3412 -2.56786,-4.865 -5.70636,-7.8308 -3.1385,-2.9658 -5.70636,-6.5813 -5.70636,-8.0346 0,-1.4533 -1.54072,-2.6423 -3.42382,-2.6423 -1.8831,0 -3.42382,-1.571 -3.42382,-3.491 0,-1.9201 -1.54072,-3.4911 -3.42382,-3.4911 -1.8831,0 -3.42381,-1.5709 -3.42381,-3.491 0,-1.9201 -1.54072,-3.491 -3.42382,-3.491 -1.8831,0 -3.42382,-1.571 -3.42382,-3.491 0,-1.9201 -1.54072,-3.4911 -3.42382,-3.4911 -1.8831,0 -3.42381,-1.5709 -3.42381,-3.491 0,-1.9201 -1.54072,-3.491 -3.42382,-3.491 -1.8831,0 -3.42382,-1.571 -3.42382,-3.491 0,-1.9201 -1.54072,-3.4911 -3.42382,-3.4911 -1.8831,0 -3.42381,-1.5709 -3.42381,-3.491 0,-1.9201 -1.54072,-3.491 -3.42382,-3.491 -1.8831,0 -3.42382,-1.571 -3.42382,-3.491 0,-1.9201 -1.54072,-3.4911 -3.42382,-3.4911 -1.8831,0 -3.42381,-1.5709 -3.42381,-3.491 0,-1.9201 -1.54067,-3.491 -3.42377,-3.491 -1.8831,0 -3.4239,-1.571 -3.4239,-3.4911 0,-1.92 -1.5407,-3.491 -3.4238,-3.491 -1.8831,0 -3.4238,-1.5709 -3.4238,-3.491 0,-1.9201 -1.5407,-3.491 -3.4238,-3.491 -1.8831,0 -3.4238,-1.0473 -3.4238,-2.3274 0,-1.28 -1.5408,-2.3273 -3.4239,-2.3273 -1.8831,0 -3.4238,-1.571 -3.4238,-3.4911 0,-1.92 -1.5407,-3.491 -3.4238,-3.491 -1.8831,0 -3.4238,-1.5709 -3.4238,-3.491 0,-1.9201 -1.5407,-3.491 -3.4238,-3.491 -1.8831,0 -3.4238,-1.571 -3.4238,-3.4911 0,-1.92 -1.5408,-3.491 -3.4239,-3.491 -1.8831,0 -3.4238,-1.5709 -3.4238,-3.491 0,-1.9201 -1.5407,-3.491 -3.4238,-3.491 -1.8831,0 -3.4238,-1.571 -3.4238,-3.4911 0,-1.92 -1.5407,-3.491 -3.4238,-3.491 -1.8831,0 -3.4238,-1.5709 -3.4238,-3.491 0,-1.9201 -1.5408,-3.491 -3.4239,-3.491 -1.8831,0 -3.4238,-1.571 -3.4238,-3.4911 0,-1.92 -1.5407,-3.491 -3.4238,-3.491 -1.8831,0 -3.4238,-1.5709 -3.4238,-3.491 0,-1.9201 -1.5407,-3.491 -3.4238,-3.491 -1.8831,0 -3.4239,-1.571 -3.4239,-3.4911 0,-1.92 -1.0271,-3.491 -2.2825,-3.491 -1.2554,0 -2.2825,1.571 -2.2825,3.491 0,1.9201 -1.5408,3.4911 -3.4239,3.4911 -1.8831,0 -3.4238,1.5709 -3.4238,3.491 0,1.9201 -1.5407,3.491 -3.4238,3.491 -1.8831,0 -3.4238,1.571 -3.4238,3.491 0,1.9201 -1.5407,3.4911 -3.4238,3.4911 -1.8831,0 -3.4238,1.5709 -3.4238,3.491 0,1.9201 -1.5408,3.491 -3.4239,3.491 -1.8831,0 -3.4238,1.571 -3.4238,3.491 0,1.9201 -1.5407,3.4911 -3.4238,3.4911 -1.8831,0 -3.4238,1.5709 -3.4238,3.491 0,1.9201 -1.5407,3.491 -3.4238,3.491 -1.8831,0 -3.4239,1.571 -3.4239,3.491 0,1.9201 -1.5407,3.4911 -3.4238,3.4911 -1.8831,0 -3.4238,1.5709 -3.4238,3.491 0,1.9201 -1.5407,3.491 -3.4238,3.491 -1.8831,0 -3.4238,1.571 -3.4238,3.491 0,1.9201 -1.5407,3.4911 -3.4238,3.4911 -1.8831,0 -3.4239,1.0473 -3.4239,2.3273 0,1.2801 -1.5407,2.3274 -3.4238,2.3274 -1.8831,0 -3.4238,1.5709 -3.4238,3.491 0,1.9201 -1.5407,3.491 -3.4238,3.491 -1.8831,0 -3.4238,1.571 -3.4238,3.491 0,1.9201 -1.5407,3.4911 -3.4238,3.4911 -1.8831,0 -3.4239,1.5709 -3.4239,3.491 0,1.9201 -1.5407,3.491 -3.4238,3.491 -1.8831,0 -3.4238,1.571 -3.4238,3.4911 0,1.92 -1.5407,3.491 -3.4238,3.491 -1.8831,0 -3.4238,1.5709 -3.4238,3.491 0,1.9201 -1.5408,3.491 -3.4238,3.491 -1.8831,0 -3.4239,1.571 -3.4239,3.4911 0,1.92 -1.5407,3.491 -3.4238,3.491 -1.8831,0 -3.4238,1.5709 -3.4238,3.491 0,1.9201 -1.5407,3.491 -3.4238,3.491 -1.8831,0 -3.4238,1.571 -3.4238,3.4911 0,1.92 -1.5408,3.491 -3.4239,3.491 -1.8831,0 -3.4238,1.5709 -3.4238,3.491 0,1.9201 -1.5407,3.491 -3.4238,3.491 -1.8831,0 -3.4238,1.571 -3.4238,3.4911 0,1.92 -1.0272,3.491 -2.2826,3.491 -1.2554,0 -2.2825,1.5709 -2.2825,3.491 0,1.9201 -1.5407,3.491 -3.4238,3.491 -1.8831,0 -3.4238,1.571 -3.4238,3.4911 0,1.92 -1.5408,3.491 -3.4239,3.491 -1.8831,0 -3.4238,1.5709 -3.4238,3.491 0,1.9201 -1.5407,3.491 -3.4238,3.491 -1.8831,0 -3.4238,1.571 -3.4238,3.4911 0,1.92 -1.5407,3.491 -3.4238,3.491 -1.8831,0 -3.4238,1.5709 -3.4238,3.491 0,1.9201 -1.5408,3.491 -3.4239,3.491 -1.8831,0 -3.4238,1.571 -3.4238,3.4911 0,1.92 -1.5407,3.491 -3.4238,3.491 -1.8831,0 -3.4238,1.5709 -3.4238,3.491 0,1.9201 -1.5407,3.491 -3.4238,3.491 -1.8831,0 -3.4238,1.571 -3.4238,3.4911 0,1.92 -1.5408,3.491 -3.4239,3.491 -1.8831,0 -3.4238,1.571 -3.4238,3.491 0,1.9201 -1.5407,3.491 -3.4238,3.491 -1.8831,0 -3.4238,1.571 -3.4238,3.4911 0,1.92 -1.5407,3.491 -3.4238,3.491 -1.8831,0 -3.4238,1.0473 -3.4238,2.3273 0,1.2801 -1.5408,2.3274 -3.4239,2.3274 -1.8831,0 -3.4238,1.571 -3.4238,3.491 0,1.9201 -1.5407,3.491 -3.4238,3.491 -1.8831,0 -3.4238,1.571 -3.4238,3.4911 0,1.92 -1.5407,3.491 -3.4238,3.491 -1.8831,0 -3.4239,1.571 -3.4239,3.491 0,1.9201 -1.5407,3.491 -3.4238,3.491 -1.8831,0 -3.4238,1.571 -3.4238,3.4911 0,1.92 -1.5407,3.491 -3.4238,3.491 -1.8831,0 -3.4238,1.571 -3.4238,3.491 0,1.9201 -1.5407,3.491 -3.4238,3.491 -1.8831,0 -3.4239,1.571 -3.4239,3.4911 0,1.92 -1.5407,3.491 -3.4238,3.491 -1.8831,0 -3.4238,1.571 -3.4238,3.491 0,1.9201 -1.5407,3.491 -3.4238,3.491 -1.8831,0 -3.4238,1.571 -3.4238,3.4911 0,1.92 -1.5407,3.491 -3.4238,3.491 -1.8831,0 -3.4239,1.571 -3.4239,3.491 0,1.9201 -1.5407,3.491 -3.4238,3.491 -1.8831,0 -3.4238,1.571 -3.4238,3.4911 0,1.92 -1.0271,3.491 -2.2825,3.491 -1.2554,0 -2.2826,1.571 -2.2826,3.491 0,1.9201 -1.5407,3.4911 -3.4238,3.4911 -1.8831,0 -3.4238,1.5709 -3.4238,3.491 0,1.92 -1.5407,3.491 -3.4238,3.491 -1.8831,0 -3.4239,1.571 -3.4239,3.491 0,1.9201 -1.5407,3.4911 -3.4238,3.4911 -1.8831,0 -3.4238,1.5709 -3.4238,3.491 0,1.92 -1.5407,3.491 -3.4238,3.491 -1.8831,0 -3.4238,1.571 -3.4238,3.491 0,1.9201 -1.5407,3.4911 -3.4238,3.4911 -1.8831,0 -3.4239,1.5709 -3.4239,3.491 0,1.92 -1.5407,3.491 -3.4238,3.491 -1.8831,0 -3.4238,1.571 -3.4238,3.491 0,1.9201 -1.5407,3.4911 -3.4238,3.4911 -1.8831,0 -3.4238,1.5709 -3.4238,3.491 0,1.92 -1.5408,3.491 -3.4239,3.491 -1.8831,0 -3.4238,1.571 -3.4238,3.491 0,1.9201 -1.5407,3.4911 -3.4238,3.4911 -1.8831,0 -3.4238,1.0473 -3.4238,2.3273 0,1.2801 -1.5407,2.3274 -3.4238,2.3274 -1.8831,0 -3.4238,1.5709 -3.4238,3.491 0,1.92 -1.5408,3.491 -3.4239,3.491 -1.8831,0 -3.4238,1.571 -3.4238,3.491 0,1.9201 -1.5407,3.4911 -3.4238,3.4911 -1.8831,0 -3.4238,1.5709 -3.4238,3.491 0,1.9201 -1.5407,3.491 -3.4238,3.491 -1.8831,0 -3.4238,1.571 -3.4238,3.491 0,1.9201 -1.5408,3.4911 -3.4239,3.4911 -1.8831,0 -3.4238,1.5709 -3.4238,3.491 0,1.9201 -1.5407,3.491 -3.4238,3.491 -1.8831,0 -3.4238,1.571 -3.4238,3.491 0,1.9201 -1.5407,3.4911 -3.4238,3.4911 -1.8831,0 -3.4239,1.5709 -3.4239,3.491 0,1.9201 -1.5407,3.491 -3.4238,3.491 -1.8831,0 -3.4238,1.571 -3.4238,3.491 0,1.9201 -1.5407,3.4911 -3.4238,3.4911 -1.8831,0 -3.4238,1.5709 -3.4238,3.491 0,1.9201 -1.5407,3.491 -3.4238,3.491 -1.8831,0 -3.4239,1.571 -3.4239,3.491 0,1.9201 -1.0271,3.4911 -2.2825,3.4911 -1.2554,0 -2.2825,-1.571 -2.2825,-3.4911 z"
       style="fill:#ff0000;stroke-width:2.30484" />
  </g>
</svg>
