<?xml version="1.0" encoding="UTF-8" standalone="no"?>
<svg
   xmlns:dc="http://purl.org/dc/elements/1.1/"
   xmlns:cc="http://creativecommons.org/ns#"
   xmlns:rdf="http://www.w3.org/1999/02/22-rdf-syntax-ns#"
   xmlns:svg="http://www.w3.org/2000/svg"
   xmlns="http://www.w3.org/2000/svg"
   xmlns:sodipodi="http://sodipodi.sourceforge.net/DTD/sodipodi-0.dtd"
   xmlns:inkscape="http://www.inkscape.org/namespaces/inkscape"
   viewBox="0 0 351.80252 227.73712"
   height="227.73712"
   width="351.80252"
   id="svg6506"
   version="1.1"
   sodipodi:docname="bonus.svg"
   inkscape:version="1.0 (4035a4fb49, 2020-05-01)">
  <sodipodi:namedview
     inkscape:document-rotation="0"
     pagecolor="#ffffff"
     bordercolor="#666666"
     borderopacity="1"
     objecttolerance="10"
     gridtolerance="10"
     guidetolerance="10"
     inkscape:pageopacity="0"
     inkscape:pageshadow="2"
     inkscape:window-width="1920"
     inkscape:window-height="1018"
     id="namedview7"
     showgrid="false"
     inkscape:zoom="1.6453454"
     inkscape:cx="217.48849"
     inkscape:cy="116.27865"
     inkscape:window-x="-6"
     inkscape:window-y="-6"
     inkscape:window-maximized="1"
     inkscape:current-layer="g6514" />
  <metadata
     id="metadata6512">
    <rdf:RDF>
      <cc:Work
         rdf:about="">
        <dc:format>image/svg+xml</dc:format>
        <dc:type
           rdf:resource="http://purl.org/dc/dcmitype/StillImage" />
        <dc:title></dc:title>
      </cc:Work>
    </rdf:RDF>
  </metadata>
  <defs
     id="defs6510">
    <clipPath
       clipPathUnits="userSpaceOnUse"
       id="clipPath130">
      <path
         id="path132"
         style="fill:#ffffff;fill-opacity:0;fill-rule:evenodd;stroke:#ffffff"
         d="M 0.85922619,6.8758185 V 367.87582 H 360.85923 V 145.75668 c -1.91235,0.34938 -4.3159,-0.51723 -4.66797,-3.40821 -0.12346,-1.01377 -0.10098,-2.00627 -0.28125,-3.02148 -0.35274,-2.39979 -0.21018,-1.91511 -0.90039,-4.39453 -0.4051,-1.45519 -0.76196,-2.24006 -1.10156,-3.75196 -0.14457,-0.64342 0.1175,-1.34503 -0.22266,-1.96484 -0.35472,-2.17579 -0.10447,-0.74278 -0.33398,-1.7168 -1.0382,-1.84369 -1.53799,-3.59368 -2.05078,-5.74218 -0.70176,-2.94027 -1.00911,-5.9077 -1.25586,-8.90625 -0.18676,-0.92854 -0.32329,-1.842 -0.51953,-2.81836 -0.0777,-0.3866 -0.39091,-1.75442 -0.58399,-2.16602 -0.19046,-0.40602 -0.46192,-0.7682 -0.69336,-1.15234 -0.37475,-0.93305 -0.25219,-0.59736 -0.75586,-2.18359 -0.0172,-0.0544 0.0682,0.21103 0.0742,0.15429 0.01,-0.0883 -0.0369,-0.17281 -0.0625,-0.25781 -0.0762,-0.25354 -0.21694,-0.4925 -0.24414,-0.75586 -0.0489,-0.47244 -0.0568,-0.94837 -0.0606,-1.42383 -1.40682,-3.359187 -0.30885,-0.57883 -2.44531,-6.175779 -0.6103,-1.539572 -1.21978,-3.077614 -1.83008,-4.617188 -0.4159,-1.194445 -0.78414,-2.40735 -1.24804,-3.583984 -0.31892,-0.808886 -0.77253,-1.560778 -1.09766,-2.367187 -0.44883,-1.113214 -0.75283,-2.268155 -0.73828,-3.470703 -0.94613,-2.692267 -1.85734,-5.398247 -2.81055,-8.087891 -1.71122,-5.869484 -3.34326,-10.517452 -4.29101,-16.15625 -1.4845,-1.908615 -2.09426,-2.795041 -3.78125,-4.544922 -0.67395,-0.699078 -1.40586,-1.338143 -2.09961,-2.017578 -0.89822,-0.879682 -1.7712,-1.787103 -2.67774,-2.658203 -7.07417,-6.797594 0.6379,0.80175 -5.03711,-4.826172 -3.6004,-1.604655 -7.22166,-3.161534 -10.83984,-4.726563 -10.93304,-4.731328 2.86926,1.171194 -7.45899,-3.029297 -1.47163,-0.598517 -2.90903,-1.277174 -4.37695,-1.884765 -3.54914,-1.469036 -7.16676,-2.782468 -10.65625,-4.394531 -0.67419,-0.360344 -1.37288,-0.677425 -2.02148,-1.082032 -3.92496,-2.448479 -0.0722,-0.160031 -2.42774,-1.996093 -0.52375,-0.408241 -1.09126,-0.757274 -1.65429,-1.109375 -2.29119,-1.432851 -1.85963,-1.143025 -4.25586,-2.179688 -2.19664,-0.950313 -3.30855,-2.432561 -3.50586,-3.734375 -0.56285,-0.203632 -0.93311,-0.303452 -4.00391,-1.109375 -5.09214,-1.336414 -4.86943,-5.842195 -0.78906,-6.121094 0.58291,-0.03984 1.24437,0.0079 1.98047,0.16211 4.65186,0.974601 8.99655,2.971045 13.57031,4.220703 0.68818,0.188026 1.39188,0.31218 2.08789,0.46875 l 2.24609,0.625 c 1.98647,0.59942 4.04056,1.076243 5.9668,1.861328 2.64057,1.076228 5.11439,2.545216 7.63672,3.863281 5.11298,2.864398 10.01979,6.079896 14.83789,9.41211 1.32678,0.917611 2.69039,1.790008 3.94922,2.798828 1.09872,0.880508 2.10485,1.869487 3.13867,2.826172 0.42855,0.192645 0.86141,0.375611 1.28906,0.570312 3.25198,1.480555 5.29133,2.381298 8.38086,4.136719 0.62799,0.356812 1.2438,0.734293 1.85742,1.115234 -0.21947,-3.007214 -0.52291,-6.017832 -0.30664,-9.035156 0.10435,-1.455817 0.68387,-5.726295 0.90235,-7.386719 0.10533,-0.805952 0.21875,-1.611069 0.3164,-2.417968 -0.0838,-0.284876 -0.0751,-0.558357 0.084,-0.808594 0.11945,-1.633633 0.31255,-1.878911 3.72461,-1.236328 0.47876,9.1e-4 0.94037,-0.0077 1.4082,0.0039 0.85532,-0.450268 1.50373,-0.661279 1.99219,-0.652344 1.4729,0.02694 1.60965,1.909775 2.40039,4.25586 0.37423,1.712756 0.74881,3.425913 1.12305,5.138671 0.0858,0.371948 0.17353,0.743393 0.25976,1.115235 1.87741,4.401727 3.20551,7.526485 4.7832,11.755859 0.32111,0.228455 0.65275,0.499503 1.01563,0.863281 0.52597,0.527274 0.75282,1.286865 1.12891,1.929688 0.42718,1.179603 0.942,2.33123 1.28125,3.539062 0.73171,2.605134 1.38443,6.292391 1.39843,9.011719 0.003,0.649888 0.20454,1.494878 0.22071,2.216797 1.73897,2.320805 3.55029,4.589605 5.0332,7.085938 V 6.8758185 Z M 350.7811,45.166834 c -0.79061,-0.562524 -1.48521,-0.733316 -2.18945,-0.492187 0.004,0.01896 0.009,0.03768 0.0137,0.05664 0.37697,1.696787 0.74139,3.395672 1.10352,5.095703 0.58893,-0.343754 1.17037,-0.72845 1.80664,-0.93164 -0.0477,-0.45195 -0.19583,-0.856787 -0.57422,-1.300781 0.20067,0.29997 0.46625,0.565815 0.60156,0.90039 0.46741,1.155769 0.4158,1.291294 0.4043,2.216797 -9.3e-4,0.07955 0.0338,0.194296 0.0547,0.294922 -0.007,-0.0052 -0.007,-0.01682 -0.0195,-0.01758 -0.0839,-0.005 -0.16798,-0.0051 -0.25196,-0.0078 -4.6e-4,0.08969 6.6e-4,0.151167 0,0.246094 0.0697,-0.0019 0.1393,-7e-5 0.20899,-0.0039 0.0394,-0.0022 0.0587,-0.02396 0.0684,-0.05469 -0.0229,0.07235 -0.0542,0.152836 -0.0488,0.208985 0.0674,0.707742 0.16002,1.411601 0.26172,2.115234 0.29285,2.026101 0.62433,4.047242 0.95312,6.068359 0.11431,0.126469 0.24745,0.237724 0.36719,0.359375 0.30775,0.312645 0.61143,0.627578 0.91797,0.941407 0.36764,0.521937 0.75157,1.032592 1.13281,1.544922 0.17727,-1.955563 -0.45206,-4.351435 -0.93945,-6.025391 -0.7132,-2.449543 -1.55754,-4.859932 -2.41797,-7.261719 -0.56746,-1.584006 -1.00709,-2.757428 -1.45313,-3.953125 z m -1.07226,4.660156 c -0.10714,0.06253 -0.21721,0.114585 -0.32617,0.169922 0.16933,0.230459 0.33289,0.436981 0.49219,0.623047 -0.0561,-0.264157 -0.10976,-0.528861 -0.16602,-0.792969 z m -1.11719,-5.152343 c -0.83612,-3.760985 -1.72332,-7.510453 -2.59375,-11.263672 -0.42911,-1.006088 -0.6439,-1.520295 -1.17969,-2.78711 -0.30917,-0.616836 -0.60969,-1.239002 -0.91211,-1.859375 0.16693,1.333667 0.3581,2.664235 0.59766,3.986329 0.93167,5.141671 1.77355,8.511819 2.83399,12.724609 0.43838,-0.398365 0.84882,-0.662083 1.2539,-0.800781 z m -1.2539,0.800781 c -0.42649,-0.607152 -0.88532,-1.40057 -1.56836,-1.322266 -0.5896,0.06759 -1.13869,0.271524 -1.67188,0.533203 0.42089,1.078947 0.91318,2.39081 1.41602,3.757813 -0.0542,-0.411133 -0.0548,-0.80244 0.18359,-1.111328 0.60473,-0.78363 1.14165,-1.401879 1.64063,-1.855469 0,0 0,-0.002 0,-0.002 z m 0,0.002 c 0.2146,0.852551 0.4079,1.641751 0.63085,2.542969 0.42903,0.570451 0.87073,1.229392 1.29493,1.818359 -0.41546,-1.328084 -1.06204,-3.228512 -1.76953,-4.140625 -0.051,-0.06576 -0.10463,-0.147235 -0.15625,-0.220703 z m -1.82422,2.966797 c 0.01,0.07418 0.0226,0.149446 0.0352,0.224609 0.006,-0.02795 0.01,-0.05605 0.0156,-0.08398 -0.0173,-0.04724 -0.0341,-0.09515 -0.0508,-0.140625 z m -1.41602,-3.757813 c -1.12235,-2.877112 -2.31792,-5.682331 -3.91601,-9.449218 0.80017,3.443864 1.61153,6.885531 2.38281,10.335937 0.50532,-0.316317 1.01051,-0.630191 1.5332,-0.886719 z m -1.5332,0.886719 c -0.42266,0.264572 -0.85123,0.514432 -1.28516,0.740235 0.33308,1.330918 0.66765,2.661975 0.99805,3.990234 0.10347,0.358769 0.20665,0.717552 0.31055,1.076172 0.27111,0.20291 0.63192,0.450222 1.01171,0.705078 -0.54542,-1.776316 -0.58385,-2.011579 -1.01953,-2.759766 -10e-4,5.1e-5 -0.003,-5e-5 -0.004,0 -0.28865,0.01117 -0.58142,-0.999333 -0.43555,-0.75 0.20342,0.347707 0.32314,0.550249 0.43945,0.75 0.26373,-0.01037 0.52321,-0.05233 0.78321,-0.0918 -0.22575,-1.045804 -0.44765,-2.092295 -0.67969,-3.136718 -0.0388,-0.1747 -0.0801,-0.348789 -0.11914,-0.523438 z m 0.79883,3.660156 c 0.22645,1.04906 0.44313,2.100395 0.66601,3.150391 0.002,9.99e-4 0.002,9.53e-4 0.004,0.002 0.51031,0.331141 1.05181,0.609124 1.59375,0.886719 -10e-4,0.09245 0.0157,-1.063273 0.0312,-2.955078 -0.0776,-0.257011 -0.12587,-0.576031 -0.16211,-1.136719 -0.01,-0.148587 0.0128,-0.296122 0.041,-0.443359 -0.71957,0.201486 -1.44271,0.385099 -2.17382,0.496093 z m -2.08399,-2.919921 c -0.46929,-1.875227 -0.91847,-3.75567 -1.35351,-5.640626 0.0944,1.188097 0.20674,2.377378 0.22265,3.56836 0.0122,0.907612 -0.0709,1.813671 -0.10547,2.720703 -0.17175,0.546486 -0.32254,1.100382 -0.50586,1.642578 0.60674,0.567998 1.0927,1.035478 1.4629,1.402344 -8.7e-4,-0.04569 -0.001,-0.03525 -0.002,-0.08203 -0.0215,-1.163384 0.0455,-2.326877 0.0684,-3.490235 0.0725,-0.03513 0.14109,-0.08373 0.21289,-0.121094 z m -1.35351,-5.640626 c -0.061,-0.767538 -0.11509,-1.53534 -0.12891,-2.304687 -0.0219,-1.217875 0.06,-2.426252 0.17383,-3.632813 -0.23574,-0.556432 -0.32143,-0.761019 -0.58594,-1.388671 -0.46146,-0.921219 -0.92127,-1.843458 -1.38476,-2.763672 0.46196,3.393366 1.15487,6.749682 1.92578,10.089843 z m -1.92578,-10.089843 c -0.12514,-0.919121 -0.23767,-1.839298 -0.32813,-2.763672 -0.0863,-0.882277 -0.70452,-2.145916 0.0176,-2.660156 0.84762,-0.60363 1.55671,-1.061601 2.17383,-1.41211 -0.37959,-0.07352 -0.73256,-0.137702 -1.04883,-0.197265 -1.41282,-0.0027 -2.79539,0.133771 -3.64063,1.113281 -0.0347,0.04024 -0.0576,0.0816 -0.084,0.123047 -0.0149,0.20447 -0.0236,0.319675 -0.0527,0.570312 -0.009,0.07957 -0.0216,0.158762 -0.0312,0.238282 0.2672,0.90881 1.48698,1.951831 1.9336,2.873046 0.34406,0.709682 0.70574,1.410838 1.06055,2.115235 z m 1.86328,-6.835938 c 0.48994,0.0949 0.74675,0.139515 1.35351,0.25586 0.0287,0.0055 0.0514,0.02068 0.0781,0.0293 0.046,-0.249246 0.0612,-0.469482 -0.12696,-0.464844 -0.2989,0.0074 -0.62625,-0.0058 -0.94531,-0.01367 -0.11614,0.06114 -0.23495,0.12269 -0.35937,0.193359 z m 1.43164,0.285157 c -0.0313,0.169575 -0.0768,0.354477 -0.082,0.482421 -0.0134,0.330507 -0.0815,0.869421 -0.13477,1.353516 0.33801,-0.102111 0.72534,-0.202635 1.20898,-0.302734 -0.27856,-0.551017 -0.43934,-1.355335 -0.99218,-1.533203 z m 0.99218,1.533203 c 0.0102,0.02022 0.0187,0.04695 0.0293,0.06641 0.55976,1.0289 1.07649,2.079671 1.58984,3.132812 -0.075,-0.599465 -0.15741,-1.197814 -0.21679,-1.798828 -0.055,-0.556699 0.6275,-1.77077 0.0762,-1.675781 -0.56821,0.0979 -1.05042,0.186788 -1.47852,0.275391 z m -1.20898,0.302734 c -1.6125,0.487133 -1.79188,1.079907 -2.40234,2.580078 0.37481,1.715394 0.74823,3.429137 1.12304,5.144531 0.0654,0.283866 0.13154,0.56776 0.19727,0.851563 0.18919,-1.883437 0.47315,-3.759671 0.7207,-5.638672 0.0781,-0.597942 0.2388,-1.823299 0.36133,-2.9375 z m -1.08203,8.576172 c -0.01,0.09692 -0.0163,0.194052 -0.0254,0.291015 0.0852,0.201007 0.12914,0.309161 0.21094,0.501954 -0.0614,-0.264369 -0.12431,-0.528558 -0.18555,-0.792969 z m -0.15625,47.587891 c 0.59181,1.684045 1.19503,3.364146 1.83789,5.029296 1.68786,4.371914 3.89331,9.202171 6.01367,13.703128 0.42427,-0.56207 0.82162,-1.170983 1.39453,-1.478518 0.01,-1.48195 0.0332,-2.958406 0.0488,-4.132813 0.0611,-1.42551 0.0875,-2.850427 0.0957,-4.27539 -0.19201,-0.482448 -0.38437,-0.964761 -0.57617,-1.447266 -0.49441,-1.385336 -0.94263,-2.787954 -1.48242,-4.15625 -0.4775,-1.210418 -1.35598,-2.236024 -1.26367,-3.585937 -0.0185,-0.420695 -0.0295,-0.593518 -0.0391,-0.810547 -0.26603,-0.747934 -0.52926,-1.497817 -0.78907,-2.248047 -0.0717,0.107318 -0.10315,0.15845 -0.18945,0.287109 -0.15168,0.226135 -0.0754,-0.124621 0.10352,-0.53125 -0.53491,-1.547574 -1.06927,-3.095433 -1.60547,-4.642578 -0.61045,-1.023318 -1.21576,-2.049939 -1.8418,-3.064453 -0.20337,-0.332372 -0.40594,-0.665476 -0.60937,-0.998047 -0.0431,0.463656 -0.0825,0.911033 -0.13672,1.410156 -0.12959,1.191767 -0.37285,2.368421 -0.5586,3.552735 -0.10075,0.425516 -0.72369,1.164221 -0.30078,1.27539 0.0447,0.01174 0.0846,-0.0072 0.125,-0.03125 0.16655,-0.386022 0.33667,-0.770523 0.4375,-1.175781 0.0961,-0.386301 -0.0892,0.968708 -0.4375,1.175781 -0.17884,0.414513 -0.35293,0.830364 -0.43359,1.271485 -0.11716,0.640679 0.039,1.3024 0.0664,1.953125 0.04,0.948177 0.0952,1.895642 0.13672,2.84375 -6e-4,0.02564 0.004,0.05058 0.004,0.07617 z m 5.1543,-3.646485 c 0.0282,0.08152 0.0577,0.162639 0.0859,0.244141 0.29515,-0.442041 0.45828,-0.71905 0.58203,-0.960938 -0.0188,-0.03327 -0.0378,-0.06636 -0.0566,-0.09961 -0.23145,0.100255 -0.45902,0.470207 -0.61132,0.816406 z m 0.875,2.492188 c 0.45142,1.269184 0.91,2.534056 1.39453,3.791015 0.59333,1.539222 1.26287,3.143002 1.96093,4.765625 -0.002,-0.913985 -0.001,-1.827941 -0.0117,-2.742187 0,-0.804683 9.5e-4,-1.609376 0.002,-2.414063 -0.73238,-1.502654 -1.79064,-3.452842 -2.14453,-4.107422 -0.3844,-0.710998 -0.79431,-1.406697 -1.18946,-2.111328 -0.0406,0.269063 -0.1205,0.583047 -0.10937,0.792969 0.0635,1.199135 0.0738,1.483078 0.0977,2.025391 z m 1.82226,19.886721 c -0.15994,0.21189 -0.32431,0.41748 -0.5039,0.5957 0.009,0.29523 0.009,0.59103 0.0117,0.88672 0.0779,0.18607 0.022,0.0489 0.11719,0.27734 0.11039,0.26488 0.0635,0.93073 0.31836,0.79883 0.32692,-0.16919 0.68083,-0.33278 1.03125,-0.49805 -0.32098,-0.67567 -0.64694,-1.365 -0.97461,-2.06054 z m 0.97461,2.06054 c 0.0924,0.19451 0.18769,0.40123 0.2793,0.59375 0.0654,-0.0524 0.13998,-0.0957 0.20898,-0.14453 -0.01,-0.178 -0.0322,-0.35493 -0.0391,-0.5332 -0.002,-0.0393 -5.4e-4,-0.0949 -0.002,-0.13477 -0.14994,0.0718 -0.29803,0.14837 -0.44727,0.21875 z m 0.2793,0.59375 c -0.28961,0.2319 -0.55502,0.48769 -0.75196,0.81446 -0.27413,0.45486 0.34271,0.69069 1.08789,0.79102 -0.0353,-0.35539 -0.0512,-0.71229 -0.0781,-1.06837 -0.036,-0.0737 -0.12688,-0.26078 -0.13477,-0.27734 -0.04,-0.0839 -0.0829,-0.17543 -0.12304,-0.25977 z m 1,-52.472652 c -0.11258,3.69e-4 -0.22529,0.003 -0.33789,0.0039 0.0333,0.110015 0.0505,0.169242 0.082,0.273438 0.10548,0.004 0.21094,0.0066 0.3164,0.0098 -0.0203,-0.09568 -0.0403,-0.19143 -0.0605,-0.287109 z m -1.15235,0.01758 c -0.40433,0.0069 -0.80854,0.0076 -1.21289,0.01758 0.001,0.0038 0.002,0.008 0.004,0.01172 0.41949,0.03126 0.8386,0.0832 1.25781,0.142578 -0.0167,-0.05716 -0.0321,-0.114714 -0.0488,-0.171875 z m -2.35156,0.01362 c 0.004,0.01015 0.006,0.01713 0.01,0.02734 0.23433,-0.0039 0.46872,-0.0078 0.70312,-0.01367 -1.8e-4,-0.0033 -0.002,-0.0065 -0.002,-0.0098 -0.23697,-0.0088 -0.47394,-0.01144 -0.71094,-0.0039 z m 0.0352,0.09766 c 0.0268,0.07447 0.0443,0.117191 0.0723,0.195313 0.0137,0.03837 0.0273,0.07684 0.041,0.115234 0.21409,0.04541 0.40125,0.08935 0.59766,0.134766 -0.007,-0.137453 -0.018,-0.274706 -0.0254,-0.41211 -0.22853,-0.01125 -0.45706,-0.02365 -0.68554,-0.0332 z m 1.16211,0.05664 c 0.0666,0.170217 0.15028,0.388125 0.20898,0.539062 0.47837,0.120748 0.88071,0.234757 1.24805,0.345703 -0.0805,-0.275725 -0.15755,-0.552454 -0.23828,-0.828124 -0.40621,-0.0196 -0.81248,-0.03562 -1.21875,-0.05664 z m 2.0625,0.130859 c 0.11915,0.394107 0.21535,0.722937 0.31054,1.042969 0.0871,0.02974 0.15638,0.05117 0.23438,0.07813 -0.0754,-0.357328 -0.14895,-0.715008 -0.22461,-1.072266 -0.10677,-0.01702 -0.21354,-0.03184 -0.32031,-0.04883 z m 2.02929,0.28711 c -0.004,0.433812 -1.4e-4,0.600266 -0.006,1.0625 0.11512,-0.157673 0.15262,-0.479507 0.2168,-1.035157 -0.0703,-0.0068 -0.14065,-0.01965 -0.21094,-0.02734 z m -12.04492,5.201172 c 0.37784,0.487447 0.87858,1.192037 1.67774,2.335937 -5.9e-4,-0.173076 0.003,-0.306786 0.002,-0.484375 -0.002,-0.438187 -0.009,-0.427726 -0.0117,-0.785156 -0.33436,-0.192442 -0.6731,-0.377706 -0.99414,-0.591797 -0.28819,-0.192182 -0.43748,-0.310561 -0.67383,-0.474609 z m 4.95313,2.880859 c 0.11044,0.176277 0.24051,0.338731 0.41992,0.466797 0.0564,0.04024 0.10285,0.07026 0.1582,0.109375 0.0158,-0.03405 0.04,-0.07431 0.043,-0.101563 0.006,-0.05693 0.007,-0.08252 0.0117,-0.132812 -0.0784,-0.03998 -0.45887,-0.249061 -0.63281,-0.341797 z m 0.57812,0.576172 c -0.0158,0.03405 -0.0233,0.0603 0.004,0.05664 0.0232,-0.0031 0.0488,-0.003 0.0723,-0.0059 -0.0261,-0.01837 -0.0498,-0.03216 -0.0762,-0.05078 z m 0.0762,0.05078 c 0.0869,0.06109 0.16565,0.115503 0.25,0.173828 -0.0128,-0.07578 -0.019,-0.114836 -0.0312,-0.1875 -0.0724,0.0059 -0.14794,0.0051 -0.21875,0.01367 z m 0.21875,-0.01367 c 0.0459,-0.0038 0.0922,-0.0069 0.13868,-0.0098 -0.004,-0.02082 -0.008,-0.04168 -0.0117,-0.0625 -0.0125,-0.0064 -0.13784,-0.07469 -0.15235,-0.08203 0.009,0.05634 0.0154,0.09452 0.0254,0.154297 z m 0.13868,-0.0098 c 0.0201,0.104988 0.0424,0.209471 0.0625,0.314454 0.60435,0.412824 1.13718,0.747061 1.61718,1.021484 -0.0577,-0.121029 -0.11072,-0.244058 -0.13281,-0.375 -0.0119,-0.07064 0.0341,-0.0075 0.0957,0.08203 -0.005,-0.0279 -0.007,-0.05609 -0.0117,-0.08398 -0.12436,-0.180971 -0.22975,-0.318793 -0.0742,-0.06836 -1.24296,-0.766744 -1.29759,-0.808003 -1.46094,-0.892579 -0.0313,0.0016 -0.0646,6.2e-5 -0.0957,0.002 z m 0.0625,0.314454 c -0.0561,-0.03828 -0.11274,-0.07765 -0.16993,-0.117188 0.0329,0.194956 0.0428,0.265524 0.0801,0.482422 0.0607,0.02605 0.11916,0.05924 0.17969,0.08594 -0.029,-0.150591 -0.061,-0.300552 -0.0898,-0.451172 z m 0.0898,0.451172 c 0.1204,0.624797 0.24786,1.248093 0.37695,1.871093 0.009,-0.06355 0.0228,-0.118549 0.0605,-0.146484 0.37466,-0.277438 0.76613,-0.532287 1.16211,-0.777344 1.6e-4,-0.01236 -10e-6,-0.02474 0,-0.03711 -0.01,-0.05469 -0.0198,-0.109334 -0.0293,-0.164063 -0.51921,-0.261312 -1.0421,-0.51317 -1.57031,-0.746093 z m 1.59961,0.947265 c -0.0278,2.083438 -0.11195,4.165602 -0.25586,6.248047 0.68578,1.122987 1.36533,2.249436 2.0332,3.382812 -0.0227,-0.215104 -0.0489,-0.42747 -0.0938,-0.597656 -0.90339,-3.429767 -0.11354,1.552415 -1.0664,-3.597656 -0.26876,-1.452638 -0.32958,-2.943832 -0.42579,-4.414062 -0.0612,-0.341924 -0.12437,-0.683482 -0.18554,-1.025391 -0.002,0.0012 -0.004,0.0027 -0.006,0.0039 z m -1.22266,0.923828 c -0.0398,0.296064 0.17509,0.860231 0.12891,0.646485 -0.0464,-0.214791 -0.0843,-0.431317 -0.12891,-0.646485 z m 9.1211,9.488281 c 0.007,0.587491 -0.002,1.176405 -0.002,1.664063 7.1e-4,2.982799 -0.005,5.964933 -0.008,8.947266 0.0116,0.02946 0.0404,0.0838 0.0508,0.111328 0.26859,0.71341 0.39555,1.470953 0.59375,2.207031 0.0653,0.454306 0.0948,0.915458 0.19531,1.363281 0.21997,0.979743 0.47196,0.917631 0.98047,1.908203 0.51238,0.998104 0.98375,2.01775 1.43946,3.042969 0.53666,1.207328 1.02473,2.434518 1.53711,3.652344 0.25724,0.575391 0.51426,1.151027 0.77148,1.726562 V 84.05157 c -0.73144,-1.548991 -0.31556,-0.998215 -1.07031,-2.816407 -0.23096,-0.55637 -0.49646,-1.097041 -0.75196,-1.642578 -0.32598,-0.696011 -0.66139,-1.38829 -0.99218,-2.082031 -0.71831,-1.379393 -1.37611,-2.7902 -2.14063,-4.144531 -0.19313,-0.342133 -0.39605,-0.675769 -0.60351,-1.00586 z m -0.13868,26.769532 c -0.01,1.170578 -0.0162,2.366938 0.0117,3.164068 6.4e-4,0.0183 0.003,0.0364 0.004,0.0547 0.61756,1.2778 1.23808,2.55436 1.85937,3.83007 0.65154,1.3378 1.26829,2.69277 1.96094,4.00977 0.5821,1.1068 1.24117,2.17188 1.86133,3.25781 v -2.74414 c -1.57833,-2.75675 -2.86692,-5.67111 -4.32031,-8.49218 -0.45868,-1.02683 -0.91778,-2.05347 -1.37696,-3.080086 z m 0.9004,12.757818 c 0.16075,2.05722 0.35395,4.04848 0.68164,6.05273 0.42303,0.40228 0.86151,0.69363 1.29492,0.88086 0.005,-0.57419 0.006,-1.15284 -0.0899,-1.71875 -0.10333,-0.60728 -0.71866,-1.8089 -0.96484,-2.33203 -0.21789,-0.58204 -0.47931,-1.14919 -0.65234,-1.74609 -0.10858,-0.37458 -0.18749,-0.75601 -0.26953,-1.13672 z m 1.97656,6.93359 c -7e-5,0.008 7e-5,0.0169 0,0.0254 -8.8e-4,0.10999 -0.031,0.21725 -0.0605,0.32422 0.008,-0.009 0.0164,-0.0247 0.0273,-0.0195 0.10263,0.0483 0.0763,0.21379 0.11524,0.32031 0.0594,0.42553 0.12029,0.84986 0.17969,1.27539 0.0687,0.3309 0.15327,0.66017 0.20507,0.99414 0.0821,0.52947 0.11202,1.06446 0.19532,1.59375 0.18755,1.19227 0.26883,1.50534 0.36718,1.85547 0.3246,0.37688 0.67695,0.73291 0.9961,1.11328 h 0.002 c 0.32446,0.38671 0.57436,0.76924 0.79297,1.14844 v -8.9668 c -0.7029,0.62857 -1.74291,0.80139 -2.82031,0.33594 z m -0.0605,0.34961 c -0.0467,0.0521 -0.0543,0.27891 -0.0469,0.21094 0.008,-0.071 0.0277,-0.14145 0.0469,-0.21094 z m 2.88086,12.91406 c -0.09,0.0884 -0.19603,0.15548 -0.29883,0.22656 0.0836,0.27404 0.17875,0.54444 0.25586,0.82032 0.0193,0.0691 0.0248,0.091 0.043,0.15625 z" />
    </clipPath>
  </defs>
  <g
     id="g6514"
     transform="translate(41.450265,-64.468991)">
    <path
       id="path10"
       d="m -2.4059543,288.42081 c -0.62857,-2.45563 -1.506096,-6.00332 -1.950059,-7.88376 l -0.807206,-3.41899 2.350774,2.40824 c 2.67065,2.73592 4.557771,11.45454 2.729811,12.61189 -0.670661,0.42462 -1.674028,-1.1808 -2.32332,-3.71738 z m 14.2577383,2.2924 c 0.336926,-0.89947 0.612592,-2.18031 0.612592,-2.84628 0,-0.66598 0.817671,-0.88943 1.817047,-0.49656 0.999375,0.39287 -0.03825,-1.50617 -2.305849,-4.2201 -4.3301373,-5.18244 -5.0116163,-6.87142 -2.7725213,-6.87142 0.742705,0 2.1694493,-0.75574 3.1705413,-1.67943 1.001093,-0.92369 13.234116,-4.35015 27.184498,-7.61435 13.950381,-3.26421 43.263474,-10.20979 65.140218,-15.43461 21.87673,-5.22483 40.45502,-9.50508 41.28508,-9.51167 0.83006,-0.007 1.2107,0.4828 0.84589,1.08751 -0.36484,0.60473 -0.11334,1.44773 0.55891,1.87334 1.50227,0.95114 4.7968,-1.65795 3.9228,-3.10666 -1.12526,-1.86521 1.84478,-1.10823 4.00067,1.01966 2.72936,2.69392 3.92964,10.33368 1.89526,12.06333 -1.12241,0.95429 -1.68414,0.82131 -2.18559,-0.51742 -0.99022,-2.64354 -4.20606,-2.21508 -4.20606,0.56041 0,2.71745 -1.36871,2.98179 -4.63132,0.89444 -2.86698,-1.83421 -6.15345,-0.0385 -6.68988,3.65533 -0.33067,2.27696 -1.47557,3.06372 -3.91505,2.69038 -0.45358,-0.0695 -2.26944,0.45772 -4.03524,1.17139 -1.76579,0.71368 -4.63727,1.27457 -6.38107,1.24644 -1.7438,-0.0281 -3.17054,0.38281 -3.17054,0.91321 0,1.50478 -4.52253,2.3432 -5.33903,0.98979 -0.42255,-0.70041 -2.77204,-0.92264 -5.58238,-0.52802 -2.66901,0.37477 -5.3572,0.16461 -5.97375,-0.46701 -1.23203,-1.26214 -6.184784,3.32689 -5.805284,5.37897 0.32084,1.73499 -4.82997,2.17973 -6.71209,0.57953 -1.76156,-1.4977 -3.81064,-0.65982 -6.01059,2.45776 -0.77653,1.10041 -2.95765,2.23317 -4.84693,2.51724 -2.79513,0.42027 -3.498641,0.0609 -3.776301,-1.92847 -0.48194,-3.45323 -4.543627,-3.12883 -6.358053,0.5078 -0.810269,1.62402 -1.959386,2.83135 -2.55359,2.68294 -0.594205,-0.1484 -3.059472,0.4364 -5.478372,1.29955 -2.4189,0.86316 -5.07654,1.32866 -5.905867,1.03445 -0.829327,-0.29422 -2.544501,0.42614 -3.811497,1.60078 -1.877917,1.74103 -2.709183,1.87626 -4.498177,0.7317 -1.231493,-0.78788 -3.731677,-1.08908 -5.697265,-0.68636 -1.950939,0.39974 -4.1871,0.13581 -5.04752,-0.59573 -1.181335,-1.00439 -2.159851,-0.64271 -4.158885,1.53717 -1.437746,1.56782 -2.269702,3.42142 -1.84879,4.11911 1.02571,1.7002 -5.425338,1.6802 -7.086897,-0.022 -1.576109,-1.61466 -6.118981,0.5937 -6.118981,2.9745 0,0.95295 -1.647803,1.79795 -4.071365,2.0878 -3.120002,0.37315 -3.92822,0.10477 -3.458772,-1.14848 z m 23.887247,-12.87898 c -0.832267,-0.34118 -1.826664,-0.29923 -2.209772,0.0932 -0.383106,0.39248 0.29784,0.67163 1.513213,0.62034 1.343091,-0.0567 1.616284,-0.33654 0.696559,-0.71357 z m 13.042453,-0.37428 c 0.391901,-0.6496 0.193731,-1.1811 -0.440378,-1.1811 -0.634108,0 -1.473569,0.5315 -1.86547,1.1811 -0.391901,0.64961 -0.19373,1.18111 0.440378,1.18111 0.634108,0 1.473569,-0.5315 1.86547,-1.18111 z m 6.917545,0 c -0.913046,-1.51344 -1.729387,-1.51344 -1.729387,0 0,0.64961 0.549436,1.18111 1.220967,1.18111 0.671531,0 0.90032,-0.5315 0.50842,-1.18111 z m -21.329096,-4.27162 c 0,-2.01029 -1.386469,-2.10331 -3.228187,-0.21657 -2.065905,2.11639 -1.674471,3.16389 0.922339,2.46821 1.268217,-0.33976 2.305848,-1.35299 2.305848,-2.25164 z m 20.752634,0.72831 c 0,-0.64961 -0.518816,-1.18111 -1.152925,-1.18111 -0.634108,0 -1.152924,0.5315 -1.152924,1.18111 0,0.64961 0.518816,1.1811 1.152924,1.1811 0.634109,0 1.152925,-0.53149 1.152925,-1.1811 z m 48.422813,-11.81105 c 0,-0.64961 -0.77822,-1.1811 -1.72938,-1.1811 -0.95117,0 -1.72939,0.53149 -1.72939,1.1811 0,0.64961 0.77822,1.18111 1.72939,1.18111 0.95116,0 1.72938,-0.5315 1.72938,-1.18111 z m 12.68217,-1.32051 c 0,-0.64961 -0.51882,-0.85263 -1.15293,-0.45114 -0.63411,0.40148 -1.15292,1.26145 -1.15292,1.91106 0,0.64961 0.51881,0.85263 1.15292,0.45114 0.63411,-0.40148 1.15293,-1.26145 1.15293,-1.91106 z m -14.98802,-3.41391 c 0,-2.07656 -0.28739,-2.18836 -2.305854,-0.897 -2.94655,1.88514 -2.94655,3.26921 0,3.26921 1.540484,0 2.305854,-0.7874 2.305854,-2.37221 z M 9.5820657,286.90879 c 0.391901,-0.64961 1.2313623,-1.1811 1.8654703,-1.1811 0.634109,0 0.832279,0.53149 0.440378,1.1811 -0.391901,0.64961 -1.231362,1.18111 -1.86547,1.18111 -0.6341083,0 -0.8322793,-0.5315 -0.4403783,-1.18111 z M -16.358726,265.64891 c 0,-0.64961 -0.64852,-1.04823 -1.441155,-0.88583 -1.671206,0.34241 -7.385095,-16.53201 -8.330787,-24.60272 -0.339936,-2.90108 -1.093953,-6.19254 -1.675595,-7.31437 -1.941943,-3.74546 -4.875518,-16.97589 -4.177338,-18.83979 0.37904,-1.01192 -0.0637,-3.01698 -0.9839,-4.45569 -0.92019,-1.43872 -2.18857,-5.21718 -2.81863,-8.39659 -0.63005,-3.17941 -1.9963,-8.89933 -3.03612,-12.71093 -1.03981,-3.81162 -1.5901,-7.73234 -1.22287,-8.71272 0.36723,-0.98038 0.0819,-2.50563 -0.6341,-3.38943 -1.59023,-1.96294 -0.54008,-5.28318 1.5066,-4.76342 0.81664,0.20738 1.09569,0.15413 0.62011,-0.11834 -1.88768,-1.08149 -0.66755,-2.54422 3.21809,-3.85794 2.24553,-0.75921 4.747135,-1.1192 5.559127,-0.8 0.811992,0.31921 2.054141,-0.36743 2.760331,-1.52586 0.706191,-1.15843 3.003629,-2.37211 5.105417,-2.69706 2.101789,-0.32495 7.453145,-1.4332 11.891903,-2.46278 4.6348447,-1.07506 10.0336817,-1.57113 12.6821647,-1.16529 8.6121083,1.31968 15.7151493,9.10155 18.6841343,20.46975 2.651165,10.15128 1.989985,13.49542 -4.477334,22.64563 -1.729277,2.44665 0.582869,5.93969 3.240182,4.89506 2.964384,-1.16535 8.124112,5.11799 8.887378,10.82274 0.377465,2.82121 1.765148,7.24989 3.083739,9.84149 2.469491,4.85364 2.861675,7.1464 2.498511,14.60664 -0.414935,8.52378 -8.858543,14.73772 -27.2588263,20.06074 -4.413408,1.27676 -8.932288,2.07815 -10.041955,1.78086 -1.109667,-0.29727 -3.983893,0.1781 -6.387171,1.05638 -5.3075957,1.93969 -7.2519057,2.07895 -7.2519057,0.51947 z m 12.6821647,-12.4016 c 0.602719,-1.62402 1.627509,-2.95276 2.277312,-2.95276 0.649803,0 1.18146,-0.79725 1.18146,-1.77166 0,-0.97441 -0.389111,-1.70872 -0.864693,-1.63179 -2.862743,0.46306 -4.899927,-0.3918 -4.899927,-2.05614 0,-1.52531 0.335457,-1.63107 1.644179,-0.51839 0.904299,0.76885 3.864609,1.23256 6.578467,1.03046 4.776011,-0.35567 4.987687,-0.54428 6.599007,-5.87973 1.5614613,-5.17037 1.5016743,-5.92382 -0.963876,-12.14702 -2.648176,-6.68418 -4.907984,-8.91556 -9.029116,-8.91556 -3.862413,0 -5.228918,2.85596 -3.674771,7.68018 0.749191,2.32556 0.973095,5.13648 0.497563,6.24651 -0.47553,1.11002 -0.754849,2.50101 -0.620706,3.09109 0.134142,0.59008 -0.172604,1.38733 -0.681658,1.77166 -1.321584,0.99779 -6.1207307,11.04429 -6.1169117,12.80511 0.0039,1.79385 1.9562767,1.97002 2.5231987,0.22768 0.223465,-0.68678 1.29483,-0.8994 2.38081,-0.47249 1.512467,0.59458 1.709661,1.28319 0.842699,2.94271 -1.436609,2.74994 -1.425936,3.5029 0.04965,3.5029 0.649803,0 1.674594,-1.32874 2.277313,-2.95276 z m -1.021171,-11.13708 c -0.991204,-0.62758 -1.109122,-1.23626 -0.334507,-1.7267 0.657991,-0.4166 1.543558,-0.18193 1.967924,0.52149 1.058914,1.75524 0.21675,2.37662 -1.633417,1.20521 z m 12.761781,5.5662 c -0.827295,-0.84752 -1.364293,-0.91725 -1.364293,-0.17717 0,1.57652 1.363459,2.9733 2.132909,2.18504 0.327623,-0.33562 -0.01825,-1.23916 -0.768616,-2.00787 z M 18.228996,212.4992 c 0,-0.64961 -0.808843,-1.18111 -1.797428,-1.18111 -0.988585,0 -1.476782,0.5315 -1.084882,1.18111 0.921969,1.52824 2.88231,1.52824 2.88231,0 z M 7.4589357,208.72207 c -0.364473,-1.42781 -0.104202,-3.2854 0.578374,-4.12796 0.904226,-1.11616 0.750096,-2.29954 -0.567899,-4.36021 -1.677472,-2.62273 -1.643506,-2.98168 0.467325,-4.93865 2.8374783,-2.63065 1.041846,-5.30243 -1.888948,-2.81064 -1.663759,1.41455 -2.210461,1.17843 -4.354705,-1.88077 -1.348647,-1.92411 -4.275873,-5.47482 -6.504944,-7.89046 -3.699363,-4.00899 -4.404816,-4.31127 -8.0880917,-3.46572 -3.669388,0.84235 -4.008705,1.26733 -3.742616,4.68734 0.203911,2.62084 -0.209425,3.761 -1.363462,3.761 -2.154151,0 -3.563939,-4.58267 -1.925995,-6.26064 0.697098,-0.71414 1.254687,-1.85651 1.239086,-2.53859 -0.0346,-1.51265 -7.546061,-5.48849 -8.507823,-4.50322 -1.024163,1.04919 -0.830835,2.90285 0.232537,2.22959 0.505857,-0.32028 1.639832,-0.12641 2.519944,0.43083 1.295,0.81992 1.323398,1.35483 0.14889,2.80462 -0.798223,0.98531 -2.191605,1.50045 -3.096406,1.14476 -3.319775,-1.30505 -1.523581,1.80834 2.417629,4.19056 5.05552,3.05573 6.251897,5.85021 3.414546,7.97566 -1.983972,1.48617 -1.626927,3.38471 0.636538,3.38471 0.552259,0 3.33162,1.99312 6.176357,4.42914 5.7802097,4.94975 9.6981447,5.58225 12.8035527,2.06694 1.14772,-1.29922 2.52517,-2.36221 3.061,-2.36221 1.614263,0 1.096282,3.15031 -0.780318,4.74582 -1.549607,1.31749 -1.482035,1.68728 0.578485,3.1658 1.283171,0.92074 2.815093,1.36886 3.404273,0.99582 0.58918,-0.37303 1.397112,-0.13807 1.795406,0.52213 1.26378,2.09482 2.03447,1.29645 1.347265,-1.39565 z M 169.83851,252.65675 c 0.52708,-1.70125 0.20719,-2.3622 -1.14327,-2.3622 -1.03295,0 -1.53424,-0.56503 -1.11616,-1.25805 0.49682,-0.82352 1.51586,-0.55632 2.95036,0.7736 1.23181,1.14203 2.19139,1.44623 2.19139,0.69473 0,-0.73531 -1.21708,-2.15389 -2.70461,-3.15238 -3.51022,-2.3562 -6.05476,-7.68785 -3.66905,-7.68785 0.90606,0 2.06227,-0.75766 2.56936,-1.6837 0.58778,-1.07337 13.25086,-4.52314 34.93324,-9.51676 18.7062,-4.30819 47.24107,-10.93414 63.41083,-14.72434 38.11569,-8.93434 38.2075,-8.95027 37.27783,-6.46835 -0.63086,1.68416 -0.38321,1.76697 1.76388,0.5898 2.72201,-1.49239 2.98283,-1.16879 3.92852,4.87405 0.31008,1.98137 -0.0911,3.42086 -1.05942,3.80151 -0.85716,0.33697 -1.55847,1.75347 -1.55847,3.14779 0,2.42299 -0.12568,2.45074 -2.84175,0.62761 -1.56296,-1.04912 -3.46766,-1.90749 -4.23268,-1.90749 -2.26831,0 -5.50196,3.6325 -4.83017,5.42595 0.55357,1.47783 -0.84344,2.21645 -3.39225,1.79352 -0.4869,-0.0808 -2.60736,0.59021 -4.71211,1.49113 -2.37039,1.01461 -4.50745,1.24782 -5.61516,0.61277 -1.16211,-0.66624 -2.247,-0.45909 -3.09817,0.59158 -0.952,1.17513 -3.74404,1.52032 -10.22016,1.26353 -8.84554,-0.35073 -14.08975,1.31309 -12.49109,3.96302 0.91976,1.52458 -3.26047,2.53938 -5.22034,1.26728 -2.72393,-1.76803 -5.79748,-1.14221 -6.42288,1.30779 -0.33165,1.29921 -1.45042,2.36946 -2.48615,2.37833 -1.03572,0.009 -3.0582,0.33868 -4.49436,0.7329 -2.01879,0.55415 -2.45871,0.30964 -1.93902,-1.07776 0.36971,-0.98699 0.0685,-2.17673 -0.66926,-2.64387 -1.92573,-1.21925 -6.82397,1.76443 -6.09436,3.71228 0.57409,1.53262 0.0339,1.86143 -3.38593,2.06095 -0.79263,0.0462 -3.39586,0.7435 -5.78492,1.54943 -2.38908,0.80595 -5.11286,1.16303 -6.05285,0.79351 -0.94001,-0.36954 -1.70909,-0.10545 -1.70909,0.58683 0,0.82953 -3.54413,1.11234 -10.39453,0.82944 -9.68312,-0.39989 -10.48553,-0.25508 -11.72406,2.1157 -0.73124,1.39973 -1.11216,2.80344 -0.84648,3.11933 1.02906,1.22362 -3.86769,1.34651 -5.05815,0.12695 -1.99031,-2.03895 -4.0728,-1.52881 -6.78004,1.66089 -3.14906,3.71027 -8.37641,4.1344 -7.27847,0.59055 z m 36.31711,-12.4713 c 0,-0.28647 -0.51881,-0.52085 -1.15292,-0.52085 -0.63411,0 -1.15293,0.56287 -1.15293,1.25082 0,0.68794 0.51882,0.92232 1.15293,0.52084 0.63411,-0.40148 1.15292,-0.96435 1.15292,-1.25081 z m -14.98801,-3.47361 c 0,-2.26972 -1.62002,-2.26972 -3.45877,0 -1.19912,1.48016 -1.03265,1.77166 1.01176,1.77166 1.40651,0 2.44701,-0.75333 2.44701,-1.77166 z m 66.96389,-14.76381 c 0.58224,0 1.05863,-0.53149 1.05863,-1.1811 0,-1.8837 -3.02875,-1.3671 -4.75876,0.81169 -1.3929,1.75423 -1.32951,1.89562 0.52959,1.1811 1.16155,-0.44643 2.58829,-0.81169 3.17054,-0.81169 z M 62.130958,243.91062 c -0.839361,-1.03609 -2.304334,-1.88381 -3.255497,-1.88381 -1.358013,0 -1.439466,-0.35787 -0.379307,-1.6665 1.036263,-1.27915 1.017896,-1.87682 -0.07902,-2.57132 -0.799341,-0.50611 -1.628431,-0.29221 -1.881446,0.48539 -0.248792,0.76463 -1.373355,1.39022 -2.49903,1.39022 -1.650145,0 -2.338475,-1.74754 -3.55275,-9.01977 -1.128178,-6.7566 -2.010204,-9.15483 -3.51527,-9.55804 -2.106377,-0.56429 -3.73683,-4.6706 -2.601647,-6.55227 1.209241,-2.00442 1.473024,-11.38221 0.340337,-12.09936 -1.189336,-0.75302 -1.50744,0.68887 -1.142135,5.17704 0.142297,1.74827 -0.240571,2.49407 -1.025306,1.99722 -0.688825,-0.43612 -1.252407,-1.58212 -1.252407,-2.54667 0,-0.98832 -0.83878,-1.60227 -1.921823,-1.40669 -1.97421,0.35652 -2.139304,-0.13087 -6.283598,-18.55062 -2.352767,-10.45712 -2.0859,-21.77647 0.612888,-25.99601 2.061445,-3.22307 2.265134,-3.29501 3.185725,-1.1252 0.781036,1.84088 0.864077,1.67978 0.403431,-0.78265 -0.48622,-2.59914 0.159613,-3.60212 3.992796,-6.2008 2.515062,-1.70508 6.036647,-3.10013 7.825746,-3.10013 1.789098,0 3.745781,-0.50172 4.348184,-1.11493 0.602402,-0.6132 4.670502,-1.69838 9.040219,-2.4115 7.380137,-1.2044 8.123871,-1.12438 10.461848,1.12573 1.384304,1.33226 2.867529,2.06311 3.296071,1.6241 0.428531,-0.43902 0.779158,-0.17813 0.779158,0.57975 0,0.75787 -0.523209,1.37795 -1.16269,1.37795 -0.749585,0 -0.779492,0.7344 -0.08416,2.06693 0.593191,1.13682 1.37214,3.03074 1.73101,4.20873 0.35887,1.17799 1.200141,1.79504 1.869531,1.37123 0.7195,-0.45554 0.80622,-1.33115 0.21212,-2.14179 -1.304911,-1.78054 -1.546641,-6.6862 -0.32949,-6.6862 2.96029,0 4.71513,5.3428 4.94618,15.05908 0.11552,4.85859 0.24051,5.0197 3.89439,5.0197 2.07627,0 4.09201,0.52541 4.47942,1.16757 0.41916,0.69479 -0.10123,0.85089 -1.28504,0.3855 -1.52766,-0.60054 -1.81658,-0.32063 -1.24474,1.20597 0.40959,1.09342 0.23498,4.74134 -0.38797,8.10649 -1.26292,6.82206 0.26842,10.63114 2.24124,5.57488 0.61324,-1.57175 1.14787,-2.13648 1.18805,-1.25496 0.0417,0.91424 0.80247,1.31601 1.77103,0.93526 1.92174,-0.75547 2.72979,1.74777 6.440674,19.95241 1.98011,9.71395 2.13974,12.46124 1.03946,17.89079 -2.07908,10.25966 -11.353334,19.18594 -18.237404,17.55316 -1.98721,-0.47134 -2.50722,-0.35373 -1.49567,0.33823 1.92051,1.31373 -0.7151,2.04559 -11.406772,3.16745 -6.159915,0.64635 -7.83124,0.44535 -9.076331,-1.09156 z m 7.265128,-3.78372 c 1.826407,-2.25036 2.985972,-4.43452 2.576811,-4.85369 -1.000081,-1.02452 -8.852663,6.8585 -8.090496,8.12185 0.989759,1.64062 2.030249,1.02388 5.513685,-3.26816 z m -11.967671,-5.77727 c 0,-0.97441 -0.488197,-1.77165 -1.084882,-1.77165 -1.453812,0 -2.495037,1.8444 -1.573931,2.78802 1.298405,1.33013 2.658813,0.8101 2.658813,-1.01637 z m 39.895981,-4.99509 c -0.38312,-0.39247 -0.6556,0.30513 -0.60554,1.5502 0.0553,1.37593 0.32851,1.65579 0.69655,0.71359 0.33305,-0.85262 0.29209,-1.87131 -0.091,-2.26379 z m -41.625367,0.86123 c 0.3919,-0.64961 -0.355705,-1.18111 -1.661344,-1.18111 -1.30564,0 -2.373891,0.5315 -2.373891,1.18111 0,1.53349 3.110093,1.53349 4.035235,0 z m 31.860107,-8.49048 c 3.71957,-0.78704 6.76285,-1.88023 6.76285,-2.4293 0,-0.54907 -1.94556,-0.61475 -4.32347,-0.14596 -4.30232,0.84818 -8.26888,0.9215 -9.0059,0.16647 -0.21261,-0.21781 -0.6216,-3.98203 -0.90885,-8.36492 -0.28725,-4.38289 -1.0459,-8.61805 -1.685891,-9.41144 -1.6079,-1.99334 -5.076645,-19.74586 -4.275928,-21.88352 0.369628,-0.98677 -0.357798,-2.46511 -1.679695,-3.41364 -2.620087,-1.88003 -3.068156,-6.17403 -0.890519,-8.53412 1.187927,-1.28745 0.998663,-1.32896 -1.077129,-0.23622 -3.230704,1.70072 -3.876679,1.67039 -3.209699,-0.1507 1.292816,-3.52984 -8.62084,-4.48459 -10.956867,-1.05521 -0.869397,1.27631 -6.793253,3.4096 -11.850019,4.26742 -2.377906,0.40338 -4.323465,1.28306 -4.323465,1.95485 0,0.72183 1.414738,0.94149 3.458772,0.53703 11.220825,-2.22029 9.973607,-2.81509 10.856278,5.17737 0.434941,3.93835 0.454057,7.71881 0.04247,8.40104 -0.411579,0.68222 0.09179,2.19141 1.118593,3.35375 1.026804,1.16234 2.580062,5.5137 3.451683,9.66969 0.871622,4.15599 1.933558,8.4327 2.359858,9.50381 0.4263,1.07111 0.220906,2.29833 -0.456431,2.72719 -1.801942,1.14088 -1.502848,3.00252 0.482396,3.00252 0.942652,0 2.418432,1.72737 3.279512,3.83859 0.861078,2.11123 1.775969,4.34965 2.033089,4.97425 0.257121,0.62462 1.505123,2.22681 2.773339,3.56044 l 2.305848,2.42477 4.478165,-3.25159 c 2.463,-1.78837 7.52145,-3.89553 11.24101,-4.68257 z m -22.636716,1.40385 c 0.391901,-0.64961 0.193731,-1.18111 -0.440378,-1.18111 -0.634108,0 -1.473569,0.5315 -1.86547,1.18111 -0.391901,0.64961 -0.19373,1.1811 0.440378,1.1811 0.634108,0 1.473569,-0.53149 1.86547,-1.1811 z m -3.458772,-1.18111 c 0.391901,-0.6496 -0.06568,-1.1811 -1.01684,-1.1811 -0.951162,0 -2.05003,0.5315 -2.441931,1.1811 -0.391901,0.64961 0.06568,1.18111 1.016839,1.18111 0.951162,0 2.050031,-0.5315 2.441932,-1.18111 z m 40.058062,-1.77165 c 0.30305,-1.62402 0.10411,-2.95277 -0.44205,-2.95277 -0.54618,0 -0.99305,1.32875 -0.99305,2.95277 0,3.79064 0.72776,3.79064 1.4351,0 z m -47.552068,-0.59056 c 0,-1.29921 -0.488196,-2.36221 -1.084881,-2.36221 -1.547628,0 -2.638143,2.14977 -1.797429,3.54332 1.204942,1.99729 2.88231,1.30994 2.88231,-1.18111 z m -0.683282,-8.14681 c 3.50804,-3.97108 0.533805,-2.83408 -4.504876,1.72214 -4.184169,3.78353 -4.290798,4.0121 -1.150202,2.46556 1.903821,-0.93751 4.448606,-2.82197 5.655078,-4.1877 z m -1.997567,-8.97435 c -1.042254,-0.78073 -1.513959,-1.83837 -1.048233,-2.35027 0.465725,-0.51191 0.06855,-0.68347 -0.882614,-0.38126 -0.951162,0.30222 -1.886431,1.63538 -2.078375,2.96258 -0.295314,2.04195 0.131885,2.31891 2.777619,1.80078 2.755091,-0.53954 2.901435,-0.78097 1.231603,-2.03183 z m 36.097993,-14.47339 c 0.021,-1.75029 -2.99882,-1.98395 -4.00859,-0.31018 -1.04795,1.73708 2.068,4.84148 3.1439,3.13224 0.46587,-0.74012 0.85499,-2.01005 0.86469,-2.82206 z m -44.946384,-2.79689 c 0,-0.64961 -0.518816,-0.85263 -1.152924,-0.45115 -0.634108,0.40149 -1.152924,1.26146 -1.152924,1.91107 0,0.64961 0.518816,0.85263 1.152924,0.45114 0.634108,-0.40148 1.152924,-1.26145 1.152924,-1.91106 z m 44.297324,-6.84506 c 1.2044,-1.36337 1.84171,-2.83547 1.41623,-3.27133 -0.8428,-0.86341 -7.66706,5.34488 -7.66706,6.97501 0,1.40789 3.64116,-0.74954 6.25083,-3.70368 z m -52.367793,-8.0459 c 0,-3.70226 -0.552238,-3.27395 -1.613407,1.25135 -0.514792,2.1953 -0.372241,3.08575 0.414272,2.58778 0.659524,-0.41757 1.199135,-2.14518 1.199135,-3.83913 z m 49.575733,1.44766 c 0,-0.89773 -0.51881,-1.96073 -1.15292,-2.36221 -0.65648,-0.41564 -1.15293,0.60153 -1.15293,2.36221 0,1.76069 0.49645,2.77785 1.15293,2.36221 0.63411,-0.40148 1.15292,-1.46447 1.15292,-2.36221 z m -7.446597,-1.85023 c 1.056876,-1.75186 0.06295,-2.47949 -2.181621,-1.59712 -1.038277,0.40816 -1.600731,1.21792 -1.249896,1.79946 0.862917,1.43036 2.504935,1.33354 3.431517,-0.20234 z m 6.293677,-8.90607 c 0,-1.2455 -0.62696,-1.65156 -1.82369,-1.18111 -1.00302,0.39431 -2.07127,0.71692 -2.373881,0.71692 -0.30262,0 -0.22957,0.5315 0.162331,1.1811 1.13536,1.88194 4.03524,1.36673 4.03524,-0.71691 z m -14.938925,-8.3791 c 2.341317,-2.73179 3.22402,-4.55009 2.353224,-4.84745 -0.766428,-0.26172 -1.490784,-0.28175 -1.609679,-0.0445 -0.118896,0.23724 -2.0041,2.41859 -4.189343,4.84745 -2.809818,3.12307 -3.43555,4.41611 -2.13705,4.41611 1.009864,0 3.522146,-1.96721 5.582848,-4.37159 z m 51.880529,74.10014 c -5.32261,-20.94872 -5.27248,-20.61577 -2.96727,-19.70954 0.93086,0.36593 1.95967,0.22241 2.28626,-0.31892 0.32658,-0.54134 2.95977,-1.59458 5.85154,-2.34053 6.28265,-1.62066 5.90591,-4.25201 -0.45481,-3.17661 -10.75575,1.81845 -10.79695,1.8042 -12.32253,-4.26132 -0.76788,-3.05301 -1.18787,-5.76429 -0.9333,-6.02508 0.25456,-0.26079 -0.32146,-2.01486 -1.28005,-3.89793 -0.9586,-1.88307 -1.7461,-5.64803 -1.75001,-8.36656 -0.003,-2.71855 -0.58403,-6.43903 -1.28915,-8.26774 -0.70514,-1.82871 -1.38236,-4.12217 -1.50494,-5.09658 -0.12258,-0.97441 -0.92501,-3.23112 -1.78318,-5.0149 -1.35825,-2.82324 -1.31266,-3.52357 0.35201,-5.40797 2.66636,-3.01832 2.39129,-6.02323 -1.02247,-11.16984 -3.049904,-4.59804 -3.018044,-4.66908 2.66976,-5.95388 3.98766,-0.90076 11.79426,2.64861 11.79426,5.36241 0,4.05481 2.25681,6.71335 6.36993,7.50384 2.69745,0.51841 4.88119,2.00425 6.58421,4.47997 1.40148,2.03736 3.72948,4.67299 5.17332,5.85695 1.44384,1.18396 2.62517,2.81868 2.62517,3.63271 0,0.81402 1.29704,2.72834 2.88231,4.25402 1.58527,1.52569 2.89385,3.61145 2.90795,4.63503 0.0141,1.02357 1.0402,3.18979 2.28021,4.81381 1.24002,1.62402 2.28242,3.48426 2.31645,4.13387 0.0789,1.50525 5.70931,5.75448 6.52194,4.92199 0.3356,-0.34382 0.002,-3.45216 -0.74045,-6.90743 -3.69499,-17.18668 -4.70367,-21.53161 -8.13005,-35.02044 -2.57626,-10.14211 -3.33331,-14.94025 -2.49309,-15.80101 2.06783,-2.11837 17.98978,-5.52609 18.79102,-4.02178 0.86787,1.62938 8.9757,34.79459 10.28352,42.06486 0.52585,2.92323 1.55467,7.44096 2.28628,10.03939 2.31955,8.23825 2.72983,11.63626 1.2953,10.72801 -0.76932,-0.48709 -1.30782,-0.0411 -1.30782,1.08303 0,1.05109 0.46188,1.61864 1.02638,1.26122 1.2918,-0.81788 4.29326,5.60075 5.34753,11.43566 0.55589,3.07667 0.3853,4.42914 -0.55867,4.42914 -0.82062,0 -1.07749,0.90838 -0.64848,2.29315 0.56908,1.83679 0.18301,2.26531 -1.93992,2.15325 -1.45771,-0.077 -3.22782,-0.58201 -3.93358,-1.12237 -0.88389,-0.67675 -1.11324,-0.0716 -0.73702,1.94455 0.65919,3.53261 2.13059,4.90008 6.47427,6.01692 3.16478,0.81373 3.23522,0.73969 1.87649,-1.97198 -1.35696,-2.70813 -1.32983,-2.73726 0.69939,-0.75051 1.84704,1.80838 1.89993,2.2692 0.42291,3.68387 -2.01395,1.92891 -12.2966,4.64605 -13.85306,3.66059 -1.7533,-1.11008 -1.26445,-4.2923 0.92384,-6.01373 1.88442,-1.48241 1.84722,-1.63632 -0.5635,-2.33143 -1.41961,-0.40933 -2.313,-1.18864 -1.98532,-1.73181 0.32767,-0.54315 -0.48954,-1.58261 -1.81605,-2.30989 -1.81053,-0.99264 -2.83158,-0.96545 -4.09539,0.10902 -2.37065,2.01554 -3.5605,0.28288 -1.7948,-2.61358 1.38394,-2.27019 1.27011,-2.37368 -1.8409,-1.67369 -3.06757,0.69023 -3.88893,0.0126 -10.96098,-9.04224 -11.6198,-14.87771 -16.68731,-20.50462 -17.62347,-19.56892 -0.83901,0.83859 1.91878,19.84165 3.40404,23.45628 0.51282,1.24801 -0.10745,2.32424 -1.87546,3.25426 -2.55757,1.34533 -2.56111,1.3687 -0.11114,0.73386 2.18652,-0.56658 2.71169,0.0347 3.86282,4.42291 0.73276,2.79325 1.81502,6.33558 2.40502,7.87184 0.59,1.53627 0.77455,3.75568 0.4101,4.93204 -0.41755,1.34773 0.10227,2.57873 1.40551,3.32816 1.71083,0.98386 1.76937,1.27628 0.33876,1.69254 -0.95116,0.27675 -3.80465,1.19871 -6.34108,2.04879 -2.53643,0.85009 -6.30765,1.60903 -8.38048,1.68653 -3.38744,0.12668 -3.87616,-0.28173 -4.83012,-4.03629 z m 11.02485,-2.0857 c -1.17197,-1.2006 -2.13897,0.60696 -1.17739,2.20085 0.72637,1.20404 0.99795,1.20497 1.38846,0.005 0.26702,-0.82062 0.17203,-1.81314 -0.21107,-2.20562 z m -1.84949,-12.2303 c 0,-1.09327 -3.61785,-2.49356 -4.3924,-1.70009 -0.33198,0.3401 -0.0703,0.61836 0.58159,0.61836 0.65187,0 0.9637,1.46162 0.69298,3.24804 -0.47248,3.11774 -0.41981,3.15606 1.3128,0.95536 0.99277,-1.26097 1.80503,-2.66573 1.80503,-3.12167 z m -6.22098,-4.30516 c -1.17197,-1.20061 -2.13896,0.60695 -1.17739,2.20084 0.72638,1.20404 0.99795,1.20498 1.38847,0.005 0.26701,-0.82062 0.17202,-1.81314 -0.21108,-2.20562 z m 9.67975,1.74705 c 0,-1.38318 -1.67952,-1.03907 -2.16173,0.44291 -0.23779,0.73081 0.15132,1.12944 0.86469,0.88583 0.71338,-0.2436 1.29704,-0.84153 1.29704,-1.32874 z m 41.00759,-6.29976 c -0.48482,-1.97886 -0.3261,-2.78481 0.45147,-2.29251 1.49924,0.94923 1.52344,-0.58177 0.0462,-2.9235 -0.99344,-1.5748 -1.12365,-1.5748 -1.17193,0 -0.0821,2.67752 -3.40611,-2.2017 -3.5735,-5.24544 -0.1025,-1.86408 -0.25304,-1.96939 -0.64478,-0.45115 -0.28106,1.08932 0.62123,4.67693 2.00511,7.97246 2.71169,6.45756 4.09401,7.86513 2.88742,2.94014 z m -15.00054,-1.33116 c -0.3535,-0.94371 -0.7041,-3.13399 -0.77912,-4.86728 -0.13575,-3.13599 -0.14073,-3.13408 -1.01652,0.39188 -1.48786,5.99012 -1.33104,7.67305 0.64272,6.89714 0.98761,-0.38824 1.50642,-1.47802 1.15292,-2.42174 z m 12.05476,-15.65803 c -0.7964,-1.96965 -1.90386,-3.58118 -2.46103,-3.58118 -0.55718,0 -1.01306,-0.88583 -1.01306,-1.96851 0,-1.08268 -0.36682,-1.59271 -0.81517,-1.1334 -0.44835,0.4593 0.43729,3.1839 1.9681,6.05467 3.09204,5.79861 4.57383,6.19978 2.32116,0.62842 z m -23.72992,2.19229 c -0.43572,-0.72224 -0.15154,-1.7188 0.63151,-2.21457 1.01321,-0.6415 1.0558,-1.13437 0.1477,-1.70932 -0.70181,-0.44434 -1.27601,-0.2092 -1.27601,0.52251 0,0.79291 -0.93157,1.02751 -2.30585,0.58067 -2.57035,-0.83574 -3.0399,0.54722 -0.92234,2.71654 1.74219,1.78477 4.7903,1.87001 3.72499,0.10417 z m 15.7872,-8.45065 c -1.13865,-1.15779 -1.27107,-1.02212 -0.6454,0.66119 0.43296,1.16482 1.07762,1.82034 1.4326,1.45669 0.35497,-0.36365 7.4e-4,-1.31669 -0.7872,-2.11788 z m 10.08228,-6.28485 c 0.23401,-0.20588 -0.49789,-1.32026 -1.62645,-2.47641 -1.48668,-1.52301 -1.88352,-1.61984 -1.44062,-0.35152 0.33622,0.96281 -0.22892,2.75803 -1.25587,3.98936 -1.79105,2.14753 -1.74967,2.17712 1.01514,0.72585 1.58527,-0.83213 3.07378,-1.6814 3.3078,-1.88728 z m -10.33153,-2.55374 c -3.49502,-5.95361 -3.81355,-6.19179 -2.86188,-2.13989 0.66932,2.84976 3.40469,6.36687 5.07972,6.53147 0.21025,0.0207 -0.78778,-1.95555 -2.21784,-4.39158 z m 2.9885,-3.83859 c -2.71597,-6.17015 -3.55421,-5.31141 -1.05685,1.08268 1.05708,2.70646 2.1976,4.63846 2.53449,4.29333 0.3369,-0.34513 -0.32804,-2.76434 -1.47764,-5.37601 z m -28.93338,-0.72206 c 0.52178,-1.39296 0.22049,-1.70959 -1.12387,-1.18111 -1.01022,0.39714 -2.34376,0.72206 -2.96342,0.72206 -0.61967,0 -0.80603,0.5315 -0.41413,1.18111 1.09713,1.81858 3.70654,1.40002 4.50142,-0.72206 z m -25.42775,-3.44963 c -0.91454,-2.44148 -1.55569,-2.15378 -1.55569,0.69808 0,1.33755 0.49616,2.11778 1.10258,1.73383 0.60641,-0.38395 0.81031,-1.47831 0.45311,-2.43191 z m 46.41076,-4.95727 c -0.38312,-0.39247 -0.6556,0.30512 -0.60554,1.5502 0.0553,1.37592 0.32852,1.65579 0.69655,0.71359 0.33305,-0.85261 0.2921,-1.87132 -0.091,-2.26379 z m 3.64663,-0.61516 c -0.19107,-1.46161 -0.72763,-2.79036 -1.19238,-2.95276 -0.9817,-0.34306 -0.97709,-0.47744 -0.10145,2.95276 0.87736,3.43702 1.74315,3.43702 1.29385,0 z m -34.10304,0.66955 c -0.83228,-0.34118 -1.82666,-0.29922 -2.20978,0.0932 -0.3831,0.39247 0.29785,0.67163 1.51321,0.62034 1.3431,-0.0567 1.61629,-0.33654 0.69657,-0.71358 z m 27.454,-3.91758 c 0,-0.64961 -0.54944,-1.18111 -1.22097,-1.18111 -0.67153,0 -0.90032,0.5315 -0.50842,1.18111 0.91305,1.51344 1.72939,1.51344 1.72939,0 z m 5.76462,-3.54332 c 0,-0.64961 -0.54944,-1.1811 -1.22097,-1.1811 -0.67153,0 -0.90032,0.53149 -0.50842,1.1811 0.91305,1.51345 1.72939,1.51345 1.72939,0 z m -6.9352,-4.42914 c -0.0323,-1.61654 -2.15171,-4.37212 -2.82911,-3.67816 -0.90822,0.93042 0.53852,4.56399 1.81719,4.56399 0.56626,0 1.02163,-0.39863 1.01192,-0.88583 z m 2.48675,-6.44656 c -1.65375,-2.6458 -2.43645,-3.22769 -2.44967,-1.82117 -0.0104,1.13681 0.46444,2.06693 1.0558,2.06693 0.59139,0 1.41698,1.10305 1.83466,2.45122 0.41769,1.34817 1.03618,2.16769 1.37444,1.82117 0.33826,-0.34653 -0.47859,-2.3797 -1.81523,-4.51815 z m -48.58606,2.05897 c 0,-0.30195 -1.16733,-1.18621 -2.59408,-1.96503 -2.35221,-1.284 -2.44655,-1.23282 -1.01176,0.549 1.47325,1.82955 3.60584,2.66704 3.60584,1.41603 z m 97.51057,65.65644 c -0.44056,-0.73029 -1.67834,-1.3469 -2.75061,-1.37026 -2.70105,-0.0588 -8.74958,-5.32789 -7.84236,-6.8317 0.40824,-0.67669 0.21496,-1.56418 -0.42949,-1.97221 -1.94322,-1.23033 -1.31955,-2.96467 1.06608,-2.96467 3.16861,0 4.01405,-2.04459 1.22097,-2.95276 -1.28663,-0.41834 -2.0484,-1.24286 -1.69282,-1.83228 0.35559,-0.58941 0.0854,-2.14564 -0.60028,-3.45827 -0.90418,-1.73078 -2.42373,-2.3916 -5.5297,-2.40471 -2.92977,-0.0124 -3.77451,-0.34787 -2.67375,-1.06191 1.90601,-1.23637 0.84233,-4.9842 -1.28884,-4.54121 -0.98005,0.20372 -1.52732,-1.27534 -1.63481,-4.41819 -0.16694,-4.88131 -1.24254,-9.31173 -4.39193,-18.0903 -1.00596,-2.80398 -1.56861,-5.52979 -1.25033,-6.05734 0.31826,-0.52755 -0.18746,-2.53244 -1.12383,-4.45531 -0.93635,-1.92287 -2.02832,-5.16516 -2.42657,-7.20509 -0.83152,-4.25922 0.752,-5.27483 10.57793,-6.78434 4.9,-0.75276 5.27578,-0.99632 2.91658,-1.89038 -1.54343,-0.58491 -3.26402,-0.57971 -4.00067,0.0121 -0.7109,0.57111 -2.08004,1.02224 -3.04253,1.00252 -0.9625,-0.0197 -3.11763,0.31578 -4.78918,0.74557 -2.65523,0.68271 -3.19881,0.31229 -4.30285,-2.93216 -0.69502,-2.04247 -1.26368,-4.36626 -1.26368,-5.16397 0,-1.54788 19.02485,-6.96823 20.7109,-5.90073 0.8137,0.51519 2.73975,9.99963 2.8836,14.19968 0.0223,0.64961 0.32805,1.44686 0.67958,1.77166 1.93524,1.78814 8.25302,29.46571 8.14435,35.67957 -0.0618,3.53598 0.2768,4.24136 1.75693,3.6595 1.54978,-0.60925 1.63027,-0.3317 0.52007,1.79343 -1.08434,2.07563 -0.90661,2.93105 1.01879,4.90352 2.80352,2.87204 2.8503,3.46822 0.53752,6.85088 -2.0331,2.9736 -0.44652,3.61994 1.8692,0.76147 1.35319,-1.67035 1.72375,-1.57851 3.57431,0.88583 1.13552,1.51216 2.07613,3.41375 2.09023,4.22576 0.0346,1.98925 0.77051,1.86045 3.37458,-0.59055 1.20781,-1.13682 3.45483,-2.95415 4.9934,-4.03852 2.53334,-1.78547 2.72349,-2.51012 2.01448,-7.67718 -0.4306,-3.13808 -1.63751,-9.16033 -2.68204,-13.38278 -7.93529,-32.07808 -9.71892,-40.82912 -8.60266,-42.20701 0.84687,-1.04536 0.68403,-1.66386 -0.56762,-2.1559 -0.96535,-0.37949 -2.0592,-1.9309 -2.43077,-3.44756 -0.37158,-1.51667 -0.97894,-3.56741 -1.34971,-4.55721 -0.49291,-1.31591 0.51294,-2.13732 3.74209,-3.05591 6.47059,-1.84067 7.29682,-1.61716 7.31425,1.9786 0.0198,4.09846 1.16328,8.56301 2.19306,8.56301 0.43282,0 0.5667,-1.93278 0.29749,-4.29506 -0.33965,-2.98044 -0.0923,-4.04363 0.80797,-3.47361 0.83737,0.53017 1.29743,-0.29511 1.29743,-2.32738 0,-2.18997 0.48384,-2.95862 1.58889,-2.52421 0.8739,0.34354 2.09947,0.10158 2.72349,-0.5377 1.72812,-1.77035 3.01149,8.28049 1.32341,10.36424 -1.07553,1.3276 -0.99415,1.52671 0.39998,0.97866 1.62937,-0.64053 3.48057,3.01574 3.71728,7.34195 0.042,0.76616 0.45871,1.78486 0.9262,2.26378 0.4675,0.47892 0.84999,1.84518 0.84999,3.03613 0,2.76222 -3.15162,2.84585 -3.70909,0.0984 -0.34102,-1.68071 -0.55208,-1.57037 -1.12952,0.59055 -0.50181,1.87788 -0.2145,2.65749 0.97936,2.65749 1.04475,0 1.35908,0.56341 0.82367,1.47638 -0.60467,1.03107 -0.28612,0.99482 1.05615,-0.12019 2.53872,-2.10891 3.13574,-0.61769 8.29922,20.72944 4.27095,17.65711 4.9972,23.53133 2.73198,22.09713 -0.96836,-0.61311 -1.11326,0.79312 -0.53882,5.22933 0.56801,4.38653 0.30757,7.01525 -0.93988,9.48653 -2.24524,4.44793 -8.08884,9.43924 -11.98539,10.23732 -1.69492,0.34713 -4.63813,1.12278 -6.54045,1.72364 -6.12364,1.93421 -18.63324,2.78981 -19.51123,1.33448 z m 7.49868,-5.16638 c 1.80352,-2.11122 2.74975,-4.02601 2.10273,-4.25507 -1.36319,-0.48262 -5.37208,2.98362 -6.95494,6.01351 -1.85862,3.55774 1.28363,2.41899 4.85221,-1.75844 z M 201.54393,202.095 c 0,-2.90769 -3.03345,-6.97632 -4.22921,-5.67243 -0.52742,0.57511 -0.31132,1.28263 0.48022,1.57226 0.89618,0.32792 1.17527,1.60378 0.73971,3.38162 -0.52256,2.13292 -0.23045,2.85501 1.1549,2.85501 1.02044,0 1.85438,-0.96079 1.85438,-2.13646 z m 5.76462,-10.85569 c 0,-0.64961 -0.54944,-1.1811 -1.22097,-1.1811 -0.67153,0 -0.90032,0.53149 -0.50842,1.1811 0.91305,1.51344 1.72939,1.51344 1.72939,0 z m -3.67495,-7.01281 c 0.28823,-0.88583 -0.14411,-1.32874 -1.00881,-1.03347 -0.83227,0.2842 -1.7402,1.21433 -2.01761,2.06694 -0.28824,0.88583 0.14411,1.32874 1.0088,1.03346 0.83228,-0.28419 1.74021,-1.21432 2.01762,-2.06693 z m -7.85429,-0.59466 c 0,-0.93607 -0.51882,-2.03044 -1.15293,-2.43192 -0.63411,-0.40148 -1.15292,0.3644 -1.15292,1.70195 0,1.33755 0.51881,2.43192 1.15292,2.43192 0.63411,0 1.15293,-0.76588 1.15293,-1.70195 z m 41.40919,-0.18019 c 0.2642,-0.26404 0.15847,-0.80985 -0.23498,-1.21291 -1.13496,-1.16272 -11.19819,0.74279 -11.19819,2.12042 0,1.15152 10.18146,0.34336 11.43317,-0.90751 z m -46.02089,-5.20449 c 0,-0.64961 -0.51882,-1.18111 -1.15292,-1.18111 -0.63411,0 -1.15293,0.5315 -1.15293,1.18111 0,0.64961 0.51882,1.1811 1.15293,1.1811 0.6341,0 1.15292,-0.53149 1.15292,-1.1811 z m -2.93155,-9.53045 c -1.08417,-1.7971 -2.81639,-1.24815 -2.09961,0.66538 0.36359,0.97068 1.134,1.46545 1.71201,1.09949 0.578,-0.36596 0.75243,-1.16015 0.3876,-1.76487 z m -3.28943,-9.04734 c -0.38312,-0.39247 -0.6556,0.30512 -0.60554,1.5502 0.0553,1.37592 0.32851,1.65579 0.69655,0.71358 0.33304,-0.85261 0.29209,-1.87131 -0.091,-2.26378 z m 40.8087,-0.31989 c 0,-0.6496 -0.54944,-1.1811 -1.22097,-1.1811 -0.67153,0 -0.90032,0.5315 -0.50841,1.1811 0.91304,1.51345 1.72938,1.51345 1.72938,0 z m 6.91755,0 c 0,-0.6496 -0.54944,-1.1811 -1.22097,-1.1811 -0.67154,0 -0.90032,0.5315 -0.50842,1.1811 0.91305,1.51345 1.72939,1.51345 1.72939,0 z m -1.97209,-5.9067 c -0.87159,-3.41441 -2.42202,-2.90855 -1.77143,0.57797 0.30162,1.61645 0.9592,2.67891 1.46127,2.36103 0.50206,-0.31788 0.64164,-1.64043 0.31016,-2.939 z m -5.40182,-2.04115 c -0.38312,-0.39247 -0.6556,0.30512 -0.60554,1.5502 0.0553,1.37592 0.32852,1.65579 0.69655,0.71359 0.33305,-0.85261 0.2921,-1.87132 -0.091,-2.26379 z m -0.46957,-9.24986 c 0.26359,-2.31306 -0.0687,-4.52426 -0.73856,-4.91378 -0.6698,-0.38952 -0.8332,-0.27328 -0.36313,0.2583 0.47008,0.53158 0.29751,1.65429 -0.38348,2.49489 -1.04136,1.28543 -0.53596,6.36615 0.63327,6.36615 0.20496,0 0.5883,-1.8925 0.8519,-4.20556 z m 4.3847,-0.75508 c 0,-3.61091 -0.34542,-4.60676 -1.26955,-3.66005 -0.75308,0.77149 -0.95033,2.78957 -0.48486,4.96064 1.08668,5.06853 1.75441,4.57352 1.75441,-1.30059 z m -8.07046,-10.03939 c 0,-2.19347 -0.37172,-2.80818 -1.19072,-1.96916 -0.6549,0.67091 -0.8588,2.10595 -0.45311,3.18899 1.06794,2.85105 1.64383,2.4237 1.64383,-1.21983 z m 5.76462,-0.81852 c 0,-0.2553 -0.77823,-0.77012 -1.72939,-1.14403 -0.95116,-0.37392 -1.72939,-0.16504 -1.72939,0.46419 0,0.62921 0.77823,1.14403 1.72939,1.14403 0.95116,0 1.72939,-0.20888 1.72939,-0.46419 z m -1.15293,-6.69214 c 0,-2.10792 -0.48028,-3.30894 -1.15292,-2.88306 -1.50114,0.95043 -1.50114,6.49608 0,6.49608 0.63411,0 1.15292,-1.62586 1.15292,-3.61302 z m 43.59378,68.60636 c -6.10728,-1.12654 -13.35048,-6.35884 -14.35549,-10.37003 -0.36658,-1.46315 -1.6476,-4.63163 -2.8467,-7.04109 -2.80088,-5.62805 -2.75214,-7.42466 0.20146,-7.42466 1.30991,0 3.33331,-0.52177 4.49645,-1.15948 1.57045,-0.86102 2.28354,-0.70902 2.77033,0.59056 0.95779,2.55695 3.03374,2.13805 3.03374,-0.61219 0,-1.29921 0.60767,-2.36221 1.35038,-2.36221 0.7427,0 2.26575,-0.84865 3.38453,-1.88588 1.90068,-1.76214 2.20925,-1.51031 4.70248,3.83778 3.24811,6.96734 7.23615,8.95889 11.80236,5.89387 6.85356,-4.6004 1.82725,-13.59437 -9.05145,-16.19646 -3.21597,-0.76923 -6.75514,-2.21062 -7.86483,-3.20309 -1.10969,-0.99246 -2.01762,-1.32891 -2.01762,-0.74767 0,0.58125 -1.31803,-0.39937 -2.92897,-2.17915 -1.61093,-1.77978 -3.88593,-3.23597 -5.05556,-3.23597 -3.58936,0 -8.03348,-10.01195 -8.70198,-19.60428 -0.14027,-2.01265 -0.53158,-4.13864 -0.86959,-4.72442 -0.33802,-0.58578 -0.67201,-4.02156 -0.74219,-7.63508 -0.11594,-5.96895 0.21424,-6.89498 3.60895,-10.12195 5.88613,-5.595286 9.6364,-7.520666 14.64878,-7.520666 3.65538,0 4.65604,0.4429 4.66991,2.06694 0.0146,1.718086 0.19684,1.776756 1.07928,0.34763 1.28181,-2.07587 7.62641,-3.01786 8.67043,-1.28731 0.40977,0.67923 2.16909,1.23495 3.9096,1.23495 2.05776,0 4.43293,1.342536 6.79107,3.838586 3.93327,4.1633 7.69191,12.11064 6.59082,13.93578 -0.37658,0.62421 -2.85747,1.09761 -5.51308,1.05199 -2.6556,-0.0456 -6.87213,0.28742 -9.37007,0.74007 -3.98156,0.72149 -4.83469,0.45252 -6.91754,-2.18102 -2.22557,-2.81398 -4.94593,-3.67981 -10.44632,-3.3248 -4.37529,0.28239 -5.22758,1.63899 -3.96731,6.31487 1.50645,5.58928 4.9422,7.88187 18.14347,12.10671 5.89455,1.88645 11.27594,4.11939 11.95863,4.96209 0.68269,0.8427 2.22696,1.53218 3.4317,1.53218 6.0585,0 17.50252,16.62314 13.9497,20.2628 -0.90943,0.93167 -0.66878,1.9378 0.86757,3.62719 2.66145,2.92657 1.93006,9.08515 -1.80329,15.18438 -7.30969,11.94191 -22.43073,18.0889 -37.60965,15.28903 z m -15.80695,-20.95269 c -1.10748,-1.94954 -1.20214,-1.92276 -1.23451,0.3492 -0.039,2.73409 1.42411,4.8659 2.04013,2.97265 0.21662,-0.66573 -0.14591,-2.16057 -0.80562,-3.32185 z m 45.98658,-22.08617 c -0.75031,-0.76865 -1.59144,-0.70374 -2.46399,0.19014 -0.99779,1.02218 -0.71659,1.31025 1.13919,1.16705 1.62287,-0.12524 2.07511,-0.58854 1.3248,-1.35719 z m -8.05674,-1.8757 c 0,-1.5335 -3.11009,-1.5335 -4.03523,0 -0.3919,0.6496 0.3557,1.1811 1.66134,1.1811 1.30564,0 2.37389,-0.5315 2.37389,-1.1811 z m -27.10523,-41.32635 c 1.8162,-1.94204 2.94549,-3.89641 2.50952,-4.34304 -0.8433,-0.86391 -7.68616,5.29142 -7.68616,6.91391 0,1.86796 1.91472,0.91706 5.17664,-2.57087 z m 22.49354,-3.79185 c 0,-1.90798 -0.34093,-2.24917 -1.28306,-1.28402 -0.70567,0.72293 -0.93447,1.89222 -0.50841,2.59843 1.19257,1.97679 1.79147,1.53738 1.79147,-1.31441 z m -316.917594,47.77568 c 0.34382,-2.23075 -0.302222,-2.64975 -2.352437,-1.52569 -1.9109,1.04768 -2.32047,0.72718 -2.97558,-2.32843 -1.28011,-5.97074 3.31907,-13.49253 5.767948,-9.43331 0.391901,0.64961 2.024034,1.18111 3.626962,1.18111 2.150288,0 3.24194,-0.88892 4.163603,-3.39037 0.982781,-2.66732 2.375222,-3.68978 6.529166,-4.79432 2.903989,-0.77217 6.6405417,-1.36921 8.3034517,-1.32676 1.662911,0.0424 3.662948,-0.71218 4.444528,-1.67695 1.005532,-1.2412 2.012797,-1.42968 3.44476,-0.64459 1.609247,0.8823 10.4222233,0.96348 16.6036523,0.15296 0.549539,-0.0721 0.739516,-1.14817 0.422172,-2.39136 -0.687569,-2.69353 3.023292,-4.13595 6.183277,-2.40344 3.271544,1.79368 5.822987,1.30421 6.472884,-1.24174 0.331645,-1.29922 1.45041,-2.36947 2.486142,-2.37834 1.035733,-0.009 3.000757,-0.32328 4.366722,-0.6987 1.917981,-0.52713 2.443098,-0.18724 2.305848,1.49251 -0.270118,3.30585 4.096977,2.72762 5.798002,-0.7677 0.994948,-2.04444 2.518986,-3.03307 4.992492,-3.23856 1.9582,-0.16268 4.582386,-0.85613 5.831523,-1.54098 1.249139,-0.68486 2.779253,-0.92351 3.400257,-0.53033 0.621003,0.39319 1.777617,0.28489 2.570252,-0.24065 0.792635,-0.52555 5.842801,-0.95554 11.222586,-0.95554 9.532969,0 9.820119,-0.0825 11.303929,-3.24803 1.66262,-3.54699 3.64826,-4.04038 7.17641,-1.78316 1.98236,1.26827 2.68287,1.03048 5.21917,-1.77166 1.92512,-2.1269 4.102674,-3.23654 6.351374,-3.23654 3.09516,0 3.28884,0.21826 2.02843,2.28582 -0.7664,1.25719 -1.80842,2.02307 -2.31562,1.70195 -1.86441,-1.18044 -0.85579,1.83414 1.11321,3.32716 1.11944,0.84885 2.60797,2.87725 3.30782,4.50757 1.10719,2.57924 0.90172,3.25068 -1.58207,5.17 -2.3985,1.85342 -26.288054,8.00717 -53.336862,13.73914 -2.853487,0.60469 -11.932764,2.72079 -20.176171,4.70244 -25.3852353,6.10243 -60.522818,14.17232 -61.708554,14.17232 -0.619194,0 -1.064369,-0.39862 -0.989277,-0.88583 z m 27.5336467,-14.46853 c 0,-0.64961 -0.549435,-1.1811 -1.220966,-1.1811 -0.671531,0 -0.900321,0.53149 -0.50842,1.1811 0.913046,1.51345 1.729386,1.51345 1.729386,0 z M 20.216912,134.9345 c 0.286007,-0.88005 -0.413387,-1.15225 -1.922078,-0.74808 -1.304427,0.34946 -2.371686,1.14385 -2.371686,1.76533 0,1.56802 3.741661,0.68158 4.293764,-1.01725 z M 3.8479527,131.23108 c -0.35497,-0.36365 -1.285273,-7.5e-4 -2.06734,0.80643 -1.130174,1.16648 -0.997744,1.30215 0.645401,0.66118 1.137038,-0.44354 1.776911,-1.10397 1.421939,-1.46761 z M 87.404436,119.06556 c 0,-1.34955 -3.12644,-1.38003 -3.93585,-0.0384 -0.33723,0.55901 -0.31713,1.31963 0.0446,1.69028 0.89978,0.92171 3.89123,-0.34824 3.89123,-1.6519 z m 32.005354,-5.64178 c -2.93054,-3.04524 -3.77984,-8.90342 -1.72624,-11.907 1.70527,-2.494116 1.71069,-2.494326 2.32454,-0.0896 0.82142,3.21791 4.28992,3.15467 4.28992,-0.0782 0,-1.928326 0.45422,-2.284296 2.01762,-1.581196 1.10969,0.499056 3.16594,0.879106 4.56945,0.844556 2.8892,-0.0711 6.57208,-3.296346 5.60139,-4.905336 -0.3524,-0.58413 1.04127,-1.36023 3.09703,-1.72467 9.16594,-1.6249 11.97426,-2.41234 14.40809,-4.03993 1.79186,-1.1983 3.04593,-1.36895 4.03523,-0.54911 1.91791,1.5894 14.26731,0.92303 16.39338,-0.88457 0.92712,-0.78826 1.57257,-2.04658 1.43431,-2.79629 -0.13826,-0.7497 1.17537,-1.53128 2.91917,-1.73683 1.74379,-0.20555 3.17054,0.19308 3.17054,0.88583 0,2.2834 3.42908,1.3125 5.98016,-1.6932 3.09631,-3.64812 7.34288,-3.90516 8.21284,-0.49712 0.9032,3.5383 5.66479,2.61769 6.59222,-1.27454 0.45502,-1.9096 1.4405,-2.88587 2.78949,-2.76342 1.14725,0.10413 3.9648,-0.48067 6.26123,-1.29955 2.29642,-0.81889 4.9083,-1.22958 5.80417,-0.91265 0.89587,0.31693 2.29768,-0.3608 3.11515,-1.50608 0.9996,-1.40045 2.16511,-1.79227 3.55931,-1.19657 1.14015,0.48716 5.05234,0.99865 8.69376,1.13665 5.0924,0.19298 7.04804,-0.23276 8.47165,-1.84428 1.01798,-1.15236 1.51002,-2.66018 1.09343,-3.35072 -1.03387,-1.713723 5.45651,-1.643287 7.13618,0.0774 0.96628,0.9899 1.9961,0.56481 4.00119,-1.651602 3.46554,-3.830778 11.97323,-5.130641 8.92098,-1.363008 -1.24992,1.542871 -1.22474,2.04542 0.14706,2.93468 0.91039,0.59015 1.11049,1.08113 0.44468,1.09108 -0.66582,0.01 -1.83315,-0.6197 -2.59408,-1.39923 -1.07606,-1.102368 -1.38351,-1.094131 -1.38351,0.0371 0,0.79992 0.75431,1.75093 1.67625,2.11336 2.22485,0.87462 6.72756,8.71574 5.00497,8.71574 -0.72133,0 -2.13057,0.74233 -3.13167,1.64962 -1.00109,0.90729 -7.78655,3.00044 -15.07879,4.65144 -12.56633,2.84508 -92.43046,21.863986 -112.61438,26.818076 -11.25217,2.76182 -11.84335,2.80401 -8.95305,0.63891 1.22988,-0.9213 1.92212,-1.9968 1.5383,-2.39001 -1.13888,-1.16672 -4.48667,0.63885 -4.48667,2.41981 0,2.17386 -1.27616,1.97586 -3.7353,-0.57954 z m 57.65852,-15.270276 c 0.251,-0.77141 -0.36509,-1.40257 -1.3691,-1.40257 -1.004,0 -1.82546,0.84154 -1.82546,1.87009 0,2.085736 2.48197,1.722506 3.19456,-0.46752 z m -15.87673,-3.90418 c 0,-0.64961 -0.51881,-0.85263 -1.15292,-0.45115 -0.63411,0.40148 -1.15292,1.26146 -1.15292,1.91107 0,0.64961 0.51881,0.85262 1.15292,0.45114 0.63411,-0.40148 1.15292,-1.26146 1.15292,-1.91106 z m 12.68217,0.13941 c 0,-0.64961 -0.51882,-1.18111 -1.15292,-1.18111 -0.63411,0 -1.15293,0.5315 -1.15293,1.18111 0,0.6496 0.51882,1.1811 1.15293,1.1811 0.6341,0 1.15292,-0.5315 1.15292,-1.1811 z m 70.32837,-11.2205 c 1.19912,-1.48016 1.03265,-1.77166 -1.01176,-1.77166 -1.40651,0 -2.44702,0.75334 -2.44702,1.77166 0,2.26972 1.62002,2.26972 3.45878,0 z m -16.72556,-4.12034 c 0.40391,-0.66952 -0.0589,-0.86753 -1.08488,-0.46418 -1.99735,0.78518 -2.36279,1.63176 -0.70439,1.63176 0.59668,0 1.40186,-0.52541 1.78927,-1.16758 z M 105.33563,107.48176 c -0.37122,-0.61532 -0.18351,-1.42991 0.41713,-1.81019 0.60064,-0.38029 1.39579,-0.18799 1.76699,0.42732 0.37122,0.61532 0.18351,1.42991 -0.41713,1.81019 -0.60063,0.38029 -1.39578,0.18799 -1.76699,-0.42732 z M 274.43591,71.689514 c -1.14335,-3.10311 -1.10565,-4.103776 0.2052,-5.446668 1.73052,-1.772814 1.8391,-1.585981 3.48708,6.000168 1.01523,4.67344 -1.92902,4.23208 -3.69228,-0.5535 z"
       style="fill:#ff0000;stroke-width:1.16693" />
  </g>
</svg>
