<?xml version="1.0" encoding="UTF-8" standalone="no"?>
<!-- Creator: CorelDRAW 2019 (64-Bit) -->

<svg
   xml:space="preserve"
   width="26.644409mm"
   height="36.970348mm"
   version="1.1"
   style="clip-rule:evenodd;fill-rule:evenodd;image-rendering:optimizeQuality;shape-rendering:geometricPrecision;text-rendering:geometricPrecision"
   viewBox="0 0 46.042657 63.892803"
   id="svg10"
   sodipodi:docname="ЗАКРЫТО.svg"
   inkscape:version="1.2.1 (9c6d41e410, 2022-07-14)"
   xmlns:inkscape="http://www.inkscape.org/namespaces/inkscape"
   xmlns:sodipodi="http://sodipodi.sourceforge.net/DTD/sodipodi-0.dtd"
   xmlns="http://www.w3.org/2000/svg"
   xmlns:svg="http://www.w3.org/2000/svg"><sodipodi:namedview
   id="namedview12"
   pagecolor="#ffffff"
   bordercolor="#111111"
   borderopacity="1"
   inkscape:showpageshadow="0"
   inkscape:pageopacity="0"
   inkscape:pagecheckerboard="1"
   inkscape:deskcolor="#d1d1d1"
   inkscape:document-units="mm"
   showgrid="false"
   inkscape:zoom="3.0045891"
   inkscape:cx="74.885447"
   inkscape:cy="70.725144"
   inkscape:window-width="1920"
   inkscape:window-height="1018"
   inkscape:window-x="-6"
   inkscape:window-y="-6"
   inkscape:window-maximized="1"
   inkscape:current-layer="Слой_x0020_1" />
 <defs
   id="defs4">
  <style
   type="text/css"
   id="style2">
   <![CDATA[
    .fil0 {fill:#2B2A29}
   ]]>
  </style>
 </defs>
 <g
   id="Слой_x0020_1"
   inkscape:label="Слой 1"
   inkscape:groupmode="layer"
   transform="translate(-4.2529494,0.42753193)">
  <metadata
   id="CorelCorpID_0Corel-Layer" />
  
 <path
   style="fill:#000000;stroke-width:0.16507"
   d="m 5.1429899,62.036272 c 0,-1.272521 -0.04886,-1.490592 -0.44621,-1.991413 l -0.446209,-0.562408 0.0016,-28.884896 c 8.04e-4,-15.886693 0.052854,-29.2506459 0.115617,-29.69767292 0.203984,-1.45286171 -2.015637,-1.32452069 22.9072021,-1.32452069 24.922841,0 22.703217,-0.12834102 22.907201,1.32452069 0.06276,0.44702702 0.114813,13.70257092 0.115666,29.45676392 0.0014,25.812167 -0.02608,28.6636 -0.277944,28.84239 -0.622041,0.441567 -0.780113,0.987228 -0.710928,2.454096 0.04017,0.851583 -0.0074,1.507711 -0.117601,1.621314 -0.146219,0.15077 -4.789099,0.19083 -22.116732,0.19083 H 5.1429899 Z M 46.765205,60.297497 c 1.119297,-1.023265 1.035519,1.331279 1.03453,-29.074925 L 47.798835,3.5446274 47.122931,2.781307 46.447027,2.0179866 H 27.27499 8.1029509 L 7.4270469,2.781307 6.7511429,3.5446274 6.7502499,31.222572 c -9.94e-4,30.406204 -0.08477,28.05166 1.034525,29.074925 l 0.459226,0.419826 H 27.27499 46.305978 Z M 8.1264559,59.510622 c -0.286266,-0.414506 -0.306208,-2.251924 -0.306208,-28.213675 0,-23.7427837 0.03674,-27.8132726 0.253338,-28.0666351 0.248023,-0.2901233 0.650886,-0.2963408 19.2014041,-0.2963408 18.550517,0 18.95338,0.00622 19.201403,0.2963408 0.216597,0.2533625 0.253338,4.3238514 0.253338,28.0666351 0,25.961751 -0.01994,27.799169 -0.306209,28.213675 l -0.306208,0.44338 H 27.27499 8.4326639 Z M 13.839746,33.134873 c 0.630616,-0.255957 1.285751,-1.158024 1.294421,-1.782312 0.0085,-0.615473 -0.588383,-1.357387 -1.321169,-1.642058 -0.903819,-0.351115 -1.222089,-0.356439 -2.017152,-0.03373 -0.630616,0.255956 -1.28575,1.158024 -1.29442,1.782312 -0.0085,0.615473 0.588382,1.357386 1.321169,1.642058 0.903819,0.351115 1.222089,0.356438 2.017151,0.03373 z"
   id="path94" /></g>
</svg>
