<?xml version="1.0" encoding="UTF-8" standalone="no"?>
<svg
   xmlns:dc="http://purl.org/dc/elements/1.1/"
   xmlns:cc="http://creativecommons.org/ns#"
   xmlns:rdf="http://www.w3.org/1999/02/22-rdf-syntax-ns#"
   xmlns:svg="http://www.w3.org/2000/svg"
   xmlns="http://www.w3.org/2000/svg"
   xmlns:sodipodi="http://sodipodi.sourceforge.net/DTD/sodipodi-0.dtd"
   xmlns:inkscape="http://www.inkscape.org/namespaces/inkscape"
   xml:space="preserve"
   width="40.522594mm"
   height="35.857796mm"
   version="1.1"
   style="clip-rule:evenodd;fill-rule:evenodd;image-rendering:optimizeQuality;shape-rendering:geometricPrecision;text-rendering:geometricPrecision"
   viewBox="0 0 54.744302 48.450024"
   id="svg3250"
   sodipodi:docname="КОММЕНТАРИИ-КОНТУР.svg"
   inkscape:version="1.0 (4035a4fb49, 2020-05-01)"><metadata
   id="metadata3254"><rdf:RDF><cc:Work
       rdf:about=""><dc:format>image/svg+xml</dc:format><dc:type
         rdf:resource="http://purl.org/dc/dcmitype/StillImage" /><dc:title></dc:title></cc:Work></rdf:RDF></metadata><sodipodi:namedview
   inkscape:document-rotation="0"
   pagecolor="#ffffff"
   bordercolor="#666666"
   borderopacity="1"
   objecttolerance="10"
   gridtolerance="10"
   guidetolerance="10"
   inkscape:pageopacity="0"
   inkscape:pageshadow="2"
   inkscape:window-width="1920"
   inkscape:window-height="1018"
   id="namedview3252"
   showgrid="false"
   inkscape:zoom="3.0850403"
   inkscape:cx="168.89798"
   inkscape:cy="82.383083"
   inkscape:window-x="-6"
   inkscape:window-y="-6"
   inkscape:window-maximized="1"
   inkscape:current-layer="svg3250" />
 <defs
   id="defs3244">
  <style
   type="text/css"
   id="style3242">
   <![CDATA[
    .fil0 {fill:black;fill-rule:nonzero}
   ]]>
  </style>
 </defs>
 
<path
   id="path8"
   d="m 16.011809,48.028716 v -0.421304 h -0.409716 -0.409716 v -5.160981 -5.16098 H 9.2701169 3.3478579 v -0.386196 -0.386196 h -0.409716 -0.409716 v -0.386196 -0.386195 h -0.409716 -0.409716 v -0.386196 -0.386196 h -0.409716 -0.409716 v -0.421305 -0.421304 h -0.446963 -0.446963 V 18.677834 3.2300013 h 0.446963 0.446963 V 2.8086968 2.3873923 h 0.409716 0.409716 V 2.0011965 1.6150006 h 0.409716 0.409716 V 1.2288048 0.84260904 h 0.409716 0.409716 V 0.42130451 0 H 27.334871 51.321883 v 0.42130451 0.42130453 h 0.446963 0.446963 V 1.2288048 1.6150006 h 0.409716 0.409716 v 0.3861959 0.3861958 h 0.409716 0.409716 v 0.4213045 0.4213045 h 0.446963 0.446963 V 18.677834 34.125667 h -0.446963 -0.446963 v 0.421304 0.421305 h -0.409716 -0.409716 v 0.386196 0.386196 h -0.409716 -0.409716 v 0.386195 0.386196 h -0.446963 -0.446963 v 0.386196 0.386196 H 41.22797 31.134056 v 0.421304 0.421305 h -0.819432 -0.819432 v 0.386196 0.386195 h -0.446963 -0.446963 v 0.386196 0.386196 H 28.19155 27.781834 v 0.421305 0.421304 h -0.409716 -0.409716 v 0.386196 0.386196 H 26.552686 26.14297 v 0.386196 0.386195 h -0.446963 -0.446963 v 0.421305 0.421304 H 24.429612 23.61018 v 0.386196 0.386196 h -0.446963 -0.446963 v 0.386196 0.386196 h -0.409716 -0.409716 v 0.386196 0.386195 H 21.487106 21.07739 v 0.421305 0.421304 h -0.446963 -0.446963 v 0.386196 0.386196 h -0.409716 -0.409717 v 0.386196 0.386196 h -0.819432 -0.819432 v 0.421304 0.421305 h -0.856679 -0.856679 z m 5.065581,-7.934568 v -0.421305 h 0.409716 0.409716 v -0.386196 -0.386196 h 0.856679 0.856679 V 38.514256 38.12806 h 0.409716 0.409716 v -0.421305 -0.421304 h 0.409716 0.409716 v -0.386196 -0.386196 h 0.446963 0.446963 v -0.386196 -0.386195 h 0.409716 0.409716 v -0.386196 -0.386196 h 0.409716 0.409716 v -0.421305 -0.421304 h 0.856679 0.856679 v -0.386196 -0.386196 h 10.093913 10.093914 v -0.386196 -0.386195 h 0.409716 0.409716 V 18.677834 4.7747846 H 50.092735 49.683019 V 4.3885888 4.002393 H 27.372118 5.0612159 v 0.3861958 0.3861958 h -0.409716 -0.409716 v 13.9030494 13.90305 h 0.409716 0.409716 v 0.386195 0.386196 h 7.1514081 7.151407 v 0.386196 0.386196 h 0.409717 0.409716 v 3.194892 3.194893 h 0.446963 0.446963 z"
   style="fill:#ff0000;stroke-width:0.072324" /></svg>
