<?xml version="1.0" encoding="UTF-8" standalone="no"?>
<!-- Created with Inkscape (http://www.inkscape.org/) -->

<svg
   version="1.1"
   id="svg224"
   width="372.35757"
   height="48.509811"
   viewBox="0 0 372.35758 48.509812"
   sodipodi:docname="КОММЕНТАРИЙ.svg"
   inkscape:version="1.2.1 (9c6d41e410, 2022-07-14)"
   xml:space="preserve"
   xmlns:inkscape="http://www.inkscape.org/namespaces/inkscape"
   xmlns:sodipodi="http://sodipodi.sourceforge.net/DTD/sodipodi-0.dtd"
   xmlns="http://www.w3.org/2000/svg"
   xmlns:svg="http://www.w3.org/2000/svg"><defs
     id="defs228" /><sodipodi:namedview
     id="namedview226"
     pagecolor="#ffffff"
     bordercolor="#111111"
     borderopacity="1"
     inkscape:showpageshadow="0"
     inkscape:pageopacity="0"
     inkscape:pagecheckerboard="1"
     inkscape:deskcolor="#d1d1d1"
     showgrid="false"
     inkscape:zoom="1.0557862"
     inkscape:cx="292.67289"
     inkscape:cy="171.90981"
     inkscape:window-width="1920"
     inkscape:window-height="1018"
     inkscape:window-x="-6"
     inkscape:window-y="-6"
     inkscape:window-maximized="1"
     inkscape:current-layer="g230" /><g
     inkscape:groupmode="layer"
     inkscape:label="Image"
     id="g230"
     transform="translate(62.070787,-378.09716)"><path
       style="fill:#000000"
       d="m -46.965229,424.6802 c -9.592333,-3.42317 -15.135939,-11.50669 -15.105433,-22.0263 0.02194,-7.56567 2.562831,-12.79728 8.942989,-18.41332 7.123948,-6.27075 14.910507,-7.66033 25.42612,-4.53753 4.921287,1.46146 5.473095,1.46146 6.541744,0 2.051501,-2.8056 2.446611,-1.77141 2.446611,6.4039 0,7.93348 -1.222247,10.63877 -2.322076,5.13962 -1.492339,-7.4617 -10.145381,-12.51457 -17.604228,-10.27985 -7.550605,2.26222 -11.058207,9.14301 -11.068119,21.71209 -0.0066,8.4255 2.239247,15.68896 5.690506,18.40372 5.626122,4.42551 14.417146,3.49793 20.914431,-2.20676 3.496595,-3.07005 3.569589,-3.08703 3.23342,-0.75211 -0.247822,1.72129 -1.84295,3.17053 -5.708126,5.18607 -6.094795,3.1782 -14.765384,3.73379 -21.387839,1.37047 z m 49.8767965,0.0184 c -4.770611,-1.77525 -10.11106,-6.78038 -12.901718,-12.09163 -1.5504615,-2.95088 -2.1103245,-5.86832 -2.1345945,-11.12335 -0.02863,-6.19953 0.352565,-7.73945 2.9393255,-11.87399 1.634722,-2.61285 4.919348,-6.15034 7.29917,-7.8611 3.730237,-2.68152 5.359098,-3.16259 11.81142,-3.48841 9.7344115,-0.49157 14.9645015,1.45272 20.3423615,7.5623 4.72545,5.36839 6.38017,10.61838 5.81396,18.44613 -0.50814,7.02501 -4.53964,14.00981 -10.50686,18.20373 -3.48745,2.45107 -5.35405,2.98745 -11.47634,3.29778 -4.7610625,0.24133 -8.6632665,-0.13242 -11.1867245,-1.07146 z m 15.9085045,-3.62289 c 3.25852,-3.06122 4.97323,-10.19871 4.92058,-20.48192 -0.0369,-7.20057 -0.49232,-9.93484 -2.26476,-13.5962 -3.307963,-6.83335 -8.770852,-8.66258 -14.8322625,-4.96655 -4.793767,2.92308 -6.67116603,9.71216 -6.20065003,22.4229 0.411942,11.12839 2.22610603,15.97647 6.89856503,18.43538 3.2113595,1.69 8.6665935,0.82807 11.4785275,-1.81361 z M 248.7868,415.59118 c -4.95,-6.05868 -11.925,-14.71904 -15.5,-19.24523 l -6.5,-8.22945 -0.28665,14.74523 c -0.15765,8.10988 -0.0295,15.78606 0.28485,17.05816 0.33163,1.34217 1.92093,2.89966 3.78665,3.71086 3.08138,1.33977 2.8615,1.39794 -5.28485,1.39794 -8.09853,0 -8.34995,-0.0653 -5.32312,-1.38184 4.04577,-1.75978 4.53414,-4.71981 4.12496,-25.00165 l -0.30184,-14.96177 -3.39788,-2.28823 -3.39789,-2.28823 h 8.1425 8.1425 l 10.11904,12.75 c 5.56547,7.0125 10.51789,13.1775 11.00538,13.7 0.5186,0.55584 0.88635,-4.13193 0.88635,-11.29827 v -12.24828 l -3.25,-1.41258 c -3.15165,-1.36984 -3.00792,-1.41256 4.75,-1.41169 7.65422,8.6e-4 7.88114,0.0654 5.25,1.49279 -1.5125,0.82055 -2.84032,1.59003 -2.95071,1.70997 -0.11039,0.11993 -0.44789,10.11806 -0.75,22.21806 l -0.54929,22 z m -205.749998,8.02492 3.25,-1.41258 v -20.51968 -20.51969 l -3.25,-0.9384 c -2.61443,-0.75489 -1.37197,-0.95604 6.35341,-1.02859 l 9.60341,-0.0902 6.34567,14.96759 c 3.49012,8.23217 6.47501,14.83824 6.63309,14.68016 0.15808,-0.15808 2.93405,-6.78099 6.168831,-14.71758 l 5.88141,-14.43017 9.88209,-0.18005 c 7.439027,-0.13555 9.107567,0.0494 6.749177,0.74825 -1.952877,0.57865 -3.360197,1.77644 -3.736347,3.18005 -0.91202,3.40328 -0.72008,37.06266 0.21981,38.54417 0.45095,0.71083 2.13156,1.68465 3.734677,2.16404 2.03621,0.60891 -0.85295,0.88574 -9.585227,0.91844 -11.61303,0.0435 -12.26939,-0.0534 -9.25,-1.36577 l 3.25,-1.41258 -0.031,-18.79828 -0.031,-18.79827 -8.21902,19.65087 c -4.520451,10.80797 -8.669011,19.7517 -9.219011,19.87495 -0.55,0.12325 -4.6,-7.89933 -9,-17.82795 -4.4,-9.92862 -8.3375,-18.38485 -8.75,-18.79162 -1.02508,-1.01084 -0.92631,32.76756 0.10055,34.38617 0.45095,0.71083 2.13156,1.68465 3.73468,2.16404 2.21143,0.66131 0.86371,0.88293 -5.58523,0.91844 -8.17096,0.045 -8.37419,-0.008 -5.25,-1.36577 z m 64.664768,0.44733 c 1.60312,-0.47939 3.28373,-1.45321 3.73468,-2.16404 0.45096,-0.71083 0.81992,-9.61742 0.81992,-19.79242 0,-10.175 -0.36896,-19.08159 -0.81992,-19.79242 -0.45095,-0.71083 -2.13156,-1.68465 -3.73468,-2.16405 -2.13892,-0.63962 -0.25298,-0.89109 7.08523,-0.94477 l 10,-0.0731 5.92874,14.23719 c 3.26081,7.83046 6.18581,14.54725 6.5,14.92621 0.31419,0.37897 3.27126,-6.02797 6.57126,-14.23764 l 6,-14.92667 9.5,0.10365 c 5.225,0.057 8.6,0.32487 7.5,0.59525 -4.38913,1.07887 -4.5,1.63191 -4.5,22.44711 v 19.92583 l 3.25,1.41258 c 3.01888,1.31213 2.36107,1.40896 -9.25,1.36154 -9.19088,-0.0375 -11.67062,-0.29144 -9.36709,-0.95911 1.96355,-0.56913 3.35814,-1.74853 3.73635,-3.15981 0.95312,-3.55663 0.7365,-36.26805 -0.23311,-35.20175 -0.47512,0.5225 -4.41262,9.60204 -8.75,20.17675 -4.33738,10.57472 -8.25573,19.11403 -8.70743,18.97625 -0.45171,-0.13779 -4.59904,-8.78983 -9.21631,-19.22676 l -8.39503,-18.97624 -0.0337,17.79827 -0.0337,17.79828 3.25,1.41258 c 3.12419,1.3579 2.92096,1.41077 -5.25,1.36577 -6.44894,-0.0355 -7.79666,-0.25713 -5.58523,-0.91844 z m 66.33523,-0.0752 3.25,-0.9384 v -20.94288 -20.94282 l -3.25,-0.9384 c -2.3235,-0.67089 2.23773,-0.96411 16,-1.02859 l 19.25,-0.0902 -0.0706,6.75 -0.0706,6.75 -1.90586,-4.29121 c -2.22226,-5.00344 -6.328,-7.20879 -13.42082,-7.20879 h -4.53212 v 10 c 0,10.962 0.52002,11.73859 5.32796,7.95667 1.48474,-1.1679 2.8755,-3.52429 3.24615,-5.5 1.3173,-7.02182 2.42589,-3.11766 2.42589,8.54333 0,11.66099 -1.10859,15.56515 -2.42589,8.54333 -0.65122,-3.47129 -4.56231,-7.54333 -7.24518,-7.54333 -1.12556,0 -1.34503,1.91888 -1.11514,9.75 l 0.28621,9.75 6.31096,-0.10026 c 7.56973,-0.12026 10.71815,-2.02547 13.79495,-8.34776 2.71351,-5.57579 3.40012,-4.24313 2.16287,4.19802 l -0.98936,6.75 -20.13971,-0.0902 c -14.31773,-0.0641 -19.2002,-0.36146 -16.88971,-1.02859 z m 106,-0.37209 3.25,-1.41258 v -20.68001 -20.67994 l -4.24844,0.56984 c -4.61351,0.6188 -8.75156,4.28293 -8.75156,7.74926 0,1.06933 -0.45,1.94424 -1,1.94424 -0.55556,0 -1,-2.66667 -1,-6 v -6 h 21 21 v 6 c 0,6.71744 -1.26082,7.76978 -2.99898,2.5031 -1.45955,-4.42248 -4.41055,-6.5031 -9.22353,-6.5031 h -3.77749 l 0.0136,18.75 c 0.008,10.3125 0.2852,19.76329 0.61709,21.00175 0.37821,1.41128 1.7728,2.59068 3.73635,3.15981 2.30353,0.66767 -0.17621,0.92158 -9.36709,0.95911 -11.61107,0.0474 -12.26888,-0.0494 -9.25,-1.36154 z"
       id="path246" /></g></svg>
