<?xml version="1.0" encoding="UTF-8" standalone="no"?>
<!-- Created with Inkscape (http://www.inkscape.org/) -->

<svg
   version="1.1"
   id="svg239"
   width="151.85597"
   height="136.81857"
   viewBox="0 0 151.85598 136.81857"
   sodipodi:docname="ГРУППА+.svg"
   inkscape:version="1.2.1 (9c6d41e410, 2022-07-14)"
   xml:space="preserve"
   xmlns:inkscape="http://www.inkscape.org/namespaces/inkscape"
   xmlns:sodipodi="http://sodipodi.sourceforge.net/DTD/sodipodi-0.dtd"
   xmlns="http://www.w3.org/2000/svg"
   xmlns:svg="http://www.w3.org/2000/svg"><defs
     id="defs243" /><sodipodi:namedview
     id="namedview241"
     pagecolor="#ffffff"
     bordercolor="#111111"
     borderopacity="1"
     inkscape:showpageshadow="0"
     inkscape:pageopacity="0"
     inkscape:pagecheckerboard="1"
     inkscape:deskcolor="#d1d1d1"
     showgrid="false"
     inkscape:zoom="1.7151639"
     inkscape:cx="-42.561529"
     inkscape:cy="112.8172"
     inkscape:window-width="1920"
     inkscape:window-height="1018"
     inkscape:window-x="-6"
     inkscape:window-y="-6"
     inkscape:window-maximized="1"
     inkscape:current-layer="g245" /><g
     inkscape:groupmode="layer"
     inkscape:label="Image"
     id="g245"
     transform="translate(-206.36022,19.79498)"><path
       style="fill:#000000;stroke-width:0.482011"
       d="m 258.44628,114.75651 c -3.16388,-2.83539 -3.87085,-4.1573 -4.21887,-7.88856 -0.81714,-8.761049 3.88126,-16.813169 12.40943,-21.267239 1.67747,-0.87611 2.98207,-1.73521 2.8991,-1.90912 -0.083,-0.1739 -0.7862,-1.49746 -1.56275,-2.94123 -3.06853,-5.70511 -2.01029,-12.5826 2.63724,-17.13933 6.65103,-6.52108 16.41562,-6.64494 23.08174,-0.29279 3.5226,3.35668 4.41229,5.47679 4.41112,10.51157 -9.7e-4,3.86258 -0.14744,4.56009 -1.45408,6.92055 -0.79921,1.44377 -1.52098,2.76733 -1.60395,2.94123 -0.083,0.17391 1.22163,1.03301 2.8991,1.90912 8.52816,4.45407 13.22657,12.50619 12.40943,21.267239 -0.31999,3.43072 -1.00391,4.86628 -3.60687,7.57094 l -1.87616,1.94945 -14.77691,0.31763 c -8.12729,0.17469 -18.00361,0.31762 -21.94737,0.31762 h -7.17047 z m -4.63289,-26.752479 c -10.13131,-5.4948 -19.44891,-14.89911 -24.45561,-24.6832 -2.77779,-5.42836 -4.8859,-12.613236 -5.71166,-19.466537 l -0.33384,-2.770606 2.59402,0.14557 c 2.58484,0.14505 2.59446,0.151479 2.71663,1.816043 1.15062,15.67716 11.23006,31.1876 25.58816,39.37554 2.30159,1.31252 4.19418,2.5845 4.20576,2.82663 0.0281,0.58876 -1.61734,4.06831 -1.92611,4.07296 -0.13387,0.002 -1.33868,-0.59036 -2.67735,-1.3164 z m 55.47521,-1.88427 c -0.51114,-0.98439 -0.99929,-1.92503 -1.08478,-2.09032 -0.0855,-0.16529 0.89454,-0.89845 2.17785,-1.62925 13.74713,-7.82851 23.80531,-22.7792 25.35243,-37.684412 l 0.34678,-3.340955 2.55564,-0.144263 c 2.89358,-0.163339 2.76099,-0.450236 2.0519,4.439776 -2.09122,14.421434 -9.71289,27.587964 -21.1146,36.475714 -2.74776,2.14191 -8.44876,5.75946 -9.08095,5.76228 -0.15121,4.7e-4 -0.69313,-0.80419 -1.20427,-1.78857 z M 277.4227,44.528203 v -5.778415 h -5.59808 -5.59809 v -3.042656 c 0,-1.67346 -0.13691,-3.713829 -0.30424,-4.534153 l -0.30424,-1.491498 h 5.65893 5.65893 V 23.95413 18.226779 h 4.6245 4.62451 v 5.793922 5.793927 l 5.59808,-0.242219 5.59808,-0.242215 v 4.709797 4.709797 h -5.66425 -5.66426 l 0.34474,5.488711 0.34473,5.488712 h -3.88967 c -2.13932,0 -4.23617,0.130364 -4.65967,0.289704 -0.67601,0.254342 -0.77,-0.415639 -0.77,-5.488712 z m 31.35592,-5.924019 c -0.66575,-0.366741 -2.07388,-1.57116 -4.45929,-3.814153 -1.63967,-1.541775 -2.31092,-3.967079 -2.27255,-8.210865 0.0751,-8.303638 4.20995,-14.759518 12.07466,-18.8525315 3.04327,-1.583803 3.81039,-2.448396 2.7451,-3.093916 -0.26011,-0.157618 -0.95963,-1.297865 -1.55447,-2.533884 -1.6602,-3.449673 -1.58035,-9.515701 0.16778,-12.7474525 1.6702,-3.08766 4.879,-6.11366 7.94449,-7.491903 1.96571,-0.883778 3.27679,-1.093919 6.81506,-1.092318 3.8498,0.0018 4.69482,0.163477 6.96795,1.333645 3.52539,1.81481 6.66987,5.150979 7.92285,8.4058245 1.52758,3.968173 1.1567,8.98251098 -0.9329,12.612737 -0.84962,1.47603 -1.54476,2.768275 -1.54476,2.871656 0,0.103382 0.71193,0.468268 1.58207,0.810859 2.27432,0.895452 6.68544,3.9050175 8.45537,5.7688455 4.68108,4.929402 6.71817,13.081519 4.82057,19.291204 -0.42122,1.378401 -1.50733,3.194225 -2.62111,4.382139 l -1.90184,2.028437 -7.96657,0.06196 c -4.38161,0.03408 -14.1717,0.195154 -21.75573,0.357959 -7.58404,0.1628 -14.10305,0.123091 -14.48668,-0.08824 z m -97.07255,-0.617008 c -0.4016,-0.119505 -1.10541,-0.802215 -1.56402,-1.517132 -0.45861,-0.714917 -1.29461,-1.853414 -1.85778,-2.529986 -2.76618,-3.323224 -2.5173,-11.355791 0.53766,-17.353249 1.51202,-2.968381 6.38392,-7.4556745 10.08177,-9.2858735 1.66373,-0.823437 3.02496,-1.605723 3.02496,-1.738412 0,-0.13269 -0.51099,-1.042395 -1.13553,-2.021567 -1.7115,-2.68332702 -2.27204,-4.700693 -2.27162,-8.175484 7.3e-4,-5.8140785 3.65678,-11.1123215 9.4336,-13.6708265 6.49663,-2.877305 13.20077,-1.546166 18.35794,3.645056 4.97054,5.0033665 5.76402,12.2828045 1.97704,18.1375815 l -1.39775,2.160968 3.16277,1.607782 c 4.41044,2.242029 8.51874,6.1064345 10.32476,9.7118125 1.96136,3.915489 2.80486,9.536087 1.99467,13.291235 -0.6916,3.205465 -1.81221,4.747335 -4.58074,6.302754 l -2.03325,1.142325 -21.66215,0.255149 c -11.91418,0.14033 -21.99073,0.157369 -22.39233,0.03785 z m 94.92402,-44.8381735 c -0.66934,-0.368932 -2.96284,-1.34152 -5.09667,-2.161307 -11.81468,-4.5390225 -27.54704,-4.4008575 -39.20121,0.344272 -5.89113,2.398645 -5.56349,2.378432 -6.74438,0.416075 -0.57434,-0.954417 -1.04425,-1.8964705 -1.04425,-2.0934505 0,-0.432648 2.5502,-1.559409 7.7003,-3.402243 13.99868,-5.009069 31.36879,-4.347707 44.79742,1.705647 l 3.57533,1.611691 -1.09759,1.7999655 c -1.54114,2.527348 -1.53677,2.524656 -2.88895,1.77935 z"
       id="path444" /></g></svg>
