<?xml version="1.0" encoding="UTF-8" standalone="no"?>
<!-- Created with Inkscape (http://www.inkscape.org/) -->

<svg
   version="1.1"
   id="svg263"
   width="642.47705"
   height="220.68126"
   viewBox="0 0 642.47706 220.68126"
   sodipodi:docname="DE.svg"
   inkscape:version="1.2.1 (9c6d41e410, 2022-07-14)"
   xml:space="preserve"
   xmlns:inkscape="http://www.inkscape.org/namespaces/inkscape"
   xmlns:sodipodi="http://sodipodi.sourceforge.net/DTD/sodipodi-0.dtd"
   xmlns="http://www.w3.org/2000/svg"
   xmlns:svg="http://www.w3.org/2000/svg"><defs
     id="defs267" /><sodipodi:namedview
     id="namedview265"
     pagecolor="#ffffff"
     bordercolor="#111111"
     borderopacity="1"
     inkscape:showpageshadow="0"
     inkscape:pageopacity="0"
     inkscape:pagecheckerboard="1"
     inkscape:deskcolor="#d1d1d1"
     showgrid="false"
     inkscape:zoom="0.41100582"
     inkscape:cx="396.58806"
     inkscape:cy="680.03903"
     inkscape:window-width="1920"
     inkscape:window-height="1018"
     inkscape:window-x="-6"
     inkscape:window-y="-6"
     inkscape:window-maximized="1"
     inkscape:current-layer="g269" /><g
     inkscape:groupmode="layer"
     inkscape:label="Image"
     id="g269"
     transform="translate(-133.39951,362.12053)"><path
       style="fill:#000000"
       d="m 363.98724,-142.86248 c -0.90682,-2.36315 -0.7103,-34.72267 0.21977,-36.18775 0.62869,-0.99031 10.9499,-1.20429 48.23469,-1 l 47.43486,0.25991 v 19 19 l -47.63932,0.25963 c -42.79192,0.23321 -47.70145,0.0977 -48.25,-1.33179 z m -111,-29 c -0.90682,-2.36315 -0.7103,-34.72267 0.21977,-36.18775 0.62869,-0.99031 10.9499,-1.20429 48.23469,-1 l 47.43486,0.25991 v 19 19 l -47.63932,0.25963 c -42.79192,0.23321 -47.70145,0.0977 -48.25,-1.33179 z m 334,-2 c -0.90682,-2.36315 -0.7103,-34.72267 0.21977,-36.18775 0.62869,-0.99031 10.9499,-1.20429 48.23469,-1 l 47.43486,0.25991 v 19 19 l -47.63932,0.25963 c -42.79192,0.23321 -47.70145,0.0977 -48.25,-1.33179 z m -449,-1 c -0.90682,-2.36315 -0.7103,-34.72267 0.21977,-36.18775 0.62869,-0.99031 10.9499,-1.20429 48.23469,-1 l 47.43486,0.25991 v 19 19 l -47.63932,0.25963 c -42.79192,0.23321 -47.70145,0.0977 -48.25,-1.33179 z m 327,-3 c -0.90682,-2.36315 -0.7103,-34.72267 0.21977,-36.18775 0.62869,-0.99031 10.9499,-1.20429 48.23469,-1 l 47.43486,0.25991 v 19 19 l -47.63932,0.25963 c -42.79192,0.23321 -47.70145,0.0977 -48.25,-1.33179 z m -103,-31 c -0.90682,-2.36315 -0.7103,-34.72267 0.21977,-36.18775 0.62869,-0.99031 10.9499,-1.20429 48.23469,-1 l 47.43486,0.25991 v 19 19 l -47.63932,0.25963 c -42.79192,0.23321 -47.70145,0.0977 -48.25,-1.33179 z m 318,-21 c -0.90682,-2.36315 -0.7103,-34.72267 0.21977,-36.18775 0.62869,-0.99031 10.9499,-1.20429 48.23469,-1 l 47.43486,0.25991 v 19 19 l -47.63932,0.25963 c -42.79192,0.23321 -47.70145,0.0977 -48.25,-1.33179 z m -320,-24 c -0.90682,-2.36315 -0.7103,-34.72267 0.21977,-36.18775 0.62869,-0.99031 10.9499,-1.20429 48.23469,-1 l 47.43486,0.25991 v 19 19 l -47.63932,0.25963 c -42.79192,0.23321 -47.70145,0.0977 -48.25,-1.33179 z m 100,-31 c -0.90682,-2.36315 -0.7103,-34.72267 0.21977,-36.18775 0.62869,-0.99031 10.9499,-1.20429 48.23469,-1 l 47.43486,0.25991 v 19 19 l -47.63932,0.25963 c -42.79192,0.23321 -47.70145,0.0977 -48.25,-1.33179 z m 125,-1 c -0.90682,-2.36315 -0.7103,-34.72267 0.21977,-36.18775 0.62869,-0.99031 10.9499,-1.20429 48.23469,-1 l 47.43486,0.25991 v 19 19 l -47.63932,0.25963 c -42.79192,0.23321 -47.70145,0.0977 -48.25,-1.33179 z m -451,-4 c -0.90682,-2.36315 -0.7103,-34.72267 0.21977,-36.18775 0.62869,-0.99031 10.9499,-1.20429 48.23469,-1 l 47.43486,0.25991 v 19 19 l -47.63932,0.25963 c -42.79192,0.23321 -47.70145,0.0977 -48.25,-1.33179 z m 116,0 c -0.90682,-2.36315 -0.7103,-34.72267 0.21977,-36.18775 0.62869,-0.99031 10.9499,-1.20429 48.23469,-1 l 47.43486,0.25991 v 19 19 l -47.63932,0.25963 c -42.79192,0.23321 -47.70145,0.0977 -48.25,-1.33179 z m 110,-35 c -0.90682,-2.36315 -0.7103,-34.72267 0.21977,-36.18775 0.62869,-0.99031 10.9499,-1.20429 48.23469,-1 l 47.43486,0.25991 v 19 19 l -47.63932,0.25963 c -42.79192,0.23321 -47.70145,0.0977 -48.25,-1.33179 z"
       id="path123" /></g></svg>
