<?xml version="1.0" encoding="UTF-8" standalone="no"?>
<!-- Created with Inkscape (http://www.inkscape.org/) -->

<svg
   version="1.1"
   id="svg2"
   width="203.27664"
   height="227.96819"
   viewBox="0 0 203.27664 227.96818"
   sodipodi:docname="ЖЕРЕБЬЕВКА.svg"
   inkscape:version="1.2.1 (9c6d41e410, 2022-07-14)"
   xml:space="preserve"
   xmlns:inkscape="http://www.inkscape.org/namespaces/inkscape"
   xmlns:sodipodi="http://sodipodi.sourceforge.net/DTD/sodipodi-0.dtd"
   xmlns="http://www.w3.org/2000/svg"
   xmlns:svg="http://www.w3.org/2000/svg"><defs
     id="defs6"><clipPath
       clipPathUnits="userSpaceOnUse"
       id="clipPath122"><path
         style="fill:none;stroke:#000000;stroke-width:1px;stroke-linecap:butt;stroke-linejoin:miter;stroke-opacity:1"
         d="m 895.54125,707.95064 -53.83035,29.36201 -3.26245,-3.26244 -24.46834,27.73078 -35.8869,26.09956 v 71.7738 l 22.83712,73.40502 21.2059,45.67424 19.57467,39.14929 22.83711,68.5114 4.89367,13.0497 -42.41179,24.4684 -133.76026,29.362 -17.94345,29.362 -17.94344,71.7738 -27.73079,109.2919 -30.99323,151.7037 -27.73079,88.086 27.73079,112.5544 -75.03624,213.6902 -6.52489,50.5679 952.63401,13.0498 -27.7308,-79.93 -16.3122,-50.5679 -26.0996,-61.9864 -48.9366,-79.9299 v -39.1494 l 55.4615,-40.7805 14.681,-83.1924 -50.5679,-207.1653 -58.724,-203.9028 -9.7873,-17.9435 -220.2151,-50.5679 -8.1561,-26.0995 17.9435,-53.83032 16.3122,-13.04978 -16.3122,-32.62446 3.2624,-58.72401 -3.2624,-29.36201 -4.8937,-13.04978 8.1561,-39.14935 -6.5249,-30.99323 -19.5747,-24.46834 -83.19229,-44.04301 -24.4684,-3.26244 -21.20585,-8.15612 -14.68101,6.52489 z"
         id="path124" /></clipPath></defs><sodipodi:namedview
     id="namedview4"
     pagecolor="#ffffff"
     bordercolor="#111111"
     borderopacity="1"
     inkscape:showpageshadow="0"
     inkscape:pageopacity="0"
     inkscape:pagecheckerboard="1"
     inkscape:deskcolor="#d1d1d1"
     showgrid="false"
     inkscape:zoom="0.86696537"
     inkscape:cx="119.95866"
     inkscape:cy="267.02335"
     inkscape:window-width="1920"
     inkscape:window-height="1018"
     inkscape:window-x="-6"
     inkscape:window-y="-6"
     inkscape:window-maximized="1"
     inkscape:current-layer="g8" /><g
     inkscape:groupmode="layer"
     inkscape:label="Image"
     id="g8"
     transform="translate(-1324.0416,-1630.1774)"><path
       style="fill:#000000"
       d="m 1401.2916,1853.0836 -10.25,-5.066 v -45.3052 -45.3052 l 4.25,-0.6584 c 10.9897,-1.7025 21.6951,-10.5135 25.6946,-21.1478 1.2307,-3.2722 2.6141,-9.9144 3.0743,-14.7604 0.6801,-7.1609 1.3234,-9.449 3.4352,-12.2177 5.414,-7.0981 16.3559,-6.8786 21.2633,0.4266 2.1751,3.2378 2.2826,4.2821 2.2826,22.1735 v 18.7757 l 19.25,0.3264 c 21.111,0.3581 22.1239,0.6234 25.8652,6.7755 3.6984,6.0815 1.6739,14.3796 -4.4137,18.0915 l -3.2015,1.952 h 5.7821 c 7.1713,0.01 11.7594,1.849 14.6306,5.8811 6.104,8.5724 1.2584,18.9919 -9.7113,20.8824 l -4.2956,0.7403 3.4944,1.8791 c 7.5773,4.0746 8.6359,14.0514 2.1765,20.5109 -3.3622,3.3621 -4.014,3.5932 -11.1521,3.9536 l -7.5813,0.3829 3.024,1.839 c 6.4137,3.9004 8.2624,10.2836 4.9046,16.9345 -4.0234,7.9693 -4.1739,7.9968 -43.7719,7.9974 l -34.5,3e-4 z m -77.25,-52.432 v -43.5 h 26.5 26.5 v 43.5 43.5 h -26.5 -26.5 z m 31,22.5 c 4.3807,-4.3807 0.948,-14 -4.9959,-14 -1.6078,0 -4.192,1.1287 -5.9274,2.5889 -3.6809,3.0973 -4.0371,6.9204 -1.0041,10.7762 2.6443,3.3617 8.8693,3.693 11.9274,0.6349 z m 105.202,-163.6195 c -1.8139,-6.9398 -3.1301,-12.7858 -2.9249,-12.9909 0.4605,-0.4605 50.0462,-13.6521 57.9791,-15.4245 3.1658,-0.7074 5.9073,-1.1014 6.092,-0.8756 1.0293,1.2582 6.4908,24.4547 5.8811,24.9788 -0.4011,0.3447 -7.2543,2.3199 -15.2293,4.3893 -7.975,2.0695 -21.9572,5.7381 -31.0715,8.1525 -9.1143,2.4145 -16.7643,4.3895 -17,4.3891 -0.2357,-4e-4 -1.9126,-5.6789 -3.7265,-12.6187 z"
       id="path89" /></g></svg>
