<?xml version="1.0" encoding="UTF-8"?>
<!DOCTYPE svg PUBLIC "-//W3C//DTD SVG 1.1//EN" "http://www.w3.org/Graphics/SVG/1.1/DTD/svg11.dtd">
<!-- Creator: CorelDRAW 2019 (64-Bit) -->
<svg xmlns="http://www.w3.org/2000/svg" xml:space="preserve" width="192.91mm" height="192.91mm" version="1.1" style="shape-rendering:geometricPrecision; text-rendering:geometricPrecision; image-rendering:optimizeQuality; fill-rule:evenodd; clip-rule:evenodd"
viewBox="0 0 1032.77 1032.77"
 xmlns:xlink="http://www.w3.org/1999/xlink">
 <defs>
  <style type="text/css">
   <![CDATA[
    .fil1 {fill:none}
    .fil0 {fill:black}
   ]]>
  </style>
 </defs>
 <g id="Слой_x0020_1">
  <metadata id="CorelCorpID_0Corel-Layer"/>
  <path class="fil0" d="M596.4 6.18c3.95,0.62 7.89,1.27 11.82,1.97 -5.69,8.87 -12.19,18.02 -19.44,27.37 -0.81,0.49 -1.62,1.15 -2.47,2.06 -0.31,0.36 -0.24,0.67 0.13,0.93 -3.85,4.89 -7.9,9.83 -12.15,14.82 -2.15,-0.28 -3.89,-0.59 -4.85,-0.82 -2.7,-0.64 -2.93,-3.27 -4.96,-4.75 0.46,-0.53 0.91,-1.07 1.37,-1.6 11.8,-13.87 22.04,-27.26 30.55,-39.99zm120.04 214.91c18.21,19.94 35.79,41.26 52.56,63.89 5.61,-7.06 10.96,-14.09 16.03,-21.05 18.38,-25.28 33.04,-49.78 43.56,-72.89 2.12,1.94 6.3,2.71 10.73,2.97 -10.88,24.35 -26.14,50.05 -45.34,76.45 -5.72,7.87 -11.79,15.81 -18.2,23.79 9.24,12.83 18.21,26.06 26.89,39.68 39.43,61.87 69.06,125.89 88.88,188.7 16.97,-17.21 32.41,-34.15 46.17,-50.64 35.35,-42.37 59.56,-81.55 70.09,-114.48 1.84,5.68 3.6,11.39 5.24,17.15 -12.7,31.43 -35.52,66.89 -66.85,104.43 -15.08,18.07 -32.14,36.66 -50.98,55.55 17.4,58.69 26.19,116.12 26.37,169.51 0.05,14.58 -0.55,28.87 -1.79,42.8 34.89,-32 64.75,-63.86 88.59,-94.3 3.23,-4.12 6.34,-8.21 9.34,-12.27 -2.33,9.45 -4.9,18.8 -7.74,28.03 -25.12,30.87 -56.11,63 -92,95.14 -5.67,44.12 -18.06,84.3 -37.19,118.66 -11.43,11.39 -23.38,22.25 -35.83,32.53 31.22,-36.87 51.28,-84.87 60.19,-139.89 -27.16,23.57 -56.9,47.06 -88.82,69.99 8.22,35.78 10.6,65.47 6.47,87.17 -4.56,3.37 -9.18,6.66 -13.85,9.88 8.02,-18.62 6.9,-49.81 -2.2,-90.22 -17.32,12.22 -35.26,24.26 -53.76,36.04 -18.5,11.79 -36.98,22.96 -55.37,33.5 32.81,25.34 60.64,39.54 80.91,40.1 -4.87,2.88 -9.78,5.69 -14.76,8.41 -21.43,-5.4 -47.38,-20.1 -76.39,-42.71 -34.27,19.25 -68.12,36.28 -100.95,50.95 9.37,2.65 18.7,4.9 27.95,6.74 -7.87,0.99 -20,3.46 -28.93,4.48 -4.88,-1.35 -9.78,-2.81 -14.68,-4.37 -3.04,1.3 -6.07,2.58 -9.08,3.84 -0.63,0.04 -1.26,0.03 -1.9,-0.04 -5.51,-0.61 -5.51,-3.67 -4.6,-9.18 0.92,-5.51 -2.45,-7.35 -12.24,-10.1 -7.88,-2.22 -9.42,-6.02 -9.72,-10.45 12.36,5.36 24.69,10.07 36.96,14.11 34.91,-15.1 71.11,-32.99 107.83,-53.46 -13.01,-10.65 -26.57,-22.79 -40.58,-36.3 -27.88,-26.91 -57.64,-59.29 -88.26,-96.15 -31.77,17.22 -63.03,32.75 -93.36,46.48l-0.12 -0.16c-2.6,-3.27 -5.29,-6.07 -7.91,-8.37 30.56,-13.74 62.1,-29.33 94.2,-46.68 -29.38,-35.89 -59.47,-75.8 -89.38,-118.88 5.18,1.2 10.44,2.16 15.49,2.8 28.1,40.02 56.27,77.15 83.79,110.69 30.61,-16.83 61.69,-35.22 92.87,-55.1 23.1,-14.72 45.44,-29.74 66.93,-44.92 3.21,2.37 6.59,4.56 10.08,6.46 -22.76,16.18 -46.47,32.17 -71.04,47.83 -30.75,19.6 -61.41,37.77 -91.65,54.43 29.87,35.87 58.88,67.39 86.06,93.62 15.03,14.51 29.45,27.39 43.1,38.48 19.5,-11.1 39.13,-22.92 58.78,-35.44 19.65,-12.52 38.65,-25.32 56.95,-38.31 -4.29,-17.05 -9.88,-35.57 -16.68,-55.32 -10.02,-29.12 -22.72,-60.82 -37.86,-94.41 5.49,2.43 10.55,5.03 15.37,7.32 12.96,29.52 23.99,57.5 32.93,83.46 6.33,18.4 11.61,35.82 15.77,52.11 34.07,-24.65 65.57,-49.91 94,-75.17 2.05,-17.36 3.05,-35.34 2.99,-53.82 -0.16,-50.65 -8.25,-105.03 -24.25,-160.7 -17.76,17.37 -37,34.97 -57.58,52.61 -0.87,-0.95 -1.89,-1.93 -3.08,-3.02 -1.92,-1.76 -3.72,-3.15 -5.39,-4.31 13.37,-11.43 26.16,-22.83 38.35,-34.17 3.16,-0.12 6.11,-1.3 8.02,-3.74 1,-1.27 1.42,-3.02 1.41,-5.13 5.01,-4.77 9.91,-9.52 14.7,-14.26 -19.53,-63.64 -49.33,-128.72 -89.4,-191.59 -8.02,-12.59 -16.3,-24.83 -24.8,-36.74 -15.95,19.22 -33.81,38.69 -53.4,58.18 -2.22,-3.17 -4.54,-6.17 -6.78,-8.9 19.68,-19.63 37.56,-39.23 53.46,-58.55 -20.86,-28.37 -43.02,-54.67 -66.09,-78.75 1.8,0.35 3.82,1.03 6,2.03 4.4,2 9.14,2.73 14.74,3.92zm142.14 333.53c3.18,-2.96 6.32,-5.91 9.42,-8.86 0.01,2.11 -0.41,3.85 -1.41,5.13 -1.91,2.44 -4.86,3.62 -8.02,3.74zm-27.6 -368.99c1.16,-2.7 2.26,-5.37 3.31,-8.02 4.04,1.25 7.73,2.06 10.87,2.35 -0.76,1.98 -1.55,3.97 -2.38,5.97l-0.28 -0.01c-5.26,-0.29 -9.06,-0.58 -11.52,-0.28zm7.4 -19.18c2.27,-6.7 4.13,-13.24 5.59,-19.62 2.8,3.67 5.22,7.51 5.89,9.69 0.24,0.77 1.04,1.78 2.18,2.94 -1.12,3.94 -2.38,7.93 -3.77,11.97 -1.57,-0.98 -3.45,-1.98 -5.59,-2.99 -1.41,-0.66 -2.85,-1.32 -4.3,-1.98zm7.29 -28.05c1.08,-6.21 1.75,-12.25 2,-18.1 3.49,2.92 6.94,5.9 10.35,8.91 -0.69,6.67 -1.86,13.53 -3.48,20.57 -3.53,-3.47 -7.02,-7.9 -8.87,-11.38zm-212.83 849.44c37.29,5.26 73.19,3.64 106.35,-5.5 -14.5,6.96 -29.39,13.25 -44.61,18.84 -25.61,1.89 -52.26,0.13 -79.48,-5.06 6.19,-1.61 11.6,-3.69 14.82,-5.67 1.62,-1 2.55,-1.87 2.92,-2.61zm-108.57 15.55c-27.32,10.1 -53.56,18.32 -78.31,24.57 -9.71,-1.32 -19.33,-2.92 -28.87,-4.77 4.93,-1 9.93,-2.09 15,-3.27 22.07,-5.13 45.44,-11.92 69.81,-20.31 6.21,1.32 11.65,2.41 15.36,3.09 2.69,0.49 4.97,0.69 7,0.7zm-291.34 -99.32c-19.87,2.6 -38.16,3.52 -54.59,2.68 -4.51,-3.91 -8.93,-7.92 -13.3,-11.97 18.01,2.27 39.16,1.85 62.89,-1.11 1.27,2.73 2.38,5.09 3.4,6.78 0.63,1.05 1.14,2.28 1.6,3.62zm103.69 -70.99c-38.44,-38.98 -74.5,-83.98 -106.53,-134.25 -8.68,-13.62 -16.88,-27.34 -24.61,-41.13 -9.95,2.44 -19.71,4.59 -29.25,6.45 -18.12,3.53 -35.51,6.02 -52.02,7.44 0.17,-1.12 0.17,-2.41 -0.06,-3.97 -0.35,-2.37 -0.22,-4.76 0.1,-7.13 15.79,-1.42 32.44,-3.83 49.83,-7.22 8.45,-1.65 17.08,-3.53 25.85,-5.64 -15.54,-28.64 -29.04,-57.54 -40.5,-86.37 1.97,-1.62 3.75,-2.92 3.91,-5.39 0.15,-2.43 1.21,-6.13 2.19,-9.52 12.48,32.85 27.65,65.85 45.52,98.51 48.82,-12.6 102.06,-32.01 157.23,-57.75 1.71,3.37 3.53,6.6 5.43,9.71 -55.01,25.7 -108.18,45.21 -157.09,58.05 7.2,12.74 14.8,25.41 22.83,38 35.09,55.06 75.04,103.7 117.63,144.88 -3.88,1.55 -8.46,1.43 -15.84,-2.19 -1.65,-0.81 -3.19,-1.64 -4.62,-2.47zm-294.19 -164.77c-7.55,-1.55 -14.7,-3.49 -21.43,-5.83 -1.28,-4.36 -2.51,-8.74 -3.68,-13.15 6.84,2.86 14.25,5.22 22.19,7.11 0.87,4.29 1.87,8.16 2.92,11.87zm114.02 -114.68c-3.18,-8.25 -6.19,-16.5 -9.04,-24.73 0.9,-1.13 1.55,-2.16 1.7,-3.04 0.57,-3.46 4.14,-2.03 6.86,-6.21 0.97,2.89 1.97,5.79 2.99,8.69 -0.44,1.02 -0.78,2.04 -0.97,3.04 -0.92,4.9 7.65,13.47 3.67,17.45 -1.59,1.59 -3.38,3.43 -5.21,4.8zm-28.3 -90.43c-1.36,-5.67 -2.65,-11.33 -3.85,-16.96 0.6,-2.09 1.34,-4.05 2.58,-4.84 3.37,-2.14 2.45,4.59 2.45,4.59 0,0 -0,0.92 0.61,6.43 0.41,3.7 -0.56,7.27 -1.8,10.78zm-10.46 -53.08c-0.17,-1.13 -0.34,-2.26 -0.51,-3.39 0.08,0.2 0.15,0.42 0.21,0.68 0.25,0.99 0.33,1.89 0.29,2.71zm-1.61 -11.26c-0.24,-1.81 -0.47,-3.62 -0.7,-5.42 1.72,-0 2.52,-0.2 2.32,2.34 -0.09,1.14 -0.75,2.15 -1.63,3.08zm-2.23 -19.12c-0.64,-6.36 -1.16,-12.69 -1.57,-18.97 -13.84,4.8 -27.23,8.99 -40.07,12.53 -19.79,5.46 -38.33,9.38 -55.32,11.68 1.01,-3.86 2.06,-7.71 3.16,-11.54 15.15,-2.34 31.63,-5.97 49.21,-10.81 13.54,-3.73 27.7,-8.2 42.39,-13.37 -0.3,-6.94 -0.47,-13.83 -0.49,-20.65 -0.22,-67.62 13.38,-128.82 40.79,-178.07 11.43,-11.39 23.38,-22.24 35.83,-32.52 -43.98,51.93 -65.82,125.97 -65.55,210.54 0.02,5.55 0.13,11.14 0.34,16.77 6.68,-2.47 13.46,-5.07 20.33,-7.81 -2.79,3.61 -4.99,8.68 -6.35,11.41 -1.35,1.35 -1.85,2.56 -1.9,3.7 -3.87,1.48 -7.71,2.91 -11.52,4.29 0.83,13.98 2.23,28.2 4.21,42.61 -4.51,4.28 -2.22,-9.62 -2.22,-13.87 0,-4.29 -1.33,-7.66 -6.63,-7.96 0,0 -2.07,0.85 -4.65,2.05zm37.62 -45.7c2.99,-1.23 6,-2.48 9.02,-3.76 -2.01,2.23 -3.47,4.76 -3.72,7 -0.22,1.94 -1.42,4.79 -2.51,7.59 -1.61,0.66 -3.21,1.31 -4.8,1.95 2.23,-5.48 4.39,-10.95 2.01,-12.78zm59.53 -26.8c12.31,-6.01 24.8,-12.37 37.41,-19.09 -2.59,-6.63 -5.06,-13.16 -7.41,-19.58 0.51,-0.39 1.01,-0.92 1.49,-1.6 2.75,-3.88 3.06,-7.48 5.51,-9.14 0.28,-0.19 0.48,-0.44 0.62,-0.72 2.99,8.39 6.2,16.98 9.61,25.75 7.64,-4.15 15.32,-8.43 23.03,-12.84 -0.1,0.29 -0.2,0.59 -0.29,0.88 -4.68,4.82 -9.39,8.91 -9.39,12.02 -0,3.12 1.28,0.51 3.96,3.07 -4.42,2.46 -8.82,4.88 -13.21,7.26 10.25,25.61 22.2,52.69 35.7,80.89 -2,-1.38 -4.18,-3.21 -6.15,-3.75 -3.37,-0.92 -4.49,-2.55 -6.74,-2.25 -2.25,0.31 -0.92,-3.47 -1.63,-8.26 -0.71,-4.8 -4.69,-2.35 -6.23,-4.9 -0.22,-0.17 -0.43,-0.3 -0.63,-0.4 -8.83,-19.32 -16.89,-38.05 -24.13,-56.07 -13.49,7.16 -26.84,13.93 -40,20.29 -0.17,-2.48 -0.38,-4.76 -0.65,-6.65 -0.24,-1.65 -0.54,-3.3 -0.87,-4.93zm25.32 -51.73c-0.45,-1.28 -0.89,-2.56 -1.33,-3.83 -22.29,-64.72 -31.44,-117.38 -25.06,-150.93 4.56,-3.37 9.18,-6.66 13.86,-9.88 -12.03,27.91 -3.51,84.08 21.65,157.18 0.64,1.86 1.29,3.73 1.95,5.61 -1.45,-1.2 -3.98,-1.81 -7.35,-0.42 -1.95,0.8 -3.09,1.55 -3.72,2.26zm117.83 -128.48c-41.11,-35 -75.87,-54.92 -99.96,-55.58 4.87,-2.88 9.78,-5.69 14.76,-8.41 25.17,6.34 56.59,25.52 91.86,55.26 0.04,0.57 0.13,1.09 0.29,1.56 1.04,3.12 -2.97,5.46 -6.95,7.18zm125.47 -61.23c-11.67,-4.41 -23.3,-8.23 -34.86,-11.44 1.73,-0.49 3.28,-1.02 4.41,-1.68 2.85,-1.66 6.19,-3.81 10.9,-5.34 10.07,3.15 20.17,6.74 30.3,10.76 -1.09,2.77 -2.5,5.45 -6.39,6.59 -1.19,0.35 -2.68,0.73 -4.37,1.12zm-42.54 -13.49c-50.56,-12.92 -99.46,-14.05 -143.52,-1.89 14.51,-6.95 29.39,-13.24 44.61,-18.84 36.87,-2.73 75.91,2.12 115.68,13.87 -1.69,0.55 -3.26,1.11 -4.68,1.66 -3.12,1.22 -7.56,3.18 -12.09,5.2zm-78.38 459.61c-6.45,-11.08 -12.72,-22.09 -18.81,-33.02 3.4,-1.48 4.26,-5.39 9.02,-5.39 0.23,0 0.46,0 0.69,0.01 3.05,5.48 6.16,10.98 9.3,16.5 -0.87,5.97 -0.65,13.62 -0.2,21.9zm-37.4 -67.18c-8.11,-15.26 -15.84,-30.31 -23.17,-45.09 1.23,-1.8 2.57,-3.47 3.75,-4.34 0.85,-0.63 2.5,-2.39 4.1,-4.77 7.21,14.64 14.83,29.56 22.83,44.7 -2.63,2.82 -5.49,6.05 -7.51,9.51zm-31.74 -62.62c-0.75,-1.56 -1.5,-3.12 -2.24,-4.68 0.45,0.08 0.89,0.21 1.29,0.41 1.55,0.8 1.51,2.5 0.95,4.26zm-156.91 49.53c0.58,2.99 1.18,5.99 1.8,8.99 -1.75,-2.31 -4.6,-4.46 -2.79,-6.94 0.49,-0.67 0.8,-1.35 1,-2.05zm426.33 -69.19c-2.74,-3.86 -5.48,-7.7 -8.22,-11.5 4.32,0.5 9.54,1.19 15.02,1.91 2.65,3.72 5.3,7.46 7.94,11.24 -4.97,-0.59 -9.94,-1.13 -14.74,-1.65z"/>
  <circle class="fil1" cx="516.38" cy="516.38" r="516.38"/>
  <path class="fil1" d="M241.01 268.58c0.51,-0.39 1,-0.92 1.48,-1.59 2.75,-3.88 3.06,-7.48 5.51,-9.14 0.28,-0.19 0.49,-0.44 0.62,-0.73m-1.22 -3.44c-1.45,-1.2 -3.98,-1.82 -7.36,-0.42 -1.95,0.8 -3.08,1.55 -3.72,2.26"/>
  <g>
   <path class="fil0" d="M195.96 291.37c-10.41,10.41 -19.59,33.06 -25.11,33.06 -3.28,-0 -7.42,2.59 -10.36,5.86 16.42,-6.95 33.3,-14.64 50.51,-23.04 -1.41,-6.87 -3.41,-13.5 -3.41,-18.94 0,-6.74 -3.06,-5.51 -11.63,3.06zm-41.7 53.51c-2.01,5.15 -3.65,10.13 1.9,8.94 8.57,-1.83 11.02,-11.02 11.63,4.28 0.61,15.31 8.57,18.37 5.51,25.72 -3.06,7.35 -6.74,21.43 -1.84,28.16 4.9,6.73 15.92,19.59 18.98,11.64 3.06,-7.96 -0,-19.59 1.83,-33.06 1.84,-13.47 12.86,-18.37 11.63,-26.33 -1.22,-7.96 10.41,-12.24 9.8,-19.59 -0.48,-5.73 -0.58,-17.03 -1.19,-25.8 -19.93,9.63 -39.41,18.33 -58.27,26.04zm838.76 34.91c-4.67,-4.29 -4.89,-9.95 -5.61,-18.69 -0.73,-8.73 -4.74,-22.63 -6.72,-25.73 -1.97,-3.1 -3.86,-21.26 -11.32,-27.64 -7.46,-6.38 -9.4,-10.95 -8.81,-17.62 0.59,-6.67 -2.13,-11.71 -4.99,-16.18 -2.85,-4.48 -8.53,-20.22 -12.7,-26.76 -4.17,-6.54 -6.96,-13.96 -2.42,-9.11 4.54,4.85 24.92,43.65 26.45,46.06 1.54,2.41 0.63,7.83 4.49,13.11 3.86,5.29 9.81,13.11 10.38,18.56 0.57,5.45 3.36,12.86 6.4,19.15 3.04,6.29 4.3,16.62 4.3,16.62 0,0 0.51,8.39 1.35,11.24 0.85,2.85 5.27,18.9 -0.8,16.97zm-616.01 22.29c0.21,2.86 -1.94,2.15 1.33,5.31 3.27,3.16 2.96,4.59 5.51,5.51 2.55,0.91 3.06,-0.72 3.98,-1.94 0.92,-1.22 -0.91,-3.88 -1.63,-5.61 -0.71,-1.74 -1.94,-5.51 -4.9,-5.82 -2.96,-0.31 -4.18,0.92 -4.29,2.55zm293.39 -62.36c1.34,-29.87 1.22,-46.17 -9.08,-60.6 -10.44,-14.61 -6.18,-19.08 -21.58,-13.92 -15.4,5.15 -26.42,0.71 -26.42,0.71 3.06,6.38 12.66,25.46 0.02,25.46 -6.4,0 -13.97,-3.89 -13.97,-3.89 0,0 2.08,5.57 -16.01,4.18 -18.1,-1.39 -22.28,-9.75 -11.84,-11.84 10.44,-2.09 22.97,0.7 28.54,-6.26 5.57,-6.96 2.78,-14.62 6.96,-17.4 4.18,-2.79 14.62,6.26 23.67,-6.96 9.05,-13.23 6.26,-23.67 13.23,-24.37 6.96,-0.69 11.14,0 15.66,-1.39 4.52,-1.39 7.31,-4.18 14.27,0.35 6.96,4.52 11.14,0 12.88,-4.87 1.24,-3.49 4.44,-4.66 8.97,-3.77 -49.6,-51.76 -103.43,-93.2 -157.79,-122.56 -30.24,30.26 -66.54,61.66 -107.55,92.63 16.28,17.38 33.02,36.33 50.03,56.68 3.74,4.47 7.49,9.01 11.26,13.62 24.4,29.86 49.28,62.48 74.14,97.38 10.61,1.41 22.18,2.94 30.01,3.43 16.71,1.04 59,9.05 62.66,10.97 3.57,1.87 8.96,-12.83 11.72,-25.9 0.14,-0.67 0.21,-0.98 0.24,-1.65zm46.04 -118.64c4.17,0.88 8.81,2.01 14.15,4.09 12.53,4.88 28.54,5.92 33.76,9.4 5.22,3.48 14.27,9.05 16.36,4.52 2.09,-4.52 -5.57,-18.1 -18.45,-23.32 -12.88,-5.22 -19.49,-15.31 -28.19,-25.76 -8.7,-10.45 -23.66,-25.07 -23.66,-25.07 0,0 -2.09,-7.66 -1.39,-10.44 0.69,-2.78 -4.88,-5.92 -3.14,-9.05 1.74,-3.13 12.19,-0.7 21.58,0.35 9.4,1.05 23.32,9.75 25.76,8.36 2.43,-1.39 -7.31,-9.4 -2.78,-11.83 4.52,-2.44 11.14,-0 20.89,4.17 9.75,4.18 27.49,14.62 42.12,22.28 7.3,3.82 14.51,6.86 20.85,8.82 1.48,-3.76 2.84,-7.48 4.09,-11.15 -10.09,-4.56 -21.03,-8.81 -27.72,-8.81 -7.66,0 -29.24,-12.88 -29.24,-12.88 0,0 4.52,-5.57 14.96,-2.09 10.44,3.48 20.54,6.61 9.4,-4.18 -11.14,-10.79 -14.97,-14.27 -25.41,-19.84 -10.44,-5.57 -27.15,1.04 -39.33,-3.83 -12.18,-4.87 -16.01,-9.75 -14.27,-11.83 1.74,-2.09 13.22,-0.35 17.05,2.09 3.83,2.44 2.44,-2.78 -3.13,-6.61 -5.57,-3.83 -21.23,-18.1 -48.04,-26.11 -26.81,-8.01 -27.85,-10.79 -39.68,-11.84 -11.83,-1.04 -32.37,1.39 -37.94,1.39 -5.57,-0 -6.96,4.52 -17.05,3.83 -10.09,-0.69 -13.92,-1.22 -11.83,-4 2.08,-2.78 7.13,-1.39 8.35,-3.31 1.22,-1.92 8,-4.87 12.7,-4.52 4.7,0.35 16.19,2.09 18.28,-0.18 2.09,-2.26 1.39,-3.48 -7.31,-4.18 -8.7,-0.69 -18.1,-0.7 -24.19,2.61 -4.49,2.44 -13.69,1.95 -19.69,1.17l-0.01 0.01c-8.63,10.14 -18.08,20.51 -28.28,31.03 59.07,32.37 117.42,78.66 170.44,136.71zm128.72 -41.14c1.81,0.17 3.43,0.16 4.83,-0.03 6.18,-0.84 4.88,-4.41 -1.72,-8.5 -0.97,2.82 -2.01,5.66 -3.11,8.53zm-280.69 -132.18c-0.72,-0.53 -1.68,-0.91 -3.05,-1 -5.22,-0.35 -29.42,0 -33.59,-2.09 -4.17,-2.09 -9.4,-0.34 -13.23,0.52 -3.83,0.87 -17.05,3.13 -20.89,6.61 -1.75,1.59 -2.44,3.97 -3.36,6.29 8.97,3.56 17.96,7.45 26.95,11.67 6.17,2.9 12.34,5.96 18.51,9.16 10.34,-10.57 19.92,-20.99 28.65,-31.18zm-84.86 18.05c-8.46,1.96 -22.03,4.16 -28.7,3.58 -8.01,-0.69 -8.01,-4.53 -8.18,-6.79 -0.17,-2.26 -6.96,2.61 -10.27,2.79 -3.31,0.17 -5.57,-3.31 -1.39,-6.44 3.04,-2.28 9.04,-3.27 13.69,-4.58 -2.56,-0.71 -5.13,-1.4 -7.68,-2.05 -7.09,3.16 -14.39,6.48 -17.15,7.33 -4.53,1.39 -8.01,-1.04 -13.23,0.35 -5.22,1.39 -5.92,4.87 -9.75,4.87 -3.83,0 -3.83,-6.27 -3.83,-6.27 0,0 -8.35,5.22 -14.27,11.14 -5.92,5.92 -5.57,16.71 -1.39,17.06 4.18,0.35 -7.31,9.05 -10.79,14.62 -3.09,4.95 -6.18,12.36 -5.86,16.88 11.13,9.38 22.64,19.81 34.47,31.23 8.95,8.64 18.09,17.84 27.4,27.57 39.93,-30.08 75.33,-60.53 104.96,-89.92 -5.02,-2.57 -10.04,-5.03 -15.05,-7.39 -11,-5.17 -22,-9.83 -32.97,-13.98zm-19.55 -18.47c2.19,-0.71 4.68,-1.29 7.55,-1.62 9.05,-1.04 15.32,-1.74 20.19,-3.48 4.88,-1.74 4.53,-5.57 -6.61,-3.48 -9.16,1.72 -19.51,4.14 -27.34,6.7 2.07,0.61 4.14,1.24 6.21,1.89zm-105.91 79.69c-1.35,0.58 -2.69,1.09 -3.84,1.53 -4.52,1.74 -0.35,6.96 -2.09,10.79 -1.74,3.83 -8.01,2.79 -7.66,6.26 0.35,3.48 -0.7,7.31 -4.87,5.92 -4.18,-1.39 -4.87,0.35 -12.18,4.88 -7.31,4.52 -6.97,10.44 -5.58,16.7 1.39,6.27 3.83,7.31 7.66,7.66 3.83,0.35 -0.35,4.18 5.57,5.57 5.92,1.4 11.14,-4.52 16.36,-4.17 5.22,0.35 6.96,5.92 6.96,5.92 0,0 -10.1,3.49 -15.32,3.14 -5.22,-0.35 -10.44,-1.05 -15.66,1.74 -5.22,2.78 -8.35,-1.74 -9.75,1.04 -1.39,2.78 7.31,6.61 9.75,6.26 2.44,-0.35 6.26,-4.18 10.44,-2.44 4.18,1.74 0.35,5.92 -3.48,6.27 -3.83,0.35 -6.26,3.13 -5.57,6.61 0.69,3.49 1.74,3.48 -1.74,8.36 -3.48,4.88 -0.7,8.01 -0.7,12.18 0,4.18 -5.57,1.74 -7.31,4.18 -1.74,2.44 8,7.31 1.04,7.66 -6.96,0.35 -19.89,-2.95 -25.06,7.31 -4.31,8.55 -7.78,13.51 -9.87,19.64 18.66,-10.65 37.51,-22.02 56.42,-34.07 26.73,-17.04 52.17,-34.54 76.07,-52.21 -8.88,-9.27 -17.61,-18.04 -26.16,-26.3 -11.53,-11.12 -22.7,-21.29 -33.43,-30.43zm-78.62 158.98c0.69,0.65 1.46,1.64 2.34,3.15 2.02,3.49 1.39,3.63 1.77,7.88 0.14,1.5 0.22,2.99 0.26,4.47 0.16,6.03 -0.4,12 -0.95,19.55 -0.69,9.4 -1.04,10.44 7.31,12.18 8.35,1.74 10.44,1.74 9.75,-4.53 -0.7,-6.27 2.78,-6.61 10.09,-6.61 7.31,-0 7.66,6.96 7.66,6.96 0,0 -6.27,-1.05 -8.01,3.48 -1.74,4.52 2.09,7.66 4.87,9.75 2.78,2.09 8.7,1.39 7.66,5.57 -1.04,4.18 -6.26,3.47 -5.92,9.4 0.35,5.92 2.09,21.93 0.69,24.72 -1.39,2.79 -2.44,8.35 -1.39,12.53 1.05,4.18 10.1,5.91 12.18,12.18 2.09,6.27 14.27,16.71 10.79,21.93 -1.18,1.77 -3.41,4.03 -5.83,6.63 6.67,12.62 13.6,25.39 20.79,38.28 4.76,0.08 7.07,0.91 9.06,-1.75 2.09,-2.78 -1.91,-5.57 -1.22,-8.53 0.69,-2.96 5.05,-6.79 3.83,-14.97 -1.22,-8.18 -12.01,-5.39 -11.67,-19.67 0.35,-14.27 -2.78,-21.4 5.74,-32.2 8.53,-10.79 4.87,-11.32 21.41,-11.49 16.54,-0.17 26.89,-2.12 29.85,-0.21 2.96,1.91 2.67,6.4 1.66,9.62 -0.99,3.14 -8.98,5.47 -6.76,8.81 1.08,1.62 9.29,-0.63 12.81,-1.77 5.83,-1.91 -2.04,-6.06 -0.74,-9.03 1.22,-2.8 -0.53,-9.97 -1.85,-11.31 -0.62,-0.62 -4.19,-0.41 -5.4,-1.52 -1.39,-1.28 -0.32,-3.9 1.03,-4.46 2.52,-1.04 5.99,-0.87 5.61,-2.99 -0.38,-2.12 -7.31,-0.87 -12.36,-0.09 -5.05,0.78 -5.05,3.92 -15.23,4.53 -10.18,0.61 -23.43,-2.35 -24.21,-5.57 -0.78,-3.22 3.23,-11.91 11.49,-9.81 8.26,2.1 25.34,-0.46 33.08,2.58 7.74,3.04 21,7.64 26.92,7.64 5.92,0 7.54,-1.82 6.67,-6.87 -0.87,-5.05 -6.19,-6.87 -11.24,-7.74 -5.05,-0.87 -5.12,-7.75 -3.55,-11.4 1.57,-3.65 5.75,-6.61 12.19,-2.44 6.44,4.18 13.92,8.36 19.31,6.79 5.4,-1.57 9.05,-10.09 12.36,-12.88 3.31,-2.78 7.83,-1.56 9.75,-4 1.91,-2.44 -1.39,-9.22 2.96,-11.66 4.35,-2.44 16.19,3.49 23.84,10.27 3.72,3.29 6.78,9.42 8.94,14.85 -0.73,0.51 -1.48,1.1 -2.24,1.77 -3.47,3.06 -5.19,4.4 -9.25,7.1 -9.8,6.53 -10.03,16.02 -35.55,28.64 -18.14,8.96 4.42,23.44 4.42,23.44 0,0 -22.28,13.22 -38.29,18.1 -16.01,4.88 -21.58,2.79 -25.76,-4.87 -4.18,-7.66 -18.8,-5.57 -22.97,9.75 -4.18,15.31 -9.92,42.99 -19.67,48.56 -3.2,1.83 -4.88,5.86 -5.67,11.28 14.72,25.84 30.45,52.13 47.1,78.65 34.75,-17.75 70.03,-37.91 105.25,-60.36 35.22,-22.44 68.39,-45.91 99.16,-69.91 -17.02,-26.31 -34.22,-51.67 -51.43,-75.94 -20.61,-2.2 -38.14,-3.77 -38.78,-5.26 -1.26,-2.92 17.12,2.97 19.09,-0.81 3.78,-3.78 -12.17,-8.65 -10.68,-9.44 1.74,-0.91 8.81,2.5 21.48,3.92l0.67 0.08c-24.08,-33.46 -48.12,-64.71 -71.67,-93.31 -7.77,-9.44 -15.49,-18.59 -23.14,-27.44 -11.69,-13.51 -23.21,-26.32 -34.5,-38.35 -24.43,18.11 -50.45,36.04 -77.8,53.46 -22.86,14.57 -45.64,28.15 -68.11,40.68zm45.76 158.74c-1.6,2.74 -2.67,5.63 -2.67,8.58 0,10.09 4.53,14.97 11.84,19.5 7.31,4.52 4.01,7.49 8.35,6.44 0.39,-0.09 0.74,-0.22 1.08,-0.36 -6.4,-11.49 -12.6,-22.88 -18.6,-34.16zm37.4 67.18c0.39,7.1 0.96,14.65 1.17,21.99 0.69,23.67 0,22.97 4.83,45.54 1.12,2.62 2.32,5.17 3.58,7.65 9.2,-4.29 18.46,-8.76 27.75,-13.4 -13.02,-20.77 -25.48,-41.4 -37.34,-61.78zm15.02 84.89c13.54,22.1 31.21,37.6 42.09,47.27 6.88,6.11 21.52,11.83 36.83,15.39 -16.05,-23.12 -32.06,-47.15 -47.87,-71.97l-2.77 -4.36c-9.47,4.74 -18.9,9.3 -28.27,13.68zm94.41 65.46c9.39,1.19 18.08,1.28 24.32,-0.16 19.54,-4.51 34.56,-55.6 45.09,-64.62 10.52,-9.02 14.49,-4.4 21.45,-3.71 6.96,0.7 12.53,-1.39 15.32,-9.75 2.79,-8.35 16.02,-5.57 20.89,5.57 4.87,11.14 11.14,16.01 20.19,20.19 9.05,4.18 22.28,4.17 35.51,6.27 13.23,2.09 29.24,19.49 37.59,32.72 4.86,7.69 13.24,16.79 23.24,24.16 7.52,-5.31 14.93,-10.64 22.23,-15.99 -30.87,-64.29 -69.8,-134.32 -115.32,-205.74l-2.19 -3.43c-30.83,24.01 -64.01,47.47 -99.22,69.91 -35.2,22.44 -70.49,42.61 -105.27,60.41l2.18 3.43c17.83,27.98 35.9,54.96 54,80.74zm253.67 17.13c4.32,2.36 8.81,4.29 13.33,5.58 5.13,1.47 9.88,3.32 14.34,5.29 -3.43,-7.62 -6.99,-15.33 -10.66,-23.14 -5.61,4.1 -11.28,8.18 -17.01,12.26zm43.04 18.2c6.13,2.92 11.88,5.32 17.62,6.18 13.93,2.09 29.94,11.83 38.29,-7.66 8.35,-19.49 11.84,-38.98 12.53,-66.13 0.6,-23.29 0.68,-28.14 -4.58,-33.88 -25.05,21.48 -52.07,43.03 -80.81,64.35 5.97,12.62 11.62,25.02 16.95,37.15zm55.39 -108.83c-5.62,-3.92 -9.71,-5.32 -11.31,-9.61 -2.09,-5.57 -0.7,-41.07 -2.09,-53.6 -1.39,-12.53 -22.28,-21.58 -36.9,-28.55 -14.62,-6.96 -25.76,-26.45 -29.94,-54.3 -4.18,-27.85 -8.36,-45.25 -15.31,-64.05 -2.15,-5.81 -5.7,-11.81 -9.57,-17.34 -26.85,26.7 -56.96,53.42 -89.89,79.56l2.78 4.36c45.28,71.05 84.1,140.8 115.02,205.01 27.41,-20.38 53.22,-40.96 77.21,-61.47zm-111.9 -236.35c-6.49,-7.92 -12.2,-13.44 -12.2,-13.44 0,0 -6.96,32.02 -16.01,34.81 -9.05,2.78 -38.29,4.87 -65.44,-2.79 -10.06,-2.84 -25.48,-5.07 -40.95,-6.9 15.22,21.67 30.4,44.17 45.44,67.39 32.7,-26 62.57,-52.57 89.16,-79.08zm-474.41 -84.89c2.02,1.83 4.67,2.9 7.08,1.04 -1.62,-4.41 -3.18,-8.77 -4.68,-13.07 -1.66,1.86 0.12,3.51 -0.1,5.39 -0.31,2.6 -6.12,4.29 -2.3,6.64zm14.7 -10.42c0.47,-1 0.01,-2.44 -1.22,-3.46 0.4,1.15 0.81,2.3 1.22,3.46zm47.15 -51.94c-0.31,6.43 -0,7.35 4.29,10.41 4.29,3.06 5.82,2.45 8.88,0.92 3.06,-1.53 10.41,-0.61 5.2,2.75 -5.21,3.37 -14.7,6.43 -18.98,1.84 -4.29,-4.59 -4.29,-10.1 -3.98,-13.16 0.31,-3.06 3.06,-11.63 4.59,-2.76l0 0zm-0 -23.27c5.51,-3.37 7.65,-6.73 11.63,-9.79 3.98,-3.06 3.67,-9.18 -1.53,-5.82 -5.2,3.37 -14.08,5.2 -15.61,11.02 -1.53,5.82 1.23,7.04 5.51,4.59l0 0zm41.94 -60.31c4.9,-3.67 9.18,1.22 6.74,3.98 -2.45,2.76 -7.96,8.88 -9.8,4.9 -1.83,-3.98 -2.75,-5.81 3.06,-8.88l0 0zm487.36 3.06c4.29,-0.92 17.45,6.43 19.9,12.24 0.2,0.47 0.44,0.96 0.71,1.48 -0.48,2.77 -1.05,5.58 -1.7,8.43 -2.31,-3.03 -4.89,-5.96 -6.97,-7.76 -4.59,-3.98 -17.75,-11.94 -11.94,-14.39zm29.47 25.1c2.48,2.43 4.98,4.39 6.96,5.21 5.21,2.14 8.88,7.96 12.86,10.71 3.98,2.76 16.53,6.13 12.86,12.25 -3.67,6.12 -15,0.92 -17.45,-3.06 -1.98,-3.21 -12.91,-10.6 -17.71,-15.43 0.93,-3.26 1.75,-6.48 2.49,-9.67zm50.12 56.33c-0.92,3.37 -3.67,9.49 0.61,10.41 4.29,0.92 4.29,-3.98 6.43,-7.04 2.14,-3.06 -2.45,-14.39 -7.04,-3.37l0 0zm-77.14 -16.53c-0.32,-2.56 0.78,-3.61 3.48,-3.95 -0.77,1.79 -1.57,3.6 -2.4,5.41 -0.47,-0.43 -0.83,-0.91 -1.08,-1.46zm15.28 -3.66c10.88,0.54 19.33,-3.04 22.07,1.52 2.76,4.59 10.1,5.82 14.39,5.51 4.28,-0.31 6.43,5.82 10.41,9.18 3.98,3.37 8.27,7.35 6.43,11.02 -1.84,3.67 -12.55,-4.59 -21.43,-6.43 -8.88,-1.84 -15.61,-12.86 -21.12,-12.86 -2.78,-0 -8.69,0.47 -14.21,0.14 1.21,-2.71 2.37,-5.41 3.47,-8.09zm-54.16 43.77c3.98,5.82 9.18,11.02 12.25,7.35 3.06,-3.67 0.3,-6.12 -3.37,-9.8 -3.67,-3.67 -17.14,-7.65 -8.88,2.45l0 0zm4.29 -129.8c1.53,3.37 5.82,0.92 10.72,3.98 4.9,3.06 3.67,5.82 10.1,8.57 6.43,2.76 9.18,3.98 10.1,0.61 0.92,-3.37 -2.75,-4.29 -7.04,-8.27 -4.29,-3.98 -6.74,-4.29 -13.78,-5.82 -7.04,-1.53 -13.16,-3.67 -10.1,0.92l0 0zm-46.53 -18.37c3.06,5.51 11.63,7.35 15.31,9.49 3.67,2.14 3.67,2.14 3.67,2.14 0,0 4.29,2.45 11.02,0.61 6.73,-1.84 7.04,-4.63 -3.98,-5.2 -11.02,-0.58 -9.18,-5.51 -14.08,-7.35 -4.9,-1.84 -14.08,-5.82 -11.94,0.31l0 0zm-44.08 -12.4c3.67,2.45 6.43,3.67 10.71,3.98 4.29,0.31 6.43,-2.76 -2.14,-3.37 -8.57,-0.61 -12.55,-10.1 -8.57,-0.61l0 0zm-113.53 -33.59c3.42,-2.06 6.74,-0.91 12.13,-1.38 10.71,-0.92 13.85,0.68 20.89,3.43 7.04,2.75 2.76,4.9 9.8,6.12 7.04,1.23 14.69,0.92 16.84,3.06 2.14,2.14 -6.43,2.45 -16.84,1.53 -10.41,-0.92 -8.88,-4.29 -16.22,-6.43 -7.35,-2.14 -7.73,-1.6 -19.06,-1.9 -3.96,-0.11 -8.62,-0.53 -9.87,-1.45 0.79,-1 1.57,-2 2.34,-2.99zm-45.35 1.45c6.12,-0.92 4.9,-2.45 13.78,-3.67 8.88,-1.23 9.49,1.84 8.88,3.98 -0.61,2.14 -9.49,2.45 -13.47,3.06 -3.98,0.61 -15.31,2.76 -9.18,-3.37l0 0zm-69.28 63.49c6.94,-0.82 16.94,-0.2 21.23,2.45 4.29,2.65 7.75,4.69 4.69,6.74 -3.06,2.04 -5.71,-2.86 -7.96,-3.27 -2.25,-0.41 -22.25,-4.29 -17.96,-5.92l0 0zm350.83 363.27c12.04,4.9 21.84,20.2 27.55,37.76 4.75,14.6 15.43,33.85 15.49,44.26l-43.04 -82.02zm33.61 90.89c-6.62,0.25 -14.15,-4.17 -14.84,-11.5 -1.02,-10.81 -0.21,-15.92 -8.98,-20.41 -8.77,-4.49 -8.78,-11.23 -4.9,-16.94 3.88,-5.71 0,-23.06 -2.04,-26.33 -2.04,-3.27 -11.84,-12.86 -2.86,-15.72l33.61 90.89zm-158.92 -63.54c2.65,6.32 4.28,12.45 10.41,10 6.12,-2.45 10,-4.08 8.16,-7.96 -1.84,-3.88 -5.1,-5.71 -6.73,-10.61 -1.63,-4.9 -6.13,-4.49 -8.98,-3.47 -2.86,1.02 -5.1,6.53 -2.86,12.04l0 0zm-213.16 -276.34c7.86,0.71 10,-2.76 10.82,-5.51 0.82,-2.75 -7.45,-4.39 -10.41,-5 -2.96,-0.61 -8.47,3.57 -9.29,1.12 -0.82,-2.45 -4.49,0.21 -3.98,3.26 0.51,3.06 7.75,4.9 12.86,6.12l0 0zm-6.12 27.15c2.82,-0.43 5.6,-1.5 8.25,-3.48 5.61,-4.18 13.78,-6.23 15.1,-3.06 1.33,3.16 -6.43,6.33 -1.53,7.65 4.9,1.33 11.02,-1.33 19.59,1.94 8.57,3.27 6.02,12.75 1.33,15.61 -4.69,2.86 -11.23,6.94 -15.82,5.61 -4.59,-1.33 -10.51,-8.77 -13.78,-10.31 -0.48,-0.23 -1.13,-0.33 -1.9,-0.35l-11.26 -13.62zm-1.3 15.77c-2.29,0.46 -4.56,0.84 -6.57,0.95 -7.25,0.41 -17.04,0.1 -18.98,-9.69 -1.32,-6.65 -0.8,-14.98 2.41,-18.7l23.14 27.44zm-181.07 116.51c1.42,0.98 2.75,1.74 3.85,1.66 2.65,-0.2 8.26,-3.57 8.16,3.57 -0.06,4.01 -2.01,8.09 -4.06,11.14 -2.71,-5.5 -5.36,-10.95 -7.95,-16.37zm0.1 25.49c-0.79,1.15 -1.53,2.34 -2.17,3.42 -1.63,2.75 -3.17,1.94 -2.96,-2.45 0.21,-4.39 0.62,-7.35 -1.53,-6.84 -2.14,0.51 -5,-5 -4.08,-6.94 0.47,-0.99 1.6,-2.88 2.18,-4.72 2.79,5.8 5.64,11.64 8.56,17.53zm-10.8 -22.2c-3.15,-0.54 -7.3,1.49 -7.39,-1.01 -0.1,-2.86 -0.21,-3.27 -0.21,-3.27 0,0 -4.28,1.33 -5.41,-2.45 -1.12,-3.78 -5.51,-5.71 -3.98,-8.16 1.53,-2.45 1.12,-1.73 1.53,-2.45 0.38,-0.67 1.83,-6.87 4.77,-5.5 3.44,7.53 7,15.14 10.67,22.84zm-7.8 8.99c1.02,4.18 6.33,6.84 3.78,11.02 -2.55,4.19 -4.49,9.09 -7.76,9.7 -3.27,0.61 -2.35,-9.29 -3.57,-10.1 -1.22,-0.82 -3.98,-1.94 -3.06,-5.41 0.92,-3.47 3.47,-2.55 2.55,-6.12 -0.92,-3.57 1.94,-4.9 3.98,-5.1 2.04,-0.2 5.61,-0.2 4.08,6.02l0 0zm141.61 -93.31c-0.33,-8.16 2.29,-12.73 6.86,-8.81 4.57,3.92 7.97,3.81 4.31,6.77 -3.66,2.96 -9.75,4.7 -11.17,2.04l0 0zm-127.54 -10.57c3.65,5.92 -1.56,12.88 5.22,18.1 6.78,5.22 13.57,2.09 14.62,3.13 1.04,1.04 -1.91,7.31 1.04,9.4 2.96,2.09 7.66,1.92 7.31,9.4 -0.35,7.48 -4.7,8.36 -4.18,12.18 0.52,3.83 4.01,7.83 8.53,1.39 4.52,-6.44 6.44,-8.18 5.92,-13.05 -0.52,-4.87 2.96,-6.61 5.22,-6.79 2.26,-0.17 0.7,-3.65 -2.09,-6.09 -2.78,-2.44 -4.87,-0.69 -5.57,-6.26 -0.7,-5.57 6.27,-5.05 5.22,-7.49 -1.05,-2.43 -9.23,0 -11.14,-1.56 -1.91,-1.57 -0.87,-3.31 1.57,-6.44 2.44,-3.13 6.44,-4.87 5.05,-6.79 -1.39,-1.91 -7.83,1.39 -10.27,5.74 -2.44,4.35 -6.27,9.92 -11.31,7.14 -5.05,-2.78 -6.09,-3.48 -6.27,-9.22 -0.17,-5.74 -7.83,-11.84 -8.87,-2.78l0 0zm117.42 28.2c4.24,6.86 10.45,16 16.33,19.27 5.88,3.26 12.08,0.65 13.39,-6.53 1.31,-7.18 -1.96,-9.15 5.55,-14.7 7.51,-5.55 12.41,-3.27 17.96,-11.76 5.55,-8.49 5.88,-16.98 -7.84,-13.71 -13.72,3.26 -10.44,7.51 -16,8.16 -5.55,0.65 -6.86,1.31 -9.14,6.86 -2.29,5.55 -0.98,8.49 -7.18,8.49 -6.2,0 -15.35,-3.27 -13.06,3.92l0 0zm-197.44 558.45c6.64,7.53 11.04,17.3 14.36,24.44 21.44,-2.67 45,-7.4 70.26,-14.1 20.76,-5.51 42.63,-12.35 65.4,-20.47 -9.11,-8.34 -18.1,-17.02 -26.98,-26.01 -13.66,-7.93 -17.89,-16.18 -28.14,-15.9 -11.33,0.31 -10.41,8.57 -23.57,7.65 -13.16,-0.92 -25.41,-11.02 -30.92,-10.1 -5.51,0.92 -6.73,-6.12 -10.41,-5.2 -3.67,0.92 -3.67,8.57 -6.73,9.19 -3.06,0.61 -4.9,-2.45 -8.88,1.07 -3.98,3.52 -7.65,-3.37 -11.18,-3.37 -3.52,0 -3.36,4.9 -5.81,5.05 -2.45,0.15 -7.35,-3.52 -8.73,0.16 -1.38,3.67 2.39,12.24 1.22,17.14 -0.48,2.03 -1.53,3.8 -2.6,5.17 -0.34,0.02 -0.71,0.03 -1.11,0.02 -8.57,-0.31 -8.57,-0.31 -8.88,4.29 -0.31,4.59 -7.35,-0.31 -13.16,-3.37 -5.82,-3.06 -7.96,-8.57 -12.86,-23.57 -4.9,-15 -8.26,-7.96 -14.69,-8.88 -6.43,-0.92 -11.32,-0.61 -14.08,-7.96 -2.76,-7.35 -2.76,-16.84 -5.51,-27.25 -2.75,-10.41 -13.78,3.06 -7.65,11.32 6.12,8.27 0.31,16.84 -13.16,2.45 -13.47,-14.39 -19.28,-38.27 -20.2,-52.66 -0.92,-14.39 0.61,-20.51 5.82,-19.29 5.21,1.23 6.43,2.75 6.43,-3.98 0,-6.74 9.79,-1.53 13.16,3.67 3.37,5.2 17.14,22.65 22.04,23.88 4.9,1.22 -0.61,-5.82 -3.67,-11.33 -3.06,-5.51 -3.67,-10.41 -8.57,-18.06 -4.9,-7.65 -4.9,-17.76 -4.9,-27.25 0,-7.7 3.63,-9.55 4.34,-14.4 -30.55,2.63 -58.1,1.59 -81.78,-3.27 2.87,10.08 6.14,19.01 8.24,32.07 4.29,26.63 7.96,14.08 14.09,24.8 6.12,10.72 8.57,31.23 20.2,52.65 11.63,21.43 28.16,34.28 34.9,38.88 6.73,4.59 6.12,-4.59 8.57,-0.92 2.45,3.68 9.18,8.26 15.61,8.88 6.43,0.62 18.67,12.55 23.57,16.84 4.9,4.28 15.61,12.24 24.79,16.23 9.19,3.98 5.51,-2.14 4.9,-6.12 -0.32,-2.09 1.89,-2.07 4.6,-0.91 0.56,0.79 1.14,1.75 1.72,2.91 2.91,5.82 9.95,15.61 9.95,15.61zm19.35 34.85c2.23,6.48 3.46,15.58 13.1,19.64 11.63,4.9 48.98,14.08 63.06,23.26 14.08,9.18 44.08,15.92 58.16,17.76 14.08,1.84 32.45,0.61 48.37,9.18 15.92,8.57 25.1,9.8 38.57,14.08 9.76,3.1 31.4,8.13 47.71,11.6 17.23,-5.93 34.96,-12.66 53.08,-20.17 -13.15,-4.76 -26.35,-10.25 -39.55,-16.45 -48.32,-22.7 -96.67,-54.93 -142.52,-95.49 -25.08,9.1 -49.14,16.72 -71.88,22.75 -24.26,6.44 -47.07,11.07 -68.11,13.82zm291.34 99.32c8.13,0.04 12.34,-2.9 23.61,-1.92 14.08,1.22 25.72,-5.51 39.19,-3.06 8.03,1.46 18.89,0.09 28.04,-2.29 -9.81,-1.87 -19.69,-4.19 -29.62,-6.94 -5.69,0.65 -10.1,0.72 -11.28,-0.57 -2.98,-3.25 -7.64,-0.27 -12.49,0.04 -12.68,5.29 -25.17,10.2 -37.45,14.74zm108.57 -15.55c1.45,-2.93 -5.78,-4 -14.56,-3.51 -1.11,0.06 -2.42,0.19 -3.87,0.38 6.18,1.23 12.32,2.27 18.43,3.14zm-99.58 -28.96c-0.07,-1.08 -0.07,-2.19 -0.08,-3.33 0,-5.82 -0.92,-13.47 -8.57,-15.3 -7.65,-1.84 -19.9,-3.68 -20.51,-13.47 -0.61,-9.8 14.08,-15.92 7.96,-25.72 -6.12,-9.79 -17.15,-20.2 -30.92,-27.55 -13.78,-7.35 -14.08,-8.88 -14.08,-8.88 0,0 0.61,-16.11 -11.2,-31.07 -24.37,11.03 -48.14,20.91 -71.11,29.56 43.7,38.01 89.59,68.31 135.42,89.85 4.36,2.05 8.73,4.02 13.09,5.91zm-85.44 -133.84c-9.42,-8.26 -18,-10.04 -18.72,-3.57 -0.92,8.27 -10.1,4.9 -18.37,4.6 -8.27,-0.31 -22.66,-5.82 -36.43,0.61 -7.95,3.71 -11.92,8.95 -17.22,11.07 6.04,5.84 12.14,11.54 18.28,17.08 23.35,-8.65 47.57,-18.6 72.45,-29.78zm-323.57 -164.55c0.8,-5.92 2.83,-11.72 1.74,-16.75 -1.53,-7.04 8.88,-11.02 7.96,-14.69 -0.92,-3.68 2.45,-4.6 3.06,-14.7 0.61,-10.1 3.37,-16.23 4.9,-29.69 1.53,-13.47 5.21,-21.43 4.9,-15.01 -0.3,6.43 5.82,6.12 7.65,-1.23 0.91,-3.65 3.03,-5.56 4.97,-7.16 -1.01,-2.54 -2,-5.09 -2.98,-7.63 -2.74,2.07 -5.57,3.09 -7.96,0.71 -3.98,-3.98 3.37,-14.7 0.92,-16.84 -2.45,-2.14 -8.57,7.65 -9.49,3.06 -0.7,-3.49 4.64,-8.06 7.49,-11.66 -7.62,-22.06 -14.04,-44 -19.26,-65.7 -0.6,1.72 -1.27,3.43 -1.88,5.13 -1.84,5.2 -0.92,13.78 -0.92,13.78 0,0 0,1.84 1.53,4.28 1.53,2.45 -0.92,20.21 -1.84,24.19 -0.92,3.98 0.3,15.31 -2.45,23.57 -2.76,8.27 -5.82,3.06 -9.19,-1.53 -3.37,-4.59 -0.31,-12.86 -2.14,-18.06 -1.84,-5.21 -9.49,-4.9 -12.86,-10.41 -2.76,-4.9 3.67,-6.12 5.2,-11.33 1.53,-5.2 3.98,-12.55 2.45,-18.37 -1.53,-5.82 5.51,-12.86 6.73,-20.51 1.22,-7.65 4.9,-2.75 7.96,-1.22 1.93,0.97 2.52,-2.93 3.54,-6.48 -2.59,-12.14 -4.79,-24.19 -6.61,-36.12 -0.15,3.22 -2.2,5.32 -3.66,8.01 -1.84,3.37 0.31,4.9 -3.37,11.02 -3.68,6.12 -6.43,3.67 -7.35,0.31 -0.92,-3.37 6.74,-8.88 6.43,-13.47 -0.3,-4.59 -0.92,-8.57 -3.37,-9.19 -2.45,-0.61 -0.61,-7.95 -4.9,-9.49 -4.29,-1.53 -3.06,4.59 -3.06,4.59 0,0 0,0 -4.59,5.82 -4.59,5.81 -2.14,7.04 1.84,8.57 3.98,1.53 3.67,7.96 -1.22,7.65 -4.9,-0.31 -3.98,7.04 -1.53,6.73 2.45,-0.31 9.49,5.2 2.15,10.72 -7.35,5.51 -8.88,-11.94 -13.16,-11.64 -4.28,0.3 -3.06,9.18 -8.88,8.57 -5.82,-0.61 -1.22,-11.94 -8.87,-11.02 -7.66,0.92 -11.02,7.65 -11.63,18.98 -0.61,11.33 -7.35,4.9 -7.96,14.39 -0.61,9.49 -3.37,11.94 -6.43,15 -3.06,3.06 -14.08,25.71 -12.25,33.37 1.84,7.66 8.57,-6.43 13.47,-15.61 4.9,-9.18 7.65,1.53 7.65,23.57 0,22.04 -3.36,34.9 -3.97,51.74 -0.62,16.84 -7.05,21.42 -6.43,58.47 0.2,12.2 1.33,21.41 2.91,29.23 23.88,5.66 52.51,6.94 84.75,4.05zm41.29 -114.14c1,-3.44 1.94,-6.55 1.78,-7.63 -0.3,-2.14 3.06,-4.28 3.83,-6.58 0.77,-2.3 4.75,-0.61 8.27,-0.92 3.52,-0.31 -1.22,-3.06 -1.68,-5.97 -0.46,-2.91 1.23,-3.22 -0.77,-6.58 -1.99,-3.37 -4.44,-0.61 -5.36,-1.68 -0.92,-1.07 -1.23,-7.04 -3.22,-5.82 -1.99,1.22 0.61,4.29 -2.14,7.04 -2.19,2.19 -5.56,6.14 -7.3,10.13 2.1,6 4.3,12 6.58,18.01zm-9.57 -26.7c0.17,-0.26 0.33,-0.53 0.49,-0.83 2.75,-5.2 5.2,-6.43 5.2,-6.43 0,0 6.73,-1.22 5.51,-6.12 -1.23,-4.9 -1.84,-2.76 -1.84,-8.57 -0,-5.82 -4.59,-3.98 -4.59,-8.57 0,-4.59 1.23,-4.9 -0.61,-6.43 -1.84,-1.53 -4.59,-3.37 -4.59,-10.41 0,-7.04 -4.59,-12.86 -5.82,-10.71 -1.22,2.14 -3.98,7.35 -7.35,5.2 -3.37,-2.14 -1.84,-8.87 -3.98,-12.55 -2.14,-3.68 -2.45,-7.65 -2.76,-11.02 -0.08,-0.88 -0.56,-1.73 -1.19,-2.55 5.39,25.97 12.56,52.39 21.52,78.99zm-23.32 -87.99c0.77,-2.83 -0.5,-5.97 -0.99,-9.89 -0.61,-4.89 0.92,-8.57 1.84,-13.16 0.92,-4.59 2.14,-6.43 5.2,-5.21 3.06,1.23 2.45,6.43 2.14,13.16 -0.31,6.73 0.31,8.88 -2.76,12.86 -3.06,3.98 -3.67,7.96 -0.3,8.26 3.37,0.31 0.92,3.06 4.59,5.82 3.67,2.75 4.9,-1.53 4.9,-5.82 0,-4.29 3.68,-0.62 3.98,-6.43 0.31,-5.81 -2.45,-7.65 -2.76,-12.55 -0.3,-4.9 5.21,-1.23 7.35,-8.26 2.15,-7.04 -3.37,-6.74 -4.29,-9.8 -0.92,-3.06 0.61,-4.59 -3.37,-7.04 -3.98,-2.45 -0.3,-10.41 -3.98,-11.64 -1.83,-1.23 -6.15,1.22 -6.15,4.9 0,3.67 -5.97,7.96 -10.61,12.55l-0.1 0.1c1.46,10.62 3.23,21.34 5.3,32.14zm-18.8 -51.92c-3.8,1.77 -8.7,4.29 -9.62,5.94 -1.53,2.75 3.06,5.2 7.35,7.04 1.55,0.67 2.83,0.73 3.8,0.73 -0.57,-4.59 -1.08,-9.16 -1.53,-13.7zm2.23 19.12c-2.2,2.34 -5.77,4.22 -5.11,6.41 0.87,2.9 4.77,-2.17 6.22,1.47 -0.39,-2.63 -0.76,-5.25 -1.11,-7.87zm-4.27 213.05c1.23,-2.29 3.22,0.77 4.44,-1.38 1.23,-2.14 1.69,3.83 -0.61,4.13 -2.3,0.31 -1.53,5.36 -3.98,4.59 -2.45,-0.76 -2.91,-3.21 0.15,-7.35zm5.51 -11.64c0.61,-3.52 3.21,-2.14 3.83,-5.05 0.61,-2.91 4.13,-7.19 5.05,-2.14 0.92,5.05 -0.92,5.05 -2.6,6.12 -1.68,1.07 -4.59,7.65 -6.28,1.07zm-21.58 16.08c0.61,-8.11 -1.37,-9.65 -0.31,-13.78 1.07,-4.13 3.52,-2.3 3.52,-7.19 -0,-4.9 3.98,-2.45 4.59,-4.9 0.61,-2.45 3.83,-5.21 6.89,-4.59 3.06,0.61 3.06,0.61 3.06,0.61 0,0 1.23,4.75 -1.07,5.51 -2.3,0.77 -2.3,5.35 -0.92,7.04 1.38,1.68 3.21,-2.14 3.83,-0.15 0.61,1.99 -3.83,4.13 -3.67,5.2 0.15,1.07 -0.61,7.04 -3.37,3.98 -2.75,-3.06 -0.77,-8.88 -1.68,-11.94 -0.92,-3.06 -2.76,-1.53 -3.52,0.61 -0.77,2.14 -4.13,3.52 -2.75,6.27 1.37,2.76 0.61,8.27 0.46,13.93 -0.15,5.66 -6.43,10.71 -5.05,-0.62zm-5.66 -30.31c-0.92,-4.44 0.61,-5.66 2.91,-9.03 2.3,-3.37 1.84,-7.04 5.51,-7.81 3.67,-0.77 5.82,3.22 5.82,6.43 0,3.21 -1.99,7.04 -4.75,5.66 -2.76,-1.38 -4.9,0.92 -4.59,3.52 0.3,2.6 -4.75,3.98 -4.9,1.22zm-9.95 -43.93c-0.16,3.82 1.53,2.75 0.46,7.34 -1.07,4.59 1.98,7.81 4.28,5.51 2.3,-2.3 0.31,-7.5 0.31,-9.65 -0,-2.15 -3.83,-9.64 -5.05,-3.21zm-4.21 -83.27c0.46,-4.98 2.75,-2.13 3.06,-5.86 0.31,-3.73 3.52,-4.44 3.67,0.04 0.15,4.29 -0.23,5.13 -1.84,5.13 -1.61,-0 -4.21,5.51 -4.9,0.69zm-3.67 29.85c0.3,-3.83 -0.47,-6.89 2.29,-7.19 2.75,-0.31 6.43,0.15 5.36,1.99 -1.07,1.84 -3.83,1.99 -3.67,3.67 0.15,1.68 -3.52,5.36 -3.97,1.53zm57.27 -128.15c2.14,2.75 0.3,5.82 -2.15,5.82 -2.45,-0 -2.76,-7.96 2.15,-5.82zm13.39 -23.04c2.24,-2.89 4.85,-4.84 7.73,-3.9 0.32,0.11 0.6,0.25 0.83,0.43 -2.87,1.18 -5.73,2.34 -8.57,3.47zm6.55 9.31c-1.93,4.73 -3.91,9.47 -3.1,11.89 1.83,5.51 -7.35,-0.31 -6.13,5.2 1.22,5.51 4.29,5.51 2.14,9.49 -2.14,3.98 -6.43,6.12 -10.1,7.96 -3.67,1.83 -4.9,-2.14 -3.98,-7.04 0.92,-4.9 5.2,-3.98 7.35,-5.21 2.14,-1.22 0.92,-5.2 1.23,-8.87 0.22,-2.6 -2.32,-4.89 -2.21,-7.63 4.89,-1.86 9.82,-3.8 14.8,-5.8zm80.17 3.93c1.83,-4.9 6.43,-6.12 8.27,-4.9 1.83,1.22 3.36,6.12 -2.15,12.24 -5.51,6.12 -11.94,7.04 -14.39,2.45 -2.45,-4.59 4.59,-5.82 8.27,-9.8z"/>
  </g>
 </g>
</svg>
