<?xml version="1.0" encoding="UTF-8" standalone="no"?>
<!-- Created with Inkscape (http://www.inkscape.org/) -->

<svg
   version="1.1"
   id="svg63"
   width="225.00009"
   height="141.48715"
   viewBox="0 0 225.0001 141.48715"
   sodipodi:docname="ВВОД.svg"
   inkscape:version="1.2.1 (9c6d41e410, 2022-07-14)"
   xmlns:inkscape="http://www.inkscape.org/namespaces/inkscape"
   xmlns:sodipodi="http://sodipodi.sourceforge.net/DTD/sodipodi-0.dtd"
   xmlns="http://www.w3.org/2000/svg"
   xmlns:svg="http://www.w3.org/2000/svg">
  <defs
     id="defs67" />
  <sodipodi:namedview
     id="namedview65"
     pagecolor="#ffffff"
     bordercolor="#111111"
     borderopacity="1"
     inkscape:showpageshadow="0"
     inkscape:pageopacity="0"
     inkscape:pagecheckerboard="1"
     inkscape:deskcolor="#d1d1d1"
     showgrid="false"
     inkscape:zoom="3.72"
     inkscape:cx="110.21505"
     inkscape:cy="70.026882"
     inkscape:window-width="1920"
     inkscape:window-height="1018"
     inkscape:window-x="-6"
     inkscape:window-y="-6"
     inkscape:window-maximized="1"
     inkscape:current-layer="g69" />
  <g
     inkscape:groupmode="layer"
     inkscape:label="Image"
     id="g69"
     transform="translate(21.236635,-42.856943)">
    <path
       style="fill:#000000"
       d="M 14.008122,149.08884 -21.236635,113.8336 14.262257,78.345269 49.761146,42.856943 58.00404,51.099837 66.246934,59.342731 45.505187,80.102133 C 34.097226,91.519804 24.76344,101.19511 24.76344,101.60281 c 0,0.40771 34.875,0.74128 77.5,0.74128 h 77.5 v -24.000004 -24 h 12 12.00001 v 35.5 35.500004 h -89.50001 c -49.225,0 -89.5,0.33357 -89.5,0.74128 0,0.4077 9.330204,10.07942 20.733787,21.49271 l 20.733786,20.75143 -7.960326,8.00729 c -4.37818,4.40401 -8.198261,8.00729 -8.489069,8.00729 -0.290808,0 -16.388881,-15.86486 -35.773496,-35.25525 z"
       id="path73" />
  </g>
</svg>
