<?xml version="1.0" encoding="UTF-8" standalone="no"?>
<svg
   xmlns:dc="http://purl.org/dc/elements/1.1/"
   xmlns:cc="http://creativecommons.org/ns#"
   xmlns:rdf="http://www.w3.org/1999/02/22-rdf-syntax-ns#"
   xmlns:svg="http://www.w3.org/2000/svg"
   xmlns="http://www.w3.org/2000/svg"
   xmlns:sodipodi="http://sodipodi.sourceforge.net/DTD/sodipodi-0.dtd"
   xmlns:inkscape="http://www.inkscape.org/namespaces/inkscape"
   inkscape:version="1.0 (4035a4fb49, 2020-05-01)"
   sodipodi:docname="глаз.svg"
   id="svg10"
   viewBox="0 0 119.01505 66.714727"
   style="clip-rule:evenodd;fill-rule:evenodd;image-rendering:optimizeQuality;shape-rendering:geometricPrecision;text-rendering:geometricPrecision"
   version="1.1"
   height="20.228765mm"
   width="36.085327mm"
   xml:space="preserve"><metadata
   id="metadata14"><rdf:RDF><cc:Work
       rdf:about=""><dc:format>image/svg+xml</dc:format><dc:type
         rdf:resource="http://purl.org/dc/dcmitype/StillImage" /><dc:title></dc:title></cc:Work></rdf:RDF></metadata><sodipodi:namedview
   inkscape:current-layer="svg10"
   inkscape:window-maximized="1"
   inkscape:window-y="-6"
   inkscape:window-x="-6"
   inkscape:cy="38.707835"
   inkscape:cx="147.11309"
   inkscape:zoom="3.3788992"
   showgrid="false"
   id="namedview12"
   inkscape:window-height="1018"
   inkscape:window-width="1920"
   inkscape:pageshadow="2"
   inkscape:pageopacity="0"
   guidetolerance="10"
   gridtolerance="10"
   objecttolerance="10"
   borderopacity="1"
   bordercolor="#666666"
   pagecolor="#ffffff"
   inkscape:document-rotation="0" />
 <defs
   id="defs4">
  <style
   id="style2"
   type="text/css">
   <![CDATA[
    .fil0 {fill:black;fill-rule:nonzero}
   ]]>
  </style>
 </defs>
 
<path
   id="path8"
   d="M 54.878343,66.579426 C 35.728012,64.806975 16.801529,53.451676 2.3104907,35.040361 -0.52541727,31.437251 -0.48411027,31.605752 1.0016217,29.701218 3.2340837,26.83946 6.6564867,23.157199 9.7310527,20.308969 28.266053,3.1384386 52.440484,-3.6246766 75.662724,1.863714 c 4.524162,1.0692485 9.631324,2.9034584 14.354115,5.1552082 8.110567,3.8669828 14.269821,8.1993728 20.741491,14.5894768 3.5335,3.488952 8.25672,9.052754 8.25672,9.726143 0,0.991336 -5.69131,8.528296 -9.62916,12.751836 C 98.289764,55.987503 83.243509,64.053563 68.26818,66.128929 64.380054,66.667768 58.111505,66.878671 54.878343,66.579426 Z M 63.483476,56.8353 c 13.08307,-1.081168 25.290725,-6.84939 35.82387,-16.927094 1.999724,-1.913255 4.506464,-4.530372 5.570544,-5.815816 l 1.93469,-2.337169 -2.03411,-2.161908 C 102.47702,27.147259 98.244298,23.552945 94.795361,21.115915 85.638045,14.645329 74.740656,10.751221 63.339128,9.8752425 49.213772,8.7899955 34.020348,13.706859 21.404293,23.446104 c -3.283458,2.534741 -8.812678,7.687324 -8.812678,8.212379 0,0.188078 1.35552,1.787052 3.012265,3.553278 11.699537,12.472646 26.264193,20.348997 39.978024,21.619518 3.469494,0.321433 4.056989,0.321733 7.901572,0.004 z M 56.088932,52.286537 C 49.890309,51.027558 44.924565,47.356004 42.158011,41.986348 c -1.557102,-3.022213 -2.102178,-5.255486 -2.102178,-8.613023 0,-3.357537 0.545076,-5.590811 2.102178,-8.613023 1.366535,-2.652336 3.014469,-4.625597 5.379392,-6.441369 10.800044,-8.292204 26.879219,-3.826611 31.579008,8.770288 0.836222,2.241334 0.89331,2.642937 0.89331,6.284104 0,3.641166 -0.05709,4.042769 -0.89331,6.284103 -2.238363,5.999512 -7.495278,10.720569 -13.748052,12.346657 -2.310734,0.600928 -7.007519,0.743893 -9.279427,0.282452 z m 1.974726,-17.635979 c 1.575319,-0.770015 3.382137,-2.818236 3.826001,-4.337182 1.275599,-4.365213 -2.209653,-8.742799 -6.960656,-8.742799 -4.751003,0 -8.236254,4.377586 -6.960655,8.742799 0.415562,1.422091 2.214222,3.541981 3.586569,4.227102 2.088918,1.042862 4.516439,1.083919 6.508741,0.11008 z"
   style="fill:#000000;stroke-width:0.283846" /></svg>
