<?xml version="1.0" encoding="UTF-8" standalone="no"?>
<!-- Created with Inkscape (http://www.inkscape.org/) -->

<svg
   version="1.1"
   id="svg224"
   width="294.57181"
   height="266"
   viewBox="0 0 294.57181 266"
   sodipodi:docname="СЕТКА1.svg"
   inkscape:version="1.2.1 (9c6d41e410, 2022-07-14)"
   xml:space="preserve"
   xmlns:inkscape="http://www.inkscape.org/namespaces/inkscape"
   xmlns:sodipodi="http://sodipodi.sourceforge.net/DTD/sodipodi-0.dtd"
   xmlns="http://www.w3.org/2000/svg"
   xmlns:svg="http://www.w3.org/2000/svg"><defs
     id="defs228" /><sodipodi:namedview
     id="namedview226"
     pagecolor="#ffffff"
     bordercolor="#111111"
     borderopacity="1"
     inkscape:showpageshadow="0"
     inkscape:pageopacity="0"
     inkscape:pagecheckerboard="1"
     inkscape:deskcolor="#d1d1d1"
     showgrid="false"
     inkscape:zoom="1.0557862"
     inkscape:cx="-241.52617"
     inkscape:cy="190.85303"
     inkscape:window-width="1920"
     inkscape:window-height="1018"
     inkscape:window-x="-6"
     inkscape:window-y="-6"
     inkscape:window-maximized="1"
     inkscape:current-layer="g230" /><g
     inkscape:groupmode="layer"
     inkscape:label="Image"
     id="g230"
     transform="translate(-57.321028,-194.27825)"><path
       style="fill:#000000"
       d="m 57.99982,458.69646 c -1.20854,-3.1494 -0.67477,-42.95043 0.59301,-44.21821 1.72624,-1.72624 87.87376,-1.72624 89.6,0 1.69877,1.69877 1.69877,42.90123 0,44.6 -0.89713,0.89713 -12.354,1.2 -45.39301,1.2 -39.37576,0 -44.25918,-0.17242 -44.8,-1.58179 z m 110,-40 c -1.05701,-2.75451 -0.67739,-40.41814 0.42819,-42.48395 0.99961,-1.86779 2.562,-1.93426 45.46482,-1.93426 42.90282,0 44.46521,0.0665 45.46482,1.93426 1.10558,2.06581 1.4852,39.72944 0.42819,42.48395 -0.54113,1.41016 -5.52057,1.58179 -45.89301,1.58179 -40.37244,0 -45.35188,-0.17163 -45.89301,-1.58179 z M 59.0037,389.70658 c -0.33598,-0.87555 -0.61087,-10.725 -0.61087,-21.88767 0,-15.92944 0.29368,-20.53951 1.36511,-21.42871 0.9823,-0.81524 13.81191,-1.0599 45.75,-0.87245 l 44.38489,0.2605 v 22.5 22.5 l -45.13913,0.26011 c -40.5118,0.23345 -45.20175,0.0969 -45.75,-1.33178 z m 202,-45 c -1.2385,-3.22748 -0.67439,-40.9595 0.63913,-42.74979 1.1502,-1.56769 4.80301,-1.68275 45.75,-1.44113 l 44.5,0.26259 v 22.5 22.5 l -45.13913,0.26011 c -40.5118,0.23345 -45.20175,0.0969 -45.75,-1.33178 z M 57.99982,314.69646 c -1.20854,-3.1494 -0.67477,-42.95043 0.59301,-44.21821 1.72624,-1.72624 87.87376,-1.72624 89.6,0 1.69877,1.69877 1.69877,42.90123 0,44.6 -0.89713,0.89713 -12.354,1.2 -45.39301,1.2 -39.37576,0 -44.25918,-0.17242 -44.8,-1.58179 z m 111.43363,-40.34231 c -1.47509,-2.75622 -1.37261,-38.25316 0.1199,-41.52885 l 1.16051,-2.54705 h 44.21704 c 36.32647,0 44.42095,0.2457 45.35973,1.37686 0.79782,0.96131 1.06113,7.82742 0.87245,22.75 l -0.27025,21.37314 -45.20938,0.26016 c -43.89483,0.2526 -45.23963,0.20363 -46.25,-1.68426 z M 59.59283,240.07825 c -0.85614,-0.85615 -1.2,-7.13968 -1.2,-21.92857 0,-17.51082 0.24394,-20.97251 1.57143,-22.3 1.3801,-1.3801 6.83463,-1.57143 44.8,-1.57143 32.28889,0 43.53225,0.30368 44.42857,1.2 1.26778,1.26778 1.80155,41.06881 0.59301,44.21821 -0.54082,1.40937 -5.42424,1.58179 -44.8,1.58179 -33.03901,0 -44.49588,-0.30287 -45.39301,-1.2 z"
       id="path177" /></g></svg>
