<?xml version="1.0" encoding="UTF-8" standalone="no"?>
<!-- Created with Inkscape (http://www.inkscape.org/) -->

<svg
   version="1.1"
   id="svg224"
   width="230"
   height="470"
   viewBox="0 0 230 470"
   sodipodi:docname="ГРУППА2.svg"
   inkscape:version="1.2.1 (9c6d41e410, 2022-07-14)"
   xml:space="preserve"
   xmlns:inkscape="http://www.inkscape.org/namespaces/inkscape"
   xmlns:sodipodi="http://sodipodi.sourceforge.net/DTD/sodipodi-0.dtd"
   xmlns="http://www.w3.org/2000/svg"
   xmlns:svg="http://www.w3.org/2000/svg"><defs
     id="defs228" /><sodipodi:namedview
     id="namedview226"
     pagecolor="#ffffff"
     bordercolor="#111111"
     borderopacity="1"
     inkscape:showpageshadow="0"
     inkscape:pageopacity="0"
     inkscape:pagecheckerboard="1"
     inkscape:deskcolor="#d1d1d1"
     showgrid="false"
     inkscape:zoom="1.0557862"
     inkscape:cx="325.82354"
     inkscape:cy="217.37356"
     inkscape:window-width="1920"
     inkscape:window-height="1018"
     inkscape:window-x="-6"
     inkscape:window-y="-6"
     inkscape:window-maximized="1"
     inkscape:current-layer="g230" /><g
     inkscape:groupmode="layer"
     inkscape:label="Image"
     id="g230"
     transform="translate(510.67082,-167.64827)"><path
       style="fill:#000000"
       d="m -505.67082,528.64827 v -109 h 112.5 112.5 v 109 109 h -112.5 -112.5 z m 71,69.5 v -29.5 h -30.5 -30.5 v 29.5 29.5 h 30.5 30.5 z m 72,0 v -29.5 h -31 -31 v 29.5 29.5 h 31 31 z m -72,-69.5 v -30 h -30.5 -30.5 v 30 30 h 30.5 30.5 z m 143,0 v -30 h -30.5 -30.5 v 30 30 h 30.5 30.5 z m -71,-69.5 v -29.5 h -31 -31 v 29.5 29.5 h 31 31 z m 71,0 v -29.5 h -30.5 -30.5 v 29.5 29.5 h 30.5 30.5 z m -219,-182.5 v -109 h 112.5 112.5 v 109 109 h -112.5 -112.5 z m 71,69.5 v -29.5 h -30.5 -30.5 v 29.5 29.5 h 30.5 30.5 z m 72,0 v -29.5 h -31 -31 v 29.5 29.5 h 31 31 z m -72,-69.5 v -30 h -30.5 -30.5 v 30 30 h 30.5 30.5 z m 143,0 v -30 h -30.5 -30.5 v 30 30 h 30.5 30.5 z m -71,-69.5 v -29.5 h -31 -31 v 29.5 29.5 h 31 31 z m 71,0 v -29.5 h -30.5 -30.5 v 29.5 29.5 h 30.5 30.5 z"
       id="path108" /></g></svg>
