<?xml version="1.0" encoding="UTF-8" standalone="no"?>
<svg
   xmlns:dc="http://purl.org/dc/elements/1.1/"
   xmlns:cc="http://creativecommons.org/ns#"
   xmlns:rdf="http://www.w3.org/1999/02/22-rdf-syntax-ns#"
   xmlns:svg="http://www.w3.org/2000/svg"
   xmlns="http://www.w3.org/2000/svg"
   xmlns:sodipodi="http://sodipodi.sourceforge.net/DTD/sodipodi-0.dtd"
   xmlns:inkscape="http://www.inkscape.org/namespaces/inkscape"
   version="1.1"
   id="svg11"
   width="1441.3966"
   height="1296.9996"
   viewBox="0 0 1441.3966 1296.9996"
   sodipodi:docname="СЕРДЦЕ.svg"
   inkscape:version="1.0 (4035a4fb49, 2020-05-01)">
  <metadata
     id="metadata17">
    <rdf:RDF>
      <cc:Work
         rdf:about="">
        <dc:format>image/svg+xml</dc:format>
        <dc:type
           rdf:resource="http://purl.org/dc/dcmitype/StillImage" />
        <dc:title></dc:title>
      </cc:Work>
    </rdf:RDF>
  </metadata>
  <defs
     id="defs15" />
  <sodipodi:namedview
     inkscape:document-rotation="0"
     pagecolor="#ffffff"
     bordercolor="#666666"
     borderopacity="1"
     objecttolerance="10"
     gridtolerance="10"
     guidetolerance="10"
     inkscape:pageopacity="0"
     inkscape:pageshadow="2"
     inkscape:window-width="1920"
     inkscape:window-height="1018"
     id="namedview13"
     showgrid="false"
     inkscape:zoom="0.19014274"
     inkscape:cx="1391.1202"
     inkscape:cy="700.04163"
     inkscape:window-x="-6"
     inkscape:window-y="-6"
     inkscape:window-maximized="1"
     inkscape:current-layer="g19" />
  <g
     transform="translate(2517.6471,-278.43455)"
     inkscape:groupmode="layer"
     inkscape:label="Image"
     id="g19">
    <path
       id="path8"
       d="m -2073.2177,1288.8378 c -378.5467,-385.59772 -368.9007,-375.15439 -399.8319,-432.88294 -60.9654,-113.7831 -59.3059,-254.36857 4.2437,-359.50334 83.4056,-137.98392 220.2158,-215.505 381.9155,-216.4058 46.0966,-0.2568 95.2869,6.90457 136.7334,19.90633 37.229,11.67869 108.2002,46.49072 119.5033,58.61744 3.5791,3.83992 12.4082,9.70347 19.6202,13.03013 12.5125,5.77159 14.3752,5.18592 40.6904,-12.79426 95.9842,-65.58255 204.2183,-91.19192 322.1648,-76.22778 155.3462,19.70913 296.5316,128.87812 349.8812,270.5391 35.0688,93.1194 27.8799,208.33956 -18.5636,297.5263 -28.3407,54.42358 -37.6227,65.19719 -219.7173,255.02662 -62.4409,65.0933 -120.0062,125.1272 -127.9227,133.4087 -252.1612,263.7855 -319.2236,333.9191 -321.6123,336.3409 -1.5889,1.6107 -130.786,-127.3509 -287.1047,-286.5814 z"
       style="fill:#ff0000;stroke-width:4.5186" />
  </g>
</svg>
