<?xml version="1.0" encoding="UTF-8" standalone="no"?>
<svg
   xmlns:dc="http://purl.org/dc/elements/1.1/"
   xmlns:cc="http://creativecommons.org/ns#"
   xmlns:rdf="http://www.w3.org/1999/02/22-rdf-syntax-ns#"
   xmlns:svg="http://www.w3.org/2000/svg"
   xmlns="http://www.w3.org/2000/svg"
   xmlns:sodipodi="http://sodipodi.sourceforge.net/DTD/sodipodi-0.dtd"
   xmlns:inkscape="http://www.inkscape.org/namespaces/inkscape"
   xml:space="preserve"
   width="38.550854mm"
   height="33.608891mm"
   version="1.1"
   style="clip-rule:evenodd;fill-rule:evenodd;image-rendering:optimizeQuality;shape-rendering:geometricPrecision;text-rendering:geometricPrecision"
   viewBox="0 0 52.080564 45.411368"
   id="svg3250"
   sodipodi:docname="ПОМОЩЬ.svg"
   inkscape:version="1.0 (4035a4fb49, 2020-05-01)"><metadata
   id="metadata3254"><rdf:RDF><cc:Work
       rdf:about=""><dc:format>image/svg+xml</dc:format><dc:type
         rdf:resource="http://purl.org/dc/dcmitype/StillImage" /><dc:title></dc:title></cc:Work></rdf:RDF></metadata><sodipodi:namedview
   inkscape:document-rotation="0"
   pagecolor="#ffffff"
   bordercolor="#666666"
   borderopacity="1"
   objecttolerance="10"
   gridtolerance="10"
   guidetolerance="10"
   inkscape:pageopacity="0"
   inkscape:pageshadow="2"
   inkscape:window-width="1920"
   inkscape:window-height="1018"
   id="namedview3252"
   showgrid="false"
   inkscape:zoom="2.1814529"
   inkscape:cx="66.351289"
   inkscape:cy="106.71545"
   inkscape:window-x="-6"
   inkscape:window-y="-6"
   inkscape:window-maximized="1"
   inkscape:current-layer="svg3250" />
 <defs
   id="defs3244">
  <style
   type="text/css"
   id="style3242">
   <![CDATA[
    .fil0 {fill:black;fill-rule:nonzero}
   ]]>
  </style>
 </defs>
 <g
   id="Слой_x0020_1"
   transform="matrix(0.67627828,0,0,0.55880943,14.787695,18.219702)">
  <metadata
   id="CorelCorpID_0Corel-Layer" />
  <path
   class="fil0"
   d="m 50.17,44.27 c 0.36,-0.33 0.91,-0.3 1.24,0.05 0.33,0.36 0.3,0.91 -0.05,1.24 -1.07,0.98 -2.31,1.77 -3.69,2.3 l -0.05,0.02 c -1.31,0.51 -2.74,0.78 -4.22,0.78 -3.24,0 -6.18,-1.32 -8.31,-3.44 -2.13,-2.13 -3.44,-5.06 -3.44,-8.31 0,-3.24 1.32,-6.18 3.44,-8.31 2.13,-2.13 5.06,-3.44 8.31,-3.44 3.24,0 6.18,1.32 8.31,3.44 2.13,2.13 3.44,5.06 3.44,8.31 v 0.02 c 0,1.48 -0.41,2.54 -1.1,3.27 -0.8,0.85 -1.91,1.2 -3.16,1.2 -1.23,0 -2.24,-0.43 -2.94,-1.26 -0.07,-0.08 -0.13,-0.16 -0.19,-0.24 -0.18,0.27 -0.39,0.52 -0.62,0.75 -0.96,0.96 -2.28,1.55 -3.74,1.55 -1.46,0 -2.78,-0.59 -3.74,-1.55 -0.96,-0.96 -1.55,-2.28 -1.55,-3.74 0,-1.46 0.59,-2.78 1.55,-3.74 0.96,-0.96 2.28,-1.55 3.74,-1.55 1.46,0 2.78,0.59 3.74,1.55 0.96,0.96 1.55,2.28 1.55,3.74 v 0.01 c 0,0.94 0.21,1.64 0.59,2.08 0.36,0.42 0.91,0.64 1.61,0.64 0.79,0 1.46,-0.19 1.88,-0.64 0.39,-0.41 0.62,-1.09 0.62,-2.1 v -0.01 c 0,-2.76 -1.12,-5.25 -2.93,-7.06 -1.81,-1.81 -4.31,-2.93 -7.07,-2.93 -2.76,0 -5.26,1.12 -7.07,2.93 -1.81,1.81 -2.93,4.31 -2.93,7.07 0,2.76 1.12,5.26 2.93,7.07 1.81,1.81 4.31,2.93 7.07,2.93 1.27,0 2.48,-0.23 3.59,-0.66 l 0.04,-0.02 c 1.17,-0.46 2.23,-1.12 3.14,-1.96 z M 3.34,0 h 42.78 c 1.83,0 3.34,1.5 3.34,3.34 v 20.13 c -1.85,-0.83 -3.89,-1.29 -6.05,-1.29 -2.36,0 -4.58,0.55 -6.56,1.54 -1.44,-1.45 -2.87,-2.89 -4.3,-4.34 3.63,-3.95 7.27,-7.9 10.9,-11.85 0.43,-0.47 0.4,-1.19 -0.07,-1.62 -0.47,-0.43 -1.19,-0.4 -1.62,0.07 -2.39,2.59 -4.78,5.19 -7.16,7.78 -2.36,2.57 -4.75,5.13 -7.09,7.72 -0.35,0.39 -0.75,0.7 -1.25,0.88 -0.49,0.18 -1.02,0.23 -1.53,0.23 -0.52,0 -1.05,-0.05 -1.53,-0.23 C 22.71,22.18 22.3,21.87 21.95,21.48 19.62,18.89 17.23,16.33 14.86,13.76 12.47,11.17 10.09,8.57 7.7,5.98 7.27,5.51 6.54,5.48 6.08,5.91 5.61,6.34 5.58,7.07 6.01,7.53 c 3.63,3.95 7.27,7.9 10.9,11.85 -3.62,3.66 -7.26,7.31 -10.88,10.98 -0.44,0.45 -0.44,1.18 0.01,1.62 0.45,0.44 1.18,0.44 1.62,-0.01 3.59,-3.64 7.2,-7.26 10.79,-10.9 0.59,0.65 1.19,1.29 1.78,1.94 0.61,0.67 1.31,1.19 2.16,1.5 0.75,0.28 1.53,0.37 2.32,0.37 0.8,0 1.57,-0.09 2.32,-0.37 0.85,-0.32 1.56,-0.83 2.16,-1.5 0.59,-0.65 1.18,-1.3 1.78,-1.94 1.28,1.29 2.55,2.58 3.83,3.87 -3.73,2.68 -6.16,7.05 -6.16,11.99 0,0.13 0,0.25 0,0.38 H 3.31 c -1.83,0 -3.34,-1.5 -3.34,-3.34 V 3.35 c 0,-1.83 1.5,-3.34 3.34,-3.34 z m 43.6,36.91 V 36.9 c 0,-0.97 -0.4,-1.85 -1.03,-2.49 -0.64,-0.64 -1.52,-1.03 -2.5,-1.03 -0.97,0 -1.86,0.4 -2.5,1.03 -0.64,0.64 -1.03,1.52 -1.03,2.5 0,0.97 0.4,1.86 1.03,2.5 0.64,0.64 1.52,1.03 2.5,1.03 0.97,0 1.86,-0.4 2.5,-1.03 0.64,-0.64 1.03,-1.51 1.03,-2.48 v -0.01 z"
   id="path3247" />
 </g>
<path
   id="path11"
   d="m 4.7899052,24.588266 c -0.05202,-0.01743 -0.121184,-0.04566 -0.153696,-0.06273 -0.03251,-0.01706 -0.470136,-0.448023 -0.972495,-0.957682 l -0.913382,-0.926655 -0.138574,0.114902 c -0.28126,0.233213 -0.631578,0.356016 -1.014006,0.355458 -0.74703004,-0.0011 -1.37135904,-0.494845 -1.56197504,-1.235299 -0.05265,-0.204505 -0.05367,-0.586667 -0.0021,-0.794349 0.02136,-0.08606 0.08313,-0.248535 0.137263,-0.361068 l 0.09844,-0.204605 5.90481504,-6.017794 5.9048158,-6.0177945 -0.103272,-0.21664 C 11.524496,7.317408 11.324798,6.2074057 11.422966,5.1914668 c 0.12584,-1.3023163 0.6498,-2.4730021 1.52733,-3.412519 0.709497,-0.7596133 1.661554,-1.33250657 2.64215,-1.58989337 1.315846,-0.34538317 2.684287,-0.2149313 3.881398,0.370009 0.945738,0.46211317 1.733967,1.16455227 2.311875,2.06025507 0.186758,0.2894561 0.446832,0.8181973 0.571388,1.1616547 0.605481,1.6695815 0.387753,3.6238606 -0.569555,5.1122186 -0.905878,1.4083982 -2.331999,2.3244592 -3.992544,2.5645882 -0.276339,0.03996 -1.166042,0.03996 -1.442381,0 -0.561232,-0.08116 -1.193524,-0.270722 -1.690658,-0.506864 l -0.29557,-0.140398 -2.949198,2.998744 -2.9491981,2.998745 0.897429,0.917302 c 1.0448091,1.067948 1.0287491,1.045597 1.0281591,1.430908 -5.36e-4,0.351028 -0.01325,0.369742 -0.7882921,1.160206 -0.769642,0.784956 -0.79423,0.802076 -1.150296,0.800879 -0.342582,-0.0012 -0.317749,0.01783 -1.3658467,-1.043876 l -0.916581,-0.928479 -0.572718,0.583026 -0.572719,0.583027 0.924579,0.945111 c 1.051296,1.074641 1.013956,1.022954 1.013161,1.402462 -7.07e-4,0.338092 -0.01793,0.363156 -0.788056,1.146628 -0.751453,0.764479 -0.792289,0.794353 -1.103136,0.807039 -0.113532,0.0046 -0.226981,-0.005 -0.283747,-0.02398 z M 17.647749,8.1462995 c 0.609921,-0.15924 1.17954,-0.5964625 1.484895,-1.1397614 0.208999,-0.3718569 0.302791,-0.7005695 0.322602,-1.1306145 0.03304,-0.7172823 -0.209428,-1.3608254 -0.701434,-1.8616874 -0.431339,-0.439102 -0.978273,-0.6849819 -1.588553,-0.7141501 -0.71546,-0.034195 -1.352515,0.214596 -1.844763,0.7204416 -0.309932,0.3184918 -0.512795,0.680741 -0.629121,1.1234056 -0.05251,0.1998158 -0.06103,0.2826549 -0.0622,0.604641 -0.0011,0.3052167 0.0079,0.4103312 0.04939,0.5777082 0.116132,0.4682258 0.343263,0.8708143 0.673156,1.1931668 0.221602,0.2165362 0.336941,0.3026732 0.572813,0.4277862 0.515379,0.27337 1.155417,0.347306 1.723215,0.199064 z"
   style="fill:#000000;stroke-width:0.0238574" /></svg>
