<?xml version="1.0" encoding="UTF-8" standalone="no"?>
<!-- Created with Inkscape (http://www.inkscape.org/) -->

<svg
   version="1.1"
   id="svg224"
   width="311.95459"
   height="286.60919"
   viewBox="0 0 311.95459 286.60919"
   sodipodi:docname="ЯЗЫК.svg"
   inkscape:version="1.2.1 (9c6d41e410, 2022-07-14)"
   xml:space="preserve"
   xmlns:inkscape="http://www.inkscape.org/namespaces/inkscape"
   xmlns:sodipodi="http://sodipodi.sourceforge.net/DTD/sodipodi-0.dtd"
   xmlns="http://www.w3.org/2000/svg"
   xmlns:svg="http://www.w3.org/2000/svg"><defs
     id="defs228" /><sodipodi:namedview
     id="namedview226"
     pagecolor="#ffffff"
     bordercolor="#111111"
     borderopacity="1"
     inkscape:showpageshadow="0"
     inkscape:pageopacity="0"
     inkscape:pagecheckerboard="1"
     inkscape:deskcolor="#d1d1d1"
     showgrid="false"
     inkscape:zoom="1.0557862"
     inkscape:cx="-100.39911"
     inkscape:cy="185.17007"
     inkscape:window-width="1920"
     inkscape:window-height="1018"
     inkscape:window-x="-6"
     inkscape:window-y="-6"
     inkscape:window-maximized="1"
     inkscape:current-layer="g230" /><g
     inkscape:groupmode="layer"
     inkscape:label="Image"
     id="g230"
     transform="translate(84.131999,-129.12997)"><g
       id="g7087"
       transform="translate(0.94716275,-1.8943234)"><path
         style="fill:#fcfcfc;stroke-width:2.05647"
         d="m 61.01453,174.59371 c -2.356565,-3.54044 -2.289555,-3.61939 0.715294,-0.84279 3.155828,2.91612 4.159426,4.7492 2.600154,4.7492 -0.393413,0 -1.885364,-1.75788 -3.315448,-3.90641 z"
         id="path7119" /><path
         style="fill:#cccccc;stroke-width:2.05647"
         d="m -0.96453466,314.66611 c 0,-3.06932 0.43000972,-4.32494 0.95558009,-2.79029 0.52556849,1.53466 0.52556849,4.04592 0,5.58058 -0.52557037,1.53465 -0.95558009,0.27903 -0.95558009,-2.79029 z m 142.09058466,0 c 0,-3.06932 0.43002,-4.32494 0.95559,-2.79029 0.52556,1.53466 0.52556,4.04592 0,5.58058 -0.52557,1.53465 -0.95559,0.27903 -0.95559,-2.79029 z"
         id="path7117" /><path
         style="fill:#a8a8a8;stroke-width:2.05647"
         d="m 43.850091,163.58187 c 1.367622,-0.64482 3.001664,-0.56552 3.631204,0.17623 0.629539,0.74175 -0.489424,1.26934 -2.486585,1.17241 -2.207033,-0.10711 -2.655957,-0.63605 -1.144619,-1.34864 z m 51.152614,0 c 1.367622,-0.64482 3.001664,-0.56552 3.631205,0.17623 0.629539,0.74175 -0.489425,1.26934 -2.486586,1.17241 -2.207032,-0.10711 -2.655957,-0.63605 -1.144619,-1.34864 z"
         id="path7115" /><path
         style="fill:#9a9a9a;stroke-width:2.05647"
         d="m -13.852985,273.36987 c -0.0057,-11.04954 0.314592,-15.85124 0.711923,-10.67045 0.397331,5.1808 0.402054,14.22132 0.01042,20.09007 -0.391481,5.86874 -0.716569,1.62991 -0.722343,-9.41962 z m 168.614185,0 c -0.006,-11.04954 0.31459,-15.85124 0.71191,-10.67045 0.39732,5.1808 0.40206,14.22132 0.0114,20.09007 -0.39242,5.86874 -0.71752,1.62991 -0.72328,-9.41962 z"
         id="path7113" /><path
         style="fill:#8e8e8e;stroke-width:2.05647"
         d="m 34.281064,226.03039 c 2.356645,-0.53393 5.766819,-0.51366 7.578165,0.045 1.811348,0.55871 -0.116815,0.99557 -4.284806,0.97079 -4.167991,-0.0248 -5.650002,-0.4819 -3.293359,-1.01584 z m 66.308946,0 c 2.35664,-0.53393 5.76682,-0.51366 7.57816,0.045 1.81135,0.55871 -0.11681,0.99557 -4.2848,0.97079 -4.167994,-0.0248 -5.650004,-0.4819 -3.29336,-1.01584 z"
         id="path7111" /><path
         style="fill:#666666;stroke-width:2.05647"
         d="m -0.52756819,280.06655 c 0.003221,-15.96044 0.30507988,-22.1968 0.67058804,-13.8586 0.36551006,8.33822 0.36279897,21.39676 -0.006063,29.01899 -0.36878572,7.62223 -0.66783906,0.80005 -0.66452504,-15.16039 z M 141.56905,278.95044 c 0,-16.5743 0.29824,-23.3547 0.66277,-15.06755 0.36453,8.28715 0.36453,21.84795 0,30.1351 -0.36453,8.28715 -0.66277,1.50675 -0.66277,-15.06755 z"
         id="path7109" /><path
         style="fill:#5e5e5e;stroke-width:2.05647"
         d="m 36.271926,241.7099 c 1.367622,-0.64482 3.001663,-0.56552 3.631204,0.17624 0.629539,0.74175 -0.489424,1.26933 -2.486585,1.17241 -2.207033,-0.1071 -2.655957,-0.63606 -1.144619,-1.34864 z m 66.308944,0 c 1.36762,-0.64482 3.00166,-0.56552 3.6312,0.17624 0.62954,0.74175 -0.48942,1.26933 -2.48658,1.17241 -2.20703,-0.1071 -2.65596,-0.63606 -1.14462,-1.34864 z"
         id="path7107" /><path
         style="fill:#3a3a3a;stroke-width:2.05647"
         d="m 63.812709,276.71821 c 0,-10.43567 0.326346,-14.70481 0.725214,-9.48697 0.398867,5.21783 0.398867,13.75611 0,18.97395 -0.398868,5.21783 -0.725214,0.94869 -0.725214,-9.48698 z m 13.261789,0 c 0,-10.43567 0.326346,-14.70481 0.725213,-9.48697 0.398868,5.21783 0.398868,13.75611 0,18.97395 -0.398867,5.21783 -0.725213,0.94869 -0.725213,-9.48698 z"
         id="path7105" /><path
         style="fill:#121212;stroke-width:2.05647"
         d="m 0.78043637,315.59621 c 0.0909001,-2.60042 0.53983243,-3.12937 1.14461933,-1.34864 0.547278,1.61139 0.4799706,3.53669 -0.1495741,4.27844 -0.6295409,0.74175 -1.07731379,-0.57666 -0.99505092,-2.9298 z"
         id="path7103" /><path
         style="fill:#101010;stroke-width:2.05647"
         d="m 139.23152,314.66611 c 0,-3.06932 0.43001,-4.32494 0.95558,-2.79029 0.52557,1.53466 0.52557,4.04592 0,5.58058 -0.52557,1.53465 -0.95558,0.27903 -0.95558,-2.79029 z"
         id="path7101" /><path
         style="fill:#0a0a0a;stroke-width:2.05647"
         d="m 140.4717,230.54875 c 1.36761,-0.64482 3.00165,-0.56552 3.63121,0.17624 0.62953,0.74175 -0.48944,1.26934 -2.48659,1.17241 -2.20704,-0.1071 -2.65596,-0.63605 -1.14462,-1.34864 z"
         id="path7099" /><path
         style="fill:#080808;stroke-width:2.05647"
         d="m 53.436365,250.48951 c -2.356565,-3.54044 -2.289555,-3.61939 0.715294,-0.84278 1.823496,1.68498 3.315447,3.44286 3.315447,3.9064 0,1.8372 -1.555771,0.65472 -4.030741,-3.06362 z"
         id="path7097" /><path
         style="fill:#060606;stroke-width:2.05647"
         d="m 68.360718,389.08355 c 1.302498,-0.61924 3.433856,-0.61924 4.736354,0 1.302497,0.61924 0.236817,1.12591 -2.368177,1.12591 -2.604994,0 -3.670674,-0.50667 -2.368177,-1.12591 z M 43.850091,165.8141 c 1.367622,-0.64482 3.001664,-0.56552 3.631204,0.17623 0.629539,0.74175 -0.489424,1.26934 -2.486585,1.17241 -2.207033,-0.10711 -2.655957,-0.63605 -1.144619,-1.34864 z m 51.152614,0 c 1.367622,-0.64482 3.001664,-0.56552 3.631205,0.17623 0.629539,0.74175 -0.489425,1.26934 -2.486586,1.17241 -2.207032,-0.10711 -2.655957,-0.63605 -1.144619,-1.34864 z"
         id="path7095" /><path
         style="fill:#050505;stroke-width:2.05647"
         d="m 72.623436,304.8944 c 0,-0.46353 1.491952,-2.22141 3.315447,-3.9064 3.004849,-2.7766 3.071859,-2.69765 0.715294,0.84279 -2.47497,3.71833 -4.030741,4.90081 -4.030741,3.06361 z m -92.832522,-93.75363 c 0,-0.46354 1.491951,-2.22142 3.315447,-3.9064 3.004849,-2.77661 3.071859,-2.69766 0.715294,0.84279 -2.47497,3.71833 -4.030741,4.90081 -4.030741,3.06361 z"
         id="path7093" /><path
         style="fill:#030303;stroke-width:2.05647"
         d="m -15.747527,273.36987 c -0.0057,-11.04954 0.314593,-15.85124 0.711924,-10.67045 0.39733,5.1808 0.402053,14.22132 0.01042,20.09007 -0.391481,5.86874 -0.716569,1.62991 -0.722344,-9.41962 z m 172.403267,0 c -0.006,-11.04954 0.31459,-15.85124 0.71191,-10.67045 0.39732,5.1808 0.40206,14.22132 0.0114,20.09007 -0.39242,5.86874 -0.71752,1.62991 -0.72328,-9.41962 z"
         id="path7091" /><path
         style="fill:#000000;stroke-width:2.05647"
         d="M 52.613375,386.37789 C 42.79152,383.36902 27.277402,372.28941 20.488478,363.43547 5.5334861,343.93157 0.73579908,322.91365 0.66839698,276.60677 L 0.63086802,250.82469 11.52448,248.20267 c 19.208404,-4.62334 31.417004,-5.40419 35.614563,-2.27787 2.134547,1.5898 6.582928,4.89933 9.88529,7.35451 l 6.004292,4.46396 0.534689,22.08547 c 0.439814,18.16671 1.122966,22.52162 3.850134,24.5436 2.413427,1.78936 4.217467,1.78936 6.630894,0 2.727168,-2.02198 3.41032,-6.37689 3.850134,-24.5436 l 0.534689,-22.08547 6.004292,-4.46396 c 3.302362,-2.45518 7.750743,-5.76471 9.88529,-7.35451 4.144681,-3.08694 15.849183,-2.3946 35.614563,2.10666 l 10.89361,2.48085 -0.0375,25.93827 c -0.0206,14.26605 -0.84306,32.46754 -1.82761,40.44776 -3.40088,27.56578 -15.88459,48.88711 -36.61168,62.53027 -9.62678,6.33662 -13.069249,7.33731 -27.47085,7.98541 -9.05568,0.40752 -19.075324,-0.0587 -22.265875,-1.03613 z m -84.771635,-110.26113 -12.896444,-13.94967 11.001903,-2.90732 c 6.051046,-1.59903 12.493854,-3.41524 14.31735,-4.03601 2.962752,-1.00862 3.315448,0.78702 3.315448,16.87957 0,9.90454 -0.639408,17.9981 -1.420906,17.98568 -0.781499,-0.0125 -7.224307,-6.29993 -14.317351,-13.97225 z m 190.03605,-3.72866 v -17.88057 l 6.0714,1.43071 c 3.33928,0.7869 9.4681,2.61241 13.61961,4.05669 l 7.5482,2.62597 -10.30415,11.67151 c -16.79782,19.02685 -16.93506,19.01142 -16.93506,-1.90431 z M -39.154499,237.75316 c 0,-1.72534 10.972818,-16.07374 23.599094,-30.85892 16.7578864,-19.62322 42.297703,-37.06189 57.172084,-39.03729 7.615682,-1.0114 8.926781,-0.37572 16.750437,8.12128 4.66842,5.07022 10.231221,9.21857 12.361779,9.21857 2.130558,0 7.693359,-4.14835 12.361779,-9.21857 7.916279,-8.5976 9.066835,-9.1417 17.080616,-8.07743 21.06877,2.79804 58.5804,34.12114 76.48523,63.867 l 4.51866,7.50698 -8.33326,-1.52438 c -4.58327,-0.83841 -10.89086,-2.45078 -14.01686,-3.58305 -8.51319,-3.08358 -44.07862,-8.70289 -55.37699,-8.74952 -10.898332,-0.045 -24.26511,5.21111 -25.882615,10.17758 -1.420084,4.3603 -11.472537,4.00417 -14.656383,-0.51923 -4.132705,-5.87147 -13.970086,-9.70261 -24.800163,-9.65835 -11.377831,0.0465 -46.9284069,5.65341 -55.476183,8.74952 -8.284767,3.00084 -21.787225,5.22312 -21.787225,3.58581 z"
         id="path7089" /></g></g></svg>
