<?xml version="1.0" encoding="UTF-8" standalone="no"?>
<svg
   xmlns:osb="http://www.openswatchbook.org/uri/2009/osb"
   xmlns:dc="http://purl.org/dc/elements/1.1/"
   xmlns:cc="http://creativecommons.org/ns#"
   xmlns:rdf="http://www.w3.org/1999/02/22-rdf-syntax-ns#"
   xmlns:svg="http://www.w3.org/2000/svg"
   xmlns="http://www.w3.org/2000/svg"
   xmlns:sodipodi="http://sodipodi.sourceforge.net/DTD/sodipodi-0.dtd"
   xmlns:inkscape="http://www.inkscape.org/namespaces/inkscape"
   version="1.1"
   id="svg196"
   width="1236.9657"
   height="1187.0469"
   viewBox="0 0 1236.9657 1187.0469"
   sodipodi:docname="СУПЕР.svg"
   inkscape:version="1.0 (4035a4fb49, 2020-05-01)">
  <metadata
     id="metadata202">
    <rdf:RDF>
      <cc:Work
         rdf:about="">
        <dc:format>image/svg+xml</dc:format>
        <dc:type
           rdf:resource="http://purl.org/dc/dcmitype/StillImage" />
        <dc:title></dc:title>
      </cc:Work>
    </rdf:RDF>
  </metadata>
  <defs
     id="defs200">
    <linearGradient
       id="linearGradient2997"
       osb:paint="solid">
      <stop
         style="stop-color:#000000;stop-opacity:1;"
         offset="0"
         id="stop2995" />
    </linearGradient>
  </defs>
  <sodipodi:namedview
     inkscape:document-rotation="0"
     pagecolor="#ffffff"
     bordercolor="#666666"
     borderopacity="1"
     objecttolerance="10"
     gridtolerance="10"
     guidetolerance="10"
     inkscape:pageopacity="0"
     inkscape:pageshadow="2"
     inkscape:window-width="1920"
     inkscape:window-height="1018"
     id="namedview198"
     showgrid="false"
     inkscape:zoom="0.67846684"
     inkscape:cx="975.46018"
     inkscape:cy="560.91374"
     inkscape:window-x="-6"
     inkscape:window-y="-6"
     inkscape:window-maximized="1"
     inkscape:current-layer="g204" />
  <g
     transform="translate(972.6753,44.963316)"
     inkscape:groupmode="layer"
     inkscape:label="Image"
     id="g204">
    <path
       id="path15"
       d="m -160.28784,1141.6695 c -36.58969,-2.4588 -110.77943,-15.788 -154.7607,-27.8048 -9.97481,-2.7254 -57.30983,-17.818 -105.18892,-33.5392 -47.87909,-15.7212 -96.30226,-30.389 -107.60705,-32.5951 -11.30478,-2.2062 -26.12525,-5.0796 -32.93435,-6.3854 -8.30045,-1.5918 -15.56818,-5.103 -22.05435,-10.6549 -18.91487,-16.1904 -17.55537,5.8269 -17.55537,-284.3144 V 486.95045 l 5.15718,-10.65331 c 6.53204,-13.49339 20.52988,-23.69321 37.29087,-27.17279 27.76206,-5.76338 56.29989,-34.11308 141.15525,-140.22475 21.80286,-27.26448 46.81197,-57.58138 55.5758,-67.37091 47.53528,-53.09862 53.6058,-66.8218 74.99878,-169.544825 13.52538,-64.9450186 39.45484,-108.415964 69.12382,-115.886701 9.82261,-2.473366 47.78263,-0.350385 64.05344,3.582307 52.1127,12.595741 80.325334,33.7078474 101.513794,75.964927 20.87337,41.628697 25.29817,122.349282 10.00808,182.575102 -5.98353,23.56846 -11.66366,37.64549 -30.24749,74.96222 -12.58432,25.26952 -23.55826,48.32872 -24.38654,51.24264 l -1.50599,5.29806 121.62897,0.74728 121.628986,0.74728 18.0814,6.5988 c 44.1349,16.10701 80.3517,53.08415 94.6029,96.58891 7.3631,22.47749 8.0585,64.35554 1.4788,89.0541 -5.0949,19.12479 -18.0839,46.24148 -28.8968,60.32676 l -8.0008,10.42209 5.6865,22.0563 c 4.8615,18.85592 5.5208,26.09135 4.5442,49.86487 -1.3262,32.28235 -7.4641,53.42965 -22.6115,77.90503 -9.3845,15.16338 -9.3973,15.21929 -6.5458,28.49295 3.6931,17.19082 4.0083,42.31796 0.7341,58.52077 -7.1171,35.22022 -22.878,68.82238 -39.3838,83.96622 -6.1481,5.6409 -6.3895,6.84506 -6.3895,31.88224 0,42.39688 -7.7825,70.34638 -28.3581,101.84288 -22.8112,34.9186 -59.595696,57.7471 -110.684686,68.6909 -12.4285597,2.6624 -36.84833,3.8263 -91.88916,4.3797 -41.229224,0.4146 -80.947104,0.3516 -88.261964,-0.14 z M -937.1661,1040.8579 c -12.92049,-4.0948 -25.69668,-15.1359 -30.98178,-26.7743 -4.33372,-9.5434 -4.52742,-20.98808 -4.52742,-267.5014 0,-243.93555 0.23248,-258.04322 4.40357,-267.22476 5.53826,-12.19101 19.20477,-24.34142 31.09162,-27.64242 5.81154,-1.61389 52.2349,-2.52216 127.62277,-2.49694 110.18816,0.0368 119.16624,0.35334 128.1612,4.51785 5.3199,2.46304 12.60727,7.60792 16.19414,11.43304 14.78417,15.7662 14.03256,0.6935 14.03256,281.41323 0,280.7255 0.74621,265.7655 -14.03256,281.3242 -14.66068,15.4343 -9.27868,14.8515 -141.93721,15.3696 -88.23712,0.3447 -123.37109,-0.3087 -130.02689,-2.4181 z m 127.07032,-98.55209 c 27.34347,-7.59333 42.80263,-40.5954 31.09163,-66.37408 -16.39495,-36.08913 -64.53891,-40.37837 -86.33407,-7.69166 -16.69052,25.03119 -6.31876,59.12884 21.92697,72.08599 11.04719,5.06766 20.23081,5.61339 33.31547,1.97975 z"
       style="fill:#000000;stroke-width:2.41814" />
    <path
       style="fill:#070603;fill-opacity:0.951807;fill-rule:evenodd;stroke:#000000;stroke-width:1.47391;stroke-opacity:1"
       d="m 137.64777,977.28469 c 0,-0.81066 -1.65815,-1.47392 -3.68478,-1.47392 -2.02663,0 -3.68478,-0.59135 -3.68478,-1.31412 0,-0.72277 -1.65815,-1.7303 -3.68478,-2.23895 -2.02662,-0.50865 -3.68477,-1.57545 -3.68477,-2.37065 0,-0.79521 -0.66326,-1.44583 -1.47391,-1.44583 -3.33286,0 -14.73912,-15.28073 -14.73912,-19.74569 0,-1.16453 -0.69981,-2.3506 -1.55513,-2.63571 -1.82607,-0.60869 -2.13641,-27.76489 -0.33235,-29.08193 0.64831,-0.47329 2.49892,-3.4392 4.11246,-6.59092 3.44412,-6.72736 12.65691,-17.11523 15.17916,-17.11523 0.96619,0 1.75671,-0.66326 1.75671,-1.47391 0,-0.81066 0.82907,-1.478 1.84239,-1.483 1.01331,-0.005 3.83217,-1.0761 6.26412,-2.38025 6.06797,-3.25396 26.35809,-3.25396 32.42605,0 2.43196,1.30415 4.94288,2.37526 5.57984,2.38025 1.51344,0.0119 11.44001,8.89417 15.12864,13.53712 1.4007,1.76308 4.917,8.08684 8.24325,14.82476 1.78443,3.61467 1.60303,26.18193 -0.21046,26.18193 -0.81065,0 -1.47391,1.65815 -1.47391,3.68477 0,2.02663 -0.66326,3.68478 -1.47391,3.68478 -0.81065,0 -1.47391,0.98047 -1.47391,2.17883 0,2.83621 -15.61972,18.45593 -18.45593,18.45593 -1.19836,0 -2.17883,0.66326 -2.17883,1.47391 0,0.81065 -1.65815,1.47391 -3.68478,1.47391 -2.02663,0 -3.68478,0.66326 -3.68478,1.47392 0,0.867 -5.15869,1.47391 -12.52824,1.47391 -7.36956,0 -12.52825,-0.60691 -12.52825,-1.47391 z"
       id="path222" />
    <path
       style="fill:#070603;fill-opacity:0.951807;fill-rule:evenodd;stroke:#000000;stroke-width:1.47391;stroke-opacity:1"
       d="m 137.64777,977.28469 c -0.50101,-0.81066 -1.92863,-1.47392 -3.17248,-1.47392 -4.1034,0 -20.90835,-12.11347 -21.8147,-15.72463 -0.47434,-1.88992 -1.51305,-3.43621 -2.30826,-3.43621 -0.79521,0 -1.44583,-0.93962 -1.44583,-2.08805 0,-1.14842 -0.71261,-2.32557 -1.58358,-2.6159 -0.87097,-0.29032 -1.95798,-4.65678 -2.41558,-9.70325 -0.4576,-5.04646 -1.48435,-9.17539 -2.28167,-9.17539 -0.94054,0 -0.93412,-0.64705 0.0183,-1.84239 0.80737,-1.01331 1.79291,-5.3952 2.19007,-9.73752 0.39717,-4.34233 1.31013,-8.32189 2.02882,-8.84347 0.71868,-0.52158 2.58607,-3.26974 4.14975,-6.10702 1.56368,-2.83728 4.21672,-6.35959 5.89565,-7.82736 1.67892,-1.46777 4.53158,-3.93901 6.33924,-5.49165 1.80766,-1.55264 5.12397,-3.27271 7.36956,-3.82239 2.24559,-0.54968 4.50247,-1.63952 5.01528,-2.42186 1.26922,-1.93629 27.89966,-1.83556 29.10214,0.11009 0.52093,0.84288 2.70157,1.97285 4.84587,2.51103 2.14429,0.53819 5.40375,2.58055 7.24323,4.5386 1.83949,1.95804 4.2238,3.56007 5.29847,3.56007 1.07466,0 1.95394,0.69125 1.95394,1.53612 0,1.44567 1.1533,3.1129 5.52717,7.99018 1.01331,1.12994 1.84239,2.7098 1.84239,3.5108 0,0.801 0.82907,1.73272 1.84239,2.07049 2.6306,0.87687 2.6306,38.18179 0,39.05865 -1.01332,0.33778 -1.84557,1.38794 -1.84945,2.3337 -0.0102,2.49724 -17.21561,18.66954 -19.86212,18.66954 -1.23172,0 -2.23949,0.66326 -2.23949,1.47391 0,0.81065 -1.65815,1.47391 -3.68478,1.47391 -2.02663,0 -3.68478,0.66326 -3.68478,1.47392 0,1.94184 -23.11941,1.94184 -24.31954,0 z"
       id="path1047" />
    <path
       style="fill:#070603;fill-opacity:0.951807;fill-rule:evenodd;stroke:#000000;stroke-width:1.47391;stroke-opacity:1"
       d="m 137.64777,977.28469 c -0.50101,-0.81066 -1.92863,-1.47392 -3.17248,-1.47392 -4.1034,0 -20.90835,-12.11347 -21.8147,-15.72463 -0.47434,-1.88992 -1.51305,-3.43621 -2.30826,-3.43621 -0.79521,0 -1.44583,-0.93962 -1.44583,-2.08805 0,-1.14842 -0.71261,-2.32557 -1.58358,-2.6159 -0.87097,-0.29032 -1.95798,-4.65678 -2.41558,-9.70325 -0.4576,-5.04646 -1.48435,-9.17539 -2.28167,-9.17539 -0.94054,0 -0.93412,-0.64705 0.0183,-1.84239 0.80737,-1.01331 1.79291,-5.3952 2.19007,-9.73752 0.39717,-4.34233 1.31013,-8.32189 2.02882,-8.84347 0.71868,-0.52158 2.58607,-3.26974 4.14975,-6.10702 1.56368,-2.83728 4.21672,-6.35959 5.89565,-7.82736 1.67892,-1.46777 4.53158,-3.93901 6.33924,-5.49165 1.80766,-1.55264 5.12397,-3.27271 7.36956,-3.82239 2.24559,-0.54968 4.50247,-1.63952 5.01528,-2.42186 1.26922,-1.93629 27.89966,-1.83556 29.10214,0.11009 0.52093,0.84288 2.70157,1.97285 4.84587,2.51103 2.14429,0.53819 5.40375,2.58055 7.24323,4.5386 1.83949,1.95804 4.2238,3.56007 5.29847,3.56007 1.07466,0 1.95394,0.69125 1.95394,1.53612 0,1.44567 1.1533,3.1129 5.52717,7.99018 1.01331,1.12994 1.84239,2.7098 1.84239,3.5108 0,0.801 0.82907,1.73272 1.84239,2.07049 2.6306,0.87687 2.6306,38.18179 0,39.05865 -1.01332,0.33778 -1.84557,1.38794 -1.84945,2.3337 -0.0102,2.49724 -17.21561,18.66954 -19.86212,18.66954 -1.23172,0 -2.23949,0.66326 -2.23949,1.47391 0,0.81065 -1.65815,1.47391 -3.68478,1.47391 -2.02663,0 -3.68478,0.66326 -3.68478,1.47392 0,1.94184 -23.11941,1.94184 -24.31954,0 z"
       id="path1049" />
    <path
       style="fill:#070603;fill-opacity:0.951807;fill-rule:evenodd;stroke:#000000;stroke-width:1.47391;stroke-opacity:1"
       d="m 137.64777,977.28469 c -0.50101,-0.81066 -1.92863,-1.47392 -3.17248,-1.47392 -4.1034,0 -20.90835,-12.11347 -21.8147,-15.72463 -0.47434,-1.88992 -1.51305,-3.43621 -2.30826,-3.43621 -0.79521,0 -1.44583,-0.93962 -1.44583,-2.08805 0,-1.14842 -0.71261,-2.32557 -1.58358,-2.6159 -0.87097,-0.29032 -1.95798,-4.65678 -2.41558,-9.70325 -0.4576,-5.04646 -1.48435,-9.17539 -2.28167,-9.17539 -0.94054,0 -0.93412,-0.64705 0.0183,-1.84239 0.80737,-1.01331 1.79291,-5.3952 2.19007,-9.73752 0.39717,-4.34233 1.31013,-8.32189 2.02882,-8.84347 0.71868,-0.52158 2.58607,-3.26974 4.14975,-6.10702 1.56368,-2.83728 4.21672,-6.35959 5.89565,-7.82736 1.67892,-1.46777 4.53158,-3.93901 6.33924,-5.49165 1.80766,-1.55264 5.12397,-3.27271 7.36956,-3.82239 2.24559,-0.54968 4.50247,-1.63952 5.01528,-2.42186 1.26922,-1.93629 27.89966,-1.83556 29.10214,0.11009 0.52093,0.84288 2.70157,1.97285 4.84587,2.51103 2.14429,0.53819 5.40375,2.58055 7.24323,4.5386 1.83949,1.95804 4.2238,3.56007 5.29847,3.56007 1.07466,0 1.95394,0.69125 1.95394,1.53612 0,1.44567 1.1533,3.1129 5.52717,7.99018 1.01331,1.12994 1.84239,2.7098 1.84239,3.5108 0,0.801 0.82907,1.73272 1.84239,2.07049 2.6306,0.87687 2.6306,38.18179 0,39.05865 -1.01332,0.33778 -1.84557,1.38794 -1.84945,2.3337 -0.0102,2.49724 -17.21561,18.66954 -19.86212,18.66954 -1.23172,0 -2.23949,0.66326 -2.23949,1.47391 0,0.81065 -1.65815,1.47391 -3.68478,1.47391 -2.02663,0 -3.68478,0.66326 -3.68478,1.47392 0,1.94184 -23.11941,1.94184 -24.31954,0 z"
       id="path1051" />
  </g>
</svg>
