<?xml version="1.0" encoding="UTF-8" standalone="no"?>
<!-- Created with Inkscape (http://www.inkscape.org/) -->

<svg
   version="1.1"
   id="svg53"
   width="238"
   height="259"
   viewBox="0 0 238 259"
   sodipodi:docname="МОДЕРАТОР.svg"
   inkscape:version="1.2.1 (9c6d41e410, 2022-07-14)"
   xml:space="preserve"
   xmlns:inkscape="http://www.inkscape.org/namespaces/inkscape"
   xmlns:sodipodi="http://sodipodi.sourceforge.net/DTD/sodipodi-0.dtd"
   xmlns="http://www.w3.org/2000/svg"
   xmlns:svg="http://www.w3.org/2000/svg"><defs
     id="defs57" /><sodipodi:namedview
     id="namedview55"
     pagecolor="#ffffff"
     bordercolor="#111111"
     borderopacity="1"
     inkscape:showpageshadow="0"
     inkscape:pageopacity="0"
     inkscape:pagecheckerboard="1"
     inkscape:deskcolor="#d1d1d1"
     showgrid="false"
     inkscape:zoom="2.476125"
     inkscape:cx="230.60225"
     inkscape:cy="152.85981"
     inkscape:window-width="1920"
     inkscape:window-height="1018"
     inkscape:window-x="-6"
     inkscape:window-y="-6"
     inkscape:window-maximized="1"
     inkscape:current-layer="g59" /><g
     inkscape:groupmode="layer"
     inkscape:label="Image"
     id="g59"
     transform="translate(131.86083,-62.343127)"><path
       style="fill:#ff0000"
       d="m -131.86083,320.92281 c 0,-0.23118 1.40143,-4.39368 3.11428,-9.25 1.71285,-4.85632 4.46606,-11.52968 6.11825,-14.82968 1.6522,-3.3 5.17199,-8.925 7.82178,-12.5 2.64978,-3.575 7.65907,-9.2586 11.13174,-12.63023 3.47267,-3.37163 9.43425,-7.98335 13.247948,-10.24827 3.813698,-2.26492 10.481642,-5.48616 14.817654,-7.1583 4.336011,-1.67214 9.090713,-3.27657 10.566003,-3.5654 l 2.682346,-0.52513 7.604965,3.52694 c 4.182735,1.93981 11.157735,4.55219 15.500005,5.80529 l 7.895025,2.27836 17.5,-0.0519 17.5000004,-0.0519 7.7767296,-2.15563 c 4.2772,-1.18559 11.867,-3.81166 16.86622,-5.83569 l 9.0895,-3.68006 5.63377,1.75465 c 3.09858,0.96506 8.9369,3.27024 12.97406,5.12263 4.03715,1.85239 10.17986,5.39426 13.65046,7.87083 3.4706,2.47657 9.6757,8.16036 13.7891,12.63065 4.83965,5.25955 9.1289,11.2572 12.15454,16.99566 2.57161,4.87733 6.000894,12.78846 7.620634,17.5803 1.61975,4.79178 2.94499,8.85296 2.94499,9.02479 0,0.17182 -53.550004,0.31241 -119.000004,0.31241 -65.449995,0 -118.999996,-0.18914 -118.999996,-0.42032 z m 104.499996,-63.96865 c -2.75,-0.67039 -7.77922,-2.70208 -11.176055,-4.51487 -3.39684,-1.8128 -8.64441,-5.78408 -11.66128,-8.82507 -3.016865,-3.04098 -6.635328,-7.64221 -8.041026,-10.22494 -1.405699,-2.58273 -3.245625,-7.34423 -4.088725,-10.58111 -0.8431,-3.23688 -1.532909,-8.89329 -1.532909,-12.5698 0,-3.86629 0.836835,-9.36405 1.984852,-13.0399 1.091668,-3.49544 3.028259,-8.06387 4.303534,-10.15207 1.275275,-2.0882 4.671808,-6.19585 7.547854,-9.1281 2.87604,-2.93226 7.83861,-6.7222 11.02792,-8.42208 3.189315,-1.69989 8.444145,-3.77974 11.677395,-4.6219 3.23326,-0.84215 8.68694,-1.53119 12.11932,-1.53119 3.43237,0 8.6253304,0.49933 11.5399004,1.10962 2.91456997,0.61029 8.28955,2.66624 11.9444,4.56878 3.6548396,1.90254 9.1274196,5.96126 12.1612696,9.01937 3.03386,3.05812 6.66622,7.67335 8.07192,10.25608 1.4057,2.58273 3.24562,7.34423 4.08872,10.58111 0.8431,3.23688 1.53291,8.89329 1.53291,12.5698 0,3.86629 -0.83683,9.36405 -1.98485,13.0399 -1.09167,3.49544 -3.02826,8.06387 -4.30354,10.15207 -1.27527,2.0882 -4.6718,6.19585 -7.54785,9.1281 -2.87604,2.93226 -7.83861,6.7222 -11.0279196,8.42208 -3.18931,1.69989 -8.44414003,3.77974 -11.67739,4.6219 -3.23326,0.84215 -9.0466004,1.49292 -12.9185504,1.44614 -3.87194,-0.0468 -9.2899,-0.63354 -12.0399,-1.30392 z M -93.345609,130.09313 c -2.64514,-15.5375 -5.015434,-29.9375 -5.267319,-32.000004 -0.251884,-2.062499 -0.253053,-3.749999 -0.0026,-3.749999 0.250456,0 9.825723,4.724999 21.278372,10.500003 11.452648,5.775 20.927131,10.5 21.054406,10.5 0.127274,0 9.767138,-11.925 21.421913,-26.500003 11.65478,-14.575 21.55478,-26.5 22,-26.5 0.44523,0 10.3452304,11.925 22.0000004,26.5 11.6547796,14.575003 21.3582096,26.500003 21.5631596,26.500003 0.20495,0 9.67738,-4.73471 21.04983,-10.52157 11.37246,-5.786864 20.91139,-10.2874 21.19759,-10.001188 0.28621,0.286212 0.0582,3.333424 -0.50663,6.771578 -0.56485,3.43815 -2.96209,17.61368 -5.3272,31.50118 l -4.3002,25.25 h -75.675977 -75.675998 z"
       id="path985" /></g></svg>
