<?xml version="1.0" encoding="UTF-8" standalone="no"?>
<svg
   xmlns:dc="http://purl.org/dc/elements/1.1/"
   xmlns:cc="http://creativecommons.org/ns#"
   xmlns:rdf="http://www.w3.org/1999/02/22-rdf-syntax-ns#"
   xmlns:svg="http://www.w3.org/2000/svg"
   xmlns="http://www.w3.org/2000/svg"
   xmlns:sodipodi="http://sodipodi.sourceforge.net/DTD/sodipodi-0.dtd"
   xmlns:inkscape="http://www.inkscape.org/namespaces/inkscape"
   viewBox="0 0 21.629743 23.728427"
   width="461.43451"
   height="506.20645"
   version="1.1"
   id="svg1361"
   sodipodi:docname="МОДЕРАТОР.svg"
   inkscape:version="1.0 (4035a4fb49, 2020-05-01)">
  <metadata
     id="metadata1367">
    <rdf:RDF>
      <cc:Work
         rdf:about="">
        <dc:format>image/svg+xml</dc:format>
        <dc:type
           rdf:resource="http://purl.org/dc/dcmitype/StillImage" />
        <dc:title></dc:title>
      </cc:Work>
    </rdf:RDF>
  </metadata>
  <defs
     id="defs1365" />
  <sodipodi:namedview
     inkscape:document-rotation="0"
     pagecolor="#ffffff"
     bordercolor="#666666"
     borderopacity="1"
     objecttolerance="10"
     gridtolerance="10"
     guidetolerance="10"
     inkscape:pageopacity="0"
     inkscape:pageshadow="2"
     inkscape:window-width="1920"
     inkscape:window-height="1018"
     id="namedview1363"
     showgrid="false"
     inkscape:zoom="0.83007813"
     inkscape:cx="334.13553"
     inkscape:cy="300.07706"
     inkscape:window-x="-6"
     inkscape:window-y="-6"
     inkscape:window-maximized="1"
     inkscape:current-layer="_01_align_center" />
  <g
     id="_01_align_center"
     data-name="01 align center"
     transform="matrix(0.62673671,0,0,0.50583049,3.520698,10.319698)">
    <path
       id="path8"
       d="M -5.6175073,3.0522523 V -20.401494 l 4.87703796,0.02454 4.87703704,0.02454 0.03547,0.845269 c 0.03275,0.780547 0.05041,0.861285 0.230552,1.05444 0.16466,0.176552 0.195563,0.283099 0.198171,0.683241 0.0049,0.756535 0.108202,1.301969 0.279451,1.475923 0.131641,0.133721 0.163691,0.293162 0.209881,1.044096 0.04829,0.784994 0.07515,0.90978 0.235087,1.091972 0.160189,0.182478 0.184744,0.297189 0.217533,1.0162 0.03306,0.725076 0.0566,0.83325 0.223298,1.026348 0.166472,0.192836 0.191,0.305026 0.230077,1.052371 0.03964,0.758045 0.06261,0.860286 0.244865,1.0897997 0.176562,0.222343 0.201125,0.3215911 0.201125,0.8126519 0,0.7024816 0.100356,1.1838393 0.286163,1.3725827 0.118793,0.1206712 0.152031,0.2965206 0.188851,0.9991618 0.04013,0.7657543 0.06438,0.8775104 0.237844,1.0958209 0.17382,0.2187652 0.196413,0.3236125 0.225679,1.0472659 0.0293,0.7245934 0.05116,0.8257541 0.22091,1.0223855 0.138597,0.1605472 0.190258,0.3141205 0.19546,0.581051 0.01117,0.5731677 0.09061,0.8309281 0.297419,0.9651151 0.178794,0.1160064 0.192081,0.1663947 0.192081,0.728431 0,0.85389302 0.06474,1.20116872 0.244475,1.31145372 0.134203,0.082346 0.162429,0.2135559 0.226031,1.05073268 0.06948,0.9145826 0.109964,1.0509372 0.344837,1.161545 0.03877,0.018256 0.08841,0.4333166 0.110314,0.922356 0.03674,0.820283 0.05464,0.9050647 0.231003,1.0944482 0.154574,0.1659819 0.191985,0.2869043 0.195405,0.6315902 0.0081,0.8159478 0.105742,1.3198949 0.303604,1.5668383 0.1702003,0.21242 0.1887383,0.3021541 0.1887383,0.9135861 0,0.6795406 0.119218,1.1837956 0.298954,1.2644766 0.05811,0.02609 0.117816,0.430526 0.171588,1.162346 0.06917,0.9414297 0.10822,1.1592567 0.242238,1.3513697 0.143697,0.205987 0.164221,0.357833 0.203974,1.50916 0.02959,0.856895 0.07585,1.33148 0.13992,1.435446 0.197115,0.319851 0.751561,0.125685 0.93109,-0.326066 0.04044,-0.101744 0.101116,-0.682984 0.134849,-1.291645 0.05126,-0.92484 0.08594,-1.141934 0.211125,-1.32138 0.158257,-0.226858 0.284511,-1.1581517 0.288804,-2.1303257 0.0012,-0.272748 0.03434,-0.522663 0.07363,-0.555367 0.149894,-0.124756 0.279321,-0.6210361 0.343491,-1.3170922 C 13.220705,6.54121 13.283723,6.280341 13.425421,6.03016 13.528955,5.8473606 13.632324,5.5325915 13.65513,5.3306724 c 0.0228,-0.2019192 0.103978,-0.4600197 0.180382,-0.5735575 0.09437,-0.1402341 0.16968,-0.483745 0.234847,-1.0712186 0.06232,-0.5618251 0.147103,-0.9580543 0.242001,-1.1310149 0.09538,-0.1738356 0.174997,-0.5480351 0.22942,-1.0782497 0.05548,-0.54046998 0.128747,-0.88105568 0.219102,-1.01845348 0.09007,-0.1369622 0.168107,-0.498115 0.231899,-1.0731837 0.0649,-0.58509682 0.140264,-0.93052302 0.231909,-1.06299622 0.128373,-0.1855622 0.297542,-1.1860938 0.297542,-1.7597802 0,-0.1343705 0.0311,-0.2443105 0.06912,-0.2443105 0.131038,0 0.279872,-0.5502763 0.326106,-1.2056999 0.03225,-0.4572148 0.0978,-0.7602966 0.215434,-0.9960952 0.116469,-0.2334676 0.194448,-0.5901618 0.250615,-1.1463831 0.05322,-0.5270219 0.126948,-0.8755453 0.212285,-1.003496 0.135116,-0.202586 0.274278,-0.9787485 0.274278,-1.5297547 0,-0.1729749 0.04284,-0.3721933 0.0952,-0.4427097 0.177576,-0.239136 0.25821,-0.537142 0.330135,-1.220097 0.05669,-0.538328 0.109356,-0.725348 0.250988,-0.891338 0.136545,-0.160029 0.189125,-0.33522 0.220743,-0.735492 0.0246,-0.311434 0.108558,-0.661601 0.206147,-0.859787 0.111254,-0.225938 0.190819,-0.595944 0.245367,-1.141038 0.04578,-0.457488 0.123123,-0.850343 0.178672,-0.907553 0.144738,-0.149068 0.225756,-0.507962 0.282623,-1.25196 0.03491,-0.456735 0.09452,-0.728466 0.190944,-0.870456 0.0962,-0.141654 0.170387,-0.478655 0.236422,-1.07395 0.09985,-0.900084 0.244142,-1.308193 0.493896,-1.396867 0.07803,-0.0277 2.200875,-0.03851 4.717426,-0.02401 l 4.575548,0.02636 V 3.0529105 26.458233 l -3.245447,0.02485 -3.245447,0.02485 v -15.41457 c 0,-14.8414316 0.0049,-15.4204735 0.130411,-15.5734994 0.120005,-0.1462546 0.134065,-0.4225502 0.176229,-3.4630487 0.03023,-2.1800389 0.02122,-3.3660209 -0.0265,-3.4860839 -0.08169,-0.205558 -0.368243,-0.24325 -0.47559,-0.06256 -0.03902,0.06568 -0.09518,0.226889 -0.1248,0.358245 -0.02962,0.131356 -0.124081,0.352002 -0.209909,0.490324 -0.13648,0.219954 -0.167771,0.450576 -0.249508,1.8389892 -0.0514,0.8731226 -0.115435,1.5874961 -0.142297,1.5874961 -0.113046,0 -0.28772,0.6720757 -0.353524,1.3602132 -0.04792,0.5011566 -0.113814,0.7973285 -0.20458,0.9195616 -0.125359,0.1688193 -0.293402,1.107367 -0.293402,1.6387022 0,0.1236661 -0.06674,0.3205125 -0.148303,0.4374359 -0.106291,0.1523667 -0.175478,0.4575693 -0.244231,1.0773766 -0.06258,0.5641399 -0.146985,0.95778402 -0.242788,1.13228642 -0.09815,0.1787861 -0.174359,0.5442979 -0.229782,1.1021328 -0.04561,0.4590481 -0.110665,0.83463278 -0.14457,0.83463278 -0.106729,0 -0.254977,0.6052148 -0.305214,1.246021 -0.0315,0.4017615 -0.106073,0.7334407 -0.213876,0.9512133 -0.113582,0.2294477 -0.192854,0.6005997 -0.252639,1.1828668 -0.06492,0.6323001 -0.126957,0.9063888 -0.243454,1.0756714 -0.08598,0.1249414 -0.177788,0.4094489 -0.204009,0.6322398 -0.02622,0.22279 -0.125331,0.5565098 -0.220243,0.7415981 -0.117795,0.2297161 -0.197198,0.5750249 -0.250176,1.0879691 -0.04842,0.468787 -0.131413,0.849445 -0.220645,1.01198 -0.08973,0.163442 -0.176048,0.561551 -0.231621,1.0682627 -0.05723,0.521871 -0.14196,0.906762 -0.2394,1.08756 -0.103144,0.191383 -0.173929,0.534373 -0.223945,1.085133 -0.05244,0.57745 -0.113419,0.86305 -0.215513,1.009401 -0.100285,0.143757 -0.171384,0.466868 -0.240482,1.092877 -0.05396,0.488828 -0.128934,0.91588 -0.166617,0.949005 -0.140574,0.123566 -0.226353,0.48093 -0.296643,1.23584 -0.05034,0.540688 -0.113434,0.832034 -0.20765,0.958914 -0.126823,0.17079 -0.294849,1.105748 -0.294849,1.64065 0,0.123666 -0.06674,0.320512 -0.148303,0.437436 -0.106291,0.152367 -0.175477,0.457569 -0.244231,1.077376 -0.06232,0.561826 -0.147103,0.958055 -0.242001,1.131015 -0.09538,0.173836 -0.174998,0.548035 -0.22942,1.07825 -0.05203,0.506904 -0.13034,0.883828 -0.208408,1.003124 -0.06878,0.105106 -0.160116,0.40177 -0.202964,0.659252 -0.04285,0.257482 -0.151944,0.586643 -0.242435,0.731468 -0.09049,0.144825 -0.185484,0.439795 -0.211095,0.655487 l -0.04657,0.39217 -2.606021,-0.02506 -2.6060203,-0.02506 -0.03769,-0.505182 c -0.02935,-0.393349 -0.0793,-0.55196 -0.225666,-0.716489 -0.171294,-0.192559 -0.190054,-0.282058 -0.21143,-1.008689 -0.02116,-0.719292 -0.04142,-0.818191 -0.206917,-1.009893 -0.162816,-0.188602 -0.188925,-0.308491 -0.232036,-1.065493 -0.04364,-0.766385 -0.06814,-0.876406 -0.241335,-1.083748 -0.175244,-0.209803 -0.196336,-0.308659 -0.232134,-1.087985 -0.03609,-0.785686 -0.05533,-0.874343 -0.230551,-1.062499 -0.114219,-0.122649 -0.191334,-0.299981 -0.191571,-0.440527 -7.24e-4,-0.429802 -0.142745,-0.939396 -0.277907,-0.997167 -0.168454,-0.072 -0.216095,-0.320681 -0.2173,-1.134267 -8.8e-4,-0.594428 -0.01936,-0.677447 -0.202066,-0.907554 -0.182566,-0.229935 -0.205463,-0.332507 -0.248459,-1.113062 -0.04284,-0.777704 -0.06543,-0.879607 -0.236585,-1.067379 -0.171859,-0.188542 -0.193521,-0.287836 -0.236062,-1.08209 -0.04188,-0.781861 -0.06615,-0.896488 -0.229174,-1.082089 -0.16228,-0.184758 -0.186401,-0.296742 -0.219296,-1.018093 C 4.8969097,9.3609483 4.8715297,9.2411633 4.7139707,9.0586503 4.5735617,8.8960043 4.5247017,8.7245793 4.4853927,8.2566723 4.4416157,7.7355904 4.4102457,7.6422939 4.2332267,7.5067026 4.0463867,7.363589 4.0309927,7.308384 4.0302127,6.7786556 4.0291207,6.0362025 3.9199967,5.5154054 3.7503297,5.4428862 3.6386607,5.3951565 3.6084677,5.2495439 3.5659627,4.5537218 3.5077177,3.6001995 3.4398767,3.2917403 3.2884107,3.2917403 c -0.127267,0 -0.162351,-0.1968168 -0.203484,-1.1415129 C 3.0579757,1.5312722 3.0306017,1.4130935 2.8747117,1.2426741 2.7163097,1.0695091 2.6894637,0.94708112 2.6437027,0.18915562 c -0.046881,-0.7764434 -0.070995,-0.8817559 -0.254865,-1.1130626 -0.186257,-0.23430922 -0.203085,-0.31115412 -0.203085,-0.92742012 0,-0.7755893 -0.0872,-1.1606718 -0.27805,-1.2278823 -0.147781,-0.052043 -0.216068,-0.294033 -0.217552,-0.7709312 -6.39e-4,-0.210754 -0.06628,-0.4033788 -0.203104,-0.5961928 -0.192803,-0.2716919 -0.204315,-0.3389177 -0.249342,-1.4559916 -0.04408,-1.0935693 -0.05888,-1.1840428 -0.223496,-1.3658009 -0.15435404,-0.1704299 -0.17644804,-0.2714788 -0.17755204,-0.8120214 -7.1e-4,-0.3395529 -0.03114,-0.9998409 -0.06765,-1.4673064 -0.05473,-0.7006673 -0.09714,-0.8936123 -0.241473,-1.0986173 -0.0963,-0.136774 -0.19781,-0.420638 -0.225586,-0.630808 -0.05673,-0.429281 -0.218057,-0.907553 -0.306122,-0.907553 -0.03197,0 -0.118935,0.09097 -0.19326,0.20216 -0.127666,0.190983 -0.133825,0.358676 -0.111402,3.0331386 0.02207,2.6319419 0.03329,2.8448453 0.159612,3.0281997 0.13276,0.1926984 0.135877,0.5667785 0.135877,16.3120767 v 16.114855 h -2.80207996 -2.80208 z"
       style="fill:#ff0000;stroke-width:0.082322" />
  </g>
</svg>
