<?xml version="1.0" encoding="UTF-8" standalone="no"?>
<!-- Created with Inkscape (http://www.inkscape.org/) -->

<svg
   version="1.1"
   id="svg224"
   width="76.483269"
   height="50.978275"
   viewBox="0 0 76.483269 50.978275"
   sodipodi:docname="НОМЕР.svg"
   inkscape:version="1.2.1 (9c6d41e410, 2022-07-14)"
   xml:space="preserve"
   xmlns:inkscape="http://www.inkscape.org/namespaces/inkscape"
   xmlns:sodipodi="http://sodipodi.sourceforge.net/DTD/sodipodi-0.dtd"
   xmlns="http://www.w3.org/2000/svg"
   xmlns:svg="http://www.w3.org/2000/svg"><defs
     id="defs228" /><sodipodi:namedview
     id="namedview226"
     pagecolor="#ffffff"
     bordercolor="#111111"
     borderopacity="1"
     inkscape:showpageshadow="0"
     inkscape:pageopacity="0"
     inkscape:pagecheckerboard="1"
     inkscape:deskcolor="#d1d1d1"
     showgrid="false"
     inkscape:zoom="1.0557862"
     inkscape:cx="246.26198"
     inkscape:cy="104.66134"
     inkscape:window-width="1920"
     inkscape:window-height="1018"
     inkscape:window-x="-6"
     inkscape:window-y="-6"
     inkscape:window-maximized="1"
     inkscape:current-layer="g230" /><g
     inkscape:groupmode="layer"
     inkscape:label="Image"
     id="g230"
     transform="translate(430.93417,-280.76865)"><path
       style="fill:#000000"
       d="m -430.93417,306.74692 v -25 h 7.493 7.49301 l 6.95461,13.75 6.95461,13.75 0.0524,-13.75 0.0524,-13.75 h 5.5 5.5 v 25 25 h -5.43208 -5.43207 l -9.04152,-17.25 -9.04152,-17.25 -0.0264,17.25 -0.0264,17.25 h -5.5 -5.5 z m 50,15.5 v -3.5 h 11 11 v 3.5 3.5 h -11 -11 z m 4.01993,-11.18865 c -7.40724,-3.85542 -10.3983,-14.49705 -6.42696,-22.86602 1.86478,-3.92973 8.26585,-7.45667 13.47275,-7.42337 5.28854,0.0338 11.54057,3.32854 13.56673,7.14946 3.71025,6.99676 1.58373,18.67515 -4.0758,22.38342 -3.8273,2.50774 -12.41716,2.9007 -16.53672,0.75651 z m 11.42337,-7.53386 c 2.11661,-3.02189 2.0564,-11.56785 -0.0983,-13.94875 -1.69395,-1.87179 -4.98094,-2.37508 -6.94531,-1.06343 -3.47677,2.3215 -4.55876,11.13489 -1.843,15.01218 2.08628,2.97859 6.80031,2.97859 8.88659,0 z"
       id="path127" /></g></svg>
