<?xml version="1.0" encoding="UTF-8" standalone="no"?>
<!-- Creator: CorelDRAW 2019 (64-Bit) -->

<svg
   xml:space="preserve"
   width="27.086872mm"
   height="36.831268mm"
   version="1.1"
   style="clip-rule:evenodd;fill-rule:evenodd;image-rendering:optimizeQuality;shape-rendering:geometricPrecision;text-rendering:geometricPrecision"
   viewBox="0 0 46.807251 63.652442"
   id="svg10"
   sodipodi:docname="ОТКРЫТО.svg"
   inkscape:version="1.2.1 (9c6d41e410, 2022-07-14)"
   xmlns:inkscape="http://www.inkscape.org/namespaces/inkscape"
   xmlns:sodipodi="http://sodipodi.sourceforge.net/DTD/sodipodi-0.dtd"
   xmlns="http://www.w3.org/2000/svg"
   xmlns:svg="http://www.w3.org/2000/svg"><sodipodi:namedview
   id="namedview12"
   pagecolor="#ffffff"
   bordercolor="#111111"
   borderopacity="1"
   inkscape:showpageshadow="0"
   inkscape:pageopacity="0"
   inkscape:pagecheckerboard="1"
   inkscape:deskcolor="#d1d1d1"
   inkscape:document-units="mm"
   showgrid="false"
   inkscape:zoom="3.0045891"
   inkscape:cx="90.528185"
   inkscape:cy="75.717508"
   inkscape:window-width="1920"
   inkscape:window-height="1018"
   inkscape:window-x="-6"
   inkscape:window-y="-6"
   inkscape:window-maximized="1"
   inkscape:current-layer="Слой_x0020_1" />
 <defs
   id="defs4">
  <style
   type="text/css"
   id="style2">
   <![CDATA[
    .fil0 {fill:#2B2A29}
   ]]>
  </style>
 </defs>
 <g
   id="Слой_x0020_1"
   inkscape:label="Слой 1"
   inkscape:groupmode="layer"
   transform="translate(-2.0126438,-0.10241308)">
  <metadata
   id="CorelCorpID_0Corel-Layer" />
  
 <path
   style="fill:#000000;stroke-width:0.153646"
   d="m 18.575011,61.445682 v -2.309174 h -4.472043 c -2.459623,0 -6.1867019,-0.03889 -8.2823979,-0.08642 l -3.810357,-0.08642 0.04544,-27.087974 0.04544,-27.087975 8.2369609,-0.034102 8.236962,-0.034102 V 2.4109641 0.10241308 l 0.405096,0.077708 c 0.73124,0.1402711 17.086,2.78611912 24.000838,3.88281862 2.6792,0.4249244 5.08953,0.8124817 5.35627,0.8612385 l 0.485,0.088649 -1.8e-4,26.9635028 -1.8e-4,26.963502 -6.70641,1.080257 c -13.073437,2.105845 -22.198949,3.561607 -22.865274,3.647617 l -0.67516,0.08715 z m 0,-29.516349 V 9.1802017 H 12.813639 7.0522671 V 31.929333 54.678465 h 5.7613719 5.761372 z m 6.042535,1.817697 c 1.19802,-0.95252 1.180471,-2.680687 -0.03622,-3.566759 -0.501576,-0.36528 -0.693538,-0.426739 -1.10136,-0.352618 -1.112301,0.202162 -1.664187,0.898705 -1.664187,2.100393 0,1.011623 0.451836,1.788085 1.21628,2.090131 0.728621,0.28789 0.924496,0.254392 1.585484,-0.271147 z"
   id="path73" /></g>
</svg>
