<?xml version="1.0" encoding="UTF-8" standalone="no"?>
<svg
   xmlns:dc="http://purl.org/dc/elements/1.1/"
   xmlns:cc="http://creativecommons.org/ns#"
   xmlns:rdf="http://www.w3.org/1999/02/22-rdf-syntax-ns#"
   xmlns:svg="http://www.w3.org/2000/svg"
   xmlns="http://www.w3.org/2000/svg"
   xmlns:sodipodi="http://sodipodi.sourceforge.net/DTD/sodipodi-0.dtd"
   xmlns:inkscape="http://www.inkscape.org/namespaces/inkscape"
   version="1.1"
   id="svg11"
   width="312.62378"
   height="1547.6498"
   viewBox="0 0 312.62378 1547.6498"
   sodipodi:docname="ПРОСМОТР.svg"
   inkscape:version="1.0 (4035a4fb49, 2020-05-01)">
  <metadata
     id="metadata17">
    <rdf:RDF>
      <cc:Work
         rdf:about="">
        <dc:format>image/svg+xml</dc:format>
        <dc:type
           rdf:resource="http://purl.org/dc/dcmitype/StillImage" />
        <dc:title></dc:title>
      </cc:Work>
    </rdf:RDF>
  </metadata>
  <defs
     id="defs15" />
  <sodipodi:namedview
     inkscape:document-rotation="0"
     pagecolor="#ffffff"
     bordercolor="#666666"
     borderopacity="1"
     objecttolerance="10"
     gridtolerance="10"
     guidetolerance="10"
     inkscape:pageopacity="0"
     inkscape:pageshadow="2"
     inkscape:window-width="1920"
     inkscape:window-height="1018"
     id="namedview13"
     showgrid="false"
     inkscape:zoom="0.38028547"
     inkscape:cx="549.8341"
     inkscape:cy="680.07601"
     inkscape:window-x="-6"
     inkscape:window-y="-6"
     inkscape:window-maximized="1"
     inkscape:current-layer="g19" />
  <g
     transform="translate(639.288,64.638021)"
     inkscape:groupmode="layer"
     inkscape:label="Image"
     id="g19">
    <path
       id="path8"
       d="m -527.48366,1475.0212 c -43.92854,-14.6069 -72.93823,-41.4031 -96.01141,-88.6856 -6.70947,-13.7493 -9.30579,-30.8937 -9.43774,-62.3207 -0.15422,-36.7325 1.86135,-47.5663 13.19754,-70.9374 27.60975,-56.9213 73.87358,-86.0572 136.64711,-86.0572 62.77352,0 109.03735,29.1359 136.6471,86.0572 11.2982,23.2928 13.36636,34.328 13.29468,70.9374 -0.0738,37.6794 -2.01178,47.1582 -14.8076,72.4233 -18.96114,37.4384 -49.40583,64.1564 -87.87812,77.121 -36.09683,12.1641 -58.39611,12.5198 -91.65156,1.462 z m -3.60769,-421.9357 c -28.32919,-9.8438 -65.25586,-44.2619 -83.45949,-77.7898 -12.01065,-22.1216 -13.68489,-30.8407 -13.68489,-71.2684 0,-40.8868 1.66145,-49.31072 14.78478,-74.9622 27.63494,-54.01658 76.9563,-84.85196 135.36787,-84.63107 46.78262,0.17666 79.88229,16.17326 111.86392,54.06145 67.48642,79.95029 46.17469,196.14372 -45.32097,247.09392 -27.47937,15.3022 -86.44575,18.9995 -119.55122,7.4961 z m -1.15675,-400.74938 c -50.43642,-15.68657 -86.8604,-55.24761 -101.67787,-110.43511 -24.69925,-91.99194 38.74833,-187.64319 132.4371,-199.65729 36.54148,-4.68586 87.86345,13.47214 117.25724,41.48627 34.41294,32.79772 46.16637,63.11928 46.23486,119.27692 0.0491,40.39717 -1.61334,49.138 -13.51651,71.06108 -36.51825,67.2586 -111.59597,99.77138 -180.73482,78.26813 z m -6.94094,-408.66496 c -37.00015,-14.12454 -68.15982,-43.75362 -84.95207,-80.77914 -36.14556,-79.698008 -4.35897,-173.048899 71.84671,-210.999437 39.15718,-19.500337 69.06781,-21.471329 111.92859,-7.375651 30.16257,9.919601 40.63606,16.702218 62.72932,40.623406 20.72829,22.4432802 28.37205,35.608525 34.99404,60.272024 28.12974,104.768798 -35.88823,200.597068 -137.86253,206.365948 -22.56392,1.27648 -40.64719,-1.22171 -58.68406,-8.10715 z"
       style="fill:#000000;stroke-width:5.20803" />
  </g>
</svg>
