<?xml version="1.0" encoding="UTF-8" standalone="no"?>
<svg
   viewBox="0 0 558.57268 561.12316"
   version="1.1"
   id="svg1793"
   sodipodi:docname="ОПЦИИ ПАРТНЕРЫ.svg"
   xml:space="preserve"
   inkscape:version="1.2.1 (9c6d41e410, 2022-07-14)"
   width="558.57269"
   height="561.12317"
   xmlns:inkscape="http://www.inkscape.org/namespaces/inkscape"
   xmlns:sodipodi="http://sodipodi.sourceforge.net/DTD/sodipodi-0.dtd"
   xmlns:xlink="http://www.w3.org/1999/xlink"
   xmlns="http://www.w3.org/2000/svg"
   xmlns:svg="http://www.w3.org/2000/svg"
   xmlns:rdf="http://www.w3.org/1999/02/22-rdf-syntax-ns#"
   xmlns:cc="http://creativecommons.org/ns#"
   xmlns:dc="http://purl.org/dc/elements/1.1/"><sodipodi:namedview
     id="namedview1795"
     pagecolor="#ffffff"
     bordercolor="#111111"
     borderopacity="1"
     inkscape:showpageshadow="0"
     inkscape:pageopacity="0"
     inkscape:pagecheckerboard="1"
     inkscape:deskcolor="#d1d1d1"
     showgrid="false"
     inkscape:zoom="1.0439548"
     inkscape:cx="143.68438"
     inkscape:cy="309.87932"
     inkscape:window-width="1920"
     inkscape:window-height="1018"
     inkscape:window-x="-6"
     inkscape:window-y="-6"
     inkscape:window-maximized="1"
     inkscape:current-layer="svg1793" /><defs
     id="defs1248"><style
       id="style920">
      .cls-1 {
        fill: url(#radial-gradient);
      }

      .cls-2 {
        fill: url(#radial-gradient-2);
      }

      .cls-3 {
        fill: url(#radial-gradient-3);
      }

      .cls-4 {
        fill: url(#radial-gradient-4);
      }

      .cls-5 {
        fill: url(#radial-gradient-5);
      }

      .cls-6 {
        fill: url(#radial-gradient-6);
      }

      .cls-7 {
        fill: url(#radial-gradient-7);
      }

      .cls-8 {
        fill: url(#radial-gradient-8);
      }

      .cls-9 {
        fill: url(#radial-gradient-9);
      }

      .cls-10 {
        fill: url(#radial-gradient-11);
      }

      .cls-11 {
        fill: url(#radial-gradient-12);
      }

      .cls-12 {
        fill: url(#radial-gradient-13);
      }

      .cls-13 {
        fill: url(#radial-gradient-14);
      }

      .cls-14 {
        fill: url(#radial-gradient-15);
      }

      .cls-15 {
        fill: url(#radial-gradient-16);
      }

      .cls-16 {
        fill: url(#radial-gradient-17);
      }

      .cls-17 {
        fill: url(#radial-gradient-18);
      }

      .cls-18 {
        fill: url(#radial-gradient-19);
      }

      .cls-19 {
        fill: url(#radial-gradient-21);
      }

      .cls-20 {
        fill: url(#radial-gradient-22);
      }

      .cls-21 {
        fill: url(#radial-gradient-23);
      }

      .cls-22 {
        fill: url(#radial-gradient-24);
      }

      .cls-23 {
        fill: url(#radial-gradient-25);
      }

      .cls-24 {
        fill: url(#radial-gradient-26);
      }

      .cls-25 {
        fill: url(#radial-gradient-27);
      }

      .cls-26 {
        fill: url(#radial-gradient-28);
      }

      .cls-27 {
        fill: url(#radial-gradient-29);
      }

      .cls-28 {
        fill: url(#radial-gradient-31);
      }

      .cls-29 {
        fill: url(#radial-gradient-32);
      }

      .cls-30 {
        fill: url(#radial-gradient-33);
      }

      .cls-31 {
        fill: url(#radial-gradient-34);
      }

      .cls-32 {
        fill: url(#radial-gradient-35);
      }

      .cls-33 {
        fill: url(#radial-gradient-36);
      }

      .cls-34 {
        fill: url(#radial-gradient-37);
      }

      .cls-35 {
        fill: url(#radial-gradient-38);
      }

      .cls-36 {
        fill: url(#radial-gradient-39);
      }

      .cls-37 {
        fill: url(#radial-gradient-41);
      }

      .cls-38 {
        fill: url(#radial-gradient-42);
      }

      .cls-39 {
        fill: url(#radial-gradient-43);
      }

      .cls-40 {
        fill: url(#radial-gradient-44);
      }

      .cls-41 {
        fill: url(#radial-gradient-45);
      }

      .cls-42 {
        fill: url(#radial-gradient-46);
      }

      .cls-43 {
        fill: url(#radial-gradient-47);
      }

      .cls-44 {
        fill: url(#radial-gradient-48);
      }

      .cls-45 {
        fill: url(#radial-gradient-49);
      }

      .cls-46 {
        fill: url(#radial-gradient-51);
      }

      .cls-47 {
        fill: url(#radial-gradient-52);
      }

      .cls-48 {
        fill: url(#radial-gradient-53);
      }

      .cls-49 {
        fill: url(#radial-gradient-54);
      }

      .cls-50 {
        fill: url(#radial-gradient-56);
      }

      .cls-51 {
        fill: url(#radial-gradient-57);
      }

      .cls-52, .cls-53, .cls-54, .cls-55, .cls-56, .cls-57, .cls-58, .cls-59, .cls-60, .cls-86 {
        fill: none;
      }

      .cls-53 {
        clip-path: url(#clip-path);
      }

      .cls-54 {
        clip-path: url(#clip-path-8);
      }

      .cls-55 {
        clip-path: url(#clip-path-2);
      }

      .cls-56 {
        clip-path: url(#clip-path-3);
      }

      .cls-57 {
        clip-path: url(#clip-path-4);
      }

      .cls-58 {
        clip-path: url(#clip-path-5);
      }

      .cls-59 {
        clip-path: url(#clip-path-6);
      }

      .cls-60 {
        clip-path: url(#clip-path-7);
      }

      .cls-61 {
        isolation: isolate;
      }

      .cls-62 {
        clip-path: url(#clip-path-9);
      }

      .cls-63 {
        mask: url(#mask);
      }

      .cls-64, .cls-69 {
        fill: #fff;
      }

      .cls-64, .cls-90 {
        mix-blend-mode: overlay;
      }

      .cls-65 {
        mask: url(#mask-2);
      }

      .cls-66 {
        mask: url(#mask-3);
      }

      .cls-67 {
        mask: url(#mask-4);
      }

      .cls-68 {
        mask: url(#mask-5);
      }

      .cls-70 {
        mask: url(#mask-6);
      }

      .cls-71 {
        opacity: 0.3;
        fill: url(#radial-gradient-58);
      }

      .cls-71, .cls-80, .cls-81, .cls-82, .cls-83, .cls-84 {
        mix-blend-mode: color-dodge;
      }

      .cls-72, .cls-90 {
        opacity: 0.5;
      }

      .cls-73 {
        mix-blend-mode: multiply;
      }

      .cls-74 {
        clip-path: url(#clip-path-10);
      }

      .cls-75 {
        fill: url(#linear-gradient);
      }

      .cls-76 {
        fill: url(#linear-gradient-2);
      }

      .cls-77 {
        fill: url(#linear-gradient-3);
      }

      .cls-78 {
        fill: url(#linear-gradient-4);
      }

      .cls-79 {
        fill: #f7e8da;
      }

      .cls-80 {
        opacity: 0.8;
        fill: url(#radial-gradient-59);
      }

      .cls-81 {
        opacity: 0.67;
        fill: url(#radial-gradient-60);
      }

      .cls-82 {
        fill: url(#radial-gradient-61);
      }

      .cls-83 {
        fill: url(#radial-gradient-62);
      }

      .cls-84 {
        fill: url(#radial-gradient-63);
      }

      .cls-85, .cls-87 {
        fill: #ff7009;
      }

      .cls-85, .cls-86, .cls-87 {
        stroke: #000;
        stroke-miterlimit: 10;
      }

      .cls-85 {
        stroke-width: 0.17443px;
      }

      .cls-86 {
        stroke-width: 3px;
      }

      .cls-87 {
        stroke-width: 0.17774px;
      }

      .cls-88 {
        mask: url(#mask-7);
      }

      .cls-89 {
        mask: url(#mask-8);
      }

      .cls-90 {
        fill: #030303;
      }

      .cls-91 {
        mask: url(#mask-9);
      }

      .cls-92 {
        mask: url(#mask-10);
      }

      .cls-93 {
        mask: url(#mask-11);
      }

      .cls-94 {
        mask: url(#mask-12);
      }

      .cls-95 {
        mask: url(#mask-13);
      }

      .cls-96 {
        mask: url(#mask-14);
      }

      .cls-97 {
        mask: url(#mask-15);
      }

      .cls-98 {
        mask: url(#mask-16);
      }

      .cls-99 {
        mask: url(#mask-17);
      }

      .cls-100 {
        mask: url(#mask-19);
      }

      .cls-101 {
        mask: url(#mask-20);
      }

      .cls-102 {
        mask: url(#mask-21);
      }

      .cls-103 {
        mask: url(#mask-22);
      }

      .cls-104 {
        mask: url(#mask-23);
      }

      .cls-105 {
        mask: url(#mask-24);
      }

      .cls-106 {
        mask: url(#mask-25);
      }

      .cls-107 {
        mask: url(#mask-26);
      }

      .cls-108 {
        mask: url(#mask-28);
      }

      .cls-109 {
        mask: url(#mask-29);
      }

      .cls-110 {
        opacity: 0.6;
      }

      .cls-111 {
        mask: url(#mask-30);
      }

      .cls-112 {
        mask: url(#mask-31);
      }

      .cls-113 {
        mask: url(#mask-32);
      }

      .cls-114 {
        mask: url(#mask-33);
      }

      .cls-115 {
        mask: url(#mask-34);
      }

      .cls-116 {
        mask: url(#mask-35);
      }

      .cls-117 {
        mask: url(#mask-37);
      }

      .cls-118 {
        mask: url(#mask-38);
      }

      .cls-119 {
        clip-path: url(#clip-path-11);
      }

      .cls-120 {
        mask: url(#mask-39);
      }

      .cls-121 {
        mask: url(#mask-40);
      }

      .cls-122 {
        mask: url(#mask-41);
      }

      .cls-123 {
        mask: url(#mask-42);
      }

      .cls-124 {
        mask: url(#mask-43);
      }

      .cls-125 {
        mask: url(#mask-44);
      }

      .cls-126 {
        mask: url(#mask-46);
      }

      .cls-127 {
        mask: url(#mask-47);
      }

      .cls-128 {
        clip-path: url(#clip-path-12);
      }

      .cls-129 {
        mask: url(#mask-48);
      }

      .cls-130 {
        mask: url(#mask-49);
      }

      .cls-131 {
        mask: url(#mask-50);
      }

      .cls-132 {
        mask: url(#mask-51);
      }

      .cls-133 {
        mask: url(#mask-52);
      }

      .cls-134 {
        mask: url(#mask-53);
      }

      .cls-135 {
        mask: url(#mask-55);
      }

      .cls-136 {
        mask: url(#mask-56);
      }
    </style><radialGradient
       id="radial-gradient"
       cx="8237.7695"
       cy="2885.6951"
       r="136.18636"
       gradientTransform="matrix(-0.216,0.75768,-0.97796,-0.28443,5251.9708,-5143.9097)"
       gradientUnits="userSpaceOnUse"><stop
         offset="0"
         stop-color="#4a4848"
         id="stop922" /><stop
         offset="1"
         stop-color="#020000"
         id="stop924" /></radialGradient><radialGradient
       id="radial-gradient-2"
       cx="8244.7988"
       cy="2882.7891"
       r="148.04797"
       xlink:href="#radial-gradient" /><radialGradient
       id="radial-gradient-3"
       cx="1242.4672"
       cy="1779.7726"
       r="107.5862"
       gradientTransform="matrix(0.78713,0.03506,-0.03996,1.01766,-503.99377,-1573.636)"
       xlink:href="#radial-gradient" /><radialGradient
       id="radial-gradient-4"
       cx="5329.1577"
       cy="2223.0308"
       r="51.176231"
       gradientTransform="matrix(0.41525,0.66956,-0.86839,0.53218,90.78117,-4371.9614)"
       xlink:href="#radial-gradient" /><radialGradient
       id="radial-gradient-5"
       cx="5331.7988"
       cy="2221.9387"
       r="55.633598"
       gradientTransform="matrix(0.41525,0.66956,-0.86839,0.53218,90.78117,-4371.9614)"
       xlink:href="#radial-gradient" /><radialGradient
       id="radial-gradient-6"
       cx="5411.0913"
       cy="2223.4846"
       r="59.705502"
       gradientTransform="matrix(0.39414,0.6355,-0.86839,0.53218,173.60874,-4238.5254)"
       xlink:href="#radial-gradient" /><radialGradient
       id="radial-gradient-7"
       cx="5333.0713"
       cy="2219.5662"
       r="52.76976"
       gradientTransform="matrix(0.41525,0.66956,-0.86839,0.53218,90.78117,-4371.9614)"
       xlink:href="#radial-gradient" /><radialGradient
       id="radial-gradient-8"
       cx="5329.4175"
       cy="2210.874"
       r="42.709541"
       gradientTransform="matrix(0.41525,0.66956,-0.86839,0.53218,90.78117,-4371.9614)"
       xlink:href="#radial-gradient" /><radialGradient
       id="radial-gradient-9"
       cx="5941.6646"
       cy="1909.6281"
       r="36.00251"
       gradientTransform="matrix(0.24993,0.74597,-0.96919,0.31768,741.41231,-4671.9074)"
       xlink:href="#radial-gradient" /><radialGradient
       id="radial-gradient-11"
       cx="5946.6138"
       cy="1909.6034"
       r="40.950062"
       gradientTransform="matrix(0.24993,0.74597,-0.96919,0.31768,741.41231,-4671.9074)"
       xlink:href="#radial-gradient" /><radialGradient
       id="radial-gradient-12"
       cx="5950.0054"
       cy="1909.6295"
       r="44.337971"
       gradientTransform="matrix(0.24993,0.74597,-0.96919,0.31768,741.41231,-4671.9074)"
       xlink:href="#radial-gradient" /><radialGradient
       id="radial-gradient-13"
       cx="8486.1992"
       cy="2886.697"
       r="158.8838"
       gradientTransform="matrix(-0.205,0.71916,-0.97796,-0.28443,5208.9736,-4992.8573)"
       xlink:href="#radial-gradient" /><radialGradient
       id="radial-gradient-14"
       cx="5477.2432"
       cy="2067.3115"
       r="51.176231"
       gradientTransform="matrix(0.44217,0.69344,-0.92468,0.55116,-132.13179,-4563.2389)"
       xlink:href="#radial-gradient" /><radialGradient
       id="radial-gradient-15"
       cx="5479.8848"
       cy="2066.2192"
       r="55.633598"
       gradientTransform="matrix(0.44217,0.69344,-0.92468,0.55116,-132.13179,-4563.2389)"
       xlink:href="#radial-gradient" /><radialGradient
       id="radial-gradient-16"
       cx="5567.1118"
       cy="2067.7678"
       r="59.705502"
       gradientTransform="matrix(0.41969,0.65816,-0.92468,0.55116,-43.93464,-4425.0443)"
       xlink:href="#radial-gradient" /><radialGradient
       id="radial-gradient-17"
       cx="5481.1572"
       cy="2063.8467"
       r="52.76976"
       gradientTransform="matrix(0.44217,0.69344,-0.92468,0.55116,-132.13179,-4563.2389)"
       xlink:href="#radial-gradient" /><radialGradient
       id="radial-gradient-18"
       cx="5477.5029"
       cy="2055.1548"
       r="42.709541"
       gradientTransform="matrix(0.44217,0.69344,-0.92468,0.55116,-132.13179,-4563.2389)"
       xlink:href="#radial-gradient" /><radialGradient
       id="radial-gradient-19"
       cx="6039.2134"
       cy="1731.8132"
       r="36.00251"
       gradientTransform="matrix(0.26613,0.77258,-1.03202,0.329,560.67877,-4873.8813)"
       xlink:href="#radial-gradient" /><radialGradient
       id="radial-gradient-21"
       cx="6044.1621"
       cy="1731.7887"
       r="40.950062"
       gradientTransform="matrix(0.26613,0.77258,-1.03202,0.329,560.67877,-4873.8813)"
       xlink:href="#radial-gradient" /><radialGradient
       id="radial-gradient-22"
       cx="6047.5537"
       cy="1731.8148"
       r="44.337971"
       gradientTransform="matrix(0.26613,0.77258,-1.03202,0.329,560.67877,-4873.8813)"
       xlink:href="#radial-gradient" /><radialGradient
       id="radial-gradient-23"
       cx="8227.3965"
       cy="3216.3218"
       r="115.37826"
       xlink:href="#radial-gradient" /><radialGradient
       id="radial-gradient-24"
       cx="8248.1846"
       cy="2876.4751"
       r="140.42693"
       xlink:href="#radial-gradient" /><radialGradient
       id="radial-gradient-25"
       cx="8233.3516"
       cy="3213.8596"
       r="125.42752"
       xlink:href="#radial-gradient" /><radialGradient
       id="radial-gradient-26"
       cx="8472.6631"
       cy="3217.2024"
       r="134.60773"
       gradientTransform="matrix(-0.205,0.71916,-0.97796,-0.28443,5208.9736,-4992.8573)"
       xlink:href="#radial-gradient" /><radialGradient
       id="radial-gradient-27"
       cx="8236.2197"
       cy="3208.5105"
       r="118.9709"
       xlink:href="#radial-gradient" /><radialGradient
       id="radial-gradient-28"
       cx="8227.9824"
       cy="3188.9141"
       r="96.289864"
       xlink:href="#radial-gradient" /><radialGradient
       id="radial-gradient-29"
       cx="9041.7383"
       cy="2354.2156"
       r="81.168671"
       gradientTransform="matrix(-0.38376,0.68678,-0.88708,-0.50332,5911.6147,-4864.3417)"
       xlink:href="#radial-gradient" /><radialGradient
       id="radial-gradient-31"
       cx="9052.8955"
       cy="2354.1602"
       r="92.323067"
       gradientTransform="matrix(-0.38376,0.68678,-0.88708,-0.50332,5911.6147,-4864.3417)"
       xlink:href="#radial-gradient" /><radialGradient
       id="radial-gradient-32"
       cx="9060.542"
       cy="2354.2192"
       r="99.961197"
       gradientTransform="matrix(-0.38376,0.68678,-0.88708,-0.50332,5911.6147,-4864.3417)"
       xlink:href="#radial-gradient" /><radialGradient
       id="radial-gradient-33"
       cx="8204.4668"
       cy="3222.1523"
       r="136.18636"
       xlink:href="#radial-gradient" /><radialGradient
       id="radial-gradient-34"
       cx="8211.4961"
       cy="3219.2461"
       r="148.04797"
       xlink:href="#radial-gradient" /><radialGradient
       id="radial-gradient-35"
       cx="8969.54"
       cy="2028.1936"
       r="117.98889"
       gradientTransform="matrix(-0.38376,0.68678,-0.88708,-0.50332,5911.6147,-4864.3417)"
       xlink:href="#radial-gradient" /><radialGradient
       id="radial-gradient-36"
       cx="8451.1123"
       cy="3223.1536"
       r="158.8838"
       gradientTransform="matrix(-0.205,0.71916,-0.97796,-0.28443,5208.9736,-4992.8573)"
       xlink:href="#radial-gradient" /><radialGradient
       id="radial-gradient-37"
       cx="8214.8818"
       cy="3212.9324"
       r="140.42693"
       xlink:href="#radial-gradient" /><radialGradient
       id="radial-gradient-38"
       cx="8205.1582"
       cy="3189.8018"
       r="113.65543"
       xlink:href="#radial-gradient" /><radialGradient
       id="radial-gradient-39"
       cx="9015.541"
       cy="2361.5068"
       r="95.807182"
       gradientTransform="matrix(-0.38376,0.68678,-0.88708,-0.50332,5911.6147,-4864.3417)"
       xlink:href="#radial-gradient" /><radialGradient
       id="radial-gradient-41"
       cx="9028.71"
       cy="2361.4414"
       r="108.97324"
       gradientTransform="matrix(-0.38376,0.68678,-0.88708,-0.50332,5911.6147,-4864.3417)"
       xlink:href="#radial-gradient" /><radialGradient
       id="radial-gradient-42"
       cx="9037.7354"
       cy="2361.511"
       r="117.98889"
       gradientTransform="matrix(-0.38376,0.68678,-0.88708,-0.50332,5911.6147,-4864.3417)"
       xlink:href="#radial-gradient" /><radialGradient
       id="radial-gradient-43"
       cx="8469.1582"
       cy="3502.5808"
       r="136.18636"
       xlink:href="#radial-gradient" /><radialGradient
       id="radial-gradient-44"
       cx="8476.1865"
       cy="3499.6746"
       r="148.04797"
       xlink:href="#radial-gradient" /><radialGradient
       id="radial-gradient-45"
       cx="8729.9854"
       cy="3503.5867"
       r="158.8838"
       gradientTransform="matrix(-0.205,0.71916,-0.97796,-0.28443,5208.9736,-4992.8573)"
       xlink:href="#radial-gradient" /><radialGradient
       id="radial-gradient-46"
       cx="4089.0166"
       cy="2953.5498"
       r="208.90215"
       gradientTransform="matrix(0.56429,0.85264,-0.8528,0.55736,495.69011,-4848.9425)"
       gradientUnits="userSpaceOnUse"><stop
         offset="0.97191"
         stop-color="#fff"
         id="stop967" /><stop
         offset="1"
         stop-color="#020100"
         id="stop969" /></radialGradient><radialGradient
       id="radial-gradient-47"
       cx="8479.5723"
       cy="3493.3606"
       r="140.42693"
       xlink:href="#radial-gradient" /><radialGradient
       id="radial-gradient-48"
       cx="8469.8486"
       cy="3470.2302"
       r="113.65543"
       xlink:href="#radial-gradient" /><radialGradient
       id="radial-gradient-49"
       cx="9356.9766"
       cy="2587.4109"
       r="95.807182"
       gradientTransform="matrix(-0.38376,0.68678,-0.88708,-0.50332,5911.6147,-4864.3417)"
       xlink:href="#radial-gradient" /><radialGradient
       id="radial-gradient-51"
       cx="9370.1455"
       cy="2587.3455"
       r="108.97324"
       gradientTransform="matrix(-0.38376,0.68678,-0.88708,-0.50332,5911.6147,-4864.3417)"
       xlink:href="#radial-gradient" /><radialGradient
       id="radial-gradient-52"
       cx="9379.1709"
       cy="2587.4153"
       r="117.98889"
       gradientTransform="matrix(-0.38376,0.68678,-0.88708,-0.50332,5911.6147,-4864.3417)"
       xlink:href="#radial-gradient" /><radialGradient
       id="radial-gradient-53"
       cx="3814.9697"
       cy="2883.8525"
       r="141.19342"
       gradientTransform="matrix(0.46822,0.63365,-0.82233,0.60091,826.73182,-3940.4667)"
       xlink:href="#radial-gradient" /><radialGradient
       id="radial-gradient-54"
       cx="570.63708"
       cy="701.14136"
       r="78.270973"
       gradientTransform="matrix(0.76722,-0.31041,0.38936,0.94409,-560.15886,-192.1193)"
       gradientUnits="userSpaceOnUse"><stop
         offset="0"
         stop-color="#595757"
         id="stop978" /><stop
         offset="1"
         stop-color="#020000"
         id="stop980" /></radialGradient><radialGradient
       id="radial-gradient-56"
       cx="1207.584"
       cy="1779.8021"
       r="142.48737"
       gradientTransform="matrix(0.78713,0.03506,-0.03996,1.01766,-503.99377,-1573.636)"
       xlink:href="#radial-gradient" /><radialGradient
       id="radial-gradient-57"
       cx="1216.2158"
       cy="1783.8734"
       r="119.16956"
       gradientTransform="matrix(0.78713,0.03506,-0.03996,1.01766,-503.99377,-1573.636)"
       xlink:href="#radial-gradient" /><clipPath
       id="clip-path"><path
         class="cls-54"
         d="m 322.04061,208.71911 c -39.697,-22.50978 -58.13052,-65.87311 -40.8907,-96.58185 17.16168,-30.81117 63.38662,-37.36316 103.12351,-14.92593 39.7804,22.67147 58.05755,65.76959 40.902,96.64522 -17.17294,30.74798 -63.37818,37.41227 -103.13481,14.86256 z"
         clip-path="url(#clip-path-8)"
         id="path985" /></clipPath><clipPath
       id="clip-path-2"><path
         class="cls-53"
         d="m 313.50056,224.05716 c -45.27964,-25.62064 -66.06444,-74.86056 -46.43579,-109.91279 19.41556,-34.95392 71.88332,-42.48491 117.20865,-16.933 45.30288,25.7375 65.968,74.93786 46.56045,109.9513 -19.64701,34.93392 -72.26187,42.61203 -117.33331,16.89449 z"
         clip-path="url(#clip-path)"
         id="path988" /></clipPath><clipPath
       id="clip-path-3"><path
         class="cls-52"
         d="m 304.31855,254.9662 c -62.43712,-17.94 -101.91408,-71.85932 -88.06327,-120.25649 13.76895,-48.20631 75.48111,-72.58589 137.82538,-54.51879 62.35294,18.13113 101.645,71.96689 87.94138,120.21713 -13.79489,48.38755 -75.45031,72.76235 -137.70349,54.55815 z"
         id="path991" /></clipPath><clipPath
       id="clip-path-4"><path
         class="cls-56"
         d="M 303.1226,267.7495 C 235.45642,248.0743 192.44,189.64159 207.51882,137.1657 222.4884,84.70862 289.47854,58.0766 357.32382,77.77575 425.1293,97.6032 467.8051,156.03512 452.95776,208.53132 437.85335,260.89076 370.93024,287.57675 303.1226,267.7495 Z"
         clip-path="url(#clip-path-3)"
         id="path994" /></clipPath><clipPath
       id="clip-path-5"><path
         class="cls-57"
         d="m 297.83493,274.50275 c -72.56171,-21.12656 -119.17175,-81.58157 -103.98688,-135.11 15.264,-53.37633 86.46223,-79.536 159.25715,-58.39518 72.6608,21.04843 119.30925,81.55209 104.08007,135.15403 -15.20127,53.42052 -86.67746,79.45268 -159.35034,58.35115 z"
         clip-path="url(#clip-path-4)"
         id="path997" /></clipPath><clipPath
       id="clip-path-6"><path
         class="cls-58"
         d="m 309.162,266.56874 c -64.2242,-18.66006 -104.84084,-74.16477 -90.70739,-123.87756 14.191,-49.72787 77.74837,-75.01151 142.03,-56.351 64.33592,18.64046 104.89439,74.15538 90.74546,124.10814 C 437.01161,260.0045 373.35546,285.068 309.162,266.56874 Z"
         clip-path="url(#clip-path-5)"
         id="path1000" /></clipPath><clipPath
       id="clip-path-7"><path
         class="cls-59"
         d="M 334.95666,248.72824 C 282.98786,233.622 250.11778,188.63551 261.625,148.437 273.0492,108.0813 324.62872,87.66335 376.55413,102.83779 428.5833,117.933 461.2662,162.83621 449.97242,203.28 c -11.56905,40.15936 -62.94157,60.47047 -115.01576,45.44824 z"
         clip-path="url(#clip-path-6)"
         id="path1003" /></clipPath><clipPath
       id="clip-path-8"><path
         class="cls-60"
         d="m 322.04061,208.71911 c -39.697,-22.50978 -58.13052,-65.87311 -40.8907,-96.58185 17.16168,-30.81117 63.38662,-37.36316 103.12351,-14.92593 39.7804,22.67147 58.05755,65.76959 40.902,96.64522 -17.17294,30.74798 -63.37818,37.41227 -103.13481,14.86256 z"
         clip-path="url(#clip-path-7)"
         id="path1006" /></clipPath><clipPath
       id="clip-path-9"><circle
         class="cls-52"
         cx="936.02759"
         cy="284.03427"
         r="213.63554"
         id="circle1009" /></clipPath><mask
       id="mask"
       x="513.97873"
       y="166.78018"
       width="272.96878"
       height="220.45204"
       maskUnits="userSpaceOnUse"><path
         class="cls-1"
         d="m 621.19184,380.11162 c -73.69746,-21.17546 -120.294,-84.81892 -103.9452,-141.94437 16.25213,-56.90015 89.09389,-85.67652 162.68175,-64.35107 73.59808,21.401 119.9764,84.94589 103.80133,141.8979 -16.28272,57.11409 -89.05754,85.88481 -162.53788,64.39754 z"
         id="path1012" /></mask><mask
       id="mask-2"
       x="503.37836"
       y="163.30005"
       width="296.7389"
       height="239.63937"
       maskUnits="userSpaceOnUse"><path
         class="cls-2"
         d="M 619.7802,395.20034 C 539.91065,371.97679 489.13629,303.00593 506.93459,241.06618 c 17.66929,-61.91755 96.74089,-93.35257 176.8219,-70.10074 80.034,23.40327 130.40622,92.3732 112.88121,154.33692 -17.82848,61.8023 -96.82096,93.30102 -176.8575,69.89798 z"
         id="path1015" /></mask><mask
       id="mask-3"
       x="487.41211"
       y="166.11821"
       width="317.61702"
       height="245.69815"
       maskUnits="userSpaceOnUse"><path
         class="cls-12"
         d="m 613.53893,403.17153 c -85.648,-24.93667 -140.664,-96.29455 -122.74059,-159.47666 18.01681,-63.00258 102.05541,-93.8801 187.97866,-68.92656 85.76494,24.84445 140.8263,96.25975 122.85058,159.52862 -17.94272,63.05474 -102.30946,93.78171 -188.08865,68.8746 z"
         id="path1018" /></mask><mask
       id="mask-4"
       x="516.52907"
       y="173.82209"
       width="281.39246"
       height="227.1711"
       maskUnits="userSpaceOnUse"><path
         class="cls-22"
         d="M 626.90884,393.80664 C 551.102,371.7813 503.16029,306.26649 519.84266,247.58816 c 16.75026,-58.69613 91.77,-88.53959 167.64468,-66.51373 75.9387,22.0022 123.81176,87.52907 107.11111,146.49065 -16.78278,58.49349 -91.91912,88.07714 -167.68961,66.24156 z"
         id="path1021" /></mask><mask
       id="mask-5"
       x="556.25809"
       y="174.47182"
       width="228.1188"
       height="200.92533"
       maskUnits="userSpaceOnUse"><path
         class="cls-32"
         d="m 625.07581,356.0105 c -57.874,-32.73236 -84.3775,-95.54345 -59.44627,-140.35183 25.06231,-44.83727 92.18626,-54.57212 149.93678,-21.7525 57.88905,32.801 84.3934,95.618 59.40733,140.50119 -24.95339,44.68086 -92.16665,54.29496 -149.89784,21.60314 z"
         id="path1024" /></mask><mask
       id="mask-6"
       x="70.53794"
       y="70.89198"
       width="427.27181"
       height="425.5823"
       maskUnits="userSpaceOnUse"><path
         class="cls-42"
         d="M 402.20556,461.73426 C 303.77032,526.14402 171.113,498.38932 105.97356,400.00474 40.902,301.49122 67.987,169.90433 166.41645,105.66373 264.78526,41.2235 397.10028,68.97031 462.47729,167.21779 c 64.73896,98.34321 38.12217,230.3437 -60.27173,294.51647 z"
         id="path1027" /></mask><radialGradient
       id="radial-gradient-58"
       cx="284.17383"
       cy="283.68314"
       r="213.21394"
       gradientUnits="userSpaceOnUse"><stop
         offset="0"
         stop-color="#ffedcc"
         id="stop1030" /><stop
         offset="0.12062"
         stop-color="#e7d7b9"
         id="stop1032" /><stop
         offset="0.37548"
         stop-color="#aa9e88"
         id="stop1034" /><stop
         offset="0.74009"
         stop-color="#49443a"
         id="stop1036" /><stop
         offset="1"
         id="stop1038" /></radialGradient><clipPath
       id="clip-path-10"><ellipse
         class="cls-52"
         cx="284.55887"
         cy="282.64087"
         rx="212.55757"
         ry="213.05264"
         transform="rotate(-1.03687,284.55871,282.64084)"
         id="ellipse1041" /></clipPath><linearGradient
       id="linear-gradient"
       x1="166.33524"
       y1="244.21269"
       x2="150.58687"
       y2="143.23767"
       gradientTransform="rotate(-0.00573,-126742.02,-792813.31)"
       gradientUnits="userSpaceOnUse"><stop
         offset="0"
         stop-color="#e5dbb7"
         id="stop1044" /><stop
         offset="1"
         stop-color="#fff"
         id="stop1046" /></linearGradient><linearGradient
       id="linear-gradient-2"
       x1="184.38641"
       y1="257.52493"
       x2="-76.976242"
       y2="272.16116"
       gradientTransform="rotate(-0.00573,-126742.02,-792813.31)"
       gradientUnits="userSpaceOnUse"><stop
         offset="0"
         stop-color="#dbd1b7"
         id="stop1049" /><stop
         offset="1"
         stop-color="#fff"
         id="stop1051" /></linearGradient><linearGradient
       id="linear-gradient-3"
       x1="407.19049"
       y1="258.1915"
       x2="68.051964"
       y2="247.73862"
       gradientTransform="rotate(-0.00573,-126742.02,-792813.31)"
       gradientUnits="userSpaceOnUse"><stop
         offset="0"
         stop-color="#f0decb"
         id="stop1054" /><stop
         offset="0.48257"
         stop-color="#f7ede2"
         id="stop1056" /><stop
         offset="1"
         stop-color="#fff"
         id="stop1058" /></linearGradient><linearGradient
       id="linear-gradient-4"
       x1="189.43958"
       y1="544.02844"
       x2="173.46053"
       y2="290.35965"
       gradientTransform="rotate(-0.00573,-126742.02,-792813.31)"
       gradientUnits="userSpaceOnUse"><stop
         offset="0"
         stop-color="#d9d3c3"
         id="stop1061" /><stop
         offset="1"
         stop-color="#fff"
         id="stop1063" /></linearGradient><radialGradient
       id="radial-gradient-59"
       cx="143.79828"
       cy="7.0620999"
       r="398.84097"
       gradientTransform="rotate(-1.01423,-1158.9925,-2131.9896)"
       xlink:href="#radial-gradient-58" /><radialGradient
       id="radial-gradient-60"
       cx="-8614.7207"
       cy="-1260.4393"
       r="111.51287"
       gradientTransform="matrix(0.2907,0.3637,-0.41,0.3277,2337.9209,3973.5819)"
       gradientUnits="userSpaceOnUse"><stop
         offset="0"
         stop-color="#aaa"
         id="stop1067" /><stop
         offset="0.19573"
         stop-color="#7e7e7e"
         id="stop1069" /><stop
         offset="0.46604"
         stop-color="#484848"
         id="stop1071" /><stop
         offset="0.69995"
         stop-color="#212121"
         id="stop1073" /><stop
         offset="0.88569"
         stop-color="#090909"
         id="stop1075" /><stop
         offset="1"
         id="stop1077" /></radialGradient><radialGradient
       id="radial-gradient-61"
       cx="-1082.4218"
       cy="2018.9773"
       r="57.69408"
       gradientTransform="matrix(-0.5777,1.1505,-1.3461,-0.6758,2337.4713,3021.2638)"
       xlink:href="#radial-gradient-60" /><radialGradient
       id="radial-gradient-62"
       cx="-2249.9021"
       cy="1408.4487"
       r="80.58358"
       gradientTransform="matrix(0.3682,0.5933,-0.6174,0.3833,1834.7901,1104.1192)"
       gradientUnits="userSpaceOnUse"><stop
         offset="0"
         stop-color="#a1a1a1"
         id="stop1081" /><stop
         offset="0.11122"
         stop-color="#7d7d7d"
         id="stop1083" /><stop
         offset="0.26743"
         stop-color="#505050"
         id="stop1085" /><stop
         offset="0.41804"
         stop-color="#2d2d2d"
         id="stop1087" /><stop
         offset="0.55948"
         stop-color="#141414"
         id="stop1089" /><stop
         offset="0.68817"
         stop-color="#050505"
         id="stop1091" /><stop
         offset="0.79261"
         id="stop1093" /></radialGradient><radialGradient
       id="radial-gradient-63"
       cx="-2037.6012"
       cy="3442.1233"
       r="43.487202"
       gradientTransform="matrix(0.3862,0.6222,-0.4072,0.2527,2629.5998,600.35392)"
       gradientUnits="userSpaceOnUse"><stop
         offset="0"
         stop-color="#575757"
         id="stop1096" /><stop
         offset="0.42232"
         stop-color="#2c2c2c"
         id="stop1098" /><stop
         offset="0.79408"
         stop-color="#0c0c0c"
         id="stop1100" /><stop
         offset="1"
         id="stop1102" /></radialGradient><mask
       id="mask-7"
       x="107.8775"
       y="86.5378"
       width="267.3648"
       height="246.69638"
       maskUnits="userSpaceOnUse"><path
         class="cls-48"
         d="M 307.67524,299.17906 C 243.64013,346.29081 161.88724,344.2688 125.32805,294.6864 88.89275,245.32595 111.36948,167.2994 175.45838,120.37261 239.6158,73.48523 321.14969,75.624 357.67635,124.954 394.26794,174.475 371.829,252.443 307.67524,299.17906 Z"
         id="path1105" /></mask><mask
       id="mask-8"
       x="83.29512"
       y="214.85508"
       width="134.7411"
       height="155.63226"
       maskUnits="userSpaceOnUse"><path
         class="cls-49"
         d="m 210.65593,268.33464 c 16.92993,40.76755 3.7459,84.7671 -29.45349,98.22761 -33.1995,13.4607 -73.62932,-8.83374 -90.58626,-49.53684 -16.83322,-40.95194 -3.68251,-84.73035 29.64725,-98.28273 33.22811,-13.37057 73.68301,8.86215 90.3925,49.59196 z"
         id="path1108" /><path
         class="cls-49"
         d="m 210.65593,268.33464 c 16.92993,40.76755 3.7459,84.7671 -29.45349,98.22761 -33.1995,13.4607 -73.62932,-8.83374 -90.58626,-49.53684 -16.83322,-40.95194 -3.68251,-84.73035 29.64725,-98.28273 33.22811,-13.37057 73.68301,8.86215 90.3925,49.59196 z"
         id="path1110" /></mask><mask
       id="mask-9"
       x="263.13184"
       y="134.8254"
       width="224.56143"
       height="290.22545"
       maskUnits="userSpaceOnUse"><path
         class="cls-50"
         d="m 487.542,284.90629 c -3.16359,79.97028 -55.90671,142.67221 -117.81035,140.06618 -61.83508,-2.88 -109.53116,-69.99647 -106.45934,-149.93648 3.31838,-80.12121 56.02947,-142.76158 117.83737,-140.13066 61.80825,2.78786 109.62812,69.96872 106.43232,150.00096 z"
         id="path1113" /></mask><mask
       id="mask-10"
       x="288.0761"
       y="163.07863"
       width="187.89811"
       height="242.61469"
       maskUnits="userSpaceOnUse"><path
         class="cls-51"
         d="m 475.86692,288.60771 c -2.51418,66.9 -46.70458,119.27534 -98.58209,117.01513 -51.69412,-2.16379 -91.86422,-58.4741 -89.07148,-125.45961 2.66467,-66.89942 46.82149,-119.21028 98.57638,-117.01814 51.69572,2.31839 91.52796,58.5264 89.07719,125.46262 z"
         id="path1116" /></mask><mask
       id="mask-11"
       x="318.07974"
       y="171.57207"
       width="169.57275"
       height="219.11918"
       maskUnits="userSpaceOnUse"><path
         class="cls-3"
         d="m 487.542,284.90629 c -2.31291,60.37784 -42.19121,107.68541 -88.89267,105.72625 -46.5978,-2.14341 -82.86581,-52.739 -80.45609,-113.3019 2.406,-60.41112 42.34343,-107.68722 88.94647,-105.698 46.66813,2.18028 82.77452,52.7697 80.40229,113.27365 z"
         id="path1119" /></mask><mask
       id="mask-12"
       x="323.96829"
       y="335.53332"
       width="98.58342"
       height="87.57588"
       maskUnits="userSpaceOnUse"><path
         class="cls-4"
         d="m 394.51943,413.526 c -24.51919,15.13578 -53.99369,12.00032 -65.74241,-6.98726 -11.7105,-18.90376 -1.29521,-46.43032 23.238,-61.49771 24.55678,-15.05112 53.94871,-11.87992 65.69312,7.01552 11.7622,18.96638 1.36227,46.47289 -23.18871,61.46945 z"
         id="path1122" /></mask><mask
       id="mask-13"
       x="321.72524"
       y="332.93664"
       width="107.12392"
       height="95.15379"
       maskUnits="userSpaceOnUse"><path
         class="cls-5"
         d="m 398.35749,417.73318 c -26.649,16.33394 -58.66086,13.01314 -71.38158,-7.59458 -12.74715,-20.56623 -1.496,-50.497 25.21432,-66.88255 26.74055,-16.33422 58.65048,-12.90186 71.447,7.63594 12.67482,20.58136 1.46139,50.5062 -25.27974,66.84119 z"
         id="path1125" /></mask><mask
       id="mask-14"
       x="318.54214"
       y="334.03846"
       width="113.94154"
       height="98.96639"
       maskUnits="userSpaceOnUse"><path
         class="cls-6"
         d="m 398.99573,421.48363 c -28.58618,17.50735 -62.334,14.76233 -75.36852,-6.19426 -12.96095,-20.93717 -0.29907,-52.10788 28.36139,-69.6875 28.59011,-17.56317 62.3654,-14.81625 75.41078,6.17682 12.99418,20.92976 0.20748,52.15364 -28.40365,69.70494 z"
         id="path1128" /></mask><mask
       id="mask-15"
       x="327.07542"
       y="334.94629"
       width="101.5945"
       height="90.26096"
       maskUnits="userSpaceOnUse"><path
         class="cls-7"
         d="m 399.77226,415.39893 c -25.28875,15.50735 -55.62363,12.27278 -67.71973,-7.20015 -12.08388,-19.49629 -1.41462,-47.89817 23.89142,-63.42425 25.31566,-15.54986 55.63653,-12.29315 67.80675,7.25646 12.0193,19.45411 1.24837,47.82271 -23.97844,63.36794 z"
         id="path1131" /></mask><mask
       id="mask-16"
       x="342.76929"
       y="336.49418"
       width="82.24298"
       height="73.04203"
       maskUnits="userSpaceOnUse"><path
         class="cls-8"
         d="m 401.61517,401.61037 c -20.46538,12.54613 -45.03693,9.90823 -54.79456,-5.8637 -9.834,-15.79159 -1.14233,-38.81084 19.33247,-51.32239 20.47982,-12.56922 44.96817,-9.89475 54.87,5.88032 9.72627,15.78054 1.06135,38.69998 -19.40791,51.30577 z"
         id="path1134" /></mask><mask
       id="mask-17"
       x="339.57983"
       y="337.88061"
       width="72.0993"
       height="58.36866"
       maskUnits="userSpaceOnUse"><path
         class="cls-9"
         d="m 384.63151,393.90967 c -19.23285,6.30973 -38.96371,-0.58129 -43.89648,-15.40256 -4.98971,-14.82619 6.65429,-31.95051 25.87524,-38.295 19.31081,-6.28885 38.908,0.57435 43.92066,15.41775 4.9656,14.81106 -6.63566,31.96243 -25.89942,38.27981 z"
         id="path1137" /></mask><mask
       id="mask-19"
       x="335.8724"
       y="337.55482"
       width="82.00184"
       height="66.41054"
       maskUnits="userSpaceOnUse"><path
         class="cls-10"
         d="m 387.11638,401.28923 c -21.91965,7.2134 -44.28061,-0.65968 -49.92588,-17.561 -5.6766,-16.80207 7.50906,-36.26717 29.41977,-43.51609 21.96493,-7.18616 44.27718,0.7144 49.97571,17.53159 5.60102,16.87206 -7.5803,36.42934 -29.4696,43.5455 z"
         id="path1140" /></mask><mask
       id="mask-20"
       x="333.32999"
       y="337.31761"
       width="88.77285"
       height="71.93833"
       maskUnits="userSpaceOnUse"><path
         class="cls-11"
         d="m 388.80079,406.353 c -23.73177,7.81476 -47.895,-0.69649 -54.04954,-18.95619 -6.12943,-18.30345 8.1342,-39.42633 31.859,-47.1847 23.75467,-7.8016 47.91976,0.71093 54.08123,19.00478 6.11352,18.23364 -8.20629,39.35083 -31.89069,47.13611 z"
         id="path1143" /></mask><mask
       id="mask-21"
       x="325.64169"
       y="328.99351"
       width="104.97443"
       height="90.69896"
       maskUnits="userSpaceOnUse"><path
         class="cls-13"
         d="m 400.76655,409.76755 c -26.10873,15.67554 -57.494,12.42826 -70.00438,-7.23644 -12.46968,-19.57789 -1.37919,-48.0861 24.74444,-63.6908 26.14875,-15.58787 57.44612,-12.30358 69.9519,7.2657 12.52477,19.64272 1.45063,48.13016 -24.69196,63.66154 z"
         id="path1146" /></mask><mask
       id="mask-22"
       x="323.25322"
       y="326.30424"
       width="114.0686"
       height="98.54711"
       maskUnits="userSpaceOnUse"><path
         class="cls-14"
         d="m 404.85343,414.12474 c -28.37662,16.91643 -62.46376,13.47721 -76.00913,-7.86541 -13.57354,-21.29966 -1.593,-52.29777 26.84892,-69.26768 28.47409,-16.91672 62.4527,-13.362 76.07875,7.90824 13.49656,21.31532 1.55617,52.30733 -26.91854,69.22485 z"
         id="path1149" /></mask><mask
       id="mask-23"
       x="319.86377"
       y="327.44535"
       width="121.3282"
       height="102.49567"
       maskUnits="userSpaceOnUse"><path
         class="cls-15"
         d="m 405.53305,418.00893 c -30.43938,18.13169 -66.37506,15.28878 -80.25455,-6.41515 -13.80119,-21.68382 -0.31845,-53.96612 30.2,-72.17265 30.44356,-18.18951 66.40845,-15.34462 80.29954,6.39709 13.8366,21.67614 0.22096,54.01351 -30.24499,72.19071 z"
         id="path1152" /></mask><mask
       id="mask-24"
       x="328.95025"
       y="328.38555"
       width="108.18071"
       height="93.4798"
       maskUnits="userSpaceOnUse"><path
         class="cls-16"
         d="m 406.35992,411.70725 c -26.92818,16.06037 -59.22962,12.71044 -72.1099,-7.45692 -12.86726,-20.19156 -1.50633,-49.60629 25.44026,-65.68605 26.95684,-16.10439 59.24336,-12.73155 72.20257,7.51524 12.79852,20.14787 1.3293,49.52813 -25.53293,65.62773 z"
         id="path1155" /></mask><mask
       id="mask-25"
       x="345.66153"
       y="329.98864"
       width="87.57466"
       height="75.64682"
       maskUnits="userSpaceOnUse"><path
         class="cls-17"
         d="m 408.3223,397.427 c -21.79212,12.99354 -47.9566,10.26157 -58.3468,-6.07281 -10.47149,-16.35474 -1.2164,-40.19489 20.58576,-53.15262 21.80749,-13.01746 47.88339,-10.24761 58.42709,6.09 10.35685,16.34329 1.1302,40.08007 -20.66605,53.13543 z"
         id="path1158" /></mask><mask
       id="mask-26"
       x="342.26531"
       y="331.42451"
       width="76.77339"
       height="60.45018"
       maskUnits="userSpaceOnUse"><path
         class="cls-18"
         d="m 390.23762,389.45165 c -20.4797,6.53474 -41.48967,-0.602 -46.74223,-15.95184 -5.31318,-15.35491 7.08568,-33.08991 27.5527,-39.66063 20.5627,-6.51312 41.43031,0.59483 46.768,15.96757 5.28748,15.33925 -7.06587,33.10225 -27.57847,39.6449 z"
         id="path1161" /></mask><mask
       id="mask-28"
       x="338.31753"
       y="331.0871"
       width="87.3179"
       height="68.77884"
       maskUnits="userSpaceOnUse"><path
         class="cls-19"
         d="m 392.88357,397.09437 c -23.34066,7.47065 -47.15125,-0.68319 -53.16249,-18.18725 -6.04461,-17.40126 7.99586,-37.56052 31.327,-45.06794 23.38888,-7.44243 47.1476,0.73988 53.21556,18.15679 5.96409,17.47375 -8.07171,37.72847 -31.38007,45.0984 z"
         id="path1164" /></mask><mask
       id="mask-29"
       x="335.61029"
       y="330.84144"
       width="94.52786"
       height="74.50375"
       maskUnits="userSpaceOnUse"><path
         class="cls-20"
         d="m 394.67719,402.33875 c -25.27027,8.09344 -51,-0.72133 -57.5535,-19.6322 -6.52679,-18.95617 8.66154,-40.83233 33.9244,-48.86737 25.29464,-8.07982 51.02632,0.73628 57.58723,19.68252 6.5098,18.88385 -8.73832,40.75412 -33.95813,48.81705 z"
         id="path1167" /></mask><mask
       id="mask-30"
       x="213.73558"
       y="81.71352"
       width="231.26151"
       height="186.76887"
       maskUnits="userSpaceOnUse"><path
         class="cls-21"
         d="m 304.56744,262.44976 c -62.43712,-17.94 -101.91407,-71.85932 -88.06327,-120.25649 13.769,-48.20631 75.48112,-72.58589 137.82539,-54.51879 62.35293,18.13113 101.645,71.96689 87.94138,120.21713 -13.79489,48.38755 -75.45032,72.76239 -137.7035,54.55815 z"
         id="path1170" /></mask><mask
       id="mask-31"
       x="204.75485"
       y="78.76513"
       width="251.39976"
       height="203.02455"
       maskUnits="userSpaceOnUse"><path
         class="cls-23"
         d="m 303.37149,275.23306 c -67.66617,-19.6752 -110.68264,-78.10791 -95.60377,-130.5838 14.96957,-52.45708 81.95971,-79.0891 149.805,-59.38995 67.80548,19.82745 110.48127,78.25937 95.63393,130.75557 -15.1044,52.35944 -82.02751,79.04543 -149.83516,59.21818 z"
         id="path1173" /></mask><mask
       id="mask-32"
       x="191.2281"
       y="81.1527"
       width="269.08788"
       height="208.1576"
       maskUnits="userSpaceOnUse"><path
         class="cls-24"
         d="m 298.08383,281.98631 c -72.56172,-21.12656 -119.17175,-81.58157 -103.98689,-135.11 15.264,-53.37633 86.46223,-79.536 159.25716,-58.39518 72.66079,21.04844 119.30925,81.55209 104.08006,135.154 -15.20123,53.42055 -86.67745,79.45271 -159.35033,58.35118 z"
         id="path1176" /></mask><mask
       id="mask-33"
       x="215.89624"
       y="87.67949"
       width="238.39812"
       height="192.46132"
       maskUnits="userSpaceOnUse"><path
         class="cls-25"
         d="m 309.41093,274.0523 c -64.22419,-18.66006 -104.84084,-74.16477 -90.70738,-123.87756 14.191,-49.72787 77.74836,-75.01151 142.03,-56.351 64.33594,18.64045 104.89445,74.15537 90.74545,124.10813 -14.21849,49.5562 -77.87465,74.61972 -142.06807,56.12043 z"
         id="path1179" /></mask><mask
       id="mask-34"
       x="259.57758"
       y="105.30577"
       width="192.87421"
       height="155.85637"
       maskUnits="userSpaceOnUse"><path
         class="cls-26"
         d="m 335.20556,256.2118 c -51.96881,-15.10627 -84.83889,-60.09273 -73.3317,-100.29129 11.42419,-40.3557 63.00372,-60.77365 114.92913,-45.59921 52.02921,15.09529 84.71211,59.99847 73.41833,100.44225 -11.56906,40.15937 -62.94158,60.47045 -115.01576,45.44825 z"
         id="path1182" /></mask><mask
       id="mask-35"
       x="274.93038"
       y="91.38232"
       width="156.93688"
       height="138.18562"
       maskUnits="userSpaceOnUse"><path
         class="cls-27"
         d="m 322.28951,216.20267 c -39.697,-22.50978 -58.13053,-65.87311 -40.89071,-96.58185 17.16168,-30.81117 63.38662,-37.36316 103.12352,-14.92593 39.7804,22.67147 58.05755,65.76959 40.902,96.64522 -17.17295,30.74798 -63.37818,37.41228 -103.13481,14.86256 z"
         id="path1185" /></mask><mask
       id="mask-37"
       x="259.91739"
       y="89.55018"
       width="178.4509"
       height="157.21463"
       maskUnits="userSpaceOnUse"><path
         class="cls-28"
         d="M 313.74946,231.54072 C 268.46981,205.92008 247.68502,156.68016 267.31366,121.62793 286.72923,86.674 339.197,79.143 384.52232,104.69489 c 45.30288,25.7375 65.968,74.93786 46.56044,109.9513 -19.64701,34.93396 -72.26189,42.61207 -117.3333,16.89453 z"
         id="path1188" /></mask><mask
       id="mask-38"
       x="249.55501"
       y="88.22995"
       width="193.26422"
       height="170.22567"
       maskUnits="userSpaceOnUse"><path
         class="cls-29"
         d="m 307.858,242.03108 c -49.03133,-27.73114 -71.48535,-80.94523 -50.3634,-118.90728 21.233,-37.98652 78.101,-46.234 127.02774,-18.42891 49.0441,27.78928 71.49881,81.00842 50.3304,119.03382 -21.14074,37.85402 -78.08443,45.99917 -126.99474,18.30237 z"
         id="path1191" /></mask><clipPath
       id="clip-path-11"><circle
         class="cls-52"
         cx="283.50018"
         cy="283.3248"
         r="213.63554"
         id="circle1194" /></clipPath><mask
       id="mask-39"
       x="192.12885"
       y="45.84999"
       width="272.96878"
       height="220.45204"
       maskUnits="userSpaceOnUse"><path
         class="cls-30"
         d="M 299.342,259.18143 C 225.6445,238.006 179.048,174.36252 195.39676,117.23707 211.64889,60.33691 284.49065,31.56055 358.07851,52.886 431.67659,74.287 478.05491,137.83189 461.87984,194.78391 445.59708,251.898 372.8223,280.6687 299.342,259.18143 Z"
         id="path1197" /></mask><mask
       id="mask-40"
       x="181.52848"
       y="42.36987"
       width="296.7389"
       height="239.63937"
       maskUnits="userSpaceOnUse"><path
         class="cls-31"
         d="M 297.93032,274.27016 C 218.06077,251.0466 167.28641,182.07575 185.08471,120.136 202.754,58.21844 281.8256,26.78343 361.90661,50.03526 c 80.034,23.40326 130.40622,92.37319 112.8812,154.33691 -17.82847,61.8023 -96.82095,93.30102 -176.85749,69.89799 z"
         id="path1200" /></mask><mask
       id="mask-41"
       x="165.56222"
       y="45.18803"
       width="317.61702"
       height="245.69815"
       maskUnits="userSpaceOnUse"><path
         class="cls-33"
         d="M 291.689,282.24134 C 206.041,257.30467 151.025,185.9468 168.94841,122.76469 186.96523,59.76211 271.00383,28.88458 356.92708,53.83812 442.69201,78.68258 497.75338,150.09787 479.77766,213.36674 461.835,276.42149 377.46824,307.14846 291.689,282.24134 Z"
         id="path1203" /></mask><mask
       id="mask-42"
       x="194.67918"
       y="52.89191"
       width="281.39246"
       height="227.1711"
       maskUnits="userSpaceOnUse"><path
         class="cls-34"
         d="M 305.059,272.87646 C 229.25213,250.85112 181.3104,185.33631 197.99278,126.658 c 16.75026,-58.69613 91.77,-88.53959 167.64468,-66.51372 75.93869,22.0022 123.81176,87.52906 107.11111,146.49064 -16.78278,58.49346 -91.91912,88.07708 -167.68957,66.24154 z"
         id="path1206" /></mask><mask
       id="mask-43"
       x="246.23831"
       y="73.69703"
       width="227.65846"
       height="183.96457"
       maskUnits="userSpaceOnUse"><path
         class="cls-35"
         d="M 335.50556,251.81848 C 274.16434,233.98785 235.36625,180.88821 248.94872,133.43998 262.43323,85.80626 323.315,61.706 384.60495,79.61709 c 61.41251,17.81768 99.98967,70.819 86.65909,118.55669 -13.6555,47.40199 -74.29289,71.37614 -135.75848,53.6447 z"
         id="path1209" /></mask><mask
       id="mask-44"
       x="264.35994"
       y="57.26253"
       width="185.23995"
       height="163.10696"
       maskUnits="userSpaceOnUse"><path
         class="cls-36"
         d="m 320.26014,204.59382 c -46.85622,-26.56934 -68.61418,-77.7531 -48.26522,-114.00007 20.25674,-36.36786 74.8182,-44.10148 121.72151,-17.61777 46.95467,26.7602 68.52805,77.63092 48.27858,114.07488 -20.27001,36.29327 -74.80826,44.15945 -121.73487,17.54296 z"
         id="path1212" /></mask><mask
       id="mask-46"
       x="246.63941"
       y="55.09997"
       width="210.63395"
       height="185.56778"
       maskUnits="userSpaceOnUse"><path
         class="cls-37"
         d="m 310.17992,222.69805 c -53.44569,-30.24124 -77.97895,-88.36142 -54.81034,-129.73521 22.9171,-41.25775 84.84725,-50.14693 138.34685,-19.98686 53.47311,30.37917 77.86507,88.45267 54.95748,129.78066 -23.19029,41.2342 -85.29409,50.29703 -138.49399,19.94141 z"
         id="path1215" /></mask><mask
       id="mask-47"
       x="234.40821"
       y="53.54164"
       width="228.1188"
       height="200.92533"
       maskUnits="userSpaceOnUse"><path
         class="cls-38"
         d="M 303.22593,235.08031 C 245.35193,202.34795 218.84843,139.53687 243.77966,94.72848 268.842,49.89122 335.96592,40.15636 393.71643,72.976 c 57.88905,32.801 84.3934,95.618 59.40733,140.50119 -24.95338,44.68081 -92.16668,54.29495 -149.89783,21.60312 z"
         id="path1218" /></mask><clipPath
       id="clip-path-12"><path
         class="cls-55"
         d="m 307.60909,234.54752 c -49.03134,-27.73114 -71.48535,-80.94523 -50.3634,-118.90728 21.233,-37.98652 78.101,-46.234 127.02773,-18.42891 49.0441,27.78928 71.49882,81.00842 50.3304,119.03382 -21.14072,37.85402 -78.0844,45.99917 -126.99473,18.30237 z"
         clip-path="url(#clip-path-2)"
         id="path1221" /></clipPath><mask
       id="mask-48"
       x="-139.2939"
       y="166.6404"
       width="272.96878"
       height="220.45204"
       maskUnits="userSpaceOnUse"><path
         class="cls-39"
         d="m -32.0808,379.97184 c -73.69745,-21.17546 -120.29395,-84.81891 -103.9452,-141.94437 16.25214,-56.90015 89.0939,-85.67652 162.68175,-64.35107 73.59809,21.401 119.9764,84.94589 103.80133,141.8979 -16.28275,57.11409 -89.05754,85.88481 -162.53788,64.39754 z"
         id="path1224" /></mask><mask
       id="mask-49"
       x="-149.89427"
       y="163.16028"
       width="296.7389"
       height="239.63937"
       maskUnits="userSpaceOnUse"><path
         class="cls-40"
         d="M -33.49244,395.06057 C -113.362,371.837 -164.13634,302.86615 -146.338,240.9264 c 17.66929,-61.91755 96.74088,-93.35257 176.82189,-70.10074 80.034,23.40327 130.40622,92.3732 112.88121,154.33692 -17.82852,61.8023 -96.82099,93.30102 -176.85754,69.89799 z"
         id="path1227" /></mask><mask
       id="mask-50"
       x="-165.86053"
       y="165.97843"
       width="317.61702"
       height="245.69815"
       maskUnits="userSpaceOnUse"><path
         class="cls-41"
         d="m -39.73371,403.03175 c -85.648,-24.93667 -140.664,-96.29454 -122.74059,-159.47666 18.01682,-63.00258 102.05542,-93.8801 187.97867,-68.92656 85.76493,24.84447 140.8263,96.25975 122.85063,159.52862 -17.94278,63.05474 -102.30951,93.78172 -188.08871,68.8746 z"
         id="path1230" /></mask><mask
       id="mask-51"
       x="-136.74357"
       y="173.68231"
       width="281.39246"
       height="227.1711"
       maskUnits="userSpaceOnUse"><path
         class="cls-43"
         d="m -26.3638,393.66687 c -75.80682,-22.02534 -123.74855,-87.54016 -107.0662,-146.21849 16.75025,-58.69613 91.77,-88.53959 167.64467,-66.51373 75.9387,22.00221 123.81176,87.52907 107.11111,146.49065 C 124.543,385.91879 49.4067,415.50244 -26.3638,393.66687 Z"
         id="path1233" /></mask><mask
       id="mask-52"
       x="-85.18444"
       y="194.48744"
       width="227.65846"
       height="183.96457"
       maskUnits="userSpaceOnUse"><path
         class="cls-44"
         d="M 4.08281,372.60888 C -57.25841,354.77825 -96.0565,301.67862 -82.474,254.23039 c 13.48451,-47.63373 74.36623,-71.734 135.65622,-53.82289 61.41252,17.81768 99.98967,70.819 86.6591,118.55669 -13.65553,47.40199 -74.29292,71.37614 -135.75851,53.64469 z"
         id="path1236" /></mask><mask
       id="mask-53"
       x="-67.06281"
       y="178.05294"
       width="185.23995"
       height="163.10696"
       maskUnits="userSpaceOnUse"><path
         class="cls-45"
         d="M -11.16262,325.38423 C -58.01884,298.81489 -79.7768,247.63113 -59.42783,211.38416 -39.1711,175.0163 15.39036,167.28267 62.29368,193.76639 c 46.95467,26.7602 68.528,77.63092 48.27858,114.07488 C 90.3022,344.13454 35.764,352.00072 -11.16262,325.38423 Z"
         id="path1239" /></mask><mask
       id="mask-55"
       x="-84.78334"
       y="175.89038"
       width="210.63395"
       height="185.56778"
       maskUnits="userSpaceOnUse"><path
         class="cls-46"
         d="m -21.24283,343.48845 c -53.44569,-30.24123 -77.979,-88.36141 -54.81035,-129.7352 22.9171,-41.25775 84.84726,-50.14693 138.34686,-19.98686 53.47311,30.37917 77.86507,88.45266 54.95748,129.78066 -23.19029,41.23419 -85.2941,50.29702 -138.49399,19.9414 z"
         id="path1242" /></mask><mask
       id="mask-56"
       x="-97.01455"
       y="174.33204"
       width="228.1188"
       height="200.92533"
       maskUnits="userSpaceOnUse"><path
         class="cls-47"
         d="m -28.19682,355.87072 c -57.874,-32.73236 -84.3775,-95.54344 -59.44628,-140.35183 25.06231,-44.83727 92.18626,-54.57212 149.93678,-21.7525 57.88905,32.801 84.3934,95.618 59.40733,140.50119 -24.95338,44.68086 -92.16668,54.29496 -149.89783,21.60314 z"
         id="path1245" /></mask></defs><title
     id="title1250">лого 1-07-07-07-07</title><metadata
     id="metadata1945"><rdf:RDF><cc:Work
         rdf:about=""><dc:title>лого 1-07-07-07-07</dc:title></cc:Work></rdf:RDF></metadata><path
     style="fill:#000000;stroke-width:0.965773"
     d="m 181.52871,524.52605 c -1.29881,-0.38882 2.52676,-0.54083 8.50126,-0.33782 14.29263,0.48566 16.21282,1.00842 3.77833,1.02863 -5.45497,0.009 -10.98079,-0.302 -12.27959,-0.69081 z m 24.38208,-0.75819 c 0.68187,-0.28524 1.49657,-0.25017 1.81046,0.0779 0.31388,0.32812 -0.24402,0.5615 -1.23977,0.51862 -1.10039,-0.0474 -1.32421,-0.28136 -0.57069,-0.59657 z m 4.97875,-0.66771 c 0.21647,-0.19515 1.66877,-0.653 3.22733,-1.01744 2.06951,-0.48391 2.45163,-0.39231 1.41688,0.33969 -1.27554,0.90233 -5.59208,1.53225 -4.64421,0.67775 z m -40.66812,-6.51844 c -1.13418,-0.74983 -1.19398,-1.51728 -0.32582,-4.1815 3.73576,-11.46423 3.79837,-18.7307 0.23599,-27.38736 -2.43595,-5.91941 -4.07195,-7.52549 -13.63437,-13.38498 -5.16292,-3.16365 -10.40808,-7.65643 -16.55806,-14.18295 -5.76248,-6.1153 -10.94489,-10.61418 -14.40267,-12.50304 -2.97071,-1.62278 -5.4023,-3.28378 -5.40353,-3.6911 -0.004,-1.26354 5.2638,-0.81516 8.85595,0.75383 2.24378,0.98004 3.4214,1.12154 3.4214,0.41112 0,-0.59581 -2.76291,-5.31321 -6.1398,-10.48311 -3.37689,-5.16989 -6.1398,-9.79836 -6.1398,-10.28548 0,-2.15921 2.95356,-0.54097 6.04297,3.31093 4.02924,5.02366 4.40654,3.35871 1.04142,-4.59562 -2.78062,-6.57273 -2.77219,-6.51306 -0.92133,-6.51306 0.79207,0 2.59549,1.99956 4.0076,4.44347 2.80638,4.85694 4.53527,5.82775 3.62475,2.0354 -0.31799,-1.32445 -0.16783,-2.67318 0.33368,-2.99719 1.0515,-0.67936 3.20844,3.59951 7.45574,14.79045 1.64991,4.34721 4.2736,9.90155 5.83042,12.34297 2.78537,4.36803 2.82101,4.38767 2.23066,1.22976 -0.32996,-1.76504 -0.228,-3.19301 0.22658,-3.17326 0.45458,0.0197 3.58351,2.22923 6.95318,4.90994 5.74258,4.56847 10.75628,6.86381 12.0465,5.51506 0.3098,-0.32385 0.74625,-2.92112 0.96989,-5.77173 0.5123,-6.52995 -1.3124,-9.20471 -9.57434,-14.03466 -8.84831,-5.17274 -14.54913,-11.65837 -19.43289,-22.10814 -2.30817,-4.93876 -3.88908,-9.30111 -3.51313,-9.69411 0.37594,-0.393 1.90496,0.0397 3.39782,0.96156 1.49286,0.92187 2.9675,1.67611 3.27698,1.67611 0.30948,0 0.5627,-2.44391 0.5627,-5.43091 0,-6.84073 1.18847,-6.99492 7.00981,-0.90948 3.8422,4.0165 4.3252,5.01247 4.3252,8.91866 0,4.78628 2.14258,11.24585 3.73014,11.24585 0.58368,0 0.99279,-2.44141 0.99279,-5.92462 0,-5.21881 0.21977,-5.92463 1.84477,-5.92463 1.32712,0 2.1208,1.03904 2.82848,3.70289 0.54104,2.03659 0.99961,4.36942 1.01903,5.18405 0.0619,2.59615 2.6692,5.24642 8.20799,8.34325 4.35614,2.43558 5.84698,3.95457 7.78711,7.93412 l 2.39952,4.92185 0.0408,30.13218 c 0.0225,16.57271 0.38497,34.52118 0.80561,39.88551 0.61067,7.78772 0.50727,9.92391 -0.5131,10.59983 -1.71663,1.13713 -13.20145,1.08192 -14.94666,-0.0719 z m 26.48797,-0.44773 c -0.83674,-1.05395 -0.86604,-4.74643 -0.1195,-15.05842 0.54398,-7.51414 0.9908,-25.11828 0.99291,-39.12031 0.003,-20.73793 0.27491,-26.13641 1.4658,-29.11592 1.99126,-4.98196 4.86712,-8.02356 9.62808,-10.18296 4.28337,-1.94277 7.79212,-6.71219 7.79812,-10.59991 0.005,-3.09419 1.65379,-6.10657 3.34281,-6.10657 1.04561,0 1.38364,1.31261 1.38364,5.37263 0,9.72936 3.62768,7.49978 4.65342,-2.86 0.63613,-6.42475 1.68853,-8.48895 6.67485,-13.09207 3.59349,-3.31734 4.72761,-2.85371 4.74413,1.93937 0.0205,5.94948 1.05858,7.37476 3.87126,5.3153 4.95463,-3.62779 4.89125,-0.9099 -0.21818,9.35662 -4.87699,9.79947 -10.70193,16.22534 -19.53805,21.55373 -8.35033,5.03544 -10.40122,8.44042 -9.07047,15.05917 1.19007,5.91903 3.18318,5.89378 11.57093,-0.14659 3.79999,-2.73655 7.27059,-4.97553 7.71242,-4.97553 0.44182,0 0.93915,0.99978 1.10516,2.22173 0.25629,1.88648 0.68042,1.52026 2.81069,-2.42694 1.37986,-2.55678 4.04836,-8.77764 5.92999,-13.82413 1.88163,-5.04649 4.2829,-10.28631 5.33616,-11.64404 l 1.91501,-2.46859 -0.57815,5.43091 -0.57815,5.4309 2.179,-4.31728 c 1.19844,-2.3745 3.22785,-5.48493 4.50979,-6.91206 3.3173,-3.69298 3.55201,-1.00982 0.53543,6.12067 -3.33007,7.87147 -3.00608,8.70997 1.49309,3.86422 2.13788,-2.30255 4.47573,-4.18645 5.19522,-4.18645 1.86368,0 1.65418,0.73237 -1.3716,4.79509 -4.34603,5.83537 -10.54441,15.75003 -10.54441,16.86635 0,0.63295 1.42975,0.4356 3.68836,-0.50911 2.02859,-0.84851 5.11029,-1.40035 6.84823,-1.2263 l 3.15989,0.31643 -5.66751,3.225 c -5.78374,3.29115 -10.69734,7.71584 -18.62856,16.775 -2.49192,2.84631 -7.74642,7.07577 -11.90828,9.58524 -13.4941,8.13649 -17.1084,13.62902 -17.14394,26.053 -0.0114,3.9896 0.65362,9.67876 1.47783,12.64258 0.82422,2.96383 1.26262,6.03156 0.97423,6.81718 -0.73494,2.00213 -14.04392,2.02943 -15.62965,0.0321 z m 38.66063,-0.9666 c 0,-0.21344 0.65967,-0.6527 1.46594,-0.97613 0.84061,-0.3372 1.21976,-0.17167 0.88884,0.38807 -0.55472,0.93827 -2.35478,1.3878 -2.35478,0.58806 z m 147.73261,-19.75675 c -0.28975,-0.78935 -0.38694,-2.46727 -0.21598,-3.72872 0.26271,-1.93839 0.94499,-2.3412 4.40596,-2.6013 l 4.09511,-0.30776 -0.53772,-4.62943 c -0.29575,-2.54619 -0.99019,-9.9616 -1.5432,-16.47868 -1.9642,-23.14743 -3.87996,-38.38098 -5.14315,-40.89671 -3.0001,-5.9749 -8.96799,-10.70961 -18.74708,-14.87325 -20.72068,-8.82225 -24.54662,-9.49406 -25.74086,-4.51995 -0.92371,3.84731 0.4664,6.5459 4.17641,8.10756 1.89814,0.79898 4.72636,2.03405 6.28492,2.7446 1.55857,0.71054 6.02173,2.52088 9.91814,4.02297 11.18946,4.31363 14.68315,8.80036 13.95915,17.9269 -0.22985,2.89753 -0.70712,5.57058 -1.0606,5.94008 -0.35347,0.36951 -2.14392,-0.0765 -3.97878,-0.99121 -3.05315,-1.522 -3.28714,-1.93591 -2.75878,-4.88006 0.79536,-4.43201 -1.78866,-6.74077 -11.8285,-10.56844 -11.97196,-4.5643 -17.47119,-7.47808 -19.69749,-10.43676 -7.25732,-9.64476 -1.63669,-24.13663 9.36601,-24.14869 3.24527,-0.004 17.4853,4.52344 21.24923,6.75526 1.00877,0.59816 4.77038,2.43645 8.35912,4.08508 3.58874,1.64864 8.27657,4.49792 10.41738,6.33175 4.15264,3.55715 9.01416,12.35965 9.06375,16.41126 0.0276,2.25119 0.13396,2.31133 1.28487,0.7264 0.69016,-0.9504 2.33141,-1.72801 3.64723,-1.72801 3.23118,0 4.13304,2.78031 1.72008,5.30275 -1.87333,1.95832 -1.91355,1.95899 -3.94883,0.0659 l -2.05622,-1.9126 0.54243,4.93719 c 0.29833,2.71545 1.51541,15.69512 2.70461,28.84371 l 2.16217,23.90651 6.6388,0.2857 6.63881,0.2857 v 3.45603 3.45603 l -14.42508,0.27269 c -11.91595,0.22527 -14.51672,0.0231 -14.95191,-1.16248 z m -52.80186,-1.42005 c -4.60859,-2.22072 -5.39822,-3.2283 -7.55173,-9.63619 l -1.69177,-5.03396 2.40754,-5.49734 c 2.98898,-6.82499 6.12566,-9.12067 12.46192,-9.12067 8.4433,0 13.73802,6.18936 13.73802,16.05931 0,3.9851 -0.54351,5.61517 -2.91335,8.73772 -3.47227,4.57513 -4.00946,4.91969 -8.89396,5.70461 -2.67408,0.42971 -4.88259,0.075 -7.55667,-1.21348 z m 21.12697,-2.59467 c -0.31536,-0.32967 -0.032,-2.24927 0.62974,-4.26579 2.42539,-7.39104 1.57428,-14.00409 -2.60339,-20.22832 -5.55665,-8.27874 -20.47263,-8.90128 -26.04406,-1.08698 l -2.02297,2.83735 -0.009,-6.41834 c -0.011,-7.65291 2.33924,-13.83859 6.24613,-16.43979 1.47221,-0.98021 2.89493,-2.09283 3.16159,-2.4725 1.08589,-1.5461 9.81295,-3.03941 14.42535,-2.46836 2.68789,0.33279 8.28465,2.03676 12.43726,3.78662 13.28108,5.59638 26.02184,20.77294 26.02184,30.99642 0,5.46083 -3.83539,10.23877 -9.91814,12.3555 -2.07808,0.72316 -4.2034,1.61366 -4.72292,1.9789 -1.29225,0.90848 -16.88731,2.17134 -17.60099,1.42529 z M 276.063,474.08308 c 1.37702,-3.02258 1.81333,-3.58276 1.81333,-2.32818 0,0.52981 -0.66104,1.82582 -1.46899,2.88003 -1.38511,1.80731 -1.40478,1.77581 -0.34434,-0.55185 z m 134.04352,-41.28366 c -2.64299,-2.23727 -1.62133,-5.1259 1.81295,-5.1259 3.31574,0 4.997,1.74095 3.84823,3.98485 -1.32506,2.58819 -3.44646,3.01577 -5.66118,1.14105 z m 14.68454,-0.15193 c -2.26664,-2.61825 -1.22522,-4.97397 2.19892,-4.97397 3.40246,0 4.57997,2.52551 2.36853,5.07999 -1.99252,2.30161 -2.4932,2.28999 -4.56745,-0.10602 z m 14.63913,0.1871 c -2.95066,-2.49771 -1.67247,-5.36292 2.21598,-4.96738 2.20043,0.22385 3.02384,0.84721 3.24279,2.45495 0.43942,3.2266 -2.8348,4.73358 -5.45877,2.51243 z m 14.63892,0.41317 c -0.90754,-0.69372 -1.49411,-2.12063 -1.30348,-3.17092 0.46171,-2.54385 5.95539,-3.25714 6.82571,-0.88622 1.17094,3.18986 -2.82048,6.12234 -5.52223,4.05714 z m -266.48453,-7.32422 c -1.0852,-0.93833 -2.97611,-3.26127 -4.20202,-5.16208 -1.22592,-1.90082 -4.73831,-6.34429 -7.80533,-9.87438 -7.01198,-8.0707 -15.77397,-21.27827 -15.77397,-23.77723 0,-3.78114 4.8914,-1.15333 10.71514,5.7565 3.29587,3.91054 5.70285,4.07307 7.91863,0.5347 1.39602,-2.22931 1.67726,-4.9356 1.68961,-16.25883 0.0148,-13.6458 0.66337,-16.51354 3.47889,-15.38411 0.82161,0.32959 1.66289,4.03388 2.42084,10.65948 0.63889,5.5849 1.39912,10.40263 1.68938,10.70607 1.09861,1.14844 2.1324,-2.39236 3.17152,-10.86252 1.53794,-12.53622 2.96867,-15.73645 5.5703,-12.45947 0.67231,0.84685 0.72039,4.42235 0.14936,11.10867 -0.46313,5.42295 -0.85722,10.63751 -0.87576,11.58791 -0.0782,4.01108 2.23174,1.12733 6.12994,-7.65264 2.60864,-5.87546 4.70591,-9.38065 5.61273,-9.38065 2.20565,0 1.78965,3.90119 -1.38594,12.99725 -1.55856,4.46432 -2.83375,8.47624 -2.83375,8.91537 0,1.81188 2.08292,0.5067 7.39294,-4.63247 3.0863,-2.98699 6.06088,-5.4309 6.61018,-5.4309 2.52614,0 1.57008,2.29635 -4.07371,9.78472 -3.34643,4.44016 -6.47435,9.49828 -6.95092,11.24026 -0.47656,1.74198 -1.74601,5.46151 -2.82098,8.26561 -1.33665,3.48668 -1.77878,6.23042 -1.3986,8.67943 0.51031,3.28732 0.19525,3.94229 -3.84101,7.98517 -4.7409,4.74867 -7.39548,5.41414 -10.58747,2.65414 z m 214.32464,-4.80258 c -0.78141,-2.1287 0.89663,-4.80297 3.01372,-4.80297 0.9258,0 2.11605,0.7172 2.64499,1.5938 1.44307,2.39152 0.10919,4.82454 -2.64499,4.82454 -1.3698,0 -2.67819,-0.7013 -3.01372,-1.61537 z m 14.43252,0.006 c -0.94831,-2.58341 2.73021,-6.11117 4.88842,-4.68805 0.90193,0.59474 1.63989,2.14379 1.63989,3.44233 0,1.92151 -0.54898,2.41681 -2.94933,2.66099 -2.10747,0.21438 -3.12905,-0.1896 -3.57898,-1.41527 z m 14.8496,-0.006 c -0.78141,-2.1287 0.89663,-4.80297 3.01372,-4.80297 0.9258,0 2.11605,0.7172 2.64499,1.5938 1.44307,2.39152 0.10919,4.82454 -2.64499,4.82454 -1.3698,0 -2.67819,-0.7013 -3.01372,-1.61537 z m 14.211,0.11505 c -0.35891,-0.97773 0.16291,-2.42088 1.30828,-3.61822 1.59157,-1.66377 2.24483,-1.80184 3.96691,-0.8384 3.24008,1.81271 2.24889,5.38522 -1.60176,5.77315 -2.17654,0.21927 -3.25102,-0.16581 -3.67343,-1.31653 z M 409.2869,411.10845 c -1.25608,-2.45348 0.40938,-5.15856 3.176,-5.15856 1.43887,0 2.47237,0.72954 2.86486,2.02227 1.22899,4.04787 -4.14561,6.83825 -6.04086,3.13629 z m 14.93431,0.18958 c -1.65678,-2.08688 -0.004,-4.85442 2.89947,-4.85442 2.90325,0 4.55625,2.76754 2.89947,4.85442 -0.68289,0.86016 -1.98765,1.56393 -2.89947,1.56393 -0.91182,0 -2.21658,-0.70377 -2.89947,-1.56393 z m 14.20217,-0.47407 c -0.77447,-1.51274 -0.75322,-2.40346 0.0825,-3.45603 1.69743,-2.13807 5.38222,-1.77332 6.10408,0.60423 1.29295,4.25855 -4.17571,6.77946 -6.1865,2.8518 z M 401.6169,394.57824 v -3.47217 l 25.26763,0.263 25.26764,0.26298 0.29599,3.20917 0.296,3.20917 H 427.18053 401.6169 Z m 4.20542,-9.11767 c 1.3216,-5.67939 8.65325,-12.44963 15.51262,-14.32478 1.57703,-0.4311 2.0074,-1.30953 2.0074,-4.09723 0,-3.4816 0.0712,-3.54848 3.77834,-3.54848 h 3.77834 v 3.94975 c 0,3.09985 0.35569,3.95175 1.65302,3.95902 3.54309,0.0198 11.31557,5.77966 13.81454,10.23727 1.36375,2.43263 2.47954,4.89928 2.47954,5.48144 0,0.72245 -6.92919,1.05846 -21.82784,1.05846 H 405.19043 Z M 130.78579,354.86356 c 2.4834,-0.20408 6.30897,-0.20161 8.50126,0.006 2.19229,0.20708 0.16042,0.37406 -4.51528,0.37105 -4.67569,-0.003 -6.46938,-0.17245 -3.98598,-0.37652 z m -10.83219,-0.93494 c 0.68187,-0.28524 1.49657,-0.25017 1.81046,0.0779 0.31388,0.32811 -0.24402,0.56149 -1.23977,0.51862 -1.10039,-0.0474 -1.32421,-0.28136 -0.57069,-0.59657 z m 27.39295,0 c 0.68187,-0.28524 1.49657,-0.25017 1.81046,0.0779 0.31388,0.32811 -0.24402,0.56149 -1.23977,0.51862 -1.10039,-0.0474 -1.32421,-0.28136 -0.57069,-0.59657 z m -21.07604,-2.1721 c -7.88039,-1.01682 -8.00605,-1.21302 -9.27077,-14.47489 -1.04949,-11.00492 -1.26764,-11.81621 -3.48112,-12.94661 -4.17521,-2.13222 -11.29509,-5.27962 -11.94329,-5.27962 -0.34588,0 -4.37719,3.3326 -8.95847,7.40578 -4.58128,4.07318 -9.05022,7.40578 -9.93098,7.40578 -1.96724,0 -18.73343,-17.54429 -19.64946,-20.56136 -0.53161,-1.75094 0.7406,-3.99971 6.4911,-11.47373 3.93377,-5.11278 7.1523,-9.68865 7.1523,-10.16859 0,-0.47994 -0.82255,-2.65235 -1.82788,-4.82755 -1.00534,-2.17521 -2.11689,-5.15864 -2.47012,-6.62986 -0.86688,-3.61063 -2.343,-4.22393 -12.08267,-5.02013 -10.01424,-0.81865 -12.51723,-1.69535 -13.43305,-4.70508 -1.08909,-3.57912 -0.76207,-23.94361 0.42162,-26.25569 1.1314,-2.20995 3.61598,-2.82382 16.20602,-4.00403 7.68347,-0.72027 6.79804,0.0952 11.19332,-10.30819 1.09602,-2.5942 1.99276,-5.35302 1.99276,-6.1307 0,-0.77769 -3.15377,-5.52265 -7.00837,-10.54438 -6.66222,-8.67945 -6.94646,-9.25452 -5.75483,-11.64317 1.85282,-3.714 16.99443,-18.80547 18.86796,-18.80547 0.88696,0 5.24181,3.11043 9.67745,6.91206 4.43564,3.80164 8.48929,6.91206 9.00811,6.91206 0.51883,0 3.9148,-1.21327 7.54663,-2.69617 7.78602,-3.17908 8.00004,-3.57904 8.87461,-16.58512 0.34682,-5.1578 1.14492,-10.11313 1.77355,-11.01184 0.96702,-1.38248 3.13133,-1.63401 14.06004,-1.63401 7.10439,0 13.31521,0.41619 13.8018,0.92486 0.48659,0.50866 1.33111,5.35945 1.87669,10.77951 1.41406,14.04774 1.4737,14.22103 5.47435,15.90606 1.92972,0.81278 4.84801,2.11654 6.48508,2.89725 1.63708,0.7807 3.54987,1.40841 4.25063,1.39492 0.70077,-0.0135 4.88716,-3.12266 9.30309,-6.90922 4.41594,-3.78656 8.83278,-6.88594 9.81521,-6.88751 2.27377,-0.004 19.46691,17.87717 19.46691,20.24552 0,0.97107 -1.55968,3.75531 -3.46595,6.18721 -1.90628,2.43189 -5.05656,6.63456 -7.00064,9.33927 -3.93902,5.48018 -3.94945,5.28888 0.84831,15.5719 l 2.5339,5.4309 10.74125,1.15669 c 5.90768,0.63616 11.22096,1.65694 11.8073,2.26836 1.5112,1.57588 2.0049,24.1179 0.60556,27.64948 -1.2035,3.03731 -2.27441,3.35558 -15.35315,4.56282 -4.02181,0.37124 -7.69878,1.16946 -8.17102,1.77384 -1.09711,1.40405 -5.77093,13.43814 -5.76607,14.84638 0.002,0.58523 3.18999,5.23218 7.08439,10.32655 3.89439,5.09438 7.08071,9.4968 7.08071,9.78317 0,0.28637 -1.75754,2.90211 -3.90564,5.81277 -4.96129,6.72249 -14.63351,16.12022 -16.59108,16.12022 -1.36248,0 -7.62297,-5.06737 -14.9252,-12.08076 -1.55857,-1.49691 -3.25882,-2.72482 -3.77834,-2.72867 -0.51952,-0.004 -4.02629,1.40743 -7.79282,3.13619 -5.62401,2.5813 -6.84824,3.54627 -6.84824,5.39796 0,1.24011 -0.48027,6.66994 -1.06727,12.06629 -0.9144,8.40627 -1.3541,9.95806 -3.0699,10.83448 -2.5711,1.31333 -14.78571,2.05228 -20.89432,1.26407 z m 21.49127,-56.34014 c 14.17798,-5.68283 24.32108,-21.36396 24.32108,-37.60014 0,-15.43918 -9.30769,-30.78514 -22.67003,-37.37695 -4.61045,-2.2744 -6.36475,-2.56288 -15.58564,-2.56288 -9.20104,0 -10.98512,0.29193 -15.58565,2.55023 -24.51314,12.03297 -30.39405,46.21368 -11.37243,66.09825 4.72732,4.94178 11.74403,9.20431 17.74452,10.7795 5.65117,1.48349 17.05778,0.55315 23.14815,-1.88801 z m 22.43191,51.28727 c 0,-0.54309 0.45015,-0.98744 1.00034,-0.98744 0.55018,0 0.73762,0.44435 0.41654,0.98744 -0.32109,0.54309 -0.77124,0.98743 -1.00034,0.98743 -0.2291,0 -0.41654,-0.44434 -0.41654,-0.98743 z m 310.99513,-15.47187 c 1.47193,-1.5387 1.27871,-1.84909 -2.91956,-4.69033 -2.47268,-1.67342 -9.14805,-7.75172 -14.83414,-13.50734 -5.68611,-5.75561 -12.88609,-12.9474 -15.99997,-15.98174 -5.49741,-5.35701 -5.62993,-5.6047 -4.56961,-8.54125 l 1.09199,-3.02424 -3.74559,0.62611 c -3.23931,0.54149 -4.11311,0.25805 -6.46452,-2.09695 l -2.71893,-2.72307 -5.25996,5.20033 -5.25994,5.20031 v 6.09922 c 0,8.95338 -2.07628,14.19455 -8.16461,20.61006 -7.1957,7.58236 -15.07947,11.50298 -23.59649,11.73458 -9.21035,0.25045 -15.35597,-0.71029 -19.71876,-3.0826 -5.30726,-2.88588 -10.26764,-7.59688 -9.45188,-8.9767 0.37194,-0.62912 -0.16868,-2.11073 -1.20139,-3.29248 -4.10612,-4.69874 -5.33805,-8.72683 -5.33805,-17.45392 0,-9.45629 0.80916,-11.6599 6.96164,-18.9589 4.00496,-4.75129 11.78889,-10.04478 17.28293,-11.75334 1.69497,-0.52711 5.97116,-0.96315 9.50265,-0.96899 l 6.42089,-0.0106 7.73982,-7.112 c 4.25692,-3.9116 10.7189,-10.00762 14.35998,-13.54671 3.64108,-3.5391 10.84701,-10.42647 16.01317,-15.30528 17.07275,-16.12313 16.87879,-15.89759 16.17876,-18.81326 -0.85013,-3.54085 1.22311,-12.96818 3.7852,-17.21184 2.96791,-4.91585 8.54188,-10.02352 14.53001,-13.31449 7.01688,-3.85635 17.85097,-4.61472 22.47007,-1.57287 1.68844,1.11191 3.05721,2.80579 3.0417,3.76417 -0.0155,0.9584 -3.41601,4.80808 -7.55668,8.55488 -8.31735,7.52615 -8.82055,8.88636 -5.67329,15.33535 1.23337,2.5273 2.8636,4.16892 4.86387,4.89785 5.72992,2.08809 8.17264,1.42124 13.40991,-3.6608 8.75661,-8.49711 9.48227,-9.06695 11.54632,-9.06695 3.85408,0 5.64835,3.48933 5.51462,10.72424 -0.15493,8.38138 -2.10769,12.99311 -8.07409,19.06822 -7.20045,7.33164 -14.43169,10.75881 -23.46377,11.12042 -7.30331,0.2924 -7.42551,0.34126 -12.65309,5.05916 -2.90321,2.62016 -5.27856,5.21346 -5.27856,5.76289 0,0.54943 1.35937,2.4651 3.02083,4.25706 2.34681,2.53114 2.76833,3.52206 1.88917,4.44111 -2.26392,2.36663 -1.27083,3.58193 2.49549,3.05383 3.44675,-0.48328 3.99879,-0.14651 11.09887,6.7708 4.10945,4.00366 12.29111,11.67986 18.18149,17.05824 7.65107,6.98602 11.30351,11.07187 12.78868,14.30621 l 2.07889,4.52734 -3.13961,4.60932 c -4.97615,7.30558 -14.34847,15.8085 -21.85727,19.82976 -7.53145,4.03339 -12.20457,5.06306 -9.32719,2.05515 z m 17.91704,-15.39046 c 1.40701,-1.21926 2.85763,-3.53491 3.22358,-5.14588 0.6609,-2.90939 0.62944,-2.89697 -4.68353,1.84796 -2.94189,2.62736 -5.3489,4.94521 -5.3489,5.15079 0,1.27201 4.66895,9.8e-4 6.80885,-1.85287 z M 393.38427,301.37603 c 2.01771,-3.57068 2.03835,-5.42201 0.095,-8.52246 -1.304,-2.08044 -2.25295,-2.43386 -6.53505,-2.43386 -4.69518,0 -5.13628,0.21438 -7.02931,3.41633 -1.57336,2.66124 -1.80053,3.84456 -1.02781,5.3539 1.99978,3.90616 3.91306,5.0539 8.42482,5.0539 3.91213,0 4.64824,-0.34765 6.07233,-2.86781 z m 76.715,-13.91863 c -0.94032,-1.08618 -2.17512,-1.96009 -2.744,-1.94202 -0.56888,0.0181 -0.0309,0.90676 1.19562,1.97487 2.8846,2.51213 3.73597,2.49407 1.54838,-0.0329 z M 459.5864,277.21731 c -3.54009,-3.54053 -6.661,-6.19069 -6.93538,-5.88927 -0.57163,0.62801 12.39995,13.34262 12.9866,12.72935 0.21191,-0.22153 -2.51114,-3.29956 -6.05122,-6.84008 z m -48.35498,-1.9256 c 0.68651,-0.71713 5.40509,-5.16502 10.48573,-9.8842 5.08065,-4.71917 11.4566,-10.73407 14.16877,-13.36645 2.71218,-2.63237 9.50066,-9.10757 15.08552,-14.38934 5.58485,-5.28178 10.15428,-10.04072 10.15428,-10.57544 0,-0.99071 -8.007,5.46778 -9.24062,7.45352 -0.37263,0.59982 -2.37777,2.59997 -4.45585,4.44476 -12.05978,10.70586 -39.27755,37.58052 -38.087,37.60685 0.35254,0.008 1.20266,-0.57257 1.88917,-1.2897 z M 54.63951,305.56042 c -0.34634,-0.36206 -0.62972,-1.11745 -0.62972,-1.67865 0,-0.61873 0.43996,-0.56043 1.11776,0.14812 0.61477,0.64266 0.89814,1.39805 0.62972,1.67864 -0.26842,0.2806 -0.77141,0.21395 -1.11776,-0.14811 z M 43.69393,267.13265 c 0.0453,-1.15032 0.26915,-1.38429 0.57069,-0.59658 0.27286,0.7128 0.23931,1.56447 -0.0746,1.89259 -0.31388,0.32812 -0.53713,-0.25509 -0.49611,-1.29601 z m 183.35898,-5.84234 c 0.0193,-1.62928 0.23095,-2.17626 0.47044,-1.21551 0.23949,0.96075 0.22374,2.29379 -0.035,2.96231 -0.25875,0.66853 -0.4547,-0.11753 -0.43545,-1.7468 z M 398.0495,232.37915 c -18.09103,-17.5081 -20.69827,-19.68965 -24.39922,-20.41545 -1.85512,-0.36381 -4.31794,-1.11157 -5.47293,-1.6617 -2.56141,-1.22 -11.90051,-16.43786 -11.90051,-19.39161 0,-2.12187 10.26989,-12.07111 12.46014,-12.07111 0.56487,0 5.19782,2.30882 10.29545,5.13071 9.26245,5.12741 9.26974,5.13442 11.33283,10.90135 1.25134,3.49785 3.25499,6.82456 5.08731,8.44655 12.25029,10.84418 27.88977,26.46128 27.88977,27.84988 0,1.80807 -10.51216,12.84238 -12.23467,12.84238 -0.57196,0 -6.44813,-5.23395 -13.05817,-11.631 z M 210.37941,180.07572 c -0.34845,-0.94924 -0.33178,-16.41333 0.037,-34.36465 l 0.67058,-32.63878 8.12702,-5.09448 c 4.46987,-2.80196 13.65284,-8.632342 20.40662,-12.956399 l 12.2796,-7.861928 0.79466,11.032727 c 0.43706,6.068 0.96713,11.21656 1.17794,11.44124 0.2108,0.22468 2.82865,-0.84726 5.81743,-2.38209 19.86569,-10.201634 38.19693,-19.256327 38.98449,-19.256327 0.50985,0 0.96903,2.777168 1.02042,6.171484 0.0514,3.394316 0.37017,8.516193 0.70844,11.381953 0.61049,5.17211 0.63067,5.19897 2.74033,3.6469 2.1235,-1.56224 2.12533,-1.58896 2.13978,-31.377563 0.008,-16.397695 0.35978,-30.382855 0.78183,-31.078134 0.57553,-0.948112 3.93692,-1.194967 13.44587,-0.987437 l 12.6785,0.276705 0.2535,22.936271 0.2535,22.936271 4.21255,-2.139461 c 2.3169,-1.176709 4.42627,-1.916043 4.6875,-1.642977 0.33955,0.354964 0.77219,75.930475 0.52924,92.448245 -0.0144,0.97541 -13.76708,1.2343 -65.56572,1.2343 -61.52388,0 -65.58645,-0.10594 -66.1811,-1.72587 z m 42.93772,-19.50403 v -6.41835 l -13.93262,-0.002 -13.93262,-0.002 0.31674,6.42042 0.31674,6.42042 h 13.61588 13.61588 v -6.41835 z m 37.78338,0 v -6.41835 h -13.69648 -13.69647 v 6.41835 6.41834 h 13.69647 13.69648 z m 39.67255,0 v -6.41835 h -13.69648 -13.69647 v 6.41835 6.41834 h 13.69647 13.69648 z m -77.45593,-24.19222 v -6.91206 h -12.67464 c -6.97105,0 -13.34699,0.2697 -14.16876,0.59936 -1.12176,0.44999 -1.49414,2.0086 -1.49414,6.25377 0,3.10992 0.28338,5.95064 0.62973,6.3127 0.34634,0.36206 6.72229,0.65829 14.16877,0.65829 h 13.53904 z m 37.78338,-0.15937 v -6.80549 l -13.93262,0.27326 -13.93262,0.27325 0.33607,5.92463 c 0.18484,3.25854 0.73392,6.1845 1.22019,6.50211 0.48626,0.31762 6.60471,0.59104 13.59654,0.60761 l 12.71244,0.0301 z m 39.47956,0.40623 -0.2793,-6.66521 h -13.69648 -13.69647 l -0.2898,5.31321 c -0.15938,2.92226 -0.0665,5.9216 0.2065,6.6652 0.38867,1.05882 3.4822,1.352 14.26558,1.352 h 13.76927 z M 116.17526,158.416 c 0.68187,-0.28524 1.49658,-0.25017 1.81046,0.0779 0.31388,0.32812 -0.24402,0.5615 -1.23977,0.51862 -1.10039,-0.0474 -1.32421,-0.28136 -0.57069,-0.59657 z m 35.89422,0 c 0.68186,-0.28524 1.49657,-0.25017 1.81045,0.0779 0.31388,0.32812 -0.24402,0.5615 -1.23976,0.51862 -1.1004,-0.0474 -1.32422,-0.28136 -0.57069,-0.59657 z"
     id="path2009" /></svg>
