<?xml version="1.0" encoding="UTF-8" standalone="no"?>
<svg
   viewBox="0 0 558.57268 561.12316"
   version="1.1"
   id="svg1793"
   sodipodi:docname="ОПЦИИ.svg"
   xml:space="preserve"
   inkscape:version="1.2.1 (9c6d41e410, 2022-07-14)"
   width="558.57269"
   height="561.12317"
   xmlns:inkscape="http://www.inkscape.org/namespaces/inkscape"
   xmlns:sodipodi="http://sodipodi.sourceforge.net/DTD/sodipodi-0.dtd"
   xmlns:xlink="http://www.w3.org/1999/xlink"
   xmlns="http://www.w3.org/2000/svg"
   xmlns:svg="http://www.w3.org/2000/svg"
   xmlns:rdf="http://www.w3.org/1999/02/22-rdf-syntax-ns#"
   xmlns:cc="http://creativecommons.org/ns#"
   xmlns:dc="http://purl.org/dc/elements/1.1/"><sodipodi:namedview
     id="namedview1795"
     pagecolor="#ffffff"
     bordercolor="#111111"
     borderopacity="1"
     inkscape:showpageshadow="0"
     inkscape:pageopacity="0"
     inkscape:pagecheckerboard="1"
     inkscape:deskcolor="#d1d1d1"
     showgrid="false"
     inkscape:zoom="1.0439548"
     inkscape:cx="143.68438"
     inkscape:cy="309.87932"
     inkscape:window-width="1920"
     inkscape:window-height="1018"
     inkscape:window-x="-6"
     inkscape:window-y="-6"
     inkscape:window-maximized="1"
     inkscape:current-layer="svg1793" /><defs
     id="defs1248"><style
       id="style920">
      .cls-1 {
        fill: url(#radial-gradient);
      }

      .cls-2 {
        fill: url(#radial-gradient-2);
      }

      .cls-3 {
        fill: url(#radial-gradient-3);
      }

      .cls-4 {
        fill: url(#radial-gradient-4);
      }

      .cls-5 {
        fill: url(#radial-gradient-5);
      }

      .cls-6 {
        fill: url(#radial-gradient-6);
      }

      .cls-7 {
        fill: url(#radial-gradient-7);
      }

      .cls-8 {
        fill: url(#radial-gradient-8);
      }

      .cls-9 {
        fill: url(#radial-gradient-9);
      }

      .cls-10 {
        fill: url(#radial-gradient-11);
      }

      .cls-11 {
        fill: url(#radial-gradient-12);
      }

      .cls-12 {
        fill: url(#radial-gradient-13);
      }

      .cls-13 {
        fill: url(#radial-gradient-14);
      }

      .cls-14 {
        fill: url(#radial-gradient-15);
      }

      .cls-15 {
        fill: url(#radial-gradient-16);
      }

      .cls-16 {
        fill: url(#radial-gradient-17);
      }

      .cls-17 {
        fill: url(#radial-gradient-18);
      }

      .cls-18 {
        fill: url(#radial-gradient-19);
      }

      .cls-19 {
        fill: url(#radial-gradient-21);
      }

      .cls-20 {
        fill: url(#radial-gradient-22);
      }

      .cls-21 {
        fill: url(#radial-gradient-23);
      }

      .cls-22 {
        fill: url(#radial-gradient-24);
      }

      .cls-23 {
        fill: url(#radial-gradient-25);
      }

      .cls-24 {
        fill: url(#radial-gradient-26);
      }

      .cls-25 {
        fill: url(#radial-gradient-27);
      }

      .cls-26 {
        fill: url(#radial-gradient-28);
      }

      .cls-27 {
        fill: url(#radial-gradient-29);
      }

      .cls-28 {
        fill: url(#radial-gradient-31);
      }

      .cls-29 {
        fill: url(#radial-gradient-32);
      }

      .cls-30 {
        fill: url(#radial-gradient-33);
      }

      .cls-31 {
        fill: url(#radial-gradient-34);
      }

      .cls-32 {
        fill: url(#radial-gradient-35);
      }

      .cls-33 {
        fill: url(#radial-gradient-36);
      }

      .cls-34 {
        fill: url(#radial-gradient-37);
      }

      .cls-35 {
        fill: url(#radial-gradient-38);
      }

      .cls-36 {
        fill: url(#radial-gradient-39);
      }

      .cls-37 {
        fill: url(#radial-gradient-41);
      }

      .cls-38 {
        fill: url(#radial-gradient-42);
      }

      .cls-39 {
        fill: url(#radial-gradient-43);
      }

      .cls-40 {
        fill: url(#radial-gradient-44);
      }

      .cls-41 {
        fill: url(#radial-gradient-45);
      }

      .cls-42 {
        fill: url(#radial-gradient-46);
      }

      .cls-43 {
        fill: url(#radial-gradient-47);
      }

      .cls-44 {
        fill: url(#radial-gradient-48);
      }

      .cls-45 {
        fill: url(#radial-gradient-49);
      }

      .cls-46 {
        fill: url(#radial-gradient-51);
      }

      .cls-47 {
        fill: url(#radial-gradient-52);
      }

      .cls-48 {
        fill: url(#radial-gradient-53);
      }

      .cls-49 {
        fill: url(#radial-gradient-54);
      }

      .cls-50 {
        fill: url(#radial-gradient-56);
      }

      .cls-51 {
        fill: url(#radial-gradient-57);
      }

      .cls-52, .cls-53, .cls-54, .cls-55, .cls-56, .cls-57, .cls-58, .cls-59, .cls-60, .cls-86 {
        fill: none;
      }

      .cls-53 {
        clip-path: url(#clip-path);
      }

      .cls-54 {
        clip-path: url(#clip-path-8);
      }

      .cls-55 {
        clip-path: url(#clip-path-2);
      }

      .cls-56 {
        clip-path: url(#clip-path-3);
      }

      .cls-57 {
        clip-path: url(#clip-path-4);
      }

      .cls-58 {
        clip-path: url(#clip-path-5);
      }

      .cls-59 {
        clip-path: url(#clip-path-6);
      }

      .cls-60 {
        clip-path: url(#clip-path-7);
      }

      .cls-61 {
        isolation: isolate;
      }

      .cls-62 {
        clip-path: url(#clip-path-9);
      }

      .cls-63 {
        mask: url(#mask);
      }

      .cls-64, .cls-69 {
        fill: #fff;
      }

      .cls-64, .cls-90 {
        mix-blend-mode: overlay;
      }

      .cls-65 {
        mask: url(#mask-2);
      }

      .cls-66 {
        mask: url(#mask-3);
      }

      .cls-67 {
        mask: url(#mask-4);
      }

      .cls-68 {
        mask: url(#mask-5);
      }

      .cls-70 {
        mask: url(#mask-6);
      }

      .cls-71 {
        opacity: 0.3;
        fill: url(#radial-gradient-58);
      }

      .cls-71, .cls-80, .cls-81, .cls-82, .cls-83, .cls-84 {
        mix-blend-mode: color-dodge;
      }

      .cls-72, .cls-90 {
        opacity: 0.5;
      }

      .cls-73 {
        mix-blend-mode: multiply;
      }

      .cls-74 {
        clip-path: url(#clip-path-10);
      }

      .cls-75 {
        fill: url(#linear-gradient);
      }

      .cls-76 {
        fill: url(#linear-gradient-2);
      }

      .cls-77 {
        fill: url(#linear-gradient-3);
      }

      .cls-78 {
        fill: url(#linear-gradient-4);
      }

      .cls-79 {
        fill: #f7e8da;
      }

      .cls-80 {
        opacity: 0.8;
        fill: url(#radial-gradient-59);
      }

      .cls-81 {
        opacity: 0.67;
        fill: url(#radial-gradient-60);
      }

      .cls-82 {
        fill: url(#radial-gradient-61);
      }

      .cls-83 {
        fill: url(#radial-gradient-62);
      }

      .cls-84 {
        fill: url(#radial-gradient-63);
      }

      .cls-85, .cls-87 {
        fill: #ff7009;
      }

      .cls-85, .cls-86, .cls-87 {
        stroke: #000;
        stroke-miterlimit: 10;
      }

      .cls-85 {
        stroke-width: 0.17443px;
      }

      .cls-86 {
        stroke-width: 3px;
      }

      .cls-87 {
        stroke-width: 0.17774px;
      }

      .cls-88 {
        mask: url(#mask-7);
      }

      .cls-89 {
        mask: url(#mask-8);
      }

      .cls-90 {
        fill: #030303;
      }

      .cls-91 {
        mask: url(#mask-9);
      }

      .cls-92 {
        mask: url(#mask-10);
      }

      .cls-93 {
        mask: url(#mask-11);
      }

      .cls-94 {
        mask: url(#mask-12);
      }

      .cls-95 {
        mask: url(#mask-13);
      }

      .cls-96 {
        mask: url(#mask-14);
      }

      .cls-97 {
        mask: url(#mask-15);
      }

      .cls-98 {
        mask: url(#mask-16);
      }

      .cls-99 {
        mask: url(#mask-17);
      }

      .cls-100 {
        mask: url(#mask-19);
      }

      .cls-101 {
        mask: url(#mask-20);
      }

      .cls-102 {
        mask: url(#mask-21);
      }

      .cls-103 {
        mask: url(#mask-22);
      }

      .cls-104 {
        mask: url(#mask-23);
      }

      .cls-105 {
        mask: url(#mask-24);
      }

      .cls-106 {
        mask: url(#mask-25);
      }

      .cls-107 {
        mask: url(#mask-26);
      }

      .cls-108 {
        mask: url(#mask-28);
      }

      .cls-109 {
        mask: url(#mask-29);
      }

      .cls-110 {
        opacity: 0.6;
      }

      .cls-111 {
        mask: url(#mask-30);
      }

      .cls-112 {
        mask: url(#mask-31);
      }

      .cls-113 {
        mask: url(#mask-32);
      }

      .cls-114 {
        mask: url(#mask-33);
      }

      .cls-115 {
        mask: url(#mask-34);
      }

      .cls-116 {
        mask: url(#mask-35);
      }

      .cls-117 {
        mask: url(#mask-37);
      }

      .cls-118 {
        mask: url(#mask-38);
      }

      .cls-119 {
        clip-path: url(#clip-path-11);
      }

      .cls-120 {
        mask: url(#mask-39);
      }

      .cls-121 {
        mask: url(#mask-40);
      }

      .cls-122 {
        mask: url(#mask-41);
      }

      .cls-123 {
        mask: url(#mask-42);
      }

      .cls-124 {
        mask: url(#mask-43);
      }

      .cls-125 {
        mask: url(#mask-44);
      }

      .cls-126 {
        mask: url(#mask-46);
      }

      .cls-127 {
        mask: url(#mask-47);
      }

      .cls-128 {
        clip-path: url(#clip-path-12);
      }

      .cls-129 {
        mask: url(#mask-48);
      }

      .cls-130 {
        mask: url(#mask-49);
      }

      .cls-131 {
        mask: url(#mask-50);
      }

      .cls-132 {
        mask: url(#mask-51);
      }

      .cls-133 {
        mask: url(#mask-52);
      }

      .cls-134 {
        mask: url(#mask-53);
      }

      .cls-135 {
        mask: url(#mask-55);
      }

      .cls-136 {
        mask: url(#mask-56);
      }
    </style><radialGradient
       id="radial-gradient"
       cx="8237.7695"
       cy="2885.6951"
       r="136.18636"
       gradientTransform="matrix(-0.216,0.75768,-0.97796,-0.28443,5251.9708,-5143.9097)"
       gradientUnits="userSpaceOnUse"><stop
         offset="0"
         stop-color="#4a4848"
         id="stop922" /><stop
         offset="1"
         stop-color="#020000"
         id="stop924" /></radialGradient><radialGradient
       id="radial-gradient-2"
       cx="8244.7988"
       cy="2882.7891"
       r="148.04797"
       xlink:href="#radial-gradient" /><radialGradient
       id="radial-gradient-3"
       cx="1242.4672"
       cy="1779.7726"
       r="107.5862"
       gradientTransform="matrix(0.78713,0.03506,-0.03996,1.01766,-503.99377,-1573.636)"
       xlink:href="#radial-gradient" /><radialGradient
       id="radial-gradient-4"
       cx="5329.1577"
       cy="2223.0308"
       r="51.176231"
       gradientTransform="matrix(0.41525,0.66956,-0.86839,0.53218,90.78117,-4371.9614)"
       xlink:href="#radial-gradient" /><radialGradient
       id="radial-gradient-5"
       cx="5331.7988"
       cy="2221.9387"
       r="55.633598"
       gradientTransform="matrix(0.41525,0.66956,-0.86839,0.53218,90.78117,-4371.9614)"
       xlink:href="#radial-gradient" /><radialGradient
       id="radial-gradient-6"
       cx="5411.0913"
       cy="2223.4846"
       r="59.705502"
       gradientTransform="matrix(0.39414,0.6355,-0.86839,0.53218,173.60874,-4238.5254)"
       xlink:href="#radial-gradient" /><radialGradient
       id="radial-gradient-7"
       cx="5333.0713"
       cy="2219.5662"
       r="52.76976"
       gradientTransform="matrix(0.41525,0.66956,-0.86839,0.53218,90.78117,-4371.9614)"
       xlink:href="#radial-gradient" /><radialGradient
       id="radial-gradient-8"
       cx="5329.4175"
       cy="2210.874"
       r="42.709541"
       gradientTransform="matrix(0.41525,0.66956,-0.86839,0.53218,90.78117,-4371.9614)"
       xlink:href="#radial-gradient" /><radialGradient
       id="radial-gradient-9"
       cx="5941.6646"
       cy="1909.6281"
       r="36.00251"
       gradientTransform="matrix(0.24993,0.74597,-0.96919,0.31768,741.41231,-4671.9074)"
       xlink:href="#radial-gradient" /><radialGradient
       id="radial-gradient-11"
       cx="5946.6138"
       cy="1909.6034"
       r="40.950062"
       gradientTransform="matrix(0.24993,0.74597,-0.96919,0.31768,741.41231,-4671.9074)"
       xlink:href="#radial-gradient" /><radialGradient
       id="radial-gradient-12"
       cx="5950.0054"
       cy="1909.6295"
       r="44.337971"
       gradientTransform="matrix(0.24993,0.74597,-0.96919,0.31768,741.41231,-4671.9074)"
       xlink:href="#radial-gradient" /><radialGradient
       id="radial-gradient-13"
       cx="8486.1992"
       cy="2886.697"
       r="158.8838"
       gradientTransform="matrix(-0.205,0.71916,-0.97796,-0.28443,5208.9736,-4992.8573)"
       xlink:href="#radial-gradient" /><radialGradient
       id="radial-gradient-14"
       cx="5477.2432"
       cy="2067.3115"
       r="51.176231"
       gradientTransform="matrix(0.44217,0.69344,-0.92468,0.55116,-132.13179,-4563.2389)"
       xlink:href="#radial-gradient" /><radialGradient
       id="radial-gradient-15"
       cx="5479.8848"
       cy="2066.2192"
       r="55.633598"
       gradientTransform="matrix(0.44217,0.69344,-0.92468,0.55116,-132.13179,-4563.2389)"
       xlink:href="#radial-gradient" /><radialGradient
       id="radial-gradient-16"
       cx="5567.1118"
       cy="2067.7678"
       r="59.705502"
       gradientTransform="matrix(0.41969,0.65816,-0.92468,0.55116,-43.93464,-4425.0443)"
       xlink:href="#radial-gradient" /><radialGradient
       id="radial-gradient-17"
       cx="5481.1572"
       cy="2063.8467"
       r="52.76976"
       gradientTransform="matrix(0.44217,0.69344,-0.92468,0.55116,-132.13179,-4563.2389)"
       xlink:href="#radial-gradient" /><radialGradient
       id="radial-gradient-18"
       cx="5477.5029"
       cy="2055.1548"
       r="42.709541"
       gradientTransform="matrix(0.44217,0.69344,-0.92468,0.55116,-132.13179,-4563.2389)"
       xlink:href="#radial-gradient" /><radialGradient
       id="radial-gradient-19"
       cx="6039.2134"
       cy="1731.8132"
       r="36.00251"
       gradientTransform="matrix(0.26613,0.77258,-1.03202,0.329,560.67877,-4873.8813)"
       xlink:href="#radial-gradient" /><radialGradient
       id="radial-gradient-21"
       cx="6044.1621"
       cy="1731.7887"
       r="40.950062"
       gradientTransform="matrix(0.26613,0.77258,-1.03202,0.329,560.67877,-4873.8813)"
       xlink:href="#radial-gradient" /><radialGradient
       id="radial-gradient-22"
       cx="6047.5537"
       cy="1731.8148"
       r="44.337971"
       gradientTransform="matrix(0.26613,0.77258,-1.03202,0.329,560.67877,-4873.8813)"
       xlink:href="#radial-gradient" /><radialGradient
       id="radial-gradient-23"
       cx="8227.3965"
       cy="3216.3218"
       r="115.37826"
       xlink:href="#radial-gradient" /><radialGradient
       id="radial-gradient-24"
       cx="8248.1846"
       cy="2876.4751"
       r="140.42693"
       xlink:href="#radial-gradient" /><radialGradient
       id="radial-gradient-25"
       cx="8233.3516"
       cy="3213.8596"
       r="125.42752"
       xlink:href="#radial-gradient" /><radialGradient
       id="radial-gradient-26"
       cx="8472.6631"
       cy="3217.2024"
       r="134.60773"
       gradientTransform="matrix(-0.205,0.71916,-0.97796,-0.28443,5208.9736,-4992.8573)"
       xlink:href="#radial-gradient" /><radialGradient
       id="radial-gradient-27"
       cx="8236.2197"
       cy="3208.5105"
       r="118.9709"
       xlink:href="#radial-gradient" /><radialGradient
       id="radial-gradient-28"
       cx="8227.9824"
       cy="3188.9141"
       r="96.289864"
       xlink:href="#radial-gradient" /><radialGradient
       id="radial-gradient-29"
       cx="9041.7383"
       cy="2354.2156"
       r="81.168671"
       gradientTransform="matrix(-0.38376,0.68678,-0.88708,-0.50332,5911.6147,-4864.3417)"
       xlink:href="#radial-gradient" /><radialGradient
       id="radial-gradient-31"
       cx="9052.8955"
       cy="2354.1602"
       r="92.323067"
       gradientTransform="matrix(-0.38376,0.68678,-0.88708,-0.50332,5911.6147,-4864.3417)"
       xlink:href="#radial-gradient" /><radialGradient
       id="radial-gradient-32"
       cx="9060.542"
       cy="2354.2192"
       r="99.961197"
       gradientTransform="matrix(-0.38376,0.68678,-0.88708,-0.50332,5911.6147,-4864.3417)"
       xlink:href="#radial-gradient" /><radialGradient
       id="radial-gradient-33"
       cx="8204.4668"
       cy="3222.1523"
       r="136.18636"
       xlink:href="#radial-gradient" /><radialGradient
       id="radial-gradient-34"
       cx="8211.4961"
       cy="3219.2461"
       r="148.04797"
       xlink:href="#radial-gradient" /><radialGradient
       id="radial-gradient-35"
       cx="8969.54"
       cy="2028.1936"
       r="117.98889"
       gradientTransform="matrix(-0.38376,0.68678,-0.88708,-0.50332,5911.6147,-4864.3417)"
       xlink:href="#radial-gradient" /><radialGradient
       id="radial-gradient-36"
       cx="8451.1123"
       cy="3223.1536"
       r="158.8838"
       gradientTransform="matrix(-0.205,0.71916,-0.97796,-0.28443,5208.9736,-4992.8573)"
       xlink:href="#radial-gradient" /><radialGradient
       id="radial-gradient-37"
       cx="8214.8818"
       cy="3212.9324"
       r="140.42693"
       xlink:href="#radial-gradient" /><radialGradient
       id="radial-gradient-38"
       cx="8205.1582"
       cy="3189.8018"
       r="113.65543"
       xlink:href="#radial-gradient" /><radialGradient
       id="radial-gradient-39"
       cx="9015.541"
       cy="2361.5068"
       r="95.807182"
       gradientTransform="matrix(-0.38376,0.68678,-0.88708,-0.50332,5911.6147,-4864.3417)"
       xlink:href="#radial-gradient" /><radialGradient
       id="radial-gradient-41"
       cx="9028.71"
       cy="2361.4414"
       r="108.97324"
       gradientTransform="matrix(-0.38376,0.68678,-0.88708,-0.50332,5911.6147,-4864.3417)"
       xlink:href="#radial-gradient" /><radialGradient
       id="radial-gradient-42"
       cx="9037.7354"
       cy="2361.511"
       r="117.98889"
       gradientTransform="matrix(-0.38376,0.68678,-0.88708,-0.50332,5911.6147,-4864.3417)"
       xlink:href="#radial-gradient" /><radialGradient
       id="radial-gradient-43"
       cx="8469.1582"
       cy="3502.5808"
       r="136.18636"
       xlink:href="#radial-gradient" /><radialGradient
       id="radial-gradient-44"
       cx="8476.1865"
       cy="3499.6746"
       r="148.04797"
       xlink:href="#radial-gradient" /><radialGradient
       id="radial-gradient-45"
       cx="8729.9854"
       cy="3503.5867"
       r="158.8838"
       gradientTransform="matrix(-0.205,0.71916,-0.97796,-0.28443,5208.9736,-4992.8573)"
       xlink:href="#radial-gradient" /><radialGradient
       id="radial-gradient-46"
       cx="4089.0166"
       cy="2953.5498"
       r="208.90215"
       gradientTransform="matrix(0.56429,0.85264,-0.8528,0.55736,495.69011,-4848.9425)"
       gradientUnits="userSpaceOnUse"><stop
         offset="0.97191"
         stop-color="#fff"
         id="stop967" /><stop
         offset="1"
         stop-color="#020100"
         id="stop969" /></radialGradient><radialGradient
       id="radial-gradient-47"
       cx="8479.5723"
       cy="3493.3606"
       r="140.42693"
       xlink:href="#radial-gradient" /><radialGradient
       id="radial-gradient-48"
       cx="8469.8486"
       cy="3470.2302"
       r="113.65543"
       xlink:href="#radial-gradient" /><radialGradient
       id="radial-gradient-49"
       cx="9356.9766"
       cy="2587.4109"
       r="95.807182"
       gradientTransform="matrix(-0.38376,0.68678,-0.88708,-0.50332,5911.6147,-4864.3417)"
       xlink:href="#radial-gradient" /><radialGradient
       id="radial-gradient-51"
       cx="9370.1455"
       cy="2587.3455"
       r="108.97324"
       gradientTransform="matrix(-0.38376,0.68678,-0.88708,-0.50332,5911.6147,-4864.3417)"
       xlink:href="#radial-gradient" /><radialGradient
       id="radial-gradient-52"
       cx="9379.1709"
       cy="2587.4153"
       r="117.98889"
       gradientTransform="matrix(-0.38376,0.68678,-0.88708,-0.50332,5911.6147,-4864.3417)"
       xlink:href="#radial-gradient" /><radialGradient
       id="radial-gradient-53"
       cx="3814.9697"
       cy="2883.8525"
       r="141.19342"
       gradientTransform="matrix(0.46822,0.63365,-0.82233,0.60091,826.73182,-3940.4667)"
       xlink:href="#radial-gradient" /><radialGradient
       id="radial-gradient-54"
       cx="570.63708"
       cy="701.14136"
       r="78.270973"
       gradientTransform="matrix(0.76722,-0.31041,0.38936,0.94409,-560.15886,-192.1193)"
       gradientUnits="userSpaceOnUse"><stop
         offset="0"
         stop-color="#595757"
         id="stop978" /><stop
         offset="1"
         stop-color="#020000"
         id="stop980" /></radialGradient><radialGradient
       id="radial-gradient-56"
       cx="1207.584"
       cy="1779.8021"
       r="142.48737"
       gradientTransform="matrix(0.78713,0.03506,-0.03996,1.01766,-503.99377,-1573.636)"
       xlink:href="#radial-gradient" /><radialGradient
       id="radial-gradient-57"
       cx="1216.2158"
       cy="1783.8734"
       r="119.16956"
       gradientTransform="matrix(0.78713,0.03506,-0.03996,1.01766,-503.99377,-1573.636)"
       xlink:href="#radial-gradient" /><clipPath
       id="clip-path"><path
         class="cls-54"
         d="m 322.04061,208.71911 c -39.697,-22.50978 -58.13052,-65.87311 -40.8907,-96.58185 17.16168,-30.81117 63.38662,-37.36316 103.12351,-14.92593 39.7804,22.67147 58.05755,65.76959 40.902,96.64522 -17.17294,30.74798 -63.37818,37.41227 -103.13481,14.86256 z"
         clip-path="url(#clip-path-8)"
         id="path985" /></clipPath><clipPath
       id="clip-path-2"><path
         class="cls-53"
         d="m 313.50056,224.05716 c -45.27964,-25.62064 -66.06444,-74.86056 -46.43579,-109.91279 19.41556,-34.95392 71.88332,-42.48491 117.20865,-16.933 45.30288,25.7375 65.968,74.93786 46.56045,109.9513 -19.64701,34.93392 -72.26187,42.61203 -117.33331,16.89449 z"
         clip-path="url(#clip-path)"
         id="path988" /></clipPath><clipPath
       id="clip-path-3"><path
         class="cls-52"
         d="m 304.31855,254.9662 c -62.43712,-17.94 -101.91408,-71.85932 -88.06327,-120.25649 13.76895,-48.20631 75.48111,-72.58589 137.82538,-54.51879 62.35294,18.13113 101.645,71.96689 87.94138,120.21713 -13.79489,48.38755 -75.45031,72.76235 -137.70349,54.55815 z"
         id="path991" /></clipPath><clipPath
       id="clip-path-4"><path
         class="cls-56"
         d="M 303.1226,267.7495 C 235.45642,248.0743 192.44,189.64159 207.51882,137.1657 222.4884,84.70862 289.47854,58.0766 357.32382,77.77575 425.1293,97.6032 467.8051,156.03512 452.95776,208.53132 437.85335,260.89076 370.93024,287.57675 303.1226,267.7495 Z"
         clip-path="url(#clip-path-3)"
         id="path994" /></clipPath><clipPath
       id="clip-path-5"><path
         class="cls-57"
         d="m 297.83493,274.50275 c -72.56171,-21.12656 -119.17175,-81.58157 -103.98688,-135.11 15.264,-53.37633 86.46223,-79.536 159.25715,-58.39518 72.6608,21.04843 119.30925,81.55209 104.08007,135.15403 -15.20127,53.42052 -86.67746,79.45268 -159.35034,58.35115 z"
         clip-path="url(#clip-path-4)"
         id="path997" /></clipPath><clipPath
       id="clip-path-6"><path
         class="cls-58"
         d="m 309.162,266.56874 c -64.2242,-18.66006 -104.84084,-74.16477 -90.70739,-123.87756 14.191,-49.72787 77.74837,-75.01151 142.03,-56.351 64.33592,18.64046 104.89439,74.15538 90.74546,124.10814 C 437.01161,260.0045 373.35546,285.068 309.162,266.56874 Z"
         clip-path="url(#clip-path-5)"
         id="path1000" /></clipPath><clipPath
       id="clip-path-7"><path
         class="cls-59"
         d="M 334.95666,248.72824 C 282.98786,233.622 250.11778,188.63551 261.625,148.437 273.0492,108.0813 324.62872,87.66335 376.55413,102.83779 428.5833,117.933 461.2662,162.83621 449.97242,203.28 c -11.56905,40.15936 -62.94157,60.47047 -115.01576,45.44824 z"
         clip-path="url(#clip-path-6)"
         id="path1003" /></clipPath><clipPath
       id="clip-path-8"><path
         class="cls-60"
         d="m 322.04061,208.71911 c -39.697,-22.50978 -58.13052,-65.87311 -40.8907,-96.58185 17.16168,-30.81117 63.38662,-37.36316 103.12351,-14.92593 39.7804,22.67147 58.05755,65.76959 40.902,96.64522 -17.17294,30.74798 -63.37818,37.41227 -103.13481,14.86256 z"
         clip-path="url(#clip-path-7)"
         id="path1006" /></clipPath><clipPath
       id="clip-path-9"><circle
         class="cls-52"
         cx="936.02759"
         cy="284.03427"
         r="213.63554"
         id="circle1009" /></clipPath><mask
       id="mask"
       x="513.97873"
       y="166.78018"
       width="272.96878"
       height="220.45204"
       maskUnits="userSpaceOnUse"><path
         class="cls-1"
         d="m 621.19184,380.11162 c -73.69746,-21.17546 -120.294,-84.81892 -103.9452,-141.94437 16.25213,-56.90015 89.09389,-85.67652 162.68175,-64.35107 73.59808,21.401 119.9764,84.94589 103.80133,141.8979 -16.28272,57.11409 -89.05754,85.88481 -162.53788,64.39754 z"
         id="path1012" /></mask><mask
       id="mask-2"
       x="503.37836"
       y="163.30005"
       width="296.7389"
       height="239.63937"
       maskUnits="userSpaceOnUse"><path
         class="cls-2"
         d="M 619.7802,395.20034 C 539.91065,371.97679 489.13629,303.00593 506.93459,241.06618 c 17.66929,-61.91755 96.74089,-93.35257 176.8219,-70.10074 80.034,23.40327 130.40622,92.3732 112.88121,154.33692 -17.82848,61.8023 -96.82096,93.30102 -176.8575,69.89798 z"
         id="path1015" /></mask><mask
       id="mask-3"
       x="487.41211"
       y="166.11821"
       width="317.61702"
       height="245.69815"
       maskUnits="userSpaceOnUse"><path
         class="cls-12"
         d="m 613.53893,403.17153 c -85.648,-24.93667 -140.664,-96.29455 -122.74059,-159.47666 18.01681,-63.00258 102.05541,-93.8801 187.97866,-68.92656 85.76494,24.84445 140.8263,96.25975 122.85058,159.52862 -17.94272,63.05474 -102.30946,93.78171 -188.08865,68.8746 z"
         id="path1018" /></mask><mask
       id="mask-4"
       x="516.52907"
       y="173.82209"
       width="281.39246"
       height="227.1711"
       maskUnits="userSpaceOnUse"><path
         class="cls-22"
         d="M 626.90884,393.80664 C 551.102,371.7813 503.16029,306.26649 519.84266,247.58816 c 16.75026,-58.69613 91.77,-88.53959 167.64468,-66.51373 75.9387,22.0022 123.81176,87.52907 107.11111,146.49065 -16.78278,58.49349 -91.91912,88.07714 -167.68961,66.24156 z"
         id="path1021" /></mask><mask
       id="mask-5"
       x="556.25809"
       y="174.47182"
       width="228.1188"
       height="200.92533"
       maskUnits="userSpaceOnUse"><path
         class="cls-32"
         d="m 625.07581,356.0105 c -57.874,-32.73236 -84.3775,-95.54345 -59.44627,-140.35183 25.06231,-44.83727 92.18626,-54.57212 149.93678,-21.7525 57.88905,32.801 84.3934,95.618 59.40733,140.50119 -24.95339,44.68086 -92.16665,54.29496 -149.89784,21.60314 z"
         id="path1024" /></mask><mask
       id="mask-6"
       x="70.53794"
       y="70.89198"
       width="427.27181"
       height="425.5823"
       maskUnits="userSpaceOnUse"><path
         class="cls-42"
         d="M 402.20556,461.73426 C 303.77032,526.14402 171.113,498.38932 105.97356,400.00474 40.902,301.49122 67.987,169.90433 166.41645,105.66373 264.78526,41.2235 397.10028,68.97031 462.47729,167.21779 c 64.73896,98.34321 38.12217,230.3437 -60.27173,294.51647 z"
         id="path1027" /></mask><radialGradient
       id="radial-gradient-58"
       cx="284.17383"
       cy="283.68314"
       r="213.21394"
       gradientUnits="userSpaceOnUse"><stop
         offset="0"
         stop-color="#ffedcc"
         id="stop1030" /><stop
         offset="0.12062"
         stop-color="#e7d7b9"
         id="stop1032" /><stop
         offset="0.37548"
         stop-color="#aa9e88"
         id="stop1034" /><stop
         offset="0.74009"
         stop-color="#49443a"
         id="stop1036" /><stop
         offset="1"
         id="stop1038" /></radialGradient><clipPath
       id="clip-path-10"><ellipse
         class="cls-52"
         cx="284.55887"
         cy="282.64087"
         rx="212.55757"
         ry="213.05264"
         transform="rotate(-1.03687,284.55871,282.64084)"
         id="ellipse1041" /></clipPath><linearGradient
       id="linear-gradient"
       x1="166.33524"
       y1="244.21269"
       x2="150.58687"
       y2="143.23767"
       gradientTransform="rotate(-0.00573,-126742.02,-792813.31)"
       gradientUnits="userSpaceOnUse"><stop
         offset="0"
         stop-color="#e5dbb7"
         id="stop1044" /><stop
         offset="1"
         stop-color="#fff"
         id="stop1046" /></linearGradient><linearGradient
       id="linear-gradient-2"
       x1="184.38641"
       y1="257.52493"
       x2="-76.976242"
       y2="272.16116"
       gradientTransform="rotate(-0.00573,-126742.02,-792813.31)"
       gradientUnits="userSpaceOnUse"><stop
         offset="0"
         stop-color="#dbd1b7"
         id="stop1049" /><stop
         offset="1"
         stop-color="#fff"
         id="stop1051" /></linearGradient><linearGradient
       id="linear-gradient-3"
       x1="407.19049"
       y1="258.1915"
       x2="68.051964"
       y2="247.73862"
       gradientTransform="rotate(-0.00573,-126742.02,-792813.31)"
       gradientUnits="userSpaceOnUse"><stop
         offset="0"
         stop-color="#f0decb"
         id="stop1054" /><stop
         offset="0.48257"
         stop-color="#f7ede2"
         id="stop1056" /><stop
         offset="1"
         stop-color="#fff"
         id="stop1058" /></linearGradient><linearGradient
       id="linear-gradient-4"
       x1="189.43958"
       y1="544.02844"
       x2="173.46053"
       y2="290.35965"
       gradientTransform="rotate(-0.00573,-126742.02,-792813.31)"
       gradientUnits="userSpaceOnUse"><stop
         offset="0"
         stop-color="#d9d3c3"
         id="stop1061" /><stop
         offset="1"
         stop-color="#fff"
         id="stop1063" /></linearGradient><radialGradient
       id="radial-gradient-59"
       cx="143.79828"
       cy="7.0620999"
       r="398.84097"
       gradientTransform="rotate(-1.01423,-1158.9925,-2131.9896)"
       xlink:href="#radial-gradient-58" /><radialGradient
       id="radial-gradient-60"
       cx="-8614.7207"
       cy="-1260.4393"
       r="111.51287"
       gradientTransform="matrix(0.2907,0.3637,-0.41,0.3277,2337.9209,3973.5819)"
       gradientUnits="userSpaceOnUse"><stop
         offset="0"
         stop-color="#aaa"
         id="stop1067" /><stop
         offset="0.19573"
         stop-color="#7e7e7e"
         id="stop1069" /><stop
         offset="0.46604"
         stop-color="#484848"
         id="stop1071" /><stop
         offset="0.69995"
         stop-color="#212121"
         id="stop1073" /><stop
         offset="0.88569"
         stop-color="#090909"
         id="stop1075" /><stop
         offset="1"
         id="stop1077" /></radialGradient><radialGradient
       id="radial-gradient-61"
       cx="-1082.4218"
       cy="2018.9773"
       r="57.69408"
       gradientTransform="matrix(-0.5777,1.1505,-1.3461,-0.6758,2337.4713,3021.2638)"
       xlink:href="#radial-gradient-60" /><radialGradient
       id="radial-gradient-62"
       cx="-2249.9021"
       cy="1408.4487"
       r="80.58358"
       gradientTransform="matrix(0.3682,0.5933,-0.6174,0.3833,1834.7901,1104.1192)"
       gradientUnits="userSpaceOnUse"><stop
         offset="0"
         stop-color="#a1a1a1"
         id="stop1081" /><stop
         offset="0.11122"
         stop-color="#7d7d7d"
         id="stop1083" /><stop
         offset="0.26743"
         stop-color="#505050"
         id="stop1085" /><stop
         offset="0.41804"
         stop-color="#2d2d2d"
         id="stop1087" /><stop
         offset="0.55948"
         stop-color="#141414"
         id="stop1089" /><stop
         offset="0.68817"
         stop-color="#050505"
         id="stop1091" /><stop
         offset="0.79261"
         id="stop1093" /></radialGradient><radialGradient
       id="radial-gradient-63"
       cx="-2037.6012"
       cy="3442.1233"
       r="43.487202"
       gradientTransform="matrix(0.3862,0.6222,-0.4072,0.2527,2629.5998,600.35392)"
       gradientUnits="userSpaceOnUse"><stop
         offset="0"
         stop-color="#575757"
         id="stop1096" /><stop
         offset="0.42232"
         stop-color="#2c2c2c"
         id="stop1098" /><stop
         offset="0.79408"
         stop-color="#0c0c0c"
         id="stop1100" /><stop
         offset="1"
         id="stop1102" /></radialGradient><mask
       id="mask-7"
       x="107.8775"
       y="86.5378"
       width="267.3648"
       height="246.69638"
       maskUnits="userSpaceOnUse"><path
         class="cls-48"
         d="M 307.67524,299.17906 C 243.64013,346.29081 161.88724,344.2688 125.32805,294.6864 88.89275,245.32595 111.36948,167.2994 175.45838,120.37261 239.6158,73.48523 321.14969,75.624 357.67635,124.954 394.26794,174.475 371.829,252.443 307.67524,299.17906 Z"
         id="path1105" /></mask><mask
       id="mask-8"
       x="83.29512"
       y="214.85508"
       width="134.7411"
       height="155.63226"
       maskUnits="userSpaceOnUse"><path
         class="cls-49"
         d="m 210.65593,268.33464 c 16.92993,40.76755 3.7459,84.7671 -29.45349,98.22761 -33.1995,13.4607 -73.62932,-8.83374 -90.58626,-49.53684 -16.83322,-40.95194 -3.68251,-84.73035 29.64725,-98.28273 33.22811,-13.37057 73.68301,8.86215 90.3925,49.59196 z"
         id="path1108" /><path
         class="cls-49"
         d="m 210.65593,268.33464 c 16.92993,40.76755 3.7459,84.7671 -29.45349,98.22761 -33.1995,13.4607 -73.62932,-8.83374 -90.58626,-49.53684 -16.83322,-40.95194 -3.68251,-84.73035 29.64725,-98.28273 33.22811,-13.37057 73.68301,8.86215 90.3925,49.59196 z"
         id="path1110" /></mask><mask
       id="mask-9"
       x="263.13184"
       y="134.8254"
       width="224.56143"
       height="290.22545"
       maskUnits="userSpaceOnUse"><path
         class="cls-50"
         d="m 487.542,284.90629 c -3.16359,79.97028 -55.90671,142.67221 -117.81035,140.06618 -61.83508,-2.88 -109.53116,-69.99647 -106.45934,-149.93648 3.31838,-80.12121 56.02947,-142.76158 117.83737,-140.13066 61.80825,2.78786 109.62812,69.96872 106.43232,150.00096 z"
         id="path1113" /></mask><mask
       id="mask-10"
       x="288.0761"
       y="163.07863"
       width="187.89811"
       height="242.61469"
       maskUnits="userSpaceOnUse"><path
         class="cls-51"
         d="m 475.86692,288.60771 c -2.51418,66.9 -46.70458,119.27534 -98.58209,117.01513 -51.69412,-2.16379 -91.86422,-58.4741 -89.07148,-125.45961 2.66467,-66.89942 46.82149,-119.21028 98.57638,-117.01814 51.69572,2.31839 91.52796,58.5264 89.07719,125.46262 z"
         id="path1116" /></mask><mask
       id="mask-11"
       x="318.07974"
       y="171.57207"
       width="169.57275"
       height="219.11918"
       maskUnits="userSpaceOnUse"><path
         class="cls-3"
         d="m 487.542,284.90629 c -2.31291,60.37784 -42.19121,107.68541 -88.89267,105.72625 -46.5978,-2.14341 -82.86581,-52.739 -80.45609,-113.3019 2.406,-60.41112 42.34343,-107.68722 88.94647,-105.698 46.66813,2.18028 82.77452,52.7697 80.40229,113.27365 z"
         id="path1119" /></mask><mask
       id="mask-12"
       x="323.96829"
       y="335.53332"
       width="98.58342"
       height="87.57588"
       maskUnits="userSpaceOnUse"><path
         class="cls-4"
         d="m 394.51943,413.526 c -24.51919,15.13578 -53.99369,12.00032 -65.74241,-6.98726 -11.7105,-18.90376 -1.29521,-46.43032 23.238,-61.49771 24.55678,-15.05112 53.94871,-11.87992 65.69312,7.01552 11.7622,18.96638 1.36227,46.47289 -23.18871,61.46945 z"
         id="path1122" /></mask><mask
       id="mask-13"
       x="321.72524"
       y="332.93664"
       width="107.12392"
       height="95.15379"
       maskUnits="userSpaceOnUse"><path
         class="cls-5"
         d="m 398.35749,417.73318 c -26.649,16.33394 -58.66086,13.01314 -71.38158,-7.59458 -12.74715,-20.56623 -1.496,-50.497 25.21432,-66.88255 26.74055,-16.33422 58.65048,-12.90186 71.447,7.63594 12.67482,20.58136 1.46139,50.5062 -25.27974,66.84119 z"
         id="path1125" /></mask><mask
       id="mask-14"
       x="318.54214"
       y="334.03846"
       width="113.94154"
       height="98.96639"
       maskUnits="userSpaceOnUse"><path
         class="cls-6"
         d="m 398.99573,421.48363 c -28.58618,17.50735 -62.334,14.76233 -75.36852,-6.19426 -12.96095,-20.93717 -0.29907,-52.10788 28.36139,-69.6875 28.59011,-17.56317 62.3654,-14.81625 75.41078,6.17682 12.99418,20.92976 0.20748,52.15364 -28.40365,69.70494 z"
         id="path1128" /></mask><mask
       id="mask-15"
       x="327.07542"
       y="334.94629"
       width="101.5945"
       height="90.26096"
       maskUnits="userSpaceOnUse"><path
         class="cls-7"
         d="m 399.77226,415.39893 c -25.28875,15.50735 -55.62363,12.27278 -67.71973,-7.20015 -12.08388,-19.49629 -1.41462,-47.89817 23.89142,-63.42425 25.31566,-15.54986 55.63653,-12.29315 67.80675,7.25646 12.0193,19.45411 1.24837,47.82271 -23.97844,63.36794 z"
         id="path1131" /></mask><mask
       id="mask-16"
       x="342.76929"
       y="336.49418"
       width="82.24298"
       height="73.04203"
       maskUnits="userSpaceOnUse"><path
         class="cls-8"
         d="m 401.61517,401.61037 c -20.46538,12.54613 -45.03693,9.90823 -54.79456,-5.8637 -9.834,-15.79159 -1.14233,-38.81084 19.33247,-51.32239 20.47982,-12.56922 44.96817,-9.89475 54.87,5.88032 9.72627,15.78054 1.06135,38.69998 -19.40791,51.30577 z"
         id="path1134" /></mask><mask
       id="mask-17"
       x="339.57983"
       y="337.88061"
       width="72.0993"
       height="58.36866"
       maskUnits="userSpaceOnUse"><path
         class="cls-9"
         d="m 384.63151,393.90967 c -19.23285,6.30973 -38.96371,-0.58129 -43.89648,-15.40256 -4.98971,-14.82619 6.65429,-31.95051 25.87524,-38.295 19.31081,-6.28885 38.908,0.57435 43.92066,15.41775 4.9656,14.81106 -6.63566,31.96243 -25.89942,38.27981 z"
         id="path1137" /></mask><mask
       id="mask-19"
       x="335.8724"
       y="337.55482"
       width="82.00184"
       height="66.41054"
       maskUnits="userSpaceOnUse"><path
         class="cls-10"
         d="m 387.11638,401.28923 c -21.91965,7.2134 -44.28061,-0.65968 -49.92588,-17.561 -5.6766,-16.80207 7.50906,-36.26717 29.41977,-43.51609 21.96493,-7.18616 44.27718,0.7144 49.97571,17.53159 5.60102,16.87206 -7.5803,36.42934 -29.4696,43.5455 z"
         id="path1140" /></mask><mask
       id="mask-20"
       x="333.32999"
       y="337.31761"
       width="88.77285"
       height="71.93833"
       maskUnits="userSpaceOnUse"><path
         class="cls-11"
         d="m 388.80079,406.353 c -23.73177,7.81476 -47.895,-0.69649 -54.04954,-18.95619 -6.12943,-18.30345 8.1342,-39.42633 31.859,-47.1847 23.75467,-7.8016 47.91976,0.71093 54.08123,19.00478 6.11352,18.23364 -8.20629,39.35083 -31.89069,47.13611 z"
         id="path1143" /></mask><mask
       id="mask-21"
       x="325.64169"
       y="328.99351"
       width="104.97443"
       height="90.69896"
       maskUnits="userSpaceOnUse"><path
         class="cls-13"
         d="m 400.76655,409.76755 c -26.10873,15.67554 -57.494,12.42826 -70.00438,-7.23644 -12.46968,-19.57789 -1.37919,-48.0861 24.74444,-63.6908 26.14875,-15.58787 57.44612,-12.30358 69.9519,7.2657 12.52477,19.64272 1.45063,48.13016 -24.69196,63.66154 z"
         id="path1146" /></mask><mask
       id="mask-22"
       x="323.25322"
       y="326.30424"
       width="114.0686"
       height="98.54711"
       maskUnits="userSpaceOnUse"><path
         class="cls-14"
         d="m 404.85343,414.12474 c -28.37662,16.91643 -62.46376,13.47721 -76.00913,-7.86541 -13.57354,-21.29966 -1.593,-52.29777 26.84892,-69.26768 28.47409,-16.91672 62.4527,-13.362 76.07875,7.90824 13.49656,21.31532 1.55617,52.30733 -26.91854,69.22485 z"
         id="path1149" /></mask><mask
       id="mask-23"
       x="319.86377"
       y="327.44535"
       width="121.3282"
       height="102.49567"
       maskUnits="userSpaceOnUse"><path
         class="cls-15"
         d="m 405.53305,418.00893 c -30.43938,18.13169 -66.37506,15.28878 -80.25455,-6.41515 -13.80119,-21.68382 -0.31845,-53.96612 30.2,-72.17265 30.44356,-18.18951 66.40845,-15.34462 80.29954,6.39709 13.8366,21.67614 0.22096,54.01351 -30.24499,72.19071 z"
         id="path1152" /></mask><mask
       id="mask-24"
       x="328.95025"
       y="328.38555"
       width="108.18071"
       height="93.4798"
       maskUnits="userSpaceOnUse"><path
         class="cls-16"
         d="m 406.35992,411.70725 c -26.92818,16.06037 -59.22962,12.71044 -72.1099,-7.45692 -12.86726,-20.19156 -1.50633,-49.60629 25.44026,-65.68605 26.95684,-16.10439 59.24336,-12.73155 72.20257,7.51524 12.79852,20.14787 1.3293,49.52813 -25.53293,65.62773 z"
         id="path1155" /></mask><mask
       id="mask-25"
       x="345.66153"
       y="329.98864"
       width="87.57466"
       height="75.64682"
       maskUnits="userSpaceOnUse"><path
         class="cls-17"
         d="m 408.3223,397.427 c -21.79212,12.99354 -47.9566,10.26157 -58.3468,-6.07281 -10.47149,-16.35474 -1.2164,-40.19489 20.58576,-53.15262 21.80749,-13.01746 47.88339,-10.24761 58.42709,6.09 10.35685,16.34329 1.1302,40.08007 -20.66605,53.13543 z"
         id="path1158" /></mask><mask
       id="mask-26"
       x="342.26531"
       y="331.42451"
       width="76.77339"
       height="60.45018"
       maskUnits="userSpaceOnUse"><path
         class="cls-18"
         d="m 390.23762,389.45165 c -20.4797,6.53474 -41.48967,-0.602 -46.74223,-15.95184 -5.31318,-15.35491 7.08568,-33.08991 27.5527,-39.66063 20.5627,-6.51312 41.43031,0.59483 46.768,15.96757 5.28748,15.33925 -7.06587,33.10225 -27.57847,39.6449 z"
         id="path1161" /></mask><mask
       id="mask-28"
       x="338.31753"
       y="331.0871"
       width="87.3179"
       height="68.77884"
       maskUnits="userSpaceOnUse"><path
         class="cls-19"
         d="m 392.88357,397.09437 c -23.34066,7.47065 -47.15125,-0.68319 -53.16249,-18.18725 -6.04461,-17.40126 7.99586,-37.56052 31.327,-45.06794 23.38888,-7.44243 47.1476,0.73988 53.21556,18.15679 5.96409,17.47375 -8.07171,37.72847 -31.38007,45.0984 z"
         id="path1164" /></mask><mask
       id="mask-29"
       x="335.61029"
       y="330.84144"
       width="94.52786"
       height="74.50375"
       maskUnits="userSpaceOnUse"><path
         class="cls-20"
         d="m 394.67719,402.33875 c -25.27027,8.09344 -51,-0.72133 -57.5535,-19.6322 -6.52679,-18.95617 8.66154,-40.83233 33.9244,-48.86737 25.29464,-8.07982 51.02632,0.73628 57.58723,19.68252 6.5098,18.88385 -8.73832,40.75412 -33.95813,48.81705 z"
         id="path1167" /></mask><mask
       id="mask-30"
       x="213.73558"
       y="81.71352"
       width="231.26151"
       height="186.76887"
       maskUnits="userSpaceOnUse"><path
         class="cls-21"
         d="m 304.56744,262.44976 c -62.43712,-17.94 -101.91407,-71.85932 -88.06327,-120.25649 13.769,-48.20631 75.48112,-72.58589 137.82539,-54.51879 62.35293,18.13113 101.645,71.96689 87.94138,120.21713 -13.79489,48.38755 -75.45032,72.76239 -137.7035,54.55815 z"
         id="path1170" /></mask><mask
       id="mask-31"
       x="204.75485"
       y="78.76513"
       width="251.39976"
       height="203.02455"
       maskUnits="userSpaceOnUse"><path
         class="cls-23"
         d="m 303.37149,275.23306 c -67.66617,-19.6752 -110.68264,-78.10791 -95.60377,-130.5838 14.96957,-52.45708 81.95971,-79.0891 149.805,-59.38995 67.80548,19.82745 110.48127,78.25937 95.63393,130.75557 -15.1044,52.35944 -82.02751,79.04543 -149.83516,59.21818 z"
         id="path1173" /></mask><mask
       id="mask-32"
       x="191.2281"
       y="81.1527"
       width="269.08788"
       height="208.1576"
       maskUnits="userSpaceOnUse"><path
         class="cls-24"
         d="m 298.08383,281.98631 c -72.56172,-21.12656 -119.17175,-81.58157 -103.98689,-135.11 15.264,-53.37633 86.46223,-79.536 159.25716,-58.39518 72.66079,21.04844 119.30925,81.55209 104.08006,135.154 -15.20123,53.42055 -86.67745,79.45271 -159.35033,58.35118 z"
         id="path1176" /></mask><mask
       id="mask-33"
       x="215.89624"
       y="87.67949"
       width="238.39812"
       height="192.46132"
       maskUnits="userSpaceOnUse"><path
         class="cls-25"
         d="m 309.41093,274.0523 c -64.22419,-18.66006 -104.84084,-74.16477 -90.70738,-123.87756 14.191,-49.72787 77.74836,-75.01151 142.03,-56.351 64.33594,18.64045 104.89445,74.15537 90.74545,124.10813 -14.21849,49.5562 -77.87465,74.61972 -142.06807,56.12043 z"
         id="path1179" /></mask><mask
       id="mask-34"
       x="259.57758"
       y="105.30577"
       width="192.87421"
       height="155.85637"
       maskUnits="userSpaceOnUse"><path
         class="cls-26"
         d="m 335.20556,256.2118 c -51.96881,-15.10627 -84.83889,-60.09273 -73.3317,-100.29129 11.42419,-40.3557 63.00372,-60.77365 114.92913,-45.59921 52.02921,15.09529 84.71211,59.99847 73.41833,100.44225 -11.56906,40.15937 -62.94158,60.47045 -115.01576,45.44825 z"
         id="path1182" /></mask><mask
       id="mask-35"
       x="274.93038"
       y="91.38232"
       width="156.93688"
       height="138.18562"
       maskUnits="userSpaceOnUse"><path
         class="cls-27"
         d="m 322.28951,216.20267 c -39.697,-22.50978 -58.13053,-65.87311 -40.89071,-96.58185 17.16168,-30.81117 63.38662,-37.36316 103.12352,-14.92593 39.7804,22.67147 58.05755,65.76959 40.902,96.64522 -17.17295,30.74798 -63.37818,37.41228 -103.13481,14.86256 z"
         id="path1185" /></mask><mask
       id="mask-37"
       x="259.91739"
       y="89.55018"
       width="178.4509"
       height="157.21463"
       maskUnits="userSpaceOnUse"><path
         class="cls-28"
         d="M 313.74946,231.54072 C 268.46981,205.92008 247.68502,156.68016 267.31366,121.62793 286.72923,86.674 339.197,79.143 384.52232,104.69489 c 45.30288,25.7375 65.968,74.93786 46.56044,109.9513 -19.64701,34.93396 -72.26189,42.61207 -117.3333,16.89453 z"
         id="path1188" /></mask><mask
       id="mask-38"
       x="249.55501"
       y="88.22995"
       width="193.26422"
       height="170.22567"
       maskUnits="userSpaceOnUse"><path
         class="cls-29"
         d="m 307.858,242.03108 c -49.03133,-27.73114 -71.48535,-80.94523 -50.3634,-118.90728 21.233,-37.98652 78.101,-46.234 127.02774,-18.42891 49.0441,27.78928 71.49881,81.00842 50.3304,119.03382 -21.14074,37.85402 -78.08443,45.99917 -126.99474,18.30237 z"
         id="path1191" /></mask><clipPath
       id="clip-path-11"><circle
         class="cls-52"
         cx="283.50018"
         cy="283.3248"
         r="213.63554"
         id="circle1194" /></clipPath><mask
       id="mask-39"
       x="192.12885"
       y="45.84999"
       width="272.96878"
       height="220.45204"
       maskUnits="userSpaceOnUse"><path
         class="cls-30"
         d="M 299.342,259.18143 C 225.6445,238.006 179.048,174.36252 195.39676,117.23707 211.64889,60.33691 284.49065,31.56055 358.07851,52.886 431.67659,74.287 478.05491,137.83189 461.87984,194.78391 445.59708,251.898 372.8223,280.6687 299.342,259.18143 Z"
         id="path1197" /></mask><mask
       id="mask-40"
       x="181.52848"
       y="42.36987"
       width="296.7389"
       height="239.63937"
       maskUnits="userSpaceOnUse"><path
         class="cls-31"
         d="M 297.93032,274.27016 C 218.06077,251.0466 167.28641,182.07575 185.08471,120.136 202.754,58.21844 281.8256,26.78343 361.90661,50.03526 c 80.034,23.40326 130.40622,92.37319 112.8812,154.33691 -17.82847,61.8023 -96.82095,93.30102 -176.85749,69.89799 z"
         id="path1200" /></mask><mask
       id="mask-41"
       x="165.56222"
       y="45.18803"
       width="317.61702"
       height="245.69815"
       maskUnits="userSpaceOnUse"><path
         class="cls-33"
         d="M 291.689,282.24134 C 206.041,257.30467 151.025,185.9468 168.94841,122.76469 186.96523,59.76211 271.00383,28.88458 356.92708,53.83812 442.69201,78.68258 497.75338,150.09787 479.77766,213.36674 461.835,276.42149 377.46824,307.14846 291.689,282.24134 Z"
         id="path1203" /></mask><mask
       id="mask-42"
       x="194.67918"
       y="52.89191"
       width="281.39246"
       height="227.1711"
       maskUnits="userSpaceOnUse"><path
         class="cls-34"
         d="M 305.059,272.87646 C 229.25213,250.85112 181.3104,185.33631 197.99278,126.658 c 16.75026,-58.69613 91.77,-88.53959 167.64468,-66.51372 75.93869,22.0022 123.81176,87.52906 107.11111,146.49064 -16.78278,58.49346 -91.91912,88.07708 -167.68957,66.24154 z"
         id="path1206" /></mask><mask
       id="mask-43"
       x="246.23831"
       y="73.69703"
       width="227.65846"
       height="183.96457"
       maskUnits="userSpaceOnUse"><path
         class="cls-35"
         d="M 335.50556,251.81848 C 274.16434,233.98785 235.36625,180.88821 248.94872,133.43998 262.43323,85.80626 323.315,61.706 384.60495,79.61709 c 61.41251,17.81768 99.98967,70.819 86.65909,118.55669 -13.6555,47.40199 -74.29289,71.37614 -135.75848,53.6447 z"
         id="path1209" /></mask><mask
       id="mask-44"
       x="264.35994"
       y="57.26253"
       width="185.23995"
       height="163.10696"
       maskUnits="userSpaceOnUse"><path
         class="cls-36"
         d="m 320.26014,204.59382 c -46.85622,-26.56934 -68.61418,-77.7531 -48.26522,-114.00007 20.25674,-36.36786 74.8182,-44.10148 121.72151,-17.61777 46.95467,26.7602 68.52805,77.63092 48.27858,114.07488 -20.27001,36.29327 -74.80826,44.15945 -121.73487,17.54296 z"
         id="path1212" /></mask><mask
       id="mask-46"
       x="246.63941"
       y="55.09997"
       width="210.63395"
       height="185.56778"
       maskUnits="userSpaceOnUse"><path
         class="cls-37"
         d="m 310.17992,222.69805 c -53.44569,-30.24124 -77.97895,-88.36142 -54.81034,-129.73521 22.9171,-41.25775 84.84725,-50.14693 138.34685,-19.98686 53.47311,30.37917 77.86507,88.45267 54.95748,129.78066 -23.19029,41.2342 -85.29409,50.29703 -138.49399,19.94141 z"
         id="path1215" /></mask><mask
       id="mask-47"
       x="234.40821"
       y="53.54164"
       width="228.1188"
       height="200.92533"
       maskUnits="userSpaceOnUse"><path
         class="cls-38"
         d="M 303.22593,235.08031 C 245.35193,202.34795 218.84843,139.53687 243.77966,94.72848 268.842,49.89122 335.96592,40.15636 393.71643,72.976 c 57.88905,32.801 84.3934,95.618 59.40733,140.50119 -24.95338,44.68081 -92.16668,54.29495 -149.89783,21.60312 z"
         id="path1218" /></mask><clipPath
       id="clip-path-12"><path
         class="cls-55"
         d="m 307.60909,234.54752 c -49.03134,-27.73114 -71.48535,-80.94523 -50.3634,-118.90728 21.233,-37.98652 78.101,-46.234 127.02773,-18.42891 49.0441,27.78928 71.49882,81.00842 50.3304,119.03382 -21.14072,37.85402 -78.0844,45.99917 -126.99473,18.30237 z"
         clip-path="url(#clip-path-2)"
         id="path1221" /></clipPath><mask
       id="mask-48"
       x="-139.2939"
       y="166.6404"
       width="272.96878"
       height="220.45204"
       maskUnits="userSpaceOnUse"><path
         class="cls-39"
         d="m -32.0808,379.97184 c -73.69745,-21.17546 -120.29395,-84.81891 -103.9452,-141.94437 16.25214,-56.90015 89.0939,-85.67652 162.68175,-64.35107 73.59809,21.401 119.9764,84.94589 103.80133,141.8979 -16.28275,57.11409 -89.05754,85.88481 -162.53788,64.39754 z"
         id="path1224" /></mask><mask
       id="mask-49"
       x="-149.89427"
       y="163.16028"
       width="296.7389"
       height="239.63937"
       maskUnits="userSpaceOnUse"><path
         class="cls-40"
         d="M -33.49244,395.06057 C -113.362,371.837 -164.13634,302.86615 -146.338,240.9264 c 17.66929,-61.91755 96.74088,-93.35257 176.82189,-70.10074 80.034,23.40327 130.40622,92.3732 112.88121,154.33692 -17.82852,61.8023 -96.82099,93.30102 -176.85754,69.89799 z"
         id="path1227" /></mask><mask
       id="mask-50"
       x="-165.86053"
       y="165.97843"
       width="317.61702"
       height="245.69815"
       maskUnits="userSpaceOnUse"><path
         class="cls-41"
         d="m -39.73371,403.03175 c -85.648,-24.93667 -140.664,-96.29454 -122.74059,-159.47666 18.01682,-63.00258 102.05542,-93.8801 187.97867,-68.92656 85.76493,24.84447 140.8263,96.25975 122.85063,159.52862 -17.94278,63.05474 -102.30951,93.78172 -188.08871,68.8746 z"
         id="path1230" /></mask><mask
       id="mask-51"
       x="-136.74357"
       y="173.68231"
       width="281.39246"
       height="227.1711"
       maskUnits="userSpaceOnUse"><path
         class="cls-43"
         d="m -26.3638,393.66687 c -75.80682,-22.02534 -123.74855,-87.54016 -107.0662,-146.21849 16.75025,-58.69613 91.77,-88.53959 167.64467,-66.51373 75.9387,22.00221 123.81176,87.52907 107.11111,146.49065 C 124.543,385.91879 49.4067,415.50244 -26.3638,393.66687 Z"
         id="path1233" /></mask><mask
       id="mask-52"
       x="-85.18444"
       y="194.48744"
       width="227.65846"
       height="183.96457"
       maskUnits="userSpaceOnUse"><path
         class="cls-44"
         d="M 4.08281,372.60888 C -57.25841,354.77825 -96.0565,301.67862 -82.474,254.23039 c 13.48451,-47.63373 74.36623,-71.734 135.65622,-53.82289 61.41252,17.81768 99.98967,70.819 86.6591,118.55669 -13.65553,47.40199 -74.29292,71.37614 -135.75851,53.64469 z"
         id="path1236" /></mask><mask
       id="mask-53"
       x="-67.06281"
       y="178.05294"
       width="185.23995"
       height="163.10696"
       maskUnits="userSpaceOnUse"><path
         class="cls-45"
         d="M -11.16262,325.38423 C -58.01884,298.81489 -79.7768,247.63113 -59.42783,211.38416 -39.1711,175.0163 15.39036,167.28267 62.29368,193.76639 c 46.95467,26.7602 68.528,77.63092 48.27858,114.07488 C 90.3022,344.13454 35.764,352.00072 -11.16262,325.38423 Z"
         id="path1239" /></mask><mask
       id="mask-55"
       x="-84.78334"
       y="175.89038"
       width="210.63395"
       height="185.56778"
       maskUnits="userSpaceOnUse"><path
         class="cls-46"
         d="m -21.24283,343.48845 c -53.44569,-30.24123 -77.979,-88.36141 -54.81035,-129.7352 22.9171,-41.25775 84.84726,-50.14693 138.34686,-19.98686 53.47311,30.37917 77.86507,88.45266 54.95748,129.78066 -23.19029,41.23419 -85.2941,50.29702 -138.49399,19.9414 z"
         id="path1242" /></mask><mask
       id="mask-56"
       x="-97.01455"
       y="174.33204"
       width="228.1188"
       height="200.92533"
       maskUnits="userSpaceOnUse"><path
         class="cls-47"
         d="m -28.19682,355.87072 c -57.874,-32.73236 -84.3775,-95.54344 -59.44628,-140.35183 25.06231,-44.83727 92.18626,-54.57212 149.93678,-21.7525 57.88905,32.801 84.3934,95.618 59.40733,140.50119 -24.95338,44.68086 -92.16668,54.29496 -149.89783,21.60314 z"
         id="path1245" /></mask></defs><title
     id="title1250">лого 1-07-07-07-07</title><metadata
     id="metadata1945"><rdf:RDF><cc:Work
         rdf:about=""><dc:title>лого 1-07-07-07-07</dc:title></cc:Work></rdf:RDF></metadata><path
     style="fill:#000000;stroke-width:0.971284"
     d="m 166.77601,504.16639 c -0.32133,-1.33179 -0.30708,-3.32984 0.0317,-4.44011 0.55874,-1.83119 1.51752,-2.04483 10.32359,-2.30036 l 9.70764,-0.28169 0.25692,-20.38945 0.25692,-20.38945 -10.73261,-11.83104 c -23.60827,-26.02444 -31.20784,-34.86358 -31.20784,-36.29815 0,-1.95318 2.85515,-2.69305 10.45688,-2.70971 l 6.17138,-0.0135 -8.88434,-9.27999 c -9.55682,-9.98238 -10.07428,-11.36011 -5.57723,-14.84929 l 2.64284,-2.05055 13.03773,13.58522 13.03772,13.58522 h 14.02407 14.02408 l 3.08412,-6.01895 c 5.66698,-11.05964 14.7473,-16.47456 26.04455,-15.53128 16.84565,1.40654 28.5035,18.76851 22.88241,34.07864 -2.08971,5.69175 -7.02549,11.5032 -12.71618,14.97219 -3.60437,2.19719 -5.48257,2.63286 -11.50769,2.66935 -3.96016,0.024 -9.04869,-0.59424 -11.30782,-1.37383 l -4.10753,-1.41745 -9.90292,10.82823 -9.90292,10.82824 -0.0365,21.05043 -0.0365,21.05044 h 9.40676 c 10.38499,0 11.91318,0.75716 11.37537,5.6361 l -0.3069,2.78408 -24.97672,0.26405 -24.97671,0.26406 z m 50.01164,-84.39716 4.3354,-4.30431 -28.33199,-0.023 c -15.5826,-0.0127 -28.33199,0.33536 -28.33199,0.77332 0,0.43796 1.39963,2.20739 3.11031,3.93207 l 3.11031,3.13578 12.84131,0.3265 c 7.06272,0.17958 16.46155,0.35742 20.88628,0.3952 l 8.04496,0.0686 4.33541,-4.3043 z m 135.99008,84.81776 c -24.78567,-5.43533 -45.34613,-25.19299 -53.103,-51.02955 -3.25468,-10.84073 -3.66744,-27.25293 -0.97163,-38.63503 6.5868,-27.81045 27.87806,-49.37153 54.79463,-55.48906 10.69424,-2.43056 27.58007,-1.5825 37.75369,1.89612 36.26208,12.39889 57.19984,51.89511 47.57908,89.75145 -6.84305,26.92649 -28.22458,47.9718 -54.38185,53.52674 -11.16442,2.37096 -20.79352,2.36468 -31.67092,-0.0207 z m 18.16096,-3.7429 c 0.32451,-3.4938 -1.89962,-5.4029 -3.88657,-3.33609 -0.80349,0.83579 -0.78715,1.12214 0.064,1.12214 1.47482,0 1.49319,2.68523 0.0218,3.19539 -1.6735,0.58026 0.0856,2.90927 1.924,2.54735 1.00229,-0.19732 1.68681,-1.48444 1.8767,-3.52879 z m -23.55595,-2.52007 c 0.0413,-1.19372 0.29134,-1.61318 0.55552,-0.93214 0.26419,0.68104 1.1946,1.26959 2.06757,1.30789 1.25786,0.0552 1.19198,0.23868 -0.31744,0.88428 -1.81646,0.77692 -1.82304,0.84921 -0.14197,1.56063 2.17254,0.91943 3.58959,-1.04341 3.24568,-4.49576 -0.17081,-1.71465 -0.90589,-2.57391 -2.38946,-2.79307 -1.28852,-0.19035 -2.14856,0.20457 -2.15733,0.99061 -0.0116,1.03947 -0.18482,1.02759 -0.84587,-0.058 -1.38811,-2.27964 -2.60399,-0.45533 -2.18495,3.27831 0.41879,3.73138 2.04123,3.92389 2.16825,0.25727 z m 1.82948,-2.66571 c 0,-0.54483 0.42855,-0.9906 0.95234,-0.9906 0.52378,0 0.95233,0.44577 0.95233,0.9906 0,0.54484 -0.42855,0.99061 -0.95233,0.99061 -0.52379,0 -0.95234,-0.44577 -0.95234,-0.99061 z m 39.99811,1.92276 c 0,-1.60235 0.44797,-2.91336 0.99548,-2.91336 0.62832,0 0.76134,1.37017 0.36066,3.71478 -0.79037,4.62493 0.98879,3.27084 1.95237,-1.48591 0.61493,-3.03566 0.49831,-3.21862 -2.04242,-3.20432 -3.29965,0.0185 -5.75597,1.41163 -4.22477,2.396 0.57971,0.37268 1.05401,1.79202 1.05401,3.15411 0,1.39877 0.41444,2.21009 0.95233,1.86429 0.52379,-0.33672 0.95234,-1.92324 0.95234,-3.52559 z m -4.76168,-5.02855 c 6.1574,-1.79542 12.23639,-5.0473 11.77472,-6.29875 -0.24766,-0.67133 1.6477,-2.61685 4.22605,-4.33786 2.57131,-1.71632 5.45183,-4.01334 6.40115,-5.10448 0.98644,-1.13381 2.4139,-1.75682 3.33133,-1.45393 3.18763,1.05237 14.81272,-14.98684 11.66382,-16.09265 -0.89222,-0.31332 -0.80953,-1.2816 0.34588,-4.05019 0.83513,-2.00114 2.05153,-5.64442 2.70311,-8.09618 0.65158,-2.45176 1.64834,-4.35535 2.215,-4.23021 1.74303,0.38492 2.53668,-5.20308 2.23184,-15.71408 -0.10706,-3.69144 -0.50594,-4.69127 -2.03779,-5.10796 -1.14676,-0.31193 -1.90467,-1.3512 -1.90467,-2.61174 0,-1.1515 -1.02526,-4.71824 -2.27837,-7.92608 -1.56133,-3.99691 -1.97004,-6.15316 -1.29866,-6.85152 1.98642,-2.06625 -9.05439,-17.84293 -11.19411,-15.99575 -0.86559,0.74723 -2.29689,0.0621 -5.27234,-2.52371 -2.24631,-1.95216 -5.33276,-4.22099 -6.85875,-5.04183 -1.8028,-0.96973 -2.58368,-2.00985 -2.22956,-2.96975 0.39206,-1.06273 -0.95036,-2.16521 -4.78354,-3.92855 -6.20833,-2.85596 -13.70146,-4.23397 -13.70146,-2.51974 0,1.43182 -16.77134,1.56 -17.61822,0.13465 -0.97607,-1.6428 -4.7647,-1.13102 -11.84971,1.60068 -4.81939,1.85818 -6.72083,3.0821 -6.72083,4.3261 0,0.95415 -1.82135,2.96426 -4.04743,4.46692 -2.22609,1.50266 -5.24623,3.89438 -6.71143,5.31494 -2.0069,1.94575 -2.85003,2.26971 -3.41824,1.31338 -0.54624,-0.91935 -1.70636,-0.17322 -4.20653,2.70539 -5.52997,6.367 -8.57157,11.90115 -7.36921,13.40815 0.75091,0.94114 0.52386,2.50776 -0.84477,5.82897 -1.02942,2.49805 -2.15632,6.1202 -2.50423,8.04922 -0.3479,1.92901 -1.14305,3.5073 -1.767,3.5073 -1.98306,0 -3.19735,9.24645 -2.01984,15.38048 0.58195,3.03151 1.35305,5.205 1.71359,4.82998 0.36053,-0.37501 0.93813,0.16205 1.28356,1.1935 0.34543,1.03144 1.691,4.71453 2.99016,8.18465 1.83502,4.90141 2.09261,6.48256 1.15436,7.08574 -0.92099,0.59208 -0.6078,1.8413 1.31899,5.26128 l 2.52676,4.48486 -2.144,0.31671 c -1.75738,0.25961 -2.14398,0.94191 -2.14398,3.78385 0,2.80672 0.36279,3.46713 1.90467,3.46713 1.25016,0 2.00925,-0.76592 2.20899,-2.22887 0.20469,-1.49917 -0.18504,-2.22887 -1.19042,-2.22887 -0.8221,0 -1.49474,-0.44577 -1.49474,-0.99061 0,-2.02864 3.54386,-0.89196 6.19579,1.9873 1.74508,1.89468 3.33962,2.78087 4.38354,2.43623 0.90241,-0.29793 1.91766,-0.0756 2.25612,0.49403 0.33846,0.56964 3.16011,2.83325 6.27033,5.03025 3.11023,2.197 5.65496,4.63514 5.65496,5.4181 0,1.93158 4.51914,4.22012 12.49258,6.32638 7.15716,1.89062 23.82782,1.87258 30.36253,-0.0329 z m -33.80792,-4.9313 c -3.14271,-1.1149 -6.02828,-2.34069 -6.41237,-2.72399 -0.52308,-0.52199 5.70685,-14.60432 7.44515,-16.82923 0.24314,-0.31122 9.97524,2.73038 10.68061,3.33803 0.26573,0.22892 -1.25401,11.05391 -2.25747,16.07976 -0.54659,2.73758 -2.05979,2.75925 -9.45592,0.13543 z m 26.305,-5.37659 c -1.5675,-10.96265 -1.65029,-10.67142 3.5833,-12.60493 2.55828,-0.94514 4.91053,-1.71843 5.22722,-1.71843 1.01023,0 8.30056,15.89619 7.73043,16.85577 -0.56246,0.94665 -12.08885,4.93762 -14.26042,4.93762 -0.78006,0 -1.59333,-2.6639 -2.28053,-7.47003 z m -60.03774,-7.96695 c 0.0457,-1.15401 0.27136,-1.38874 0.57536,-0.5985 0.2751,0.71509 0.24128,1.5695 -0.0751,1.89867 -0.31645,0.32917 -0.54153,-0.25591 -0.50018,-1.30017 z m 8.01967,-5.08197 c -3.88929,-5.00766 -6.31571,-9.17723 -5.82307,-10.00639 0.22483,-0.37839 3.93378,-2.46901 8.24212,-4.64584 7.44772,-3.76302 7.88576,-3.86599 8.89735,-2.0916 0.58518,1.02645 2.00511,3.06823 3.15539,4.53729 l 2.09143,2.67102 -6.40084,6.60706 c -3.52046,3.63389 -6.60436,6.60705 -6.85311,6.60703 -0.24874,-2e-5 -1.73792,-1.65538 -3.30927,-3.67857 z m 77.71266,-2.65825 -6.03787,-6.33686 3.01603,-4.55984 c 1.65883,-2.50792 3.47839,-4.55984 4.04348,-4.55984 1.91907,0 15.07078,8.05719 15.07018,9.23252 -7.1e-4,1.40146 -8.28627,12.56087 -9.32611,12.56087 -0.40032,0 -3.44489,-2.85159 -6.76571,-6.33685 z m -37.0003,3.69957 c -2.44515,-1.02629 -1.05966,-2.08409 2.80235,-2.13952 4.70129,-0.0675 6.63905,0.84708 4.03886,1.90623 -2.11018,0.85957 -5.10573,0.96172 -6.84121,0.23329 z m -8.77424,-4.40604 c -1.29027,-0.53575 -2.50419,-1.13869 -2.6976,-1.33987 -0.40914,-0.42558 10.99842,-24.34398 12.27792,-25.74328 1.17932,-1.28975 1.0982,0.40962 -0.49417,10.35186 -0.74172,4.63109 -1.62371,10.5376 -1.95998,13.12557 -0.66162,5.0919 -1.96211,5.74994 -7.12617,3.60572 z m 17.97617,0.85202 c -0.0458,-0.13621 -1.09229,-6.47727 -2.32546,-14.09124 -1.99957,-12.34602 -2.23883,-15.65999 -1.03285,-14.30622 0.79491,0.89232 12.01267,24.70403 12.01267,25.49904 0,1.58091 -8.17624,4.3192 -8.65436,2.89842 z m -27.7895,-3.25519 c -3.20936,-2.26847 -4.61739,-4.42203 -2.89118,-4.42203 1.15986,0 7.90796,5.18686 7.90796,6.07837 0,1.41057 -1.27188,0.99064 -5.01678,-1.65634 z m 41.6023,-0.99614 c 2.05146,-1.88424 4.40849,-3.40734 5.23784,-3.38465 0.97065,0.0265 0.17897,1.26186 -2.22201,3.46713 -2.05146,1.88423 -4.40849,3.40733 -5.23784,3.38465 -0.97065,-0.0265 -0.17897,-1.26187 2.22201,-3.46713 z m -47.37049,-9.11903 c -1.40125,-2.10327 -2.54773,-4.05831 -2.54773,-4.34452 0,-1.01185 23.76269,-13.1241 24.41554,-12.44501 0.36445,0.3791 0.47041,0.80072 0.23547,0.93692 -0.23494,0.13621 -4.73104,4.6192 -9.99134,9.9622 l -9.56419,9.71455 z m 42.22907,-6.65114 c -5.49039,-5.74185 -9.44789,-10.43973 -8.79447,-10.43973 2.54536,0 24.01483,11.94864 24.01483,13.36523 0,0.80446 -1.17852,2.82425 -2.61893,4.48844 l -2.61892,3.02578 z m -48.31226,1.22387 c -0.98632,-1.31063 -3.13089,-7.36552 -3.13089,-8.83959 0,-0.46353 0.3941,-0.84279 0.87579,-0.84279 0.48169,0 1.59674,2.25775 2.47788,5.01722 1.61691,5.06371 1.52503,6.98768 -0.22278,4.66516 z m 66.38962,-0.2872 c 0,-2.402 2.29917,-9.39518 3.08889,-9.39518 1.16181,0 0.83011,3.7531 -0.65945,7.46139 -1.46348,3.64337 -2.42944,4.41226 -2.42944,1.93379 z m -89.04005,-7.24537 c -0.26373,-0.27434 -0.47952,-4.21357 -0.47952,-8.75387 0,-5.94438 0.33322,-8.2547 1.19042,-8.25371 0.65473,7.4e-4 4.83311,0.66879 9.28528,1.48455 4.45217,0.81577 8.20199,1.48381 8.33294,1.48456 0.62207,0.004 0.14679,11.8914 -0.47617,11.91006 -0.39284,0.0118 -4.46256,0.6077 -9.04384,1.3243 -4.58127,0.7166 -8.54537,1.07845 -8.80911,0.80411 z m 103.32509,-0.71284 c -0.78567,-0.17294 -3.03557,-0.5872 -4.99976,-0.92058 l -3.57126,-0.60617 v -5.82853 -5.82853 l 4.99976,-1.03275 c 2.74987,-0.568 6.6886,-1.15683 8.75273,-1.30849 3.62483,-0.26634 3.78278,-0.14767 4.62648,3.47545 0.48043,2.06315 0.58668,5.74079 0.23611,8.17252 l -0.63741,4.42133 -3.98907,-0.11491 c -2.19399,-0.0632 -4.6319,-0.25641 -5.41758,-0.42934 z m -80.94855,-7.36704 v -5.18712 l 3.0951,0.56388 c 1.7023,0.31013 6.5235,1.048 10.71377,1.6397 10.31438,1.4565 14.63317,2.5528 12.85654,3.26359 -0.78568,0.31433 -5.71402,1.25256 -10.95186,2.08495 -5.23785,0.83239 -10.91615,1.80788 -12.61845,2.16777 l -3.0951,0.65434 z m 55.71165,2.88694 c -5.23785,-1.00364 -10.70187,-1.84396 -12.14228,-1.86736 -1.44041,-0.0234 -2.61892,-0.48833 -2.61892,-1.03316 0,-0.54484 0.16321,-0.99061 0.36268,-0.99061 0.19948,0 6.03598,-0.89155 12.97002,-1.98122 6.93403,-1.08967 12.98481,-1.98122 13.44618,-1.98122 0.46137,0 0.83886,2.22887 0.83886,4.95305 0,5.75858 0.94572,5.54522 -12.85654,2.90052 z m -23.33223,-3.46846 c 0,-0.92249 0.64794,-1.42784 1.58767,-1.23826 2.38919,0.48198 2.71725,2.79681 0.39636,2.79681 -1.16978,0 -1.98403,-0.63963 -1.98403,-1.55855 z m -16.90396,-9.62453 c -6.41636,-3.36342 -11.65458,-6.56947 -11.64049,-7.12455 0.0141,-0.55509 1.19261,-2.44836 2.61892,-4.20729 l 2.59331,-3.19804 10.24512,10.37996 c 5.63482,5.70897 9.70605,10.35415 9.04719,10.3226 -0.65886,-0.0315 -6.44768,-2.80924 -12.86405,-6.17268 z m 33.11069,-4.22351 9.98251,-10.45353 3.10983,3.70206 c 1.71042,2.03614 2.7818,4.01754 2.38084,4.40314 -1.29595,1.24631 -23.32927,12.80187 -24.40971,12.80187 -0.57528,0 3.44614,-4.70409 8.93653,-10.45354 z m -12.87728,5.35035 c 0.32665,-1.82433 1.34415,-8.21959 2.26111,-14.21166 1.34708,-8.80277 1.99061,-10.95945 3.3515,-11.23207 2.03814,-0.40829 7.24765,1.70875 7.24765,2.94529 0,1.52096 -11.31127,24.43783 -12.41091,25.14475 -0.71751,0.46127 -0.85782,-0.36504 -0.44935,-2.64631 z m -38.56587,1.16081 c 0,-1.98004 3.09567,-8.93553 3.97692,-8.93553 0.92606,0 0.51961,2.24674 -1.29931,7.18191 -0.96849,2.62779 -2.67761,3.74712 -2.67761,1.75362 z m 27.74249,-11.54355 c -4.71319,-9.80043 -5.74065,-12.69725 -4.73809,-13.35865 1.5358,-1.01318 7.39968,-2.26799 7.94548,-1.70026 0.29817,0.31014 4.28654,25.63882 4.28654,27.22218 0,0.19296 -0.33203,0.35084 -0.73784,0.35084 -0.40582,0 -3.44605,-5.63136 -6.75609,-12.51411 z m 42.72271,8.02796 c -0.66413,-2.46738 -0.93972,-4.76469 -0.61243,-5.10515 0.68094,-0.70831 3.47709,5.78414 3.47709,8.07356 0,3.12144 -1.69949,1.3604 -2.86466,-2.96841 z m -76.02469,-11.31147 c -3.84339,-2.122 -7.23597,-4.11614 -7.53907,-4.43141 -0.60592,-0.63027 5.76469,-10.65162 7.99555,-12.57747 1.1548,-0.99692 2.4606,-0.10923 7.53544,5.12264 5.52586,5.69685 7.45564,8.86229 5.40281,8.86229 -0.40466,0 -1.54353,1.56021 -2.5308,3.46713 -0.98727,1.90692 -2.26323,3.4554 -2.83548,3.44107 -0.57225,-0.0144 -4.18505,-1.76225 -8.02845,-3.88425 z m 73.27539,-0.69929 -3.12362,-4.60959 6.23059,-6.48099 6.23059,-6.48099 2.09165,1.92745 c 2.19942,2.02676 7.51745,10.1771 7.51745,11.52113 0,0.6332 -14.38451,8.73259 -15.50908,8.73259 -0.17269,0 -1.7196,-2.07432 -3.43758,-4.6096 z m -56.28787,-4.21782 c 0,-1.44769 5.70856,-6.03564 7.45367,-5.99047 1.09922,0.0284 0.43652,1.10392 -2.13641,3.46713 -3.75434,3.44831 -5.31726,4.19 -5.31726,2.52334 z m 45.23595,-2.58704 c -2.55658,-2.29206 -3.28529,-3.42005 -2.21583,-3.42993 1.75602,-0.0163 7.45368,4.58319 7.45368,6.01697 0,1.57604 -1.32337,0.92242 -5.23785,-2.58704 z m -41.16519,-13.75748 -3.9724,-8.33157 3.08588,-1.52319 c 4.32166,-2.13319 11.86735,-4.13049 12.62547,-3.34191 0.63566,0.66121 3.50784,17.74775 3.02051,17.969 -0.92448,0.41973 -10.10939,3.55926 -10.41287,3.55926 -0.20581,0 -2.16177,-3.74921 -4.34659,-8.33159 z m 16.28091,7.13304 c -0.73123,-1.23071 1.92345,-1.93782 5.9755,-1.59163 2.04613,0.1748 3.46062,0.75218 3.19524,1.30427 -0.5682,1.18207 -8.49162,1.43036 -9.17074,0.28736 z m 16.55134,-0.556 c -5.10758,-1.76716 -5.03678,-1.50969 -3.45549,-12.56881 0.89997,-6.29415 1.35345,-7.47004 2.8808,-7.47004 2.25089,0 12.29119,3.61861 13.48459,4.85996 0.82274,0.85581 -6.78903,17.05845 -7.91014,16.83775 -0.26189,-0.0515 -2.51178,-0.79805 -4.99976,-1.65886 z m -49.27038,95.11943 c 0.008,-0.95346 0.27142,-2.73655 0.58725,-3.96243 0.47454,-1.8419 0.1912,-2.22887 -1.63198,-2.22887 -1.658,0 -1.93506,0.28204 -1.115,1.13507 0.6069,0.63128 0.84994,2.38997 0.5476,3.96243 -0.34014,1.76904 -0.14259,2.82737 0.52775,2.82737 0.58926,0 1.07723,-0.78011 1.08438,-1.73357 z m 78.13978,0.80329 c -1.12808,-0.74251 -1.1511,-1.17088 -0.13154,-2.44874 0.67964,-0.85183 0.98695,-2.22313 0.6829,-3.04733 -0.65575,-1.77753 -3.07098,-1.98024 -4.0458,-0.33957 -0.463,0.77926 -0.16942,0.95172 0.89614,0.52639 2.00483,-0.80024 2.02279,0.66075 0.0467,3.79786 -1.51167,2.3998 -1.49125,2.44141 1.19041,2.4265 2.00724,-0.0112 2.36705,-0.25305 1.36119,-0.91511 z M 313.9758,472.79176 c 0,-2.44452 -0.40507,-3.90454 -1.02377,-3.69001 -0.56306,0.19522 -0.99162,0.67815 -0.95233,1.07315 0.0392,0.39501 0.0714,2.05552 0.0714,3.69002 0,1.6345 0.42855,2.97183 0.95234,2.97183 0.52378,0 0.95234,-1.82025 0.95234,-4.04499 z m 107.61395,-0.87697 c 0,-3.16248 -0.29189,-3.81483 -1.49252,-3.33559 -1.05769,0.42218 -1.19641,0.90375 -0.47617,1.65294 0.55899,0.58146 1.01635,2.08248 1.01635,3.3356 0,1.25312 0.21428,2.2784 0.47617,2.2784 0.26189,0 0.47617,-1.76911 0.47617,-3.93135 z m 5.71401,1.42374 c 0,-1.37919 -0.67876,-2.77855 -1.50835,-3.10969 -1.21444,-0.48475 -1.26083,-0.76527 -0.23809,-1.43965 0.99081,-0.65332 0.92603,-0.84092 -0.29442,-0.85276 -0.86059,-0.008 -1.82483,0.68995 -2.14276,1.55177 -0.8168,2.21407 -0.75238,2.3955 0.85045,2.3955 0.78567,0 1.39466,0.78011 1.35331,1.73357 -0.045,1.03562 -0.26856,1.23503 -0.55552,0.4953 -0.26419,-0.68104 -0.85973,-1.23826 -1.32343,-1.23826 -0.4637,0 -0.59641,0.66866 -0.29492,1.48591 0.3015,0.81726 1.35942,1.48592 2.35095,1.48592 1.29404,0 1.80278,-0.70765 1.80278,-2.50761 z M 307.51895,455.87548 c 0.87432,-2.72835 -0.45313,-6.77578 -2.22227,-6.77578 -1.46112,0 -1.79658,0.73987 -1.79658,3.96243 0,3.2446 0.33067,3.96244 1.82531,3.96244 1.00392,0 1.99102,-0.51709 2.19354,-1.14909 z m 123.59416,-2.78226 c 0,-2.81228 -0.35129,-3.79112 -1.23409,-3.43874 -0.79484,0.31726 -1.09672,1.71656 -0.84815,3.93134 0.52922,4.71538 2.08224,4.34798 2.08224,-0.4926 z m 5.23784,-0.0447 c 0,-2.79315 -0.36422,-3.45356 -1.90467,-3.45356 -1.26804,0 -2.00942,0.76907 -2.21806,2.30092 -0.45369,3.3309 0.5363,5.32465 2.45327,4.94064 1.21034,-0.24246 1.66946,-1.2842 1.66946,-3.788 z m -2.15989,0.0136 c 0,-1.90692 0.19599,-2.68702 0.43553,-1.73356 0.23953,0.95346 0.23953,2.51367 0,3.46713 -0.23954,0.95346 -0.43553,0.17336 -0.43553,-1.73357 z m -132.59563,-21.0009 c 0,-2.48283 -0.34284,-3.78107 -0.85019,-3.21948 -0.78254,0.8662 -0.35701,7.38003 0.48211,7.38003 0.20244,0 0.36808,-1.87225 0.36808,-4.16055 z m 4.27815,0.96548 c -0.12415,-1.2393 -0.28042,-2.79651 -0.34727,-3.46045 -0.0668,-0.66394 -0.71589,-0.96993 -1.44232,-0.67997 -1.04666,0.41778 -1.1146,1.22598 -0.32736,3.89415 1.08638,3.68199 2.47734,3.84381 2.11695,0.24627 z m 131.73403,0.46077 c 0.20436,-1.48996 -0.18665,-2.21874 -1.19042,-2.21874 -0.82211,0 -1.49474,-0.43179 -1.49474,-0.95952 0,-0.52773 0.64283,-0.70293 1.4285,-0.38932 0.78568,0.31361 1.42851,0.0458 1.42851,-0.59529 0,-0.64204 -0.96236,-1.02332 -2.14276,-0.84894 -2.21086,0.32661 -3.30226,3.47435 -2.22095,6.40545 0.80749,2.18885 3.83871,1.18109 4.19186,-1.39364 z m -2.60997,0.17523 c 0.0457,-1.15401 0.27136,-1.38873 0.57536,-0.59849 0.2751,0.71509 0.24127,1.5695 -0.0751,1.89867 -0.31645,0.32917 -0.54154,-0.25592 -0.50019,-1.30018 z m -130.5452,-23.2793 c 0,-2.44453 -0.40507,-3.90455 -1.02376,-3.69002 -0.56307,0.19523 -0.99162,0.67815 -0.95234,1.07315 0.0392,0.39501 0.0714,2.05552 0.0714,3.69002 0,1.63451 0.42855,2.97183 0.95233,2.97183 0.52379,0 0.95234,-1.82025 0.95234,-4.04498 z m 4.76168,0.0825 c 0,-4.08922 -2.04671,-5.60654 -3.23129,-2.3955 -0.91096,2.46932 -0.67458,5.5463 0.37428,4.87203 0.52378,-0.33673 0.95233,-0.14016 0.95233,0.43683 0,0.57699 0.42856,1.04908 0.95234,1.04908 0.52379,0 0.95234,-1.7831 0.95234,-3.96244 z m 121.89899,-0.0825 c 0,-2.44453 -0.40507,-3.90455 -1.02376,-3.69002 -0.56307,0.19523 -0.99162,0.67815 -0.95234,1.07315 0.0392,0.39501 0.0714,2.05552 0.0714,3.69002 0,1.63451 0.42856,2.97183 0.95234,2.97183 0.52379,0 0.95234,-1.82025 0.95234,-4.04498 z m 5.23784,0.0825 c 0,-2.84134 -0.38674,-3.52427 -2.14275,-3.78368 -1.1804,-0.17437 -2.14276,0.2069 -2.14276,0.84894 0,0.64102 0.64283,0.90891 1.42851,0.59529 0.78567,-0.31361 1.4285,-0.13841 1.4285,0.38932 0,0.52774 -0.48103,0.95952 -1.06894,0.95952 -0.73101,0 -0.68811,0.47733 0.13571,1.50986 0.66256,0.83042 0.92931,1.79626 0.59277,2.14631 -0.33653,0.35006 -0.61188,0.1164 -0.61188,-0.51923 0,-0.63565 -0.42855,-1.15572 -0.95233,-1.15572 -0.52379,0 -0.95234,0.69967 -0.95234,1.55481 0,1.04579 0.70151,1.45117 2.14276,1.23826 1.75601,-0.25941 2.14275,-0.94233 2.14275,-3.78368 z M 317.59521,392.5502 c 0.30472,-2.72687 -1.92142,-5.46454 -3.5777,-4.39976 -0.54673,0.35148 -0.99405,2.20394 -0.99405,4.11661 0,3.03975 0.26977,3.43771 2.14276,3.16101 1.49488,-0.22083 2.2293,-1.09098 2.42899,-2.87786 z m -3.61941,-1.89642 c 0,-0.54484 0.42855,-0.99061 0.95233,-0.99061 0.52379,0 0.95234,0.44577 0.95234,0.99061 0,0.54483 -0.42855,0.9906 -0.95234,0.9906 -0.52378,0 -0.95233,-0.44577 -0.95233,-0.9906 z m 110.47096,0.9906 c 0,-2.7265 -0.41379,-3.96243 -1.32662,-3.96243 -2.39292,0 -3.51906,6.33418 -1.29231,7.26881 2.32791,0.97708 2.61893,0.60968 2.61893,-3.30638 z m -95.23359,-15.49545 c 0,-2.04959 -0.42274,-3.34464 -1.02376,-3.13624 -0.56307,0.19523 -0.99162,0.67815 -0.95234,1.07315 0.0392,0.39501 0.0714,2.08183 0.0714,3.74849 0,1.76794 0.39672,2.77525 0.95233,2.41805 0.52379,-0.33672 0.95234,-2.18328 0.95234,-4.10345 z m 3.80934,3.73197 c 0,-0.47673 0.26785,-2.25982 0.59521,-3.96243 0.51725,-2.69019 0.33015,-3.09565 -1.4285,-3.09565 -1.11304,0 -2.02371,0.43178 -2.02371,0.95952 0,0.52773 0.68613,0.68564 1.52474,0.3509 1.39811,-0.55807 1.39811,-0.35387 0,2.45842 -1.87958,3.78078 -1.88827,4.15603 -0.0962,4.15603 0.78568,0 1.4285,-0.39005 1.4285,-0.86679 z m 73.32986,-3.1782 c 0,-2.79779 -0.36704,-3.91653 -1.19042,-3.62835 -1.55492,0.5442 -0.83911,7.67334 0.77046,7.67334 0.23098,0 0.41996,-1.82025 0.41996,-4.04499 z m 5.53786,-0.25068 c 0.27282,-3.44105 0.10422,-3.75444 -1.86083,-3.45889 -1.67722,0.25225 -2.13867,0.93468 -2.06183,3.04917 0.17002,4.67828 0.24812,4.85881 1.95606,4.52213 1.17247,-0.23112 1.75554,-1.4504 1.9666,-4.11241 z m -60.94462,-8.34915 c 0.1878,-1.36944 -0.30001,-2.46461 -1.27028,-2.8519 -1.2581,-0.50219 -1.31947,-0.79732 -0.30488,-1.46632 0.91109,-0.60074 0.66439,-0.84187 -0.87248,-0.85276 -1.51273,-0.0107 -2.14276,0.56738 -2.14276,1.96606 0,1.10067 0.6349,1.98121 1.42851,1.98121 0.78568,0 1.4285,0.43179 1.4285,0.95953 0,0.52772 -0.64282,0.70292 -1.4285,0.38932 -1.45993,-0.58275 -1.96442,0.73533 -0.76069,1.98742 1.29037,1.34224 3.62092,0.0871 3.92258,-2.11256 z m 40.16939,-1.19262 c 0,-3.15202 -0.29402,-3.81397 -1.48323,-3.33929 -0.81578,0.32562 -1.24434,1.23963 -0.95234,2.03114 0.292,0.79151 0.5309,2.29419 0.5309,3.3393 0,1.04511 0.42855,1.9002 0.95233,1.9002 0.52379,0 0.95234,-1.76911 0.95234,-3.93135 z m -22.85606,-0.0311 c 0,-0.54483 -0.48103,-0.99061 -1.06894,-0.99061 -0.69993,0 -0.62346,-0.55835 0.2215,-1.61739 1.16724,-1.46295 1.34162,-1.39202 1.82614,0.74295 0.33855,1.49179 1.22077,2.36036 2.39741,2.36036 1.49281,0 1.86174,-0.68706 1.86174,-3.46713 0,-3.44539 -0.0284,-3.46849 -4.5236,-3.68399 -2.59797,-0.12454 -4.52359,0.21661 -4.52359,0.80142 0,0.56005 0.49606,0.69937 1.10234,0.30961 1.10868,-0.71273 0.88891,0.98924 -0.62002,4.80183 -0.52571,1.32831 -0.21703,1.73356 1.32046,1.73356 1.10361,0 2.00656,-0.44577 2.00656,-0.99061 z m 3.04266,-3.46713 c 0.0194,-1.6345 0.23285,-2.18324 0.47431,-1.21941 0.24145,0.96384 0.22558,2.30116 -0.0353,2.97183 -0.26087,0.67067 -0.45842,-0.11791 -0.43901,-1.75242 z M 67.343347,336.17029 c -3.33337,-0.3873 -4.52441,-1.03535 -5.46189,-2.97183 -2.70058,-5.57837 -1.67802,-9.03823 9.24869,-31.29297 5.76163,-11.73489 10.4757,-21.75338 10.4757,-22.26333 0,-0.50995 -1.49993,-0.92718 -3.33318,-0.92718 h -3.33317 l -0.001,-17.08801 c -0.002,-20.1035 -0.75641,-22.76222 -7.38094,-26.00348 -3.73215,-1.82607 -4.03046,-2.25272 -3.80935,-5.44835 l 0.23995,-3.46713 26.903492,-0.26308 c 25.498081,-0.24933 26.903481,-0.16867 26.903481,1.54423 0,0.99402 -0.60713,2.67262 -1.34919,3.73021 -1.17206,1.67046 -2.8912,1.98793 -13.09462,2.41821 -18.132283,0.76464 -18.910343,1.77911 -18.839743,24.56417 l 0.0482,15.55549 4.322442,-8.91548 c 2.37734,-4.90352 5.00887,-9.4727 5.84783,-10.15375 0.85439,-0.69357 4.18144,-1.23826 7.563441,-1.23826 6.55283,0 7.94595,1.12866 6.01811,4.87564 -0.82558,1.60461 -1.98144,2.05863 -5.24098,2.05863 h -4.181811 l -6.17156,16.59269 c -12.493072,33.58848 -14.169922,38.63994 -13.526602,40.74832 0.62805,2.05836 0.85371,2.06897 43.902463,2.0639 l 43.27114,-0.005 v -3.21127 c 0,-1.76621 -4.25326,-15.01972 -9.45167,-29.45226 l -9.45165,-26.24112 -6.26186,-0.29291 c -6.23769,-0.29179 -6.26188,-0.30422 -6.26188,-3.21948 v -2.92657 h 8.01719 8.01718 l 1.87914,3.21948 c 1.72838,2.96119 12.03186,23.70739 26.84241,54.04766 5.35327,10.96646 5.9036,12.64761 5.46505,16.69479 -0.864,7.97343 3.29214,7.4324 -58.43786,7.60722 -30.312401,0.0858 -57.031783,-0.0668 -59.376413,-0.33922 z M 385.18684,321.74821 c -5.10519,-2.88183 -6.21906,-10.19252 -2.27892,-14.9573 2.22898,-2.69548 2.52437,-2.75783 16.90396,-3.56817 8.04944,-0.45361 17.30214,-1.06121 20.56155,-1.35022 l 5.92621,-0.52546 -1.46147,-2.32014 c -1.37107,-2.17661 -1.19274,-2.97455 2.8829,-12.89918 2.3894,-5.81847 4.32182,-11.09251 4.29425,-11.72008 -0.0275,-0.62757 -3.77739,-4.0419 -8.33294,-7.58741 -10.2546,-7.98099 -10.37356,-8.57069 -5.04451,-25.00545 4.04964,-12.48906 3.98346,-12.81471 -2.06956,-10.18396 -2.62551,1.14109 -4.29917,3.16854 -7.74406,9.38098 -5.09172,9.18232 -7.19484,10.86942 -10.63059,8.52776 -1.27434,-0.86853 -2.31698,-2.45432 -2.31698,-3.52396 0,-2.24568 7.88812,-17.52968 10.28895,-19.93583 0.88839,-0.89036 6.11503,-3.27195 11.61477,-5.2924 8.32509,-3.05843 10.84911,-3.58594 15.07306,-3.15022 6.42074,0.66232 9.21149,2.56938 10.6859,7.30219 0.6425,2.06243 2.40112,6.31307 3.90804,9.44587 l 2.73984,5.696 h 6.65265 c 5.38286,0 7.01618,0.37815 8.55731,1.98122 2.3749,2.47035 2.40848,4.17171 0.12476,6.32151 -1.47739,1.39075 -3.45731,1.62731 -11.64902,1.39179 l -9.8691,-0.28374 -1.92178,-3.18132 c -1.05697,-1.74972 -2.15732,-3.19848 -2.44523,-3.21948 -0.58979,-0.043 -4.72565,14.08874 -4.69384,16.03836 0.0113,0.69252 2.38134,3.01854 5.26675,5.16893 2.88542,2.15038 5.47492,4.85763 5.75445,6.01611 0.48621,2.01505 -8.11504,26.2147 -10.29161,28.9555 -1.23685,1.55747 4.65295,1.60115 27.80787,0.20619 9.15959,-0.55181 17.86959,-0.72554 19.35554,-0.38605 3.99889,0.9136 9.07113,5.98764 9.75038,9.75383 0.80729,4.47616 -1.62095,10.00306 -5.46622,12.44169 -3.05408,1.93684 -4.65231,1.99807 -51.24536,1.96323 -40.59023,-0.0303 -48.49779,-0.26447 -50.68795,-1.50079 z m 86.87671,-10.49271 c 0,-2.10113 -0.16908,-2.1223 -12.14228,-1.521 -42.22665,2.12069 -54.03645,2.81733 -54.41371,3.20974 -0.23374,0.24312 14.64575,0.44205 33.06551,0.44205 h 33.49048 z m -378.826291,1.38783 -2.98671,-3.71478 -1.920342,2.47652 c -2.01547,2.59922 -2.66594,1.2366 -0.97685,-2.04634 1.617262,-3.14332 5.235622,-2.40343 7.585192,1.55103 1.13301,1.90693 2.41866,3.46713 2.85701,3.46713 0.43834,0 1.72399,-1.5602 2.857001,-3.46713 2.70653,-4.55525 5.34966,-4.50857 9.1187,0.16105 l 2.92849,3.62826 2.66047,-3.62822 c 3.35048,-4.56925 5.45113,-4.57694 8.78368,-0.0322 l 2.63687,3.59606 2.98845,-3.59606 c 3.80403,-4.57746 6.31225,-4.61349 8.97678,-0.12893 1.13301,1.90693 2.44967,3.46713 2.92593,3.46713 0.47624,0 1.83408,-1.55469 3.01741,-3.45486 2.81743,-4.5242 5.45819,-4.50599 8.80683,0.0607 l 2.59586,3.54013 2.27885,-2.2269 c 2.5163,-2.45894 3.21006,-0.76406 0.95314,2.32855 -2.0454,2.80276 -4.9651,2.10417 -7.24532,-1.73357 -1.13301,-1.90692 -2.43181,-3.46713 -2.88622,-3.46713 -0.4544,0 -1.97025,1.56021 -3.36853,3.46713 -3.21883,4.38971 -5.53144,4.39314 -8.25962,0.0123 -1.18333,-1.90017 -2.64487,-3.46038 -3.24786,-3.46713 -0.603,-0.007 -1.98133,1.54795 -3.06297,3.45487 -2.62279,4.62394 -5.58338,4.61965 -8.46788,-0.0123 -1.18333,-1.90012 -2.57218,-3.45481 -3.08634,-3.45481 -0.51416,0 -1.903,1.55469 -3.08634,3.45487 -2.84622,4.57042 -5.631,4.57452 -8.34169,0.0123 -1.13301,-1.90692 -2.43181,-3.46713 -2.88622,-3.46713 -0.4544,0 -1.97025,1.56021 -3.36853,3.46713 -1.39829,1.90692 -3.273631,3.46713 -4.167441,3.46713 -0.89381,0 -2.96912,-1.67165 -4.6118,-3.71478 z m 4.26606,-10.64739 c -3.3599,-3.81493 -3.44243,-3.84616 -5.3694,-2.03219 -1.68923,1.59017 -1.95705,1.62562 -1.95705,0.25902 0,-1.89554 3.56295,-4.70361 5.15949,-4.06634 0.62231,0.2484 1.88299,1.77498 2.80151,3.3924 2.097101,3.69277 3.138121,3.69742 5.165421,0.0231 2.39906,-4.34811 4.48233,-4.40313 7.74069,-0.20439 l 2.8072,3.61735 3.50254,-3.95549 3.50253,-3.95549 3.13496,3.88415 3.13495,3.88415 3.52683,-3.88982 3.52682,-3.88981 2.99735,3.71354 c 1.64854,2.04246 3.2838,3.71354 3.63392,3.71351 0.35012,-2e-5 1.56358,-1.56025 2.6966,-3.46717 1.13301,-1.90693 2.47546,-3.46713 2.98323,-3.46713 0.50777,0 2.32434,1.59088 4.03684,3.53529 2.75614,3.1294 3.25599,3.35688 4.35357,1.98122 1.4018,-1.75692 2.91139,-2.04909 2.91139,-0.56345 0,1.69407 -3.69987,4.93456 -5.02856,4.40421 -0.69433,-0.27716 -2.01392,-1.82725 -2.93244,-3.44467 -2.05273,-3.61465 -3.69044,-3.73194 -5.41116,-0.38753 -0.72251,1.40426 -2.0746,2.97684 -3.00465,3.49459 -1.72136,0.95825 -2.47112,0.38064 -5.92149,-4.5619 -1.3448,-1.92639 -1.47991,-1.87175 -4.88208,1.97427 l -3.499,3.95549 -3.23086,-3.95549 -3.23085,-3.95549 -3.23086,3.95549 -3.23086,3.95549 -3.47825,-3.94998 -3.47827,-3.94999 -3.15886,3.91377 -3.15885,3.91378 z m 388.369101,-4.05993 c -1.57136,-0.71539 -4.27868,-1.32082 -6.01628,-1.3454 -2.54949,-0.0361 -3.06537,-0.37927 -2.6728,-1.77824 2.96769,-10.57568 11.06992,-43.10234 11.06992,-44.44055 0,-1.46406 -0.42263,-1.32876 -2.61893,0.83838 l -2.61892,2.58416 -3.80429,-3.34516 c -2.36742,-2.08171 -3.4465,-3.66582 -2.857,-4.19415 0.521,-0.46694 4.84564,-4.49883 9.61032,-8.95975 4.76468,-4.46092 9.07326,-8.11077 9.57463,-8.11077 0.50137,0 2.28153,1.47024 3.95592,3.2672 l 3.04434,3.2672 -1.91938,8.86776 c -1.05566,4.87727 -3.59825,17.11458 -5.65019,27.19402 -4.68876,23.03184 -5.51642,26.83306 -5.91768,27.17836 -0.17746,0.1527 -1.60831,-0.30768 -3.17966,-1.02306 z M 99.101099,290.8151 c -1.76267,-2.29103 -2.23234,-2.45867 -3.59426,-1.28295 -2.17314,1.87602 -2.72649,0.89687 -0.96856,-1.71381 1.9273,-2.86218 2.63955,-2.74917 5.959071,0.94545 2.76113,3.07313 2.81272,3.0866 3.87945,1.0133 0.5946,-1.15567 1.91704,-2.56659 2.93875,-3.13537 1.53681,-0.85553 2.30697,-0.5096 4.45906,2.00281 l 2.60139,3.03696 2.70991,-3.01613 c 1.49045,-1.65887 3.08568,-3.01612 3.54495,-3.01612 0.45928,0 1.92453,1.44806 3.25614,3.2179 l 2.42109,3.21791 2.88578,-3.46556 2.88578,-3.46556 2.857,3.42972 2.85701,3.4297 2.77585,-3.4297 2.77586,-3.42972 3.22274,3.22065 c 2.48316,2.48154 3.48161,2.95137 4.3508,2.04725 1.58949,-1.65337 2.64037,-0.18931 1.17889,1.64242 -1.7455,2.18773 -3.56481,1.85867 -5.34452,-0.96666 -0.85799,-1.36209 -2.10424,-2.47653 -2.76944,-2.47653 -0.66519,0 -1.91144,1.11444 -2.76943,2.47653 -2.02531,3.21523 -4.2503,3.13603 -6.95624,-0.24766 l -2.17852,-2.72417 -2.17853,2.72417 c -2.70594,3.38369 -4.93093,3.46289 -6.95624,0.24766 -0.85799,-1.36209 -1.98471,-2.47653 -2.50382,-2.47653 -0.5191,0 -1.78657,1.11444 -2.8166,2.47653 -1.03002,1.36208 -2.45338,2.47652 -3.16303,2.47652 -0.70964,0 -2.133,-1.11444 -3.16303,-2.47652 -1.03003,-1.36209 -2.29749,-2.47653 -2.8166,-2.47653 -0.51911,0 -1.64582,1.11444 -2.50381,2.47653 -1.98709,3.15454 -4.30579,3.05929 -6.876891,-0.28249 z m 2.829281,-9.86536 c -1.69975,-2.36812 -2.153061,-2.5439 -3.519121,-1.36461 -1.33731,1.15446 -1.56804,1.13501 -1.56804,-0.13226 0,-0.81725 0.69191,-2.08323 1.53758,-2.81328 1.3252,-1.14401 1.858801,-0.93891 3.863061,1.48481 l 2.32547,2.81217 2.15042,-2.1014 c 3.97984,-3.88912 4.83484,-2.14184 1.03679,2.1188 -3.00157,3.36716 -3.40651,3.36686 -5.82616,-0.004 z m 41.78713,0.0251 -2.11112,-2.75511 -1.54636,2.22887 c -1.60229,2.3095 -4.57277,2.96638 -5.59954,1.23826 -0.32372,-0.54483 0.125,-0.99061 0.99715,-0.99061 0.87216,0 2.42847,-1.11443 3.4585,-2.47652 2.36491,-3.12731 3.00203,-3.10104 6.00528,0.24765 2.02671,2.25984 2.5926,2.47579 3.31993,1.26695 0.48223,-0.80147 1.20634,-1.11442 1.60913,-0.69545 0.94639,0.98443 -0.90613,4.05113 -2.66546,4.41248 -0.74601,0.15323 -2.30638,-0.9612 -3.46751,-2.47652 z m -31.00202,0.0516 c -1.05111,-1.09333 -0.71403,-32.48852 0.38399,-35.76487 1.73764,-5.18494 5.55774,-5.23567 7.60243,-0.10095 0.88366,2.21909 0.90539,3.23829 0.0872,4.08937 -0.81821,0.85109 -1.08982,0.62069 -1.08982,-0.92443 0,-2.70883 -2.02856,-4.43605 -3.84129,-3.27068 -1.13505,0.72971 -1.41482,4.15426 -1.49413,18.28853 -0.0945,16.84788 -0.30284,19.08265 -1.64837,17.68303 z m 17.40043,-7.45365 c -0.19796,-27.58984 0.45853,-32.50092 4.34457,-32.50092 1.98145,0 4.5005,4.43106 4.05035,7.12464 -0.36522,2.18537 -0.41696,2.19881 -1.17362,0.30493 -1.47254,-3.68567 -2.53302,-4.58599 -3.95543,-3.35806 -1.00958,0.87156 -1.30214,4.97871 -1.30214,18.28002 0,10.36871 -0.37677,17.39811 -0.95234,17.76813 -0.60404,0.38832 -0.97393,-2.3981 -1.01139,-7.61876 z m 265.02089,7.08813 c -8.04426,-0.87864 -9.73583,-1.98565 -9.73583,-6.37142 0,-5.81635 2.26149,-6.8176 13.58534,-6.01474 l 9.84555,0.69804 1.12068,-2.55846 c 0.61637,-1.40716 1.463,-2.55847 1.88141,-2.55847 0.41841,0 2.84857,1.91103 5.40035,4.24671 4.35321,3.98458 4.56469,4.39733 3.42618,6.68661 -2.95805,5.94792 -4.63955,6.90717 -11.85519,6.76314 -3.70614,-0.074 -9.85697,-0.47513 -13.66849,-0.89143 z m -279.24687,-3.38657 c 0,-1.23705 1.29579,-1.53117 6.74571,-1.53117 4.97147,0 6.64225,0.32568 6.35237,1.23826 -0.24904,0.78398 -2.72383,1.34572 -6.74572,1.53117 -5.21656,0.24054 -6.35236,0.0191 -6.35236,-1.23826 z m -11.85838,-7.04581 c -1.37305,-2.17976 -1.82207,-2.35656 -3.14485,-1.23826 -1.335451,1.129 -1.455021,1.06036 -0.888621,-0.51004 0.359961,-0.99802 0.654471,-2.00101 0.654471,-2.22887 0,-1.28797 2.95911,-0.10227 4.14686,1.66164 0.99483,1.47739 1.97141,1.88656 3.38718,1.41916 2.19628,-0.72509 2.62118,0.40447 0.84652,2.25045 -1.76031,1.83105 -3.24911,1.42798 -5.00156,-1.35408 z m 29.95276,2.0074 c 0,-1.23103 4.25561,-6.39885 5.26934,-6.39885 0.606,0 1.88296,0.89785 2.83769,1.99522 1.1318,1.30087 2.38234,1.7818 3.59345,1.38196 2.28272,-0.75362 1.84243,1.41515 -0.60721,2.99101 -1.32492,0.85232 -2.00464,0.57609 -3.45092,-1.40238 l -1.80102,-2.46375 -2.2678,2.2161 c -2.19144,2.14149 -3.57353,2.79151 -3.57353,1.68069 z m -18.09438,-4.9582 c 0,-1.2574 1.1358,-1.4788 6.35236,-1.23826 4.02189,0.18545 6.49668,0.7472 6.74572,1.53118 0.28988,0.91257 -1.3809,1.23826 -6.35237,1.23826 -5.44992,0 -6.74571,-0.29413 -6.74571,-1.53118 z m 0,-8.69452 c 0,-1.62233 5.49909,-2.64246 10.27892,-1.90683 5.31816,0.81848 2.8656,2.70146 -3.92656,3.01466 -4.97275,0.22929 -6.35236,-0.0113 -6.35236,-1.10783 z M 66.368467,222.74557 c 0,-1.23348 1.90097,-1.49495 11.18995,-1.53916 6.15447,-0.0293 13.868652,-0.14073 17.142632,-0.24766 3.45814,-0.11293 5.952691,0.22073 5.952711,0.79622 2e-5,0.63373 -5.832761,0.87882 -16.190293,0.68034 -10.98737,-0.21056 -16.19033,0.0282 -16.19033,0.74295 0,0.57928 -0.42855,1.05323 -0.95233,1.05323 -0.52379,0 -0.95234,-0.66866 -0.95234,-1.48592 z M 229.2179,220.26905 c -1.82404,-1.89735 -1.90467,-3.30202 -1.90467,-33.18539 v -31.20418 h -3.33317 c -3.26063,0 -3.33318,-0.0873 -3.33318,-4.01163 0,-2.2064 0.64277,-5.30456 1.42838,-6.88482 1.28739,-2.58958 1.96183,-2.90253 6.8324,-3.17029 5.32228,-0.29259 5.43751,-0.36313 7.6188,-4.66298 1.21815,-2.40125 2.2148,-4.43224 2.2148,-4.51332 0,-0.0811 -2.79989,0.28783 -6.22198,0.8198 -27.07624,4.2091 -51.55164,-22.12586 -47.12185,-50.701993 4.62662,-29.845939 35.24481,-46.222256 61.18648,-32.725935 10.88551,5.663262 20.10381,18.39605 22.68818,31.338092 1.07058,5.361244 0.76147,15.758252 -0.61757,20.772546 l -0.61299,2.22887 h 24.16384 c 13.29011,0 25.63316,0.43832 27.42898,0.97406 4.55819,1.35981 9.25379,6.44126 11.41052,12.34816 1.0049,2.75222 3.78159,9.32558 6.17043,14.60746 l 4.34334,9.60342 4.54104,0.30267 c 4.32171,0.28805 4.64455,0.51615 6.6838,4.72266 1.17852,2.43099 2.14276,5.43996 2.14276,6.6866 0,1.93003 -0.49499,2.26663 -3.33318,2.26663 h -3.33317 v 31.13228 31.13228 l -2.50928,2.05311 c -1.92001,1.57098 -3.883,2.05312 -8.35911,2.05312 -8.25456,0 -10.083,-1.5371 -10.083,-8.47634 v -5.39218 h -39.52194 -39.52194 v 5.37759 c 0,7.4604 -1.22188,8.49093 -10.06755,8.49093 -5.80472,0 -7.41635,-0.3556 -8.97917,-1.98122 z m 30.54801,-37.56694 c 2.33047,-2.42412 2.78375,-3.69784 2.78375,-7.82224 0,-4.39942 -0.36024,-5.25564 -3.36632,-8.00108 -6.96031,-6.35682 -16.27997,-2.54543 -17.32348,7.08468 -0.46682,4.30798 -0.25879,4.90104 2.8554,8.14039 2.88606,3.00205 3.98589,3.49388 7.81289,3.49388 3.65307,0 4.9546,-0.5207 7.23776,-2.89563 z m 70.06354,1.444 c 2.97181,-2.16518 5.33996,-8.02402 4.62053,-11.4312 -0.33492,-1.58613 -2.09367,-4.23988 -3.90835,-5.89722 -5.95254,-5.43644 -14.00947,-3.28613 -17.17019,4.58255 -1.15194,2.8678 -1.13191,3.78812 0.15271,7.01559 0.81323,2.04313 2.42605,4.48497 3.58404,5.42632 2.61818,2.12834 9.97593,2.30415 12.72126,0.30396 z m -4.49474,-37.81101 c 2.553,-3.37606 2.54268,-8.5162 -0.0364,-18.12948 -1.53558,-5.72378 -3.01441,-8.7206 -6.26382,-12.69345 l -4.25367,-5.2007 h -25.00287 -25.00287 l -3.05071,4.89724 c -1.67788,2.69349 -4.66074,6.22367 -6.62857,7.84485 -6.38963,5.26407 -8.98093,18.79256 -4.49365,23.46016 l 2.33754,2.43149 h 35.2106 35.21059 l 1.9738,-2.61011 z M 220.64688,104.36782 v -6.934254 h 6.4967 c 8.39134,0 14.57914,-2.22478 18.23542,-6.55641 2.43167,-2.880815 2.88562,-4.239732 2.88562,-8.638174 0,-4.608887 -0.36211,-5.572849 -3.09509,-8.239292 -4.84389,-4.725966 -10.37366,-6.505231 -21.90372,-7.047767 l -10.23762,-0.481722 v 22.415944 22.415935 h 3.80935 3.80934 z m 0,-22.288693 v -7.429566 l 5.9521,0.05591 c 7.65501,0.07191 12.18128,1.727481 14.00847,5.123863 1.35084,2.510945 1.31443,2.848743 -0.51174,4.748305 -2.23339,2.323156 -10.55619,4.901777 -15.87757,4.919297 l -3.57126,0.0118 z M 89.239109,218.58276 c -0.01,-0.76054 -2.165802,-1.31902 -5.966682,-1.5452 -3.75574,-0.2235 -2.61364,-0.35611 3.0951,-0.35935 4.975952,-0.003 7.975812,0.18025 6.666352,0.40681 -1.30946,0.22657 -2.69569,0.92422 -3.08051,1.55034 -0.51708,0.84131 -0.70348,0.82758 -0.71426,-0.0526 z m -16.918542,-1.96839 c 0.91663,-0.24916 2.41655,-0.24916 3.33318,0 0.91662,0.24917 0.16666,0.45303 -1.66659,0.45303 -1.83325,0 -2.58321,-0.20386 -1.66659,-0.45303 z m 364.819623,-1.75182 c -3.71537,-1.68112 -5.07475,-4.17216 -5.07475,-9.29944 0,-3.18296 0.5627,-4.43202 2.93008,-6.50409 5.43757,-4.75929 13.30232,-2.69776 16.05211,4.20764 1.65264,4.15018 -0.55127,9.2062 -4.96199,11.38334 -4.00362,1.97619 -4.9956,1.99975 -8.94545,0.21255 z"
     id="path1279" /></svg>
