<?xml version="1.0" encoding="UTF-8" standalone="no"?>
<!-- Created with Inkscape (http://www.inkscape.org/) -->

<svg
   version="1.1"
   id="svg2"
   width="220.96162"
   height="248.57144"
   viewBox="0 0 220.96162 248.57143"
   sodipodi:docname="УЧАСТНИКИ1.svg"
   inkscape:version="1.2.1 (9c6d41e410, 2022-07-14)"
   xml:space="preserve"
   xmlns:inkscape="http://www.inkscape.org/namespaces/inkscape"
   xmlns:sodipodi="http://sodipodi.sourceforge.net/DTD/sodipodi-0.dtd"
   xmlns="http://www.w3.org/2000/svg"
   xmlns:svg="http://www.w3.org/2000/svg"><defs
     id="defs6"><clipPath
       clipPathUnits="userSpaceOnUse"
       id="clipPath122"><path
         style="fill:none;stroke:#000000;stroke-width:1px;stroke-linecap:butt;stroke-linejoin:miter;stroke-opacity:1"
         d="m 895.54125,707.95064 -53.83035,29.36201 -3.26245,-3.26244 -24.46834,27.73078 -35.8869,26.09956 v 71.7738 l 22.83712,73.40502 21.2059,45.67424 19.57467,39.14929 22.83711,68.5114 4.89367,13.0497 -42.41179,24.4684 -133.76026,29.362 -17.94345,29.362 -17.94344,71.7738 -27.73079,109.2919 -30.99323,151.7037 -27.73079,88.086 27.73079,112.5544 -75.03624,213.6902 -6.52489,50.5679 952.63401,13.0498 -27.7308,-79.93 -16.3122,-50.5679 -26.0996,-61.9864 -48.9366,-79.9299 v -39.1494 l 55.4615,-40.7805 14.681,-83.1924 -50.5679,-207.1653 -58.724,-203.9028 -9.7873,-17.9435 -220.2151,-50.5679 -8.1561,-26.0995 17.9435,-53.83032 16.3122,-13.04978 -16.3122,-32.62446 3.2624,-58.72401 -3.2624,-29.36201 -4.8937,-13.04978 8.1561,-39.14935 -6.5249,-30.99323 -19.5747,-24.46834 -83.19229,-44.04301 -24.4684,-3.26244 -21.20585,-8.15612 -14.68101,6.52489 z"
         id="path124" /></clipPath></defs><sodipodi:namedview
     id="namedview4"
     pagecolor="#ffffff"
     bordercolor="#111111"
     borderopacity="1"
     inkscape:showpageshadow="0"
     inkscape:pageopacity="0"
     inkscape:pagecheckerboard="1"
     inkscape:deskcolor="#d1d1d1"
     showgrid="false"
     inkscape:zoom="0.86696537"
     inkscape:cx="400.24667"
     inkscape:cy="145.91125"
     inkscape:window-width="1920"
     inkscape:window-height="1018"
     inkscape:window-x="-6"
     inkscape:window-y="-6"
     inkscape:window-maximized="1"
     inkscape:current-layer="g8" /><g
     inkscape:groupmode="layer"
     inkscape:label="Image"
     id="g8"
     transform="translate(-944.09998,-1752.4241)"><path
       style="fill:#000000"
       d="m 1032.0151,2000.4378 c -1.623,-0.3126 -2.25,-1.1352 -2.25,-2.9517 0,-1.8336 -1.9591,-4.3535 -7.2052,-9.2676 l -7.2051,-6.7493 1.5122,-7.0429 1.5121,-7.0429 -2.8528,-3.5562 -2.8528,-3.5561 3.0757,-2.274 c 2.2027,-1.6285 4.1737,-2.1947 6.9441,-1.9947 4.7412,0.3424 5.3467,-0.5391 5.2825,-7.6901 -0.051,-5.7132 0.6157,-7.8524 3.2793,-10.5159 1.3202,-1.3203 1.8558,-1.3271 4.4039,-0.056 3.507,1.7495 12.4745,11.9979 11.6565,13.3215 -0.3207,0.5189 -0.1257,1.226 0.4333,1.5715 1.8159,1.1223 1.0851,2.2495 -2.5883,3.9927 -2.1588,1.0244 -4.6658,1.4704 -6.25,1.1119 -9.8085,-2.2193 -12.75,-1.1671 -11.9512,4.275 0.3023,2.0602 -0.1165,3.2253 -1.4612,4.0651 -1.4812,0.9251 -1.6354,1.4781 -0.7195,2.5816 0.8248,0.9938 0.893,2.6815 0.2334,5.7744 -0.9111,4.2718 -0.8472,4.4415 2.8432,7.5398 3.4379,2.8862 4.3848,3.1679 10.5926,3.1516 l 6.8173,-0.018 3.25,-4.9704 c 3.2432,-4.96 3.25,-4.9977 3.25,-17.9106 0,-10.4305 0.3048,-13.245 1.5714,-14.5117 1.8591,-1.859 1.9928,-1.875 4.4943,-0.5362 1.7795,0.9524 1.9343,2.2275 1.9343,15.9356 v 14.9005 l -5.9823,8.3144 c -3.6335,5.0499 -5.9892,9.3449 -6,10.9393 -0.014,2.1344 -0.6018,2.7418 -3.1427,3.25 -3.3314,0.6663 -8.9325,0.6305 -12.625,-0.081 z m -7.7277,-34.6869 c 1.8277,-1.3365 1.762,-1.5504 -1.63,-5.3049 l -3.5345,-3.9122 -2.6829,2.0031 -2.6829,2.0031 3.2002,3.3018 c 3.5607,3.6737 4.5606,3.9341 7.3301,1.9091 z m 19.3739,-9.7211 c 1.7571,-0.6125 3.0505,-1.5462 2.8742,-2.075 -0.3696,-1.109 -0.6805,-1.0872 -4.7542,0.3329 -1.6589,0.5783 -3.0162,1.4574 -3.0162,1.9536 0,1.1823 1.025,1.1381 4.8962,-0.2115 z m -9.5405,-17.1197 c -0.9346,-1.5123 -2.3302,-0.7166 -3.83,2.1837 -2.4548,4.7472 -1.7089,5.8356 1.416,2.0663 1.5883,-1.9159 2.6746,-3.8284 2.414,-4.25 z m 80.8916,43.193 c -7.6426,-1.3734 -15.9617,-4.5044 -19.8519,-7.4716 l -3.3954,-2.5898 v -10.3241 c 0,-5.6782 -0.2761,-11.7045 -0.6135,-13.3916 -0.7833,-3.9167 2.6755,-7.378 9.7059,-9.7132 l 4.9076,-1.63 v -5.4088 -5.4088 l 5.5,2.6975 c 3.025,1.4836 5.5,3.005 5.5,3.3809 0,0.376 -2.1005,1.0697 -4.6677,1.5417 -2.5673,0.472 -4.8787,1.4924 -5.1365,2.2676 -0.3334,1.0024 0.043,1.213 1.303,0.7295 0.9744,-0.374 5.7608,-0.9631 10.6364,-1.3091 l 8.8648,-0.6293 v -5.8394 -5.8394 l 5.4465,2.6712 c 2.9956,1.4692 5.2511,2.9874 5.0123,3.3738 -0.2388,0.3864 -2.4647,1.007 -4.9465,1.3792 -3.5654,0.5347 -4.5123,1.0835 -4.5123,2.6154 0,1.6128 0.7144,1.9402 4.25,1.9474 2.3375,0.01 6.6125,0.2925 9.5,0.6393 l 5.25,0.6306 v -4.6393 c 0,-2.5516 0.24,-4.6393 0.5332,-4.6393 0.2933,0 2.8808,1.2026 5.75,2.6724 l 5.2168,2.6723 -4.9189,1.0777 c -2.7055,0.5927 -5.0673,1.5276 -5.2485,2.0776 -0.1813,0.55 2.2573,1.7818 5.4189,2.7374 3.1617,0.9556 6.8685,2.6136 8.2373,3.6844 2.4694,1.9319 2.4862,2.0548 2.1597,15.7626 -0.1885,7.9125 -0.7905,14.3743 -1.4091,15.1232 -1.9935,2.4138 -9.1882,6.0256 -15.2394,7.6503 -7.271,1.9522 -26.0309,2.7994 -33.2527,1.5017 z m 13.2948,-14.9596 h 3.4579 v 7.3268 7.3268 l 3,-0.4403 3,-0.4403 v -7.9522 c 0,-11.2815 -0.4334,-11.8208 -9.5,-11.8208 -9.0715,0 -9.5,0.5353 -9.5,11.8678 0,7.9832 0.01,8 2.75,8.3158 l 2.75,0.3164 0.2921,-7.25 0.292,-7.25 z m -12.5421,5 c 0,-7.6667 -0.2963,-9.2963 -2,-11 -2.4077,-2.4077 -4.3218,-2.5353 -6.4286,-0.4286 -1.1767,1.1768 -1.5714,3.6612 -1.5714,9.8919 v 8.3203 l 4.75,0.99 c 2.6125,0.5445 4.8625,1.0432 5,1.1082 0.1375,0.065 0.25,-3.9318 0.25,-8.8818 z m 35,-1.5611 c 0,-6.2085 -0.3954,-8.6915 -1.5714,-9.8675 -2.1068,-2.1067 -4.0209,-1.9791 -6.4286,0.4286 -1.6989,1.6989 -2,3.3333 -2,10.8561 v 8.8561 l 5,-0.9886 5,-0.9886 z m -48.8123,-11.3919 c -4.4858,-6.0144 -8.1877,-2.8472 -8.1877,7.0053 v 6.9094 l 4.75,2.4173 4.75,2.4173 0.2937,-8.1011 c 0.243,-6.7005 -0.035,-8.5415 -1.606,-10.6482 z m 60.8123,7.0076 c 0,-9.7166 -3.5253,-13.0161 -7.9274,-7.4197 -1.7224,2.1896 -2.0726,4.0512 -2.0726,11.0168 v 8.382 l 5,-2.5337 5,-2.5337 z m -18.7866,-10.8751 c 4.4898,-1.7818 -0.7746,-2.6795 -15.7134,-2.6795 -9.5217,0 -16.2888,0.4048 -16.7134,0.9998 -1.2961,1.8165 2.5512,2.3596 16.7134,2.3596 7.7,0 14.771,-0.3059 15.7134,-0.6799 z m -34.2134,-2.0647 c 0,-1.5024 -1.562,-2.3099 -7.6908,-3.9759 -4.23,-1.1498 -7.8941,-1.8873 -8.1425,-1.6389 -1.1584,1.1584 2.6458,3.6825 8.2072,5.4456 7.6869,2.4369 7.6261,2.4355 7.6261,0.1692 z m 44.2749,-0.118 c 5.8563,-1.8088 9.7473,-4.3079 8.5584,-5.4968 -0.2484,-0.2484 -3.9125,0.4891 -8.1425,1.6389 -6.1288,1.666 -7.6908,2.4735 -7.6908,3.9759 0,2.2948 -0.5664,2.3039 7.2749,-0.118 z m -48.5522,-6.1195 c 1.6065,-1.6065 -0.5247,-5.8773 -2.9329,-5.8773 -2.3474,0 -7.7898,2.7432 -7.7898,3.9263 0,0.4813 1.6875,1.3232 3.75,1.871 5.1261,1.3615 5.6848,1.3679 6.9727,0.08 z m 51.8345,0 c 2.4435,-0.6153 4.4428,-1.5037 4.4428,-1.9743 0,-1.1678 -5.4614,-3.907 -7.7898,-3.907 -2.4082,0 -4.5394,4.2708 -2.9329,5.8773 1.3622,1.3622 0.8869,1.3619 6.2799,0 z m -37.6871,-3.4599 c 0.2036,-0.1805 0.069,-1.5292 -0.2997,-2.997 -0.6437,-2.5648 -0.8634,-2.6432 -5.6323,-2.0105 -7.5039,0.9954 -8.017,1.3188 -6.6955,4.2193 1.059,2.3242 1.4412,2.4265 6.6903,1.7908 3.0619,-0.3709 5.7336,-0.8221 5.9372,-1.0026 z m 29.9096,-0.8373 c 1.2811,-2.8117 0.907,-3.0586 -6.2624,-4.1337 -4.965,-0.7446 -6.4692,0.1205 -6.502,3.7393 -0.015,1.6285 1.2243,1.9705 9.5742,2.6422 1.3384,0.1077 2.4851,-0.7003 3.1902,-2.2478 z m -14.5349,-2.0841 c 0.474,-2.48 0.4201,-2.5 -6.7448,-2.5 -7.1649,0 -7.2188,0.02 -6.7447,2.5 0.4492,2.3499 0.8542,2.5 6.7447,2.5 5.8905,0 6.2955,-0.1501 6.7448,-2.5 z m -99.0288,40.2992 c -4.5865,-1.2206 -7.0661,-6.3327 -5.2262,-10.7747 1.552,-3.7468 6.2391,-6.4348 9.704,-5.5652 3.6924,0.9267 7.3062,5.0186 7.3062,8.2727 0,5.9294 -5.5474,9.7271 -11.784,8.0672 z m -46.71605,-52.3939 c -18.6054,-2.718 -29.0727,-5.9366 -37.4074,-11.5023 l -6.0926,-4.0685 v -17.3702 c 0,-11.1547 -0.4196,-18.2911 -1.1726,-19.9437 -2.6137,-5.7365 5.4411,-13.1486 17.8841,-16.4571 l 4.2115,-1.1198 0.2885,-8.2839 0.2885,-8.2838 9.4871,4.483 c 5.2179,2.4656 9.0429,4.5949 8.5,4.7318 -0.5429,0.1368 -4.4746,0.9906 -8.7371,1.8972 -5.6492,1.2016 -7.75,2.0712 -7.75,3.208 0,1.2726 0.7753,1.4357 4.213,0.8859 4.8897,-0.7819 22.2372,-2.5183 25.537,-2.5561 2.16495,-0.025 2.25005,-0.3664 2.25005,-9.0358 v -9.0101 l 9.25,4.6954 9.25,4.6954 -6,1.3212 c -3.3,0.7267 -7.0125,1.5518 -8.25,1.8337 -2.8307,0.6448 -3.2717,5.4739 -0.5,5.4752 3.476,0 23.7915,2.0693 25.5,2.5952 1.56,0.4803 1.75,-0.283 1.75,-7.0286 0,-4.1621 0.2712,-7.5674 0.6027,-7.5674 0.3314,0 4.4939,1.8558 9.25,4.1241 l 8.6473,4.1241 -7.8115,1.7708 c -4.2964,0.9739 -8.0644,2.0236 -8.3736,2.3327 -1.4263,1.4264 0.928,3.5135 4.6779,4.1471 2.2726,0.3839 7.283,2.2745 11.1342,4.2011 8.1854,4.095 11.1237,8.2596 9.0456,12.8207 -0.753,1.6526 -1.1726,8.789 -1.1726,19.9437 v 17.3702 l -5.9838,3.9958 c -10.803,7.214 -25.8137,11.0005 -46.0162,11.6076 -7.42505,0.2231 -14.85005,0.2084 -16.50005,-0.033 z m 7.5,-12.9053 v -11.5 h 5.00005 5 v 11.5 c 0,8.5392 0.3218,11.4972 1.25,11.489 0.6875,-0.01 2.9801,-0.2968 5.0946,-0.6462 l 3.8446,-0.6352 -0.3446,-13.2501 c -0.4566,-17.5556 -0.3741,-17.4575 -14.6708,-17.4575 -14.52305,0 -14.17385,-0.421 -14.17385,17.0854 0,15.1958 -0.388,14.3464 6.75,14.7784 2.2108,0.1338 2.25,-0.064 2.25,-11.3638 z m -14,-3.0497 c 0,-13.8481 -1.1353,-17.7908 -5.613,-19.4933 -3.8204,-1.4525 -5.2528,-1.1821 -7.9325,1.4976 -2.3443,2.3443 -2.4545,3.0158 -2.4545,14.9614 v 12.5069 l 4.25,1.0924 c 2.3375,0.6009 4.7,1.2577 5.25,1.4596 0.55,0.202 2.2375,0.4027 3.75,0.4462 l 2.75,0.079 z m 50.25005,10.5245 3.75,-1.0688 v -12.4985 c 0,-11.9366 -0.1103,-12.6087 -2.4545,-14.9529 -2.6796,-2.6797 -4.1121,-2.9501 -7.9325,-1.4976 -4.4893,1.7069 -5.613,5.6367 -5.613,19.6293 v 12.6856 l 4.25,-0.6142 c 2.3375,-0.3377 5.9375,-1.0951 8,-1.6829 z m -69.42045,-19.6468 c -0.2964,-9.147 -0.5739,-10.4317 -2.7539,-12.75 -3.0543,-3.2479 -7.9607,-3.4665 -10.6707,-0.4754 -1.5385,1.6981 -1.9704,3.9839 -2.245,11.8805 l -0.3399,9.7779 3.3601,2.5629 c 1.8481,1.4096 5.3761,3.4226 7.84,4.4732 l 4.4798,1.9104 0.3296,-3.6038 c 0.1812,-1.982 0.1812,-8.1811 0,-13.7757 z m 89.00935,10.9813 3.3411,-2.5483 -0.34,-9.7779 c -0.2746,-7.8966 -0.7065,-10.1824 -2.245,-11.8805 -2.7098,-2.9909 -7.6163,-2.7725 -10.6707,0.4749 -2.2871,2.4316 -2.4427,3.3653 -2.7498,16.4968 l -0.3256,13.9194 4.8245,-2.068 c 2.6534,-1.1374 6.3279,-3.2148 8.1655,-4.6164 z m -27.7163,-28.108 c 3.2162,-0.6226 3.5305,-0.9475 2.8023,-2.8969 -0.7183,-1.9227 -1.2929,-2.1092 -4.6226,-1.5 -4.3714,0.7997 -34.41005,0.9407 -41.68285,0.1956 -4.3338,-0.444 -4.9713,-0.2562 -5.6907,1.6768 -0.769,2.0662 -0.4704,2.2086 5.8805,2.8035 3.6799,0.3447 7.5907,0.7992 8.6907,1.0101 2.9089,0.5576 30.36335,-0.4646 34.62265,-1.2891 z m -51.59875,-3.2767 c 0.3623,-1.1414 0.4834,-2.2506 0.2691,-2.4649 -0.8539,-0.8539 -25.1226,-7.4634 -25.6109,-6.9751 -1.1165,1.1165 4.275,5.4659 9.1733,7.4003 11.1645,4.409 15.2528,4.9248 16.1685,2.0397 z m 64.98135,0.7186 c 2.7528,-0.7331 7.0278,-2.2375 9.5,-3.3429 4.4184,-1.9758 8.8105,-5.818 7.8026,-6.8258 -0.4815,-0.4815 -24.7579,6.1423 -25.6008,6.9852 -0.7856,0.7856 0.964,4.5399 2.1104,4.5284 0.6504,-0.01 3.4349,-0.6117 6.1878,-1.3449 z m -71.98655,-10.4792 2.3341,-1.8361 -2.5078,-4.2055 c -2.7659,-4.6381 -3.1498,-4.6722 -11.0141,-0.9798 -8.1607,3.8316 -7.3417,4.6754 8.5114,8.769 0.1882,0.049 1.3926,-0.7378 2.6764,-1.7476 z m 81.73075,-0.6584 c 7.5908,-2.0268 7.6528,-2.9669 0.4197,-6.363 -7.862,-3.6914 -8.2488,-3.6573 -11.0082,0.9699 l -2.5019,4.1957 2.1705,1.8162 c 1.1938,0.999 2.6205,1.6739 3.1705,1.4998 0.55,-0.174 4.0372,-1.1274 7.7494,-2.1186 z m -61.87445,-4.4705 c 2.682,-0.033 2.833,-0.2449 2.25,-3.1601 -0.3437,-1.7187 -0.625,-3.786 -0.625,-4.5938 0,-1.5704 -4.4947,-1.3311 -15.7069,0.8362 l -5.2069,1.0065 2.0831,4.2878 2.0832,4.2877 6.1237,-1.3146 c 3.3681,-0.723 7.4176,-1.3303 8.9988,-1.3497 z m 48.59485,-6.2283 c -2.1702,-0.819 -18.052,-3.0719 -18.4602,-2.6188 -0.1546,0.1716 -0.5971,2.2245 -0.9833,4.562 -0.6872,4.1601 -0.6421,4.2509 2.1358,4.2936 1.5608,0.024 5.5379,0.6184 8.8379,1.3209 l 6,1.2772 2.1535,-4.0708 c 2.0583,-3.891 2.0722,-4.1015 0.3163,-4.7641 z m -22.7138,1.6236 c 0.4265,-2.0528 0.6559,-3.8421 0.5097,-3.9764 -0.4392,-0.4036 -11.9234,-0.832 -17.06105,-0.6365 l -4.7953,0.1825 0.6766,3.75 c 0.3722,2.0625 0.7994,3.975 0.9494,4.25 0.15,0.275 4.474,0.4241 9.60905,0.3313 l 9.3362,-0.1687 z m 90.494,53.8534 c -2.3085,-0.3498 -2.75,-0.9068 -2.75,-3.4696 0,-2.5166 -1.4281,-4.4173 -8.1305,-10.8204 l -8.1305,-7.7675 0.6843,-4.8631 c 0.3763,-2.6748 1.1458,-6.3283 1.7099,-8.119 0.9252,-2.9366 0.7052,-3.6605 -2.2446,-7.3848 l -3.2703,-4.1291 3.186,-2.8467 c 2.7435,-2.4514 3.7768,-2.7738 7.4408,-2.3221 6.2139,0.7661 6.9,-0.1 6.8662,-8.6639 -0.025,-6.2675 0.3575,-7.984 2.5027,-11.2365 2.4088,-3.652 2.6228,-3.7568 4.396,-2.152 1.0252,0.9277 2.2755,1.4325 2.7784,1.1217 1.1592,-0.7164 12.5232,12.0612 12.6854,14.2634 0.066,0.9025 0.4758,2.2153 0.9096,2.9172 2.0945,3.3889 -6.9194,7.2432 -12.4393,5.3189 -4.2275,-1.4737 -9.2332,-1.4412 -10.7441,0.07 -0.66,0.66 -1.2,2.82 -1.2,4.8 0,1.98 -0.5028,4.1028 -1.1172,4.7173 -0.6145,0.6145 -1.257,4.417 -1.4278,8.45 -0.3067,7.2432 -0.2661,7.3786 3.3202,11.0827 3.6157,3.7346 3.6639,3.7498 11.6778,3.6961 l 8.047,-0.054 4.25,-5.9595 4.25,-5.9595 v -15.2866 c 0,-16.0397 0.419,-17.6866 4.5,-17.6866 4.1311,0 4.5,1.5731 4.5,19.1887 v 16.7887 l -6.2135,8.7428 c -4.2538,5.9854 -6.3828,9.9964 -6.75,12.7174 -0.4272,3.1646 -1.0459,4.116 -3.0365,4.6688 -2.7035,0.7508 -11.8088,0.8501 -16.25,0.1774 z m -8.75,-40.7838 c 1.3557,-1.6335 0.9953,-2.3517 -3.891,-7.7541 l -2.491,-2.7541 -2.8167,2.6986 -2.8167,2.6985 3.2039,3.3056 c 3.4321,3.541 6.7986,4.2309 8.8115,1.8055 z m 24.5589,-11.9327 c 1.2716,-0.9385 1.5962,-1.7568 0.9411,-2.3725 -0.6326,-0.5945 -2.8371,-0.073 -6,1.4198 l -5,2.3597 4.0589,0.013 c 2.2324,0.01 4.9324,-0.6319 6,-1.4198 z m -17.5589,-11.4866 c 0,-0.5078 1.1056,-2.2372 2.4569,-3.8431 1.7926,-2.1304 2.1583,-3.2184 1.3526,-4.0241 -0.8058,-0.8058 -1.5885,-0.4889 -2.8949,1.172 -2.2787,2.8969 -3.5325,7.6185 -2.023,7.6185 0.6096,0 1.1084,-0.4155 1.1084,-0.9233 z m 3.299,40.4202 c -3.3992,-2.3809 -4.6958,-7.6113 -2.9329,-11.8306 1.7766,-4.2521 4.1838,-5.6663 9.6451,-5.6663 3.2454,0 4.7758,0.6331 7.0657,2.9231 6.3065,6.3065 1.8837,16.0769 -7.2775,16.0769 -2.3949,0 -5.3201,-0.6764 -6.5004,-1.5031 z m -12.799,-60.5272 c -9.4406,-1.4576 -21.8078,-5.6582 -27.1288,-9.2142 l -4.8712,-3.2555 -0.6025,-15.5 c -0.3313,-8.525 -0.9267,-16.635 -1.323,-18.0223 -1.3354,-4.6742 4.773,-9.9168 15.1755,-13.0246 l 4.25,-1.2697 v -6.9091 c 0,-7.9934 -0.2526,-7.9343 10.5,-2.4573 l 6,3.0562 -7.25,1.5056 c -4.893,1.0162 -7.25,1.9677 -7.25,2.9269 0,1.0561 0.8351,1.2719 3.25,0.84 1.7875,-0.3197 7.8625,-0.8886 13.5,-1.2642 l 10.25,-0.6828 v -7.8412 -7.8411 l 7.4414,3.6821 c 4.0928,2.0251 7.2537,3.9858 7.0244,4.3569 -0.2294,0.3711 -3.128,1.2082 -6.4414,1.86 -5.2752,1.0379 -6.0244,1.4711 -6.0244,3.4843 0,2.2082 0.4044,2.3237 10.25,2.9271 5.6375,0.3455 11.2625,0.9158 12.5,1.2673 2.171,0.6167 2.25,0.4069 2.25,-5.9775 0,-3.6391 0.2362,-6.6166 0.525,-6.6166 0.2887,0 3.7762,1.6629 7.75,3.6954 l 7.225,3.6955 -5,1.2085 c -2.75,0.6648 -6.0455,1.2518 -7.3233,1.3046 -4.477,0.185 -2.0342,3.2796 3.7574,4.7601 6.8918,1.7618 12.8153,5.0606 15.4264,8.591 1.7838,2.4119 1.8883,3.1681 0.8386,6.071 -0.7191,1.9884 -1.1991,8.972 -1.1991,17.444 v 14.1281 l -3.305,2.5209 c -8.6785,6.6194 -23.2958,10.554 -41.195,11.0887 -7.15,0.2136 -15.7,-0.029 -19,-0.5381 z m 11.5,-10.4697 v -9.5 h 4 4 v 9.5575 9.5575 l 4.25,-0.3075 4.25,-0.3075 v -11.8393 c 0,-11.2362 -0.1203,-11.9367 -2.3608,-13.75 -1.878,-1.52 -3.9741,-1.9107 -10.25,-1.9107 -11.4415,0 -11.8892,0.6025 -11.8892,16 v 12 h 4 4 z m -12.1662,-3.5889 c -0.3265,-11.8254 -0.3949,-12.1414 -3.1396,-14.5 -3.4156,-2.9352 -6.0458,-3.0595 -8.6942,-0.4111 -1.7567,1.7567 -2,3.3333 -2,12.9615 v 10.9614 l 3.75,0.9627 c 5.4466,1.3981 7.581,1.8677 9.0838,1.9984 1.0611,0.092 1.2655,-2.3544 1,-11.9729 z m 42.4162,9.9682 3.75,-0.9564 v -10.9614 c 0,-9.6282 -0.2433,-11.2048 -2,-12.9615 -2.6484,-2.6484 -5.2786,-2.5241 -8.6942,0.4111 -2.7471,2.3607 -2.8128,2.6662 -3.1418,14.5984 l -0.336,12.1872 3.336,-0.6805 c 1.8348,-0.3743 5.0235,-1.1109 7.086,-1.6369 z m -59.25,-13.4562 c 0,-11.5237 -0.014,-11.5907 -2.9928,-14.5697 -2.2662,-2.2662 -3.5407,-2.83 -5.25,-2.3221 -3.9392,1.1704 -4.7572,3.3354 -4.7572,12.5917 0,8.5256 0.072,8.7922 2.932,10.8286 2.3217,1.6531 8.4929,4.8018 9.818,5.0093 0.1375,0.021 0.25,-5.1705 0.25,-11.5378 z m 76.058,6.5356 c 2.8718,-2.0449 2.942,-2.3034 2.942,-10.8357 0,-9.2563 -0.8179,-11.4213 -4.7572,-12.5917 -1.7093,-0.5079 -2.9838,0.056 -5.25,2.3221 -2.9794,2.9794 -2.9928,3.0445 -2.9928,14.5831 v 11.5903 l 3.558,-1.4866 c 1.9569,-0.8176 4.8819,-2.4293 6.5,-3.5815 z m -24.308,-24.617 c 4.3608,-0.5836 4.782,-0.9564 3.4495,-3.0532 -0.5902,-0.9286 -2.9802,-0.9721 -10.2347,-0.1863 -8.6593,0.9379 -22.8481,0.5963 -30.5752,-0.7361 -2.3505,-0.4053 -3.2723,-0.1141 -3.7735,1.1919 -0.3647,0.9506 -0.4681,1.9234 -0.2296,2.1618 1.8163,1.8164 29.3469,2.2303 41.3635,0.6219 z m -43.3334,-2.9848 c 0.3467,-0.9037 0.5074,-1.7261 0.3569,-1.8274 -1.5738,-1.0603 -19.9779,-6.5295 -21.972,-6.5295 -1.589,0 0.4149,2.6966 3.2473,4.3697 3.8212,2.2573 12.8154,5.4625 15.5942,5.5572 1.1787,0.04 2.4268,-0.6663 2.7736,-1.57 z m 61.6472,-1.267 c 5.2452,-1.9743 10.6159,-5.7436 9.6129,-6.7465 -0.6774,-0.6774 -21.0829,4.8882 -22.4502,6.1233 -0.1505,0.1359 0.029,1.0345 0.3979,1.997 0.8105,2.1121 4.1619,1.742 12.4394,-1.3738 z m -66.958,-7.3765 c 1.4529,-1.1065 1.3826,-1.5755 -0.739,-4.9277 l -2.3447,-3.7048 -3.9406,1.3903 c -2.1673,0.7647 -5.1743,2.1987 -6.6821,3.1867 l -2.7416,1.7963 5.4211,1.6749 c 6.6292,2.0481 8.9439,2.1707 11.0269,0.5843 z m 70.3014,-0.509 5.9072,-1.7684 -2.7276,-1.7872 c -1.5003,-0.983 -4.501,-2.4129 -6.6683,-3.1776 l -3.9406,-1.3903 -2.3447,3.7048 c -2.1216,3.3522 -2.1919,3.8212 -0.7389,4.9277 2.1511,1.6384 3.5693,1.5697 10.5129,-0.509 z m -55.7162,-3.1805 c 3.8441,-0.029 4.2197,-0.5445 3.5596,-4.8883 l -0.5112,-3.3645 -6.1197,0.691 c -8.0682,0.9109 -11.6205,1.6488 -11.616,2.4129 0,0.3438 0.8709,2.0471 1.9308,3.7853 1.8216,2.9874 2.136,3.1118 5.7463,2.2739 2.1005,-0.4876 5.2551,-0.8972 7.0102,-0.9103 z m 43.8899,-2.1802 c 0.8616,-1.6663 1.3829,-3.2132 1.1585,-3.4376 -0.6142,-0.6142 -16.6975,-2.7827 -17.1562,-2.3132 -0.2188,0.2239 -0.552,1.9731 -0.7405,3.887 l -0.3427,3.48 5.9773,0.7625 c 3.2875,0.4193 6.4375,0.9301 7,1.1351 1.5273,0.5565 2.3733,-0.168 4.1036,-3.5138 z m -19.7803,-2.0937 c 1.0742,-4.0701 0.044,-4.6094 -8.8006,-4.6094 -8.8451,0 -9.8748,0.5393 -8.8006,4.6094 l 0.8578,3.25 h 7.9428 7.9428 z m -113.0506,54.5338 c -2.3327,-0.3534 -2.75005,-0.8967 -2.75005,-3.5804 0,-2.6376 -1.4356,-4.6061 -8.6317,-11.8357 l -8.6317,-8.6719 1.2612,-6.8479 c 0.6936,-3.7663 1.6156,-7.513 2.0489,-8.3258 0.5419,-1.0165 -0.4516,-2.8226 -3.1822,-5.7849 l -3.9701,-4.3071 4.0756,-3.4051 c 3.6888,-3.0819 4.3656,-3.304 7.1308,-2.34 2.1857,0.7619 3.7443,0.751 5.4772,-0.039 2.5539,-1.1636 3.0142,-3.3212 2.5184,-11.8043 -0.2623,-4.4872 1.4678,-8.7327 4.78045,-11.7306 1.911,-1.7295 2.1342,-1.7463 2.7255,-0.2056 0.3541,0.9229 1.4554,1.5467 2.4472,1.3861 2.4237,-0.3925 15.0923,14.0347 14.3779,16.3738 -0.2798,0.9163 -0.04,1.9553 0.5319,2.3091 1.9399,1.1989 1.0532,2.3406 -3.5474,4.5678 -3.9293,1.9021 -5.114,2.065 -8.25,1.1346 -2.0141,-0.5975 -5.6049,-1.1967 -7.9796,-1.3314 -5.05825,-0.2869 -6.32575,1.0256 -5.94335,6.1541 0.1968,2.6388 -0.3019,3.9558 -2.0266,5.3522 -1.7951,1.4533 -2.0392,2.1515 -1.1339,3.2424 0.7696,0.9273 0.9196,3.2654 0.4503,7.021 l -0.7035,5.6307 4.2956,4.3769 4.29555,4.3768 h 8.2145 8.2145 l 4.5773,-6.5479 4.5773,-6.5479 v -16.4291 c 0,-16.4208 10e-4,-16.4298 2.5,-18.0671 2.3159,-1.5174 2.6841,-1.5174 5,0 l 2.5,1.6381 v 18.069 18.069 l -7.5,10.4127 c -5.7838,8.0301 -7.5,11.1826 -7.5,13.7771 0,3.1109 -0.2826,3.4111 -3.75,3.9843 -3.9699,0.6561 -11.9137,0.6203 -16.5,-0.074 z m -9.29485,-43.0699 2.2707,-1.7861 -4.3023,-4.9592 -4.3022,-4.9591 -3.0711,2.9424 -3.0712,2.9423 3.7134,3.8029 c 4.1732,4.2737 5.504,4.5801 8.7627,2.0168 z m 25.70945,-12.799 c 2.1477,-1.1106 2.7498,-1.9005 2.0114,-2.6389 -0.7383,-0.7383 -2.419,-0.412 -5.6149,1.0903 -2.5086,1.1792 -4.5611,2.3666 -4.5611,2.6388 0,1.101 5.2943,0.3941 8.1646,-1.0902 z m -14.1309,-20.7772 c -1.5991,-1.5935 -4.98245,2.972 -5.01155,6.7623 l -0.022,2.9001 3.08775,-4.2624 c 2.3121,-3.1918 2.8009,-4.5481 1.946,-5.4 z m -0.6337,49.9623 c -7.23545,-7.2354 -2.5133,-17.6 8.0185,-17.6 7.8559,0 12.8196,9.0745 8.6289,15.7749 -3.8999,6.2354 -11.4133,7.0592 -16.6474,1.8251 z"
       id="path196" /></g></svg>
