<?xml version="1.0" encoding="UTF-8" standalone="no"?>
<!-- Created with Inkscape (http://www.inkscape.org/) -->

<svg
   version="1.1"
   id="svg2"
   width="620.83496"
   height="482.20969"
   viewBox="0 0 620.83496 482.20967"
   sodipodi:docname="УЧАСТНИКИ.svg"
   inkscape:version="1.2.1 (9c6d41e410, 2022-07-14)"
   xml:space="preserve"
   xmlns:inkscape="http://www.inkscape.org/namespaces/inkscape"
   xmlns:sodipodi="http://sodipodi.sourceforge.net/DTD/sodipodi-0.dtd"
   xmlns="http://www.w3.org/2000/svg"
   xmlns:svg="http://www.w3.org/2000/svg"><defs
     id="defs6"><clipPath
       clipPathUnits="userSpaceOnUse"
       id="clipPath122"><path
         style="fill:none;stroke:#000000;stroke-width:1px;stroke-linecap:butt;stroke-linejoin:miter;stroke-opacity:1"
         d="m 895.54125,707.95064 -53.83035,29.36201 -3.26245,-3.26244 -24.46834,27.73078 -35.8869,26.09956 v 71.7738 l 22.83712,73.40502 21.2059,45.67424 19.57467,39.14929 22.83711,68.5114 4.89367,13.0497 -42.41179,24.4684 -133.76026,29.362 -17.94345,29.362 -17.94344,71.7738 -27.73079,109.2919 -30.99323,151.7037 -27.73079,88.086 27.73079,112.5544 -75.03624,213.6902 -6.52489,50.5679 952.63401,13.0498 -27.7308,-79.93 -16.3122,-50.5679 -26.0996,-61.9864 -48.9366,-79.9299 v -39.1494 l 55.4615,-40.7805 14.681,-83.1924 -50.5679,-207.1653 -58.724,-203.9028 -9.7873,-17.9435 -220.2151,-50.5679 -8.1561,-26.0995 17.9435,-53.83032 16.3122,-13.04978 -16.3122,-32.62446 3.2624,-58.72401 -3.2624,-29.36201 -4.8937,-13.04978 8.1561,-39.14935 -6.5249,-30.99323 -19.5747,-24.46834 -83.19229,-44.04301 -24.4684,-3.26244 -21.20585,-8.15612 -14.68101,6.52489 z"
         id="path124" /></clipPath></defs><sodipodi:namedview
     id="namedview4"
     pagecolor="#ffffff"
     bordercolor="#111111"
     borderopacity="1"
     inkscape:showpageshadow="0"
     inkscape:pageopacity="0"
     inkscape:pagecheckerboard="1"
     inkscape:deskcolor="#d1d1d1"
     showgrid="false"
     inkscape:zoom="0.86696537"
     inkscape:cx="119.95866"
     inkscape:cy="366.21993"
     inkscape:window-width="1920"
     inkscape:window-height="1018"
     inkscape:window-x="-6"
     inkscape:window-y="-6"
     inkscape:window-maximized="1"
     inkscape:current-layer="g8" /><g
     inkscape:groupmode="layer"
     inkscape:label="Image"
     id="g8"
     transform="translate(-1324.7514,-1530.683)"><path
       style="fill:#000000"
       d="m 1749.0737,2007.0004 c -6.2898,-3.2408 -15.3982,-8.7389 -20.2408,-12.218 -8.8842,-6.3827 -25.6243,-22.2397 -30.7316,-29.1102 l -2.7656,-3.7205 6.3865,-8.2795 c 3.5125,-4.5537 6.7069,-8.8008 7.0986,-9.4379 0.3917,-0.6372 -1.8122,-18.1872 -4.8975,-39 -5.9012,-39.8089 -6.3288,-44.6737 -4.3471,-49.4579 1.7112,-4.1312 39.1786,-37.6253 43.2822,-38.6923 l 3.1697,-0.8242 v -8.9336 c 0,-4.9135 -0.3571,-14.6309 -0.7935,-21.5942 l -0.7934,-12.6606 7.2934,-0.5644 c 4.0114,-0.3104 12.7772,-0.8384 19.4795,-1.1733 l 12.1862,-0.6089 2.1771,5.0609 c 3.7567,8.7326 13.5828,16.065 23.6959,17.6822 5.683,0.9087 8.9096,-0.064 9.6216,-2.9007 0.7805,-3.1099 5.3467,-8.7579 10.6888,-13.2211 2.9465,-2.4617 4.8771,-5.1668 6.0359,-8.4576 3.713,-10.5433 11.1773,-18.4043 22.3883,-23.5783 6.9605,-3.2122 19.6647,-6.4176 25.4359,-6.4176 h 3.0001 l 0.2921,7.75 0.2921,7.75 4.75,0.3048 4.75,0.3048 0.01,3.6952 c 0,2.0324 0.897,17.6452 1.9858,34.6952 1.0888,17.05 1.986,32.9125 1.9938,35.25 l 0.014,4.25 h -4.3208 -4.3207 l 0.4545,8.6592 0.4545,8.6593 -8.8838,-0.6395 c -16.9903,-1.2229 -28.4211,-5.5859 -36.9314,-14.0962 -3.0312,-3.0312 -6.5563,-7.7671 -7.8338,-10.5243 -1.8245,-3.9379 -3.6592,-5.9056 -8.5549,-9.1748 -3.8142,-2.5471 -7.4606,-6.0409 -9.398,-9.0048 -2.0513,-3.1381 -3.881,-4.8493 -5.1977,-4.8609 -4.1087,-0.036 -12.5289,2.7522 -16.39,5.428 -4.9492,3.4298 -10.9517,12.0014 -11.7201,16.7362 l -0.5801,3.5749 -10.6389,0.6886 -10.6388,0.6886 0.3161,4.6828 c 0.4673,6.9205 -2.5715,11.3747 -15.8161,23.1825 -6.325,5.6389 -12.3143,11.0225 -13.3095,11.9637 -1.7439,1.6492 -1.6923,2.51 1.4258,23.7568 l 3.2352,22.0455 23.4658,17.8672 c 12.9062,9.827 23.8433,18.0143 24.3047,18.194 0.4614,0.1798 12.8852,-3.5927 27.6084,-8.3833 l 26.7696,-8.7102 35.5,-46.6166 c 39.5386,-51.92 39.4336,-51.8122 49.4047,-50.7143 11.6806,1.2861 19.6099,13.5384 15.5952,24.0978 -1.4123,3.7146 -76.3496,101.8467 -79.1742,103.6803 -1.2791,0.8304 -6.6007,2.9022 -11.8257,4.604 -5.225,1.7017 -24.2368,7.8671 -42.2484,13.7008 l -32.7483,10.6068 -7.5382,9.9539 c -4.146,5.4747 -8.2009,9.954 -9.0109,9.954 -0.8099,0 -6.6188,-2.6515 -12.9086,-5.8923 z m 137.0613,-164.6895 c -0.3338,-0.87 -0.6069,-3.3027 -0.6069,-5.4062 v -3.8243 l -5.25,-0.6734 c -7.106,-0.9113 -22.0395,-4.38 -28.6641,-6.6579 -2.9778,-1.0238 -5.5838,-1.6919 -5.7911,-1.4845 -1.0615,1.0614 10.4731,11.8567 15.0739,14.1077 5.7197,2.7984 15.8909,5.3152 21.9882,5.4409 3.1238,0.064 3.7416,-0.2212 3.25,-1.5023 z m -109.1069,-19.0362 5,-0.6006 -1.3759,-23.1407 c -0.7567,-12.7274 -1.4442,-23.2282 -1.5279,-23.3352 -0.3093,-0.3959 -28.5349,1.3014 -28.9321,1.7397 -0.5602,0.6181 1.7068,37.6854 2.3359,38.1943 0.275,0.2225 2.6375,1.6286 5.25,3.1247 2.6125,1.4961 4.75,3.1511 4.75,3.6779 0,1.0787 6.9861,1.2425 14.5,0.3399 z m 93.9313,-64.8824 9.0686,-2.2882 0.2999,-5.6057 c 0.3434,-6.4173 0.4794,-6.3504 -8.2772,-4.0696 -12.7959,3.3329 -20.6731,8.132 -25.9689,15.8213 -1.9546,2.838 -3.5537,5.4396 -3.5537,5.7814 0,0.3419 4.3566,-1.1723 9.6814,-3.3647 5.3247,-2.1925 13.7622,-5.016 18.7499,-6.2745 z m -394.9355,210.4934 c -3.2804,-5.5038 -6.6465,-10.1997 -7.4801,-10.4352 -0.8337,-0.2356 -18.6157,-4.556 -39.5157,-9.6009 -20.9001,-5.045 -38.7258,-9.5569 -39.6129,-10.0265 -4.7516,-2.5157 -7.7115,-8.1796 -15.7763,-30.1879 -6.3621,-17.3621 -8.2945,-23.8236 -8.2649,-27.6374 l 0.038,-4.9773 -20.1922,-6.7007 c -11.1057,-3.6853 -20.3139,-6.7982 -20.4626,-6.9175 -0.1486,-0.1193 2.5885,-8.4496 6.0825,-18.5118 l 6.3528,-18.2948 5.6019,-0.2481 c 10.3819,-0.4599 21.052,-7.279 25.7264,-16.4416 2.6862,-5.2654 2.5476,-6.6333 -1.0918,-10.7784 -3.3719,-3.8403 -6.4352,-10.2327 -7.4205,-15.4846 -0.3993,-2.1286 -1.6752,-4.0367 -3.5352,-5.2868 -3.7718,-2.535 -9.3166,-9.8423 -12.1811,-16.0532 -1.9702,-4.2719 -2.2646,-6.5355 -2.2646,-17.4103 0,-9.1042 0.5055,-14.3337 1.861,-19.25 1.0236,-3.7125 1.9573,-6.75 2.0748,-6.75 0.1176,0 3.5186,1.124 7.5578,2.4979 4.0392,1.3738 7.6055,2.2415 7.9252,1.9282 0.3196,-0.3133 1.0822,-1.9998 1.6945,-3.7479 0.6124,-1.748 1.7605,-3.1306 2.5514,-3.0724 0.7909,0.058 17.5246,5.4582 37.186,12 32.7322,10.8908 35.6996,12.0629 35.1746,13.8942 -2.0884,7.2834 -2.3298,6.8956 5.9006,9.4768 8.6862,2.7241 8.5358,2.0829 3.056,13.0237 -9.3313,18.6307 -24.1298,29.9995 -39.0495,29.9995 -3.2208,0 -5.5766,0.9138 -10.0685,3.9057 -4.9494,3.2965 -8.621,4.8491 -18.0615,7.6376 -0.6587,0.1945 -1.7212,2.2894 -2.3612,4.6552 -2.9844,11.0321 2.4458,25.6159 11.841,31.8015 l 2.2783,1.5 -3.4328,10.157 -3.4328,10.157 3.4239,0.6423 c 1.8832,0.3533 4.967,1.9972 6.853,3.6532 3.5114,3.083 4.9587,6.2804 13.1075,28.9578 l 3.7972,10.5673 21.7857,5.2465 21.7856,5.2466 25.7761,-15.2497 c 14.1768,-8.3874 25.8692,-15.2967 25.983,-15.3542 0.1138,-0.057 1.1428,-12.8535 2.2866,-28.4359 l 2.0796,-28.3314 -29.1667,-49.0677 c -16.0417,-26.9872 -29.8306,-50.6563 -30.6419,-52.5981 -4.5164,-10.8093 4.9856,-24.0907 17.2355,-24.0907 5.4189,0 11.8337,3.3915 14.7279,7.7866 6.855,10.41 63.1609,106.0824 63.8532,108.4965 0.4768,1.6622 -0.3883,19.21 -2.1203,43.0123 -1.609,22.1125 -2.9335,42.3719 -2.9432,45.0209 -0.015,4.1413 0.8827,6.3423 6.4071,15.7058 l 6.4246,10.8895 -6.6462,6.2172 c -10.8457,10.1456 -22.8837,18.4546 -36.7031,25.3333 -10.46,5.2066 -26.6435,11.5379 -29.4922,11.5379 -0.3012,0 -3.2316,-4.5031 -6.512,-10.007 z m -99.6281,-103.9382 c 2.6124,-1.0821 3.413,-2.4248 5.9417,-9.9643 l 2.9224,-8.7136 -21.8492,-7.2578 c -12.0171,-3.9918 -22.1942,-7.0435 -22.6159,-6.7817 -1.0288,0.6389 -9.874,26.4033 -9.254,26.9551 0.268,0.2385 8.5851,3.1196 18.4824,6.4023 l 17.9952,5.9687 2.6791,-2.6791 c 1.4734,-1.4734 4.0377,-3.2417 5.6983,-3.9296 z m 39.1042,-78.6391 c 7.0886,-2.1051 11.6846,-5.1275 17.3082,-11.3824 4.4446,-4.9434 10.7199,-14.7277 10.7199,-16.7141 0,-1.2568 -10.4177,-4.5418 -10.8009,-3.4059 -1.1769,3.4884 -11.473,19.086 -16.7751,25.4126 -3.5372,4.2208 -6.2864,7.6741 -6.1092,7.6741 0.1772,0 2.7229,-0.7129 5.6571,-1.5843 z m -56.2274,-53.0193 0.9771,-4.1037 -5.0218,-1.6059 c -2.762,-0.8832 -5.3474,-1.4046 -5.7454,-1.1586 -1.1495,0.7104 -2.0544,8.5904 -2.0544,17.8894 0,9.228 1.5926,14.3092 6.8967,22.0042 l 2.7033,3.9219 0.6337,-16.4219 c 0.3486,-9.032 1.0735,-18.2684 1.6108,-20.5254 z m 432.5415,195.2092 c -21.1986,-6.9084 -32.9363,-29.2497 -26.4109,-50.2696 8.7278,-28.1145 44.8723,-36.6838 65.926,-15.6301 19.5064,19.5064 14.0137,51.868 -10.8011,63.6375 -5.5175,2.6169 -7.8605,3.1247 -15.5,3.3592 -5.6508,0.1734 -10.5682,-0.2348 -13.214,-1.097 z m -346.286,-37.9721 c -15.4692,-4.526 -26.3269,-16.5673 -29.0916,-32.2627 -4.4816,-25.4429 20.0451,-50.0396 45.5423,-45.672 17.8607,3.0594 30.7634,15.6843 33.5542,32.8317 3.7278,22.9042 -14.3003,44.8876 -37.7557,46.0392 -4.6153,0.2266 -9.5691,-0.152 -12.2492,-0.9362 z m 164.5,-61.7146 c -3.8501,-0.5292 -10.375,-1.75 -14.5,-2.7131 l -7.5,-1.7509 -0.2803,-11.5604 -0.2803,-11.5603 -22.2197,-21.9171 c -12.2208,-12.0544 -25.6695,-25.3292 -29.886,-29.4995 -11.1196,-10.9978 -11.0323,-10.3253 -5.2874,-40.7387 4.6377,-24.5525 5.3246,-27.0899 8.2371,-30.4289 1.3505,-1.5481 1.3555,-1.9519 0.044,-3.5 -0.8153,-0.9625 -6.9601,-8.1346 -13.6549,-15.9381 -6.6949,-7.8034 -12.1725,-14.6312 -12.1725,-15.1727 0,-0.8188 5.5575,-5.7061 27.1075,-23.8387 1.3747,-1.1567 2.3547,-0.9649 6.768,1.3248 3.7609,1.9512 7.1596,2.8057 12.531,3.1504 6.4618,0.4147 8.0927,0.1423 13.229,-2.2091 8.4541,-3.8705 10.4018,-5.9496 9.2701,-9.8956 -1.3112,-4.5717 -1.1158,-10.0712 0.5917,-16.6608 1.3645,-5.2657 1.3478,-6.1217 -0.1885,-9.6444 -2.3716,-5.4382 -2.3697,-19.2383 0,-26.0527 2.412,-6.9257 8.587,-16.3071 15.5189,-23.5773 l 5.6688,-5.9455 5.6165,6.2575 5.6166,6.2576 3.5411,-2.701 3.5412,-2.701 24.3887,28.2983 c 13.4138,15.5641 24.7739,28.9289 25.2448,29.6996 0.6034,0.9877 -0.1276,2.2042 -2.4769,4.1215 l -3.3329,2.7202 5.4084,6.2182 5.4084,6.2182 -3.478,2.8898 c -4.4167,3.6699 -16.8697,10.1599 -23.8383,12.4236 -8.0648,2.6198 -20.7543,1.7794 -28.6396,-1.8967 -5.1219,-2.3878 -7.152,-2.7744 -13.8713,-2.6417 -5.0396,0.099 -9.8245,-0.4589 -13.3011,-1.5524 l -5.43,-1.708 -3.887,3.7956 c -7.7251,7.5433 -10.5745,21.2677 -6.5,31.3071 1.5737,3.8773 1.5918,4.4141 0.1853,5.5 -0.8572,0.6618 -4.4766,3.662 -8.0431,6.6671 l -6.4846,5.4638 2.8708,3.2696 c 5.4058,6.1569 5.5392,8.6135 1.6038,29.5358 l -3.5236,18.733 15.6904,15.4928 15.6904,15.4927 30.5197,0.024 30.5203,0.024 16.2302,-23.4121 16.2303,-23.4122 v -59.1375 c 0,-64.2549 -0.2184,-61.6621 5.6607,-67.2246 5.2276,-4.9461 12.2159,-6.1455 19.0848,-3.2755 4.9588,2.072 7.1889,4.2041 9.3737,8.9619 1.7207,3.747 1.8368,7.9842 1.8368,67 0,59.5184 -0.1036,63.2211 -1.8755,67 -1.0316,2.2 -12.7167,19.525 -25.967,38.5 l -24.0913,34.5 -0.011,13.2115 -0.011,13.2114 -4.1459,1.1164 c -15.076,4.0595 -43.3633,5.9402 -58.3541,3.8797 z m -56.9373,-156.377 c 4.6145,-0.038 5.6565,-0.5236 11.7698,-5.4826 3.6888,-2.9923 6.5856,-5.7741 6.4372,-6.1816 -0.5255,-1.4436 -29.2821,-34.7447 -30.0601,-34.8107 -0.7238,-0.061 -20.6437,16.5424 -21.7354,18.1171 -0.2608,0.3763 5.1508,7.2331 12.0258,15.2373 10.4147,12.1254 12.8336,14.4372 14.5,13.8578 1.1,-0.3824 4.2782,-0.7142 7.0627,-0.7373 z m 97.6882,-48.9119 c 3.4631,-1.3035 8.6469,-3.8162 11.5196,-5.5838 l 5.2231,-3.2139 -3.6707,-4.2197 -3.6708,-4.2198 -7.5761,4.3217 c -4.1668,2.377 -12.301,6.1636 -18.076,8.4148 -5.775,2.2512 -10.6619,4.2424 -10.8597,4.4249 -0.9475,0.8741 7.133,2.2751 13.5868,2.3556 5.3335,0.067 8.8771,-0.5308 13.5238,-2.2798 z m -53.3117,-59.63 c 2.415,-3.575 6.1503,-8.6277 8.3006,-11.2281 l 3.9098,-4.7282 -3.3248,-4.0038 c -1.8287,-2.2021 -3.6322,-4.012 -4.0079,-4.0219 -1.0998,-0.029 -7.4066,8.0582 -11.2106,14.3754 -4.2614,7.0768 -6.0485,14.9125 -5.1115,22.4121 l 0.6921,5.5389 3.1807,-5.9222 c 1.7494,-3.2572 5.1566,-8.8472 7.5716,-12.4222 z m 25.2454,176.8925 c -12.3865,-2.0853 -23.4555,-10.6034 -29.3574,-22.5918 -3.0635,-6.2228 -3.3272,-7.5135 -3.3272,-16.2797 0,-8.6328 0.2978,-10.1498 3.1931,-16.2617 9.7121,-20.5024 33.004,-28.9118 53.7597,-19.4095 17.7975,8.1479 26.6858,29.001 20.4535,47.986 -6.053,18.4386 -25.2455,29.8355 -44.7217,26.5567 z"
       id="path131" /></g></svg>
