<?xml version="1.0" encoding="UTF-8" standalone="no"?>
<!-- Created with Inkscape (http://www.inkscape.org/) -->

<svg
   version="1.1"
   id="svg263"
   width="345.60379"
   height="359.15805"
   viewBox="0 0 345.60379 359.15805"
   sodipodi:docname="ПРОЦЕНТЫ.svg"
   inkscape:version="1.2.1 (9c6d41e410, 2022-07-14)"
   xmlns:inkscape="http://www.inkscape.org/namespaces/inkscape"
   xmlns:sodipodi="http://sodipodi.sourceforge.net/DTD/sodipodi-0.dtd"
   xmlns="http://www.w3.org/2000/svg"
   xmlns:svg="http://www.w3.org/2000/svg">
  <defs
     id="defs267" />
  <sodipodi:namedview
     id="namedview265"
     pagecolor="#ffffff"
     bordercolor="#111111"
     borderopacity="1"
     inkscape:showpageshadow="0"
     inkscape:pageopacity="0"
     inkscape:pagecheckerboard="1"
     inkscape:deskcolor="#d1d1d1"
     showgrid="false"
     inkscape:zoom="2.325"
     inkscape:cx="304.94624"
     inkscape:cy="177.84946"
     inkscape:window-width="1920"
     inkscape:window-height="1018"
     inkscape:window-x="-6"
     inkscape:window-y="-6"
     inkscape:window-maximized="1"
     inkscape:current-layer="g269" />
  <g
     inkscape:groupmode="layer"
     inkscape:label="Image"
     id="g269"
     transform="translate(162.24871,-2.3765565)">
    <path
       style="fill:#000000"
       d="m 86.537634,361.10955 c -17.9724,-3.38054 -32.50784,-9.74164 -42.88835,-18.7691 -12.11037,-10.53182 -20.909,-24.965 -25.25108,-41.42155 -2.41186,-9.14098 -2.87281,-28.30043 -0.90698,-37.69847 6.417,-30.67776 29.29517,-54.35009 59.54641,-61.61344 12.61592,-3.02909 32.469996,-3.06055 44.709256,-0.0708 15.74926,3.8471 27.61735,10.39895 38.59011,21.3039 16.08283,15.98345 24.22795,38.37581 22.87246,62.88038 -1.99057,35.98553 -24.6478,63.96185 -59.17183,73.06321 -7.80371,2.05725 -31.210136,3.50901 -37.499996,2.32591 z m 27.999996,-39.05497 c 14.92224,-4.04662 25.0722,-15.57235 28.59585,-32.47186 2.00219,-9.60253 0.35228,-21.93588 -4.12862,-30.86229 -10.1588,-20.23736 -37.67867,-28.48542 -60.167936,-18.03311 -25.06287,11.64844 -31.20796,48.23477 -11.73871,69.88926 11.06306,12.3048 28.67604,16.56627 47.439416,11.478 z m -254,8.39915 c -1.8778,-0.97072 -2.5,-2.09 -2.5,-4.4973 0,-3.50176 -11.97716,10.04047 173.588594,-196.27155 44.32373,-49.279119 81.898726,-90.502193 83.499996,-91.606829 5.18019,-3.573547 8.61665,-4.198309 26.72257,-4.858276 15.37035,-0.560254 18.14537,-0.430237 20.25,0.948769 5.43438,3.560745 4.89018,4.328842 -33.69898,47.563588 C 72.364284,144.51354 2.3687244,222.85311 -10.527296,237.22043 c -6.4178,7.15 -19.94115,22.25657 -30.0519,33.57016 -49.656149,55.56358 -49.78974,55.70556 -54.652298,58.08319 -4.343987,2.12407 -6.243776,2.33611 -23.230876,2.59279 -13.63388,0.20601 -19.15758,-0.0604 -21,-1.01284 z M -89.962366,166.7365 c -37.511664,-4.44061 -65.763484,-31.67913 -71.583554,-69.01607 -1.3951,-8.949893 -0.63354,-25.768541 1.58054,-34.905079 5.2387,-21.617848 21.0816,-41.640143 40.74431,-51.492751 14.77637,-7.4041543 22.137221,-8.9624029 42.258704,-8.9459146 15.46159,0.01267 17.77939,0.2510888 25.61254,2.6346245 29.25735,8.9026641 47.6759704,27.2416961 56.5026404,56.2584651 2.42691,7.978238 2.72272,10.525963 2.72272,23.450655 0,12.9185 -0.29643,15.4744 -2.71783,23.43378 -7.21497,23.71635 -20.4109304,39.79044 -41.1200704,50.08861 -16.18284,8.04736 -34.041544,10.85636 -54,8.49368 z m 28.23638,-40.69103 c 11.86854,-3.30699 22.49144,-13.78934 26.91845,-26.562312 2.65161,-7.65053 2.38123,-23.292271 -0.53357,-30.86801 -4.68271,-12.170591 -12.82598,-20.694147 -23.86917,-24.983837 -7.9668,-3.094674 -23.666359,-3.799631 -31.872528,-1.431172 -19.607326,5.659054 -31.382456,21.257522 -31.343246,41.520291 0.0614,31.71563 28.245586,51.36797 60.700064,42.32504 z"
       id="path273" />
  </g>
</svg>
