<?xml version="1.0" encoding="UTF-8" standalone="no"?>
<svg
   xmlns:dc="http://purl.org/dc/elements/1.1/"
   xmlns:cc="http://creativecommons.org/ns#"
   xmlns:rdf="http://www.w3.org/1999/02/22-rdf-syntax-ns#"
   xmlns:svg="http://www.w3.org/2000/svg"
   xmlns="http://www.w3.org/2000/svg"
   xmlns:sodipodi="http://sodipodi.sourceforge.net/DTD/sodipodi-0.dtd"
   xmlns:inkscape="http://www.inkscape.org/namespaces/inkscape"
   inkscape:version="1.0 (4035a4fb49, 2020-05-01)"
   sodipodi:docname="FOTO.svg"
   id="svg79"
   viewBox="0 0 95.385151 28.616747"
   style="clip-rule:evenodd;fill-rule:evenodd;image-rendering:optimizeQuality;shape-rendering:geometricPrecision;text-rendering:geometricPrecision"
   version="1.1"
   height="8.9682999mm"
   width="29.894108mm"
   xml:space="preserve"><metadata
   id="metadata83"><rdf:RDF><cc:Work
       rdf:about=""><dc:format>image/svg+xml</dc:format><dc:type
         rdf:resource="http://purl.org/dc/dcmitype/StillImage" /><dc:title></dc:title></cc:Work></rdf:RDF></metadata><sodipodi:namedview
   inkscape:current-layer="svg79"
   inkscape:window-maximized="1"
   inkscape:window-y="-6"
   inkscape:window-x="-6"
   inkscape:cy="60.730984"
   inkscape:cx="85.669949"
   inkscape:zoom="4.1672061"
   showgrid="false"
   id="namedview81"
   inkscape:window-height="1018"
   inkscape:window-width="1920"
   inkscape:pageshadow="2"
   inkscape:pageopacity="0"
   guidetolerance="10"
   gridtolerance="10"
   objecttolerance="10"
   borderopacity="1"
   bordercolor="#666666"
   pagecolor="#ffffff"
   inkscape:document-rotation="0" />
 <defs
   id="defs73">
  <style
   id="style71"
   type="text/css">
   <![CDATA[
    .fil0 {fill:black}
   ]]>
  </style>
 </defs>
 
<path
   id="path22"
   d="m 0.90078427,27.877877 c -0.815654,-0.517618 -1.021173,-3.854146 -0.844253,-13.706183 L 0.29037727,1.1496783 8.5776653,0.90737032 16.864954,0.66506132 16.59807,3.4401293 c -0.260926,2.713106 -0.36585,2.780765 -4.699213,3.030251 l -4.4323287,0.255183 v 2.910766 2.9107647 h 4.2212647 c 4.092769,0 4.221266,0.07434 4.221266,2.442433 0,2.72684 -1.18671,3.467338 -5.556694,3.467338 H 7.4665283 v 4.544925 c 0,3.999587 -0.227926,4.606008 -1.899569,5.05399 -2.514215,0.673783 -3.37587,0.640932 -4.66617503,-0.177903 z M 25.617969,27.017118 c -7.08117,-4.374001 -8.9391,-11.949135 -4.939009,-20.1372867 2.162619,-4.426862 7.675745,-7.23791798 13.233366,-6.74748498 4.560471,0.402441 7.642412,2.32280698 10.564233,6.58260398 1.671128,2.436379 1.923814,3.6843907 1.649074,8.1447457 -0.359714,5.839903 -1.933488,8.6738 -6.568904,11.828636 -3.571881,2.431 -10.279301,2.589214 -13.93876,0.328786 z M 35.91643,21.410702 c 2.155039,-1.509448 3.155104,-5.37282 2.413747,-9.324594 -0.712809,-3.7995967 -2.515883,-5.4487847 -5.957211,-5.4487847 -5.087424,0 -7.829207,6.0854517 -5.500897,12.2093707 1.329247,3.496183 5.87403,4.784594 9.044361,2.564008 z m 19.067672,6.498771 C 54.294827,27.471487 53.878401,23.936117 53.717722,17.158175 L 53.47832,7.0594493 50.187512,6.6373233 C 46.666966,6.1857273 44.858152,4.3524993 45.719185,2.1086853 46.172522,0.92730732 47.848114,0.72755232 57.304453,0.72755232 H 68.359729 L 68.095175,3.4713743 c -0.248316,2.575415 -0.484779,2.759756 -3.852629,3.003429 l -3.588075,0.259606 V 17.148703 c 0,8.717658 -0.21756,10.497779 -1.335429,10.926746 -1.768834,0.678765 -3.084836,0.628378 -4.33494,-0.165976 z M 75.190974,27.183838 C 70.41094,24.827855 68.674875,21.45082 68.674875,14.508572 c 0,-6.5105277 1.128883,-8.9654397 5.687983,-12.3692987 5.487926,-4.0973266 15.431085,-2.05060098 19.132405,3.938266 2.63589,4.2649657 2.49317,12.6169107 -0.2855,16.7060777 -3.70121,5.44683 -11.855313,7.438076 -18.018789,4.400221 z m 10.532949,-6.543242 c 1.92494,-1.655769 2.36877,-2.730472 2.36877,-5.735837 0,-5.4507937 -2.14754,-8.2674357 -6.303487,-8.2674357 -4.237311,0 -5.93818,2.241167 -5.93818,7.8245037 0,3.197463 0.444971,4.516759 2.072257,6.144046 2.613162,2.613163 4.79175,2.622861 7.80064,0.03472 z"
   style="fill:#000000;stroke-width:0.844253" /></svg>
