<?xml version="1.0" encoding="UTF-8" standalone="no"?>
<!-- Created with Inkscape (http://www.inkscape.org/) -->

<svg
   version="1.1"
   id="svg224"
   width="299.7941"
   height="300"
   viewBox="0 0 299.7941 299.99999"
   sodipodi:docname="ЗАКРЕПИТЬ.svg"
   inkscape:version="1.2.1 (9c6d41e410, 2022-07-14)"
   xml:space="preserve"
   xmlns:inkscape="http://www.inkscape.org/namespaces/inkscape"
   xmlns:sodipodi="http://sodipodi.sourceforge.net/DTD/sodipodi-0.dtd"
   xmlns="http://www.w3.org/2000/svg"
   xmlns:svg="http://www.w3.org/2000/svg"><defs
     id="defs228" /><sodipodi:namedview
     id="namedview226"
     pagecolor="#ffffff"
     bordercolor="#111111"
     borderopacity="1"
     inkscape:showpageshadow="0"
     inkscape:pageopacity="0"
     inkscape:pagecheckerboard="1"
     inkscape:deskcolor="#d1d1d1"
     showgrid="false"
     inkscape:zoom="1.0557862"
     inkscape:cx="250.9978"
     inkscape:cy="222.10937"
     inkscape:window-width="1920"
     inkscape:window-height="1018"
     inkscape:window-x="-6"
     inkscape:window-y="-6"
     inkscape:window-maximized="1"
     inkscape:current-layer="g230" /><g
     inkscape:groupmode="layer"
     inkscape:label="Image"
     id="g230"
     transform="translate(352.95461,-162.01705)"><path
       style="fill:#000000"
       d="m -352.22705,460.43688 c -1.94852,-2.34782 -0.87853,-4.43637 14.55991,-28.41983 33.33327,-51.78293 51.40793,-79.93742 55.07022,-85.78162 2.16503,-3.4549 5.23818,-8.33507 6.82923,-10.84483 l 2.89283,-4.5632 -14.64283,-14.66728 c -14.45498,-14.47913 -16.4473,-17.44062 -13.39283,-19.90787 1.67183,-1.35042 20.89821,-8.8553 42.75,-16.68716 14.18856,-5.08529 14.43844,-5.2786 41.18644,-31.86138 23.93579,-23.78795 25.85446,-25.95916 28.15183,-31.85722 3.19221,-8.19534 15.56845,-41.14469 17.402,-46.32944 1.66577,-4.71032 3.95096,-7.5 6.14366,-7.5 2.07924,0 112.116067,110.00417 112.116067,112.08281 0,3.45646 -1.67731,4.26457 -32,15.41719 -30.279287,11.13666 -24.612617,7.28283 -53.987137,36.71592 -18.01122,18.04711 -26.57101,27.32819 -27.44342,29.7559 -2.41018,6.70697 -14.72205,39.55106 -17.25403,46.02818 -4.92481,12.59827 -5.27011,12.51521 -23.45848,-5.64283 l -14.66728,-14.64283 -4.5632,2.89283 c -2.50976,1.59106 -7.38993,4.66421 -10.84483,6.82923 -5.8265,3.6512 -32.80579,20.97135 -87.57034,56.21835 -12.2588,7.88989 -23.11621,14.34525 -24.12756,14.34525 -1.01136,0 -2.42897,-0.71108 -3.15025,-1.58017 z m 23.28174,-20.78643 c 1.27538,-0.96887 1.42533,-1.59286 0.5848,-2.4334 -0.84054,-0.84054 -1.46453,-0.69058 -2.4334,0.5848 -2.41422,3.17796 -1.32937,4.26282 1.8486,1.8486 z m 135.78479,-41.88731 c 0,-0.13964 -21.7125,-21.85214 -48.25,-48.25 l -48.25,-47.99609 47.9961,48.25 c 44.61231,44.84832 48.5039,48.69917 48.5039,47.99609 z m -54.03657,-41.28271 c -10.14373,-10.15486 -18.68844,-18.46338 -18.98822,-18.46338 -0.2998,0 7.79564,8.4375 17.98985,18.75 10.19422,10.3125 18.73892,18.62102 18.98822,18.46338 0.24932,-0.15764 -7.84612,-8.59514 -17.98985,-18.75 z m 78.03657,-13.71915 c 0,-0.14067 -14.7375,-14.87817 -32.75,-32.75 l -32.75,-32.49423 32.49423,32.75 c 30.19898,30.43668 33.00577,33.19997 33.00577,32.49423 z m 4.12756,-3.49423 c 1.24387,-1.58606 1.2085,-1.62143 -0.37756,-0.37756 -0.9625,0.75485 -1.75,1.54235 -1.75,1.75 0,0.82304 0.82119,0.29331 2.12756,-1.37244 z m 5,-5 c 1.24387,-1.58606 1.2085,-1.62143 -0.37756,-0.37756 -0.9625,0.75485 -1.75,1.54235 -1.75,1.75 0,0.82304 0.82119,0.29331 2.12756,-1.37244 z m 5,-5 c 1.24387,-1.58606 1.2085,-1.62143 -0.37756,-0.37756 -0.9625,0.75485 -1.75,1.54235 -1.75,1.75 0,0.82304 0.82119,0.29331 2.12756,-1.37244 z m 5,-5 c 1.24387,-1.58606 1.2085,-1.62143 -0.37756,-0.37756 -0.9625,0.75485 -1.75,1.54235 -1.75,1.75 0,0.82304 0.82119,0.29331 2.12756,-1.37244 z m 5,-5 c 1.24387,-1.58606 1.2085,-1.62143 -0.37756,-0.37756 -0.9625,0.75485 -1.75,1.54235 -1.75,1.75 0,0.82304 0.82119,0.29331 2.12756,-1.37244 z m 5,-5 c 1.24387,-1.58606 1.2085,-1.62143 -0.37756,-0.37756 -0.9625,0.75485 -1.75,1.54235 -1.75,1.75 0,0.82304 0.82119,0.29331 2.12756,-1.37244 z m 5,-5 c 1.24388,-1.58606 1.20851,-1.62143 -0.37756,-0.37756 -1.66575,1.30637 -2.19548,2.12756 -1.37244,2.12756 0.20765,0 0.99516,-0.7875 1.75,-1.75 z m 5,-5 c 1.24388,-1.58606 1.20851,-1.62143 -0.37756,-0.37756 -1.66575,1.30637 -2.19548,2.12756 -1.37244,2.12756 0.20765,0 0.99516,-0.7875 1.75,-1.75 z m 5,-5 c 1.24388,-1.58606 1.20851,-1.62143 -0.37756,-0.37756 -1.66575,1.30637 -2.19548,2.12756 -1.37244,2.12756 0.20765,0 0.99516,-0.7875 1.75,-1.75 z m -105,-25 c 1.24388,-1.58606 1.20851,-1.62143 -0.37755,-0.37756 -1.66575,1.30637 -2.19549,2.12756 -1.37245,2.12756 0.20765,0 0.99516,-0.7875 1.75,-1.75 z m 163.872437,-1.61082 c 0,-0.0808 -21.98448,-22.12788 -48.854407,-48.99361 -35.05992,-35.05445 -49.02231,-48.40921 -49.44907,-47.2971 -0.36884,0.96117 -0.13931,1.37592 0.60441,1.09214 1.64427,-0.62742 96.145787,94.02757 95.277597,95.43233 -0.43024,0.69613 -0.10892,0.88408 0.86953,0.50862 0.85357,-0.32755 1.55194,-0.66161 1.55194,-0.74238 z m -158.872437,-3.38918 c 1.24387,-1.58606 1.2085,-1.62143 -0.37756,-0.37756 -0.9625,0.75485 -1.75,1.54235 -1.75,1.75 0,0.82304 0.82119,0.29331 2.12756,-1.37244 z m 5,-5 c 1.24387,-1.58606 1.2085,-1.62143 -0.37756,-0.37756 -0.9625,0.75485 -1.75,1.54235 -1.75,1.75 0,0.82304 0.82119,0.29331 2.12756,-1.37244 z m 5,-5 c 1.24387,-1.58606 1.2085,-1.62143 -0.37756,-0.37756 -0.9625,0.75485 -1.75,1.54235 -1.75,1.75 0,0.82304 0.82119,0.29331 2.12756,-1.37244 z m 5,-5 c 1.24387,-1.58606 1.2085,-1.62143 -0.37756,-0.37756 -0.9625,0.75485 -1.75,1.54235 -1.75,1.75 0,0.82304 0.82119,0.29331 2.12756,-1.37244 z m 5,-5 c 1.24387,-1.58606 1.2085,-1.62143 -0.37756,-0.37756 -1.66575,1.30637 -2.19548,2.12756 -1.37244,2.12756 0.20765,0 0.99515,-0.7875 1.75,-1.75 z m 5,-5 c 1.24387,-1.58606 1.2085,-1.62143 -0.37756,-0.37756 -0.9625,0.75485 -1.75,1.54235 -1.75,1.75 0,0.82304 0.82119,0.29331 2.12756,-1.37244 z m 5,-5 c 1.24387,-1.58606 1.2085,-1.62143 -0.37756,-0.37756 -0.9625,0.75485 -1.75,1.54235 -1.75,1.75 0,0.82304 0.82119,0.29331 2.12756,-1.37244 z m 5,-5 c 1.24387,-1.58606 1.2085,-1.62143 -0.37756,-0.37756 -0.9625,0.75485 -1.75,1.54235 -1.75,1.75 0,0.82304 0.82119,0.29331 2.12756,-1.37244 z"
       id="path397" /></g></svg>
