<?xml version="1.0" encoding="UTF-8" standalone="no"?>
<svg
   viewBox="0 0 558.57268 561.12316"
   version="1.1"
   id="svg1793"
   sodipodi:docname="МЕСТО.svg"
   xml:space="preserve"
   inkscape:version="1.2.1 (9c6d41e410, 2022-07-14)"
   width="558.57269"
   height="561.12317"
   xmlns:inkscape="http://www.inkscape.org/namespaces/inkscape"
   xmlns:sodipodi="http://sodipodi.sourceforge.net/DTD/sodipodi-0.dtd"
   xmlns:xlink="http://www.w3.org/1999/xlink"
   xmlns="http://www.w3.org/2000/svg"
   xmlns:svg="http://www.w3.org/2000/svg"
   xmlns:rdf="http://www.w3.org/1999/02/22-rdf-syntax-ns#"
   xmlns:cc="http://creativecommons.org/ns#"
   xmlns:dc="http://purl.org/dc/elements/1.1/"><sodipodi:namedview
     id="namedview1795"
     pagecolor="#ffffff"
     bordercolor="#111111"
     borderopacity="1"
     inkscape:showpageshadow="0"
     inkscape:pageopacity="0"
     inkscape:pagecheckerboard="1"
     inkscape:deskcolor="#d1d1d1"
     showgrid="false"
     inkscape:zoom="1.0439548"
     inkscape:cx="143.68438"
     inkscape:cy="302.21615"
     inkscape:window-width="1920"
     inkscape:window-height="1018"
     inkscape:window-x="-6"
     inkscape:window-y="-6"
     inkscape:window-maximized="1"
     inkscape:current-layer="svg1793" /><defs
     id="defs1248"><style
       id="style920">
      .cls-1 {
        fill: url(#radial-gradient);
      }

      .cls-2 {
        fill: url(#radial-gradient-2);
      }

      .cls-3 {
        fill: url(#radial-gradient-3);
      }

      .cls-4 {
        fill: url(#radial-gradient-4);
      }

      .cls-5 {
        fill: url(#radial-gradient-5);
      }

      .cls-6 {
        fill: url(#radial-gradient-6);
      }

      .cls-7 {
        fill: url(#radial-gradient-7);
      }

      .cls-8 {
        fill: url(#radial-gradient-8);
      }

      .cls-9 {
        fill: url(#radial-gradient-9);
      }

      .cls-10 {
        fill: url(#radial-gradient-11);
      }

      .cls-11 {
        fill: url(#radial-gradient-12);
      }

      .cls-12 {
        fill: url(#radial-gradient-13);
      }

      .cls-13 {
        fill: url(#radial-gradient-14);
      }

      .cls-14 {
        fill: url(#radial-gradient-15);
      }

      .cls-15 {
        fill: url(#radial-gradient-16);
      }

      .cls-16 {
        fill: url(#radial-gradient-17);
      }

      .cls-17 {
        fill: url(#radial-gradient-18);
      }

      .cls-18 {
        fill: url(#radial-gradient-19);
      }

      .cls-19 {
        fill: url(#radial-gradient-21);
      }

      .cls-20 {
        fill: url(#radial-gradient-22);
      }

      .cls-21 {
        fill: url(#radial-gradient-23);
      }

      .cls-22 {
        fill: url(#radial-gradient-24);
      }

      .cls-23 {
        fill: url(#radial-gradient-25);
      }

      .cls-24 {
        fill: url(#radial-gradient-26);
      }

      .cls-25 {
        fill: url(#radial-gradient-27);
      }

      .cls-26 {
        fill: url(#radial-gradient-28);
      }

      .cls-27 {
        fill: url(#radial-gradient-29);
      }

      .cls-28 {
        fill: url(#radial-gradient-31);
      }

      .cls-29 {
        fill: url(#radial-gradient-32);
      }

      .cls-30 {
        fill: url(#radial-gradient-33);
      }

      .cls-31 {
        fill: url(#radial-gradient-34);
      }

      .cls-32 {
        fill: url(#radial-gradient-35);
      }

      .cls-33 {
        fill: url(#radial-gradient-36);
      }

      .cls-34 {
        fill: url(#radial-gradient-37);
      }

      .cls-35 {
        fill: url(#radial-gradient-38);
      }

      .cls-36 {
        fill: url(#radial-gradient-39);
      }

      .cls-37 {
        fill: url(#radial-gradient-41);
      }

      .cls-38 {
        fill: url(#radial-gradient-42);
      }

      .cls-39 {
        fill: url(#radial-gradient-43);
      }

      .cls-40 {
        fill: url(#radial-gradient-44);
      }

      .cls-41 {
        fill: url(#radial-gradient-45);
      }

      .cls-42 {
        fill: url(#radial-gradient-46);
      }

      .cls-43 {
        fill: url(#radial-gradient-47);
      }

      .cls-44 {
        fill: url(#radial-gradient-48);
      }

      .cls-45 {
        fill: url(#radial-gradient-49);
      }

      .cls-46 {
        fill: url(#radial-gradient-51);
      }

      .cls-47 {
        fill: url(#radial-gradient-52);
      }

      .cls-48 {
        fill: url(#radial-gradient-53);
      }

      .cls-49 {
        fill: url(#radial-gradient-54);
      }

      .cls-50 {
        fill: url(#radial-gradient-56);
      }

      .cls-51 {
        fill: url(#radial-gradient-57);
      }

      .cls-52, .cls-53, .cls-54, .cls-55, .cls-56, .cls-57, .cls-58, .cls-59, .cls-60, .cls-86 {
        fill: none;
      }

      .cls-53 {
        clip-path: url(#clip-path);
      }

      .cls-54 {
        clip-path: url(#clip-path-8);
      }

      .cls-55 {
        clip-path: url(#clip-path-2);
      }

      .cls-56 {
        clip-path: url(#clip-path-3);
      }

      .cls-57 {
        clip-path: url(#clip-path-4);
      }

      .cls-58 {
        clip-path: url(#clip-path-5);
      }

      .cls-59 {
        clip-path: url(#clip-path-6);
      }

      .cls-60 {
        clip-path: url(#clip-path-7);
      }

      .cls-61 {
        isolation: isolate;
      }

      .cls-62 {
        clip-path: url(#clip-path-9);
      }

      .cls-63 {
        mask: url(#mask);
      }

      .cls-64, .cls-69 {
        fill: #fff;
      }

      .cls-64, .cls-90 {
        mix-blend-mode: overlay;
      }

      .cls-65 {
        mask: url(#mask-2);
      }

      .cls-66 {
        mask: url(#mask-3);
      }

      .cls-67 {
        mask: url(#mask-4);
      }

      .cls-68 {
        mask: url(#mask-5);
      }

      .cls-70 {
        mask: url(#mask-6);
      }

      .cls-71 {
        opacity: 0.3;
        fill: url(#radial-gradient-58);
      }

      .cls-71, .cls-80, .cls-81, .cls-82, .cls-83, .cls-84 {
        mix-blend-mode: color-dodge;
      }

      .cls-72, .cls-90 {
        opacity: 0.5;
      }

      .cls-73 {
        mix-blend-mode: multiply;
      }

      .cls-74 {
        clip-path: url(#clip-path-10);
      }

      .cls-75 {
        fill: url(#linear-gradient);
      }

      .cls-76 {
        fill: url(#linear-gradient-2);
      }

      .cls-77 {
        fill: url(#linear-gradient-3);
      }

      .cls-78 {
        fill: url(#linear-gradient-4);
      }

      .cls-79 {
        fill: #f7e8da;
      }

      .cls-80 {
        opacity: 0.8;
        fill: url(#radial-gradient-59);
      }

      .cls-81 {
        opacity: 0.67;
        fill: url(#radial-gradient-60);
      }

      .cls-82 {
        fill: url(#radial-gradient-61);
      }

      .cls-83 {
        fill: url(#radial-gradient-62);
      }

      .cls-84 {
        fill: url(#radial-gradient-63);
      }

      .cls-85, .cls-87 {
        fill: #ff7009;
      }

      .cls-85, .cls-86, .cls-87 {
        stroke: #000;
        stroke-miterlimit: 10;
      }

      .cls-85 {
        stroke-width: 0.17443px;
      }

      .cls-86 {
        stroke-width: 3px;
      }

      .cls-87 {
        stroke-width: 0.17774px;
      }

      .cls-88 {
        mask: url(#mask-7);
      }

      .cls-89 {
        mask: url(#mask-8);
      }

      .cls-90 {
        fill: #030303;
      }

      .cls-91 {
        mask: url(#mask-9);
      }

      .cls-92 {
        mask: url(#mask-10);
      }

      .cls-93 {
        mask: url(#mask-11);
      }

      .cls-94 {
        mask: url(#mask-12);
      }

      .cls-95 {
        mask: url(#mask-13);
      }

      .cls-96 {
        mask: url(#mask-14);
      }

      .cls-97 {
        mask: url(#mask-15);
      }

      .cls-98 {
        mask: url(#mask-16);
      }

      .cls-99 {
        mask: url(#mask-17);
      }

      .cls-100 {
        mask: url(#mask-19);
      }

      .cls-101 {
        mask: url(#mask-20);
      }

      .cls-102 {
        mask: url(#mask-21);
      }

      .cls-103 {
        mask: url(#mask-22);
      }

      .cls-104 {
        mask: url(#mask-23);
      }

      .cls-105 {
        mask: url(#mask-24);
      }

      .cls-106 {
        mask: url(#mask-25);
      }

      .cls-107 {
        mask: url(#mask-26);
      }

      .cls-108 {
        mask: url(#mask-28);
      }

      .cls-109 {
        mask: url(#mask-29);
      }

      .cls-110 {
        opacity: 0.6;
      }

      .cls-111 {
        mask: url(#mask-30);
      }

      .cls-112 {
        mask: url(#mask-31);
      }

      .cls-113 {
        mask: url(#mask-32);
      }

      .cls-114 {
        mask: url(#mask-33);
      }

      .cls-115 {
        mask: url(#mask-34);
      }

      .cls-116 {
        mask: url(#mask-35);
      }

      .cls-117 {
        mask: url(#mask-37);
      }

      .cls-118 {
        mask: url(#mask-38);
      }

      .cls-119 {
        clip-path: url(#clip-path-11);
      }

      .cls-120 {
        mask: url(#mask-39);
      }

      .cls-121 {
        mask: url(#mask-40);
      }

      .cls-122 {
        mask: url(#mask-41);
      }

      .cls-123 {
        mask: url(#mask-42);
      }

      .cls-124 {
        mask: url(#mask-43);
      }

      .cls-125 {
        mask: url(#mask-44);
      }

      .cls-126 {
        mask: url(#mask-46);
      }

      .cls-127 {
        mask: url(#mask-47);
      }

      .cls-128 {
        clip-path: url(#clip-path-12);
      }

      .cls-129 {
        mask: url(#mask-48);
      }

      .cls-130 {
        mask: url(#mask-49);
      }

      .cls-131 {
        mask: url(#mask-50);
      }

      .cls-132 {
        mask: url(#mask-51);
      }

      .cls-133 {
        mask: url(#mask-52);
      }

      .cls-134 {
        mask: url(#mask-53);
      }

      .cls-135 {
        mask: url(#mask-55);
      }

      .cls-136 {
        mask: url(#mask-56);
      }
    </style><radialGradient
       id="radial-gradient"
       cx="8237.7695"
       cy="2885.6951"
       r="136.18636"
       gradientTransform="matrix(-0.216,0.75768,-0.97796,-0.28443,5251.9708,-5143.9097)"
       gradientUnits="userSpaceOnUse"><stop
         offset="0"
         stop-color="#4a4848"
         id="stop922" /><stop
         offset="1"
         stop-color="#020000"
         id="stop924" /></radialGradient><radialGradient
       id="radial-gradient-2"
       cx="8244.7988"
       cy="2882.7891"
       r="148.04797"
       xlink:href="#radial-gradient" /><radialGradient
       id="radial-gradient-3"
       cx="1242.4672"
       cy="1779.7726"
       r="107.5862"
       gradientTransform="matrix(0.78713,0.03506,-0.03996,1.01766,-503.99377,-1573.636)"
       xlink:href="#radial-gradient" /><radialGradient
       id="radial-gradient-4"
       cx="5329.1577"
       cy="2223.0308"
       r="51.176231"
       gradientTransform="matrix(0.41525,0.66956,-0.86839,0.53218,90.78117,-4371.9614)"
       xlink:href="#radial-gradient" /><radialGradient
       id="radial-gradient-5"
       cx="5331.7988"
       cy="2221.9387"
       r="55.633598"
       gradientTransform="matrix(0.41525,0.66956,-0.86839,0.53218,90.78117,-4371.9614)"
       xlink:href="#radial-gradient" /><radialGradient
       id="radial-gradient-6"
       cx="5411.0913"
       cy="2223.4846"
       r="59.705502"
       gradientTransform="matrix(0.39414,0.6355,-0.86839,0.53218,173.60874,-4238.5254)"
       xlink:href="#radial-gradient" /><radialGradient
       id="radial-gradient-7"
       cx="5333.0713"
       cy="2219.5662"
       r="52.76976"
       gradientTransform="matrix(0.41525,0.66956,-0.86839,0.53218,90.78117,-4371.9614)"
       xlink:href="#radial-gradient" /><radialGradient
       id="radial-gradient-8"
       cx="5329.4175"
       cy="2210.874"
       r="42.709541"
       gradientTransform="matrix(0.41525,0.66956,-0.86839,0.53218,90.78117,-4371.9614)"
       xlink:href="#radial-gradient" /><radialGradient
       id="radial-gradient-9"
       cx="5941.6646"
       cy="1909.6281"
       r="36.00251"
       gradientTransform="matrix(0.24993,0.74597,-0.96919,0.31768,741.41231,-4671.9074)"
       xlink:href="#radial-gradient" /><radialGradient
       id="radial-gradient-11"
       cx="5946.6138"
       cy="1909.6034"
       r="40.950062"
       gradientTransform="matrix(0.24993,0.74597,-0.96919,0.31768,741.41231,-4671.9074)"
       xlink:href="#radial-gradient" /><radialGradient
       id="radial-gradient-12"
       cx="5950.0054"
       cy="1909.6295"
       r="44.337971"
       gradientTransform="matrix(0.24993,0.74597,-0.96919,0.31768,741.41231,-4671.9074)"
       xlink:href="#radial-gradient" /><radialGradient
       id="radial-gradient-13"
       cx="8486.1992"
       cy="2886.697"
       r="158.8838"
       gradientTransform="matrix(-0.205,0.71916,-0.97796,-0.28443,5208.9736,-4992.8573)"
       xlink:href="#radial-gradient" /><radialGradient
       id="radial-gradient-14"
       cx="5477.2432"
       cy="2067.3115"
       r="51.176231"
       gradientTransform="matrix(0.44217,0.69344,-0.92468,0.55116,-132.13179,-4563.2389)"
       xlink:href="#radial-gradient" /><radialGradient
       id="radial-gradient-15"
       cx="5479.8848"
       cy="2066.2192"
       r="55.633598"
       gradientTransform="matrix(0.44217,0.69344,-0.92468,0.55116,-132.13179,-4563.2389)"
       xlink:href="#radial-gradient" /><radialGradient
       id="radial-gradient-16"
       cx="5567.1118"
       cy="2067.7678"
       r="59.705502"
       gradientTransform="matrix(0.41969,0.65816,-0.92468,0.55116,-43.93464,-4425.0443)"
       xlink:href="#radial-gradient" /><radialGradient
       id="radial-gradient-17"
       cx="5481.1572"
       cy="2063.8467"
       r="52.76976"
       gradientTransform="matrix(0.44217,0.69344,-0.92468,0.55116,-132.13179,-4563.2389)"
       xlink:href="#radial-gradient" /><radialGradient
       id="radial-gradient-18"
       cx="5477.5029"
       cy="2055.1548"
       r="42.709541"
       gradientTransform="matrix(0.44217,0.69344,-0.92468,0.55116,-132.13179,-4563.2389)"
       xlink:href="#radial-gradient" /><radialGradient
       id="radial-gradient-19"
       cx="6039.2134"
       cy="1731.8132"
       r="36.00251"
       gradientTransform="matrix(0.26613,0.77258,-1.03202,0.329,560.67877,-4873.8813)"
       xlink:href="#radial-gradient" /><radialGradient
       id="radial-gradient-21"
       cx="6044.1621"
       cy="1731.7887"
       r="40.950062"
       gradientTransform="matrix(0.26613,0.77258,-1.03202,0.329,560.67877,-4873.8813)"
       xlink:href="#radial-gradient" /><radialGradient
       id="radial-gradient-22"
       cx="6047.5537"
       cy="1731.8148"
       r="44.337971"
       gradientTransform="matrix(0.26613,0.77258,-1.03202,0.329,560.67877,-4873.8813)"
       xlink:href="#radial-gradient" /><radialGradient
       id="radial-gradient-23"
       cx="8227.3965"
       cy="3216.3218"
       r="115.37826"
       xlink:href="#radial-gradient" /><radialGradient
       id="radial-gradient-24"
       cx="8248.1846"
       cy="2876.4751"
       r="140.42693"
       xlink:href="#radial-gradient" /><radialGradient
       id="radial-gradient-25"
       cx="8233.3516"
       cy="3213.8596"
       r="125.42752"
       xlink:href="#radial-gradient" /><radialGradient
       id="radial-gradient-26"
       cx="8472.6631"
       cy="3217.2024"
       r="134.60773"
       gradientTransform="matrix(-0.205,0.71916,-0.97796,-0.28443,5208.9736,-4992.8573)"
       xlink:href="#radial-gradient" /><radialGradient
       id="radial-gradient-27"
       cx="8236.2197"
       cy="3208.5105"
       r="118.9709"
       xlink:href="#radial-gradient" /><radialGradient
       id="radial-gradient-28"
       cx="8227.9824"
       cy="3188.9141"
       r="96.289864"
       xlink:href="#radial-gradient" /><radialGradient
       id="radial-gradient-29"
       cx="9041.7383"
       cy="2354.2156"
       r="81.168671"
       gradientTransform="matrix(-0.38376,0.68678,-0.88708,-0.50332,5911.6147,-4864.3417)"
       xlink:href="#radial-gradient" /><radialGradient
       id="radial-gradient-31"
       cx="9052.8955"
       cy="2354.1602"
       r="92.323067"
       gradientTransform="matrix(-0.38376,0.68678,-0.88708,-0.50332,5911.6147,-4864.3417)"
       xlink:href="#radial-gradient" /><radialGradient
       id="radial-gradient-32"
       cx="9060.542"
       cy="2354.2192"
       r="99.961197"
       gradientTransform="matrix(-0.38376,0.68678,-0.88708,-0.50332,5911.6147,-4864.3417)"
       xlink:href="#radial-gradient" /><radialGradient
       id="radial-gradient-33"
       cx="8204.4668"
       cy="3222.1523"
       r="136.18636"
       xlink:href="#radial-gradient" /><radialGradient
       id="radial-gradient-34"
       cx="8211.4961"
       cy="3219.2461"
       r="148.04797"
       xlink:href="#radial-gradient" /><radialGradient
       id="radial-gradient-35"
       cx="8969.54"
       cy="2028.1936"
       r="117.98889"
       gradientTransform="matrix(-0.38376,0.68678,-0.88708,-0.50332,5911.6147,-4864.3417)"
       xlink:href="#radial-gradient" /><radialGradient
       id="radial-gradient-36"
       cx="8451.1123"
       cy="3223.1536"
       r="158.8838"
       gradientTransform="matrix(-0.205,0.71916,-0.97796,-0.28443,5208.9736,-4992.8573)"
       xlink:href="#radial-gradient" /><radialGradient
       id="radial-gradient-37"
       cx="8214.8818"
       cy="3212.9324"
       r="140.42693"
       xlink:href="#radial-gradient" /><radialGradient
       id="radial-gradient-38"
       cx="8205.1582"
       cy="3189.8018"
       r="113.65543"
       xlink:href="#radial-gradient" /><radialGradient
       id="radial-gradient-39"
       cx="9015.541"
       cy="2361.5068"
       r="95.807182"
       gradientTransform="matrix(-0.38376,0.68678,-0.88708,-0.50332,5911.6147,-4864.3417)"
       xlink:href="#radial-gradient" /><radialGradient
       id="radial-gradient-41"
       cx="9028.71"
       cy="2361.4414"
       r="108.97324"
       gradientTransform="matrix(-0.38376,0.68678,-0.88708,-0.50332,5911.6147,-4864.3417)"
       xlink:href="#radial-gradient" /><radialGradient
       id="radial-gradient-42"
       cx="9037.7354"
       cy="2361.511"
       r="117.98889"
       gradientTransform="matrix(-0.38376,0.68678,-0.88708,-0.50332,5911.6147,-4864.3417)"
       xlink:href="#radial-gradient" /><radialGradient
       id="radial-gradient-43"
       cx="8469.1582"
       cy="3502.5808"
       r="136.18636"
       xlink:href="#radial-gradient" /><radialGradient
       id="radial-gradient-44"
       cx="8476.1865"
       cy="3499.6746"
       r="148.04797"
       xlink:href="#radial-gradient" /><radialGradient
       id="radial-gradient-45"
       cx="8729.9854"
       cy="3503.5867"
       r="158.8838"
       gradientTransform="matrix(-0.205,0.71916,-0.97796,-0.28443,5208.9736,-4992.8573)"
       xlink:href="#radial-gradient" /><radialGradient
       id="radial-gradient-46"
       cx="4089.0166"
       cy="2953.5498"
       r="208.90215"
       gradientTransform="matrix(0.56429,0.85264,-0.8528,0.55736,495.69011,-4848.9425)"
       gradientUnits="userSpaceOnUse"><stop
         offset="0.97191"
         stop-color="#fff"
         id="stop967" /><stop
         offset="1"
         stop-color="#020100"
         id="stop969" /></radialGradient><radialGradient
       id="radial-gradient-47"
       cx="8479.5723"
       cy="3493.3606"
       r="140.42693"
       xlink:href="#radial-gradient" /><radialGradient
       id="radial-gradient-48"
       cx="8469.8486"
       cy="3470.2302"
       r="113.65543"
       xlink:href="#radial-gradient" /><radialGradient
       id="radial-gradient-49"
       cx="9356.9766"
       cy="2587.4109"
       r="95.807182"
       gradientTransform="matrix(-0.38376,0.68678,-0.88708,-0.50332,5911.6147,-4864.3417)"
       xlink:href="#radial-gradient" /><radialGradient
       id="radial-gradient-51"
       cx="9370.1455"
       cy="2587.3455"
       r="108.97324"
       gradientTransform="matrix(-0.38376,0.68678,-0.88708,-0.50332,5911.6147,-4864.3417)"
       xlink:href="#radial-gradient" /><radialGradient
       id="radial-gradient-52"
       cx="9379.1709"
       cy="2587.4153"
       r="117.98889"
       gradientTransform="matrix(-0.38376,0.68678,-0.88708,-0.50332,5911.6147,-4864.3417)"
       xlink:href="#radial-gradient" /><radialGradient
       id="radial-gradient-53"
       cx="3814.9697"
       cy="2883.8525"
       r="141.19342"
       gradientTransform="matrix(0.46822,0.63365,-0.82233,0.60091,826.73182,-3940.4667)"
       xlink:href="#radial-gradient" /><radialGradient
       id="radial-gradient-54"
       cx="570.63708"
       cy="701.14136"
       r="78.270973"
       gradientTransform="matrix(0.76722,-0.31041,0.38936,0.94409,-560.15886,-192.1193)"
       gradientUnits="userSpaceOnUse"><stop
         offset="0"
         stop-color="#595757"
         id="stop978" /><stop
         offset="1"
         stop-color="#020000"
         id="stop980" /></radialGradient><radialGradient
       id="radial-gradient-56"
       cx="1207.584"
       cy="1779.8021"
       r="142.48737"
       gradientTransform="matrix(0.78713,0.03506,-0.03996,1.01766,-503.99377,-1573.636)"
       xlink:href="#radial-gradient" /><radialGradient
       id="radial-gradient-57"
       cx="1216.2158"
       cy="1783.8734"
       r="119.16956"
       gradientTransform="matrix(0.78713,0.03506,-0.03996,1.01766,-503.99377,-1573.636)"
       xlink:href="#radial-gradient" /><clipPath
       id="clip-path"><path
         class="cls-54"
         d="m 322.04061,208.71911 c -39.697,-22.50978 -58.13052,-65.87311 -40.8907,-96.58185 17.16168,-30.81117 63.38662,-37.36316 103.12351,-14.92593 39.7804,22.67147 58.05755,65.76959 40.902,96.64522 -17.17294,30.74798 -63.37818,37.41227 -103.13481,14.86256 z"
         clip-path="url(#clip-path-8)"
         id="path985" /></clipPath><clipPath
       id="clip-path-2"><path
         class="cls-53"
         d="m 313.50056,224.05716 c -45.27964,-25.62064 -66.06444,-74.86056 -46.43579,-109.91279 19.41556,-34.95392 71.88332,-42.48491 117.20865,-16.933 45.30288,25.7375 65.968,74.93786 46.56045,109.9513 -19.64701,34.93392 -72.26187,42.61203 -117.33331,16.89449 z"
         clip-path="url(#clip-path)"
         id="path988" /></clipPath><clipPath
       id="clip-path-3"><path
         class="cls-52"
         d="m 304.31855,254.9662 c -62.43712,-17.94 -101.91408,-71.85932 -88.06327,-120.25649 13.76895,-48.20631 75.48111,-72.58589 137.82538,-54.51879 62.35294,18.13113 101.645,71.96689 87.94138,120.21713 -13.79489,48.38755 -75.45031,72.76235 -137.70349,54.55815 z"
         id="path991" /></clipPath><clipPath
       id="clip-path-4"><path
         class="cls-56"
         d="M 303.1226,267.7495 C 235.45642,248.0743 192.44,189.64159 207.51882,137.1657 222.4884,84.70862 289.47854,58.0766 357.32382,77.77575 425.1293,97.6032 467.8051,156.03512 452.95776,208.53132 437.85335,260.89076 370.93024,287.57675 303.1226,267.7495 Z"
         clip-path="url(#clip-path-3)"
         id="path994" /></clipPath><clipPath
       id="clip-path-5"><path
         class="cls-57"
         d="m 297.83493,274.50275 c -72.56171,-21.12656 -119.17175,-81.58157 -103.98688,-135.11 15.264,-53.37633 86.46223,-79.536 159.25715,-58.39518 72.6608,21.04843 119.30925,81.55209 104.08007,135.15403 -15.20127,53.42052 -86.67746,79.45268 -159.35034,58.35115 z"
         clip-path="url(#clip-path-4)"
         id="path997" /></clipPath><clipPath
       id="clip-path-6"><path
         class="cls-58"
         d="m 309.162,266.56874 c -64.2242,-18.66006 -104.84084,-74.16477 -90.70739,-123.87756 14.191,-49.72787 77.74837,-75.01151 142.03,-56.351 64.33592,18.64046 104.89439,74.15538 90.74546,124.10814 C 437.01161,260.0045 373.35546,285.068 309.162,266.56874 Z"
         clip-path="url(#clip-path-5)"
         id="path1000" /></clipPath><clipPath
       id="clip-path-7"><path
         class="cls-59"
         d="M 334.95666,248.72824 C 282.98786,233.622 250.11778,188.63551 261.625,148.437 273.0492,108.0813 324.62872,87.66335 376.55413,102.83779 428.5833,117.933 461.2662,162.83621 449.97242,203.28 c -11.56905,40.15936 -62.94157,60.47047 -115.01576,45.44824 z"
         clip-path="url(#clip-path-6)"
         id="path1003" /></clipPath><clipPath
       id="clip-path-8"><path
         class="cls-60"
         d="m 322.04061,208.71911 c -39.697,-22.50978 -58.13052,-65.87311 -40.8907,-96.58185 17.16168,-30.81117 63.38662,-37.36316 103.12351,-14.92593 39.7804,22.67147 58.05755,65.76959 40.902,96.64522 -17.17294,30.74798 -63.37818,37.41227 -103.13481,14.86256 z"
         clip-path="url(#clip-path-7)"
         id="path1006" /></clipPath><clipPath
       id="clip-path-9"><circle
         class="cls-52"
         cx="936.02759"
         cy="284.03427"
         r="213.63554"
         id="circle1009" /></clipPath><mask
       id="mask"
       x="513.97873"
       y="166.78018"
       width="272.96878"
       height="220.45204"
       maskUnits="userSpaceOnUse"><path
         class="cls-1"
         d="m 621.19184,380.11162 c -73.69746,-21.17546 -120.294,-84.81892 -103.9452,-141.94437 16.25213,-56.90015 89.09389,-85.67652 162.68175,-64.35107 73.59808,21.401 119.9764,84.94589 103.80133,141.8979 -16.28272,57.11409 -89.05754,85.88481 -162.53788,64.39754 z"
         id="path1012" /></mask><mask
       id="mask-2"
       x="503.37836"
       y="163.30005"
       width="296.7389"
       height="239.63937"
       maskUnits="userSpaceOnUse"><path
         class="cls-2"
         d="M 619.7802,395.20034 C 539.91065,371.97679 489.13629,303.00593 506.93459,241.06618 c 17.66929,-61.91755 96.74089,-93.35257 176.8219,-70.10074 80.034,23.40327 130.40622,92.3732 112.88121,154.33692 -17.82848,61.8023 -96.82096,93.30102 -176.8575,69.89798 z"
         id="path1015" /></mask><mask
       id="mask-3"
       x="487.41211"
       y="166.11821"
       width="317.61702"
       height="245.69815"
       maskUnits="userSpaceOnUse"><path
         class="cls-12"
         d="m 613.53893,403.17153 c -85.648,-24.93667 -140.664,-96.29455 -122.74059,-159.47666 18.01681,-63.00258 102.05541,-93.8801 187.97866,-68.92656 85.76494,24.84445 140.8263,96.25975 122.85058,159.52862 -17.94272,63.05474 -102.30946,93.78171 -188.08865,68.8746 z"
         id="path1018" /></mask><mask
       id="mask-4"
       x="516.52907"
       y="173.82209"
       width="281.39246"
       height="227.1711"
       maskUnits="userSpaceOnUse"><path
         class="cls-22"
         d="M 626.90884,393.80664 C 551.102,371.7813 503.16029,306.26649 519.84266,247.58816 c 16.75026,-58.69613 91.77,-88.53959 167.64468,-66.51373 75.9387,22.0022 123.81176,87.52907 107.11111,146.49065 -16.78278,58.49349 -91.91912,88.07714 -167.68961,66.24156 z"
         id="path1021" /></mask><mask
       id="mask-5"
       x="556.25809"
       y="174.47182"
       width="228.1188"
       height="200.92533"
       maskUnits="userSpaceOnUse"><path
         class="cls-32"
         d="m 625.07581,356.0105 c -57.874,-32.73236 -84.3775,-95.54345 -59.44627,-140.35183 25.06231,-44.83727 92.18626,-54.57212 149.93678,-21.7525 57.88905,32.801 84.3934,95.618 59.40733,140.50119 -24.95339,44.68086 -92.16665,54.29496 -149.89784,21.60314 z"
         id="path1024" /></mask><mask
       id="mask-6"
       x="70.53794"
       y="70.89198"
       width="427.27181"
       height="425.5823"
       maskUnits="userSpaceOnUse"><path
         class="cls-42"
         d="M 402.20556,461.73426 C 303.77032,526.14402 171.113,498.38932 105.97356,400.00474 40.902,301.49122 67.987,169.90433 166.41645,105.66373 264.78526,41.2235 397.10028,68.97031 462.47729,167.21779 c 64.73896,98.34321 38.12217,230.3437 -60.27173,294.51647 z"
         id="path1027" /></mask><radialGradient
       id="radial-gradient-58"
       cx="284.17383"
       cy="283.68314"
       r="213.21394"
       gradientUnits="userSpaceOnUse"><stop
         offset="0"
         stop-color="#ffedcc"
         id="stop1030" /><stop
         offset="0.12062"
         stop-color="#e7d7b9"
         id="stop1032" /><stop
         offset="0.37548"
         stop-color="#aa9e88"
         id="stop1034" /><stop
         offset="0.74009"
         stop-color="#49443a"
         id="stop1036" /><stop
         offset="1"
         id="stop1038" /></radialGradient><clipPath
       id="clip-path-10"><ellipse
         class="cls-52"
         cx="284.55887"
         cy="282.64087"
         rx="212.55757"
         ry="213.05264"
         transform="rotate(-1.03687,284.55871,282.64084)"
         id="ellipse1041" /></clipPath><linearGradient
       id="linear-gradient"
       x1="166.33524"
       y1="244.21269"
       x2="150.58687"
       y2="143.23767"
       gradientTransform="rotate(-0.00573,-126742.02,-792813.31)"
       gradientUnits="userSpaceOnUse"><stop
         offset="0"
         stop-color="#e5dbb7"
         id="stop1044" /><stop
         offset="1"
         stop-color="#fff"
         id="stop1046" /></linearGradient><linearGradient
       id="linear-gradient-2"
       x1="184.38641"
       y1="257.52493"
       x2="-76.976242"
       y2="272.16116"
       gradientTransform="rotate(-0.00573,-126742.02,-792813.31)"
       gradientUnits="userSpaceOnUse"><stop
         offset="0"
         stop-color="#dbd1b7"
         id="stop1049" /><stop
         offset="1"
         stop-color="#fff"
         id="stop1051" /></linearGradient><linearGradient
       id="linear-gradient-3"
       x1="407.19049"
       y1="258.1915"
       x2="68.051964"
       y2="247.73862"
       gradientTransform="rotate(-0.00573,-126742.02,-792813.31)"
       gradientUnits="userSpaceOnUse"><stop
         offset="0"
         stop-color="#f0decb"
         id="stop1054" /><stop
         offset="0.48257"
         stop-color="#f7ede2"
         id="stop1056" /><stop
         offset="1"
         stop-color="#fff"
         id="stop1058" /></linearGradient><linearGradient
       id="linear-gradient-4"
       x1="189.43958"
       y1="544.02844"
       x2="173.46053"
       y2="290.35965"
       gradientTransform="rotate(-0.00573,-126742.02,-792813.31)"
       gradientUnits="userSpaceOnUse"><stop
         offset="0"
         stop-color="#d9d3c3"
         id="stop1061" /><stop
         offset="1"
         stop-color="#fff"
         id="stop1063" /></linearGradient><radialGradient
       id="radial-gradient-59"
       cx="143.79828"
       cy="7.0620999"
       r="398.84097"
       gradientTransform="rotate(-1.01423,-1158.9925,-2131.9896)"
       xlink:href="#radial-gradient-58" /><radialGradient
       id="radial-gradient-60"
       cx="-8614.7207"
       cy="-1260.4393"
       r="111.51287"
       gradientTransform="matrix(0.2907,0.3637,-0.41,0.3277,2337.9209,3973.5819)"
       gradientUnits="userSpaceOnUse"><stop
         offset="0"
         stop-color="#aaa"
         id="stop1067" /><stop
         offset="0.19573"
         stop-color="#7e7e7e"
         id="stop1069" /><stop
         offset="0.46604"
         stop-color="#484848"
         id="stop1071" /><stop
         offset="0.69995"
         stop-color="#212121"
         id="stop1073" /><stop
         offset="0.88569"
         stop-color="#090909"
         id="stop1075" /><stop
         offset="1"
         id="stop1077" /></radialGradient><radialGradient
       id="radial-gradient-61"
       cx="-1082.4218"
       cy="2018.9773"
       r="57.69408"
       gradientTransform="matrix(-0.5777,1.1505,-1.3461,-0.6758,2337.4713,3021.2638)"
       xlink:href="#radial-gradient-60" /><radialGradient
       id="radial-gradient-62"
       cx="-2249.9021"
       cy="1408.4487"
       r="80.58358"
       gradientTransform="matrix(0.3682,0.5933,-0.6174,0.3833,1834.7901,1104.1192)"
       gradientUnits="userSpaceOnUse"><stop
         offset="0"
         stop-color="#a1a1a1"
         id="stop1081" /><stop
         offset="0.11122"
         stop-color="#7d7d7d"
         id="stop1083" /><stop
         offset="0.26743"
         stop-color="#505050"
         id="stop1085" /><stop
         offset="0.41804"
         stop-color="#2d2d2d"
         id="stop1087" /><stop
         offset="0.55948"
         stop-color="#141414"
         id="stop1089" /><stop
         offset="0.68817"
         stop-color="#050505"
         id="stop1091" /><stop
         offset="0.79261"
         id="stop1093" /></radialGradient><radialGradient
       id="radial-gradient-63"
       cx="-2037.6012"
       cy="3442.1233"
       r="43.487202"
       gradientTransform="matrix(0.3862,0.6222,-0.4072,0.2527,2629.5998,600.35392)"
       gradientUnits="userSpaceOnUse"><stop
         offset="0"
         stop-color="#575757"
         id="stop1096" /><stop
         offset="0.42232"
         stop-color="#2c2c2c"
         id="stop1098" /><stop
         offset="0.79408"
         stop-color="#0c0c0c"
         id="stop1100" /><stop
         offset="1"
         id="stop1102" /></radialGradient><mask
       id="mask-7"
       x="107.8775"
       y="86.5378"
       width="267.3648"
       height="246.69638"
       maskUnits="userSpaceOnUse"><path
         class="cls-48"
         d="M 307.67524,299.17906 C 243.64013,346.29081 161.88724,344.2688 125.32805,294.6864 88.89275,245.32595 111.36948,167.2994 175.45838,120.37261 239.6158,73.48523 321.14969,75.624 357.67635,124.954 394.26794,174.475 371.829,252.443 307.67524,299.17906 Z"
         id="path1105" /></mask><mask
       id="mask-8"
       x="83.29512"
       y="214.85508"
       width="134.7411"
       height="155.63226"
       maskUnits="userSpaceOnUse"><path
         class="cls-49"
         d="m 210.65593,268.33464 c 16.92993,40.76755 3.7459,84.7671 -29.45349,98.22761 -33.1995,13.4607 -73.62932,-8.83374 -90.58626,-49.53684 -16.83322,-40.95194 -3.68251,-84.73035 29.64725,-98.28273 33.22811,-13.37057 73.68301,8.86215 90.3925,49.59196 z"
         id="path1108" /><path
         class="cls-49"
         d="m 210.65593,268.33464 c 16.92993,40.76755 3.7459,84.7671 -29.45349,98.22761 -33.1995,13.4607 -73.62932,-8.83374 -90.58626,-49.53684 -16.83322,-40.95194 -3.68251,-84.73035 29.64725,-98.28273 33.22811,-13.37057 73.68301,8.86215 90.3925,49.59196 z"
         id="path1110" /></mask><mask
       id="mask-9"
       x="263.13184"
       y="134.8254"
       width="224.56143"
       height="290.22545"
       maskUnits="userSpaceOnUse"><path
         class="cls-50"
         d="m 487.542,284.90629 c -3.16359,79.97028 -55.90671,142.67221 -117.81035,140.06618 -61.83508,-2.88 -109.53116,-69.99647 -106.45934,-149.93648 3.31838,-80.12121 56.02947,-142.76158 117.83737,-140.13066 61.80825,2.78786 109.62812,69.96872 106.43232,150.00096 z"
         id="path1113" /></mask><mask
       id="mask-10"
       x="288.0761"
       y="163.07863"
       width="187.89811"
       height="242.61469"
       maskUnits="userSpaceOnUse"><path
         class="cls-51"
         d="m 475.86692,288.60771 c -2.51418,66.9 -46.70458,119.27534 -98.58209,117.01513 -51.69412,-2.16379 -91.86422,-58.4741 -89.07148,-125.45961 2.66467,-66.89942 46.82149,-119.21028 98.57638,-117.01814 51.69572,2.31839 91.52796,58.5264 89.07719,125.46262 z"
         id="path1116" /></mask><mask
       id="mask-11"
       x="318.07974"
       y="171.57207"
       width="169.57275"
       height="219.11918"
       maskUnits="userSpaceOnUse"><path
         class="cls-3"
         d="m 487.542,284.90629 c -2.31291,60.37784 -42.19121,107.68541 -88.89267,105.72625 -46.5978,-2.14341 -82.86581,-52.739 -80.45609,-113.3019 2.406,-60.41112 42.34343,-107.68722 88.94647,-105.698 46.66813,2.18028 82.77452,52.7697 80.40229,113.27365 z"
         id="path1119" /></mask><mask
       id="mask-12"
       x="323.96829"
       y="335.53332"
       width="98.58342"
       height="87.57588"
       maskUnits="userSpaceOnUse"><path
         class="cls-4"
         d="m 394.51943,413.526 c -24.51919,15.13578 -53.99369,12.00032 -65.74241,-6.98726 -11.7105,-18.90376 -1.29521,-46.43032 23.238,-61.49771 24.55678,-15.05112 53.94871,-11.87992 65.69312,7.01552 11.7622,18.96638 1.36227,46.47289 -23.18871,61.46945 z"
         id="path1122" /></mask><mask
       id="mask-13"
       x="321.72524"
       y="332.93664"
       width="107.12392"
       height="95.15379"
       maskUnits="userSpaceOnUse"><path
         class="cls-5"
         d="m 398.35749,417.73318 c -26.649,16.33394 -58.66086,13.01314 -71.38158,-7.59458 -12.74715,-20.56623 -1.496,-50.497 25.21432,-66.88255 26.74055,-16.33422 58.65048,-12.90186 71.447,7.63594 12.67482,20.58136 1.46139,50.5062 -25.27974,66.84119 z"
         id="path1125" /></mask><mask
       id="mask-14"
       x="318.54214"
       y="334.03846"
       width="113.94154"
       height="98.96639"
       maskUnits="userSpaceOnUse"><path
         class="cls-6"
         d="m 398.99573,421.48363 c -28.58618,17.50735 -62.334,14.76233 -75.36852,-6.19426 -12.96095,-20.93717 -0.29907,-52.10788 28.36139,-69.6875 28.59011,-17.56317 62.3654,-14.81625 75.41078,6.17682 12.99418,20.92976 0.20748,52.15364 -28.40365,69.70494 z"
         id="path1128" /></mask><mask
       id="mask-15"
       x="327.07542"
       y="334.94629"
       width="101.5945"
       height="90.26096"
       maskUnits="userSpaceOnUse"><path
         class="cls-7"
         d="m 399.77226,415.39893 c -25.28875,15.50735 -55.62363,12.27278 -67.71973,-7.20015 -12.08388,-19.49629 -1.41462,-47.89817 23.89142,-63.42425 25.31566,-15.54986 55.63653,-12.29315 67.80675,7.25646 12.0193,19.45411 1.24837,47.82271 -23.97844,63.36794 z"
         id="path1131" /></mask><mask
       id="mask-16"
       x="342.76929"
       y="336.49418"
       width="82.24298"
       height="73.04203"
       maskUnits="userSpaceOnUse"><path
         class="cls-8"
         d="m 401.61517,401.61037 c -20.46538,12.54613 -45.03693,9.90823 -54.79456,-5.8637 -9.834,-15.79159 -1.14233,-38.81084 19.33247,-51.32239 20.47982,-12.56922 44.96817,-9.89475 54.87,5.88032 9.72627,15.78054 1.06135,38.69998 -19.40791,51.30577 z"
         id="path1134" /></mask><mask
       id="mask-17"
       x="339.57983"
       y="337.88061"
       width="72.0993"
       height="58.36866"
       maskUnits="userSpaceOnUse"><path
         class="cls-9"
         d="m 384.63151,393.90967 c -19.23285,6.30973 -38.96371,-0.58129 -43.89648,-15.40256 -4.98971,-14.82619 6.65429,-31.95051 25.87524,-38.295 19.31081,-6.28885 38.908,0.57435 43.92066,15.41775 4.9656,14.81106 -6.63566,31.96243 -25.89942,38.27981 z"
         id="path1137" /></mask><mask
       id="mask-19"
       x="335.8724"
       y="337.55482"
       width="82.00184"
       height="66.41054"
       maskUnits="userSpaceOnUse"><path
         class="cls-10"
         d="m 387.11638,401.28923 c -21.91965,7.2134 -44.28061,-0.65968 -49.92588,-17.561 -5.6766,-16.80207 7.50906,-36.26717 29.41977,-43.51609 21.96493,-7.18616 44.27718,0.7144 49.97571,17.53159 5.60102,16.87206 -7.5803,36.42934 -29.4696,43.5455 z"
         id="path1140" /></mask><mask
       id="mask-20"
       x="333.32999"
       y="337.31761"
       width="88.77285"
       height="71.93833"
       maskUnits="userSpaceOnUse"><path
         class="cls-11"
         d="m 388.80079,406.353 c -23.73177,7.81476 -47.895,-0.69649 -54.04954,-18.95619 -6.12943,-18.30345 8.1342,-39.42633 31.859,-47.1847 23.75467,-7.8016 47.91976,0.71093 54.08123,19.00478 6.11352,18.23364 -8.20629,39.35083 -31.89069,47.13611 z"
         id="path1143" /></mask><mask
       id="mask-21"
       x="325.64169"
       y="328.99351"
       width="104.97443"
       height="90.69896"
       maskUnits="userSpaceOnUse"><path
         class="cls-13"
         d="m 400.76655,409.76755 c -26.10873,15.67554 -57.494,12.42826 -70.00438,-7.23644 -12.46968,-19.57789 -1.37919,-48.0861 24.74444,-63.6908 26.14875,-15.58787 57.44612,-12.30358 69.9519,7.2657 12.52477,19.64272 1.45063,48.13016 -24.69196,63.66154 z"
         id="path1146" /></mask><mask
       id="mask-22"
       x="323.25322"
       y="326.30424"
       width="114.0686"
       height="98.54711"
       maskUnits="userSpaceOnUse"><path
         class="cls-14"
         d="m 404.85343,414.12474 c -28.37662,16.91643 -62.46376,13.47721 -76.00913,-7.86541 -13.57354,-21.29966 -1.593,-52.29777 26.84892,-69.26768 28.47409,-16.91672 62.4527,-13.362 76.07875,7.90824 13.49656,21.31532 1.55617,52.30733 -26.91854,69.22485 z"
         id="path1149" /></mask><mask
       id="mask-23"
       x="319.86377"
       y="327.44535"
       width="121.3282"
       height="102.49567"
       maskUnits="userSpaceOnUse"><path
         class="cls-15"
         d="m 405.53305,418.00893 c -30.43938,18.13169 -66.37506,15.28878 -80.25455,-6.41515 -13.80119,-21.68382 -0.31845,-53.96612 30.2,-72.17265 30.44356,-18.18951 66.40845,-15.34462 80.29954,6.39709 13.8366,21.67614 0.22096,54.01351 -30.24499,72.19071 z"
         id="path1152" /></mask><mask
       id="mask-24"
       x="328.95025"
       y="328.38555"
       width="108.18071"
       height="93.4798"
       maskUnits="userSpaceOnUse"><path
         class="cls-16"
         d="m 406.35992,411.70725 c -26.92818,16.06037 -59.22962,12.71044 -72.1099,-7.45692 -12.86726,-20.19156 -1.50633,-49.60629 25.44026,-65.68605 26.95684,-16.10439 59.24336,-12.73155 72.20257,7.51524 12.79852,20.14787 1.3293,49.52813 -25.53293,65.62773 z"
         id="path1155" /></mask><mask
       id="mask-25"
       x="345.66153"
       y="329.98864"
       width="87.57466"
       height="75.64682"
       maskUnits="userSpaceOnUse"><path
         class="cls-17"
         d="m 408.3223,397.427 c -21.79212,12.99354 -47.9566,10.26157 -58.3468,-6.07281 -10.47149,-16.35474 -1.2164,-40.19489 20.58576,-53.15262 21.80749,-13.01746 47.88339,-10.24761 58.42709,6.09 10.35685,16.34329 1.1302,40.08007 -20.66605,53.13543 z"
         id="path1158" /></mask><mask
       id="mask-26"
       x="342.26531"
       y="331.42451"
       width="76.77339"
       height="60.45018"
       maskUnits="userSpaceOnUse"><path
         class="cls-18"
         d="m 390.23762,389.45165 c -20.4797,6.53474 -41.48967,-0.602 -46.74223,-15.95184 -5.31318,-15.35491 7.08568,-33.08991 27.5527,-39.66063 20.5627,-6.51312 41.43031,0.59483 46.768,15.96757 5.28748,15.33925 -7.06587,33.10225 -27.57847,39.6449 z"
         id="path1161" /></mask><mask
       id="mask-28"
       x="338.31753"
       y="331.0871"
       width="87.3179"
       height="68.77884"
       maskUnits="userSpaceOnUse"><path
         class="cls-19"
         d="m 392.88357,397.09437 c -23.34066,7.47065 -47.15125,-0.68319 -53.16249,-18.18725 -6.04461,-17.40126 7.99586,-37.56052 31.327,-45.06794 23.38888,-7.44243 47.1476,0.73988 53.21556,18.15679 5.96409,17.47375 -8.07171,37.72847 -31.38007,45.0984 z"
         id="path1164" /></mask><mask
       id="mask-29"
       x="335.61029"
       y="330.84144"
       width="94.52786"
       height="74.50375"
       maskUnits="userSpaceOnUse"><path
         class="cls-20"
         d="m 394.67719,402.33875 c -25.27027,8.09344 -51,-0.72133 -57.5535,-19.6322 -6.52679,-18.95617 8.66154,-40.83233 33.9244,-48.86737 25.29464,-8.07982 51.02632,0.73628 57.58723,19.68252 6.5098,18.88385 -8.73832,40.75412 -33.95813,48.81705 z"
         id="path1167" /></mask><mask
       id="mask-30"
       x="213.73558"
       y="81.71352"
       width="231.26151"
       height="186.76887"
       maskUnits="userSpaceOnUse"><path
         class="cls-21"
         d="m 304.56744,262.44976 c -62.43712,-17.94 -101.91407,-71.85932 -88.06327,-120.25649 13.769,-48.20631 75.48112,-72.58589 137.82539,-54.51879 62.35293,18.13113 101.645,71.96689 87.94138,120.21713 -13.79489,48.38755 -75.45032,72.76239 -137.7035,54.55815 z"
         id="path1170" /></mask><mask
       id="mask-31"
       x="204.75485"
       y="78.76513"
       width="251.39976"
       height="203.02455"
       maskUnits="userSpaceOnUse"><path
         class="cls-23"
         d="m 303.37149,275.23306 c -67.66617,-19.6752 -110.68264,-78.10791 -95.60377,-130.5838 14.96957,-52.45708 81.95971,-79.0891 149.805,-59.38995 67.80548,19.82745 110.48127,78.25937 95.63393,130.75557 -15.1044,52.35944 -82.02751,79.04543 -149.83516,59.21818 z"
         id="path1173" /></mask><mask
       id="mask-32"
       x="191.2281"
       y="81.1527"
       width="269.08788"
       height="208.1576"
       maskUnits="userSpaceOnUse"><path
         class="cls-24"
         d="m 298.08383,281.98631 c -72.56172,-21.12656 -119.17175,-81.58157 -103.98689,-135.11 15.264,-53.37633 86.46223,-79.536 159.25716,-58.39518 72.66079,21.04844 119.30925,81.55209 104.08006,135.154 -15.20123,53.42055 -86.67745,79.45271 -159.35033,58.35118 z"
         id="path1176" /></mask><mask
       id="mask-33"
       x="215.89624"
       y="87.67949"
       width="238.39812"
       height="192.46132"
       maskUnits="userSpaceOnUse"><path
         class="cls-25"
         d="m 309.41093,274.0523 c -64.22419,-18.66006 -104.84084,-74.16477 -90.70738,-123.87756 14.191,-49.72787 77.74836,-75.01151 142.03,-56.351 64.33594,18.64045 104.89445,74.15537 90.74545,124.10813 -14.21849,49.5562 -77.87465,74.61972 -142.06807,56.12043 z"
         id="path1179" /></mask><mask
       id="mask-34"
       x="259.57758"
       y="105.30577"
       width="192.87421"
       height="155.85637"
       maskUnits="userSpaceOnUse"><path
         class="cls-26"
         d="m 335.20556,256.2118 c -51.96881,-15.10627 -84.83889,-60.09273 -73.3317,-100.29129 11.42419,-40.3557 63.00372,-60.77365 114.92913,-45.59921 52.02921,15.09529 84.71211,59.99847 73.41833,100.44225 -11.56906,40.15937 -62.94158,60.47045 -115.01576,45.44825 z"
         id="path1182" /></mask><mask
       id="mask-35"
       x="274.93038"
       y="91.38232"
       width="156.93688"
       height="138.18562"
       maskUnits="userSpaceOnUse"><path
         class="cls-27"
         d="m 322.28951,216.20267 c -39.697,-22.50978 -58.13053,-65.87311 -40.89071,-96.58185 17.16168,-30.81117 63.38662,-37.36316 103.12352,-14.92593 39.7804,22.67147 58.05755,65.76959 40.902,96.64522 -17.17295,30.74798 -63.37818,37.41228 -103.13481,14.86256 z"
         id="path1185" /></mask><mask
       id="mask-37"
       x="259.91739"
       y="89.55018"
       width="178.4509"
       height="157.21463"
       maskUnits="userSpaceOnUse"><path
         class="cls-28"
         d="M 313.74946,231.54072 C 268.46981,205.92008 247.68502,156.68016 267.31366,121.62793 286.72923,86.674 339.197,79.143 384.52232,104.69489 c 45.30288,25.7375 65.968,74.93786 46.56044,109.9513 -19.64701,34.93396 -72.26189,42.61207 -117.3333,16.89453 z"
         id="path1188" /></mask><mask
       id="mask-38"
       x="249.55501"
       y="88.22995"
       width="193.26422"
       height="170.22567"
       maskUnits="userSpaceOnUse"><path
         class="cls-29"
         d="m 307.858,242.03108 c -49.03133,-27.73114 -71.48535,-80.94523 -50.3634,-118.90728 21.233,-37.98652 78.101,-46.234 127.02774,-18.42891 49.0441,27.78928 71.49881,81.00842 50.3304,119.03382 -21.14074,37.85402 -78.08443,45.99917 -126.99474,18.30237 z"
         id="path1191" /></mask><clipPath
       id="clip-path-11"><circle
         class="cls-52"
         cx="283.50018"
         cy="283.3248"
         r="213.63554"
         id="circle1194" /></clipPath><mask
       id="mask-39"
       x="192.12885"
       y="45.84999"
       width="272.96878"
       height="220.45204"
       maskUnits="userSpaceOnUse"><path
         class="cls-30"
         d="M 299.342,259.18143 C 225.6445,238.006 179.048,174.36252 195.39676,117.23707 211.64889,60.33691 284.49065,31.56055 358.07851,52.886 431.67659,74.287 478.05491,137.83189 461.87984,194.78391 445.59708,251.898 372.8223,280.6687 299.342,259.18143 Z"
         id="path1197" /></mask><mask
       id="mask-40"
       x="181.52848"
       y="42.36987"
       width="296.7389"
       height="239.63937"
       maskUnits="userSpaceOnUse"><path
         class="cls-31"
         d="M 297.93032,274.27016 C 218.06077,251.0466 167.28641,182.07575 185.08471,120.136 202.754,58.21844 281.8256,26.78343 361.90661,50.03526 c 80.034,23.40326 130.40622,92.37319 112.8812,154.33691 -17.82847,61.8023 -96.82095,93.30102 -176.85749,69.89799 z"
         id="path1200" /></mask><mask
       id="mask-41"
       x="165.56222"
       y="45.18803"
       width="317.61702"
       height="245.69815"
       maskUnits="userSpaceOnUse"><path
         class="cls-33"
         d="M 291.689,282.24134 C 206.041,257.30467 151.025,185.9468 168.94841,122.76469 186.96523,59.76211 271.00383,28.88458 356.92708,53.83812 442.69201,78.68258 497.75338,150.09787 479.77766,213.36674 461.835,276.42149 377.46824,307.14846 291.689,282.24134 Z"
         id="path1203" /></mask><mask
       id="mask-42"
       x="194.67918"
       y="52.89191"
       width="281.39246"
       height="227.1711"
       maskUnits="userSpaceOnUse"><path
         class="cls-34"
         d="M 305.059,272.87646 C 229.25213,250.85112 181.3104,185.33631 197.99278,126.658 c 16.75026,-58.69613 91.77,-88.53959 167.64468,-66.51372 75.93869,22.0022 123.81176,87.52906 107.11111,146.49064 -16.78278,58.49346 -91.91912,88.07708 -167.68957,66.24154 z"
         id="path1206" /></mask><mask
       id="mask-43"
       x="246.23831"
       y="73.69703"
       width="227.65846"
       height="183.96457"
       maskUnits="userSpaceOnUse"><path
         class="cls-35"
         d="M 335.50556,251.81848 C 274.16434,233.98785 235.36625,180.88821 248.94872,133.43998 262.43323,85.80626 323.315,61.706 384.60495,79.61709 c 61.41251,17.81768 99.98967,70.819 86.65909,118.55669 -13.6555,47.40199 -74.29289,71.37614 -135.75848,53.6447 z"
         id="path1209" /></mask><mask
       id="mask-44"
       x="264.35994"
       y="57.26253"
       width="185.23995"
       height="163.10696"
       maskUnits="userSpaceOnUse"><path
         class="cls-36"
         d="m 320.26014,204.59382 c -46.85622,-26.56934 -68.61418,-77.7531 -48.26522,-114.00007 20.25674,-36.36786 74.8182,-44.10148 121.72151,-17.61777 46.95467,26.7602 68.52805,77.63092 48.27858,114.07488 -20.27001,36.29327 -74.80826,44.15945 -121.73487,17.54296 z"
         id="path1212" /></mask><mask
       id="mask-46"
       x="246.63941"
       y="55.09997"
       width="210.63395"
       height="185.56778"
       maskUnits="userSpaceOnUse"><path
         class="cls-37"
         d="m 310.17992,222.69805 c -53.44569,-30.24124 -77.97895,-88.36142 -54.81034,-129.73521 22.9171,-41.25775 84.84725,-50.14693 138.34685,-19.98686 53.47311,30.37917 77.86507,88.45267 54.95748,129.78066 -23.19029,41.2342 -85.29409,50.29703 -138.49399,19.94141 z"
         id="path1215" /></mask><mask
       id="mask-47"
       x="234.40821"
       y="53.54164"
       width="228.1188"
       height="200.92533"
       maskUnits="userSpaceOnUse"><path
         class="cls-38"
         d="M 303.22593,235.08031 C 245.35193,202.34795 218.84843,139.53687 243.77966,94.72848 268.842,49.89122 335.96592,40.15636 393.71643,72.976 c 57.88905,32.801 84.3934,95.618 59.40733,140.50119 -24.95338,44.68081 -92.16668,54.29495 -149.89783,21.60312 z"
         id="path1218" /></mask><clipPath
       id="clip-path-12"><path
         class="cls-55"
         d="m 307.60909,234.54752 c -49.03134,-27.73114 -71.48535,-80.94523 -50.3634,-118.90728 21.233,-37.98652 78.101,-46.234 127.02773,-18.42891 49.0441,27.78928 71.49882,81.00842 50.3304,119.03382 -21.14072,37.85402 -78.0844,45.99917 -126.99473,18.30237 z"
         clip-path="url(#clip-path-2)"
         id="path1221" /></clipPath><mask
       id="mask-48"
       x="-139.2939"
       y="166.6404"
       width="272.96878"
       height="220.45204"
       maskUnits="userSpaceOnUse"><path
         class="cls-39"
         d="m -32.0808,379.97184 c -73.69745,-21.17546 -120.29395,-84.81891 -103.9452,-141.94437 16.25214,-56.90015 89.0939,-85.67652 162.68175,-64.35107 73.59809,21.401 119.9764,84.94589 103.80133,141.8979 -16.28275,57.11409 -89.05754,85.88481 -162.53788,64.39754 z"
         id="path1224" /></mask><mask
       id="mask-49"
       x="-149.89427"
       y="163.16028"
       width="296.7389"
       height="239.63937"
       maskUnits="userSpaceOnUse"><path
         class="cls-40"
         d="M -33.49244,395.06057 C -113.362,371.837 -164.13634,302.86615 -146.338,240.9264 c 17.66929,-61.91755 96.74088,-93.35257 176.82189,-70.10074 80.034,23.40327 130.40622,92.3732 112.88121,154.33692 -17.82852,61.8023 -96.82099,93.30102 -176.85754,69.89799 z"
         id="path1227" /></mask><mask
       id="mask-50"
       x="-165.86053"
       y="165.97843"
       width="317.61702"
       height="245.69815"
       maskUnits="userSpaceOnUse"><path
         class="cls-41"
         d="m -39.73371,403.03175 c -85.648,-24.93667 -140.664,-96.29454 -122.74059,-159.47666 18.01682,-63.00258 102.05542,-93.8801 187.97867,-68.92656 85.76493,24.84447 140.8263,96.25975 122.85063,159.52862 -17.94278,63.05474 -102.30951,93.78172 -188.08871,68.8746 z"
         id="path1230" /></mask><mask
       id="mask-51"
       x="-136.74357"
       y="173.68231"
       width="281.39246"
       height="227.1711"
       maskUnits="userSpaceOnUse"><path
         class="cls-43"
         d="m -26.3638,393.66687 c -75.80682,-22.02534 -123.74855,-87.54016 -107.0662,-146.21849 16.75025,-58.69613 91.77,-88.53959 167.64467,-66.51373 75.9387,22.00221 123.81176,87.52907 107.11111,146.49065 C 124.543,385.91879 49.4067,415.50244 -26.3638,393.66687 Z"
         id="path1233" /></mask><mask
       id="mask-52"
       x="-85.18444"
       y="194.48744"
       width="227.65846"
       height="183.96457"
       maskUnits="userSpaceOnUse"><path
         class="cls-44"
         d="M 4.08281,372.60888 C -57.25841,354.77825 -96.0565,301.67862 -82.474,254.23039 c 13.48451,-47.63373 74.36623,-71.734 135.65622,-53.82289 61.41252,17.81768 99.98967,70.819 86.6591,118.55669 -13.65553,47.40199 -74.29292,71.37614 -135.75851,53.64469 z"
         id="path1236" /></mask><mask
       id="mask-53"
       x="-67.06281"
       y="178.05294"
       width="185.23995"
       height="163.10696"
       maskUnits="userSpaceOnUse"><path
         class="cls-45"
         d="M -11.16262,325.38423 C -58.01884,298.81489 -79.7768,247.63113 -59.42783,211.38416 -39.1711,175.0163 15.39036,167.28267 62.29368,193.76639 c 46.95467,26.7602 68.528,77.63092 48.27858,114.07488 C 90.3022,344.13454 35.764,352.00072 -11.16262,325.38423 Z"
         id="path1239" /></mask><mask
       id="mask-55"
       x="-84.78334"
       y="175.89038"
       width="210.63395"
       height="185.56778"
       maskUnits="userSpaceOnUse"><path
         class="cls-46"
         d="m -21.24283,343.48845 c -53.44569,-30.24123 -77.979,-88.36141 -54.81035,-129.7352 22.9171,-41.25775 84.84726,-50.14693 138.34686,-19.98686 53.47311,30.37917 77.86507,88.45266 54.95748,129.78066 -23.19029,41.23419 -85.2941,50.29702 -138.49399,19.9414 z"
         id="path1242" /></mask><mask
       id="mask-56"
       x="-97.01455"
       y="174.33204"
       width="228.1188"
       height="200.92533"
       maskUnits="userSpaceOnUse"><path
         class="cls-47"
         d="m -28.19682,355.87072 c -57.874,-32.73236 -84.3775,-95.54344 -59.44628,-140.35183 25.06231,-44.83727 92.18626,-54.57212 149.93678,-21.7525 57.88905,32.801 84.3934,95.618 59.40733,140.50119 -24.95338,44.68086 -92.16668,54.29496 -149.89783,21.60314 z"
         id="path1245" /></mask></defs><title
     id="title1250">лого 1-07-07-07-07</title><metadata
     id="metadata1945"><rdf:RDF><cc:Work
         rdf:about=""><dc:title>лого 1-07-07-07-07</dc:title></cc:Work></rdf:RDF></metadata><path
     style="fill:#000000;stroke-width:0.768792"
     d="m 218.10433,486.50488 c -0.19697,-0.54163 -0.27078,-26.333 -0.16401,-57.31416 l 0.19411,-56.32939 105.96852,-0.19967 105.96851,-0.19967 v 57.51383 57.51384 h -105.8045 c -83.95246,0 -105.87847,-0.20339 -106.16263,-0.98478 z m 102.27061,-15.65346 -0.21064,-9.54782 -4.87643,-1.57056 c -13.44426,-4.33003 -21.75403,-16.22225 -20.82838,-29.80777 0.45165,-6.62882 2.66288,-11.59183 7.6607,-17.19414 4.00615,-4.4907 10.36375,-8.24791 15.49753,-9.15872 l 2.92169,-0.51837 v -11.7481 -11.74811 h -47.26384 -47.26383 v 14.95005 14.95004 l 12.94129,0.21556 12.94129,0.21556 v 22.05906 22.05906 l -12.94129,0.21555 -12.94129,0.21557 v 12.45527 c 0,6.85039 0.22507,12.69162 0.50015,12.98048 0.27507,0.28887 21.55419,0.52522 47.28692,0.52522 h 46.78678 z m 102.02527,-3.62996 0.20606,-12.78387 -13.3349,-0.21522 -13.3349,-0.21521 -0.19998,-21.17478 c -0.14132,-14.9629 0.0507,-21.49197 0.65452,-22.25602 0.66258,-0.83838 3.70221,-1.08123 13.53294,-1.08123 h 12.67842 l -0.2041,-14.77169 -0.20411,-14.77169 h -46.88873 -46.88872 l -0.20802,10.71827 c -0.23376,12.04496 -0.34586,11.76842 5.36395,13.23229 8.52551,2.18576 15.77265,8.04536 19.74239,15.96255 1.90358,3.79645 2.10843,4.97044 2.10843,12.08324 0,7.13234 -0.20312,8.28848 -2.14539,12.21126 -3.96435,8.00677 -12.45187,14.58345 -21.43012,16.60546 l -3.80635,0.85723 v 8.86338 c 0,4.87487 0.2276,9.10239 0.50578,9.39452 0.27818,0.29211 21.4625,0.43983 47.07627,0.32826 l 46.57051,-0.20287 z M 320.1816,411.22025 c -0.78887,-0.82841 -6.44755,1.56185 -9.55158,4.03466 -7.26775,5.78982 -10.09406,14.04779 -7.69372,22.47973 1.90061,6.6765 8.47476,13.12957 15.35245,15.06968 l 1.87555,0.52907 0.20002,-20.85561 c 0.11001,-11.47059 0.0278,-21.03648 -0.18272,-21.25753 z m 15.3622,40.08226 c 4.58173,-2.20014 6.6254,-4.02243 9.35615,-8.34269 7.64228,-12.09068 1.18626,-27.55521 -13.24321,-31.72236 -2.2417,-0.6474 -2.84208,-0.5777 -3.18844,0.37012 -0.59449,1.62687 -0.53795,40.83841 0.0598,41.4661 0.60419,0.63449 3.55988,-0.1117 7.0157,-1.77117 z M 244.01701,431.9481 v -14.57474 h -9.00264 -9.00263 v 14.57474 14.57473 h 9.00263 9.00264 z m 178.38163,0.19696 -0.20448,-14.37778 -9.19019,-0.22121 -9.19019,-0.2212 v 14.59898 14.59898 h 9.39467 9.39467 z m -299.16698,35.1463 c -4.44714,-0.88029 -9.07223,-2.88872 -9.76,-4.23825 -0.88829,-1.74297 -1.00579,-13.37898 -0.1351,-13.37898 0.33438,0 2.77095,0.89015 5.41459,1.97812 6.55675,2.69837 15.47838,3.39666 21.17566,1.65739 7.80069,-2.38138 10.48544,-9.34836 5.77394,-14.98344 -2.9586,-3.53855 -6.03655,-4.54223 -15.69816,-5.11894 l -7.89626,-0.47134 -0.21789,-6.49954 -0.2179,-6.49955 h 4.86984 c 5.79281,0 12.00643,-1.26638 14.94666,-3.04626 4.61013,-2.79074 5.23619,-10.24905 1.16248,-13.84867 -4.20185,-3.71284 -14.08285,-3.56591 -21.8622,0.32508 l -4.35957,2.18053 0.21352,-7.49823 0.21352,-7.49822 4.12621,-1.57127 c 3.41915,-1.30202 6.11884,-1.58195 15.75461,-1.6336 10.97633,-0.0589 11.85979,0.0511 15.75461,1.95929 8.48695,4.15817 12.00352,9.17096 12.00352,17.11076 0,8.21423 -3.745,14.33835 -10.42162,17.04228 -2.10791,0.85367 -3.83256,1.7512 -3.83256,1.99452 0,0.24331 1.52053,0.91385 3.37895,1.49008 4.44349,1.37777 8.89927,4.83919 11.23847,8.73044 1.56507,2.6035 1.88741,4.10905 1.88741,8.81532 0,10.97592 -4.94924,17.00543 -18.00527,21.93529 -2.61259,0.9865 -21.8492,1.79133 -25.50746,1.06719 z m 94.87267,-120.23125 c -0.19697,-0.54163 -0.27078,-26.333 -0.16401,-57.31416 l 0.19411,-56.32938 105.96852,-0.19968 105.96851,-0.19967 v 57.51384 57.51383 h -105.8045 c -83.95246,0 -105.87847,-0.20339 -106.16263,-0.98478 z m 102.27061,-15.63483 -0.21064,-9.5292 -5.39912,-1.79633 c -6.89821,-2.29509 -12.44743,-6.58641 -16.01723,-12.38643 -7.22709,-11.74218 -5.5476,-25.58729 4.28897,-35.35661 4.15375,-4.12535 9.85845,-7.32879 14.68916,-8.24861 l 2.81333,-0.53568 v -11.72968 -11.72967 h -47.26384 -47.26383 v 14.95005 14.95003 l 12.94129,0.21557 12.94129,0.21555 v 22.05906 22.05906 l -12.94129,0.21556 -12.94129,0.21556 v 12.45527 c 0,6.8504 0.22507,12.69162 0.50015,12.98048 0.27507,0.28887 21.55419,0.52522 47.28692,0.52522 h 46.78678 z m 101.00764,9.051 c 1.01312,-0.40826 1.18669,-2.30683 1.18669,-12.98091 v -12.50271 l -13.3164,-0.21514 -13.3164,-0.21513 -0.19998,-21.17478 c -0.14132,-14.9629 0.0507,-21.49197 0.65452,-22.25601 0.66258,-0.83838 3.70221,-1.08124 13.53294,-1.08124 h 12.67842 l -0.2041,-14.77169 -0.20411,-14.77169 h -46.88873 -46.88872 l -0.20802,10.71828 c -0.23376,12.04495 -0.34586,11.76842 5.36395,13.23229 8.4833,2.17493 15.81048,8.14238 19.83479,16.15401 1.79869,3.58087 2.01603,4.86284 2.01603,11.89177 0,7.13234 -0.20312,8.28848 -2.14539,12.21127 -4.01173,8.10246 -12.34491,14.55936 -21.43101,16.60565 l -3.80546,0.85703 v 8.86339 c 0,4.87486 0.22507,9.09973 0.50015,9.38859 0.62487,0.6562 91.21525,0.70208 92.84083,0.047 z M 320.53941,292.89725 c 0,-23.92186 0.36161,-22.66151 -5.6757,-19.78193 -4.1297,1.96972 -8.23311,5.88341 -10.58242,10.09312 -2.59444,4.649 -2.81648,12.35403 -0.50622,17.56704 2.56605,5.79022 8.07126,10.59091 14.51368,12.65628 1.03155,0.33071 1.95995,0.63176 2.0631,0.66901 0.10316,0.0372 0.18756,-9.50435 0.18756,-21.20352 z m 15.00439,18.96049 c 4.62494,-2.22088 6.63225,-4.03334 9.51713,-8.59335 2.62958,-4.15646 2.82117,-4.85871 2.82835,-10.36714 0.009,-7.03926 -1.49694,-10.61772 -6.51205,-15.4722 -3.44757,-3.33715 -9.1836,-6.14712 -11.56597,-5.66595 -1.30936,0.26446 -1.40681,1.50739 -1.59535,20.34718 -0.11044,11.03604 -0.0335,20.52348 0.17108,21.08321 0.42261,1.15651 2.95725,0.68486 7.15681,-1.33175 z M 244.01701,292.50333 V 277.9286 h -9.00264 -9.00263 v 14.57473 14.57474 h 9.00263 9.00264 z m 178.38163,0.19696 -0.20448,-14.37778 -9.19019,-0.22121 -9.19019,-0.2212 v 14.59898 14.59899 h 9.39467 9.39467 z m -313.15422,35.24314 c -0.23992,-0.65655 -0.0411,-4.03099 0.44171,-7.49878 1.63257,-11.72492 6.46733,-18.26263 21.04772,-28.46136 12.79098,-8.94706 15.75462,-12.6791 15.75462,-19.83936 0,-6.25851 -3.898,-9.18398 -12.23708,-9.18398 -5.51191,0 -11.32773,1.87737 -16.69372,5.38879 l -3.70376,2.42369 -0.22135,-6.46666 c -0.29904,-8.73623 -0.0779,-9.33135 4.20304,-11.30842 7.08372,-3.27153 13.6705,-4.44647 22.81367,-4.06947 7.62743,0.31451 8.9652,0.60082 13.52092,2.89375 8.74363,4.40074 12.35451,11.22068 11.59839,21.9061 -0.33293,4.70498 -0.83309,6.34768 -2.99837,9.8478 -4.21517,6.81369 -8.24322,10.38404 -21.95674,19.4618 -6.28909,4.1631 -10.07962,7.90211 -10.07962,9.94259 0,1.02581 2.41409,1.18856 17.63016,1.18856 h 17.63016 v 7.48432 7.48433 H 137.8374 c -24.46168,0 -28.21403,-0.15665 -28.59298,-1.1937 z M 218.10433,204.46405 c -0.19697,-0.54163 -0.27078,-26.333 -0.16401,-57.31416 l 0.19411,-56.329388 105.96852,-0.199674 105.96851,-0.199674 V 147.935 205.44883 h -105.8045 c -83.95246,0 -105.87847,-0.20339 -106.16263,-0.98478 z m 102.43508,-15.58423 c 0,-6.90476 -0.25465,-9.55648 -0.93778,-9.76534 -7.94788,-2.43005 -10.25916,-3.47912 -13.94814,-6.33091 -13.75981,-10.63712 -15.19503,-29.4639 -3.23299,-42.40925 3.83608,-4.1514 10.40924,-7.99327 15.09969,-8.82544 l 3.01922,-0.53567 V 109.2592 97.505161 l -47.07628,0.202881 -47.07628,0.202872 v 14.968656 14.96864 l 12.95313,0.21562 12.95311,0.21561 -0.19938,21.84344 -0.19939,21.84345 -12.94129,0.21556 -12.94129,0.21556 v 12.45527 c 0,6.8504 0.22507,12.69162 0.50015,12.98048 0.27507,0.28887 21.5438,0.52522 47.26383,0.52522 h 46.76369 z m 101.8608,-3.69919 0.20606,-12.78387 -13.3349,-0.21522 -13.3349,-0.21521 v -21.66514 -21.66515 l 13.12884,-0.44124 c 7.22087,-0.24268 13.2207,-0.50857 13.33296,-0.59087 0.11226,-0.0823 0.11226,-6.79689 0,-14.92132 l -0.20411,-14.771696 h -46.88873 -46.88872 l -0.21683,9.847796 c -0.28245,12.82791 -0.21003,13.08781 3.82418,13.7231 8.14858,1.2832 16.72614,7.88463 21.1499,16.27732 2.07961,3.9454 2.25066,4.86863 2.25066,12.14814 0,7.47788 -0.13066,8.1313 -2.5711,12.85802 -4.18147,8.09878 -11.79778,13.885 -21.00646,15.9589 l -3.80546,0.85703 v 8.86339 c 0,4.87486 0.2276,9.10238 0.50578,9.39451 0.27818,0.29212 21.4625,0.43983 47.07627,0.32826 l 46.57051,-0.20287 z M 320.1816,129.17942 c -0.78887,-0.82841 -6.44755,1.56186 -9.55158,4.03467 -12.07314,9.61801 -11.28777,26.23188 1.64533,34.80541 1.56567,1.0379 3.98118,2.19597 5.3678,2.57347 l 2.52115,0.68639 0.20002,-20.84901 c 0.11001,-11.46695 0.0278,-21.02987 -0.18272,-21.25093 z m 15.3622,40.17367 c 4.32212,-2.03221 7.32828,-4.79733 9.87833,-9.08623 2.14591,-3.60919 2.41562,-4.70919 2.44351,-9.96567 0.0374,-7.03944 -1.45635,-10.60132 -6.48841,-15.4722 -3.44757,-3.33715 -9.1836,-6.14712 -11.56597,-5.66595 -1.30936,0.26446 -1.40681,1.50739 -1.59535,20.34718 -0.11044,11.03604 -0.0335,20.52348 0.17108,21.08321 0.4236,1.15921 3.0049,0.71186 7.15681,-1.24034 z m -91.52679,-19.44582 v -14.57473 h -9.00264 -9.00263 v 14.57473 14.57474 h 9.00263 9.00264 z m 178.38163,0.19696 -0.20448,-14.37778 -9.19019,-0.22121 -9.19019,-0.2212 v 14.59898 14.59899 h 9.39467 9.39467 z m -290.91457,8.23075 c 0,-16.40664 -0.19702,-30.03715 -0.43783,-30.29003 -0.24081,-0.25288 -1.59216,0.25543 -3.003,1.12957 -2.11443,1.31007 -11.9505,4.51964 -14.00177,4.56887 -1.02839,0.0247 -0.65985,-14.97715 0.37511,-15.26941 5.32997,-1.5051 12.59342,-4.46735 17.85821,-7.2831 5.929,-3.17098 6.85727,-3.43217 12.19795,-3.43217 h 5.78057 l -0.19443,39.98205 -0.19443,39.98204 -9.19019,0.22121 -9.19019,0.2212 z"
     id="path541" /></svg>
