<?xml version="1.0" encoding="UTF-8" standalone="no"?>
<svg
   viewBox="0 0 558.57268 561.12316"
   version="1.1"
   id="svg1793"
   sodipodi:docname="ПЛАНЫ.svg"
   xml:space="preserve"
   inkscape:version="1.2.1 (9c6d41e410, 2022-07-14)"
   width="558.57269"
   height="561.12317"
   xmlns:inkscape="http://www.inkscape.org/namespaces/inkscape"
   xmlns:sodipodi="http://sodipodi.sourceforge.net/DTD/sodipodi-0.dtd"
   xmlns:xlink="http://www.w3.org/1999/xlink"
   xmlns="http://www.w3.org/2000/svg"
   xmlns:svg="http://www.w3.org/2000/svg"
   xmlns:rdf="http://www.w3.org/1999/02/22-rdf-syntax-ns#"
   xmlns:cc="http://creativecommons.org/ns#"
   xmlns:dc="http://purl.org/dc/elements/1.1/"><sodipodi:namedview
     id="namedview1795"
     pagecolor="#ffffff"
     bordercolor="#111111"
     borderopacity="1"
     inkscape:showpageshadow="0"
     inkscape:pageopacity="0"
     inkscape:pagecheckerboard="1"
     inkscape:deskcolor="#d1d1d1"
     showgrid="false"
     inkscape:zoom="1.0439548"
     inkscape:cx="143.68438"
     inkscape:cy="302.21615"
     inkscape:window-width="1920"
     inkscape:window-height="1018"
     inkscape:window-x="-6"
     inkscape:window-y="-6"
     inkscape:window-maximized="1"
     inkscape:current-layer="svg1793" /><defs
     id="defs1248"><style
       id="style920">
      .cls-1 {
        fill: url(#radial-gradient);
      }

      .cls-2 {
        fill: url(#radial-gradient-2);
      }

      .cls-3 {
        fill: url(#radial-gradient-3);
      }

      .cls-4 {
        fill: url(#radial-gradient-4);
      }

      .cls-5 {
        fill: url(#radial-gradient-5);
      }

      .cls-6 {
        fill: url(#radial-gradient-6);
      }

      .cls-7 {
        fill: url(#radial-gradient-7);
      }

      .cls-8 {
        fill: url(#radial-gradient-8);
      }

      .cls-9 {
        fill: url(#radial-gradient-9);
      }

      .cls-10 {
        fill: url(#radial-gradient-11);
      }

      .cls-11 {
        fill: url(#radial-gradient-12);
      }

      .cls-12 {
        fill: url(#radial-gradient-13);
      }

      .cls-13 {
        fill: url(#radial-gradient-14);
      }

      .cls-14 {
        fill: url(#radial-gradient-15);
      }

      .cls-15 {
        fill: url(#radial-gradient-16);
      }

      .cls-16 {
        fill: url(#radial-gradient-17);
      }

      .cls-17 {
        fill: url(#radial-gradient-18);
      }

      .cls-18 {
        fill: url(#radial-gradient-19);
      }

      .cls-19 {
        fill: url(#radial-gradient-21);
      }

      .cls-20 {
        fill: url(#radial-gradient-22);
      }

      .cls-21 {
        fill: url(#radial-gradient-23);
      }

      .cls-22 {
        fill: url(#radial-gradient-24);
      }

      .cls-23 {
        fill: url(#radial-gradient-25);
      }

      .cls-24 {
        fill: url(#radial-gradient-26);
      }

      .cls-25 {
        fill: url(#radial-gradient-27);
      }

      .cls-26 {
        fill: url(#radial-gradient-28);
      }

      .cls-27 {
        fill: url(#radial-gradient-29);
      }

      .cls-28 {
        fill: url(#radial-gradient-31);
      }

      .cls-29 {
        fill: url(#radial-gradient-32);
      }

      .cls-30 {
        fill: url(#radial-gradient-33);
      }

      .cls-31 {
        fill: url(#radial-gradient-34);
      }

      .cls-32 {
        fill: url(#radial-gradient-35);
      }

      .cls-33 {
        fill: url(#radial-gradient-36);
      }

      .cls-34 {
        fill: url(#radial-gradient-37);
      }

      .cls-35 {
        fill: url(#radial-gradient-38);
      }

      .cls-36 {
        fill: url(#radial-gradient-39);
      }

      .cls-37 {
        fill: url(#radial-gradient-41);
      }

      .cls-38 {
        fill: url(#radial-gradient-42);
      }

      .cls-39 {
        fill: url(#radial-gradient-43);
      }

      .cls-40 {
        fill: url(#radial-gradient-44);
      }

      .cls-41 {
        fill: url(#radial-gradient-45);
      }

      .cls-42 {
        fill: url(#radial-gradient-46);
      }

      .cls-43 {
        fill: url(#radial-gradient-47);
      }

      .cls-44 {
        fill: url(#radial-gradient-48);
      }

      .cls-45 {
        fill: url(#radial-gradient-49);
      }

      .cls-46 {
        fill: url(#radial-gradient-51);
      }

      .cls-47 {
        fill: url(#radial-gradient-52);
      }

      .cls-48 {
        fill: url(#radial-gradient-53);
      }

      .cls-49 {
        fill: url(#radial-gradient-54);
      }

      .cls-50 {
        fill: url(#radial-gradient-56);
      }

      .cls-51 {
        fill: url(#radial-gradient-57);
      }

      .cls-52, .cls-53, .cls-54, .cls-55, .cls-56, .cls-57, .cls-58, .cls-59, .cls-60, .cls-86 {
        fill: none;
      }

      .cls-53 {
        clip-path: url(#clip-path);
      }

      .cls-54 {
        clip-path: url(#clip-path-8);
      }

      .cls-55 {
        clip-path: url(#clip-path-2);
      }

      .cls-56 {
        clip-path: url(#clip-path-3);
      }

      .cls-57 {
        clip-path: url(#clip-path-4);
      }

      .cls-58 {
        clip-path: url(#clip-path-5);
      }

      .cls-59 {
        clip-path: url(#clip-path-6);
      }

      .cls-60 {
        clip-path: url(#clip-path-7);
      }

      .cls-61 {
        isolation: isolate;
      }

      .cls-62 {
        clip-path: url(#clip-path-9);
      }

      .cls-63 {
        mask: url(#mask);
      }

      .cls-64, .cls-69 {
        fill: #fff;
      }

      .cls-64, .cls-90 {
        mix-blend-mode: overlay;
      }

      .cls-65 {
        mask: url(#mask-2);
      }

      .cls-66 {
        mask: url(#mask-3);
      }

      .cls-67 {
        mask: url(#mask-4);
      }

      .cls-68 {
        mask: url(#mask-5);
      }

      .cls-70 {
        mask: url(#mask-6);
      }

      .cls-71 {
        opacity: 0.3;
        fill: url(#radial-gradient-58);
      }

      .cls-71, .cls-80, .cls-81, .cls-82, .cls-83, .cls-84 {
        mix-blend-mode: color-dodge;
      }

      .cls-72, .cls-90 {
        opacity: 0.5;
      }

      .cls-73 {
        mix-blend-mode: multiply;
      }

      .cls-74 {
        clip-path: url(#clip-path-10);
      }

      .cls-75 {
        fill: url(#linear-gradient);
      }

      .cls-76 {
        fill: url(#linear-gradient-2);
      }

      .cls-77 {
        fill: url(#linear-gradient-3);
      }

      .cls-78 {
        fill: url(#linear-gradient-4);
      }

      .cls-79 {
        fill: #f7e8da;
      }

      .cls-80 {
        opacity: 0.8;
        fill: url(#radial-gradient-59);
      }

      .cls-81 {
        opacity: 0.67;
        fill: url(#radial-gradient-60);
      }

      .cls-82 {
        fill: url(#radial-gradient-61);
      }

      .cls-83 {
        fill: url(#radial-gradient-62);
      }

      .cls-84 {
        fill: url(#radial-gradient-63);
      }

      .cls-85, .cls-87 {
        fill: #ff7009;
      }

      .cls-85, .cls-86, .cls-87 {
        stroke: #000;
        stroke-miterlimit: 10;
      }

      .cls-85 {
        stroke-width: 0.17443px;
      }

      .cls-86 {
        stroke-width: 3px;
      }

      .cls-87 {
        stroke-width: 0.17774px;
      }

      .cls-88 {
        mask: url(#mask-7);
      }

      .cls-89 {
        mask: url(#mask-8);
      }

      .cls-90 {
        fill: #030303;
      }

      .cls-91 {
        mask: url(#mask-9);
      }

      .cls-92 {
        mask: url(#mask-10);
      }

      .cls-93 {
        mask: url(#mask-11);
      }

      .cls-94 {
        mask: url(#mask-12);
      }

      .cls-95 {
        mask: url(#mask-13);
      }

      .cls-96 {
        mask: url(#mask-14);
      }

      .cls-97 {
        mask: url(#mask-15);
      }

      .cls-98 {
        mask: url(#mask-16);
      }

      .cls-99 {
        mask: url(#mask-17);
      }

      .cls-100 {
        mask: url(#mask-19);
      }

      .cls-101 {
        mask: url(#mask-20);
      }

      .cls-102 {
        mask: url(#mask-21);
      }

      .cls-103 {
        mask: url(#mask-22);
      }

      .cls-104 {
        mask: url(#mask-23);
      }

      .cls-105 {
        mask: url(#mask-24);
      }

      .cls-106 {
        mask: url(#mask-25);
      }

      .cls-107 {
        mask: url(#mask-26);
      }

      .cls-108 {
        mask: url(#mask-28);
      }

      .cls-109 {
        mask: url(#mask-29);
      }

      .cls-110 {
        opacity: 0.6;
      }

      .cls-111 {
        mask: url(#mask-30);
      }

      .cls-112 {
        mask: url(#mask-31);
      }

      .cls-113 {
        mask: url(#mask-32);
      }

      .cls-114 {
        mask: url(#mask-33);
      }

      .cls-115 {
        mask: url(#mask-34);
      }

      .cls-116 {
        mask: url(#mask-35);
      }

      .cls-117 {
        mask: url(#mask-37);
      }

      .cls-118 {
        mask: url(#mask-38);
      }

      .cls-119 {
        clip-path: url(#clip-path-11);
      }

      .cls-120 {
        mask: url(#mask-39);
      }

      .cls-121 {
        mask: url(#mask-40);
      }

      .cls-122 {
        mask: url(#mask-41);
      }

      .cls-123 {
        mask: url(#mask-42);
      }

      .cls-124 {
        mask: url(#mask-43);
      }

      .cls-125 {
        mask: url(#mask-44);
      }

      .cls-126 {
        mask: url(#mask-46);
      }

      .cls-127 {
        mask: url(#mask-47);
      }

      .cls-128 {
        clip-path: url(#clip-path-12);
      }

      .cls-129 {
        mask: url(#mask-48);
      }

      .cls-130 {
        mask: url(#mask-49);
      }

      .cls-131 {
        mask: url(#mask-50);
      }

      .cls-132 {
        mask: url(#mask-51);
      }

      .cls-133 {
        mask: url(#mask-52);
      }

      .cls-134 {
        mask: url(#mask-53);
      }

      .cls-135 {
        mask: url(#mask-55);
      }

      .cls-136 {
        mask: url(#mask-56);
      }
    </style><radialGradient
       id="radial-gradient"
       cx="8237.7695"
       cy="2885.6951"
       r="136.18636"
       gradientTransform="matrix(-0.216,0.75768,-0.97796,-0.28443,5251.9708,-5143.9097)"
       gradientUnits="userSpaceOnUse"><stop
         offset="0"
         stop-color="#4a4848"
         id="stop922" /><stop
         offset="1"
         stop-color="#020000"
         id="stop924" /></radialGradient><radialGradient
       id="radial-gradient-2"
       cx="8244.7988"
       cy="2882.7891"
       r="148.04797"
       xlink:href="#radial-gradient" /><radialGradient
       id="radial-gradient-3"
       cx="1242.4672"
       cy="1779.7726"
       r="107.5862"
       gradientTransform="matrix(0.78713,0.03506,-0.03996,1.01766,-503.99377,-1573.636)"
       xlink:href="#radial-gradient" /><radialGradient
       id="radial-gradient-4"
       cx="5329.1577"
       cy="2223.0308"
       r="51.176231"
       gradientTransform="matrix(0.41525,0.66956,-0.86839,0.53218,90.78117,-4371.9614)"
       xlink:href="#radial-gradient" /><radialGradient
       id="radial-gradient-5"
       cx="5331.7988"
       cy="2221.9387"
       r="55.633598"
       gradientTransform="matrix(0.41525,0.66956,-0.86839,0.53218,90.78117,-4371.9614)"
       xlink:href="#radial-gradient" /><radialGradient
       id="radial-gradient-6"
       cx="5411.0913"
       cy="2223.4846"
       r="59.705502"
       gradientTransform="matrix(0.39414,0.6355,-0.86839,0.53218,173.60874,-4238.5254)"
       xlink:href="#radial-gradient" /><radialGradient
       id="radial-gradient-7"
       cx="5333.0713"
       cy="2219.5662"
       r="52.76976"
       gradientTransform="matrix(0.41525,0.66956,-0.86839,0.53218,90.78117,-4371.9614)"
       xlink:href="#radial-gradient" /><radialGradient
       id="radial-gradient-8"
       cx="5329.4175"
       cy="2210.874"
       r="42.709541"
       gradientTransform="matrix(0.41525,0.66956,-0.86839,0.53218,90.78117,-4371.9614)"
       xlink:href="#radial-gradient" /><radialGradient
       id="radial-gradient-9"
       cx="5941.6646"
       cy="1909.6281"
       r="36.00251"
       gradientTransform="matrix(0.24993,0.74597,-0.96919,0.31768,741.41231,-4671.9074)"
       xlink:href="#radial-gradient" /><radialGradient
       id="radial-gradient-11"
       cx="5946.6138"
       cy="1909.6034"
       r="40.950062"
       gradientTransform="matrix(0.24993,0.74597,-0.96919,0.31768,741.41231,-4671.9074)"
       xlink:href="#radial-gradient" /><radialGradient
       id="radial-gradient-12"
       cx="5950.0054"
       cy="1909.6295"
       r="44.337971"
       gradientTransform="matrix(0.24993,0.74597,-0.96919,0.31768,741.41231,-4671.9074)"
       xlink:href="#radial-gradient" /><radialGradient
       id="radial-gradient-13"
       cx="8486.1992"
       cy="2886.697"
       r="158.8838"
       gradientTransform="matrix(-0.205,0.71916,-0.97796,-0.28443,5208.9736,-4992.8573)"
       xlink:href="#radial-gradient" /><radialGradient
       id="radial-gradient-14"
       cx="5477.2432"
       cy="2067.3115"
       r="51.176231"
       gradientTransform="matrix(0.44217,0.69344,-0.92468,0.55116,-132.13179,-4563.2389)"
       xlink:href="#radial-gradient" /><radialGradient
       id="radial-gradient-15"
       cx="5479.8848"
       cy="2066.2192"
       r="55.633598"
       gradientTransform="matrix(0.44217,0.69344,-0.92468,0.55116,-132.13179,-4563.2389)"
       xlink:href="#radial-gradient" /><radialGradient
       id="radial-gradient-16"
       cx="5567.1118"
       cy="2067.7678"
       r="59.705502"
       gradientTransform="matrix(0.41969,0.65816,-0.92468,0.55116,-43.93464,-4425.0443)"
       xlink:href="#radial-gradient" /><radialGradient
       id="radial-gradient-17"
       cx="5481.1572"
       cy="2063.8467"
       r="52.76976"
       gradientTransform="matrix(0.44217,0.69344,-0.92468,0.55116,-132.13179,-4563.2389)"
       xlink:href="#radial-gradient" /><radialGradient
       id="radial-gradient-18"
       cx="5477.5029"
       cy="2055.1548"
       r="42.709541"
       gradientTransform="matrix(0.44217,0.69344,-0.92468,0.55116,-132.13179,-4563.2389)"
       xlink:href="#radial-gradient" /><radialGradient
       id="radial-gradient-19"
       cx="6039.2134"
       cy="1731.8132"
       r="36.00251"
       gradientTransform="matrix(0.26613,0.77258,-1.03202,0.329,560.67877,-4873.8813)"
       xlink:href="#radial-gradient" /><radialGradient
       id="radial-gradient-21"
       cx="6044.1621"
       cy="1731.7887"
       r="40.950062"
       gradientTransform="matrix(0.26613,0.77258,-1.03202,0.329,560.67877,-4873.8813)"
       xlink:href="#radial-gradient" /><radialGradient
       id="radial-gradient-22"
       cx="6047.5537"
       cy="1731.8148"
       r="44.337971"
       gradientTransform="matrix(0.26613,0.77258,-1.03202,0.329,560.67877,-4873.8813)"
       xlink:href="#radial-gradient" /><radialGradient
       id="radial-gradient-23"
       cx="8227.3965"
       cy="3216.3218"
       r="115.37826"
       xlink:href="#radial-gradient" /><radialGradient
       id="radial-gradient-24"
       cx="8248.1846"
       cy="2876.4751"
       r="140.42693"
       xlink:href="#radial-gradient" /><radialGradient
       id="radial-gradient-25"
       cx="8233.3516"
       cy="3213.8596"
       r="125.42752"
       xlink:href="#radial-gradient" /><radialGradient
       id="radial-gradient-26"
       cx="8472.6631"
       cy="3217.2024"
       r="134.60773"
       gradientTransform="matrix(-0.205,0.71916,-0.97796,-0.28443,5208.9736,-4992.8573)"
       xlink:href="#radial-gradient" /><radialGradient
       id="radial-gradient-27"
       cx="8236.2197"
       cy="3208.5105"
       r="118.9709"
       xlink:href="#radial-gradient" /><radialGradient
       id="radial-gradient-28"
       cx="8227.9824"
       cy="3188.9141"
       r="96.289864"
       xlink:href="#radial-gradient" /><radialGradient
       id="radial-gradient-29"
       cx="9041.7383"
       cy="2354.2156"
       r="81.168671"
       gradientTransform="matrix(-0.38376,0.68678,-0.88708,-0.50332,5911.6147,-4864.3417)"
       xlink:href="#radial-gradient" /><radialGradient
       id="radial-gradient-31"
       cx="9052.8955"
       cy="2354.1602"
       r="92.323067"
       gradientTransform="matrix(-0.38376,0.68678,-0.88708,-0.50332,5911.6147,-4864.3417)"
       xlink:href="#radial-gradient" /><radialGradient
       id="radial-gradient-32"
       cx="9060.542"
       cy="2354.2192"
       r="99.961197"
       gradientTransform="matrix(-0.38376,0.68678,-0.88708,-0.50332,5911.6147,-4864.3417)"
       xlink:href="#radial-gradient" /><radialGradient
       id="radial-gradient-33"
       cx="8204.4668"
       cy="3222.1523"
       r="136.18636"
       xlink:href="#radial-gradient" /><radialGradient
       id="radial-gradient-34"
       cx="8211.4961"
       cy="3219.2461"
       r="148.04797"
       xlink:href="#radial-gradient" /><radialGradient
       id="radial-gradient-35"
       cx="8969.54"
       cy="2028.1936"
       r="117.98889"
       gradientTransform="matrix(-0.38376,0.68678,-0.88708,-0.50332,5911.6147,-4864.3417)"
       xlink:href="#radial-gradient" /><radialGradient
       id="radial-gradient-36"
       cx="8451.1123"
       cy="3223.1536"
       r="158.8838"
       gradientTransform="matrix(-0.205,0.71916,-0.97796,-0.28443,5208.9736,-4992.8573)"
       xlink:href="#radial-gradient" /><radialGradient
       id="radial-gradient-37"
       cx="8214.8818"
       cy="3212.9324"
       r="140.42693"
       xlink:href="#radial-gradient" /><radialGradient
       id="radial-gradient-38"
       cx="8205.1582"
       cy="3189.8018"
       r="113.65543"
       xlink:href="#radial-gradient" /><radialGradient
       id="radial-gradient-39"
       cx="9015.541"
       cy="2361.5068"
       r="95.807182"
       gradientTransform="matrix(-0.38376,0.68678,-0.88708,-0.50332,5911.6147,-4864.3417)"
       xlink:href="#radial-gradient" /><radialGradient
       id="radial-gradient-41"
       cx="9028.71"
       cy="2361.4414"
       r="108.97324"
       gradientTransform="matrix(-0.38376,0.68678,-0.88708,-0.50332,5911.6147,-4864.3417)"
       xlink:href="#radial-gradient" /><radialGradient
       id="radial-gradient-42"
       cx="9037.7354"
       cy="2361.511"
       r="117.98889"
       gradientTransform="matrix(-0.38376,0.68678,-0.88708,-0.50332,5911.6147,-4864.3417)"
       xlink:href="#radial-gradient" /><radialGradient
       id="radial-gradient-43"
       cx="8469.1582"
       cy="3502.5808"
       r="136.18636"
       xlink:href="#radial-gradient" /><radialGradient
       id="radial-gradient-44"
       cx="8476.1865"
       cy="3499.6746"
       r="148.04797"
       xlink:href="#radial-gradient" /><radialGradient
       id="radial-gradient-45"
       cx="8729.9854"
       cy="3503.5867"
       r="158.8838"
       gradientTransform="matrix(-0.205,0.71916,-0.97796,-0.28443,5208.9736,-4992.8573)"
       xlink:href="#radial-gradient" /><radialGradient
       id="radial-gradient-46"
       cx="4089.0166"
       cy="2953.5498"
       r="208.90215"
       gradientTransform="matrix(0.56429,0.85264,-0.8528,0.55736,495.69011,-4848.9425)"
       gradientUnits="userSpaceOnUse"><stop
         offset="0.97191"
         stop-color="#fff"
         id="stop967" /><stop
         offset="1"
         stop-color="#020100"
         id="stop969" /></radialGradient><radialGradient
       id="radial-gradient-47"
       cx="8479.5723"
       cy="3493.3606"
       r="140.42693"
       xlink:href="#radial-gradient" /><radialGradient
       id="radial-gradient-48"
       cx="8469.8486"
       cy="3470.2302"
       r="113.65543"
       xlink:href="#radial-gradient" /><radialGradient
       id="radial-gradient-49"
       cx="9356.9766"
       cy="2587.4109"
       r="95.807182"
       gradientTransform="matrix(-0.38376,0.68678,-0.88708,-0.50332,5911.6147,-4864.3417)"
       xlink:href="#radial-gradient" /><radialGradient
       id="radial-gradient-51"
       cx="9370.1455"
       cy="2587.3455"
       r="108.97324"
       gradientTransform="matrix(-0.38376,0.68678,-0.88708,-0.50332,5911.6147,-4864.3417)"
       xlink:href="#radial-gradient" /><radialGradient
       id="radial-gradient-52"
       cx="9379.1709"
       cy="2587.4153"
       r="117.98889"
       gradientTransform="matrix(-0.38376,0.68678,-0.88708,-0.50332,5911.6147,-4864.3417)"
       xlink:href="#radial-gradient" /><radialGradient
       id="radial-gradient-53"
       cx="3814.9697"
       cy="2883.8525"
       r="141.19342"
       gradientTransform="matrix(0.46822,0.63365,-0.82233,0.60091,826.73182,-3940.4667)"
       xlink:href="#radial-gradient" /><radialGradient
       id="radial-gradient-54"
       cx="570.63708"
       cy="701.14136"
       r="78.270973"
       gradientTransform="matrix(0.76722,-0.31041,0.38936,0.94409,-560.15886,-192.1193)"
       gradientUnits="userSpaceOnUse"><stop
         offset="0"
         stop-color="#595757"
         id="stop978" /><stop
         offset="1"
         stop-color="#020000"
         id="stop980" /></radialGradient><radialGradient
       id="radial-gradient-56"
       cx="1207.584"
       cy="1779.8021"
       r="142.48737"
       gradientTransform="matrix(0.78713,0.03506,-0.03996,1.01766,-503.99377,-1573.636)"
       xlink:href="#radial-gradient" /><radialGradient
       id="radial-gradient-57"
       cx="1216.2158"
       cy="1783.8734"
       r="119.16956"
       gradientTransform="matrix(0.78713,0.03506,-0.03996,1.01766,-503.99377,-1573.636)"
       xlink:href="#radial-gradient" /><clipPath
       id="clip-path"><path
         class="cls-54"
         d="m 322.04061,208.71911 c -39.697,-22.50978 -58.13052,-65.87311 -40.8907,-96.58185 17.16168,-30.81117 63.38662,-37.36316 103.12351,-14.92593 39.7804,22.67147 58.05755,65.76959 40.902,96.64522 -17.17294,30.74798 -63.37818,37.41227 -103.13481,14.86256 z"
         clip-path="url(#clip-path-8)"
         id="path985" /></clipPath><clipPath
       id="clip-path-2"><path
         class="cls-53"
         d="m 313.50056,224.05716 c -45.27964,-25.62064 -66.06444,-74.86056 -46.43579,-109.91279 19.41556,-34.95392 71.88332,-42.48491 117.20865,-16.933 45.30288,25.7375 65.968,74.93786 46.56045,109.9513 -19.64701,34.93392 -72.26187,42.61203 -117.33331,16.89449 z"
         clip-path="url(#clip-path)"
         id="path988" /></clipPath><clipPath
       id="clip-path-3"><path
         class="cls-52"
         d="m 304.31855,254.9662 c -62.43712,-17.94 -101.91408,-71.85932 -88.06327,-120.25649 13.76895,-48.20631 75.48111,-72.58589 137.82538,-54.51879 62.35294,18.13113 101.645,71.96689 87.94138,120.21713 -13.79489,48.38755 -75.45031,72.76235 -137.70349,54.55815 z"
         id="path991" /></clipPath><clipPath
       id="clip-path-4"><path
         class="cls-56"
         d="M 303.1226,267.7495 C 235.45642,248.0743 192.44,189.64159 207.51882,137.1657 222.4884,84.70862 289.47854,58.0766 357.32382,77.77575 425.1293,97.6032 467.8051,156.03512 452.95776,208.53132 437.85335,260.89076 370.93024,287.57675 303.1226,267.7495 Z"
         clip-path="url(#clip-path-3)"
         id="path994" /></clipPath><clipPath
       id="clip-path-5"><path
         class="cls-57"
         d="m 297.83493,274.50275 c -72.56171,-21.12656 -119.17175,-81.58157 -103.98688,-135.11 15.264,-53.37633 86.46223,-79.536 159.25715,-58.39518 72.6608,21.04843 119.30925,81.55209 104.08007,135.15403 -15.20127,53.42052 -86.67746,79.45268 -159.35034,58.35115 z"
         clip-path="url(#clip-path-4)"
         id="path997" /></clipPath><clipPath
       id="clip-path-6"><path
         class="cls-58"
         d="m 309.162,266.56874 c -64.2242,-18.66006 -104.84084,-74.16477 -90.70739,-123.87756 14.191,-49.72787 77.74837,-75.01151 142.03,-56.351 64.33592,18.64046 104.89439,74.15538 90.74546,124.10814 C 437.01161,260.0045 373.35546,285.068 309.162,266.56874 Z"
         clip-path="url(#clip-path-5)"
         id="path1000" /></clipPath><clipPath
       id="clip-path-7"><path
         class="cls-59"
         d="M 334.95666,248.72824 C 282.98786,233.622 250.11778,188.63551 261.625,148.437 273.0492,108.0813 324.62872,87.66335 376.55413,102.83779 428.5833,117.933 461.2662,162.83621 449.97242,203.28 c -11.56905,40.15936 -62.94157,60.47047 -115.01576,45.44824 z"
         clip-path="url(#clip-path-6)"
         id="path1003" /></clipPath><clipPath
       id="clip-path-8"><path
         class="cls-60"
         d="m 322.04061,208.71911 c -39.697,-22.50978 -58.13052,-65.87311 -40.8907,-96.58185 17.16168,-30.81117 63.38662,-37.36316 103.12351,-14.92593 39.7804,22.67147 58.05755,65.76959 40.902,96.64522 -17.17294,30.74798 -63.37818,37.41227 -103.13481,14.86256 z"
         clip-path="url(#clip-path-7)"
         id="path1006" /></clipPath><clipPath
       id="clip-path-9"><circle
         class="cls-52"
         cx="936.02759"
         cy="284.03427"
         r="213.63554"
         id="circle1009" /></clipPath><mask
       id="mask"
       x="513.97873"
       y="166.78018"
       width="272.96878"
       height="220.45204"
       maskUnits="userSpaceOnUse"><path
         class="cls-1"
         d="m 621.19184,380.11162 c -73.69746,-21.17546 -120.294,-84.81892 -103.9452,-141.94437 16.25213,-56.90015 89.09389,-85.67652 162.68175,-64.35107 73.59808,21.401 119.9764,84.94589 103.80133,141.8979 -16.28272,57.11409 -89.05754,85.88481 -162.53788,64.39754 z"
         id="path1012" /></mask><mask
       id="mask-2"
       x="503.37836"
       y="163.30005"
       width="296.7389"
       height="239.63937"
       maskUnits="userSpaceOnUse"><path
         class="cls-2"
         d="M 619.7802,395.20034 C 539.91065,371.97679 489.13629,303.00593 506.93459,241.06618 c 17.66929,-61.91755 96.74089,-93.35257 176.8219,-70.10074 80.034,23.40327 130.40622,92.3732 112.88121,154.33692 -17.82848,61.8023 -96.82096,93.30102 -176.8575,69.89798 z"
         id="path1015" /></mask><mask
       id="mask-3"
       x="487.41211"
       y="166.11821"
       width="317.61702"
       height="245.69815"
       maskUnits="userSpaceOnUse"><path
         class="cls-12"
         d="m 613.53893,403.17153 c -85.648,-24.93667 -140.664,-96.29455 -122.74059,-159.47666 18.01681,-63.00258 102.05541,-93.8801 187.97866,-68.92656 85.76494,24.84445 140.8263,96.25975 122.85058,159.52862 -17.94272,63.05474 -102.30946,93.78171 -188.08865,68.8746 z"
         id="path1018" /></mask><mask
       id="mask-4"
       x="516.52907"
       y="173.82209"
       width="281.39246"
       height="227.1711"
       maskUnits="userSpaceOnUse"><path
         class="cls-22"
         d="M 626.90884,393.80664 C 551.102,371.7813 503.16029,306.26649 519.84266,247.58816 c 16.75026,-58.69613 91.77,-88.53959 167.64468,-66.51373 75.9387,22.0022 123.81176,87.52907 107.11111,146.49065 -16.78278,58.49349 -91.91912,88.07714 -167.68961,66.24156 z"
         id="path1021" /></mask><mask
       id="mask-5"
       x="556.25809"
       y="174.47182"
       width="228.1188"
       height="200.92533"
       maskUnits="userSpaceOnUse"><path
         class="cls-32"
         d="m 625.07581,356.0105 c -57.874,-32.73236 -84.3775,-95.54345 -59.44627,-140.35183 25.06231,-44.83727 92.18626,-54.57212 149.93678,-21.7525 57.88905,32.801 84.3934,95.618 59.40733,140.50119 -24.95339,44.68086 -92.16665,54.29496 -149.89784,21.60314 z"
         id="path1024" /></mask><mask
       id="mask-6"
       x="70.53794"
       y="70.89198"
       width="427.27181"
       height="425.5823"
       maskUnits="userSpaceOnUse"><path
         class="cls-42"
         d="M 402.20556,461.73426 C 303.77032,526.14402 171.113,498.38932 105.97356,400.00474 40.902,301.49122 67.987,169.90433 166.41645,105.66373 264.78526,41.2235 397.10028,68.97031 462.47729,167.21779 c 64.73896,98.34321 38.12217,230.3437 -60.27173,294.51647 z"
         id="path1027" /></mask><radialGradient
       id="radial-gradient-58"
       cx="284.17383"
       cy="283.68314"
       r="213.21394"
       gradientUnits="userSpaceOnUse"><stop
         offset="0"
         stop-color="#ffedcc"
         id="stop1030" /><stop
         offset="0.12062"
         stop-color="#e7d7b9"
         id="stop1032" /><stop
         offset="0.37548"
         stop-color="#aa9e88"
         id="stop1034" /><stop
         offset="0.74009"
         stop-color="#49443a"
         id="stop1036" /><stop
         offset="1"
         id="stop1038" /></radialGradient><clipPath
       id="clip-path-10"><ellipse
         class="cls-52"
         cx="284.55887"
         cy="282.64087"
         rx="212.55757"
         ry="213.05264"
         transform="rotate(-1.03687,284.55871,282.64084)"
         id="ellipse1041" /></clipPath><linearGradient
       id="linear-gradient"
       x1="166.33524"
       y1="244.21269"
       x2="150.58687"
       y2="143.23767"
       gradientTransform="rotate(-0.00573,-126742.02,-792813.31)"
       gradientUnits="userSpaceOnUse"><stop
         offset="0"
         stop-color="#e5dbb7"
         id="stop1044" /><stop
         offset="1"
         stop-color="#fff"
         id="stop1046" /></linearGradient><linearGradient
       id="linear-gradient-2"
       x1="184.38641"
       y1="257.52493"
       x2="-76.976242"
       y2="272.16116"
       gradientTransform="rotate(-0.00573,-126742.02,-792813.31)"
       gradientUnits="userSpaceOnUse"><stop
         offset="0"
         stop-color="#dbd1b7"
         id="stop1049" /><stop
         offset="1"
         stop-color="#fff"
         id="stop1051" /></linearGradient><linearGradient
       id="linear-gradient-3"
       x1="407.19049"
       y1="258.1915"
       x2="68.051964"
       y2="247.73862"
       gradientTransform="rotate(-0.00573,-126742.02,-792813.31)"
       gradientUnits="userSpaceOnUse"><stop
         offset="0"
         stop-color="#f0decb"
         id="stop1054" /><stop
         offset="0.48257"
         stop-color="#f7ede2"
         id="stop1056" /><stop
         offset="1"
         stop-color="#fff"
         id="stop1058" /></linearGradient><linearGradient
       id="linear-gradient-4"
       x1="189.43958"
       y1="544.02844"
       x2="173.46053"
       y2="290.35965"
       gradientTransform="rotate(-0.00573,-126742.02,-792813.31)"
       gradientUnits="userSpaceOnUse"><stop
         offset="0"
         stop-color="#d9d3c3"
         id="stop1061" /><stop
         offset="1"
         stop-color="#fff"
         id="stop1063" /></linearGradient><radialGradient
       id="radial-gradient-59"
       cx="143.79828"
       cy="7.0620999"
       r="398.84097"
       gradientTransform="rotate(-1.01423,-1158.9925,-2131.9896)"
       xlink:href="#radial-gradient-58" /><radialGradient
       id="radial-gradient-60"
       cx="-8614.7207"
       cy="-1260.4393"
       r="111.51287"
       gradientTransform="matrix(0.2907,0.3637,-0.41,0.3277,2337.9209,3973.5819)"
       gradientUnits="userSpaceOnUse"><stop
         offset="0"
         stop-color="#aaa"
         id="stop1067" /><stop
         offset="0.19573"
         stop-color="#7e7e7e"
         id="stop1069" /><stop
         offset="0.46604"
         stop-color="#484848"
         id="stop1071" /><stop
         offset="0.69995"
         stop-color="#212121"
         id="stop1073" /><stop
         offset="0.88569"
         stop-color="#090909"
         id="stop1075" /><stop
         offset="1"
         id="stop1077" /></radialGradient><radialGradient
       id="radial-gradient-61"
       cx="-1082.4218"
       cy="2018.9773"
       r="57.69408"
       gradientTransform="matrix(-0.5777,1.1505,-1.3461,-0.6758,2337.4713,3021.2638)"
       xlink:href="#radial-gradient-60" /><radialGradient
       id="radial-gradient-62"
       cx="-2249.9021"
       cy="1408.4487"
       r="80.58358"
       gradientTransform="matrix(0.3682,0.5933,-0.6174,0.3833,1834.7901,1104.1192)"
       gradientUnits="userSpaceOnUse"><stop
         offset="0"
         stop-color="#a1a1a1"
         id="stop1081" /><stop
         offset="0.11122"
         stop-color="#7d7d7d"
         id="stop1083" /><stop
         offset="0.26743"
         stop-color="#505050"
         id="stop1085" /><stop
         offset="0.41804"
         stop-color="#2d2d2d"
         id="stop1087" /><stop
         offset="0.55948"
         stop-color="#141414"
         id="stop1089" /><stop
         offset="0.68817"
         stop-color="#050505"
         id="stop1091" /><stop
         offset="0.79261"
         id="stop1093" /></radialGradient><radialGradient
       id="radial-gradient-63"
       cx="-2037.6012"
       cy="3442.1233"
       r="43.487202"
       gradientTransform="matrix(0.3862,0.6222,-0.4072,0.2527,2629.5998,600.35392)"
       gradientUnits="userSpaceOnUse"><stop
         offset="0"
         stop-color="#575757"
         id="stop1096" /><stop
         offset="0.42232"
         stop-color="#2c2c2c"
         id="stop1098" /><stop
         offset="0.79408"
         stop-color="#0c0c0c"
         id="stop1100" /><stop
         offset="1"
         id="stop1102" /></radialGradient><mask
       id="mask-7"
       x="107.8775"
       y="86.5378"
       width="267.3648"
       height="246.69638"
       maskUnits="userSpaceOnUse"><path
         class="cls-48"
         d="M 307.67524,299.17906 C 243.64013,346.29081 161.88724,344.2688 125.32805,294.6864 88.89275,245.32595 111.36948,167.2994 175.45838,120.37261 239.6158,73.48523 321.14969,75.624 357.67635,124.954 394.26794,174.475 371.829,252.443 307.67524,299.17906 Z"
         id="path1105" /></mask><mask
       id="mask-8"
       x="83.29512"
       y="214.85508"
       width="134.7411"
       height="155.63226"
       maskUnits="userSpaceOnUse"><path
         class="cls-49"
         d="m 210.65593,268.33464 c 16.92993,40.76755 3.7459,84.7671 -29.45349,98.22761 -33.1995,13.4607 -73.62932,-8.83374 -90.58626,-49.53684 -16.83322,-40.95194 -3.68251,-84.73035 29.64725,-98.28273 33.22811,-13.37057 73.68301,8.86215 90.3925,49.59196 z"
         id="path1108" /><path
         class="cls-49"
         d="m 210.65593,268.33464 c 16.92993,40.76755 3.7459,84.7671 -29.45349,98.22761 -33.1995,13.4607 -73.62932,-8.83374 -90.58626,-49.53684 -16.83322,-40.95194 -3.68251,-84.73035 29.64725,-98.28273 33.22811,-13.37057 73.68301,8.86215 90.3925,49.59196 z"
         id="path1110" /></mask><mask
       id="mask-9"
       x="263.13184"
       y="134.8254"
       width="224.56143"
       height="290.22545"
       maskUnits="userSpaceOnUse"><path
         class="cls-50"
         d="m 487.542,284.90629 c -3.16359,79.97028 -55.90671,142.67221 -117.81035,140.06618 -61.83508,-2.88 -109.53116,-69.99647 -106.45934,-149.93648 3.31838,-80.12121 56.02947,-142.76158 117.83737,-140.13066 61.80825,2.78786 109.62812,69.96872 106.43232,150.00096 z"
         id="path1113" /></mask><mask
       id="mask-10"
       x="288.0761"
       y="163.07863"
       width="187.89811"
       height="242.61469"
       maskUnits="userSpaceOnUse"><path
         class="cls-51"
         d="m 475.86692,288.60771 c -2.51418,66.9 -46.70458,119.27534 -98.58209,117.01513 -51.69412,-2.16379 -91.86422,-58.4741 -89.07148,-125.45961 2.66467,-66.89942 46.82149,-119.21028 98.57638,-117.01814 51.69572,2.31839 91.52796,58.5264 89.07719,125.46262 z"
         id="path1116" /></mask><mask
       id="mask-11"
       x="318.07974"
       y="171.57207"
       width="169.57275"
       height="219.11918"
       maskUnits="userSpaceOnUse"><path
         class="cls-3"
         d="m 487.542,284.90629 c -2.31291,60.37784 -42.19121,107.68541 -88.89267,105.72625 -46.5978,-2.14341 -82.86581,-52.739 -80.45609,-113.3019 2.406,-60.41112 42.34343,-107.68722 88.94647,-105.698 46.66813,2.18028 82.77452,52.7697 80.40229,113.27365 z"
         id="path1119" /></mask><mask
       id="mask-12"
       x="323.96829"
       y="335.53332"
       width="98.58342"
       height="87.57588"
       maskUnits="userSpaceOnUse"><path
         class="cls-4"
         d="m 394.51943,413.526 c -24.51919,15.13578 -53.99369,12.00032 -65.74241,-6.98726 -11.7105,-18.90376 -1.29521,-46.43032 23.238,-61.49771 24.55678,-15.05112 53.94871,-11.87992 65.69312,7.01552 11.7622,18.96638 1.36227,46.47289 -23.18871,61.46945 z"
         id="path1122" /></mask><mask
       id="mask-13"
       x="321.72524"
       y="332.93664"
       width="107.12392"
       height="95.15379"
       maskUnits="userSpaceOnUse"><path
         class="cls-5"
         d="m 398.35749,417.73318 c -26.649,16.33394 -58.66086,13.01314 -71.38158,-7.59458 -12.74715,-20.56623 -1.496,-50.497 25.21432,-66.88255 26.74055,-16.33422 58.65048,-12.90186 71.447,7.63594 12.67482,20.58136 1.46139,50.5062 -25.27974,66.84119 z"
         id="path1125" /></mask><mask
       id="mask-14"
       x="318.54214"
       y="334.03846"
       width="113.94154"
       height="98.96639"
       maskUnits="userSpaceOnUse"><path
         class="cls-6"
         d="m 398.99573,421.48363 c -28.58618,17.50735 -62.334,14.76233 -75.36852,-6.19426 -12.96095,-20.93717 -0.29907,-52.10788 28.36139,-69.6875 28.59011,-17.56317 62.3654,-14.81625 75.41078,6.17682 12.99418,20.92976 0.20748,52.15364 -28.40365,69.70494 z"
         id="path1128" /></mask><mask
       id="mask-15"
       x="327.07542"
       y="334.94629"
       width="101.5945"
       height="90.26096"
       maskUnits="userSpaceOnUse"><path
         class="cls-7"
         d="m 399.77226,415.39893 c -25.28875,15.50735 -55.62363,12.27278 -67.71973,-7.20015 -12.08388,-19.49629 -1.41462,-47.89817 23.89142,-63.42425 25.31566,-15.54986 55.63653,-12.29315 67.80675,7.25646 12.0193,19.45411 1.24837,47.82271 -23.97844,63.36794 z"
         id="path1131" /></mask><mask
       id="mask-16"
       x="342.76929"
       y="336.49418"
       width="82.24298"
       height="73.04203"
       maskUnits="userSpaceOnUse"><path
         class="cls-8"
         d="m 401.61517,401.61037 c -20.46538,12.54613 -45.03693,9.90823 -54.79456,-5.8637 -9.834,-15.79159 -1.14233,-38.81084 19.33247,-51.32239 20.47982,-12.56922 44.96817,-9.89475 54.87,5.88032 9.72627,15.78054 1.06135,38.69998 -19.40791,51.30577 z"
         id="path1134" /></mask><mask
       id="mask-17"
       x="339.57983"
       y="337.88061"
       width="72.0993"
       height="58.36866"
       maskUnits="userSpaceOnUse"><path
         class="cls-9"
         d="m 384.63151,393.90967 c -19.23285,6.30973 -38.96371,-0.58129 -43.89648,-15.40256 -4.98971,-14.82619 6.65429,-31.95051 25.87524,-38.295 19.31081,-6.28885 38.908,0.57435 43.92066,15.41775 4.9656,14.81106 -6.63566,31.96243 -25.89942,38.27981 z"
         id="path1137" /></mask><mask
       id="mask-19"
       x="335.8724"
       y="337.55482"
       width="82.00184"
       height="66.41054"
       maskUnits="userSpaceOnUse"><path
         class="cls-10"
         d="m 387.11638,401.28923 c -21.91965,7.2134 -44.28061,-0.65968 -49.92588,-17.561 -5.6766,-16.80207 7.50906,-36.26717 29.41977,-43.51609 21.96493,-7.18616 44.27718,0.7144 49.97571,17.53159 5.60102,16.87206 -7.5803,36.42934 -29.4696,43.5455 z"
         id="path1140" /></mask><mask
       id="mask-20"
       x="333.32999"
       y="337.31761"
       width="88.77285"
       height="71.93833"
       maskUnits="userSpaceOnUse"><path
         class="cls-11"
         d="m 388.80079,406.353 c -23.73177,7.81476 -47.895,-0.69649 -54.04954,-18.95619 -6.12943,-18.30345 8.1342,-39.42633 31.859,-47.1847 23.75467,-7.8016 47.91976,0.71093 54.08123,19.00478 6.11352,18.23364 -8.20629,39.35083 -31.89069,47.13611 z"
         id="path1143" /></mask><mask
       id="mask-21"
       x="325.64169"
       y="328.99351"
       width="104.97443"
       height="90.69896"
       maskUnits="userSpaceOnUse"><path
         class="cls-13"
         d="m 400.76655,409.76755 c -26.10873,15.67554 -57.494,12.42826 -70.00438,-7.23644 -12.46968,-19.57789 -1.37919,-48.0861 24.74444,-63.6908 26.14875,-15.58787 57.44612,-12.30358 69.9519,7.2657 12.52477,19.64272 1.45063,48.13016 -24.69196,63.66154 z"
         id="path1146" /></mask><mask
       id="mask-22"
       x="323.25322"
       y="326.30424"
       width="114.0686"
       height="98.54711"
       maskUnits="userSpaceOnUse"><path
         class="cls-14"
         d="m 404.85343,414.12474 c -28.37662,16.91643 -62.46376,13.47721 -76.00913,-7.86541 -13.57354,-21.29966 -1.593,-52.29777 26.84892,-69.26768 28.47409,-16.91672 62.4527,-13.362 76.07875,7.90824 13.49656,21.31532 1.55617,52.30733 -26.91854,69.22485 z"
         id="path1149" /></mask><mask
       id="mask-23"
       x="319.86377"
       y="327.44535"
       width="121.3282"
       height="102.49567"
       maskUnits="userSpaceOnUse"><path
         class="cls-15"
         d="m 405.53305,418.00893 c -30.43938,18.13169 -66.37506,15.28878 -80.25455,-6.41515 -13.80119,-21.68382 -0.31845,-53.96612 30.2,-72.17265 30.44356,-18.18951 66.40845,-15.34462 80.29954,6.39709 13.8366,21.67614 0.22096,54.01351 -30.24499,72.19071 z"
         id="path1152" /></mask><mask
       id="mask-24"
       x="328.95025"
       y="328.38555"
       width="108.18071"
       height="93.4798"
       maskUnits="userSpaceOnUse"><path
         class="cls-16"
         d="m 406.35992,411.70725 c -26.92818,16.06037 -59.22962,12.71044 -72.1099,-7.45692 -12.86726,-20.19156 -1.50633,-49.60629 25.44026,-65.68605 26.95684,-16.10439 59.24336,-12.73155 72.20257,7.51524 12.79852,20.14787 1.3293,49.52813 -25.53293,65.62773 z"
         id="path1155" /></mask><mask
       id="mask-25"
       x="345.66153"
       y="329.98864"
       width="87.57466"
       height="75.64682"
       maskUnits="userSpaceOnUse"><path
         class="cls-17"
         d="m 408.3223,397.427 c -21.79212,12.99354 -47.9566,10.26157 -58.3468,-6.07281 -10.47149,-16.35474 -1.2164,-40.19489 20.58576,-53.15262 21.80749,-13.01746 47.88339,-10.24761 58.42709,6.09 10.35685,16.34329 1.1302,40.08007 -20.66605,53.13543 z"
         id="path1158" /></mask><mask
       id="mask-26"
       x="342.26531"
       y="331.42451"
       width="76.77339"
       height="60.45018"
       maskUnits="userSpaceOnUse"><path
         class="cls-18"
         d="m 390.23762,389.45165 c -20.4797,6.53474 -41.48967,-0.602 -46.74223,-15.95184 -5.31318,-15.35491 7.08568,-33.08991 27.5527,-39.66063 20.5627,-6.51312 41.43031,0.59483 46.768,15.96757 5.28748,15.33925 -7.06587,33.10225 -27.57847,39.6449 z"
         id="path1161" /></mask><mask
       id="mask-28"
       x="338.31753"
       y="331.0871"
       width="87.3179"
       height="68.77884"
       maskUnits="userSpaceOnUse"><path
         class="cls-19"
         d="m 392.88357,397.09437 c -23.34066,7.47065 -47.15125,-0.68319 -53.16249,-18.18725 -6.04461,-17.40126 7.99586,-37.56052 31.327,-45.06794 23.38888,-7.44243 47.1476,0.73988 53.21556,18.15679 5.96409,17.47375 -8.07171,37.72847 -31.38007,45.0984 z"
         id="path1164" /></mask><mask
       id="mask-29"
       x="335.61029"
       y="330.84144"
       width="94.52786"
       height="74.50375"
       maskUnits="userSpaceOnUse"><path
         class="cls-20"
         d="m 394.67719,402.33875 c -25.27027,8.09344 -51,-0.72133 -57.5535,-19.6322 -6.52679,-18.95617 8.66154,-40.83233 33.9244,-48.86737 25.29464,-8.07982 51.02632,0.73628 57.58723,19.68252 6.5098,18.88385 -8.73832,40.75412 -33.95813,48.81705 z"
         id="path1167" /></mask><mask
       id="mask-30"
       x="213.73558"
       y="81.71352"
       width="231.26151"
       height="186.76887"
       maskUnits="userSpaceOnUse"><path
         class="cls-21"
         d="m 304.56744,262.44976 c -62.43712,-17.94 -101.91407,-71.85932 -88.06327,-120.25649 13.769,-48.20631 75.48112,-72.58589 137.82539,-54.51879 62.35293,18.13113 101.645,71.96689 87.94138,120.21713 -13.79489,48.38755 -75.45032,72.76239 -137.7035,54.55815 z"
         id="path1170" /></mask><mask
       id="mask-31"
       x="204.75485"
       y="78.76513"
       width="251.39976"
       height="203.02455"
       maskUnits="userSpaceOnUse"><path
         class="cls-23"
         d="m 303.37149,275.23306 c -67.66617,-19.6752 -110.68264,-78.10791 -95.60377,-130.5838 14.96957,-52.45708 81.95971,-79.0891 149.805,-59.38995 67.80548,19.82745 110.48127,78.25937 95.63393,130.75557 -15.1044,52.35944 -82.02751,79.04543 -149.83516,59.21818 z"
         id="path1173" /></mask><mask
       id="mask-32"
       x="191.2281"
       y="81.1527"
       width="269.08788"
       height="208.1576"
       maskUnits="userSpaceOnUse"><path
         class="cls-24"
         d="m 298.08383,281.98631 c -72.56172,-21.12656 -119.17175,-81.58157 -103.98689,-135.11 15.264,-53.37633 86.46223,-79.536 159.25716,-58.39518 72.66079,21.04844 119.30925,81.55209 104.08006,135.154 -15.20123,53.42055 -86.67745,79.45271 -159.35033,58.35118 z"
         id="path1176" /></mask><mask
       id="mask-33"
       x="215.89624"
       y="87.67949"
       width="238.39812"
       height="192.46132"
       maskUnits="userSpaceOnUse"><path
         class="cls-25"
         d="m 309.41093,274.0523 c -64.22419,-18.66006 -104.84084,-74.16477 -90.70738,-123.87756 14.191,-49.72787 77.74836,-75.01151 142.03,-56.351 64.33594,18.64045 104.89445,74.15537 90.74545,124.10813 -14.21849,49.5562 -77.87465,74.61972 -142.06807,56.12043 z"
         id="path1179" /></mask><mask
       id="mask-34"
       x="259.57758"
       y="105.30577"
       width="192.87421"
       height="155.85637"
       maskUnits="userSpaceOnUse"><path
         class="cls-26"
         d="m 335.20556,256.2118 c -51.96881,-15.10627 -84.83889,-60.09273 -73.3317,-100.29129 11.42419,-40.3557 63.00372,-60.77365 114.92913,-45.59921 52.02921,15.09529 84.71211,59.99847 73.41833,100.44225 -11.56906,40.15937 -62.94158,60.47045 -115.01576,45.44825 z"
         id="path1182" /></mask><mask
       id="mask-35"
       x="274.93038"
       y="91.38232"
       width="156.93688"
       height="138.18562"
       maskUnits="userSpaceOnUse"><path
         class="cls-27"
         d="m 322.28951,216.20267 c -39.697,-22.50978 -58.13053,-65.87311 -40.89071,-96.58185 17.16168,-30.81117 63.38662,-37.36316 103.12352,-14.92593 39.7804,22.67147 58.05755,65.76959 40.902,96.64522 -17.17295,30.74798 -63.37818,37.41228 -103.13481,14.86256 z"
         id="path1185" /></mask><mask
       id="mask-37"
       x="259.91739"
       y="89.55018"
       width="178.4509"
       height="157.21463"
       maskUnits="userSpaceOnUse"><path
         class="cls-28"
         d="M 313.74946,231.54072 C 268.46981,205.92008 247.68502,156.68016 267.31366,121.62793 286.72923,86.674 339.197,79.143 384.52232,104.69489 c 45.30288,25.7375 65.968,74.93786 46.56044,109.9513 -19.64701,34.93396 -72.26189,42.61207 -117.3333,16.89453 z"
         id="path1188" /></mask><mask
       id="mask-38"
       x="249.55501"
       y="88.22995"
       width="193.26422"
       height="170.22567"
       maskUnits="userSpaceOnUse"><path
         class="cls-29"
         d="m 307.858,242.03108 c -49.03133,-27.73114 -71.48535,-80.94523 -50.3634,-118.90728 21.233,-37.98652 78.101,-46.234 127.02774,-18.42891 49.0441,27.78928 71.49881,81.00842 50.3304,119.03382 -21.14074,37.85402 -78.08443,45.99917 -126.99474,18.30237 z"
         id="path1191" /></mask><clipPath
       id="clip-path-11"><circle
         class="cls-52"
         cx="283.50018"
         cy="283.3248"
         r="213.63554"
         id="circle1194" /></clipPath><mask
       id="mask-39"
       x="192.12885"
       y="45.84999"
       width="272.96878"
       height="220.45204"
       maskUnits="userSpaceOnUse"><path
         class="cls-30"
         d="M 299.342,259.18143 C 225.6445,238.006 179.048,174.36252 195.39676,117.23707 211.64889,60.33691 284.49065,31.56055 358.07851,52.886 431.67659,74.287 478.05491,137.83189 461.87984,194.78391 445.59708,251.898 372.8223,280.6687 299.342,259.18143 Z"
         id="path1197" /></mask><mask
       id="mask-40"
       x="181.52848"
       y="42.36987"
       width="296.7389"
       height="239.63937"
       maskUnits="userSpaceOnUse"><path
         class="cls-31"
         d="M 297.93032,274.27016 C 218.06077,251.0466 167.28641,182.07575 185.08471,120.136 202.754,58.21844 281.8256,26.78343 361.90661,50.03526 c 80.034,23.40326 130.40622,92.37319 112.8812,154.33691 -17.82847,61.8023 -96.82095,93.30102 -176.85749,69.89799 z"
         id="path1200" /></mask><mask
       id="mask-41"
       x="165.56222"
       y="45.18803"
       width="317.61702"
       height="245.69815"
       maskUnits="userSpaceOnUse"><path
         class="cls-33"
         d="M 291.689,282.24134 C 206.041,257.30467 151.025,185.9468 168.94841,122.76469 186.96523,59.76211 271.00383,28.88458 356.92708,53.83812 442.69201,78.68258 497.75338,150.09787 479.77766,213.36674 461.835,276.42149 377.46824,307.14846 291.689,282.24134 Z"
         id="path1203" /></mask><mask
       id="mask-42"
       x="194.67918"
       y="52.89191"
       width="281.39246"
       height="227.1711"
       maskUnits="userSpaceOnUse"><path
         class="cls-34"
         d="M 305.059,272.87646 C 229.25213,250.85112 181.3104,185.33631 197.99278,126.658 c 16.75026,-58.69613 91.77,-88.53959 167.64468,-66.51372 75.93869,22.0022 123.81176,87.52906 107.11111,146.49064 -16.78278,58.49346 -91.91912,88.07708 -167.68957,66.24154 z"
         id="path1206" /></mask><mask
       id="mask-43"
       x="246.23831"
       y="73.69703"
       width="227.65846"
       height="183.96457"
       maskUnits="userSpaceOnUse"><path
         class="cls-35"
         d="M 335.50556,251.81848 C 274.16434,233.98785 235.36625,180.88821 248.94872,133.43998 262.43323,85.80626 323.315,61.706 384.60495,79.61709 c 61.41251,17.81768 99.98967,70.819 86.65909,118.55669 -13.6555,47.40199 -74.29289,71.37614 -135.75848,53.6447 z"
         id="path1209" /></mask><mask
       id="mask-44"
       x="264.35994"
       y="57.26253"
       width="185.23995"
       height="163.10696"
       maskUnits="userSpaceOnUse"><path
         class="cls-36"
         d="m 320.26014,204.59382 c -46.85622,-26.56934 -68.61418,-77.7531 -48.26522,-114.00007 20.25674,-36.36786 74.8182,-44.10148 121.72151,-17.61777 46.95467,26.7602 68.52805,77.63092 48.27858,114.07488 -20.27001,36.29327 -74.80826,44.15945 -121.73487,17.54296 z"
         id="path1212" /></mask><mask
       id="mask-46"
       x="246.63941"
       y="55.09997"
       width="210.63395"
       height="185.56778"
       maskUnits="userSpaceOnUse"><path
         class="cls-37"
         d="m 310.17992,222.69805 c -53.44569,-30.24124 -77.97895,-88.36142 -54.81034,-129.73521 22.9171,-41.25775 84.84725,-50.14693 138.34685,-19.98686 53.47311,30.37917 77.86507,88.45267 54.95748,129.78066 -23.19029,41.2342 -85.29409,50.29703 -138.49399,19.94141 z"
         id="path1215" /></mask><mask
       id="mask-47"
       x="234.40821"
       y="53.54164"
       width="228.1188"
       height="200.92533"
       maskUnits="userSpaceOnUse"><path
         class="cls-38"
         d="M 303.22593,235.08031 C 245.35193,202.34795 218.84843,139.53687 243.77966,94.72848 268.842,49.89122 335.96592,40.15636 393.71643,72.976 c 57.88905,32.801 84.3934,95.618 59.40733,140.50119 -24.95338,44.68081 -92.16668,54.29495 -149.89783,21.60312 z"
         id="path1218" /></mask><clipPath
       id="clip-path-12"><path
         class="cls-55"
         d="m 307.60909,234.54752 c -49.03134,-27.73114 -71.48535,-80.94523 -50.3634,-118.90728 21.233,-37.98652 78.101,-46.234 127.02773,-18.42891 49.0441,27.78928 71.49882,81.00842 50.3304,119.03382 -21.14072,37.85402 -78.0844,45.99917 -126.99473,18.30237 z"
         clip-path="url(#clip-path-2)"
         id="path1221" /></clipPath><mask
       id="mask-48"
       x="-139.2939"
       y="166.6404"
       width="272.96878"
       height="220.45204"
       maskUnits="userSpaceOnUse"><path
         class="cls-39"
         d="m -32.0808,379.97184 c -73.69745,-21.17546 -120.29395,-84.81891 -103.9452,-141.94437 16.25214,-56.90015 89.0939,-85.67652 162.68175,-64.35107 73.59809,21.401 119.9764,84.94589 103.80133,141.8979 -16.28275,57.11409 -89.05754,85.88481 -162.53788,64.39754 z"
         id="path1224" /></mask><mask
       id="mask-49"
       x="-149.89427"
       y="163.16028"
       width="296.7389"
       height="239.63937"
       maskUnits="userSpaceOnUse"><path
         class="cls-40"
         d="M -33.49244,395.06057 C -113.362,371.837 -164.13634,302.86615 -146.338,240.9264 c 17.66929,-61.91755 96.74088,-93.35257 176.82189,-70.10074 80.034,23.40327 130.40622,92.3732 112.88121,154.33692 -17.82852,61.8023 -96.82099,93.30102 -176.85754,69.89799 z"
         id="path1227" /></mask><mask
       id="mask-50"
       x="-165.86053"
       y="165.97843"
       width="317.61702"
       height="245.69815"
       maskUnits="userSpaceOnUse"><path
         class="cls-41"
         d="m -39.73371,403.03175 c -85.648,-24.93667 -140.664,-96.29454 -122.74059,-159.47666 18.01682,-63.00258 102.05542,-93.8801 187.97867,-68.92656 85.76493,24.84447 140.8263,96.25975 122.85063,159.52862 -17.94278,63.05474 -102.30951,93.78172 -188.08871,68.8746 z"
         id="path1230" /></mask><mask
       id="mask-51"
       x="-136.74357"
       y="173.68231"
       width="281.39246"
       height="227.1711"
       maskUnits="userSpaceOnUse"><path
         class="cls-43"
         d="m -26.3638,393.66687 c -75.80682,-22.02534 -123.74855,-87.54016 -107.0662,-146.21849 16.75025,-58.69613 91.77,-88.53959 167.64467,-66.51373 75.9387,22.00221 123.81176,87.52907 107.11111,146.49065 C 124.543,385.91879 49.4067,415.50244 -26.3638,393.66687 Z"
         id="path1233" /></mask><mask
       id="mask-52"
       x="-85.18444"
       y="194.48744"
       width="227.65846"
       height="183.96457"
       maskUnits="userSpaceOnUse"><path
         class="cls-44"
         d="M 4.08281,372.60888 C -57.25841,354.77825 -96.0565,301.67862 -82.474,254.23039 c 13.48451,-47.63373 74.36623,-71.734 135.65622,-53.82289 61.41252,17.81768 99.98967,70.819 86.6591,118.55669 -13.65553,47.40199 -74.29292,71.37614 -135.75851,53.64469 z"
         id="path1236" /></mask><mask
       id="mask-53"
       x="-67.06281"
       y="178.05294"
       width="185.23995"
       height="163.10696"
       maskUnits="userSpaceOnUse"><path
         class="cls-45"
         d="M -11.16262,325.38423 C -58.01884,298.81489 -79.7768,247.63113 -59.42783,211.38416 -39.1711,175.0163 15.39036,167.28267 62.29368,193.76639 c 46.95467,26.7602 68.528,77.63092 48.27858,114.07488 C 90.3022,344.13454 35.764,352.00072 -11.16262,325.38423 Z"
         id="path1239" /></mask><mask
       id="mask-55"
       x="-84.78334"
       y="175.89038"
       width="210.63395"
       height="185.56778"
       maskUnits="userSpaceOnUse"><path
         class="cls-46"
         d="m -21.24283,343.48845 c -53.44569,-30.24123 -77.979,-88.36141 -54.81035,-129.7352 22.9171,-41.25775 84.84726,-50.14693 138.34686,-19.98686 53.47311,30.37917 77.86507,88.45266 54.95748,129.78066 -23.19029,41.23419 -85.2941,50.29702 -138.49399,19.9414 z"
         id="path1242" /></mask><mask
       id="mask-56"
       x="-97.01455"
       y="174.33204"
       width="228.1188"
       height="200.92533"
       maskUnits="userSpaceOnUse"><path
         class="cls-47"
         d="m -28.19682,355.87072 c -57.874,-32.73236 -84.3775,-95.54344 -59.44628,-140.35183 25.06231,-44.83727 92.18626,-54.57212 149.93678,-21.7525 57.88905,32.801 84.3934,95.618 59.40733,140.50119 -24.95338,44.68086 -92.16668,54.29496 -149.89783,21.60314 z"
         id="path1245" /></mask></defs><title
     id="title1250">лого 1-07-07-07-07</title><metadata
     id="metadata1945"><rdf:RDF><cc:Work
         rdf:about=""><dc:title>лого 1-07-07-07-07</dc:title></cc:Work></rdf:RDF></metadata><path
     style="fill:#000000;stroke-width:0.768005"
     d="M 289.94053,318.31952 V 158.22811 h 88.25483 88.25482 v 160.09141 160.09141 h -88.25482 -88.25483 z m 173.51796,0 v -156.9369 h -85.26313 -85.26314 v 156.9369 156.9369 h 85.26314 85.26313 z M 304.15105,420.84111 v -41.79726 h 73.67035 73.67033 v 41.79726 41.79727 H 377.8214 304.15105 Z m 70.8937,29.91147 -0.21505,-7.15405 -3.96028,-1.41169 c -8.54696,-3.04671 -13.62155,-10.37836 -13.60859,-19.66137 0.0144,-10.31672 6.19631,-18.45321 15.88604,-20.90885 l 2.05679,-0.52124 v -8.65988 -8.65988 H 342.29508 309.3865 v 11.4351 11.4351 h 8.97507 8.97507 v 15.77255 15.77255 h -8.97507 -8.97507 v 9.85785 9.85784 h 32.93665 32.93664 z m 71.04757,-2.90097 0.21,-9.66069 h -9.37205 -9.37205 v -15.74828 -15.74828 l 9.16205,-0.22143 9.16205,-0.22143 v -11.04078 -11.04079 l -32.7216,-0.20545 -32.7216,-0.20544 7.5e-4,8.48603 7.5e-4,8.48604 4.56919,1.41586 c 9.20724,2.85305 15.83565,13.13165 14.50445,22.49185 -1.30717,9.19122 -7.98766,16.67428 -16.64496,18.6446 l -2.43075,0.55322 v 6.50923 c 0,3.58008 0.22791,6.74955 0.50646,7.04326 0.27855,0.29372 15.00327,0.44159 32.7216,0.3286 l 32.21571,-0.20543 z m -71.21588,-41.02507 c -0.19776,-0.20852 -1.95481,0.464 -3.90456,1.49449 -11.7845,6.22838 -11.76697,22.20134 0.0307,27.96678 l 3.82714,1.87031 0.20315,-15.47622 c 0.11174,-8.51193 0.0414,-15.64683 -0.1564,-15.85536 z m 11.62202,29.32242 c 4.44482,-2.35741 8.16489,-9.00054 8.13059,-14.51922 -0.0177,-2.83758 -2.43497,-7.93699 -4.93357,-10.40748 -2.03087,-2.00801 -6.79256,-4.57644 -8.48441,-4.57644 -0.50494,0 -0.77195,5.46075 -0.77195,15.78757 v 15.78758 l 2.05679,-0.52001 c 1.13123,-0.28601 2.93238,-0.98441 4.00255,-1.552 z m -64.39728,-14.1249 v -10.64648 h -6.35734 -6.35734 v 10.64648 10.64647 h 6.35734 6.35734 z m 123.98983,0.19715 -0.20869,-10.44931 -6.54432,-0.22786 -6.54432,-0.22787 v 10.67718 10.67718 h 6.75301 6.75301 z M 304.15105,319.10815 v -41.79726 h 73.67035 73.67033 v 41.79726 41.79726 H 377.8214 304.15105 Z m 71.05261,29.54879 c 0,-4.70598 -0.28099,-6.81304 -0.9349,-7.01073 -7.72181,-2.33451 -13.00173,-6.59035 -15.56697,-12.54768 -2.98768,-6.93835 -1.33153,-17.33574 3.6443,-22.87912 2.14223,-2.38657 7.40344,-5.47236 10.80078,-6.33484 l 2.05679,-0.52216 v -8.65988 -8.65988 H 342.29508 309.3865 v 11.04079 11.04079 h 8.97507 8.97507 v 16.16686 16.16687 h -8.97507 -8.97507 v 9.46353 9.46353 h 32.90858 32.90858 z m 71.05262,-2.73545 v -9.46353 h -9.36452 -9.36451 l 0.20246,-15.96971 0.20247,-15.96971 9.18301,-0.22161 9.183,-0.22161 -0.20794,-10.81917 -0.20793,-10.81918 -32.7216,-0.20545 -32.7216,-0.20545 7.5e-4,8.48604 7.5e-4,8.48604 4.56919,1.41586 c 9.20724,2.85305 15.83565,13.13164 14.50445,22.49185 -1.30717,9.19122 -7.98766,16.67427 -16.64496,18.6446 l -2.43075,0.55321 v 6.64068 6.64067 h 32.90858 32.90857 v -9.46353 z m -71.32957,-40.7749 c -0.61753,-0.65114 -6.13286,2.26837 -8.20395,4.34271 -7.68207,7.69413 -5.53496,20.26914 4.2798,25.06555 l 3.82714,1.8703 0.20315,-15.47622 c 0.11174,-8.51192 0.0639,-15.62298 -0.10614,-15.80234 z m 11.57175,29.26941 c 4.44482,-2.35742 8.16489,-9.00055 8.13059,-14.51922 -0.0298,-4.80302 -4.41964,-11.29198 -9.2864,-13.7271 -5.05593,-2.52977 -4.90353,-2.98138 -4.90353,14.53075 V 336.488 l 2.05679,-0.52001 c 1.13123,-0.286 2.93238,-0.9844 4.00255,-1.55199 z m -64.39728,-14.12491 v -10.64647 h -6.35734 -6.35734 v 10.64647 10.64647 h 6.35734 6.35734 z m 124.1551,0 v -10.64647 h -6.7313 -6.7313 v 10.64647 10.64647 h 6.7313 6.7313 z M 304.15105,215.0093 v -41.79726 h 73.67035 73.67033 v 41.79726 41.79727 H 377.8214 304.15105 Z m 70.8937,29.91147 -0.21505,-7.15405 -3.96028,-1.4117 c -5.30302,-1.89034 -9.05928,-5.24834 -11.62204,-10.38978 -1.88719,-3.7861 -2.0923,-4.90823 -1.8698,-10.2292 0.2092,-5.00304 0.61895,-6.60884 2.51547,-9.85785 2.50736,-4.29548 7.84696,-8.52624 12.38822,-9.81563 l 2.92239,-0.82974 v -8.6445 -8.64452 H 342.29508 309.3865 v 11.43511 11.4351 h 8.97507 8.97507 v 15.77255 15.77255 h -8.97507 -8.97507 v 9.85785 9.85784 h 32.93665 32.93664 z m 71.04757,-2.90097 0.21,-9.66069 h -9.37205 -9.37205 v -15.74828 -15.74828 l 9.16205,-0.22143 9.16205,-0.22143 v -11.04078 -11.04079 l -32.7216,-0.20545 -32.7216,-0.20544 7.5e-4,8.48603 7.5e-4,8.48604 4.56919,1.41586 c 6.36914,1.97361 11.99084,7.84908 13.8046,14.42774 2.41472,8.75842 -0.79971,17.75719 -8.22082,23.01411 -2.00383,1.41946 -5.10847,2.96984 -6.89919,3.44528 l -3.25585,0.86446 v 7.01232 7.01231 l 32.72159,-0.20545 32.7216,-0.20544 0.21,-9.66069 z m -71.21588,-41.02507 c -0.19776,-0.20852 -1.95481,0.46399 -3.90456,1.49449 -9.78278,5.17043 -11.81704,16.93227 -4.29946,24.85898 1.75171,1.84705 4.30371,3.66421 5.6711,4.03815 l 2.48618,0.67987 0.20315,-15.34618 c 0.11174,-8.4404 0.0414,-15.51678 -0.15641,-15.72531 z m 11.62202,29.32242 c 4.44482,-2.35741 8.16489,-9.00054 8.13059,-14.51922 -0.0177,-2.83758 -2.43497,-7.93699 -4.93357,-10.40748 -2.03087,-2.00801 -6.79256,-4.57644 -8.48441,-4.57644 -0.50494,0 -0.77195,5.46075 -0.77195,15.78757 v 15.78758 l 2.05679,-0.52002 c 1.13123,-0.286 2.93238,-0.9844 4.00255,-1.55199 z m -64.39728,-14.12491 v -10.64647 h -6.35734 -6.35734 v 10.64647 10.64648 h 6.35734 6.35734 z m 123.98983,0.19716 -0.20869,-10.44931 -6.54432,-0.22786 -6.54432,-0.22787 v 10.67718 10.67718 h 6.75301 6.75301 z M 95.480761,319.50246 V 162.17125 h 88.628779 88.62878 V 319.50246 476.83368 H 184.10954 95.480761 Z m 174.265869,0 V 165.32576 H 184.10954 98.472451 v 154.1767 154.17671 h 85.637089 85.63709 z m -156.6473,142.17181 c -1.01535,-1.52852 -1.16429,-6.70125 -1.16429,-40.43884 0,-33.73759 0.14894,-38.91032 1.16429,-40.43885 l 1.1643,-1.75273 h 72.35646 c 55.28002,0 72.56828,0.22335 73.25396,0.94635 1.29392,1.36434 1.29392,81.12612 0,82.49045 -0.68568,0.72301 -17.97394,0.94636 -73.25396,0.94636 h -72.35646 z m 70.49024,-7.51364 -0.22796,-3.74598 H 150.827 118.29238 l -0.22796,3.74598 -0.22796,3.74598 h 32.99054 32.99053 z m 71.57257,-0.19716 v -3.54882 h -32.53461 -32.53462 l -0.22828,3.7543 -0.22828,3.7543 32.7629,-0.20547 32.76289,-0.20548 z M 147.83531,421.23543 v -23.26452 h -14.95845 -14.95844 v 23.26452 23.26451 h 14.95844 14.95845 z m 35.90026,15.53596 c 0,-7.95203 0.54043,-9.62125 3.11497,-9.62125 2.13663,0 2.86841,2.60225 2.86841,10.20031 v 7.14949 h 14.98079 14.98079 l -0.20932,-10.055 -0.20933,-10.055 -32.7216,-0.20545 -32.72159,-0.20544 v 10.26045 10.26044 h 14.95844 14.95844 z m 71.42657,-15.53596 v -22.8702 l -14.77146,-0.21383 -14.77146,-0.21383 v 23.29786 23.29786 l 14.77146,-0.21383 14.77146,-0.21383 z m -35.5263,-13.01236 v -10.25216 h -32.90858 -32.90857 v 10.25216 10.25216 h 32.90857 32.90858 z m -35.00276,4.57404 c -0.49363,-0.52049 -0.89751,-2.81474 -0.89751,-5.09833 0,-3.29782 0.29762,-4.31993 1.44668,-4.96836 1.87097,-1.0558 1.97094,-1.04323 3.36139,0.4229 1.79069,1.88815 1.60109,8.71712 -0.27136,9.77377 -1.86554,1.05274 -2.54038,1.02864 -3.6392,-0.12998 z m -0.89751,-24.29802 v -3.95142 l -32.72159,0.20544 -32.7216,0.20545 -0.23968,2.63811 c -0.46931,5.16574 -2.59778,4.85385 33.12479,4.85385 h 32.55808 z m 71.42657,0.008 v -3.54882 l -32.72159,-0.20545 -32.7216,-0.20544 v 3.95971 3.95972 l 32.7216,-0.20545 32.72159,-0.20544 z M 112.36243,361.2434 c -1.03694,-1.09337 -1.17531,-5.85437 -1.17531,-40.43885 0,-34.20231 0.14843,-39.42302 1.16429,-40.9523 l 1.1643,-1.75274 h 72.35645 c 55.28003,0 72.56828,0.22335 73.25397,0.94636 1.29392,1.36433 1.29392,81.12611 0,82.49045 -0.68569,0.723 -17.9715,0.94635 -73.24295,0.94635 -64.77136,0 -72.46849,-0.12975 -73.52075,-1.23927 z m 70.47922,-8.0271 -0.22796,-3.74599 -31.03877,-0.2192 c -17.07133,-0.12056 -31.79604,-0.0251 -32.7216,0.21219 -1.43391,0.36757 -1.68282,0.95407 -1.68282,3.96518 v 3.5338 h 32.94955 32.94956 z m 71.94653,0.68803 c 0,-1.68187 -0.45963,-3.46017 -1.02141,-3.95178 -0.73402,-0.64234 -9.94076,-0.83593 -32.7216,-0.68804 l -31.70018,0.2058 -0.22796,3.74599 -0.22796,3.74598 h 32.94956 32.94955 z M 147.08739,320.27442 v -23.28119 l -14.77147,0.21383 -14.77146,0.21383 -0.19828,23.06736 -0.19828,23.06736 h 14.96975 14.96974 z m 35.90026,15.55264 c 0,-7.61232 0.56667,-9.62126 2.71389,-9.62126 2.47384,0 3.26949,2.41266 3.26949,9.91418 v 7.43563 h 14.98079 14.98079 l -0.20932,-10.05501 -0.20933,-10.055 h -32.53462 -32.53462 l -0.20932,10.055 -0.20932,10.05501 h 14.98078 14.98079 z m 71.42657,-15.53597 v -22.8702 l -14.77146,-0.21383 -14.77146,-0.21383 v 23.29786 23.29786 l 14.77146,-0.21383 14.77146,-0.21383 z m -35.5263,-13.01235 v -10.25216 h -32.90858 -32.90858 v 10.25216 10.25216 h 32.90858 32.90858 z m -35.00276,4.57404 c -1.32712,-1.39935 -1.13247,-8.15678 0.2778,-9.64379 1.50883,-1.59096 2.05739,-1.55977 3.57027,0.20292 1.45921,1.70016 1.68704,8.02082 0.34029,9.44087 -0.49363,0.52049 -1.43601,0.94635 -2.09418,0.94635 -0.65817,0 -1.60055,-0.42586 -2.09418,-0.94635 z m -0.89751,-24.29802 v -3.95143 l -32.72159,0.20545 -32.7216,0.20544 -0.23968,2.63812 c -0.46931,5.16573 -2.59778,4.85384 33.12479,4.85384 h 32.55808 z m 71.42657,0.008 v -3.54883 l -32.72159,-0.20544 -32.7216,-0.20545 v 3.95972 3.95971 l 32.7216,-0.20544 32.72159,-0.20545 z m -143.64509,-27.9327 c -1.40439,-1.08281 -1.45182,-2.43745 -1.45182,-41.46653 0,-39.02907 0.0474,-40.38372 1.45182,-41.46652 1.22983,-0.94821 12.35873,-1.11937 72.7846,-1.11937 47.74121,0 71.81124,0.27 72.77947,0.81637 1.40177,0.79104 1.44667,2.08748 1.44667,41.76952 0,39.68205 -0.0449,40.97848 -1.44667,41.76952 -0.96823,0.54638 -25.03826,0.81638 -72.77947,0.81638 -60.42587,0 -71.55477,-0.17116 -72.7846,-1.11937 z m 69.97476,-8.73848 v -3.54882 h -32.90858 -32.90858 v 3.54882 3.54882 h 32.90858 32.90858 z m 71.65655,0.19716 -0.22998,-3.35167 -32.7216,-0.20545 -32.7216,-0.20544 v 3.55711 3.55711 h 32.95159 32.95158 z m -107.55682,-32.9416 v -23.6755 l -14.77146,0.21383 -14.77147,0.21383 -0.19893,22.46577 c -0.10941,12.35618 -0.0358,22.91393 0.16351,23.46167 0.27479,0.75508 3.89486,0.9959 14.9704,0.9959 h 14.60795 z m 35.90027,15.16655 c 0.27808,-6.03424 0.66158,-8.30573 1.49584,-8.85999 0.61704,-0.40993 1.29017,-0.74534 1.49584,-0.74534 0.20568,0 0.87881,0.33541 1.49585,0.74534 0.83426,0.55426 1.21776,2.82575 1.49584,8.85999 l 0.37396,8.11464 h 14.58449 14.58448 l 0.20933,-10.055 0.20932,-10.05501 H 183.75792 150.827 v 9.72641 c 0,5.34953 0.23142,9.97043 0.51427,10.26867 0.28285,0.29825 6.93001,0.44611 14.77146,0.3286 l 14.25719,-0.21367 z m 71.42657,-15.14988 V 194.8993 l -14.77147,-0.21383 -14.77146,-0.21383 v 23.69217 23.69218 l 14.77146,-0.21383 14.77147,-0.21383 z M 216.64415,204.75714 V 194.50499 H 183.73557 150.827 v 10.25215 10.25216 h 32.90857 32.90858 z m -35.10412,4.39872 c -1.32896,-1.68845 -0.69938,-8.39133 0.88668,-9.43998 2.2414,-1.48193 3.89436,0.34397 4.15692,4.59185 0.2456,3.97346 -0.70681,5.96981 -2.84806,5.96981 -0.72197,0 -1.70996,-0.50476 -2.19554,-1.12168 z m -0.94215,-23.91725 -0.22796,-3.74598 h -32.53461 -32.53462 l -0.23968,2.63812 c -0.46933,5.16593 -2.60181,4.85384 33.16577,4.85384 h 32.59906 z m 71.57258,-0.19716 v -3.54882 h -32.53462 -32.53462 l -0.22828,3.7543 -0.22828,3.7543 32.7629,-0.20548 32.7629,-0.20547 z m 91.8513,-47.54685 c 0.3667,-5.88628 0.85706,-8.12165 2.46736,-11.24766 2.83015,-5.49408 10.60432,-13.284 19.36551,-19.40473 11.3014,-7.895365 15.33242,-12.833225 15.33242,-18.781643 0,-2.664394 -2.78699,-7.156606 -5.25792,-8.474947 -1.01605,-0.542103 -4.44311,-0.990879 -7.6157,-0.997275 -6.28034,-0.01262 -11.83332,1.704958 -16.6464,5.148974 -1.48889,1.06538 -3.02869,1.937051 -3.42179,1.937051 -0.40147,0 -0.7147,-3.115758 -0.7147,-7.109242 v -7.109241 l 2.43074,-1.583249 c 5.55496,-3.618192 12.26257,-5.098296 22.99861,-5.074874 9.91145,0.02161 10.18842,0.07003 15.07484,2.634655 8.55775,4.491518 12.40712,11.602305 11.62257,21.469851 -0.49833,6.267605 -2.4504,10.497685 -7.55185,16.36462 -2.52304,2.90162 -8.72166,7.83709 -12.04029,9.5867 -0.97633,0.51474 -10.87261,7.59749 -12.39692,8.87247 -0.64795,0.54196 -1.77825,1.95769 -2.51177,3.14607 -1.07233,1.73725 -1.1346,2.23871 -0.31776,2.55876 0.55875,0.21894 8.58863,0.48871 17.84418,0.5995 l 16.82825,0.20144 v 7.09765 7.09765 l -27.97352,0.20687 -27.97352,0.20688 z m -162.7568,6.03615 c -0.28659,-0.30219 -0.52107,-13.73923 -0.52107,-29.8601 0,-16.120865 -0.20687,-29.528781 -0.45969,-29.795369 -0.25283,-0.266587 -1.17838,0.0024 -2.05679,0.5983 -1.74323,1.182098 -9.1354,3.870845 -13.00291,4.72955 l -2.43075,0.539694 v -7.57937 c 0,-5.400641 0.26875,-7.653277 0.93491,-7.836459 7.48019,-2.056922 21.67614,-8.327348 22.66248,-10.010129 0.23343,-0.398242 3.26843,-0.724071 6.74445,-0.724071 h 6.32006 l -0.19384,40.022854 -0.19383,40.02285 -8.64097,0.22084 c -4.75253,0.12147 -8.87545,-0.0264 -9.16205,-0.32859 z"
     id="path295" /></svg>
