<?xml version="1.0" encoding="UTF-8" standalone="no"?>
<svg
   xmlns:dc="http://purl.org/dc/elements/1.1/"
   xmlns:cc="http://creativecommons.org/ns#"
   xmlns:rdf="http://www.w3.org/1999/02/22-rdf-syntax-ns#"
   xmlns:svg="http://www.w3.org/2000/svg"
   xmlns="http://www.w3.org/2000/svg"
   xmlns:sodipodi="http://sodipodi.sourceforge.net/DTD/sodipodi-0.dtd"
   xmlns:inkscape="http://www.inkscape.org/namespaces/inkscape"
   inkscape:version="1.0 (4035a4fb49, 2020-05-01)"
   sodipodi:docname="R.svg"
   id="svg10"
   viewBox="0 0 268.46334 352.92005"
   style="clip-rule:evenodd;fill-rule:evenodd;image-rendering:optimizeQuality;shape-rendering:geometricPrecision;text-rendering:geometricPrecision"
   version="1.1"
   height="55.572571mm"
   width="42.273335mm"
   xml:space="preserve"><sodipodi:namedview
   inkscape:current-layer="svg10"
   inkscape:window-maximized="1"
   inkscape:window-y="-6"
   inkscape:window-x="-6"
   inkscape:cy="185.58439"
   inkscape:cx="424.42896"
   inkscape:zoom="0.84472488"
   showgrid="false"
   id="namedview4334"
   inkscape:window-height="1018"
   inkscape:window-width="1920"
   inkscape:pageshadow="2"
   inkscape:pageopacity="0"
   guidetolerance="10"
   gridtolerance="10"
   objecttolerance="10"
   borderopacity="1"
   bordercolor="#666666"
   pagecolor="#ffffff"
   inkscape:document-rotation="0" /><metadata
   id="metadata14"><rdf:RDF><cc:Work
       rdf:about=""><dc:format>image/svg+xml</dc:format><dc:type
         rdf:resource="http://purl.org/dc/dcmitype/StillImage" /><dc:title></dc:title></cc:Work></rdf:RDF></metadata>
 <defs
   id="defs4">
  <style
   id="style2"
   type="text/css">
   <![CDATA[
    .fil0 {fill:black}
   ]]>
  </style>
 </defs>
 
<path
   style="fill:#000000;fill-opacity:0.975904;fill-rule:evenodd;stroke:#000000;stroke-width:0.125801;stroke-opacity:1"
   d=""
   id="path2960" /><path
   style="fill:#000000;fill-opacity:0.975904;fill-rule:evenodd;stroke:#000000;stroke-width:0.125801;stroke-opacity:1"
   d=""
   id="path3032" /><path
   style="fill:#000000;fill-opacity:0.975904;fill-rule:evenodd;stroke:#000000;stroke-width:0.0889551;stroke-opacity:1"
   d=""
   id="path3628" /><path
   style="fill:#000000;fill-opacity:0.975904;fill-rule:evenodd;stroke:#000000;stroke-width:0.0629007;stroke-opacity:1"
   d=""
   id="path3822" /><path
   style="fill:#000000;fill-opacity:0.975904;fill-rule:evenodd;stroke:#000000;stroke-width:0.0444774;stroke-opacity:1"
   d=""
   id="path3992" /><path
   style="fill:#000000;fill-opacity:0.975904;fill-rule:evenodd;stroke:#000000;stroke-width:0.0889551;stroke-opacity:1"
   d=""
   id="path4102" /><path
   id="path37"
   d="M 0,176.45982 V -0.00127 l 66.4169,2.176341 c 86.71347,2.841412 102.90566,4.656349 120.71843,13.530964 30.77853,15.334378 45.88524,40.474111 46.28612,77.026754 0.48118,43.875701 -15.7192,73.831761 -49.7295,91.954641 l -19.95925,10.63557 16.75345,16.06146 c 13.80267,13.23256 81.43122,118.37312 87.85222,136.58186 1.3326,3.77901 -7.7652,4.95459 -38.34263,4.95459 H 189.90598 L 161.68342,302.38412 C 146.16101,274.58888 129.57238,246.2386 124.8198,239.38349 114.71003,224.8012 99.62932,217.02101 85.00452,218.84265 l -10.39922,1.29531 -0.9978,66.39147 -0.9978,66.39148 H 36.3049 0 Z M 134.32991,152.93777 C 155.23939,141.16125 164.29062,115.08271 156.44955,89.206304 150.51141,69.609751 130.89618,59.815225 97.3508,59.69635 L 72.7857,59.6093 v 48.88526 c 0,26.88691 1.2282,50.26799 2.7294,51.95796 4.2094,4.73873 46.69715,-0.68992 58.81481,-7.51475 z"
   style="fill:#ff0000;stroke-width:3.79801" /></svg>
