<?xml version="1.0" encoding="UTF-8" standalone="no"?>
<!-- Created with Inkscape (http://www.inkscape.org/) -->

<svg
   version="1.1"
   id="svg2"
   width="244.8448"
   height="201.28792"
   viewBox="0 0 244.8448 201.28792"
   sodipodi:docname="ПОЖАЛОВАТЬСЯ.svg"
   inkscape:version="1.2.1 (9c6d41e410, 2022-07-14)"
   xml:space="preserve"
   xmlns:inkscape="http://www.inkscape.org/namespaces/inkscape"
   xmlns:sodipodi="http://sodipodi.sourceforge.net/DTD/sodipodi-0.dtd"
   xmlns="http://www.w3.org/2000/svg"
   xmlns:svg="http://www.w3.org/2000/svg"><defs
     id="defs6"><clipPath
       clipPathUnits="userSpaceOnUse"
       id="clipPath122"><path
         style="fill:none;stroke:#000000;stroke-width:1px;stroke-linecap:butt;stroke-linejoin:miter;stroke-opacity:1"
         d="m 895.54125,707.95064 -53.83035,29.36201 -3.26245,-3.26244 -24.46834,27.73078 -35.8869,26.09956 v 71.7738 l 22.83712,73.40502 21.2059,45.67424 19.57467,39.14929 22.83711,68.5114 4.89367,13.0497 -42.41179,24.4684 -133.76026,29.362 -17.94345,29.362 -17.94344,71.7738 -27.73079,109.2919 -30.99323,151.7037 -27.73079,88.086 27.73079,112.5544 -75.03624,213.6902 -6.52489,50.5679 952.63401,13.0498 -27.7308,-79.93 -16.3122,-50.5679 -26.0996,-61.9864 -48.9366,-79.9299 v -39.1494 l 55.4615,-40.7805 14.681,-83.1924 -50.5679,-207.1653 -58.724,-203.9028 -9.7873,-17.9435 -220.2151,-50.5679 -8.1561,-26.0995 17.9435,-53.83032 16.3122,-13.04978 -16.3122,-32.62446 3.2624,-58.72401 -3.2624,-29.36201 -4.8937,-13.04978 8.1561,-39.14935 -6.5249,-30.99323 -19.5747,-24.46834 -83.19229,-44.04301 -24.4684,-3.26244 -21.20585,-8.15612 -14.68101,6.52489 z"
         id="path124" /></clipPath></defs><sodipodi:namedview
     id="namedview4"
     pagecolor="#ffffff"
     bordercolor="#111111"
     borderopacity="1"
     inkscape:showpageshadow="0"
     inkscape:pageopacity="0"
     inkscape:pagecheckerboard="1"
     inkscape:deskcolor="#d1d1d1"
     showgrid="false"
     inkscape:zoom="0.86696537"
     inkscape:cx="-72.667263"
     inkscape:cy="181.66816"
     inkscape:window-width="1920"
     inkscape:window-height="1018"
     inkscape:window-x="-6"
     inkscape:window-y="-6"
     inkscape:window-maximized="1"
     inkscape:current-layer="g8" /><g
     inkscape:groupmode="layer"
     inkscape:label="Image"
     id="g8"
     transform="translate(-1618.2494,-1622.0674)"><path
       style="fill:#ea1b23"
       d="m 1708.6178,1822.5072 c -2.1635,-0.804 -4.7971,-2.2433 -5.8524,-3.1983 -4.4145,-3.995 -4.7139,-5.9687 -4.7139,-31.069 0,-18.1352 -0.3077,-24.1826 -1.2713,-24.9823 -0.789,-0.6548 -10.3971,-1.1754 -25.3304,-1.3724 l -24.0591,-0.3174 -3.7548,-2.8658 c -4.9442,-3.7738 -7.5761,-8.2607 -7.5807,-12.924 -0.01,-6.6027 5.3198,-14.4085 11.0788,-16.2364 1.0546,-0.3347 1.9175,-1.2532 1.9175,-2.0412 0,-1.1378 -1.8601,-1.4326 -9.0398,-1.4326 -10.6233,0 -15.538,-1.9243 -18.7295,-7.3335 -4.4522,-7.5459 -4.0443,-12.6533 1.5007,-18.7909 4.5568,-5.0439 8.0784,-6.8756 13.2189,-6.8756 5.4383,0 5.2635,-2.0118 -0.4145,-4.7703 -9.5202,-4.6253 -11.3142,-16.483 -3.7222,-24.6029 4.0642,-4.3467 8.103,-5.6231 17.9043,-5.6584 l 8.7821,-0.032 -2.7235,-2.2184 c -1.4979,-1.2201 -4.0512,-3.2368 -5.674,-4.4815 -1.809,-1.3876 -3.5927,-4.1965 -4.6104,-7.2608 -1.6029,-4.8258 -1.5875,-5.1476 0.4492,-9.3548 2.5127,-5.1907 3.9952,-6.6125 10.4576,-10.0304 l 4.899,-2.5909 h 43.792 c 24.0856,0 44.03,0.385 44.3209,0.8556 0.2908,0.4707 6.1674,3.626 13.059,7.0118 l 12.5302,6.1562 -0.1357,26.7382 c -0.075,14.706 -0.4121,41.1382 -0.75,58.7382 l -0.6143,32 -4.2551,0.2389 c -5.9328,0.3331 -18.6396,6.6148 -24.5343,12.1286 -8.5619,8.0087 -13.5093,20.6169 -14.6099,37.2335 -0.5512,8.3211 -0.9927,10.0687 -3.3119,13.1093 -4.5846,6.0107 -11.9946,8.5437 -18.2225,6.2291 z m 86.8925,-69.6894 c -0.2631,-0.6875 -0.3615,-25.775 -0.2186,-55.75 l 0.2598,-54.5 32.9324,-0.2639 c 25.6811,-0.2058 33.109,0.014 33.7347,1 1.383,2.1788 1.0279,108.1689 -0.3671,109.5639 -1.7668,1.7668 -65.6643,1.7186 -66.3412,-0.05 z m 40.9594,-67.357 c 1.287,-0.4939 1.5818,-2.3573 1.5818,-10 v -9.393 h -9.5 -9.5 v 9.3333 c 0,5.1334 0.3,9.6334 0.6667,10 0.8334,0.8335 14.6072,0.8826 16.7515,0.06 z"
       id="path7333" /></g></svg>
