<?xml version="1.0" encoding="UTF-8"?>
<!DOCTYPE svg PUBLIC "-//W3C//DTD SVG 1.1//EN" "http://www.w3.org/Graphics/SVG/1.1/DTD/svg11.dtd">
<!-- Creator: CorelDRAW 2019 (64-Bit) -->
<svg xmlns="http://www.w3.org/2000/svg" xml:space="preserve" width="113.545mm" height="113.545mm" version="1.1" style="shape-rendering:geometricPrecision; text-rendering:geometricPrecision; image-rendering:optimizeQuality; fill-rule:evenodd; clip-rule:evenodd"
viewBox="0 0 287.79 287.79"
 xmlns:xlink="http://www.w3.org/1999/xlink">
 <defs>
  <style type="text/css">
   <![CDATA[
    .fil0 {fill:black}
   ]]>
  </style>
 </defs>
 <g id="Слой_x0020_1">
  <metadata id="CorelCorpID_0Corel-Layer"/>
  <path class="fil0" d="M42.15 42.14l76.9 41.76 24.85 -83.9 24.85 83.9 76.9 -41.76 -68.87 68.87 68.87 -68.87 -41.76 76.9 83.9 24.85 -83.9 24.85 41.76 76.9 -76.9 -41.76 -24.85 83.91 -24.85 -83.91 -76.9 41.76 41.76 -76.9 -83.91 -24.85 83.91 -24.85 -41.76 -76.9zm127.61 45.17l5.89 19.9 50.56 -50.56 -56.45 30.65zm-29.34 48.35l0 -111.65 -25.46 85.98 25.46 25.67zm-33.19 -23.52l-50.56 -50.56 30.65 56.45 19.9 -5.9zm28.44 35.23l-111.65 0 85.98 25.46 25.68 -25.46zm-17.63 53.1l-5.9 -19.9 -50.56 50.56 56.45 -30.65zm29.34 -48.34l0 111.65 25.46 -85.98 -25.46 -25.68zm53.1 17.63l-19.9 5.89 50.56 50.56 -30.65 -56.45zm-48.35 -29.34l111.65 0 -85.98 -25.46 -25.68 25.46z"/>
 </g>
</svg>
