<?xml version="1.0" encoding="UTF-8" standalone="no"?>
<!-- Created with Inkscape (http://www.inkscape.org/) -->

<svg
   version="1.1"
   id="svg263"
   width="226"
   height="218"
   viewBox="0 0 226 218"
   sodipodi:docname="RR.svg"
   inkscape:version="1.2.1 (9c6d41e410, 2022-07-14)"
   xml:space="preserve"
   xmlns:inkscape="http://www.inkscape.org/namespaces/inkscape"
   xmlns:sodipodi="http://sodipodi.sourceforge.net/DTD/sodipodi-0.dtd"
   xmlns="http://www.w3.org/2000/svg"
   xmlns:svg="http://www.w3.org/2000/svg"><defs
     id="defs267" /><sodipodi:namedview
     id="namedview265"
     pagecolor="#ffffff"
     bordercolor="#111111"
     borderopacity="1"
     inkscape:showpageshadow="0"
     inkscape:pageopacity="0"
     inkscape:pagecheckerboard="1"
     inkscape:deskcolor="#d1d1d1"
     showgrid="false"
     inkscape:zoom="0.41100582"
     inkscape:cx="150.84945"
     inkscape:cy="407.53681"
     inkscape:window-width="1920"
     inkscape:window-height="1018"
     inkscape:window-x="-6"
     inkscape:window-y="-6"
     inkscape:window-maximized="1"
     inkscape:current-layer="g269" /><g
     inkscape:groupmode="layer"
     inkscape:label="Image"
     id="g269"
     transform="translate(-380.1979,89.129031)"><path
       style="fill:#000000"
       d="m 380.1979,19.870969 v -109 h 113 113 v 109 109.000001 h -113 -113 z m 72,69.5 v -29.5 h -30.5 -30.5 v 29.5 29.500001 h 30.5 30.5 z m 72,0 v -29.5 h -31 -31 v 29.5 29.500001 h 31 31 z m -72,-69.5 v -30 h -30.5 -30.5 v 30 30 h 30.5 30.5 z m 143,0 v -30 h -30.5 -30.5 v 30 30 h 30.5 30.5 z m -71,-69.5 v -29.5 h -31 -31 v 29.5 29.5 h 31 31 z m 71,0 v -29.5 h -30.5 -30.5 v 29.5 29.5 h 30.5 30.5 z"
       id="path85" /></g></svg>
