<?xml version="1.0" encoding="UTF-8" standalone="no"?>
<!-- Created with Inkscape (http://www.inkscape.org/) -->

<svg
   version="1.1"
   id="svg53"
   width="341.54807"
   height="253.25177"
   viewBox="0 0 341.54807 253.25177"
   sodipodi:docname="СЧЕТ.svg"
   inkscape:version="1.2.1 (9c6d41e410, 2022-07-14)"
   xml:space="preserve"
   xmlns:inkscape="http://www.inkscape.org/namespaces/inkscape"
   xmlns:sodipodi="http://sodipodi.sourceforge.net/DTD/sodipodi-0.dtd"
   xmlns="http://www.w3.org/2000/svg"
   xmlns:svg="http://www.w3.org/2000/svg"><defs
     id="defs57" /><sodipodi:namedview
     id="namedview55"
     pagecolor="#ffffff"
     bordercolor="#111111"
     borderopacity="1"
     inkscape:showpageshadow="0"
     inkscape:pageopacity="0"
     inkscape:pagecheckerboard="1"
     inkscape:deskcolor="#d1d1d1"
     showgrid="false"
     inkscape:zoom="2.476125"
     inkscape:cx="183.351"
     inkscape:cy="102.37771"
     inkscape:window-width="1920"
     inkscape:window-height="1018"
     inkscape:window-x="-6"
     inkscape:window-y="-6"
     inkscape:window-maximized="1"
     inkscape:current-layer="g59" /><g
     inkscape:groupmode="layer"
     inkscape:label="Image"
     id="g59"
     transform="translate(84.481806,-48.048585)"><path
       style="fill:#000000"
       d="m 2.0006312,300.56585 c -55.3050892,-0.42636 -67.3916822,-0.76199 -68.7741652,-1.90977 -0.922487,-0.76588 -1.950542,-1.11921 -2.284566,-0.78518 -1.850252,1.85025 -9.073384,-4.73699 -11.867044,-10.82232 -2.203662,-4.80016 -2.319206,-6.33893 -2.890893,-38.5 -0.327519,-18.425 -0.611302,-64.54089 -0.630629,-102.47976 l -0.03514,-68.979768 3.945197,-3.642867 c 4.820122,-4.450746 6.609738,-4.850563 26.134159,-5.838627 8.525,-0.431421 15.595611,-0.84618 15.712471,-0.921687 0.11686,-0.07551 0.34186,-4.299786 0.5,-9.387286 l 0.28753,-9.25 h 7.5 7.5 l 0.5,21.78816 c 0.54606,23.795276 0.51035,23.666248 6.55887,23.696527 5.8622102,0.02935 6.9020502,-1.740842 7.2877802,-12.406473 0.32075,-8.869215 0.53621,-9.734216 2.88485,-11.581656 2.04402,-1.607825 4.05689,-1.996558 10.33826,-1.996558 4.29002,0 8.9365498,-0.432102 10.3256298,-0.960226 2.40235,-0.913374 2.53971,-1.389111 2.8151,-9.75 l 0.28951,-8.789774 h 7.5 7.5 l 0.5,21.5 c 0.275,11.825 0.86406,22.0625 1.30902,22.75 1.03129,1.593434 6.91291,1.628068 8.49098,0.05 0.77779,-0.777791 1.2,-4.81924 1.2,-11.48658 v -10.28658 l 3.62212,-1.51342 c 4.22395,-1.764875 15.08508,-1.984026 22.2435,-0.44882 2.73023,0.585531 7.13844,2.610531 9.79602,4.5 2.65758,1.88947 5.53225,3.4354 6.38816,3.4354 0.85591,0 3.4849,-1.418389 5.84222,-3.151975 5.4702,-4.022833 13.138239,-5.808741 25.107979,-5.847717 5.225,-0.01701 10.04356,-0.376392 10.7079,-0.79862 0.75762,-0.481506 1.31679,-4.110433 1.5,-9.734687 l 0.2921,-8.967001 h 7.5 7.5 l 0.5,22.471702 0.5,22.471701 2.5,1.263557 c 1.375,0.694956 3.93698,1.27019 5.6933,1.278298 5.08076,0.02345 6.3067,-2.724248 6.3067,-14.135184 0,-9.2933 0.11175,-9.792818 2.63486,-11.777494 2.07368,-1.631161 4.07038,-2.07258 9.375,-2.07258 3.70708,0 8.1302,-0.278013 9.82917,-0.617807 l 3.08904,-0.617806 0.28596,-9.132194 0.28597,-9.132193 h 8 8 l 0.26921,22.920685 c 0.18032,15.352356 0.64669,23.375522 1.41241,24.298158 0.74498,0.897637 2.74127,1.273611 5.73079,1.079315 l 4.58759,-0.298158 0.2798,-12.73973 0.2798,-12.73973 2.92054,-1.51027 c 3.53651,-1.828803 20.66877,-1.925846 28.9255,-0.163844 10.1767,2.171725 9.19065,-8.454524 10.14115,109.286949 0.45673,56.57664 0.55877,103.99162 0.22676,105.36662 -1.71073,7.08492 -7.12542,13.61375 -12.48818,15.05779 -2.50739,0.67517 -28.85981,0.98467 -75.75511,0.88971 l -71.910229,-0.14561 -3.30287,-2.43678 c -1.81657,-1.34023 -4.0364,-3.85528 -4.93294,-5.589 l -1.63007,-3.15222 -0.76767,2.41871 c -0.88435,2.78634 -4.29484,7.86763 -6.48648,9.66419 -0.825,0.67628 -3.525,1.13919 -6,1.02868 -2.475,-0.11051 -34.69361,-0.4337 -71.5969198,-0.7182 z M 91.558591,254.36002 c 1.12143,-1.20371 2.03896,-3.14386 2.03896,-4.31144 0,-3.14777 -3.6101,-6.5 -7,-6.5 -3.3899,0 -7,3.35223 -7,6.5 0,3.14777 3.6101,6.5 7,6.5 1.71825,0 3.7621,-0.90164 4.96104,-2.18856 z m -60.96104,-17.31144 c 0,-1.04373 -1.05033,-1.5 -3.45295,-1.5 -1.89912,0 -4.63287,-0.53761 -6.07499,-1.19469 -5.47147,-2.49296 -5.47206,-2.49905 -5.47206,-56.3252 0,-47.95368 -0.0629,-49.60848 -1.87395,-49.29965 -3.9184698,0.66818 -37.08895,17.37197 -37.10714,18.68618 -0.0132,0.95416 0.66018,1.16127 2.23109,0.68622 1.2375,-0.37423 4.05,-0.91947 6.25,-1.21165 3.41711,-0.45382 4.3643,-0.14137 6.5000002,2.14409 l 2.5,2.67531 v 37.16969 c 0,20.44333 -0.34958,38.42116 -0.77684,39.95072 -1.03505,3.7054 -6.1694702,6.71058 -11.4731602,6.71524 -3.10945,0.003 -4.25,0.40629 -4.25,1.50374 0,1.2956 3.61111,1.5 26.5000002,1.5 22.8888898,0 26.4999998,-0.2044 26.4999998,-1.5 z m 171.550999,-7.25 c 0.35289,-2.0625 1.45119,-7.35 2.44067,-11.75 2.89973,-12.89454 3.09198,-14.50135 1.73333,-14.48762 -0.67375,0.007 -2.26393,1.61581 -3.53373,3.57556 -3.63899,5.61626 -6.82353,6.41206 -25.65915,6.41206 -9.09267,0 -16.53212,-0.28836 -16.53212,-0.64079 0,-0.35244 4.70283,-5.0974 10.45072,-10.54438 9.82928,-9.31467 20.99795,-21.91679 24.84412,-28.03275 3.33726,-5.30672 5.93915,-14.00497 6.02836,-20.15311 0.14613,-10.07104 -5.38679,-18.06221 -16.16282,-23.34389 -4.83575,-2.37016 -6.9013,-2.77512 -14.17818,-2.77971 -7.62055,-0.005 -9.22421,0.34223 -15.22385,3.29443 -4.26148,2.09691 -7.95647,4.8309 -10.13626,7.5 -9.05603,11.08887 -12.15242,24.0685 -3.35012,14.04323 6.18251,-7.04149 16.79056,-9.31423 25.34412,-5.4299 9.9475,4.51734 12.7894,15.10444 7.93224,29.55045 -3.67162,10.91999 -9.00352,18.36729 -31.28781,43.70103 -5.64328,6.41553 -10.26052,11.92803 -10.26052,12.25 0,0.32196 15.05461,0.58539 33.45469,0.58539 h 33.45468 z M 91.558591,227.36002 c 1.12143,-1.20371 2.03896,-3.14386 2.03896,-4.31144 0,-3.14777 -3.6101,-6.5 -7,-6.5 -3.3899,0 -7,3.35223 -7,6.5 0,3.14777 3.6101,6.5 7,6.5 1.71825,0 3.7621,-0.90164 4.96104,-2.18856 z m 0,-27 c 1.12143,-1.20371 2.03896,-3.14386 2.03896,-4.31144 0,-3.14777 -3.6101,-6.5 -7,-6.5 -3.3899,0 -7,3.35223 -7,6.5 0,3.14777 3.6101,6.5 7,6.5 1.71825,0 3.7621,-0.90164 4.96104,-2.18856 z m -0.53397,-26.38137 c 5.54619,-5.54618 0.83877,-13.96852 -6.74365,-12.06545 -7.12572,1.78844 -5.11299,13.63538 2.31658,13.63538 1.57143,0 3.56361,-0.70647 4.42707,-1.56993 z m 0.53397,-26.61862 c 4.26289,-4.57567 1.40148,-10.81144 -4.96104,-10.81144 -4.22388,0 -7,2.59129 -7,6.53394 0,3.11776 3.62479,6.46606 7,6.46606 1.71825,0 3.7621,-0.90164 4.96104,-2.18856 z m -0.53247,-27.38287 c 2.22151,-2.22151 1.97512,-7.61814 -0.46753,-10.24001 -3.97104,-4.26242 -11.96104,-1.35395 -11.96104,4.35398 0,5.57012 8.6486,9.666 12.42857,5.88603 z"
       id="path503" /></g></svg>
