<?xml version="1.0" encoding="UTF-8" standalone="no"?>
<!-- Created with Inkscape (http://www.inkscape.org/) -->

<svg
   version="1.1"
   id="svg224"
   width="222.86287"
   height="48.108971"
   viewBox="0 0 222.86287 48.108971"
   sodipodi:docname="ЭТАПЫ.svg"
   inkscape:version="1.2.1 (9c6d41e410, 2022-07-14)"
   xml:space="preserve"
   xmlns:inkscape="http://www.inkscape.org/namespaces/inkscape"
   xmlns:sodipodi="http://sodipodi.sourceforge.net/DTD/sodipodi-0.dtd"
   xmlns="http://www.w3.org/2000/svg"
   xmlns:svg="http://www.w3.org/2000/svg"><defs
     id="defs228" /><sodipodi:namedview
     id="namedview226"
     pagecolor="#ffffff"
     bordercolor="#111111"
     borderopacity="1"
     inkscape:showpageshadow="0"
     inkscape:pageopacity="0"
     inkscape:pagecheckerboard="1"
     inkscape:deskcolor="#d1d1d1"
     showgrid="false"
     inkscape:zoom="1.0557862"
     inkscape:cx="239.63185"
     inkscape:cy="134.02335"
     inkscape:window-width="1920"
     inkscape:window-height="1018"
     inkscape:window-x="-6"
     inkscape:window-y="-6"
     inkscape:window-maximized="1"
     inkscape:current-layer="g230" /><g
     inkscape:groupmode="layer"
     inkscape:label="Image"
     id="g230"
     transform="translate(8.6572861,-415.86722)"><path
       style="fill:#000000"
       d="m -8.6572861,455.46404 c 0,-5 0.411765,-8.5 1,-8.5 0.55,0 1,0.74796 1,1.66214 0,3.20106 4.905448,10.06511 8.367025,11.70773 4.049018,1.92139 6.945388,2.06125 9.9487161,0.48043 2.944527,-1.54988 3.650865,-2.79072 3.668946,-6.44531 0.01826,-3.69079 -1.05907,-4.68525 -11.3340721,-10.4622 -9.495936,-5.33894 -12.150615,-8.65464 -12.150615,-15.17612 0,-4.1074 0.479436,-5.21277 3.625467,-8.3588 4.58053202,-4.58054 10.552708,-5.5663 17.5449081,-2.89595 4.327936,1.65285 4.730549,1.66027 5.86554,0.10808 1.102374,-1.50759 1.276747,-1.44971 1.827707,0.6067 0.89056,3.32394 0.770174,12.7733 -0.162734,12.7733 -0.439511,0 -1.337497,-1.48888 -1.995524,-3.30862 -1.9985,-5.52676 -6.630359,-9.19138 -11.6173321,-9.19138 -5.169327,0 -7.58803198,1.77975 -7.58803198,5.58349 0,3.56481 2.41882798,5.83789 11.02410308,10.35984 9.414747,4.9473 12.975897,9.20522 12.975897,15.51474 0,10.75802 -11.599961,17.1607 -22.69318008,12.52566 -3.59994302,-1.50415 -7.30682002,-1.20805 -7.30682002,0.58366 0,0.51293 -0.45,0.93261 -1,0.93261 -0.588235,0 -1,-3.5 -1,-8.5 z m 145.6336361,7.53292 c -8.98471,-2.89065 -15.53783,-10.88475 -16.36058,-19.95815 -1.72611,-19.03591 16.79244,-32.04207 36.20465,-25.42767 4.48876,1.52948 4.92,1.52948 6.03838,0 2.09168,-2.86053 2.48391,-1.85735 2.48391,6.3529 0,4.4 -0.36033,8 -0.80073,8 -0.44041,0 -1.78667,-2.02934 -2.99169,-4.50964 -2.34314,-4.8229 -6.63998,-8.09379 -11.95101,-9.09751 -4.66087,-0.88085 -8.12236,0.27196 -11.75866,3.91609 -5.77767,5.79011 -7.0881,22.04708 -2.59576,32.20275 2.32294,5.2514 8.15107,8.00734 14.81898,7.00742 l 4.27887,-0.64166 -0.0137,-5.18872 c -0.0192,-7.29018 -0.80394,-9.44833 -3.84025,-10.56108 -1.98233,-0.72649 0.23865,-0.97952 8.8539,-1.00867 10.74544,-0.0364 11.31956,0.059 8.75,1.45299 -2.56621,1.39219 -2.75,1.9276 -2.75,8.01099 v 6.51909 l -3.75,1.58549 c -4.3625,1.84445 -20.34939,2.7182 -24.61636,1.34538 z M 39.975625,461.8756 c 1.963552,-0.56913 3.358144,-1.74853 3.736346,-3.15981 0.331888,-1.23846 0.609578,-10.68925 0.617088,-21.00175 l 0.01365,-18.75 h -2.9349 c -5.263471,0 -8.130727,1.75748 -9.799929,6.00686 -0.862703,2.19623 -1.95029,3.99314 -2.416861,3.99314 -0.46657,0 -0.84831,-2.7 -0.84831,-6 v -6 h 21 21 v 6 c 0,3.33333 -0.444444,6 -1,6 -0.55,0 -1,-0.93462 -1,-2.07692 0,-3.46746 -5.299164,-7.92308 -9.423077,-7.92308 h -3.576923 v 20.37755 c 0,21.29318 0.103152,21.81808 4.5,22.89884 1.1,0.27038 -3.625,0.50322 -10.5,0.51742 -9.087981,0.0188 -11.644836,-0.22205 -9.367089,-0.88225 z m 31.342109,-1.66156 c 2.105328,-1.92567 5.680844,-8.88627 11.92801,-23.22074 4.90679,-11.25891 9.29843,-20.58688 9.7592,-20.72881 0.46077,-0.14194 5.05486,9.64663 10.209066,21.75236 7.5167,17.65449 9.89154,22.2931 12,23.43877 2.39735,1.30264 1.57257,1.42393 -9.3713,1.37819 -9.307866,-0.0389 -11.258786,-0.2638 -8.696116,-1.00251 3.573836,-1.03018 3.590696,-1.28532 0.56361,-8.53015 l -1.39433,-3.33711 h -7.878 -7.878001 l -1.588595,3.97029 c -1.895575,4.73751 -1.456304,6.31269 2.159482,7.74367 2.309034,0.91382 1.558164,1.08908 -5.053823,1.17966 l -7.765776,0.10638 z m 23.07682,-14.5 c -5.51201,-13.80069 -5.84374,-14.36702 -6.88265,-11.75 -0.54585,1.375 -2.15155,5.0875 -3.56821,8.25 l -2.57576,5.75 h 6.96264 c 6.82011,0 6.94424,-0.0461 6.06398,-2.25 z m 79.948156,16.518 c 4.9106,-0.90284 5.00097,-1.29519 4.98469,-21.64045 -0.008,-10.52015 -0.38428,-19.70914 -0.83524,-20.41997 -0.45095,-0.71083 -2.13156,-1.68465 -3.73468,-2.16405 -1.90673,-0.57018 3.91554,-0.90135 16.83523,-0.95758 l 19.75,-0.086 v 6.5 c 0,7.28236 -1.11885,8.37671 -2.81155,2.75 -1.45215,-4.8271 -4.10445,-6.39329 -11.88446,-7.0178 l -6.30399,-0.50602 v 10.13691 c 0,9.54533 0.11937,10.13691 2.04545,10.13691 2.51714,0 6.94904,-4.2632 6.96986,-6.70455 0.008,-0.9875 0.45153,-2.47045 0.98469,-3.29545 0.65497,-1.01349 0.97434,2.49228 0.98469,10.80902 0.0142,11.43789 -0.95357,15.00864 -2.29343,8.46179 -0.78554,-3.83829 -2.7061,-6.04435 -5.94126,-6.82449 l -2.75,-0.66314 v 8.90841 c 0,5.59543 0.44627,9.35468 1.2,10.10841 1.78153,1.78153 8.73164,1.41419 13.40589,-0.70855 3.10043,-1.40801 4.6528,-2.99438 6.33921,-6.47804 1.22832,-2.53738 2.47002,-4.61341 2.75933,-4.61341 0.55925,0 -0.47594,10.3035 -1.33123,13.25 -0.46386,1.59802 -2.26075,1.73817 -20.69059,1.61382 -11.10043,-0.0749 -19.05761,-0.34302 -17.68261,-0.59582 z"
       id="path227" /></g></svg>
