<?xml version="1.0" encoding="UTF-8" standalone="no"?>
<!-- Created with Inkscape (http://www.inkscape.org/) -->

<svg
   version="1.1"
   id="svg224"
   width="300"
   height="300"
   viewBox="0 0 300 300"
   sodipodi:docname="ТАБЛИЦА1.svg"
   inkscape:version="1.2.1 (9c6d41e410, 2022-07-14)"
   xml:space="preserve"
   xmlns:inkscape="http://www.inkscape.org/namespaces/inkscape"
   xmlns:sodipodi="http://sodipodi.sourceforge.net/DTD/sodipodi-0.dtd"
   xmlns="http://www.w3.org/2000/svg"
   xmlns:svg="http://www.w3.org/2000/svg"><defs
     id="defs228" /><sodipodi:namedview
     id="namedview226"
     pagecolor="#ffffff"
     bordercolor="#111111"
     borderopacity="1"
     inkscape:showpageshadow="0"
     inkscape:pageopacity="0"
     inkscape:pagecheckerboard="1"
     inkscape:deskcolor="#d1d1d1"
     showgrid="false"
     inkscape:zoom="1.0557862"
     inkscape:cx="596.71172"
     inkscape:cy="89.506758"
     inkscape:window-width="1920"
     inkscape:window-height="1018"
     inkscape:window-x="-6"
     inkscape:window-y="-6"
     inkscape:window-maximized="1"
     inkscape:current-layer="g230" /><g
     inkscape:groupmode="layer"
     inkscape:label="Image"
     id="g230"
     transform="translate(781.28523,-295.68043)"><path
       style="fill:#000000"
       d="m -781.28523,445.68043 v -150 h 150 150 v 150 150 h -150 -150 z m 103,100 v -40 h -46.5 -46.5 v 40 40 h 46.5 46.5 z m 95.38824,0.84638 c 0.38748,-21.5345 0.31864,-39.5395 -0.15299,-40.01113 -0.47162,-0.47162 -19.72999,-0.73999 -42.79637,-0.59637 l -41.93888,0.26112 -0.26147,39.75 -0.26148,39.75 h 42.35334 42.35334 z m 91.61176,-0.84638 v -40 h -40.5 -40.5 v 40 40 h 40.5 40.5 z m -187,-95 v -45 h -46.5 -46.5 v 45 45 h 46.5 46.5 z m 96,0 v -45 h -42.3426 -42.3426 l -0.65434,17.25 c -0.35989,9.4875 -0.65572,29.7375 -0.6574,45 l -0.003,27.75 h 43 43 z m 91,0 v -45 h -40.5 -40.5 v 45 45 h 40.5 40.5 z m -186.65613,-70.15899 c 0.36087,-8.33745 0.65613,-28.58745 0.65613,-45 v -29.84101 h -47 -47 v 45 45 h 46.34387 46.34387 z m 95.65613,-29.84101 v -45 h -42.5 -42.5 v 45 45 h 42.5 42.5 z m 91,0 v -45 h -39.84568 -39.84568 l -0.65026,12.75 c -0.35765,7.0125 -0.65209,27.2625 -0.65432,45 l -0.004,32.25 h 40.5 40.5 z"
       id="path151" /></g></svg>
