<?xml version="1.0" encoding="UTF-8" standalone="no"?>
<!-- Created with Inkscape (http://www.inkscape.org/) -->

<svg
   version="1.1"
   id="svg2"
   width="226.8049"
   height="227.19156"
   viewBox="0 0 226.8049 227.19155"
   sodipodi:docname="ВРЕМЯ.svg"
   inkscape:version="1.2.1 (9c6d41e410, 2022-07-14)"
   xml:space="preserve"
   xmlns:inkscape="http://www.inkscape.org/namespaces/inkscape"
   xmlns:sodipodi="http://sodipodi.sourceforge.net/DTD/sodipodi-0.dtd"
   xmlns="http://www.w3.org/2000/svg"
   xmlns:svg="http://www.w3.org/2000/svg"><defs
     id="defs6"><clipPath
       clipPathUnits="userSpaceOnUse"
       id="clipPath122"><path
         style="fill:none;stroke:#000000;stroke-width:1px;stroke-linecap:butt;stroke-linejoin:miter;stroke-opacity:1"
         d="m 895.54125,707.95064 -53.83035,29.36201 -3.26245,-3.26244 -24.46834,27.73078 -35.8869,26.09956 v 71.7738 l 22.83712,73.40502 21.2059,45.67424 19.57467,39.14929 22.83711,68.5114 4.89367,13.0497 -42.41179,24.4684 -133.76026,29.362 -17.94345,29.362 -17.94344,71.7738 -27.73079,109.2919 -30.99323,151.7037 -27.73079,88.086 27.73079,112.5544 -75.03624,213.6902 -6.52489,50.5679 952.63401,13.0498 -27.7308,-79.93 -16.3122,-50.5679 -26.0996,-61.9864 -48.9366,-79.9299 v -39.1494 l 55.4615,-40.7805 14.681,-83.1924 -50.5679,-207.1653 -58.724,-203.9028 -9.7873,-17.9435 -220.2151,-50.5679 -8.1561,-26.0995 17.9435,-53.83032 16.3122,-13.04978 -16.3122,-32.62446 3.2624,-58.72401 -3.2624,-29.36201 -4.8937,-13.04978 8.1561,-39.14935 -6.5249,-30.99323 -19.5747,-24.46834 -83.19229,-44.04301 -24.4684,-3.26244 -21.20585,-8.15612 -14.68101,6.52489 z"
         id="path124" /></clipPath></defs><sodipodi:namedview
     id="namedview4"
     pagecolor="#ffffff"
     bordercolor="#111111"
     borderopacity="1"
     inkscape:showpageshadow="0"
     inkscape:pageopacity="0"
     inkscape:pagecheckerboard="1"
     inkscape:deskcolor="#d1d1d1"
     showgrid="false"
     inkscape:zoom="0.86696537"
     inkscape:cx="-244.53111"
     inkscape:cy="147.0647"
     inkscape:window-width="1920"
     inkscape:window-height="1018"
     inkscape:window-x="-6"
     inkscape:window-y="-6"
     inkscape:window-maximized="1"
     inkscape:current-layer="g8" /><g
     inkscape:groupmode="layer"
     inkscape:label="Image"
     id="g8"
     transform="translate(-1688.8936,-1750.2841)"><path
       style="fill:#000000"
       d="m 1787.6949,1976.66 c -44.6094,-4.7138 -85.8889,-42.158 -96.1322,-87.2003 -3.1968,-14.0571 -3.5731,-35.3743 -0.8524,-48.2855 8.0851,-38.368 36.4199,-71.3872 72.586,-84.5862 14.3482,-5.2364 20.8235,-6.2717 39.4265,-6.3034 18.7139,-0.032 26.7104,1.3585 42.2074,7.3393 25.3765,9.7935 51.0074,34.8856 62.3613,61.0503 6.9291,15.9678 8.4338,24.0221 8.4066,45 -0.021,15.9223 -0.3374,19.6965 -2.2735,27.087 -8.8194,33.6652 -31.9758,61.5253 -63.5553,76.465 -18.6248,8.811 -38.9226,11.8908 -62.1744,9.4338 z m 9.3279,-12.1858 c 0.66,-0.66 1.2,-3.3442 1.2,-5.9648 0,-5.6439 2.4612,-7.8574 6.6265,-5.9595 2.0278,0.9239 2.3735,1.7949 2.3735,5.9804 0,7.2537 1.1463,7.8141 11.783,5.7606 10.1508,-1.9597 22.4286,-5.8432 26.717,-8.4507 2.5131,-1.5281 3,-2.4605 3,-5.7451 0,-3.3461 0.3419,-3.9693 2.3325,-4.2513 1.2828,-0.1816 3.1997,0.4546 4.2597,1.4138 1.7086,1.5463 2.2382,1.5853 4.6675,0.3441 1.5072,-0.7701 7.6965,-6.3563 13.754,-12.4138 6.0575,-6.0575 11.6437,-12.2468 12.4138,-13.754 1.2448,-2.4363 1.2024,-2.9587 -0.3822,-4.7097 -1.1969,-1.3225 -1.5776,-2.785 -1.1591,-4.4524 0.5232,-2.0846 1.303,-2.5324 4.8596,-2.7903 3.9813,-0.2888 4.3741,-0.5979 6.5218,-5.1335 3.726,-7.8687 7.3745,-21.7073 7.5597,-28.6738 l 0.1727,-6.5 -5.2614,-0.3027 c -4.2492,-0.2444 -5.5616,-0.7606 -6.8211,-2.6829 -1.2055,-1.8398 -1.3099,-2.8469 -0.4597,-4.4355 1.1419,-2.1337 3.1014,-2.8508 9.0422,-3.309 l 3.5,-0.2699 -0.1819,-6 c -0.1989,-6.5601 -4.0514,-20.9736 -7.8181,-29.25 -2.3081,-5.0716 -2.5265,-5.25 -6.4256,-5.25 -3.4885,0 -4.1228,-0.3448 -4.6739,-2.5403 -0.4203,-1.6749 -0.086,-3.1496 0.981,-4.3287 2.2257,-2.4595 2.1472,-2.749 -2.367,-8.728 -5.1998,-6.8871 -12.8027,-14.4447 -19.5333,-19.4169 -6.0289,-4.4538 -6.6911,-4.643 -8.5232,-2.4355 -0.7161,0.8628 -2.4336,1.4172 -3.8724,1.25 -2.2649,-0.2633 -2.5856,-0.7632 -2.5856,-4.0299 0,-4.5841 -1.6217,-5.86 -12.4897,-9.8263 -8.7425,-3.1906 -25.0748,-6.5173 -27.4749,-5.5964 -1.1255,0.4319 -1.5354,2.0718 -1.5354,6.1421 0,4.8736 -0.2903,5.685 -2.3735,6.6342 -3.86,1.7588 -6.6265,-0.349 -6.6265,-5.0487 0,-2.2281 -0.763,-4.7963 -1.8085,-6.0875 -1.758,-2.171 -2.0166,-2.1984 -9.25,-0.9827 -8.259,1.3881 -19.4653,4.8204 -26.4349,8.0965 -4.257,2.001 -4.5438,2.3782 -4.2845,5.6353 0.429,5.3881 -2.4871,6.602 -7.3898,3.0762 -1.3717,-0.9864 -2.4359,-0.6769 -5.9941,1.7436 -5.6524,3.8452 -19.6169,17.7765 -23.2717,23.2165 l -2.871,4.2734 2.2379,2.3822 c 1.8984,2.0208 2.0586,2.7174 1.0555,4.5917 -0.9684,1.8094 -1.7875,2.1113 -4.5238,1.6673 -1.9891,-0.3228 -3.7237,-0.066 -4.2863,0.6348 -1.3912,1.7328 -7.8083,20.379 -9.0088,26.1771 -2.7695,13.3763 -2.5752,13.9273 5.2037,14.7603 4.8853,0.5232 6.5824,1.7857 6.611,4.9183 0.027,2.9321 -2.8862,4.8214 -7.4337,4.8214 -2.3684,0 -4.7992,0.5942 -5.4019,1.3204 -2.1648,2.6084 2.2787,22.0041 7.8764,34.3805 2.7789,6.1442 2.8365,6.1958 6.2927,5.6349 2.898,-0.4703 3.6883,-0.1922 4.6707,1.6434 1.0031,1.8743 0.8429,2.5709 -1.0555,4.5917 l -2.2379,2.3822 2.9022,4.2734 c 4.013,5.909 18.0403,19.8886 23.2673,23.1883 4.0433,2.5524 4.4375,2.6214 6.1453,1.0759 1.0036,-0.9083 2.8744,-1.5027 4.1572,-1.3211 1.9484,0.276 2.4148,1.0593 2.8325,4.7573 l 0.5,4.4269 10,3.7453 c 15.3025,5.7312 27.8996,8.1013 30.3,5.7009 z m -1.3455,-94.2545 c -3.3259,-3.326 -3.3072,-8.7388 0.046,-13.1344 l 2.5,-3.2777 v -33.9442 c 0,-36.8762 0.041,-37.1486 5.4501,-35.7911 l 2.4761,0.6215 0.2869,35.0795 0.2869,35.0795 2.3607,1.9107 c 2.1466,1.7373 4.16,1.9107 22.1849,1.9107 10.9033,0 20.9785,0.4389 22.3893,0.9753 3.2402,1.2319 3.6464,6.3756 0.6308,7.9895 -1.1523,0.6167 -10.194,1.0352 -22.3652,1.0352 -18.9167,0 -20.6193,0.1482 -22.9735,2 -3.7093,2.9177 -10.1198,2.6982 -13.2726,-0.4545 z"
       id="path110" /></g></svg>
