<?xml version="1.0" encoding="UTF-8" standalone="no"?>
<!-- Created with Inkscape (http://www.inkscape.org/) -->

<svg
   version="1.1"
   id="svg2"
   width="207.5"
   height="210.00929"
   viewBox="0 0 207.5 210.00929"
   sodipodi:docname="ТУР.svg"
   inkscape:version="1.2.1 (9c6d41e410, 2022-07-14)"
   xml:space="preserve"
   xmlns:inkscape="http://www.inkscape.org/namespaces/inkscape"
   xmlns:sodipodi="http://sodipodi.sourceforge.net/DTD/sodipodi-0.dtd"
   xmlns="http://www.w3.org/2000/svg"
   xmlns:svg="http://www.w3.org/2000/svg"><defs
     id="defs6"><clipPath
       clipPathUnits="userSpaceOnUse"
       id="clipPath122"><path
         style="fill:none;stroke:#000000;stroke-width:1px;stroke-linecap:butt;stroke-linejoin:miter;stroke-opacity:1"
         d="m 895.54125,707.95064 -53.83035,29.36201 -3.26245,-3.26244 -24.46834,27.73078 -35.8869,26.09956 v 71.7738 l 22.83712,73.40502 21.2059,45.67424 19.57467,39.14929 22.83711,68.5114 4.89367,13.0497 -42.41179,24.4684 -133.76026,29.362 -17.94345,29.362 -17.94344,71.7738 -27.73079,109.2919 -30.99323,151.7037 -27.73079,88.086 27.73079,112.5544 -75.03624,213.6902 -6.52489,50.5679 952.63401,13.0498 -27.7308,-79.93 -16.3122,-50.5679 -26.0996,-61.9864 -48.9366,-79.9299 v -39.1494 l 55.4615,-40.7805 14.681,-83.1924 -50.5679,-207.1653 -58.724,-203.9028 -9.7873,-17.9435 -220.2151,-50.5679 -8.1561,-26.0995 17.9435,-53.83032 16.3122,-13.04978 -16.3122,-32.62446 3.2624,-58.72401 -3.2624,-29.36201 -4.8937,-13.04978 8.1561,-39.14935 -6.5249,-30.99323 -19.5747,-24.46834 -83.19229,-44.04301 -24.4684,-3.26244 -21.20585,-8.15612 -14.68101,6.52489 z"
         id="path124" /></clipPath></defs><sodipodi:namedview
     id="namedview4"
     pagecolor="#ffffff"
     bordercolor="#111111"
     borderopacity="1"
     inkscape:showpageshadow="0"
     inkscape:pageopacity="0"
     inkscape:pagecheckerboard="1"
     inkscape:deskcolor="#d1d1d1"
     showgrid="false"
     inkscape:zoom="0.86696537"
     inkscape:cx="-68.053468"
     inkscape:cy="210.50437"
     inkscape:window-width="1920"
     inkscape:window-height="1018"
     inkscape:window-x="-6"
     inkscape:window-y="-6"
     inkscape:window-maximized="1"
     inkscape:current-layer="g8" /><g
     inkscape:groupmode="layer"
     inkscape:label="Image"
     id="g8"
     transform="translate(-1513.2619,-1685.9669)"><path
       style="fill:#000000"
       d="m 1555.5714,1894.3403 c -1.3888,-3.6191 1.0121,-4.8339 11.1012,-5.6169 11.0017,-0.8539 14.3014,-2.1923 18.2876,-7.4177 l 2.8017,-3.6727 0.2886,-87.0784 c 0.1587,-47.8931 0.038,-88.0909 -0.2691,-89.3284 -0.5225,-2.1083 -1.0814,-2.25 -8.8757,-2.25 -11.1489,0 -26.3322,2.3732 -31.8865,4.9841 -7.9069,3.7167 -20.7573,18.1377 -20.7573,23.2944 0,0.8819 -0.4108,1.8574 -0.913,2.1677 -0.5021,0.3104 -1.2303,2.4744 -1.6182,4.809 -1.0394,6.2559 -3.114,9.7448 -5.7945,9.7448 -4.5494,0 -4.6743,-0.8068 -4.6743,-30.2046 v -27.8047 l 103.75,0.2546 103.75,0.2547 v 27.891 c 0,30.3879 -0.058,30.6897 -5.6468,29.287 -1.9912,-0.4998 -2.8061,-1.8055 -4.3043,-6.8972 -3.0901,-10.5024 -7.608,-18.6815 -13.6352,-24.685 -10.3427,-10.3021 -20.3779,-13.5103 -40.4137,-12.9199 l -11,0.3241 -0.2708,88 c -0.3073,99.8805 -0.8318,93.2214 7.7085,97.8696 3.617,1.9686 6.9338,2.7545 14.1437,3.3511 l 9.4186,0.7793 0.3134,3.25 0.3133,3.25 h -60.5947 c -55.1771,0 -60.6509,-0.1463 -61.2225,-1.6359 z"
       id="path152" /></g></svg>
