<?xml version="1.0" encoding="UTF-8" standalone="no"?>
<svg
   xmlns:dc="http://purl.org/dc/elements/1.1/"
   xmlns:cc="http://creativecommons.org/ns#"
   xmlns:rdf="http://www.w3.org/1999/02/22-rdf-syntax-ns#"
   xmlns:svg="http://www.w3.org/2000/svg"
   xmlns="http://www.w3.org/2000/svg"
   xmlns:sodipodi="http://sodipodi.sourceforge.net/DTD/sodipodi-0.dtd"
   xmlns:inkscape="http://www.inkscape.org/namespaces/inkscape"
   version="1.1"
   id="svg11"
   width="1537.0983"
   height="1531.4624"
   viewBox="0 0 1537.0983 1531.4624"
   sodipodi:docname="кабинет.svg"
   inkscape:version="1.0 (4035a4fb49, 2020-05-01)">
  <metadata
     id="metadata17">
    <rdf:RDF>
      <cc:Work
         rdf:about="">
        <dc:format>image/svg+xml</dc:format>
        <dc:type
           rdf:resource="http://purl.org/dc/dcmitype/StillImage" />
        <dc:title></dc:title>
      </cc:Work>
    </rdf:RDF>
  </metadata>
  <defs
     id="defs15" />
  <sodipodi:namedview
     inkscape:document-rotation="0"
     pagecolor="#ffffff"
     bordercolor="#666666"
     borderopacity="1"
     objecttolerance="10"
     gridtolerance="10"
     guidetolerance="10"
     inkscape:pageopacity="0"
     inkscape:pageshadow="2"
     inkscape:window-width="1920"
     inkscape:window-height="1018"
     id="namedview13"
     showgrid="false"
     inkscape:zoom="0.19014274"
     inkscape:cx="2087.3433"
     inkscape:cy="1018.609"
     inkscape:window-x="-6"
     inkscape:window-y="-6"
     inkscape:window-maximized="1"
     inkscape:current-layer="g19" />
  <g
     transform="translate(3213.8702,40.132776)"
     inkscape:groupmode="layer"
     inkscape:label="Image"
     id="g19">
    <path
       id="path24"
       d="m -3205.5507,1468.7534 c -22.1761,-61.6967 4.0163,-375.6279 31.34,-375.6279 5.0823,0 9.2405,-8.6188 9.2405,-19.1529 0,-10.534 5.382,-19.1528 11.96,-19.1528 6.578,0 11.9601,-7.7219 11.9601,-17.1597 0,-15.357 92.1831,-122.65016 133.3566,-155.21576 29.4018,-23.25478 106.2954,-57.45844 129.173,-57.45844 12.3847,0 24.7305,-7.0874 27.4351,-15.74977 6.2784,-20.10847 232.9391,-22.63471 245.6407,-2.73778 46.7248,73.19399 265.0601,69.89033 336.9563,-5.09852 18.643,-19.44484 225.2015,-12.52037 239.0353,8.01321 3.6659,5.44139 30.8844,21.15199 60.4855,34.91248 65.0372,30.23346 69.7873,33.94668 147.6389,115.40892 81.8076,85.60176 103.5216,116.06676 103.5216,145.24146 0,13.3799 5.15,26.2424 11.4446,28.5833 12.1046,4.5017 36.998,312.1826 27.462,339.4307 -9.4797,27.0878 -1516.8946,22.9047 -1526.6502,-4.2365 z m 555.1638,-771.17426 c -46.2873,-19.5556 -80.8401,-46.30106 -162.3729,-125.68419 -9.5313,-9.28 -17.3297,-25.08108 -17.3297,-35.11352 0,-10.03243 -5.382,-18.24079 -11.96,-18.24079 -6.578,0 -11.96,-14.36462 -11.96,-31.92138 0,-17.55676 -5.382,-31.92138 -11.96,-31.92138 -7.0875,0 -11.9601,-46.81803 -11.9601,-114.91697 0,-68.09894 4.8726,-114.91697 11.9601,-114.91697 6.578,0 11.96,-11.4917 11.96,-25.53711 0,-14.04541 5.382,-25.5371 11.96,-25.5371 6.578,0 11.96,-8.55347 11.96,-19.00771 0,-25.9226 120.4852,-146.6888875 146.5103,-146.8521675 11.5116,-0.0722 20.9301,-4.57063 20.9301,-9.99648 0,-32.4184345 207.2062,-51.4858225 291.633,-26.8364525 124.9656,36.4851125 258.5282,157.461 258.5282,234.16495 0,10.78114 5.382,19.60207 11.96,19.60207 32.1797,0 9.4811,263.50022 -25.2981,293.6767 -4.0469,3.51135 -11.1371,19.31244 -15.7559,35.11352 -4.6189,15.80109 -12.7521,28.72924 -18.0739,28.72924 -5.3217,0 -31.119,21.56038 -57.3273,47.91194 -90.8933,91.39016 -299.6395,123.79698 -433.4038,67.2838 z"
       style="fill:#ff0000;stroke-width:12.3577" />
  </g>
</svg>
