<?xml version="1.0" encoding="UTF-8" standalone="no"?>
<!-- Created with Inkscape (http://www.inkscape.org/) -->

<svg
   version="1.1"
   id="svg224"
   width="311.95459"
   height="286.60919"
   viewBox="0 0 311.95459 286.60919"
   sodipodi:docname="ГРУППА.svg"
   inkscape:version="1.2.1 (9c6d41e410, 2022-07-14)"
   xml:space="preserve"
   xmlns:inkscape="http://www.inkscape.org/namespaces/inkscape"
   xmlns:sodipodi="http://sodipodi.sourceforge.net/DTD/sodipodi-0.dtd"
   xmlns="http://www.w3.org/2000/svg"
   xmlns:svg="http://www.w3.org/2000/svg"><defs
     id="defs228" /><sodipodi:namedview
     id="namedview226"
     pagecolor="#ffffff"
     bordercolor="#111111"
     borderopacity="1"
     inkscape:showpageshadow="0"
     inkscape:pageopacity="0"
     inkscape:pagecheckerboard="1"
     inkscape:deskcolor="#d1d1d1"
     showgrid="false"
     inkscape:zoom="1.0557862"
     inkscape:cx="-100.39911"
     inkscape:cy="185.17007"
     inkscape:window-width="1920"
     inkscape:window-height="1018"
     inkscape:window-x="-6"
     inkscape:window-y="-6"
     inkscape:window-maximized="1"
     inkscape:current-layer="g230" /><g
     inkscape:groupmode="layer"
     inkscape:label="Image"
     id="g230"
     transform="translate(84.131999,-129.12997)"><path
       style="fill:#000000;stroke-width:1.49402"
       d="m 35.920737,383.84845 c -11.465157,-11.81902 -6.2986,-32.32209 11.062704,-43.90145 4.113967,-2.74387 7.208244,-5.74918 6.876173,-6.67847 -4.781644,-13.3813 -4.870615,-13.95835 -3.133566,-20.32395 3.298432,-12.08744 16.945589,-20.85423 28.992087,-18.62418 6.206472,1.14895 13.94365,6.06663 17.954216,11.41156 3.629229,4.83673 3.901769,18.43586 0.499566,24.92797 -2.341162,4.46747 -2.310586,4.57247 1.968273,6.75589 12.29122,6.27197 21.30915,19.61533 21.13054,31.2657 -0.10453,6.82056 -0.93188,9.09997 -5.22697,14.40161 l -3.09135,3.81581 -36.012499,1.05536 -36.012478,1.05538 z M 26.191104,339.59991 C 17.393436,335.02449 -1.5246709,316.44643 -7.3168999,306.69418 -13.454496,296.36046 -17.884181,284.04124 -19.330262,273.2843 c -1.004911,-7.4752 -0.914438,-7.74805 2.569165,-7.74805 3.267898,0 3.790692,0.95122 5.50576,10.01771 4.1254001,21.80839 17.9757983,42.41686 36.156734,53.79879 7.753556,4.854 10.578014,7.45758 10.338963,9.53043 -0.459785,3.98684 -2.457251,4.14504 -9.049256,0.71673 z m 93.672726,-1.38548 c -0.94842,-1.74871 -1.50037,-3.34798 -1.22655,-3.55391 0.27381,-0.20595 3.59474,-2.43825 7.37983,-4.9607 17.56405,-11.70491 32.98065,-34.69059 36.3725,-54.23028 1.54113,-8.878 2.0913,-9.93329 5.17881,-9.93329 4.19098,0 4.37683,2.6313 1.14221,16.17212 -5.22765,21.884 -21.52363,43.70917 -42.33297,56.69642 l -4.78941,2.98912 z m -4.67163,-80.5231 c -7.41444,-6.17886 -9.0463,-13.47648 -5.68498,-25.42292 2.23624,-7.94776 6.5582,-13.30903 15.78301,-19.57838 7.62764,-5.18389 7.76151,-5.40028 5.72372,-9.25224 -3.693,-6.98071 -4.12662,-13.30382 -1.39615,-20.3589 4.53369,-11.71428 16.87023,-17.58159 31.33623,-14.90364 6.95195,1.28694 15.56314,9.79584 17.64886,17.43923 1.61657,5.92403 0.8069,10.47843 -3.68289,20.7165 -0.76461,1.74359 0.19182,2.89099 3.55609,4.26609 17.94877,7.3363 26.65985,33.09727 15.58404,46.08605 l -3.75267,4.40081 -35.58616,-0.0534 c -34.50341,-0.0518 -35.70614,-0.15336 -39.5291,-3.33924 z m -159.493773,-3.65689 c -2.677798,-4.24992 -3.468225,-7.55438 -3.344082,-13.98026 0.21921,-11.3467 5.600459,-20.33515 16.417192,-27.42208 l 8.129707,-5.32644 -2.46723,-4.64809 c -3.196286,-6.02158 -3.151724,-16.71487 0.09516,-22.8347 4.015572,-7.56867 13.366555,-12.8812 22.5914263,-12.83474 19.2164587,0.0968 31.2390167,17.07776 23.8155687,33.63776 l -3.031989,6.76367 7.139984,4.37976 c 15.185739,9.31513 22.489483,27.80392 15.92897,40.32279 -3.509824,6.69749 -8.557362,7.50772 -46.7712841,7.50772 H -40.79492 Z m 99.51695,-0.37103 c 0,-2.17669 1.002664,-2.96821 3.759986,-2.96821 2.757317,0 3.759985,0.79152 3.759985,2.96821 0,2.17669 -1.002668,2.96821 -3.759985,2.96821 -2.757322,0 -3.759986,-0.79152 -3.759986,-2.96821 z m 16.543936,0 c 0,-2.17669 1.002668,-2.96821 3.759986,-2.96821 2.757317,0 3.759985,0.79152 3.759985,2.96821 0,2.17669 -1.002668,2.96821 -3.759985,2.96821 -2.757318,0 -3.759986,-0.79152 -3.759986,-2.96821 z m 16.543936,0 c 0,-2.17669 1.002668,-2.96821 3.759986,-2.96821 2.757317,0 3.759985,0.79152 3.759985,2.96821 0,2.17669 -1.002668,2.96821 -3.759985,2.96821 -2.757318,0 -3.759986,-0.79152 -3.759986,-2.96821 z m -55.314116,-68.5332 c -3.022539,-2.98257 -2.184714,-4.14449 5.30631,-7.35894 8.6884,-3.72825 26.665004,-7.09576 38.25352,-7.16594 10.87099,-0.0658 28.337337,3.53882 37.729737,7.78655 6.77856,3.06563 7.13211,3.49042 5.13168,6.16599 -2.11734,2.83193 -2.264,2.82616 -10.1275,-0.39855 -20.980413,-8.60376 -47.939042,-7.90984 -72.157763,1.85736 -1.264077,0.50979 -3.12527,0.11088 -4.135984,-0.88647 z"
       id="path7163" /></g></svg>
