<?xml version="1.0" encoding="UTF-8" standalone="no"?>
<!-- Created with Inkscape (http://www.inkscape.org/) -->

<svg
   version="1.1"
   id="svg224"
   width="343.27969"
   height="353.32297"
   viewBox="0 0 343.2797 353.32296"
   sodipodi:docname="ПОБЕДИТЕЛИ.svg"
   inkscape:version="1.2.1 (9c6d41e410, 2022-07-14)"
   xml:space="preserve"
   xmlns:inkscape="http://www.inkscape.org/namespaces/inkscape"
   xmlns:sodipodi="http://sodipodi.sourceforge.net/DTD/sodipodi-0.dtd"
   xmlns="http://www.w3.org/2000/svg"
   xmlns:svg="http://www.w3.org/2000/svg"><defs
     id="defs228" /><sodipodi:namedview
     id="namedview226"
     pagecolor="#ffffff"
     bordercolor="#111111"
     borderopacity="1"
     inkscape:showpageshadow="0"
     inkscape:pageopacity="0"
     inkscape:pagecheckerboard="1"
     inkscape:deskcolor="#d1d1d1"
     showgrid="false"
     inkscape:zoom="1.0557862"
     inkscape:cx="-161.01745"
     inkscape:cy="252.41854"
     inkscape:window-width="1920"
     inkscape:window-height="1018"
     inkscape:window-x="-6"
     inkscape:window-y="-6"
     inkscape:window-maximized="1"
     inkscape:current-layer="g230" /><g
     inkscape:groupmode="layer"
     inkscape:label="Image"
     id="g230"
     transform="translate(-59.174831,-131.9996)"><path
       style="fill:#000000"
       d="M 59.45968,484.25249 C 59.19649,483.5634 59.09762,451.2746 59.23995,412.4996 l 0.2588,-70.5 51.75,-0.259 51.75,-0.259 v -33.491 -33.491 h 66 66 v 42.991 42.991 l 51.75,0.259 51.75,0.259 v 62 62 l -169.28028,0.25289 c -134.89766,0.20153 -169.37746,-0.002 -169.75879,-1 z M 325.72885,331.89637 c -0.87771,-0.87771 -0.98789,-27.5614 -0.12311,-29.81498 0.52462,-1.36714 3.2386,-1.58179 20,-1.58179 11.11391,0 19.39301,-0.39209 19.39301,-0.91844 0,-1.23853 -5.26935,-4.49551 -17.92843,-11.08156 l -10.57157,-5.5 -0.29127,-7.12423 c -0.26395,-6.45592 -0.0445,-7.41744 2.33889,-10.25 l 2.63017,-3.12577 h -7.56984 c -9.19389,0 -8.79802,0.8487 -8.39594,-18 l 0.28799,-13.5 38.25,-0.26188 38.25,-0.26189 v 11.40368 11.40367 l -9,8.21642 c -4.95,4.51903 -8.99596,8.50522 -8.99102,8.85821 0.005,0.35298 2.88962,3.11679 6.41041,6.14179 11.54562,9.91982 14.46025,19.12507 10.13206,32 -2.48469,7.39112 -12.56886,17.42034 -21.10173,20.98675 -5.66837,2.36917 -7.06192,2.50221 -29.46962,2.81344 -12.93594,0.17967 -23.84844,-0.002 -24.25,-0.40342 z M 61.66542,310.83293 c -0.36667,-0.36666 -0.66667,-6.17722 -0.66667,-12.91233 V 285.67493 L 74.8618,271.83726 c 14.55693,-14.53027 28.06914,-29.47393 30.12634,-33.31783 0.97941,-1.83006 0.95283,-2.44164 -0.13614,-3.13169 -0.74429,-0.47163 -10.25138,-0.86441 -21.12686,-0.87283 l -19.77362,-0.0153 0.27362,-17.25 0.27361,-17.25 17.5,-0.3013 c 29.19408,-0.50264 40.33143,2.30732 50.70828,12.79373 8.84487,8.93824 13.03081,21.72449 10.30241,31.4694 -1.58982,5.67828 -8.48895,16.50835 -16.2687,25.53817 l -5.60015,6.5 10.17908,0.5 10.17908,0.5 0.27561,16.42515 c 0.20926,12.47071 -0.0315,16.62006 -1,17.23469 -1.52361,0.96692 -78.14747,1.13496 -79.10894,0.17349 z M 217.76457,217.7496 c -0.30576,-31.919 1.07821,-28.92314 -11.67547,-25.27371 -4.16249,1.19109 -9.42129,1.98954 -12,1.82198 l -4.59035,-0.29827 -0.27322,-17.15818 -0.27322,-17.15818 4.22484,-0.71378 c 12.96484,-2.1904 22.40234,-11.81062 24.00508,-24.46986 l 0.31652,-2.5 h 18 18 l 0.25826,56.75 0.25825,56.75 h -17.99243 -17.99244 z"
       id="path378" /></g></svg>
