<?xml version="1.0" encoding="UTF-8" standalone="no"?>
<svg
   xmlns:dc="http://purl.org/dc/elements/1.1/"
   xmlns:cc="http://creativecommons.org/ns#"
   xmlns:rdf="http://www.w3.org/1999/02/22-rdf-syntax-ns#"
   xmlns:svg="http://www.w3.org/2000/svg"
   xmlns="http://www.w3.org/2000/svg"
   xmlns:sodipodi="http://sodipodi.sourceforge.net/DTD/sodipodi-0.dtd"
   xmlns:inkscape="http://www.inkscape.org/namespaces/inkscape"
   version="1.1"
   id="svg307"
   width="1539.9202"
   height="1558.8429"
   viewBox="0 0 1539.9202 1558.8429"
   sodipodi:docname="выездка.svg"
   inkscape:version="1.0 (4035a4fb49, 2020-05-01)">
  <metadata
     id="metadata313">
    <rdf:RDF>
      <cc:Work
         rdf:about="">
        <dc:format>image/svg+xml</dc:format>
        <dc:type
           rdf:resource="http://purl.org/dc/dcmitype/StillImage" />
        <dc:title></dc:title>
      </cc:Work>
    </rdf:RDF>
  </metadata>
  <defs
     id="defs311" />
  <sodipodi:namedview
     inkscape:document-rotation="0"
     pagecolor="#ffffff"
     bordercolor="#666666"
     borderopacity="1"
     objecttolerance="10"
     gridtolerance="10"
     guidetolerance="10"
     inkscape:pageopacity="0"
     inkscape:pageshadow="2"
     inkscape:window-width="1920"
     inkscape:window-height="1018"
     id="namedview309"
     showgrid="false"
     inkscape:zoom="0.52606813"
     inkscape:cx="465.99027"
     inkscape:cy="752.94251"
     inkscape:window-x="-6"
     inkscape:window-y="-6"
     inkscape:window-maximized="1"
     inkscape:current-layer="g315" />
  <g
     transform="translate(-349.44119,-45.43316)"
     inkscape:groupmode="layer"
     inkscape:label="Image"
     id="g315">
    <path
       id="path8"
       d="m 1747.281,1602.0639 c -31.6333,-5.7199 -45.5205,-15.3433 -45.5205,-31.5441 0,-7.9742 3.2591,-13.6207 17.4963,-30.3128 17.2988,-20.2816 21.2996,-29.2578 23.4514,-52.6159 3.3878,-36.7741 1.6551,-83.2681 -4.101,-110.0436 -1.4018,-6.5205 -4.9757,-17.1812 -7.9421,-23.6906 -2.9664,-6.5093 -10.6394,-28.5855 -17.051,-49.0582 -16.1251,-51.4884 -24.906,-72.4677 -39.0355,-93.2637 -6.7792,-9.9778 -25.7817,-29.3266 -33.7672,-34.3827 -6.7256,-4.2583 -6.7639,-2.5492 -0.3338,14.8903 2.6802,7.2691 4.8731,14.8506 4.8731,16.8477 0,6.774 -8.1244,19.9753 -20.4748,33.2693 -11.4416,12.3158 -59.715,55.8654 -88.1846,79.5553 -29.1098,24.2228 -42.1763,39.3574 -47.3177,54.8076 -1.9672,5.9112 -5.58,13.055 -8.0286,15.875 -10.8476,12.4934 -10.8649,17.9113 -0.093,29.3007 14.968,15.8265 16.1039,24.9135 7.3476,58.7822 -3.1269,12.0947 -5.6852,23.4542 -5.6852,25.2433 0,4.3488 -9.7591,8.5677 -28.1999,12.191 -16.0835,3.1602 -17.8206,2.7112 -22.8708,-5.911 -2.615,-4.4645 -3.4393,-10.6612 -4.8393,-36.3767 -2.3809,-43.7339 -2.2031,-85.6324 0.4182,-98.5946 3.2911,-16.2739 9.4973,-25.2392 36.7492,-53.086 37.3259,-38.1408 51.4362,-56.0241 60.8749,-77.153 14.9251,-33.4105 10.4177,-66.2993 -13.4047,-97.8073 -4.0483,-5.3545 -16.6591,-19.6034 -28.0239,-31.6643 -26.4321,-28.051 -37.1052,-42.4869 -57.8173,-78.2012 l -16.795,-28.9598 -7.5116,-0.024 c -4.1313,-0.013 -10.71,-1.1967 -14.6192,-2.6304 -19.5583,-7.1728 -25.5412,-6.3062 -57.4751,8.3251 -21.817,9.996 -67.1701,26.1158 -84.6346,30.0816 -17.9667,4.0799 -38.3688,6.8163 -58.2549,7.8134 -25.6421,1.2858 -25.1484,0.7723 -25.2213,26.2344 -0.027,9.3807 -0.6007,17.9238 -1.2753,18.9847 -3.4572,5.437 -21.4948,7.0691 -34.4598,3.118 -4.0203,-1.2252 -14.2198,-5.3434 -22.6654,-9.1515 l -15.3558,-6.9238 -33.3752,-1.2814 c -31.2654,-1.2005 -45.2709,-3.0979 -49.982,-6.7714 -1.0931,-0.8524 -2.4603,-4.0706 -3.0383,-7.1515 -1.76957,-9.4325 -3.76366,-10.3195 -23.11052,-10.2803 -18.24393,0.037 -46.89374,3.2938 -54.06824,6.1461 -4.02511,1.6003 -4.29165,2.4551 -5.37734,17.2457 -1.22934,16.7473 -0.51009,28.9459 3.35956,56.9791 2.96008,21.444 4.97821,30.4688 13.86397,61.9977 l 6.79029,24.0937 -0.27411,35.736 c -0.29794,38.8426 -0.85712,34.6277 12.60642,95.0254 7.26421,32.5873 12.26757,53.3704 17.20632,71.4721 5.25653,19.2663 4.65394,31.5889 -2.62129,53.6041 -4.3909,13.287 -4.96282,16.8987 -4.11559,25.9898 0.54119,5.8071 2.53179,15.3096 4.42354,21.1168 1.90312,5.842 3.48709,15.0672 3.54599,20.6523 0.12719,12.0517 -1.74509,14.6956 -14.96942,21.14 -7.98161,3.8895 -10.96305,4.4219 -24.51803,4.3781 -16.50243,-0.053 -24.78028,-2.5769 -37.68943,-11.49 -10.97235,-7.5758 -11.60631,-9.8504 -6.80824,-24.4278 2.29715,-6.979 9.61886,-23.9156 16.27051,-37.6367 6.65163,-13.7211 12.50824,-27.9749 13.0147,-31.6751 1.08118,-7.8994 -5.89737,-61.178 -11.83852,-90.3825 -7.12747,-35.036 -12.83175,-51.7742 -37.64322,-110.4568 -3.5885,-8.4873 -11.70144,-32.4181 -18.02875,-53.1795 -6.32731,-20.7613 -13.30682,-42.537 -15.51003,-48.3904 -5.31976,-14.1333 -16.00984,-34.5095 -21.64822,-41.2634 l -4.54246,-5.4411 -16.04204,6.8539 c -8.82311,3.7696 -23.04097,10.3655 -31.59527,14.6575 -24.05913,12.0715 -34.21063,15.9627 -68.34511,26.1982 -73.02584,21.8972 -85.55026,35.8949 -90.93864,101.6357 -5.17029,63.0802 -5.35183,70.0636 -2.35535,90.6067 3.32675,22.8072 3.61817,39.3608 0.81217,46.1351 -2.51432,6.0701 -1.21636,8.6816 14.86718,29.9123 19.8727,26.2325 22.68666,40.6558 12.04992,61.7632 -6.62739,13.1513 -30.96248,44.4709 -33.99387,43.7506 -3.97055,-0.9434 -9.00082,-8.4992 -13.38817,-20.1098 -2.47542,-6.5509 -7.64431,-16.8137 -11.48644,-22.8063 -12.2721,-19.1407 -12.45734,-19.7332 -13.60658,-43.5207 -0.85801,-17.7593 -1.85528,-24.091 -5.24493,-33.2995 -13.93411,-37.8544 -13.82312,-36.9538 -7.53592,-61.147 3.32675,-12.8013 3.55168,-17.6876 3.95213,-85.8581 0.23354,-39.7563 0.87471,-76.9287 1.42483,-82.6054 1.69959,-17.5378 8.02001,-40.7711 14.68561,-53.9829 5.14529,-10.1984 12.78719,-16.1924 45.63853,-35.797 36.77754,-21.9477 61.1967,-39.6745 77.5608,-56.3044 l 11.12148,-11.3022 -3.33947,-13.6081 c -1.83672,-7.4844 -4.13175,-19.8213 -5.10007,-27.41523 -2.27804,-17.86515 -5.66154,-29.61015 -10.93542,-37.95957 -6.72229,-10.6425 -8.6746,-19.69574 -9.67891,-44.88307 -0.74877,-18.77846 -0.36418,-26.43946 1.89708,-37.7901 3.23539,-16.24044 2.00008,-27.3383 -5.19566,-46.67691 -8.51733,-22.89039 -10.58741,-29.25021 -16.71609,-51.35654 -3.4964,-12.61157 -7.92442,-27.11925 -9.84006,-32.23929 l -3.483,-9.30914 -7.5399,1.08406 c -10.2592,1.47502 -32.57939,7.43455 -57.56774,15.37067 -11.4341,3.63135 -21.10052,6.60249 -21.48095,6.60249 -0.38041,0 -5.06059,6.49755 -10.4004,14.43899 -14.97888,22.27677 -20.41278,25.21056 -30.42018,16.42396 -6.90917,-6.06634 -8.88769,-6.09543 -12.38081,-0.18208 -1.52408,2.58006 -5.44803,7.04145 -8.71989,9.91417 -5.2793,4.63529 -6.68753,5.10502 -12.51216,4.17363 -7.97849,-1.27581 -17.77698,-6.48894 -32.36588,-17.21975 -16.19747,-11.91399 -18.86257,-17.22776 -23.18604,-46.22912 -1.33187,-8.93401 -3.87048,-22.54733 -5.64136,-30.25184 -2.16075,-9.40066 -3.21979,-19.85571 -3.21979,-31.78638 0,-10.36087 -0.95033,-21.12036 -2.27779,-25.78879 -1.72829,-6.07683 -2.51426,-25.84676 -3.25697,-81.91869 -1.04394,-78.81351 -2.44742,-95.72941 -9.03052,-108.84283 -2.01539,-4.01462 -11.17498,-14.97443 -20.35465,-24.35514 -10.63858,-10.87157 -18.16921,-20.13265 -20.76901,-25.54149 l -4.07869,-8.48565 5.72217,-1.07348 c 3.14719,-0.59043 11.29537,-0.58451 18.10706,0.013 38.64195,3.39036 37.12041,3.46988 53.04974,-2.77279 8.07125,-3.16309 21.59409,-7.69593 30.05076,-10.07295 21.0825,-5.92593 38.99201,-13.01973 46.47216,-18.40723 8.15149,-5.87101 8.55672,-6.00357 30.11395,-9.85124 29.28957,-5.22778 61.58044,-7.13335 86.37039,-5.09695 23.95583,1.96789 30.27343,3.02374 60.33804,10.08421 34.52246,8.10735 45.17849,12.04189 53.96677,19.92614 4.26751,3.82853 13.97232,9.93116 21.56622,13.5614 11.93407,5.70504 17.38203,9.92647 40.15956,31.11822 14.49386,13.48478 27.11079,25.93473 28.03764,27.66656 0.92685,1.73182 9.04265,9.51974 18.0351,17.3065 11.63358,10.07374 19.70974,18.86361 27.99713,30.47128 22.85087,32.00586 26.28519,33.40051 52.98136,21.5153 l 12.08388,-5.37978 2.76849,-14.51446 c 3.68573,-19.32343 6.703,-26.21912 12.37604,-28.28415 2.50006,-0.91005 9.55468,-4.19474 15.67689,-7.29931 12.4308,-6.30364 17.44221,-6.85939 27.08001,-3.00311 6.27273,2.50984 7.14514,2.46725 17.49485,-0.85429 5.991,-1.92273 25.313,-10.57939 42.9378,-19.23702 27.8569,-13.6839 32.2619,-16.36371 33.7055,-20.50485 2.3449,-6.72647 2.0258,-16.38129 -0.9465,-28.6444 -4.7763,-19.70568 -3.6422,-31.75781 5.6989,-60.56048 8.5177,-26.26379 10.0687,-34.38252 13.1852,-69.01929 0.9866,-10.9643 2.7715,-23.70426 3.9664,-28.31101 1.195,-4.60677 1.8402,-9.24255 1.4337,-10.30175 -1.1927,-3.10809 -8.39,-5.66698 -20.0613,-7.13249 -16.0303,-2.01283 -16.7687,-2.68311 -21.0453,-19.10596 -2.0481,-7.865 -5.4584,-18.02534 -7.5786,-22.57855 -2.1201,-4.55307 -3.8548,-9.14244 -3.8548,-10.19847 0,-1.05602 2.1929,-6.26413 4.8731,-11.57359 8.5288,-16.89536 5.4591,-28.85121 -9.1814,-35.7595 -10.5403,-4.97361 -15.1841,-9.41352 -15.1841,-14.51755 0,-6.81336 4.2979,-11.123372 17.9239,-17.974358 13.8062,-6.941617 13.9862,-7.205935 17.1267,-25.149604 1.6055,-9.173825 10.5108,-17.390613 21.6292,-19.957049 23.0414,-5.318579 63.6906,1.64529 94.0048,16.104505 13.9288,6.643769 15.9357,10.042159 13.7435,23.272075 -2.5094,15.143511 -0.4577,21.124811 11.9852,34.940141 6.4314,7.14081 10.3888,12.96174 10.3888,15.28091 0,2.2857 -2.5331,6.0899 -6.4975,9.75787 -6.3601,5.88457 -6.4975,6.24639 -6.4975,17.11254 0,12.80945 -2.6769,21.5391 -9.7634,31.83903 l -5.0219,7.2991 11.1837,12.69169 c 33.4527,37.96317 45.985,64.37602 49.8487,105.06021 2.2401,23.58733 -2.5221,44.1516 -21.7453,93.90137 -9.6463,24.9649 -13.0769,39.93609 -13.1063,57.19727 -0.032,18.92006 3.2447,30.61589 18.6833,66.68477 18.173,42.45732 20.68,46.81458 36.3529,63.18349 10.1417,10.5921 17.1787,20.01873 25.326,33.92603 18.4599,31.51078 28.3281,37.72342 51.9514,32.70644 27.7891,-5.90169 34.7388,-7.07756 51.903,-8.78176 36.0157,-3.57593 66.6666,-2.15594 123.5758,5.72501 27.8459,3.85618 38.0569,4.50974 71.472,4.57452 41.5164,0.0806 41.9648,0.0219 74.7209,-9.75322 28.217,-8.42065 37.9924,-10.50919 53.604,-11.45269 30.8723,-1.86579 47.3732,4.36542 71.4318,26.97475 8.4074,7.90096 22.233,19.8958 30.7236,26.65519 21.3137,16.96807 33.6136,35.90674 44.5653,68.61948 8.5658,25.58595 11.8681,46.75761 12.002,76.94596 0.1298,29.27322 -1.0999,38.11482 -9.2426,66.45266 -7.8783,27.41766 -9.4496,39.67587 -9.3883,73.24277 0.059,32.10438 1.6149,49.38218 8.0469,89.34008 5.5755,34.6372 6.4184,78.5812 2.0473,106.7382 -7.5755,48.7984 -18.118,76.4354 -38.8166,101.7572 -6.296,7.7022 -16.95,21.7342 -23.6756,31.1822 -6.7257,9.4481 -15.8681,21.9269 -20.3165,27.7307 -7.3344,9.5692 -8.0841,11.338 -8.0463,18.9833 0.023,4.6369 1.4874,14.644 3.2543,22.2379 1.8413,7.9141 3.8758,25.2464 4.7667,40.6091 0.8548,14.7411 2.4189,35.3564 3.4758,45.8117 2.3303,23.0528 0.8918,29.8607 -9.1524,43.3134 -13.7705,18.4434 -16.6966,30.6881 -10.6614,44.6137 3.7252,8.5956 4.4916,21.9076 1.5882,27.5863 -0.9978,1.9514 -4.8048,6.6546 -8.4601,10.4516 -7.4401,7.7285 -8.1284,7.8371 -27.491,4.336 z m 34.5164,-421.92 c 0,-25.1221 -3.4864,-47.1182 -12.146,-76.6292 -21.5058,-73.2901 -24.0905,-85.931 -24.0798,-117.76656 0.011,-33.00182 2.7917,-44.53506 27.1031,-112.41265 14.1837,-39.60122 18.3589,-64.99957 15.5515,-94.60352 -2.8656,-30.21744 -10.467,-50.45585 -23.4436,-62.41722 -13.4504,-12.39821 -41.0828,-22.84529 -60.6341,-22.9242 -16.2202,-0.0654 -44.1785,10.32271 -44.1785,16.41493 0,1.04247 6.0305,7.45113 13.401,14.24148 7.3706,6.79035 20.9068,19.76926 30.0806,28.842 14.351,14.19308 17.5652,18.38923 23.0245,30.05825 8.7121,18.62207 12.1664,36.31414 12.0042,61.48113 -0.206,31.94988 -6.3709,62.74796 -23.2484,116.14214 -4.5183,14.29441 -9.394,32.93401 -10.8348,41.42132 -1.4408,8.4873 -4.7167,20.8971 -7.2797,27.5772 -7.3836,19.244 -6.6884,26.639 4.3147,45.8983 4.9361,8.64 13.7566,27.6223 19.6012,42.1828 13.3747,33.3203 19.6867,45.9494 30.948,61.9218 8.8822,12.598 20.5223,22.2169 26.8854,22.2169 2.6781,0 2.9307,-1.8658 2.9307,-21.6449 z M 570.51806,735.33336 c 15.33879,-4.65902 60.01603,-27.18443 59.02749,-29.76054 -0.41262,-1.07523 -1.22756,-6.2726 -1.811,-11.54973 -0.58344,-5.2771 -2.22329,-12.33587 -3.64412,-15.68612 -3.248,-7.65862 -5.37889,-7.74509 -30.00047,-1.21748 -39.36682,10.43686 -49.20747,13.8255 -49.82275,17.15645 -0.31974,1.73102 -3.06209,9.52752 -6.09408,17.32555 -5.20535,13.38765 -7.01115,25.14706 -4.29447,27.96558 2.02344,2.09928 24.24182,-0.46808 36.6394,-4.23371 z m 6.71869,-73.11331 c 6.30533,-2.74765 18.22567,-8.62319 26.48963,-13.05675 l 15.02538,-8.06103 -0.01,-10.82428 c -0.01,-12.47942 -1.89482,-20.36058 -7.73419,-32.34711 l -4.15446,-8.52792 h -9.18434 -9.18436 l -6.64625,10.15228 c -3.65544,5.58376 -11.44538,16.73097 -17.31098,24.77158 -14.18568,19.44583 -18.16196,31.28594 -14.09723,41.977 1.43732,3.78045 1.93184,3.9249 8.43423,2.46392 3.79905,-0.85359 12.06629,-3.80006 18.37163,-6.54769 z M 1045.9612,639.3522 c 0,-4.63087 9.6657,-21.97967 14.5146,-26.0597 4.2354,-3.56389 6.8496,-4.39716 13.7949,-4.39716 11.0582,0 18.015,-4.57611 23.4597,-15.43147 5.6036,-11.17208 6.6223,-31.5979 2.2684,-45.48223 l -3.0563,-9.7462 -9.6538,0.50877 c -9.9163,0.52259 -37.0116,3.64284 -60.009,6.91048 l -12.995,1.84643 -9.6506,-5.85111 c -7.59343,-4.60384 -11.34279,-5.85111 -17.58876,-5.85111 -7.24492,0 -8.79659,0.7447 -17.76868,8.52792 -20.43692,17.72884 -26.84282,24.10516 -29.85613,29.71822 l -3.10533,5.78446 4.06091,3.08699 c 2.23351,1.69786 14.88125,7.97587 28.10611,13.95116 20.91963,9.45195 25.67043,12.3411 36.54818,22.2264 16.1985,14.72056 21.8292,18.95788 27.4228,20.63685 6.9782,2.09457 13.5065,1.91154 13.508,-0.3787 z M 930.35799,565.77992 c 19.82671,-5.88788 26.4985,-22.13279 10.71672,-26.09377 -13.20856,-3.31514 -29.46924,14.08505 -23.53124,25.18028 2.18727,4.08695 2.13974,4.08357 12.81452,0.91349 z"
       style="fill:#000000;stroke-width:1.62437" />
  </g>
</svg>
