<?xml version="1.0" encoding="UTF-8" standalone="no"?>
<svg
   xmlns:dc="http://purl.org/dc/elements/1.1/"
   xmlns:cc="http://creativecommons.org/ns#"
   xmlns:rdf="http://www.w3.org/1999/02/22-rdf-syntax-ns#"
   xmlns:svg="http://www.w3.org/2000/svg"
   xmlns="http://www.w3.org/2000/svg"
   xmlns:sodipodi="http://sodipodi.sourceforge.net/DTD/sodipodi-0.dtd"
   xmlns:inkscape="http://www.inkscape.org/namespaces/inkscape"
   version="1.1"
   id="svg295"
   width="1399.8032"
   height="1240.4928"
   viewBox="0 0 1399.8032 1240.4927"
   sodipodi:docname="КОННЫЕ.svg"
   inkscape:version="1.0 (4035a4fb49, 2020-05-01)">
  <metadata
     id="metadata301">
    <rdf:RDF>
      <cc:Work
         rdf:about="">
        <dc:format>image/svg+xml</dc:format>
        <dc:type
           rdf:resource="http://purl.org/dc/dcmitype/StillImage" />
        <dc:title></dc:title>
      </cc:Work>
    </rdf:RDF>
  </metadata>
  <defs
     id="defs299" />
  <sodipodi:namedview
     inkscape:document-rotation="0"
     pagecolor="#ffffff"
     bordercolor="#666666"
     borderopacity="1"
     objecttolerance="10"
     gridtolerance="10"
     guidetolerance="10"
     inkscape:pageopacity="0"
     inkscape:pageshadow="2"
     inkscape:window-width="1920"
     inkscape:window-height="1018"
     id="namedview297"
     showgrid="false"
     inkscape:zoom="0.36123851"
     inkscape:cx="715.44302"
     inkscape:cy="836.09769"
     inkscape:window-x="-6"
     inkscape:window-y="-6"
     inkscape:window-maximized="1"
     inkscape:current-layer="g303" />
  <g
     transform="translate(27.418876,59.261972)"
     inkscape:groupmode="layer"
     inkscape:label="Image"
     id="g303">
    <path
       id="path8"
       d="m 742.21541,1180.6394 c -12.02567,-1.2618 -19.01476,-3.359 -23.86241,-7.1599 -3.18091,-2.4942 -3.39174,-3.3065 -2.21405,-8.5314 5.91375,-26.2363 34.7562,-49.5328 75.58374,-61.0498 11.64098,-3.2839 17.28233,-6.9208 23.05335,-14.8621 4.86463,-6.6941 5.15541,-9.4663 1.46877,-14.0047 -2.44487,-3.0097 -3.67519,-3.2805 -13.28462,-2.9238 -8.92562,0.3314 -11.18326,-0.072 -14.36367,-2.5656 -8.29384,-6.5032 -8.72865,-20.834 -1.34563,-44.3523 2.32173,-7.3959 4.61252,-18.0836 5.09063,-23.7503 3.25021,-38.52409 30.53932,-73.30626 66.88803,-85.25448 6.55036,-2.15316 14.22316,-5.07149 17.05061,-6.48514 4.95684,-2.47822 14.166,-11.57509 14.166,-13.99318 0,-0.64711 -2.27793,-3.58424 -5.0622,-6.52695 -20.62997,-21.80462 -40.25753,-68.50399 -52.74313,-125.49006 -2.06148,-9.40891 -4.05426,-18.49117 -4.42851,-20.18278 -0.4783,-2.16274 -1.46836,-2.87025 -3.33519,-2.38361 -7.98276,2.08091 -28.99512,-5.00967 -47.11594,-15.89912 l -12.80963,-7.69781 -13.40746,5.76192 c -16.88869,7.25795 -39.19284,13.1484 -64.89244,17.13788 -26.69449,4.14392 -88.08652,4.44647 -122.99178,0.60609 -55.19613,-6.07281 -128.66275,-21.06535 -177.5045,-36.2238 l -8.74823,-2.71512 -0.99297,14.40387 c -2.02523,29.38004 -10.42362,67.49864 -24.13894,109.56155 l -7.55377,23.16641 2.03868,21.38388 c 2.75413,28.88774 3.1104,130.09265 0.52441,148.97435 -3.74088,27.3142 -5.72492,34.1721 -15.73401,54.3832 l -9.63524,19.4561 4.63733,8.3428 c 10.01722,18.0216 6.56281,31.3485 -9.90292,38.2047 -7.57276,3.1533 -54.40576,3.1365 -68.34777,-0.024 -28.11103,-6.3734 -28.25808,-20.8824 -0.41975,-41.4044 29.98277,-22.1029 45.53468,-46.3929 51.00979,-79.6708 1.22751,-7.4603 -11.66619,-224.1786 -14.20668,-238.78657 -3.97491,-22.8567 -10.74955,-41.52285 -20.28103,-55.88015 l -3.59403,-5.4137 -5.49039,4.94446 c -7.48105,6.73728 -20.14393,12.8753 -39.90849,19.34479 -24.04412,7.8704 -76.21794,18.47906 -110.11034,22.38918 l -9.295844,1.07245 -3.936339,7.84076 c -18.157483,36.16772 -4.087907,82.22139 38.068393,124.60891 7.97091,8.01459 16.96493,16.41539 19.98674,18.66846 l 5.4942,4.09647 4.5168,-5.13749 c 2.48424,-2.82563 5.92248,-5.83348 7.64055,-6.68412 13.60754,-6.73727 33.91861,7.8905 44.00575,31.69241 10.85561,25.61504 13.74775,43.64674 7.93073,49.44528 -3.42539,3.41445 -4.22833,3.45392 -14.74003,0.72467 -13.62441,-3.53745 -28.90723,-12.40713 -51.52948,-29.90626 -4.59193,-3.55201 -9.29937,-6.45821 -10.46088,-6.45821 -3.35699,0 -16.23964,-5.78773 -24.80939,-11.146 C 100.45197,933.2061 83.438229,915.23529 66.997006,890.23199 44.354065,855.79723 18.062653,792.42095 18.062653,772.27425 c 0,-8.83539 3.913539,-22.00537 8.789919,-29.58047 13.285522,-20.63787 40.799219,-36.25255 82.616318,-46.88672 39.42648,-10.02625 75.30803,-31.8485 82.27713,-50.03881 3.27894,-8.55837 2.20562,-14.49915 -4.09323,-22.6568 -8.48467,-10.98862 -18.90236,-30.71651 -23.42037,-44.351 -8.52515,-25.72763 -8.91908,-48.0198 -1.20942,-68.43743 3.51749,-9.31537 5.58972,-12.81948 17.21111,-29.10419 9.73609,-13.64272 16.4347,-37.71654 16.54578,-59.46229 0.0432,-8.44128 -0.90508,-12.1477 -6.9706,-27.24793 -18.47548,-45.9951 -33.01714,-120.19911 -33.02216,-168.50675 0,-17.01523 -0.9294,-17.83079 -6.67892,-5.87176 -2.71838,5.65426 -8.12831,14.56433 -12.02226,19.80017 -8.45052,11.36297 -32.17101,34.3794 -44.003232,42.69717 -8.389556,5.89768 -8.480657,6.03735 -9.437673,14.46956 -1.105469,9.7396 -5.552659,24.99023 -9.599987,32.92069 -9.650209,18.90903 -28.253656,26.94848 -50.403124,21.78157 -19.8009217,-4.61905 -36.67475,-15.47333 -44.35006,-28.52858 -11.589953,-19.71387 -10.039724,-51.14248 4.146666,-84.06673 4.502333,-10.44917 5.021419,-12.97877 5.021419,-24.46824 0,-41.53776 15.2370188,-106.82613 38.528818,-165.089863 L 32.477048,38.418668 25.143444,-6.4201614 C 21.109876,-31.081517 18.059037,-51.507455 18.363679,-51.811134 18.668321,-52.114814 28.539503,-39.523799 40.299706,-23.8311 59.021475,1.1511152 61.729805,4.2046643 62.067392,0.7112462 62.279526,-1.4831597 61.56076,-15.788151 60.470156,-31.07762 c -1.090604,-15.28947 -1.842114,-27.971307 -1.670057,-28.181859 0.172058,-0.210553 10.475243,12.94053 22.896056,29.224627 12.420713,16.284099 23.026835,30.10926145 23.569125,30.72258484 0.54229,0.61332646 8.97764,0.0638019 18.74517,-1.2211727 C 150.14959,-3.9721983 192.68134,-2.6767668 216.236,2.2755707 306.20993,21.192421 381.89421,84.392876 438.47023,187.85319 c 11.83031,21.63403 26.46417,54.19472 32.95034,73.31546 4.02232,11.85773 5.52715,14.44214 12.09197,20.76727 23.55546,22.69541 61.69627,45.78621 102.19366,61.86906 54.71833,21.73043 130.33913,32.2022 196.91229,27.2679 22.08628,-1.63701 31.75899,-2.87377 64.92358,-8.30117 21.1127,-3.4551 75.19111,-3.39014 94.38898,0.11334 43.03025,7.85285 78.31195,21.78215 112.26575,44.3228 16.239,10.78047 35.9044,27.09629 45.5694,37.80763 5.399,5.98336 5.8049,6.15441 17.6955,7.45684 32.3581,3.54432 63.3559,15.63034 88.5965,34.54373 12.4469,9.32677 33.1261,31.4173 42.3603,45.2514 21.4696,32.16419 38.1694,77.38786 44.6593,120.93883 1.2269,8.23279 2.7953,26.19524 3.4855,39.91656 0.7505,14.92129 2.4809,30.96377 4.3056,39.91655 9.0423,44.36638 30.3665,88.02553 60.4032,123.67008 l 11.1122,13.18673 -10.3596,-0.004 c -12.9819,-0.005 -31.8768,-3.25056 -46.396,-7.9677 -53.008,-17.22182 -96.4566,-62.27083 -124.9722,-129.57599 -15.16,-35.78173 -22.7246,-67.39539 -29.1709,-121.90964 -7.487,-63.31469 -19.4278,-101.72015 -33.8054,-108.72884 -5.9401,-2.8956 -10.3424,-2.00698 -9.1174,1.84036 4.0209,12.62843 4.7,44.40831 1.3586,63.57759 -6.9647,39.95633 -31.2253,87.44811 -67.5641,132.26173 -14.0267,17.29798 -47.0861,51.61472 -62.47141,64.84736 l -8.5357,7.34137 2.76408,5.11609 c 3.96777,7.34434 12.43427,14.01359 23.38343,18.41961 13.1422,5.28851 19.3468,8.60015 30.9676,16.52873 12.4086,8.46602 16.2494,11.91066 22.7573,20.40915 4.0486,5.28726 5.1303,7.99168 5.1303,12.82665 0,6.34263 0,6.33765 -12.1561,17.61669 -2.3597,2.18884 -6.7898,7.05941 -9.8449,10.82347 -12.5683,15.48552 -32.3817,25.42257 -51.02957,25.59278 l -9.55108,0.0872 -0.74889,11.46593 c -0.84854,12.99134 -4.3117,23.30736 -12.14611,36.18092 -8.09335,13.29903 -17.12754,23.99371 -28.39457,33.6133 -9.32669,7.96297 -11.00187,10.29237 -20.08307,27.92654 -17.70047,34.3712 -39.82171,64.3434 -71.68497,97.1262 -12.53049,12.8922 -19.2071,18.6861 -22.93724,19.9047 -2.89394,0.9454 -6.6984,2.6504 -8.45434,3.7888 -4.48877,2.9099 -8.96097,10.6245 -8.97754,15.4861 -0.0211,6.0728 -6.05738,17.9184 -11.42664,22.4219 -13.29898,11.1548 -33.83464,16.1262 -56.70247,13.7265 z"
       style="fill:#000000;stroke-width:1.42786" />
  </g>
</svg>
