<?xml version="1.0" encoding="UTF-8" standalone="no"?>
<svg
   xmlns:dc="http://purl.org/dc/elements/1.1/"
   xmlns:cc="http://creativecommons.org/ns#"
   xmlns:rdf="http://www.w3.org/1999/02/22-rdf-syntax-ns#"
   xmlns:svg="http://www.w3.org/2000/svg"
   xmlns="http://www.w3.org/2000/svg"
   xmlns:sodipodi="http://sodipodi.sourceforge.net/DTD/sodipodi-0.dtd"
   xmlns:inkscape="http://www.inkscape.org/namespaces/inkscape"
   version="1.1"
   id="svg352"
   width="1183.863"
   height="1279.4915"
   viewBox="0 0 1183.863 1279.4915"
   sodipodi:docname="поло.svg"
   inkscape:version="1.0 (4035a4fb49, 2020-05-01)">
  <metadata
     id="metadata358">
    <rdf:RDF>
      <cc:Work
         rdf:about="">
        <dc:format>image/svg+xml</dc:format>
        <dc:type
           rdf:resource="http://purl.org/dc/dcmitype/StillImage" />
        <dc:title></dc:title>
      </cc:Work>
    </rdf:RDF>
  </metadata>
  <defs
     id="defs356" />
  <sodipodi:namedview
     inkscape:document-rotation="0"
     pagecolor="#ffffff"
     bordercolor="#666666"
     borderopacity="1"
     objecttolerance="10"
     gridtolerance="10"
     guidetolerance="10"
     inkscape:pageopacity="0"
     inkscape:pageshadow="2"
     inkscape:window-width="1920"
     inkscape:window-height="1018"
     id="namedview354"
     showgrid="false"
     inkscape:zoom="0.65625"
     inkscape:cx="771.67259"
     inkscape:cy="717.54595"
     inkscape:window-x="-6"
     inkscape:window-y="-6"
     inkscape:window-maximized="1"
     inkscape:current-layer="g360" />
  <g
     transform="translate(179.67259,16.593568)"
     inkscape:groupmode="layer"
     inkscape:label="Image"
     id="g360">
    <path
       id="path8"
       d="m -24.122118,1262.2499 c -6.1155,-0.6112 -8.34945,-1.2851 -10.28402,-3.1026 -2.9973,-2.8158 -9.40339,-15.3281 -9.40339,-18.3666 0,-1.2037 1.56321,-8.4558 3.47381,-16.1156 3.79502,-15.2148 6.52619,-29.8405 6.52619,-34.9485 0,-1.7928 -1.16235,-7.6963 -2.58301,-13.119 -1.73126,-6.6084 -2.44921,-11.5528 -2.17725,-14.9947 0.4853,-6.1418 5.62963,-16.8733 18.87029,-39.3648 36.52687,-62.0472 56.83005,-101.1892 61.98526,-119.5 1.70332,-6.05004 4.00551,-12.63234 5.11599,-14.62734 1.11047,-1.995 5.45328,-6.4949 9.65068,-9.9999 4.1974,-3.505 14.86565,-13.5728 23.70722,-22.3728 17.1877,-17.1069 23.359318,-25.3828 38.106198,-51.0989 l 6.82462,-11.90107 -0.13811,-22.5 c -0.076,-12.375 -0.65746,-33.75 -1.29221,-47.5 -1.0104,-21.88718 -0.9561,-26.12007 0.43606,-33.99562 2.12264,-12.00789 6.04529,-23.39899 13.81949,-40.13081 6.7301,-14.4847 11.67477,-27.73774 11.67477,-31.29154 0,-1.8887 -0.58406,-2.08203 -6.2899,-2.08203 -17.71268,0 -32.73157,8.47616 -39.54614,22.31852 -3.26267,6.62742 -6.124348,17.02844 -6.149178,22.34969 -0.0185,3.96256 -0.94784,6.49119 -2.11956,5.76703 -0.50615,-0.31282 -0.90844,4.36173 -0.92563,10.75574 -0.0351,13.06091 -0.90268,12.77604 -3.84917,-1.26388 l -1.97842,-9.4271 -0.071,10.11901 c -0.12446,17.73759 4.24982,36.08263 12.579318,52.75569 2.43849,4.88109 4.14486,9.15609 3.79195,9.5 -1.22325,1.19205 -8.745308,-8.40857 -12.046028,-15.3747 -1.82422,-3.85 -4.51909,-11.05 -5.98859,-16 -2.3523,-7.92374 -2.72911,-11.21232 -3.15095,-27.5 -0.37768,-14.5823 -0.12865,-20.36609 1.17594,-27.31199 1.92849,-10.26772 5.55067,-20.9186 9.75627,-28.68801 l 2.97717,-5.5 -5.52387,5.73306 c -9.94857,10.32532 -15.08938,25.32413 -16.28632,47.51694 -0.36338,6.7375 -0.99981,12.25 -1.41429,12.25 -1.80253,0 -4.14338,-10.25774 -4.67574,-20.48934 -0.83567,-16.06117 -2.11226,-10.18379 -2.19557,10.10835 -0.0783,19.06261 1.19917,28.6179 6.05752,45.3105 5.37625,18.47203 10.70809,30.46041 19.04585,42.82362 6.28435,9.31842 6.62975,10.24687 3.81212,10.24687 -3.24121,0 -16.77598,-14.01741 -21.87795,-22.65809 -9.31756,-15.78019 -14.94771,-34.82639 -17.64056,-59.6761 -0.34772,-3.20881 -0.86264,-5.60377 -1.14427,-5.32214 -0.90133,0.90133 1.64681,24.597 3.61462,33.61322 2.60232,11.92341 6.22204,22.35659 12.0236,34.65589 5.53516,11.73454 4.76851,13.61193 -1.89367,4.63722 -5.36123,-7.22219 -7.09186,-10.61789 -10.85907,-21.30667 -4.56592,-12.95498 -6.98143,-25.95144 -7.70261,-41.44333 -1.56703,-33.66183 4.45771,-61.49786 18.04842,-83.38897 l 2.72481,-4.38897 -3.21335,1.88897 c -4.41968,2.5981 -14.16267,12.93835 -17.32682,18.38897 -4.3018,7.41034 -6.73719,18.10422 -7.40145,32.5 -0.53778,11.65449 -0.11813,18.64925 2.29481,38.25 1.15997,9.42269 -2.1877,5.88548 -6.86151,-7.25 -2.46282,-6.92161 -2.76922,-7.39341 -2.27303,-3.5 0.31543,2.475 3.59353,16.65 7.28467,31.5 l 6.71116,27 0.003,16.5 0.003,16.5 -3.21487,6.81085 c -3.61639,7.66145 -14.62986,19.91652 -19.39007,21.57592 -4.00641,1.3966 -3.77436,-0.076 1.16427,-7.3868 5.40381,-7.99977 9.54685,-16.21338 10.34044,-20.49997 l 0.64796,-3.5 -1.74084,2.5 c -2.72722,3.91655 -9.92356,11 -11.17531,11 -1.75502,0 -1.43532,-1.08791 3.11842,-10.61158 l 4.25,-8.88842 v -12.5 c 0,-9.85401 -0.50515,-14.51095 -2.38638,-22 -1.31251,-5.225 -2.66251,-10.02596 -3,-10.66879 -0.33749,-0.64284 -0.62625,3.18216 -0.6417,8.5 -0.0239,8.2467 -0.40652,10.48445 -2.60111,15.21442 -3.32627,7.16907 -7.88556,12.29901 -13.23048,14.88644 -8.1827696,3.96121 -8.5973596,2.58418 -1.40968,-4.68207 9.3116,-9.41339 12.19846,-15.92821 12.09025,-27.28426 -0.0882,-9.25598 -0.8142,-11.54002 -10.95516,-34.46574 l -4.8653196,-11 -0.62233,15.5 c -1.35234,33.68174 -11.69737,62.80697 -32.8552104,92.5 -13.98553,19.62737 -16.36985,23.90357 -16.4534,29.50897 -0.0514,3.4507 0.62823,5.6872 2.66329,8.7639 3.56779,5.394 1.76715,6.5667 -2.74187,1.7857 -4.02567,-4.2684 -5.6843,-9.4289 -4.82779,-15.0205 0.85716,-5.5959 2.81541,-9.165 12.91482,-23.53807 11.29071,-16.06854 17.72699,-26.02883 17.17583,-26.58 -0.24004,-0.24003 -6.53012,5.79304 -13.97797,13.40683 -11.31464,11.56675 -14.1243,15.06263 -17.0853,21.25824 -1.94908,4.0782 -3.83614,9.0191 -4.19348,10.9798 -0.76729,4.21 -2.10534,6.6597 -3.09633,5.6687 -0.38967,-0.3896 -0.68116,-4.8766 -0.64777,-9.971 l 0.0607,-9.2626 -2.89037,5.6862 c -3.12124,6.1404 -4.57697,14.5135 -3.51109,20.1951 0.40686,2.1688 3.76998,7.7413 8.62752,14.2954 10.10537,13.6347 10.16701,13.9818 1.7235,9.7031 -6.41289,-3.2496 -14.74822,-11.6525 -17.78828,-17.9325 -2.95044,-6.0948 -3.66386,-16.8603 -1.62,-24.4459 0.81484,-3.0243 1.34213,-5.6381 1.17174,-5.8085 -0.76209,-0.7621 -14.87569,14.2672 -20.4201,21.745 -11.189622,15.0915 -14.309822,23.8301 -15.696252,43.9601 -0.38267,5.5561 -1.06887,10.102 -1.52488,10.102 -1.9166,0 -4.16149,-11.7525 -4.19842,-21.9796 -0.0469,-12.9874 1.47462,-19.7861 6.91262,-30.8882 2.3255,-4.7477 4.1079,-8.7538 3.96089,-8.9024 -0.14701,-0.1487 -3.44727,3.0774 -7.33392,7.169 -12.684,13.353 -20.84516,33.8772 -23.08546,58.0569 -0.54685,5.9022 -1.22227,10.9592 -1.50095,11.2379 -1.33147,1.3315 -2.56724,-1.3343 -3.68407,-7.9471 -1.6602,-9.8301 -0.67605,-28.0894 2.03447,-37.7465 4.76225,-16.9669 15.72126,-33.3172 28.57891,-42.6383 15.746712,-11.41545 19.154052,-14.3641 24.188102,-20.93193 14.82028,-19.33573 17.354,-33.72287 10.00271,-56.79824 -3.1347,-9.83967 -3.52387,-10.56146 -4.11116,-7.625 -0.35679,1.78393 -0.6644,5.09975 -0.68359,7.3685 -0.10769,12.7332 -5.98188,30.01876 -12.8657,37.85901 -4.41427,5.02757 -9.79117,7.35326 -22.599412,9.77498 -21.6759,4.09839 -28.35324,7.72894 -33.16682,18.0332 -3.49886,7.48988 -4.33318,14.23018 -4.33318,35.00708 0,11.0918 -0.3979,19.9507 -0.89611,19.9507 -0.49286,0 -1.66875,-4.1625 -2.6131,-9.25 -1.94321,-10.4686 -2.22508,-29.3411 -0.56251,-37.6618 0.59474,-2.97655 0.89544,-5.59779 0.66822,-5.82501 -0.97693,-0.97693 -7.7495,14.84211 -9.0921,21.23681 -1.85882,8.8535 -1.86844,14.7103 -0.0427,25.9588 0.79977,4.9273 1.278,9.1348 1.06272,9.3501 -1.83849,1.8385 -7.77055,-10.2789 -9.43205,-19.2667 -1.63534,-8.8464 -1.32514,-18.3123 0.88303,-26.9462 4.21309,-16.47302 12.4274,-26.85611 32.75954,-41.40887 7.15625,-5.1221 14.13518,-10.5221 15.50873,-12 3.05568,-3.28782 6.55064,-8.66863 5.22329,-8.04173 -0.53186,0.25119 -2.99201,1.40294 -5.46701,2.55944 -2.475,1.15651 -9.44194,2.86517 -15.48208,3.79704 -13.03018,2.01028 -17.06231,3.87884 -24.54157,11.37296 -9.16016,9.17838 -13.9163,19.55498 -13.96073,30.45852 -0.0202,4.94847 -2.06362,4.44112 -3.67922,-0.91348 -1.98198,-6.56894 -1.52375,-13.30483 1.49501,-21.97623 6.54769,-18.80829 18.78701,-30.15166 34.80641,-32.2585 l 5.86218,-0.77098 -6.5,-2.2224 c -7.21737,-2.46768 -9.73275,-3.79232 -8.85949,-4.66558 0.32042,-0.32042 5.48238,-0.94059 11.47104,-1.37816 25.39171,-1.85529 27.12944,-6.57234 23.8762,-64.81149 -2.81409,-50.37741 -0.5295,-64.54797 13.83867,-85.83651 6.077702,-9.00499 19.404772,-21.75452 26.002712,-24.87584 12.41011,-5.87092 14.81562,-6.13347 55.17087,-6.02152 39.32225,0.10908 52.03876,1.03364 81.5,5.92555 20.46404,3.39795 46.136828,10.4306 67.499998,18.49052 12.25372,4.6231 27.40785,8.84951 36.03109,10.0489 15.34376,2.13412 28.51213,-1.96375 64.73907,-20.14617 14.22316,-7.13865 29.09342,-14.05814 33.04512,-15.37663 3.9516,-1.3185 14.3847,-3.64555 23.1847,-5.17122 18.9521,-3.28576 28.5206,-3.43755 64.5,-1.0232 13.475,0.90422 28.55,1.90103 33.5,2.21513 l 9,0.57109 -6.2377,-3.45296 c -15.6002,-8.63572 -31.5384,-23.55871 -37.1235,-34.75897 -4.3159,-8.65487 -5.9768,-9.43341 -16.6065,-7.78417 -15.193,2.35728 -27.696,-0.34854 -32.4481,-7.02224 -4.0836,-5.73496 -2.802,-7.77753 8.4158,-13.41236 8.5319,-4.28568 15.7569,-9.43519 15.2734,-10.88587 -0.1967,-0.58993 -3.143,-2.0812 -6.5475,-3.31392 -3.4045,-1.23273 -7.763,-3.44115 -9.6856,-4.90761 -4.5594,-3.47764 -8.7756,-10.69223 -8.3607,-14.30661 0.3169,-2.76119 0.4173,-2.79928 9.1317,-3.46312 18.8079,-1.43272 36.1303,-9.4613 52.4321,-24.30116 3.4339,-3.12594 11.0208,-11.16094 16.8598,-17.85557 5.839,-6.69463 15.2015,-16.67205 20.8055,-22.17205 7.9581,-7.81037 12.6358,-13.64685 21.363,-26.65507 8.8904,-13.25156 12.7577,-18.05386 18.9244,-23.5 21.5787,-19.05739 25.242,-23.64182 27.8387,-34.83876 1.791,-7.72264 5.4103,-13.37499 13.2744,-20.73093 5.3474,-5.00184 9.8656,-7.5769 17.9132,-10.20934 3.918,-1.28161 6.0212,-2.75195 8.421,-5.88708 1.7593,-2.29835 4.9742,-6.04935 7.1443,-8.33554 2.1701,-2.2862 3.652,-4.63185 3.2931,-5.21256 -1.0008,-1.61942 -4.5365,-26.97571 -4.56,-32.70258 -0.042,-10.3275 5.0863,-18.53897 18.2292,-29.18695 1.823,-1.47692 2.75,-3.17842 2.75,-5.04749 0,-1.84308 1.0636,-3.83667 3.0712,-5.75661 2.8688,-2.74361 3.6099,-2.94167 11.25,-3.00668 4.4983,-0.0383 10.9572,-0.67386 14.353,-1.4124 5.4222,-1.17927 7.0055,-1.13826 13,0.33668 10.1839,2.50574 14.6348,5.7815 23.7671,17.49215 4.4323,5.68363 9.278,11.21746 10.7682,12.2974 1.4902,1.07994 7.3402,3.1206 13,4.5348 12.4869,3.12009 15.5712,4.59898 16.3893,7.85856 1.5424,6.14537 -3.648,11.77216 -14.7958,16.03987 -4.0166,1.5377 -7.8655,3.21693 -8.553,3.73162 -2.2671,1.69729 -1.3103,5.3025 3.25,12.24575 2.475,3.76825 4.4971,7.09748 4.4934,7.39827 -0.015,1.26763 -3.737,6.05735 -6.2311,8.01923 -2.2113,1.73941 -2.586,2.65915 -2.0912,5.1332 0.3316,1.65776 0.1585,3.99968 -0.3846,5.20428 -1.9653,4.35924 -3.5471,9.25649 -4.023,12.45502 -0.7504,5.04383 -4.6418,7.57316 -10.5135,6.83351 -16.0676,-2.02403 -14.4307,-2.1516 -17.7316,1.38194 -3.6494,3.90669 -3.7535,5.37548 -0.6045,8.5245 3.9477,3.94773 6.7524,4.06796 13.8811,0.59508 6.3328,-3.08511 6.4436,-3.10011 23.2841,-3.15122 9.3065,-0.0282 19.8459,-0.43905 23.4209,-0.9129 3.575,-0.47385 11.225,-1.3626 17,-1.97499 19.0164,-2.01656 24.7238,-2.97643 35.1707,-5.9151 5.6811,-1.59808 15.6367,-3.87935 22.1235,-5.0695 6.4868,-1.19016 17.7368,-3.90005 25,-6.022 7.2632,-2.12194 16.4736,-4.60824 20.4675,-5.52511 11.8035,-2.70966 29.4096,-10.07325 32.9694,-13.78916 3.902,-4.07304 13.2689,-19.31437 13.2689,-21.59041 0,-2.44065 -7.7674,-43.50182 -9.5811,-50.64948 -1.6817,-6.62694 -6.6723,-32.99536 -17.4123,-92 -3.9043,-21.45 -9.3042,-50.925 -11.9997,-65.5 -2.6955,-14.575 -7.6414,-41.574998 -10.9908,-59.999998 -8.6609,-47.64329 -7.8126,-44 -10.2448,-44 -1.1478,0 -7.0134,0.94253 -13.0346,2.09451 -6.0212,1.15198 -11.3055,1.71448 -11.743,1.25 -0.9976,-1.05936 -3.9937,-15.5916601 -3.9937,-19.3713201 0,-2.657494 0.3729,-2.895954 6.75,-4.316749 15.4391,-3.439751 55.3456,-10.7846809 56.9337,-10.4788369 1.3222,0.254626 2.1119,2.508445 3.4431,9.8264049 0.9501,5.222801 1.7603,10.231781 1.8004,11.131091 0.058,1.30572 -2.3444,2.10082 -11.9272,3.94716 -9.8875,1.9050601 -12,2.6204901 -12,4.0641401 0,0.96364 0.8869,6.38742 1.9708,12.05284 2.5371,13.26148 17.3558,94.037978 20.6018,112.300758 1.3686,7.7 3.8067,20.975 5.4179,29.5 5.2044,27.53603 17.7657,97.12391 19.9463,110.5 4.2291,25.94206 7.2726,40.5 8.467,40.5 0.6504,0 1.6132,1.4258 2.1394,3.16844 0.7446,2.46582 1.8438,3.46803 4.9568,4.51945 5.1946,1.7545 6.0123,2.97749 9.5428,14.27199 4.2273,13.52392 4.1058,14.39384 -2.9476,21.10561 l -5.9047,5.61878 5.1091,28.1202 c 2.81,15.4661 4.8185,28.41076 4.4634,28.76589 -0.3552,0.35514 -3.0346,0.70959 -5.9544,0.78767 l -5.3086,0.14197 -3.1334,-16 c -1.7233,-8.8 -3.9225,-20.43514 -4.8871,-25.85588 l -1.7538,-9.85587 -4.1128,0.68752 c -2.2621,0.37813 -8.0871,1.29806 -12.9444,2.04428 -8.8597,1.36109 -13.2576,3.24557 -14.376,6.16004 -0.33,0.85996 0.1909,3.76271 1.1574,6.45056 0.9665,2.68785 1.5053,5.54381 1.1972,6.34657 -0.7653,1.99451 -3.1075,2.89274 -39.3984,15.10962 -17.4618,5.87828 -36.4737,12.44577 -42.2487,14.59442 -5.775,2.14866 -13.875,4.34277 -18,4.87581 -12.3672,1.59813 -34.9042,5.9924 -44.5,8.67665 -16.3775,4.58132 -19.0987,4.73672 -68.433,3.90795 l -8.4331,-0.14167 -0.8863,3.40716 c -0.7793,2.996 -0.58,3.65973 1.6515,5.5 3.1609,2.60679 4.6009,6.41778 4.6009,12.17622 0,4.33474 0.2971,4.75188 11.1697,15.6849 8.382,8.42851 11.2705,10.79496 11.5734,9.48172 0.6435,-2.79015 2.0623,-2.05185 4.2327,2.20257 1.294,2.5363 5.3323,6.586 11.2704,11.30198 14.7619,11.72389 15.0954,11.92861 18.8506,11.57024 l 3.4032,-0.32479 -4.9985,-2.5 c -4.5018,-2.25154 -10.2922,-8.54261 -9.0272,-9.80766 0.2692,-0.26919 2.2874,0.75653 4.4849,2.27939 7.3081,5.0645 15.9862,4.45849 25.9291,-1.81068 l 5.3857,-3.39583 -5.1671,-1.23957 c -3.2526,-0.78031 -8.7098,-3.60821 -14.729,-7.63261 -9.6532,-6.45402 -10.7756,-6.86197 -17.7136,-6.43845 -3.5892,0.21911 -3.7648,0.10177 -2.733,-1.82625 1.3841,-2.58614 8.2305,-4.50818 12.9227,-3.62791 1.9446,0.3648 5.7427,1.7817 8.4402,3.14866 2.6976,1.36695 5.0968,2.29323 5.3317,2.05838 0.9681,-0.96807 -8.2732,-8.10379 -13.4733,-10.40353 -4.5289,-2.00289 -5.2797,-2.65329 -3.933,-3.40694 1.9547,-1.09392 9.4614,0.36953 14.0397,2.73709 1.6803,0.86892 5.1219,3.47148 7.6479,5.78345 10.0711,9.2176 13.1217,10.17181 23.5785,7.37506 5.4067,-1.44609 5.8719,-2.7926 0.9647,-2.7926 -4.3687,0 -8.5946,-2.0966 -11.3908,-5.65134 -2.714,-3.45031 -1.1432,-5.63927 2.0034,-2.7917 3.4748,3.14468 11.5675,2.47341 24.4273,-2.02618 6.0446,-2.11499 13.4696,-4.11682 16.5,-4.4485 l 5.5097,-0.60305 -4.9067,-2.4047 c -6.9214,-3.39203 -18.4452,-3.5485 -23.9004,-0.32453 -4.1265,2.43872 -5.6929,2.79223 -5.6929,1.2848 0,-1.78774 5.9651,-7.77771 8.9954,-9.03289 4.0198,-1.66503 3.7991,-3.00191 -0.4954,-3.00191 -4.881,0 -4.3657,-1.49768 1.0356,-3.00997 5.8351,-1.6337 24.3196,-0.7689 30.3402,1.41947 6.1126,2.22183 6.4437,2.10686 5.6785,-1.97178 -0.6622,-3.52974 0.8993,-10.43772 2.3593,-10.43772 0.4172,0 1.4895,2.62929 2.383,5.84286 2.0213,7.27017 7.6623,13.32599 14.5092,15.5762 4.3399,1.42627 27.2623,4.72689 28.0352,4.03681 0.6928,-0.61865 -9.5422,-7.48373 -15.7313,-10.55167 -5.1206,-2.53827 -6.0641,-3.3502 -4.7486,-4.08637 2.4076,-1.34737 12.1774,0.71977 18.6265,3.94111 7.7226,3.8574 7.8535,3.86786 4.5684,0.36542 -3.7413,-3.98889 -11.9841,-8.12436 -16.1933,-8.12436 -3.9074,0 -5.1593,-1.5033 -2.4564,-2.94983 4.8786,-2.61098 16.1447,0.24521 23.1395,5.86637 l 3.7092,2.9808 0.5631,-3.47027 c 0.689,-4.24531 4.3982,-11.86029 6.8641,-14.09196 2.2636,-2.04847 2.2928,-1.01319 0.1853,6.56689 -1.0328,3.71487 -1.3816,7.20925 -0.9495,9.5127 0.7885,4.20306 2.0496,3.99761 2.9451,-0.47983 0.9076,-4.53838 2.9061,-3.15816 4.5537,3.14501 1.7618,6.73988 1.7948,6.77692 3.6629,4.10979 1.9068,-2.72225 3.4203,-2.81755 3.4203,-0.21535 0,2.30938 3.7475,4.4574 9.5,5.44535 2.2,0.37783 4.7875,0.9183 5.75,1.20104 1.4303,0.42015 1.75,-0.12275 1.75,-2.97153 0,-6.52999 2.3147,-9.04615 3.4724,-3.77476 0.3473,1.58093 1.7476,3.92303 3.1118,5.20466 3.2603,3.06287 12.1827,3.68195 22.9766,1.59422 4.3665,-0.84457 10.0311,-1.81231 12.5879,-2.15052 l 4.6486,-0.61493 -0.5183,-3.8641 c -0.3435,-2.56096 -0.01,-4.59523 1.0003,-6.03208 1.4843,-2.11912 1.5337,-2.07806 2.1924,1.82111 1.0372,6.13904 3.1439,7.37811 14.6865,8.63828 l 10.0928,1.10188 -3.3377,-2.78647 -3.3378,-2.78647 h 2.7521 c 3.2778,0 9.4028,2.96236 15.883,7.68181 5.9761,4.35236 13.4474,15.52412 16.8737,25.23113 2.6049,7.38025 2.6968,7.49178 7.5264,9.1345 10.6767,3.63152 27.4214,13.555 42.8342,25.38499 l 9.8607,7.56855 2.2027,-5.41971 c 3.4379,-8.45867 11.1668,-18.05698 18.4642,-22.93015 2.7027,-1.80484 7.0275,-2.22518 7.0275,-0.68301 0,0.53246 -1.1389,8.92536 -2.531,18.65088 -2.3176,16.19236 -2.5281,20.53315 -2.4966,51.50024 0.027,26.9787 -0.3792,37.91893 -2.0105,54.09911 -1.1246,11.15491 -2.4769,21.63166 -3.0051,23.28166 -0.5281,1.65 -3.3984,5.73165 -6.3784,9.07033 -3.9109,4.38174 -5.8444,7.5807 -6.9507,11.5 -1.6921,5.99471 -4.9748,28.36402 -6.6669,45.42967 -0.9814,9.89856 -5.2937,38.69983 -6.6127,44.16589 -0.472,1.95589 -19.3963,17.14881 -25.2884,20.30215 -1.4757,0.78977 -5.6318,1.09177 -11.913,0.86565 -12.4753,-0.44909 -19.3507,-3.36293 -24.0495,-10.19236 -1.7347,-2.52143 -5.1577,-5.96288 -7.6064,-7.64768 -2.4488,-1.6848 -6.036,-5.13732 -7.9716,-7.67227 -4.1306,-5.40968 -4.5391,-9.64437 -1.6435,-17.03436 3.6763,-9.3821 3.6349,-10.49326 -0.7464,-20.02738 -2.2139,-4.8178 -4.7247,-12.16363 -5.5794,-16.32407 -0.8548,-4.16044 -2.8507,-11.13544 -4.4354,-15.5 -1.5847,-4.36456 -3.1993,-9.85405 -3.588,-12.19885 -0.4469,-2.69562 -2.0112,-5.82117 -4.2541,-8.5 -4.4501,-5.31505 -6.668,-10.44366 -8.1029,-18.73672 -1.5563,-8.99438 -3.9262,-11 -12.998,-11 -5.9614,0 -7.4344,0.42182 -13.0944,3.75 -16.0483,9.43669 -29.8598,30.04827 -35.6883,53.25934 -1.656,6.59507 -1.896,11.85465 -2.0071,43.99066 -0.115,33.25116 -0.3184,37.41768 -2.2851,46.80992 -1.1874,5.67045 -3.283,13.2965 -4.657,16.94676 -1.3739,3.65027 -3.1358,11.17969 -3.9152,16.73205 -1.7741,12.63864 -3.6993,16.9878 -11.9462,26.988 -4.1165,4.99169 -6.5782,8.88731 -6.5782,10.41001 0,1.3383 2.6549,7.87377 5.8998,14.52327 7.9257,16.24167 38.6703,67.14616 45.5643,75.44166 3.0387,3.6566 7.7514,9.3072 10.4725,12.557 7.4425,8.8882 16.5312,29.5402 19.6615,44.67654 3.3871,16.3781 12.8244,43.3555 24.0069,68.6263 5.1767,11.6984 9.8437,23.4115 10.3712,26.0292 0.5275,2.6176 1.4373,10.8343 2.0219,18.2593 0.5845,7.425 2.4911,21.15 4.237,30.5 1.7459,9.35 3.1485,18.8 3.117,21 -0.1207,8.4284 -3.3364,37.6021 -4.3543,39.5041 -2.2038,4.1178 -6.4073,2.0633 -20.2749,-9.9098 -5.6226,-4.8544 -13.9975,-12.7202 -18.6108,-17.4794 l -8.388,-8.6531 0.5773,-5.2309 c 1.0192,-9.2345 3.3917,-15.0691 8.5027,-20.9096 5.4937,-6.2779 7.6797,-10.7623 6.8502,-14.0519 -0.3148,-1.2482 -2.8756,-4.9694 -5.6906,-8.2694 -7.0355,-8.2475 -8.9425,-12.3669 -10.6089,-22.9164 -1.831,-11.5916 -5.0261,-23.4185 -11.2971,-41.816 -7.1418,-20.9524 -8.9728,-25.1016 -16.0119,-36.2848 -12.9834,-20.62734 -29.2999,-38.68644 -48.0458,-53.17724 -5.775,-4.4641 -15.2116,-12.41 -20.9702,-17.6575 -5.7586,-5.2475 -10.6423,-9.3689 -10.8526,-9.1585 -0.7322,0.7322 8.1111,23.0945 14.0428,35.5104 l 5.9719,12.5 -0.6574,14.27584 c -0.8679,18.8489 -2.2107,23.6584 -9.695,34.7242 -3.3478,4.95 -9.4619,15.975 -13.5866,24.5 -26.8876,55.5704 -24.5876,51.3697 -32.4694,59.3027 -5.3774,5.4124 -11.2871,9.7796 -22.5826,16.6884 -8.4145,5.1466 -18.3145,12.0373 -22,15.3125 -3.6855,3.2753 -8.1251,6.5619 -9.8659,7.3036 -1.7407,0.7418 -9.3129,4.2837 -16.827,7.871 -17.2212,8.2215 -17.8896,8.3952 -19.9865,5.1949 -1.4349,-2.1899 -1.4986,-3.5459 -0.5092,-10.8381 1.152,-8.4902 6.1213,-33.3153 8.0171,-40.0513 1.3345,-4.7413 3.139,-6.499 9.9544,-9.6961 5.1386,-2.4104 6.3653,-2.5692 17.9179,-2.3184 6.8209,0.1481 13.1951,0.018 14.1649,-0.2903 1.141,-0.3622 2.5038,-2.9981 3.8622,-7.4704 1.4585,-4.8018 3.5444,-8.695 6.8352,-12.7576 2.6048,-3.2157 7.2749,-8.9752 10.3779,-12.7988 8.686,-10.7031 16.2527,-22.5527 23.4912,-36.7879 l 6.6016,-12.9827 -0.4487,-15.0907 c -0.3255,-10.9453 -0.8983,-16.13344 -2.0852,-18.88614 -0.9001,-2.0874 -10.4987,-16.9373 -21.3303,-32.9999 -30.4572,-45.1664 -42.9833,-62.12971 -46.7638,-63.32962 -3.4102,-1.08234 -13.2517,-0.50721 -55.1067,3.22042 -37.8715,3.3728 -41.6496,3.5392 -71,3.1271 -34.1666,-0.4798 -43.1115,-1.5754 -76,-9.30875 -8.25,-1.93989 -24.8513,-5.83516 -36.8919,-8.65615 l -21.8919,-5.12907 -2.2315,2.59417 c -1.4824,1.7235 -2.4561,4.55472 -2.9009,8.43565 -1.0881,9.49275 -2.6966,16.60855 -4.5981,20.34145 -2.8023,5.5013 -47.5981,49.3433 -67.4857,66.0486 -24.2298,20.3528 -37.8553,30.50004 -50.99998,37.98094 -19.75233,11.2414 -26.75867,17.224 -33.04274,28.2149 -4.51893,7.9036 -3.45234,11.6605 11.95983,42.1266 16.09167,31.8093 39.12369,68.2069 50.11749,79.2006 5.0041,5.0041 18.3806,14.6188 31.5197,22.6556 2.8798,1.7616 24.5944,31.3818 26.2803,35.8483 0.8104,2.1469 0.7911,3.1989 -0.075,4.0646 -1.8856,1.8856 -20.8447,2.8678 -39.6798,2.0555 -16.7083,-0.7205 -17.5973,-0.8631 -20.1124,-3.2247 -3.8861,-3.649 -9.4677,-15.8846 -9.4677,-20.7546 0,-5.8306 -4.5197,-10.3905 -12.5,-12.6109 -10.93394,-3.0423 -14.966,-4.8889 -18.28645,-8.3749 -4.31196,-4.5268 -13.36201,-19.8824 -23.41582,-39.7305 -19.93103,-39.3476 -39.44439,-73.3292 -59.48264,-103.5862 -9.69666,-14.6416 -10.2863,-16.3882 -10.3064,-30.5289 -0.0118,-8.2951 1.73458,-10.2365 15.35033,-17.06464 13.35876,-6.6993 33.34935,-18.2261 39.81225,-22.9562 8.34762,-6.1095 23.82875,-33.2949 23.82875,-41.8441 0,-3.9243 -0.27661,-4.52 -2.09887,-4.52 -4.34078,0 -8.92262,3.426 -20.44668,15.2887 -31.56109,32.4885 -37.63936,38.4478 -46.62187,45.7094 -11.47365,9.2754 -18.36522,14.0145 -29.83258,20.51484 -15.45004,8.7578 -20.30505,12.7425 -26.448258,21.707 -3.12081,4.5541 -10.42237,13.4551 -16.22568,19.7801 -18.45535,20.1144 -23.95081,28.3223 -48.68555,72.7161 -18.33986,32.9163 -26.4080696,50.2508 -29.6877396,63.7839 -2.25312,9.2972 -2.58634,26.9845 -0.61229002,32.5 0.68899002,1.925 6.74424002,11.8921 13.45610962,22.1491 6.71188,10.257 12.20341,19.3144 12.20341,20.1276 0,3.6969 -2.73681,4.2191 -22.9011496,4.3696 -10.77937,0.08 -23.1145204,-0.2051 -27.4114404,-0.6345 z M 541.69045,600.35146 c -7.9127,-2.30014 -11.7024,-4.37676 -14.8809,-8.15418 -4.3804,-5.20585 -3.3937,-6.20804 3.1309,-3.17991 6.1078,2.83466 17.6687,4.11516 24.902,2.75818 l 3.6057,-0.67642 -3.3106,-3.41567 -3.3106,-3.41567 9.4443,0.62038 c 9.3141,0.61182 9.4908,0.58129 12.8131,-2.2142 1.8527,-1.55901 4.6307,-5.55736 6.1732,-8.88522 1.5424,-3.32787 3.7776,-7.51316 4.9669,-9.30066 1.1893,-1.7875 1.8938,-3.25 1.5655,-3.25 -0.3282,0 -7.4599,2.78109 -15.8482,6.18021 -14.4082,5.83857 -15.7211,6.18407 -23.7513,6.25 -6.3562,0.0522 -9.3197,-0.37806 -11.75,-1.70589 -4.7652,-2.60357 -3.9923,-3.72432 2.5685,-3.72432 7.4621,0 13.0137,-1.68747 27.5321,-8.36868 16.5931,-7.63593 16.7122,-8.10422 1.0506,-4.13132 -5.4204,1.375 -10.2031,2.5 -10.6282,2.5 -2.0177,0 -0.3471,-2.34139 3.7119,-5.20243 2.4666,-1.73866 4.291,-3.35499 4.0542,-3.59183 -1.156,-1.156 -16.4199,3.39566 -24.3807,7.27026 -4.9384,2.40358 -9.231,4.11805 -9.5391,3.80995 -1.0898,-1.08983 3.7504,-6.56219 9.6369,-10.89565 3.2801,-2.41466 5.6554,-4.3903 5.2783,-4.3903 -1.9583,0 -15.3515,8.81681 -21.2629,13.99755 -5.6139,4.91996 -6.8247,5.60996 -7.0823,4.03616 -0.4769,-2.91403 2.532,-7.88993 8.6484,-14.30236 6.2992,-6.60409 14.2093,-11.7498 21.9123,-14.25448 2.8875,-0.9389 5.25,-2.0464 5.25,-2.46113 0,-2.34133 -20.113,-2.70211 -25.4859,-0.45716 -2.0517,0.85722 -4.0191,1.26332 -4.3722,0.90245 -1.1972,-1.22376 6.0036,-6.24239 10.6932,-7.45261 2.5657,-0.66212 5.2411,-1.376 5.9453,-1.58641 0.9575,-0.28607 0.7373,-1.45944 -0.8729,-4.65229 -1.1843,-2.34834 -2.2994,-4.43364 -2.478,-4.63398 -0.1786,-0.20034 -2.9357,1.86946 -6.1271,4.59955 -3.1913,2.7301 -8.0524,6.44593 -10.8024,8.2574 -8.0676,5.3143 -12.4471,10.0492 -16.193,17.50731 -4.4596,8.87885 -7.1299,11.70471 -15.807,16.72741 -3.85,2.22857 -7.7875,4.73383 -8.75,5.56725 -1.9876,1.72103 -2.3346,7.24448 -0.6526,10.38731 1.0673,1.99417 1.1756,1.96489 3.9436,-1.06574 3.9637,-4.33968 7.8025,-4.20608 12.4416,0.43298 1.952,1.95206 3.992,3.2755 4.5333,2.94098 0.5413,-0.33452 0.9841,-2.60667 0.9841,-5.04921 0,-5.82883 1.4417,-5.63815 3.4666,0.4585 3.348,10.07973 11.0494,18.34617 21.0334,22.57652 5.2748,2.23501 15.0065,4.36295 20,4.37326 3.8952,0.008 3.8427,-0.0375 -2,-1.73589 z m 30.7503,-75.69698 c 1.2403,-1.24034 -3.5109,-7.27532 -9.4921,-12.05687 -7.8639,-6.28657 -12.2993,-9.35952 -13.5091,-9.35952 -1.7289,0 -8.2491,7.06995 -8.2491,8.94455 0,2.45339 5.9055,7.53912 10.5245,9.06351 3.1754,1.04801 15.7813,3.62864 19.0589,3.90169 0.5958,0.0496 1.3459,-0.17237 1.6669,-0.49336 z m 152.1997,-39.35895 c -0.5225,-0.51841 -4.1878,-2.31841 -8.1452,-4 -5.3146,-2.25834 -8.7123,-3.04949 -13,-3.02703 -7.5807,0.0397 -5.7001,1.14081 8.4154,4.92732 11.794,3.16375 14.2027,3.56105 12.7298,2.09971 z m -1.5183,-20.65753 c -3.5088,-3.65034 -11.6608,-9.00408 -12.4733,-8.19162 -0.2482,0.2482 2.9848,3.24018 7.1845,6.64885 8.1484,6.61369 10.948,7.43033 5.2888,1.54277 z"
       style="fill:#000000" />
  </g>
</svg>
