<?xml version="1.0" encoding="UTF-8" standalone="no"?>
<svg
   xmlns:dc="http://purl.org/dc/elements/1.1/"
   xmlns:cc="http://creativecommons.org/ns#"
   xmlns:rdf="http://www.w3.org/1999/02/22-rdf-syntax-ns#"
   xmlns:svg="http://www.w3.org/2000/svg"
   xmlns="http://www.w3.org/2000/svg"
   xmlns:sodipodi="http://sodipodi.sourceforge.net/DTD/sodipodi-0.dtd"
   xmlns:inkscape="http://www.inkscape.org/namespaces/inkscape"
   version="1.1"
   id="svg319"
   width="1279.7203"
   height="1274.0072"
   viewBox="0 0 1279.7203 1274.0072"
   sodipodi:docname="скачки.svg"
   inkscape:version="1.0 (4035a4fb49, 2020-05-01)">
  <metadata
     id="metadata325">
    <rdf:RDF>
      <cc:Work
         rdf:about="">
        <dc:format>image/svg+xml</dc:format>
        <dc:type
           rdf:resource="http://purl.org/dc/dcmitype/StillImage" />
        <dc:title></dc:title>
      </cc:Work>
    </rdf:RDF>
  </metadata>
  <defs
     id="defs323" />
  <sodipodi:namedview
     inkscape:document-rotation="0"
     pagecolor="#ffffff"
     bordercolor="#666666"
     borderopacity="1"
     objecttolerance="10"
     gridtolerance="10"
     guidetolerance="10"
     inkscape:pageopacity="0"
     inkscape:pageshadow="2"
     inkscape:window-width="1920"
     inkscape:window-height="1018"
     id="namedview321"
     showgrid="false"
     inkscape:zoom="0.65934066"
     inkscape:cx="187.94844"
     inkscape:cy="561.21898"
     inkscape:window-x="-6"
     inkscape:window-y="-6"
     inkscape:window-maximized="1"
     inkscape:current-layer="g327" />
  <g
     transform="translate(-452.05156,-75.781022)"
     inkscape:groupmode="layer"
     inkscape:label="Image"
     id="g327">
    <path
       id="path8"
       d="m 1075.912,1348.3828 c -5.1854,-1.9103 -12.0008,-5.4996 -15.4981,-8.162 -1.679,-1.2782 -5.504,-2.8267 -8.5,-3.4411 -17.3967,-3.5676 -27.3038,-8.1364 -33.9053,-15.636 -4.6752,-5.3114 -6.4179,-10.6207 -5.4984,-16.7519 0.485,-3.2345 0.1441,-5.4762 -1.3445,-8.8415 -3.5332,-7.9873 -3.6195,-10.1352 -0.6589,-16.3934 2.5545,-5.3998 2.6304,-5.9838 1.458,-11.2226 -0.6802,-3.0395 -3.3741,-9.5999 -5.9863,-14.5785 -2.6123,-4.9787 -5.0711,-10.5158 -5.464,-12.3047 -0.4552,-2.0727 -1.6817,-3.7559 -3.3811,-4.6402 -5.53929,-2.8823 -7.37437,-5.9878 -8.14163,-13.7783 -0.40678,-4.1303 -1.61781,-9.0359 -2.78945,-11.2993 -4.04911,-7.8222 -42.2198,-51.9405 -53.41826,-61.7417 -3.47457,-3.041 -10.30478,-7.5923 -15.17826,-10.1141 -15.25931,-7.8958 -16.82046,-9.6279 -24.63132,-27.3278 -2.89082,-6.5508 -7.88715,-11.3945 -15.38076,-14.911 -6.52271,-3.0609 -12.48261,-9.6887 -16.99001,-18.894 -4.46314,-9.1149 -4.7154,-12.1726 -3.65026,-44.2463 0.54366,-16.3708 0.99404,-36.10681 1.00085,-43.85782 l 0.0124,-14.09275 -8.02859,-25.90725 c -4.41573,-14.24899 -9.09522,-29.28225 -10.39886,-33.40725 -1.30365,-4.125 -3.59896,-11.87608 -5.1007,-17.22461 -2.65913,-9.47066 -2.97864,-10.01907 -12.23491,-21 -11.36375,-13.48109 -28.31966,-35.77655 -35.05524,-46.09443 -2.67361,-4.09556 -6.7793,-11.88674 -9.12375,-17.31372 -2.34445,-5.42698 -6.09683,-13.12974 -8.33863,-17.11724 -5.51661,-9.81243 -7.37294,-9.86837 -16.59297,-0.5 -3.65372,3.7125 -11.68176,11.31044 -17.84008,16.88432 -13.33282,12.06749 -24.28429,18.17343 -44.56343,24.84612 -7.23132,2.37941 -14.12298,5.26474 -15.31482,6.41184 -1.19183,1.1471 -4.03143,5.224 -6.31023,9.05977 -14.50522,24.41591 -40.44049,47.62321 -64.8107,57.99367 -12.22769,5.20334 -21.68954,7.34401 -29.18349,6.60253 -39.21193,-3.87978 -60.86857,-8.80724 -78.07627,-17.76439 -10.35223,-5.38867 -10.94373,-5.93321 -22.02733,-20.27868 -5.43291,-7.03179 -9.636,-11.24351 -15.25,-15.28131 -8.71734,-6.26983 -8.40856,-5.38464 -6.715,-19.2501 1.66939,-13.66767 2.24216,-14.77165 9.33054,-17.98417 3.37395,-1.52911 8.08096,-3.30381 10.46003,-3.94379 4.00728,-1.07798 4.81254,-0.93571 10.94363,1.93337 3.63993,1.70333 8.91953,5.2736 11.73244,7.93393 6.6299,6.27028 10.20083,8.0389 18.33424,9.08059 9.82225,1.25799 20.16197,3.58324 24.68287,5.55081 7.95939,3.46406 8.88034,4.0383 14.45998,9.01614 10.27412,9.16601 12.11207,9.93935 23.62209,9.93935 9.5695,0 10.46194,-0.18411 16.96588,-3.5 8.41749,-4.29147 12.67024,-9.86609 16.85701,-22.09663 1.58216,-4.62185 3.59657,-9.25071 4.47647,-10.28634 0.8799,-1.03563 8.12482,-6.25782 16.09982,-11.60487 13.37272,-8.96609 14.93742,-10.34434 20.12648,-17.7282 8.65667,-12.31813 10.38879,-15.7142 15.70101,-30.78396 2.71431,-7.7 6.88043,-17.9206 9.25804,-22.71244 2.37761,-4.79184 3.97316,-9.0622 3.54567,-9.4897 -0.91972,-0.91971 -14.06603,-2.10611 -24.5812,-2.21834 -4.38677,-0.0468 -7.05939,-0.44437 -6.5,-0.96685 0.5225,-0.48804 7.475,-2.28819 15.45,-4.00034 8.14794,-1.74929 15.59518,-3.92147 17,-4.9585 3.16655,-2.33753 5.05179,-8.87602 2.94377,-10.20975 -0.79408,-0.5024 -2.56877,-0.92637 -3.94377,-0.94215 -1.375,-0.0158 -6.325,-1.36871 -11,-3.00653 -7.0161,-2.45798 -12.25339,-3.34679 -30,-5.09124 -22.63077,-2.22455 -32.22577,-2.09015 -38.51952,0.53955 -4.50745,1.88333 -5.29492,1.44823 -3.19083,-1.76302 2.44,-3.7239 7.64439,-5.58811 18.85847,-6.75508 16.73863,-1.74187 16.35772,-1.62128 22.31286,-7.06395 3.04646,-2.78429 5.53342,-5.80469 5.52656,-6.712 -0.008,-1.12616 -2.3965,-2.56553 -7.5251,-4.53576 -4.13195,-1.58736 -7.68337,-3.16236 -7.89205,-3.5 -0.20867,-0.33765 4.19012,-0.64677 9.7751,-0.68695 9.19536,-0.0661 10.95739,-0.40057 18.65451,-3.54043 7.78675,-3.17643 8.6888,-3.83839 10.75,-7.88884 3.30509,-6.4948 2.98199,-7.56626 -3.5,-11.60661 -11.22975,-6.99973 -21.25,-13.86423 -21.25,-14.55757 0,-0.38685 3.2625,0.79652 7.25,2.6297 20.20101,9.28707 42.32075,11.50757 56.04228,5.62584 5.09181,-2.1826 5.78704,-3.44104 2.78781,-5.04618 -1.05596,-0.56513 -2.42137,-2.54693 -3.03426,-4.40401 -0.71945,-2.17994 -5.31465,-7.48823 -12.96692,-14.97915 -9.81995,-9.61289 -11.60738,-11.80615 -10.4228,-12.78926 1.20568,-1.00063 0.9221,-1.7104 -1.80933,-4.52853 l -3.23911,-3.34191 h 4.83592 c 3.29462,0 5.21176,-0.51399 6.01514,-1.61268 1.0754,-1.4707 1.5253,-1.4366 5.11024,0.38734 8.97517,4.56635 17.02698,6.22534 30.21438,6.22534 11.61092,0 13.44652,-0.27279 23.99622,-3.56611 13.14912,-4.10478 15.69052,-6.15783 26.41341,-21.33787 15.38728,-21.78326 35.41286,-43.83525 55.71787,-61.35603 26.93334,-23.24023 60.58879,-40.3062 89.01537,-45.13783 10.87493,-1.8484 39.38754,-2.10524 64.07378,-0.57717 33.4723,2.07191 44.5685,2.26591 57.6566,1.00801 l 13.1052,-1.25953 3.4593,-4.63674 c 9.5818,-12.84304 17.7789,-25.89824 17.7789,-28.31591 0,-1.89998 -5.5932,-9.73078 -20.25,-28.35145 -26.6951,-33.91457 -26.8623,-34.13001 -44.3128,-57.12537 -17.70895,-23.33592 -19.66146,-26.49406 -23.89549,-38.65045 -1.76115,-5.05645 -3.7285,-10.17647 -4.3719,-11.37781 -1.38838,-2.59237 -1.45256,-17.68906 -0.10551,-24.81574 0.5198,-2.75 1.59375,-9.275 2.38657,-14.5 1.90595,-12.56098 7.47796,-27.67689 11.42719,-31 3.60616,-3.03444 22.25534,-13 24.32774,-13 2.4216,0 4.7317,-3.31521 9.1844,-13.1802 8.5542,-18.95183 17.4221,-29.26777 30.5503,-35.53903 4.1577,-1.98611 9.8795,-5.71487 12.7152,-8.28613 17.0247,-15.43734 35.4347,-21.99464 61.7513,-21.99464 12.5079,0 13.9509,-0.20261 20.7674,-2.91598 10.7622,-4.28395 18.3405,-5.47881 30.1617,-4.75552 8.8008,0.53848 11.5097,0.2895 20.163,-1.85322 12.2376,-3.03029 17.8615,-3.0996 28.0909,-0.34619 11.0732,2.98051 14.1665,3.31783 16.0548,1.75069 0.8895,-0.73823 4.3359,-4.95069 7.6587,-9.36101 16.0141,-21.25561 30.6166,-35.806334 43.8028,-43.647513 7.089,-4.215475 9.7772,-5.221323 19.8933,-7.443502 18.3757,-4.036525 27.0711,-0.537393 48.5314,19.529562 7.6707,7.172673 14.949,14.738513 16.1741,16.812973 4.0809,6.91007 6.6929,26.66688 6.5747,49.72971 -0.056,11 -0.2549,23.27715 -0.4411,27.28255 l -0.3387,7.28254 -6.5,3.28933 c -17.1109,8.65896 -17.4943,8.97585 -21.6679,17.90931 -2.1077,4.51134 -5.2946,10.12645 -7.0821,12.47801 -3.7391,4.91899 -4.1315,8.87427 -1.6626,16.75826 11.3043,36.09805 11.5396,37.49629 7.9107,47 -4.3793,11.46911 -4.7731,14.77723 -5.1882,43.5852 -0.3729,25.8839 -0.281,27.72899 1.4906,29.91676 3.66,4.51999 4.7825,2.28036 6.094,-12.1597 1.3695,-15.07804 3.1946,-26.84226 4.1644,-26.84226 0.3584,0 1.0712,1.4625 1.5838,3.25 0.5127,1.7875 1.5734,3.25 2.3573,3.25 1.4471,0 1.9577,-1.49979 3.9946,-11.73295 1.5394,-7.73381 2.9866,-8.23846 3.0858,-1.07607 0.091,6.55078 1.9512,14.80902 3.3362,14.80902 0.9017,0 1.8354,-2.39244 2.9975,-7.68067 0.387,-1.7609 1.3432,-2.79023 2.7869,-3 3.0678,-0.44576 5.967,-5.92924 6.6898,-12.65292 0.461,-4.28766 1.002,-5.67008 2.2236,-5.68148 2.2631,-0.0211 4.8856,-2.40482 4.8856,-4.44071 0,-4.75142 3.9254,-2.76223 8.4251,4.26939 5.4645,8.53935 11.2988,15.4217 16.6777,19.6734 2.7922,2.20715 5.5135,4.01299 6.0473,4.01299 0.6031,0 0.7307,-3.502 0.337,-9.25 -0.7393,-10.79318 1.4784,-29.81041 4.0744,-34.93922 3.2477,-6.41635 8.5932,-14.81078 9.4314,-14.81078 0.4665,0 1.1609,1.4625 1.5431,3.25 0.3822,1.7875 1.148,3.8125 1.7019,4.5 3.4656,4.30201 23.7621,-3.71516 23.7621,-9.3861 0,-0.85534 0.9306,-2.86213 2.0681,-4.45953 1.9961,-2.80331 2.3547,-2.90437 10.3036,-2.90437 6.8631,0 9.1045,0.433 13.4493,2.59807 2.8675,1.42894 5.6716,3.45394 6.2315,4.5 0.5598,1.04606 1.7895,1.89886 2.7327,1.8951 1.9789,-0.008 4.0988,-3.04875 10.6493,-15.27509 7.8478,-14.6479 19.2074,-26.46827 21.6829,-22.56238 0.4686,0.73936 0.8674,3.8193 0.8862,6.8443 0.05,7.93489 3.9973,20.22736 6.905,21.5 1.2567,0.55 3.3514,3.09311 4.655,5.65135 1.3035,2.55824 3.4386,5.49179 4.7444,6.519 3.1398,2.46976 4.2948,4.85376 5.1255,10.57965 0.5613,3.86912 1.0631,4.75 2.7063,4.75 2.6377,0 34.4437,-31.27035 40.6852,-40 2.556,-3.575 6.1058,-9.2 7.8885,-12.5 l 3.2411,-6 -0.01,6.5 c -0.032,25.54715 -10.2198,51.41714 -26.3638,66.94617 -4.1305,3.97322 -4.3108,5.23069 -1.6046,11.19463 1.088,2.39756 1.988,5.27612 2,6.39679 0.012,1.12068 2.3102,4.27068 5.1069,7 2.7968,2.72933 9.1759,9.84927 14.1759,15.82209 7.1286,8.51565 10.9192,12.06382 17.5614,16.43832 9.6542,6.35812 19.6112,15.20559 21.7354,19.31338 1.0715,2.07201 1.4641,6.98085 1.5268,19.08896 0.046,8.96481 0.4804,18.77466 0.9645,21.79966 1.4289,8.92932 3.1522,18.23572 4.1151,22.22427 1.1149,4.61757 10.0787,16.13351 22.7876,29.27573 5.3187,5.5 10.9929,12.14603 12.6094,14.76895 1.9112,3.10114 7.1357,8.1627 14.939,14.47311 21.2324,17.17024 24.3987,21.51663 23.034,31.61877 -0.3818,2.82654 -1.3104,10.94316 -2.0634,18.03693 -1.1935,11.24299 -1.1802,13.26304 0.1031,15.74479 1.344,2.59889 1.2895,3.20518 -0.6242,6.95646 -1.1531,2.2602 -4.7634,6.97619 -8.023,10.47999 -3.8239,4.11041 -5.9265,7.22312 -5.9265,8.77365 0,6.54207 -4.0307,11.53704 -14.8264,18.3734 -15.281,9.67669 -21.7999,11.28817 -29.5925,7.3153 -3.2299,-1.6467 -5.0847,-1.8628 -11.6457,-1.35685 l -7.804,0.6018 -0.8579,-3.3108 c -0.888,-3.42692 -1.7418,-4.14057 -6.713,-5.6114 -2.3339,-0.69054 -3.3945,-2.00163 -5.1483,-6.36445 -2.3929,-5.95291 -2.5955,-6.06436 -13.6348,-7.49986 -2.9664,-0.38575 -6.499,-1.84425 -9.5,-3.92225 -2.6276,-1.81948 -14.0024,-8.83465 -25.2774,-15.58927 -11.275,-6.75462 -22.75,-13.7668 -25.5,-15.58261 -8.5445,-5.64191 -12.0253,-6.64083 -26,-7.46155 -12.2875,-0.72163 -13.1213,-0.65111 -15.2139,1.28656 -2.102,1.9465 -7.2663,16.21236 -13.6727,37.76933 -11.2028,37.69694 -16.2511,53.87522 -26.1097,83.67465 -6.2184,18.79605 -12.4666,37.07523 -13.8849,40.62039 -4.3455,10.86216 -6.5808,28.0913 -7.681,59.20496 -2.2649,64.04868 -5.028,102.53282 -8.0984,112.79361 -3.0297,10.12474 -17.8206,38.88024 -25.5548,49.68185 -8.6614,12.09653 -22.4686,26.06063 -33.1115,33.48784 -4.5798,3.19601 -8.6605,6.76173 -9.0683,7.92382 -0.4077,1.16208 -0.3966,15.83788 0.025,32.61285 0.4214,16.775 0.4073,41.975 -0.031,56 -0.7576,24.2228 -0.6992,25.697 1.1659,29.4331 6.1753,12.3704 10.7367,32.5175 10.7351,47.4163 -9e-4,8.5417 -2.5136,15.1395 -9.387,24.6474 -1.9867,2.7482 -3.6103,6.1232 -3.6081,7.5 0,1.3768 1.3504,9.0282 2.9959,17.0032 3.7655,18.2499 4.0349,29.5364 0.8326,34.882 -4.1123,6.8645 -9.0526,12.2085 -22.7765,24.6378 l -13.7702,12.4712 -0.6374,6.0976 c -0.741,7.09 -3.3746,13.5244 -6.7627,16.5229 -4.6424,4.1086 -13.4048,5.534 -20.8654,3.3943 -3.7586,-1.0779 -2.7181,-1.4728 -18.3161,6.952 -6.113,3.3018 -10.0887,4.6241 -18.4194,6.1264 -13.5367,2.4411 -19.613,2.4035 -25.2565,-0.1565 -10.955,-4.9693 -16.0949,-12.04 -16.977,-23.3544 l -0.5496,-7.0733 -3,0.2639 c -1.65,0.1451 -5.768,0.5322 -9.1511,0.8602 -7.9325,0.769 -12.4991,-0.7605 -18.2932,-6.1268 -6.3859,-5.9143 -10.8869,-8.5324 -27.7755,-16.1564 l -14.7802,-6.6722 -19,-0.7447 c -15.2026,-0.5958 -20.2929,-1.1679 -25.4686,-2.8625 -8.7378,-2.8609 -11.0364,-4.4966 -11.0095,-7.8346 0.058,-7.1334 11.8574,-25.3582 21.4564,-33.139 l 6.6768,-5.4121 6.0108,1.1179 c 5.7666,1.0724 6.1766,1.0079 10.0956,-1.588 3.6019,-2.3858 5.2306,-2.7458 13.775,-3.0451 9.6395,-0.3377 9.7088,-0.3231 13.2657,2.7999 5.0306,4.4169 5.9928,8.1382 5.1561,19.9401 -0.8193,11.557 -2.1697,10.3473 13.6141,12.1951 8.6456,1.0121 11.3795,0.9958 15,-0.089 2.4352,-0.7299 8.5006,-1.5087 13.4787,-1.7307 7.946,-0.3542 10.1713,-0.043 18.2265,2.5472 7.2325,2.3258 10.504,2.8694 15.4489,2.5667 3.4504,-0.2111 16.3985,-0.8532 28.7735,-1.4267 12.375,-0.5735 23.9641,-1.3002 25.7537,-1.6148 2.9135,-0.5122 3.9953,-1.8209 10.3462,-12.5163 8.143,-13.7134 7.9804,-12.2006 3.4739,-32.3317 -3.5976,-16.0712 -6.674,-25.6548 -11.4477,-35.6622 -4.0754,-8.5436 -8.3727,-25.5906 -13.2853,-52.7012 l -2.2403,-12.3633 -7.5503,-6.8275 c -11.9149,-10.7746 -62.7661,-52.5511 -71.0502,-58.3712 -4.125,-2.8981 -10.3206,-6.7551 -13.7681,-8.5711 -6.8438,-3.605 -16.3687,-12.50568 -18.2543,-17.05782 -0.6546,-1.5805 -2.1567,-9.30244 -3.3378,-17.15985 l -2.1475,-14.2862 -8.5298,-1.66691 c -12.3701,-2.4174 -19.3305,-5.82948 -26.067,-12.77836 -5.5981,-5.77453 -5.8106,-5.88557 -12.545,-6.55622 -3.7678,-0.3752 -10.0005,-1.34481 -13.8505,-2.15467 -15.2703,-3.21214 -13.0309,-3.90509 -25.1975,7.79717 -16.7268,16.08846 -27.7123,25.34902 -41.1569,34.69456 -12.4696,8.66778 -25.3042,20.6743 -31.6673,29.6242 -8.6757,12.2025 -17.0098,32.4873 -18.1481,44.1714 -0.7924,8.1343 1.9892,17.2718 8.5425,28.0612 10.2873,16.9374 65.8581,96.0793 72.5248,103.2872 11.2621,12.1762 12.4802,17.055 7.1596,28.6766 -2.2121,4.8317 -2.555,6.9524 -2.5413,15.7146 0.01,5.5711 0.4487,15.3519 0.9777,21.7351 1.5491,18.6913 -0.1508,44.6869 -4.4397,67.8941 -4.3673,23.6314 -3.9764,22.3363 -7.684,25.4561 -3.4379,2.8928 -8.9451,3.2963 -14.9245,1.0934 z m -9.8821,-90.9596 c 3.6539,-8.2602 3.5638,-9.184 -2.8548,-29.2704 -3.3076,-10.3507 -6.2873,-21.0543 -6.6216,-23.7857 -1.1542,-9.43 -18.5673,-37.7173 -49.4563,-80.3408 -9.69677,-13.3806 -20.13578,-27.7854 -23.19776,-32.0106 -3.06198,-4.2253 -10.40553,-14.6574 -16.319,-23.1824 -5.91346,-8.525 -13.62336,-18.8528 -17.13311,-22.9507 -8.63707,-10.0846 -11.87665,-16.2235 -11.8994,-22.5493 -0.0329,-9.1443 7.05088,-19.5751 19.71952,-29.03668 9.29018,-6.9384 45.30885,-50.2634 51.09815,-61.46329 7.1422,-13.8173 9.7577,-23.42686 10.3452,-38.00962 l 0.504,-12.50963 -3.3741,-4.4148 c -3.4331,-4.49215 -14.1322,-13.27381 -21.37403,-17.54361 -2.2,-1.29711 -8.70654,-3.33894 -14.45897,-4.5374 -19.78349,-4.12166 -38.08887,-14.16171 -52.69876,-28.90395 -11.22625,-11.32795 -12.04014,-11.20334 -19.06603,2.91901 -7.02992,14.13046 -8.27589,20.18095 -8.27779,40.19741 -10e-4,15.19957 2.65504,74.41837 5.0023,111.51188 1.62302,25.64838 5.56137,43.41148 12.03709,54.29068 7.42611,12.4759 8.90641,17.023 10.02453,30.7926 0.88386,10.8846 1.70832,14.6917 5.88659,27.1824 2.67233,7.9887 5.34201,16.325 5.93263,18.525 0.81717,3.0438 4.12697,7.2358 13.84614,17.5366 7.02475,7.4452 21.2396,22.8549 31.58857,34.2438 11.01993,12.1274 21.79283,22.959 26.00003,26.1419 8.6289,6.5282 13.505,12.5231 20.2454,24.8911 2.7839,5.1083 8.6025,13.54 12.9302,18.7372 8.987,10.7925 14.8911,19.55 16.5317,24.521 0.6223,1.8856 1.5719,3.4284 2.1101,3.4284 0.5383,0 1.8566,-1.9845 2.9295,-4.4101 z M 542.76299,895.26057 c 0.22217,-1.55406 -1.25699,-3.18065 -5.91086,-6.5 -3.41395,-2.43498 -9.17229,-6.93882 -12.79632,-10.00853 -8.01837,-6.7919 -8.82952,-7.23751 -19.0539,-10.46739 -8.88564,-2.80697 -13.7485,-2.8859 -15.39861,-0.24993 -1.6405,2.6206 3.80948,8.59906 11.96655,13.12694 3.79325,2.10558 9.89102,5.83637 13.55061,8.29064 8.56321,5.74284 15.93727,8.42171 22.34621,8.11799 4.20363,-0.19922 5.04719,-0.5671 5.29632,-2.30972 z m 25.65176,-10.34324 c 0.96294,-1.55806 -7.14853,-7.66888 -16.57542,-12.48718 -8.13274,-4.15683 -9.65779,-4.59682 -15.93311,-4.59682 h -6.93955 v 3.2944 3.29439 l 17.25,5.67769 c 17.28247,5.68837 21.14217,6.52602 22.19808,4.81752 z m 26.61433,-6.97308 c 11.08584,-3.79585 17.53755,-6.65463 18.48767,-8.19195 0.48139,-0.77891 -0.28773,-2.15672 -2.05019,-3.67272 -3.4312,-2.9514 -4.00904,-2.86277 -20.49989,3.14417 -6.875,2.50428 -13.0625,4.56592 -13.75,4.58141 -2.35127,0.053 -1.28055,3.94772 1.5,5.4562 3.97534,2.15665 6.84362,1.92506 16.31241,-1.31711 z m 608.88122,-367.5826 c 12.4513,-6.25345 12.6893,-7.66206 3.6099,-21.36737 -5.0729,-7.65751 -6.0501,-9.9258 -8.0291,-18.6374 -0.8918,-3.92544 -19.611,-22.94129 -26.9796,-27.40713 -5.234,-3.17214 -5.6633,-3.26881 -7.9279,-1.785 -1.8735,1.22759 -2.6489,3.04767 -3.5652,8.36868 -1.4049,8.15882 -5.1955,23.38812 -8.0096,32.18017 -1.1232,3.50915 -2.0421,6.95774 -2.0421,7.66353 0,1.38904 19.9155,17.3269 24.8211,19.86368 2.9592,1.53027 15.4858,5.38374 17.9488,5.52149 0.6985,0.0391 5.2767,-1.94122 10.1737,-4.40065 z m 123.4902,-29.45521 c 0.9591,-1.05979 2.1427,-3.64729 2.6301,-5.75 0.9617,-4.1483 0.7287,-4.75552 -7.7989,-20.32311 -4.4705,-8.16117 -9.1289,-21.19606 -11.7933,-33 -0.9312,-4.125 -2.7226,-9.975 -3.981,-13 -4.5455,-10.92679 -7.7692,-29.58428 -9.0481,-52.36659 l -0.625,-11.13341 3.0912,-4.78473 c 3.1638,-4.89709 3.8671,-9.58579 2.479,-16.52634 -1.0285,-5.14212 -3.0472,-4.68685 -9.7117,2.1902 -3.3969,3.50519 -7.6414,7.1168 -9.4322,8.02579 -4.3894,2.22799 -14.7934,3.32616 -39.1832,4.13591 -20.2949,0.6738 -24.0607,1.36012 -24.0607,4.38498 0,1.74822 10.0931,19.80463 14.5749,26.07419 1.7692,2.475 4.7936,7.74426 6.7207,11.70946 1.9272,3.9652 5.0698,9.1402 6.9836,11.5 4.7459,5.85196 7.3432,11.29633 8.5795,17.98413 0.5724,3.09658 1.7726,7.35731 2.6671,9.46828 0.8944,2.11097 2.0637,6.49907 2.5983,9.75134 0.5347,3.25227 1.7927,7.07727 2.7957,8.5 2.7455,3.89439 6.594,11.9464 8.5156,17.81666 1.2122,3.70338 2.9695,6.33681 6.0204,9.02234 4.2063,3.7025 15.6853,10.24779 17.9724,10.24779 0.631,0 2.7053,-1.33171 4.6095,-2.95936 1.9043,-1.62765 4.4141,-2.97765 5.5774,-3 3.1933,-0.0614 7.1006,3.53693 8.3884,7.725 0.6316,2.0539 1.3251,4.29686 1.541,4.98436 0.6401,2.0377 7.8812,1.54208 9.8893,-0.67689 z m 107.5662,-134.02606 c 0,-3.02265 -3.4432,-7.57489 -11.9398,-15.78567 -5.2581,-5.08125 -10.1227,-9.03287 -10.8102,-8.78139 -1.3805,0.50498 -1.6351,6.43124 -0.6006,13.97918 0.5708,4.16445 1.2067,5.14726 5.25,8.11479 4.1389,3.03765 5.2779,3.37895 11.3506,3.40125 3.7125,0.0136 6.75,-0.40404 6.75,-0.92816 z m 35.3043,-16.07177 c 1.4157,-1.1136 6.3779,-7.0761 11.027,-13.25 8.7195,-11.57919 17.8782,-21.72528 19.611,-21.72528 0.5431,0 1.4996,-0.95723 2.1258,-2.12717 1.6443,-3.0725 -0.1783,-3.84344 -9.0681,-3.83556 -7.279,0.006 -12.1012,1.45182 -17.2022,5.15609 -1.3749,0.99844 -2.6247,0.90546 -6.5,-0.48357 -5.5785,-1.9995 -11.3822,-2.22539 -13.0978,-0.50979 -1.6372,1.63719 -1.5029,18.73591 0.2032,25.86826 2.8413,11.87857 7.0946,15.47441 12.9011,10.90702 z"
       style="fill:#000000" />
  </g>
</svg>
