<?xml version="1.0" encoding="UTF-8" standalone="no"?>
<svg
   xmlns:dc="http://purl.org/dc/elements/1.1/"
   xmlns:cc="http://creativecommons.org/ns#"
   xmlns:rdf="http://www.w3.org/1999/02/22-rdf-syntax-ns#"
   xmlns:svg="http://www.w3.org/2000/svg"
   xmlns="http://www.w3.org/2000/svg"
   xmlns:sodipodi="http://sodipodi.sourceforge.net/DTD/sodipodi-0.dtd"
   xmlns:inkscape="http://www.inkscape.org/namespaces/inkscape"
   version="1.1"
   id="svg228"
   width="614.92584"
   height="537.91949"
   viewBox="0 0 614.92584 537.91949"
   sodipodi:docname="родео1.svg"
   inkscape:version="1.0 (4035a4fb49, 2020-05-01)">
  <metadata
     id="metadata234">
    <rdf:RDF>
      <cc:Work
         rdf:about="">
        <dc:format>image/svg+xml</dc:format>
        <dc:type
           rdf:resource="http://purl.org/dc/dcmitype/StillImage" />
        <dc:title></dc:title>
      </cc:Work>
    </rdf:RDF>
  </metadata>
  <defs
     id="defs232" />
  <sodipodi:namedview
     inkscape:document-rotation="0"
     pagecolor="#ffffff"
     bordercolor="#666666"
     borderopacity="1"
     objecttolerance="10"
     gridtolerance="10"
     guidetolerance="10"
     inkscape:pageopacity="0"
     inkscape:pageshadow="2"
     inkscape:window-width="1920"
     inkscape:window-height="1018"
     id="namedview230"
     showgrid="false"
     inkscape:zoom="1.5613383"
     inkscape:cx="-1.9431204"
     inkscape:cy="271.61509"
     inkscape:window-x="-6"
     inkscape:window-y="-6"
     inkscape:window-maximized="1"
     inkscape:current-layer="g236" />
  <g
     transform="translate(-310.44312,-23.003958)"
     inkscape:groupmode="layer"
     inkscape:label="Image"
     id="g236">
    <path
       id="path8"
       d="m 389.85,560.41045 c -5.73175,-1.5689 -4.61104,-4.50824 7.63061,-20.01312 13.41483,-16.9908 18.52404,-24.6898 25.12873,-37.86611 7.0366,-14.038 10.24808,-24.31344 12.22682,-39.12092 2.23516,-16.72633 4.05966,-25.25809 8.0234,-37.51917 2.75304,-8.51601 3.66187,-13.41793 4.47579,-24.14092 0.56171,-7.40031 1.4698,-15.82007 2.01797,-18.71058 1.74697,-9.21173 1.53747,-9.6645 -2.73576,-5.91255 -4.93048,4.32902 -19.78393,11.26979 -29.76756,13.90989 -5.265,1.39229 -15.00843,2.61539 -28.5,3.57763 -23.65835,1.68735 -29.88727,3.12981 -34.82117,8.06371 -3.41737,3.41737 -3.45281,3.54198 -2.84828,10.01567 0.42517,4.5531 1.82075,9.19842 4.56926,15.20921 2.17642,4.75967 4.93286,12.0526 6.12542,16.20651 3.12284,10.87738 4.30227,12.10361 12.60281,13.1029 11.78352,1.4186 15.1768,5.88673 16.08957,21.18604 0.52938,8.87305 0.44303,9.43257 -1.68568,10.92358 -1.96638,1.37731 -2.72848,1.40045 -6.16704,0.18725 -7.76953,-2.74125 -23.65961,-14.72127 -29.75636,-22.43425 -4.8127,-6.08852 -7.56398,-11.62117 -14.18148,-28.51808 -9.02828,-23.05251 -10.20546,-26.81008 -10.65165,-34 -0.38486,-6.20167 -0.1117,-7.62723 2.3951,-12.49972 4.09272,-7.95507 9.78974,-11.75307 27.72346,-18.48224 20.51709,-7.69851 43.88162,-19.28697 49.82298,-24.71145 l 4.71695,-4.30659 -5.90518,-9.83895 C 400.27951,324.55598 396.35,314.79491 396.35,309.80647 c 0,-1.57429 2.00898,-8.81493 4.46441,-16.09033 6.79799,-20.14234 7.71092,-25.11451 7.64893,-41.659 -0.0299,-7.975 -0.55249,-19.9 -1.16135,-26.5 -0.60886,-6.6 -1.23822,-20.0687 -1.39858,-29.93045 l -0.29156,-17.93045 -8.38093,-1.78039 c -4.60951,-0.97921 -11.90172,-2.52051 -16.20492,-3.42511 -10.34899,-2.17552 -20.65229,-1.63392 -26.89861,1.41393 -4.71112,2.29876 -6.77739,2.21214 -6.77739,-0.2841 0,-0.7252 -0.66362,-1.86929 -1.47471,-2.54244 -1.18235,-0.98126 -2.32226,-0.82504 -5.75,0.788 -5.98834,2.81803 -15.88921,2.90176 -20.30648,0.17174 -3.23192,-1.99744 -5.46237,-6.22581 -5.4754,-10.37995 -0.004,-1.15543 -0.90066,-3.45078 -1.99341,-5.10078 -4.46802,-6.74648 -1.64126,-10.75022 14.45402,-20.47223 4.88675,-2.95174 9.70872,-6.19051 10.71549,-7.19728 1.00677,-1.00677 2.57377,-1.83049 3.48222,-1.83049 0.90846,0 5.29596,-2.08089 9.75,-4.62419 17.2602,-9.85574 38.63494,-22.626122 39.08213,-23.349695 0.25794,-0.41735 -0.42041,-1.563704 -1.50744,-2.547453 -4.02829,-3.645548 -1.68428,-7.336661 6.41067,-10.094888 5.92004,-2.017161 6.96875,-1.298921 1.6231,1.111632 -6.76319,3.049777 -3.98736,4.737097 4.09818,2.491122 3.50096,-0.972485 3.62632,-1.173243 4.21134,-6.744423 0.75776,-7.21615 3.83487,-17.460295 5.40154,-17.982517 0.65672,-0.218908 1.59775,1.085804 2.10786,2.92248 l 0.92149,3.317935 2.61209,-5.75 c 1.43665,-3.1625 3.05042,-5.75 3.58616,-5.75 0.99893,0 1.32403,1.080612 4.9367,16.409314 1.15486,4.900122 2.27332,9.082885 2.48546,9.295027 0.21214,0.212142 2.49458,-0.145305 5.07208,-0.794328 11.17447,-2.813764 28.18219,0.486743 34.70732,6.735278 l 2.65041,2.538063 0.70661,-3.341677 c 1.4242,-6.735252 7.90982,-22.706762 14.96046,-36.841677 4.29482,-8.610116 7.46746,-16.327895 7.81057,-19 0.47741,-3.717947 1.32892,-5.151241 4.89968,-8.247295 4.03403,-3.497728 7.82186,-4.890246 7.82186,-2.875543 0,0.48244 2.02508,0.648908 4.50017,0.369929 5.83502,-0.657691 15.01955,1.175544 24.86996,4.964052 l 7.87014,3.026886 19.12986,-3.085969 c 36.1562,-5.832602 51.51103,-6.914669 74.53934,-5.252846 47.23105,3.408396 79.56721,14.10564 98.54729,32.600786 6.99808,6.819283 9.54324,11.473371 9.54324,17.450789 0,10.516681 -10.63002,18.963496 -28,22.249333 -7.48515,1.415946 -29.12925,0.272924 -41.5,-2.191611 -12.31538,-2.453503 -27.11794,-6.808545 -38.96617,-11.464184 -7.613,-2.991452 -9.09196,-3.298383 -9.79969,-2.033746 -2.32215,4.149456 -15.82118,-1.411384 -39.58655,-16.307425 -6.24382,-3.913605 -12.99382,-7.647175 -15,-8.296822 C 563.56408,53.394419 555.95775,48.67882 548.83721,41.915 l -7.46098,-7.087197 -12.76311,1.617708 c -7.01972,0.889738 -15.35062,1.61634 -18.51312,1.614669 -5.60612,-0.003 -5.75007,0.06577 -5.75278,2.746963 -0.002,1.5125 0.96763,4.582257 2.15369,6.821682 l 2.15646,4.071682 5.76476,-2.32849 c 3.17062,-1.28067 8.38896,-2.601178 11.59632,-2.934462 6.94233,-0.721395 8.35327,0.360291 10.59111,8.119588 l 1.44204,5 9.56625,0.500385 c 5.26144,0.275211 9.92516,0.859295 10.36383,1.297963 1.66867,1.668669 -1.52732,4.279148 -7.71083,6.298187 -7.1451,2.333018 -6.59288,1.122663 -6.11529,13.403465 0.17624,4.532006 0.41524,5 2.55342,5 1.51529,0 3.56893,1.42119 5.74206,3.973712 1.8607,2.185541 4.5981,4.240572 6.08311,4.566735 7.58766,1.666528 14.70711,10.30069 23.8791,28.95955 6.99981,14.23991 9.55288,24.17797 10.89858,42.42364 1.33414,18.08897 2.48436,24.80693 4.65871,27.20955 0.88212,0.97474 2.2432,4.83102 3.02461,8.56953 2.36841,11.33109 3.36856,14.29728 4.82081,14.29728 0.76389,0 2.33208,1.19909 3.48489,2.66464 l 2.09601,2.66465 2.78129,-2.66465 c 1.52971,-1.46555 3.28341,-2.66464 3.89711,-2.66464 1.51473,0 2.58106,5.32885 1.78846,8.93754 l -0.6452,2.93755 3.5996,-0.9939 c 2.78989,-0.77032 4.29971,-0.64463 6.712,0.55878 2.52152,1.2579 3.82098,1.34037 6.84476,0.43443 3.18432,-0.95404 4.74134,-0.77459 10.60374,1.22213 4.68043,1.59414 9.22736,2.35345 14.26032,2.38137 6.72147,0.0373 7.46381,0.24339 8.21778,2.28155 0.73694,1.99215 1.52531,2.24248 7.11106,2.25791 13.19815,0.0365 25.68876,4.41689 40.18091,14.09129 5.83753,3.89691 5.95607,3.92713 11.43366,2.91455 3.04423,-0.56276 8.26482,-1.0342 11.60131,-1.04765 11.06039,-0.0446 21.72849,-3.90285 28.31634,-10.24105 3.72117,-3.58015 4.34486,-2.40891 1.00145,1.88064 l -2.24855,2.88486 2.49855,-1.58619 c 1.3742,-0.87241 3.75009,-2.39587 5.27976,-3.38546 1.52966,-0.9896 3.01583,-1.56464 3.3026,-1.27788 0.28676,0.28677 -0.96478,1.4412 -2.78121,2.56541 -1.81643,1.12421 -4.58714,3.38677 -6.15713,5.0279 l -2.85454,2.98388 6.65003,-2.41383 c 9.08229,-3.2967 19.09387,-3.30937 26.1299,-0.0331 4.70408,2.19043 11.44362,8.74052 11.41805,11.09707 -0.006,0.56219 -1.13864,-0.4083 -2.51675,-2.15663 -4.72116,-5.98948 -9.00172,-7.82857 -17.97216,-7.72151 -4.68547,0.0559 -9.4501,0.7176 -11.5,1.59705 l -3.5,1.50157 5.45771,0.77325 c 18.45073,2.61408 38.21976,13.62987 56.54229,31.50677 6.05,5.90285 13.45164,12.63605 16.44809,14.96266 15.52844,12.05715 32.30183,15.72658 50.55191,11.059 4.30096,-1.1 8.08544,-1.98596 8.40996,-1.96879 1.90825,0.10093 -8.64971,5.38608 -15.40996,7.71398 -7.06495,2.43282 -9.46102,2.75481 -20.5,2.75481 -11.0454,0 -13.51285,-0.33201 -21.20384,-2.85309 -4.7895,-1.56997 -11.76026,-4.85846 -15.5,-7.3122 l -6.79616,-4.45907 3.5,3.61812 c 4.82539,4.98824 11.30928,8.9415 19,11.5844 5.74006,1.97256 9.30592,2.30902 30.5,2.87792 29.51279,0.79218 33.20187,1.92422 37.61927,11.54396 2.71782,5.91858 2.46414,8.66244 -0.4066,4.39788 -5.26976,-7.82835 -9.00181,-7.37397 -26.5953,3.23798 -10.88127,6.5633 -21.29065,10.78321 -26.97271,10.9346 -2.34181,0.0624 -2.1866,0.25279 1.35534,1.66258 2.64816,1.05405 7.37959,1.62166 14,1.67954 9.76412,0.0854 10.21229,-0.0128 19,-4.15973 l 9,-4.24716 -4.44863,4.0593 c -5.0924,4.64671 -14.38529,10.03053 -21.26062,12.31729 -25.67541,8.53975 -53.73663,-1.00652 -79.51576,-27.05083 -6.10214,-6.16492 -9.84707,-9.33615 -9.2877,-7.86488 3.88427,10.21639 11.24942,18.40868 22.42691,24.94552 3.64639,2.13249 6.47394,4.03311 6.28344,4.2236 -0.80959,0.80959 -12.7696,-2.96865 -19.60889,-6.19457 -9.04662,-4.26705 -17.30169,-10.07446 -26.70379,-18.78602 l -7.11505,-6.59247 0.80446,4.30607 c 0.44246,2.36834 1.30931,11.01675 1.92634,19.21869 1.93659,25.74212 3.75293,34.27964 9.71584,45.66831 2.83448,5.4136 6.10735,9.17309 16.47471,18.92419 17.45761,16.41989 17.49677,16.50501 18.82034,40.91403 1.01744,18.76346 3.23843,30.87242 9.09173,49.56855 l 4.0191,12.83753 -2.21757,8.30295 c -1.96247,7.34777 -2.0741,8.84331 -0.97035,13 2.17235,8.18097 1.93015,10.46679 -1.27332,12.0173 -3.32479,1.60923 -22.73319,3.5248 -27.31464,2.69589 -5.82663,-1.05419 -5.79345,-5.30672 0.13201,-16.91931 11.5363,-22.6086 9.75407,-48.38401 -5.43525,-78.6071 -13.22483,-26.31421 -22.19336,-36.24129 -55.54331,-61.47971 -7.15,-5.41094 -16.27877,-12.57676 -20.28616,-15.92405 -4.00739,-3.34728 -7.60739,-6.08429 -8,-6.08224 -0.39261,0.002 -7.29557,6.76946 -15.33991,15.03868 -23.88117,24.54879 -25.01978,29.4494 -12.82872,55.21555 9.19057,19.42454 8.20491,23.59378 -9.1755,38.81146 -12.85332,11.25392 -19.81866,19.35374 -27.90027,32.4445 -8.18265,13.25444 -11.77076,17.10845 -19.91001,21.38551 -7.66164,4.02608 -8.6544,5.21543 -9.67363,11.58934 -1.01379,6.33993 -3.77545,8.88495 -10.8858,10.03185 -6.74609,1.08814 -18.7151,1.13533 -22.5,0.0887 -1.51863,-0.41995 -2.62362,-1.54462 -2.81493,-2.86507 -0.40088,-2.76702 10.16424,-13.78657 28.77315,-30.01073 15.20158,-13.25346 21.80072,-20.70212 32.98708,-37.23352 11.87842,-17.55416 12.36867,-18.75414 11.82032,-28.9328 -0.52039,-9.65981 -2.59834,-16.25163 -10.70454,-33.95778 -8.13844,-17.77658 -9.42021,-23.60474 -9.4965,-43.18025 l -0.0646,-16.57084 -8,3.21894 c -16.01408,6.44355 -36.97142,11.64498 -52.51619,13.03406 -5.30165,0.47376 -8.76908,1.41157 -11.8917,3.21626 -6.35226,3.67125 -18.27261,4.22361 -27.91874,1.29369 -3.84112,-1.16671 -9.38899,-2.14103 -12.32861,-2.16517 -2.93962,-0.0241 -6.95511,-0.61959 -8.92332,-1.32323 -1.96821,-0.70363 -4.44321,-0.96541 -5.5,-0.58173 -1.05679,0.38367 -2.74748,0.26766 -3.75709,-0.2578 -1.0096,-0.52547 -1.94202,-0.80643 -2.07203,-0.62437 -0.13001,0.18206 -1.42425,2.40676 -2.87608,4.94379 -1.45184,2.53702 -8.09835,12.21202 -14.77003,21.5 -10.13756,14.11298 -13.77371,20.25499 -22.13375,37.38723 -5.50188,11.275 -10.86506,22.66583 -11.91817,25.31296 -1.0531,2.64713 -2.82297,11.98577 -3.93303,20.75253 -3.02433,23.88482 -6.35438,32.46994 -14.88869,38.38422 -4.67537,3.24003 -5.77771,5.46285 -6.44273,12.99146 -0.99581,11.27351 -7.3548,15.56467 -23.88362,16.11712 -5.6354,0.18836 -11.1462,0.0961 -12.2462,-0.20498 z M 541.31295,208.17342 c 2.10006,-6.2401 2.09915,-11.4098 -10e-4,-8.08825 -0.51199,0.80958 -0.93779,2.48937 -0.94621,3.73287 -0.008,1.24349 -0.95493,4.25986 -2.10336,6.70303 -1.14842,2.44317 -1.76115,4.97105 -1.36161,5.61751 0.94309,1.52597 1.6446,0.25969 4.41261,-7.96516 z m -3.37278,-3.7132 c 1.49129,-3.90489 1.53952,-4.70648 0.32875,-5.46402 -1.04584,-0.65435 -1.50493,-0.30292 -1.74605,1.33659 -0.17993,1.22339 -0.69381,3.90836 -1.14197,5.96659 -1.07623,4.94281 0.36465,3.90734 2.55927,-1.83916 z m -8.6669,-1.99197 c 3.35342,-2.82172 3.92154,-4.41111 1.57673,-4.41111 -0.825,0 -1.5,-0.675 -1.5,-1.5 0,-1.87469 -0.85077,-1.87813 -5.29455,-0.0214 -4.08793,1.70805 -8.47742,7.04453 -6.46253,7.85676 3.51269,1.41601 8.73267,0.55606 11.68035,-1.92425 z m -11.97883,-3.75028 c -0.79607,-0.70701 -9.94494,-1.43323 -9.92716,-0.78799 0.01,0.34494 1.46206,1.6371 3.22791,2.87147 3.19242,2.23158 3.22179,2.23316 5.17717,0.27778 1.08159,-1.08159 1.76653,-2.14416 1.52208,-2.36126 z m 10.74963,-30.91083 c -1.26862,-7.30661 -1.9955,-16.38839 -2.07369,-25.90918 l -0.12038,-14.65918 -2.69089,-2.11691 c -1.47999,-1.16429 -2.96679,-2.98616 -3.30399,-4.04859 -0.7307,-2.30223 1.97775,-10.78434 4.2436,-13.28977 1.22967,-1.35969 1.32948,-2.04817 0.42765,-2.95 -0.90183,-0.90182 -1.45643,-0.89631 -2.37637,0.0236 -1.94725,1.94725 -4.39675,1.38045 -5.61805,-1.3 -0.62649,-1.375 -1.63086,-2.5 -2.23194,-2.5 -1.40395,0 -3.37163,-1.997715 -4.24914,-4.31401 -0.44387,-1.171644 -1.4864,-1.702816 -2.94405,-1.5 -2.08908,0.290674 -2.27911,-0.113363 -2.55672,-5.435987 -0.16495,-3.1625 -0.72745,-5.75 -1.25,-5.75 -0.52256,0 -0.9501,-0.920391 -0.9501,-2.045313 0,-1.834828 -0.38592,-1.965416 -3.75,-1.268942 -6.95621,1.440161 -15.25,-0.03963 -15.25,-2.720929 0,-0.530649 0.92149,-0.964816 2.04775,-0.964816 1.12626,0 3.03876,-1.056574 4.25,-2.347941 1.21124,-1.291368 4.11475,-3.547013 6.45225,-5.012545 2.3375,-1.465532 4.25,-3.098989 4.25,-3.629905 0,-0.530915 -1.08557,-3.33777 -2.41237,-6.237455 -1.32681,-2.899685 -2.98128,-7.207213 -3.67661,-9.572284 -0.69532,-2.365072 -1.62113,-4.520709 -2.05735,-4.790305 -1.69289,-1.046267 -15.36245,28.893797 -19.44525,42.590435 l -2.23566,7.5 4.16362,3.718619 c 3.45781,3.088238 3.90934,3.890858 2.66362,4.734688 -1.33333,0.90317 -1.33333,1.02024 0,1.05362 0.825,0.0207 2.625,0.91755 4,1.99311 l 2.5,1.95557 -3.4934,-0.97781 c -4.47799,-1.25338 -13.43103,-1.23447 -10.5066,0.0222 1.1,0.47269 3.22062,0.89106 4.71249,0.92972 7.73949,0.20054 19.27555,7.2717 23.17978,14.20831 l 1.89227,3.36197 -3.89227,-3.63176 c -2.14075,-1.99748 -4.93088,-4.16478 -6.20029,-4.81624 -2.24269,-1.15094 -2.22967,-1.06607 0.46003,2.99834 2.10421,3.17967 2.86569,5.71617 3.17517,10.57658 0.37308,5.85905 0.61904,6.44697 2.94091,7.02972 1.39357,0.34977 3.36585,0.11629 4.38284,-0.51882 1.55171,-0.96907 1.84907,-0.85346 1.84907,0.71885 0,2.91369 -3.90323,7.17586 -8.40743,9.18056 -3.2193,1.43283 -3.60077,1.83657 -1.78776,1.89213 1.26765,0.0388 5.47727,-1.27936 9.35471,-2.92936 7.83662,-3.33478 11.13726,-3.65213 14.84048,-1.42691 l 2.5,1.50223 -3.08567,-0.58102 c -4.78618,-0.90123 -7.21253,1.77921 -9.51977,10.51668 -1.08766,4.11896 -2.90055,8.76465 -4.02865,10.32375 l -2.05108,2.83474 2.34259,-1.24063 c 5.15131,-2.72811 8.84722,-6.30698 10.90672,-10.56133 2.65534,-5.4852 3.40424,-5.11327 1.88143,0.93437 -0.69904,2.77614 -3.07718,6.94361 -6.11016,10.70751 -3.49474,4.33692 -4.428,6.06198 -3.15055,5.82354 0.99833,-0.18634 2.64401,-1.91248 3.65707,-3.83587 l 1.84192,-3.49706 -0.57648,4.77692 c -0.54039,4.47781 -0.45634,4.71262 1.34233,3.75 1.05535,-0.56481 3.26574,-1.02692 4.91198,-1.02692 2.04249,0 3.65144,-0.83687 5.06574,-2.63486 2.36789,-3.01028 2.8429,-1.90994 0.57393,1.32947 -1.40386,2.00429 -1.32479,2.20313 1.25,3.14356 6.10807,2.23095 6.08977,2.27775 3.94272,-10.08817 z M 407.35,174.10245 c 0,-0.52507 -1.4625,-1.20113 -3.25,-1.50234 -9.60246,-1.6181 -17.04853,-2.57778 -17.38559,-2.24072 -0.5083,0.50831 15.51962,4.54512 18.38559,4.63062 1.2375,0.0369 2.25,-0.36248 2.25,-0.88756 z m -56,-2.60433 c 0,-1.65007 -1.58045,-1.92885 -2.5,-0.44098 -0.81551,1.31952 0.38021,3.19207 1.5691,2.45729 0.51199,-0.31643 0.9309,-1.22377 0.9309,-2.01631 z m 33.1875,-2.12409 c -0.72188,-0.28887 -1.58438,-0.25335 -1.91667,0.0789 -0.33229,0.3323 0.25834,0.56864 1.3125,0.52522 1.16494,-0.048 1.4019,-0.28494 0.60417,-0.60416 z m -8.1875,-1.95104 c -7.23065,-1.8576 -18.8066,-2.81231 -23.47664,-1.93621 -6.26964,1.17619 -2.97706,2.02018 10.29884,2.6399 19.13474,0.89321 19.3491,0.88176 13.1778,-0.70369 z m 113.4314,-36.8302 c -2.2151,-3.38068 -6.44047,-5.55389 -10.63174,-5.46816 -2.97319,0.0608 -2.80799,0.19944 1.66968,1.40111 3.14564,0.84418 5.89806,2.41008 7.5,4.26685 3.05531,3.54135 3.84284,3.43373 1.46206,-0.1998 z m -24.84961,-21.53565 c 0.78001,0 1.41821,-0.48032 1.41821,-1.06739 0,-1.22682 -3.95394,-0.27287 -5.5,1.32697 -0.68212,0.70584 -0.41771,0.82905 0.83179,0.3876 1.00748,-0.35595 2.46998,-0.64718 3.25,-0.64718 z M 724.47513,92.260077 C 740.93697,86.37993 746.55372,76.077278 739.42543,64.837135 733.59038,55.63622 716.53428,44.177268 698.66026,37.449502 671.72578,27.311394 624.90826,22.871079 589.85,27.129611 c -13.16306,1.598918 -40.94461,6.171857 -41.74805,6.871871 -0.63563,0.553816 33.75111,20.917026 42.74805,25.314625 1.65,0.806501 7.17765,2.651749 12.28367,4.100552 11.38006,3.229027 16.76928,5.901946 20.82404,10.328193 6.3442,6.925445 39.81073,17.348467 66.39229,20.677621 1.925,0.241092 9.125,0.305272 16,0.142622 9.40729,-0.22256 13.89175,-0.79286 18.12513,-2.305018 z M 461.22362,91.046225 c -3.00724,-1.756769 -13.25442,-3.989972 -17.83372,-3.88656 -4.05933,0.09167 -3.746,0.238433 2.9601,1.386465 4.125,0.706168 9.075,1.744448 11,2.307289 4.50892,1.31834 5.92058,1.388604 3.87362,0.192806 z M 624.18041,79.048372 c -0.46931,-1.40793 -35.43057,-18.291176 -36.8778,-17.808767 -2.74229,0.914096 29.9044,18.762167 34.38072,18.796076 1.55834,0.0118 2.68202,-0.432485 2.49708,-0.987309 z M 619.35,72.046385 c -1.375,-1.081458 -4.75,-2.814079 -7.5,-3.850268 -9.55638,-3.600807 -9.94758,-3.082321 -1,1.325356 9.77696,4.81624 12.40631,5.597284 8.5,2.524912 z m -39,-15.372366 c 0,-0.210719 -2.72324,-2.00535 -6.05164,-3.98807 -3.32841,-1.98272 -5.77106,-3.150941 -5.42811,-2.596046 0.34294,0.554896 2.95368,2.345304 5.80164,3.978686 5.41684,3.106702 5.67811,3.226589 5.67811,2.60543 z m -15,-5.971985 c 0,-0.347161 -10.12242,-7.512688 -12.90451,-9.134935 -3.92289,-2.287452 0.66586,1.832973 6.03188,5.416263 5.91327,3.948732 6.87263,4.467825 6.87263,3.718672 z M 523.85,35.02212 c 4.95,-0.566164 10.125,-1.292104 11.5,-1.6132 2.32644,-0.543282 2.1876,-0.719391 -2,-2.536768 -6.56663,-2.849855 -16.56131,-4.95879 -21.8708,-4.614867 l -4.6292,0.299858 -0.54597,4.75 -0.54597,4.75 4.54597,-0.0028 c 2.50028,-0.0015 8.59597,-0.466042 13.54597,-1.032206 z"
       style="fill:#000000" />
  </g>
</svg>
