<?xml version="1.0" encoding="UTF-8" standalone="no"?>
<svg
   xmlns:dc="http://purl.org/dc/elements/1.1/"
   xmlns:cc="http://creativecommons.org/ns#"
   xmlns:rdf="http://www.w3.org/1999/02/22-rdf-syntax-ns#"
   xmlns:svg="http://www.w3.org/2000/svg"
   xmlns="http://www.w3.org/2000/svg"
   xmlns:sodipodi="http://sodipodi.sourceforge.net/DTD/sodipodi-0.dtd"
   xmlns:inkscape="http://www.inkscape.org/namespaces/inkscape"
   inkscape:version="1.0 (4035a4fb49, 2020-05-01)"
   sodipodi:docname="ФЕДЕРАЦИЯ.svg"
   id="svg277"
   viewBox="0 0 50.97 53.23"
   style="shape-rendering:geometricPrecision; text-rendering:geometricPrecision; image-rendering:optimizeQuality; fill-rule:evenodd; clip-rule:evenodd"
   version="1.1"
   height="41.0223mm"
   width="39.2806mm"
   xml:space="preserve"><metadata
   id="metadata281"><rdf:RDF><cc:Work
       rdf:about=""><dc:format>image/svg+xml</dc:format><dc:type
         rdf:resource="http://purl.org/dc/dcmitype/StillImage" /><dc:title></dc:title></cc:Work></rdf:RDF></metadata><sodipodi:namedview
   inkscape:current-layer="Слой_x0020_1-3"
   inkscape:window-maximized="1"
   inkscape:window-y="-6"
   inkscape:window-x="-6"
   inkscape:cy="108.36575"
   inkscape:cx="45.992166"
   inkscape:zoom="2.7411412"
   showgrid="false"
   id="namedview279"
   inkscape:window-height="1018"
   inkscape:window-width="1920"
   inkscape:pageshadow="2"
   inkscape:pageopacity="0"
   guidetolerance="10"
   gridtolerance="10"
   objecttolerance="10"
   borderopacity="1"
   bordercolor="#666666"
   pagecolor="#ffffff" />
 <defs
   id="defs271">
  <style
   id="style269"
   type="text/css">
   <![CDATA[
    .fil0 {fill:black}
   ]]>
  </style>
 </defs>
 
<g
   style="clip-rule:evenodd;fill-rule:evenodd;image-rendering:optimizeQuality;shape-rendering:geometricPrecision;text-rendering:geometricPrecision"
   id="Слой_x0020_1"
   transform="matrix(0.05788498,0,0,0.05415737,0.93041297,17.991905)"><metadata
     id="CorelCorpID_0Corel-Layer" /><path
     class="fil0"
     d="m 210.44,59.67 c 37.25,0.19 72.11,3.17 101.94,8.21 V 16.52 l 68.24,30.51 -61.25,12.37 v 9.72 c 10.94,2.02 21.13,4.33 30.43,6.88 39.33,10.79 63.66,26.81 63.66,45.48 0,6.15 -2.64,12 -7.58,17.48 v 42.26 53.77 14.95 c -30.5,29.99 -99.61,51.64 -181.69,54.33 l -0.27,0.01 -0.27,0.01 h -0.02 l -0.52,0.02 -0.27,0.01 -0.27,0.01 -0.27,0.01 -0.27,0.01 -0.27,0.01 -1.08,0.03 -0.27,0.01 -0.27,0.01 -0.27,0.01 -0.27,0.01 -0.27,0.01 h -0.06 -0.21 l -0.27,0.01 -0.27,0.01 h -0.27 l -1.36,0.03 h -0.27 l -0.82,0.02 h -0.27 -0.27 -0.13 -0.14 -0.27 -0.27 l -2.74,0.03 h -0.27 -0.27 -0.2 -0.07 -0.27 -0.27 l -3.02,0.01 h -0.28 -0.27 -0.27 -0.28 l -3.02,-0.01 h -0.27 -0.27 -0.07 -0.2 -0.27 -0.27 l -2.73,-0.03 h -0.27 -0.27 -0.14 -0.13 -0.27 -0.27 l -0.82,-0.02 h -0.27 l -1.36,-0.03 h -0.27 l -0.27,-0.01 -0.27,-0.01 h -0.21 -0.06 l -0.27,-0.01 -0.27,-0.01 -0.27,-0.01 -0.27,-0.01 -0.27,-0.01 -1.08,-0.03 -0.27,-0.01 -0.27,-0.01 -0.27,-0.01 -0.27,-0.01 -0.27,-0.01 -0.53,-0.02 h -0.01 l -0.27,-0.01 -0.27,-0.01 C 107.31,301.56 38.18,279.92 7.7,249.94 V 234.99 181.21 138.95 C 2.76,133.47 0.12,127.61 0.12,121.47 0.12,102.81 24.45,86.79 63.78,75.99 69.95,74.3 76.52,72.71 83.43,71.25 V 16.52 L 151.67,47.03 90.42,59.4 V 69.84 C 122.6,63.6 161.58,59.86 203.59,59.68 V 0.02 l 68.24,30.51 -61.25,12.37 v 16.79 z m 13.75,237.46 v -74.12 h -34.92 v 74.12 c -11.68,-0.38 -23.11,-1.16 -34.19,-2.28 v -0.2 -76.62 c 0,-7.18 2.91,-13.71 7.59,-18.43 l 0.02,-0.02 c 4.68,-4.72 11.16,-7.65 18.29,-7.65 h 51.5 c 7.13,0 13.61,2.93 18.29,7.65 l 0.02,0.02 c 4.68,4.72 7.59,11.24 7.59,18.43 v 76.62 0.2 c -11.08,1.12 -22.51,1.89 -34.19,2.28 z M 69.74,277.2 v -77.3 c 0,-7.65 -3.09,-14.91 -8.05,-20.44 -4.97,-5.53 -11.81,-9.33 -19.31,-10.05 -0.76,-0.07 -1.61,-0.11 -2.54,-0.11 -6.33,0 -12.03,2.32 -16.27,6.23 -4.25,3.91 -7.09,9.43 -7.69,15.81 -0.07,0.75 -0.1,1.62 -0.1,2.6 v 56 c 13.47,10.51 31.88,19.77 53.97,27.26 z m 261.39,3.95 V 210 c 0,-1 -0.04,-1.88 -0.1,-2.62 -0.61,-6.73 -3.59,-12.56 -8.06,-16.69 -4.46,-4.12 -10.47,-6.57 -17.15,-6.57 -0.96,0 -1.82,0.04 -2.56,0.1 h -0.04 c -7.81,0.73 -14.95,4.67 -20.15,10.43 -5.2,5.76 -8.42,13.33 -8.42,21.31 v 76.96 c 20.34,-2.78 39.34,-6.77 56.49,-11.77 z m 66.55,-31.21 v -56 c 0,-0.98 -0.03,-1.85 -0.1,-2.6 -0.6,-6.38 -3.44,-11.9 -7.69,-15.81 -4.24,-3.91 -9.94,-6.23 -16.27,-6.23 -0.93,0 -1.78,0.04 -2.54,0.11 -7.5,0.72 -14.34,4.52 -19.31,10.05 -4.97,5.53 -8.06,12.79 -8.06,20.44 v 77.3 c 22.09,-7.49 40.51,-16.75 53.97,-27.26 z M 138.8,292.92 v -76.96 c 0,-7.98 -3.23,-15.55 -8.42,-21.31 -5.2,-5.76 -12.34,-9.7 -20.15,-10.43 h -0.04 c -0.74,-0.07 -1.6,-0.1 -2.56,-0.1 -6.69,0 -12.69,2.45 -17.15,6.57 -4.48,4.13 -7.45,9.96 -8.06,16.69 -0.06,0.74 -0.1,1.61 -0.1,2.62 v 71.15 c 17.15,5 36.15,8.99 56.49,11.77 z m 67.92,-190.58 3.25,0.01 h 0.17 0.37 0.54 l 2.15,0.02 h 0.34 0.19 0.54 l 0.54,0.01 0.54,0.01 0.53,0.01 0.53,0.01 0.51,0.01 h 0.03 l 0.53,0.01 2.11,0.04 h 0.01 l 0.53,0.01 h 0.14 l 0.38,0.01 0.53,0.01 0.53,0.01 0.53,0.01 0.52,0.01 0.53,0.01 0.31,0.01 h 0.22 l 0.52,0.01 0.52,0.01 1.05,0.03 0.52,0.01 0.47,0.01 h 0.05 l 0.52,0.02 0.52,0.02 0.52,0.02 0.52,0.02 0.52,0.02 0.52,0.02 h 0.12 l 0.4,0.01 0.51,0.02 0.51,0.02 0.51,0.02 0.51,0.02 0.51,0.02 0.28,0.01 0.23,0.01 0.51,0.02 0.51,0.02 0.51,0.02 0.51,0.02 0.51,0.02 0.44,0.02 h 0.07 l 0.51,0.02 2.02,0.1 0.5,0.03 h 0.09 l 0.41,0.02 6.32,-28.48 c -12.86,-0.72 -26.18,-1.09 -39.84,-1.09 -13.66,0 -26.98,0.37 -39.84,1.09 l 6.32,28.48 0.41,-0.02 h 0.09 l 0.5,-0.03 2.02,-0.1 0.51,-0.02 h 0.07 l 0.44,-0.02 0.51,-0.02 0.51,-0.02 0.51,-0.02 0.51,-0.02 0.51,-0.02 0.23,-0.01 0.28,-0.01 0.51,-0.02 0.51,-0.02 0.51,-0.02 0.51,-0.02 0.51,-0.02 0.4,-0.01 h 0.12 l 0.52,-0.02 0.52,-0.02 0.52,-0.02 0.52,-0.02 0.52,-0.02 0.52,-0.02 h 0.05 l 0.47,-0.01 0.52,-0.01 1.05,-0.03 0.52,-0.01 0.52,-0.01 h 0.22 l 0.31,-0.01 0.53,-0.01 0.52,-0.01 0.53,-0.01 0.53,-0.01 0.53,-0.01 0.38,-0.01 h 0.14 l 0.53,-0.01 h 0.01 l 2.11,-0.04 0.53,-0.01 h 0.03 l 0.51,-0.01 0.53,-0.01 0.53,-0.01 0.54,-0.01 0.54,-0.01 h 0.54 0.19 0.34 l 2.15,-0.02 h 0.54 0.37 0.17 z m 52.08,-26.83 -6.91,28.39 1.2,0.09 1.19,0.09 2.37,0.19 1.18,0.1 1.17,0.1 1.16,0.1 2.31,0.21 1.15,0.11 1.14,0.11 1.14,0.11 1.13,0.11 h 0.02 l 1.11,0.12 1.12,0.12 1.11,0.12 1.1,0.12 2.14,0.24 0.05,0.01 1.09,0.13 1.08,0.13 1.07,0.13 1.06,0.13 0.17,0.02 0.88,0.11 1.05,0.14 1.04,0.14 1.04,0.14 1.03,0.14 0.24,0.03 0.78,0.11 1.02,0.15 2.01,0.3 0.99,0.15 0.98,0.16 0.98,0.15 0.08,0.01 0.89,0.15 0.96,0.16 0.95,0.16 0.37,0.06 0.57,0.1 0.94,0.17 0.93,0.17 0.92,0.17 0.92,0.17 0.42,0.08 0.48,0.09 0.9,0.17 0.89,0.17 v 0 l 0.88,0.18 0.87,0.18 0.86,0.18 0.86,0.18 0.07,0.01 1.62,0.35 0.83,0.19 0.51,0.11 0.31,0.07 1.62,0.38 0.13,0.03 0.67,0.16 0.78,0.19 0.54,0.14 0.23,0.06 1.53,0.39 0.18,0.05 0.57,0.15 0.74,0.2 0.57,0.16 0.17,0.05 16.79,-27.63 c -21.05,-4.73 -45.8,-8.29 -72.92,-10.31 z m 83.66,12.9 -18.08,28.1 0.34,0.13 0.06,0.02 0.09,0.04 0.69,0.27 0.38,0.15 0.2,0.08 0.17,0.07 0.74,0.31 0.37,0.16 0.08,0.03 v 0 l 0.98,0.44 0.31,0.14 0.03,0.02 0.05,0.02 0.95,0.46 0.19,0.09 0.13,0.07 0.63,0.33 0.3,0.16 0.21,0.11 0.68,0.38 0.27,0.16 0.01,0.01 0.12,0.07 0.71,0.43 0.17,0.11 0.1,0.06 0.7,0.46 0.28,0.2 0.57,0.41 0.26,0.2 0.53,0.43 0.14,0.12 0.06,0.06 0.57,0.52 0.07,0.06 0.05,0.05 c 0.2,0.19 0.38,0.38 0.56,0.58 l 0.01,0.01 0.01,0.01 0.02,0.03 c 0.17,0.19 0.33,0.38 0.48,0.57 l 0.07,0.1 c 0.14,0.19 0.28,0.38 0.4,0.56 l 0.08,0.13 0.28,0.48 0.09,0.17 c 0.08,0.17 0.16,0.33 0.23,0.5 l 0.07,0.19 c 0.06,0.16 0.11,0.33 0.16,0.49 l 0.04,0.15 0.01,0.03 56.87,-14.36 c -7.19,-8.59 -24.91,-16.76 -49.79,-23.59 -1.21,-0.33 -2.44,-0.66 -3.68,-0.99 z m 57.02,32.55 -69.45,17.26 h -0.01 c -0.79,0.4 -1.63,0.79 -2.51,1.18 l -0.02,0.01 -1.22,0.52 -0.12,0.05 -0.04,0.02 -1.13,0.45 -0.27,0.1 -0.06,0.02 -0.33,0.13 -1.01,0.38 -0.09,0.03 -1.31,0.47 -0.25,0.09 -0.1,0.03 -0.36,0.12 -1.1,0.37 -0.06,0.02 -0.32,0.1 -1.14,0.36 -0.23,0.07 -0.15,0.05 -0.39,0.12 -0.39,0.12 -0.4,0.12 -0.4,0.12 -0.02,0.01 -0.38,0.11 -0.06,0.02 -0.76,0.22 -0.41,0.12 -0.2,0.06 -0.21,0.06 -0.42,0.12 -0.42,0.11 -0.43,0.11 -0.4,0.11 h -0.03 l -0.43,0.11 -0.43,0.11 -0.44,0.11 -0.44,0.11 -0.17,0.04 -0.27,0.07 -0.44,0.11 -0.45,0.11 -0.45,0.11 -0.38,0.09 -0.08,0.02 -0.46,0.11 -0.46,0.11 -0.46,0.11 -0.47,0.11 -0.47,0.11 -0.47,0.11 5.76,15.05 c 12.45,-2.15 23.96,-4.67 34.29,-7.51 32.96,-9.04 53.35,-20.45 53.35,-32.06 l -0.01,-0.49 z m -97.09,41.59 -5.96,-14.63 -0.62,0.11 -0.49,0.09 -1.12,0.2 -1.13,0.2 -1.15,0.19 -1.16,0.19 -1.17,0.19 h -0.01 c -1.56,0.25 -3.15,0.49 -4.77,0.72 l -1.22,0.18 -0.17,0.02 -1.07,0.15 -1.24,0.17 -1.09,0.15 -0.16,0.02 -1.26,0.16 -0.46,0.06 -0.81,0.1 -1.28,0.16 -0.61,0.07 -0.68,0.08 -1.3,0.15 h -0.03 l -1.29,0.15 -1.32,0.15 -1.33,0.14 -1.34,0.14 -1.11,0.11 -0.24,0.02 -1.36,0.14 -1.28,0.13 -0.09,0.01 -1.37,0.13 -1.38,0.13 -0.07,0.01 -1.32,0.11 -1.4,0.12 -0.23,0.02 -1.18,0.1 -1.42,0.11 -0.4,0.03 -1.02,0.08 -1.43,0.11 -1.42,0.1 -4.39,0.3 -0.92,0.06 -0.55,0.03 -1.48,0.09 -1.09,0.06 -0.39,0.02 -1.49,0.08 -1.28,0.07 -0.22,0.01 -1.51,0.07 -1.46,0.07 h -0.05 l -1.52,0.07 -1.53,0.07 h -0.13 l -2.91,0.11 h -0.03 l -0.3,0.01 -1.24,0.04 -1.55,0.05 -0.48,0.01 -2.63,0.07 -0.67,0.02 -2.47,0.06 -0.85,0.02 -0.72,0.01 -1.59,0.03 -1.04,0.02 -3.37,0.04 h -0.37 l -3.03,0.02 h -0.18 -1.61 -1.62 -1.62 -1.61 -0.18 l -3.03,-0.02 h -0.37 l -3.37,-0.04 -1.04,-0.02 -1.59,-0.03 -0.72,-0.01 -0.85,-0.02 -2.47,-0.06 -0.67,-0.02 -2.63,-0.07 -0.48,-0.01 -1.55,-0.05 -1.24,-0.04 -0.31,-0.01 H 183 l -2.91,-0.11 h -0.13 l -1.53,-0.07 -1.52,-0.07 h -0.05 l -1.46,-0.07 -1.51,-0.07 -0.22,-0.01 -1.28,-0.07 -1.49,-0.08 -0.39,-0.02 -1.09,-0.06 -1.48,-0.09 -0.55,-0.03 -0.92,-0.06 -4.39,-0.3 -1.42,-0.1 -1.43,-0.11 -1.02,-0.08 -0.4,-0.03 -1.42,-0.11 -1.18,-0.1 -0.23,-0.02 -1.4,-0.12 -1.32,-0.11 -0.07,-0.01 -1.38,-0.13 -1.37,-0.13 -0.09,-0.01 -1.28,-0.13 -1.36,-0.14 -0.24,-0.02 -1.11,-0.11 -1.34,-0.14 -1.33,-0.14 -1.32,-0.15 -1.29,-0.15 h -0.03 l -1.3,-0.15 -0.68,-0.08 -0.61,-0.07 -1.28,-0.16 -0.81,-0.1 -0.46,-0.06 -1.26,-0.16 -0.16,-0.02 -1.09,-0.15 -1.24,-0.17 -1.07,-0.15 -0.17,-0.02 -1.22,-0.18 c -1.62,-0.24 -3.21,-0.47 -4.77,-0.72 h -0.01 l -1.17,-0.19 -1.16,-0.19 -1.15,-0.19 -1.13,-0.2 -1.12,-0.2 -0.49,-0.09 -0.62,-0.11 -5.96,14.63 c 28.28,4.29 60.89,6.74 95.66,6.74 34.77,0 67.38,-2.45 95.66,-6.74 z m -200.78,-1.53 5.76,-15.05 -0.47,-0.11 -0.47,-0.11 -0.47,-0.11 -0.46,-0.11 -0.46,-0.11 -0.46,-0.11 -0.08,-0.02 -0.38,-0.09 -0.45,-0.11 -0.45,-0.11 -0.44,-0.11 -0.27,-0.07 -0.17,-0.04 -0.44,-0.11 -0.44,-0.11 -0.43,-0.11 -0.43,-0.11 h -0.03 l -0.4,-0.11 -0.43,-0.11 -0.42,-0.11 -0.42,-0.12 -0.21,-0.06 -0.2,-0.06 -0.41,-0.12 -0.76,-0.22 -0.06,-0.02 -0.38,-0.11 -0.02,-0.01 -0.4,-0.12 -0.4,-0.12 -0.39,-0.12 -0.39,-0.12 -0.15,-0.05 -0.23,-0.07 -1.14,-0.36 -0.32,-0.1 -0.06,-0.02 -1.1,-0.37 -0.36,-0.12 -0.1,-0.03 -0.25,-0.09 -1.31,-0.47 -0.09,-0.03 -1.01,-0.38 -0.33,-0.13 -0.06,-0.02 -0.27,-0.1 -1.12,-0.45 -0.04,-0.02 -0.12,-0.05 -1.22,-0.52 -0.02,-0.01 c -0.89,-0.39 -1.73,-0.78 -2.51,-1.18 H 83.46 L 14.01,120.96 14,121.45 c 0,11.61 20.39,23.01 53.35,32.06 10.33,2.84 21.83,5.36 34.29,7.51 z m -84.08,-48.03 56.87,14.36 0.01,-0.03 0.04,-0.15 c 0.04,-0.17 0.1,-0.33 0.16,-0.49 l 0.07,-0.19 c 0.07,-0.17 0.14,-0.33 0.23,-0.5 L 75,125.82 c 0.08,-0.16 0.18,-0.32 0.28,-0.48 l 0.08,-0.13 c 0.12,-0.19 0.26,-0.38 0.4,-0.56 l 0.07,-0.1 c 0.15,-0.19 0.31,-0.38 0.48,-0.57 l 0.02,-0.03 0.01,-0.01 0.01,-0.01 c 0.18,-0.2 0.36,-0.38 0.56,-0.58 l 0.05,-0.05 0.07,-0.06 c 0.18,-0.17 0.37,-0.35 0.57,-0.52 l 0.06,-0.06 0.14,-0.12 0.53,-0.43 0.26,-0.2 0.57,-0.41 0.28,-0.2 0.7,-0.46 0.1,-0.06 0.17,-0.11 0.71,-0.43 0.12,-0.07 0.01,-0.01 0.27,-0.16 0.68,-0.38 0.21,-0.11 0.3,-0.16 0.63,-0.33 0.13,-0.07 0.19,-0.09 0.95,-0.46 0.05,-0.02 0.03,-0.02 0.31,-0.14 0.98,-0.44 v 0 l 0.08,-0.03 0.37,-0.16 0.74,-0.31 0.17,-0.07 0.2,-0.08 0.38,-0.15 0.69,-0.27 0.09,-0.04 0.06,-0.02 0.34,-0.13 -18.08,-28.1 c -1.24,0.32 -2.47,0.65 -3.68,0.99 -24.88,6.83 -42.6,15 -49.79,23.59 z m 64.2,-27.17 16.79,27.63 0.17,-0.05 0.57,-0.16 0.74,-0.2 0.57,-0.15 0.18,-0.05 1.53,-0.39 0.24,-0.06 0.54,-0.14 0.78,-0.19 0.67,-0.16 0.13,-0.03 1.62,-0.38 0.31,-0.07 0.51,-0.11 0.83,-0.19 1.62,-0.35 0.07,-0.01 0.86,-0.18 0.86,-0.18 0.87,-0.18 0.88,-0.18 v 0 l 0.89,-0.17 0.9,-0.17 0.48,-0.09 0.42,-0.08 0.92,-0.17 0.92,-0.17 0.93,-0.17 0.94,-0.17 0.57,-0.1 0.37,-0.06 0.95,-0.16 0.96,-0.16 0.89,-0.15 0.08,-0.01 0.98,-0.15 0.98,-0.16 0.99,-0.15 2.01,-0.3 1.02,-0.15 0.78,-0.11 0.24,-0.03 1.03,-0.14 1.04,-0.14 1.04,-0.14 1.05,-0.14 0.88,-0.11 0.17,-0.02 1.06,-0.13 1.07,-0.13 1.08,-0.13 1.09,-0.13 0.05,-0.01 2.14,-0.24 1.1,-0.12 1.11,-0.12 1.12,-0.12 1.11,-0.12 h 0.02 l 1.13,-0.11 1.14,-0.11 1.14,-0.11 1.15,-0.11 2.31,-0.21 1.16,-0.1 1.17,-0.1 1.18,-0.1 2.37,-0.19 1.19,-0.09 1.2,-0.09 -6.91,-28.39 c -27.12,2.02 -51.87,5.58 -72.92,10.31 z"
     id="path302" /></g><g
   transform="matrix(0.05788498,0,0,0.05415737,16.461049,2.523892)"
   id="Слой_x0020_1-0"
   style="clip-rule:evenodd;fill-rule:evenodd;image-rendering:optimizeQuality;shape-rendering:geometricPrecision;text-rendering:geometricPrecision"><metadata
     id="CorelCorpID_0Corel-Layer-3" /><path
     id="path302-2"
     d="m 210.44,59.67 c 37.25,0.19 72.11,3.17 101.94,8.21 V 16.52 l 68.24,30.51 -61.25,12.37 v 9.72 c 10.94,2.02 21.13,4.33 30.43,6.88 39.33,10.79 63.66,26.81 63.66,45.48 0,6.15 -2.64,12 -7.58,17.48 v 42.26 53.77 14.95 c -30.5,29.99 -99.61,51.64 -181.69,54.33 l -0.27,0.01 -0.27,0.01 h -0.02 l -0.52,0.02 -0.27,0.01 -0.27,0.01 -0.27,0.01 -0.27,0.01 -0.27,0.01 -1.08,0.03 -0.27,0.01 -0.27,0.01 -0.27,0.01 -0.27,0.01 -0.27,0.01 h -0.06 -0.21 l -0.27,0.01 -0.27,0.01 h -0.27 l -1.36,0.03 h -0.27 l -0.82,0.02 h -0.27 -0.27 -0.13 -0.14 -0.27 -0.27 l -2.74,0.03 h -0.27 -0.27 -0.2 -0.07 -0.27 -0.27 l -3.02,0.01 h -0.28 -0.27 -0.27 -0.28 l -3.02,-0.01 h -0.27 -0.27 -0.07 -0.2 -0.27 -0.27 l -2.73,-0.03 h -0.27 -0.27 -0.14 -0.13 -0.27 -0.27 l -0.82,-0.02 h -0.27 l -1.36,-0.03 h -0.27 l -0.27,-0.01 -0.27,-0.01 h -0.21 -0.06 l -0.27,-0.01 -0.27,-0.01 -0.27,-0.01 -0.27,-0.01 -0.27,-0.01 -1.08,-0.03 -0.27,-0.01 -0.27,-0.01 -0.27,-0.01 -0.27,-0.01 -0.27,-0.01 -0.53,-0.02 h -0.01 l -0.27,-0.01 -0.27,-0.01 C 107.31,301.56 38.18,279.92 7.7,249.94 V 234.99 181.21 138.95 C 2.76,133.47 0.12,127.61 0.12,121.47 0.12,102.81 24.45,86.79 63.78,75.99 69.95,74.3 76.52,72.71 83.43,71.25 V 16.52 L 151.67,47.03 90.42,59.4 V 69.84 C 122.6,63.6 161.58,59.86 203.59,59.68 V 0.02 l 68.24,30.51 -61.25,12.37 v 16.79 z m 13.75,237.46 v -74.12 h -34.92 v 74.12 c -11.68,-0.38 -23.11,-1.16 -34.19,-2.28 v -0.2 -76.62 c 0,-7.18 2.91,-13.71 7.59,-18.43 l 0.02,-0.02 c 4.68,-4.72 11.16,-7.65 18.29,-7.65 h 51.5 c 7.13,0 13.61,2.93 18.29,7.65 l 0.02,0.02 c 4.68,4.72 7.59,11.24 7.59,18.43 v 76.62 0.2 c -11.08,1.12 -22.51,1.89 -34.19,2.28 z M 69.74,277.2 v -77.3 c 0,-7.65 -3.09,-14.91 -8.05,-20.44 -4.97,-5.53 -11.81,-9.33 -19.31,-10.05 -0.76,-0.07 -1.61,-0.11 -2.54,-0.11 -6.33,0 -12.03,2.32 -16.27,6.23 -4.25,3.91 -7.09,9.43 -7.69,15.81 -0.07,0.75 -0.1,1.62 -0.1,2.6 v 56 c 13.47,10.51 31.88,19.77 53.97,27.26 z m 261.39,3.95 V 210 c 0,-1 -0.04,-1.88 -0.1,-2.62 -0.61,-6.73 -3.59,-12.56 -8.06,-16.69 -4.46,-4.12 -10.47,-6.57 -17.15,-6.57 -0.96,0 -1.82,0.04 -2.56,0.1 h -0.04 c -7.81,0.73 -14.95,4.67 -20.15,10.43 -5.2,5.76 -8.42,13.33 -8.42,21.31 v 76.96 c 20.34,-2.78 39.34,-6.77 56.49,-11.77 z m 66.55,-31.21 v -56 c 0,-0.98 -0.03,-1.85 -0.1,-2.6 -0.6,-6.38 -3.44,-11.9 -7.69,-15.81 -4.24,-3.91 -9.94,-6.23 -16.27,-6.23 -0.93,0 -1.78,0.04 -2.54,0.11 -7.5,0.72 -14.34,4.52 -19.31,10.05 -4.97,5.53 -8.06,12.79 -8.06,20.44 v 77.3 c 22.09,-7.49 40.51,-16.75 53.97,-27.26 z M 138.8,292.92 v -76.96 c 0,-7.98 -3.23,-15.55 -8.42,-21.31 -5.2,-5.76 -12.34,-9.7 -20.15,-10.43 h -0.04 c -0.74,-0.07 -1.6,-0.1 -2.56,-0.1 -6.69,0 -12.69,2.45 -17.15,6.57 -4.48,4.13 -7.45,9.96 -8.06,16.69 -0.06,0.74 -0.1,1.61 -0.1,2.62 v 71.15 c 17.15,5 36.15,8.99 56.49,11.77 z m 67.92,-190.58 3.25,0.01 h 0.17 0.37 0.54 l 2.15,0.02 h 0.34 0.19 0.54 l 0.54,0.01 0.54,0.01 0.53,0.01 0.53,0.01 0.51,0.01 h 0.03 l 0.53,0.01 2.11,0.04 h 0.01 l 0.53,0.01 h 0.14 l 0.38,0.01 0.53,0.01 0.53,0.01 0.53,0.01 0.52,0.01 0.53,0.01 0.31,0.01 h 0.22 l 0.52,0.01 0.52,0.01 1.05,0.03 0.52,0.01 0.47,0.01 h 0.05 l 0.52,0.02 0.52,0.02 0.52,0.02 0.52,0.02 0.52,0.02 0.52,0.02 h 0.12 l 0.4,0.01 0.51,0.02 0.51,0.02 0.51,0.02 0.51,0.02 0.51,0.02 0.28,0.01 0.23,0.01 0.51,0.02 0.51,0.02 0.51,0.02 0.51,0.02 0.51,0.02 0.44,0.02 h 0.07 l 0.51,0.02 2.02,0.1 0.5,0.03 h 0.09 l 0.41,0.02 6.32,-28.48 c -12.86,-0.72 -26.18,-1.09 -39.84,-1.09 -13.66,0 -26.98,0.37 -39.84,1.09 l 6.32,28.48 0.41,-0.02 h 0.09 l 0.5,-0.03 2.02,-0.1 0.51,-0.02 h 0.07 l 0.44,-0.02 0.51,-0.02 0.51,-0.02 0.51,-0.02 0.51,-0.02 0.51,-0.02 0.23,-0.01 0.28,-0.01 0.51,-0.02 0.51,-0.02 0.51,-0.02 0.51,-0.02 0.51,-0.02 0.4,-0.01 h 0.12 l 0.52,-0.02 0.52,-0.02 0.52,-0.02 0.52,-0.02 0.52,-0.02 0.52,-0.02 h 0.05 l 0.47,-0.01 0.52,-0.01 1.05,-0.03 0.52,-0.01 0.52,-0.01 h 0.22 l 0.31,-0.01 0.53,-0.01 0.52,-0.01 0.53,-0.01 0.53,-0.01 0.53,-0.01 0.38,-0.01 h 0.14 l 0.53,-0.01 h 0.01 l 2.11,-0.04 0.53,-0.01 h 0.03 l 0.51,-0.01 0.53,-0.01 0.53,-0.01 0.54,-0.01 0.54,-0.01 h 0.54 0.19 0.34 l 2.15,-0.02 h 0.54 0.37 0.17 z m 52.08,-26.83 -6.91,28.39 1.2,0.09 1.19,0.09 2.37,0.19 1.18,0.1 1.17,0.1 1.16,0.1 2.31,0.21 1.15,0.11 1.14,0.11 1.14,0.11 1.13,0.11 h 0.02 l 1.11,0.12 1.12,0.12 1.11,0.12 1.1,0.12 2.14,0.24 0.05,0.01 1.09,0.13 1.08,0.13 1.07,0.13 1.06,0.13 0.17,0.02 0.88,0.11 1.05,0.14 1.04,0.14 1.04,0.14 1.03,0.14 0.24,0.03 0.78,0.11 1.02,0.15 2.01,0.3 0.99,0.15 0.98,0.16 0.98,0.15 0.08,0.01 0.89,0.15 0.96,0.16 0.95,0.16 0.37,0.06 0.57,0.1 0.94,0.17 0.93,0.17 0.92,0.17 0.92,0.17 0.42,0.08 0.48,0.09 0.9,0.17 0.89,0.17 v 0 l 0.88,0.18 0.87,0.18 0.86,0.18 0.86,0.18 0.07,0.01 1.62,0.35 0.83,0.19 0.51,0.11 0.31,0.07 1.62,0.38 0.13,0.03 0.67,0.16 0.78,0.19 0.54,0.14 0.23,0.06 1.53,0.39 0.18,0.05 0.57,0.15 0.74,0.2 0.57,0.16 0.17,0.05 16.79,-27.63 c -21.05,-4.73 -45.8,-8.29 -72.92,-10.31 z m 83.66,12.9 -18.08,28.1 0.34,0.13 0.06,0.02 0.09,0.04 0.69,0.27 0.38,0.15 0.2,0.08 0.17,0.07 0.74,0.31 0.37,0.16 0.08,0.03 v 0 l 0.98,0.44 0.31,0.14 0.03,0.02 0.05,0.02 0.95,0.46 0.19,0.09 0.13,0.07 0.63,0.33 0.3,0.16 0.21,0.11 0.68,0.38 0.27,0.16 0.01,0.01 0.12,0.07 0.71,0.43 0.17,0.11 0.1,0.06 0.7,0.46 0.28,0.2 0.57,0.41 0.26,0.2 0.53,0.43 0.14,0.12 0.06,0.06 0.57,0.52 0.07,0.06 0.05,0.05 c 0.2,0.19 0.38,0.38 0.56,0.58 l 0.01,0.01 0.01,0.01 0.02,0.03 c 0.17,0.19 0.33,0.38 0.48,0.57 l 0.07,0.1 c 0.14,0.19 0.28,0.38 0.4,0.56 l 0.08,0.13 0.28,0.48 0.09,0.17 c 0.08,0.17 0.16,0.33 0.23,0.5 l 0.07,0.19 c 0.06,0.16 0.11,0.33 0.16,0.49 l 0.04,0.15 0.01,0.03 56.87,-14.36 c -7.19,-8.59 -24.91,-16.76 -49.79,-23.59 -1.21,-0.33 -2.44,-0.66 -3.68,-0.99 z m 57.02,32.55 -69.45,17.26 h -0.01 c -0.79,0.4 -1.63,0.79 -2.51,1.18 l -0.02,0.01 -1.22,0.52 -0.12,0.05 -0.04,0.02 -1.13,0.45 -0.27,0.1 -0.06,0.02 -0.33,0.13 -1.01,0.38 -0.09,0.03 -1.31,0.47 -0.25,0.09 -0.1,0.03 -0.36,0.12 -1.1,0.37 -0.06,0.02 -0.32,0.1 -1.14,0.36 -0.23,0.07 -0.15,0.05 -0.39,0.12 -0.39,0.12 -0.4,0.12 -0.4,0.12 -0.02,0.01 -0.38,0.11 -0.06,0.02 -0.76,0.22 -0.41,0.12 -0.2,0.06 -0.21,0.06 -0.42,0.12 -0.42,0.11 -0.43,0.11 -0.4,0.11 h -0.03 l -0.43,0.11 -0.43,0.11 -0.44,0.11 -0.44,0.11 -0.17,0.04 -0.27,0.07 -0.44,0.11 -0.45,0.11 -0.45,0.11 -0.38,0.09 -0.08,0.02 -0.46,0.11 -0.46,0.11 -0.46,0.11 -0.47,0.11 -0.47,0.11 -0.47,0.11 5.76,15.05 c 12.45,-2.15 23.96,-4.67 34.29,-7.51 32.96,-9.04 53.35,-20.45 53.35,-32.06 l -0.01,-0.49 z m -97.09,41.59 -5.96,-14.63 -0.62,0.11 -0.49,0.09 -1.12,0.2 -1.13,0.2 -1.15,0.19 -1.16,0.19 -1.17,0.19 h -0.01 c -1.56,0.25 -3.15,0.49 -4.77,0.72 l -1.22,0.18 -0.17,0.02 -1.07,0.15 -1.24,0.17 -1.09,0.15 -0.16,0.02 -1.26,0.16 -0.46,0.06 -0.81,0.1 -1.28,0.16 -0.61,0.07 -0.68,0.08 -1.3,0.15 h -0.03 l -1.29,0.15 -1.32,0.15 -1.33,0.14 -1.34,0.14 -1.11,0.11 -0.24,0.02 -1.36,0.14 -1.28,0.13 -0.09,0.01 -1.37,0.13 -1.38,0.13 -0.07,0.01 -1.32,0.11 -1.4,0.12 -0.23,0.02 -1.18,0.1 -1.42,0.11 -0.4,0.03 -1.02,0.08 -1.43,0.11 -1.42,0.1 -4.39,0.3 -0.92,0.06 -0.55,0.03 -1.48,0.09 -1.09,0.06 -0.39,0.02 -1.49,0.08 -1.28,0.07 -0.22,0.01 -1.51,0.07 -1.46,0.07 h -0.05 l -1.52,0.07 -1.53,0.07 h -0.13 l -2.91,0.11 h -0.03 l -0.3,0.01 -1.24,0.04 -1.55,0.05 -0.48,0.01 -2.63,0.07 -0.67,0.02 -2.47,0.06 -0.85,0.02 -0.72,0.01 -1.59,0.03 -1.04,0.02 -3.37,0.04 h -0.37 l -3.03,0.02 h -0.18 -1.61 -1.62 -1.62 -1.61 -0.18 l -3.03,-0.02 h -0.37 l -3.37,-0.04 -1.04,-0.02 -1.59,-0.03 -0.72,-0.01 -0.85,-0.02 -2.47,-0.06 -0.67,-0.02 -2.63,-0.07 -0.48,-0.01 -1.55,-0.05 -1.24,-0.04 -0.31,-0.01 H 183 l -2.91,-0.11 h -0.13 l -1.53,-0.07 -1.52,-0.07 h -0.05 l -1.46,-0.07 -1.51,-0.07 -0.22,-0.01 -1.28,-0.07 -1.49,-0.08 -0.39,-0.02 -1.09,-0.06 -1.48,-0.09 -0.55,-0.03 -0.92,-0.06 -4.39,-0.3 -1.42,-0.1 -1.43,-0.11 -1.02,-0.08 -0.4,-0.03 -1.42,-0.11 -1.18,-0.1 -0.23,-0.02 -1.4,-0.12 -1.32,-0.11 -0.07,-0.01 -1.38,-0.13 -1.37,-0.13 -0.09,-0.01 -1.28,-0.13 -1.36,-0.14 -0.24,-0.02 -1.11,-0.11 -1.34,-0.14 -1.33,-0.14 -1.32,-0.15 -1.29,-0.15 h -0.03 l -1.3,-0.15 -0.68,-0.08 -0.61,-0.07 -1.28,-0.16 -0.81,-0.1 -0.46,-0.06 -1.26,-0.16 -0.16,-0.02 -1.09,-0.15 -1.24,-0.17 -1.07,-0.15 -0.17,-0.02 -1.22,-0.18 c -1.62,-0.24 -3.21,-0.47 -4.77,-0.72 h -0.01 l -1.17,-0.19 -1.16,-0.19 -1.15,-0.19 -1.13,-0.2 -1.12,-0.2 -0.49,-0.09 -0.62,-0.11 -5.96,14.63 c 28.28,4.29 60.89,6.74 95.66,6.74 34.77,0 67.38,-2.45 95.66,-6.74 z m -200.78,-1.53 5.76,-15.05 -0.47,-0.11 -0.47,-0.11 -0.47,-0.11 -0.46,-0.11 -0.46,-0.11 -0.46,-0.11 -0.08,-0.02 -0.38,-0.09 -0.45,-0.11 -0.45,-0.11 -0.44,-0.11 -0.27,-0.07 -0.17,-0.04 -0.44,-0.11 -0.44,-0.11 -0.43,-0.11 -0.43,-0.11 h -0.03 l -0.4,-0.11 -0.43,-0.11 -0.42,-0.11 -0.42,-0.12 -0.21,-0.06 -0.2,-0.06 -0.41,-0.12 -0.76,-0.22 -0.06,-0.02 -0.38,-0.11 -0.02,-0.01 -0.4,-0.12 -0.4,-0.12 -0.39,-0.12 -0.39,-0.12 -0.15,-0.05 -0.23,-0.07 -1.14,-0.36 -0.32,-0.1 -0.06,-0.02 -1.1,-0.37 -0.36,-0.12 -0.1,-0.03 -0.25,-0.09 -1.31,-0.47 -0.09,-0.03 -1.01,-0.38 -0.33,-0.13 -0.06,-0.02 -0.27,-0.1 -1.12,-0.45 -0.04,-0.02 -0.12,-0.05 -1.22,-0.52 -0.02,-0.01 c -0.89,-0.39 -1.73,-0.78 -2.51,-1.18 H 83.46 L 14.01,120.96 14,121.45 c 0,11.61 20.39,23.01 53.35,32.06 10.33,2.84 21.83,5.36 34.29,7.51 z m -84.08,-48.03 56.87,14.36 0.01,-0.03 0.04,-0.15 c 0.04,-0.17 0.1,-0.33 0.16,-0.49 l 0.07,-0.19 c 0.07,-0.17 0.14,-0.33 0.23,-0.5 L 75,125.82 c 0.08,-0.16 0.18,-0.32 0.28,-0.48 l 0.08,-0.13 c 0.12,-0.19 0.26,-0.38 0.4,-0.56 l 0.07,-0.1 c 0.15,-0.19 0.31,-0.38 0.48,-0.57 l 0.02,-0.03 0.01,-0.01 0.01,-0.01 c 0.18,-0.2 0.36,-0.38 0.56,-0.58 l 0.05,-0.05 0.07,-0.06 c 0.18,-0.17 0.37,-0.35 0.57,-0.52 l 0.06,-0.06 0.14,-0.12 0.53,-0.43 0.26,-0.2 0.57,-0.41 0.28,-0.2 0.7,-0.46 0.1,-0.06 0.17,-0.11 0.71,-0.43 0.12,-0.07 0.01,-0.01 0.27,-0.16 0.68,-0.38 0.21,-0.11 0.3,-0.16 0.63,-0.33 0.13,-0.07 0.19,-0.09 0.95,-0.46 0.05,-0.02 0.03,-0.02 0.31,-0.14 0.98,-0.44 v 0 l 0.08,-0.03 0.37,-0.16 0.74,-0.31 0.17,-0.07 0.2,-0.08 0.38,-0.15 0.69,-0.27 0.09,-0.04 0.06,-0.02 0.34,-0.13 -18.08,-28.1 c -1.24,0.32 -2.47,0.65 -3.68,0.99 -24.88,6.83 -42.6,15 -49.79,23.59 z m 64.2,-27.17 16.79,27.63 0.17,-0.05 0.57,-0.16 0.74,-0.2 0.57,-0.15 0.18,-0.05 1.53,-0.39 0.24,-0.06 0.54,-0.14 0.78,-0.19 0.67,-0.16 0.13,-0.03 1.62,-0.38 0.31,-0.07 0.51,-0.11 0.83,-0.19 1.62,-0.35 0.07,-0.01 0.86,-0.18 0.86,-0.18 0.87,-0.18 0.88,-0.18 v 0 l 0.89,-0.17 0.9,-0.17 0.48,-0.09 0.42,-0.08 0.92,-0.17 0.92,-0.17 0.93,-0.17 0.94,-0.17 0.57,-0.1 0.37,-0.06 0.95,-0.16 0.96,-0.16 0.89,-0.15 0.08,-0.01 0.98,-0.15 0.98,-0.16 0.99,-0.15 2.01,-0.3 1.02,-0.15 0.78,-0.11 0.24,-0.03 1.03,-0.14 1.04,-0.14 1.04,-0.14 1.05,-0.14 0.88,-0.11 0.17,-0.02 1.06,-0.13 1.07,-0.13 1.08,-0.13 1.09,-0.13 0.05,-0.01 2.14,-0.24 1.1,-0.12 1.11,-0.12 1.12,-0.12 1.11,-0.12 h 0.02 l 1.13,-0.11 1.14,-0.11 1.14,-0.11 1.15,-0.11 2.31,-0.21 1.16,-0.1 1.17,-0.1 1.18,-0.1 2.37,-0.19 1.19,-0.09 1.2,-0.09 -6.91,-28.39 c -27.12,2.02 -51.87,5.58 -72.92,10.31 z"
     class="fil0" /></g><g
   transform="matrix(0.05788498,0,0,0.05415737,19.595425,30.633318)"
   id="Слой_x0020_1-3"
   style="clip-rule:evenodd;fill-rule:evenodd;image-rendering:optimizeQuality;shape-rendering:geometricPrecision;text-rendering:geometricPrecision"><metadata
     id="CorelCorpID_0Corel-Layer-4" /><path
     id="path302-5"
     d="m 175.82043,105.92301 c 37.25,0.19 72.11,3.17 101.94,8.21 V 62.773009 l 68.24,30.51 -61.25,12.370001 v 9.72 c 10.94,2.02 21.13,4.33 30.43,6.88 39.33,10.79 63.66,26.81 63.66,45.48 0,6.15 -2.64,12 -7.58,17.48 v 42.26 53.77 14.95 c -30.5,29.99 -99.61,51.64 -181.69,54.33 l -0.27,0.01 -0.27,0.01 h -0.02 l -0.52,0.02 -0.27,0.01 -0.27,0.01 -0.27,0.01 -0.27,0.01 -0.27,0.01 -1.08,0.03 -0.27,0.01 -0.27,0.01 -0.27,0.01 -0.27,0.01 -0.27,0.01 h -0.06 -0.21 l -0.27,0.01 -0.27,0.01 h -0.27 l -1.36,0.03 h -0.27 l -0.82,0.02 h -0.27 -0.27 -0.13 -0.14 -0.27 -0.27 l -2.74,0.03 h -0.27 -0.27 -0.2 -0.07 -0.27 -0.27 l -3.02,0.01 h -0.28 -0.27 -0.27 -0.28 l -3.02,-0.01 h -0.27 -0.27 -0.07 -0.2 -0.27 -0.27 l -2.73,-0.03 h -0.27 -0.27 -0.14 -0.13 -0.27 -0.27 l -0.82,-0.02 h -0.27 l -1.36,-0.03 h -0.27 l -0.27,-0.01 -0.27,-0.01 h -0.21 -0.06 l -0.27,-0.01 -0.27,-0.01 -0.27,-0.01 -0.27,-0.01 -0.27,-0.01 -1.08,-0.03 -0.27,-0.01 -0.27,-0.01 -0.27,-0.01 -0.27,-0.01 -0.27,-0.01 -0.53,-0.02 h -0.01 l -0.27,-0.01 -0.27,-0.01 c -82.089999,-2.71 -151.2199988,-24.35 -181.699999,-54.33 v -14.95 -53.78 -42.26 c -4.94,-5.48 -7.58,-11.34 -7.58,-17.48 0,-18.66 24.33,-34.68 63.66,-45.48 6.17,-1.69 12.74,-3.28 19.65,-4.74 V 62.773009 l 68.239999,30.51 -61.249999,12.370001 v 10.44 c 32.18,-6.24 71.159999,-9.98 113.169999,-10.16 V 46.273009 l 68.24,30.51 -61.25,12.37 v 16.790001 z m 13.75,237.46 v -74.12 h -34.92 v 74.12 c -11.68,-0.38 -23.11,-1.16 -34.19,-2.28 v -0.2 -76.62 c 0,-7.18 2.91,-13.71 7.59,-18.43 l 0.02,-0.02 c 4.68,-4.72 11.16,-7.65 18.29,-7.65 h 51.5 c 7.13,0 13.61,2.93 18.29,7.65 l 0.02,0.02 c 4.68,4.72 7.59,11.24 7.59,18.43 v 76.62 0.2 c -11.08,1.12 -22.51,1.89 -34.19,2.28 z m -154.449999,-19.93 v -77.3 c 0,-7.65 -3.09,-14.91 -8.05,-20.44 -4.97,-5.53 -11.81,-9.33 -19.3099998,-10.05 -0.76,-0.07 -1.61,-0.11 -2.54,-0.11 -6.33,0 -12.03,2.32 -16.2700002,6.23 -4.25,3.91 -7.09,9.43 -7.69,15.81 -0.07,0.75 -0.1,1.62 -0.1,2.6 v 56 c 13.4700002,10.51 31.88,19.77 53.97,27.26 z m 261.389999,3.95 v -71.15 c 0,-1 -0.04,-1.88 -0.1,-2.62 -0.61,-6.73 -3.59,-12.56 -8.06,-16.69 -4.46,-4.12 -10.47,-6.57 -17.15,-6.57 -0.96,0 -1.82,0.04 -2.56,0.1 h -0.04 c -7.81,0.73 -14.95,4.67 -20.15,10.43 -5.2,5.76 -8.42,13.33 -8.42,21.31 v 76.96 c 20.34,-2.78 39.34,-6.77 56.49,-11.77 z m 66.55,-31.21 v -56 c 0,-0.98 -0.03,-1.85 -0.1,-2.6 -0.6,-6.38 -3.44,-11.9 -7.69,-15.81 -4.24,-3.91 -9.94,-6.23 -16.27,-6.23 -0.93,0 -1.78,0.04 -2.54,0.11 -7.5,0.72 -14.34,4.52 -19.31,10.05 -4.97,5.53 -8.06,12.79 -8.06,20.44 v 77.3 c 22.09,-7.49 40.51,-16.75 53.97,-27.26 z m -258.88,42.98 v -76.96 c 0,-7.98 -3.23,-15.55 -8.419999,-21.31 -5.2,-5.76 -12.34,-9.7 -20.15,-10.43 h -0.04 c -0.74,-0.07 -1.6,-0.1 -2.56,-0.1 -6.69,0 -12.69,2.45 -17.15,6.57 -4.48,4.13 -7.45,9.96 -8.06,16.69 -0.06,0.74 -0.1,1.61 -0.1,2.62 v 71.15 c 17.15,5 36.15,8.99 56.489999,11.77 z m 67.92,-190.58 3.25,0.01 h 0.17 0.37 0.54 l 2.15,0.02 h 0.34 0.19 0.54 l 0.54,0.01 0.54,0.01 0.53,0.01 0.53,0.01 0.51,0.01 h 0.03 l 0.53,0.01 2.11,0.04 h 0.01 l 0.53,0.01 h 0.14 l 0.38,0.01 0.53,0.01 0.53,0.01 0.53,0.01 0.52,0.01 0.53,0.01 0.31,0.01 h 0.22 l 0.52,0.01 0.52,0.01 1.05,0.03 0.52,0.01 0.47,0.01 h 0.05 l 0.52,0.02 0.52,0.02 0.52,0.02 0.52,0.02 0.52,0.02 0.52,0.02 h 0.12 l 0.4,0.01 0.51,0.02 0.51,0.02 0.51,0.02 0.51,0.02 0.51,0.02 0.28,0.01 0.23,0.01 0.51,0.02 0.51,0.02 0.51,0.02 0.51,0.02 0.51,0.02 0.44,0.02 h 0.07 l 0.51,0.02 2.02,0.1 0.5,0.03 h 0.09 l 0.41,0.02 6.32,-28.48 c -12.86,-0.72 -26.18,-1.09 -39.84,-1.09 -13.66,0 -26.98,0.37 -39.84,1.09 l 6.32,28.48 0.41,-0.02 h 0.09 l 0.5,-0.03 2.02,-0.1 0.51,-0.02 h 0.07 l 0.44,-0.02 0.51,-0.02 0.51,-0.02 0.51,-0.02 0.51,-0.02 0.51,-0.02 0.23,-0.01 0.28,-0.01 0.51,-0.02 0.51,-0.02 0.51,-0.02 0.51,-0.02 0.51,-0.02 0.4,-0.01 h 0.12 l 0.52,-0.02 0.52,-0.02 0.52,-0.02 0.52,-0.02 0.52,-0.02 0.52,-0.02 h 0.05 l 0.47,-0.01 0.52,-0.01 1.05,-0.03 0.52,-0.01 0.52,-0.01 h 0.22 l 0.31,-0.01 0.53,-0.01 0.52,-0.01 0.53,-0.01 0.53,-0.01 0.53,-0.01 0.38,-0.01 h 0.14 l 0.53,-0.01 h 0.01 l 2.11,-0.04 0.53,-0.01 h 0.03 l 0.51,-0.01 0.53,-0.01 0.53,-0.01 0.54,-0.01 0.54,-0.01 h 0.54 0.19 0.34 l 2.15,-0.02 h 0.54 0.37 0.17 z m 52.08,-26.83 -6.91,28.39 1.2,0.09 1.19,0.09 2.37,0.19 1.18,0.1 1.17,0.1 1.16,0.1 2.31,0.21 1.15,0.11 1.14,0.11 1.14,0.11 1.13,0.11 h 0.02 l 1.11,0.12 1.12,0.12 1.11,0.12 1.1,0.12 2.14,0.24 0.05,0.01 1.09,0.13 1.08,0.13 1.07,0.13 1.06,0.13 0.17,0.02 0.88,0.11 1.05,0.14 1.04,0.14 1.04,0.14 1.03,0.14 0.24,0.03 0.78,0.11 1.02,0.15 2.01,0.3 0.99,0.15 0.98,0.16 0.98,0.15 0.08,0.01 0.89,0.15 0.96,0.16 0.95,0.16 0.37,0.06 0.57,0.1 0.94,0.17 0.93,0.17 0.92,0.17 0.92,0.17 0.42,0.08 0.48,0.09 0.9,0.17 0.89,0.17 v 0 l 0.88,0.18 0.87,0.18 0.86,0.18 0.86,0.18 0.07,0.01 1.62,0.35 0.83,0.19 0.51,0.11 0.31,0.07 1.62,0.38 0.13,0.03 0.67,0.16 0.78,0.19 0.54,0.14 0.23,0.06 1.53,0.39 0.18,0.05 0.57,0.15 0.74,0.2 0.57,0.16 0.17,0.05 16.79,-27.63 c -21.05,-4.73 -45.8,-8.29 -72.92,-10.31 z m 83.66,12.9 -18.08,28.1 0.34,0.13 0.06,0.02 0.09,0.04 0.69,0.27 0.38,0.15 0.2,0.08 0.17,0.07 0.74,0.31 0.37,0.16 0.08,0.03 v 0 l 0.98,0.44 0.31,0.14 0.03,0.02 0.05,0.02 0.95,0.46 0.19,0.09 0.13,0.07 0.63,0.33 0.3,0.16 0.21,0.11 0.68,0.38 0.27,0.16 0.01,0.01 0.12,0.07 0.71,0.43 0.17,0.11 0.1,0.06 0.7,0.46 0.28,0.2 0.57,0.41 0.26,0.2 0.53,0.43 0.14,0.12 0.06,0.06 0.57,0.52 0.07,0.06 0.05,0.05 c 0.2,0.19 0.38,0.38 0.56,0.58 l 0.01,0.01 0.01,0.01 0.02,0.03 c 0.17,0.19 0.33,0.38 0.48,0.57 l 0.07,0.1 c 0.14,0.19 0.28,0.38 0.4,0.56 l 0.08,0.13 0.28,0.48 0.09,0.17 c 0.08,0.17 0.16,0.33 0.23,0.5 l 0.07,0.19 c 0.06,0.16 0.11,0.33 0.16,0.49 l 0.04,0.15 0.01,0.03 56.87,-14.36 c -7.19,-8.59 -24.91,-16.76 -49.79,-23.59 -1.21,-0.33 -2.44,-0.66 -3.68,-0.99 z m 57.02,32.55 -69.45,17.26 h -0.01 c -0.79,0.4 -1.63,0.79 -2.51,1.18 l -0.02,0.01 -1.22,0.52 -0.12,0.05 -0.04,0.02 -1.13,0.45 -0.27,0.1 -0.06,0.02 -0.33,0.13 -1.01,0.38 -0.09,0.03 -1.31,0.47 -0.25,0.09 -0.1,0.03 -0.36,0.12 -1.1,0.37 -0.06,0.02 -0.32,0.1 -1.14,0.36 -0.23,0.07 -0.15,0.05 -0.39,0.12 -0.39,0.12 -0.4,0.12 -0.4,0.12 -0.02,0.01 -0.38,0.11 -0.06,0.02 -0.76,0.22 -0.41,0.12 -0.2,0.06 -0.21,0.06 -0.42,0.12 -0.42,0.11 -0.43,0.11 -0.4,0.11 h -0.03 l -0.43,0.11 -0.43,0.11 -0.44,0.11 -0.44,0.11 -0.17,0.04 -0.27,0.07 -0.44,0.11 -0.45,0.11 -0.45,0.11 -0.38,0.09 -0.08,0.02 -0.46,0.11 -0.46,0.11 -0.46,0.11 -0.47,0.11 -0.47,0.11 -0.47,0.11 5.76,15.05 c 12.45,-2.15 23.96,-4.67 34.29,-7.51 32.96,-9.04 53.35,-20.45 53.35,-32.06 l -0.01,-0.49 z m -97.09,41.59 -5.96,-14.63 -0.62,0.11 -0.49,0.09 -1.12,0.2 -1.13,0.2 -1.15,0.19 -1.16,0.19 -1.17,0.19 h -0.01 c -1.56,0.25 -3.15,0.49 -4.77,0.72 l -1.22,0.18 -0.17,0.02 -1.07,0.15 -1.24,0.17 -1.09,0.15 -0.16,0.02 -1.26,0.16 -0.46,0.06 -0.81,0.1 -1.28,0.16 -0.61,0.07 -0.68,0.08 -1.3,0.15 h -0.03 l -1.29,0.15 -1.32,0.15 -1.33,0.14 -1.34,0.14 -1.11,0.11 -0.24,0.02 -1.36,0.14 -1.28,0.13 -0.09,0.01 -1.37,0.13 -1.38,0.13 -0.07,0.01 -1.32,0.11 -1.4,0.12 -0.23,0.02 -1.18,0.1 -1.42,0.11 -0.4,0.03 -1.02,0.08 -1.43,0.11 -1.42,0.1 -4.39,0.3 -0.92,0.06 -0.55,0.03 -1.48,0.09 -1.09,0.06 -0.39,0.02 -1.49,0.08 -1.28,0.07 -0.22,0.01 -1.51,0.07 -1.46,0.07 h -0.05 l -1.52,0.07 -1.53,0.07 h -0.13 l -2.91,0.11 h -0.03 l -0.3,0.01 -1.24,0.04 -1.55,0.05 -0.48,0.01 -2.63,0.07 -0.67,0.02 -2.47,0.06 -0.85,0.02 -0.72,0.01 -1.59,0.03 -1.04,0.02 -3.37,0.04 h -0.37 l -3.03,0.02 h -0.18 -1.61 -1.62 -1.62 -1.61 -0.18 l -3.03,-0.02 h -0.37 l -3.37,-0.04 -1.04,-0.02 -1.59,-0.03 -0.72,-0.01 -0.85,-0.02 -2.47,-0.06 -0.67,-0.02 -2.63,-0.07 -0.48,-0.01 -1.55,-0.05 -1.24,-0.04 -0.31,-0.01 h -0.03 l -2.91,-0.11 h -0.13 l -1.53,-0.07 -1.52,-0.07 h -0.05 l -1.46,-0.07 -1.51,-0.07 -0.22,-0.01 -1.28,-0.07 -1.49,-0.08 -0.39,-0.02 -1.09,-0.06 -1.48,-0.09 -0.55,-0.03 -0.92,-0.06 -4.39,-0.3 -1.42,-0.1 -1.43,-0.11 -1.02,-0.08 -0.4,-0.03 -1.42,-0.11 -1.18,-0.1 -0.23,-0.02 -1.4,-0.12 -1.32,-0.11 -0.07,-0.01 -1.38,-0.13 -1.37,-0.13 -0.09,-0.01 -1.28,-0.13 -1.36,-0.14 -0.24,-0.02 -1.11,-0.11 -1.34,-0.14 -1.33,-0.14 -1.32,-0.15 -1.29,-0.15 h -0.03 l -1.3,-0.15 -0.68,-0.08 -0.61,-0.07 -1.28,-0.16 -0.81,-0.1 -0.46,-0.06 -1.259999,-0.16 -0.16,-0.02 -1.09,-0.15 -1.24,-0.17 -1.07,-0.15 -0.17,-0.02 -1.22,-0.18 c -1.62,-0.24 -3.21,-0.47 -4.77,-0.72 h -0.01 l -1.17,-0.19 -1.16,-0.19 -1.15,-0.19 -1.13,-0.2 -1.12,-0.2 -0.49,-0.09 -0.62,-0.11 -5.96,14.63 c 28.279999,4.29 60.889999,6.74 95.659999,6.74 34.77,0 67.38,-2.45 95.66,-6.74 z m -200.779999,-1.53 5.76,-15.05 -0.47,-0.11 -0.47,-0.11 -0.47,-0.11 -0.46,-0.11 -0.46,-0.11 -0.46,-0.11 -0.08,-0.02 -0.38,-0.09 -0.45,-0.11 -0.45,-0.11 -0.44,-0.11 -0.27,-0.07 -0.17,-0.04 -0.44,-0.11 -0.44,-0.11 -0.43,-0.11 -0.43,-0.11 h -0.03 l -0.4,-0.11 -0.43,-0.11 -0.42,-0.11 -0.42,-0.12 -0.21,-0.06 -0.2,-0.06 -0.41,-0.12 -0.76,-0.22 -0.06,-0.02 -0.38,-0.11 -0.02,-0.01 -0.4,-0.12 -0.4,-0.12 -0.39,-0.12 -0.39,-0.12 -0.15,-0.05 -0.23,-0.07 -1.14,-0.36 -0.32,-0.1 -0.06,-0.02 -1.1,-0.37 -0.36,-0.12 -0.1,-0.03 -0.25,-0.09 -1.31,-0.47 -0.09,-0.03 -1.01,-0.38 -0.33,-0.13 -0.06,-0.02 -0.27,-0.1 -1.12,-0.45 -0.04,-0.02 -0.12,-0.05 -1.22,-0.52 -0.02,-0.01 c -0.89,-0.39 -1.73,-0.78 -2.51,-1.18 h -0.01 l -69.45,-17.26 -0.01,0.49 c 0,11.61 20.39000023,23.01 53.35,32.06 10.33,2.84 21.83,5.36 34.29,7.51 z m -84.08,-48.03 56.87,14.36 0.01,-0.03 0.04,-0.15 c 0.04,-0.17 0.1,-0.33 0.16,-0.49 l 0.07,-0.19 c 0.07,-0.17 0.14,-0.33 0.23,-0.5 l 0.09,-0.17 c 0.08,-0.16 0.18,-0.32 0.28,-0.48 l 0.08,-0.13 c 0.12,-0.19 0.26,-0.38 0.4,-0.56 l 0.07,-0.1 c 0.15,-0.19 0.31,-0.38 0.48,-0.57 l 0.02,-0.03 0.01,-0.01 0.01,-0.01 c 0.18,-0.2 0.36,-0.38 0.56,-0.58 l 0.05,-0.05 0.07,-0.06 c 0.18,-0.17 0.37,-0.35 0.57,-0.52 l 0.06,-0.06 0.14,-0.12 0.53,-0.43 0.26,-0.2 0.57,-0.41 0.28,-0.2 0.7,-0.46 0.1,-0.06 0.17,-0.11 0.71,-0.43 0.12,-0.07 0.01,-0.01 0.27,-0.16 0.68,-0.38 0.21,-0.11 0.3,-0.16 0.63,-0.33 0.13,-0.07 0.19,-0.09 0.95,-0.46 0.05,-0.02 0.03,-0.02 0.31,-0.14 0.98,-0.44 v 0 l 0.08,-0.03 0.37,-0.16 0.74,-0.31 0.17,-0.07 0.2,-0.08 0.38,-0.15 0.69,-0.27 0.09,-0.04 0.06,-0.02 0.34,-0.13 -18.08,-28.1 c -1.24,0.32 -2.47,0.65 -3.68,0.99 -24.8799998,6.83 -42.5999998,15 -49.79,23.59 z m 64.2,-27.17 16.79,27.63 0.17,-0.05 0.57,-0.16 0.74,-0.2 0.57,-0.15 0.18,-0.05 1.53,-0.39 0.24,-0.06 0.54,-0.14 0.78,-0.19 0.67,-0.16 0.13,-0.03 1.62,-0.38 0.31,-0.07 0.51,-0.11 0.83,-0.19 1.62,-0.35 0.07,-0.01 0.86,-0.18 0.86,-0.18 0.87,-0.18 0.88,-0.18 v 0 l 0.89,-0.17 0.9,-0.17 0.48,-0.09 0.42,-0.08 0.92,-0.17 0.92,-0.17 0.93,-0.17 0.94,-0.17 0.57,-0.1 0.37,-0.06 0.95,-0.16 0.96,-0.16 0.89,-0.15 0.08,-0.01 0.98,-0.15 0.98,-0.16 0.99,-0.15 2.01,-0.3 1.02,-0.15 0.78,-0.11 0.24,-0.03 1.03,-0.14 1.04,-0.14 1.04,-0.14 1.05,-0.14 0.879999,-0.11 0.17,-0.02 1.06,-0.13 1.07,-0.13 1.08,-0.13 1.09,-0.13 0.05,-0.01 2.14,-0.24 1.1,-0.12 1.11,-0.12 1.12,-0.12 1.11,-0.12 h 0.02 l 1.13,-0.11 1.14,-0.11 1.14,-0.11 1.15,-0.11 2.31,-0.21 1.16,-0.1 1.17,-0.1 1.18,-0.1 2.37,-0.19 1.19,-0.09 1.2,-0.09 -6.91,-28.39 c -27.119999,2.02 -51.869999,5.58 -72.919999,10.31 z"
     class="fil0" /></g></svg>
