<?xml version="1.0" encoding="UTF-8" standalone="no"?>
<svg
   xmlns:dc="http://purl.org/dc/elements/1.1/"
   xmlns:cc="http://creativecommons.org/ns#"
   xmlns:rdf="http://www.w3.org/1999/02/22-rdf-syntax-ns#"
   xmlns:svg="http://www.w3.org/2000/svg"
   xmlns="http://www.w3.org/2000/svg"
   xmlns:sodipodi="http://sodipodi.sourceforge.net/DTD/sodipodi-0.dtd"
   xmlns:inkscape="http://www.inkscape.org/namespaces/inkscape"
   xml:space="preserve"
   width="19.733782mm"
   height="34.638226mm"
   version="1.1"
   style="clip-rule:evenodd;fill-rule:evenodd;image-rendering:optimizeQuality;shape-rendering:geometricPrecision;text-rendering:geometricPrecision"
   viewBox="0 0 24.887544 43.690659"
   id="svg810"
   sodipodi:docname="мобильная.svg"
   inkscape:version="1.0 (4035a4fb49, 2020-05-01)"><metadata
   id="metadata814"><rdf:RDF><cc:Work
       rdf:about=""><dc:format>image/svg+xml</dc:format><dc:type
         rdf:resource="http://purl.org/dc/dcmitype/StillImage" /><dc:title></dc:title></cc:Work></rdf:RDF></metadata><sodipodi:namedview
   inkscape:document-rotation="0"
   pagecolor="#ffffff"
   bordercolor="#666666"
   borderopacity="1"
   objecttolerance="10"
   gridtolerance="10"
   guidetolerance="10"
   inkscape:pageopacity="0"
   inkscape:pageshadow="2"
   inkscape:window-width="1920"
   inkscape:window-height="1018"
   id="namedview812"
   showgrid="false"
   inkscape:zoom="3.2030773"
   inkscape:cx="14.104613"
   inkscape:cy="39.737714"
   inkscape:window-x="-6"
   inkscape:window-y="-6"
   inkscape:window-maximized="1"
   inkscape:current-layer="svg810" />
 <defs
   id="defs804">
  <style
   type="text/css"
   id="style802">
   <![CDATA[
    .fil0 {fill:#2B2A29}
   ]]>
  </style>
 </defs>
 
<path
   id="path8"
   d="m 2.3125601,43.568551 c -0.585929,-0.17904 -0.976936,-0.417578 -1.41152902,-0.861111 -0.420078,-0.428723 -0.614619,-0.75595 -0.791605,-1.331518 l -0.111214,-0.361678 V 21.845329 2.6764145 l 0.111214,-0.3616776 c 0.176986,-0.5755714 0.371527,-0.902798 0.791605,-1.3315176 C 1.3420351,0.5331428 1.7312791,0.2983894 2.3341341,0.1189134 L 2.7335611,0 h 9.7101779 9.710177 l 0.399427,0.1189134 c 0.602855,0.179476 0.992099,0.4142294 1.433103,0.8643059 0.420078,0.4287196 0.614619,0.7559462 0.791605,1.3315176 l 0.111214,0.3616776 V 21.845329 41.014244 l -0.111214,0.361678 c -0.176986,0.575568 -0.371527,0.902795 -0.791605,1.331518 -0.441004,0.450077 -0.830248,0.684829 -1.433103,0.864304 l -0.399427,0.118914 -9.731751,-0.0033 -9.7317519,-0.0033 -0.377853,-0.115462 z m 10.8396529,-3.16086 c 1.358461,-0.498015 1.748959,-2.250855 0.732624,-3.288537 -0.799278,-0.816066 -2.082919,-0.816066 -2.882197,0 -0.750551,0.766318 -0.773528,1.962902 -0.05292,2.755805 0.173156,0.190527 0.550339,0.446933 0.785541,0.53401 0.373013,0.138093 1.03842,0.137491 1.416948,-0.0013 z M 22.492341,19.494425 22.504231,5.4010527 H 12.443818 2.3834081 V 19.474331 c 0,7.740304 0.01422,14.087797 0.0316,14.105539 0.01738,0.01774 4.539213,0.02679 10.0485229,0.02009 L 22.480457,33.58779 Z M 17.114634,3.4111149 c 0.205049,-0.10805 0.295524,-0.3538572 0.279298,-0.7588122 -0.01718,-0.4287611 -0.133128,-0.6439 -0.37348,-0.6929801 -0.08181,-0.016707 -2.141334,-0.030375 -4.576713,-0.030375 -2.43538,0 -4.4948999,0.013669 -4.5767139,0.030375 -0.258037,0.052692 -0.358989,0.2611254 -0.358989,0.7412038 0,0.4403806 0.07765,0.6414136 0.280068,0.7250575 0.05378,0.022224 2.148817,0.041464 4.6556349,0.042754 3.5285,0.00182 4.583379,-0.011107 4.670895,-0.057223 z"
   style="fill:#000000;stroke-width:0.0477251" /></svg>
