<?xml version="1.0" encoding="UTF-8" standalone="no"?>
<svg
   xmlns:dc="http://purl.org/dc/elements/1.1/"
   xmlns:cc="http://creativecommons.org/ns#"
   xmlns:rdf="http://www.w3.org/1999/02/22-rdf-syntax-ns#"
   xmlns:svg="http://www.w3.org/2000/svg"
   xmlns="http://www.w3.org/2000/svg"
   xmlns:sodipodi="http://sodipodi.sourceforge.net/DTD/sodipodi-0.dtd"
   xmlns:inkscape="http://www.inkscape.org/namespaces/inkscape"
   inkscape:version="1.0 (4035a4fb49, 2020-05-01)"
   sodipodi:docname="аукцион.svg"
   viewBox="0 0 591.63739 587.72089"
   height="587.72089"
   width="591.63739"
   id="svg566"
   version="1.1">
  <metadata
     id="metadata572">
    <rdf:RDF>
      <cc:Work
         rdf:about="">
        <dc:format>image/svg+xml</dc:format>
        <dc:type
           rdf:resource="http://purl.org/dc/dcmitype/StillImage" />
        <dc:title></dc:title>
      </cc:Work>
    </rdf:RDF>
  </metadata>
  <defs
     id="defs570" />
  <sodipodi:namedview
     inkscape:current-layer="g574"
     inkscape:window-maximized="1"
     inkscape:window-y="-6"
     inkscape:window-x="-6"
     inkscape:cy="301.53756"
     inkscape:cx="266.2523"
     inkscape:zoom="0.7"
     showgrid="false"
     id="namedview568"
     inkscape:window-height="1018"
     inkscape:window-width="1920"
     inkscape:pageshadow="2"
     inkscape:pageopacity="0"
     guidetolerance="10"
     gridtolerance="10"
     objecttolerance="10"
     borderopacity="1"
     bordercolor="#666666"
     pagecolor="#ffffff"
     inkscape:document-rotation="0" />
  <g
     transform="translate(2.7102022,-27.621012)"
     id="g574"
     inkscape:label="Image"
     inkscape:groupmode="layer">
    <path
       id="path8"
       d="m 18.371691,614.70943 c -7.67336,-1.53986 -15.0280296,-7.61856 -18.65194957,-15.416 l -2.17848003,-4.68732 -0.20377,-17.37216 c -0.13916,-11.86384 0.0243,-18.45416 0.5155,-20.78456 1.52195003,-7.22041 6.99826,-14.7334 13.3141096,-18.26573 6.46582,-3.61621 -2.8560796,-3.42697 169.388179,-3.4387 105.16502,-0.007 159.34924,0.20168 161.50866,0.62251 4.73836,0.92339 10.33497,3.83145 13.81954,7.18075 3.80895,3.6611 7.08575,10.23629 7.86595,15.78375 0.73029,5.19255 0.73029,28.26837 0,33.46091 -1.58195,11.2481 -10.11951,20.54891 -21.0264,22.90625 -3.93359,0.85018 -320.116179,0.86023 -324.351339,0.0105 z M 533.25086,548.6071 c -0.16441,-0.29346 -0.90494,-2.90673 -1.6456,-5.80726 l -1.34667,-5.2737 -3.57237,-2.12669 c -4.2374,-2.52262 -15.19656,-10.89682 -21.26819,-16.25161 -21.61338,-19.06163 -56.88182,-55.93255 -90.43185,-94.54077 -18.35676,-21.12433 -27.4089,-35.57657 -28.7819,-45.95192 -0.87989,-6.64906 -0.9307,-6.5678 13.24544,-21.18413 7.0888,-7.30892 13.39997,-13.57991 14.02483,-13.93555 2.96923,-1.68994 11.72935,0.0154 18.77562,3.65504 8.66445,4.4755 15.15855,9.49941 35.93797,27.80206 46.04019,40.55249 81.95873,76.29921 99.16255,98.68812 3.22081,4.19154 9.19111,13.20432 9.61883,14.52065 0.11055,0.34019 2.62179,1.30287 5.5805,2.13929 2.95871,0.83641 5.60363,1.88388 5.87762,2.32771 0.84167,1.36357 0.57033,11.44958 -0.44378,16.4947 -2.03751,10.13612 -5.05382,15.3689 -14.37456,24.93719 -10.74977,11.03534 -17.7305,14.27133 -31.83421,14.75713 -4.52394,0.15582 -8.35982,0.0432 -8.52423,-0.25026 z M 58.664661,518.55245 c -5.0223,-1.22512 -10.32292,-5.53302 -12.75528,-10.36643 -1.7385,-3.45461 -2.32687,-10.45844 -2.07799,-24.73604 l 0.23976,-13.75459 2.09383,-4.21799 c 1.51065,-3.04315 2.9347,-4.87619 5.11275,-6.58111 5.78893,-4.53144 -3.0866,-4.22932 118.970459,-4.04965 l 109.86233,0.16172 2.97236,1.50326 c 3.5855,1.81335 7.05261,5.25561 8.92726,8.86328 1.33389,2.56701 1.39022,3.2933 1.56925,20.23248 0.15839,14.98643 0.0399,18.02082 -0.80557,20.6366 -1.33264,4.12288 -5.9876,9.28847 -10.08509,11.19138 l -3.18199,1.47775 -109.28426,0.097 c -62.48272,0.0555 -110.257929,-0.14054 -111.557819,-0.45763 z M 189.84534,398.51468 c -2.15851,-0.47638 -6.23403,-2.02021 -9.0567,-3.43072 l -5.13214,-2.56458 -47.75338,-49.10177 C 81.806071,296.01893 80.073961,294.15444 77.964741,289.66258 c -5.72736,-12.19719 -5.27028,-26.10553 1.21832,-37.07185 2.69571,-4.556 16.07292,-18.68742 20.3971,-21.5471 11.530829,-7.6256 25.584609,-8.26076 38.038169,-1.71915 3.87858,2.03734 8.15639,6.25893 51.97121,51.2881 52.16023,53.60587 50.07338,51.17715 52.82317,61.47669 1.08717,4.07209 1.26521,6.04622 1.0332,11.45625 -0.53001,12.35839 -4.10155,19.22415 -16.39546,31.5179 -6.24145,6.24137 -8.25596,7.85291 -12.51079,10.00818 -8.26992,4.1891 -16.26385,5.30367 -24.69432,3.44308 z m 148.37575,-73.95604 -40.9061,-42.03781 13.89022,-14.26323 13.89022,-14.26323 41.05387,42.18283 41.05386,42.18282 -13.72951,14.11822 c -7.55123,7.76501 -13.86832,14.11821 -14.03798,14.11821 -0.16967,0 -18.71622,-18.91701 -41.21458,-42.03781 z m -136.70562,-53.04341 -48.40392,-49.79022 9.64824,-6.44977 c 30.98381,-20.71244 56.90066,-45.56334 78.68665,-75.45031 5.34423,-7.33146 13.66425,-20.04523 16.43412,-25.11291 0.93579,-1.71208 1.83791,-3.11315 2.00471,-3.1135 0.16681,-3.4e-4 22.27313,22.57648 49.12514,50.17073 l 48.82185,50.17135 -5.04917,3.13521 c -19.32105,11.99712 -37.8968,27.2293 -56.08298,45.98826 -16.25446,16.76639 -25.52302,28.42392 -38.52308,48.45241 -4.09758,6.31292 -7.63183,11.548 -7.8539,11.63351 -0.22205,0.0855 -22.1855,-22.25014 -48.80766,-49.63476 z m 183.04908,-69.7259 c -3.79242,-0.60229 -8.60622,-2.28164 -12.67939,-4.42336 -3.86373,-2.03158 -8.20799,-6.29996 -50.61828,-49.73422 -25.5155,-26.13154 -47.42981,-49.06326 -48.69846,-50.95938 -8.05238,-12.03501 -8.79345,-27.15135 -1.98434,-40.47686 1.73595,-3.39728 4.08471,-6.341793 9.82833,-12.321249 11.99691,-12.489487 19.11032,-16.171561 31.39659,-16.251622 7.24948,-0.04722 11.16733,0.92168 17.81152,4.404966 3.87975,2.033995 8.14696,6.241174 52.01715,51.285305 l 47.79068,49.06953 2.43167,5.2737 c 3.12398,6.77517 3.96627,11.36021 3.56221,19.39109 -0.59276,11.78134 -4.18471,18.54147 -16.25285,30.58822 -7.82604,7.81216 -12.37951,10.88211 -19.20843,12.9503 -3.40685,1.0318 -12.1664,1.71655 -15.3964,1.20358 z"
       style="fill:#000000;stroke-width:0.612051" />
  </g>
</svg>
