<?xml version="1.0" encoding="UTF-8" standalone="no"?>
<svg
   xmlns:dc="http://purl.org/dc/elements/1.1/"
   xmlns:cc="http://creativecommons.org/ns#"
   xmlns:rdf="http://www.w3.org/1999/02/22-rdf-syntax-ns#"
   xmlns:svg="http://www.w3.org/2000/svg"
   xmlns="http://www.w3.org/2000/svg"
   xmlns:sodipodi="http://sodipodi.sourceforge.net/DTD/sodipodi-0.dtd"
   xmlns:inkscape="http://www.inkscape.org/namespaces/inkscape"
   xml:space="preserve"
   width="65.51236mm"
   height="65.175682mm"
   version="1.1"
   style="clip-rule:evenodd;fill-rule:evenodd;image-rendering:optimizeQuality;shape-rendering:geometricPrecision;text-rendering:geometricPrecision"
   viewBox="0 0 416.04635 413.90572"
   id="svg10"
   sodipodi:docname="А.ФУТБОЛ.svg"
   inkscape:version="1.0 (4035a4fb49, 2020-05-01)"><sodipodi:namedview
   inkscape:document-rotation="0"
   pagecolor="#ffffff"
   bordercolor="#666666"
   borderopacity="1"
   objecttolerance="10"
   gridtolerance="10"
   guidetolerance="10"
   inkscape:pageopacity="0"
   inkscape:pageshadow="2"
   inkscape:window-width="1920"
   inkscape:window-height="1018"
   id="namedview26"
   showgrid="false"
   inkscape:zoom="2.3892428"
   inkscape:cx="126.66745"
   inkscape:cy="101.51421"
   inkscape:window-x="-6"
   inkscape:window-y="-6"
   inkscape:window-maximized="1"
   inkscape:current-layer="svg10" /><metadata
   id="metadata14"><rdf:RDF><cc:Work
       rdf:about=""><dc:format>image/svg+xml</dc:format><dc:type
         rdf:resource="http://purl.org/dc/dcmitype/StillImage" /><dc:title></dc:title></cc:Work></rdf:RDF></metadata>
 <defs
   id="defs4">
  <style
   type="text/css"
   id="style2">
   <![CDATA[
    .fil0 {fill:black}
   ]]>
  </style>
 </defs>
 
<path
   id="path916"
   d="m 2901.8318,1251.2365 c -9.8522,-48.7103 -20.288,-106.6796 -23.1908,-128.8206 -4.4845,-34.2059 -13.2164,-24.8851 -58.0964,62.014 -29.0503,56.2489 -55.8096,99.2797 -59.4652,95.6241 -3.6557,-3.6556 0.2842,-49.2312 8.7552,-101.2791 8.471,-52.0478 11.9364,-98.0979 7.7009,-102.3334 -4.2355,-4.2355 -7.7009,0.6057 -7.7009,10.7582 0,16.17 -110.8684,83.5239 -137.4852,83.5239 -5.4711,0 16.1858,-30.5309 48.1266,-67.8465 71.0635,-83.0218 153.6812,-244.51719 154.0155,-301.059 0.4306,-72.82284 24.6567,-90.16206 47.8249,-34.22924 11.3705,27.4509 23.8557,46.72873 27.7449,42.83956 3.8891,-3.88916 -4.0693,-28.61439 -17.6853,-54.94495 -64.7235,-125.16144 -183.5193,-212.76026 -288.5315,-212.76026 h -54.5551 l -26.5993,-199.4611 c -14.6296,-109.70359 -26.5993,-208.09137 -26.5993,-218.6395 0,-10.54814 29.9442,6.4527 66.5427,37.77961 36.5985,31.32693 104.7805,72.80674 151.5156,92.17738 47.7249,19.78082 93.735,51.59114 104.9613,72.56775 10.9936,20.54162 26.1115,33.56404 33.5955,28.93869 7.4839,-4.62533 22.0473,10.11429 32.3629,32.75473 18.6554,40.94403 45.7915,55.79576 45.7915,25.06185 0,-8.85641 -6.7219,-16.10257 -14.9375,-16.10257 -8.2157,0 -27.9051,-29.39148 -43.7543,-65.31439 -23.5105,-53.28778 -30.9292,-59.95909 -40.2896,-36.23079 -8.915,22.59911 -11.7254,19.08412 -12.6048,-15.76502 -1.3872,-54.97109 41.5162,-124.14071 77.2074,-124.47499 23.0075,-0.21548 23.2817,-2.40066 2.1737,-17.32847 -18.1768,-12.85482 -19.173,-19.10297 -4.0257,-25.24916 33.9023,-13.756235 22.5169,-53.791229 -15.2974,-53.791229 -26.0553,0 -30.6761,-4.749607 -17.4693,-17.956351 13.2067,-13.206744 37.017,-10.67702 90.017,9.563853 58.1124,22.193354 78.9971,23.807933 107.8966,8.341434 29.032,-15.537524 34.4882,-15.060393 28.7377,2.51304 -3.904,11.93054 -28.9826,28.941918 -55.7303,37.803068 -49.8262,16.506785 -59.5163,56.890865 -22.5265,93.880645 22.6794,22.67943 21.7815,63.65767 -2.5657,117.09406 l -19.7843,43.42162 -9.3046,-38.63831 c -9.0525,-37.59153 -9.5536,-37.70504 -18.4985,-4.19005 -5.0567,18.94655 -3.3276,43.94034 3.8425,55.54176 9.5422,15.43965 20.5275,8.04114 40.9842,-27.60249 18.7632,-32.69307 52.2709,-57.33484 101.9622,-74.98363 186.7618,-66.33189 319.7041,-208.265446 451.8379,-482.39668 41.5788,-86.26131 80.3559,-152.08059 86.1715,-146.26505 24.9592,24.95926 8.8958,164.08793 -27.1702,235.32757 l -37.744,74.553751 64.2481,-50.885401 c 58.5782,-46.39479 100.6406,-118.18687 167.5621,-285.9949 14.3432,-35.96622 17.2915,-30.36784 27.6648,52.53141 14.5405,116.20239 -6.3159,182.6587 -79.6237,253.711471 -30.8307,29.882219 -56.0557,60.618827 -56.0557,68.303558 0,24.3454372 186.8735,-115.974399 323.5394,-242.939659 77.8836,-72.35545 128.1038,-109.41775 122.9449,-90.73289 -4.7968,17.37322 -13.5,52.88419 -19.3401,78.91323 -15.8534,70.65667 -66.2879,132.55393 -158.7326,194.809864 -45.5412,30.669211 -77.2233,55.762204 -70.4049,55.762204 20.6468,0 178.4457,-82.460008 208.5833,-108.998118 39.4964,-34.77914 35.0842,-2.66202 -8.5634,62.33475 -20.2086,30.093061 -71.112,73.3727032 -113.1187,96.176973 -119.7782,65.024122 -120.0609,78.499577 -0.9762,46.528172 60.4986,-16.242417 112.2381,-27.290929 114.9769,-24.552262 2.7385,2.738684 -14.0781,27.627774 -37.3704,55.309107 -27.7051,32.92569 -57.1674,50.41496 -85.2003,50.57627 -23.5678,0.13562 -53.7198,7.27081 -67.0045,15.856 -17.2253,11.13187 1.0858,15.68015 63.8352,15.85599 83.7805,0.23478 86.6436,1.59448 59.8582,28.42608 -19.5871,19.62104 -63.4274,30.66167 -144.348,36.35227 l -116.2172,8.17278 96.6643,50.43623 c 53.1654,27.73992 114.7577,65.48651 136.8719,83.8813 l 40.2075,33.44508 -48.3077,-0.17101 c -61.9998,-0.21964 -162.4076,-36.03806 -202.3481,-72.18373 -53.717,-48.61322 -34.1965,-5.8534 50.0225,109.57443 89.0519,122.0518 125.38,222.26507 69.7872,192.51275 -17.0177,-9.10762 -68.8122,-56.60224 -115.099,-105.54363 -46.2867,-48.94143 -84.1576,-82.90782 -84.1576,-75.48088 0,7.42693 21.7384,54.82903 48.3077,105.33797 84.1798,160.02836 62.2805,176.70397 -71.4946,54.44103 -77.2583,-70.6097 -87.8359,-76.23242 -73.7593,-39.20816 41.8409,110.04974 12.4694,114.85009 -86.7764,14.18236 -73.5138,-74.56716 -74.0239,-74.77933 -56.0892,-23.33187 9.9546,28.55579 14.3504,55.66844 9.7685,60.25037 -4.5819,4.5819 -41.6173,-17.0775 -82.301,-48.13201 -81.031,-61.85237 -193.4479,-89.39067 -247.287,-60.57689 -17.5612,9.39851 -35.7377,13.28005 -40.3921,8.62564 -4.6544,-4.65441 -37.5461,19.20395 -73.0927,53.01859 -54.1461,51.50795 -63.3397,69.29818 -56.6753,109.67021 21.3627,129.41262 87.0198,276.12067 185.9286,415.44968 52.5722,74.0565 17.2159,70.6951 -62.6591,-5.957 -45.9153,-44.0628 -70.1875,-59.3899 -63.3126,-39.9802 17.7051,49.9871 31.2024,169.8051 19.1281,169.8051 -6.0394,0 -28.3233,-37.4321 -49.5197,-83.1823 -38.3049,-82.6773 -38.6042,-82.8972 -49.3131,-36.2308 -5.9258,25.8233 -19.7356,83.1823 -30.6883,127.4644 l -19.9141,80.5128 z"
   style="fill:#000000;fill-opacity:0.975904;fill-rule:evenodd;stroke-width:16.1026" /><path
   id="path2960"
   d=""
   style="fill:#000000;fill-opacity:0.975904;fill-rule:evenodd;stroke:#000000;stroke-width:0.125801;stroke-opacity:1" /><path
   id="path3032"
   d=""
   style="fill:#000000;fill-opacity:0.975904;fill-rule:evenodd;stroke:#000000;stroke-width:0.125801;stroke-opacity:1" /><path
   id="path11"
   d="M 27.269964,409.40341 C 9.845534,404.3937 4.788974,393.77222 1.958924,356.2366 0.65829399,338.98607 -0.20431601,324.87201 0.04200399,324.87201 c 0.24633,0 20.58115001,20.03286 45.18850001,44.51748 l 44.740628,44.51747 -24.788118,-0.36504 c -13.63346,-0.20069 -30.69434,-2.06306 -37.91305,-4.13851 z M 97.434912,348.57464 C 66.458214,318.84414 34.195504,285.84002 25.739984,275.23216 l -15.37366,-19.28703 6.26418,-21.18341 C 35.951264,169.42517 91.469692,96.318675 151.39821,57.299971 180.5157,38.341951 238.3555,13.24965 252.9378,13.24965 c 13.72057,0 107.63442,87.23217 141.55835,131.48691 10.79365,14.08059 11.16084,15.88493 6.64881,32.67073 -13.89052,51.67605 -58.16338,118.11142 -104.50827,156.82397 -31.3117,26.1551 -101.8375,62.92126 -127.18673,66.30435 -15.48113,2.0661 -16.45698,1.362 -72.015048,-51.96097 z M 51.736484,237.9467 c 4.87176,-10.16522 8.58695,-13.37607 13.3658,-11.5514 8.58721,3.27878 14.93561,-6.73766 8.87534,-14.00342 -6.39588,-7.66811 7.26066,-32.37372 18.800938,-34.0122 6.57499,-0.93352 8.375618,-3.69523 7.572148,-11.6138 -1.263338,-12.45081 15.34084,-29.78004 28.70697,-29.96051 6.74076,-0.091 8.72596,-2.30227 8.03379,-8.94859 -1.18753,-11.40276 21.85062,-31.798635 29.12905,-25.78819 5.90744,4.87828 14.49726,-2.150085 14.49726,-11.861945 0,-8.868254 20.61347,-20.156334 34.92802,-19.126844 9.22911,0.66376 11.71188,-0.76999 11.23794,-6.48965 -0.38811,-4.6839 4.3972,-9.71669 13.21882,-13.90245 14.83268,-7.037931 15.56026,-8.215787 10.23729,-16.572719 -2.85563,-4.483257 -5.7585,-4.260513 -16.49922,1.266025 -10.18379,5.23998 -14.30411,5.657554 -18.84272,1.90963 -7.0722,-5.840135 -18.72781,1.767163 -15.50626,10.120516 3.16562,8.208338 -27.04947,24.356528 -35.61485,19.034048 -8.18348,-5.08518 -17.1698,3.03089 -13.60123,12.28407 2.77877,7.205224 -28.82914,33.675599 -32.72398,27.405049 -3.86528,-6.222965 -15.02518,4.13604 -12.23895,11.36061 1.23437,3.20069 -3.45798,12.98326 -10.427448,21.73905 -9.414818,11.82788 -13.986998,14.83352 -17.788898,11.69396 -7.70801,-6.36517 -17.08254,5.91069 -10.52111,13.7773 3.7952,4.55013 2.83062,8.79554 -4.58614,20.18512 -5.16568,7.93271 -12.39936,14.44565 -16.07482,14.4732 -7.6695,0.0575 -13.18908,10.74883 -7.39027,14.31482 2.29543,1.41158 1.27416,7.38676 -2.50559,14.65953 -3.5092,6.7522 -5.39023,14.84412 -4.18007,17.98202 3.85098,9.98544 12.93083,6.16461 19.89819,-8.37323 z M 398.31994,72.224271 c -8.94813,-10.9685 -29.81171,-31.706363 -46.36352,-46.084137 l -30.0942,-26.14140485 32.80177,1.88939405 c 21.00486,1.209889 36.52463,4.316537 43.15332,8.6381608 12.67094,8.260904 19.64665,31.742177 17.98714,60.547437 l -1.21519,21.093284 z"
   style="fill:#000000;stroke-width:4.05717" /></svg>
