<?xml version="1.0" encoding="UTF-8" standalone="no"?>
<svg
   xmlns:dc="http://purl.org/dc/elements/1.1/"
   xmlns:cc="http://creativecommons.org/ns#"
   xmlns:rdf="http://www.w3.org/1999/02/22-rdf-syntax-ns#"
   xmlns:svg="http://www.w3.org/2000/svg"
   xmlns="http://www.w3.org/2000/svg"
   xmlns:sodipodi="http://sodipodi.sourceforge.net/DTD/sodipodi-0.dtd"
   xmlns:inkscape="http://www.inkscape.org/namespaces/inkscape"
   version="1.1"
   id="svg488"
   width="1339.5994"
   height="1337.3624"
   viewBox="0 0 1339.5994 1337.3625"
   sodipodi:docname="бейсболл.svg"
   inkscape:version="1.0 (4035a4fb49, 2020-05-01)">
  <metadata
     id="metadata494">
    <rdf:RDF>
      <cc:Work
         rdf:about="">
        <dc:format>image/svg+xml</dc:format>
        <dc:type
           rdf:resource="http://purl.org/dc/dcmitype/StillImage" />
        <dc:title></dc:title>
      </cc:Work>
    </rdf:RDF>
  </metadata>
  <defs
     id="defs492" />
  <sodipodi:namedview
     inkscape:document-rotation="0"
     pagecolor="#ffffff"
     bordercolor="#666666"
     borderopacity="1"
     objecttolerance="10"
     gridtolerance="10"
     guidetolerance="10"
     inkscape:pageopacity="0"
     inkscape:pageshadow="2"
     inkscape:window-width="1920"
     inkscape:window-height="1018"
     id="namedview490"
     showgrid="false"
     inkscape:zoom="0.32459269"
     inkscape:cx="-121.32135"
     inkscape:cy="920.05106"
     inkscape:window-x="-6"
     inkscape:window-y="-6"
     inkscape:window-maximized="1"
     inkscape:current-layer="g496" />
  <g
     transform="translate(-543.65363,14.064121)"
     inkscape:groupmode="layer"
     inkscape:label="Image"
     id="g496">
    <path
       id="path8"
       d="m 673.50287,1321.2464 c -19.10503,-5.0287 -22.14475,-7.3993 -68.80707,-53.6601 -23.92512,-23.7193 -45.67157,-46.2709 -48.32546,-50.1146 -11.16489,-16.1708 -15.51999,-40.0676 -10.88565,-59.7306 9.41523,-39.948 50.02323,-66.0271 89.70572,-57.6106 l 10.24936,2.1739 59.7841,59.6342 c 67.74659,67.5767 63.28836,61.5355 63.26128,85.7229 -0.0475,42.3401 -34.32785,75.9259 -77.19908,75.6349 -5.64274,-0.038 -13.64519,-0.9609 -17.7832,-2.05 z m 862.31013,-3.2951 c -24.5049,-4.8972 -51.8497,-15.4244 -73.6934,-28.3706 -24.2756,-14.3876 -53.3216,-41.3045 -70.0384,-64.9047 -11.0048,-15.5362 -23.8305,-40.743 -29.7534,-58.4753 -4.7851,-14.3259 -10.3273,-38.7643 -10.3273,-45.5383 v -3.7407 l 12.4128,0.8023 c 24.8188,1.6042 58.2277,-2.9146 83.8087,-11.3359 17.4352,-5.7397 45.6383,-20.0616 61.0915,-31.0233 15.8404,-11.2361 40.1956,-35.2474 51.2977,-50.5733 30.6452,-42.3038 45.6699,-90.47441 44.2683,-141.92832 l -0.4943,-18.14608 5.4718,0.82452 c 26.517,3.99577 47.067,10.21038 69.7648,21.09793 61.3333,29.41983 106.5485,84.41584 122.9074,149.49435 1.8852,7.4996 3.832,16.7063 4.3263,20.4594 0.4943,3.7532 1.1962,7.8987 1.5598,9.2122 0.6109,2.2068 -1.1042,2.3883 -22.55,2.3883 -43.703,0 -78.6745,9.0138 -115.3633,29.7343 -38.5093,21.7486 -71.7101,56.6791 -91.7685,96.5492 -16.5976,32.9909 -25.7652,75.8009 -23.8775,111.5003 l 0.7772,14.6992 -3.6667,-0.115 c -2.0167,-0.063 -9.2857,-1.2381 -16.1535,-2.6105 z m 69.9415,-9.5406 c -1.1673,-14.716 -0.029,-30.1557 3.5492,-48.1028 6.7516,-33.8715 22.9044,-63.6346 48.3928,-89.1679 27.1819,-27.2298 59.0734,-43.7829 96.9992,-50.3469 11.9338,-2.0654 43.7049,-2.8588 49.7506,-1.2424 4.0125,1.0728 3.9594,3.7397 -0.4683,23.5413 -20.1427,90.0818 -93.4124,159.8184 -184.3826,175.4917 -6.6818,1.1512 -12.3105,2.0931 -12.5082,2.0931 -0.1978,0 -0.7975,-5.5196 -1.3327,-12.2661 z m -865.18176,-182.1732 -58.08447,-57.9621 3.52292,-3.7939 c 1.93761,-2.0866 86.39499,-97.5632 187.68306,-212.17019 101.28808,-114.607 184.85605,-208.80545 185.70665,-209.3299 1.804,-1.11236 166.9962,163.0342 166.4314,165.37799 -0.3669,1.52282 -425.09064,375.8402 -426.45159,375.8402 -0.39793,0 -26.86151,-26.083 -58.80797,-57.9621 z m 621.68736,-59.022 c -4.5142,-0.295 -8.7275,-1.0519 -9.3629,-1.6821 -1.6346,-1.6214 3.7599,-28.5077 8.7921,-43.8194 23.6847,-72.06707 84.7748,-130.31131 156.8475,-149.54077 13.5871,-3.62512 33.517,-7.4106 34.418,-6.53735 1.4649,1.41986 1.6571,35.44442 0.2593,45.92378 -9.1353,68.48845 -55.8852,125.09684 -121.3943,146.99374 -19.7608,6.6051 -47.7318,10.0883 -69.5597,8.6621 z m -182.9612,-378.12782 -85.748,-85.59883 250.9677,-283.87269 c 138.0322,-156.12998 254.5089,-287.169616 258.837,-291.19918 54.5327,-50.771069 135.4432,-56.666556 195.8104,-14.267603 12.2842,8.627764 43.7768,39.593411 53.8855,52.983852 10.5185,13.93308 21.9216,37.462581 26.5306,54.743681 3.1947,11.97862 3.6068,16.10189 3.6681,36.69608 0.077,25.83986 -1.3636,34.55488 -9.1135,55.13947 -5.8296,15.48409 -14.304,30.19634 -25.2695,43.86981 -6.7907,8.46774 -71.7975,66.39198 -293.4909,261.51502 -156.6224,137.85094 -286.0195,251.75209 -287.5488,253.11365 -2.7421,2.4412 -3.9714,1.28689 -88.5286,-83.12326 z"
       style="fill:#000000;stroke-width:1.36635" />
  </g>
</svg>
