<?xml version="1.0" encoding="UTF-8" standalone="no"?>
<svg
   xmlns:dc="http://purl.org/dc/elements/1.1/"
   xmlns:cc="http://creativecommons.org/ns#"
   xmlns:rdf="http://www.w3.org/1999/02/22-rdf-syntax-ns#"
   xmlns:svg="http://www.w3.org/2000/svg"
   xmlns="http://www.w3.org/2000/svg"
   xmlns:sodipodi="http://sodipodi.sourceforge.net/DTD/sodipodi-0.dtd"
   xmlns:inkscape="http://www.inkscape.org/namespaces/inkscape"
   version="1.1"
   id="svg476"
   width="1238.0669"
   height="1233.1899"
   viewBox="0 0 1238.0669 1233.19"
   sodipodi:docname="баскетбол.svg"
   inkscape:version="1.0 (4035a4fb49, 2020-05-01)">
  <metadata
     id="metadata482">
    <rdf:RDF>
      <cc:Work
         rdf:about="">
        <dc:format>image/svg+xml</dc:format>
        <dc:type
           rdf:resource="http://purl.org/dc/dcmitype/StillImage" />
        <dc:title></dc:title>
      </cc:Work>
    </rdf:RDF>
  </metadata>
  <defs
     id="defs480" />
  <sodipodi:namedview
     inkscape:document-rotation="0"
     pagecolor="#ffffff"
     bordercolor="#666666"
     borderopacity="1"
     objecttolerance="10"
     gridtolerance="10"
     guidetolerance="10"
     inkscape:pageopacity="0"
     inkscape:pageshadow="2"
     inkscape:window-width="1920"
     inkscape:window-height="1018"
     id="namedview478"
     showgrid="false"
     inkscape:zoom="0.68654382"
     inkscape:cx="107.02732"
     inkscape:cy="476.7577"
     inkscape:window-x="-6"
     inkscape:window-y="-6"
     inkscape:window-maximized="1"
     inkscape:current-layer="g484" />
  <g
     transform="translate(-512.01547,-142.28509)"
     inkscape:groupmode="layer"
     inkscape:label="Image"
     id="g484">
    <path
       id="path8"
       d="m 1072.9621,1371.2665 c 19.1115,-64.0772 25.9879,-103.4553 34.3094,-196.4735 3.7004,-41.3642 10.0412,-82.2346 16.7618,-108.0401 11.9756,-45.9829 34.4688,-97.08114 58.3544,-132.5644 14.0617,-20.88948 39.3814,-51.98993 42.3262,-51.98993 0.9977,0 65.2693,67.19396 142.8257,149.31993 77.5565,82.1259 147.8188,156.4428 156.1385,165.1487 l 15.1267,15.8289 -23.4971,18.32 c -89.7282,69.9583 -197.3467,116.7379 -310.3486,134.9024 -30.9399,4.9734 -87.6256,9.714 -116.6547,9.7558 -14.6884,0.022 -16.4588,-0.4644 -15.3423,-4.2078 z m -63.5696,-2.9915 C 891.22039,1345.8997 782.40335,1292.5474 700.29344,1216.7257 l -15.29556,-14.1242 210.82673,-201.9143 C 1011.7793,889.63434 1111.5891,794.46998 1117.6241,789.21087 l 10.9728,-9.56203 39.4428,40.9978 c 21.6936,22.54878 39.4873,41.86212 39.5415,42.9185 0.054,1.05641 -7.1732,10.84986 -16.0607,21.76323 -20.9537,25.73 -38.3447,52.62308 -53.4887,82.71403 -34.0491,67.6549 -48.7412,125.0312 -58.5148,228.5138 -7.2683,76.9561 -13.9494,113.6796 -29.3655,161.4106 -5.6844,17.6002 -4.2128,17.228 -40.759,10.3082 z m 401.124,-323.4568 c -80.0649,-84.78588 -149.9706,-158.77293 -155.3459,-164.41565 -11.4336,-12.00247 -14.0529,-8.34054 24.7938,-34.66299 76.4166,-51.77971 153.7625,-71.69275 294.7905,-75.8951 61.297,-1.82652 118.3623,-9.28093 168.3075,-21.98586 l 7.02,-1.78573 -1.7,25.14093 c -9.4599,139.89821 -59.7263,270.7085 -145.3266,378.1888 -20.8346,26.16 -42.0353,49.5717 -44.8901,49.5717 -1.1421,0 -67.5842,-69.3702 -147.6492,-154.1561 z M 648.40957,1162.0809 C 574.6223,1067.5857 529.2857,959.22967 514.69612,842.50124 c -1.98088,-15.84865 -2.74903,-29.53927 -1.707,-30.4236 4.52707,-3.84191 43.43117,-12.57579 81.46109,-18.28779 13.27279,-1.99353 55.75224,-5.21047 94.39878,-7.14876 77.62528,-3.89322 106.29235,-7.37666 151.27401,-18.38184 62.82133,-15.3698 133.36481,-48.91123 175.5639,-83.47565 5.4569,-4.46961 11.0057,-8.12658 12.3306,-8.12658 3.5036,0 81.0841,81.76225 80.1212,84.43995 -1.0597,2.94722 -440.41353,420.82813 -442.52531,420.89743 -0.88709,0.029 -8.62881,-8.9319 -17.20382,-19.9135 z M 1186.2158,807.32914 c -21.4442,-22.55855 -38.9895,-41.99555 -38.9895,-43.19335 0,-1.6481 325.3161,-310.3667 433.1005,-411.0039 l 15.9721,-14.91296 15.764,19.89915 c 62.9703,79.48848 109.2721,181.65634 127.3735,281.05783 6.3083,34.64144 10.2791,71.92883 7.912,74.29597 -3.0834,3.08344 -62.4971,15.87777 -92.3136,19.87913 -15.2947,2.05254 -55.0126,4.80972 -88.262,6.1271 -68.9914,2.73353 -92.0136,5.04551 -133.3507,13.39164 -67.5533,13.6393 -131.4536,41.68032 -184.339,80.8925 -10.817,8.02032 -20.6146,14.58242 -21.7725,14.58242 -1.1579,0 -19.6505,-18.45698 -41.0948,-41.01553 z M 512.41405,776.40513 c 0.57014,-3.65744 1.65857,-18.24129 2.41872,-32.40854 6.15303,-114.67666 51.14244,-239.61007 123.0332,-341.65727 18.8401,-26.74306 59.02259,-74.58096 61.67679,-73.4272 0.9393,0.40832 66.31343,68.75246 145.27582,151.87589 78.96239,83.12342 149.39198,157.15951 156.51022,164.52465 l 12.9421,13.39115 -19.97067,14.57708 c -52.76025,38.51094 -103.24754,60.88716 -167.7312,74.3393 -37.22863,7.7664 -66.00297,10.58513 -139.87842,13.70239 -64.42266,2.71842 -97.37624,6.41546 -141.16912,15.83771 -34.65008,7.45513 -34.38825,7.46111 -33.10744,-0.75516 z m 573.51625,-74.22575 -40.49,-42.26936 20.1481,-24.87587 c 23.7038,-29.26578 40.8935,-56.99341 58.5494,-94.44226 28.5409,-60.53626 41.9181,-117.96407 50.8253,-218.19179 4.8047,-54.06567 7.3253,-73.23702 13.1192,-99.78346 5.6982,-26.10813 19.1873,-73.63484 21.5573,-75.95344 2.0173,-1.97362 57.0125,7.58998 83.8839,14.58732 98.559,25.66486 198.446,79.29975 268.4131,144.12582 l 14.5088,13.44275 -13.682,12.67212 c -7.5251,6.96966 -107.9715,102.44541 -223.2141,212.16833 -115.2427,109.72292 -210.3414,199.78714 -211.3305,200.14271 -0.9892,0.35558 -20.019,-18.37472 -42.2885,-41.62287 z M 870.06586,475.53968 C 785.10359,386.20475 715.589,311.98999 715.589,310.61802 c 0,-7.88235 77.24965,-62.73628 122.19595,-86.76968 66.19903,-35.39754 137.90919,-59.60373 212.94975,-71.88247 31.145,-5.09619 121.8982,-11.7158 124.5307,-9.08336 0.8265,0.82652 -2.4126,15.98431 -7.198,33.68398 -13.768,50.92346 -18.3045,78.47427 -24.4112,148.25175 -10.591,121.0173 -31.0624,192.49598 -74.1029,258.74054 -13.3215,20.5035 -40.0811,54.40806 -42.9423,54.40806 -1.1375,0 -71.58287,-73.09222 -156.54514,-162.42716 z"
       style="fill:#000000;stroke-width:2.41814" />
  </g>
</svg>
