<?xml version="1.0" encoding="UTF-8" standalone="no"?>
<svg
   xmlns:dc="http://purl.org/dc/elements/1.1/"
   xmlns:cc="http://creativecommons.org/ns#"
   xmlns:rdf="http://www.w3.org/1999/02/22-rdf-syntax-ns#"
   xmlns:svg="http://www.w3.org/2000/svg"
   xmlns="http://www.w3.org/2000/svg"
   xmlns:sodipodi="http://sodipodi.sourceforge.net/DTD/sodipodi-0.dtd"
   xmlns:inkscape="http://www.inkscape.org/namespaces/inkscape"
   version="1.1"
   id="svg5132"
   width="1279.4253"
   height="1180.7434"
   viewBox="0 0 1279.4253 1180.7434"
   sodipodi:docname="БИЛЬЯРД.svg"
   inkscape:version="1.0 (4035a4fb49, 2020-05-01)">
  <metadata
     id="metadata5138">
    <rdf:RDF>
      <cc:Work
         rdf:about="">
        <dc:format>image/svg+xml</dc:format>
        <dc:type
           rdf:resource="http://purl.org/dc/dcmitype/StillImage" />
        <dc:title></dc:title>
      </cc:Work>
    </rdf:RDF>
  </metadata>
  <defs
     id="defs5136" />
  <sodipodi:namedview
     inkscape:document-rotation="0"
     pagecolor="#ffffff"
     bordercolor="#666666"
     borderopacity="1"
     objecttolerance="10"
     gridtolerance="10"
     guidetolerance="10"
     inkscape:pageopacity="0"
     inkscape:pageshadow="2"
     inkscape:window-width="1920"
     inkscape:window-height="1018"
     id="namedview5134"
     showgrid="false"
     inkscape:zoom="0.71126164"
     inkscape:cx="483.77218"
     inkscape:cy="554.01312"
     inkscape:window-x="-6"
     inkscape:window-y="-6"
     inkscape:window-maximized="1"
     inkscape:current-layer="g5140" />
  <g
     transform="translate(-156.22782,330.30358)"
     inkscape:groupmode="layer"
     inkscape:label="Image"
     id="g5140">
    <path
       id="path8"
       d="m 1330.5607,849.43179 c -10.6566,-1.2093 -24.4509,-4.1356 -32.9924,-6.999 -6.7864,-2.2751 -6.9873,-2.4407 -8.288,-6.8316 -1.9565,-6.6046 -0.8239,-12.2533 4.7117,-23.5 11.8158,-24.006 13.2702,-27.7015 13.4408,-34.1532 0.1313,-4.9694 0.8807,-7.5277 3.8953,-13.2989 2.0529,-3.9302 3.7326,-7.2941 3.7326,-7.4755 0,-0.1814 -1.3861,-0.9039 -3.0802,-1.6056 -3.0364,-1.2578 -3.072,-1.3556 -2.5003,-6.8714 2.3465,-22.6379 4.7214,-68.1578 4.1814,-80.14583 -1.004,-22.28657 1.1477,-57.15927 5.9932,-97.13515 2.3952,-19.75985 2.438,-21.05142 0.9567,-28.86047 -1.7626,-9.29145 -2.0267,-29.88762 -0.5172,-40.33 0.9244,-6.39495 0.504,-9.72685 -6.0089,-47.62059 -8.3405,-48.528 -10.2657,-61.39328 -12.9441,-86.50336 -3.595,-33.70345 -4.6541,-49.66262 -9.5898,-144.5 -1.3007,-24.99308 -1.7964,-29.54592 -4.0285,-37 -1.4957,-4.9949 -2.8004,-12.41746 -3.164,-18 l -0.6187,-9.5 -5.7783,-5.58108 c -3.1781,-3.06959 -6.0798,-6.78209 -6.4483,-8.25 -0.3684,-1.46791 -0.9856,-2.66892 -1.3715,-2.66892 -0.3859,0 -8.8611,7.3125 -18.8338,16.25 -17.457,15.64496 -19.1675,17.53516 -45.9399,50.76631 -15.2943,18.98397 -37.4828,46.36845 -49.3078,60.8544 -15.8224,19.38285 -23.1546,29.25823 -27.7658,37.396 -9.1979,16.23265 -16.754,27.19157 -23.5057,34.09167 -5.8759,6.005 -5.9969,6.24248 -6.9051,13.5585 -1.0068,8.1089 -3.9719,17.96967 -6.7262,22.36804 -1.4759,2.3569 -1.5908,3.62962 -0.7477,8.28095 0.7293,4.02398 0.6418,7.42957 -0.3268,12.71508 -0.7277,3.97048 -1.226,10.54581 -1.1074,14.61185 0.1186,4.06604 -0.2541,9.46604 -0.8282,12 -0.5742,2.53396 -1.7393,13.1572 -2.5892,23.6072 -4.7629,58.56415 -9.1745,88.44026 -17.0722,115.61692 -3.292,11.32813 -3.3518,11.84107 -1.8688,16.04269 3.9573,11.21228 4.9433,18.20016 4.9162,34.84039 -0.02,12.07165 -0.5108,18.73259 -1.8298,24.81861 -1.4431,6.65839 -1.6632,10.47445 -1.1029,19.12058 0.4648,7.17107 0.3206,11.95181 -0.4289,14.22291 -0.7728,2.3416 -0.8331,4.9854 -0.1912,8.3794 0.6113,3.2327 0.5652,7.7429 -0.1325,12.9585 -0.8602,6.4308 -1.6058,8.5884 -3.8009,11 -1.5384,1.6901 -2.9863,4.6915 -3.3161,6.8739 -0.3219,2.1306 -0.7741,4.0627 -1.0048,4.2934 -0.5522,0.5523 -61.178,11.0261 -74.66599,12.8995 -5.775,0.8021 -17.475,2.7678 -26,4.3683 -25.91764,4.8658 -30.01183,5.3648 -43.5,5.3018 -17.12103,-0.08 -27.72744,-2.4192 -43.85754,-9.6727 l -5.85753,-2.6341 0.38382,-7.6008 0.38383,-7.6008 4.74976,-4.3003 c 5.55303,-5.0274 15.01042,-8.9204 44.77397,-18.4305 l 19.57632,-6.255 2.80509,-4.4339 c 1.87739,-2.9676 5.77828,-6.4802 11.79518,-10.62136 4.94455,-3.40309 10.58946,-7.31244 12.54425,-8.68744 2.69927,-1.89867 4.69296,-2.46445 8.28869,-2.35219 3.81125,0.11898 5.36676,-0.38001 7.97656,-2.55876 l 3.24203,-2.70657 -12.90222,-1.26167 c -16.38281,-1.60203 -18.41768,-1.99755 -19.07379,-3.70734 -0.77981,-2.03216 1.52115,-14.22188 3.35336,-17.76499 1.47785,-2.85786 1.43369,-3.27592 -0.77271,-7.31493 l -2.34014,-4.28383 1.81943,-5.35269 c 1.66401,-4.89543 1.72632,-6.79823 0.72944,-22.27485 -1.11238,-17.26964 -0.91705,-23.26069 2.31223,-70.92218 0.81983,-12.1 1.97413,-33.925 2.56512,-48.5 2.72551,-67.2166 5.5007,-100.6195 11.17456,-134.5 l 5.02401,-30 29.04987,-57 c 40.3835,-79.23802 47.9382,-92.47874 64.4436,-112.94563 5.1342,-6.36644 9.3128,-12.49114 9.3128,-13.64997 0,-2.19868 4.8769,-7.41317 7.8014,-8.34135 0.9347,-0.29667 2.6977,-2.71542 3.9178,-5.37499 1.2201,-2.65957 4.0324,-6.89644 6.2496,-9.415271 2.2172,-2.51883 4.0312,-5.55272 4.0312,-6.74198 0,-1.18926 0.4476,-2.99861 0.9946,-4.02077 0.8435,-1.57605 0.5016,-2.01332 -2.25,-2.87734 -24.5057,-7.69512 -33.4374,-10.31952 -39.7446,-11.67811 -4.125,-0.88854 -9.6728,-2.9327 -12.3285,-4.54257 -2.7812,-1.68593 -8.0814,-3.58622 -12.5,-4.48164 -4.2193,-0.85503 -12.3079,-3.12435 -17.9746,-5.04293 -9.6097,-3.25357 -15.88268,-5.98381 -49.69689,-21.63 -7.15,-3.30838 -17.05,-7.67243 -22,-9.6979 l -9,-3.68267 -14,1.29934 c -7.7,0.71463 -43.7,4.02393 -80,7.35399 l -66,6.05466 -24.5,11.92029 c -26.28969,12.79105 -33.1159,15.44155 -43.71641,16.97434 -10.54596,1.52491 -15.11671,1.27552 -18.31111,-0.99909 l -2.83626,-2.0196 -1.76686,2.99105 c -2.18569,3.70009 -6.02058,5.14172 -10.80629,4.06236 -2.67613,-0.60356 -4.85582,-0.3385 -8.34282,1.01454 -13.78306,5.34813 -30.39844,8.96556 -33.18551,7.22501 -1.43663,-0.89719 -2.96959,-0.69918 -7.18066,0.92753 -28.93184,11.17618 -79.96855,19.053951 -157.85408,24.365581 l -23.5,1.60264 -9.37286,4.44155 c -11.84034,5.61082 -21.67783,7.40893 -40.53436,7.40893 -16.82028,0 -28.55032,-1.27852 -38.09278,-4.15194 -8.37486,-2.52183 -19.0907,-2.66527 -30.32094,-0.40588 -11.11012,2.23523 -29.72697,4.54138 -36.67906,4.54359 -3.44757,10e-4 -7.2498,-0.64982 -8.93791,-1.53011 -1.81137,-0.94458 -4.03619,-1.2908 -5.80215,-0.90293 -3.79956,0.83452 -20.84998,0.80604 -24.70779,-0.0413 -2.32298,-0.51019 -3.05215,-1.21936 -3.05215,-2.96844 0,-1.26396 0.57431,-2.77473 1.27624,-3.35728 1.83144,-1.51996 54.9758,-21.616701 62.72376,-23.719221 6.4197,-1.74208 8.8441,-2.95572 7.86344,-3.93639 -0.27678,-0.27677 -35.98682,3.08148 -79.35563,7.46278 -59.90569,6.05194 -79.18358,7.69117 -80.23066,6.82216 -0.75805,-0.62912 -1.24301,-2.29304 -1.0777,-3.69762 0.22246,-1.89022 1.08005,-2.75104 3.30055,-3.31302 1.65,-0.41758 41.025,-5.10415 87.5,-10.41459 l 84.5,-9.65534 2.26243,-2.79051 c 3.2388,-3.99477 6.74587,-4.41986 14.75986,-1.78906 l 6.83749,2.24459 58.07011,-6.83682 58.07011,-6.83683 25.5,-12.75102 c 54.12469,-27.06453 102.7212,-45.6127798 125.76674,-48.0024798 6.75725,-0.70069 10.07498,-1.53478 12.12056,-3.04714 1.65488,-1.2235102 5.45538,-2.4407802 9.21462,-2.9513802 3.51895,-0.47796 8.35393,-1.58032 10.74441,-2.44968 2.39047,-0.86937 7.67921,-2.09882 11.75274,-2.73212 6.00398,-0.93342 7.70466,-1.60662 8.98145,-3.55526 2.155,-3.28894 7.29347,-5.23676 13.81488,-5.23676 4.80884,0 5.73649,-0.34281 7.78212,-2.87584 2.82978,-3.50402 6.14439,-5.3216 8.23894,-4.51784 1.04605,0.4014 3.3099,-1.24994 6.85951,-5.00359 4.62276,-4.8885 5.7819,-5.60273 9.0928,-5.60273 2.88868,0 4.86194,-0.87457 8.26509,-3.6632 6.85042,-5.6134 7.08395,-6.59099 2.92724,-12.25357 -5.05027,-6.87984 -9.17614,-16.19832 -12.24776,-27.66217 -2.27031,-8.47321 -2.66957,-12.037149 -2.7358,-24.421059 -0.0671,-12.54893 0.23792,-15.50917 2.26693,-22 6.03378,-19.30217 19.37779,-41.1836 30.77865,-50.47068 13.10227,-10.67303 25.99333,-14.03613 50.74524,-13.23873 24.21261,0.78002 38.55039,4.69689 48.60294,13.27759 6.6604,5.68521 16.40767,11.3488 26.35426,15.31298 9.32057,3.71467 9.91272,3.76272 11.18731,0.90779 1.53355,-3.43496 6.59801,-5.78777 19.03086,-8.84121 8.55806,-2.10181 12.22127,-2.58873 14.51868,-1.92984 1.84039,0.52782 4.07433,0.50041 5.57024,-0.0683 1.37365,-0.52226 4.31464,-0.94957 6.53552,-0.94957 3.36811,0 4.85532,-0.73487 8.96507,-4.42988 5.6481,-5.07814 20.56233,-12.89899 39.36676,-20.64349 8.25464,-3.39963 16.7767,-7.86294 23.34639,-12.22732 5.6905,-3.78033 12.8282,-7.72724 15.8617,-8.7709 3.0335,-1.04366 7.2664,-3.47951 9.4065,-5.41299 2.1402,-1.93348 4.9024,-3.58396 6.1383,-3.66773 3.4078,-0.23099 3.8721,-0.37361 9.1443,-2.8092 3.5838,-1.65555 5.9833,-2.11667 8.9464,-1.71923 3.457,0.46368 4.5283,0.12243 7.3254,-2.33353 3.3749,-2.96318 8.8165,-4.97037 13.5016,-4.98015 2.157,-0.004 2.7982,-0.58708 3.3347,-3.02954 1.4743,-6.71241 7.0153,-10.51002 18.9208,-12.96765 5.3356,-1.1014 6.7012,-1.96159 13.7031,-8.63147 4.4757,-4.26346 8.9642,-7.64848 10.5739,-7.97431 2.2249,-0.45038 3.2842,-1.67858 5.1798,-6.00549 3.0454,-6.95168 10.8705,-14.226 18.0673,-16.79562 l 5.3172,-1.89851 1.7995,2.38562 1.7994,2.38561 2.3169,-2.11215 c 3.3678,-3.07032 6.5115,-4.48949 10.1294,-4.57276 1.9349,-0.0445 4.6773,-1.2424 6.9792,-3.04849 3.597,-2.82224 3.8884,-2.88776 5.6704,-1.275 1.7768,1.60799 1.939,1.58724 2.9934,-0.38286 0.6233,-1.16459 2.1083,-2.08299 3.3681,-2.08299 1.2394,0 4.0187,-0.9 6.1763,-2 2.1576,-1.1 4.6515,-2 5.5421,-2 2.0102,0 25.3228,-6.9564 34.9476,-10.42824 8.2222,-2.96592 13.7802,-3.24932 18.6262,-0.94973 6.68,3.16987 17.7833,17.68831 27.5355,36.00469 2.8912,5.4303 7.3862,13.14954 9.9889,17.15386 6.2366,9.59537 15.7046,28.26515 20.6499,40.71942 9.0355,22.75524 17.7997,54.46388 21.1923,76.67343 2.4654,16.13933 4.4909,22.60078 12.1382,38.72053 3.2339,6.81668 6.3654,14.24168 6.9591,16.5 0.6815,2.59295 2.839,5.948559 5.8546,9.106039 2.6264,2.75 6.3827,7.7 8.3473,11 2.7274,4.58107 5.1122,7.01011 10.0842,10.27131 7.6239,5.00056 14.3774,12.2797 22.8344,24.61175 l 6.0918,8.88306 12.6324,-0.6867 c 6.9478,-0.37769 13.4237,-0.38303 14.3909,-0.0119 4.7157,1.80957 6.3656,14.16315 2.6956,20.18246 -1.9092,3.13131 -2.2195,3.25 -8.4963,3.25 -3.5831,0 -6.5147,0.40698 -6.5147,0.9044 0,0.49742 2.0365,7.2289602 4.5256,14.95897023 8.2335,25.56969977 9.9429,46.48430977 11.4537,140.13663077 2.4934,154.55239 3.2213,260.2724 2.1023,305.31091 -2.5938,104.39546 -3.1575,128.59508 -4.0808,175.18909 -0.8966,45.2484 -1.1296,49.49766 -3.0429,55.50002 -1.1396,3.575 -2.4749,9.4653 -2.9674,13.0895 -0.4924,3.6243 -2.273,10.8902 -3.9567,16.1465 -2.7721,8.654 -3.001,10.3463 -2.422,17.9105 0.7367,9.6241 -0.8009,18.879 -3.8506,23.1782 -1.1021,1.5536 -2.8732,6.2185 -3.9358,10.3666 -1.9601,7.6511 -4.2479,12.3087 -6.0461,12.3087 -0.5448,0 -2.3277,-1.1251 -3.962,-2.5003 -8.5931,-7.2306 -12.0039,-2.7283 -6.7304,8.8843 1.0281,2.2638 1.8791,5.3663 1.8911,6.8945 0.012,1.5282 1.4079,5.524 3.1018,8.8796 4.7324,9.3748 4.2741,23.6096 -0.5242,16.2863 -2.6406,-4.03 -3.7308,-1.8223 -4.3093,8.7266 -0.3434,6.2609 -1.1258,10.5492 -2.379,13.0392 -1.027,2.0406 -1.8673,4.8474 -1.8673,6.2374 0,1.8689 -1.062,3.1977 -4.0767,5.1008 -5.4839,3.4619 -17.6694,8.2656 -24.0241,9.4707 -6.1307,1.1627 -20.2384,1.078 -31.3992,-0.1885 z M 881.31071,9.9551992 c 10.8625,-0.98437 19.73666,-2.02922 19.72037,-2.32189 -0.0371,-0.66681 -22.28795,-14.32148 -22.97037,-14.09624 -1.74239,0.57511 -20.11089,19.1981498 -18.5,18.7563798 1.1,-0.30167 10.8875,-1.35388 21.75,-2.3382498 z M 1263.5351,-157.49598 c -1.5856,-6.01068 -7.3021,-18.35164 -11.767,-25.40283 -3.1401,-4.95916 -25.2031,-36.20085 -26.7431,-37.86898 -0.4412,-0.47794 -1.7327,0.95483 -2.8699,3.18392 -1.1372,2.22909 -3.0526,4.74281 -4.2565,5.58604 -1.8938,1.32651 -2.1559,2.34005 -1.9445,7.51987 0.3061,7.5018 -1.7043,12.00528 -7.2621,16.26704 -2.2722,1.74239 -4.5278,3.50695 -5.0125,3.92123 -0.5986,0.51173 56.5186,30.30213 61.0407,31.83676 0.088,0.0298 -0.4456,-2.2396 -1.1851,-5.04305 z"
       style="fill:#000000" />
  </g>
</svg>
