<?xml version="1.0" encoding="UTF-8" standalone="no"?>
<svg
   xmlns:dc="http://purl.org/dc/elements/1.1/"
   xmlns:cc="http://creativecommons.org/ns#"
   xmlns:rdf="http://www.w3.org/1999/02/22-rdf-syntax-ns#"
   xmlns:svg="http://www.w3.org/2000/svg"
   xmlns="http://www.w3.org/2000/svg"
   xmlns:sodipodi="http://sodipodi.sourceforge.net/DTD/sodipodi-0.dtd"
   xmlns:inkscape="http://www.inkscape.org/namespaces/inkscape"
   xml:space="preserve"
   width="70.340302mm"
   height="66.240784mm"
   version="1.1"
   style="clip-rule:evenodd;fill-rule:evenodd;image-rendering:optimizeQuality;shape-rendering:geometricPrecision;text-rendering:geometricPrecision"
   viewBox="0 0 446.70694 420.66977"
   id="svg10"
   sodipodi:docname="БОУЛИНГ.svg"
   inkscape:version="1.0 (4035a4fb49, 2020-05-01)"><sodipodi:namedview
   inkscape:document-rotation="0"
   pagecolor="#ffffff"
   bordercolor="#666666"
   borderopacity="1"
   objecttolerance="10"
   gridtolerance="10"
   guidetolerance="10"
   inkscape:pageopacity="0"
   inkscape:pageshadow="2"
   inkscape:window-width="1920"
   inkscape:window-height="1018"
   id="namedview308"
   showgrid="false"
   inkscape:zoom="2.361134"
   inkscape:cx="21.426083"
   inkscape:cy="155.72708"
   inkscape:window-x="-6"
   inkscape:window-y="-6"
   inkscape:window-maximized="1"
   inkscape:current-layer="svg10" /><metadata
   id="metadata14"><rdf:RDF><cc:Work
       rdf:about=""><dc:format>image/svg+xml</dc:format><dc:type
         rdf:resource="http://purl.org/dc/dcmitype/StillImage" /><dc:title></dc:title></cc:Work></rdf:RDF></metadata>
 <defs
   id="defs4">
  <style
   type="text/css"
   id="style2">
   <![CDATA[
    .fil0 {fill:black}
   ]]>
  </style>
 </defs>
 
<path
   id="path916"
   d="m 2762.8513,1370.3378 c -9.8522,-48.7103 -20.288,-106.6796 -23.1908,-128.8206 -4.4845,-34.2059 -13.2164,-24.8851 -58.0964,62.014 -29.0503,56.2489 -55.8096,99.2797 -59.4652,95.6241 -3.6557,-3.6556 0.2842,-49.2312 8.7552,-101.2791 8.471,-52.0478 11.9364,-98.0979 7.7009,-102.3334 -4.2355,-4.2355 -7.7009,0.6057 -7.7009,10.7582 0,16.17 -110.8684,83.5239 -137.4852,83.5239 -5.4711,0 16.1858,-30.5309 48.1266,-67.8465 71.0635,-83.0218 153.6812,-244.51716 154.0155,-301.05897 0.4306,-72.82284 24.6567,-90.16206 47.8249,-34.22924 11.3705,27.4509 23.8557,46.72873 27.7449,42.83956 3.8891,-3.88916 -4.0693,-28.61439 -17.6853,-54.94495 C 2688.672,749.42336 2569.8762,661.82454 2464.864,661.82454 h -54.5551 l -26.5993,-199.4611 c -14.6296,-109.70359 -26.5993,-208.09137 -26.5993,-218.6395 0,-10.54814 29.9442,6.4527 66.5427,37.77961 36.5985,31.32693 104.7805,72.80674 151.5156,92.17738 47.7249,19.78082 93.735,51.59114 104.9613,72.56775 10.9936,20.54162 26.1115,33.56404 33.5955,28.93869 7.4839,-4.62533 22.0473,10.11429 32.3629,32.75473 18.6554,40.94403 45.7915,55.79576 45.7915,25.06185 0,-8.85641 -6.7219,-16.10257 -14.9375,-16.10257 -8.2157,0 -27.9051,-29.39148 -43.7543,-65.31439 -23.5105,-53.28778 -30.9292,-59.95909 -40.2896,-36.23079 -8.915,22.59911 -11.7254,19.08412 -12.6048,-15.76502 -1.3872,-54.97109 41.5162,-124.14071 77.2074,-124.47499 23.0075,-0.21548 23.2817,-2.40066 2.1737,-17.32847 -18.1768,-12.85482 -19.173,-19.10297 -4.0257,-25.24916 33.9023,-13.75623 22.5169,-53.79122 -15.2974,-53.79122 -26.0553,0 -30.6761,-4.74961 -17.4693,-17.95635 13.2067,-13.20675 37.017,-10.67702 90.017,9.56385 58.1124,22.19336 78.9971,23.80793 107.8966,8.34144 29.032,-15.53753 34.4882,-15.0604 28.7377,2.51304 -3.904,11.93054 -28.9826,28.94191 -55.7303,37.80306 -49.8262,16.50678 -59.5163,56.89086 -22.5265,93.88064 22.6794,22.67943 21.7815,63.65767 -2.5657,117.09406 l -19.7843,43.42162 -9.3046,-38.63831 c -9.0525,-37.59153 -9.5536,-37.70504 -18.4985,-4.19005 -5.0567,18.94655 -3.3276,43.94034 3.8425,55.54176 9.5422,15.43965 20.5275,8.04114 40.9842,-27.60249 18.7632,-32.69307 52.2709,-57.33484 101.9622,-74.98363 186.7618,-66.33189 319.7041,-208.26544 451.8379,-482.396676 41.5788,-86.261314 80.3559,-152.080594 86.1715,-146.265054 24.9592,24.95926 8.8958,164.087934 -27.1702,235.3275736 l -37.744,74.5537564 64.2481,-50.8854 c 58.5782,-46.394796 100.6406,-118.18688 167.5621,-285.99491 14.3432,-35.96622 17.2915,-30.36784 27.6648,52.53141 14.5405,116.20239 -6.3159,182.658704 -79.6237,253.71148 -30.8307,29.882219 -56.0557,60.618826 -56.0557,68.30356 0,24.34543 186.8735,-115.974406 323.5394,-242.93967 77.8836,-72.35545 128.1038,-109.41775 122.9449,-90.73289 -4.7968,17.37322 -13.5,52.88419 -19.3401,78.91323 -15.8534,70.656674 -66.2879,132.553934 -158.7326,194.809873 -45.5412,30.669211 -77.2233,55.762203 -70.4049,55.762203 20.6468,0 178.4457,-82.460011 208.5833,-108.998122 39.4964,-34.77914 35.0842,-2.66202 -8.5634,62.334755 -20.2086,30.093061 -71.112,73.372701 -113.1187,96.176971 -119.7782,65.02412 -120.0609,78.49957 -0.9762,46.52817 60.4986,-16.24241 112.2381,-27.29093 114.9769,-24.55226 2.7385,2.73869 -14.0781,27.62778 -37.3704,55.3091 -27.7051,32.92569 -57.1674,50.41496 -85.2003,50.57627 -23.5678,0.13562 -53.7198,7.27081 -67.0045,15.856 -17.2253,11.13187 1.0858,15.68015 63.8352,15.85599 83.7805,0.23478 86.6436,1.59448 59.8582,28.42608 -19.5871,19.62104 -63.4274,30.66167 -144.348,36.35227 l -116.2172,8.17278 96.6643,50.43623 c 53.1654,27.73992 114.7577,65.48651 136.8719,83.8813 l 40.2075,33.44508 -48.3077,-0.17101 c -61.9998,-0.21964 -162.4076,-36.03806 -202.3481,-72.18373 -53.717,-48.61322 -34.1965,-5.8534 50.0225,109.57443 89.0519,122.0518 125.38,222.26507 69.7872,192.51275 -17.0177,-9.10762 -68.8122,-56.60224 -115.099,-105.54363 -46.2867,-48.94143 -84.1576,-82.90782 -84.1576,-75.48088 0,7.42693 21.7384,54.82903 48.3077,105.33797 84.1798,160.02836 62.2805,176.70397 -71.4946,54.44103 -77.2583,-70.6097 -87.8359,-76.23242 -73.7593,-39.20816 41.8409,110.04974 12.4694,114.85009 -86.7764,14.18236 -73.5138,-74.56716 -74.0239,-74.77933 -56.0892,-23.33187 9.9546,28.55579 14.3504,55.66844 9.7685,60.25037 -4.5819,4.5819 -41.6173,-17.0775 -82.301,-48.13201 -81.031,-61.85237 -193.4479,-89.39067 -247.287,-60.57689 -17.5612,9.39851 -35.7377,13.28005 -40.3921,8.62564 -4.6544,-4.65441 -37.5461,19.20395 -73.0927,53.01859 -54.1461,51.50795 -63.3397,69.29818 -56.6753,109.67021 21.3627,129.41262 87.0198,276.12065 185.9286,415.44965 52.5722,74.0565 17.2159,70.6951 -62.6591,-5.957 -45.9153,-44.0628 -70.1875,-59.3899 -63.3126,-39.9802 17.7051,49.9871 31.2024,169.8051 19.1281,169.8051 -6.0394,0 -28.3233,-37.4321 -49.5197,-83.1823 -38.3049,-82.6773 -38.6042,-82.8972 -49.3131,-36.2308 -5.9258,25.8233 -19.7356,83.1823 -30.6883,127.4644 l -19.9141,80.5128 z"
   style="fill:#000000;fill-opacity:0.975904;fill-rule:evenodd;stroke-width:16.1026" /><path
   id="path2960"
   d=""
   style="fill:#000000;fill-opacity:0.975904;fill-rule:evenodd;stroke:#000000;stroke-width:0.125801;stroke-opacity:1" /><path
   id="path3032"
   d=""
   style="fill:#000000;fill-opacity:0.975904;fill-rule:evenodd;stroke:#000000;stroke-width:0.125801;stroke-opacity:1" /><path
   id="path11"
   d="m 142.22037,420.11009 c -3.15132,-0.61264 -12.82017,-2.44774 -21.48632,-4.07799 -40.525605,-7.62348 -85.496265,-41.47786 -103.875585,-78.19865 -30.4761,-60.88947 -19.162,-125.39663 30.12951,-171.78283 50.54671,-47.56742 123.057925,-57.95189 186.211965,-26.66777 95.03158,47.07505 113.30597,167.83654 36.15943,238.95015 -18.89677,17.41903 -41.72186,30.02432 -65.54489,36.19761 -16.53167,4.28384 -51.81748,7.48021 -61.59411,5.57948 z m 28.26208,-144.73875 c 13.77683,-10.24054 6.43227,-32.28992 -10.75565,-32.28992 -17.98834,0 -27.09175,22.40793 -13.36926,32.90827 8.45506,6.46975 14.80819,6.30692 24.12491,-0.61835 z m 61.0796,-38.17622 c 8.32311,-7.3889 8.48264,-17.62015 0.40147,-25.74882 -8.05472,-8.10208 -18.02061,-7.96129 -26.84684,0.37926 -8.92287,8.43188 -8.92287,16.17904 0,24.61092 8.68817,8.21008 17.7587,8.47029 26.44537,0.75864 z m -59.97704,-30.91379 c 14.24658,-15.06689 3.29064,-37.3772 -18.35486,-37.3772 -7.71056,0 -12.0369,1.88631 -17.11072,7.4604 -21.42242,23.53461 13.58095,53.06151 35.46558,29.9168 z m 154.60837,201.69141 c -31.31665,-6.96842 -36.53542,-18.81231 -18.99127,-43.10021 14.27021,-19.75547 21.41668,-35.92271 26.83366,-60.70496 7.48592,-34.24734 4.35591,-65.09287 -9.84649,-97.03561 l -8.20431,-18.45232 5.06605,-14.08392 5.06601,-14.08392 h 42.59545 42.59548 l 12.076,35.19361 c 21.8246,63.60434 24.84927,79.24499 22.7736,117.76323 -2.59617,48.17797 -7.54152,80.47565 -13.04262,85.18012 -12.22443,10.45421 -76.60967,16.06886 -106.92156,9.32398 z M 334.50632,132.763 c 1.0357,-4.09464 2.42552,-8.35848 3.0885,-9.4752 0.66296,-1.11672 14.52776,-2.0304 30.81067,-2.0304 31.25233,0 33.08311,0.76131 33.08311,13.75741 0,4.83114 -2.39928,5.19299 -34.43268,5.19299 h -34.43269 z m -5.78675,-51.385743 c -14.61978,-36.97536 -12.65447,-53.357687 8.50735,-70.9156 25.84474,-21.443333 69.3682,-8.1829234 78.5165,23.921833 3.52682,12.376926 1.82648,21.579916 -8.72565,47.226579 l -7.95867,19.343321 -31.01473,0.7206 -31.01472,0.7206 z"
   style="fill:#000000;stroke-width:2.78491" /></svg>
