<?xml version="1.0" encoding="UTF-8" standalone="no"?>
<svg
   xmlns:dc="http://purl.org/dc/elements/1.1/"
   xmlns:cc="http://creativecommons.org/ns#"
   xmlns:rdf="http://www.w3.org/1999/02/22-rdf-syntax-ns#"
   xmlns:svg="http://www.w3.org/2000/svg"
   xmlns="http://www.w3.org/2000/svg"
   xmlns:sodipodi="http://sodipodi.sourceforge.net/DTD/sodipodi-0.dtd"
   xmlns:inkscape="http://www.inkscape.org/namespaces/inkscape"
   version="1.1"
   id="svg598"
   width="1305.2797"
   height="1306.0208"
   viewBox="0 0 1305.2796 1306.0208"
   sodipodi:docname="ФУТБОЛ.svg"
   inkscape:version="1.0 (4035a4fb49, 2020-05-01)">
  <metadata
     id="metadata604">
    <rdf:RDF>
      <cc:Work
         rdf:about="">
        <dc:format>image/svg+xml</dc:format>
        <dc:type
           rdf:resource="http://purl.org/dc/dcmitype/StillImage" />
        <dc:title></dc:title>
      </cc:Work>
    </rdf:RDF>
  </metadata>
  <defs
     id="defs602" />
  <sodipodi:namedview
     inkscape:document-rotation="0"
     pagecolor="#ffffff"
     bordercolor="#666666"
     borderopacity="1"
     objecttolerance="10"
     gridtolerance="10"
     guidetolerance="10"
     inkscape:pageopacity="0"
     inkscape:pageshadow="2"
     inkscape:window-width="1920"
     inkscape:window-height="1018"
     id="namedview600"
     showgrid="false"
     inkscape:zoom="0.64918538"
     inkscape:cx="-45.117191"
     inkscape:cy="620.82291"
     inkscape:window-x="-6"
     inkscape:window-y="-6"
     inkscape:window-maximized="1"
     inkscape:current-layer="g606" />
  <g
     transform="translate(-698.45056,-33.843721)"
     inkscape:groupmode="layer"
     inkscape:label="Image"
     id="g606">
    <path
       id="path8"
       d="m 1301.1309,1338.9766 c -146.4253,-12.7307 -281.4334,-70.9173 -387.42003,-166.9725 -63.22459,-57.3002 -110.90138,-119.8837 -148.03694,-194.32256 -34.36175,-68.87872 -57.90017,-148.9339 -65.4701,-222.66666 -2.64807,-25.79277 -2.20183,-116.5016 0.70056,-142.40649 11.11279,-99.18553 48.0279,-200.33926 104.22607,-285.59734 39.5138,-59.94627 95.17791,-118.99938 153.33381,-162.66928 84.10633,-63.15633 179.34813,-104.379555 283.33333,-122.634255 35.4365,-6.220905 44.0377,-6.950023 90.0263,-7.631431 69.9784,-1.036863 97.9386,1.142227 150.51,11.730057 151.1734,30.44618 286.2087,113.164469 383.2328,234.756179 64.6015,80.95942 109.9886,179.74598 130.8119,284.71656 6.389,32.20712 7.3374,47.82572 7.3515,121.06933 0.014,71.72219 -0.9414,88.46925 -6.7683,118.66667 -17.2425,89.3575 -50.0393,169.68853 -99.618,243.99992 -23.2295,34.8177 -42.3251,57.8639 -78.8702,95.1874 -30.5545,31.2053 -47.6365,46.6933 -69.3426,62.8721 -97.691,72.8143 -205.623,115.5281 -328.6667,130.0691 -20.9408,2.4747 -98.2884,3.6629 -119.3334,1.8332 z m 99.8095,-47.9866 c 28.6398,-1.827 63.3411,-7.3135 93.5239,-14.7868 19.3095,-4.781 23.2139,-6.4232 25.4216,-10.6924 5.3648,-10.3744 46.4762,-131.262 57.238,-168.3077 l 4.9807,-17.1452 -9.7319,-14.1882 c -13.311,-19.4062 -55.1271,-79.0346 -62.312,-88.85483 -3.2192,-4.4 -7.1454,-8.5948 -8.7248,-9.32178 -1.8308,-0.84271 -57.2387,-1.4335 -152.8716,-1.63002 l -150,-0.30822 -56.6667,50.51265 -56.6667,50.5127 0.3697,5.5586 c 0.5746,8.6392 5.8302,36.3532 20.5766,108.5051 l 13.5904,66.4957 6.065,2.6333 c 23.3748,10.1489 83.8624,27.3932 118.0595,33.6574 40.2896,7.3802 107.4904,10.5274 157.1483,7.3597 z m 431.3354,-232.6418 c 4.6731,-4.8862 29.0267,-41.1018 40.8032,-60.67761 12.9699,-21.55933 37.854,-71.22662 45.4201,-90.65572 18.1081,-46.50047 33.5487,-111.45293 38.6724,-162.67904 l 0.8681,-8.67907 -58.4247,-44.65427 c -32.1336,-24.55985 -70.4203,-53.80428 -85.0817,-64.98761 -14.6614,-11.18333 -27.6875,-20.33333 -28.9469,-20.33333 -6.3337,0 -23.4398,4.98672 -117.7887,34.33737 l -29.3333,9.12521 -16.4441,49.93538 c -9.0443,27.46445 -30.5138,93.00639 -47.71,145.64875 l -31.2659,95.71339 33.1865,47.61994 c 18.2526,26.19101 36.7221,52.84361 41.0433,59.22821 l 7.8569,11.6083 8,0.2248 c 4.4,0.1236 18.8,0.6527 32,1.1757 13.2,0.523 55.6337,0.8981 94.2972,0.8336 68.4788,-0.1143 70.3632,-0.1863 72.8476,-2.784 z m -760.2812,-43.6099 c 19.7713,-17.24739 69.4089,-61.70847 78.2741,-70.11117 7.1119,-6.74082 7.7408,-7.7897 7.087,-11.81878 -1.6487,-10.15977 -85.607,-267.7295 -92.1062,-282.56603 -1.5814,-3.61008 -4.5148,-5.28788 -24.2919,-13.89417 -29.8692,-12.998 -61.36162,-26.1826 -89.60757,-37.51511 l -23.11425,-9.27362 -21.55241,11.61404 c -11.85384,6.3877 -40.15243,21.91334 -62.88577,34.50139 -22.73333,12.58806 -54.08333,29.9302 -69.66667,38.53811 l -28.33333,15.65072 v 21.96652 c 0,61.6753 18.73664,145.25182 47.94236,213.85134 7.25728,17.04617 33.67551,69.11493 38.22092,75.33116 2.11168,2.8879 12.20656,4.2365 125.17006,16.7219 67.28806,7.437 85.55486,9.1392 94.19696,8.778 7.3973,-0.3093 7.7622,-0.5171 20.6667,-11.7743 z m 662.0232,-445.28004 47.5535,-14.92851 31.2873,-88.09077 c 40.3816,-113.69596 41.4975,-117.02614 40.5132,-120.89709 -0.4466,-1.75652 -6.9835,-11.38967 -14.5264,-21.40699 -46.2905,-61.4757 -99.9827,-110.51129 -167.3451,-152.83143 -20.1397,-12.65266 -81.176,-44.30275 -85.3753,-44.27095 -5.8151,0.044 -26.2084,13.3082 -147.5701,95.98237 l -59.6967,40.66667 0.8031,45.88452 c 0.4416,25.23649 0.803,61.96245 0.803,81.61323 v 35.72871 l 89.6666,65.13466 c 49.3167,35.82407 104.2287,75.67019 122.0267,88.54694 l 32.3599,23.41228 30.9734,-9.80756 c 17.0354,-5.39416 52.3725,-16.52539 78.5269,-24.73608 z m -558.4305,-34.69698 c 116.2338,-84.35497 136.9034,-99.77326 147.0938,-109.72334 l 8.2167,-8.02305 0.919,-10.11006 c 1.115,-12.26756 -0.1228,-140.25989 -1.4109,-145.88994 -0.7689,-3.36055 -12.5607,-12.89673 -73.7618,-59.65244 -70.5947,-53.93213 -105.9633,-80.35817 -111.5472,-83.34371 -3.4022,-1.81906 -20.6984,5.08139 -57.4428,22.91726 -44.3465,21.52599 -82.3336,45.79927 -121.85649,77.8648 -18.07404,14.66374 -70.2208,66.64002 -71.34251,71.10928 -0.95692,3.81266 0.53008,12.4912 15.49595,90.43814 16.36682,85.24357 30.67233,156.44709 31.89262,158.74061 0.6069,1.14068 8.45498,5.59103 17.44016,9.88969 16.69254,7.98596 120.93637,52.64606 122.97007,52.68276 0.6177,0.0107 42.6177,-30.09385 93.3334,-66.9 z"
       style="fill:#000000;stroke-width:1.33333" />
  </g>
</svg>
