<?xml version="1.0" encoding="UTF-8" standalone="no"?>
<svg
   xmlns:dc="http://purl.org/dc/elements/1.1/"
   xmlns:cc="http://creativecommons.org/ns#"
   xmlns:rdf="http://www.w3.org/1999/02/22-rdf-syntax-ns#"
   xmlns:svg="http://www.w3.org/2000/svg"
   xmlns="http://www.w3.org/2000/svg"
   xmlns:sodipodi="http://sodipodi.sourceforge.net/DTD/sodipodi-0.dtd"
   xmlns:inkscape="http://www.inkscape.org/namespaces/inkscape"
   version="1.1"
   id="svg610"
   width="1280.1621"
   height="954.67047"
   viewBox="0 0 1280.1621 954.67047"
   sodipodi:docname="хоккей трава.svg"
   inkscape:version="1.0 (4035a4fb49, 2020-05-01)">
  <metadata
     id="metadata616">
    <rdf:RDF>
      <cc:Work
         rdf:about="">
        <dc:format>image/svg+xml</dc:format>
        <dc:type
           rdf:resource="http://purl.org/dc/dcmitype/StillImage" />
        <dc:title></dc:title>
      </cc:Work>
    </rdf:RDF>
  </metadata>
  <defs
     id="defs614" />
  <sodipodi:namedview
     inkscape:document-rotation="0"
     pagecolor="#ffffff"
     bordercolor="#666666"
     borderopacity="1"
     objecttolerance="10"
     gridtolerance="10"
     guidetolerance="10"
     inkscape:pageopacity="0"
     inkscape:pageshadow="2"
     inkscape:window-width="1920"
     inkscape:window-height="1018"
     id="namedview612"
     showgrid="false"
     inkscape:zoom="0.89005236"
     inkscape:cx="17.797789"
     inkscape:cy="437.95973"
     inkscape:window-x="-6"
     inkscape:window-y="-6"
     inkscape:window-maximized="1"
     inkscape:current-layer="g618" />
  <g
     transform="translate(-625.64415,-39.54027)"
     inkscape:groupmode="layer"
     inkscape:label="Image"
     id="g618">
    <path
       id="path8"
       d="m 1446.8059,992.29399 c -13.1846,-1.52394 -23.697,-3.50049 -43.026,-8.08972 -2.0101,-0.47727 -6.0331,-3.07181 -9.358,-6.03522 -5.5461,-4.94317 -5.8069,-5.38592 -5.3182,-9.02928 0.9752,-7.27101 3.5555,-10.32409 15.7022,-18.5799 12.6167,-8.57526 18.5768,-15.26054 25.6193,-28.73634 2.0121,-3.85 7.0174,-12.98986 11.123,-20.3108 l 7.4647,-13.3108 -0.6948,-10.1892 c -0.6535,-9.58289 -1.0422,-10.96277 -6.5315,-23.1892 -3.2102,-7.15 -14.5999,-33.25 -25.3106,-58 -10.7107,-24.75 -24.0181,-54.61611 -29.572,-66.36914 l -10.0981,-21.36914 v -8.63356 -8.63356 l -12.3472,-18.9973 c -6.791,-10.44851 -17.1047,-26.75751 -22.9194,-36.24222 l -10.5722,-17.24492 -1.7275,-12.75508 -1.7275,-12.75508 7.5846,-15 c 10.6469,-21.05631 24.7886,-41.7342 38.6785,-56.55523 6.2343,-6.65226 15.5601,-17.53949 20.724,-24.19385 l 9.3888,-12.09884 -4.7826,-4.85563 c -3.8173,-3.87553 -6.1181,-5.25336 -11.3989,-6.82604 -3.6389,-1.08373 -7.0215,-1.97041 -7.5168,-1.97041 -0.4953,0 -6.2967,8.65207 -12.8922,19.22682 -6.5954,10.57475 -17.9412,27.45933 -25.2128,37.52129 -12.1185,16.76865 -15.1812,20.21858 -36.7218,41.36452 l -23.5005,23.07005 -2.2507,6.98818 c -1.9246,5.97563 -2.7091,7.17971 -5.4142,8.30996 l -3.1634,1.32177 -0.1615,11.66493 c -0.1586,11.45292 -0.2441,11.8591 -4.7086,22.3487 -7.4998,17.62107 -6.9578,16.99221 -19.6624,22.81495 -6.1577,2.82215 -14.1207,5.71093 -17.6957,6.41952 -4.7112,0.93379 -7.5695,2.19455 -10.3861,4.58121 -4.2547,3.60528 -4.0046,3.63376 -11.9584,-1.36171 -2.1145,-1.32801 -4.0138,-2.24526 -4.2207,-2.03833 -0.2069,0.20693 -10e-4,2.74848 0.4571,5.6479 0.4759,3.01089 0.4372,7.12883 -0.09,9.60218 l -0.9236,4.33052 -10.5432,-4.93563 -10.5431,-4.93563 -30.1459,16.35477 -30.1459,16.35477 -8.9966,14.04095 -8.9967,14.04094 -13.0937,6.19806 c -7.2816,3.44685 -17.1962,7.24193 -22.336,8.54973 -5.0833,1.29343 -9.3369,2.50196 -9.4525,2.68563 -1.6597,2.63769 -11.0955,12.83395 -11.8767,12.83395 -0.58,0 -3.4335,-2.25 -6.3412,-5 -2.9078,-2.75 -5.8853,-5 -6.6168,-5 -10.3966,0 -49.70631,21.12902 -123.78972,66.53713 -45.58751,27.94205 -60.46583,36.42353 -113,64.41638 -47.68783,25.41047 -67.27669,35.25343 -92.5,46.47918 l -32,14.24175 -15.5,-5.22626 c -8.525,-2.87444 -16.31275,-5.55902 -17.3061,-5.96573 -0.99336,-0.40672 -4.29231,-5.69685 -7.33101,-11.75585 l -5.52492,-11.01636 2.09019,-11.10512 c 1.1496,-6.10782 2.09594,-12.45512 2.10297,-14.10512 0.0233,-5.46149 3.39398,-11.07879 8.4128,-14.02001 5.91539,-3.46665 16.3877,-6.73906 19.25954,-6.01828 3.04875,0.76519 9.29653,9.18304 9.29653,12.52554 0,1.48481 -0.83506,5.1326 -1.85568,8.1062 -1.22955,3.58231 -1.74774,7.43102 -1.53578,11.40655 0.17594,3.3 0.336,6.5625 0.35568,7.25 0.10532,3.67934 12.59251,-0.49953 34.88467,-11.67425 6.48085,-3.24875 61.25361,-32.55255 121.71724,-65.11955 71.47951,-38.50039 123.57589,-65.85531 148.93387,-78.20263 21.45,-10.44445 43.45642,-21.22543 48.90322,-23.95774 l 9.9032,-4.96783 -5.9032,-2.60561 c -3.2468,-1.43308 -6.0278,-2.68143 -6.18,-2.77411 -0.2282,-0.13892 21.0454,-43.72183 23.6078,-48.36496 0.43,-0.77917 6.6064,-3.09011 13.7254,-5.13542 12.8109,-3.68062 24.8134,-8.26038 27.1545,-10.36123 0.666,-0.59767 10.0223,-17.65109 20.7917,-37.89649 l 19.5808,-36.80982 5.2612,-25.19018 5.2611,-25.19018 7.2794,-12.32471 c 9.1338,-15.46451 9.6324,-16.70264 11.1434,-27.67529 1.2366,-8.97969 1.2313,-9.02934 -2.3437,-22 -5.942,-21.55851 -8.4442,-34.40329 -9.0581,-46.5 -0.321,-6.325 -1.2389,-15.46595 -2.0396,-20.31323 -1.3879,-8.4013 -1.9987,-9.74459 -13.0685,-28.73977 -6.387,-10.95959 -13.7684,-24.09364 -16.4032,-29.18677 -2.6348,-5.09312 -6.8196,-12.41023 -9.2996,-16.26023 -9.6773,-15.02292 -9.4642,-18.93296 2.4248,-44.5 2.4297,-5.225 6.7669,-12.71742 9.6383,-16.64983 4.8179,-6.59821 5.2661,-7.69162 5.8094,-14.17216 l 0.5887,-7.02232 -11.8885,4.81301 c -8.4597,3.42487 -13.6922,4.93507 -18.1422,5.23623 l -6.2537,0.42322 -3.8897,-6.06407 c -2.1394,-3.33525 -4.438,-7.63908 -5.108,-9.56408 -0.7244,-2.08142 -2.9968,-4.86459 -5.6065,-6.86679 -2.7414,-2.10317 -4.3935,-4.16743 -4.4021,-5.5 -0.029,-4.51246 -1.2989,-6.3529 -6.5522,-9.49502 -5.0062,-2.99436 -5.4349,-3.5412 -5.4439,-6.94425 -0.01,-2.03167 -1.0772,-5.98629 -2.3818,-8.78806 -1.9525,-4.19329 -3.1171,-5.39225 -6.5856,-6.78009 -3.3376,-1.33544 -4.0614,-2.04356 -3.4809,-3.40588 0.403,-0.94595 1.0085,-8.16077 1.3454,-16.03293 0.6029,-14.08455 0.5754,-14.34794 -1.7238,-16.5 -1.2851,-1.20284 -3.5351,-2.18698 -5,-2.18698 -3.3105,0 -3.4955,-0.79947 -5.6697,-24.5 -2.2612,-24.64858 -3.1574,-27.40811 -11.7221,-36.09257 -5.7077,-5.78754 -6.8471,-7.471052 -6.3626,-9.401441 0.934,-3.721144 5.7882,-7.842037 11.6729,-9.909438 18.8845,-6.634478 33.3812,-15.501408 48.8257,-29.864226 10.4887,-9.754137 24.5569,-17.614837 29.3317,-16.389314 1.2433,0.319114 5.5117,1.474259 9.4852,2.566989 9.4216,2.590942 30.2113,5.686723 47.7754,7.114182 12.4564,1.012356 14.3658,1.415811 17.3176,3.659307 2.3597,1.793396 3.1122,2.997233 2.606,4.169006 -1.4722,3.40793 -2.6843,11.972684 -2.0514,14.494597 0.3616,1.440536 3.2107,6.339251 6.3313,10.886032 8.9935,13.103427 13.9946,22.888866 13.1841,25.796996 -1.5456,5.54631 -0.8228,9.13898 3.6175,17.98011 3.9473,7.8596 4.4884,9.7115 4.3698,14.95685 -0.236,10.44155 1.7814,11.72836 21.9738,14.01578 8.5016,0.96308 9.35,0.86697 22.6038,-2.56049 l 13.7707,-3.56113 30.1698,3.56938 c 16.5934,1.96316 31.2039,3.56938 32.4678,3.56938 7.9735,0 42.7039,18.65778 131.6948,70.74888 35.3978,20.72021 90.7313,55.36984 104.8271,65.64229 7.2262,5.26622 16.077,13.4237 28.9996,26.72802 20.0254,20.61694 20.7644,21.6954 26.6452,38.88081 l 3.2508,9.5 0.8208,28 c 1.4882,50.77281 -0.5456,61.61937 -15.6601,83.51667 -4.739,6.86583 -8.8349,13.0073 -9.1019,13.64772 -0.267,0.64041 3.6767,8.67554 8.7637,17.85583 l 9.2492,16.69146 4.7322,21.14416 c 2.9705,13.27275 6.6476,26.35599 9.8773,35.14416 7.7816,21.17422 7.9399,21.64351 9.0567,26.85761 1.5231,7.11048 10.3122,25.16522 13.1174,26.94578 1.3015,0.82615 7.7833,2.86641 14.404,4.53391 24.8194,6.25109 29.2062,8.91697 55.6345,33.80892 l 20.3279,19.14621 7.2232,12.90431 c 3.9728,7.09738 8.2478,13.81985 9.5,14.93884 1.2522,1.11899 10.5556,8.03753 20.6742,15.37453 14.1167,10.23609 21.1352,16.15337 30.164,25.43132 l 11.7666,12.09131 13.336,3.25364 c 13.1685,3.21276 13.636,3.25338 37.2143,3.23362 l 23.8782,-0.02 5.3448,3.05794 c 8.6037,4.92258 9.3987,6.48023 9.3987,18.416 0,8.68764 -0.6511,12.83957 -4.3807,27.93595 -4.9666,20.10285 -5.0686,20.27175 -17.4196,28.84312 -4.0151,2.78645 -7.7697,5.9435 -8.3435,7.01567 -0.7042,1.31588 -0.8271,13.2072 -0.3781,36.59036 l 0.6652,34.64096 -7.3217,11.36845 -7.3216,11.36845 -15.3723,9.91945 -15.3723,9.91944 -17.1277,2.96104 c -27.4968,4.75365 -29.2245,4.3758 -27.602,-6.03683 0.557,-3.575 1.2721,-7.77029 1.589,-9.32288 0.3169,-1.55258 3.5014,-6.05258 7.0767,-10 8.0896,-8.93172 12.2868,-16.0186 12.2992,-20.76716 0.017,-6.51985 -3.8832,-18.96245 -8.8572,-28.25591 -2.6946,-5.03473 -5.4018,-10.73539 -6.0161,-12.66815 -0.6142,-1.93275 -3.3925,-6.32672 -6.174,-9.76438 -2.7816,-3.43765 -5.7582,-7.93131 -6.6147,-9.9859 -0.8566,-2.05459 -2.4059,-4.93009 -3.443,-6.38999 -2.4363,-3.42966 -2.3806,-6.47239 0.2266,-12.36645 4.5422,-10.26829 4.6184,-9.91402 -3.3333,-15.49831 -3.9009,-2.73948 -7.6272,-4.98087 -8.2807,-4.98087 -2.0419,0 -13.1312,-7.64663 -19.2587,-13.27978 -6.5775,-6.04689 -26.0818,-20.84646 -62.0079,-47.05066 l -24.2685,-17.70118 -19.4617,-7.91756 c -18.7972,-7.64722 -29.6954,-13.50802 -30.8856,-16.60953 -0.3141,-0.81859 -0.3015,-3.4551 0.028,-5.8589 0.7138,-5.20728 1.6867,-4.76363 -15.6437,-7.13358 l -12.5,-1.70939 -8.8757,-6.11971 c -8.1591,-5.62566 -9.472,-7.02243 -16.2625,-17.30158 -6.6193,-10.01973 -10.3596,-14.07302 -35.9888,-39 -15.7309,-15.29997 -33.4908,-33.44313 -39.4664,-40.31813 -10.5172,-12.10023 -10.8653,-12.65191 -10.8857,-17.25 -0.012,-2.6125 -0.2602,-4.75 -0.5527,-4.75 -1.4613,0 -21.7221,12.61468 -22.4081,13.9516 -1.5867,3.09246 -3.2376,14.96501 -2.533,18.21568 1.4354,6.62174 7.1695,16.27743 12.6164,21.24446 11.7722,10.73526 15.0782,14.11633 16.5097,16.8845 3.9711,7.67932 17.7573,45.35825 19.8323,54.20376 4.1573,17.72125 7.447,35.57374 9.9508,54 3.7853,27.85631 10.9481,56.79771 20.9569,84.67555 4.675,13.02156 10.6038,27.87156 13.175,33 8.0909,16.13773 12.3536,30.27699 13.9658,46.32445 2.1819,21.71748 3.0975,18.97322 -9.1156,27.3219 l -10.5815,7.23342 -11.0623,-1.54293 -11.0623,-1.54292 -5.1062,2.87833 c -4.8078,2.71017 -5.6123,3.81276 -7.1956,9.86154 -0.7917,3.02451 -24.0398,11.43862 -30.8673,11.17167 -1.6738,-0.0654 -10.0182,-0.92519 -18.5432,-1.91055 z M 1179.9726,646.61746 c -0.1833,-4.28666 0.1006,-8.91893 0.6309,-10.29393 1.3416,-3.47905 24.1452,-29.88411 39.2941,-45.5 l 12.6112,-13 10.8985,-20.65139 c 9.5976,-18.18629 11.3873,-20.96081 14.9932,-23.24352 3.9172,-2.47982 4.9758,-4.46627 24.434,-45.84861 25.0101,-53.19003 29.3187,-63.68158 28.4891,-69.3723 l -0.6,-4.11582 -8.2089,-0.60825 c -4.5148,-0.33453 -12.983,-0.90208 -18.8182,-1.26122 l -10.6093,-0.65298 -12.3907,-9.71874 c -12.2325,-9.59472 -12.5438,-9.76413 -24.3906,-13.27548 -11.6469,-3.45208 -26.1127,-6.4976 -26.8977,-5.66283 -0.2126,0.22613 2.2139,13.68614 5.3922,29.91114 5.4995,28.07481 5.8486,30.78026 7.2259,56 0.9743,17.84193 1.2032,32.2457 0.7005,44.08605 l -0.7466,17.58604 -3.9445,8.41396 c -2.1695,4.62767 -9.0309,21.23895 -15.2476,36.91395 l -11.303,28.5 -10.6908,13.0015 c -10.4187,12.67064 -44.9884,58.09165 -44.9884,59.11005 0,0.2807 10.0125,-4.6723 22.25,-11.00666 l 22.25,-11.51703 z"
       style="fill:#000000" />
  </g>
</svg>
