<?xml version="1.0" encoding="UTF-8" standalone="no"?>
<svg
   xmlns:dc="http://purl.org/dc/elements/1.1/"
   xmlns:cc="http://creativecommons.org/ns#"
   xmlns:rdf="http://www.w3.org/1999/02/22-rdf-syntax-ns#"
   xmlns:svg="http://www.w3.org/2000/svg"
   xmlns="http://www.w3.org/2000/svg"
   xmlns:sodipodi="http://sodipodi.sourceforge.net/DTD/sodipodi-0.dtd"
   xmlns:inkscape="http://www.inkscape.org/namespaces/inkscape"
   inkscape:version="1.0 (4035a4fb49, 2020-05-01)"
   sodipodi:docname="волейбол.svg"
   viewBox="0 0 1221.3483 1222.7583"
   height="1222.7583"
   width="1221.3483"
   id="svg476"
   version="1.1">
  <metadata
     id="metadata482">
    <rdf:RDF>
      <cc:Work
         rdf:about="">
        <dc:format>image/svg+xml</dc:format>
        <dc:type
           rdf:resource="http://purl.org/dc/dcmitype/StillImage" />
        <dc:title></dc:title>
      </cc:Work>
    </rdf:RDF>
  </metadata>
  <defs
     id="defs480" />
  <sodipodi:namedview
     inkscape:current-layer="g484"
     inkscape:window-maximized="1"
     inkscape:window-y="-6"
     inkscape:window-x="-6"
     inkscape:cy="265.36289"
     inkscape:cx="1070.7769"
     inkscape:zoom="0.34327191"
     showgrid="false"
     id="namedview478"
     inkscape:window-height="1018"
     inkscape:window-width="1920"
     inkscape:pageshadow="2"
     inkscape:pageopacity="0"
     guidetolerance="10"
     gridtolerance="10"
     objecttolerance="10"
     borderopacity="1"
     bordercolor="#666666"
     pagecolor="#ffffff"
     inkscape:document-rotation="0" />
  <g
     transform="translate(549.41266,-399.09445)"
     id="g484"
     inkscape:label="Image"
     inkscape:groupmode="layer">
    <path
       id="path8"
       d="m -17.262943,1617.8086 c -44.37852,-6.5006 -74.33122,-13.5141 -115.759067,-27.1049 -39.87352,-13.0809 -40.4918,-13.4155 -38.67907,-20.9274 1.0132,-4.1987 2.27935,-8.143 2.81366,-8.7651 0.5343,-0.6221 13.95673,1.0072 29.82759,3.6207 48.833637,8.0417 82.613847,10.5736 141.776037,10.6263 l 56.86042,0.051 3.26198,7.0996 c 2.6972,5.8704 2.09117,9.0366 -3.50036,18.2869 -12.38886,20.4957 -13.91672,21.4572 -33.53858,21.1075 -9.89082,-0.1765 -29.26901,-1.9738 -43.06261,-3.9943 z m 152.158653,-14.7997 c -4.16405,-6.3022 -3.67562,-8.1216 7.56827,-28.1906 51.13447,-91.2694 77.17834,-206.4015 67.88863,-300.1149 -9.46235,-95.4551 -41.42903,-181.4865 -90.15899,-242.6434 -10.04185,-12.6027 -19.15407,-25.2408 -20.249353,-28.0847 -2.91457,-7.56763 29.365433,-68.50929 53.054453,-100.16195 27.52499,-36.77818 84.45271,-92.85719 93.0192,-91.63241 3.99141,0.57067 14.86926,11.0915 28.18759,27.26246 85.24634,103.50506 143.63455,228.4207 161.38046,345.257 5.71215,37.6078 5.77266,111.9607 0.1192,146.2953 -9.36335,56.8646 -23.02592,96.1232 -58.40603,167.8267 l -20.73005,42.0127 -19.47497,8.7357 c -45.76496,20.5282 -114.16878,42.5609 -166.14576,53.5151 l -31.6012,6.6599 -4.45134,-6.7369 z m -172.812163,-83.6323 c -116.206957,-5.6811 -251.228787,-46.2076 -331.584227,-99.5243 -26.90221,-17.8499 -63.4916,-51.0807 -80.80023,-73.3834 -34.79691,-44.8368 -68.91762,-120.1972 -84.59501,-186.84 -3.91127,-16.6263 -3.89233,-16.7372 3.42169,-20.042 6.93182,-3.132 9.07562,-1.5922 37.2825,26.779 96.2199,96.7804 207.73451,150.3786 355.95822,171.087 46.272807,6.4648 183.073677,6.6087 237.150057,0.2493 48.153873,-5.6628 47.872543,-5.9046 41.916863,36.0314 -8.03108,56.5502 -26.45204,124.2064 -36.73182,134.9081 -8.422243,8.7679 -76.693553,13.9284 -142.018043,10.7349 z m 510.519333,-66.7319 -7.2937,-5.6179 6.9141,-21.2887 c 22.823,-70.2725 31.6802,-153.148 23.8844,-223.4823 -14.1903,-128.0256 -70.74888,-258.10312 -169.98541,-390.94484 -18.68597,-25.01376 -22.23389,-34.3486 -15.14189,-39.83935 14.619,-11.31832 112.78939,-43.0309 152.0393,-49.11421 11.9047,-1.84511 13.2161,-1.32067 22.8923,9.1553 16.7475,18.13161 50.2644,69.81377 68.8586,106.17826 66.2667,129.59683 95.0491,279.46184 74.208,386.38894 -5.1661,26.5048 -21.9347,71.3872 -35.3736,94.6795 -19.2021,33.2811 -56.9061,82.0479 -86.8628,112.349 l -26.8456,27.1542 z M -83.649233,1286.7379 c -122.209157,-12.9885 -218.273367,-44.2237 -292.099667,-94.976 -55.42125,-38.0997 -93.19301,-78.0124 -143.16657,-151.2815 l -30.49719,-44.71368 3.51684,-29.72487 c 4.57127,-38.63706 16.26682,-94.62007 28.58741,-136.83912 13.97214,-47.87843 17.63524,-55.59223 26.39939,-55.59223 5.801,0 9.54018,3.9625 19.1721,20.31715 32.06867,54.45141 94.07164,123.49748 143.39857,159.68761 77.05226,56.53164 166.95812,90.53604 259.194937,98.03334 29.59642,2.4057 55.36032,1.2169 103.9881,-4.7984 l 15.22636,-1.8835 14.97111,20.1264 c 29.61065,39.8071 60.679433,112.2431 73.926573,172.3575 7.55968,34.3053 7.15133,34.7125 -42.637353,42.5153 -37.19562,5.8293 -149.19879,10.0435 -179.98061,6.772 z m 1.47525,-302.55727 c -30.086317,-4.84913 -48.542357,-8.98792 -80.675087,-18.09147 -42.84144,-12.13742 -42.72339,-11.85009 -24.10472,-58.66873 30.31532,-76.2311 66.0474,-138.53626 116.173287,-202.56873 24.89029,-31.79563 93.29224,-97.36666 124.3296,-119.18403 52.382423,-36.82158 120.662493,-66.5036 182.931113,-79.52195 12.17082,-2.54452 49.09222,-6.86376 82.04756,-9.59831 70.63194,-5.86085 62.7734,-8.04041 112.03725,31.07341 36.15796,28.70814 114.00586,104.36527 116.99396,113.70151 1.1007,3.43923 0.5533,8.93619 -1.2164,12.21549 -2.8953,5.36474 -6.0906,5.96771 -31.8814,6.01593 -85.12481,0.15917 -184.32649,27.32167 -260.27796,71.26695 -53.39824,30.89602 -113.27864,83.98057 -149.73964,132.74557 -17.984463,24.05344 -43.072113,69.90427 -52.439213,95.8393 -9.54408,26.42492 -9.12779,26.25838 -67.13383,26.86187 -27.94922,0.29084 -58.11925,-0.64829 -67.04452,-2.08681 z M 647.01408,906.95644 c -18.167,-49.78822 -48.9607,-111.10911 -78.4995,-156.3191 -12.2764,-18.7895 -13.6463,-22.39785 -10.8299,-28.52759 2.9176,-6.35013 5.0338,-7.01738 22.255,-7.01738 14.1894,0 20.345,1.30258 24.197,5.12034 10.8895,10.79293 41.4971,85.65866 54.2582,132.71523 7.3426,27.07578 15.1292,69.86957 13.2592,72.87011 -0.7496,1.20273 -4.6467,2.80928 -8.6602,3.57014 -6.7718,1.28371 -7.9227,-0.33034 -15.9798,-22.41175 z m -937.42904,-8.3163 c -53.84014,-41.18898 -101.57244,-90.21261 -101.54925,-104.2966 0.0206,-11.83386 41.65026,-92.90374 66.22608,-128.96572 28.38804,-41.65593 51.63735,-69.97227 88.60014,-107.90995 103.13296,-105.85319 205.872737,-158.37342 309.809207,-158.37342 43.519693,0 113.527873,10.24436 156.432743,22.89094 16.03385,4.72612 17.78217,6.03097 18.54246,13.83936 l 0.83941,8.62125 -38.50466,9.35775 c -193.819913,47.10382 -345.03905,190.35812 -447.23263,423.67644 -15.78138,36.03052 -15.30234,35.2606 -23.42787,37.65504 -4.28699,1.26332 -12.42017,-3.24837 -29.73563,-16.49509 z M -444.27542,723.13861 c -1.57453,-2.01156 -5.96553,-9.25452 -9.7578,-16.0955 -6.50779,-11.73958 -6.63811,-12.972 -2.32055,-21.9443 14.7362,-30.62327 96.4945,-122.65155 133.14956,-149.87502 l 11.23769,-8.34615 6.16469,6.11331 6.16469,6.11331 -19.03764,22.89262 c -35.52584,42.71955 -68.26626,91.81782 -93.7972,140.66039 -11.1867,21.40098 -13.54342,24.13873 -20.77922,24.13873 -4.48879,0 -9.44969,-1.64583 -11.02422,-3.65739 z"
       style="fill:#000000;stroke-width:2.93818" />
  </g>
</svg>
