<?xml version="1.0" encoding="UTF-8" standalone="no"?>
<svg
   xmlns:dc="http://purl.org/dc/elements/1.1/"
   xmlns:cc="http://creativecommons.org/ns#"
   xmlns:rdf="http://www.w3.org/1999/02/22-rdf-syntax-ns#"
   xmlns:svg="http://www.w3.org/2000/svg"
   xmlns="http://www.w3.org/2000/svg"
   xmlns:sodipodi="http://sodipodi.sourceforge.net/DTD/sodipodi-0.dtd"
   xmlns:inkscape="http://www.inkscape.org/namespaces/inkscape"
   inkscape:version="1.0 (4035a4fb49, 2020-05-01)"
   sodipodi:docname="туризм.svg"
   viewBox="0 0 595.96326 586.1568"
   height="586.1568"
   width="595.96326"
   id="svg566"
   version="1.1">
  <metadata
     id="metadata572">
    <rdf:RDF>
      <cc:Work
         rdf:about="">
        <dc:format>image/svg+xml</dc:format>
        <dc:type
           rdf:resource="http://purl.org/dc/dcmitype/StillImage" />
        <dc:title></dc:title>
      </cc:Work>
    </rdf:RDF>
  </metadata>
  <defs
     id="defs570" />
  <sodipodi:namedview
     inkscape:current-layer="g574"
     inkscape:window-maximized="1"
     inkscape:window-y="-6"
     inkscape:window-x="-6"
     inkscape:cy="320.84746"
     inkscape:cx="605.77427"
     inkscape:zoom="0.7"
     showgrid="false"
     id="namedview568"
     inkscape:window-height="1018"
     inkscape:window-width="1920"
     inkscape:pageshadow="2"
     inkscape:pageopacity="0"
     guidetolerance="10"
     gridtolerance="10"
     objecttolerance="10"
     borderopacity="1"
     bordercolor="#666666"
     pagecolor="#ffffff"
     inkscape:document-rotation="0" />
  <g
     transform="translate(342.23217,-8.3111136)"
     id="g574"
     inkscape:label="Image"
     inkscape:groupmode="layer">
    <path
       id="path8"
       d="m -219.24752,593.89941 c -8.19556,-2.81252 -13.24348,-7.77174 -15.93389,-15.65378 -1.49285,-4.37362 -1.52879,-7.41543 -0.14597,-12.3563 0.58679,-2.09662 1.31686,-4.69956 1.62236,-5.78425 0.30551,-1.08469 2.27449,-7.59286 4.37553,-14.46258 2.10104,-6.86973 4.06787,-13.37789 4.37074,-14.46259 0.30287,-1.08469 2.26971,-7.59285 4.37074,-14.46258 2.10105,-6.86973 4.06925,-13.37789 4.3738,-14.46258 0.30455,-1.0847 1.35613,-4.6346 2.33685,-7.88869 2.50605,-8.31518 2.87508,-9.56044 3.6042,-12.16171 0.35469,-1.26548 1.89769,-6.38258 3.42887,-11.37133 l 2.78397,-9.07047 -2.01063,-7.36429 c -3.71176,-13.59499 -7.18938,-23.20149 -17.18269,-47.46509 -4.16964,-10.12381 -8.96858,-22.42099 -10.66433,-27.32708 -7.37909,-21.34904 -11.64954,-45.43776 -11.1069,-62.65173 l 0.22532,-7.14765 24.87961,-14.09642 c 13.68378,-7.75303 26.42588,-14.96247 28.31577,-16.02099 l 3.43616,-1.92456 3.05481,7.06257 c 1.68014,3.88442 4.77685,11.05623 6.88157,15.93735 2.10471,4.88112 4.58638,10.50181 5.51481,12.49041 0.92843,1.98861 2.1707,4.79895 2.76061,6.24521 0.5899,1.44626 3.31528,7.04002 6.05639,12.43058 5.62378,11.05952 7.37001,13.0932 17.61008,20.50905 8.55291,6.19401 12.88831,8.98783 22.86235,14.73298 11.38558,6.55822 33.540034,20.63439 43.247654,27.47806 12.66447,8.92819 13.71719,10.68867 16.21661,27.11933 0.95868,6.30217 2.04898,13.38137 2.42288,15.73154 0.3739,2.35017 0.96813,6.1959 1.32052,8.54607 0.35239,2.35017 0.94662,6.1959 1.32052,8.54607 0.3739,2.35017 1.4314,9.30207 2.34999,15.44867 0.91859,6.1466 2.20759,14.57763 2.86444,18.73562 1.50205,9.50831 1.49149,13.20446 -0.0506,17.72378 -5.49894,16.11497 -26.7263,21.04665 -38.82266,9.01953 -4.78883,-4.76143 -6.28128,-8.6959 -8.024814,-21.1555 -0.35417,-2.53095 -0.9517,-6.52459 -1.32786,-8.87476 -0.37616,-2.35017 -0.99368,-6.34382 -1.37227,-8.87477 -1.29566,-8.66183 -1.87436,-12.50315 -3.66436,-24.32344 -0.98556,-6.50816 -2.05389,-13.76246 -2.37408,-16.12067 -0.32018,-2.3582 -0.79429,-4.8281 -1.05356,-5.48865 -0.5041,-1.2843 -24.40013,-16.9768 -34.16453,-22.43582 -8.50085,-4.75259 -23.051,-14.08138 -29.70746,-19.04685 -3.16262,-2.35919 -6.30448,-4.57945 -6.98191,-4.93389 -1.46658,-0.76735 -1.40746,-0.54297 4.02948,15.29334 4.96078,14.44938 8.24517,23.29828 17.04919,45.93443 5.8623,15.07263 5.91497,13.99405 -1.93704,39.66762 -2.10104,6.86973 -4.09625,13.45185 -4.4338,14.62693 -0.33755,1.17509 -0.8899,3.09795 -1.22745,4.27304 -0.33755,1.17508 -2.33276,7.7572 -4.4338,14.62693 -2.10104,6.86973 -4.07339,13.37789 -4.383,14.46258 -0.30962,1.0847 -1.36535,4.6346 -2.34607,7.88869 -0.98072,3.25408 -2.03118,6.80398 -2.33437,7.88868 -3.78067,13.526 -9.59827,31.57057 -11.1337,34.53369 -1.35907,2.62272 -7.43956,7.8263 -10.92005,9.3452 -3.6442,1.59035 -12.68983,2.20922 -15.94798,1.09107 z m 205.088694,-89.75613 c -4.84372,-1.14825 -8.25654,-3.51324 -10.31447,-7.14765 -0.9906,-1.74948 -1.13997,-5.68379 -1.3228,-34.84168 -0.13038,-20.79383 0.0582,-34.819 0.51342,-38.17592 0.70251,-5.1809 4.16866,-15.79255 7.6878,-23.53621 2.48406,-5.46605 2.37178,-5.92588 -1.71231,-7.01315 -5.41672,-1.44205 -9.09132,-4.03045 -9.93411,-6.99763 -0.93272,-3.2838 -0.91395,-10.0439 0.0381,-13.74053 0.94049,-3.65156 4.19152,-6.45447 8.71761,-7.51599 2.65026,-0.62158 4.15092,-0.55548 8.47205,0.37314 2.8882103,0.62069 6.1590603,1.25721 7.2685603,1.41449 2.30531,0.32679 1.1686,2.12078 11.10755,-17.53017 7.8486697,-15.51808 10.9936997,-19.723 17.8543897,-23.87141 5.45512,-3.2985 8.66056,-3.98413 20.46107,-4.37656 l 11.095,-0.36895 0.33621,-11.50433 c 0.37757,-12.91966 0.6216,-13.67734 5.08735,-15.79546 2.64299,-1.25357 4.32941,-1.29668 50.723666,-1.29668 46.39425,0 48.08067,0.0431 50.72366,1.29668 4.46575,2.11812 4.70979,2.8758 5.08736,15.79546 l 0.33621,11.50433 11.09496,0.36895 c 12.21445,0.40619 15.13744,1.08203 21.27167,4.91833 6.16588,3.85609 9.84846,9.05708 18.14977,25.63334 4.17101,8.3288 7.74142,15.29749 7.93423,15.48599 0.19281,0.18851 3.30886,-0.38282 6.92454,-1.26962 5.7683,-1.41475 7.01645,-1.52228 10.18432,-0.87734 7.45012,1.51676 10.56673,6.30781 10.04904,15.44821 -0.35013,6.18232 -1.82388,9.097 -5.45721,10.79274 -4.50673,2.10339 -6.48768,2.7984 -7.97602,2.7984 -1.65512,0 -1.7545,-0.38495 2.63048,10.18955 3.17721,7.66193 4.55761,11.7704 6.13251,18.25201 0.5144,2.1172 0.76098,13.96559 0.76098,36.56685 0,36.50124 -0.0572,37.10405 -3.89255,41.04028 -3.61999,3.7152 -5.21837,4.03309 -20.36011,4.04934 -13.36051,0.0143 -13.9386,-0.0397 -17.02518,-1.59105 -5.95194,-2.99152 -7.13654,-6.12437 -7.13654,-18.87373 v -9.43646 l -89.26402,0.16676 -89.264006,0.16675 -0.34678,10.18955 c -0.42293,12.42693 -1.24217,14.48005 -7.12439,17.85482 -2.44716,1.40399 -3.43589,1.50915 -15.39117971,1.63687 -7.02680999,0.0751 -13.38119029,-0.007 -14.12086029,-0.18232 z m 71.33561,-55.00945 c 1.56739,-1.78219 1.62217,-2.19722 1.62217,-12.2894 0,-10.09357 -0.0546,-10.50698 -1.62283,-12.28941 l -1.62283,-1.84448 H 31.229654 6.9060243 l -1.62283,1.84448 c -1.56436,1.77801 -1.62284,2.2112 -1.62284,12.0205 0,10.87661 0.50741,12.83754 3.65103,14.10993 0.76568,0.30991 11.9336297,0.50258 24.8176797,0.42817 l 23.42554,-0.13531 z m 161.383396,-0.12769 c 1.54826,-1.89259 1.6135,-2.38847 1.6167,-12.28941 0.003,-9.96087 -0.0527,-10.38094 -1.6195,-12.16171 l -1.62283,-1.84448 h -24.32363 -24.32363 l -1.62283,1.84448 c -1.56668,1.78066 -1.62284,2.2021 -1.62284,12.17979 0,11.04825 0.41332,12.64694 3.60217,13.93297 0.79255,0.31963 11.98496,0.52025 24.87202,0.44584 l 23.43102,-0.13531 z m -10.25359,-50.49041 c 2.38694,-1.52917 4.47127,-4.88954 4.47447,-7.21376 0.003,-1.80071 -2.64856,-7.83639 -10.69012,-24.33842 -2.25536,-4.62819 -4.10064,-8.52403 -4.10064,-8.65742 0,-0.13339 -2.10068,-4.48189 -4.66819,-9.66334 -4.89924,-9.88712 -7.33761,-12.9373 -11.40217,-14.26307 -3.31341,-1.08076 -136.361766,-1.05611 -140.055946,0.026 -4.87811,1.42884 -7.09026,4.81228 -17.54773,26.83889 -1.28744,2.71173 -4.79745,10.06958 -7.80003,16.35076 -3.00258,6.28117 -5.45923,12.28632 -5.45923,13.34478 0,3.82909 3.0225,7.5491 6.86478,8.44901 1.2171,0.28505 44.135,0.47204 95.373106,0.41551 88.56008,-0.0977 93.25161,-0.16133 95.0117,-1.28891 z m -126.645286,-87.56152 0.33621,-8.54607 3.36211,-0.3287 c 3.21268,-0.31409 3.36211,-0.41634 3.36211,-2.30086 v -1.97217 h -10.42254 -10.42254 v 1.97217 c 0,1.86666 0.16117,1.98337 3.01271,2.18171 1.65698,0.11525 3.39688,0.52126 3.86642,0.90223 0.60626,0.4919 0.85372,3.06224 0.85372,8.86737 v 8.17469 l 2.8578,-0.20215 2.85779,-0.20215 z m 16.09137,6.40955 c 0.95044,-2.11111 1.01666,-2.13652 5.570156,-2.13652 4.55383,0 4.62469,0.0272 5.99687,2.30087 1.25252,2.07541 1.67858,2.30087 4.34806,2.30087 1.62772,0 2.95948,-0.2874 2.95948,-0.63865 0,-0.82047 -2.25374,-5.75217 -6.70792,-14.67841 l -3.54271,-7.09969 -3.09011,0.19709 c -3.401506,0.21695 -3.11365,-0.11291 -6.769626,7.75707 -4.52328,9.73694 -6.11408,13.3619 -6.11408,13.93214 0,0.33137 1.4373,0.51232 3.194,0.40212 2.87684,-0.18047 3.28952,-0.41253 4.15588,-2.33689 z m 4.393876,-7.433 c -0.67718,-1.07121 0.27247,-3.90698 1.30838,-3.90698 1.00082,0 2.03086,2.9542 1.38582,3.97458 -0.53006,0.83848 -2.14706,0.7979 -2.6942,-0.0676 z m 27.0886,6.78096 2.8578,-3.12795 2.85779,3.12795 c 2.65309,2.90389 3.08658,3.12757 6.0518,3.12261 1.7567,-0.003 3.194,-0.29787 3.194,-0.6554 0,-0.72061 -5.74753,-8.29197 -6.75803,-8.90254 -1.35653,-0.81964 -0.4823,-3.42251 2.40521,-7.16107 3.82599,-4.95366 3.83058,-5.63761 0.0379,-5.63761 -2.66729,0 -3.20894,0.28105 -5.31211,2.7564 l -2.34198,2.7564 -2.53105,-2.7564 c -2.23381,-2.43267 -2.87348,-2.7564 -5.44665,-2.7564 -4.2218,0 -4.11128,0.38904 2.47231,8.70268 1.61172,2.03526 1.71895,1.76434 -3.1702,8.01012 -1.9594,2.5031 -3.56255,4.79574 -3.56255,5.09478 0,0.29902 1.4373,0.54609 3.19401,0.54904 2.96521,0.005 3.3987,-0.21872 6.05179,-3.12261 z m 26.65683,2.0774 c 0.53165,-1.35446 0.53165,-18.91709 0,-20.27156 -0.27273,-0.69484 -1.25281,-1.03985 -2.95395,-1.03985 -1.70114,0 -2.68123,0.34501 -2.95396,1.03985 -0.55652,1.41785 -0.52017,20.32538 0.0401,20.87315 0.93543,0.91453 5.45456,0.4512 5.86779,-0.60159 z m -442.7179,35.79577 c -20.79323,-2.33728 -32.64253,-6.96907 -39.05779,-15.26736 -4.43076,-5.73128 -4.24109,-3.42502 -4.48164,-54.49458 -0.18778,-39.86506 -0.0825,-46.51035 0.73685,-46.51035 0.52576,0 2.09896,1.25725 3.496,2.7939 1.39704,1.53665 4.81028,5.16052 7.58499,8.05303 2.7747,2.89252 6.87378,7.18199 9.10906,9.53216 2.23529,2.35017 6.04376,6.35241 8.46328,8.89388 2.41952,2.54146 6.21467,6.53536 8.43366,8.87533 2.21899,2.33997 8.13705,8.54371 13.15124,13.78608 10.83347,11.32648 13.60017,14.32076 14.17604,15.34214 0.46379,0.82261 -0.57566,47.55321 -1.0881,48.91719 -0.36013,0.95855 -12.28877,1.00423 -20.52359,0.0786 z m 234.339044,-33.52948 c -5.54748,-1.41559 -11.29669,-2.83644 -12.77602,-3.15745 -1.47932,-0.32102 -4.50522,-1.04529 -6.72421,-1.60949 -2.219,-0.56421 -20.06216,-4.90644 -39.651494,-9.6494 -19.58932,-4.74297 -36.80427,-9.21577 -38.25545,-9.93955 -6.2383,-3.1114 -9.70109,-7.56363 -14.2223,-18.28612 -0.99096,-2.35017 -2.21125,-5.16052 -2.71174,-6.24521 -0.50049,-1.08469 -2.77449,-6.26164 -5.05333,-11.50433 -2.27884,-5.24269 -4.68238,-10.71546 -5.34121,-12.16172 -0.65882,-1.44626 -2.31805,-5.29199 -3.68719,-8.54607 -1.36913,-3.25408 -3.03477,-7.09981 -3.70142,-8.54607 -0.66665,-1.44626 -2.03068,-4.55243 -3.03118,-6.9026 -1.00049,-2.35017 -2.54479,-5.83489 -3.43176,-7.74382 -0.88697,-1.90892 -1.61267,-3.60115 -1.61267,-3.76051 0,-0.15935 -0.72749,-1.85158 -1.61664,-3.7605 -6.52302,-14.00437 -7.31603,-16.40811 -7.32602,-22.20641 -0.008,-4.77865 0.26478,-6.15306 1.88538,-9.49124 7.89618,-16.26483 30.75353,-17.93182 40.64858,-2.96451 1.37274,2.07643 3.78978,6.83776 5.37118,10.58075 1.58141,3.74298 3.41591,7.98873 4.07667,9.43499 0.66076,1.44626 2.01804,4.55243 3.01616,6.9026 0.99812,2.35017 2.22427,5.16051 2.72476,6.2452 0.50049,1.0847 2.77449,6.26164 5.05333,11.50433 2.27884,5.24269 4.68238,10.71546 5.34121,12.16172 0.65882,1.44626 2.31805,5.29199 3.68719,8.54607 1.36913,3.25408 3.0288,7.09981 3.68815,8.54607 0.65936,1.44626 1.79601,3.96078 2.5259,5.58782 l 1.32705,2.95826 25.820844,6.15841 c 14.20146,3.38712 26.72861,6.39929 27.83811,6.6937 1.10949,0.29441 3.30327,0.85116 4.87505,1.23723 1.57179,0.38606 3.99251,1.00116 5.37938,1.36687 1.38687,0.36572 8.63383,2.1125 16.10435,3.88173 7.47053,1.76924 14.97607,3.89709 16.67899,4.72856 3.86047,1.88491 8.70727,6.88034 10.63493,10.96106 1.17934,2.49658 1.46499,4.31843 1.46539,9.34627 4.4e-4,5.51309 -0.2207,6.68559 -1.88641,10.00182 -1.06853,2.12731 -3.25584,4.94649 -5.04317,6.50004 -7.76376,6.74828 -15.09244,7.46388 -32.07039,3.1315 z M -242.71681,242.42128 c 0.22728,-22.68817 0.61183,-42.72722 0.85454,-44.53121 l 0.44129,-3.27998 3.01767,-0.40713 c 1.65971,-0.22392 5.06038,-0.6051 7.55704,-0.84707 l 4.53937,-0.43994 1.60275,3.46966 c 0.88151,1.90831 2.58696,5.68835 3.78988,8.40009 1.20293,2.71173 2.86909,6.40955 3.70257,8.21737 0.83348,1.80783 2.94679,6.54104 4.69625,10.51825 1.74945,3.97721 3.93463,8.85833 4.85594,10.84693 0.92132,1.98861 3.30589,7.31347 5.29905,11.83303 1.99317,4.51955 3.92605,8.73105 4.29529,9.35889 0.36925,0.62783 0.67136,1.53057 0.67136,2.00609 0,0.67161 -18.70853,11.71201 -37.55636,22.163 -0.97918,0.54295 -2.8751,1.65229 -4.21316,2.46521 -1.33807,0.81293 -2.77797,1.47805 -3.1998,1.47805 -0.57055,0 -0.66112,-10.56322 -0.35368,-41.25124 z m -29.24465,24.64441 c -3.47425,-3.70179 -8.01641,-8.50548 -10.09368,-10.67487 -2.07726,-2.16938 -7.84968,-8.23381 -12.82759,-13.47649 -4.97791,-5.24269 -11.3346,-11.89877 -14.12599,-14.79128 -11.4014,-11.81446 -20.54709,-21.55118 -21.04876,-22.409 -0.29302,-0.50105 -0.44431,-3.20755 -0.33621,-6.01445 l 0.19655,-5.10345 h 33.28489 33.28489 l -0.1062,22.35127 c -0.12955,27.26772 -0.90158,56.86701 -1.48298,56.85652 -0.23545,-0.004 -3.27066,-3.03646 -6.74492,-6.73825 z M 96.038714,237.81955 c 0.23999,-3.52525 0.71593,-9.51572 1.05763,-13.31215 0.3417,-3.79643 1.1101,-12.81911 1.70756,-20.0504 0.59746,-7.23129 1.369986,-16.25397 1.716736,-20.0504 0.34675,-3.79643 0.9275,-10.15668 1.29057,-14.13389 0.36307,-3.97721 0.82019,-9.15415 1.01582,-11.50432 0.19564,-2.35017 0.66995,-7.67503 1.05402,-11.83303 0.38408,-4.15799 0.83868,-9.10438 1.01022,-10.99198 0.27862,-3.06571 0.18593,-3.38517 -0.86838,-2.99314 -1.03005,0.38299 -17.483976,10.63095 -39.692816,24.72175 -3.79978,2.41084 -7.1787,4.38335 -7.50872,4.38335 -0.33001,0 -0.70087,0.24144 -0.82416,0.53654 -0.41438,0.99196 -18.03757,11.42066 -21.42746,12.67992 -4.37024,1.62344 -8.43826,1.57648 -13.16355,-0.15195 -3.48298,-1.27402 -5.71318,-3.24276 -25.1335397,-22.18692 -19.2759103,-18.80325 -27.3299903,-27.11796 -30.2223303,-31.20033 -0.55394,-0.78185 -1.57019,-2.01319 -2.25833,-2.73632 -0.68814,-0.72313 -2.54793,-3.08973 -4.13286,-5.25912 -8.74894,-11.97521 -8.13647,-16.263113 3.28015,-22.964522 4.77971,-2.805636 8.53161,-3.068283 13.96742,-0.977783 4.72721,1.817986 20.1790703,9.273622 24.4001903,11.773275 9.5829397,5.6748 13.8539497,7.21609 20.0320497,7.22904 9.25635,0.0194 18.6368,-4.28418 43.17561,-19.808117 3.69832,-2.339665 7.1781,-4.453313 7.73285,-4.697007 0.55475,-0.243695 3.73194,-2.163116 7.06043,-4.265378 3.32849,-2.102268 10.28806,-6.448478 15.46571,-9.658251 5.17765,-3.209773 15.262116,-9.482215 22.409936,-13.938762 7.14782,-4.456553 13.11211,-8.10282 13.25397,-8.10282 0.14186,0 5.42569,-3.254081 11.74183,-7.231292 6.31615,-3.97721 11.64447,-7.231292 11.84071,-7.231292 0.19623,0 1.62167,-0.84257 3.16763,-1.872378 3.22249,-2.14659 16.50066,-9.960645 16.9258,-9.960645 0.15562,0 1.73355,-0.834806 3.50653,-1.855128 3.34963,-1.927659 18.00251,-8.238973 21.85938,-9.415307 11.88906,-3.6261309 23.27285,-3.2118699 31.46063,1.144858 14.88769,7.921762 16.94611,24.93335 4.57965,37.84797 -1.27075,1.327087 -10.46164,7.508073 -20.42419,13.735537 -9.96257,6.227463 -20.08058,12.553575 -22.48449,14.058025 -2.40391,1.504458 -8.01627,5.010648 -12.47192,7.791546 -8.28865,5.173175 -9.718,6.764775 -9.718,10.821116 0,0.76651 -0.30259,1.576492 -0.67243,1.799952 -0.36983,0.22346 -0.67242,1.25884 -0.67242,2.300863 0,1.04202 -0.26915,2.0572 -0.59812,2.25597 -0.32897,0.19878 -0.75826,1.32558 -0.95397,2.50402 -0.19572,1.17843 -0.85568,4.06547 -1.46658,6.41564 -0.61091,2.35017 -1.27557,5.09018 -1.47703,6.08891 -0.20147,0.99873 -0.63401,1.97762 -0.9612,2.17532 -0.32719,0.19769 -0.59489,1.06762 -0.59489,1.93318 0,0.86557 -0.27108,2.25328 -0.6024,3.08381 -0.64674,1.62123 -1.13801,3.31421 -3.77649,13.01439 -0.9343,3.43486 -1.9546,7.13268 -2.26734,8.21738 -0.31274,1.08469 -0.94161,3.30338 -1.39748,4.93042 -0.45587,1.62704 -1.10195,3.47194 -1.43574,4.09977 -0.33379,0.62784 -0.60688,1.82593 -0.60688,2.66243 0,0.8365 -0.24737,1.80195 -0.5497,2.14544 -0.30233,0.34349 -0.94603,2.25156 -1.43044,4.24017 -0.4844,1.9886 -1.29848,4.94686 -1.80905,6.5739 -1.00403,3.19956 -1.61666,5.26788 -2.92078,9.86085 -0.46198,1.62704 -1.07585,3.54991 -1.36415,4.27304 -0.48862,1.22557 -3.31808,10.21823 -4.86077,15.44867 -0.37325,1.26547 -0.94408,2.81454 -1.26852,3.44237 -0.32443,0.62784 -0.58988,1.59328 -0.58988,2.14544 0,0.55216 -0.28841,1.51761 -0.64091,2.14544 -0.3525,0.62783 -1.45708,3.50812 -2.45461,6.40063 -2.64503,7.66974 -4.27174,10.80214 -6.24676,12.02884 -0.96397,0.59873 -1.90397,1.27294 -2.08889,1.49826 -0.18492,0.2253 -0.6388,0.52797 -1.00863,0.67257 -0.36983,0.14461 -4.60609,2.80954 -9.41391,5.92207 -4.80782,3.11252 -10.10314,6.32984 -11.76738,7.14958 -1.66425,0.81975 -3.55133,1.74908 -4.19352,2.06519 -0.642186,0.31611 -1.968646,0.57475 -2.947686,0.57475 h -1.78008 z M -315.40385,173.17991 c -12.64528,-2.84916 -21.07248,-10.2929 -25.96103,-22.93135 -1.15638,-2.98961 -1.15638,-14.81242 0,-17.80203 4.29948,-11.11553 11.26413,-18.12187 21.66429,-21.794 4.26987,-1.50762 4.53634,-1.51836 42.62479,-1.71907 27.54327,-0.14513 39.46329,0.0169 42.36257,0.57573 15.89693,3.06428 27.23309,16.31745 27.23309,31.83836 0,14.38657 -8.59881,25.50946 -24.20719,31.31293 -1.84704,0.68676 -10.81814,0.902 -41.69015,1.00026 -22.12925,0.0704 -40.51326,-0.1399 -42.02637,-0.48083 z m 166.76063,-22.69278 c -7.69427,-0.988 -11.48622,-2.08359 -18.15539,-5.24551 -13.00845,-6.16745 -22.12668,-16.66057 -27.03872,-31.11573 -1.48898,-4.38178 -1.69582,-6.113 -1.69582,-14.193923 0,-8.184735 0.1963,-9.782331 1.77345,-14.433058 5.98468,-17.647764 19.02565,-29.852284 36.86696,-34.502294 6.20572,-1.61741 18.88728,-1.827591 24.72386,-0.409771 15.67283,3.807242 28.01289,13.239338 34.886164,26.665158 2.37039,4.63019 2.91427,6.111848 4.7335,12.895379 1.01674,3.791195 0.86162,16.303769 -0.25578,20.631519 -1.50515,5.82961 -2.05966,7.30267 -4.61683,12.26479 -6.338684,12.3 -18.852394,22.15478 -32.740204,25.7835 -4.97497,1.29989 -14.57212,2.1619 -18.48119,1.65994 z M 60.143504,71.264453 c -1.66408,-1.485327 -4.38726,-3.899796 -6.0515,-5.365474 -1.66424,-1.465684 -4.53918,-4.022196 -6.38873,-5.681126 -12.24473,-10.982735 -18.43623,-16.501098 -20.34004,-18.128711 -1.20196,-1.027573 -2.18537,-2.440298 -2.18537,-3.13938 0,-2.968563 7.49185,-7.863832 25.05301,-16.369942 6.93599,-3.359592 7.59912,-3.529744 10.0494,-2.57854 0.84952,0.329786 3.36012,1.262945 5.57911,2.073678 6.26515,2.289052 12.34285,4.917121 24.54341,10.612841 15.441056,7.208526 21.177506,10.03959 21.647136,10.683333 0.6575,0.901275 -0.43574,1.993536 -4.05312,4.049464 -1.72532,0.980583 -9.793926,5.910503 -17.930236,10.955381 -8.1363,5.044878 -15.85234,9.826478 -17.14676,10.625772 -1.29441,0.799288 -3.63299,2.243015 -5.19685,3.208281 -1.56386,0.965259 -3.22824,1.755021 -3.69862,1.755021 -0.47038,0 -2.21676,-1.215271 -3.88084,-2.700598 z"
       style="fill:#000000;stroke-width:0.664864" />
  </g>
</svg>
