<?xml version="1.0" encoding="UTF-8" standalone="no"?>
<svg
   xmlns:dc="http://purl.org/dc/elements/1.1/"
   xmlns:cc="http://creativecommons.org/ns#"
   xmlns:rdf="http://www.w3.org/1999/02/22-rdf-syntax-ns#"
   xmlns:svg="http://www.w3.org/2000/svg"
   xmlns="http://www.w3.org/2000/svg"
   xmlns:sodipodi="http://sodipodi.sourceforge.net/DTD/sodipodi-0.dtd"
   xmlns:inkscape="http://www.inkscape.org/namespaces/inkscape"
   xml:space="preserve"
   width="37.0462mm"
   height="27.427116mm"
   version="1.1"
   style="clip-rule:evenodd;fill-rule:evenodd;image-rendering:optimizeQuality;shape-rendering:geometricPrecision;text-rendering:geometricPrecision"
   viewBox="0 0 125.05462 92.585332"
   id="svg323"
   sodipodi:docname="заправки.svg"
   inkscape:version="1.0 (4035a4fb49, 2020-05-01)"><metadata
   id="metadata327"><rdf:RDF><cc:Work
       rdf:about=""><dc:format>image/svg+xml</dc:format><dc:type
         rdf:resource="http://purl.org/dc/dcmitype/StillImage" /><dc:title></dc:title></cc:Work></rdf:RDF></metadata><sodipodi:namedview
   inkscape:document-rotation="0"
   pagecolor="#ffffff"
   bordercolor="#666666"
   borderopacity="1"
   objecttolerance="10"
   gridtolerance="10"
   guidetolerance="10"
   inkscape:pageopacity="0"
   inkscape:pageshadow="2"
   inkscape:window-width="1920"
   inkscape:window-height="1018"
   id="namedview325"
   showgrid="false"
   inkscape:zoom="4.014588"
   inkscape:cx="112.13956"
   inkscape:cy="43.836856"
   inkscape:window-x="-6"
   inkscape:window-y="-6"
   inkscape:window-maximized="1"
   inkscape:current-layer="svg323" />
 <defs
   id="defs317">
  <style
   type="text/css"
   id="style315">
   <![CDATA[
    .fil0 {fill:black}
   ]]>
  </style>
 </defs>
 
<path
   id="path8"
   d="m 21.296075,92.490137 c -0.10989,-0.0513 -0.604391,-0.12799 -1.098892,-0.17029 -0.494502,-0.0423 -0.899094,-0.12245 -0.899094,-0.17809 0,-0.0556 -0.09085,-0.10117 -0.201896,-0.10117 -0.322978,0 -1.263294,-0.26537 -1.263294,-0.35652 0,-0.0457 -0.09892,-0.0832 -0.219822,-0.0832 -0.297308,0 -1.644964,-0.55089 -1.644964,-0.67242 0,-0.0534 -0.08991,-0.097 -0.199799,-0.097 -0.109889,0 -0.199798,-0.0441 -0.199798,-0.098 0,-0.0539 -0.150113,-0.12909 -0.333583,-0.16709 -0.674324,-0.13967 -2.996393,-2.07715 -2.996393,-2.50012 0,-0.11144 -0.05994,-0.20261 -0.1332,-0.20261 -0.07326,0 -0.133199,-0.0742 -0.133199,-0.16488 0,-0.0907 -0.05994,-0.16488 -0.133199,-0.16488 -0.07326,0 -0.133199,-0.0989 -0.133199,-0.21984 0,-0.12091 -0.05994,-0.21984 -0.133199,-0.21984 -0.07326,0 -0.133199,-0.089 -0.133199,-0.19785 0,-0.10882 -0.06094,-0.24815 -0.135415,-0.30961 -0.411159,-0.3393 -0.441584,-1.7398 -0.487663,-22.447482 -0.03953,-17.766396 -0.0739,-20.834284 -0.234898,-20.96714 -0.137684,-0.113622 -0.550685,-0.155629 -1.530092,-0.155629 -0.805537,0 -1.341505,-0.04392 -1.341505,-0.109919 0,-0.06046 -0.177724,-0.10992 -0.394942,-0.10992 -0.404102,0 -1.486212,-0.252259 -1.900934,-0.443141 -0.12721,-0.05855 -0.322014,-0.106456 -0.432897,-0.106456 -0.110883,0 -0.201606,-0.04946 -0.201606,-0.10992 0,-0.06045 -0.06422,-0.109919 -0.142713,-0.109919 -0.07849,0 -0.232623,-0.0742 -0.342512,-0.164879 -0.109889,-0.09068 -0.315396,-0.164879 -0.456682,-0.164879 -0.141287,0 -0.256884,-0.04946 -0.256884,-0.10992 0,-0.06046 -0.0589,-0.109919 -0.130897,-0.109919 -0.330794,0 -2.399885,-1.776867 -2.399885,-2.060942 0,-0.0756 -0.05994,-0.137448 -0.13319901,-0.137448 -0.07326,0 -0.133199,-0.0742 -0.133199,-0.164879 0,-0.09068 -0.05994,-0.164879 -0.133199,-0.164879 -0.07326,0 -0.133199,-0.09133 -0.133199,-0.202951 0,-0.111624 -0.104895,-0.371308 -0.233099,-0.577078 -0.210964,-0.3386 -0.237026,-0.890155 -0.274466,-5.80861 -0.02275,-2.988967 -0.0066,-5.548717 0.03584,-5.688333 0.07717,-0.253729 0.07836,-0.253848 2.53885001,-0.253848 h 2.461644 v -2.473188 c 0,-1.575513 0.04835,-2.473189 0.133199,-2.473189 0.07326,0 0.133199,-0.123659 0.133199,-0.274798 0,-0.15114 0.0559,-0.274799 0.124223,-0.274799 0.06832,0 0.162272,-0.09893 0.208775,-0.219839 0.0465,-0.120911 0.200391,-0.219839 0.341974,-0.219839 0.141582,0 0.257422,-0.04946 0.257422,-0.109919 0,-0.06107 0.355197,-0.10992 0.799194,-0.10992 0.443997,0 0.799194,0.04885 0.799194,0.10992 0,0.06046 0.07659,0.109919 0.170197,0.109919 0.18404,0 0.522212,0.289472 0.751871,0.643595 0.09067,0.139806 0.143525,1.155036 0.143525,2.756683 v 2.535374 h 4.651072 c 2.55809,0 4.745884,-0.03002 4.861765,-0.06672 0.183857,-0.05822 0.210693,-0.395874 0.210693,-2.651 v -2.584278 l 0.517125,-0.426747 c 0.477964,-0.394428 0.573794,-0.426746 1.265391,-0.426746 0.411546,0 0.748266,0.04946 0.748266,0.10992 0,0.06046 0.09263,0.109919 0.205852,0.109919 0.113219,0 0.367962,0.133668 0.566096,0.297039 l 0.360244,0.297038 0.0666,2.643308 0.0666,2.643307 2.464182,0.06126 c 1.3553,0.03369 2.479167,0.07079 2.497482,0.08244 0.01832,0.01165 0.0333,2.593299 0.0333,5.736996 0,3.737263 -0.04611,5.715813 -0.133199,5.715813 -0.07326,0 -0.133199,0.12366 -0.133199,0.274799 0,0.151139 -0.05994,0.274799 -0.133199,0.274799 -0.07326,0 -0.133199,0.07019 -0.133199,0.155971 0,0.19615 -0.432099,0.831677 -0.566096,0.832609 -0.05495,3.3e-4 -0.0999,0.06079 -0.0999,0.134228 0,0.130267 -0.16312,0.294415 -0.850382,0.855742 -0.781283,0.638119 -1.281859,0.989276 -1.410217,0.989276 -0.07534,0 -0.136983,0.0441 -0.136983,0.098 0,0.0539 -0.149849,0.12904 -0.332998,0.166973 -0.183149,0.03793 -0.332998,0.117492 -0.332998,0.176795 0,0.0593 -0.119879,0.107826 -0.266398,0.107826 -0.146519,0 -0.266398,0.04946 -0.266398,0.109919 0,0.06046 -0.109889,0.10992 -0.244198,0.10992 -0.13431,0 -0.285277,0.0339 -0.335484,0.07533 -0.354651,0.292666 -2.095506,0.600095 -3.741817,0.66079 -1.135265,0.04185 -1.359087,0.08172 -1.566436,0.279012 -0.232195,0.220932 -0.240522,1.071864 -0.207268,21.179221 l 0.03465,20.949042 0.325974,0.5496 c 0.413155,0.69658 1.69677,1.7325 2.47329,1.99602 0.327972,0.1113 0.596537,0.23946 0.596812,0.28481 2.66e-4,0.0453 0.116841,0.0824 0.259036,0.0824 0.142195,0 0.295582,0.0495 0.340859,0.10991 0.04528,0.0605 0.258603,0.10992 0.474058,0.10992 0.215455,0 0.391736,0.0495 0.391736,0.10992 0,0.1483 4.084706,0.1483 4.19577,0 0.04528,-0.0605 0.288573,-0.10992 0.540657,-0.10992 0.252085,0 0.458336,-0.0495 0.458336,-0.10992 0,-0.0605 0.179818,-0.10991 0.399597,-0.10991 0.219778,0 0.399597,-0.0395 0.399597,-0.0878 0,-0.0483 0.201487,-0.14797 0.44775,-0.22145 0.246262,-0.0735 0.620884,-0.25649 0.832494,-0.40667 0.211609,-0.15018 0.429699,-0.27311 0.484643,-0.27319 0.05495,-7e-5 0.0999,-0.0743 0.0999,-0.16501 0,-0.0907 0.05994,-0.16488 0.1332,-0.16488 0.07326,0 0.133199,-0.0989 0.133199,-0.21984 0,-0.12091 0.05627,-0.21984 0.125038,-0.21984 0.06877,0 0.165595,-0.22319 0.215167,-0.49599 0.04957,-0.27279 0.143154,-0.52303 0.207961,-0.55608 0.06761,-0.0345 0.117829,-8.60441 0.117829,-20.107429 0,-13.246318 0.04519,-20.070377 0.133199,-20.115264 0.07326,-0.03736 0.133199,-0.235219 0.133199,-0.439678 0,-0.204459 0.05994,-0.402314 0.133199,-0.439678 0.07326,-0.03736 0.133199,-0.179417 0.133199,-0.315674 0,-0.211723 0.225587,-0.635757 0.86408,-1.624205 0.07232,-0.111953 0.17721,-0.203551 0.233098,-0.203551 0.05589,0 0.101613,-0.06748 0.101613,-0.149959 0,-0.165921 1.276264,-1.278994 1.466511,-1.278994 0.06587,0 0.269618,-0.12366 0.452766,-0.274799 0.183149,-0.151139 0.395663,-0.274799 0.472252,-0.274799 0.07659,0 0.139253,-0.04946 0.139253,-0.109919 0,-0.06046 0.108423,-0.10992 0.24094,-0.10992 0.132517,0 0.357291,-0.07262 0.499496,-0.161383 0.142206,-0.08876 0.363451,-0.162956 0.491655,-0.16488 0.128205,-0.0019 0.233099,-0.05296 0.233099,-0.113415 0,-0.06046 0.149849,-0.109919 0.332997,-0.109919 0.183149,0 0.332998,-0.04946 0.332998,-0.10992 0,-0.06046 0.234763,-0.109919 0.521697,-0.109919 0.286932,0 0.541675,-0.04759 0.566096,-0.105748 0.07194,-0.171343 3.002475,-0.357609 6.4684,-0.411134 l 3.227224,-0.04984 0.03615,-16.992328 c 0.02867,-13.4748767 0.07062,-17.0018057 0.202652,-17.0381167 0.09157,-0.02518 0.166499,-0.130733 0.166499,-0.234554 0,-0.23836 0.300203,-0.780194 0.432897,-0.781333 0.05494,-4.71e-4 0.0999,-0.09979 0.0999,-0.220696 0,-0.120912 0.0559,-0.219839 0.124223,-0.219839 0.06832,0 0.166949,-0.111294 0.219171,-0.247319 0.158708,-0.413403 2.075637,-1.879911 2.763114,-2.11386601 0.342687,-0.116619 0.623065,-0.251358 0.623065,-0.299419 0,-0.04806 0.107892,-0.08738 0.239759,-0.08738 0.131867,0 0.300695,-0.05029 0.375173,-0.111748 C 53.075133,0.03981029 54.803424,-1.2371302e-4 68.515143,2.8697659e-7 82.266382,1.2528698e-4 84.091879,0.04272029 84.491861,0.37279829 c 0.06988,0.05766 0.234938,0.104841 0.366805,0.104841 0.131867,0 0.239758,0.04946 0.239758,0.10992 0,0.06046 0.119879,0.109919 0.266398,0.109919 0.146519,0 0.266398,0.04946 0.266398,0.10992 0,0.06046 0.12176,0.109919 0.270578,0.109919 0.148819,0 0.305081,0.0742 0.347249,0.16488001 0.04217,0.09068 0.176904,0.164879 0.299412,0.164879 0.122509,0 0.310899,0.105564 0.418646,0.234588 0.107748,0.129023 0.255844,0.277253 0.329103,0.329401 0.728939,0.518873 0.97549,0.740611 1.055873,0.949613 0.05185,0.13481 0.138984,0.245109 0.193633,0.245109 0.05465,0 0.181677,0.173124 0.282283,0.384719 0.100607,0.211595 0.231673,0.384718 0.29126,0.384718 0.05958,0 0.108337,0.09893 0.108337,0.219839 0,0.120911 0.05696,0.219839 0.126585,0.219839 0.06962,0 0.167274,0.296782 0.217004,0.659517 0.04973,0.362734 0.142616,0.659516 0.206413,0.659516 0.06533,0 0.115994,6.9849077 0.115994,15.9911217 v 15.99114 l 6.093856,0.04265 c 5.906144,0.04134 7.226044,0.09668 7.226044,0.302976 0,0.0541 0.14984,0.09837 0.33299,0.09837 0.18315,0 0.333,0.04946 0.333,0.10992 0,0.06046 0.1156,0.109919 0.25688,0.109919 0.14129,0 0.3468,0.0742 0.45669,0.164879 0.10989,0.09068 0.23677,0.16488 0.28196,0.16488 0.0452,0 0.23202,0.123659 0.41517,0.274798 0.18315,0.15114 0.38111,0.274799 0.43991,0.274799 0.0588,0 0.21503,0.197855 0.34717,0.439678 0.13215,0.241823 0.2911,0.439678 0.35323,0.439678 0.0621,0 0.11297,0.123659 0.11297,0.274799 0,0.151139 0.0599,0.274798 0.1332,0.274798 0.0733,0 0.1332,0.113767 0.1332,0.252815 0,0.139048 0.0749,0.314632 0.1665,0.390188 0.13157,0.108559 0.17455,4.021217 0.2049,18.653335 0.0244,11.757343 0.0851,18.515963 0.16649,18.515963 0.0705,0 0.1281,0.09893 0.1281,0.219839 0,0.120912 0.0599,0.219836 0.1332,0.219836 0.0733,0 0.1332,0.0517 0.1332,0.11492 0,0.0632 0.13487,0.23394 0.2997,0.37943 0.16483,0.14548 0.36727,0.32872 0.44986,0.4072 0.43479,0.41316 1.58735,0.96708 2.01225,0.96708 0.16597,0 0.30177,0.0495 0.30177,0.10992 0,0.0605 0.17628,0.10992 0.39174,0.10992 0.21545,0 0.42878,0.0495 0.47405,0.10992 0.0493,0.0658 0.93378,0.10992 2.20565,0.10992 1.32675,0 2.12332,-0.0412 2.12332,-0.10992 0,-0.0605 0.12682,-0.10992 0.28183,-0.10992 0.34811,0 1.63324,-0.35441 1.69396,-0.46715 0.0244,-0.0453 0.12931,-0.0824 0.2331,-0.0824 0.10378,0 0.1887,-0.0495 0.1887,-0.10992 0,-0.0605 0.0843,-0.10992 0.1873,-0.10992 0.18624,0 1.54428,-1.01314 1.54428,-1.15207 0,-0.04 0.0899,-0.14695 0.1998,-0.237631 0.10989,-0.09068 0.1998,-0.257354 0.1998,-0.370379 0,-0.113026 0.0599,-0.236071 0.1332,-0.273435 0.0733,-0.03736 0.1332,-0.25995 0.1332,-0.494637 0,-0.234687 0.0599,-0.457274 0.1332,-0.494638 0.17324,-0.08836 0.17324,-0.900917 0,-0.989275 -0.0733,-0.03736 -0.1332,-0.38653 -0.1332,-0.775924 0,-0.389394 -0.0536,-0.707989 -0.11906,-0.707989 -0.0655,0 -0.16179,-0.445517 -0.21401,-0.990037 -0.0522,-0.544522 -0.1485,-1.017347 -0.21394,-1.050723 -0.0654,-0.03338 -0.11899,-0.280353 -0.11899,-0.548835 0,-0.268483 -0.0599,-0.488151 -0.13319,-0.488151 -0.0733,0 -0.1332,-0.222586 -0.1332,-0.494637 0,-0.272051 -0.0599,-0.494638 -0.1332,-0.494638 -0.0733,0 -0.1332,-0.222587 -0.1332,-0.494638 0,-0.27205 -0.0536,-0.494637 -0.11906,-0.494637 -0.0655,0 -0.16175,-0.445174 -0.21394,-0.989275 -0.0522,-0.544102 -0.14846,-0.989276 -0.21394,-0.989276 -0.0655,0 -0.11906,-0.222587 -0.11906,-0.494637 0,-0.272051 -0.0541,-0.494638 -0.12034,-0.494638 -0.0662,0 -0.15449,-0.234953 -0.19622,-0.522118 -0.19731,-1.357634 -0.25221,-1.629021 -0.35027,-1.731231 -0.058,-0.06046 -0.14856,-0.542728 -0.20126,-1.071715 -0.0527,-0.528988 -0.14866,-0.961796 -0.21325,-0.961796 -0.0646,0 -0.11745,-0.321514 -0.11745,-0.714476 0,-0.403039 -0.0581,-0.714477 -0.1332,-0.714477 -0.0733,0 -0.1332,-0.24799 -0.1332,-0.551089 0,-0.303099 -0.0586,-0.636979 -0.13028,-0.741957 -0.0716,-0.104977 -0.19329,-0.809164 -0.2703,-1.564861 -0.077,-0.755696 -0.20143,-1.769703 -0.27648,-2.253349 -0.32094,-2.068338 -0.40741,-4.745956 -0.46552,-14.414685 l -0.0615,-10.237746 -0.29703,-0.0657 c -0.16338,-0.03614 -1.72061,-0.06638 -3.46052,-0.06721 -2.01897,-9.57e-4 -3.16348,-0.04127 -3.16348,-0.11142 0,-0.06046 -0.14985,-0.109919 -0.333,-0.109919 -0.18314,0 -0.33299,-0.04946 -0.33299,-0.10992 0,-0.06046 -0.14985,-0.109919 -0.333,-0.109919 -0.18315,0 -0.333,-0.04613 -0.333,-0.102512 0,-0.05638 -0.12541,-0.13536 -0.27868,-0.175505 -0.27407,-0.07178 -1.45291,-0.962222 -1.45291,-1.097455 0,-0.03805 -0.0899,-0.14338 -0.1998,-0.234064 -0.10988,-0.09068 -0.19979,-0.260273 -0.19979,-0.376867 0,-0.116592 -0.0599,-0.211987 -0.1332,-0.211987 -0.0733,0 -0.1332,-0.123659 -0.1332,-0.274799 0,-0.151139 -0.0599,-0.274798 -0.1332,-0.274798 -0.0733,0 -0.1332,-0.145472 -0.1332,-0.323271 0,-0.177799 -0.0599,-0.353842 -0.1332,-0.391206 -0.0865,-0.04413 -0.1332,-2.509525 -0.1332,-7.037 0,-6.149579 -0.0242,-6.985732 -0.20573,-7.110799 -0.52542,-0.361973 -6.419425,-5.2295327 -6.623254,-5.4698057 -0.265891,-0.313431 -0.310928,-1.208934 -0.07929,-1.576601 0.34991,-0.5554 0.983775,-0.84465 1.850974,-0.84465 0.51834,0 0.74525,0.05708 0.98323,0.247319 0.17016,0.136026 0.68586,0.51937 1.146,0.851876 1.26479,0.913962 12.13332,9.8837017 12.58627,10.3873907 0.21747,0.241823 0.51594,0.524993 0.66327,0.629266 0.14733,0.104274 0.3195,0.23479 0.3826,0.290038 0.58108,0.508737 0.75106,0.673596 0.75106,0.72842 0,0.05968 0.14182,0.197957 0.89909,0.876636 0.16484,0.147727 0.2997,0.299108 0.2997,0.336401 0,0.0373 0.0749,0.136754 0.1665,0.221021 0.36483,0.335718 0.4995,0.484482 0.4995,0.55178 0,0.03875 0.1714,0.202592 0.3809,0.364087 0.20949,0.161496 0.42332,0.403928 0.47517,0.538739 0.0519,0.13481 0.15017,0.245109 0.2185,0.245109 0.0683,0 0.12422,0.09893 0.12422,0.219839 0,0.120912 0.0599,0.219839 0.1332,0.219839 0.0733,0 0.1332,0.0742 0.1332,0.16488 0,0.09068 0.0453,0.164879 0.10076,0.164879 0.40489,0 0.43208,0.926887 0.44581,15.194637 0.008,7.875308 0.0674,15.110163 0.13303,16.077455 0.20088,2.962498 0.25719,3.509131 0.38497,3.737262 0.0677,0.120911 0.15275,0.516621 0.18894,0.879356 0.12887,1.291743 0.41307,3.007832 0.51137,3.08794 0.0549,0.04477 0.0999,0.317561 0.0999,0.606195 0,0.288634 0.0599,0.555361 0.1332,0.592724 0.0733,0.03736 0.1332,0.287603 0.1332,0.556085 0,0.268483 0.0599,0.48815 0.1332,0.48815 0.0733,0 0.1332,0.219668 0.1332,0.488151 0,0.268482 0.0537,0.515524 0.11927,0.54898 0.0656,0.03346 0.16174,0.456818 0.21366,0.940802 0.0519,0.483986 0.14809,0.879974 0.21373,0.879974 0.0656,0 0.11933,0.222587 0.11933,0.494638 0,0.27205 0.0599,0.494637 0.1332,0.494637 0.0733,0 0.1332,0.222587 0.1332,0.494638 0,0.272051 0.0542,0.494638 0.12035,0.494638 0.0662,0 0.15449,0.234952 0.19624,0.522117 0.22318,1.535317 0.41235,2.445709 0.50817,2.445709 0.0592,0 0.10764,0.219667 0.10764,0.48815 0,0.268482 0.0599,0.518721 0.13319,0.556085 0.0733,0.03736 0.1332,0.302441 0.1332,0.58906 0,0.28662 0.0567,0.568117 0.12604,0.62555 0.0693,0.05743 0.16814,0.687249 0.2196,1.399594 0.0515,0.712343 0.14461,1.321193 0.20697,1.353001 0.14753,0.07524 0.14762,0.893777 1.1e-4,0.969011 -0.0623,0.03178 -0.15267,0.44277 -0.20081,0.913322 -0.0481,0.470552 -0.14702,0.872037 -0.21972,0.892187 -0.0727,0.0202 -0.13219,0.13145 -0.13219,0.24732 0,0.11588 -0.0599,0.21068 -0.1332,0.21068 -0.0733,0 -0.13319,0.12366 -0.13319,0.2748 0,0.15114 -0.0588,0.2748 -0.13067,0.2748 -0.0719,0 -0.17146,0.13602 -0.22132,0.30228 -0.0499,0.16625 -0.20086,0.36691 -0.33554,0.44591 -0.13468,0.079 -0.24487,0.19347 -0.24487,0.25439 0,0.15925 -1.9745,1.74541 -2.17274,1.74541 -0.0913,0 -0.25243,0.0989 -0.35804,0.21983 -0.10561,0.12092 -0.26869,0.21984 -0.3624,0.21984 -0.0937,0 -0.1704,0.0495 -0.1704,0.10992 0,0.0605 -0.10842,0.10992 -0.24094,0.10992 -0.13251,0 -0.35729,0.0726 -0.49949,0.16139 -0.14221,0.0888 -0.36345,0.16295 -0.49166,0.16488 -0.1282,0.002 -0.2331,0.053 -0.2331,0.11341 0,0.0605 -0.10988,0.10992 -0.24419,0.10992 -0.13431,0 -0.28528,0.0339 -0.33549,0.0753 -0.22004,0.18158 -1.16252,0.37673 -2.0843,0.43158 -0.54944,0.0327 -1.12898,0.11133 -1.28785,0.17477 -0.15887,0.0634 -0.48854,0.0817 -0.73259,0.0407 -0.24406,-0.0411 -1.07113,-0.12232 -1.83793,-0.18054 -0.76681,-0.0582 -1.45312,-0.15448 -1.52513,-0.21391 -0.072,-0.0594 -0.2688,-0.10805 -0.43729,-0.10805 -0.1685,0 -0.30636,-0.0495 -0.30636,-0.10992 0,-0.0605 -0.14985,-0.10992 -0.333,-0.10992 -0.18315,0 -0.333,-0.0495 -0.333,-0.10992 0,-0.0605 -0.11634,-0.10992 -0.25853,-0.10992 -0.1422,0 -0.29274,-0.0457 -0.33453,-0.10146 -0.0418,-0.0558 -0.25512,-0.13393 -0.47406,-0.17361 -0.21894,-0.0397 -0.39807,-0.11769 -0.39807,-0.17334 0,-0.0556 -0.0892,-0.10119 -0.19827,-0.10119 -0.10905,0 -0.32389,-0.0866 -0.47742,-0.19235 -0.15352,-0.1058 -0.40314,-0.27893 -0.5547,-0.38472 -0.15156,-0.1058 -0.3191,-0.19236 -0.37232,-0.19236 -0.17081,0 -1.19447,-0.87401 -1.19447,-1.01985 0,-0.0774 -0.11988,-0.21204 -0.2664,-0.29919 -0.14651,-0.0871 -0.26639,-0.22172 -0.26639,-0.29906 0,-0.0773 -0.0458,-0.14061 -0.10178,-0.14061 -0.12369,0 -0.56422,-0.81592 -0.56422,-1.04499 0,-0.0903 -0.0599,-0.16413 -0.1332,-0.16413 -0.0733,0 -0.1332,-0.11376 -0.1332,-0.25281 0,-0.13905 -0.0596,-0.30199 -0.13241,-0.362086 -0.0863,-0.0712 -0.14912,-6.406894 -0.18038,-18.186178 -0.0264,-9.9423 -0.093,-18.287131 -0.14798,-18.544068 -0.055,-0.256936 -0.14961,-0.467157 -0.21024,-0.467157 -0.0606,0 -0.14358,-0.08671 -0.18434,-0.1927 -0.15974,-0.415316 -0.90156,-0.466817 -6.723999,-0.466817 -3.07206,0 -5.680376,0.03002 -5.796256,0.06672 -0.191157,0.06053 -0.210693,2.113192 -0.210693,22.137015 0,20.023821 -0.01954,22.076481 -0.210693,22.137011 -0.115881,0.0367 -9.581431,0.0667 -21.034555,0.0667 -11.453124,0 -20.918675,-0.03 -21.034555,-0.0667 -0.191117,-0.0605 -0.210693,-2.03764 -0.210693,-21.279797 V 42.665977 l -4.284621,0.03786 c -3.276167,0.02895 -4.297672,0.0702 -4.340069,0.17526 -0.0305,0.07557 -0.200302,0.137399 -0.377345,0.137399 -0.177044,0 -0.321898,0.04946 -0.321898,0.10992 0,0.06045 -0.06247,0.109919 -0.138822,0.109919 -0.148593,0 -0.234726,0.05172 -0.868872,0.521761 -0.445072,0.329894 -0.857093,0.932638 -0.857093,1.253839 0,0.111623 -0.05994,0.202951 -0.133199,0.202951 -0.08831,0 -0.133199,6.702926 -0.133199,19.888938 0,13.140724 -0.04519,19.911993 -0.133199,19.956873 -0.07326,0.0374 -0.133199,0.38653 -0.133199,0.77592 0,0.3894 -0.05432,0.70799 -0.1207,0.70799 -0.06639,0 -0.163298,0.25559 -0.215361,0.56798 -0.05206,0.31239 -0.194042,0.65601 -0.315506,0.7636 -0.121466,0.10759 -0.392441,0.45793 -0.602168,0.77854 -0.209727,0.3206 -0.507936,0.66823 -0.662687,0.7725 -0.154749,0.10427 -0.341302,0.24249 -0.414562,0.30715 -0.604305,0.53336 -0.933212,0.77018 -1.147708,0.82636 -0.137985,0.0361 -0.250882,0.11184 -0.250882,0.16822 0,0.0564 -0.119879,0.10251 -0.266398,0.10251 -0.146519,0 -0.266398,0.0495 -0.266398,0.10992 0,0.0605 -0.08991,0.10992 -0.199798,0.10992 -0.10989,0 -0.199799,0.0378 -0.199799,0.084 0,0.10207 -0.988712,0.46561 -1.266305,0.46561 -0.109387,0 -0.198884,0.0495 -0.198884,0.10992 0,0.0605 -0.179819,0.10992 -0.399598,0.10992 -0.219778,0 -0.399597,0.0438 -0.399597,0.0974 0,0.11168 -0.419482,0.19252 -1.954099,0.37658 -0.598569,0.0718 -1.13303,0.16763 -1.187692,0.21297 -0.13724,0.11384 -4.070391,0.0978 -4.317355,-0.0176 z m 60.605566,-9.28908 c 0,-0.75075 -0.03638,-1.44324 -0.08085,-1.53887 -0.06655,-0.14312 -0.325727,-0.17387 -1.465189,-0.17387 h -1.384339 v -1.37028 -1.37027 l 1.43189,-0.0312 1.431889,-0.0312 0.03622,-8.903477 c 0.03517,-8.646194 -0.02683,-10.378874 -0.374998,-10.47899 -0.07008,-0.02015 -0.127417,-0.08407 -0.127417,-0.14204 0,-0.24103 -1.431998,-1.415153 -1.725966,-1.415153 -0.07635,0 -0.138821,-0.04946 -0.138821,-0.10992 0,-0.06046 -0.119879,-0.109919 -0.266398,-0.109919 -0.146519,0 -0.266398,-0.04946 -0.266398,-0.10992 0,-0.06046 -0.146311,-0.109919 -0.325136,-0.109919 -0.178825,0 -0.362182,-0.04946 -0.407459,-0.10992 -0.04528,-0.06046 -0.228633,-0.109919 -0.407458,-0.109919 H 77.506074 V 53.074127 49.062066 H 69.447532 61.38899 v 4.012061 4.012061 h -0.332998 c -0.183149,0 -0.332998,0.04946 -0.332998,0.109919 0,0.06046 -0.179818,0.10992 -0.399597,0.10992 -0.219778,0 -0.399597,0.04946 -0.399597,0.109919 0,0.06046 -0.08991,0.10992 -0.199798,0.10992 -0.10989,0 -0.199799,0.04946 -0.199799,0.109919 0,0.06046 -0.09798,0.10992 -0.217728,0.10992 -0.313331,0 -1.754357,1.249174 -1.862862,1.614847 -0.05039,0.16981 -0.135898,0.333475 -0.190026,0.363703 -0.158972,0.08878 -0.165082,0.50745 -0.145585,9.975193 l 0.01862,9.040879 h 1.39859 1.39859 v 1.37399 1.374 h -1.39859 -1.39859 v 1.53887 1.53887 h 12.387512 12.387511 z m -19.58026,-3.08673 v -1.374 h 2.996979 2.996978 v 1.374 1.37399 H 65.31836 62.321381 Z m 8.347141,1.30071 c -0.111006,-0.0916 -0.117912,-2.26436 -0.008,-2.50084 0.07032,-0.15122 0.460726,-0.17387 2.996978,-0.17387 h 2.916131 v 1.374 1.37399 h -2.908179 c -1.599499,0 -2.948139,-0.033 -2.996978,-0.0733 z m -3.89498,-7.322988 c -0.07876,-0.07327 -0.311084,-0.232146 -0.516266,-0.353057 -0.645647,-0.380471 -1.538312,-1.178269 -1.538312,-1.37483 0,-0.06 -0.05994,-0.109083 -0.133199,-0.109083 -0.07326,0 -0.133199,-0.09481 -0.133199,-0.21068 0,-0.115872 -0.07302,-0.230763 -0.162258,-0.255312 -0.22502,-0.0619 -0.219455,-2.854832 0.0058,-2.916798 0.08605,-0.02367 0.15645,-0.113108 0.15645,-0.198753 0,-0.08565 0.05994,-0.155719 0.133199,-0.155719 0.07326,0 0.133199,-0.09893 0.133199,-0.219839 0,-0.120912 0.04702,-0.219839 0.10448,-0.219839 0.05746,0 0.218037,-0.160758 0.356829,-0.357239 0.262528,-0.371645 0.461233,-0.537077 1.089224,-0.906835 0.205354,-0.120912 0.734692,-0.521004 1.176306,-0.889096 0.905486,-0.754733 1.135933,-1.209545 1.135933,-2.241878 0,-0.363687 0.05863,-0.661248 0.130296,-0.661248 0.157447,0 1.339838,0.904216 2.983975,2.281952 1.499478,1.256515 1.547696,1.302599 1.547696,1.47919 0,0.07869 0.119879,0.204859 0.266398,0.280369 0.146519,0.07551 0.266398,0.211068 0.266398,0.301239 0,0.09017 0.05327,0.163948 0.118375,0.163948 0.06511,0 0.157732,0.173123 0.205834,0.384718 0.0481,0.211595 0.144684,0.384719 0.214622,0.384719 0.06994,0 0.127164,0.09601 0.127164,0.213351 0,0.117343 0.05994,0.243922 0.133199,0.281286 0.07326,0.03736 0.133199,0.259951 0.133199,0.494638 0,0.234687 0.05994,0.457274 0.133199,0.494638 0.07326,0.03736 0.133199,0.25995 0.133199,0.494637 0,0.234687 -0.05994,0.457274 -0.133199,0.494638 -0.07326,0.03736 -0.133199,0.238138 -0.133199,0.446165 0,0.208027 -0.05994,0.378231 -0.133199,0.378231 -0.07326,0 -0.133199,0.148391 -0.133199,0.329758 0,0.181368 -0.0505,0.329759 -0.112224,0.329759 -0.06172,0 -0.222203,0.168526 -0.356622,0.374504 -0.134419,0.205977 -0.362947,0.44093 -0.507841,0.522118 -0.144894,0.08119 -0.384831,0.258906 -0.533192,0.394932 -0.148362,0.136025 -0.335617,0.247319 -0.416123,0.247319 -0.0805,0 -0.232776,0.09893 -0.338382,0.219838 -0.331412,0.379449 -0.575748,0.279587 -0.470654,-0.192359 0.05048,-0.226709 0.147062,-0.459188 0.214622,-0.516621 0.15553,-0.132219 0.162768,-2.039007 0.0077,-2.039007 -0.0633,0 -0.151884,-0.221505 -0.196851,-0.492234 -0.09008,-0.542328 -0.26779,-0.847728 -0.720347,-1.237915 -0.164834,-0.142117 -0.299771,-0.293243 -0.299861,-0.335837 -2.66e-4,-0.157911 -0.637079,-0.682 -0.828603,-0.682 -0.151876,0 -0.216628,0.199165 -0.276247,0.849688 -0.04283,0.467328 -0.14139,0.86716 -0.219024,0.888515 -0.07763,0.02136 -0.141153,0.133634 -0.141153,0.249507 0,0.115874 -0.02507,0.210679 -0.05571,0.210679 -0.03064,0 -0.143173,0.0277 -0.250077,0.06155 -0.146042,0.04625 -0.217017,-0.06307 -0.285453,-0.439678 -0.08958,-0.49294 -0.341158,-0.70523 -0.341158,-0.287878 0,0.117343 -0.05994,0.243922 -0.133199,0.281286 -0.07326,0.03736 -0.133199,0.163943 -0.133199,0.281286 0,0.117344 -0.04884,0.213352 -0.108529,0.213352 -0.05969,0 -0.20857,0.173123 -0.330843,0.384718 -0.122272,0.211595 -0.283222,0.384718 -0.357667,0.384718 -0.07444,0 -0.135354,0.09893 -0.135354,0.219839 0,0.120911 -0.05994,0.219839 -0.133199,0.219839 -0.07326,0 -0.133199,0.138498 -0.133199,0.307774 0,0.169276 -0.07342,0.368366 -0.163164,0.442422 -0.128751,0.106249 -0.128751,0.180118 0,0.350251 0.08974,0.118582 0.163164,0.315203 0.163164,0.436934 0,0.121731 0.05994,0.221331 0.133199,0.221331 0.07326,0 0.133199,0.09893 0.133199,0.219838 0,0.247084 -0.12971,0.276678 -0.343005,0.07826 z M 62.987376,53.678687 v -3.407504 h 6.460154 6.460154 v 3.407504 3.407504 h -2.86378 -2.863779 v -1.758712 -1.758712 h 1.198791 1.198792 V 53.01917 52.469573 H 69.44753 66.317352 v 0.549597 0.549597 h 1.198792 1.198791 v 1.758712 1.758712 h -2.863779 -2.86378 z M 23.422667,38.953181 c 0.222304,-0.179329 0.40419,-0.401916 0.40419,-0.494638 0,-0.09272 0.0468,-0.168583 0.103996,-0.168583 0.0572,0 0.185349,-0.160758 0.284778,-0.357239 0.136784,-0.270293 0.196059,-1.341161 0.243547,-4.399963 0.03452,-2.2235 0.02258,-4.26388 -0.02654,-4.534179 l -0.08931,-0.491453 H 13.961966 c -5.70975,0 -10.381364,0.03854 -10.381364,0.08565 0,0.04711 0.12547,0.158402 0.278821,0.247319 0.266862,0.15473 0.437855,0.266683 1.031962,0.675647 0.147194,0.101324 0.548853,0.313792 0.892577,0.472153 0.343723,0.158359 0.701167,0.347509 0.79432,0.420332 0.443499,0.346709 0.752412,0.517124 0.937395,0.517124 0.111351,0 0.236957,0.07419 0.279126,0.164879 0.04217,0.09068 0.145181,0.164939 0.228918,0.165013 0.08374,7.4e-5 0.326405,0.123733 0.539263,0.274799 0.212858,0.151065 0.454369,0.274664 0.536691,0.274664 0.08232,0 0.23608,0.09893 0.341685,0.219839 0.105605,0.120912 0.292243,0.219839 0.414751,0.219839 0.122508,0 0.258334,0.07654 0.301836,0.170092 0.0435,0.09355 0.259703,0.222049 0.480447,0.285552 0.220745,0.0635 0.401354,0.160085 0.401354,0.214627 0,0.05454 0.06789,0.09917 0.150875,0.09917 0.08298,0 0.247815,0.09185 0.366298,0.204115 0.118482,0.112264 0.350286,0.239256 0.51512,0.282206 0.164834,0.04295 0.299698,0.124221 0.299698,0.180603 0,0.05638 0.106646,0.102512 0.236993,0.102512 0.130346,0 0.323396,0.09893 0.429002,0.219839 0.105605,0.120911 0.268686,0.219839 0.362402,0.219839 0.09372,0 0.170394,0.03822 0.170394,0.08492 0,0.04671 0.209788,0.178156 0.466197,0.292107 0.256408,0.113952 0.466196,0.248859 0.466196,0.299795 0,0.05094 0.09786,0.09261 0.217474,0.09261 0.119612,0 0.314415,0.09185 0.432897,0.204115 0.118484,0.112264 0.350287,0.239257 0.515121,0.282206 0.164834,0.04295 0.299698,0.124222 0.299698,0.180604 0,0.05638 0.08062,0.102512 0.179154,0.102512 0.09853,0 0.287643,0.09893 0.420242,0.219839 0.132598,0.120911 0.307334,0.219839 0.388303,0.219839 0.08097,0 0.30882,0.123659 0.506337,0.274798 0.197518,0.15114 0.421679,0.274799 0.498137,0.274799 0.07646,0 0.139012,0.0403 0.139012,0.08956 0,0.04926 0.209788,0.172118 0.466196,0.27302 0.256408,0.100903 0.466197,0.233723 0.466197,0.295157 0,0.06143 0.08922,0.111698 0.198276,0.111698 0.177636,0 0.470811,0.160379 0.91548,0.500806 0.0834,0.06385 0.346438,0.210538 0.584532,0.325978 0.238093,0.11544 0.432897,0.248689 0.432897,0.296111 0,0.04742 0.114884,0.08622 0.255298,0.08622 0.140413,0 0.275277,0.0371 0.299698,0.08244 0.08996,0.167043 0.719246,0.4558 1.0055,0.461393 0.162308,0.0032 0.476991,-0.140959 0.699295,-0.320289 z M 116.0563,27.67097 c 0.18344,-0.05809 0.21069,-0.385047 0.21069,-2.528148 0,-1.535802 -0.0491,-2.461428 -0.13066,-2.461428 -0.0719,0 -0.17136,-0.136026 -0.2211,-0.302279 -0.0865,-0.289181 -0.50648,-0.686997 -0.72523,-0.686997 -0.0571,0 -0.14365,-0.10349 -0.1923,-0.229979 -0.0487,-0.126487 -0.35238,-0.450911 -0.67497,-0.720941 -0.32259,-0.27003 -0.58652,-0.534184 -0.58652,-0.58701 0,-0.05283 -0.10489,-0.125703 -0.2331,-0.161949 -0.1282,-0.03625 -0.44289,-0.293093 -0.69929,-0.57077 -0.25641,-0.277678 -1.15551,-1.079873 -1.99799,-1.782657 l -1.53179,-1.277788 -0.039,4.946376 c -0.0215,2.720507 -0.003,5.154108 0.0404,5.408001 0.056,0.325291 0.15604,0.481678 0.33872,0.529525 0.14258,0.03734 0.25924,0.114031 0.25924,0.170413 0,0.05638 0.17628,0.102512 0.39173,0.102512 0.21546,0 0.42878,0.04946 0.47406,0.109919 0.0892,0.119063 4.95272,0.158578 5.31707,0.0432 z M 80.969248,26.568111 c 0.329667,-0.06008 0.745588,-0.180113 0.924268,-0.266744 0.487844,-0.236524 1.340115,-0.968669 1.340115,-1.151226 0,-0.08824 0.05994,-0.160438 0.133199,-0.160438 0.07326,0 0.133199,-0.12366 0.133199,-0.274799 0,-0.151139 0.05994,-0.274799 0.133199,-0.274799 0.08765,0 0.1332,-2.912866 0.1332,-8.518759 0,-5.605894 -0.04555,-8.5187597 -0.1332,-8.5187597 -0.07326,0 -0.133199,-0.148391 -0.133199,-0.329758 0,-0.181368 -0.05994,-0.329759 -0.133199,-0.329759 -0.07326,0 -0.133199,-0.05155 -0.133199,-0.114559 0,-0.27828 -0.941388,-1.023458 -1.594148,-1.261886 -0.5793,-0.211595 -0.932121,-0.217387 -13.242218,-0.217387 -9.999255,0 -12.658677,0.02877 -12.702549,0.137399 -0.03052,0.07557 -0.135511,0.137399 -0.233316,0.137399 -0.383728,0 -1.664758,1.223478 -1.664758,1.589966 0,0.09281 -0.05994,0.168746 -0.133199,0.168746 -0.08768,0 -0.133199,2.9678257 -0.133199,8.6836387 0,4.8888 0.05093,8.683639 0.116549,8.683639 0.0641,0 0.15312,0.150899 0.197819,0.335333 0.09333,0.385098 1.421205,1.509983 1.866609,1.581266 0.155763,0.02493 0.552933,0.09299 0.882601,0.151254 0.810435,0.143227 23.571411,0.09676 24.375426,-0.04977 z"
   style="fill:#000000;stroke-width:0.121001" /></svg>
