<?xml version="1.0" encoding="UTF-8"?>
<!DOCTYPE svg PUBLIC "-//W3C//DTD SVG 1.1//EN" "http://www.w3.org/Graphics/SVG/1.1/DTD/svg11.dtd">
<!-- Creator: CorelDRAW 2019 (64-Bit) -->
<svg xmlns="http://www.w3.org/2000/svg" xml:space="preserve" width="101.388mm" height="104.818mm" version="1.1" style="shape-rendering:geometricPrecision; text-rendering:geometricPrecision; image-rendering:optimizeQuality; fill-rule:evenodd; clip-rule:evenodd"
viewBox="0 0 380.83 393.71"
 xmlns:xlink="http://www.w3.org/1999/xlink">
 <defs>
  <style type="text/css">
   <![CDATA[
    .fil0 {fill:black}
   ]]>
  </style>
 </defs>
 <g id="Слой_x0020_1">
  <metadata id="CorelCorpID_0Corel-Layer"/>
  <path class="fil0" d="M192.22 257.08c51.07,0 121.79,-77.39 121.79,-77.39 0,0 -66.46,2.42 -80.21,-24.42l-0.65 -1.19c-11.83,9.2 -26.67,14.69 -42.73,14.69l-0.01 0c-14.92,0 -28.78,-4.74 -40.16,-12.79 -14.56,26.09 -79.82,23.71 -79.82,23.71 0,0 70.72,77.39 121.79,77.39zm-134.02 -193.83l-7.61 3.96c-1.89,0.98 -2.62,3.33 -1.65,5.22l36.99 71.11 14.47 -7.53 -36.99 -71.11c-0.99,-1.88 -3.33,-2.63 -5.22,-1.64zm63.62 72.28l-2.25 -4.32c-0.55,-1.07 -1.88,-1.49 -2.95,-0.93l-44.68 23.24c-1.07,0.56 -1.49,1.88 -0.93,2.95l2.25 4.32c0.56,1.07 1.88,1.49 2.95,0.93l44.68 -23.24c1.07,-0.55 1.49,-1.88 0.93,-2.95zm-29.4 20.48l7.44 14.29c5.63,-0.7 11.38,-1.68 16.81,-3.03l-9.78 -18.79 -14.47 7.53zm233.8 -92.76l7.61 3.96c1.89,0.98 2.62,3.33 1.65,5.22l-36.99 71.11 -14.47 -7.53 36.99 -71.11c0.99,-1.88 3.33,-2.63 5.21,-1.64zm-63.62 72.28l2.25 -4.32c0.55,-1.07 1.88,-1.49 2.95,-0.93l44.68 23.24c1.07,0.56 1.49,1.88 0.93,2.95l-2.25 4.32c-0.56,1.07 -1.88,1.49 -2.95,0.93l-44.68 -23.24c-1.07,-0.55 -1.49,-1.88 -0.93,-2.95zm29.4 20.48l-7.44 14.29c-5.63,-0.7 -11.38,-1.68 -16.81,-3.03l9.78 -18.79 14.47 7.53zm-111.74 112.39c3.73,10.06 5.76,20.94 5.76,32.3 0,25.68 -10.41,48.94 -27.25,65.77 -16.82,16.84 -40.09,27.25 -65.77,27.25 -25.68,0 -48.94,-10.41 -65.76,-27.25 -16.84,-16.82 -27.25,-40.09 -27.25,-65.77 0,-25.67 10.41,-48.93 27.25,-65.76 14.28,-14.3 33.2,-23.96 54.31,-26.55 7.83,7.36 16.55,14.94 25.78,22.14l-11.31 8.08 0 30.87 13.63 9.74 12.83 9.17 28.49 -9.25 5.21 -16.46 0.52 -1.64c7.99,3.45 15.91,6.01 23.56,7.37zm121.06 32.56c-2.65,1.16 -4.95,2.87 -6.43,5.42 -1.38,2.39 -2.05,4.99 -2.05,7.76 0,4.88 1.65,9.01 5.45,12.07 3.36,2.7 7.38,3.74 11.61,3.74 4.53,0 8.73,-1.22 12.01,-4.5 3.19,-3.2 4.5,-7.23 4.5,-11.74 0,-2.78 -0.67,-5.37 -2.2,-7.68 -1.59,-2.39 -3.86,-4 -6.46,-5.06l-0.84 -0.34 0.83 -0.37c2.11,-0.93 3.88,-2.32 5.15,-4.27 1.27,-1.92 1.84,-4.06 1.84,-6.37 0,-3.78 -1.27,-6.99 -4,-9.56 -3.07,-2.9 -7.22,-3.79 -11.29,-3.79 -4.07,0 -8.27,0.87 -11.33,3.79 -2.7,2.58 -3.96,5.79 -3.96,9.56 0,2.23 0.57,4.3 1.71,6.2 1.27,2.1 3.27,3.49 5.46,4.44l0.82 0.35 -0.82 0.36zm1.57 -10.61c0,-1.85 0.51,-3.58 1.82,-4.91 1.31,-1.35 3,-1.86 4.84,-1.86 1.8,0 3.45,0.53 4.72,1.85 1.3,1.33 1.79,3.03 1.79,4.88 0,1.89 -0.48,3.69 -1.82,5.05 -1.3,1.33 -2.98,1.85 -4.81,1.85 -1.8,0 -3.47,-0.51 -4.76,-1.82 -1.33,-1.35 -1.79,-3.18 -1.79,-5.04zm-0.95 22.81c0,-2.15 0.65,-4.1 1.86,-5.86 1.38,-1.99 3.43,-2.76 5.78,-2.76 2.17,0 4.02,0.79 5.5,2.42 1.58,1.75 2.16,3.98 2.16,6.31 0,2.44 -0.47,5.01 -2.12,6.87 -1.44,1.62 -3.25,2.41 -5.4,2.41 -2.21,0 -4.07,-0.84 -5.56,-2.5 -1.68,-1.9 -2.22,-4.4 -2.22,-6.89zm-3.88 -100.32c21.9,1.88 41.57,11.53 56.23,26.2 16.4,16.41 26.54,39.06 26.54,64.07 0,25.02 -10.14,47.68 -26.54,64.07 -16.39,16.4 -39.05,26.54 -64.07,26.54 -25.02,0 -47.67,-10.14 -64.07,-26.54 -16.4,-16.39 -26.54,-39.05 -26.54,-64.07 0,-12.48 2.53,-24.38 7.1,-35.2 30.63,-6.45 65.16,-31.28 91.35,-55.07zm11.57 39.22c14.1,0 26.86,5.71 36.1,14.96 9.24,9.24 14.96,22 14.96,36.1 0,14.1 -5.71,26.86 -14.96,36.1 -9.23,9.24 -22,14.96 -36.1,14.96 -14.1,0 -26.86,-5.71 -36.1,-14.96 -9.24,-9.23 -14.96,-22 -14.96,-36.1 0,-14.1 5.72,-26.86 14.96,-36.09 9.23,-9.25 22,-14.96 36.1,-14.96zm-129.72 52.2l-13.44 -9.93 -13.07 -9.65 -27.97 9.09 -5.48 16.61 -5.16 15.6 16.84 23.17 17.07 -0.13 16.72 -0.13c8.59,-12.88 13.83,-28.18 14.49,-44.65zm-63.44 80.22l5.29 -15.87 5.19 -15.6 -16.97 -23.35 -16.99 0 -16.99 0 -16.97 23.35 5.19 15.6 5.3 15.87c7.46,2.09 15.33,3.2 23.46,3.2 8.13,0 16,-1.12 23.46,-3.2zm-95.87 -35.57l16.72 0.13 17.07 0.13 16.84 -23.17 -5.16 -15.61 -5.48 -16.61 -27.97 -9.08 -13.07 9.65 -13.45 9.93c0.66,16.47 5.91,31.77 14.5,44.64zm4.19 -102.17l5.05 15.94 5.21 16.46 28.48 9.25 12.83 -9.17 13.63 -9.74 0 -30.87 -13.62 -9.74 -13.63 -9.74c-11.85,4.4 -22.47,11.3 -31.24,20.06 -2.38,2.38 -4.62,4.9 -6.71,7.55zm165.61 -246.74l0.01 0c32.15,0 58.45,26.3 58.45,58.46l0 36.85c0,32.15 -26.3,58.45 -58.45,58.45l-0.01 0c-32.15,0 -58.45,-26.3 -58.45,-58.45l0 -36.85c0,-32.16 26.3,-58.46 58.45,-58.46zm0 66.14c15.71,0 16.37,-6.66 31.43,-6.66 15.06,0 16.37,9.62 16.37,19.24 0,9.62 -5.23,14.8 -18.99,14.8 -19.21,0 -38.41,0 -57.62,0 -13.75,0 -18.99,-5.18 -18.99,-14.8 0,-9.63 1.31,-19.24 16.37,-19.24 15.06,0 15.72,6.66 31.43,6.66z"/>
 </g>
</svg>
