<?xml version="1.0" encoding="UTF-8" standalone="no"?>
<svg
   xmlns:dc="http://purl.org/dc/elements/1.1/"
   xmlns:cc="http://creativecommons.org/ns#"
   xmlns:rdf="http://www.w3.org/1999/02/22-rdf-syntax-ns#"
   xmlns:svg="http://www.w3.org/2000/svg"
   xmlns="http://www.w3.org/2000/svg"
   xmlns:sodipodi="http://sodipodi.sourceforge.net/DTD/sodipodi-0.dtd"
   xmlns:inkscape="http://www.inkscape.org/namespaces/inkscape"
   xml:space="preserve"
   width="19.733782mm"
   height="34.633488mm"
   version="1.1"
   style="clip-rule:evenodd;fill-rule:evenodd;image-rendering:optimizeQuality;shape-rendering:geometricPrecision;text-rendering:geometricPrecision"
   viewBox="0 0 24.887544 43.684683"
   id="svg810"
   sodipodi:docname="мобильные.svg"
   inkscape:version="1.0 (4035a4fb49, 2020-05-01)"><metadata
   id="metadata814"><rdf:RDF><cc:Work
       rdf:about=""><dc:format>image/svg+xml</dc:format><dc:type
         rdf:resource="http://purl.org/dc/dcmitype/StillImage" /><dc:title></dc:title></cc:Work></rdf:RDF></metadata><sodipodi:namedview
   inkscape:document-rotation="0"
   pagecolor="#ffffff"
   bordercolor="#666666"
   borderopacity="1"
   objecttolerance="10"
   gridtolerance="10"
   guidetolerance="10"
   inkscape:pageopacity="0"
   inkscape:pageshadow="2"
   inkscape:window-width="1920"
   inkscape:window-height="1018"
   id="namedview812"
   showgrid="false"
   inkscape:zoom="3.2030773"
   inkscape:cx="-10.871368"
   inkscape:cy="60.962351"
   inkscape:window-x="-6"
   inkscape:window-y="-6"
   inkscape:window-maximized="1"
   inkscape:current-layer="svg810" />
 <defs
   id="defs804">
  <style
   type="text/css"
   id="style802">
   <![CDATA[
    .fil0 {fill:#2B2A29}
   ]]>
  </style>
 </defs>
 
<path
   id="path8"
   d="m 2.4306401,43.591927 c -0.736525,-0.212006 -1.041706,-0.388335 -1.52414102,-0.880617 -0.425837,-0.434534 -0.619391,-0.75921 -0.797072,-1.33704 l -0.111215,-0.361678 V 21.843677 2.674763 l 0.111215,-0.361677 c 0.175357,-0.570274 0.371312,-0.899096 0.795258,-1.33448 C 1.3921631,0.477975 1.6985151,0.302718 2.4542551,0.09213 2.7746831,0.00284 3.0826841,0 12.443739,0 c 9.361054,0 9.669056,0.0028 9.989483,0.09213 0.742968,0.207029 1.068597,0.394327 1.558497,0.896428 0.414684,0.425011 0.611866,0.757152 0.786332,1.324528 l 0.111214,0.361677 v 19.168914 19.168915 l -0.111214,0.361678 c -0.174466,0.567375 -0.371648,0.899516 -0.786332,1.324526 -0.4899,0.5021 -0.815529,0.689401 -1.558497,0.89643 -0.320638,0.08934 -0.622992,0.09202 -10.013099,0.0886 -9.2384559,-0.0034 -9.6965569,-0.0076 -9.9894829,-0.0919 z M 13.081365,40.422363 c 1.410955,-0.452734 1.849567,-2.257973 0.803899,-3.308685 -0.810296,-0.814201 -2.084868,-0.810687 -2.886674,0.008 -0.292644,0.298789 -0.469285,0.639089 -0.542828,1.045755 -0.270379,1.495103 1.161418,2.724782 2.625603,2.254968 z m 9.410976,-20.92959 0.01189,-14.0933715 H 12.443818 2.3834081 V 19.472679 c 0,7.740304 0.01422,14.087797 0.0316,14.105539 0.01738,0.01774 4.539213,0.02679 10.0485229,0.02009 l 10.016923,-0.01217 z M 17.114634,3.409464 C 17.32128,3.300572 17.410161,3.056116 17.393727,2.641851 17.377527,2.233582 17.278758,2.029563 17.068177,1.969419 16.923619,1.928129 8.0670631,1.916829 7.8670261,1.957669 c -0.258038,0.05269 -0.358989,0.261126 -0.358989,0.741204 0,0.440381 0.07765,0.641414 0.280067,0.725058 0.05378,0.02222 2.148817,0.04146 4.6556349,0.04275 3.5285,0.0018 4.583379,-0.01111 4.670895,-0.05722 z"
   style="fill:#000000;stroke-width:0.0477251" /></svg>
