<?xml version="1.0" encoding="UTF-8" standalone="no"?>
<svg
   xmlns:dc="http://purl.org/dc/elements/1.1/"
   xmlns:cc="http://creativecommons.org/ns#"
   xmlns:rdf="http://www.w3.org/1999/02/22-rdf-syntax-ns#"
   xmlns:svg="http://www.w3.org/2000/svg"
   xmlns="http://www.w3.org/2000/svg"
   xmlns:sodipodi="http://sodipodi.sourceforge.net/DTD/sodipodi-0.dtd"
   xmlns:inkscape="http://www.inkscape.org/namespaces/inkscape"
   version="1.1"
   id="svg401"
   width="1064.8931"
   height="519.36157"
   viewBox="0 0 1064.8931 519.36157"
   sodipodi:docname="гребля.svg"
   inkscape:version="1.0 (4035a4fb49, 2020-05-01)">
  <metadata
     id="metadata407">
    <rdf:RDF>
      <cc:Work
         rdf:about="">
        <dc:format>image/svg+xml</dc:format>
        <dc:type
           rdf:resource="http://purl.org/dc/dcmitype/StillImage" />
        <dc:title></dc:title>
      </cc:Work>
    </rdf:RDF>
  </metadata>
  <defs
     id="defs405" />
  <sodipodi:namedview
     inkscape:document-rotation="0"
     pagecolor="#ffffff"
     bordercolor="#666666"
     borderopacity="1"
     objecttolerance="10"
     gridtolerance="10"
     guidetolerance="10"
     inkscape:pageopacity="0"
     inkscape:pageshadow="2"
     inkscape:window-width="1920"
     inkscape:window-height="1018"
     id="namedview403"
     showgrid="false"
     inkscape:zoom="0.60644074"
     inkscape:cx="687.04829"
     inkscape:cy="204.7424"
     inkscape:window-x="-6"
     inkscape:window-y="-6"
     inkscape:window-maximized="1"
     inkscape:current-layer="g409" />
  <g
     transform="translate(-4.791195,-60.484156)"
     inkscape:groupmode="layer"
     inkscape:label="Image"
     id="g409">
    <path
       id="path8"
       d="m 465.03274,555.19796 c -24.08562,-22.15694 -28.82631,-27.67374 -35.98124,-41.8716 -11.0422,-21.91164 -32.66251,-81.47192 -34.37868,-94.70745 l -1.37715,-10.62088 15.66838,-14.52031 c 18.40898,-17.06005 38.96672,-32.37188 52.80747,-39.33205 7.95099,-3.99836 10.72542,-6.99659 14.19415,-15.33913 4.71217,-11.33312 5.60788,-18.60528 2.0438,-16.59332 -1.24925,0.70521 -2.27137,3.06181 -2.27137,5.23688 0,5.3757 -12.38296,17.88637 -19.26551,19.46419 -3.07358,0.70461 -6.71265,3.19993 -8.08678,5.54516 -3.25327,5.55236 -22.09978,16.43351 -28.46339,16.43351 -2.72598,0 -8.6257,1.40039 -13.11053,3.11198 -13.44937,5.13284 -23.02516,4.09846 -29.24341,-3.15889 -4.31222,-5.0328 -7.59586,-6.49581 -16.632,-7.41019 -10.32636,-1.04496 -16.33895,0.67831 -72.58577,20.80377 -33.72973,12.0687 -65.37682,24.52557 -70.32687,27.68193 -5.49399,3.50322 -12.23678,10.97516 -17.30858,19.18025 -4.56966,7.39277 -11.02773,16.1575 -14.35126,19.47718 l -6.04277,6.03575 -83.3111,-1.43994 C 26.96231,451.96412 13.0877,451.22954 9.8590104,448.56067 3.7196304,443.48579 3.1186804,437.5174 8.2730304,432.80943 15.9318,425.81392 58.1508,408.54302 82.0265,402.63842 c 20.81383,-5.14736 25.84826,-5.54907 73.51998,-5.86635 28.14685,-0.18734 53.69968,-1.00235 56.78405,-1.81113 3.08438,-0.80879 33.45713,-11.90633 67.49501,-24.6612 l 61.88704,-23.19066 2.84679,-9.03367 c 2.46667,-7.82751 4.51472,-9.86909 15.33926,-15.29073 6.87087,-3.4414 16.22393,-9.51134 20.78457,-13.48878 4.56065,-3.97743 11.61455,-7.85237 15.67533,-8.61096 6.45351,-1.20559 7.78435,-2.63567 10.56829,-11.3564 2.10741,-6.60151 6.51747,-13.02099 13.03458,-18.97367 5.41724,-4.94809 13.50767,-15.94346 17.97874,-24.43415 12.96852,-24.6276 36.28133,-45.07482 51.39186,-45.07482 5.57965,0 9.11973,-7.17561 9.11973,-18.48541 0,-9.33205 5.38837,-14.66901 14.9427,-14.80013 3.64937,-0.05 10.72369,-1.54703 15.72069,-3.32655 4.997,-1.77951 14.19601,-4.93531 20.44226,-7.01285 7.46517,-2.48299 11.5857,-5.11498 12.02477,-7.68083 0.3674,-2.14691 -2.95447,-9.39816 -7.38193,-16.11391 -8.97492,-13.61357 -10.11533,-20.63485 -3.84909,-23.69799 2.31045,-1.12945 6.39686,-7.55482 9.08093,-14.278606 6.41578,-16.07204 16.03561,-27.90787 26.29801,-32.35595 15.57819,-6.75213 43.339,0.23508 54.22696,13.64854 5.02646,6.19234 10.46439,28.612326 10.59248,43.671526 0.059,6.93758 -2.01693,13.70587 -7.08061,23.08518 -3.94025,7.29841 -6.62227,14.55145 -5.96008,16.11785 0.66222,1.56641 10.59968,6.51629 22.08325,10.99974 21.52838,8.40516 29.65409,14.75356 29.65409,23.1679 0,3.92216 1.80698,5.27133 9.64053,7.198 5.30226,1.30411 13.41884,4.13174 18.03682,6.28363 l 8.39631,3.91251 60.893,-19.53383 c 80.66636,-25.87691 84.38316,-27.22713 127.89826,-46.46261 64.3925,-28.46418 131.01272,-52.218276 146.45012,-52.218276 7.0508,0 11.0149,6.24839 8.2215,12.959126 -4.5816,11.00693 -16.9805,17.19978 -81.40832,40.6606 -41.2782,15.03113 -74.4357,25.68722 -94.0602,30.22895 -35.3807,8.18823 -144.30587,43.24264 -142.95384,46.00556 0.50772,1.03749 4.01146,2.81995 7.78607,3.96101 3.77464,1.14106 8.58523,4.87544 10.69019,8.29862 2.57418,4.18626 5.36532,6.07045 8.5252,5.75504 9.07089,-0.90545 27.65488,26.19743 27.70168,40.40006 0.027,8.13064 -11.69453,20.93193 -26.34809,28.77576 l -9.71498,5.20031 L 745.0558,304.554 c -13.16951,-5.86017 -26.06279,-13.11451 -28.65169,-16.12073 -7.13905,-8.28985 -12.08657,-4.22122 -13.58533,11.172 -1.27671,13.11269 -4.30383,19.74943 -10.97295,24.05755 -2.63994,1.70533 -4.61475,6.26909 -5.36162,12.39059 -1.13646,9.31478 -0.78635,10.0394 9.02189,18.67189 12.64368,11.12804 29.35266,31.37875 33.65984,40.79455 4.53196,9.90712 4.06885,17.17461 -2.52752,39.66444 -10.08546,34.38562 -14.18071,40.47878 -39.1085,58.18797 -35.21818,25.01972 -76.87131,49.54969 -106.17347,62.52672 -25.60841,11.34119 -33.71456,13.64582 -84.0404,23.89323 -3.42949,0.6983 -11.34083,-5.32876 -32.28331,-24.59425 z"
       style="fill:#000000;stroke-width:2.17078" />
  </g>
</svg>
