<?xml version="1.0" encoding="UTF-8" standalone="no"?>
<svg
   xmlns:dc="http://purl.org/dc/elements/1.1/"
   xmlns:cc="http://creativecommons.org/ns#"
   xmlns:rdf="http://www.w3.org/1999/02/22-rdf-syntax-ns#"
   xmlns:svg="http://www.w3.org/2000/svg"
   xmlns="http://www.w3.org/2000/svg"
   xmlns:sodipodi="http://sodipodi.sourceforge.net/DTD/sodipodi-0.dtd"
   xmlns:inkscape="http://www.inkscape.org/namespaces/inkscape"
   version="1.1"
   id="svg658"
   width="741.72559"
   height="1279.078"
   viewBox="0 0 741.72559 1279.078"
   sodipodi:docname="рыбалка.svg"
   inkscape:version="1.0 (4035a4fb49, 2020-05-01)">
  <metadata
     id="metadata664">
    <rdf:RDF>
      <cc:Work
         rdf:about="">
        <dc:format>image/svg+xml</dc:format>
        <dc:type
           rdf:resource="http://purl.org/dc/dcmitype/StillImage" />
        <dc:title></dc:title>
      </cc:Work>
    </rdf:RDF>
  </metadata>
  <defs
     id="defs662" />
  <sodipodi:namedview
     inkscape:document-rotation="0"
     pagecolor="#ffffff"
     bordercolor="#666666"
     borderopacity="1"
     objecttolerance="10"
     gridtolerance="10"
     guidetolerance="10"
     inkscape:pageopacity="0"
     inkscape:pageshadow="2"
     inkscape:window-width="1920"
     inkscape:window-height="1018"
     id="namedview660"
     showgrid="false"
     inkscape:zoom="0.65625"
     inkscape:cx="69.127656"
     inkscape:cy="631.82563"
     inkscape:window-x="-6"
     inkscape:window-y="-6"
     inkscape:window-maximized="1"
     inkscape:current-layer="g666" />
  <g
     transform="translate(-301.87234,-8.174367)"
     inkscape:groupmode="layer"
     inkscape:label="Image"
     id="g666">
    <path
       id="path78"
       d="m 813.21429,1286.5907 c -38.20505,-2.7031 -57.6504,-6.7385 -59.03397,-12.251 -0.67965,-2.708 -9.62184,-8.5793 -14.72658,-9.6694 -4.11655,-0.879 -8.88716,0.3723 -15.31383,4.0169 l -5.07438,2.8776 -9.92562,-1.5583 c -5.45909,-0.857 -10.45287,-2.0823 -11.09729,-2.7229 -0.78058,-0.7759 -1.39637,-8.5079 -1.84488,-23.1646 -0.7449,-24.3424 -0.1834,-29.0086 5.70623,-47.4205 l 3.01344,-9.4205 -5.07885,-11.0795 c -2.79337,-6.0937 -5.55613,-13.1045 -6.13947,-15.5795 -0.58334,-2.475 -1.46444,-23.85 -1.958,-47.5 -0.83087,-39.8132 -1.94121,-59.2103 -4.0356,-70.5 -0.5039,-2.7162 -0.39877,-7.503 0.26521,-12.0758 l 1.10003,-7.5758 -3.67822,-6.055 c -4.03333,-6.6396 -4.53444,-10.3084 -2.17822,-15.9476 1.99615,-4.77746 2.00939,-4.73241 -1.94473,-6.618 l -3.44473,-1.64268 -2.11073,3.41524 c -2.88631,4.67014 -7.32063,8.21594 -12.04488,9.63134 l -3.95493,1.1849 v 6.716 c 0,3.9317 -0.70371,8.53 -1.69745,11.0917 -1.49996,3.8666 -1.77473,11.3564 -2.36162,64.3757 -0.44996,40.649 -1.0427,61.4513 -1.83784,64.5 -0.64553,2.475 -3.65274,9.45 -6.68269,15.5 l -5.50901,11 -0.0137,9.643 c -0.0123,8.6674 0.39689,10.8496 4.0443,21.5672 3.40324,10.0001 4.05757,13.2041 4.0552,19.8569 -0.004,10.5136 -1.8691,25.6566 -3.32989,27.032 -1.73821,1.6365 -20.25685,6.7724 -22.00331,6.1022 -0.82987,-0.3185 -1.65626,-1.5838 -1.83642,-2.8118 -0.5143,-3.5057 -2.10192,-3.2426 -6.8861,1.1414 -13.51462,12.3841 -27.09085,17.9311 -49.04454,20.0384 -9.77212,0.938 -12.08402,0.7832 -29.5,-1.9751 -17.89031,-2.8335 -19.03629,-3.1483 -21.51332,-5.9098 -3.23449,-3.606 -4.42309,-10.4444 -2.84709,-16.3802 2.05519,-7.7406 9.09292,-13.26 26.48701,-20.7726 13.72849,-5.9294 15.52445,-7.0127 21.55242,-13 4.03726,-4.01 7.70169,-8.8479 9.49195,-12.5316 2.81822,-5.7988 2.92664,-6.5701 3.233,-23 0.25142,-13.483 -0.51274,-26.6199 -3.69373,-63.5 -5.9977,-69.5368 -6.45898,-77.8169 -5.78587,-103.859 l 0.60376,-23.35904 -2.58316,-2.14096 c -14.08429,-11.67319 -15.567,-14.94012 -15.49501,-34.14095 0.0268,-7.15 0.97222,-22.56142 2.10092,-34.24759 2.81781,-29.17459 2.7076,-34.43772 -0.98953,-47.25241 -6.30981,-21.8706 -6.43135,-23.39794 -6.44544,-81 l -0.0128,-52.5 -2.30882,-4.77718 c -3.13594,-6.48859 -3.20741,-13.43336 -0.23245,-22.58973 2.11192,-6.50013 2.25516,-7.8843 1.21741,-11.76435 -0.70986,-2.65408 -1.20257,-12.61806 -1.24281,-25.13309 l -0.0667,-20.73565 -7.43333,-5.75815 -7.43333,-5.75814 v -4.99186 c 0,-4.96202 -0.0194,-4.99194 -3.25,-5.00716 -7.23486,-0.0341 -7.80876,-1.99876 -7.66332,-26.23437 0.1315,-21.91366 -0.37222,-24.73565 -5.5039,-30.83431 -1.34452,-1.59787 -2.72386,-3.78516 -3.0652,-4.86064 -0.88233,-2.77994 1.9079,-7.60152 8.2417,-14.24185 l 5.47942,-5.74459 -0.17406,-26.75585 c -0.0957,-14.71571 -0.33024,-26.91202 -0.52113,-27.10291 -0.19089,-0.19088 -4.97248,3.09528 -10.62576,7.30259 -15.5236,11.55305 -23.82754,16.06466 -33.93639,18.43793 -9.76362,2.29223 -13.79073,2.50774 -19.1329,1.02391 -4.05652,-1.12672 -9.67431,-6.74105 -12.68736,-12.67954 -2.9901,-5.89324 -7.6029,-21.24729 -11.65518,-38.79506 -2.03217,-8.8 -3.84873,-16.15889 -4.0368,-16.35308 -0.94684,-0.97767 -7.32502,23.11345 -13.46345,50.85308 -7.44267,33.63345 -16.19105,58.9003 -24.35469,70.34061 -9.8537,13.80873 -11.82383,23.89864 -11.48064,58.79741 0.23722,24.1223 0.1371,25.70414 -2.04826,32.36198 -5.33447,16.25179 -12.67806,22.69382 -18.06419,15.84647 -1.14799,-1.45944 -3.22828,-6.52194 -4.62286,-11.25 -3.87825,-13.14849 -5.47799,-17.09647 -6.92755,-17.09647 -0.72991,0 -4.85332,5.91005 -9.16314,13.13345 -7.98322,13.38016 -10.2378,15.61208 -14.65152,14.5043 -4.20848,-1.05626 -6.16947,-6.70451 -6.12356,-17.63775 0.0462,-10.99969 0.47042,-13.00745 9.03209,-42.74526 11.17709,-38.82213 11.08763,-40.61268 -3.60919,-72.23908 -15.10609,-32.50712 -16.7365,-41.23335 -17.65924,-94.51566 -1.07858,-62.2811 2.74217,-96.60719 13.9691,-125.5 6.89816,-17.75262 37.26338,-85.75526 39.22201,-87.83736 0.17455,-0.18555 2.85705,0.18987 5.96111,0.83428 4.34972,0.90299 6.79396,0.89571 10.66017,-0.0318 2.91657,-0.69967 5.38754,-0.83229 5.90302,-0.31681 0.48763,0.48764 5.92772,15.33318 12.08908,32.99009 l 11.20247,32.10348 5.58006,1.73554 c 8.05625,2.50572 19.8192,8.82967 26.63059,14.31705 15.05908,12.13186 24.59055,30.62128 32.06753,62.20551 1.36712,5.775 2.68483,11.09277 2.92823,11.81726 0.66092,1.96719 8.45371,-7.48364 8.45371,-10.25235 0,-5.15303 3.71065,-11.8407 19.01851,-34.27697 l 16.03111,-23.49629 -0.27481,-7.487 -0.27481,-7.487 21.5,-8.26563 c 24.68289,-9.48928 40.25697,-16.41354 61.49071,-27.33889 l 14.99071,-7.71313 3.8408,-7 c 4.95085,-9.02313 5.30076,-11.53738 3.16347,-22.73097 -1.52773,-8.00116 -2.20928,-9.67966 -4.98267,-12.27101 -2.87552,-2.68678 -3.60214,-4.62922 -6.9205,-18.5 -5.24077,-21.90656 -5.36801,-23.62856 -2.09908,-28.40869 l 2.67435,-3.91067 -25.57889,0.61655 c -14.0684,0.33912 -25.5789,0.43303 -25.5789,0.2087 0,-0.22432 11.75017,-9.2984 26.11149,-20.16462 14.36132,-10.86622 26.27594,-20.22533 26.47695,-20.79802 0.201,-0.57269 1.28488,-9.36625 2.40862,-19.54125 3.47618,-31.475398 6.7551,-45.382174 12.03209,-51.031209 2.70146,-2.89192 3.40848,-3.15443 6.96437,-2.585821 2.17671,0.348072 8.7384,2.870898 14.58153,5.606281 5.84312,2.735384 13.25524,5.516927 16.47137,6.181207 6.09398,1.258692 8.32181,1.077567 32.872,-2.672516 16.33068,-2.494537 23.1047,-0.332651 27.76319,8.860451 4.10584,8.102487 6.32376,21.045997 7.00733,40.893987 l 0.6114,17.75237 7.09983,2.04932 c 26.9951,7.79197 43.84633,13.77879 48.01654,17.05908 2.99237,2.3538 3.35891,5.40139 0.81347,6.76366 -4.283,2.29219 -19.54856,4.4813 -46.48018,6.66534 l -7.75,0.62849 v 3.44986 c 0,1.89743 0.74086,4.58056 1.64635,5.96251 1.3494,2.05945 1.53444,4.08223 1.02592,11.21482 -1.15989,16.26871 -6.15414,30.84998 -11.64603,34.00189 -2.43914,1.39988 -3.00215,2.57533 -3.91208,8.16774 -0.5846,3.5929 -1.59463,8.35973 -2.24452,10.59296 -1.57239,5.40325 -0.67518,8.37157 4.43397,14.66922 5.73126,7.0645 13.32151,11.98039 24.18909,15.66629 8.53241,2.89389 37.65242,10.37465 58.59323,15.05226 l 9.58592,2.14123 2.29158,12.70529 c 3.45576,19.15995 7.12254,33.1808 15.87585,60.70529 4.37276,13.75 8.44255,26.82868 9.04398,29.06372 0.66154,2.45843 4.69422,8.77893 10.20852,16 11.08761,14.51944 12.93334,17.62392 16.79209,28.24401 1.66021,4.56925 5.85301,13.03612 9.31735,18.81527 13.51535,22.54611 20.88739,29.83414 39.29878,38.85097 14.83859,7.26708 14.94169,7.28813 16.56018,3.38074 2.43302,-5.87383 11.75746,-14.1902 21.07799,-18.79923 l 8.63818,-4.27161 0.60389,-29.14194 c 0.57297,-27.65008 1.15521,-75.07632 3.68481,-300.14193 0.59962,-53.35 1.39278,-108.672792 1.76259,-122.939536 l 0.67236,-25.939535 7.39953,-1.8609323 c 4.74607,-1.1936034 7.74504,-1.5154275 8.36302,-0.8974476 0.95076,0.9507557 0.4948,1.4760441 -5.06574,5.8360759 l -2.3032,1.805937 -0.88657,122.997718 c -0.48761,67.64875 -1.19872,174.10631 -1.58023,236.57236 l -0.69366,113.57464 6.6963,0.10155 c 8.20413,0.12441 10.17001,1.32264 14.04487,8.56056 2.67291,4.99276 2.86814,5.95357 1.92658,9.48115 -0.88669,3.32196 -0.76745,4.27152 0.77568,6.1772 2.04211,2.5219 2.33959,6.54243 0.78634,10.62779 -0.5704,1.50025 -1.1329,7.07649 -1.25,12.39164 -0.19087,8.66302 -0.49606,10.0914 -2.94677,13.79152 -1.50361,2.27019 -5.38896,6.00005 -8.63409,8.28858 l -5.90024,4.16096 -0.62054,43.13489 c -0.59905,41.64157 -1.91298,212.10493 -3.28396,426.04653 -0.50155,78.268 -0.38024,102.739 0.5066,102.1909 0.64135,-0.3963 1.16608,-1.7628 1.16608,-3.0366 0,-6.4939 1.2101,-8.6342 7.16992,-12.6814 l 5.89788,-4.0052 4.93208,3.6205 c 5.21224,3.8261 5.31865,4.0816 6.41789,15.405 0.33964,3.4986 1.24023,6.1666 2.55343,7.5645 2.5189,2.6812 2.7241,9.1048 0.3738,11.7019 -1.59,1.7569 -1.3445,1.8293 6.25,1.844 4.3477,0.01 8.3666,0.3459 8.9308,0.75 0.5642,0.4041 2.4767,2.5995 4.25,4.8786 3.1166,4.0057 3.2242,4.4617 3.2242,13.6704 v 9.5265 l 6.25,0.5791 c 3.4375,0.3185 7.6,0.6918 9.25,0.8296 2.6169,0.2185 3.0412,0.6818 3.3228,3.6277 0.1776,1.8574 -0.047,3.726 -0.5,4.1524 -0.4525,0.4264 -6.6728,0.4817 -13.8228,0.1229 l -13,-0.6525 -0.5,-12 -0.5,-12 -9,0.3528 c -4.95,0.194 -9.10564,0.4496 -9.23476,0.5681 -0.12912,0.1184 -0.73051,3.7847 -1.33642,8.1472 -0.60591,4.3625 -1.17527,8.0029 -1.26524,8.0897 -0.09,0.087 -3.08858,0.3118 -6.66358,0.5 l -6.5,0.3422 -0.30235,-5.2527 c -0.26074,-4.5298 -0.80137,-5.7373 -3.92809,-8.774 -1.99415,-1.9367 -4.10809,-3.3606 -4.69764,-3.1642 -0.73772,0.2458 -1.22781,17.9465 -1.57192,56.774 l -0.5,56.4169 -9.3382,0.8618 c -5.22717,0.4824 -9.68958,0.4824 -10.13638,0 -0.439,-0.474 -0.42,-30.7868 0.0422,-67.3618 0.46224,-36.575 1.31823,-106.325 1.90221,-155 0.58398,-48.675 1.49929,-124.49995 2.03402,-168.49995 0.53472,-44 1.41603,-118.925 1.95846,-166.5 0.54243,-47.575 1.27327,-102.13226 1.62409,-121.23835 0.52973,-28.84997 0.40696,-34.81279 -0.72429,-35.17748 -0.74918,-0.24153 -18.91214,-4.12846 -40.36214,-8.63764 -33.72818,-7.09027 -40.83057,-8.90881 -52.54223,-13.45324 -15.03953,-5.83573 -23.41515,-9.85652 -32.55152,-15.62666 -3.36731,-2.12665 -6.29875,-3.86337 -6.51431,-3.85938 -0.21557,0.004 -0.42962,3.32193 -0.47568,7.37322 l -0.0837,7.36598 5.22688,2.5635 c 10.06006,4.93392 16.4406,12.71059 16.4406,20.038 0,2.25439 -1.15032,5.0999 -3.36068,8.31319 -4.69759,6.8291 -4.94609,8.02919 -5.04836,24.38092 -0.0865,13.82333 -0.22687,14.80401 -2.84096,19.84228 -1.5125,2.91513 -2.75,6.81155 -2.75,8.65873 -10e-6,11.31308 -4.72998,19.45693 -11.30064,19.45693 -1.89997,0 -4.01468,0.675 -4.69937,1.5 -0.97071,1.16963 -3.70691,1.5 -12.4235,1.5 h -11.1786 l 3.24129,9.75 c 4.7973,14.43055 6.68995,26.50115 6.78153,43.25 l 0.0793,14.5 -3.88587,9.5 c -5.14112,12.56876 -5.69589,21.09183 -2.60362,40 3.39116,20.73573 3.7601,62.74794 1.06776,121.59086 -1.93845,42.36642 -1.98707,47.0128 -0.60164,57.5 0.82898,6.27503 1.51086,13.76977 1.5153,16.65499 0.008,5.05021 -0.22683,5.50182 -6.29037,12.10915 l -6.29844,6.86329 -2.25914,12.16685 c -2.2296,12.00781 -2.2561,13.12401 -2.02764,85.39081 0.12731,40.2732 0.12137,84.474 -0.0132,98.224 l -0.24469,25 4.51168,7.5 c 6.33841,10.5367 15.42024,21.9079 20.13291,25.2082 2.19834,1.5395 11.64698,5.3862 20.99698,8.5482 11.2076,3.7902 18.28893,6.7703 20.78287,8.7463 5.19812,4.1186 9.14079,12.302 8.44091,17.52 -0.75136,5.6018 -5.12418,12.5521 -9.87538,15.6963 -3.50372,2.3187 -5.1917,2.7027 -12.69472,2.888 -4.75952,0.1175 -14.05368,-0.1684 -20.65368,-0.6353 z m -138.96754,-326.11542 5.74345,-10.14376 -2.27106,-20.10624 c -3.59477,-31.82535 -3.89708,-32.72244 -3.40565,-10.10623 0.25096,11.55 0.70278,23.925 1.00402,27.5 l 0.54772,6.5 -5.32547,3.5 c -5.89162,3.87209 -6.92368,6.39429 -4.27226,10.44086 0.92224,1.40753 1.80258,2.55914 1.9563,2.55914 0.15373,0 2.86405,-4.56469 6.02295,-10.14377 z"
       style="fill:#000000" />
  </g>
</svg>
