<?xml version="1.0" encoding="UTF-8" standalone="no"?>
<svg
   xmlns:dc="http://purl.org/dc/elements/1.1/"
   xmlns:cc="http://creativecommons.org/ns#"
   xmlns:rdf="http://www.w3.org/1999/02/22-rdf-syntax-ns#"
   xmlns:svg="http://www.w3.org/2000/svg"
   xmlns="http://www.w3.org/2000/svg"
   xmlns:sodipodi="http://sodipodi.sourceforge.net/DTD/sodipodi-0.dtd"
   xmlns:inkscape="http://www.inkscape.org/namespaces/inkscape"
   version="1.1"
   id="svg292"
   width="200.42369"
   height="248.57874"
   viewBox="0 0 200.42369 248.57874"
   sodipodi:docname="прыжки.svg"
   inkscape:version="1.0 (4035a4fb49, 2020-05-01)">
  <metadata
     id="metadata298">
    <rdf:RDF>
      <cc:Work
         rdf:about="">
        <dc:format>image/svg+xml</dc:format>
        <dc:type
           rdf:resource="http://purl.org/dc/dcmitype/StillImage" />
        <dc:title></dc:title>
      </cc:Work>
    </rdf:RDF>
  </metadata>
  <defs
     id="defs296" />
  <sodipodi:namedview
     inkscape:document-rotation="0"
     pagecolor="#ffffff"
     bordercolor="#666666"
     borderopacity="1"
     objecttolerance="10"
     gridtolerance="10"
     guidetolerance="10"
     inkscape:pageopacity="0"
     inkscape:pageshadow="2"
     inkscape:window-width="1920"
     inkscape:window-height="1018"
     id="namedview294"
     showgrid="false"
     inkscape:zoom="2.3854205"
     inkscape:cx="97.715041"
     inkscape:cy="140.22028"
     inkscape:window-x="-6"
     inkscape:window-y="-6"
     inkscape:window-maximized="1"
     inkscape:current-layer="g300" />
  <g
     transform="translate(-41.411219,-1.2527206)"
     inkscape:groupmode="layer"
     inkscape:label="Image"
     id="g300">
    <path
       id="path64"
       d="m 43.489892,248.80459 c -0.448816,-0.55644 -0.970077,-1.39586 -1.158357,-1.86536 -0.18828,-0.46951 -0.472375,-0.85365 -0.631322,-0.85365 -0.191121,0 -0.288994,-1.81106 -0.288994,-5.34759 0,-3.22326 0.10512,-5.34759 0.26462,-5.34759 0.14554,0 0.402581,-0.55282 0.571201,-1.2285 0.16862,-0.67567 0.483746,-1.59675 0.700281,-2.04684 0.216535,-0.45008 0.3937,-1.10404 0.3937,-1.45324 0,-0.34919 0.165528,-0.89148 0.367841,-1.20507 0.202313,-0.3136 0.533152,-1.22056 0.735197,-2.01547 0.202045,-0.79491 0.718839,-2.21628 1.148431,-3.1586 0.429592,-0.94233 0.781076,-1.98944 0.781076,-2.32693 0,-0.33749 0.144188,-0.76479 0.320418,-0.94957 0.176229,-0.18478 0.41515,-1.06791 0.530935,-1.96252 0.115784,-0.89461 0.405802,-1.85282 0.644483,-2.12935 0.238681,-0.27653 0.433966,-0.69119 0.433966,-0.92146 0,-0.67741 1.555836,-2.26661 2.823463,-2.88401 0.645691,-0.31449 1.360071,-0.67884 1.587512,-0.80967 0.918541,-0.52838 2.382717,-1.15133 3.032546,-1.29022 2.35487,-0.50335 8.613083,-3.48393 9.519112,-4.53364 0.270071,-0.3129 0.633134,-0.56891 0.806807,-0.56891 0.55616,0 3.423127,-2.88323 4.491956,-4.51743 1.577684,-2.41222 2.517046,-4.23342 2.534535,-4.91386 0.0087,-0.33824 0.19977,-0.77507 0.424614,-0.97072 0.224847,-0.19566 0.527407,-0.76441 0.67236,-1.2639 1.047011,-3.60788 2.782363,-6.53835 5.38147,-9.08762 1.912849,-1.87618 4.653237,-3.91728 5.720235,-4.26056 0.350088,-0.11263 0.778215,-0.32323 0.951395,-0.46799 0.357217,-0.29859 4.344389,-1.85867 6.05636,-2.3697 0.62326,-0.18604 1.305583,-0.48139 1.516273,-0.65633 0.21069,-0.17493 0.69322,-0.39676 1.072289,-0.49293 1.461411,-0.3708 4.968977,-4.36132 6.091995,-6.93081 0.37563,-0.85943 2.26872,-4.03427 3.99765,-6.70433 0.20589,-0.31797 0.99714,-1.5537 1.75835,-2.74606 0.7612,-1.19237 2.36363,-3.2736 3.56094,-4.62495 1.19732,-1.35135 2.5248,-2.91226 2.94995,-3.4687 0.42514,-0.55644 1.41993,-1.73819 2.21063,-2.62611 2.12884,-2.39058 5.34078,-7.77203 5.34381,-8.95326 5.5e-4,-0.24784 0.1833,-0.7031 0.40592,-1.01171 0.22261,-0.3086 0.4087,-0.76858 0.41353,-1.02215 0.005,-0.25358 0.25688,-0.69649 0.56013,-0.98424 0.30326,-0.28776 0.55138,-0.67107 0.55138,-0.8518 0,-0.53665 2.24675,-2.68047 3.59443,-3.42976 0.68811,-0.38257 1.49449,-0.83941 1.79196,-1.0152 1.24662,-0.73668 3.17564,-1.49613 3.8002,-1.49613 0.36882,0 0.82503,-0.19511 1.01379,-0.43359 0.18876,-0.23847 0.77207,-0.43358 1.29624,-0.43358 1.93106,0 6.14728,-2.25187 6.14728,-3.28324 0,-0.15646 0.2101,-0.5279 0.4669,-0.82542 0.8692,-1.00705 2.00606,-4.9021 2.011,-6.89003 0.002,-0.72337 0.15736,-1.47678 0.34569,-1.67424 0.22169,-0.23245 0.40486,-1.80695 0.51955,-4.46596 0.0974,-2.25882 0.31011,-4.69228 0.47264,-5.40771 0.46332,-2.03948 0.40102,-8.485792 -0.094,-9.728055 -0.22744,-0.570749 -0.41353,-1.705597 -0.41353,-2.521891 0,-0.81629 -0.13858,-1.938573 -0.30796,-2.493962 -0.59187,-1.940701 -0.82922,-4.231559 -1.01806,-9.826094 -0.24816,-7.35248 -0.087,-7.006986 -6.1938,-13.276097 -4.5766,-4.698227 -5.96336,-6.510828 -8.02241,-10.485856 -0.4736,-0.914293 -1.1092,-2.097113 -1.41246,-2.628496 -0.30325,-0.53138 -0.92355,-1.653177 -1.37843,-2.492884 -2.43433,-4.493747 -5.26535,-8.528925 -6.31789,-9.005164 -0.31584,-0.142907 -1.31861,-0.838132 -2.22837,-1.544944 -0.90977,-0.706813 -1.79488,-1.29383 -1.96693,-1.304485 -0.45368,-0.0281 -2.94234,-1.701421 -4.66598,-3.137318 -1.3446,-1.120103 -8.00246,-8.717859 -10.268417,-11.717972 -3.088626,-4.089328 -11.954465,-12.335616 -13.262402,-12.335616 -0.522235,0 -2.725079,-2.89056 -3.524585,-4.624942 -0.960525,-2.0836844 -1.214443,-3.2881187 -1.279734,-6.070236 -0.0434,-1.8496385 -0.03224,-1.8803109 0.717046,-1.9706508 0.812711,-0.097986 2.981665,0.8679508 4.695905,2.0913089 0.575334,0.4105853 1.17105,0.7465185 1.32381,0.7465185 0.152761,0 0.745946,0.2825325 1.31819,0.62785 1.013394,0.6115275 1.077083,0.6152849 2.449751,0.1445295 0.775119,-0.2658264 1.655585,-0.4833206 1.95659,-0.4833206 0.813988,0 2.120075,1.5267184 3.16987,3.7053394 1.593578,3.3071281 1.830346,3.7390041 2.250055,4.1042281 0.224296,0.195177 0.407811,0.527535 0.407811,0.738572 0,0.211037 0.35658,0.943049 0.7924,1.626695 0.43583,0.683645 0.87202,1.51463 0.96933,1.846632 0.0973,0.332003 1.19842,1.646069 2.44691,2.920147 2.02398,2.065463 3.21252,2.926578 7.30694,5.293981 0.41384,0.239284 1.34794,0.857147 2.07577,1.373029 0.72783,0.515883 1.41015,0.946685 1.51627,0.95734 0.10612,0.01065 0.9373,0.600066 1.84706,1.309802 0.90977,0.709737 2.0263,1.470075 2.48118,1.689638 1.27348,0.614693 3.47051,2.748152 10.56268,10.257057 7.03548,7.44888 9.42455,10.163506 9.42455,10.70881 0,0.659482 3.31732,3.965047 4.75699,4.740123 1.69943,0.914932 3.54349,2.011081 4.89202,2.907924 2.70834,1.801186 3.36009,2.231199 5.66397,3.73701 1.37146,0.896389 2.63421,1.629798 2.80608,1.629798 0.17189,0 0.47645,0.166625 0.67682,0.370279 0.20036,0.203653 0.86053,0.688986 1.46704,1.078516 0.9546,0.613094 1.43878,0.708972 3.60412,0.713692 2.21917,0.0048 2.61558,-0.07607 3.51373,-0.717193 0.5568,-0.397455 1.20234,-1.139868 1.43453,-1.649809 0.23219,-0.50994 0.54291,-1.005404 0.69048,-1.101031 0.14757,-0.09563 0.26831,-0.373308 0.26831,-0.617068 0,-0.243761 0.24811,-0.773932 0.55137,-1.178158 0.30325,-0.404226 0.55577,-1.075125 0.56114,-1.490887 0.005,-0.415762 0.18706,-1.081121 0.40376,-1.478577 0.21669,-0.397456 0.39839,-1.137718 0.40376,-1.645028 0.005,-0.50731 0.12569,-0.997502 0.26737,-1.089316 0.14168,-0.09181 0.46352,-0.912466 0.71519,-1.823675 0.25649,-0.928639 0.89872,-2.228407 1.46135,-2.957511 0.55206,-0.715421 1.12965,-1.481508 1.28353,-1.702415 0.72596,-1.042196 2.19515,-2.378729 3.51445,-3.197119 3.72282,-2.30934 4.06158,-2.427181 7.04489,-2.450519 3.05408,-0.0239 3.14259,0.01587 7.16533,3.21989 1.25519,0.99973 2.43764,1.817692 2.62765,1.817692 0.44355,0 3.40214,-3.137422 3.69193,-3.915103 0.3205,-0.860083 8.05153,-8.532188 9.03503,-8.966166 0.4588,-0.202449 1.19855,-0.768972 1.64389,-1.258939 0.44535,-0.489969 0.96247,-0.890853 1.14916,-0.890853 0.18669,0 1.00088,-0.59508 1.8093,-1.322401 0.80843,-0.727318 1.84204,-1.492295 2.29692,-1.699949 1.02964,-0.470033 6.55453,-6.445154 7.85705,-8.497336 0.5307,-0.836136 1.41074,-2.130847 1.95566,-2.877135 0.54491,-0.746288 1.75679,-3.002879 2.69306,-5.014647 1.58954,-3.415468 1.8652,-3.8203 4.16151,-6.1115316 1.35256,-1.3495739 2.96223,-2.8254174 3.57706,-3.2796523 0.61482,-0.4542349 1.9244,-1.4112258 2.91017,-2.1266465 0.98578,-0.7154207 1.79294,-1.4633605 1.7937,-1.6620884 8.3e-4,-0.2199611 0.37887,-0.3613236 0.96627,-0.3613236 h 0.9649 v 6.3592949 c 0,5.9738835 -0.0334,6.3943325 -0.55137,6.9374135 -0.30325,0.317964 -0.55532,0.935828 -0.56014,1.373029 -0.005,0.437202 -0.19091,1.047407 -0.41353,1.356013 -0.22262,0.308605 -0.40476,0.845503 -0.40476,1.193106 0,0.347603 -0.18609,0.793937 -0.41353,0.991852 -0.22744,0.197916 -0.41353,0.532513 -0.41353,0.74355 0,1.305255 -3.61558,5.24973 -6.34077,6.917565 -0.98558,0.603179 -2.26784,1.565118 -2.84948,2.137641 -1.03416,1.01796 -2.93993,3.75855 -2.93993,4.227756 0,0.13001 -0.1718,0.441737 -0.38178,0.69273 -0.20997,0.250992 -1.09103,1.88719 -1.9579,3.635996 -2.08394,4.204107 -3.1983,6.236211 -4.69031,8.553058 -2.39991,3.726662 -4.40528,5.93996 -8.13274,8.975965 -0.83395,0.679251 -1.82642,1.540991 -2.20548,1.914975 -0.37907,0.373984 -1.0614,0.848477 -1.51628,1.054432 -1.05028,0.47553 -5.84687,5.389473 -6.93698,7.106691 -1.46201,2.303085 -2.19309,3.390288 -3.0431,4.525479 -2.52284,3.369245 -5.87186,9.371745 -5.87186,10.524214 0,0.268785 -0.18609,0.650629 -0.41353,0.848544 -0.22744,0.197916 -0.41399,0.636592 -0.41456,0.974834 -5.5e-4,0.338245 -0.24868,1.040884 -0.55137,1.561418 -0.30269,0.520534 -0.55034,1.304572 -0.55034,1.742299 0,0.437731 -0.16487,1.052452 -0.36638,1.366043 -0.20151,0.313595 -0.52195,1.545745 -0.71207,2.738113 -0.19013,1.192368 -0.44913,2.376457 -0.57556,2.631312 -0.12642,0.254851 -0.31904,1.086956 -0.42805,1.849124 -0.10901,0.762167 -0.36669,1.724337 -0.57264,2.138159 -0.20595,0.413823 -0.37521,1.354342 -0.37615,2.090043 -0.001,0.773574 -0.15989,1.475296 -0.37685,1.66409 -0.20634,0.17955 -0.44516,1.03759 -0.53072,1.90675 -0.0855,0.86917 -0.35094,1.87278 -0.58974,2.23026 -0.2388,0.35748 -0.43419,1.0237 -0.43419,1.48048 0,0.4568 -0.17814,1.17579 -0.39586,1.59778 -0.21772,0.42198 -0.57932,1.74282 -0.80356,2.93518 -0.43821,2.33015 -0.78802,3.50941 -1.5957,5.37925 -0.28221,0.65335 -0.51311,1.40305 -0.51311,1.66601 0,0.26297 -0.11408,0.70399 -0.25351,0.98005 -0.83989,1.66293 -1.40061,3.03533 -1.40061,3.42809 0,0.24825 -0.24811,0.78209 -0.55137,1.18632 -0.30325,0.40422 -0.55137,0.90199 -0.55137,1.10614 0,0.20415 -0.1737,0.73943 -0.386,1.18952 -0.2123,0.45008 -0.90991,1.98902 -1.55024,3.41986 -0.64033,1.43084 -1.27116,2.79665 -1.40185,3.03512 -0.13068,0.23847 -0.42886,0.82382 -0.66262,1.30076 -0.53594,1.09351 -0.84216,1.61276 -2.20517,3.73929 -1.39261,2.17271 -2.06385,3.3405 -3.16744,5.5106 -0.4851,0.95389 -1.16975,2.25466 -1.52145,2.89059 -0.74308,1.34363 -1.41241,2.63113 -2.9303,5.63664 -0.60219,1.19237 -1.39674,2.68825 -1.76567,3.32418 -0.36893,0.63593 -0.85942,1.57899 -1.08998,2.09568 -0.23057,0.51669 -0.51258,0.93944 -0.62669,0.93944 -0.11412,0 -0.6101,0.61786 -1.10219,1.37303 -1.65383,2.53798 -2.94678,4.32416 -4.47233,6.17841 -2.1486,2.61153 -9.87547,10.57708 -11.02744,11.36807 -0.5307,0.3644 -1.86945,1.45964 -2.975,2.43387 -1.10555,0.97423 -2.09802,1.77316 -2.20549,1.77541 -0.10746,0.002 -0.75366,0.53341 -1.43598,1.18037 -0.68232,0.64697 -1.61276,1.35967 -2.06764,1.58379 -0.45489,0.22412 -1.57141,0.9273 -2.48118,1.56261 -0.90976,0.63532 -1.92626,1.28058 -2.25888,1.43391 -1.48605,0.68504 -4.02039,2.81291 -6.56307,5.51044 -2.67988,2.8431 -3.10674,3.14931 -6.61757,4.74709 -0.45548,0.20729 -1.26187,0.47561 -1.79195,0.59626 -0.53009,0.12065 -1.39801,0.45026 -1.9287,0.73248 -0.5307,0.28222 -1.48808,0.79214 -2.12752,1.13315 -1.46179,0.77958 -3.80984,2.35957 -4.94031,3.32431 -0.47569,0.40596 -0.95908,0.7381 -1.07421,0.7381 -0.34375,0 -3.0712,1.97227 -4.41955,3.19587 -0.69094,0.62701 -1.39099,1.14001 -1.55569,1.14001 -0.1647,0 -0.82934,0.45527 -1.476979,1.01171 -0.647645,0.55644 -1.254724,1.0117 -1.349067,1.0117 -0.166613,0 -1.801991,1.14476 -2.079006,1.45529 -0.07581,0.085 -0.829613,0.62976 -1.675109,1.2106 -0.845495,0.58084 -1.698082,1.25924 -1.894635,1.50756 -0.196556,0.24833 -0.516531,0.4515 -0.71106,0.4515 -0.19453,0 -0.873401,0.45526 -1.508601,1.0117 -0.635199,0.55644 -1.316794,1.01171 -1.514651,1.01171 -0.19786,0 -0.992586,0.44653 -1.766061,0.99229 -0.773473,0.54576 -1.660412,1.07684 -1.970975,1.18019 -0.782742,0.26049 -5.775751,5.3125 -5.775751,5.84401 0,0.23793 -0.908267,1.42576 -2.018371,2.63962 -1.110105,1.21385 -2.282264,2.57373 -2.604794,3.02194 -1.180686,1.64077 -16.382328,16.92286 -17.276154,17.36759 -0.507057,0.25228 -1.214709,0.78233 -1.572561,1.17789 -0.357853,0.39556 -0.867744,0.72144 -1.133091,0.72418 -0.265348,0.003 -0.730568,0.26515 -1.033823,0.58312 -0.505921,0.53046 -0.909293,0.577 -4.893426,0.56459 l -4.342053,-0.0135 z M 56.849633,229.868 c 0,-0.17564 0.310146,-0.96679 0.689215,-1.7581 0.379068,-0.79132 0.689215,-1.73734 0.689215,-2.10227 0,-0.36492 0.186088,-0.82543 0.413528,-1.02335 0.278118,-0.24201 0.413529,-0.89359 0.413529,-1.98984 0,-1.389 0.141101,-1.84321 0.954315,-3.07199 0.524873,-0.7931 1.085903,-1.75076 1.246734,-2.12815 0.16083,-0.37738 0.900086,-1.3471 1.642791,-2.15493 1.096782,-1.19296 1.626289,-1.53465 2.819634,-1.81954 2.546863,-0.60801 3.926887,-1.03389 4.682186,-1.44495 0.402463,-0.21904 0.914522,-0.39825 1.13791,-0.39825 0.223386,0 0.548188,-0.17944 0.721782,-0.39875 0.173594,-0.21931 0.654004,-0.47027 1.06758,-0.55768 1.209043,-0.25554 5.419278,-4.82016 6.882803,-7.46213 0.385382,-0.6957 1.254468,-2.4356 1.931302,-3.86644 2.729768,-5.77079 6.102918,-9.55911 10.611053,-11.91706 3.641227,-1.90453 6.096974,-2.96682 6.888361,-2.97971 0.345729,-0.006 0.938749,-0.19614 1.317819,-0.42335 0.37906,-0.2272 0.95291,-0.41771 1.2752,-0.42334 1.17439,-0.0205 3.6532,-1.4531 5.32877,-3.07964 1.75784,-1.70639 3.48723,-4.22971 4.83021,-7.04767 0.41672,-0.8744 1.08496,-2.04305 1.48497,-2.597 0.40002,-0.55394 0.85136,-1.22853 1.00299,-1.49907 0.15162,-0.27055 0.69617,-1.24816 1.21011,-2.17247 2.33188,-4.1939 6.55426,-10.3765 8.74808,-12.80934 2.25269,-2.49813 2.96174,-3.9136 2.69823,-5.38639 -0.23247,-1.29925 -1.05755,-1.3163 -1.61981,-0.0335 -0.22647,0.51669 -1.03811,1.7199 -1.80364,2.67379 -0.76554,0.95389 -1.6054,2.1072 -1.86636,2.56289 -0.26095,0.4557 -1.00665,1.45224 -1.65711,2.21454 -1.2612,1.47807 -1.97242,2.45496 -3.4666,4.76151 -0.51495,0.79491 -1.19924,1.69309 -1.52066,1.99595 -0.32142,0.30286 -0.5844,0.73152 -0.5844,0.95258 0,0.22106 -0.33976,0.75372 -0.75502,1.1837 -1.04617,1.08324 -2.81978,3.64264 -3.89274,5.6174 -0.49487,0.91079 -1.01621,1.73144 -1.15855,1.82368 -0.14233,0.0922 -0.25878,0.39121 -0.25878,0.6644 0,0.48425 -0.72888,1.50636 -2.81829,3.95208 -1.40982,1.65023 -4.55728,3.32169 -6.254975,3.32169 -0.713988,0 -1.538065,0.19084 -1.832561,0.42439 -0.294328,0.23342 -0.976651,0.42853 -1.516273,0.43359 -0.539622,0.005 -1.221945,0.20017 -1.516273,0.43359 -0.294328,0.23341 -0.690183,0.42853 -0.879678,0.43359 -0.189496,0.005 -1.295672,0.56201 -2.458168,1.23769 -2.904599,1.68823 -7.910899,6.7174 -9.031058,9.07231 -0.443477,0.93232 -1.090947,2.09236 -1.438822,2.57787 -0.347874,0.4855 -0.83095,1.331 -1.073501,1.87888 -1.072816,2.42329 -3.809774,6.64458 -5.755452,8.8768 -1.39786,1.60371 -4.518336,3.53111 -5.737139,3.5436 -0.344947,0.004 -0.937323,0.26079 -1.316391,0.57169 -0.379068,0.31089 -1.044741,0.56815 -1.479272,0.57169 -1.36191,0.0111 -3.50163,0.97299 -4.78301,2.15021 -2.22185,2.04123 -2.982915,3.80124 -3.38531,7.82875 -0.220016,2.20209 -0.891361,4.25185 -1.793222,5.4751 -0.413328,0.56062 -0.5811,3.0693 -0.229891,3.43754 0.299633,0.31417 1.194639,0.2193 1.194639,-0.12663 z M 152.64476,116.94853 c 0.10552,-0.4372 0.29964,-1.4848 0.43137,-2.328 0.14682,-0.9398 0.51089,-1.87125 0.94076,-2.40691 0.38569,-0.48061 0.70126,-1.10232 0.70126,-1.38159 0,-0.27927 0.0799,-0.59149 0.17744,-0.69381 0.26288,-0.27563 1.47392,-3.46527 1.4754,-3.88591 8.3e-4,-0.19931 0.24939,-0.84776 0.55265,-1.44102 0.30325,-0.59325 0.55137,-1.28334 0.55137,-1.53352 0,-0.25019 0.18214,-0.70739 0.40476,-1.01599 0.22262,-0.30861 0.4131,-0.88629 0.4233,-1.28375 0.0102,-0.39746 0.19583,-1.047841 0.41253,-1.445296 0.40938,-0.750874 0.58272,-4.626558 0.20676,-4.622968 -0.19158,0.0017 -0.74932,0.819251 -1.7737,2.599556 -0.54883,0.953816 -1.60345,4.184948 -1.60345,4.912608 0,0.31593 -0.35972,1.45359 -0.79937,2.52812 -0.43965,1.07453 -1.01613,2.97832 -1.28105,4.23065 -0.26493,1.25232 -0.77363,2.85264 -1.13044,3.55626 -0.76895,1.51635 -0.95376,5.00648 -0.2651,5.00648 0.211,0 0.46998,-0.35771 0.57551,-0.79491 z m 15.3991,-45.415376 c 3.35272,-3.344923 4.57725,-4.438409 5.61131,-5.010804 0.57762,-0.31973 1.29833,-0.79697 1.60158,-1.060525 0.95419,-0.829269 2.26484,-1.483331 2.97241,-1.483331 0.37501,0 0.83628,-0.195115 1.02504,-0.433589 0.18876,-0.238473 0.64496,-0.433588 1.01378,-0.433588 0.58697,0 2.43864,-0.710972 3.67288,-1.41024 0.9559,-0.541575 2.20549,-2.675951 2.20549,-3.767113 0,-0.597075 -0.0781,-1.167451 -0.1735,-1.267509 -0.20423,-0.214138 -1.30504,0.760216 -3.40764,3.01619 -1.44552,1.550966 -2.8604,2.54991 -3.64193,2.571303 -0.19706,0.0054 -0.85453,0.261133 -1.46104,0.56831 -0.60651,0.307177 -1.24263,0.562916 -1.41359,0.56831 -0.17097,0.0054 -0.46529,0.204923 -0.65405,0.443396 -0.18876,0.238474 -0.7066,0.433589 -1.15076,0.433589 -0.8292,0 -4.63865,1.896153 -4.63865,2.308886 0,0.276479 -1.31068,2.057255 -3.10147,4.213868 -1.31349,1.581811 -1.46684,1.887691 -1.12571,2.245363 0.43083,0.451733 1.06571,0.0939 2.66585,-1.502516 z"
       style="fill:#000000;stroke-width:0.282293" />
  </g>
</svg>
