<?xml version="1.0" encoding="UTF-8" standalone="no"?>
<svg
   xmlns:dc="http://purl.org/dc/elements/1.1/"
   xmlns:cc="http://creativecommons.org/ns#"
   xmlns:rdf="http://www.w3.org/1999/02/22-rdf-syntax-ns#"
   xmlns:svg="http://www.w3.org/2000/svg"
   xmlns="http://www.w3.org/2000/svg"
   xmlns:sodipodi="http://sodipodi.sourceforge.net/DTD/sodipodi-0.dtd"
   xmlns:inkscape="http://www.inkscape.org/namespaces/inkscape"
   version="1.1"
   id="svg680"
   width="889.92969"
   height="790.63257"
   viewBox="0 0 889.92969 790.63257"
   sodipodi:docname="поло.svg"
   inkscape:version="1.0 (4035a4fb49, 2020-05-01)">
  <metadata
     id="metadata686">
    <rdf:RDF>
      <cc:Work
         rdf:about="">
        <dc:format>image/svg+xml</dc:format>
        <dc:type
           rdf:resource="http://purl.org/dc/dcmitype/StillImage" />
        <dc:title></dc:title>
      </cc:Work>
    </rdf:RDF>
  </metadata>
  <defs
     id="defs684" />
  <sodipodi:namedview
     inkscape:document-rotation="0"
     pagecolor="#ffffff"
     bordercolor="#666666"
     borderopacity="1"
     objecttolerance="10"
     gridtolerance="10"
     guidetolerance="10"
     inkscape:pageopacity="0"
     inkscape:pageshadow="2"
     inkscape:window-width="1920"
     inkscape:window-height="1018"
     id="namedview682"
     showgrid="false"
     inkscape:zoom="0.37123106"
     inkscape:cx="407.84823"
     inkscape:cy="544.54414"
     inkscape:window-x="-6"
     inkscape:window-y="-6"
     inkscape:window-maximized="1"
     inkscape:current-layer="g688" />
  <g
     transform="translate(-784.27397,-12.221566)"
     inkscape:groupmode="layer"
     inkscape:label="Image"
     id="g688">
    <path
       id="path50"
       d="m 1137.3221,802.48967 c -2.8551,-0.35243 -13.8675,-1.44141 -24.4721,-2.41997 -10.6045,-0.97856 -28.6248,-3.33451 -40.0451,-5.23545 -26.3781,-4.39071 -51.3183,-4.32168 -84.8691,0.23487 -109.02888,14.80729 -169.45971,0.34174 -175.14899,-41.92599 -0.90567,-6.72854 -1.82625,-8.15818 -8.43242,-13.09533 -10.46561,-7.82155 -14.58748,-17.17126 -13.43501,-30.47491 2.10354,-24.28242 11.02529,-42.38557 20.88885,-42.38557 1.84025,0 6.52978,2.45896 10.42119,5.46435 5.41991,4.18592 8.70472,8.75533 14.03986,19.53061 7.54142,15.23124 12.75938,20.24619 27.49449,26.42477 27.09431,11.36091 71.52025,12.7744 104.74752,3.3327 12.70294,-3.6096 46.01451,-18.29115 62.10101,-27.37004 6.1833,-3.48973 13.9508,-6.40113 18.9246,-7.0933 l 8.4365,-1.17403 3.6439,-11.63525 c 3.2928,-10.51401 3.6409,-14.19807 3.6117,-38.23012 -0.026,-21.80322 -0.6257,-29.28431 -3.3265,-41.52195 -3.7138,-16.8283 -5.0625,-19.59442 -15.8193,-32.44502 -13.355,-15.95446 -23.1413,-35.18215 -33.9672,-66.73696 -6.1438,-17.9077 -6.2021,-17.95807 -20.88444,-18.03606 -19.82461,-0.10521 -42.07126,-10.23879 -62.07985,-28.27778 -13.3679,-12.052 -21.91365,-22.65406 -32.80672,-40.70077 -4.41451,-7.31359 -12.40197,-18.1377 -17.74993,-24.05358 l -9.72355,-10.75614 v -26.93816 c 0,-32.81246 1.66441,-47.10481 8.37495,-71.91577 2.83866,-10.49545 6.42368,-25.95892 7.96669,-34.36328 1.54301,-8.40436 4.56364,-23.02917 6.71254,-32.49959 l 3.90706,-17.21895 -7.16191,-7.08921 c -4.58161,-4.5351 -7.96897,-6.7013 -9.40196,-6.0125 -4.72265,2.27006 -27.27088,2.68668 -35.42123,0.65449 -28.51123,-7.10894 -52.08505,-33.38471 -57.87681,-64.51037 -5.32981,-28.643172 2.00198,-56.161063 20.50001,-76.94136 18.82446,-21.147007 45.40679,-29.5640165 70.3621,-22.279384 26.50722,7.737643 45.07957,27.033316 53.59201,55.679211 2.42597,8.163843 5.87346,15.440846 9.86142,20.815586 12.09498,16.300957 13.95958,26.807907 8.72909,49.187787 -1.6019,6.85414 -3.64487,22.8896 -4.53992,35.63436 -0.89506,12.74476 -2.95907,33.27003 -4.5867,45.61171 -3.92287,29.74546 -3.87039,51.37067 0.17346,71.4737 1.74702,8.68489 3.56293,23.83149 4.03537,33.65913 l 0.85897,17.86842 6.82278,0.0133 c 18.56044,0.0342 33.75711,5.71397 53.41027,19.96229 10.5629,7.65804 9.7073,7.53002 38.6938,5.7898 18.2952,-1.09835 20.7262,-0.90035 28.1799,2.29514 8.6359,3.70235 20.0369,11.25629 28.6793,19.00193 5.1347,4.60184 5.2959,4.63195 10.1456,1.89459 6.0506,-3.41518 15.6297,-13.43153 18.2061,-19.03707 1.0504,-2.2855 2.3515,-7.56201 2.8914,-11.72558 1.3636,-10.51696 -1.5681,-37.14226 -4.8997,-44.499 -1.5212,-3.35893 -3.8298,-11.90208 -5.1302,-18.98477 -1.3005,-7.08272 -4.4867,-17.44757 -7.0805,-23.033 -8.509,-18.32307 -7.3627,-32.14618 3.838,-46.27981 3.4599,-4.36598 8.3878,-12.04583 10.9509,-17.06636 5.6705,-11.10726 16.6247,-22.88918 26.371,-28.36355 11.1976,-6.28957 21.5115,-8.37664 36.9294,-7.47283 11.2542,0.65972 15.4851,1.71893 23.3573,5.84743 19.287,10.11491 25.9276,20.98182 29.2396,47.84882 1.5906,12.9028 1.5251,16.40222 -0.4666,24.93269 -1.2742,5.45776 -2.6172,17.77702 -2.9843,27.3761 -0.7564,19.77693 -3.3956,29.43392 -12.8408,46.98451 -3.2587,6.05531 -5.925,12.86757 -5.925,15.13832 0,4.42913 -1.1923,3.97526 25.2136,9.59831 4.4865,0.9554 12.2142,3.53451 17.1726,5.73136 11.1503,4.94023 21.5428,5.13646 35.4793,0.66992 5.7049,-1.82839 12.377,-3.31137 14.8268,-3.2955 8.3149,0.0539 25.1837,4.91722 34.1172,9.83614 10.646,5.86183 16.6501,12.51294 23.2857,25.79503 2.7387,5.4819 6.9177,11.18224 9.3686,12.77923 9.6734,6.30317 30.5679,11.54912 52.2381,13.11534 33.601,2.42853 43.7234,5.77247 78.2543,25.85124 11.4203,6.64059 30.681,16.67528 42.8017,22.29932 26.2347,12.17305 25.5088,12.27733 40.5504,-5.82511 11.0875,-13.34368 17.9838,-16.93019 29.287,-15.23111 7.0747,1.06346 9.721,4.58967 9.721,12.95348 0,13.83898 3.3597,16.73864 21.9766,18.96739 6.61,0.79133 10.5347,2.2447 13.3249,4.93443 3.8205,3.68299 3.8928,4.0737 2.1246,11.48289 -1.0068,4.2186 -1.8305,9.57856 -1.8305,11.91103 0,6.82177 -2.612,10.43599 -8.9173,12.33879 -6.3081,1.90361 -7.1024,2.6538 -12.2871,11.60437 -1.8454,3.18578 -6.0053,7.4642 -9.2441,9.50761 -13.2772,8.37675 -27.4643,6.71536 -52.615,-6.16153 -23.2549,-11.90624 -33.9893,-14.43568 -77.8585,-18.34652 -30.9659,-2.76054 -43.6393,-6.28448 -68.225,-18.97048 -18.5784,-9.58707 -24.9434,-10.88335 -53.4359,-10.88335 -27.4693,0 -35.8713,-1.66886 -47.8129,-9.49689 -11.2384,-7.367 -14.1708,-4.48431 -19.5768,19.24492 -1.6377,7.18848 -6.9418,25.80186 -11.7868,41.3631 -4.8451,15.56123 -9.8508,34.54957 -11.1239,42.19629 -9.8558,59.20014 -13.3495,78.52299 -17.2117,95.1932 -2.4329,10.5012 -4.4235,20.91015 -4.4235,23.13098 v 4.03789 l 39.6744,0.84732 c 41.4508,0.8853 56.886,2.87272 76.0115,9.78721 23.4063,8.46214 36.391,20.05405 49.0167,43.75898 22.063,41.4238 18.6631,56.40778 -7.4008,32.61596 -4.4809,-4.09029 -12.5623,-9.51594 -17.9588,-12.05696 -28.2602,-13.30689 -83.526,-22.40922 -110.3275,-18.17103 -17.7634,2.80898 -44.61,13.60936 -73.51,29.57303 l -25.9552,14.33701 -31.8877,0.3798 c -17.5383,0.20891 -34.2238,0.0914 -37.0788,-0.26094 z"
       style="fill:#000000;stroke-width:1.57012" />
  </g>
</svg>
