<?xml version="1.0" encoding="UTF-8" standalone="no"?>
<svg
   xmlns:dc="http://purl.org/dc/elements/1.1/"
   xmlns:cc="http://creativecommons.org/ns#"
   xmlns:rdf="http://www.w3.org/1999/02/22-rdf-syntax-ns#"
   xmlns:svg="http://www.w3.org/2000/svg"
   xmlns="http://www.w3.org/2000/svg"
   xmlns:sodipodi="http://sodipodi.sourceforge.net/DTD/sodipodi-0.dtd"
   xmlns:inkscape="http://www.inkscape.org/namespaces/inkscape"
   version="1.1"
   id="svg330"
   width="196.06151"
   height="142.70314"
   viewBox="0 0 196.06151 142.70314"
   sodipodi:docname="серфинг.svg"
   inkscape:version="1.0 (4035a4fb49, 2020-05-01)">
  <metadata
     id="metadata336">
    <rdf:RDF>
      <cc:Work
         rdf:about="">
        <dc:format>image/svg+xml</dc:format>
        <dc:type
           rdf:resource="http://purl.org/dc/dcmitype/StillImage" />
        <dc:title></dc:title>
      </cc:Work>
    </rdf:RDF>
  </metadata>
  <defs
     id="defs334" />
  <sodipodi:namedview
     inkscape:document-rotation="0"
     pagecolor="#ffffff"
     bordercolor="#666666"
     borderopacity="1"
     objecttolerance="10"
     gridtolerance="10"
     guidetolerance="10"
     inkscape:pageopacity="0"
     inkscape:pageshadow="2"
     inkscape:window-width="1920"
     inkscape:window-height="1018"
     id="namedview332"
     showgrid="false"
     inkscape:zoom="3.7123106"
     inkscape:cx="33.704256"
     inkscape:cy="39.978671"
     inkscape:window-x="-6"
     inkscape:window-y="-6"
     inkscape:window-maximized="1"
     inkscape:current-layer="g338" />
  <g
     transform="translate(-48.209426,-32.789268)"
     inkscape:groupmode="layer"
     inkscape:label="Image"
     id="g338">
    <path
       id="path92"
       d="m 199.01407,175.35055 c -0.39311,-0.0969 -0.98271,-0.2994 -1.31022,-0.44989 -0.32751,-0.1505 -1.21202,-0.41356 -1.96557,-0.58457 -0.91243,-0.20708 -1.68843,-0.47824 -2.32309,-0.81179 -0.55385,-0.29107 -1.41638,-0.60789 -2.05933,-0.75642 -0.68533,-0.15832 -1.45595,-0.44765 -2.02513,-0.76033 -0.52153,-0.28652 -1.42908,-0.63685 -2.09899,-0.81026 -0.6491,-0.16804 -1.31918,-0.41454 -1.48906,-0.54778 -0.55273,-0.43354 -1.00505,-0.62388 -2.12871,-0.89581 -0.69097,-0.16722 -1.42751,-0.45388 -1.96557,-0.76498 -0.51639,-0.29858 -1.2892,-0.60379 -1.93261,-0.76327 -0.69061,-0.17118 -1.31618,-0.42484 -1.75793,-0.71279 -0.45071,-0.2938 -1.10411,-0.55607 -1.90601,-0.76509 -0.74311,-0.19369 -1.54623,-0.50781 -2.05407,-0.8034 -0.45863,-0.26694 -1.28953,-0.6079 -1.84644,-0.75767 -0.55691,-0.14978 -1.38781,-0.48995 -1.84644,-0.75595 -0.45863,-0.26599 -1.36227,-0.63152 -2.0081,-0.81229 -0.68964,-0.19303 -1.45162,-0.50817 -1.84644,-0.76365 -0.38818,-0.25119 -1.10006,-0.54748 -1.68478,-0.70123 -0.56637,-0.14893 -1.30128,-0.45186 -1.66776,-0.68748 -0.6183,-0.39752 -1.04406,-0.56285 -2.63208,-1.02204 -0.36658,-0.10601 -0.91635,-0.36083 -1.2217,-0.56626 -0.30534,-0.20544 -0.8095,-0.45337 -1.12036,-0.55096 -0.31085,-0.0976 -0.88682,-0.27633 -1.27993,-0.39723 -0.39311,-0.12089 -0.92918,-0.3815 -1.19125,-0.57913 -0.27928,-0.21062 -0.93962,-0.49002 -1.59539,-0.67505 -0.61539,-0.17363 -1.33907,-0.43841 -1.60819,-0.58839 -0.26912,-0.14997 -0.68114,-0.38051 -0.9156,-0.5123 -0.23446,-0.13179 -0.90021,-0.37794 -1.47944,-0.54701 -0.63195,-0.18446 -1.26053,-0.4654 -1.57169,-0.70246 -0.32152,-0.24496 -0.92607,-0.51078 -1.59108,-0.69959 -1.09968,-0.31222 -1.5258,-0.5046 -2.26276,-1.02155 -0.2321,-0.16282 -0.89038,-0.41746 -1.46284,-0.56587 -0.6452,-0.16726 -1.32249,-0.44993 -1.78181,-0.74362 -0.40754,-0.2606 -1.16983,-0.60086 -1.69398,-0.75614 -1.01502,-0.30073 -1.35587,-0.45869 -2.01752,-0.93505 -0.22874,-0.16467 -0.86009,-0.42574 -1.403,-0.58012 -0.54292,-0.15439 -1.41597,-0.52542 -1.94012,-0.82451 -0.52415,-0.29909 -1.34432,-0.65937 -1.82259,-0.80065 -0.47828,-0.14127 -1.04114,-0.37286 -1.25082,-0.51466 -0.682,-0.46121 -1.3181,-0.75779 -2.19301,-1.02248 -0.47233,-0.14289 -1.01701,-0.40105 -1.21038,-0.57368 -0.42936,-0.38328 -0.90852,-0.60175 -1.92152,-0.87608 -0.42588,-0.11534 -1.13367,-0.43828 -1.57288,-0.71763 -0.43921,-0.27936 -1.29252,-0.67083 -1.89623,-0.86993 -0.60372,-0.1991 -1.31649,-0.52528 -1.58394,-0.72483 -0.5314,-0.39649 -0.85717,-0.54286 -1.87122,-0.84077 -0.36861,-0.10829 -0.95044,-0.40141 -1.29295,-0.65136 -0.35226,-0.25707 -1.03778,-0.58247 -1.5783,-0.74918 -0.54494,-0.16809 -1.22523,-0.49177 -1.58312,-0.75326 -0.34515,-0.25221 -1.07553,-0.60411 -1.62306,-0.78203 -0.54753,-0.17792 -1.23674,-0.5086 -1.53158,-0.73484 -0.29483,-0.22625 -0.97282,-0.56407 -1.50663,-0.75072 -0.53381,-0.18665 -1.20389,-0.5287 -1.48907,-0.76012 -0.28517,-0.23141 -0.95879,-0.57389 -1.49694,-0.76106 -0.53814,-0.18717 -1.1695,-0.47785 -1.40301,-0.64597 -0.62784,-0.45201 -1.08781,-0.68653 -1.9729,-1.0059 -0.437,-0.15768 -1.01748,-0.45803 -1.28996,-0.66743 -0.27248,-0.20941 -0.90979,-0.53802 -1.41624,-0.73024 -0.50646,-0.19223 -1.167462,-0.53742 -1.468902,-0.7671 -0.301441,-0.22968 -0.987601,-0.59566 -1.524802,-0.81329 -0.537201,-0.21763 -1.121466,-0.5238 -1.298367,-0.68038 -0.409098,-0.36211 -0.874042,-0.60886 -1.66211,-0.88211 -0.344145,-0.11933 -0.833719,-0.40132 -1.087941,-0.62666 -0.254222,-0.22533 -0.910759,-0.58976 -1.458972,-0.80984 -0.568845,-0.22837 -1.19122,-0.5844 -1.449745,-0.82934 -0.254044,-0.24069 -0.843933,-0.58045 -1.343121,-0.7736 -0.489568,-0.18943 -1.126544,-0.5514 -1.415501,-0.80438 -0.288957,-0.25298 -0.78787,-0.55842 -1.108694,-0.67877 -0.320825,-0.12035 -0.836483,-0.42389 -1.145909,-0.67454 -0.309425,-0.25066 -0.910101,-0.6229 -1.334834,-0.82721 -0.424734,-0.20431 -0.943177,-0.54478 -1.152092,-0.75659 -0.208917,-0.21181 -0.783194,-0.58272 -1.276172,-0.82425 -0.492978,-0.24152 -1.057142,-0.60099 -1.253699,-0.79881 -0.196556,-0.19782 -0.639522,-0.50918 -0.984367,-0.6919 -0.344846,-0.18273 -0.766067,-0.49783 -0.936048,-0.70022 -0.16998,-0.20239 -0.584716,-0.51188 -0.921635,-0.68775 -0.33692,-0.17587 -0.87981,-0.55514 -1.206425,-0.84282 -0.326615,-0.28768 -0.889482,-0.68187 -1.250815,-0.87598 -0.361333,-0.1941 -0.769794,-0.51592 -0.90769,-0.71514 -0.137897,-0.19923 -0.555234,-0.52568 -0.927417,-0.72545 -0.372182,-0.19978 -0.773925,-0.49437 -0.892762,-0.65465 -0.118838,-0.16027 -0.544892,-0.49587 -0.946788,-0.74575 -0.401895,-0.24989 -0.977731,-0.68116 -1.279635,-0.95836 -0.301904,-0.27721 -0.745064,-0.6113 -0.984801,-0.74241 -0.239737,-0.13112 -0.623508,-0.4475 -0.852824,-0.70308 -0.229316,-0.25558 -0.67834,-0.60639 -0.997829,-0.77957 -0.31949,-0.17319 -0.709505,-0.45133 -0.866699,-0.6181 -0.157195,-0.16677 -0.619479,-0.54176 -1.0273,-0.83331 -0.40782,-0.29155 -0.982719,-0.75349 -1.277554,-1.02652 -0.294835,-0.27304 -0.732572,-0.60305 -0.972752,-0.73336 -0.240177,-0.13032 -0.553118,-0.41041 -0.695424,-0.62243 -0.142306,-0.21202 -0.520566,-0.52625 -0.840578,-0.69829 -0.320012,-0.17204 -0.703643,-0.48757 -0.852513,-0.70119 -0.148869,-0.21362 -0.57866,-0.58689 -0.955089,-0.82948 -0.37643,-0.2426 -0.751985,-0.53842 -0.834567,-0.65738 -0.08258,-0.11897 -0.525393,-0.49431 -0.984025,-0.83409 -0.78109,-0.57869 -1.618039,-1.33153 -2.739879,-2.46452 -0.262076,-0.26469 -0.63732,-0.58324 -0.833877,-0.70791 -0.196556,-0.12467 -0.608633,-0.48715 -0.915726,-0.80553 -0.307093,-0.31837 -0.932103,-0.939468 -1.388912,-1.380207 -0.975235,-0.940928 -1.528184,-1.506752 -1.883591,-1.927448 -0.141404,-0.167381 -0.426822,-0.440115 -0.634262,-0.606074 -0.207439,-0.165961 -0.499575,-0.507469 -0.649188,-0.758906 -0.149614,-0.251436 -0.400259,-0.531465 -0.556991,-0.622287 -0.720472,-0.417492 -0.847132,-1.097404 -0.278118,-1.492941 0.264177,-0.183637 0.35075,-0.178544 1.106957,0.06514 0.451202,0.145394 0.890533,0.35405 0.976294,0.463677 0.201451,0.257516 0.701605,0.529128 1.532836,0.832417 0.366065,0.133565 0.960408,0.460827 1.320761,0.727249 0.360354,0.266421 1.00363,0.610968 1.429503,0.76566 0.425872,0.15469 1.052311,0.479611 1.392087,0.722045 0.339776,0.242435 1.009856,0.580831 1.489065,0.751991 0.47921,0.17116 1.142692,0.501485 1.474405,0.734054 0.331711,0.23257 1.00179,0.574589 1.489064,0.760044 0.487274,0.185455 1.241709,0.564226 1.676524,0.841716 0.434815,0.27749 1.217653,0.64367 1.739641,0.81373 0.521987,0.17007 1.142849,0.47259 1.379692,0.67227 0.47853,0.40345 0.77452,0.54377 1.776701,0.84231 0.375841,0.11196 0.992314,0.42139 1.36994,0.68763 0.423795,0.29878 1.055393,0.58897 1.650132,0.75815 0.904951,0.25741 1.133818,0.37072 1.858349,0.92001 0.159801,0.12115 0.809105,0.38545 1.442897,0.58732 0.633791,0.20188 1.400163,0.54119 1.703047,0.75403 0.5785,0.40652 1.106966,0.63667 2.192243,0.95474 0.360354,0.10561 0.94699,0.39221 1.303636,0.63688 0.356647,0.24467 0.946317,0.53283 1.310378,0.64034 1.06817,0.31546 1.607586,0.55039 2.038919,0.88799 0.222758,0.17436 0.781355,0.43276 1.241327,0.57424 1.475559,0.45385 1.586884,0.50208 2.039163,0.88339 0.271253,0.22869 0.913516,0.52814 1.646104,0.76747 0.660717,0.21586 1.496139,0.58355 1.856493,0.81709 0.360353,0.23355 1.164448,0.59355 1.786877,0.8 0.62243,0.20645 1.309558,0.51465 1.526952,0.68488 0.460386,0.3605 0.728678,0.47906 1.887256,0.83398 0.46916,0.14373 1.116778,0.45381 1.439151,0.68907 0.328733,0.2399 1.000407,0.55058 1.529488,0.70747 1.013997,0.30068 1.345812,0.45579 2.032138,0.94991 0.242095,0.17429 0.892322,0.46321 1.444942,0.64204 0.55263,0.17882 1.30755,0.52021 1.67759,0.75864 0.37005,0.23842 1.12847,0.57905 1.68538,0.75694 0.55691,0.17789 1.28707,0.51974 1.62257,0.75966 0.68988,0.49335 1.13945,0.6572 1.92092,0.70011 0.46952,0.0258 0.57456,-0.017 0.79207,-0.32269 0.13792,-0.19384 0.42364,-0.55039 0.63495,-0.79234 0.37519,-0.42961 0.40029,-0.43803 1.07212,-0.35996 1.93797,0.22521 2.41511,0.34969 2.98336,0.7783 0.30958,0.23351 0.97705,0.5709 1.48327,0.74975 0.6558,0.23171 1.08398,0.48073 1.48942,0.86625 0.31297,0.29758 0.73747,0.63294 0.94334,0.74522 0.20586,0.11229 0.54701,0.43551 0.75811,0.71827 0.21109,0.28275 0.60552,0.63182 0.8765,0.7757 0.27099,0.14388 0.66297,0.43318 0.87107,0.64287 l 0.37836,0.38127 0.50156,-1.05839 c 0.27586,-0.58211 0.6691,-1.26607 0.87387,-1.5199 0.2234,-0.27693 0.50312,-0.88763 0.69934,-1.52685 0.17986,-0.58593 0.4859,-1.28818 0.68008,-1.56056 0.19418,-0.27237 0.51659,-1.01089 0.71647,-1.64114 0.19988,-0.63025 0.55142,-1.45488 0.78121,-1.83251 0.22979,-0.37763 0.58192,-1.25531 0.78251,-1.9504 0.20285,-0.70289 0.54285,-1.54425 0.76608,-1.8957 0.22846,-0.35968 0.51209,-1.06743 0.65841,-1.64293 0.26968,-1.06069 0.47835,-1.57625 0.83397,-2.06051 0.23299,-0.31727 0.50694,-1.16688 1.00637,-3.12107 0.17765,-0.69509 0.37024,-1.31783 0.42799,-1.38386 0.23962,-0.274 0.0596,-0.42211 -0.75866,-0.62411 -0.77632,-0.19165 -1.37816,-0.20274 -5.95136,-0.10968 -5.04223,0.10261 -5.09099,0.10612 -5.45672,0.39298 -0.20296,0.15919 -0.85402,0.50362 -1.44679,0.76538 -0.70538,0.31149 -1.25216,0.65297 -1.58247,0.98831 -0.27759,0.28181 -0.68746,0.61217 -0.91084,0.73414 -0.22337,0.12197 -0.6385,0.4381 -0.9225,0.7025 -1.01026,0.94055 -2.98277,1.10671 -9.84752,0.82953 -2.573528,-0.10392 -3.286402,-0.23893 -3.676583,-0.69634 -0.177014,-0.20751 -0.166431,-0.28777 0.139338,-1.05666 0.260191,-0.65429 0.533482,-1.04353 1.278885,-1.82151 0.52139,-0.54417 1.24282,-1.2044 1.60317,-1.46718 0.36035,-0.26277 0.86527,-0.64025 1.12204,-0.83884 0.25677,-0.19858 0.72823,-0.46078 1.0477,-0.58265 0.31946,-0.12187 0.79243,-0.40913 1.05103,-0.63834 0.46479,-0.411972 0.86284,-0.599116 2.13986,-1.006083 0.36036,-0.114837 0.84281,-0.335978 1.07213,-0.491424 0.58782,-0.398462 0.95471,-0.534169 2.42832,-0.898204 0.71315,-0.176172 1.54405,-0.46036 1.84644,-0.631528 0.80132,-0.453578 1.11551,-0.558605 2.63577,-0.881071 0.91282,-0.19362 1.64954,-0.438976 2.20381,-0.733956 0.47663,-0.253656 1.40254,-0.582105 2.16562,-0.768208 0.7612,-0.185645 1.68489,-0.513103 2.15334,-0.763378 0.45119,-0.241052 1.36316,-0.580409 2.02659,-0.754126 0.69789,-0.182737 1.52242,-0.502864 1.95647,-0.759607 0.44742,-0.264648 1.25509,-0.57476 2.00105,-0.76832 0.68795,-0.178506 1.61351,-0.524675 2.0568,-0.769261 0.44329,-0.244586 1.27419,-0.56015 1.84644,-0.701252 0.57225,-0.141102 1.4693,-0.479117 1.99346,-0.751144 0.52415,-0.272028 1.52861,-0.658925 2.23214,-0.859771 0.73475,-0.209757 1.47719,-0.510773 1.74446,-0.707272 0.25592,-0.188153 1.04726,-0.526118 1.75854,-0.751034 0.82018,-0.259352 1.51436,-0.570911 1.89772,-0.851737 0.33246,-0.243537 0.92213,-0.567488 1.31037,-0.71989 0.38825,-0.152402 0.89353,-0.456096 1.12284,-0.674878 0.22932,-0.218781 0.80423,-0.586662 1.27757,-0.817512 0.47335,-0.230852 0.98262,-0.569343 1.1317,-0.752204 0.14908,-0.182861 0.6195,-0.550171 1.04537,-0.816244 0.42587,-0.266072 0.83904,-0.59731 0.91815,-0.736084 0.0791,-0.138773 0.4421,-0.462345 0.80664,-0.719047 0.36453,-0.256701 0.72866,-0.56215 0.80916,-0.678774 0.0805,-0.116623 0.468,-0.474754 0.86112,-0.795845 0.67365,-0.55023 3.75985,-3.833974 5.59888,-5.957265 0.45863,-0.52952 1.45035,-1.643116 2.20382,-2.474657 0.75347,-0.831539 1.70837,-1.899189 2.12202,-2.372556 1.36245,-1.559158 2.8411,-3.131689 3.16249,-3.363262 0.26435,-0.190471 0.29528,-0.269048 0.18887,-0.479973 -0.07,-0.13872 -0.27139,-0.311606 -0.44758,-0.384193 -0.70755,-0.291487 -3.44145,-0.735278 -5.33823,-0.866549 -1.80789,-0.125119 -2.05502,-0.170177 -2.45207,-0.447088 -0.60129,-0.419344 -1.35649,-1.512994 -1.63252,-2.364143 -0.29241,-0.901673 -0.38556,-1.08047 -0.90945,-1.745716 -0.23792,-0.302112 -0.61524,-0.921782 -0.83849,-1.377045 -0.22325,-0.455262 -0.56508,-1.026799 -0.75963,-1.270081 -0.26629,-0.333009 -0.39011,-0.668367 -0.50098,-1.356925 -0.20823,-1.29311 0.002,-3.689782 0.42909,-4.891173 0.17146,-0.482322 0.37487,-1.407209 0.45202,-2.055303 0.17013,-1.428956 0.0599,-1.990237 -0.62916,-3.20477 -0.25872,-0.455988 -0.47039,-0.881005 -0.47039,-0.944483 0,-0.06348 -0.31189,-0.430269 -0.69308,-0.815089 -0.62057,-0.626473 -0.71452,-0.790259 -0.89808,-1.565517 -0.20436,-0.863067 -0.20399,-0.870299 0.11344,-2.254449 0.2495,-1.087952 0.40472,-1.502206 0.7169,-1.913297 0.21914,-0.288583 0.61542,-0.82288 0.8806,-1.187331 0.27071,-0.372041 0.7028,-0.780818 0.98528,-0.932124 0.27672,-0.148219 0.75197,-0.461732 1.05611,-0.696696 0.76604,-0.591801 1.21599,-0.769454 2.83471,-1.119208 0.77324,-0.167075 1.85513,-0.432164 2.40417,-0.589088 0.857,-0.244942 1.30172,-0.286105 3.14253,-0.290884 1.97222,-0.0051 2.23505,0.02156 3.27594,0.33252 0.62243,0.185948 1.85537,0.488121 2.73988,0.671495 1.04628,0.216912 1.77468,0.439952 2.08469,0.638334 0.26207,0.16771 0.95896,0.555364 1.54863,0.861452 1.18179,0.613457 2.02541,1.383893 2.37432,2.168369 0.12308,0.276719 0.42935,0.815917 0.68061,1.198216 0.39703,0.604074 0.48066,0.86057 0.63866,1.958889 0.1,0.69509 0.23654,1.633461 0.30343,2.085269 0.0669,0.451808 0.33661,1.560792 0.59939,2.464409 0.26279,0.903616 0.56068,1.927294 0.66201,2.274838 0.25537,0.876007 0.47346,1.20061 0.80667,1.20061 0.15511,0 0.78375,-0.137656 1.39697,-0.3059 2.01294,-0.552277 4.57544,-0.715515 13.1466,-0.837475 8.48632,-0.120752 8.56279,-0.126618 11.97208,-0.918647 1.25463,-0.291466 1.97712,-0.395401 5.03782,-0.72471 0.59874,-0.06442 1.28737,-0.227514 1.60819,-0.38088 0.58567,-0.279985 1.68518,-0.532076 3.30094,-0.75684 2.70727,-0.376597 4.24505,-0.675725 5.17007,-1.00568 1.09084,-0.389098 2.94846,-0.667116 5.90858,-0.884303 0.91726,-0.0673 2.0698,-0.177428 2.56119,-0.244724 1.31312,-0.179836 3.55178,-0.1588 4.92841,0.04631 0.66359,0.09887 1.66438,0.214615 2.22397,0.257207 1.5441,0.117528 3.16815,0.50781 3.68047,0.88447 0.24237,0.178191 0.94294,0.502694 1.55681,0.721116 0.80299,0.285706 1.25194,0.52883 1.6001,0.866498 0.26618,0.25815 0.64477,0.557205 0.84133,0.664569 0.19655,0.107362 0.50927,0.364742 0.6949,0.571955 l 0.33754,0.376751 -0.29681,0.779571 -0.2968,0.779571 0.49533,0.366787 c 0.27243,0.201734 0.61017,0.45226 0.75054,0.556724 0.14036,0.104465 0.42164,0.614093 0.62507,1.132509 l 0.36986,0.942572 -0.2379,0.588832 c -0.13086,0.323856 -0.23792,0.715244 -0.23792,0.86975 0,0.285672 0.32271,0.814226 0.80057,1.311244 0.2565,0.266778 0.25831,0.286609 0.0596,0.654693 -0.24473,0.453271 -0.58422,0.553674 -1.81313,0.536225 -1.20345,-0.01709 -2.55701,-0.309017 -3.53819,-0.763097 -0.47648,-0.220514 -1.57097,-0.533059 -2.65871,-0.759232 -1.01686,-0.211434 -2.14259,-0.526762 -2.50163,-0.70073 -0.95703,-0.46372 -1.88596,-0.690662 -3.69049,-0.901606 -4.14412,-0.484435 -5.86863,-0.505586 -8.21964,-0.100811 -1.31184,0.22586 -1.75261,0.397685 -2.38657,0.93037 -0.25274,0.212374 -0.85109,0.525234 -1.32965,0.695246 -0.47855,0.170012 -1.29895,0.539999 -1.8231,0.822194 -0.84909,0.457137 -1.11537,0.532992 -2.44207,0.695676 -2.09199,0.256526 -4.17391,0.620804 -5.36063,0.937959 -0.71534,0.191177 -1.65948,0.304058 -3.21638,0.384552 -1.2121,0.06267 -2.5454,0.147379 -2.96288,0.18825 -0.4175,0.04087 -2.1061,0.127626 -3.75245,0.192792 -2.03006,0.08035 -3.4293,0.200724 -4.34794,0.37404 -0.74501,0.140557 -1.48134,0.255558 -1.63628,0.255558 -0.38565,0 -0.88969,0.832815 -1.01597,1.678664 -0.12233,0.819386 0.0677,4.321547 0.31719,5.844417 0.10215,0.62367 0.34521,1.503606 0.54014,1.955415 0.19493,0.451808 0.50538,1.476556 0.68991,2.277217 0.18451,0.800661 0.41136,1.603431 0.50409,1.783931 0.0927,0.180501 0.31208,0.610024 0.48742,0.954495 0.17535,0.344471 0.40554,0.991912 0.51151,1.438757 0.259,1.092017 0.45731,1.613829 0.88553,2.330189 0.23523,0.393501 0.45283,1.042963 0.62746,1.872739 0.19711,0.936582 0.37377,1.434443 0.6724,1.895023 0.45051,0.694803 0.51644,0.892369 0.87153,2.611177 0.13619,0.6592 0.42218,1.569136 0.63554,2.022079 0.44392,0.942409 0.56713,1.45529 0.88931,3.701749 0.14816,1.033045 0.34256,1.871681 0.53983,2.328818 0.3438,0.796679 0.68554,2.847943 0.89063,5.345693 0.0713,0.868862 0.20709,2.034717 0.30166,2.590789 0.29718,1.74724 0.76868,4.77855 0.83546,5.37115 0.18233,1.61813 0.29598,8.56275 0.17787,10.86867 -0.13297,2.59592 -0.18267,2.88194 -0.717,4.12613 -0.18354,0.42738 -0.47338,1.33731 -0.64408,2.02207 -0.20444,0.82014 -0.43276,1.41755 -0.66902,1.75055 -0.19726,0.27804 -0.57695,0.97745 -0.84374,1.55426 -0.26681,0.57681 -0.61631,1.13995 -0.77667,1.25143 -0.16037,0.11148 -0.45034,0.44751 -0.6444,0.74673 -0.43278,0.66732 -2.05108,2.45063 -2.2239,2.45063 -0.0691,0 -0.47632,0.32701 -0.90493,0.72668 -0.42862,0.39968 -1.03568,0.8973 -1.34903,1.10583 -0.50281,0.33461 -0.59568,0.46819 -0.79078,1.13742 -0.18175,0.62342 -0.19614,0.8257 -0.081,1.13741 0.3835,1.03778 0.6244,2.03196 0.89184,3.6804 0.22911,1.41227 0.38337,1.99668 0.70369,2.66601 0.81297,1.69876 0.94294,4.03853 0.78837,14.19033 l -0.0529,3.47545 0.35006,0.68026 c 0.53017,1.03023 2.15438,2.57086 3.35547,3.18279 0.53668,0.27344 1.00953,0.55509 1.05078,0.62589 0.11267,0.19341 1.09016,0.68593 1.97181,0.99352 0.43009,0.15005 1.05999,0.46283 1.39975,0.69507 0.33979,0.23223 1.00641,0.55127 1.4814,0.70895 1.01404,0.33665 1.64875,0.65834 1.87857,0.95213 0.0908,0.1161 0.50548,0.3817 0.92145,0.5902 0.41599,0.20851 0.82054,0.49101 0.89903,0.62779 0.0785,0.13677 0.39417,0.44155 0.70154,0.67728 0.30736,0.23573 0.75047,0.72967 0.98468,1.09765 0.23421,0.36797 0.55123,0.85005 0.70448,1.07127 0.39449,0.56947 0.48204,1.74379 0.20133,2.70064 -0.17817,0.60733 -0.3498,0.8611 -1.07546,1.59025 -1.04903,1.05405 -1.3634,1.2361 -2.7077,1.56797 -0.57677,0.14238 -1.53113,0.43464 -2.1208,0.64943 -0.98287,0.35802 -1.22586,0.39426 -2.91857,0.4352 -1.29299,0.0313 -2.06067,-0.008 -2.56119,-0.13159 z m -14.30876,-25.97164 0.34364,-0.14297 -0.0832,-1.31721 c -0.0457,-0.72446 -0.18622,-1.76085 -0.31216,-2.30309 -0.12595,-0.54224 -0.31392,-2.00956 -0.4177,-3.26072 -0.33393,-4.02557 -0.55923,-5.43176 -1.06355,-6.63826 -0.24621,-0.58901 -0.4947,-1.24576 -0.55221,-1.45945 -0.0575,-0.21368 -0.23388,-0.51741 -0.39194,-0.67494 -0.26367,-0.26279 -0.448,-0.29508 -2.23456,-0.39145 -2.14874,-0.11591 -3.18048,-0.32201 -4.37044,-0.87305 -0.43536,-0.2016 -1.24453,-0.49742 -1.79814,-0.65738 -0.68127,-0.19684 -1.16249,-0.42461 -1.48906,-0.70479 -0.26538,-0.22768 -0.75053,-0.55731 -1.07812,-0.73251 -0.98486,-0.52673 -2.75432,-2.15563 -4.69277,-4.32 -1.00711,-1.12448 -1.92548,-2.19713 -2.04083,-2.38368 -0.11535,-0.18655 -0.44329,-0.58596 -0.72876,-0.88758 -0.28546,-0.30163 -0.86747,-0.95118 -1.29334,-1.44346 -0.42588,-0.49228 -1.01991,-1.16332 -1.32005,-1.49121 -0.30016,-0.32788 -0.69056,-0.82924 -0.86756,-1.11412 -0.17698,-0.28488 -0.46225,-0.59767 -0.63391,-0.69509 -0.17166,-0.0974 -0.51986,-0.47543 -0.77378,-0.84003 -0.25391,-0.3646 -0.59397,-0.75488 -0.75568,-0.86729 -0.16171,-0.11241 -0.45041,-0.43 -0.64156,-0.70575 -0.19115,-0.27575 -0.51011,-0.6286 -0.7088,-0.78412 -0.19868,-0.15552 -0.5973,-0.62017 -0.88581,-1.03256 -0.6047,-0.86437 -6.06967,-6.61329 -7.62205,-8.01808 -0.57522,-0.52053 -1.30926,-1.14547 -1.63119,-1.38876 -0.32193,-0.24328 -0.83373,-0.7112 -1.13734,-1.03983 l -0.55202,-0.5975 -0.56424,0.30333 c -0.75207,0.40431 -1.35704,1.14007 -1.6722,2.03373 -0.14214,0.40303 -0.41773,0.94616 -0.61242,1.20694 -0.19469,0.26079 -0.5444,0.9195 -0.77714,1.4638 -0.23274,0.5443 -0.57484,1.16025 -0.76023,1.36878 -0.18539,0.20853 -0.50615,0.80567 -0.71279,1.32699 -0.20664,0.52132 -0.52655,1.11846 -0.7109,1.32699 -0.18435,0.20853 -0.53487,0.7883 -0.77894,1.28838 -0.2773,0.56819 -0.6774,1.13705 -1.06666,1.51656 -1.17106,1.14176 -2.24724,2.12373 -2.63242,2.40197 -0.21173,0.15295 -0.41281,0.35506 -0.44683,0.44913 -0.034,0.0941 -0.38255,0.35237 -0.77448,0.57399 -0.39194,0.22162 -0.85765,0.60468 -1.03491,0.85124 -0.17727,0.24656 -0.53109,0.59487 -0.78628,0.77403 -0.25519,0.17916 -0.55962,0.48601 -0.67652,0.68188 -0.1169,0.19588 -0.43889,0.53008 -0.71553,0.74268 -0.3134,0.24085 -0.63854,0.66076 -0.86264,1.11406 -0.19781,0.40013 -0.46858,0.87157 -0.6017,1.04764 -0.41093,0.54351 -0.59929,1.55511 -0.44333,2.38096 0.12126,0.64207 0.21608,0.79539 0.97586,1.57794 0.57262,0.58978 1.14609,1.02901 1.79455,1.37447 0.52415,0.27924 1.14661,0.69235 1.38325,0.91803 0.24251,0.23129 0.77702,0.53275 1.225,0.69091 0.43713,0.15432 0.9404,0.40949 1.11839,0.56705 0.44651,0.39524 0.9762,0.66935 1.84639,0.95548 0.40733,0.13394 1.03544,0.44628 1.3958,0.69409 0.36035,0.2478 0.95002,0.53774 1.31037,0.6443 1.15746,0.34226 1.34846,0.42656 1.96022,0.86513 0.3428,0.24575 1.11356,0.59601 1.79414,0.81531 0.65625,0.21147 1.37993,0.53074 1.6082,0.70951 0.22826,0.17876 1.00704,0.52115 1.73061,0.76086 0.72358,0.23971 1.50087,0.58095 1.72732,0.75831 0.22645,0.17737 0.86738,0.46488 1.42429,0.63891 1.14519,0.35788 2.09185,0.78047 2.27617,1.01609 0.1144,0.14624 0.49684,0.29405 2.22014,0.85807 0.34361,0.11246 0.87967,0.37632 1.19125,0.58635 0.31158,0.21005 0.86134,0.46911 1.2217,0.57573 1.33932,0.39624 1.77614,0.57543 2.29999,0.94355 0.2954,0.20758 1.01107,0.52108 1.59039,0.69668 0.57933,0.1756 1.34815,0.50909 1.7085,0.74111 0.36036,0.23201 1.12475,0.57672 1.69866,0.76602 0.5739,0.18931 1.3512,0.54172 1.72731,0.78314 0.75902,0.4872 1.19664,0.68201 2.18793,0.974 0.3686,0.10857 0.93147,0.38775 1.25081,0.6204 0.31934,0.23265 1.00963,0.57433 1.53398,0.75929 0.52435,0.18496 1.21393,0.53283 1.53241,0.77305 0.75834,0.572 2.20585,1.07983 3.07792,1.07983 0.37332,0 0.98747,-0.0853 1.36478,-0.18957 0.85554,-0.2364 2.59254,-0.24116 3.61411,-0.01 0.42587,0.0964 1.22996,0.41252 1.78687,0.70248 0.92689,0.48258 1.07304,0.52214 1.72732,0.46765 0.39311,-0.0327 0.86939,-0.12386 1.05839,-0.20249 z m -14.12332,-45.69703 c 0.23149,-0.3122 0.23169,-0.32978 0.014,-1.2322 -0.12146,-0.50352 -0.43819,-1.37045 -0.70387,-1.92652 -0.34045,-0.712582 -0.55544,-1.402777 -0.72829,-2.338034 -0.14681,-0.794388 -0.42771,-1.758143 -0.69985,-2.401219 -0.25005,-0.590826 -0.54444,-1.557633 -0.65423,-2.148459 -0.30437,-1.638099 -0.51804,-2.35139 -0.89147,-2.976104 -0.18759,-0.313793 -0.46051,-1.083408 -0.6065,-1.710255 -0.20105,-0.863195 -0.4035,-1.361855 -0.83444,-2.055258 -0.31294,-0.503544 -0.65677,-1.138425 -0.76405,-1.410846 -0.3289,-0.835092 -0.48726,-0.946893 -1.34125,-0.946893 -0.73116,0 -0.7829,0.02137 -1.32169,0.54581 -0.30842,0.300195 -0.81291,0.699153 -1.1211,0.886571 -0.30819,0.187421 -0.63478,0.453502 -0.72576,0.591293 -0.091,0.137792 -0.43481,0.46394 -0.76409,0.724773 -1.41545,1.121232 -2.52916,2.098943 -3.26983,2.870536 -0.43631,0.454516 -0.84739,0.826394 -0.9135,0.826394 -0.0661,0 -0.23598,0.198685 -0.37744,0.44152 -0.14147,0.242836 -0.49419,0.622071 -0.78384,0.842743 l -0.52662,0.401224 0.29834,0.389461 c 0.16409,0.214204 0.40514,0.600274 0.53567,0.857934 0.1463,0.288803 0.45441,0.599419 0.80337,0.809904 0.31132,0.187788 0.78047,0.555641 1.04254,0.817452 0.26208,0.26181 0.77134,0.614197 1.13169,0.783082 0.36036,0.168887 0.92322,0.547929 1.25082,0.842319 0.32759,0.294389 0.83685,0.6474 1.13169,0.784467 0.29483,0.137067 0.69688,0.413529 0.89344,0.614357 0.19655,0.200829 0.77618,0.570336 1.28806,0.821127 0.51188,0.250791 1.1308,0.647771 1.37536,0.882181 0.24458,0.23441 0.81593,0.57445 1.26966,0.75564 0.45375,0.18119 1.0618,0.52516 1.35121,0.76438 0.28943,0.23922 0.82424,0.55324 1.18848,0.69782 0.36425,0.14458 0.91339,0.45844 1.22033,0.69748 1.10831,0.86312 1.84095,1.02628 2.23313,0.49732 z"
       style="fill:#000000;stroke-width:0.122699" />
  </g>
</svg>
