<?xml version="1.0" encoding="UTF-8" standalone="no"?>
<svg
   xmlns:dc="http://purl.org/dc/elements/1.1/"
   xmlns:cc="http://creativecommons.org/ns#"
   xmlns:rdf="http://www.w3.org/1999/02/22-rdf-syntax-ns#"
   xmlns:svg="http://www.w3.org/2000/svg"
   xmlns="http://www.w3.org/2000/svg"
   xmlns:sodipodi="http://sodipodi.sourceforge.net/DTD/sodipodi-0.dtd"
   xmlns:inkscape="http://www.inkscape.org/namespaces/inkscape"
   version="1.1"
   id="svg268"
   width="498.43265"
   height="232.63995"
   viewBox="0 0 498.43264 232.63996"
   sodipodi:docname="плавание.svg"
   inkscape:version="1.0 (4035a4fb49, 2020-05-01)">
  <metadata
     id="metadata274">
    <rdf:RDF>
      <cc:Work
         rdf:about="">
        <dc:format>image/svg+xml</dc:format>
        <dc:type
           rdf:resource="http://purl.org/dc/dcmitype/StillImage" />
        <dc:title></dc:title>
      </cc:Work>
    </rdf:RDF>
  </metadata>
  <defs
     id="defs272" />
  <sodipodi:namedview
     inkscape:document-rotation="0"
     pagecolor="#ffffff"
     bordercolor="#666666"
     borderopacity="1"
     objecttolerance="10"
     gridtolerance="10"
     guidetolerance="10"
     inkscape:pageopacity="0"
     inkscape:pageshadow="2"
     inkscape:window-width="1920"
     inkscape:window-height="1018"
     id="namedview270"
     showgrid="false"
     inkscape:zoom="1.829241"
     inkscape:cx="224.17506"
     inkscape:cy="45.012482"
     inkscape:window-x="-6"
     inkscape:window-y="-6"
     inkscape:window-maximized="1"
     inkscape:current-layer="g276" />
  <g
     transform="translate(-2.7333741,-92.559758)"
     inkscape:groupmode="layer"
     inkscape:label="Image"
     id="g276">
    <path
       id="path36"
       d="m 368.44767,321.6452 c -26.24036,-4.58226 -58.12734,-14.25945 -101.58731,-30.83011 -76.04929,-28.9965 -93.87858,-33.83384 -124.85595,-33.87517 -18.82538,-0.0251 -49.864194,6.00964 -64.728837,12.58498 -17.691856,7.82595 -16.231881,4.36005 2.599489,-6.17105 21.902508,-12.24858 40.545688,-18.59606 64.337908,-21.90526 39.43356,-5.4847 78.35806,2.24897 154.19546,30.63614 30.28884,11.33761 61.58141,21.83395 69.53905,23.32521 8.11868,1.52144 27.84355,2.13564 44.94463,1.39951 34.04707,-1.46559 52.00544,-6.38471 75.95213,-20.80465 12.45996,-7.503 13.81994,-7.86853 11.22492,-3.01705 -5.62169,10.50991 -29.07012,30.94787 -43.68272,38.07445 -16.36826,7.98279 -43.27711,14.45453 -58.73242,14.12549 -5.5873,-0.11895 -18.73016,-1.71307 -29.20635,-3.54249 z m -3.92861,-34.30604 c -5.65278,-1.12251 -27.93849,-8.55557 -49.52381,-16.51791 -86.90767,-32.05834 -115.42635,-38.51194 -158.50106,-35.86781 -14.02877,0.86115 -28.80755,2.31949 -32.84174,3.24075 -7.32807,1.67346 -7.33318,1.66582 -5.49764,-8.21192 2.86928,-15.44061 11.70291,-28.80261 23.68283,-35.82331 9.26464,-5.42944 13.29603,-6.23843 26.80201,-5.37843 20.41841,1.30014 30.64227,8.27496 39.05028,26.64046 4.47777,9.78073 7.62179,13.56324 11.27379,13.56324 4.13457,0 4.70756,-1.04909 3.12103,-5.71429 -1.06881,-3.14285 -2.00297,-13.14285 -2.07591,-22.22222 -0.10589,-13.18188 -1.4974,-18.81059 -6.9064,-27.93651 -3.72559,-6.28571 -9.95294,-17.97813 -13.83856,-25.98314 l -7.06476,-14.55457 -30.60589,1.56899 c -31.26578,1.60281 -63.87289,8.11649 -74.066747,14.79576 -3.131301,2.05171 -6.062166,6.32996 -6.513033,9.50723 -0.550172,3.87707 -4.784028,7.91458 -12.874365,12.27731 -6.630035,3.57525 -15.263998,9.57525 -19.186586,13.33333 -3.922591,3.75808 -8.498017,6.83287 -10.167617,6.83287 -5.993323,0 -2.861912,-7.39245 6.346738,-14.98299 14.616831,-12.04843 7.814984,-12.38185 -14.480102,-0.7098 -20.073427,10.50895 -27.9181439,12.82619 -27.9181439,8.24668 0,-1.30171 3.7142858,-4.972 8.2539689,-8.1562 4.539682,-3.1842 14.827023,-12.00897 22.860757,-19.6106 14.453793,-13.67637 25.775973,-19.66046 60.313848,-31.87758 9.079362,-3.21166 22.222222,-8.23912 29.206352,-11.17213 14.02815,-5.89119 52.52041,-16.733292 68.94914,-19.420886 10.5067,-1.718803 10.60954,-1.656854 36.43438,21.948176 28.87169,26.38997 35.18593,35.55634 43.13976,62.62588 l 5.47596,18.63658 18.35233,8.36344 c 11.44739,5.21673 27.8637,16.26928 43.63208,29.37599 13.90385,11.55691 29.20957,22.65455 34.0127,24.66143 11.78412,4.92372 48.28642,4.53759 70.32576,-0.74392 19.89768,-4.76827 50.69656,-5.75271 54.70086,-1.74842 6.5106,6.51062 -32.85275,26.57175 -61.37217,31.27768 -16.66197,2.74936 -58.08663,2.59899 -72.50004,-0.26316 z"
       style="fill:#000000;stroke-width:2.53968" />
  </g>
</svg>
