<?xml version="1.0" encoding="UTF-8" standalone="no"?>
<svg
   xmlns:dc="http://purl.org/dc/elements/1.1/"
   xmlns:cc="http://creativecommons.org/ns#"
   xmlns:rdf="http://www.w3.org/1999/02/22-rdf-syntax-ns#"
   xmlns:svg="http://www.w3.org/2000/svg"
   xmlns="http://www.w3.org/2000/svg"
   xmlns:sodipodi="http://sodipodi.sourceforge.net/DTD/sodipodi-0.dtd"
   xmlns:inkscape="http://www.inkscape.org/namespaces/inkscape"
   inkscape:version="1.0 (4035a4fb49, 2020-05-01)"
   sodipodi:docname="синхронное.svg"
   viewBox="0 0 634.50873 514.26886"
   height="514.26886"
   width="634.50873"
   id="svg380"
   version="1.1">
  <metadata
     id="metadata386">
    <rdf:RDF>
      <cc:Work
         rdf:about="">
        <dc:format>image/svg+xml</dc:format>
        <dc:type
           rdf:resource="http://purl.org/dc/dcmitype/StillImage" />
        <dc:title></dc:title>
      </cc:Work>
    </rdf:RDF>
  </metadata>
  <defs
     id="defs384" />
  <sodipodi:namedview
     inkscape:current-layer="g388"
     inkscape:window-maximized="1"
     inkscape:window-y="-6"
     inkscape:window-x="-6"
     inkscape:cy="251.49144"
     inkscape:cx="326.47037"
     inkscape:zoom="0.81417625"
     showgrid="false"
     id="namedview382"
     inkscape:window-height="1018"
     inkscape:window-width="1920"
     inkscape:pageshadow="2"
     inkscape:pageopacity="0"
     guidetolerance="10"
     gridtolerance="10"
     objecttolerance="10"
     borderopacity="1"
     bordercolor="#666666"
     pagecolor="#ffffff"
     inkscape:document-rotation="0" />
  <g
     transform="translate(36.499126,-3.2204099)"
     id="g388"
     inkscape:label="Image"
     inkscape:groupmode="layer">
    <path
       id="path106"
       d="M 53.100873,516.15232 C 33.248003,513.55777 20.903363,510.17503 7.8855834,503.7622 -13.489477,493.23239 -27.107367,477.90705 -34.174587,456.42843 c -3.17405,-9.64654 -3.08229,-29.8556 0.1814,-39.95426 1.26947,-3.92803 2.6333,-6.77847 3.03073,-6.33431 0.39744,0.44417 1.23395,4.9736 1.85893,10.06541 1.32473,10.79293 3.3476,17.2135 9.10312,28.8932 3.34,6.7779 6.02759,10.38549 13.4438604,18.0459 7.61967,7.87049 10.8667,10.42598 18.2448396,14.35912 15.89709,8.47441 34.30961,12.42008 53.67764,11.50272 31.21392,-1.47844 54.631707,-11.30793 119.940517,-50.3444 40.1663,-24.00825 66.45437,-35.03185 95.83676,-40.18803 7.60377,-1.33435 40.93056,-1.31354 46.68971,0.0291 2.43278,0.56718 7.29833,1.692 10.81235,2.4996 22.28251,5.12098 45.04146,19.64849 62.03832,39.60032 6.94984,8.15811 15.10159,20.70975 20.50014,31.56504 5.31281,10.68291 10.84095,24.91589 10.84095,27.91159 0,2.79127 -2.28732,2.28139 -4.20517,-0.93742 -3.13522,-5.26197 -15.10746,-20.04678 -22.77251,-28.12232 -21.8121,-22.98021 -46.37358,-37.45895 -72.79085,-42.90948 -10.86369,-2.24144 -36.25447,-2.14912 -47.653,0.17328 -4.58446,0.93405 -8.78653,2.05615 -9.33795,2.49355 -0.55142,0.43739 -2.55071,1.1125 -4.44287,1.50024 -9.96086,2.04113 -31.60989,12.11462 -56.27338,26.18447 -9.05534,5.16583 -23.87318,13.6211 -32.92853,18.78949 -14.68421,8.38109 -33.97459,18.23957 -42.06215,21.49614 -19.42689,7.82251 -29.28382,10.6785 -46.391957,13.44181 -10.81427,1.74673 -26.52826,1.73225 -40.06544,-0.0369 z m 102.337597,-67.5071 c -0.75669,-1.21384 2.19017,-17.13577 4.99316,-26.97819 1.37376,-4.82382 3.05559,-10.96322 3.7374,-13.64312 1.15906,-4.55577 11.29875,-35.60007 14.78821,-45.2765 0.86221,-2.39092 2.0078,-8.53033 2.54575,-13.64311 0.53795,-5.11279 1.31751,-12.58494 1.73235,-16.60479 0.5579,-5.40624 1.6726,-9.13435 4.28213,-14.32168 1.94033,-3.85707 4.47363,-10.65427 5.62953,-15.10488 1.1559,-4.4506 3.25267,-10.50392 4.65948,-13.45181 2.2825,-4.78281 2.6034,-6.82847 2.98091,-19.00291 0.24688,-7.96129 -0.23295,-21.5571 -1.15212,-32.64603 -0.86636,-10.4516 -2.02067,-30.40466 -2.56513,-44.34013 -1.60189,-41.00031 -2.39011,-48.69995 -7.03321,-68.70284 -4.06081,-17.49435 -4.18558,-18.53359 -4.21189,-35.082304 -0.0266,-16.722094 1.56478,-39.592941 3.5585,-51.141766 0.89041,-5.157792 1.78459,-6.743836 7.78462,-13.807855 8.97554,-10.567171 11.40603,-12.225486 17.36342,-11.847012 4.59299,0.291794 4.69219,0.366657 4.97976,3.758315 0.21242,2.505377 -0.26238,3.959261 -1.72015,5.267206 -1.54406,1.385367 -2.01356,3.003709 -2.01356,6.940605 0,4.153376 -0.5059,5.730067 -2.64867,8.254738 -3.30954,3.899429 -3.2869,7.425162 0.0936,14.569942 1.39475,2.947888 2.54023,5.935191 2.54551,6.638452 0.005,0.703259 0.715,3.416795 1.57716,6.030077 1.31837,3.996103 3.3497,6.401015 12.77824,15.12837 l 11.21065,10.376946 v 5.422688 5.422688 l -7.37206,6.98427 -7.37206,6.98428 9.8e-4,7.73007 c 9.9e-4,7.56584 0.59948,11.33074 4.94554,31.11828 1.1772,5.3598 2.91029,13.25332 3.85132,17.54116 0.94102,4.28783 3.3494,16.12811 5.35197,26.31172 2.00257,10.18361 4.26465,20.48904 5.02685,22.90095 4.49284,14.21718 5.7103,21.93289 5.68942,36.05681 -0.0185,12.49407 -0.37811,15.57637 -3.10563,26.61744 -3.08318,12.48076 -3.08474,12.50071 -3.06768,39.46759 0.0127,20.07074 0.39029,28.72744 1.47441,33.80172 0.99693,4.66533 1.45752,12.70249 1.45752,25.4298 0,16.79011 -0.17566,18.76623 -1.79754,20.22141 -0.98865,0.88705 -2.1309,1.6128 -2.53834,1.6128 -2.80314,0 -34.59229,15.41932 -47.55299,23.06556 -4.16848,2.45922 -9.1272,5.34541 -11.01936,6.41372 -1.89216,1.06833 -8.79265,5.17795 -15.33443,9.13251 -11.81582,7.14277 -13.58266,7.92018 -14.53355,6.39481 z m -5.32196,-37.94141 c -3.09907,-8.64108 -5.88053,-21.36363 -6.55134,-29.96613 -0.69203,-8.87472 -1.57303,-13.22357 -5.70058,-28.13934 -4.63674,-16.75586 -2.82282,-23.70657 9.56855,-36.66547 8.7219,-9.12138 13.50838,-14.92026 24.53339,-29.72251 16.68508,-22.40148 18.64797,-24.84996 19.92173,-24.84996 2.20685,0 1.63804,16.90409 -0.787,23.3882 -1.10249,2.94789 -3.43973,10.19063 -5.19385,16.09498 -1.75413,5.90435 -4.56065,13.35934 -6.23672,16.56664 -3.78543,7.24375 -5.15624,11.66579 -4.97969,16.0638 0.47295,11.7816 -3.14614,28.50091 -10.54721,48.72542 -1.27491,3.48387 -3.05022,8.74621 -3.94513,11.6941 -0.8949,2.94789 -2.42871,7.99097 -3.40847,11.20685 -0.97977,3.21587 -2.05001,7.053 -2.37835,8.52694 -0.9036,4.0565 -2.07888,3.25659 -4.29533,-2.92352 z m 169.36141,-38.27589 c -17.77733,-2.24087 -32.94337,-7.82655 -43.87588,-16.15958 -6.6069,-5.03593 -9.54588,-8.37101 -13.96619,-15.84841 -5.35369,-9.05631 -6.93646,-14.94786 -6.97118,-25.94882 -0.0269,-8.52769 0.58544,-12.29157 3.09168,-19.00292 0.30023,-0.80397 1.32261,2.75349 2.27195,7.90545 3.63557,19.72966 15.19996,36.33209 30.62102,43.96107 14.84588,7.34441 31.98953,9.86386 48.31281,7.1001 19.63146,-3.32389 34.46898,-9.87058 69.1938,-30.53003 41.64881,-24.77889 60.52531,-32.56533 85.70769,-35.35392 22.6823,-2.51174 46.30644,3.04626 63.97752,15.05187 14.75932,10.02737 29.01469,29.06294 36.86099,49.22144 5.30481,13.62894 4.30645,14.86477 -3.56008,4.40686 -23.9434,-31.83079 -52.01728,-48.11812 -82.93943,-48.11812 -19.87157,0 -38.40453,6.37935 -68.80588,23.68416 -33.70039,19.18265 -41.70609,23.58815 -48.16412,26.50449 -21.73148,9.81359 -34.49237,13.15493 -52.09588,13.6409 -7.02803,0.19402 -15.8745,-0.0375 -19.65882,-0.51454 z m 76.59666,-54.78966 c 0.72864,-6.59776 6.93865,-29.02691 13.42325,-48.48179 3.63174,-10.89585 5.17621,-18.69206 6.33421,-31.97423 0.20143,-2.3104 1.6674,-7.13422 3.25771,-10.71959 2.87541,-6.48266 7.11894,-18.56483 9.13497,-26.00902 1.16965,-4.31896 0.73285,-18.67351 -1.58645,-52.1362 -0.7987,-11.52356 -1.47632,-25.99501 -1.50582,-32.15878 -0.0525,-10.97624 -0.78477,-15.76371 -5.88752,-38.493079 -1.89359,-8.43467 -2.11589,-11.579663 -1.65317,-23.388201 0.72671,-18.545598 2.49623,-34.674849 4.06264,-37.031318 0.71257,-1.071959 3.92905,-4.720538 7.14773,-8.1079539 5.47858,-5.7657604 6.09767,-6.1390265 9.6978,-5.8470503 3.04953,0.2473212 3.90733,0.7406525 4.14368,2.3830624 0.16392,1.1391466 -0.38898,2.7523061 -1.22868,3.5847987 -0.86323,0.8558211 -1.52672,3.1807971 -1.52672,5.3498431 0,2.360624 -0.75618,4.789292 -1.96589,6.313994 -2.3363,2.944648 -2.48924,6.024977 -0.48805,9.829152 0.80615,1.53244 2.10575,5.216144 2.88799,8.18601 1.27688,4.847749 2.282,6.189901 9.83206,13.129013 7.85998,7.223956 8.40977,7.984399 8.40977,11.631961 0,3.468897 -0.6169,4.49036 -5.54992,9.189536 l -5.54992,5.286834 0.55315,9.002989 c 0.30423,4.951644 1.02368,10.214773 1.59879,11.695842 0.57511,1.481077 1.48497,5.208567 2.02191,8.283317 0.53694,3.07476 1.88424,9.53723 2.994,14.36105 1.10975,4.82381 3.07635,14.25218 4.37022,20.95193 1.29388,6.69974 3.33103,15.47032 4.52702,19.49017 3.1736,10.66689 3.21284,27.47674 0.0925,39.61513 -2.20104,8.56216 -2.26667,9.86515 -1.64438,32.64603 0.35648,13.05035 0.72955,30.50765 0.82903,38.794 l 0.18087,15.06608 -2.45735,1.22327 c -1.35154,0.67279 -8.099,3.87692 -14.99435,7.12026 -6.89536,3.24335 -20.68885,10.71349 -30.65223,16.60031 -9.96339,5.88682 -18.42265,10.70331 -18.79837,10.70331 -0.37571,0 -0.38043,-2.74081 -0.0104,-6.09068 z m -4.8973,-23.85308 c -0.90443,-3.09419 -2.02291,-6.60453 -2.48549,-7.80076 -0.46259,-1.19621 -1.11457,-5.14297 -1.44886,-8.77057 -0.7236,-7.85223 -2.73994,-18.37573 -4.8114,-25.11128 -3.45981,-11.24987 -1.29026,-18.15021 9.14253,-29.07811 3.7542,-3.93236 11.9724,-14.01808 18.26269,-22.41273 6.29028,-8.39464 11.9108,-15.26298 12.49003,-15.26298 1.87773,0 0.53579,15.52176 -1.76928,20.46467 -1.12476,2.41191 -2.61384,6.7972 -3.30905,9.74509 -0.69522,2.94788 -2.67917,8.28776 -4.40877,11.86638 -2.68218,5.54957 -3.24912,8.05163 -3.85446,17.01098 -0.62429,9.23977 -1.45498,12.73861 -6.90014,29.06296 -3.40472,10.20722 -6.49934,19.97877 -6.87691,21.71456 -1.09363,5.02762 -2.26516,4.61253 -4.03089,-1.42821 z M 259.70303,278.2724 c -0.34903,-0.34604 -0.36068,-7.91066 -0.0259,-16.81027 0.41477,-11.02523 0.21939,-18.50997 -0.61317,-23.48993 -1.26929,-7.59227 -4.62684,-20.84642 -5.92471,-23.3882 -0.41052,-0.80397 -1.05027,-3.94716 -1.42169,-6.98488 l -0.67529,-5.5231 7.20924,-8.12002 c 14.34125,-16.15305 19.20968,-22.95927 33.32361,-46.58741 8.355,-13.98714 17.57148,-24.14081 39.51433,-43.53242 9.54095,-8.431645 14.65484,-12.269235 17.20147,-12.908407 7.19755,-1.8065 15.64365,-3.029854 20.91824,-3.029854 5.21563,0 5.54329,0.163349 10.68839,5.328463 5.21589,5.236192 5.27651,5.362754 3.50011,7.308818 -1.39093,1.52375 -3.02812,1.98034 -7.10091,1.98034 -4.89675,0 -5.57334,0.29197 -9.03341,3.89804 -2.96566,3.09081 -4.44866,3.89803 -7.16134,3.89803 -4.3744,0 -6.90766,2.69344 -9.16553,9.74509 -0.94389,2.94788 -3.00399,7.6305 -4.578,10.40581 -2.84768,5.02105 -2.85858,5.10316 -2.20328,16.599 0.54827,9.61823 0.39346,12.06125 -0.92447,14.58797 -2.19624,4.21061 -8.63731,7.13263 -15.72262,7.13263 -9.174,0 -10.34189,1.46452 -35.69162,44.75628 -11.71755,20.01101 -14.37161,25.72761 -18.04712,38.87179 -2.38736,8.53763 -6.11626,17.53641 -9.4106,22.7102 -2.3631,3.7113 -3.39025,4.40669 -4.65577,3.15203 z m 212.04331,-96.09081 c 0.0321,-13.86818 -0.2463,-16.74387 -2.24039,-23.14457 -3.48101,-11.17351 -4.19512,-15.47231 -2.9526,-17.77406 0.5954,-1.10298 3.6093,-4.69818 6.69754,-7.98934 6.20884,-6.61677 12.47789,-15.53821 21.27115,-30.27083 6.42881,-10.771124 15.69769,-20.997183 31.03461,-34.239525 8.74407,-7.549871 10.00561,-8.307297 15.25647,-9.15988 10.71268,-1.739418 14.74503,-1.285229 19.05155,2.145897 2.13077,1.697642 3.87412,3.655592 3.87412,4.351 0,1.907135 -3.82452,3.546859 -6.8661,2.943763 -2.10635,-0.417657 -3.2998,0.09251 -5.46999,2.338267 -1.75101,1.811976 -3.77028,2.87248 -5.46941,2.87248 -2.81959,0 -6.76803,3.843875 -6.76803,6.588801 0,0.79938 -1.30724,4.003837 -2.90498,7.121016 -2.7456,5.356635 -2.8726,6.122704 -2.31456,13.962281 0.48722,6.84476 0.29875,8.73603 -1.07819,10.81947 -1.98667,3.00603 -5.19758,4.36139 -10.75009,4.53773 -5.59361,0.17765 -9.83373,4.74144 -19.65359,21.15386 -13.22994,22.11187 -16.17073,27.91627 -19.40323,38.29731 -3.59128,11.53328 -8.2061,21.2821 -10.07434,21.2821 -0.99592,0 -1.26851,-3.48137 -1.23994,-15.83577 z"
       style="fill:#000000;stroke-width:0.978716" />
  </g>
</svg>
