<?xml version="1.0" encoding="UTF-8" standalone="no"?>
<svg
   xmlns:dc="http://purl.org/dc/elements/1.1/"
   xmlns:cc="http://creativecommons.org/ns#"
   xmlns:rdf="http://www.w3.org/1999/02/22-rdf-syntax-ns#"
   xmlns:svg="http://www.w3.org/2000/svg"
   xmlns="http://www.w3.org/2000/svg"
   xmlns:sodipodi="http://sodipodi.sourceforge.net/DTD/sodipodi-0.dtd"
   xmlns:inkscape="http://www.inkscape.org/namespaces/inkscape"
   xml:space="preserve"
   width="38.644882mm"
   height="31.515013mm"
   version="1.1"
   style="clip-rule:evenodd;fill-rule:evenodd;image-rendering:optimizeQuality;shape-rendering:geometricPrecision;text-rendering:geometricPrecision"
   viewBox="0 0 64.714664 52.776916"
   id="svg360"
   sodipodi:docname="ВОДНЫЕ.svg"
   inkscape:version="1.0 (4035a4fb49, 2020-05-01)"><metadata
   id="metadata364"><rdf:RDF><cc:Work
       rdf:about=""><dc:format>image/svg+xml</dc:format><dc:type
         rdf:resource="http://purl.org/dc/dcmitype/StillImage" /><dc:title></dc:title></cc:Work></rdf:RDF></metadata><sodipodi:namedview
   inkscape:document-rotation="0"
   pagecolor="#ffffff"
   bordercolor="#666666"
   borderopacity="1"
   objecttolerance="10"
   gridtolerance="10"
   guidetolerance="10"
   inkscape:pageopacity="0"
   inkscape:pageshadow="2"
   inkscape:window-width="1920"
   inkscape:window-height="1018"
   id="namedview362"
   showgrid="false"
   inkscape:zoom="2.4202708"
   inkscape:cx="33.271996"
   inkscape:cy="54.913615"
   inkscape:window-x="-6"
   inkscape:window-y="-6"
   inkscape:window-maximized="1"
   inkscape:current-layer="svg360" />
 <defs
   id="defs354">
  <style
   type="text/css"
   id="style352">
   <![CDATA[
    .fil0 {fill:black}
   ]]>
  </style>
 </defs>
 
<path
   id="path22"
   d="M 12.425393,52.683356 C 11.471828,52.490274 10.88519,52.228456 10.258825,51.716421 8.5798316,50.34389 8.2191526,48.061593 9.3251266,45.808186 c 0.214873,-0.437799 1.9102424,-3.085191 2.0023434,-3.126743 0.02415,-0.0109 0.04392,-0.04435 0.04392,-0.07433 0,-0.02998 0.167244,-0.301925 0.371653,-0.604315 0.20441,-0.302389 1.303803,-2.007584 2.443097,-3.789322 1.139293,-1.781737 2.091931,-3.248439 2.116972,-3.259336 0.02504,-0.0109 0.04553,-0.04217 0.04553,-0.06949 0,-0.02732 0.732844,-1.195333 1.628544,-2.595581 0.895699,-1.400248 1.887657,-2.960506 2.204351,-3.467238 0.316694,-0.506733 0.75835,-1.213781 0.981459,-1.571217 1.036859,-1.661126 1.923159,-2.339021 3.55914,-2.722241 0.488871,-0.114515 23.463063,-0.110022 24.007923,0.0047 1.51528,0.319036 2.45809,1.026189 3.47863,2.609142 0.27674,0.429255 0.50317,0.794872 0.50317,0.812481 0,0.06997 7.51741,11.809654 9.63315,15.043766 1.61279,2.465295 1.84753,2.863626 2.06674,3.507007 0.24707,0.725166 0.30407,1.071601 0.30407,1.848177 0,0.646022 -0.0226,0.836121 -0.14914,1.257432 -0.37027,1.232272 -1.15405,2.135475 -2.34335,2.70043 -0.41516,0.197213 -0.58813,0.249295 -1.25509,0.377925 -0.62502,0.120546 -47.946764,0.114619 -48.542843,-0.0061 z m 45.849026,-2.61139 c 1.16308,-0.248357 2.00233,-1.039561 2.25456,-2.125467 0.17457,-0.751616 0.0529,-1.581284 -0.35009,-2.387996 -0.13178,-0.263788 -0.80769,-1.348937 -1.50201,-2.411441 -0.69432,-1.062504 -1.83659,-2.827895 -2.53839,-3.923092 -0.7018,-1.095196 -1.52933,-2.377785 -1.83895,-2.850197 -0.30963,-0.472413 -0.57613,-0.887896 -0.59223,-0.923296 -0.0161,-0.0354 -0.21248,-0.344338 -0.4364,-0.686529 -0.22391,-0.34219 -0.5512,-0.849526 -0.72731,-1.127411 -0.17611,-0.277886 -0.45692,-0.719234 -0.62403,-0.980773 -0.52683,-0.824557 -1.93214,-3.071398 -2.22454,-3.556649 -0.15435,-0.25615 -0.30945,-0.496921 -0.34467,-0.535047 -0.0352,-0.03813 -0.16446,-0.196161 -0.28721,-0.351189 -0.23629,-0.298418 -0.7919,-0.72467 -1.18216,-0.906922 -0.57318,-0.267684 -0.38146,-0.263173 -11.184174,-0.263142 -11.213975,3.2e-5 -10.547815,-0.02085 -11.314934,0.354714 -0.458504,0.224474 -1.162575,0.91172 -1.479531,1.444175 -0.216709,0.364049 -1.346336,2.181964 -1.668227,2.684685 -0.104664,0.163462 -0.580052,0.912416 -1.056417,1.664342 -1.016813,1.605001 -1.910817,2.998787 -2.536219,3.954058 -0.246586,0.376649 -0.830415,1.280262 -1.297398,2.008028 -0.466983,0.727767 -1.452611,2.251862 -2.190283,3.386879 -2.052864,3.158629 -2.008349,3.080623 -2.206306,3.866325 -0.438786,1.74156 0.479557,3.282546 2.18163,3.660794 0.31153,0.06923 3.738847,0.08327 21.549218,0.08829 18.610741,0.0052 21.229371,-0.0048 21.596071,-0.08314 z M 15.508525,48.691132 c -0.372252,-0.03956 -0.805329,-0.315645 -1.003711,-0.639861 -0.142442,-0.232791 -0.178923,-0.365211 -0.196179,-0.71209 -0.03793,-0.762402 0.03351,-0.905586 1.816702,-3.641527 1.591283,-2.441492 3.038189,-4.674217 3.121819,-4.81729 0.03221,-0.0551 0.219094,-0.341367 0.415308,-0.636155 0.747969,-1.123736 5.235336,-8.211454 5.235336,-8.269123 0,-0.01672 0.102398,-0.182737 0.227551,-0.368924 0.318843,-0.474338 0.691067,-0.841299 1.001141,-0.986987 l 0.264484,-0.124267 10.215423,-0.01552 c 9.20096,-0.01398 10.24729,-0.0061 10.53627,0.07916 0.26126,0.0771 0.39223,0.168289 0.70525,0.491046 0.21143,0.218 0.47571,0.556854 0.5873,0.753009 0.19783,0.34773 1.23739,2.018866 1.84881,2.972039 0.64836,1.010743 2.34289,3.670326 2.39855,3.764534 0.0322,0.05452 0.19689,0.305558 0.36597,0.557874 0.16908,0.252317 0.30742,0.473112 0.30742,0.490656 0,0.01754 0.1146,0.198955 0.25466,0.403134 0.14006,0.20418 0.82105,1.253932 1.5133,2.332782 0.69226,1.07885 1.80626,2.80172 2.47557,3.8286 0.66931,1.02688 1.28289,2.016569 1.36351,2.199309 0.18882,0.427937 0.21853,1.220314 0.0585,1.559294 -0.11998,0.254122 -0.42822,0.543756 -0.73435,0.690053 -0.20563,0.09827 -1.36332,0.104174 -21.385361,0.109044 -11.642378,0.0028 -21.269334,-0.0056 -21.393236,-0.01879 z m 6.583936,-4.415568 c 0.836507,-0.251457 1.568297,-0.67437 2.209287,-1.276781 0.191512,-0.179986 0.372272,-0.327247 0.401688,-0.327247 0.02942,0 0.157646,0.10951 0.284953,0.243355 0.514696,0.541126 1.313565,1.025962 2.163814,1.313225 0.433144,0.146341 0.657976,0.183818 1.262397,0.210428 0.815934,0.03592 1.290856,-0.02576 1.963734,-0.255052 0.717282,-0.244422 1.193749,-0.533111 1.880412,-1.139331 0.232139,-0.204944 0.436205,-0.372625 0.45348,-0.372625 0.01727,0 0.176939,0.138751 0.354807,0.308336 0.519346,0.495157 1.401968,1.050701 1.90761,1.200696 0.07764,0.02303 0.286088,0.08612 0.46322,0.14019 0.241846,0.07383 0.562691,0.09879 1.28823,0.100229 0.851455,0.0017 1.018316,-0.01458 1.405342,-0.136959 0.86483,-0.273475 1.579189,-0.688048 2.21463,-1.285245 0.191512,-0.179986 0.372272,-0.327247 0.401689,-0.327247 0.02942,0 0.157645,0.10951 0.284953,0.243355 0.514692,0.541126 1.313562,1.025962 2.163812,1.313225 0.43315,0.146341 0.65798,0.183818 1.2624,0.210428 1.37651,0.0606 2.40483,-0.260385 3.48063,-1.086466 0.22544,-0.17311 0.48728,-0.39705 0.58188,-0.497644 0.0946,-0.100594 0.20098,-0.182898 0.23642,-0.182898 0.0354,0 0.1952,0.13533 0.35502,0.300732 0.3835,0.396903 0.99443,0.802826 1.60809,1.068474 0.64285,0.278288 1.08856,0.380466 1.66884,0.382586 l 0.46845,0.0017 0.0165,-0.664194 0.0165,-0.664194 -0.33858,-0.03887 c -1.31555,-0.151046 -2.29824,-0.744645 -3.0939,-1.868888 -0.23807,-0.336382 -0.45431,-0.478901 -0.72663,-0.478901 -0.29821,0 -0.44887,0.111104 -0.78219,0.576805 -0.27595,0.385558 -0.96375,1.037071 -1.28836,1.220389 -1.28883,0.727837 -2.6177,0.721033 -3.85535,-0.01974 -0.51356,-0.307376 -1.05842,-0.848998 -1.354327,-1.346252 -0.223906,-0.376265 -0.474098,-0.519132 -0.825362,-0.471306 -0.258224,0.03516 -0.314061,0.08698 -0.898932,0.834233 -0.744327,0.950982 -1.896551,1.542923 -3.001556,1.542012 -1.219642,-10e-4 -2.374865,-0.653302 -3.251854,-1.836155 -0.359377,-0.484716 -0.520788,-0.585628 -0.863929,-0.540112 -0.298643,0.03961 -0.483303,0.172807 -0.607287,0.438033 -0.150767,0.32252 -0.79608,0.990781 -1.242639,1.286827 -0.52702,0.34939 -0.89397,0.495583 -1.518565,0.604999 -0.468139,0.08201 -0.587958,0.08282 -1.045668,0.007 -1.134041,-0.187722 -1.918721,-0.684089 -2.703991,-1.71047 -0.359437,-0.4698 -0.518979,-0.586312 -0.802845,-0.586312 -0.25991,0 -0.495673,0.161866 -0.721878,0.49561 -0.241255,0.355951 -0.838245,0.955294 -1.19513,1.199839 -0.423399,0.290123 -1.089601,0.535942 -1.695279,0.625535 l -0.512364,0.07579 v 0.682732 0.682731 l 0.546986,-0.03313 c 0.300843,-0.01822 0.742208,-0.09181 0.980811,-0.163535 z m 8.493627,-7.575002 c 0.644575,-0.137725 1.30346,-0.438592 1.860451,-0.84954 0.165399,-0.122031 0.204925,-0.156424 0.488436,-0.42501 l 0.213005,-0.201792 0.339798,0.298093 c 0.787133,0.690526 1.589713,1.076536 2.575868,1.238894 0.481844,0.07933 0.663503,0.08336 1.125198,0.02499 1.062416,-0.134332 1.987054,-0.552306 2.689646,-1.215831 0.381595,-0.360376 0.380809,-0.360294 0.699164,-0.07328 0.850251,0.766555 1.654465,1.143261 2.748965,1.287664 1.3825,0.182399 2.8668,-0.380016 3.95303,-1.49784 0.57768,-0.594491 0.57463,-0.578611 0.17656,-0.917843 -0.18504,-0.157698 -0.34985,-0.300098 -0.36623,-0.316444 -0.0164,-0.01635 -0.10001,-0.09265 -0.18583,-0.16956 l -0.15606,-0.13984 -0.48755,0.500636 c -0.79543,0.816767 -1.44624,1.116887 -2.41965,1.115818 -1.11614,-0.0012 -1.97668,-0.44577 -2.728496,-1.40951 -0.413656,-0.530257 -0.51986,-0.606621 -0.843668,-0.606621 -0.323808,0 -0.430012,0.07636 -0.843668,0.606621 -0.751817,0.96374 -1.612354,1.408284 -2.728496,1.40951 -0.474708,5.35e-4 -0.660175,-0.02674 -0.977902,-0.143723 -0.734819,-0.270557 -1.129824,-0.583336 -1.981306,-1.56887 -0.248381,-0.287484 -0.283734,-0.30775 -0.536853,-0.30775 -0.379739,0 -0.418261,0.02356 -0.763478,0.466993 -0.616952,0.792475 -1.133829,1.188709 -1.871164,1.434422 -0.506427,0.168763 -1.409459,0.16634 -1.924108,-0.0052 -0.620384,-0.206739 -1.334359,-0.735069 -1.75782,-1.300758 l -0.15116,-0.201932 -0.536417,0.442208 c -0.295029,0.243214 -0.536621,0.474372 -0.536871,0.513684 -8.73e-4,0.137135 0.910675,1.01625 1.363396,1.314889 1.106989,0.730227 2.307916,0.965102 3.56321,0.696887 z M 6.0456226,36.316726 c -0.04003,-0.07593 -0.05993,-3.185405 -0.06008,-9.389041 -1.17e-4,-5.101532 -0.01503,-9.510733 -0.03312,-9.798224 -0.04399,-0.69888 -0.272547,-1.74106 -0.538306,-2.454536 -0.47091,-1.264244 -1.202823,-2.313299 -2.163766,-3.101339 -0.409879,-0.33613 -1.359719,-0.881193 -1.535587,-0.881193 -0.05434,0 -0.126604,-0.02823 -0.160598,-0.06274 -0.0566,-0.05746 -0.193603,-0.08524 -1.12030401,-0.227188 -0.170296,-0.02609 -0.332865,-0.07183 -0.361264,-0.101653 -0.07538,-0.07916 -0.105182,-4.8776225 -0.03076,-4.9531729 0.03277,-0.033262 0.388492,-0.068037 0.790505,-0.077277 l 0.73093201,-0.016801 0.03475,-1.4860197 c 0.01911,-0.8173108 0.06393,-1.628315 0.09959,-1.802231 0.07373,-0.3595389 0.470803,-1.14663652 0.704545,-1.39656962 0.15481,-0.1655331 0.255597,-0.2332807 0.654292,-0.43980595 0.193043,-0.0999972 0.64024,-0.10721988 7.7001014,-0.12435904 5.303723,-0.0128755 7.583105,9.6294e-4 7.795959,0.047341 0.165442,0.0360449 0.34739,0.11779149 0.404328,0.18165819 0.05694,0.063867 0.134306,0.1161212 0.171928,0.1161212 0.114093,0 0.557561,0.5997985 0.74712,1.01049332 0.297894,0.6454128 0.34731,0.9722171 0.377443,2.4961558 0.01519,0.7680761 0.03441,1.4034024 0.04272,1.411837 0.0083,0.00843 2.258809,0.015691 5.001111,0.016126 l 4.986004,7.906e-4 0.03705,0.1498597 c 0.03948,0.1596692 0.0047,0.6210742 -0.08711,1.1560205 -0.160449,0.9348032 -0.744291,2.0416537 -1.406088,2.6656692 -0.469259,0.44247 -0.597429,0.549659 -0.723337,0.604924 -0.07243,0.03179 -0.171221,0.08159 -0.21953,0.11066 -0.190142,0.1144147 -0.686829,0.3061097 -0.936894,0.3615897 -0.161156,0.03575 -2.239562,0.05903 -5.351114,0.05991 -5.11406,0.0015 -5.504847,0.01542 -6.155121,0.219845 -0.314478,0.09886 -1.173124,0.516873 -1.317508,0.641396 -0.04831,0.04166 -0.118822,0.08593 -0.156697,0.09837 -0.160452,0.0527 -0.984943,0.871133 -1.331715,1.321935 -0.663277,0.862258 -1.080403,1.788924 -1.475378,3.277622 -0.105747,0.39857 -0.1111,0.833876 -0.127151,10.340391 -0.01527,9.047056 -0.02513,9.933705 -0.111548,10.030633 -0.08807,0.09879 -0.262055,0.106327 -2.4551704,0.106327 -2.263343,0 -2.362839,-0.0047 -2.420232,-0.113527 z M 13.993257,5.2541583 c 0.05719,-0.021248 0.07091,-0.2474181 0.05856,-0.9652262 l -0.01613,-0.9374763 -3.116857,-0.01538 -3.1168574,-0.015381 -0.03726,0.1506966 c -0.06154,0.2489077 9.83e-4,1.7539526 0.0748,1.8003105 0.0715,0.044905 6.0314074,0.027914 6.1537554,-0.017543 z M 7.4349526,4.3173686 7.4188626,3.3514558 4.6595286,3.3360188 1.9001956,3.3205818 1.8634856,3.5069114 c -0.04699,0.2385044 -0.04633,0.8615466 0.0014,1.3751454 l 0.03733,0.4012253 h 2.774389 2.774388 L 7.4349026,4.3173693 Z M 19.967264,4.4808307 c 0.0096,-0.4250016 0.0018,-0.8596623 -0.01729,-0.9659127 l -0.03473,-0.1931826 h -2.748359 -2.748358 l -0.03799,0.1536372 c -0.04797,0.1940046 0.0011,1.6435389 0.0589,1.7384011 0.03247,0.053339 0.713684,0.066889 2.776707,0.055233 l 2.733677,-0.015446 z M 7.3348786,2.9035588 c 0.106173,-0.057681 0.113263,-0.1358121 0.113263,-1.2482566 V 0.46857758 h -2.123698 -2.123698 l -0.233177,0.1597364 c -0.128248,0.0878547 -0.267466,0.2015352 -0.309374,0.2526234 -0.169792,0.20698532 -0.480108,0.71624542 -0.480446,0.78846062 -1.99e-4,0.042436 -0.03749,0.1493961 -0.08286,0.2376895 -0.126851,0.2468237 -0.185722,0.939735 -0.08532,1.0042853 0.118084,0.075923 5.18487,0.068488 5.325319,-0.00781 z m 6.6168174,0 c 0.106173,-0.057681 0.113262,-0.1358121 0.113262,-1.2482566 V 0.46857758 H 10.902939 7.7409206 V 1.6455052 c 0,0.8361339 0.02035,1.1975815 0.07027,1.2482565 0.09255,0.093946 5.9683594,0.10332 6.1405084,0.0098 z m 5.852781,-0.028902 c 0.09378,-0.1147023 0.04,-0.7076539 -0.08651,-0.9539313 -0.04921,-0.095794 -0.08964,-0.2113346 -0.08983,-0.2567575 -4.17e-4,-0.093919 -0.306528,-0.6161714 -0.457735,-0.78092582 -0.05519,-0.0601351 -0.200007,-0.1779901 -0.321815,-0.2619003 l -0.221469,-0.1525643 h -2.13469 -2.13469 V 1.6018602 c 0,0.667529 0.02491,1.1805345 0.06062,1.2482565 0.05855,0.1110473 0.150294,0.114974 2.686402,0.114974 2.279023,0 2.635549,-0.011943 2.699721,-0.090434 z M 30.262664,23.5584 c -0.01995,-0.05278 -0.03628,-2.100191 -0.03628,-4.549807 0,-4.400994 -0.0015,-4.456996 -0.123001,-4.719472 -0.257525,-0.55614 -0.760234,-0.880869 -1.370175,-0.885074 -0.463977,-0.0032 -0.754369,0.105243 -1.068214,0.398907 -0.454577,0.425346 -0.450643,0.407375 -0.483517,2.209389 l -0.02928,1.604901 -0.639373,0.01697 c -0.472104,0.01253 -0.651868,-0.003 -0.687135,-0.05944 -0.07086,-0.113362 -0.05963,-2.54191 0.01404,-3.037068 0.172398,-1.158728 1.013723,-2.080953 2.17902,-2.388549 1.286923,-0.339699 2.725193,0.354238 3.325383,1.604433 l 0.199753,0.416086 0.01476,2.793717 c 0.0081,1.536544 0.02838,2.853901 0.04503,2.927459 l 0.03028,0.133741 h 5.415306 5.415308 v -2.623358 c 0,-1.847052 -0.0206,-2.695759 -0.0695,-2.868018 -0.16688,-0.587525 -0.60761,-0.986192 -1.230674,-1.113212 -0.602932,-0.122916 -1.283196,0.199243 -1.609079,0.762025 l -0.164943,0.28485 -0.02928,1.575181 -0.02928,1.57518 h -0.644107 -0.644115 l -0.01813,-1.486019 c -0.01202,-0.985348 0.0052,-1.596168 0.05097,-1.812944 0.322234,-1.524643 2.016814,-2.573656 3.507138,-2.171055 0.80821,0.218334 1.56485,0.803024 1.89036,1.46076 0.34085,0.688742 0.3375,0.63431 0.33652,5.463186 -4.7e-4,2.43689 -0.0224,4.465131 -0.0487,4.507201 -0.0352,0.05625 -0.20924,0.07198 -0.65786,0.05944 l -0.61005,-0.01705 -0.0293,-1.069934 -0.0293,-1.069934 -5.40178,-0.01517 c -2.97098,-0.0083 -5.406824,-0.0083 -5.412987,0 -0.0062,0.0083 -0.02593,0.49664 -0.04392,1.085104 l -0.03271,1.069934 -0.622477,0.0168 c -0.528809,0.01427 -0.627938,0.0024 -0.658754,-0.07916 z"
   style="fill:#000000;stroke-width:0.0589967" /></svg>
