<?xml version="1.0" encoding="UTF-8" standalone="no"?>
<svg
   xmlns:dc="http://purl.org/dc/elements/1.1/"
   xmlns:cc="http://creativecommons.org/ns#"
   xmlns:rdf="http://www.w3.org/1999/02/22-rdf-syntax-ns#"
   xmlns:svg="http://www.w3.org/2000/svg"
   xmlns="http://www.w3.org/2000/svg"
   xmlns:sodipodi="http://sodipodi.sourceforge.net/DTD/sodipodi-0.dtd"
   xmlns:inkscape="http://www.inkscape.org/namespaces/inkscape"
   version="1.1"
   id="svg646"
   width="788.77924"
   height="755.10742"
   viewBox="0 0 788.77924 755.10742"
   sodipodi:docname="яхты.svg"
   inkscape:version="1.0 (4035a4fb49, 2020-05-01)">
  <metadata
     id="metadata652">
    <rdf:RDF>
      <cc:Work
         rdf:about="">
        <dc:format>image/svg+xml</dc:format>
        <dc:type
           rdf:resource="http://purl.org/dc/dcmitype/StillImage" />
        <dc:title></dc:title>
      </cc:Work>
    </rdf:RDF>
  </metadata>
  <defs
     id="defs650" />
  <sodipodi:namedview
     inkscape:document-rotation="0"
     pagecolor="#ffffff"
     bordercolor="#666666"
     borderopacity="1"
     objecttolerance="10"
     gridtolerance="10"
     guidetolerance="10"
     inkscape:pageopacity="0"
     inkscape:pageshadow="2"
     inkscape:window-width="1920"
     inkscape:window-height="1018"
     id="namedview648"
     showgrid="false"
     inkscape:zoom="0.77744725"
     inkscape:cx="15.487146"
     inkscape:cy="370.44278"
     inkscape:window-x="-6"
     inkscape:window-y="-6"
     inkscape:window-maximized="1"
     inkscape:current-layer="g654" />
  <g
     transform="translate(-325.60069,-25.245686)"
     inkscape:groupmode="layer"
     inkscape:label="Image"
     id="g654">
    <path
       id="path120"
       d="m 503.23428,780.00812 c -1.28082,-0.24607 -6.45582,-2.01568 -11.5,-3.93247 -5.04419,-1.91678 -10.52125,-3.98901 -12.17125,-4.60495 -5.42516,-2.02518 -24.60722,-11.75189 -35.4025,-17.95165 -30.462,-17.49439 -54.86589,-36.87583 -71.7645,-56.99496 -7.22294,-8.59947 -15.333,-20.45116 -15.333,-22.40697 0,-0.61602 -1.35,-4.09739 -3,-7.73639 -4.87254,-10.74616 -5.23561,-10.45973 10.37166,-8.1824 18.97471,2.76869 71.7155,8.50814 78.27956,8.51868 2.32555,0.004 7.10226,-6.7376 5.65178,-7.97631 -0.44165,-0.37717 -8.678,-1.9332 -18.303,-3.45785 -22.29265,-3.53126 -34.44289,-5.78734 -55,-10.2125 -9.075,-1.9535 -18.02579,-3.71738 -19.89065,-3.91972 -12.02323,-1.30458 -26.54108,-10.93485 -28.82546,-19.12106 -0.43114,-1.54501 -0.76651,-19.90911 -0.74527,-40.80911 0.0335,-32.98388 0.33144,-40.38843 2.25691,-56.09378 6.58838,-53.7389 16.95852,-96.37717 34.63488,-142.40622 2.00654,-5.225 4.05348,-10.4 4.54876,-11.5 0.49528,-1.1 2.454,-5.6 4.35271,-10 15.42146,-35.73705 38.08687,-74.55257 62.48013,-107 20.12151,-26.76523 50.95802,-59.78123 75.18799,-80.50219 10.42933,-8.91894 36.32593,-28.56197 45,-34.1333 3.025,-1.94295 7.975,-5.12553 11,-7.07242 21.77584,-14.01489 52.67676,-29.5715 80.34567,-40.448836 10.93598,-4.2992 36.75515,-12.85804 45.15433,-14.96827 3.3,-0.8291 7.7439,-1.94259 9.87534,-2.47442 2.13144,-0.53183 6.23583,-1.14811 9.12086,-1.3695 12.30044,-0.94392 18.14199,-1.7436 20.2538,-2.77265 2.22276,-1.08311 2.25,-1.34064 2.25,-21.27241 0,-18.94916 0.1224,-20.286807 2.01291,-21.997689 5.10312,-4.618265 12.32369,-0.647065 13.29233,7.310579 0.40672,3.34133 3.57492,10.34139 10.95332,24.2011 5.7096,10.725 13.44955,25.35 17.19989,32.5 13.14283,25.056716 22.84301,43.022386 24.56678,45.500006 1.69091,2.43041 22.97477,41.82685 22.97477,42.52633 0,0.19239 2.85373,5.66517 6.34162,12.16173 7.65385,14.25609 14.44877,27.08842 22.14009,41.81194 3.16042,6.05 7.44648,14.15 9.52458,18 7.30731,13.53794 12.99371,24.77305 12.99371,25.67282 0,0.50005 3.99721,8.42824 8.88268,17.61819 8.50441,15.99743 31.12343,58.75165 41.11177,77.70899 5.59395,10.61704 18.48113,35.00534 37.51756,71 7.56282,14.3 16.23323,30.725 19.26759,36.5 3.03435,5.775 8.9897,17.025 13.2341,25 4.2444,7.975 9.96637,18.775 12.71547,24 4.8327,9.18519 19.8119,37.52757 46.2445,87.5 6.9821,13.2 18.4457,34.89324 25.4748,48.2072 l 12.7801,24.20721 11.5441,-0.61867 11.5442,-0.61867 -0.6511,4.91147 c -0.3582,2.7013 -1.0787,8.06146 -1.6012,11.91146 -1.7287,12.73833 -9.6024,26.78294 -22.7741,40.62296 -12.5253,13.16095 -25.2855,21.82762 -45.0867,30.62275 l -10.7038,4.75429 -263.99997,0.11753 c -145.2,0.0646 -265.04794,-0.0838 -266.32875,-0.32987 z m 541.62652,-82.03766 c 0.291,-6.10912 0.2402,-6.25 -2.25,-6.25 -2.4718,0 -2.5478,0.19588 -2.5478,6.56955 0,6.24088 0.1126,6.55357 2.25,6.25 2.0209,-0.28701 2.2804,-0.95603 2.5478,-6.56955 z m 33.6204,5.14301 c 1.1689,-0.44852 1.5818,-1.99957 1.5818,-5.94098 0,-2.9337 -0.4539,-5.61455 -1.0087,-5.95746 -0.5549,-0.3429 -7.9799,-0.30463 -16.5,0.0851 l -15.4913,0.70847 v 5.85593 5.85593 h 14.9182 c 8.2051,0 15.6301,-0.27314 16.5,-0.60699 z m 14.5539,-6.44844 -3.0568,-6.05542 -4.2076,0.30542 -4.2077,0.30543 -0.2999,5.75 -0.2999,5.75 h 7.5643 7.5643 z m 16.8981,4.29799 c 0.5173,-0.96659 1.0957,-3.77909 1.2852,-6.25 l 0.3446,-4.49256 -8.822,0.15534 c -4.8521,0.0854 -9.046,0.37933 -9.3197,0.65309 -0.51,0.51001 3.0857,8.19536 4.8852,10.44157 1.5992,1.99612 10.4946,1.60789 11.6267,-0.50744 z m -512.37939,-9.99256 c 1.41444,-1.5125 2.841,-3.80059 3.17012,-5.08464 1.1118,-4.33764 -1.01723,-5.04496 -17.41228,-5.78478 l -15.24862,-0.6881 v 6.06844 6.06844 l 7.25,0.59957 c 3.9875,0.32976 9.5,0.73704 12.25,0.90507 2.75,0.16803 5.54429,0.38662 6.20953,0.48575 0.66524,0.0991 2.36681,-1.05725 3.78125,-2.56975 z m -30.99078,-5.7637 v -5.9863 l -6,-0.65061 c -3.3,-0.35783 -10.5,-0.80783 -16,-1 l -10,-0.34939 -0.29442,6.12288 -0.29442,6.12288 14.79442,0.9753 c 8.13693,0.53642 15.46942,0.92496 16.29442,0.86343 1.15383,-0.0861 1.5,-1.49342 1.5,-6.09819 z m -34.5,-1.87276 v -6.38645 l -4.25,-0.58111 c -2.3375,-0.3196 -9.5375,-0.88187 -16,-1.24948 l -11.75,-0.66837 v 6.03775 6.03775 l 6.25,0.7517 c 3.4375,0.41344 10.3,1.06482 15.25,1.44751 4.95,0.3827 9.3375,0.76362 9.75,0.84649 0.4125,0.0829 0.75,-2.72324 0.75,-6.23579 z m 555.85527,4.81781 c 0.349,-0.3031 -6.5569,-13.71988 -21.8402,-42.43135 -4.2452,-7.975 -10.3241,-19.45 -13.5088,-25.5 -3.1847,-6.05 -9.4884,-17.975 -14.0083,-26.5 -4.5199,-8.525 -10.4697,-19.775 -13.2217,-25 -4.7153,-8.95226 -15.4258,-29.21533 -47.04303,-89 -7.41715,-14.025 -15.61961,-29.55 -18.22769,-34.5 -7.54529,-14.32058 -22.69399,-42.97776 -36.73895,-69.5 -7.13574,-13.475 -16.28147,-30.8 -20.32385,-38.5 -13.18732,-25.11945 -16.90406,-32.01 -16.92356,-31.37496 -0.0105,0.34378 2.04455,5.06878 4.56691,10.5 2.52235,5.43123 5.50011,11.89996 6.61724,14.37496 1.11713,2.475 3.49236,7.65 5.27828,11.5 1.78592,3.85 7.37848,16.45 12.4279,28 5.04943,11.55 9.5963,21.9 10.10417,23 2.11828,4.58803 16.56552,38.99925 21.62182,51.5 3.00325,7.425 6.06167,14.85 6.79647,16.5 0.73481,1.65 4.33955,10.65 8.01055,20 3.67099,9.35 7.08043,17.9 7.57651,19 1.51175,3.35207 9.98096,25.52486 9.98096,26.13062 0,0.31192 0.66292,1.98513 1.47315,3.71825 0.81023,1.73312 3.03464,7.42613 4.94313,12.65113 1.90849,5.225 4.41905,11.975 5.57902,15 2.24789,5.86209 14.48167,39.67187 18.72537,51.75 2.1684,6.1717 2.8907,7.25 4.8566,7.25 2.6244,0 5.4227,3.39944 5.4227,6.58765 0,1.17845 -0.9326,3.32832 -2.0725,4.77749 l -2.0726,2.63486 H 889.42306 762.92825 l 0.71275,2.25 c 0.39201,1.2375 2.03552,5.4 3.65223,9.25 1.61672,3.85 3.07951,7.94718 3.25065,9.10483 0.32681,2.21063 8.21974,19.99367 9.82905,22.14517 0.68807,0.9199 5.72217,1.24901 19.06254,1.24626 15.7557,-0.003 18.52009,-0.24173 21.12756,-1.82269 1.65,-1.00043 7.275,-4.11899 12.5,-6.93015 5.225,-2.81116 13.55,-7.38992 18.5,-10.17503 l 9,-5.06382 66.59501,-0.002 c 62.16183,-0.002 66.69934,0.11422 68.16217,1.74772 1.3809,1.54201 9.44139,17.91476 11.81549,24 0.853,2.18645 1.2788,2.25 15.0738,2.25 16.2797,-2.9e-4 17.8535,0.62046 17.8535,7.04153 v 3.73185 l 23.75,-0.51689 c 13.0625,-0.28429 23.9099,-0.65573 24.1053,-0.82543 z m -589.85527,-7.79342 v -6.36207 l -7.25,-0.61119 c -3.9875,-0.33615 -11.1875,-0.91011 -16,-1.27545 l -8.75,-0.66426 v 6.53887 6.53887 l 11.75,0.65513 c 6.4625,0.36032 12.425,0.80251 13.25,0.98265 0.825,0.18013 2.7375,0.37972 4.25,0.44352 2.72399,0.1149 2.75,0.0558 2.75,-6.24607 z m 107,2.80305 c 0,-0.24254 -0.45,-0.44098 -1,-0.44098 -0.55,0 -1,0.47656 -1,1.05902 0,0.58246 0.45,0.7809 1,0.44098 0.55,-0.33992 1,-0.81648 1,-1.05902 z m -141,-5.47236 c 0,-3.92002 -0.43758,-6.18788 -1.25,-6.47843 -0.6875,-0.24588 -4.84075,-0.56926 -9.22945,-0.71862 l -7.97945,-0.27157 -2.86999,5.31723 c -1.5785,2.92447 -2.64947,5.53774 -2.37994,5.80727 0.48211,0.48212 14.10034,1.97264 20.45883,2.23924 l 3.25,0.13626 z m -26.7715,2.28138 c 2.3008,-2.61714 5.77595,-9.91221 5.06199,-10.62618 -0.3431,-0.3431 -2.79882,-0.62382 -5.45716,-0.62382 h -4.83333 v 5.83333 c 0,3.20834 0.3,6.13334 0.66667,6.5 1.15774,1.15775 2.96998,0.72739 4.56183,-1.08333 z m -7.43078,-5.5 -0.29772,-6.25 -14.93718,-1.78516 c -8.21546,-0.98184 -15.52796,-1.55846 -16.25,-1.28138 -0.87705,0.33655 -1.31282,2.44851 -1.31282,6.36257 v 5.85879 l 12.25,1.51584 c 6.7375,0.8337 14.18397,1.58637 16.54772,1.67258 l 4.29771,0.15676 z m -33.79772,-3.78996 c 0,-5.33808 -0.22183,-5.96736 -2.25,-6.38269 -5.83519,-1.19493 -38.79037,-4.87031 -39.27992,-4.38076 -1.17375,1.17374 4.44612,11.80645 6.72288,12.71959 1.26887,0.5089 7.03204,1.48606 12.80704,2.17145 5.775,0.6854 12.75,1.52936 15.5,1.87548 2.75,0.34613 5.3375,0.46946 5.75,0.27409 0.4125,-0.19538 0.75,-3.0201 0.75,-6.27716 z m 198,6.36254 c -25.0502,-2.55757 -89.61261,-10.71005 -128.5,-16.22606 -7.15,-1.01419 -13.225,-1.71307 -13.5,-1.55306 -0.91317,0.53135 -4.32886,7.46101 -3.89263,7.89725 0.73056,0.73055 92.30092,8.02432 123.89263,9.8683 7.58492,0.44272 26.31652,0.45428 22,0.0136 z m 72.90556,-2.42653 c 47.41419,-0.10356 47.56793,-0.11057 40.59444,-1.85231 -3.85,-0.9616 -18.7,-4.79842 -33,-8.52628 -14.3,-3.72787 -29.15,-7.41045 -33,-8.18353 -3.85,-0.77308 -8.91896,-1.83948 -11.26435,-2.36977 -2.55557,-0.57781 -38.27018,-0.96416 -89.12756,-0.96416 -74.81202,0 -85.01302,0.18052 -86.12815,1.52417 -0.69572,0.83829 -1.04103,1.74808 -0.76735,2.02175 0.84074,0.84075 48.85715,7.58447 89.28741,12.54008 9.35,1.14605 25.55,3.14133 36,4.43397 13.20934,1.63396 22.17132,2.21763 29.40556,1.91514 5.72306,-0.23931 31.82306,-0.48189 58,-0.53906 z m 65.09444,-10.89605 v -11 l -45.75,0.0789 c -25.1625,0.0434 -45.3,0.24903 -44.75,0.45691 0.55,0.20788 7.075,1.93903 14.5,3.847 7.425,1.90797 23.3767,6.01438 35.44822,9.12536 20.70618,5.33622 33.18225,8.05924 38.30178,8.35972 2.20497,0.12942 2.25,-0.0881 2.25,-10.86794 z m 44.07125,6.75 c -1.02172,-2.3375 -3.23691,-7.2875 -4.92264,-11 l -3.06496,-6.75 h -10.54183 -10.54182 v 11 11 h 15.46446 15.46447 z m -323.84522,-17.5 c 0.65074,-1.5125 4.91609,-9.32386 9.47856,-17.35859 4.56248,-8.03472 8.29541,-14.8448 8.29541,-15.1335 0,-0.2887 -3.0375,-0.82682 -6.75,-1.19581 -3.7125,-0.36899 -9.225,-1.08716 -12.25,-1.59592 -12.07451,-2.03075 -43.84323,-4.22715 -67.74312,-4.68356 -23.87218,-0.45589 -25.28382,-0.38161 -25.99259,1.36766 -0.41221,1.01734 -0.7528,6.79972 -0.75688,12.84972 l -0.007,11 7,1.75669 c 15.84187,3.9756 77.73555,15.39917 84.77144,15.64606 2.11729,0.0743 3.0507,-0.55184 3.95459,-2.65275 z m 279.52936,-396.88545 -0.25539,-88.477 -10.74363,19.30623 c -5.909,10.61842 -15.359,27.53165 -21,37.58496 l -10.25637,18.27873 0.7134,17.22127 c 2.67376,64.54358 16.61176,156.78693 36.7508,243.22126 1.15334,4.95 2.64572,11.45643 3.31639,14.45873 1.3701,6.13329 1.95045,-96.8084 1.4748,-261.59418 z M 560.00874,463.22046 c 1.53108,-2.75 5.25531,-9.275 8.27608,-14.5 3.02076,-5.225 6.61801,-11.525 7.99387,-14 3.05295,-5.49186 5.43771,-9.6601 10.01221,-17.5 1.92551,-3.3 4.62333,-8.025 5.99515,-10.5 1.37181,-2.475 3.40191,-6.075 4.51131,-8 6.43267,-11.16176 13.64811,-23.86975 17.03363,-30 1.36685,-2.475 3.9574,-6.975 5.75678,-10 3.17245,-5.33334 5.02288,-8.57982 10.2596,-18 1.37586,-2.475 4.97041,-8.775 7.98787,-14 3.01746,-5.225 6.6216,-11.525 8.00919,-14 14.54634,-25.94582 38.81468,-67.92235 40.18077,-69.5 0.95249,-1.1 3.99798,-6.05 6.76775,-11 2.76977,-4.95 12.28863,-21.90374 21.15302,-37.67498 8.86438,-15.77124 16.11706,-29.35718 16.11706,-30.19098 0,-0.8338 0.45,-1.79412 1,-2.13404 0.64177,-0.39664 1,-16.14139 1,-43.95204 0,-38.592436 -0.17308,-43.400406 -1.58179,-43.940976 -2.32286,-0.89137 -5.95013,-0.74704 -13.27242,0.52808 -6.45763,1.12454 -6.60548,1.22417 -15.95296,10.75 -29.1761,29.732766 -58.92567,73.945176 -83.57606,124.206776 -22.64157,46.16567 -39.39594,91.95908 -53.93199,147.40816 -3.02373,11.53429 -4.98396,19.8373 -10.26975,43.5 -1.83217,8.20203 -4.30071,26.36025 -5.43783,40 -1.021,12.24679 -1.22703,37.4653 -0.33334,40.80189 0.63546,2.37251 1.54304,1.02227 12.30185,-18.30189 z M 773.73282,92.638864 c -5.67971,-10.68013 -13.848,-26.16841 -18.15177,-34.41841 -4.30377,-8.25 -7.98096,-15.1875 -8.17153,-15.41667 -0.19057,-0.22916 -0.34649,11.98595 -0.34649,27.14469 v 27.56136 l 3.75,-1.0008 c 5.77769,-1.54194 18.74884,-2.12716 20.95678,-0.94551 1.07268,0.57408 4.13653,4.660186 6.80857,9.080226 2.67203,4.42005 4.9984,7.89629 5.1697,7.72498 0.17131,-0.1713 -4.33556,-9.04975 -10.01526,-19.729866 z"
       style="fill:#000000" />
  </g>
</svg>
