<?xml version="1.0" encoding="UTF-8" standalone="no"?>
<svg
   xmlns:dc="http://purl.org/dc/elements/1.1/"
   xmlns:cc="http://creativecommons.org/ns#"
   xmlns:rdf="http://www.w3.org/1999/02/22-rdf-syntax-ns#"
   xmlns:svg="http://www.w3.org/2000/svg"
   xmlns="http://www.w3.org/2000/svg"
   xmlns:sodipodi="http://sodipodi.sourceforge.net/DTD/sodipodi-0.dtd"
   xmlns:inkscape="http://www.inkscape.org/namespaces/inkscape"
   version="1.1"
   id="svg61"
   width="229.77304"
   height="174.06891"
   viewBox="0 0 229.77304 174.06891"
   sodipodi:docname="шашки.svg"
   inkscape:version="1.0 (4035a4fb49, 2020-05-01)">
  <metadata
     id="metadata67">
    <rdf:RDF>
      <cc:Work
         rdf:about="">
        <dc:format>image/svg+xml</dc:format>
        <dc:type
           rdf:resource="http://purl.org/dc/dcmitype/StillImage" />
        <dc:title></dc:title>
      </cc:Work>
    </rdf:RDF>
  </metadata>
  <defs
     id="defs65" />
  <sodipodi:namedview
     inkscape:document-rotation="0"
     pagecolor="#ffffff"
     bordercolor="#666666"
     borderopacity="1"
     objecttolerance="10"
     gridtolerance="10"
     guidetolerance="10"
     inkscape:pageopacity="0"
     inkscape:pageshadow="2"
     inkscape:window-width="1920"
     inkscape:window-height="1018"
     id="namedview63"
     showgrid="false"
     inkscape:zoom="2.5869374"
     inkscape:cx="142.83759"
     inkscape:cy="117.33481"
     inkscape:window-x="-6"
     inkscape:window-y="-6"
     inkscape:window-maximized="1"
     inkscape:current-layer="g69" />
  <g
     transform="translate(-111.13067,-6.2882066)"
     inkscape:groupmode="layer"
     inkscape:label="Image"
     id="g69">
    <path
       id="path31"
       d="m 201.00403,179.56741 c -0.27168,-0.44324 -3.3518,-1.07744 -6.84471,-1.40935 -10.15243,-0.9647 -28.81259,-5.36333 -37.25441,-8.78172 -20.47089,-8.28938 -31.78596,-16.40911 -37.89015,-27.19004 -5.16649,-9.12481 -5.62261,-11.69772 -5.70122,-32.15937 -0.0399,-10.386713 -0.5329,-22.496673 -1.09553,-26.911033 -1.45158,-11.38879 -1.44933,-30.44696 0.004,-30.9353 0.62544,-0.21021 1.13717,-1.36361 1.13717,-2.56311 0,-1.1995 0.60028,-2.41316 1.33394,-2.69703 0.73367,-0.28387 2.04303,-2.02281 2.90968,-3.86431 1.9067,-4.05141 11.87154,-13.63548 17.85066,-17.16856 32.38397,-19.1357703 95.07075,-25.2724893 141.78881,-13.880406 14.47016,3.528515 32.13365,10.643136 41.6906,16.792426 8.91454,5.73594 18.14963,16.32633 19.71265,22.60558 0.33393,1.34149 0.98286,2.43907 1.44208,2.43907 1.08685,0 1.08876,8.79139 0.002,9.9618 -1.39588,1.50358 -3.0722,17.65896 -4.30608,41.499643 -1.45526,28.11794 -1.88211,29.86084 -9.78096,39.93655 -9.68422,12.35315 -28.96207,22.66746 -58.59345,31.34953 -1.54518,0.45274 -5.23812,1.11355 -8.20653,1.46845 -2.9684,0.35491 -5.62711,1.02054 -5.90823,1.47917 -0.65695,1.07178 -51.63363,1.09908 -52.29014,0.0281 z m 64.74825,-72.55545 c -0.91116,-0.2394 -2.1754,-0.22366 -2.80942,0.0349 -0.63402,0.25866 0.11147,0.45453 1.65665,0.43529 1.54518,-0.0193 2.06393,-0.23087 1.15277,-0.47028 z M 136.32857,53.587657 c 2.04588,-4.27322 3.89075,-8.18038 4.09969,-8.68259 0.20895,-0.5022 -0.84459,-0.11125 -2.34118,0.86879 -4.62668,3.02974 -7.8717,8.52985 -7.8717,13.34206 0,4.93927 1.94281,3.18235 6.11319,-5.52826 z"
       style="fill:#000000;stroke-width:0.940353" />
  </g>
</svg>
