<?xml version="1.0" encoding="UTF-8" standalone="no"?>
<svg
   xmlns:dc="http://purl.org/dc/elements/1.1/"
   xmlns:cc="http://creativecommons.org/ns#"
   xmlns:rdf="http://www.w3.org/1999/02/22-rdf-syntax-ns#"
   xmlns:svg="http://www.w3.org/2000/svg"
   xmlns="http://www.w3.org/2000/svg"
   xmlns:sodipodi="http://sodipodi.sourceforge.net/DTD/sodipodi-0.dtd"
   xmlns:inkscape="http://www.inkscape.org/namespaces/inkscape"
   xml:space="preserve"
   width="52.30788mm"
   height="95.193741mm"
   version="1.1"
   style="clip-rule:evenodd;fill-rule:evenodd;image-rendering:optimizeQuality;shape-rendering:geometricPrecision;text-rendering:geometricPrecision"
   viewBox="0 0 47.557057 86.544047"
   id="svg626"
   sodipodi:docname="шахматы.svg"
   inkscape:version="1.0 (4035a4fb49, 2020-05-01)"><metadata
   id="metadata630"><rdf:RDF><cc:Work
       rdf:about=""><dc:format>image/svg+xml</dc:format><dc:type
         rdf:resource="http://purl.org/dc/dcmitype/StillImage" /><dc:title></dc:title></cc:Work></rdf:RDF></metadata><sodipodi:namedview
   inkscape:document-rotation="0"
   pagecolor="#ffffff"
   bordercolor="#666666"
   borderopacity="1"
   objecttolerance="10"
   gridtolerance="10"
   guidetolerance="10"
   inkscape:pageopacity="0"
   inkscape:pageshadow="2"
   inkscape:window-width="1920"
   inkscape:window-height="1018"
   id="namedview628"
   showgrid="false"
   inkscape:zoom="1.1449198"
   inkscape:cx="-137.06538"
   inkscape:cy="215.38807"
   inkscape:window-x="-6"
   inkscape:window-y="-6"
   inkscape:window-maximized="1"
   inkscape:current-layer="svg626" />
 <defs
   id="defs620">
  <style
   type="text/css"
   id="style618">
   <![CDATA[
    .fil0 {fill:black}
   ]]>
  </style>
 </defs>
 
<path
   id="path8"
   d="m 9.7756809,86.445783 c -0.0023,-0.121546 -0.162342,-0.320445 -0.299988,-0.372876 -0.05535,-0.02108 -0.100634,-0.06848 -0.100634,-0.105342 0,-0.03685 -0.04024,-0.09628 -0.08942,-0.132056 -0.205335,-0.149386 -0.218071,-0.4356 -0.240807,-5.411508 -0.02172,-4.75473 0.01007,-6.019081 0.158302,-6.294647 0.02997,-0.05571 0.132664,-0.128411 0.228215,-0.16155 0.130336,-0.0452 0.173729,-0.09571 0.173729,-0.202183 0,-0.07806 0.04066,-0.182381 0.09037,-0.231831 0.08175,-0.08134 1.7407691,-0.08982 17.4096551,-0.08903 9.525609,5.72e-4 17.349584,0.02005 17.386612,0.04348 0.03703,0.02343 0.08645,0.118434 0.109827,0.211103 0.02338,0.09268 0.141876,0.27139 0.263331,0.397152 l 0.220828,0.22865 v 5.681272 c 0,5.604995 -0.0015,5.682817 -0.11501,5.795706 -0.06326,0.06294 -0.11501,0.153048 -0.11501,0.20025 0,0.0472 -0.03707,0.08582 -0.08238,0.08582 -0.04531,0 -0.09881,0.05149 -0.118885,0.114428 -0.02008,0.06293 -0.07358,0.114428 -0.118886,0.114428 -0.04531,0 -0.08238,0.05149 -0.08238,0.114428 0,0.114177 -0.03834,0.114428 -17.337773,0.114428 -16.4731,0 -17.3378691,-0.005 -17.3396871,-0.100124 z M 12.946493,71.935045 c -0.03601,-0.04316 -0.184701,-0.09185 -0.330431,-0.108197 -0.279037,-0.03129 -0.363421,-0.103432 -0.36487,-0.311926 -4.84e-4,-0.0697 -0.05264,-0.154278 -0.115891,-0.187959 -0.06546,-0.03486 -0.11501,-0.119795 -0.11501,-0.19716 0,-0.07476 -0.09346,-0.334485 -0.207689,-0.577176 -0.114229,-0.242685 -0.221145,-0.541062 -0.237592,-0.66306 -0.02263,-0.167843 -0.05604,-0.221813 -0.137341,-0.221813 -0.08701,0 -0.107438,-0.04352 -0.107438,-0.228856 0,-0.125871 -0.02429,-0.228856 -0.05398,-0.228856 -0.02969,0 -0.07,-0.122295 -0.08957,-0.271767 -0.01957,-0.149472 -0.08797,-0.389176 -0.152003,-0.532675 -0.08634,-0.193492 -0.129728,-0.46697 -0.167941,-1.05846 -0.02834,-0.438655 -0.07572,-1.02927 -0.105286,-1.31248 -0.0719,-0.688668 -0.07224,-2.664007 -5.75e-4,-3.37563 0.03169,-0.314678 0.0762,-0.877086 0.09892,-1.249802 0.03405,-0.558615 0.05966,-0.69102 0.145834,-0.75371 0.08094,-0.05888 0.115224,-0.196473 0.151914,-0.609656 0.05935,-0.668397 0.170449,-1.087267 0.297112,-1.120223 0.06758,-0.01759 0.114999,-0.135288 0.161463,-0.40075 0.03618,-0.20672 0.103107,-0.428871 0.148723,-0.493672 0.04562,-0.06479 0.08294,-0.171299 0.08294,-0.236671 0,-0.06537 0.02806,-0.146783 0.06235,-0.1809 0.0343,-0.03412 0.07702,-0.222923 0.09494,-0.419556 0.02583,-0.283401 0.05463,-0.363255 0.138913,-0.385184 0.08802,-0.0229 0.106329,-0.08481 0.106329,-0.359509 0,-0.182514 0.01941,-0.340426 0.04313,-0.350915 0.08004,-0.03539 0.416912,-0.551968 0.416912,-0.63931 0,-0.04763 0.08746,-0.159283 0.19436,-0.248111 0.176081,-0.146314 0.19676,-0.195859 0.219873,-0.52678 0.01773,-0.253801 0.05493,-0.386681 0.121917,-0.435413 0.05302,-0.03858 0.0964,-0.124109 0.0964,-0.190075 0,-0.06597 0.103187,-0.230478 0.229303,-0.365584 0.126117,-0.135106 0.229627,-0.278179 0.23002,-0.31794 4.03e-4,-0.03976 0.02497,-0.117001 0.05462,-0.171642 0.02964,-0.05464 0.11313,-0.22417 0.185526,-0.376729 0.0724,-0.152559 0.190467,-0.340546 0.26238,-0.417749 0.07191,-0.0772 0.130752,-0.17486 0.130752,-0.217014 0,-0.04215 0.103509,-0.20127 0.23002,-0.353592 0.126511,-0.152321 0.230021,-0.307763 0.230021,-0.345427 0,-0.03766 0.03235,-0.102502 0.07188,-0.144084 0.03954,-0.04158 0.110697,-0.152843 0.158139,-0.247246 0.04744,-0.0944 0.117587,-0.204653 0.15588,-0.245 0.03829,-0.04035 0.08646,-0.162641 0.107033,-0.271766 0.02058,-0.109126 0.05866,-0.19841 0.08464,-0.19841 0.02598,0 0.06366,-0.05149 0.08373,-0.114428 0.02008,-0.06294 0.08236,-0.114429 0.138407,-0.114429 0.100862,0 0.235375,-0.214068 0.235375,-0.374583 0,-0.04572 0.02588,-0.08313 0.0575,-0.08313 0.03163,0 0.0575,-0.03943 0.0575,-0.08762 0,-0.04819 0.03882,-0.102436 0.08626,-0.120549 0.04744,-0.01811 0.08626,-0.07117 0.08626,-0.117912 0,-0.04674 0.05175,-0.150442 0.11501,-0.230451 0.06326,-0.08001 0.11501,-0.191758 0.11501,-0.248329 0,-0.05657 0.05175,-0.119199 0.115011,-0.139174 0.06325,-0.01998 0.11501,-0.08608 0.11501,-0.146891 0,-0.07243 0.03967,-0.110573 0.11501,-0.110573 0.06325,0 0.11501,-0.02498 0.11501,-0.05552 0,-0.108814 0.2919,-0.688265 0.346716,-0.688265 0.0307,0 0.05582,-0.04103 0.05582,-0.09118 0,-0.05015 0.04991,-0.104163 0.110907,-0.120034 0.07598,-0.01977 0.122846,-0.09916 0.148818,-0.252107 0.02315,-0.136319 0.06953,-0.223251 0.119113,-0.223251 0.04466,0 0.0812,-0.05149 0.0812,-0.114428 0,-0.07628 0.03834,-0.114428 0.11501,-0.114428 0.06607,0 0.11501,-0.03814 0.11501,-0.08964 0,-0.0493 0.06469,-0.174026 0.143762,-0.277167 0.07907,-0.103141 0.143763,-0.217282 0.143763,-0.253646 0,-0.03637 0.02286,-0.06612 0.0508,-0.06612 0.02794,0 0.06433,-0.05149 0.08087,-0.114428 0.01654,-0.06294 0.07082,-0.114428 0.120622,-0.114428 0.05124,0 0.107025,-0.0683 0.128506,-0.157339 0.03639,-0.150822 0.486253,-0.737268 0.638574,-0.832447 0.04027,-0.02517 0.0738,-0.08953 0.0745,-0.143035 0.0016,-0.121349 0.166918,-0.326619 0.300623,-0.373262 0.06685,-0.02332 0.100633,-0.09514 0.100633,-0.2139 0,-0.130678 0.03095,-0.186848 0.115011,-0.208718 0.06325,-0.01646 0.11501,-0.06694 0.11501,-0.112175 0,-0.04524 0.07997,-0.16453 0.177716,-0.265094 0.09774,-0.100564 0.214539,-0.266518 0.259544,-0.368789 0.04501,-0.10227 0.107359,-0.185945 0.138562,-0.185945 0.0312,0 0.05673,-0.03716 0.05673,-0.08258 0,-0.04542 0.04699,-0.11622 0.104421,-0.157339 0.05743,-0.04112 0.121312,-0.119818 0.141958,-0.174886 0.02064,-0.05507 0.07717,-0.100125 0.1256,-0.100125 0.04843,0 0.08806,-0.04869 0.08806,-0.108199 0,-0.05951 0.103509,-0.232824 0.23002,-0.385146 0.126511,-0.152321 0.23002,-0.296729 0.23002,-0.320907 0,-0.03974 0.04498,-0.09502 0.318947,-0.392043 0.04597,-0.04984 0.08359,-0.1066 0.08359,-0.126131 0,-0.01953 0.05822,-0.09629 0.129387,-0.170566 0.07116,-0.07428 0.194079,-0.217863 0.273149,-0.319072 0.07907,-0.101209 0.172695,-0.216593 0.208057,-0.256408 0.03536,-0.03982 0.08239,-0.129121 0.104509,-0.198456 0.02212,-0.06933 0.07278,-0.126063 0.112573,-0.126063 0.08951,0 0.322427,-0.240314 0.322427,-0.332669 0,-0.03731 0.04528,-0.116723 0.100633,-0.176482 0.123908,-0.13378 0.349838,-0.406723 0.50317,-0.607871 0.06326,-0.08298 0.142335,-0.180991 0.175732,-0.217799 0.0334,-0.03681 0.07787,-0.11198 0.09883,-0.167049 0.02096,-0.05507 0.07151,-0.100125 0.112336,-0.100125 0.04083,0 0.105097,-0.04918 0.142825,-0.109282 0.03773,-0.06011 0.144944,-0.125967 0.23826,-0.146359 0.12042,-0.02631 0.19064,-0.09008 0.241933,-0.219698 0.09329,-0.235751 0.335656,-0.4973 0.460821,-0.4973 0.06481,0 0.109779,-0.06278 0.133179,-0.185946 0.02125,-0.111873 0.132614,-0.28175 0.279548,-0.426444 0.321017,-0.316122 0.387985,-0.399018 0.387985,-0.480259 0,-0.03719 0.03847,-0.09621 0.08548,-0.131146 0.04702,-0.03494 0.102005,-0.147197 0.122198,-0.249467 l 0.03672,-0.185946 -0.337843,3.43e-4 c -0.215868,2.29e-4 -0.400127,0.03627 -0.510357,0.09983 -0.15612,0.09002 -0.394232,0.0995 -2.505493,0.09977 -2.061897,2.86e-4 -2.343677,-0.01034 -2.42505,-0.09123 -0.06153,-0.06116 -0.250962,-0.104397 -0.571027,-0.130333 -0.317017,-0.02569 -0.500542,-0.06729 -0.5428,-0.123031 -0.03512,-0.04632 -0.145093,-0.08422 -0.244396,-0.08422 -0.103879,0 -0.229392,-0.04859 -0.295562,-0.114428 -0.06326,-0.06294 -0.15656,-0.114428 -0.207343,-0.114428 -0.05078,0 -0.169216,-0.06437 -0.263185,-0.143035 -0.117529,-0.09839 -0.239983,-0.143035 -0.392353,-0.143035 -0.122874,0 -0.260973,-0.03927 -0.310152,-0.0882 -0.04876,-0.04851 -0.173524,-0.117095 -0.277256,-0.152407 -0.103733,-0.03531 -0.203969,-0.08718 -0.222746,-0.115257 -0.01878,-0.02808 -0.180511,-0.06608 -0.359407,-0.08445 -0.255993,-0.02629 -0.325266,-0.05432 -0.325266,-0.131615 0,-0.08272 -0.08234,-0.1044 -0.52173,-0.137401 -0.690549,-0.05187 -1.184857,0.0032 -1.219719,0.135808 -0.0208,0.07913 -0.111297,0.10543 -0.444316,0.129137 -0.303614,0.02161 -0.432514,0.05522 -0.470443,0.122653 -0.02873,0.05109 -0.087,0.09288 -0.129492,0.09288 -0.04249,0 -0.09086,0.03531 -0.107508,0.07846 -0.01664,0.04315 -0.101508,0.09625 -0.188588,0.117996 -0.171534,0.04283 -0.575101,0.439415 -0.658861,0.647453 -0.02851,0.0708 -0.08827,0.128732 -0.132804,0.128732 -0.04453,0 -0.09451,0.05149 -0.111049,0.114428 -0.01654,0.06294 -0.06844,0.114428 -0.115318,0.114428 -0.05183,0 -0.09999,0.07821 -0.122868,0.199554 -0.02097,0.111236 -0.08743,0.226074 -0.150162,0.259476 -0.06189,0.03296 -0.112536,0.09158 -0.112536,0.130274 0,0.107134 -0.233434,0.520333 -0.323218,0.572124 -0.04362,0.02516 -0.07932,0.08105 -0.07932,0.124186 0,0.04314 -0.07887,0.09567 -0.175258,0.11673 -0.09639,0.02107 -0.206125,0.08748 -0.243852,0.147581 -0.03773,0.06011 -0.101828,0.109283 -0.142444,0.109283 -0.04062,0 -0.0982,0.05793 -0.127964,0.128732 -0.08914,0.212049 -0.207442,0.328981 -0.332833,0.328981 -0.174294,9e-6 -0.300265,0.05958 -0.300265,0.142014 0,0.07319 -0.2439911,0.144065 -0.4959811,0.144065 -0.08803,0 -0.136575,0.03322 -0.136575,0.09347 0,0.05141 -0.07116,0.154362 -0.158139,0.228787 -0.13205,0.112995 -0.221383,0.13533 -0.541506,0.135388 -0.23371,4.3e-5 -0.391819,0.0253 -0.405018,0.0647 -0.05378,0.160518 -1.993012,0.151963 -2.04853,-0.009 -0.01054,-0.03057 -0.256643,-0.05559 -0.54689,-0.05559 h -0.527703 l -0.234555,-0.226535 -0.234555,-0.226508 -0.85745,-0.03879 c -0.729277,-0.03299 -0.872827,-0.05472 -0.960323,-0.145383 -0.05658,-0.05863 -0.148462,-0.106596 -0.20418,-0.106596 -0.126725,0 -0.410709,-0.128383 -0.411311,-0.185946 -2.47e-4,-0.0236 -0.03926,-0.04291 -0.08671,-0.04291 -0.04744,0 -0.08626,-0.03926 -0.08626,-0.08724 0,-0.04798 -0.06469,-0.11171 -0.143762,-0.14162 -0.07907,-0.02991 -0.143763,-0.09364 -0.143763,-0.141619 0,-0.04798 -0.02302,-0.08724 -0.05116,-0.08724 -0.02814,0 -0.08497,-0.113941 -0.1263,-0.253203 -0.06517,-0.219587 -0.100365,-0.257911 -0.26512,-0.288663 -0.114702,-0.02141 -0.189978,-0.06947 -0.189978,-0.121289 0,-0.04721 -0.06469,-0.150195 -0.143763,-0.228864 -0.07907,-0.07867 -0.143762,-0.180484 -0.143762,-0.226256 0,-0.04577 -0.02588,-0.08322 -0.0575,-0.08322 -0.03163,0 -0.0575,-0.02847 -0.0575,-0.06326 0,-0.03479 -0.06469,-0.139752 -0.143763,-0.233246 -0.07907,-0.09349 -0.143762,-0.205726 -0.143762,-0.249406 0,-0.04368 -0.05175,-0.106977 -0.115011,-0.140658 -0.06326,-0.03368 -0.11501,-0.09276 -0.11501,-0.131286 0,-0.03852 -0.05175,-0.102203 -0.11501,-0.141507 -0.06325,-0.0393 -0.11501,-0.121733 -0.11501,-0.183176 0,-0.06144 -0.05479,-0.162502 -0.121758,-0.224576 -0.118597,-0.10993 -0.12118,-0.147502 -0.09949,-1.447016 0.01917,-1.148734 0.03609,-1.353798 0.121758,-1.475486 0.08831,-0.125447 0.09949,-0.31362 0.09949,-1.674432 v -1.533096 l 0.152483,-0.290142 c 0.08387,-0.159578 0.185794,-0.30286 0.226507,-0.318405 0.04071,-0.01554 0.09034,-0.102182 0.110286,-0.19253 0.02003,-0.09072 0.08602,-0.179982 0.147394,-0.199362 0.06112,-0.0193 0.28574899,-0.201489 0.49917199,-0.404862 0.213423,-0.203372 0.435956,-0.414028 0.494516,-0.468123 0.05856,-0.0541 0.129082,-0.156285 0.156716,-0.227087 0.02763,-0.0708 0.0897,-0.128732 0.137922,-0.128732 0.04934,0 0.08768,-0.05003 0.08768,-0.114428 0,-0.07628 0.03834,-0.114428 0.115011,-0.114428 0.08434,0 0.11501,-0.03814 0.11501,-0.143035 0,-0.122158 0.02632,-0.143036 0.180297,-0.143036 0.187683,0 0.452258,-0.217028 0.452258,-0.370983 0,-0.04346 0.05175,-0.09536 0.11501,-0.115336 0.06325,-0.01998 0.11501,-0.07147 0.11501,-0.114428 0,-0.04296 0.05175,-0.09445 0.115011,-0.114429 0.06326,-0.01997 0.11501,-0.0732 0.11501,-0.118283 0,-0.04508 0.03695,-0.08197 0.08211,-0.08197 0.04516,0 0.305055,-0.218844 0.577547,-0.486319 0.272493,-0.267476 0.524493,-0.48632 0.560001,-0.48632 0.06773,0 0.193495,-0.105428 0.406798,-0.341017 0.0701,-0.07742 0.198614,-0.20545 0.28559,-0.284507 0.08698,-0.07906 0.158139,-0.1895 0.158139,-0.245428 0,-0.05593 0.03882,-0.101687 0.08626,-0.101687 0.04744,0 0.08626,-0.03636 0.08626,-0.08079 0,-0.04967 0.08861,-0.09569 0.23002,-0.119458 0.17461,-0.02935 0.230021,-0.06502 0.230021,-0.148064 0,-0.06017 0.03882,-0.109399 0.08626,-0.109399 0.04744,0 0.08626,-0.04103 0.08626,-0.09118 0,-0.05015 0.05175,-0.104642 0.11501,-0.121101 0.06365,-0.01656 0.11501,-0.07804 0.11501,-0.137678 0,-0.06961 0.04071,-0.107756 0.11501,-0.107756 0.07534,0 0.11501,-0.03814 0.11501,-0.110572 0,-0.06082 0.05175,-0.126916 0.11501,-0.146891 0.06326,-0.01998 0.11501,-0.0732 0.11501,-0.118284 0,-0.04508 0.04899,-0.08197 0.108858,-0.08197 0.05987,0 0.124223,-0.03984 0.143004,-0.08854 0.01878,-0.04869 0.11212,-0.115578 0.20742,-0.148632 0.0953,-0.03305 0.173274,-0.09663 0.173274,-0.141284 0,-0.097 0.508304,-0.594189 0.607477,-0.594189 0.03815,0 0.115813,-0.0708 0.172594,-0.157338 0.05678,-0.08654 0.2118,-0.265589 0.344487,-0.397896 0.132688,-0.132306 0.256597,-0.280347 0.275355,-0.328981 0.01876,-0.04863 0.06121,-0.08842 0.09434,-0.08842 0.03313,0 0.148621,-0.09655 0.256646,-0.214553 0.483678,-0.528359 0.5493021,-0.606269 0.5493021,-0.652144 0,-0.0268 0.0358,-0.04873 0.07955,-0.04873 0.04375,0 0.09309,-0.05149 0.109627,-0.114428 0.01654,-0.06294 0.07778,-0.114429 0.136093,-0.11443 0.111348,-2e-6 0.374557,-0.29087 0.488641,-0.53999 0.03692,-0.08062 0.102428,-0.146578 0.145576,-0.146578 0.04315,0 0.103047,-0.06436 0.133109,-0.143035 0.03006,-0.07867 0.08118,-0.143035 0.113586,-0.143035 0.03241,0 0.05893,-0.05149 0.05893,-0.114428 0,-0.07474 0.03834,-0.114428 0.110529,-0.114428 0.118343,0 0.500047,-0.402257 0.583627,-0.615052 0.02781,-0.0708 0.08714,-0.128731 0.131844,-0.128731 0.04785,0 0.09732,-0.08503 0.120264,-0.206744 0.03827,-0.20299 0.07907,-0.273463 0.271053,-0.468269 0.05278,-0.05356 0.115002,-0.1729 0.138266,-0.265206 0.02326,-0.09231 0.07696,-0.233911 0.119321,-0.314678 0.04236,-0.08077 0.07776,-0.185468 0.07866,-0.232669 8.97e-4,-0.0472 0.05224,-0.150187 0.114085,-0.228857 0.06185,-0.07867 0.113028,-0.187185 0.113731,-0.241147 7.04e-4,-0.05396 0.05303,-0.125669 0.116289,-0.159351 0.07274,-0.03873 0.115011,-0.119796 0.115011,-0.220552 0,-0.09863 0.05476,-0.206687 0.143762,-0.283679 0.07907,-0.0684 0.143763,-0.150284 0.143763,-0.18196 0,-0.03167 0.03882,-0.05759 0.08626,-0.05759 0.04744,0 0.08626,-0.03745 0.08626,-0.08323 0,-0.04988 0.08096,-0.09834 0.202077,-0.120947 0.111142,-0.02074 0.22112,-0.06898 0.244396,-0.107191 0.02328,-0.03821 0.126421,-0.118067 0.229211,-0.177459 0.102791,-0.05939 0.186892,-0.128182 0.186892,-0.152865 0,-0.02468 0.08002,-0.04488 0.177821,-0.04488 0.0978,0 0.243617,-0.05149 0.324033,-0.114428 0.08042,-0.06294 0.203404,-0.114428 0.273306,-0.114428 0.0699,0 0.173933,-0.05149 0.231178,-0.114429 0.05725,-0.06293 0.13704,-0.114428 0.17732,-0.114428 0.04028,0 0.115402,-0.04195 0.166935,-0.09322 0.05153,-0.05127 0.213986,-0.106712 0.361006,-0.123199 0.147019,-0.01649 0.319676,-0.07852 0.383682,-0.137848 0.06401,-0.05933 0.175114,-0.122539 0.246905,-0.140466 0.07179,-0.01793 0.130531,-0.06638 0.130531,-0.107668 0,-0.04129 0.0841,-0.09335 0.186891,-0.115682 0.102791,-0.02233 0.248606,-0.08875 0.324033,-0.147581 0.103549,-0.08077 0.23352,-0.106972 0.530597,-0.106972 0.356228,0 0.402366,-0.01353 0.487651,-0.143035 0.05181,-0.07867 0.12788,-0.143035 0.169049,-0.143035 0.04117,0 0.08348,-0.02539 0.09402,-0.05643 0.01054,-0.03104 0.148555,-0.07132 0.306693,-0.08951 0.463354,-0.05332 0.546298,-0.07992 0.546298,-0.175181 0,-0.04955 0.05468,-0.104315 0.121519,-0.121705 0.108368,-0.0282 0.118516,-0.06271 0.09377,-0.318925 -0.01676,-0.173578 -0.06487,-0.314315 -0.121518,-0.35553 -0.07542,-0.05487 -0.09377,-0.175725 -0.09377,-0.6175212 0,-0.478018 -0.01512,-0.563319 -0.116534,-0.65732 -0.194559,-0.180342 -0.308106,-0.82734 -0.180346,-1.027618 0.02552,-0.04001 0.219109,-0.08877 0.430407,-0.108398 0.226662,-0.02106 0.384019,-0.06225 0.384019,-0.100511 0,-0.03566 0.05818,-0.114398 0.129294,-0.174978 0.117368,-0.09999 0.612289,-0.168054 1.437719,-0.197737 0.05535,-0.002 0.100633,-0.04035 0.100633,-0.08525 0,-0.125718 0.332974,-0.266704 0.761469,-0.322418 0.213226,-0.02772 0.449318,-0.09059 0.524648,-0.139696 0.07533,-0.04911 0.269622,-0.104919 0.431762,-0.124025 0.233531,-0.02752 0.294798,-0.056303 0.294798,-0.1385047 0,-0.1349297 0.119698,-0.3952211 0.181746,-0.3952211 0.02655,0 0.04828,-0.939119 0.04828,-2.086931 0,-1.984926 -0.0056,-2.0960874 -0.114795,-2.2742597 -0.101818,-0.1661509 -0.11482,-0.2888194 -0.115011,-1.0850737 -1.15e-4,-0.5710744 0.02197,-0.9113886 0.06076,-0.9352396 0.0725,-0.044584 0.399065,0.07989 0.399065,0.1521106 0,0.02765 0.03963,0.050273 0.08806,0.050273 0.04843,0 0.104707,0.045056 0.12505,0.1001246 0.02034,0.055069 0.07128,0.1207137 0.113205,0.1458782 0.04192,0.025164 0.07622,0.083094 0.07622,0.1287316 0,0.045638 0.04528,0.082999 0.100634,0.083024 0.136914,6.29e-5 0.976883,0.8642877 1.024853,1.0544482 0.02704,0.1072095 0.08618,0.1621121 0.198718,0.1845066 0.152955,0.030436 0.515957,0.4419332 0.515957,0.5848864 0,0.033083 0.05175,0.087709 0.11501,0.1213915 0.06325,0.033682 0.11501,0.096199 0.11501,0.1389269 0,0.042728 0.03882,0.092506 0.08626,0.1106195 0.04744,0.018113 0.08626,0.07236 0.08626,0.1205494 0,0.049474 0.05007,0.087617 0.11501,0.087617 0.07667,0 0.11501,0.038143 0.11501,0.1144282 0,0.062935 0.0374,0.1144281 0.08312,0.1144281 0.04572,0 0.116878,0.060993 0.158139,0.1355402 0.04126,0.074547 0.133769,0.2418983 0.205574,0.3718915 0.0718,0.1299932 0.155907,0.2363513 0.186892,0.2363513 0.03099,0 0.05634,0.048738 0.05634,0.1083069 0,0.059569 0.03514,0.1217218 0.07808,0.1381178 0.04294,0.016396 0.09405,0.1092627 0.113572,0.2063705 0.0208,0.103477 0.07134,0.1765597 0.122092,0.1765597 0.04763,0 0.10257,0.06331 0.122089,0.1406884 0.01952,0.077379 0.0701,0.1692698 0.112409,0.2042026 0.04231,0.034933 0.09354,0.1388209 0.113863,0.2308623 0.02032,0.092041 0.0702,0.1868112 0.110854,0.2105995 0.04433,0.025941 0.08525,0.2059728 0.102246,0.4498254 0.02118,0.3038966 0.05729,0.4353774 0.142968,0.5206264 0.06305,0.062728 0.149592,0.1926318 0.19232,0.2886748 0.07803,0.1753957 0.24652,0.2407417 0.62514,0.2424537 0.07658,3.43e-4 0.183008,0.04004 0.236509,0.08822 0.0535,0.04817 0.23668,0.1021 0.407064,0.119837 0.170383,0.01774 0.391331,0.06843 0.490994,0.112662 0.09966,0.04423 0.22258,0.08041 0.273149,0.08041 0.05057,0 0.09194,0.03926 0.09194,0.08724 0,0.105732 0.226753,0.198833 0.484267,0.198833 0.129335,0 0.276558,0.06632 0.464997,0.20948 0.204531,0.15538 0.347751,0.216364 0.554568,0.236136 0.167877,0.01605 0.278825,0.05467 0.278825,0.09707 0,0.03873 0.105376,0.09338 0.234169,0.121452 0.171806,0.03745 0.259865,0.09675 0.330654,0.222681 0.130954,0.232962 0.172075,0.255576 0.466567,0.256588 0.212092,7.26e-4 0.299964,0.03854 0.521499,0.224394 0.146535,0.122935 0.329341,0.232357 0.406237,0.24316 0.07689,0.0108 0.164543,0.0757 0.194774,0.144215 0.03434,0.07782 0.127193,0.138055 0.247418,0.160495 0.10585,0.01976 0.206801,0.07312 0.224337,0.118586 0.01753,0.04547 0.06619,0.08267 0.108112,0.08267 0.04193,0 0.09266,0.05149 0.112733,0.114428 0.02008,0.06294 0.08539,0.114428 0.145139,0.114428 0.05975,0 0.219738,0.1026652 0.355531,0.2281432 0.135793,0.125479 0.279242,0.228465 0.318777,0.228856 0.03953,4.01e-4 0.07188,0.02646 0.07188,0.05793 0,0.03147 0.03882,0.05721 0.08626,0.05721 0.04744,0 0.08626,0.02296 0.08626,0.05101 0,0.02806 0.06469,0.06717 0.143763,0.08691 0.07907,0.01975 0.143763,0.05998 0.143763,0.08942 0,0.08201 0.245586,0.30775 0.421259,0.387211 0.08636,0.03906 0.172,0.109864 0.19031,0.157338 0.01831,0.04747 0.07015,0.08632 0.115201,0.08632 0.04505,0 0.09681,0.03862 0.11501,0.08582 0.01821,0.0472 0.06824,0.08582 0.111182,0.08582 0.04295,0 0.105617,0.05119 0.13927,0.113752 0.03365,0.06256 0.122285,0.12901 0.19696,0.147657 0.13963,0.03487 0.320244,0.210037 0.433329,0.42027 0.0353,0.06562 0.102087,0.119318 0.148416,0.119318 0.04633,0 0.08423,0.03926 0.08423,0.08724 0,0.04798 0.06469,0.111709 0.143763,0.141619 0.07907,0.02991 0.143763,0.07903 0.143763,0.109156 0,0.03013 0.05175,0.07112 0.11501,0.09109 0.06325,0.01998 0.11501,0.07041 0.11501,0.112081 0,0.04167 0.06469,0.09192 0.143763,0.111663 0.07907,0.01975 0.143762,0.05763 0.143762,0.08419 0,0.02656 0.180291,0.238479 0.400647,0.470926 0.220355,0.232448 0.401496,0.465954 0.402535,0.518902 0.001,0.05295 0.05364,0.112612 0.116899,0.132587 0.06326,0.01998 0.11501,0.06925 0.11501,0.109507 0,0.04025 0.0854,0.160814 0.189775,0.267912 0.104376,0.107097 0.207073,0.239778 0.228216,0.294847 0.02114,0.05507 0.0716,0.100569 0.112126,0.101113 0.09997,0.0013 0.332459,0.252068 0.332459,0.358542 0,0.04727 0.03621,0.09976 0.08047,0.116662 0.04426,0.0169 0.110958,0.122637 0.148222,0.234978 0.03726,0.11234 0.09162,0.204254 0.120799,0.204254 0.02918,0 0.05305,0.04103 0.05305,0.09118 0,0.05015 0.0509,0.10442 0.113106,0.120606 0.06221,0.01619 0.128645,0.07814 0.147638,0.137678 0.01899,0.05954 0.07403,0.108251 0.122298,0.108251 0.04827,0 0.1013,0.05149 0.117842,0.114428 0.01654,0.06294 0.06587,0.114428 0.109626,0.114428 0.04883,0 0.07955,0.062 0.07955,0.160527 0,0.08829 0.06469,0.24777 0.143763,0.3544 0.07907,0.106631 0.143762,0.240364 0.143762,0.297186 0,0.05682 0.03293,0.103313 0.07318,0.103313 0.08956,0 0.258633,0.306048 0.30724,0.556144 0.0212,0.109106 0.07992,0.198183 0.143972,0.218408 0.05949,0.01879 0.108163,0.07185 0.108163,0.117917 0,0.04607 0.03896,0.09864 0.08658,0.116818 0.04762,0.01818 0.102681,0.133231 0.122359,0.255667 0.02003,0.124639 0.06828,0.222612 0.109632,0.222612 0.04212,0 0.09148,0.104494 0.114868,0.24316 0.02256,0.133737 0.07659,0.293944 0.120064,0.356015 0.04348,0.06207 0.07905,0.158618 0.07905,0.214553 0,0.05593 0.03558,0.101697 0.07907,0.101697 0.09277,0 0.150951,0.245344 0.150951,0.636507 0,0.197166 0.03184,0.310595 0.108622,0.386991 0.07017,0.06982 0.123367,0.234469 0.150277,0.465151 0.03605,0.308995 0.06788,0.379987 0.236408,0.527209 0.187347,0.163661 0.194753,0.185741 0.194753,0.580594 0,0.339662 0.01984,0.427364 0.11501,0.50844 0.07347,0.06259 0.11501,0.168778 0.11501,0.294018 0,0.107823 0.02626,0.20475 0.05835,0.215394 0.03209,0.01064 0.07338,0.19945 0.09174,0.419569 0.01836,0.22012 0.08576,0.515888 0.149769,0.657261 0.06401,0.141374 0.135744,0.385964 0.159407,0.543534 0.02366,0.15757 0.08527,0.382213 0.13691,0.499206 0.05164,0.116993 0.09388,0.265035 0.09388,0.328981 0,0.06395 0.02199,0.116265 0.04886,0.116265 0.02687,0 0.06616,0.262672 0.08731,0.583715 0.02114,0.321042 0.05966,0.597815 0.08558,0.615051 0.102855,0.06839 0.180785,0.601854 0.180785,1.237558 0,0.54769 0.01673,0.681397 0.0921,0.73623 0.05346,0.03889 0.104775,0.185544 0.122321,0.349591 0.01662,0.155426 0.07222,0.330268 0.123549,0.38854 0.07285,0.08271 0.09754,0.262966 0.112529,0.821819 0.01559,0.581228 0.03989,0.749617 0.129171,0.895298 0.10517,0.171601 0.10992,0.332901 0.108903,3.698093 -0.001,3.404232 -0.0047,3.523318 -0.113517,3.661701 -0.102049,0.129802 -0.112571,0.238924 -0.113731,1.179477 -0.0011,0.928736 -0.01258,1.050734 -0.110021,1.173984 -0.08255,0.104417 -0.124319,0.307392 -0.173423,0.842771 -0.03558,0.387874 -0.09015,0.752575 -0.121279,0.810443 -0.03113,0.05787 -0.0566,0.195754 -0.0566,0.306411 0,0.262484 -0.112029,0.778967 -0.168964,0.778967 -0.02443,0 -0.05974,0.163154 -0.07845,0.362563 -0.03619,0.385558 -0.11682,0.62443 -0.27353,0.810326 -0.05305,0.06293 -0.112938,0.24125 -0.133074,0.396255 -0.02014,0.155005 -0.08824,0.368884 -0.151335,0.475287 -0.0631,0.106403 -0.114895,0.237044 -0.115103,0.290313 -2.3e-4,0.05327 -0.05179,0.174094 -0.114632,0.268497 -0.06284,0.0944 -0.114423,0.237295 -0.114631,0.317538 -2.3e-4,0.08024 -0.02768,0.173055 -0.06104,0.206249 -0.03336,0.03319 -0.08584,0.237256 -0.116615,0.453472 -0.03399,0.238808 -0.08918,0.411619 -0.140608,0.440252 -0.04656,0.02592 -0.08465,0.08172 -0.08465,0.123991 0,0.04227 -0.03776,0.09127 -0.08392,0.108896 -0.05044,0.01926 -0.09973,0.150625 -0.123552,0.329297 -0.0218,0.163492 -0.08432,0.341723 -0.138947,0.396069 -0.0679,0.06756 -0.107127,0.220878 -0.124013,0.484738 -0.01766,0.275962 -0.05247,0.406132 -0.122165,0.456835 -0.05758,0.04189 -0.09821,0.150282 -0.09929,0.26485 -0.001,0.106668 -0.03982,0.243919 -0.08626,0.305002 -0.05635,0.07413 -0.08443,0.250121 -0.08443,0.52923 0,0.348619 -0.0201,0.438169 -0.120848,0.538407 -0.09525,0.09477 -0.127442,0.215957 -0.151979,0.572141 -0.01712,0.248547 -0.05214,0.451904 -0.07781,0.451904 -0.02568,0 -0.0643,0.09343 -0.08583,0.207633 -0.02379,0.126151 -0.07813,0.217774 -0.138468,0.233474 -0.08231,0.02141 -0.106195,0.125212 -0.139478,0.606011 -0.02209,0.319094 -0.06665,0.61192 -0.09902,0.650726 -0.161164,0.193208 -0.279278,0.525306 -0.280532,0.788762 -0.0017,0.360099 -0.08318,0.720507 -0.175727,0.777415 -0.04277,0.0263 -0.08847,0.275302 -0.116424,0.634379 -0.02531,0.325096 -0.07313,0.600074 -0.106268,0.611065 -0.03314,0.01099 -0.06025,0.05332 -0.06025,0.09406 0,0.04074 -0.05738,0.111974 -0.127504,0.158306 -0.113572,0.07502 -0.130852,0.14704 -0.158139,0.659094 -0.02325,0.436338 -0.05488,0.601486 -0.131269,0.685339 -0.06605,0.07251 -0.101588,0.207224 -0.10341,0.392037 -0.0039,0.393329 -0.182994,1.196157 -0.29482,1.321445 -0.07101,0.07955 -0.09825,0.258258 -0.114446,0.750769 -0.01262,0.383849 -0.04689,0.662693 -0.08438,0.686568 -0.03472,0.02211 -0.08276,0.104571 -0.106762,0.18324 -0.024,0.07867 -0.09218,0.189093 -0.151514,0.245391 -0.08658,0.08214 -0.107875,0.186238 -0.107875,0.527216 0,0.366308 -0.01585,0.433306 -0.11501,0.486103 -0.11269,0.06001 -0.11501,0.119795 -0.11501,2.964427 0,2.832389 0.0028,2.905583 0.11501,3.00117 0.09992,0.08512 0.11501,0.168776 0.11501,0.637388 0,0.560326 0.02866,0.720417 0.128945,0.720417 0.03252,0 0.120326,0.06569 0.195115,0.145982 0.107062,0.114937 0.135981,0.209849 0.135981,0.446269 0,0.315341 -0.06798,0.437602 -0.243326,0.437602 -0.05792,0 -0.120209,0.03862 -0.138414,0.08582 -0.0293,0.07597 -1.672461,0.08582 -14.309912,0.08582 -12.027115,0 -14.287128,-0.01237 -14.342279,-0.07849 z"
   style="fill:#000000;stroke-width:0.0573594" /></svg>
