<?xml version="1.0" encoding="UTF-8" standalone="no"?>
<svg
   xmlns:dc="http://purl.org/dc/elements/1.1/"
   xmlns:cc="http://creativecommons.org/ns#"
   xmlns:rdf="http://www.w3.org/1999/02/22-rdf-syntax-ns#"
   xmlns:svg="http://www.w3.org/2000/svg"
   xmlns="http://www.w3.org/2000/svg"
   xmlns:sodipodi="http://sodipodi.sourceforge.net/DTD/sodipodi-0.dtd"
   xmlns:inkscape="http://www.inkscape.org/namespaces/inkscape"
   version="1.1"
   id="svg143"
   width="760.18494"
   height="743.94086"
   viewBox="0 0 760.18494 743.94086"
   sodipodi:docname="НАСТОЛЬНЫЕ.svg"
   inkscape:version="1.0 (4035a4fb49, 2020-05-01)">
  <metadata
     id="metadata149">
    <rdf:RDF>
      <cc:Work
         rdf:about="">
        <dc:format>image/svg+xml</dc:format>
        <dc:type
           rdf:resource="http://purl.org/dc/dcmitype/StillImage" />
        <dc:title></dc:title>
      </cc:Work>
    </rdf:RDF>
  </metadata>
  <defs
     id="defs147" />
  <sodipodi:namedview
     inkscape:document-rotation="0"
     pagecolor="#ffffff"
     bordercolor="#666666"
     borderopacity="1"
     objecttolerance="10"
     gridtolerance="10"
     guidetolerance="10"
     inkscape:pageopacity="0"
     inkscape:pageshadow="2"
     inkscape:window-width="1920"
     inkscape:window-height="1018"
     id="namedview145"
     showgrid="false"
     inkscape:zoom="0.77339804"
     inkscape:cx="6.42703"
     inkscape:cy="208.74124"
     inkscape:window-x="-6"
     inkscape:window-y="-6"
     inkscape:window-maximized="1"
     inkscape:current-layer="g151" />
  <g
     transform="translate(-385.90458,-173.48172)"
     inkscape:groupmode="layer"
     inkscape:label="Image"
     id="g151">
    <path
       id="path8"
       d="m 682.62337,911.61394 c -1.01678,-2.93696 -1.3774,-25.33472 -0.80136,-49.77279 l 1.04733,-44.43281 137.21771,-1.06595 c 107.33963,-0.83386 137.8573,0.0508 140.15511,4.06309 4.80578,8.39133 3.66192,86.11847 -1.34907,91.67275 -6.69469,7.42054 -273.69532,6.97185 -276.26972,-0.46429 z m 16.6336,-126.98909 c -13.20596,-34.14848 -7.45311,-81.86759 14.94604,-123.97541 18.83219,-35.40236 58.0827,-92.02726 88.87369,-128.21394 l 14.30283,-16.80921 -14.73696,4.35999 c -11.92063,3.52677 -18.81903,2.97571 -36.09705,-2.88353 -40.02154,-13.57191 -47.42268,-13.24124 -60.82963,2.71772 -20.46723,24.36318 -31.95119,27.66291 -63.61028,18.27734 -11.47927,-3.40311 -19.87325,-9.1664 -25.71519,-17.656 -7.73404,-11.23922 -8.41715,-15.31687 -6.3098,-37.66484 l 2.36318,-25.06113 29.71429,-27.86979 c 42.1369,-39.52126 66.91336,-66.75402 69.75184,-76.66689 1.67016,-5.83273 10.40642,-12.00679 27.52082,-19.44939 23.58929,-10.25836 25.04459,-11.63305 24.57847,-23.21703 -0.45696,-11.35529 0.7876,-12.66277 15.99995,-16.80926 l 16.49545,-4.49622 V 262.2263 235.24533 l 10.63061,8.39212 c 5.84683,4.61567 15.43523,16.95917 21.30757,27.43001 8.46495,15.09362 13.85702,20.06998 26.02596,24.01948 31.39208,10.18849 69.14498,40.77927 89.65823,72.64917 13.71164,21.3027 27.37764,65.96435 33.81511,110.51059 5.324,36.84103 0.24267,94.27734 -11.18277,126.407 -4.04828,11.38412 -14.05031,47.45554 -22.22673,80.15874 -14.29466,57.1744 -16.68401,83.03102 -10.18777,110.24894 1.26626,5.30533 -13.39452,6.2337 -113.20485,7.16846 l -114.65952,1.07383 z M 457.43162,413.66299 c 0,-1.94231 -5.65612,-4.54884 -12.56916,-5.7923 -16.45716,-2.96018 -40.89583,-30.69192 -46.79797,-53.10391 -2.43369,-9.24137 -6.12942,-18.08975 -8.21273,-19.66306 -5.66975,-4.28177 -5.04598,-73.23135 0.68167,-75.35104 2.52014,-0.93265 4.58207,-4.2153 4.58207,-7.29477 0,-7.3437 28.40187,-38.41773 35.11406,-38.41773 2.86447,0 5.20814,-1.82839 5.20814,-4.06308 0,-2.2347 2.47431,-4.06309 5.49848,-4.06309 3.02416,0 5.49848,-1.68311 5.49848,-3.74025 0,-2.05714 4.94863,-4.945 10.99696,-6.41746 6.04833,-1.47247 10.99696,-4.29735 10.99696,-6.27752 0,-1.98017 8.28475,-4.81847 18.41055,-6.30734 10.1258,-1.48887 19.29564,-4.29443 20.37743,-6.23457 2.66918,-4.78708 56.51903,-4.51402 56.51903,0.28659 0,2.09777 7.42295,5.04795 16.49544,6.55596 9.07249,1.50802 16.49544,4.36263 16.49544,6.34359 0,1.98096 2.28026,3.60175 5.06723,3.60175 6.5888,0 35.25497,31.77415 35.25497,39.07732 0,3.08914 1.64954,5.61661 3.66565,5.61661 2.01611,0 3.66566,2.61199 3.66566,5.80441 0,3.19243 2.59214,8.67759 5.76031,12.18926 3.16817,3.51167 3.99294,6.38485 1.83283,6.38485 -6.55354,0 -4.39778,16.0326 3.40382,25.31454 9.0436,10.75962 9.0501,11.73909 0.14824,22.33007 -3.95069,4.70033 -8.25337,13.27284 -9.56152,19.05003 -1.30815,5.77719 -3.67035,10.50398 -5.24934,10.50398 -1.57898,0 -3.87831,4.44911 -5.10961,9.88691 -1.2313,5.43779 -5.44961,11.01649 -9.37401,12.39709 -3.92441,1.3806 -8.0338,5.64808 -9.13198,9.4833 -1.09819,3.83521 -9.84267,11.51233 -19.4322,17.06027 -9.58952,5.54794 -18.3097,11.37252 -19.37817,12.94351 -1.06848,1.57098 -8.90381,4.09015 -17.41186,5.59815 -8.50805,1.50799 -15.46917,4.33652 -15.46917,6.2856 0,1.94908 -19.79454,3.54379 -43.98785,3.54379 -24.19332,0 -43.98785,-1.58916 -43.98785,-3.53146 z m 71.21884,-44.75673 c 1.10225,-1.97684 9.44732,-4.83146 18.54461,-6.34359 9.09729,-1.51213 16.54052,-4.32041 16.54052,-6.24063 0,-1.92021 4.94863,-4.69603 10.99696,-6.1685 6.04833,-1.47246 10.99696,-4.32549 10.99696,-6.34005 0,-2.01456 4.12386,-4.81008 9.16414,-6.21226 5.04027,-1.40219 9.16413,-4.1796 9.16413,-6.17204 0,-1.99244 2.44289,-3.62262 5.42864,-3.62262 2.98576,0 6.5533,-4.96682 7.92788,-11.03737 1.37458,-6.07056 5.52987,-14.64307 9.23398,-19.05003 7.14279,-8.49813 9.23853,-26.79579 3.06908,-26.79579 -2.01611,0 -3.66565,-4.57097 -3.66565,-10.15771 0,-5.58675 1.64954,-10.15772 3.66565,-10.15772 2.01611,0 3.66294,-3.19968 3.65963,-7.1104 -0.006,-7.40622 -26.45325,-37.58354 -32.93767,-37.58354 -2.04206,0 -3.71285,-1.74554 -3.71285,-3.87897 0,-2.13344 -6.18579,-5.13975 -13.7462,-6.6807 -7.56041,-1.54095 -14.81433,-4.62823 -16.11982,-6.86063 -3.2135,-5.49512 -52.43983,-5.68237 -58.65123,-0.2231 -2.72631,2.39618 -12.20522,5.37917 -21.06425,6.62887 -8.85903,1.2497 -17.10675,3.79962 -18.32827,5.66648 -1.22152,1.86687 -8.80251,7.03357 -16.84665,11.48158 -15.35941,8.49297 -45.85759,39.10397 -45.85759,46.02722 0,2.2249 -1.96417,4.77098 -4.36482,5.65795 -2.5551,0.94405 -4.99482,12.57918 -5.88428,28.06235 -1.17786,20.50355 -0.19661,27.91591 4.36483,32.97191 3.23635,3.58723 5.88427,7.70769 5.88427,9.15656 0,7.52611 23.41858,27.15488 34.85124,29.21129 7.13916,1.28414 13.86236,3.91674 14.94045,5.85024 2.58521,4.63648 70.15797,4.56328 72.74631,-0.0788 z M 474.18848,356.717 c -1.10226,-1.97684 -9.44733,-4.83145 -18.54461,-6.34358 -9.09729,-1.51214 -16.54052,-4.46569 -16.54052,-6.56346 0,-2.09777 -2.10772,-3.81413 -4.68382,-3.81413 -2.57611,0 -7.93713,-4.11388 -11.91338,-9.14194 -5.80442,-7.33983 -7.22955,-15.08225 -7.22955,-39.2765 0,-20.496 1.46558,-30.67603 4.58207,-31.82749 2.52013,-0.93113 4.58206,-4.28718 4.58206,-7.45789 0,-7.75048 25.42775,-33.95495 35.74013,-36.83186 4.53625,-1.2655 8.24772,-3.93108 8.24772,-5.92352 0,-1.99244 3.9864,-3.62262 8.85867,-3.62262 4.87226,0 9.51171,-2.17156 10.30988,-4.82569 1.77071,-5.88805 82.71967,-6.81995 86.50497,-0.99586 1.3548,2.08451 8.35252,7.10059 15.55047,11.14685 18.31735,10.29692 25.4341,25.57972 25.24694,54.21634 -0.13892,21.25843 -1.29327,24.79785 -10.99696,33.71872 -5.96295,5.48191 -10.84173,11.55478 -10.84173,13.49525 0,4.95526 -9.68652,15.13695 -14.40078,15.13695 -2.16012,0 -3.92749,1.47652 -3.92749,3.28116 0,5.69365 -30.18233,18.31842 -48.44423,20.2634 -9.64565,1.02731 -17.53754,3.4636 -17.53754,5.41398 0,4.65695 -31.96366,4.61246 -34.5623,-0.0481 z m 59.32405,-56.39806 c 0.82982,-2.75938 3.25465,-5.01705 5.38851,-5.01705 7.48929,0 24.83455,-24.2981 24.83455,-34.78946 0,-10.74551 -7.39682,-22.09374 -14.40079,-22.09374 -2.16011,0 -3.92748,-1.82838 -3.92748,-4.06308 0,-2.292 -10.38602,-4.06309 -23.82675,-4.06309 -13.44074,0 -23.82676,1.77109 -23.82676,4.06309 0,2.2347 -3.2441,4.06308 -7.20912,4.06308 -11.76028,0 -33.11307,26.63563 -33.11307,41.30549 0,21.93898 11.46958,28.75468 45.53379,27.05808 18.77838,-0.93527 29.57144,-3.21893 30.54712,-6.46332 z m -35.75872,-13.14322 c 0,-2.2347 -2.47431,-4.06308 -5.49848,-4.06308 -3.28288,0 -5.49848,-3.74003 -5.49848,-9.28168 0,-10.36834 16.18318,-23.22301 29.23624,-23.22301 7.29567,0 18.41726,8.41223 18.41726,13.93058 0,4.74598 -14.84856,18.57411 -19.94476,18.57411 -2.90518,0 -6.30162,1.82838 -7.54764,4.06308 -2.93135,5.25726 -9.16414,5.25726 -9.16414,0 z m 524.18849,48.07251 c -7.0563,-2.20809 -14.3968,-5.69997 -16.3121,-7.75973 -1.9153,-2.05975 -6.37683,-3.74501 -9.91448,-3.74501 -8.3369,0 -12.3707,-22.25451 -6.91617,-38.15648 12.40235,-36.15749 40.78075,-55.18982 82.38825,-55.25479 31.201,-0.0487 53.3282,10.55896 66.3568,31.81109 11.7045,19.09218 11.4136,31.16774 -1.0506,43.61604 -28.1869,28.15096 -77.9165,40.95279 -114.5517,29.48888 z m -1.6227,-74.15036 c 3.9103,-3.16933 6.0164,-6.97425 4.6802,-8.45537 -3.0894,-3.42434 -17.7201,5.07798 -17.7201,10.29766 0,5.53933 4.7625,4.86648 13.0399,-1.84229 z"
       style="fill:#000000;stroke-width:3.85926" />
  </g>
</svg>
