<?xml version="1.0" encoding="UTF-8"?>
<!DOCTYPE svg PUBLIC "-//W3C//DTD SVG 1.1//EN" "http://www.w3.org/Graphics/SVG/1.1/DTD/svg11.dtd">
<!-- Creator: CorelDRAW 2019 (64-Bit) -->
<svg xmlns="http://www.w3.org/2000/svg" xml:space="preserve" width="93.6773mm" height="46.0076mm" version="1.1" style="shape-rendering:geometricPrecision; text-rendering:geometricPrecision; image-rendering:optimizeQuality; fill-rule:evenodd; clip-rule:evenodd"
viewBox="0 0 320.75 157.53"
 xmlns:xlink="http://www.w3.org/1999/xlink">
 <defs>
  <style type="text/css">
   <![CDATA[
    .fil0 {fill:black;fill-rule:nonzero}
   ]]>
  </style>
 </defs>
 <g id="Слой_x0020_1">
  <metadata id="CorelCorpID_0Corel-Layer"/>
  <path class="fil0" d="M102.43 109.38c-1.58,1.39 -2.52,3.11 -2.74,4.83 -0.21,1.66 0.25,3.37 1.45,4.8l0.07 0.08c1.36,1.57 2.93,2.53 4.54,2.74 1.52,0.2 3.16,-0.25 4.78,-1.45 1.92,-1.42 3.17,-2.75 3.97,-3.83 0.75,-1.01 1.1,-1.77 1.23,-2.13l0.04 -0.1c0.19,-0.52 0.57,-1.89 0.26,-3.5l-0.01 -0.06c-0.19,-0.96 -0.66,-2.02 -1.59,-3.04l-0.25 -0.27c-1.25,-1.25 -2.83,-2.01 -4.58,-1.97 -1.89,0.04 -4.05,0.98 -6.36,3.14l-0.8 0.76zm203.71 -100.97c9.37,20.38 14.61,43.05 14.61,66.94 0,16.87 -2.61,33.12 -7.44,48.39l-0.49 0.24c-0.09,0.05 -33.46,17.08 -38.1,15.61 -2.3,-0.73 -5.67,-6.05 -9.28,-13.45 -1.16,-2.37 -2.36,-4.98 -3.58,-7.72 -3.93,1.65 -8.28,3.31 -12.29,4.48 -6.07,1.77 -10.52,1.27 -14.02,-0.52 -2.89,-1.48 -5.05,-3.79 -6.92,-6.42l-7.86 5.46c1,1.43 1.68,2.65 1.92,3.56 0.42,1.6 0.15,3.28 -0.6,4.86 -0.8,1.7 -2.18,3.34 -3.79,4.66 -1.6,1.3 -3.48,2.32 -5.32,2.81 -0.9,0.24 -1.8,0.35 -2.66,0.32 -0.43,2.08 -1.5,4.42 -3.23,6.3 -1.83,1.98 -4.38,3.45 -7.68,3.59 -0.98,0.04 -2.01,-0.03 -3.09,-0.24 -0.8,-0.16 -1.6,-0.36 -2.39,-0.6 -0.81,1.37 -2.13,3.01 -3.89,4.32 -1.87,1.38 -4.27,2.48 -7.16,2.64 -1.97,0.11 -3.78,-0 -5.53,-0.35 -4.89,5.87 -11.54,3.15 -18.64,0.25l-0.95 -0.38c-2,1.99 -6.95,5.88 -13.7,3.76 -0.84,-0.26 -1.6,-0.57 -2.28,-0.92 -2.99,-1.52 -4.39,-3.69 -4.97,-5.73 -0.18,-0.64 -0.28,-1.26 -0.31,-1.85 -0.58,0.18 -1.19,0.29 -1.83,0.31 -2.46,0.08 -5.06,-0.84 -7.13,-2.33 -2.1,-1.51 -3.73,-3.64 -4.21,-5.96l-0.03 -0.18c-0.06,-0.5 -0.08,-0.97 -0.07,-1.41 -1.69,0.64 -3.38,0.83 -5.02,0.61 -2.79,-0.38 -5.38,-1.95 -7.59,-4.51l-0.11 -0.13c-2.18,-2.61 -2.84,-5.63 -2.27,-8.6 0.04,-0.21 0.09,-0.42 0.14,-0.62 -1.05,0.21 -2.09,0.25 -3.12,0.11 -2.57,-0.34 -4.97,-1.74 -6.94,-4.03l-0.1 -0.13c-1.93,-2.31 -2.67,-5.08 -2.33,-7.8 0.22,-1.74 0.89,-3.45 1.96,-4.99 -3.23,-2.42 -7.89,-6.82 -10.38,-9.22 -2.92,5.15 -5.79,8.74 -8.21,8.67 -3.52,-0.11 -10.5,-2.92 -17.75,-5.85 -1.34,-0.54 -2.69,-1.09 -4.03,-1.62 -1.94,4.1 -3.9,8.12 -5.75,11.71 -4.29,8.32 -8.28,14.67 -10.83,15.4 -2.97,0.86 -22.86,-8.97 -36.76,-16.13 -2.71,-11.68 -4.14,-23.85 -4.14,-36.35 0,-27.24 6.8,-52.89 18.78,-75.36 20.2,6.1 65.35,20.46 66.12,27.18l0 0.04c11.64,4.17 22.27,8.43 23.28,10.39 0.33,0.65 0.52,1.53 0.58,2.61 2.5,0.66 8.02,1.99 12.43,2.24 1.44,0.08 4.06,0.15 7.37,0.24 7.95,0.21 19.8,0.51 28.35,1.32 1.12,-0.45 2.25,-0.94 3.36,-1.43 4.13,-1.8 8.12,-3.53 11.4,-3.34 3.68,0.21 7.35,1.91 12.03,4.08 2.05,0.95 4.3,1.99 6.97,3.08 7.55,3.1 18.46,5.96 19.89,6.33 3.77,-3.41 16.1,-8.74 23.15,-11.63 -0.03,-0.64 -0.02,-1.21 0.05,-1.69 1.04,-7.03 54.92,-25.26 72.37,-31zm-45.82 106.47c-2.68,-6.24 -5.35,-12.95 -7.66,-19.14 -1.69,-4.54 -3.72,-9.7 -5.82,-15.04 -5.16,-13.1 -10.74,-27.27 -12.54,-35.68 -7.86,3.14 -20.85,8.53 -21.03,9.83 -0.14,0.99 1.52,4.56 3.99,9.87 2.47,5.33 5.71,12.31 8.79,20.64 6.34,17.19 7.62,25.82 7.63,25.84 0.1,0.77 -0.26,1.49 -0.86,1.88l-0.99 0.69c1.55,2.16 3.29,4.03 5.49,5.16 2.68,1.38 6.22,1.72 11.21,0.27 3.84,-1.12 8.01,-2.71 11.81,-4.31zm-175.69 -83.86c-0.71,4.15 -2.58,10.28 -5.01,17.14 -4.54,12.82 -11.11,28.49 -15.5,38.18 -1.56,3.45 -3.26,7.15 -4.99,10.87 1.26,0.5 2.54,1.02 3.81,1.53 6.93,2.8 13.59,5.49 16.42,5.57 1.26,0.04 3.38,-3.32 5.79,-8.12 0.05,-0.4 0.22,-0.79 0.51,-1.1l0.08 -0.08c2.88,-5.88 6.08,-13.53 8.71,-19.8l2.03 -4.84c2.74,-6.42 5.44,-14.18 7.04,-20.55 0.78,-3.12 1.32,-5.84 1.46,-7.77 -0.05,-0.27 -0.04,-0.56 0.04,-0.84 0.01,-0.82 -0.07,-1.44 -0.27,-1.82 -0.66,-1.28 -9.71,-4.74 -20.12,-8.37zm132.16 91.39c-0.11,-0.1 -0.22,-0.22 -0.31,-0.35l-0.12 -0.2c-3.31,-4.18 -9.12,-10.24 -14.04,-15.37 -3.05,-3.17 -5.76,-6 -7.43,-7.94 -2.77,-0.38 -5.61,-1.03 -8.78,-2.44 -3.39,-1.51 -7.14,-3.89 -11.55,-7.75 -6.47,-5.67 -8.34,-12.71 -8.88,-16.39 -1.12,0.24 -2.54,0.44 -4.13,0.44l-3.97 0.03c-0.91,2.11 -3.2,6.55 -8.03,11.53 -1.5,1.55 -3.13,2.73 -4.78,3.58l-0.16 0.09c-2.62,1.32 -5.3,1.8 -7.66,1.63 -2.49,-0.18 -4.67,-1.1 -6.14,-2.55 -0.56,-0.56 -1.02,-1.17 -1.35,-1.85 -1.88,-3.81 -0.21,-7.96 1.44,-12.05 0.57,-1.4 1.13,-2.8 1.5,-4.09 0.51,-1.79 0.87,-4.02 1.23,-6.24 0.63,-3.9 1.26,-7.82 2.78,-10.16 1.73,-2.67 5.24,-4.06 9.45,-5.19 -6.11,-0.29 -12.49,-0.45 -17.37,-0.58 -3.43,-0.09 -6.14,-0.16 -7.49,-0.24 -4.33,-0.25 -9.53,-1.42 -12.42,-2.15 -0.25,1.96 -0.7,4.2 -1.3,6.59 -1.65,6.57 -4.43,14.55 -7.24,21.14l-2.03 4.81c-2.53,6.03 -5.55,13.25 -8.62,19.25 2.27,2.2 7.9,7.59 11.12,9.92l0.13 -0.12c3.04,-2.83 6.07,-4.08 8.84,-4.16l0.05 -0c2.88,-0.07 5.41,1.11 7.39,3.09l0.38 0.39c1.48,1.62 2.22,3.33 2.54,4.92l0.02 0.07c0.26,1.36 0.21,2.62 0.05,3.63 1.31,-0.48 2.59,-0.7 3.83,-0.72 3.15,-0.04 5.91,1.3 8.09,3.49 0.12,0.12 0.34,0.32 0.43,0.45 0.25,0.27 0.48,0.55 0.68,0.82l0.08 0.11c1.42,1.95 1.92,4.05 1.79,6.14 0.78,-0.4 1.64,-0.74 2.61,-1.01 2.27,-0.63 4.6,-0.22 6.56,0.75 2.22,1.1 4.02,2.97 4.78,4.89 0.68,1.72 0.52,3.61 -0.11,5.47 -0.13,0.39 -0.28,0.77 -0.45,1.15 1.41,0.11 2.92,0.53 4.19,1.43l0.11 0.08c0.66,0.49 1.26,1.11 1.74,1.87 1.84,2.93 1.32,6.7 0.81,8.78l3.05 1.65 2.1 0.85c4.95,2.02 9.64,3.94 12.88,2 -2.8,-1.24 -5.46,-3.38 -8.79,-6.01 -0.84,-0.66 -1.4,-1.77 -0.75,-2.62 0.65,-0.84 1.88,-0.64 2.72,0.02 3.21,2.52 6.06,4.11 8.64,5.17 2.48,1.02 4.93,1.42 7.8,1.26 2.03,-0.11 3.75,-0.9 5.09,-1.9 1.17,-0.87 2.04,-1.82 2.59,-2.58 -2.4,-1.13 -4.77,-2.64 -7.17,-4.46 -4.26,-3.23 -8.16,-7.64 -12.78,-12.47 -0.74,-0.77 -1.15,-1.8 -0.38,-2.54 0.77,-0.74 1.83,-0.42 2.57,0.35 4.5,4.71 8.85,8.49 12.9,11.56 2.55,1.93 5.04,3.46 7.53,4.51l0.17 0.01c0.39,0.05 0.74,0.21 1.02,0.45 0.94,0.34 1.89,0.6 2.84,0.78 0.8,0.15 1.53,0.21 2.2,0.18 2.16,-0.09 3.83,-1.06 5.03,-2.36 1.25,-1.35 2.01,-3.06 2.29,-4.54l0.05 -0.31c-3.03,-1.65 -7.84,-4.9 -13.46,-10.19 -4.37,-4.11 -8.66,-9.19 -13.61,-15.99 -0.63,-0.86 -1.03,-2.35 -0.18,-2.98 0.86,-0.63 2.05,0.13 2.67,1 4.8,6.58 9.53,11.17 13.74,15.13 6.07,5.71 11.03,8.87 13.65,10.12 0.67,0.32 1.58,0.3 2.57,0.04 1.3,-0.35 2.68,-1.1 3.88,-2.08 1.19,-0.96 2.18,-2.12 2.72,-3.29 0.37,-0.79 0.53,-1.57 0.36,-2.22 -0.21,-0.79 -0.99,-2.03 -2.17,-3.57zm1.63 -4.06l11.22 -7.79c-0.55,-2.77 -2.34,-10.65 -7.21,-23.85 -3.01,-8.16 -6.22,-15.08 -8.67,-20.35 -1.99,-4.28 -3.51,-7.56 -4.09,-9.84 -1.45,-0.37 -12.65,-3.31 -20.46,-6.51 -2.57,-1.05 -4.96,-2.16 -7.12,-3.16 -4.31,-2 -7.69,-3.56 -10.65,-3.73 -2.38,-0.14 -5.96,1.42 -9.67,3.03 -2.9,1.26 -5.89,2.56 -8.72,3.24l-2 0.47c-5.25,1.23 -10.01,2.36 -11.46,4.59 -1.06,1.65 -1.64,5.16 -2.2,8.67 -0.38,2.36 -0.76,4.72 -1.32,6.68 -0.42,1.48 -1.03,2.98 -1.63,4.49 -1.33,3.29 -2.67,6.62 -1.57,8.85 0.15,0.29 0.35,0.56 0.59,0.8 0.83,0.82 2.15,1.34 3.73,1.46 1.71,0.12 3.69,-0.24 5.66,-1.24l0.14 -0.06c1.28,-0.67 2.57,-1.6 3.77,-2.85 6.08,-6.27 7.62,-11.31 7.62,-11.32 0.26,-0.79 0.98,-1.3 1.76,-1.33 0.05,-0 2.05,-0.08 5.36,-0.08 3.09,0 4.98,-0.77 4.99,-0.77 0.95,-0.48 2.11,-0.09 2.58,0.87 0.14,0.28 0.2,0.58 0.2,0.87 0.01,0.03 -0.05,9.09 7.76,15.94 4.08,3.57 7.51,5.76 10.59,7.13 3.02,1.34 5.74,1.9 8.44,2.23 0.56,0.07 1.04,0.38 1.34,0.81 1.48,1.77 4.37,4.78 7.65,8.2 4.51,4.7 9.74,10.15 13.34,14.57zm-79.58 23.65c0.67,-0.89 1.43,-1.88 2.11,-2.76l0.25 -0.32 0.01 -0.01 0.02 -0.03 0 -0 0.02 -0.02 0.02 -0.02 0 -0.01 0.02 -0.03 0.01 -0.01c0.32,-0.44 0.63,-0.86 0.92,-1.23 1.09,-1.39 2.19,-3.08 2.74,-4.71 0.36,-1.05 0.48,-2.03 0.19,-2.77 -0.42,-1.07 -1.52,-2.16 -2.91,-2.85 -1.18,-0.59 -2.56,-0.85 -3.86,-0.49 -2.95,0.8 -4.71,2.82 -6.82,5.24l-0.51 0.57c-0.53,0.68 -1.1,1.32 -1.68,1.92 -1.46,1.7 -2.45,3.17 -2.25,5.25 0.3,1.28 1.32,2.54 2.65,3.49 1.43,1.03 3.18,1.67 4.78,1.61 1.51,-0.05 2.98,-1.3 4.29,-2.83zm6.37 11.2c3.91,1.23 7.02,-0.44 8.82,-1.89l-2.23 -1.21c-0.8,-0.44 -1.21,-1.41 -0.91,-2.32 0,-0.01 1.69,-4.47 0.06,-7.06 -0.2,-0.32 -0.45,-0.58 -0.73,-0.79l-0.08 -0.06c-0.76,-0.54 -1.73,-0.75 -2.62,-0.76 -0.81,-0.01 -1.49,0.12 -1.85,0.31l-0.3 0.4 -0.06 0.08 -0.06 0.08 -0.05 0.07 -1.07 1.43c-0.73,1 -1.52,2.09 -2.4,3.11 -0.57,0.76 -1.01,1.38 -1.14,1.65l-0.05 0.14c-0.18,0.58 -0.33,1.65 0,2.81 0.32,1.15 1.16,2.4 2.99,3.33 0.48,0.25 1.05,0.48 1.69,0.68zm-18.72 -21.32l0.88 -1c0.18,-0.19 0.36,-0.39 0.53,-0.59l0.02 -0.02 0.01 -0.02 0.01 -0.01c1.01,-1.26 1.87,-2.65 2.41,-4.07 0.78,-2.07 0.84,-4.21 -0.48,-6.03l-0.45 -0.56 -0.35 -0.36c-1.48,-1.48 -3.3,-2.39 -5.34,-2.37 -2.15,0.03 -4.61,1.08 -7.28,3.56l-0.89 0.84 -0.05 0.04c-1.88,1.66 -3.12,3.63 -3.5,5.61 -0.35,1.84 0.06,3.73 1.42,5.36l0.08 0.09c1.6,1.84 3.37,2.96 5.19,3.21 1.71,0.23 3.57,-0.3 5.47,-1.7 0.55,-0.4 1.12,-0.88 1.68,-1.4 0.21,-0.2 0.42,-0.4 0.63,-0.61z"/>
 </g>
</svg>
