<?xml version="1.0" encoding="UTF-8"?>
<!DOCTYPE svg PUBLIC "-//W3C//DTD SVG 1.1//EN" "http://www.w3.org/Graphics/SVG/1.1/DTD/svg11.dtd">
<!-- Creator: CorelDRAW 2019 (64-Bit) -->
<svg xmlns="http://www.w3.org/2000/svg" xml:space="preserve" width="65.6508mm" height="93.2101mm" version="1.1" style="shape-rendering:geometricPrecision; text-rendering:geometricPrecision; image-rendering:optimizeQuality; fill-rule:evenodd; clip-rule:evenodd"
viewBox="0 0 286.79 407.17"
 xmlns:xlink="http://www.w3.org/1999/xlink">
 <defs>
  <style type="text/css">
   <![CDATA[
    .fil0 {fill:black}
   ]]>
  </style>
 </defs>
 <g id="Слой_x0020_1">
  <metadata id="CorelCorpID_0Corel-Layer"/>
  <path class="fil0" d="M147.82 9.28l34.16 40.06 34.16 40.06c0,0 -2.86,3.23 -9.24,8.07l14.61 17.13c0,0 -18.24,16.43 -40.5,21.84 -15.49,3.77 -32.62,-0.21 -43.51,-8.13 -24.3,4.07 -34.22,-3.96 -34.22,-3.96 0,0 -14.96,8.82 -17.43,27.12 -2.28,16.88 3.85,25.1 4.82,26.28l0.04 0.05 0.04 0.04 0.02 0.03 0.02 0.02 0 0.01 -22.27 18.99c7.58,5.3 11.8,14.7 10.02,24.39l-8.55 45.81 42.98 42.46 81.42 0 43.48 -63.23 0 -155.32c0,-13.51 10.95,-24.46 24.46,-24.46 13.51,0 24.46,10.95 24.46,24.46l0 162.78c0,5.84 -2.05,11.21 -5.47,15.41l-65.15 94.76 0 35.19c-18.14,5.22 -37.3,8.03 -57.12,8.03 -19.82,0 -38.98,-2.81 -57.12,-8.03l0 -31.93 -75.38 -74.47c-6.18,-6.08 -8.43,-14.63 -6.74,-22.52l10.77 -57.73c1.02,-5.56 3.85,-10.32 7.76,-13.81l-38.33 -44.96 36.38 -31.02 4.24 -3.62 0 0.01 0.02 0.02 0.03 0.03 0.04 0.04 0.04 0.05 0.06 0.06c1.2,1.33 8.4,8.43 25.13,8.85 18.47,0.45 29.54,-12.93 29.54,-12.93 0,0 -6.37,-11.07 1.49,-34.42 -6.1,-12.01 -7.32,-29.54 -1.15,-44.25 8.86,-21.13 27.96,-36.55 27.96,-36.55l14.6 17.13c5.8,-5.53 9.44,-7.85 9.44,-7.85zm-103.9 185.67c4.51,-2.19 9.73,-3.02 15.03,-2.04 1.05,0.19 2.07,0.45 3.06,0.76l10.64 -9.07 8.73 -7.44 -41.5 -48.67 -30.47 25.98 34.51 40.48zm115.13 -16.18c29.79,0 53.93,24.15 53.93,53.93 0,29.79 -24.15,53.93 -53.93,53.93 -29.79,0 -53.93,-24.15 -53.93,-53.93 0,-29.79 24.15,-53.93 53.93,-53.93zm-9.59 -53.19c3.2,-0.91 6.59,-2.01 10.17,-3.32 18.1,-6.64 31.29,-13.9 40.37,-19.9l10.03 11.77c-9.08,6.55 -20.61,12.3 -30.14,14.61 -4.91,1.19 -9.99,1.43 -14.85,0.98 -4.72,-0.45 -10.39,-1.83 -15.58,-4.14zm-47.9 -56.16c1.41,-3.02 3.03,-6.2 4.89,-9.52 9.42,-16.82 18.67,-28.71 26.03,-36.71l-10.04 -11.77c-7.91,7.94 -15.39,18.41 -19.18,27.46 -1.96,4.66 -3,9.64 -3.31,14.51 -0.31,4.73 0.17,10.55 1.62,16.04z"/>
 </g>
</svg>
