<?xml version="1.0" encoding="UTF-8"?>
<!DOCTYPE svg PUBLIC "-//W3C//DTD SVG 1.1//EN" "http://www.w3.org/Graphics/SVG/1.1/DTD/svg11.dtd">
<!-- Creator: CorelDRAW 2019 (64-Bit) -->
<svg xmlns="http://www.w3.org/2000/svg" xml:space="preserve" width="91.8606mm" height="65.6693mm" version="1.1" style="shape-rendering:geometricPrecision; text-rendering:geometricPrecision; image-rendering:optimizeQuality; fill-rule:evenodd; clip-rule:evenodd"
viewBox="0 0 160.49 114.73"
 xmlns:xlink="http://www.w3.org/1999/xlink">
 <defs>
  <style type="text/css">
   <![CDATA[
    .fil0 {fill:black}
   ]]>
  </style>
 </defs>
 <g id="Слой_x0020_1">
  <metadata id="CorelCorpID_0Corel-Layer"/>
  <path class="fil0" d="M120.45 74.83l40.04 -20.33 0 54.84 -40.04 -18.66 0 15.3c0,4.81 -3.94,8.75 -8.75,8.75l-102.95 0c-4.81,0 -8.75,-3.94 -8.75,-8.75l0 -46.09c0,-4.81 3.94,-8.75 8.75,-8.75l102.95 0c4.81,0 8.75,3.94 8.75,8.75l0 14.94zm-34.15 -74.83c12.17,0 22.04,9.87 22.04,22.04 0,12.17 -9.87,22.04 -22.04,22.04 -12.17,0 -22.04,-9.87 -22.04,-22.04 0,-12.17 9.87,-22.04 22.04,-22.04zm-56.02 9.08c9.66,0 17.49,7.83 17.49,17.49 0,9.66 -7.83,17.49 -17.49,17.49 -9.66,0 -17.49,-7.83 -17.49,-17.49 0,-9.66 7.83,-17.49 17.49,-17.49z"/>
 </g>
</svg>
