<?xml version="1.0" encoding="UTF-8" standalone="no"?>
<svg
   xmlns:dc="http://purl.org/dc/elements/1.1/"
   xmlns:cc="http://creativecommons.org/ns#"
   xmlns:rdf="http://www.w3.org/1999/02/22-rdf-syntax-ns#"
   xmlns:svg="http://www.w3.org/2000/svg"
   xmlns="http://www.w3.org/2000/svg"
   xmlns:sodipodi="http://sodipodi.sourceforge.net/DTD/sodipodi-0.dtd"
   xmlns:inkscape="http://www.inkscape.org/namespaces/inkscape"
   inkscape:version="1.0 (4035a4fb49, 2020-05-01)"
   sodipodi:docname="банк.svg"
   id="svg434"
   viewBox="0 0 71.6 60.34"
   style="shape-rendering:geometricPrecision; text-rendering:geometricPrecision; image-rendering:optimizeQuality; fill-rule:evenodd; clip-rule:evenodd"
   version="1.1"
   height="33.372mm"
   width="39.6025mm"
   xml:space="preserve"><metadata
   id="metadata438"><rdf:RDF><cc:Work
       rdf:about=""><dc:format>image/svg+xml</dc:format><dc:type
         rdf:resource="http://purl.org/dc/dcmitype/StillImage" /><dc:title></dc:title></cc:Work></rdf:RDF></metadata><sodipodi:namedview
   inkscape:current-layer="svg434"
   inkscape:window-maximized="0"
   inkscape:window-y="0"
   inkscape:window-x="0"
   inkscape:cy="63.0652"
   inkscape:cx="74.839372"
   inkscape:zoom="6.6597743"
   showgrid="false"
   id="namedview436"
   inkscape:window-height="480"
   inkscape:window-width="900"
   inkscape:pageshadow="2"
   inkscape:pageopacity="0"
   guidetolerance="10"
   gridtolerance="10"
   objecttolerance="10"
   borderopacity="1"
   bordercolor="#666666"
   pagecolor="#ffffff" />
 <defs
   id="defs428">
  <style
   id="style426"
   type="text/css">
   <![CDATA[
    .fil0 {fill:#2B2A29}
   ]]>
  </style>
 </defs>
 <g
   id="Слой_x0020_1">
  <metadata
   id="CorelCorpID_0Corel-Layer" />
  <path
   id="path431"
   d="M71.6 12.6l-71.6 0 35.8 -12.6 35.8 12.6zm-64.5 37.73l0 -24.77 5.27 0c1.75,0 3.06,0.56 3.94,1.67 0.88,1.11 1.32,2.76 1.32,4.94 0,1.16 -0.21,2.18 -0.64,3.07 -0.43,0.89 -1.01,1.59 -1.75,2.07 0.87,0.37 1.56,1.09 2.07,2.13 0.51,1.05 0.76,2.3 0.76,3.75 0,2.22 -0.47,3.97 -1.41,5.23 -0.94,1.27 -2.26,1.9 -3.97,1.9l-5.59 0zm2.13 -11.53l0 8.85 3.5 0c0.99,0 1.77,-0.39 2.34,-1.17 0.57,-0.78 0.86,-1.86 0.86,-3.23 0,-2.96 -1.05,-4.44 -3.17,-4.44l-3.54 0zm0 -2.68l3.21 0c0.93,0 1.67,-0.36 2.23,-1.07 0.56,-0.71 0.83,-1.68 0.83,-2.9 0,-1.36 -0.26,-2.35 -0.77,-2.97 -0.52,-0.62 -1.3,-0.93 -2.36,-0.93l-3.14 0 0 7.87zm20.88 7.73l-6.75 0 -1.51 6.48 -2.19 0 6.15 -24.77 1.86 0 6.16 24.77 -2.18 0 -1.54 -6.48zm-6.11 -2.68l5.48 0 -2.75 -11.58 -2.73 11.58zm24.38 9.16l-2.13 0 -8.11 -19.09 0 19.09 -2.13 0 0 -24.77 2.13 0 8.13 19.17 0 -19.17 2.12 0 0 24.77zm7.86 -11.52l-1.97 3.15 0 8.37 -2.13 0 0 -24.77 2.13 0 0 12.25 7.16 -12.25 2.57 0 -6.34 10.94 6.84 13.83 -2.55 0 -5.71 -11.52zm-54.9 18.93l68.93 0 0 2.6 -68.93 0 0 -2.6zm0.72 -2.57l67.5 0 0 1.74 -67.5 0 0 -1.74zm0.69 -1.87l66.11 0 0 1.02 -66.11 0 0 -1.02zm0 -32.11l66.11 0 0 1.02 -66.11 0 0 -1.02zm0 -6.79l3.93 0 0 4.49 -3.93 0 0 -4.49zm62.19 0l3.93 0 0 4.49 -3.93 0 0 -4.49zm-11.11 0l8.42 0 0 4.49 -8.42 0 0 -4.49zm-11.11 0l8.42 0 0 4.49 -8.42 0 0 -4.49zm-11.11 0l8.42 0 0 4.49 -8.42 0 0 -4.49zm-11.11 0l8.42 0 0 4.49 -8.42 0 0 -4.49zm-11.11 0l8.42 0 0 4.49 -8.42 0 0 -4.49zm46.34 -4.51l-19.9 -7 -19.9 7 39.81 0zm-19.9 -5.83c1.35,0 2.44,1.09 2.44,2.44 0,1.35 -1.09,2.44 -2.44,2.44 -1.35,0 -2.44,-1.09 -2.44,-2.44 0,-1.35 1.09,-2.44 2.44,-2.44zm28.05 7.23l-28.05 -9.87 -28.05 9.87 56.1 0z"
   class="fil0" />
 </g>
</svg>
