<svg xmlns="http://www.w3.org/2000/svg" width="72.227mm" height="66.559mm" viewBox="0 0 458.69 422.69" shape-rendering="geometricPrecision" text-rendering="geometricPrecision" image-rendering="optimizeQuality" fill-rule="evenodd" clip-rule="evenodd"><defs><style type="text/css"><![CDATA[
    .fil0 {fill:black}
   ]]></style></defs><path class="fil0" d="M174.29 0c57.48 0 104.07 46.59 104.07 104.07 0 57.48-46.59 104.07-104.07 104.07-57.48 0-104.07-46.59-104.07-104.07 0-57.48 46.59-104.07 104.07-104.07zm258.06 422.69h-208.36c-14.49 0-26.34-11.85-26.34-26.34v-140.17c0-14.49 11.85-26.34 26.34-26.34h120.64v-13.69c0-6.28 2.58-12.02 6.73-16.17l.04-.04c4.15-4.15 9.89-6.73 16.17-6.73h44.02c6.32 0 12.06 2.58 16.21 6.73s6.73 9.89 6.73 16.21v13.78c13.48 1.12 24.16 12.5 24.16 26.25v140.17c0 14.49-11.85 26.34-26.34 26.34zm-68.32-192.85h51.11v-13.69c0-.96-.4-1.85-1.05-2.5-.64-.64-1.53-1.05-2.5-1.05h-44.02c-.98 0-1.87.39-2.51 1.02-.63.65-1.03 1.54-1.03 2.52v13.69zm-127.91 25.16c10.04 0 18.17 8.14 18.17 18.17 0 10.04-8.14 18.18-18.17 18.18-10.04 0-18.17-8.14-18.17-18.18s8.14-18.17 18.17-18.17zm93.02 16.75c33.46 0 60.59 27.12 60.59 60.59 0 33.46-27.12 60.59-60.59 60.59-33.46 0-60.59-27.12-60.59-60.59 0-33.46 27.12-60.59 60.59-60.59zm0 20.67c22.04 0 39.92 17.87 39.92 39.92 0 22.04-17.87 39.92-39.92 39.92-22.04 0-39.92-17.87-39.92-39.92 0-22.04 17.87-39.92 39.92-39.92zm-159.67 130.27h-112.8c-39.92 0-54.88-27.09-56.31-56.31-1.43-29.22.71-76.98 18.53-111.2 15.41-29.59 35.09-44.25 78.4-47.67 20.05 15.74 45 25.51 72.18 26.69v188.5z" id="Слой_x0020_1"/></svg>