<svg xmlns="http://www.w3.org/2000/svg" width="88.156mm" height="64.933mm" viewBox="0 0 413.46 304.55" shape-rendering="geometricPrecision" text-rendering="geometricPrecision" image-rendering="optimizeQuality" fill-rule="evenodd" clip-rule="evenodd"><defs><style type="text/css"><![CDATA[
    .fil0 {fill:black}
   ]]></style></defs><path class="fil0" d="M210.44 59.67c37.25.19 72.11 3.17 101.94 8.21v-51.36l68.24 30.51-61.25 12.37v9.72c10.94 2.02 21.13 4.33 30.43 6.88 39.33 10.79 63.66 26.81 63.66 45.48 0 6.15-2.64 12-7.58 17.48v110.98c-30.5 29.99-99.61 51.64-181.69 54.33l-.27.01-.27.01h-.02l-.52.02-.27.01-.27.01-.27.01-.27.01-.27.01-1.08.03-.27.01-.27.01-.27.01-.27.01-.27.01h-.27l-.27.01-.27.01h-.27l-1.36.03h-.27l-.82.02h-1.35l-2.74.03h-1.35l-3.02.01h-1.1l-3.02-.01h-1.35l-2.73-.03h-1.35l-.82-.02h-.27l-1.36-.03h-.27l-.27-.01-.27-.01h-.27l-.27-.01-.27-.01-.27-.01-.27-.01-.27-.01-1.08-.03-.27-.01-.27-.01-.27-.01-.27-.01-.27-.01-.53-.02h-.01l-.27-.01-.27-.01c-82.09-2.71-151.22-24.35-181.7-54.33v-110.99000000000001c-4.94-5.48-7.58-11.34-7.58-17.48 0-18.66 24.33-34.68 63.66-45.48 6.17-1.69 12.74-3.28 19.65-4.74v-54.73l68.24 30.51-61.25 12.37v10.44c32.18-6.24 71.16-9.98 113.17-10.16v-59.66l68.24 30.51-61.25 12.37v16.79zm13.75 237.46v-74.12h-34.92v74.12c-11.68-.38-23.11-1.16-34.19-2.28v-76.82000000000001c0-7.18 2.91-13.71 7.59-18.43l.02-.02c4.68-4.72 11.16-7.65 18.29-7.65h51.5c7.13 0 13.61 2.93 18.29 7.65l.02.02c4.68 4.72 7.59 11.24 7.59 18.43v76.82000000000001c-11.08 1.12-22.51 1.89-34.19 2.28zm-154.45-19.93v-77.3c0-7.65-3.09-14.91-8.05-20.44-4.97-5.53-11.81-9.33-19.31-10.05-.76-.07-1.61-.11-2.54-.11-6.33 0-12.03 2.32-16.27 6.23-4.25 3.91-7.09 9.43-7.69 15.81-.07.75-.1 1.62-.1 2.6v56c13.47 10.51 31.88 19.77 53.97 27.26zm261.39 3.95v-71.15c0-1-.04-1.88-.1-2.62-.61-6.73-3.59-12.56-8.06-16.69-4.46-4.12-10.47-6.57-17.15-6.57-.96 0-1.82.04-2.56.1h-.04c-7.81.73-14.95 4.67-20.15 10.43-5.2 5.76-8.42 13.33-8.42 21.31v76.96c20.34-2.78 39.34-6.77 56.49-11.77zm66.55-31.21v-56c0-.98-.03-1.85-.1-2.6-.6-6.38-3.44-11.9-7.69-15.81-4.24-3.91-9.94-6.23-16.27-6.23-.93 0-1.78.04-2.54.11-7.5.72-14.34 4.52-19.31 10.05-4.97 5.53-8.06 12.79-8.06 20.44v77.3c22.09-7.49 40.51-16.75 53.97-27.26zm-258.88 42.98v-76.96c0-7.98-3.23-15.55-8.42-21.31-5.2-5.76-12.34-9.7-20.15-10.43h-.04c-.74-.07-1.6-.1-2.56-.1-6.69 0-12.69 2.45-17.15 6.57-4.48 4.13-7.45 9.96-8.06 16.69-.06.74-.1 1.61-.1 2.62v71.15c17.15 5 36.15 8.99 56.49 11.77zm67.92-190.58l3.25.01h1.08l2.15.02h1.07l.54.01.54.01.53.01.53.01.51.01h.03l.53.01 2.11.04h.01l.53.01h.14l.38.01.53.01.53.01.53.01.52.01.53.01.31.01h.22l.52.01.52.01 1.05.03.52.01.47.01h.05l.52.02.52.02.52.02.52.02.52.02.52.02h.12l.4.01.51.02.51.02.51.02.51.02.51.02.28.01.23.01.51.02.51.02.51.02.51.02.51.02.44.02h.07l.51.02 2.02.1.5.03h.09l.41.02 6.32-28.48c-12.86-.72-26.18-1.09-39.84-1.09-13.66 0-26.98.37-39.84 1.09l6.32 28.48.41-.02h.09l.5-.03 2.02-.1.51-.02h.07l.44-.02.51-.02.51-.02.51-.02.51-.02.51-.02.23-.01.28-.01.51-.02.51-.02.51-.02.51-.02.51-.02.4-.01h.12l.52-.02.52-.02.52-.02.52-.02.52-.02.52-.02h.05l.47-.01.52-.01 1.05-.03.52-.01.52-.01h.22l.31-.01.53-.01.52-.01.53-.01.53-.01.53-.01.38-.01h.14l.53-.01h.01l2.11-.04.53-.01h.03l.51-.01.53-.01.53-.01.54-.01.54-.01h1.07l2.15-.02h1.08l3.25-.01zm52.08-26.83l-6.91 28.39 1.2.09 1.19.09 2.37.19 1.18.1 1.17.1 1.16.1 2.31.21 1.15.11 1.14.11 1.14.11 1.13.11h.02l1.11.12 1.12.12 1.11.12 1.1.12 2.14.24.05.01 1.09.13 1.08.13 1.07.13 1.06.13.17.02.88.11 1.05.14 1.04.14 1.04.14 1.03.14.24.03.78.11 1.02.15 2.01.3.99.15.98.16.98.15.08.01.89.15.96.16.95.16.37.06.57.1.94.17.93.17.92.17.92.17.42.08.48.09.9.17.89.17.88.18.87.18.86.18.86.18.07.01 1.62.35.83.19.51.11.31.07 1.62.38.13.03.67.16.78.19.54.14.23.06 1.53.39.18.05.57.15.74.2.57.16.17.05 16.79-27.63c-21.05-4.73-45.8-8.29-72.92-10.31zm83.66 12.9l-18.08 28.1.34.13.06.02.09.04.69.27.38.15.2.08.17.07.74.31.37.16.08.03.98.44.31.14.03.02.05.02.95.46.19.09.13.07.63.33.3.16.21.11.68.38.27.16.01.01.12.07.71.43.17.11.1.06.7.46.28.2.57.41.26.2.53.43.14.12.06.06.57.52.07.06.05.05c.2.19.38.38.56.58l.01.01.01.01.02.03c.17.19.33.38.48.57l.07.1.4.56.08.13.28.48.09.17.23.5.07.19.16.49.04.15.01.03 56.87-14.36c-7.19-8.59-24.91-16.76-49.79-23.59-1.21-.33-2.44-.66-3.68-.99zm57.02 32.55l-69.45 17.26h-.01c-.79.4-1.63.79-2.51 1.18l-.02.01-1.22.52-.12.05-.04.02-1.13.45-.27.1-.06.02-.33.13-1.01.38-.09.03-1.31.47-.25.09-.1.03-.36.12-1.1.37-.06.02-.32.1-1.14.36-.23.07-.15.05-.39.12-.39.12-.4.12-.4.12-.02.01-.38.11-.06.02-.76.22-.41.12-.2.06-.21.06-.42.12-.42.11-.43.11-.4.11h-.03l-.43.11-.43.11-.44.11-.44.11-.17.04-.27.07-.44.11-.45.11-.45.11-.38.09-.08.02-.46.11-.46.11-.46.11-.47.11-.47.11-.47.11 5.76 15.05c12.45-2.15 23.96-4.67 34.29-7.51 32.96-9.04 53.35-20.45 53.35-32.06l-.01-.49zm-97.09 41.59l-5.96-14.63-.62.11-.49.09-1.12.2-1.13.2-1.15.19-1.16.19-1.17.19h-.01c-1.56.25-3.15.49-4.77.72l-1.22.18-.17.02-1.07.15-1.24.17-1.09.15-.16.02-1.26.16-.46.06-.81.1-1.28.16-.61.07-.68.08-1.3.15h-.03l-1.29.15-1.32.15-1.33.14-1.34.14-1.11.11-.24.02-1.36.14-1.28.13-.09.01-1.37.13-1.38.13-.07.01-1.32.11-1.4.12-.23.02-1.18.1-1.42.11-.4.03-1.02.08-1.43.11-1.42.1-4.39.3-.92.06-.55.03-1.48.09-1.09.06-.39.02-1.49.08-1.28.07-.22.01-1.51.07-1.46.07h-.05l-1.52.07-1.53.07h-.13l-2.91.11h-.03l-.3.01-1.24.04-1.55.05-.48.01-2.63.07-.67.02-2.47.06-.85.02-.72.01-1.59.03-1.04.02-3.37.04h-.37l-3.03.02h-6.82l-3.03-.02h-.37l-3.37-.04-1.04-.02-1.59-.03-.72-.01-.85-.02-2.47-.06-.67-.02-2.63-.07-.48-.01-1.55-.05-1.24-.04-.31-.01h-.03l-2.91-.11h-.13l-1.53-.07-1.52-.07h-.05l-1.46-.07-1.51-.07-.22-.01-1.28-.07-1.49-.08-.39-.02-1.09-.06-1.48-.09-.55-.03-.92-.06-4.39-.3-1.42-.1-1.43-.11-1.02-.08-.4-.03-1.42-.11-1.18-.1-.23-.02-1.4-.12-1.32-.11-.07-.01-1.38-.13-1.37-.13-.09-.01-1.28-.13-1.36-.14-.24-.02-1.11-.11-1.34-.14-1.33-.14-1.32-.15-1.29-.15h-.03l-1.3-.15-.68-.08-.61-.07-1.28-.16-.81-.1-.46-.06-1.26-.16-.16-.02-1.09-.15-1.24-.17-1.07-.15-.17-.02-1.22-.18c-1.62-.24-3.21-.47-4.77-.72h-.01l-1.17-.19-1.16-.19-1.15-.19-1.13-.2-1.12-.2-.49-.09-.62-.11-5.96 14.63c28.28 4.29 60.89 6.74 95.66 6.74 34.77 0 67.38-2.45 95.66-6.74zm-200.78-1.53l5.76-15.05-.47-.11-.47-.11-.47-.11-.46-.11-.46-.11-.46-.11-.08-.02-.38-.09-.45-.11-.45-.11-.44-.11-.27-.07-.17-.04-.44-.11-.44-.11-.43-.11-.43-.11h-.03l-.4-.11-.43-.11-.42-.11-.42-.12-.21-.06-.2-.06-.41-.12-.76-.22-.06-.02-.38-.11-.02-.01-.4-.12-.4-.12-.39-.12-.39-.12-.15-.05-.23-.07-1.14-.36-.32-.1-.06-.02-1.1-.37-.36-.12-.1-.03-.25-.09-1.31-.47-.09-.03-1.01-.38-.33-.13-.06-.02-.27-.1-1.12-.45-.04-.02-.12-.05-1.22-.52-.02-.01c-.89-.39-1.73-.78-2.51-1.18h-.01l-69.45-17.26-.01.49c0 11.61 20.39 23.01 53.35 32.06 10.33 2.84 21.83 5.36 34.29 7.51zm-84.08-48.03l56.87 14.36.01-.03.04-.15c.04-.17.1-.33.16-.49l.07-.19c.07-.17.14-.33.23-.5l.09-.17c.08-.16.18-.32.28-.48l.08-.13c.12-.19.26-.38.4-.56l.07-.1c.15-.19.31-.38.48-.57l.02-.03.01-.01.01-.01c.18-.2.36-.38.56-.58l.05-.05.07-.06c.18-.17.37-.35.57-.52l.06-.06.14-.12.53-.43.26-.2.57-.41.28-.2.7-.46.1-.06.17-.11.71-.43.12-.07.01-.01.27-.16.68-.38.21-.11.3-.16.63-.33.13-.07.19-.09.95-.46.05-.02.03-.02.31-.14.98-.44.08-.03.37-.16.74-.31.17-.07.2-.08.38-.15.69-.27.09-.04.06-.02.34-.13-18.08-28.1c-1.24.32-2.47.65-3.68.99-24.88 6.83-42.6 15-49.79 23.59zm64.2-27.17l16.79 27.63.17-.05.57-.16.74-.2.57-.15.18-.05 1.53-.39.24-.06.54-.14.78-.19.67-.16.13-.03 1.62-.38.31-.07.51-.11.83-.19 1.62-.35.07-.01.86-.18.86-.18.87-.18.88-.18.89-.17.9-.17.48-.09.42-.08.92-.17.92-.17.93-.17.94-.17.57-.1.37-.06.95-.16.96-.16.89-.15.08-.01.98-.15.98-.16.99-.15 2.01-.3 1.02-.15.78-.11.24-.03 1.03-.14 1.04-.14 1.04-.14 1.05-.14.88-.11.17-.02 1.06-.13 1.07-.13 1.08-.13 1.09-.13.05-.01 2.14-.24 1.1-.12 1.11-.12 1.12-.12 1.11-.12h.02l1.13-.11 1.14-.11 1.14-.11 1.15-.11 2.31-.21 1.16-.1 1.17-.1 1.18-.1 2.37-.19 1.19-.09 1.2-.09-6.91-28.39c-27.12 2.02-51.87 5.58-72.92 10.31z" id="Слой_x0020_1"/></svg>