<svg xmlns="http://www.w3.org/2000/svg" width="113.545mm" height="113.545mm" viewBox="0 0 287.79 287.79" shape-rendering="geometricPrecision" text-rendering="geometricPrecision" image-rendering="optimizeQuality" fill-rule="evenodd" clip-rule="evenodd"><defs><style type="text/css"><![CDATA[
    .fil0 {fill:black}
   ]]></style></defs><path class="fil0" d="M42.15 42.14l76.9 41.76 24.85-83.9 24.85 83.9 76.9-41.76-68.87 68.87 68.87-68.87-41.76 76.9 83.9 24.85-83.9 24.85 41.76 76.9-76.9-41.76-24.85 83.91-24.85-83.91-76.9 41.76 41.76-76.9-83.91-24.85 83.91-24.85-41.76-76.9zm127.61 45.17l5.89 19.9 50.56-50.56-56.45 30.65zm-29.34 48.35v-111.65l-25.46 85.98 25.46 25.67zm-33.19-23.52l-50.56-50.56 30.65 56.45 19.9-5.9zm28.44 35.23h-111.65l85.98 25.46 25.68-25.46zm-17.63 53.1l-5.9-19.9-50.56 50.56 56.45-30.65zm29.34-48.34v111.65l25.46-85.98-25.46-25.68zm53.1 17.63l-19.9 5.89 50.56 50.56-30.65-56.45zm-48.35-29.34h111.65l-85.98-25.46-25.68 25.46z" id="Слой_x0020_1"/></svg>