<svg xmlns="http://www.w3.org/2000/svg" width="91.861mm" height="65.669mm" viewBox="0 0 160.49 114.73" shape-rendering="geometricPrecision" text-rendering="geometricPrecision" image-rendering="optimizeQuality" fill-rule="evenodd" clip-rule="evenodd"><defs><style type="text/css"><![CDATA[
    .fil0 {fill:black}
   ]]></style></defs><path class="fil0" d="M120.45 74.83l40.04-20.33v54.84l-40.04-18.66v15.3c0 4.81-3.94 8.75-8.75 8.75h-102.95c-4.81 0-8.75-3.94-8.75-8.75v-46.09c0-4.81 3.94-8.75 8.75-8.75h102.95c4.81 0 8.75 3.94 8.75 8.75v14.94zm-34.15-74.83c12.17 0 22.04 9.87 22.04 22.04s-9.87 22.04-22.04 22.04-22.04-9.87-22.04-22.04 9.87-22.04 22.04-22.04zm-56.02 9.08c9.66 0 17.49 7.83 17.49 17.49 0 9.66-7.83 17.49-17.49 17.49-9.66 0-17.49-7.83-17.49-17.49 0-9.66 7.83-17.49 17.49-17.49z" id="Слой_x0020_1"/></svg>