<svg xmlns="http://www.w3.org/2000/svg" width="84.808mm" height="85.67mm" viewBox="0 0 228.64 230.96" shape-rendering="geometricPrecision" text-rendering="geometricPrecision" image-rendering="optimizeQuality" fill-rule="evenodd" clip-rule="evenodd"><defs><style type="text/css"><![CDATA[
    .fil0 {fill:black}
   ]]></style></defs><path class="fil0" d="M142.62.06c6.79.23 12.36 3.59 17.51 13.21 9.83 18.33 11.18 47.98 11.18 69.14 0 4.41-.07 8.64-.12 12.26-.04 2.58-.07 4.86-.07 6.9 0 15.38.16 34.26 2.68 53.44 1.55 11.8 3.99 23.73 7.84 35.03h-73.78s6.67 2.52 11.9 5.91c2.76 1.8 5.44 4.31 7.09 7.18 1.3 2.26 2.2 5.11 2.23 8.69.04 5.84-1.73 11.38-6.57 15.02-5.1 3.84-12.05 4.56-18.27 3.9-6.56-.69-12.75-4.24-18.07-9.8-5.71-5.96-10.41-14.2-13.55-23.73-3.35-10.18-6.45-21.27-8.69-35.17-2.25-13.95-3.66-30.85-3.66-52.67 0-21.92-.24-39.46-1.06-53.12-.83-13.79-2.29-23.61-4.73-29.95-3.78-9.82-8.65-20.26-18.22-26.29h102.32c1.34 0 2.69.03 4.03.06zm-77.5 22.59c-2.22 0-4.02-1.8-4.02-4.02 0-2.22 1.8-4.02 4.02-4.02h83.47c2.22 0 4.02 1.8 4.02 4.02 0 2.22-1.8 4.02-4.02 4.02h-83.47zm13.67 153.37c-2.22 0-4.02-1.8-4.02-4.02 0-2.22 1.8-4.02 4.02-4.02h84.95c2.22 0 4.02 1.8 4.02 4.02 0 2.22-1.8 4.02-4.02 4.02h-84.95zm-3.06-17.04c-2.22 0-4.02-1.8-4.02-4.02 0-2.22 1.8-4.02 4.02-4.02h85.27c2.22 0 4.02 1.8 4.02 4.02 0 2.22-1.8 4.02-4.02 4.02h-85.27zm-1.78-17.04c-2.22 0-4.02-1.8-4.02-4.02 0-2.22 1.8-4.02 4.02-4.02h85.45c2.22 0 4.02 1.8 4.02 4.02 0 2.22-1.8 4.02-4.02 4.02h-85.45zm-.82-17.04c-2.22 0-4.02-1.8-4.02-4.02 0-2.22 1.8-4.02 4.02-4.02h85.52c2.22 0 4.02 1.8 4.02 4.02 0 2.22-1.8 4.02-4.02 4.02h-85.52zm-.14-17.04c-2.22 0-4.02-1.8-4.02-4.02 0-2.22 1.8-4.02 4.02-4.02h85.45c2.22 0 4.02 1.8 4.02 4.02 0 2.22-1.8 4.02-4.02 4.02h-85.45zm-.08-17.04c-2.22 0-4.02-1.8-4.02-4.02 0-2.22 1.8-4.02 4.02-4.02h85.7c2.22 0 4.02 1.8 4.02 4.02 0 2.22-1.8 4.02-4.02 4.02h-85.7zm-.35-17.04c-2.22 0-4.02-1.8-4.02-4.02 0-2.22 1.8-4.02 4.02-4.02h85.87c2.22 0 4.02 1.8 4.02 4.02 0 2.22-1.8 4.02-4.02 4.02h-85.87zm-.83-17.04c-2.22 0-4.02-1.8-4.02-4.02 0-2.22 1.8-4.02 4.02-4.02h85.6c2.22 0 4.02 1.8 4.02 4.02 0 2.22-1.8 4.02-4.02 4.02h-85.6zm-1.81-17.04c-2.22 0-4.02-1.8-4.02-4.02 0-2.22 1.8-4.02 4.02-4.02h84.74c2.22 0 4.02 1.8 4.02 4.02 0 2.22-1.8 4.02-4.02 4.02h-84.74zm149.73 155.23c3.93 3.31 8.88 7.44 9 18.27.14 12.68-6.79 17.77-13.05 17.77h-89.78c6.15-4.7 8.6-11.65 8.55-19.16-.05-7.96-3.7-13.55-7.38-16.86l92.66-.02zm-175.86-179.86l-43.77.36c2.17-4.87 5.37-9.08 9.93-11.98 3.16-2 7.19-3.45 12.24-3.44 10.62.02 17.05 6.8 21.61 15.07z" id="Слой_x0020_1"/></svg>