<svg xmlns="http://www.w3.org/2000/svg" width="93.677mm" height="46.008mm" viewBox="0 0 320.75 157.53" shape-rendering="geometricPrecision" text-rendering="geometricPrecision" image-rendering="optimizeQuality" fill-rule="evenodd" clip-rule="evenodd"><defs><style type="text/css"><![CDATA[
    .fil0 {fill:black;fill-rule:nonzero}
   ]]></style></defs><path class="fil0" d="M102.43 109.38c-1.58 1.39-2.52 3.11-2.74 4.83-.21 1.66.25 3.37 1.45 4.8l.07.08c1.36 1.57 2.93 2.53 4.54 2.74 1.52.2 3.16-.25 4.78-1.45 1.92-1.42 3.17-2.75 3.97-3.83.75-1.01 1.1-1.77 1.23-2.13l.04-.1c.19-.52.57-1.89.26-3.5l-.01-.06c-.19-.96-.66-2.02-1.59-3.04l-.25-.27c-1.25-1.25-2.83-2.01-4.58-1.97-1.89.04-4.05.98-6.36 3.14l-.8.76zm203.71-100.97c9.37 20.38 14.61 43.05 14.61 66.94 0 16.87-2.61 33.12-7.44 48.39l-.49.24c-.09.05-33.46 17.08-38.1 15.61-2.3-.73-5.67-6.05-9.28-13.45-1.16-2.37-2.36-4.98-3.58-7.72-3.93 1.65-8.28 3.31-12.29 4.48-6.07 1.77-10.52 1.27-14.02-.52-2.89-1.48-5.05-3.79-6.92-6.42l-7.86 5.46c1 1.43 1.68 2.65 1.92 3.56.42 1.6.15 3.28-.6 4.86-.8 1.7-2.18 3.34-3.79 4.66-1.6 1.3-3.48 2.32-5.32 2.81-.9.24-1.8.35-2.66.32-.43 2.08-1.5 4.42-3.23 6.3-1.83 1.98-4.38 3.45-7.68 3.59-.98.04-2.01-.03-3.09-.24-.8-.16-1.6-.36-2.39-.6-.81 1.37-2.13 3.01-3.89 4.32-1.87 1.38-4.27 2.48-7.16 2.64-1.97.11-3.78 0-5.53-.35-4.89 5.87-11.54 3.15-18.64.25l-.95-.38c-2 1.99-6.95 5.88-13.7 3.76-.84-.26-1.6-.57-2.28-.92-2.99-1.52-4.39-3.69-4.97-5.73-.18-.64-.28-1.26-.31-1.85-.58.18-1.19.29-1.83.31-2.46.08-5.06-.84-7.13-2.33-2.1-1.51-3.73-3.64-4.21-5.96l-.03-.18c-.06-.5-.08-.97-.07-1.41-1.69.64-3.38.83-5.02.61-2.79-.38-5.38-1.95-7.59-4.51l-.11-.13c-2.18-2.61-2.84-5.63-2.27-8.6.04-.21.09-.42.14-.62-1.05.21-2.09.25-3.12.11-2.57-.34-4.97-1.74-6.94-4.03l-.1-.13c-1.93-2.31-2.67-5.08-2.33-7.8.22-1.74.89-3.45 1.96-4.99-3.23-2.42-7.89-6.82-10.38-9.22-2.92 5.15-5.79 8.74-8.21 8.67-3.52-.11-10.5-2.92-17.75-5.85-1.34-.54-2.69-1.09-4.03-1.62-1.94 4.1-3.9 8.12-5.75 11.71-4.29 8.32-8.28 14.67-10.83 15.4-2.97.86-22.86-8.97-36.76-16.13-2.71-11.68-4.14-23.85-4.14-36.35 0-27.24 6.8-52.89 18.78-75.36 20.2 6.1 65.35 20.46 66.12 27.18v.04c11.64 4.17 22.27 8.43 23.28 10.39.33.65.52 1.53.58 2.61 2.5.66 8.02 1.99 12.43 2.24 1.44.08 4.06.15 7.37.24 7.95.21 19.8.51 28.35 1.32 1.12-.45 2.25-.94 3.36-1.43 4.13-1.8 8.12-3.53 11.4-3.34 3.68.21 7.35 1.91 12.03 4.08 2.05.95 4.3 1.99 6.97 3.08 7.55 3.1 18.46 5.96 19.89 6.33 3.77-3.41 16.1-8.74 23.15-11.63-.03-.64-.02-1.21.05-1.69 1.04-7.03 54.92-25.26 72.37-31zm-45.82 106.47c-2.68-6.24-5.35-12.95-7.66-19.14-1.69-4.54-3.72-9.7-5.82-15.04-5.16-13.1-10.74-27.27-12.54-35.68-7.86 3.14-20.85 8.53-21.03 9.83-.14.99 1.52 4.56 3.99 9.87 2.47 5.33 5.71 12.31 8.79 20.64 6.34 17.19 7.62 25.82 7.63 25.84.1.77-.26 1.49-.86 1.88l-.99.69c1.55 2.16 3.29 4.03 5.49 5.16 2.68 1.38 6.22 1.72 11.21.27 3.84-1.12 8.01-2.71 11.81-4.31zm-175.69-83.86c-.71 4.15-2.58 10.28-5.01 17.14-4.54 12.82-11.11 28.49-15.5 38.18-1.56 3.45-3.26 7.15-4.99 10.87 1.26.5 2.54 1.02 3.81 1.53 6.93 2.8 13.59 5.49 16.42 5.57 1.26.04 3.38-3.32 5.79-8.12.05-.4.22-.79.51-1.1l.08-.08c2.88-5.88 6.08-13.53 8.71-19.8l2.03-4.84c2.74-6.42 5.44-14.18 7.04-20.55.78-3.12 1.32-5.84 1.46-7.77-.05-.27-.04-.56.04-.84.01-.82-.07-1.44-.27-1.82-.66-1.28-9.71-4.74-20.12-8.37zm132.16 91.39c-.11-.1-.22-.22-.31-.35l-.12-.2c-3.31-4.18-9.12-10.24-14.04-15.37-3.05-3.17-5.76-6-7.43-7.94-2.77-.38-5.61-1.03-8.78-2.44-3.39-1.51-7.14-3.89-11.55-7.75-6.47-5.67-8.34-12.71-8.88-16.39-1.12.24-2.54.44-4.13.44l-3.97.03c-.91 2.11-3.2 6.55-8.03 11.53-1.5 1.55-3.13 2.73-4.78 3.58l-.16.09c-2.62 1.32-5.3 1.8-7.66 1.63-2.49-.18-4.67-1.1-6.14-2.55-.56-.56-1.02-1.17-1.35-1.85-1.88-3.81-.21-7.96 1.44-12.05.57-1.4 1.13-2.8 1.5-4.09.51-1.79.87-4.02 1.23-6.24.63-3.9 1.26-7.82 2.78-10.16 1.73-2.67 5.24-4.06 9.45-5.19-6.11-.29-12.49-.45-17.37-.58-3.43-.09-6.14-.16-7.49-.24-4.33-.25-9.53-1.42-12.42-2.15-.25 1.96-.7 4.2-1.3 6.59-1.65 6.57-4.43 14.55-7.24 21.14l-2.03 4.81c-2.53 6.03-5.55 13.25-8.62 19.25 2.27 2.2 7.9 7.59 11.12 9.92l.13-.12c3.04-2.83 6.07-4.08 8.84-4.16h.05c2.88-.07 5.41 1.11 7.39 3.09l.38.39c1.48 1.62 2.22 3.33 2.54 4.92l.02.07c.26 1.36.21 2.62.05 3.63 1.31-.48 2.59-.7 3.83-.72 3.15-.04 5.91 1.3 8.09 3.49.12.12.34.32.43.45.25.27.48.55.68.82l.08.11c1.42 1.95 1.92 4.05 1.79 6.14.78-.4 1.64-.74 2.61-1.01 2.27-.63 4.6-.22 6.56.75 2.22 1.1 4.02 2.97 4.78 4.89.68 1.72.52 3.61-.11 5.47-.13.39-.28.77-.45 1.15 1.41.11 2.92.53 4.19 1.43l.11.08c.66.49 1.26 1.11 1.74 1.87 1.84 2.93 1.32 6.7.81 8.78l3.05 1.65 2.1.85c4.95 2.02 9.64 3.94 12.88 2-2.8-1.24-5.46-3.38-8.79-6.01-.84-.66-1.4-1.77-.75-2.62.65-.84 1.88-.64 2.72.02 3.21 2.52 6.06 4.11 8.64 5.17 2.48 1.02 4.93 1.42 7.8 1.26 2.03-.11 3.75-.9 5.09-1.9 1.17-.87 2.04-1.82 2.59-2.58-2.4-1.13-4.77-2.64-7.17-4.46-4.26-3.23-8.16-7.64-12.78-12.47-.74-.77-1.15-1.8-.38-2.54.77-.74 1.83-.42 2.57.35 4.5 4.71 8.85 8.49 12.9 11.56 2.55 1.93 5.04 3.46 7.53 4.51l.17.01c.39.05.74.21 1.02.45.94.34 1.89.6 2.84.78.8.15 1.53.21 2.2.18 2.16-.09 3.83-1.06 5.03-2.36 1.25-1.35 2.01-3.06 2.29-4.54l.05-.31c-3.03-1.65-7.84-4.9-13.46-10.19-4.37-4.11-8.66-9.19-13.61-15.99-.63-.86-1.03-2.35-.18-2.98.86-.63 2.05.13 2.67 1 4.8 6.58 9.53 11.17 13.74 15.13 6.07 5.71 11.03 8.87 13.65 10.12.67.32 1.58.3 2.57.04 1.3-.35 2.68-1.1 3.88-2.08 1.19-.96 2.18-2.12 2.72-3.29.37-.79.53-1.57.36-2.22-.21-.79-.99-2.03-2.17-3.57zm1.63-4.06l11.22-7.79c-.55-2.77-2.34-10.65-7.21-23.85-3.01-8.16-6.22-15.08-8.67-20.35-1.99-4.28-3.51-7.56-4.09-9.84-1.45-.37-12.65-3.31-20.46-6.51-2.57-1.05-4.96-2.16-7.12-3.16-4.31-2-7.69-3.56-10.65-3.73-2.38-.14-5.96 1.42-9.67 3.03-2.9 1.26-5.89 2.56-8.72 3.24l-2 .47c-5.25 1.23-10.01 2.36-11.46 4.59-1.06 1.65-1.64 5.16-2.2 8.67-.38 2.36-.76 4.72-1.32 6.68-.42 1.48-1.03 2.98-1.63 4.49-1.33 3.29-2.67 6.62-1.57 8.85.15.29.35.56.59.8.83.82 2.15 1.34 3.73 1.46 1.71.12 3.69-.24 5.66-1.24l.14-.06c1.28-.67 2.57-1.6 3.77-2.85 6.08-6.27 7.62-11.31 7.62-11.32.26-.79.98-1.3 1.76-1.33.05 0 2.05-.08 5.36-.08 3.09 0 4.98-.77 4.99-.77.95-.48 2.11-.09 2.58.87.14.28.2.58.2.87.01.03-.05 9.09 7.76 15.94 4.08 3.57 7.51 5.76 10.59 7.13 3.02 1.34 5.74 1.9 8.44 2.23.56.07 1.04.38 1.34.81 1.48 1.77 4.37 4.78 7.65 8.2 4.51 4.7 9.74 10.15 13.34 14.57zm-79.58 23.65c.67-.89 1.43-1.88 2.11-2.76l.25-.32.01-.01.02-.03.02-.02.02-.02v-.01l.02-.03.01-.01c.32-.44.63-.86.92-1.23 1.09-1.39 2.19-3.08 2.74-4.71.36-1.05.48-2.03.19-2.77-.42-1.07-1.52-2.16-2.91-2.85-1.18-.59-2.56-.85-3.86-.49-2.95.8-4.71 2.82-6.82 5.24l-.51.57c-.53.68-1.1 1.32-1.68 1.92-1.46 1.7-2.45 3.17-2.25 5.25.3 1.28 1.32 2.54 2.65 3.49 1.43 1.03 3.18 1.67 4.78 1.61 1.51-.05 2.98-1.3 4.29-2.83zm6.37 11.2c3.91 1.23 7.02-.44 8.82-1.89l-2.23-1.21c-.8-.44-1.21-1.41-.91-2.32 0-.01 1.69-4.47.06-7.06-.2-.32-.45-.58-.73-.79l-.08-.06c-.76-.54-1.73-.75-2.62-.76-.81-.01-1.49.12-1.85.31l-.3.4-.06.08-.06.08-.05.07-1.07 1.43c-.73 1-1.52 2.09-2.4 3.11-.57.76-1.01 1.38-1.14 1.65l-.05.14c-.18.58-.33 1.65 0 2.81.32 1.15 1.16 2.4 2.99 3.33.48.25 1.05.48 1.69.68zm-18.72-21.32l.88-1c.18-.19.36-.39.53-.59l.02-.02.01-.02.01-.01c1.01-1.26 1.87-2.65 2.41-4.07.78-2.07.84-4.21-.48-6.03l-.45-.56-.35-.36c-1.48-1.48-3.3-2.39-5.34-2.37-2.15.03-4.61 1.08-7.28 3.56l-.89.84-.05.04c-1.88 1.66-3.12 3.63-3.5 5.61-.35 1.84.06 3.73 1.42 5.36l.08.09c1.6 1.84 3.37 2.96 5.19 3.21 1.71.23 3.57-.3 5.47-1.7.55-.4 1.12-.88 1.68-1.4l.63-.61z" id="Слой_x0020_1"/></svg>