<svg xmlns="http://www.w3.org/2000/svg" width="72.499mm" height="64.146mm" viewBox="0 0 170.23 150.61" shape-rendering="geometricPrecision" text-rendering="geometricPrecision" image-rendering="optimizeQuality" fill-rule="evenodd" clip-rule="evenodd"><defs><style type="text/css"><![CDATA[
    .fil0 {fill:black}
   ]]></style></defs><g id="Слой_x0020_1"><circle class="fil0" cx="68.24" cy="34.39" r="34.39"/><path class="fil0" d="M103.66 81.04h17.74v-13.84h-17.74v13.84zm17.74 6.72h-21.41s-17.52 11.07-17.52 30.83v32.02h30.15v-29.25h8.78v-7.31h-4.29v-18.97h4.29v-7.31zM149.04 81.04h-17.74v-13.84h17.74v13.84zm-17.74 6.72h21.41s17.52 11.07 17.52 30.83v32.02h-30.15v-29.25h-8.78v-7.31h4.29v-18.97h-4.29v-7.31zM72.38 135.3h-72.38c.92-27.4 17.11-48.3 40.01-57.47 7.6 8.03 18.67 13.09 31 13.09 4.05 0 7.96-.55 11.66-1.56-5.24 6.49-10.28 15.82-10.28 27.65v18.29z"/></g></svg>