<svg xmlns="http://www.w3.org/2000/svg" width="74.754mm" height="70.445mm" viewBox="0 0 163.42 154" shape-rendering="geometricPrecision" text-rendering="geometricPrecision" image-rendering="optimizeQuality" fill-rule="evenodd" clip-rule="evenodd"><defs><style type="text/css"><![CDATA[
    .fil0 {fill:black}
   ]]></style></defs><path class="fil0" d="M24.59 0h114.24s.65 4.15.16 11.93h24.42s.72 23.86-10.48 43.74c-7.8 13.84-23.13 24-37.34 27.07-13.75 20.54-27.37 22.82-27.37 22.82s-3.25 16.63 10.12 30.01c13.38 13.38 25.31 13.01 25.31 13.01v5.42h-83.88v-5.42s11.93.36 25.31-13.01c13.38-13.38 10.12-30.01 10.12-30.01s-13.62-2.27-27.37-22.82c-14.21-3.07-29.54-13.23-37.34-27.07-11.21-19.88-10.48-43.74-10.48-43.74h24.42c-.49-7.78.16-11.93.16-11.93zm97.16 72.16c1.5-2.94 2.98-6.14 4.42-9.62 7.26-17.58 10.56-31.92 11.99-42.41h16.79c-.98 10.85-4.36 23.01-9.16 31.52-2.47 4.39-5.85 8.3-9.64 11.6-3.69 3.21-8.83 6.53-14.39 8.92zm-80.09 0c-1.5-2.94-2.98-6.14-4.42-9.62-7.26-17.58-10.56-31.92-11.99-42.41h-16.79c.98 10.85 4.36 23.01 9.16 31.52 2.47 4.39 5.85 8.3 9.64 11.6 3.69 3.21 8.83 6.53 14.39 8.92z" id="Слой_x0020_1"/></svg>