<?xml version="1.0" encoding="UTF-8" standalone="no"?>
<svg
   xmlns:dc="http://purl.org/dc/elements/1.1/"
   xmlns:cc="http://creativecommons.org/ns#"
   xmlns:rdf="http://www.w3.org/1999/02/22-rdf-syntax-ns#"
   xmlns:svg="http://www.w3.org/2000/svg"
   xmlns="http://www.w3.org/2000/svg"
   xmlns:sodipodi="http://sodipodi.sourceforge.net/DTD/sodipodi-0.dtd"
   xmlns:inkscape="http://www.inkscape.org/namespaces/inkscape"
   version="1.1"
   id="svg500"
   width="1088.4369"
   height="1168.1382"
   viewBox="0 0 1088.4369 1168.1381"
   sodipodi:docname="БАМБИНТОН.svg"
   inkscape:version="1.0 (4035a4fb49, 2020-05-01)">
  <metadata
     id="metadata506">
    <rdf:RDF>
      <cc:Work
         rdf:about="">
        <dc:format>image/svg+xml</dc:format>
        <dc:type
           rdf:resource="http://purl.org/dc/dcmitype/StillImage" />
        <dc:title></dc:title>
      </cc:Work>
    </rdf:RDF>
  </metadata>
  <defs
     id="defs504" />
  <sodipodi:namedview
     inkscape:document-rotation="0"
     pagecolor="#ffffff"
     bordercolor="#666666"
     borderopacity="1"
     objecttolerance="10"
     gridtolerance="10"
     guidetolerance="10"
     inkscape:pageopacity="0"
     inkscape:pageshadow="2"
     inkscape:window-width="1920"
     inkscape:window-height="1018"
     id="namedview502"
     showgrid="false"
     inkscape:zoom="0.65051016"
     inkscape:cx="544.45776"
     inkscape:cy="603.8776"
     inkscape:window-x="-6"
     inkscape:window-y="-6"
     inkscape:window-maximized="1"
     inkscape:current-layer="g508" />
  <g
     transform="translate(-18.208871,17.237433)"
     inkscape:groupmode="layer"
     inkscape:label="Image"
     id="g508">
    <path
       id="path55"
       d="m 1041.7785,1146.4302 c -2.5815,-2.4588 -6.7746,-7.8867 -9.3179,-12.0619 -6.4637,-10.6108 -20.652,-27.083 -132.60071,-153.94594 -36.9281,-41.84782 -69.356,-79.72531 -71.563,-83.58929 -1.3548,-2.37205 -1.4659,-4.17294 -0.4641,-7.52224 1.1104,-3.7125 0.8979,-5.05941 -1.3541,-8.58293 -5.8741,-9.19048 -32.7329,-40.48231 -101.1753,-117.87418 l -41.1176,-46.49412 -18.3237,-10.58284 C 596.69229,665.82784 548.02979,641.13005 490.11519,616.57958 443.77239,596.93448 423.85982,591.32016 385.37583,587.04843 327.1695,580.58752 302.16445,574.88452 263.92196,559.34794 234.96597,547.58415 201.84236,528.86727 175.00619,509.10507 157.7549,496.40118 123.32973,464.51649 109.16665,448.12428 77.082728,410.99067 51.637698,368.09697 36.126708,324.99791 c -12.294,-34.16028 -16.19159,-53.57197 -17.53012,-87.30766 -1.32935,-33.50413 0.75813,-60.01897 6.28695,-79.85618 10.72467,-38.47964 26.81666,-69.024351 50.61975,-96.08294 38.869572,-44.185676 97.973332,-73.136017 159.419642,-78.087309 22.46055,-1.809852 67.30577,-0.76131 83.94368,1.962717 116.86674,19.1339082 228.49428,100.502505 286.07278,208.526942 20.3579,38.19386 31.5449,70.48562 37.4725,108.16578 4.3357,27.56103 3.6765,72.88466 -1.4185,97.52267 -5.0831,24.5809 0.5656,61.98023 20.0769,132.9255 15.6216,56.80202 32.949,105.92138 50.7976,144.00015 5.4817,11.69486 9.6381,18.32963 17.8971,28.56868 26.1065,32.36554 110.6472,127.95955 126.4498,142.98264 6.4143,6.09782 10.7819,9.31129 12.6557,9.31129 9.7643,0 14.56,4.87873 112.499,114.44707 70.85671,79.27024 102.53761,113.76924 107.42711,116.98324 3.9219,2.5779 17.8491,17.4644 17.8491,19.0785 0,0.8032 -40.6816,31.8779 -51.7795,39.552 -2.5531,1.7654 -5.4862,3.2098 -6.518,3.2098 -1.0318,0 -3.9882,-2.0118 -6.5697,-4.4706 z M 664.97289,663.12234 c 0,-0.75814 -4.6023,-14.30403 -10.2272,-30.10196 -16.7614,-47.0749 -30.5109,-93.96857 -40.7401,-138.9468 -1.8576,-8.1679 -3.5959,-15.05238 -3.8629,-15.29884 -0.267,-0.24647 -2.6533,2.68106 -5.3029,6.50562 -25.4864,36.7886 -57.8545,61.82779 -108.37731,83.83796 l -16.75657,7.29997 16.11559,6.29689 c 32.90082,12.85542 95.77769,43.00623 143.96829,69.03582 12.7852,6.90583 23.6818,12.59963 24.2145,12.65291 0.5327,0.0533 0.9686,-0.52343 0.9686,-1.28157 z M 384.63319,555.30918 c 0.76741,-0.70841 -4.07587,-3.97893 -5.96121,-4.02541 -2.1419,-0.0528 -3.35943,2.10311 -2.43864,4.31818 0.56661,1.36304 1.71378,1.63943 4.30897,1.03817 1.94524,-0.4507 3.78612,-1.04961 4.09088,-1.33094 z m 29.49336,0.61019 c 25.6818,-2.64354 26.61982,-5.55704 8.46662,-26.29762 l -7.1521,-8.17146 -4.05537,3.16936 c -2.23045,1.74315 -8.55927,6.61764 -14.06404,10.83222 -5.50477,4.21457 -10.00867,8.49022 -10.00867,9.50143 0,2.91655 5.24021,9.96295 8.2414,11.08205 3.66935,1.36825 4.18411,1.36503 18.57216,-0.116 z m -44.79936,-6.52213 c 2.78927,-1.78435 5.07139,-3.85622 5.07139,-4.60414 0,-1.45572 -14.59871,-19.08967 -20.96519,-25.32408 l -3.84083,-3.76114 -4.06286,2.24306 c -5.118,2.82561 -21.20519,15.68918 -23.6493,18.91035 -1.42476,1.87777 -1.50955,2.98682 -0.37756,4.93935 3.02743,5.22192 26.67002,12.27495 37.81568,11.28113 2.71552,-0.24214 7.21942,-1.90017 10.00867,-3.68453 z m 102.58759,-4.16235 c 8.82497,-2.65035 16.31419,-5.22029 16.64271,-5.711 0.99587,-1.48745 -3.2623,-8.49315 -6.66328,-10.9627 -3.0652,-2.22572 -3.35216,-2.23574 -7.12422,-0.2486 -2.16171,1.13878 -8.92159,6.47592 -15.02196,11.86031 -10.32356,9.11191 -10.84185,9.79294 -7.48513,9.8353 1.98357,0.025 10.8269,-2.12296 19.65188,-4.77331 z M 457.98294,532.8385 c 5.83986,-4.47473 11.54568,-9.44294 12.67959,-11.04045 1.98568,-2.79756 1.86136,-3.15414 -3.37419,-9.67741 -6.95599,-8.66691 -14.20715,-15.714 -16.16903,-15.714 -1.98433,0 -14.76038,8.81692 -23.53711,16.24327 l -6.86842,5.81163 11.15703,12.92407 c 10.02349,11.61099 11.37736,12.75464 13.32561,11.25643 1.19273,-0.91721 6.94666,-5.3288 12.78652,-9.80354 z m -150.7393,4.2196 c 0,-4.31162 -20.62467,-27.53773 -24.45338,-27.53773 -4.36882,0 -21.60278,13.25545 -20.11776,15.47351 1.33044,1.98721 8.12997,4.90662 22.61664,9.71056 15.57165,5.16375 21.9545,5.84802 21.9545,2.35366 z m 84.47443,-5.33888 c 5.03528,-3.5271 11.47965,-8.2962 14.32082,-10.598 4.7979,-3.88705 5.02311,-4.34301 3.16257,-6.40277 -1.10177,-1.21974 -7.11453,-7.7115 -13.36171,-14.42615 l -11.35851,-12.20846 -7.84318,5.65159 c -4.31375,3.10839 -10.77926,8.12771 -14.36782,11.15409 -5.94355,5.01242 -6.39511,5.75564 -5.07025,8.3451 2.5905,5.06313 21.13785,24.89751 23.28195,24.89751 1.14459,0 6.20085,-2.8858 11.23613,-6.41291 z m 135.6888,-13.8257 c 1.47386,-1.5034 2.00025,-3.31131 1.49992,-5.15153 -0.86076,-3.16589 -11.20488,-13.95104 -13.38055,-13.95104 -2.94393,0 -30.06371,20.42603 -30.06371,22.64334 0,0.52995 2.64055,4.20622 5.8679,8.16949 l 5.86793,7.20593 13.96886,-8.29995 c 7.68287,-4.56497 14.99071,-9.34229 16.23965,-10.61624 z m -203.12816,8.01901 c 10.45084,-7.54898 20.41537,-15.68086 20.41609,-16.66121 0.001,-1.53125 -26.06218,-28.47017 -27.18853,-28.10195 -2.14382,0.70083 -24.54165,19.11668 -25.71801,21.14575 -0.90339,1.55823 -0.1099,3.5695 3.19651,8.10172 5.67029,7.77259 18.51404,20.58235 20.63695,20.58235 0.90348,0 4.79911,-2.28 8.65699,-5.06666 z m -66.23174,-7.65787 c 2.55306,-1.753 8.27228,-6.08863 12.70934,-9.63474 l 8.06742,-6.44746 -10.21539,-11.52605 c -14.17898,-15.99817 -16.14647,-17.58901 -19.83482,-16.03768 -4.03968,1.6991 -18.9543,12.8405 -21.26385,15.88436 -1.05913,1.39586 -1.54529,3.66685 -1.1199,5.23141 0.77794,2.86126 23.77428,25.75579 25.84571,25.73128 0.64325,-0.007 3.25841,-1.44812 5.81149,-3.20112 z m 231.75249,-8.63704 c 13.47136,-9.95866 19.3593,-16.16116 18.46475,-19.45128 -1.12684,-4.14455 -17.26485,-21.17931 -20.06438,-21.17931 -2.45985,0 -14.7571,8.18142 -24.6918,16.42758 -5.62211,4.66654 -5.74836,4.92191 -3.87433,7.83656 2.64574,4.11486 19.75044,22.04789 21.12567,22.14872 0.60957,0.0447 4.67761,-2.55733 9.04009,-5.78227 z m -62.64105,-4.16406 c 5.43129,-4.20381 12.07504,-9.74477 14.76389,-12.31327 l 4.88882,-4.67002 -12.3548,-13.27066 c -6.79515,-7.29887 -12.88995,-13.57598 -13.54402,-13.94914 -2.12911,-1.2147 -28.43354,20.05794 -28.43354,22.99448 0,0.91315 1.26677,3.35252 2.81507,5.42079 3.74141,4.99798 20.53728,23.4311 21.34992,23.4311 0.35178,0 5.08337,-3.43948 10.51466,-7.64328 z m 123.48638,-5.63971 c 13.9867,-13.56775 14.8108,-15.06463 11.1798,-20.30777 -1.5092,-2.17921 -4.1984,-5.46771 -5.9762,-7.3078 -2.8207,-2.91961 -3.5375,-3.1473 -5.6298,-1.78823 -4.9228,3.19772 -28.44364,21.8545 -28.5182,22.62071 -0.15214,1.56369 14.5262,17.68176 16.1024,17.68176 0.8837,0 6.6626,-4.9044 12.842,-10.89867 z m -328.22967,1.43747 c -2.42767,-3.13383 -4.0642,-4.29536 -4.92665,-3.49677 -0.86193,0.79812 0.11132,2.3588 2.92612,4.69258 5.73067,4.75128 6.33005,4.39301 2.00053,-1.19581 z m 151.14313,-13.2605 6.42091,-5.43542 -12.54009,-14.53321 c -6.89705,-7.99325 -13.02238,-14.5332 -13.61186,-14.5332 -1.20545,0 -21.01702,15.87632 -25.78398,20.66243 l -3.09208,3.10448 5.18574,6.29694 c 2.85214,3.46331 8.80556,9.92475 13.22979,14.35874 l 8.04407,8.06182 7.8633,-6.27358 c 4.32481,-3.45046 10.7527,-8.71951 14.2842,-11.709 z m -81.71045,4.89707 c 3.14051,-1.93531 9.46157,-6.6705 14.04678,-10.52263 l 8.33676,-7.00388 -12.5821,-14.46979 c -6.92016,-7.95838 -13.06898,-14.74755 -13.66405,-15.08705 -1.30853,-0.74654 -9.2405,4.4474 -21.42195,14.02732 -4.97205,3.91019 -9.26487,7.28546 -9.5396,7.5006 -1.4333,1.12242 25.07725,29.07418 27.57509,29.07418 0.84646,0 4.10854,-1.58343 7.24907,-3.51875 z m -81.46226,-1.71011 c 0,-2.4109 -9.15581,-14.54903 -17.10786,-22.6804 -5.95738,-6.09172 -7.3436,-6.94167 -10.23046,-6.27282 -1.83663,0.42553 -4.28245,2.1024 -5.43515,3.72639 -2.01537,2.83939 -1.94056,3.11596 1.94911,7.20546 5.40172,5.67926 25.72005,19.67376 28.5639,19.67376 1.24326,0 2.26046,-0.74357 2.26046,-1.65239 z m 27.6428,-17.56544 7.79117,-6.7002 -3.73092,-5.22137 c -4.14064,-5.7948 -21.13083,-24.89198 -22.14565,-24.89198 -3.45738,0 -28.28329,16.95844 -28.28329,19.32015 0,0.66408 6.10206,8.05188 13.56013,16.41733 l 13.56013,15.2099 5.72864,-3.71682 c 3.15074,-2.04426 9.23466,-6.73191 13.51979,-10.41701 z m 290.57753,5.65006 c 16.52902,-12.20689 19.31752,-14.8903 18.07022,-17.38948 -0.6389,-1.28006 -5.7366,-7.20083 -11.32839,-13.1573 -8.99414,-9.58075 -10.40929,-10.64142 -12.26869,-9.1957 -14.45117,11.23602 -28.5764,22.68562 -28.5764,23.16341 0,1.31332 13.17216,15.77846 18.14354,19.92452 3.49069,2.91118 5.80589,4.04996 6.80987,3.34958 0.83662,-0.58363 4.95406,-3.59639 9.14985,-6.69503 z m -59.60922,-6.01405 c 7.63565,-5.71548 13.88299,-10.98716 13.88299,-11.71485 0,-1.90702 -13.01687,-17.26179 -19.86484,-23.43268 l -5.83141,-5.25483 -4.9092,3.45237 c -2.70004,1.89881 -9.68372,7.37163 -15.51926,12.16185 l -10.61009,8.70947 13.10682,14.21839 c 8.23019,8.92817 13.61938,13.85259 14.48442,13.23522 0.75766,-0.54075 7.62492,-5.65947 15.26057,-11.37494 z m -66.38881,-7.07458 c 5.70156,-4.49789 10.71759,-9.02262 11.14673,-10.05495 0.97824,-2.3533 -6.55319,-12.65171 -16.22295,-22.1831 l -7.21581,-7.11257 -4.40716,2.84452 c -4.92484,3.17867 -25.71592,19.24865 -25.71592,19.87652 0,0.66413 18.17543,22.16826 21.71052,25.68663 3.21903,3.20382 3.34333,3.22559 6.8085,1.19216 1.94128,-1.13918 8.19452,-5.75134 13.89609,-10.24921 z m 173.50415,4.30346 c 5.9392,-8.24965 16.5402,-25.50669 16.5402,-26.92524 0,-3.60736 -12.6694,3.52041 -25.7998,14.51497 l -8.3654,7.00455 5.5015,6.72639 c 3.0257,3.69951 5.6879,6.72639 5.9158,6.72639 0.2279,0 3.0214,-3.62118 6.2077,-8.04706 z m -246.3831,-6.67503 c 12.77739,-8.90015 17.54942,-13.26424 17.54942,-16.04916 0,-2.72929 -6.20626,-10.25645 -18.20673,-22.08174 l -8.26781,-8.14712 -13.56013,10.9383 c -7.45808,6.01605 -13.74395,11.39836 -13.96861,11.96066 -0.54604,1.36671 24.20051,29.75605 25.9379,29.75605 0.7485,0 5.48069,-2.86965 10.51596,-6.37699 z m -154.07656,-3.87973 6.0359,-5.4881 -13.09446,-14.67657 c -8.87582,-9.94821 -13.9708,-14.70943 -15.81451,-14.77857 -1.49602,-0.0562 -5.43746,1.81339 -8.75875,4.15442 -5.99671,4.22681 -6.02271,4.27566 -3.73718,7.02133 3.54211,4.2552 28.05202,29.18288 28.73173,29.22146 0.33075,0.0187 3.31752,-2.43552 6.63727,-5.45397 z m 100.90475,-15.63792 4.82807,-4.57785 -4.67879,-6.41348 c -2.57334,-3.52741 -8.81927,-10.40003 -13.87983,-15.27248 l -9.20104,-8.85901 -14.83991,10.38056 c -8.16195,5.7093 -14.97067,10.48365 -15.13052,10.60967 -0.15984,0.12602 6.17086,7.54899 14.06822,16.49549 l 14.35882,16.26636 9.82345,-7.02571 c 5.4029,-3.86414 11.99608,-9.08574 14.65153,-11.60355 z m 307.55711,-7.60558 c 1.6078,-1.29775 -19.5599,-23.72331 -22.3927,-23.72331 -2.0455,0 -13.1722,7.57213 -25.84,17.58513 -4.2992,3.39817 -4.3901,3.63848 -2.41558,6.38473 1.12845,1.56952 6.52128,7.5449 11.98408,13.27863 l 9.9324,10.42496 13.792,-11.51182 c 7.5855,-6.33148 14.3085,-11.92873 14.9398,-12.43832 z m -88.81716,16.5845 c 8.38818,-5.87597 25.03441,-19.1669 25.03441,-19.98832 0,-0.94753 -14.05096,-18.23464 -20.37788,-25.07124 l -3.84586,-4.15566 -12.10266,8.5471 c -6.65646,4.70091 -14.09693,10.10271 -16.53437,12.00399 l -4.43174,3.4569 12.18039,13.88554 c 6.69919,7.63704 13.119,13.89588 14.26623,13.90853 1.14722,0.0126 3.76239,-1.15142 5.81148,-2.58684 z m -299.53182,-9.0137 c 17.92336,-13.24419 18.9244,-14.23057 17.00677,-16.75788 -4.4638,-5.88302 -26.27185,-27.64996 -27.70218,-27.64996 -3.48826,0 -25.05046,16.91597 -25.05046,19.65257 0,2.60908 24.88318,30.41802 27.21775,30.41802 0.4756,0 4.31326,-2.54824 8.52812,-5.66275 z m 233.00299,1.9016 c 8.66608,-5.73601 20.46423,-15.34983 21.9209,-17.86238 1.02675,-1.771 0.44913,-3.38813 -2.73732,-7.66341 -5.34879,-7.17654 -19.20193,-20.78365 -21.15943,-20.78365 -2.62763,0 -29.14783,20.29111 -29.14783,22.30156 0,1.04065 2.15335,4.36146 4.78523,7.37958 8.74698,10.03066 18.76369,20.38945 19.7161,20.38945 0.51698,0 3.49704,-1.69252 6.62235,-3.76115 z m -63.87464,-8.60761 c 4.16233,-2.8687 10.64158,-7.83105 14.39837,-11.02745 l 6.8305,-5.81163 -7.23733,-8.3451 c -3.98053,-4.58981 -10.19807,-11.13105 -13.81677,-14.53612 -6.47978,-6.09723 -6.63519,-6.16438 -10.26103,-4.43354 -5.59332,2.67006 -21.73254,15.87241 -23.30989,19.06819 -1.16302,2.35631 -0.81924,3.62371 2.07994,7.66787 3.84985,5.37027 21.212,22.6336 22.76316,22.6336 0.54185,0 4.39073,-2.34712 8.55305,-5.21582 z m -61.20139,-13.67907 c 6.92536,-5.556 12.59155,-10.78476 12.59155,-11.61948 0,-1.63769 -11.53134,-15.36889 -20.7852,-24.75045 l -5.71149,-5.79031 -7.73758,5.40301 c -4.25566,2.97166 -10.60085,8.10621 -14.10041,11.4101 -5.62594,5.31142 -6.20412,6.32273 -4.99237,8.73241 2.5441,5.05919 25.12481,28.37677 26.66162,27.53166 0.81529,-0.44832 7.14853,-5.36094 14.07388,-10.91694 z m 292.03552,3.86179 c 4.7097,-5.22881 9.7684,-16.71861 11.5222,-26.17013 1.254,-6.75803 1.1372,-7.59513 -1.5446,-11.07189 -5.2884,-6.85587 -6.9693,-6.92117 -15.9819,-0.62085 -18.0898,12.64581 -21.7033,15.93252 -20.2579,18.42567 2.0268,3.49601 20.5254,23.75333 21.6012,23.65481 0.5168,-0.0473 2.6143,-1.94526 4.661,-4.21761 z m -54.8791,-8.9213 c 7.2786,-5.96237 13.5457,-11.59068 13.9267,-12.50735 0.3811,-0.91666 -0.3844,-3.22322 -1.7011,-5.12568 -3.1789,-4.59335 -21.5141,-23.97326 -22.68506,-23.97771 -1.17274,-0.005 -22.79064,16.65756 -26.14338,20.15004 -2.19897,2.29063 -2.30266,2.96907 -0.80182,5.24649 2.56153,3.88692 22.58125,26.9626 23.4349,27.01216 0.40475,0.0235 6.69115,-4.83558 13.96976,-10.79795 z m -399.53087,4.86446 c 3.11048,-1.97553 5.98197,-4.07962 6.38106,-4.67575 0.7297,-1.0899 -19.34327,-24.46 -25.52625,-29.71911 l -3.31319,-2.81813 -3.9543,2.59924 c -6.44449,4.23609 -6.44621,7.49907 -0.008,15.96298 8.24022,10.83368 18.30182,22.24267 19.61579,22.24267 0.63243,0 3.69481,-1.61635 6.80529,-3.5919 z m 108.1815,-20.71525 c -1.32125,-2.05549 -20.30557,-23.58021 -24.03709,-27.25364 -1.83166,-1.80314 -3.85199,-3.27843 -4.48962,-3.27843 -1.98629,0 -12.21474,7.16008 -19.30419,13.51323 -10.22365,9.16184 -10.16183,9.3785 8.46281,29.65939 l 9.53994,10.38831 15.33968,-10.85233 c 9.03347,-6.39089 14.98974,-11.39671 14.48847,-12.17653 z m 225.95464,8.10214 c 7.63564,-5.62858 13.87688,-10.85682 13.86942,-11.61831 -0.0234,-2.37688 -22.80209,-29.20973 -24.90518,-29.33771 -1.44685,-0.0881 -30.61322,22.81943 -30.61322,24.04384 0,2.07926 23.74967,27.15618 25.71414,27.15118 1.12851,-0.002 8.29919,-4.61041 15.93484,-10.239 z m -68.56456,-4.76261 c 7.3455,-5.63102 14.12203,-10.91783 15.05896,-11.74847 1.39832,-1.23968 0.32288,-3.08976 -6.0027,-10.3265 -4.23843,-4.84893 -10.59639,-11.85323 -14.12882,-15.56512 l -6.42258,-6.7489 -10.82065,8.09251 c -15.50728,11.59753 -18.43163,14.69985 -17.40743,18.46688 0.4611,1.69589 5.03749,7.40351 10.16977,12.6836 5.13229,5.2801 10.4619,10.90159 11.8436,12.49219 1.3817,1.59061 2.92669,2.89202 3.43329,2.89202 0.50662,0 6.93108,-4.6072 14.27656,-10.23821 z m -239.05344,-3.04398 c 7.06559,-5.33815 12.84654,-10.06732 12.84654,-10.50927 0,-1.14941 -21.00289,-25.12136 -25.03073,-28.56917 -3.00888,-2.57559 -3.71096,-2.71848 -6.52534,-1.32805 -5.53183,2.73293 -21.39303,16.84498 -21.39303,19.03382 0,1.15988 1.84818,4.46937 4.10706,7.35441 6.73366,8.60025 20.7556,23.72398 21.99565,23.72398 0.63433,0 6.93425,-4.36758 13.99985,-9.70572 z m 166.15493,-1.78087 c 12.02037,-8.88468 17.16185,-13.85532 17.16185,-16.59166 0,-3.24165 -4.72393,-9.69597 -15.99594,-21.85534 l -8.893,-9.59309 -3.53998,2.64177 c -1.94698,1.45297 -7.95998,5.86059 -13.36222,9.79471 -10.15896,7.39814 -12.44322,10.84026 -10.14536,15.28791 2.88353,5.58125 22.3218,25.8415 24.79309,25.8415 1.37803,0 5.86973,-2.48661 9.98156,-5.5258 z m 242.0455,-8.69774 c 6.1172,-4.54451 12.3507,-9.70432 13.852,-11.46624 2.6363,-3.09382 2.653,-3.32463 0.4868,-6.74186 -3.5223,-5.55649 -20.9459,-24.79189 -22.4568,-24.79189 -1.7001,0 -24.354,17.36912 -26.7188,20.48572 -0.9577,1.26216 -1.4048,3.53213 -0.9937,5.04438 0.8321,3.0604 21.3467,25.55773 23.4028,25.66472 0.718,0.0373 6.3104,-3.65032 12.4277,-8.19483 z m -310.56959,-0.5868 c 4.15455,-2.9002 10.11848,-7.70384 13.25316,-10.67477 l 5.69941,-5.40167 -3.37048,-4.70161 c -1.85377,-2.58587 -7.85483,-9.7187 -13.33568,-15.85073 -5.48085,-6.13201 -10.13185,-11.34569 -10.33556,-11.58596 -0.61899,-0.73008 -30.20327,21.7061 -30.20327,22.9056 0,2.33686 27.58148,30.58222 29.86342,30.58222 0.48138,0 4.27443,-2.37289 8.429,-5.27308 z m 248.51554,-10.01084 c 6.74589,-4.97185 10.22352,-8.35998 10.22352,-9.96045 0,-4.13229 -19.38341,-28.40269 -22.68365,-28.40269 -2.09688,0 -15.00612,8.86231 -23.77446,16.32139 l -7.06916,6.01363 5.77772,6.94396 c 3.17774,3.81919 8.88887,10.05724 12.6914,13.86233 l 6.9137,6.91835 3.8487,-2.0808 c 2.11679,-1.14445 8.44929,-5.47152 14.07223,-9.61572 z m -405.9179,5.08946 c 4.68324,-3.02809 5.80696,-6.00318 3.68774,-9.7634 -1.95737,-3.47303 -18.028632,-21.34477 -21.416672,-23.81599 -2.91302,-2.12475 -5.21967,-1.83985 -5.21967,0.64469 0,3.92716 17.212082,34.77507 19.407132,34.78193 0.37467,10e-4 1.96834,-0.83008 3.54147,-1.84723 z M 448.9786,373.90139 c 7.2095,-5.34855 11.60019,-9.40705 11.07505,-10.23711 -2.1372,-3.37821 -21.3189,-23.1428 -24.69942,-25.44999 l -3.75277,-2.56123 -5.36502,3.27873 c -10.18653,6.22532 -22.13762,16.81136 -22.08183,19.55967 0.0566,2.78901 2.30873,5.84505 15.40342,20.902 l 8.35338,9.60512 4.56104,-3.11769 c 2.50857,-1.71473 9.93633,-7.10551 16.50615,-11.9795 z m -246.02863,2.91363 c 7.28588,-5.45224 13.24706,-10.51803 13.24706,-11.2573 0,-1.86188 -25.38977,-30.09332 -27.0593,-30.08781 -3.62804,0.0119 -25.5596,15.15917 -27.9709,19.31835 -1.14472,1.97448 -0.58759,3.45996 3.19636,8.52248 6.38946,8.54843 21.32167,23.41746 23.51695,23.41746 1.00252,0 7.78394,-4.46093 15.06983,-9.91318 z m 407.78232,2.16416 c 0,-4.59384 -1.7524,-5.44818 -3.8289,-1.86661 -2.0996,3.62168 -1.6009,6.03916 1.246,6.03916 2.091,0 2.5829,-0.79477 2.5829,-4.17255 z m -240.99657,-4.94939 c 14.00699,-10.27715 18.86871,-14.89545 18.86871,-17.92403 0,-2.35357 -18.77009,-24.07225 -24.78993,-28.68419 -1.41971,-1.08768 -4.43045,0.5988 -14.65019,8.2064 -19.87226,14.79293 -18.70414,12.99141 -12.79923,19.73944 12.84939,14.68405 22.73263,25.40001 23.42625,25.40001 0.41882,0 4.89379,-3.03193 9.94439,-6.73763 z m -236.05341,-7.06817 c 6.317,-4.97044 12.3005,-9.76552 13.29668,-10.65574 1.54458,-1.38028 0.79704,-2.72632 -5.07778,-9.14322 -10.39806,-11.35749 -19.70281,-20.0423 -21.47296,-20.0423 -1.72391,0 -18.68044,12.29503 -23.368402,16.94422 l -2.90746,2.88342 9.185762,10.65088 c 9.97526,11.56632 16.66253,18.39991 18.00595,18.39991 0.46902,0 6.02121,-4.06672 12.33821,-9.03717 z m 477.81938,-4.43869 c 2.6139,-4.47676 3.6397,-13.3836 2.5061,-21.75947 -0.7906,-5.8413 -1.729,-7.64157 -6.3227,-12.1297 l -5.3943,-5.27034 -10.3079,7.36767 c -12.3704,8.84176 -16.1195,12.4501 -16.1195,15.5142 0,2.26283 9.4513,13.46437 19.8805,23.56213 l 5.3026,5.13412 4.2518,-4.53804 c 2.3385,-2.49593 5.13,-6.04218 6.2034,-7.88057 z M 307.5665,360.01688 c 7.63564,-5.73956 13.88299,-10.83711 13.88299,-11.3279 0,-1.21245 -19.30357,-22.49088 -24.39352,-26.8891 -4.07442,-3.5207 -4.10136,-3.52545 -8.25016,-1.4538 -5.69918,2.84581 -22.8644,16.05904 -23.80656,18.32553 -0.42102,1.0128 -0.24136,3.15511 0.39925,4.76066 1.83082,4.58864 25.37034,29.02593 26.9274,27.95441 0.74669,-0.51383 7.60495,-5.63025 15.2406,-11.3698 z m 229.99999,3.81932 c 4.6264,-2.9815 25.3825,-19.04828 25.3825,-19.64791 0,-0.77537 -21.6633,-26.09012 -23.5899,-27.56619 -1.6612,-1.27265 -4.24691,0.1363 -16.5425,9.01394 -8.01548,5.78729 -14.77299,11.0746 -15.01672,11.74956 -0.7032,1.94744 22.66289,29.07593 25.04344,29.07593 0.35725,0 2.4827,-1.1814 4.72318,-2.62533 z M 236.83538,350.92768 c 7.47166,-5.92087 13.58484,-11.35157 13.58484,-12.06821 0,-4.25695 -25.06242,-31.34021 -28.02921,-30.28927 -2.28236,0.8085 -27.25626,18.40965 -28.27048,19.92453 -0.98442,1.47036 26.51241,33.19818 28.7711,33.19818 0.19741,0 6.47209,-4.84436 13.94375,-10.76523 z m 240.28265,2.25093 c 4.94462,-4.02719 11.4828,-9.42226 14.5293,-11.98906 l 5.53908,-4.66691 -8.33368,-9.17173 c -4.58353,-5.04445 -10.95758,-11.52603 -14.16456,-14.40349 l -5.83087,-5.23176 -8.54301,5.62751 c -19.08647,12.57275 -21.92281,17.16662 -15.25836,24.71316 7.13669,8.08131 21.33716,22.44442 22.19026,22.44442 0.4849,0 4.92722,-3.29497 9.87184,-7.32214 z m -67.39822,-9.22695 c 18.06807,-14.36739 17.28169,-13.11667 12.91046,-20.53364 -3.69706,-6.27305 -19.27002,-23.77115 -21.84758,-24.5484 -1.52853,-0.46091 -14.14501,8.26571 -24.99758,17.29044 l -7.00782,5.82754 13.95167,15.6801 c 7.67342,8.62407 14.2268,15.68011 14.56308,15.68011 0.33626,0 5.92876,-4.22827 12.42777,-9.39615 z m -250.04008,2.21674 c 3.71981,-1.96931 10.39787,-6.73417 14.8401,-10.58857 l 8.0768,-7.008 -4.97406,-6.66689 c -2.73574,-3.66679 -8.27579,-9.98073 -12.31123,-14.03099 -6.29026,-6.31337 -7.8041,-7.25592 -10.60967,-6.60591 -3.28289,0.76061 -27.85766,19.60054 -27.33624,20.95697 0.49169,1.27906 24.23606,27.51663 24.90526,27.52036 0.35514,0.002 3.68921,-1.60766 7.40904,-3.57697 z m -77.146872,-0.90042 c 0,-2.58098 -3.50752,-7.41821 -5.379,-7.41821 -1.57177,0 -0.31352,5.72665 1.76663,8.04039 1.92293,2.13886 3.61237,1.84788 3.61237,-0.62218 z M 336.0763,338.21229 c 12.81014,-8.99422 21.53354,-16.05296 21.53354,-17.42437 0,-2.32864 -22.28238,-28.42914 -25.38414,-29.73375 -4.14559,-1.74364 -7.22786,-0.0736 -19.86382,10.76304 -10.60249,9.09266 -11.78176,11.35762 -8.62394,16.5635 2.29379,3.7815 22.04586,25.28368 23.29827,25.36262 0.58667,0.0369 4.65471,-2.452 9.04009,-5.53104 z m -234.17182,-5.96285 c 15.25051,-11.3607 14.9875,-10.91621 10.15113,-17.15578 -7.07141,-9.12305 -21.991922,-24.93032 -23.528132,-24.92646 -2.78152,0.007 -20.81507,14.97983 -22.09806,18.34751 -1.05623,2.77248 -0.71712,4.28091 1.92183,8.54874 4.93551,7.98194 20.81115,24.50433 22.45699,23.37184 0.77573,-0.53377 5.76904,-4.21741 11.096242,-8.18585 z m 472.76961,3.5062 c 5.4447,-3.3976 23.1438,-17.23598 23.1438,-18.09547 0,-0.90449 -23.8824,-28.17447 -25.4656,-29.07768 -0.951,-0.54261 -27.7202,20.91426 -28.4504,22.80447 -0.3454,0.89412 12.8318,16.22177 19.4192,22.5883 4.557,4.40421 6.6278,4.72895 11.353,1.78038 z M 276.57604,321.30702 c 11.88361,-8.611 12.07497,-10.00169 2.85086,-20.71693 -9.22858,-10.72038 -18.77345,-19.96386 -20.61482,-19.96386 -1.36044,0 -27.9721,19.93524 -29.11962,21.81401 -0.31957,0.52319 5.79478,8.13536 13.58741,16.91593 l 14.16841,15.96469 5.20321,-3.84713 c 2.86175,-2.11592 9.1278,-6.69094 13.92455,-10.16671 z m 241.81824,0.15046 c 6.39263,-5.13467 11.77555,-10.38694 11.96205,-11.67173 0.39874,-2.74696 -9.6186,-15.31799 -18.82119,-23.61924 -5.02587,-4.53361 -7.00743,-5.61117 -9.15916,-4.98074 -1.51019,0.44247 -8.06471,5.53558 -14.5656,11.31803 l -11.81983,10.51354 2.59196,3.779 c 1.42559,2.07846 7.36911,8.84446 13.20783,15.03557 8.70222,9.22743 11.00931,11.04969 12.79842,10.10894 1.20041,-0.6312 7.41288,-5.34872 13.80552,-10.48337 z m -69.33582,-7.5696 c 8.30241,-5.9665 15.24545,-11.21062 15.42899,-11.65359 0.18354,-0.44298 -5.549,-7.66578 -12.73898,-16.05068 -9.56574,-11.15551 -13.62279,-15.05041 -15.12328,-14.51889 -2.67554,0.94778 -20.19492,12.66257 -26.34324,17.61511 l -4.79704,3.86405 13.74464,15.79608 c 7.55956,8.68785 13.96716,15.79608 14.23914,15.79608 0.27198,0 7.28738,-4.88168 15.58977,-10.84816 z m -244.34821,-0.64942 c 8.09347,-5.66798 14.71538,-10.74847 14.71538,-11.28997 0,-0.54152 -5.82967,-7.44809 -12.95481,-15.34795 -14.84648,-16.46074 -12.65651,-16.03239 -27.07987,-5.29679 -17.7991,13.24825 -17.66695,13.11476 -15.43126,15.58635 9.80403,10.83846 24.86842,26.65378 25.38824,26.65378 0.35583,0 7.26887,-4.63744 15.36232,-10.30542 z m 405.57774,4.02391 c -0.3538,-0.80712 -0.6217,0.14191 -0.5953,2.10897 0.026,1.96705 0.3157,2.62744 0.6431,1.4675 0.3275,-1.15993 0.3059,-2.76934 -0.048,-3.57647 z M 136.92483,305.79936 c 6.70938,-5.16969 12.92636,-10.20859 13.81547,-11.19755 1.35416,-1.50621 0.11456,-3.51243 -7.63514,-12.35744 -11.55038,-13.18281 -18.03246,-19.50049 -20.00791,-19.50049 -2.02874,0 -26.361812,21.30256 -26.346992,23.06565 0.0248,2.95489 24.365752,29.38926 27.061802,29.38926 0.50263,0 6.40338,-4.22974 13.11277,-9.39943 z m 244.57668,-1.69853 c 17.37957,-12.94014 17.10904,-10.4251 2.81494,-26.16898 -16.47729,-18.14852 -15.23543,-17.39049 -21.87274,-13.35117 -8.41945,5.12388 -23.0145,16.09223 -23.74205,17.8424 -0.35767,0.86044 0.21938,3.11692 1.28232,5.01441 2.8361,5.06277 19.80792,25.05144 22.41329,26.39739 2.95093,1.52445 6.22103,-0.14173 19.10424,-9.73405 z m 226.65148,4.53502 c 1.1025,-1.90176 1.3834,-4.97612 0.8384,-9.17598 -0.902,-6.95004 -6.5488,-29.26775 -7.6663,-30.29934 -0.3867,-0.35698 -2.0604,0.006 -3.7194,0.80715 -4.1971,2.02624 -19.1594,13.2576 -19.1594,14.38191 0,1.13942 20.2633,24.94906 22.8873,26.89281 2.4678,1.8281 4.7553,0.95378 6.8194,-2.60655 z m -304.06405,-8.05256 c 9.55177,-7.04201 21.23487,-16.72522 21.23487,-17.59993 0,-0.89789 -8.98317,-11.23874 -19.94079,-22.95457 -3.50935,-3.75219 -7.19711,-6.82216 -8.195,-6.82216 -2.28289,0 -7.01928,3.00962 -21.20984,13.47733 l -11.24812,8.2972 8.01952,8.96868 c 20.48264,22.90691 21.8475,23.63131 31.33936,16.63345 z m 246.59135,-3.46539 c 3.5515,-2.53806 8.9225,-6.62739 11.9357,-9.08742 l 5.4785,-4.47276 -8.8819,-10.10888 c -4.885,-5.55988 -11.2041,-12.16734 -14.0424,-14.68325 -5.0256,-4.45471 -5.2575,-4.52726 -8.8653,-2.7733 -4.76911,2.31851 -19.19985,13.6847 -21.88182,17.23493 -1.97807,2.61845 -1.83051,3.02257 3.48232,9.53726 7.65335,9.38467 16.76838,18.24752 19.8605,19.31105 3.4569,1.189 5.3077,0.4785 12.9144,-4.95763 z M 75.107068,291.69927 c 5.07009,-3.58563 7.42579,-6.0845 7.42579,-7.87711 0,-2.84375 -15.14247,-20.96877 -21.90993,-26.22543 -2.27568,-1.76763 -4.66954,-2.91041 -5.31969,-2.53948 -2.98716,1.70423 0.22097,25.85587 5.4146,40.76258 1.21832,3.49681 1.61721,3.73675 4.15557,2.49959 1.54433,-0.75269 6.14948,-3.73176 10.23366,-6.62015 z m 155.318892,1.24531 c 11.29776,-6.98535 25.16584,-18.48137 24.19267,-20.05467 -1.48978,-2.40855 -22.067,-25.19002 -24.29332,-26.89566 -1.62415,-1.2443 -2.69076,-1.01922 -6.11077,1.2895 -7.15522,4.83023 -25.45197,19.2574 -25.45197,20.06914 0,1.63399 23.60238,28.77139 25.02352,28.77139 0.82345,0 3.81138,-1.43087 6.63987,-3.1797 z m 245.48846,0.036 c 2.76002,-1.729 9.37903,-6.38787 14.70894,-10.35306 5.3299,-3.96518 9.92107,-7.36789 10.20259,-7.56155 1.35839,-0.9344 -25.91529,-32.58876 -28.07883,-32.58876 -0.97405,0 -29.02378,22.5178 -29.58531,23.75055 -0.44481,0.97652 25.37573,29.89652 26.6924,29.89652 0.57311,0 3.30021,-1.41464 6.06021,-3.14364 z M 171.87706,279.62545 c 17.18347,-13.34514 16.53973,-12.12296 10.36305,-19.67495 -7.76769,-9.49729 -21.00386,-23.43407 -22.25602,-23.43407 -1.12925,0 -17.80645,11.41718 -25.73698,17.61948 l -4.46344,3.49077 6.95064,8.22134 c 9.69099,11.4627 20.81702,23.12331 22.06321,23.12331 0.57509,0 6.4609,-4.20564 13.07954,-9.34588 z m 245.97812,-2.92958 c 7.27478,-5.37869 13.25836,-10.36109 13.29684,-11.072 0.1647,-3.04253 -20.96577,-27.93163 -25.69866,-30.26987 -1.62908,-0.80482 -4.01731,0.0484 -9.28747,3.31793 -9.45413,5.86528 -23.05875,15.86319 -23.05875,16.94567 0,0.83536 11.92296,14.86749 22.57187,26.56482 3.28322,3.60646 5.82529,5.39953 7.04336,4.96805 1.04826,-0.37133 7.85803,-5.0759 15.13281,-10.4546 z m -74.73249,-5.90493 c 6.19986,-4.75373 12.98365,-9.87763 15.07508,-11.38645 l 3.80263,-2.74332 -2.30705,-3.95457 c -2.60372,-4.46315 -18.34006,-22.74107 -22.56942,-26.21461 -3.66746,-3.01208 -5.4112,-2.19364 -21.24086,9.96968 l -12.66935,9.73498 2.33782,3.39217 c 3.36937,4.88895 24.77907,29.84526 25.60388,29.84526 0.38214,0 5.76741,-3.88941 11.96727,-8.64314 z m 245.7477,-2.95279 c 6.9871,-5.97154 7.6561,-6.97709 7.6561,-11.50863 0,-6.09499 -6.7855,-17.27406 -15.0051,-24.72082 -5.373,-4.86779 -5.7262,-4.99879 -9.053,-3.35728 -1.9039,0.93948 -8.3981,6.11288 -14.4313,11.49643 l -10.9696,9.78829 3.6724,4.5176 c 2.0199,2.48468 7.9634,9.21831 13.2077,14.96365 l 9.5353,10.44606 3.8657,-2.54103 c 2.1261,-1.39757 7.311,-5.48549 11.5218,-9.08427 z m -485.1365,1.98503 c 5.35221,-3.97461 10.96185,-8.82189 12.46587,-10.77171 l 2.73459,-3.54513 -5.10212,-6.21652 c -2.80617,-3.4191 -8.82393,-9.90556 -13.3728,-14.41438 l -8.270672,-8.19787 -14.51474,12.02157 -14.51474,12.02155 10.84384,11.67434 c 11.24819,12.10967 14.12681,14.46617 17.81607,14.58462 1.20088,0.0386 6.56249,-3.18185 11.914702,-7.15647 z m 172.88466,-10.88326 c 7.96514,-6.0263 14.72509,-11.12357 15.02211,-11.32729 1.40162,-0.96127 -7.3667,-12.13824 -20.83253,-26.55523 l -4.7952,-5.13391 -15.545,11.51873 c -8.54976,6.3353 -15.52952,11.90754 -15.51059,12.38274 0.0785,1.97294 24.50232,30.02985 26.16392,30.05592 0.55837,0.008 7.53215,-4.91466 15.49729,-10.94096 z m 244.95872,-0.1368 c 6.89684,-5.47193 11.66858,-10.16187 11.66858,-11.46856 0,-2.77643 -9.03085,-14.1721 -18.91974,-23.87404 l -7.5548,-7.412 -13.56014,10.81045 c -7.45807,5.94574 -13.56013,11.32946 -13.56013,11.96383 0,0.63437 6.02477,7.87707 13.38838,16.09488 9.36472,10.45107 13.91145,14.67128 15.12883,14.04237 0.95724,-0.49452 6.9913,-5.06513 13.40902,-10.15693 z M 200.83689,257.1754 c 8.678,-6.0091 22.46578,-17.1111 22.45066,-18.07743 -0.0464,-2.96669 -24.97241,-30.00115 -27.66131,-30.00115 -1.59556,0 -24.49866,17.03831 -27.56622,20.50734 -1.39206,1.57425 -0.43586,3.36597 6.21628,11.64798 8.40117,10.45956 17.7563,20.29958 19.29928,20.29958 0.51768,0 3.78528,-1.96934 7.26131,-4.37632 z m 245.53632,-2.47858 c 7.30705,-4.59946 22.13295,-16.19365 22.22442,-17.37999 0.0882,-1.14433 -12.78723,-15.87217 -21.68602,-24.80598 -4.64832,-4.66662 -6.69954,-5.9421 -8.63325,-5.36829 -3.24491,0.96291 -20.89704,14.67983 -24.19247,18.79923 -3.25737,4.0718 -2.38079,6.4388 5.81328,15.6973 10.57619,11.95009 15.5415,16.33616 18.49351,16.33616 1.52469,0 5.11593,-1.47529 7.98053,-3.27843 z m -298.00422,-19.1938 7.07553,-5.80827 -5.37486,-6.43122 c -9.09078,-10.87746 -19.86618,-21.31965 -21.99995,-21.31965 -3.38233,0 -28.748122,19.13004 -28.748122,21.68088 0,1.47079 22.924302,25.72076 25.641832,27.12464 2.109,1.08952 8.87217,-3.31601 23.40557,-15.24638 z m 228.61247,9.57836 c 7.65463,-5.5044 20.66306,-17.14814 20.66306,-18.49533 0,-1.52824 -16.90616,-20.80419 -23.10583,-26.34464 -4.77,-4.26281 -5.44571,-4.52325 -7.53298,-2.90344 -11.64212,9.03473 -21.26265,17.28948 -22.9957,19.7311 -1.98972,2.80326 -1.92968,3.19099 1.1619,7.50353 6.86766,9.57991 22.90579,26.3133 24.44467,25.50436 0.85437,-0.44911 4.16857,-2.69712 7.36488,-4.99558 z m 175.45653,-9.64865 c 6.1362,-4.53016 12.7784,-9.81278 14.7605,-11.73919 l 3.6038,-3.50254 -5.7374,-7.04572 c -3.1556,-3.87515 -9.2032,-10.5241 -13.439,-14.77547 -7.4284,-7.45575 -7.818,-7.67213 -10.9905,-6.10477 -4.396,2.17179 -26.00246,17.85347 -26.53991,19.26229 -0.36506,0.95694 25.43881,31.94716 26.71961,32.09003 0.2564,0.0286 5.4868,-3.65448 11.6229,-8.18463 z M 67.818428,238.0797 c 11.18796,-7.78461 19.88019,-14.92985 19.88019,-16.34204 0,-1.51376 -21.18938,-26.11522 -22.96335,-26.66107 -2.00419,-0.61672 -11.97746,6.88665 -13.24537,9.96511 -2.0446,4.96427 -1.54828,27.47183 0.69406,31.47468 1.92346,3.43359 5.14652,5.85506 7.88583,5.92458 0.78572,0.0199 4.27261,-1.94263 7.74864,-4.36126 z m 238.016412,-1.75757 c 3.97116,-2.7296 10.99775,-7.93358 15.61465,-11.5644 4.6169,-3.63081 8.60545,-6.73353 8.86344,-6.89493 0.47145,-0.29493 -15.48336,-17.82769 -22.997,-25.27147 -3.99068,-3.95356 -4.05545,-3.97002 -7.53741,-1.91617 -5.09787,3.007 -19.76867,14.11492 -23.51471,17.80405 l -3.21384,3.16501 2.56812,4.04276 c 2.54531,4.00686 21.45237,25.52748 22.4681,25.57392 0.2906,0.0132 3.7775,-2.20916 7.74865,-4.93877 z m -56.84322,-15.83774 c 6.46808,-5.21134 11.76013,-9.96096 11.76013,-10.55471 0,-1.39475 -15.03102,-17.94741 -21.70464,-23.90186 -3.95321,-3.5272 -5.78673,-4.40255 -7.91534,-3.7789 -2.4239,0.71018 -11.49089,7.14017 -25.64081,18.18359 l -4.24888,3.31607 7.33102,8.33687 c 4.03206,4.58527 10.56081,11.40828 14.50834,15.16224 l 7.17732,6.8254 3.48636,-2.05677 c 1.91751,-1.13121 8.77843,-6.32059 15.2465,-11.53193 z m 241.31381,1.19556 c 6.57021,-5.11879 11.94583,-9.92424 11.94583,-10.67878 0,-1.53822 -13.25827,-17.24776 -22.20252,-26.30745 l -5.84916,-5.92466 -8.25152,6.44243 c -4.53833,3.54333 -10.69398,8.57628 -13.6792,11.18433 l -5.4277,4.74191 2.77331,3.68151 c 1.52532,2.02482 7.67604,9.46815 13.66828,16.54071 9.62938,11.36548 11.13784,12.67147 12.9859,11.24306 1.15002,-0.88889 7.46657,-5.80427 14.03678,-10.92306 z m -312.49396,-7.91492 c 12.80146,-9.56916 14.3004,-11.07088 12.87662,-12.90059 -3.50993,-4.51066 -24.62029,-27.53233 -25.24654,-27.53233 -2.8889,0 -28.66816,20.81179 -28.66816,23.14402 0,1.78104 17.51617,23.38267 21.0875,26.00594 1.54229,1.13287 3.40231,2.0717 4.13338,2.08628 0.73109,0.0145 7.84881,-4.84692 15.8172,-10.80332 z m 245.34035,-4.17736 10.9354,-9.64248 -1.95574,-3.47125 c -1.07566,-1.90918 -5.93366,-7.7131 -10.79556,-12.89761 -4.8619,-5.1845 -10.04514,-10.76282 -11.5183,-12.39625 -1.95294,-2.16544 -3.2288,-2.67985 -4.71014,-1.89913 -4.75466,2.50587 -24.21046,17.98273 -25.65389,20.40737 -1.92447,3.23266 0.3155,6.66268 14.95347,22.89795 l 9.81476,10.88574 3.99729,-2.12093 c 2.19852,-1.16651 8.91823,-6.46004 14.93271,-11.76341 z m -306.59797,-8.26277 6.60553,-5.33412 -2.40416,-4.12106 c -3.76247,-6.44935 -18.83239,-23.30624 -20.835612,-23.30624 -1.72661,0 -25.7306,17.16851 -28.61262,20.46476 -1.06601,1.21923 1.45118,4.87054 10.79129,15.65332 l 12.18161,14.06318 7.834222,-6.04286 c 4.30881,-3.32357 10.8067,-8.4432 14.43974,-11.37698 z m 454.36904,-3.47192 c -3.574,-6.6372 -7.9649,-13.52856 -9.7576,-15.31413 -2.8593,-2.84812 -3.6543,-3.08035 -6.4782,-1.89258 -6.7439,2.8365 -5.8956,5.01755 7.9404,20.41419 15.563,17.31835 18.6959,16.10697 8.2954,-3.20748 z m -231.22052,12.72618 c 1.87072,-1.14314 8.69551,-6.33926 15.16618,-11.54695 11.58285,-9.32204 11.72882,-9.50648 9.43463,-11.92157 -1.28163,-1.34917 -7.17313,-7.68363 -13.09223,-14.07657 -5.9191,-6.39294 -11.47441,-11.62353 -12.34512,-11.62353 -0.87072,0 -8.08268,5.15638 -16.02658,11.45861 -12.78434,10.14236 -14.24238,11.68297 -12.69284,13.41176 10.55588,11.77699 24.54523,26.39076 25.25717,26.38452 0.49361,-0.005 2.42807,-0.94314 4.29879,-2.08627 z m -57.08204,-14.9525 c 8.29523,-6.08846 14.29178,-11.35397 14.29178,-12.54945 0,-1.93503 -10.76255,-15.16486 -21.02035,-25.83922 -4.57437,-4.76011 -4.58908,-4.76505 -8.24698,-2.76411 -9.14648,5.00329 -26.26465,18.31152 -26.26465,20.419 0,2.65944 2.50415,6.0694 15.30141,20.83631 5.27717,6.08937 10.05657,10.9176 10.62092,10.72941 0.56436,-0.18819 7.45739,-5.06257 15.31787,-10.83194 z m 242.47744,-0.33542 c 13.49162,-9.44843 14.47362,-10.40408 12.86692,-12.52168 -3.1539,-4.15661 -22.53198,-25.53503 -25.06055,-27.64742 -2.37859,-1.98711 -2.83704,-1.83491 -11.40844,3.78736 -4.91163,3.22171 -11.72459,8.18713 -15.1399,11.03426 l -6.20965,5.17659 7.9017,8.94117 c 8.37226,9.47363 20.50186,21.45883 21.71739,21.45883 0.39937,0 7.29901,-4.6031 15.33253,-10.22911 z m -317.72484,-3.59866 c 10.36713,-7.84203 21.09279,-16.97273 21.09279,-17.95617 0,-0.38078 -5.57088,-6.8282 -12.37972,-14.3276 -8.90394,-9.80699 -13.06391,-13.53209 -14.81659,-13.26775 -2.76546,0.41708 -29.42818,21.18879 -29.54671,23.0185 -0.12385,1.91207 24.69383,29.20785 26.55616,29.20785 0.14848,0 4.24081,-3.00368 9.09407,-6.67483 z m 238.84934,0.49764 c 12.51983,-8.73962 21.15583,-15.7755 21.85336,-17.80428 0.5955,-1.73201 -1.67305,-5.17627 -8.78713,-13.34118 -5.27443,-6.05352 -11.47174,-12.74359 -13.77181,-14.86684 l -4.18195,-3.86044 -3.44206,2.27444 c -5.87144,3.87971 -24.75086,19.2809 -24.75086,20.1909 0,1.68256 26.21494,30.00812 27.77213,30.00812 0.87048,0 3.25922,-1.17033 5.30832,-2.60072 z M 58.536708,188.41261 c -0.46481,-1.11816 -1.93903,-2.57345 -3.27605,-3.23399 -2.11461,-1.0447 -2.43095,-0.76114 -2.43095,2.179 0,4.46535 2.47194,6.8545 4.83501,4.67309 0.94441,-0.8718 1.3368,-2.49994 0.87199,-3.6181 z m 82.258552,-5.41733 c 19.01688,-14.01012 18.71092,-13.69495 16.88535,-17.39358 -1.69882,-3.44189 -9.77446,-13.41401 -17.37263,-21.45244 l -4.48383,-4.74361 -6.30544,4.68135 c -12.2621,9.10375 -23.83287,18.85307 -23.4659,19.77192 1.08422,2.71472 22.2337,26.16339 23.59802,26.16339 0.88339,0 5.89839,-3.16216 11.14443,-7.02703 z m 244.84191,-6.88023 c 7.66948,-5.68193 14.13605,-11.06409 14.37016,-11.96034 0.2341,-0.89625 -0.80024,-3.54754 -2.29853,-5.89173 -3.00703,-4.70472 -18.97741,-23.86976 -20.71871,-24.8632 -1.88185,-1.07364 -32.5351,22.1188 -31.27273,23.66115 5.03839,6.15588 25.2524,29.38491 25.57089,29.38491 0.22242,0 6.67943,-4.64886 14.34892,-10.33079 z M 81.061958,173.58572 c 7.55677,-5.59431 13.92868,-10.6095 14.15979,-11.14485 0.61031,-1.41377 -21.56511,-24.87347 -23.51181,-24.87347 -6.35623,0 -18.23846,26.07866 -15.86302,34.81555 1.15924,4.26371 8.47221,13.08764 10.08433,12.16789 0.76511,-0.43652 7.57393,-5.37082 15.13071,-10.96512 z m 240.064672,-7.3569 c 6.57021,-5.31141 11.94583,-10.39216 11.94583,-11.29055 0,-2.05991 -8.0428,-11.97706 -18.24161,-22.49272 l -7.85809,-8.10224 -3.41603,2.02596 c -5.15248,3.05581 -27.12277,20.01338 -27.22145,21.01062 -0.0984,0.99475 22.16398,25.47636 26.0232,28.61728 3.22413,2.62403 3.82688,2.31031 18.76815,-9.76835 z m 229.65556,9.11305 c 4.2505,-3.37508 4.3492,-3.16216 -10.2867,-22.18722 -5.76302,-7.49132 -10.89157,-14.1952 -11.39674,-14.89751 -0.89426,-1.24323 -12.64163,8.28846 -12.64163,10.25728 0,2.52855 26.75907,29.58632 29.25967,29.58632 0.875,0 3.1544,-1.24149 5.0654,-2.75887 z M 250.10842,158.99522 c 7.98471,-5.91824 14.51766,-11.63655 14.51766,-12.70737 0,-2.4064 -7.52665,-11.64979 -17.58626,-21.59747 l -7.59685,-7.51232 -6.74232,4.24209 c -3.70828,2.33316 -10.54612,7.52681 -15.19521,11.54145 l -8.45287,7.29936 2.48995,3.63027 c 3.41008,4.9718 22.15059,25.86441 23.20019,25.86441 0.46643,0 7.381,-4.8422 15.36571,-10.76042 z m 240.68205,-0.11743 c 8.07917,-5.98281 14.61546,-11.57819 14.5251,-12.43417 -0.27216,-2.57808 -26.63494,-30.33505 -28.81124,-30.33492 -2.43097,1.5e-4 -22.42401,15.50059 -25.39853,19.69128 -2.04682,2.88369 -1.94799,3.16345 3.46902,9.81882 5.134,6.3077 20.89373,24.13684 21.3353,24.13684 0.105,0 6.80118,-4.89503 14.88035,-10.87785 z m -315.8108,-2.40414 c 10.83206,-6.99966 18.54513,-12.978 20.01514,-15.51357 1.76298,-3.04092 -0.60346,-6.80281 -11.74468,-18.6704 -5.83463,-6.21501 -9.97849,-9.67489 -11.1082,-9.2747 -2.78961,0.98818 -30.01834,21.43821 -30.1161,22.61859 -0.15505,1.87213 22.36797,25.77697 24.28692,25.77697 0.56487,0 4.46499,-2.2216 8.66692,-4.93689 z m -62.74366,-6.43985 c 9.13186,-7.20306 19.37162,-15.99677 19.37162,-16.63598 0,-0.37672 -15.28971,-16.85509 -21.83673,-23.53439 -0.47466,-0.48424 -6.65211,3.47083 -13.727672,8.78906 -7.07556,5.31822 -14.24596,10.67339 -15.93422,11.90038 l -3.06956,2.2309 6.2908,6.8624 c 13.62596,14.86407 17.459702,18.18571 19.688902,17.05887 1.16266,-0.58772 5.31025,-3.58978 9.21686,-6.67124 z m 306.1119,1.14336 c 13.51175,-8.98061 17.27328,-12.72041 16.30871,-16.21453 -1.2357,-4.47637 -21.50809,-27.19915 -24.26602,-27.19915 -1.45007,0 -6.01084,3.08219 -20.81432,14.06645 l -8.71396,6.46581 6.7177,7.91426 c 9.13487,10.76198 19.20939,21.62407 20.05622,21.62407 0.38283,0 5.20308,-2.9956 10.71167,-6.65691 z m -67.98527,-6.99231 c 13.92268,-9.84778 19.36655,-15.39369 18.40036,-18.74524 -0.76363,-2.64885 -23.13702,-27.375173 -25.52572,-28.210163 -2.59287,-0.90636 -28.245,20.562233 -28.245,23.638593 0,2.26449 23.53119,29.52889 25.68455,29.75941 0.2758,0.0296 4.63441,-2.86965 9.68581,-6.4426 z m -62.74018,-13.17431 c 7.85706,-5.90118 14.32379,-11.29315 14.37049,-11.98217 0.13812,-2.03739 -24.35842,-29.147238 -26.33753,-29.147238 -1.86191,0 -30.42028,21.151508 -30.37677,22.498288 0.0487,1.5059 26.03256,30.08361 27.02955,29.72773 0.56578,-0.20197 7.4572,-5.19543 15.31426,-11.09661 z m 230.22543,7.84072 c 6.26209,-5.78065 5.30669,-7.88412 -9.70432,-21.36594 -13.53094,-12.15251 -17.40899,-14.11172 -21.13131,-10.67557 -2.84864,2.62964 -1.57568,6.25603 5.05783,14.40876 8.14356,10.00858 19.05476,21.11752 20.74164,21.11752 0.69364,0 2.95993,-1.56814 5.03616,-3.48477 z M 212.44534,128.21724 c 11.45904,-6.88431 21.18615,-14.33848 21.18615,-16.23556 0,-2.0688 -13.64495,-18.874123 -19.62989,-24.176473 l -4.36161,-3.864159 -9.4781,7.13122 c -10.70907,8.057377 -20.77094,16.450192 -20.77094,17.325472 0,1.84043 21.55386,24.40103 23.31217,24.40103 1.16393,0 5.54792,-2.06169 9.74222,-4.58153 z m 238.61088,-1.28441 c 4.36246,-3.22628 10.78166,-8.55913 14.26489,-11.85078 l 6.33312,-5.98483 -2.35324,-3.34923 c -4.34126,-6.178675 -16.38237,-19.170933 -20.1516,-21.743404 -3.12741,-2.134445 -4.20215,-2.319679 -6.63261,-1.143144 -5.95363,2.882055 -25.53157,18.128698 -25.46622,19.832268 0.0585,1.52574 24.33367,30.04512 25.61129,30.08913 0.25443,0.008 4.03189,-2.62374 8.39437,-5.85001 z m -302.4216,-4.70691 c 5.19615,-3.84801 11.74317,-8.86002 14.54893,-11.13778 l 5.10137,-4.14138 -6.04394,-7.638695 c -10.8395,-13.699592 -14.40581,-16.954502 -17.56304,-16.029472 -3.22104,0.943723 -19.69737,12.885954 -25.0159,18.131797 l -3.55121,3.50269 4.02471,5.89579 c 5.59197,8.19168 15.19499,18.41343 17.29883,18.41343 0.96398,0 6.00409,-3.14838 11.20025,-6.99638 z m -71.146892,2.51794 c 5.10046,-3.16517 26.999632,-20.90314 26.999632,-21.86926 0,-0.87311 -12.144562,-10.609153 -13.233662,-10.609153 -2.44034,0 -19.05237,28.039413 -19.05237,32.158473 0,2.94779 0.95833,3.00578 5.2864,0.31994 z m 302.906392,-4.20694 c 4.61857,-2.41691 22.50623,-16.37157 23.23596,-18.127 1.35733,-3.265205 -21.76963,-30.411142 -25.90876,-30.411142 -3.567,0 -26.56868,17.610389 -26.56868,20.341329 0,3.11567 23.04698,29.815333 25.62564,29.687003 0.46689,-0.0232 2.09402,-0.69381 3.61584,-1.49019 z m -64.61896,-11.22987 c 9.58636,-6.70013 21.7696,-16.074233 22.20204,-17.082863 0.34246,-0.798806 -14.02977,-18.835848 -22.16644,-27.818697 l -3.0985,-3.420738 -15.65497,11.600207 -15.65495,11.600207 3.91829,4.934257 c 8.3274,10.486542 21.34328,24.585237 22.70588,24.594807 0.78572,0.006 4.27261,-1.97772 7.74865,-4.40718 z m -63.1744,-10.969733 c 5.54848,-3.87303 11.78458,-8.691176 13.85797,-10.707005 3.24988,-3.159627 3.57598,-4.057881 2.36437,-6.512623 -1.77659,-3.599435 -20.81308,-24.616952 -22.29665,-24.616952 -1.19093,0 -29.02296,20.699603 -30.20407,22.463765 -0.95716,1.42964 22.11962,26.414658 24.39722,26.414658 0.98616,0 6.33267,-3.16883 11.88116,-7.041843 z m 231.31204,3.226943 c 2.89027,-2.668065 1.56716,-5.486883 -5.23034,-11.142972 -7.32954,-6.098788 -23.93836,-17.230353 -25.7085,-17.230353 -3.39005,0 3.52525,9.535876 15.34551,21.160782 8.71068,8.566703 12.31861,10.235513 15.59333,7.212543 z M 189.76103,91.002322 c 8.14716,-5.940208 15.31997,-11.263239 15.93958,-11.828957 1.38203,-1.261855 -20.67138,-25.056941 -23.2229,-25.056941 -1.92291,0 -29.05027,21.235747 -29.80801,23.334192 -0.48191,1.334612 19.63579,24.352074 21.28418,24.352074 0.54677,0 7.65999,-4.860163 15.80715,-10.800368 z m -59.30559,-6.241988 c 5.2972,-4.11612 8.90084,-7.840148 8.90084,-9.198184 0,-2.41255 -9.40762,-13.755426 -13.23672,-15.959663 -1.91936,-1.104888 -4.33516,0.61544 -16.04901,11.428747 l -13.789552,12.72942 3.29305,4.550434 c 1.811172,2.50274 4.823332,6.056789 6.693682,7.897889 l 3.40065,3.347448 5.94312,-3.939898 c 3.26871,-2.16695 9.94849,-7.052236 14.84394,-10.856193 z m 298.18367,0.307544 c 6.74778,-5.349003 12.41206,-10.075427 12.58728,-10.503163 0.56859,-1.388055 -15.6708,-18.436601 -21.41212,-22.478998 -8.26231,-5.817389 -11.16438,-5.333011 -23.75107,3.964222 -5.87806,4.341864 -11.21034,8.338507 -11.84951,8.881427 -1.12421,0.954906 12.04195,16.479205 22.87872,26.976441 3.89663,3.77455 5.67475,4.74596 7.22352,3.9463 1.12997,-0.58342 7.5754,-5.437225 14.32318,-10.786229 z m -72.91734,-6.383129 c 14.99942,-11.115476 16.89706,-13.209043 14.97125,-16.516954 -2.34817,-4.033415 -19.87037,-23.78662 -22.33063,-25.173878 -1.69838,-0.957657 -4.11643,0.17167 -11.62297,5.428378 -5.21315,3.650683 -11.6662,8.445911 -14.34013,10.656063 l -4.86169,4.018458 9.17586,10.729412 c 9.56407,11.183375 16.65507,18.478433 17.96154,18.478433 0.42038,0 5.39143,-3.428961 11.04677,-7.619912 z m -67.72397,-7.13263 c 5.25802,-4.179781 11.52833,-9.511688 13.93402,-11.848685 l 4.374,-4.249084 -2.43684,-3.53978 c -3.72247,-5.407317 -20.1383,-22.833442 -21.50966,-22.833442 -1.4565,0 -19.40083,13.747749 -24.78826,18.991117 -3.82048,3.718322 -3.8229,3.730092 -1.56497,7.600499 2.52898,4.334991 20.06493,23.478975 21.50684,23.478975 0.50867,0 5.22686,-3.41982 10.48487,-7.5996 z m -61.39934,-7.885195 c 7.77478,-5.893892 14.30893,-11.455297 14.52034,-12.358677 0.40453,-1.728555 -1.96005,-4.640731 -14.39025,-17.722812 l -7.61404,-8.01334 -7.78904,5.629026 c -13.21173,9.547926 -20.31154,15.887796 -20.31154,18.137446 0,2.782981 18.316,24.873386 20.73296,25.005429 0.39358,0.02151 7.07679,-4.783179 14.85157,-10.677072 z m -48.60021,-16.17836 c 0.0557,-0.694734 -2.68395,-4.133759 -6.0881,-7.642276 -7.43543,-7.663392 -8.42134,-7.617075 -22.43091,1.05379 -12.1285,7.506627 -17.08954,12.241069 -16.03646,15.303964 0.43709,1.271266 4.06757,5.308683 8.06775,8.972041 l 7.27305,6.660648 14.55671,-11.542506 c 8.00619,-6.348379 14.60227,-12.110927 14.65796,-12.805661 z m 210.99929,6.484987 c 5.11099,-4.012698 10.09768,-7.993782 11.08157,-8.846854 1.49411,-1.29548 0.063,-2.35206 -8.6856,-6.412612 -11.80477,-5.479023 -28.08565,-10.825114 -32.96657,-10.825114 -4.66644,0 -5.27612,1.868675 -2.1867,6.702309 2.67308,4.182228 22.05512,26.678085 22.98537,26.678085 0.26357,0 4.66094,-3.283117 9.77193,-7.295814 z m -69.11551,-6.71203 c 10.71706,-6.656387 19.64764,-14.63876 19.64764,-17.561549 0,-4.737764 -5.92,-9.96315 -13.34906,-11.782781 -21.3201,-5.222015 -24.51542,-4.906143 -33.02204,3.264372 l -4.39924,4.225432 6.23402,6.903734 c 7.74843,8.580826 17.69229,18.229224 18.78747,18.229224 0.45254,0 3.19807,-1.475295 6.10121,-3.278432 z M 265.59679,34.231924 c 6.57138,-4.928732 12.33694,-9.542315 12.81235,-10.252408 0.47542,-0.710091 -2.18125,-3.876251 -5.9037,-7.03591 -7.54137,-6.401203 -9.01814,-6.665763 -25.17445,-4.509923 -12.47632,1.664796 -20.15671,4.961702 -20.15671,8.65252 0,3.230672 4.55478,9.391025 13.29288,17.978657 7.56124,7.431015 9.19806,7.11622 25.12963,-4.832936 z m -65.82786,-1.676962 c 7.97001,-5.957625 14.49094,-11.590567 14.49094,-12.517648 0,-2.486425 -7.66862,-2.133415 -17.15234,0.789578 -12.10538,3.73102 -22.88234,8.412496 -22.88234,9.940014 0,2.344532 8.36333,12.620105 10.27157,12.620105 0.42969,0 7.30217,-4.874422 15.27217,-10.832049 z m 90.09335,-16.666876 c 1.24312,-1.856766 -0.18789,-2.702384 -4.57314,-2.702384 -4.38526,0 -5.81627,0.845618 -4.57315,2.702384 1.10475,1.650097 8.04154,1.650097 9.14629,0 z"
       style="fill:#000000;stroke-width:1.24081" />
    <path
       id="path57"
       d="m 866.83316,470.19809 c -10.6511,-1.75246 -23.3079,-11.31324 -28.4027,-21.45494 -3.9872,-7.93707 -4.85791,-15.01582 -4.2214,-34.31944 l 0.5439,-16.4934 2.1914,-0.94692 c 1.2053,-0.52081 2.1915,-1.31561 2.1915,-1.76622 0,-0.45061 -2.261,-5.5505 -5.0245,-11.33309 -2.76342,-5.78259 -6.22061,-13.24728 -7.68261,-16.58819 -2.44139,-5.57899 -10.24484,-22.24513 -11.82572,-25.25667 -0.36922,-0.70335 -1.84421,-3.92819 -3.27776,-7.16633 -2.68964,-6.07541 -4.46455,-8.5785 -14.17387,-19.98888 -9.09525,-10.68871 -17.05244,-22.39418 -19.35578,-28.47339 -1.24841,-3.29493 -2.94443,-15.27668 -2.24513,-15.861 0.37188,-0.31074 1.70514,-0.10181 3.0451,0.47718 2.8086,1.2136 2.85859,1.08477 0.85351,-2.19934 -2.39892,-3.92916 -4.59168,-12.89823 -4.59168,-18.78136 0,-2.91701 0.22437,-5.49113 0.4986,-5.72027 0.27423,-0.22915 2.12706,0.56096 4.11741,1.75579 1.99035,1.19482 4.6627,2.62347 5.93856,3.17477 l 2.31974,1.00237 0.35735,-3.66399 c 0.65107,-6.67562 2.20804,-13.88232 3.18406,-14.73796 0.78842,-0.69118 2.0118,-0.13783 6.77685,3.06522 3.19812,2.14977 7.2123,5.23532 8.9204,6.8568 1.70811,1.62147 3.25202,2.82583 3.43091,2.67635 0.17889,-0.14948 1.04274,-1.56068 1.91967,-3.13602 0.87694,-1.57533 3.12778,-4.87837 5.00188,-7.3401 1.87409,-2.46173 4.29707,-5.77067 5.38438,-7.35321 1.08731,-1.58253 2.84936,-4.10845 3.91565,-5.61313 l 1.93872,-2.7358 3.94799,2.34358 c 2.17137,1.28897 6.22457,3.88682 9.00707,5.77299 2.7825,1.88618 5.5633,3.42941 6.1795,3.42941 0.6162,0 2.9387,-1.87275 5.1612,-4.16166 3.4288,-3.53122 9.6774,-8.5051 14.7485,-11.73965 1.3735,-0.87606 3.1924,-0.0208 9.6068,4.51708 l 2.494,1.76446 4.0103,-2.55714 c 6.0043,-3.82859 6.7084,-3.83531 11.8473,-0.11311 4.3358,3.14054 10.5395,8.60683 13.6363,12.01547 l 1.5776,1.73645 8.2155,-5.20067 c 11.1405,-7.05228 10.6626,-6.88937 12.9113,-4.40083 1.0265,1.13587 4.3263,5.51802 7.333,9.73812 3.0068,4.2201 5.986,8.22644 6.6206,8.90297 0.6345,0.67653 1.3686,2.18713 1.6312,3.3569 0.2627,1.16976 0.6043,2.12684 0.7592,2.12684 0.155,0 1.7523,-1.33873 3.5496,-2.97496 4.9507,-4.50682 13.4687,-10.45263 14.9745,-10.45263 1.709,0 3.1505,4.91649 3.7649,12.84012 0.2432,3.13651 0.7086,5.70275 1.0342,5.70275 0.3256,0 2.9029,-1.29481 5.7272,-2.87735 2.8243,-1.58253 5.4339,-2.87734 5.799,-2.87734 0.3652,0 0.6639,2.7143 0.6639,6.03177 0,5.01276 -0.4075,7.09219 -2.412,12.30863 -1.3266,3.45227 -2.9228,6.93324 -3.5471,7.73548 -1.594,2.04824 -0.6605,2.44144 2.0158,0.84906 3.4907,-2.07694 3.9433,-1.77155 3.9433,2.66059 0,4.70861 -2.0916,11.45933 -5.4353,17.54276 -1.3133,2.38929 -2.695,5.01333 -3.0706,5.83121 -0.3756,0.81787 -1.7145,2.73999 -2.9754,4.27137 -1.261,1.53137 -2.2926,3.07006 -2.2926,3.41931 0,0.34924 -0.8096,1.44834 -1.7992,2.44242 -0.9895,0.99409 -1.9365,2.12762 -2.1043,2.51894 -0.1679,0.39133 -1.0774,1.54227 -2.0211,2.55764 -4.8249,5.19103 -12.6257,14.60966 -13.5977,16.41757 -1.6196,3.01256 -6.4944,13.77335 -6.4999,14.34807 0,0.27133 -0.5131,1.30783 -1.1345,2.30333 -1.0615,1.70053 -2.0281,3.77685 -6.8968,14.81463 -1.0859,2.46173 -2.446,5.33907 -3.0225,6.3941 -1.9596,3.58629 -6.5415,13.71658 -6.5415,14.46276 0,0.40864 -0.6448,1.92544 -1.4328,3.37066 -4.6773,8.57785 -4.9731,9.98088 -2.1044,9.98088 1.0006,0 2.1537,0.35967 2.5623,0.79926 0.4494,0.48347 0.7001,8.63089 0.6345,20.62095 -0.1127,20.6285 -0.1753,21.14246 -4.0064,32.88509 -2.0885,6.40172 -10.4939,13.69331 -19.282,16.72694 -1.9451,0.67145 -4.1507,1.51708 -4.9014,1.87919 -3.9219,1.89175 -23.6243,3.07155 -31.0075,1.85676 z m 21.7101,-3.81408 c 4.808,-0.69859 11.1698,-2.4256 11.8101,-3.20608 0.2105,-0.25649 1.5878,-0.89233 3.0609,-1.413 3.3804,-1.19487 9.3541,-5.59656 11.4609,-8.44495 3.351,-4.53061 5.4683,-13.81302 5.9276,-25.98671 0.3018,-8.00026 0.1754,-11.38547 -0.4369,-11.70166 -2.2824,-1.17872 -13.4681,-4.15704 -18.5351,-4.93523 -7.3935,-1.1355 -34.9427,-1.15003 -42.7992,-0.0226 -5.6412,0.80955 -8.4593,1.43812 -16.8348,3.75509 l -4.2087,1.16426 0.043,10.53932 c 0.039,9.56768 0.2389,11.09934 2.1639,16.61371 2.1506,6.1606 4.778,10.44671 8.4125,13.72367 1.1034,0.99489 2.0063,2.05461 2.0063,2.35493 0,0.30032 0.44,0.54604 0.9777,0.54604 0.5378,0 1.5217,0.50354 2.1864,1.11897 2.9438,2.7256 6.2018,4.40421 10.9924,5.66369 3.764,0.98955 17.6236,1.12396 23.7726,0.23053 z m -41.8911,-73.07529 c 0.1357,-0.58855 -1.0274,-3.8768 -2.5847,-7.30722 -1.5573,-3.43042 -3.4801,-7.80238 -4.2729,-9.71547 -2.9043,-7.00825 -3.8777,-8.3936 -5.5905,-7.9563 -2.1927,0.55981 -3.48564,1.51995 -3.48564,2.58845 0,0.84572 9.31164,20.97932 10.79414,23.33911 0.8529,1.35761 4.7747,0.6338 5.1396,-0.94857 z m 70.5764,-1.55543 c 0.5084,-1.31878 1.2256,-2.71683 1.5939,-3.10679 0.3682,-0.38995 1.3266,-2.26022 2.1296,-4.15616 0.8031,-1.89593 2.8768,-6.17873 4.6083,-9.51732 2.9132,-5.61744 3.0499,-6.1301 1.833,-6.87365 -2.013,-1.2299 -3.9246,-0.95965 -4.4931,0.63519 -0.4828,1.35444 -1.4764,3.55002 -8.2813,18.29992 -1.5202,3.29521 -2.5768,6.24448 -2.3479,6.55395 0.2289,0.30946 1.23,0.56265 2.2247,0.56265 1.4154,0 2.0095,-0.52122 2.7328,-2.39779 z m -64.5405,0.47956 c 0.4697,-1.50077 0.5509,-1.51718 2.493,-0.50376 2.1768,1.13593 2.5166,0.39912 1.5806,-3.42687 -0.4606,-1.88242 -1.733,-7.73859 -2.8277,-13.01371 -1.0947,-5.27513 -2.2947,-9.91358 -2.6666,-10.30768 -0.9487,-1.00517 -5.5621,-0.11436 -5.8487,1.12936 -0.1269,0.55075 1.3345,4.976 3.2476,9.83388 3.6068,9.15876 4.1384,11.46392 2.541,11.01899 -0.5156,-0.14359 -2.7075,-4.64628 -4.871,-10.00598 -3.9492,-9.78339 -5.04,-11.66967 -5.9987,-10.37343 -0.4488,0.60672 6.677,19.28019 7.9577,20.85363 0.2863,0.35168 0.9389,1.86228 1.4504,3.3569 0.9923,2.89982 2.287,3.53286 2.9424,1.43867 z m 56.8112,-1.11896 c 0.5357,-0.96711 2.6569,-6.07439 4.7136,-11.34952 2.0567,-5.27513 4.0841,-10.09077 4.5053,-10.70143 1.0655,-1.54496 0.9573,-3.20579 -0.1881,-2.88676 -0.5246,0.14611 -1.4827,1.53683 -2.1289,3.09047 -1.5162,3.64494 -3.4964,3.85516 -3.2418,0.34416 0.099,-1.36435 0.5682,-2.87156 1.0428,-3.34933 1.1173,-1.12494 -0.4896,-1.69181 -3.9924,-1.40843 -2.9423,0.23804 -2.666,-0.45927 -5.6549,14.27191 -1.0703,5.27513 -2.1365,10.38241 -2.3693,11.34952 -0.2972,1.23429 -0.1111,1.75837 0.6244,1.75837 0.9698,0 4.3553,-6.93555 6.7784,-13.88621 0.9697,-2.78156 2.2433,-3.11711 2.2433,-0.59105 0,0.78787 -1.027,4.15177 -2.2821,7.47532 -1.2552,3.32355 -2.2883,6.4025 -2.2957,6.84209 -0.024,1.39943 1.2371,0.86088 2.2454,-0.95911 z m -40.1334,-0.28046 c 0.1239,-0.10951 0.036,-6.48508 -0.1949,-14.16794 l -0.4202,-13.96884 -6.3267,0.22154 c -3.4797,0.12184 -6.5173,0.38096 -6.7503,0.57581 -0.2329,0.19484 -0.093,1.92124 0.3116,3.83645 0.4043,1.9152 1.441,7.51047 2.3038,12.43392 2.3333,13.31476 1.6235,12.06398 6.6025,11.63459 2.3369,-0.20154 4.3503,-0.45602 4.4742,-0.56553 z m 29.0686,0.1285 c 0.2569,-0.34733 0.8253,-3.2966 1.2632,-6.55394 0.4378,-3.25734 1.0897,-6.49791 1.4487,-7.20126 0.6746,-1.32188 2.5273,-12.4966 2.1167,-12.76688 -0.7221,-0.47532 -7.8065,-1.61982 -10.0265,-1.61982 h -2.613 l -0.4916,3.93025 c -0.9101,7.27574 -0.5905,24.06385 0.4649,24.41969 1.7352,0.58507 7.3615,0.43572 7.8376,-0.20804 z m -12.0311,-13.92603 0.2066,-13.59842 -2.0649,-0.65598 c -1.1356,-0.36079 -4.1555,-0.57165 -6.7109,-0.46858 l -4.6461,0.1874 -0.5678,13.4276 c -0.3124,7.38517 -0.4041,13.79853 -0.2039,14.2519 0.2681,0.60703 2.1323,0.77557 7.0723,0.63941 l 6.7082,-0.1849 z m -52.3524,-13.57646 c -0.26976,-0.52752 -1.29863,-2.97326 -2.28638,-5.43498 -0.98776,-2.46173 -2.13836,-5.05134 -2.55688,-5.75469 -0.41853,-0.70335 -1.83127,-3.86842 -3.13943,-7.0335 -1.30816,-3.16507 -2.64564,-5.99016 -2.97217,-6.27797 -0.66889,-0.58958 -5.69519,0.98741 -6.46516,2.02843 -0.2752,0.37207 0.0701,1.76817 0.76741,3.10243 1.48105,2.83403 5.04196,10.29297 7.67793,16.08271 3.08444,6.77478 2.83607,6.56845 6.40295,5.31917 2.19703,-0.76949 2.92363,-1.34346 2.57173,-2.0316 z m 103.2641,-12.65345 c 3.2007,-6.78355 5.6357,-12.73393 5.4111,-13.22306 -0.2246,-0.48913 -1.4771,-1.20061 -2.7832,-1.58107 -2.8293,-0.82412 -3.0938,-0.57901 -4.79,4.43884 -0.6539,1.93421 -1.512,4.09222 -1.907,4.79557 -2.9844,5.31452 -7.7944,17.71655 -7.0866,18.27215 1.075,0.84382 3.6392,1.02821 4.4956,0.32327 0.4623,-0.38057 3.4593,-6.24214 6.6601,-13.0257 z m -97.414,11.10203 c 0,-1.26864 -9.78262,-25.42147 -10.55933,-26.07048 -0.39351,-0.32881 -1.07792,-0.1634 -1.63195,0.39442 -0.93067,0.93701 0.67779,5.26145 7.62998,20.51368 0.8015,1.75837 1.8107,4.00563 2.2426,4.99389 0.7625,1.74437 2.3187,1.85745 2.3187,0.16849 z m 81.8785,-0.46777 c 0,-0.36569 0.509,-1.57158 1.1312,-2.67975 3.059,-5.44862 10.4636,-23.39959 9.9426,-24.10397 -1.1043,-1.49307 -2.4166,-0.29608 -4.0631,3.70609 -0.9766,2.37381 -2.0562,4.89148 -2.3992,5.59483 -0.7894,1.61901 -2.4577,5.93674 -4.1998,10.86996 -0.7451,2.11005 -1.6997,4.45642 -2.1213,5.21416 -0.4216,0.75773 -0.53,1.69756 -0.2409,2.08851 0.594,0.80312 1.9505,0.32339 1.9505,-0.68983 z m -71.8967,-0.96755 c 0.3377,-0.29151 -0.055,-3.40736 -0.8719,-6.92411 -0.8171,-3.51675 -2.1152,-9.44315 -2.8845,-13.16978 -1.5348,-7.43402 -1.9026,-8.25043 -3.7174,-8.25043 -2.128,0 -9.3521,2.20545 -9.70566,2.96304 -0.27317,0.58534 7.61306,20.83335 9.89366,25.40217 0.4839,0.96937 1.1582,1.12708 3.633,0.84971 1.6714,-0.18732 3.3152,-0.57909 3.6528,-0.8706 z m 67.3246,-1.96869 c 0.5409,-1.67045 1.2426,-3.32492 1.5593,-3.6766 1.2114,-1.34515 8.5407,-20.7641 8.1544,-21.60517 -0.5858,-1.27559 -10.5836,-2.6022 -11.7122,-1.55409 -0.4619,0.42896 -1.2775,3.22568 -1.8124,6.21491 -0.5349,2.98924 -1.7946,8.955 -2.7992,13.25725 -2.2336,9.56542 -2.234,9.60696 -0.1048,9.94965 5.1396,0.82718 5.6768,0.62033 6.7149,-2.58595 z m -48.637,0.29598 c 0.024,-0.0749 -0.074,-6.85619 -0.2195,-15.0696 l -0.2639,-14.93347 -5.4843,0.38015 c -12.1089,0.83934 -12.7568,0.98474 -12.7254,2.85584 0.037,2.21551 4.2278,25.5288 4.9086,27.30772 0.1771,0.46289 2.3892,0.50591 6.9995,0.13612 3.7073,-0.29735 6.7606,-0.60189 6.785,-0.67676 z m 36.626,-3.81273 c 0.6745,-2.90132 1.7593,-8.72793 2.4107,-12.94804 0.6514,-4.2201 1.3608,-8.57848 1.5765,-9.68528 0.3866,-1.9837 0.3401,-2.01767 -3.2625,-2.3842 -2.0101,-0.20451 -6.3234,-0.55878 -9.5852,-0.78728 l -5.9304,-0.41543 v 15.39746 15.39747 l 4.7826,0.22701 c 2.6304,0.12486 5.6824,0.28246 6.7822,0.35022 1.918,0.11817 2.0498,-0.0922 3.2261,-5.15193 z m -19.0246,-9.75099 c -0.014,-7.38518 -0.2786,-14.21886 -0.5885,-15.18597 -0.5509,-1.71906 -0.6912,-1.75837 -6.2735,-1.75837 -5.2862,0 -5.7414,0.10678 -6.1324,1.43867 -0.2324,0.79127 -0.325,7.48109 -0.2059,14.86626 l 0.2165,13.4276 4.2087,0.38933 c 2.3148,0.21413 5.2418,0.358 6.5044,0.3197 l 2.2957,-0.0696 -0.025,-13.4276 z m -67.66314,-9.43129 c 3.40119,-1.62279 3.45615,-1.75377 1.90495,-4.53908 -0.61717,-1.10817 -2.20559,-4.60447 -3.52983,-7.76954 -3.21705,-7.68913 -12.18287,-21.68458 -12.18287,-19.0172 0,1.37763 2.40913,10.76352 3.07593,11.98369 0.38436,0.70335 1.05633,3.53917 1.49327,6.30182 0.84178,5.32238 4.33113,14.47899 5.51758,14.47899 0.38813,0 2.06257,-0.64741 3.72097,-1.43868 z m 128.09274,-4.47586 c 0.6747,-1.49462 1.7211,-4.73163 2.3254,-7.19335 0.6042,-2.46173 1.9782,-7.35321 3.0534,-10.86996 3.1979,-10.45978 2.1211,-10.0374 -5.4546,2.1394 -1.826,2.93504 -3.32,5.82677 -3.32,6.42606 0,0.59929 -0.2986,1.36297 -0.6635,1.69706 -0.7475,0.68434 -3.1626,6.51766 -3.1626,7.63883 0,0.63231 4.0392,2.72281 5.4845,2.83856 0.2809,0.0225 1.0627,-1.18198 1.7374,-2.6766 z m -119.3427,0.82113 c 0.52577,-0.71084 -1.51089,-6.93157 -3.10565,-9.48583 -0.5926,-0.94913 -1.10443,-2.1573 -1.13741,-2.68481 -0.033,-0.52752 -1.28732,-1.81303 -2.78743,-2.8567 -2.72002,-1.89241 -2.7259,-1.89328 -2.15737,-0.3197 0.31355,0.86783 1.35956,3.30428 2.32447,5.41433 0.9649,2.11005 2.3326,5.34706 3.03933,7.19335 1.19649,3.12575 2.72723,4.2223 3.82406,2.73936 z m 9.8511,-2.59685 c 2.7622,-0.71289 5.2046,-1.54278 5.4275,-1.84419 0.223,-0.30141 0.032,-2.23577 -0.4244,-4.29858 -0.6717,-3.03621 -1.4516,-4.30611 -4.095,-6.66747 -1.7959,-1.6043 -4.08691,-4.44546 -5.09111,-6.31366 -1.0042,-1.8682 -3.11165,-5.59098 -4.68322,-8.27283 -2.3543,-4.01755 -2.79806,-4.48206 -2.52032,-2.63816 0.91582,6.08016 1.1348,13.97296 0.44212,15.93553 -0.6311,1.78811 -0.40869,3.19111 1.21636,7.67291 2.20021,6.06805 3.06753,7.72261 4.04817,7.72261 0.36173,0 2.9177,-0.58327 5.6799,-1.29616 z m 99.0345,-0.78192 c 0.4663,-1.14294 1.5571,-3.77721 2.4241,-5.85394 2.1582,-5.16971 2.0778,-5.91798 -0.4572,-4.25181 -2.7369,1.7989 -6.4237,10.72654 -4.7872,11.59217 1.6606,0.87836 1.9091,0.74741 2.8203,-1.48642 z m -4.5967,-4.81306 c 1.6917,-4.21488 2.0797,-6.00294 1.5581,-7.18106 -0.3883,-0.87713 -0.4603,-5.16832 -0.1633,-9.7335 0.2921,-4.49062 0.3602,-8.16476 0.1513,-8.16476 -0.209,0 -2.2053,3.46053 -4.4363,7.69007 -2.9802,5.64971 -5.0337,8.56907 -7.7398,11.00296 -2.7712,2.49241 -3.8034,3.98129 -4.1678,6.01183 -0.5875,3.2738 -0.097,4.05361 2.5879,4.1177 1.1325,0.027 3.4365,0.42846 5.12,0.89207 1.6835,0.46361 3.4606,0.8731 3.9491,0.90997 0.4884,0.0369 1.9018,-2.4585 3.1408,-5.54528 z m -73.9625,2.10183 c 2.2685,-0.2097 5.5881,-0.53033 7.3768,-0.7125 l 3.2522,-0.33123 v -4.50451 c 0,-4.02042 -0.2017,-4.63713 -1.8774,-5.73847 -3.1222,-2.05214 -6.3365,-6.6093 -8.4923,-12.04012 -2.0334,-5.12261 -3.1388,-6.61202 -3.7209,-5.01381 -0.1683,0.46188 -1.3906,4.14873 -2.7164,8.19299 -1.3257,4.04427 -2.9058,8.25727 -3.5114,9.36224 -1.1912,2.17339 -0.8702,6.81016 0.6938,10.02211 0.7228,1.48447 1.2273,1.743 2.8738,1.47258 1.0984,-0.1804 3.8532,-0.49958 6.1218,-0.70928 z m 53.7364,-5.2068 c 0.092,-3.62246 -0.2387,-5.65624 -1.1812,-7.26794 -0.7197,-1.23086 -2.2257,-5.33107 -3.3466,-9.11158 -1.1209,-3.78051 -2.2537,-6.87005 -2.5174,-6.86564 -0.2637,0.004 -1.8291,2.95367 -3.4785,6.55394 -2.9742,6.49169 -7.2673,11.98092 -9.3702,11.98092 -0.8626,0 -1.0424,0.96432 -0.8644,4.63572 l 0.2249,4.63571 8.4174,0.46627 c 4.6296,0.25645 8.9339,0.56643 9.5652,0.68885 1.9984,0.3875 2.42,-0.55729 2.5508,-5.71625 z m -25.6671,-0.27446 c 0.2101,-3.94507 0.067,-4.35381 -2.522,-7.18674 -1.5097,-1.65208 -3.2056,-3.00378 -3.7686,-3.00378 -0.5631,0 -2.2844,1.16593 -3.8251,2.59097 -2.7099,2.50635 -2.794,2.73085 -2.576,6.87365 l 0.2253,4.28268 4.974,0.37509 c 7.639,0.57608 7.2411,0.78486 7.4924,-3.93187 z"
       style="fill:#000000;stroke-width:0.699491" />
  </g>
</svg>
