<?xml version="1.0" encoding="UTF-8" standalone="no"?>
<svg
   xmlns:dc="http://purl.org/dc/elements/1.1/"
   xmlns:cc="http://creativecommons.org/ns#"
   xmlns:rdf="http://www.w3.org/1999/02/22-rdf-syntax-ns#"
   xmlns:svg="http://www.w3.org/2000/svg"
   xmlns="http://www.w3.org/2000/svg"
   xmlns:sodipodi="http://sodipodi.sourceforge.net/DTD/sodipodi-0.dtd"
   xmlns:inkscape="http://www.inkscape.org/namespaces/inkscape"
   version="1.1"
   id="svg1314"
   width="1305.9995"
   height="1306.5498"
   viewBox="0 0 1305.9995 1306.5498"
   sodipodi:docname="М.ТЕННИС1.svg"
   inkscape:version="1.0 (4035a4fb49, 2020-05-01)">
  <metadata
     id="metadata1320">
    <rdf:RDF>
      <cc:Work
         rdf:about="">
        <dc:format>image/svg+xml</dc:format>
        <dc:type
           rdf:resource="http://purl.org/dc/dcmitype/StillImage" />
        <dc:title></dc:title>
      </cc:Work>
    </rdf:RDF>
  </metadata>
  <defs
     id="defs1318" />
  <sodipodi:namedview
     inkscape:document-rotation="0"
     pagecolor="#ffffff"
     bordercolor="#666666"
     borderopacity="1"
     objecttolerance="10"
     gridtolerance="10"
     guidetolerance="10"
     inkscape:pageopacity="0"
     inkscape:pageshadow="2"
     inkscape:window-width="1920"
     inkscape:window-height="1018"
     id="namedview1316"
     showgrid="false"
     inkscape:zoom="0.6428571"
     inkscape:cx="71.55555"
     inkscape:cy="651.55029"
     inkscape:window-x="-6"
     inkscape:window-y="-6"
     inkscape:window-maximized="1"
     inkscape:current-layer="g1322" />
  <g
     transform="translate(-581.77782,-1.7830754)"
     inkscape:groupmode="layer"
     inkscape:label="Image"
     id="g1322">
    <path
       id="path8"
       d="m 702.44449,1305.0716 c -3.66667,-1.7185 -9.96667,-5.7256 -14,-8.9045 -9.71551,-7.6575 -72.84128,-70.0595 -89.5257,-88.4992 -14.49755,-16.0227 -17.14097,-21.486 -17.14097,-35.4258 0,-18.3608 9.49165,-28.688 144,-156.6765 86.90981,-82.69724 157.28358,-151.56051 163.86262,-160.34552 24.24911,-32.37995 36.25383,-77.48779 32.2016,-120.99783 -2.15452,-23.13383 -5.77781,-39.28663 -15.40289,-68.66667 -12.02055,-36.6921 -20.66132,-65.00382 -20.66132,-67.69734 0,-1.29812 88.80827,86.50744 203.94527,201.64261 112.1699,112.16809 203.7834,204.10385 203.5857,204.30165 -1.0014,1.0014 -37.6147,-9.76803 -57.3463,-16.86778 -43.1728,-15.53432 -60.0517,-18.72666 -98.8164,-18.68932 -25.7309,0.0248 -34.442,1.24957 -53.3569,7.50197 -27.4149,9.0621 -46.2889,20.42119 -65.7896,39.59463 -14.8524,14.6032 -91.18361,93.5202 -137.55381,142.2136 -109.50994,114.9966 -134.36839,139.67 -148.10238,147 -9.08223,4.8473 -20.24655,5.04 -29.89892,0.516 z m 1045.77451,1.8776 c -40.7239,-7.4679 -73.658,-32.0423 -92.1062,-68.7269 -23.6788,-47.0856 -12.874,-103.3093 27.1754,-141.4098 10.6734,-10.1539 18.2127,-15.3059 32.1437,-21.9654 17.3313,-8.285 29.3473,-10.9538 49.6793,-11.0343 30.8799,-0.1221 56.2792,9.3433 81.0966,30.2222 16.4749,13.8603 32.2691,39.3837 38.4821,62.1873 2.6067,9.5669 3.0686,14.3466 2.9636,30.6667 -0.1092,16.9812 -0.564,20.7852 -3.7383,31.2675 -12.8268,42.3563 -46.5487,75.311 -88.1374,86.1322 -11.9047,3.0975 -37.3983,4.5237 -47.5588,2.6605 z M 1123.7829,766.89398 880.02747,523.13581 l 0.90216,-13.79012 c 5.53362,-84.58433 49.01051,-179.62521 122.80677,-268.45679 32.2304,-38.79705 95.0798,-103.08835 122.0675,-124.86791 73.5277,-59.338351 163.8292,-99.27245 251.3073,-111.1358209 22.6979,-3.0781901 63.0071,-4.04958274 86.1634,-2.0764115 92.353,7.8695054 174.3365,41.8538504 250.5032,103.8402924 19.9265,16.21669 57.261,53.9667 73.0542,73.86731 54.3823,68.52583 86.6617,142.77998 98.4728,226.52236 3.2748,23.21878 3.3022,80.68361 0.049,103.18352 -9.0638,62.69127 -26.5874,116.69215 -54.5169,168 -27.8238,51.11353 -60.7696,93.98867 -109.3366,142.28898 -91.7529,91.24888 -181.7025,150.23844 -267.7227,175.57427 -23.125,6.81111 -48.4596,11.28721 -78.7864,13.91971 l -7.4531,0.647 z"
       style="fill:#000000;stroke-width:1.33333" />
  </g>
</svg>
