<?xml version="1.0" encoding="UTF-8" standalone="no"?>
<svg
   xmlns:dc="http://purl.org/dc/elements/1.1/"
   xmlns:cc="http://creativecommons.org/ns#"
   xmlns:rdf="http://www.w3.org/1999/02/22-rdf-syntax-ns#"
   xmlns:svg="http://www.w3.org/2000/svg"
   xmlns="http://www.w3.org/2000/svg"
   xmlns:sodipodi="http://sodipodi.sourceforge.net/DTD/sodipodi-0.dtd"
   xmlns:inkscape="http://www.inkscape.org/namespaces/inkscape"
   inkscape:version="1.0 (4035a4fb49, 2020-05-01)"
   sodipodi:docname="Б.ТЕННИС1.svg"
   viewBox="0 0 2345.967 1974.2188"
   height="1974.2188"
   width="2345.967"
   id="svg464"
   version="1.1">
  <metadata
     id="metadata470">
    <rdf:RDF>
      <cc:Work
         rdf:about="">
        <dc:format>image/svg+xml</dc:format>
        <dc:type
           rdf:resource="http://purl.org/dc/dcmitype/StillImage" />
        <dc:title></dc:title>
      </cc:Work>
    </rdf:RDF>
  </metadata>
  <defs
     id="defs468" />
  <sodipodi:namedview
     inkscape:current-layer="g472"
     inkscape:window-maximized="1"
     inkscape:window-y="-6"
     inkscape:window-x="-6"
     inkscape:cy="1159.1171"
     inkscape:cx="1486.8927"
     inkscape:zoom="0.30235804"
     showgrid="false"
     id="namedview466"
     inkscape:window-height="1018"
     inkscape:window-width="1920"
     inkscape:pageshadow="2"
     inkscape:pageopacity="0"
     guidetolerance="10"
     gridtolerance="10"
     objecttolerance="10"
     borderopacity="1"
     bordercolor="#666666"
     pagecolor="#ffffff"
     inkscape:document-rotation="0" />
  <g
     transform="translate(415.19921,21.276952)"
     id="g472"
     inkscape:label="Image"
     inkscape:groupmode="layer">
    <path
       id="path8"
       d="m -319.55573,1927.686 c -24.175,-10.4214 -78.7861,-73.7743 -90.113,-104.5375 -15.8114,-42.9431 2.9456,-79.6181 47.7538,-93.3717 76.0375,-23.3393 49.221,-4.7665 343.075703,-237.6094 185.157897,-146.7142 279.071897,-223.5865 295.192097,-241.626 31.431,-35.1736 37.7089,-36.908 60.5364,-16.7254 l 14.6955,12.9929 -9.952,14.6621 -9.952,14.662 6.1719,16.9097 c 6.4482,17.6667 30.5792,42.4219 42.6263,43.729 3.8373,0.4164 13.4978,-1.4402 21.4679,-4.1257 l 14.491,-4.8827 8.1112,12.0603 c 10.007,14.879 12.5445,28.7937 6.5842,36.1056 -2.4838,3.0471 -17.8787,12.7386 -34.2108,21.5366 -27.3489,14.7327 -387.603597,284.8924 -531.0153,398.2152 -57.9105,45.7605 -60.928,48.827 -76.7321,77.9801 -19.6452,36.2386 -28.5374,46.7735 -46.4325,55.0103 -18.6899,8.6026 -40.8705,8.2518 -62.2983,-0.9854 z m 1240.0119,19.401 c -25.4233,-6.6517 -48.9467,-17.5499 -68.4907,-31.731 -24.2068,-17.5644 -24.5206,-19.2911 -8.214,-45.1926 26.0827,-41.4299 41.9872,-88.1049 51.3088,-150.5759 7.9996,-53.611 8.2214,-70.5052 1.6679,-127.1246 -1.0403,-8.9877 0.7391,-10.9499 14.4551,-15.94 40.5058,-14.7367 109.41133,-9.1452 149.73053,12.1503 25.0642,13.2382 24.7404,11.3096 9.3032,55.4147 -23.2754,66.4993 -24.95,168.1398 -3.948,239.6118 5.364,18.2543 9.9202,34.7814 10.1249,36.7269 0.6724,6.3915 -39.083,23.5163 -66.0655,28.458 -32.51353,5.9547 -62.53793,5.3541 -89.87223,-1.7976 z m -124.0043,-93.6332 c -35.7172,-67.6237 -31.8324,-141.952 10.5596,-202.0329 16.8431,-23.8712 49.4741,-53.591 54.5744,-49.7056 12.9366,9.855 4.4279,126.0881 -12.9335,176.6791 -10.6043,30.9007 -38.6855,88.8537 -42.8165,88.3631 -1.3832,-0.1652 -5.6061,-6.1509 -9.384,-13.3037 z m 300.90653,15.8539 c -12.6386,-46.7995 -15.4361,-88.7579 -9.4693,-142.029 5.1028,-45.5584 17.7251,-94.2875 25.3299,-97.7879 4.8572,-2.2357 28.3567,28.805 38.6435,51.0446 18.8692,40.7943 22.5401,90.2237 9.8558,132.7077 -8.0824,27.0707 -34.2313,71.2377 -47.8,80.7369 -8.1506,5.7061 -8.4941,5.1943 -16.5599,-24.6723 z M 458.93157,1360.932 c 0.4399,-3.8204 -2.8097,-13.6044 -7.2211,-21.7423 -4.4115,-8.1379 -7.8572,-16.2188 -7.657,-17.9574 0.5066,-4.3996 67.6325,-24.2981 110.7498,-32.8303 19.7035,-3.899 75.7832,-13.5573 124.6216,-21.463 48.8383,-7.9056 94.5545,-17.2905 101.5914,-20.8553 27.6414,-14.0028 17.4083,-31.6683 -28.8877,-49.8692 -58.4706,-22.9871 -113.445,-62.4426 -141.9265,-101.8615 -22.4666,-31.094 -40.2136,-74.4318 -50.4204,-123.12479 -5.1966,-24.7916 -11.7145,-48.3789 -14.4843,-52.4163 -6.7879,-9.8946 -22.2054,-9.2207 -32.2191,1.4084 -4.4427,4.7157 -27.229,53.5682 -50.6361,108.56099 -53.4926,125.6755 -92.6695,200.3757 -101.5641,193.6564 -2.3476,-1.7734 -9.6846,-7.7129 -16.3046,-13.1989 -6.6199,-5.4859 -15.2719,-10.3254 -19.2266,-10.7545 -6.3581,-0.6899 -5.0739,-3.9415 11.0952,-28.0924 60.237,-89.9729 118.0993,-217.01319 159.5533,-350.30929 60.9278,-195.9141 146.0204,-372.87624 237.7426,-494.41948 56.3375,-74.65417 102.3978,-119.06217 179.1641,-172.73712 C 1061.3181,49.153802 1194.4202,-5.6387677 1332.6344,-19.860128 c 52.3189,-5.38329 157.4544,5.23567 204.6283,20.66796028 C 1646.221,36.452132 1725.9897,91.789992 1802.408,184.74679 c 63.7892,77.59453 97.9713,145.2349 117.0573,231.63593 13.8895,62.87709 14.7373,101.23357 3.8655,174.87879 -13.5296,91.6483 -33.827,143.221 -91.3167,232.0225 -91.7048,141.6515 -248.0952,277.10479 -392.3618,339.83319 -147.1741,63.9925 -353.2549,107.8351 -574.50143,122.2222 -124.3106,8.0836 -280.3961,38.6556 -378.5086,74.1372 -28.7832,10.4093 -28.7414,10.407 -27.7107,1.4554 z m 504.5957,-184.7723 -17.8206,-21.6774 -19.4794,14.7952 -19.4793,14.7952 14.3558,3.8563 c 7.8957,2.121 24.6807,5.218 37.3,6.8822 l 22.9441,3.0258 z m 82.84513,-60.9786 -19.5715,-23.8072 -38.43133,29.6976 -38.4313,29.6975 19.5137,23.994 19.5137,23.9939 38.48913,-29.8843 38.4892,-29.8843 z m -126.45223,52.2465 22.3083,-17.5441 -19.7292,-23.7425 -19.7293,-23.7426 -38.2056,29.8055 c -26.1438,20.3958 -37.0992,31.1515 -34.701,34.0687 3.2871,3.9984 36.4391,13.8115 58.065,17.1873 6.967,1.0875 15.9415,-3.4099 31.9918,-16.0323 z m 152.47153,32.6206 c 15.9648,-0.2773 30.9926,-2.0304 33.3953,-3.8959 2.9767,-2.3112 -2.139,-11.3074 -16.0581,-28.2389 l -20.4264,-24.8471 -34.022,26.5754 -34.0219,26.5755 21.0531,2.1674 c 11.5793,1.1921 34.1152,1.9407 50.08,1.6635 z m -256.01593,-38.1847 c 0.1847,-1.6043 -8.5682,-13.6323 -19.451,-26.7289 l -19.7868,-23.8118 -14.5975,11.7015 c -9.139,7.326 -13.3854,13.1515 -11.3561,15.5791 1.7827,2.1327 15.8196,8.6524 31.1931,14.4882 32.5689,12.3634 33.5555,12.6179 33.9983,8.7719 z m 371.90633,25.5716 43.2774,-8.7328 -19.149,-23.2933 -19.149,-23.2932 -39.418,29.6846 -39.4181,29.6846 38.4957,-30.8103 38.4958,-30.8102 -20.4717,-24.9022 -20.4716,-24.9021 -38.2954,29.8756 -38.2954,29.8756 23.7722,29.1463 c 27.4511,33.6567 21.4583,32.4348 90.6271,18.4774 z m -309.29083,-114.123 -20.4957,-24.9314 -38.2858,29.8681 -38.2857,29.8681 20.2905,24.949 20.2905,24.9491 38.491,-29.8857 38.4909,-29.8857 z m -119.0929,48.382 15.8331,-12.5962 -20.4752,-24.6403 -20.4752,-24.6402 -23.4711,17.9914 c -12.9091,9.8953 -23.6201,19.2857 -23.8022,20.8676 -0.3588,3.1159 45.9894,33.9763 52.5561,34.9939 2.2008,0.3409 11.1263,-5.0482 19.8345,-11.9762 z m 226.2018,-5.6567 37.33043,-29.1228 -19.7493,-23.7666 -19.74923,-23.7666 -38.2392,29.8318 -38.2391,29.8317 18.5257,22.8263 c 10.1892,12.5545 19.4853,22.9304 20.6581,23.0577 1.1727,0.1272 18.9309,-12.8739 39.4626,-28.8915 z m 291.97803,31.6795 37.3303,-29.1228 -20.5604,-24.7428 -20.5605,-24.7429 -39.3726,30.5703 -39.3727,30.5702 18.5496,22.8556 c 10.2023,12.5707 20.3735,23.0536 22.6027,23.2954 2.2292,0.2419 20.8519,-12.6654 41.3836,-28.683 z m 22.4157,10.727 c 19.1505,-5.7268 34.944,-11.4966 35.0966,-12.8218 0.1526,-1.3252 -4.0282,-7.4227 -9.2905,-13.55 l -9.5679,-11.1407 -31.9392,25.354 c -17.5665,13.9446 -29.0544,24.7278 -25.5287,23.9625 3.5258,-0.7653 22.0791,-6.0771 41.2297,-11.804 z m -590.88993,-82.7103 23.2379,-18.2751 -20.2301,-24.8748 -20.2301,-24.8749 -24.6652,18.9458 c -13.5658,10.4202 -24.7886,20.0185 -24.9396,21.3295 -0.4857,4.2182 34.6641,45.0561 39.2045,45.5488 2.4116,0.2616 14.8417,-7.7481 27.6226,-17.7993 z m 110.0356,-0.438 37.3303,-29.1228 -20.5362,-24.7138 -20.5363,-24.71379 -39.3742,29.65069 -39.3743,29.6508 38.4957,-30.8103 38.4958,-30.81029 -20.4717,-24.9022 -20.4716,-24.9021 -38.3193,29.8943 -38.3193,29.89429 40.8143,49.7804 c 22.4478,27.3792 41.7417,49.8809 42.8753,50.0039 1.1336,0.123 18.8598,-12.8816 39.3915,-28.8991 z m 307.89503,-23.1315 -19.5716,-23.8072 -38.4313,29.6976 -38.4313,29.6975 19.5137,23.994 19.5137,23.9938 38.4891,-29.8842 38.4892,-29.8843 z m 282.5723,66.5697 28.0717,-12.0201 -19.885,-24.4506 -19.8852,-24.4505 -39.545,30.5732 -39.5451,30.5732 10.6324,13.3562 10.6325,13.3563 20.726,-7.4588 c 11.3993,-4.1024 33.3583,-12.8679 48.7977,-19.4789 z m -449.95353,-108.4387 -20.4957,-24.93139 -38.2857,29.86809 -38.2858,29.8681 20.2905,24.949 20.2905,24.9491 38.491,-29.8857 38.491,-29.8858 z m 274.07193,86.4735 38.2626,-29.8501 -20.27,-24.9239 -20.2701,-24.9239 -39.5841,30.6033 -39.584,30.6034 19.4702,23.9405 c 10.7086,13.1672 20.4248,24.044 21.5915,24.1706 1.1667,0.1265 19.3395,-13.2024 40.3839,-29.6199 z m -564.16213,-115.85669 -20.4442,-24.8688 -16.9102,12.8123 -16.9101,12.8122 4.2236,14.0539 c 2.3231,7.72959 7.7975,21.86169 12.1655,31.40459 l 7.9418,17.3508 25.1889,-19.3481 25.1889,-19.3481 z m 397.19913,72.10849 37.3304,-29.1228 -19.7493,-23.7666 -19.7492,-23.76659 -38.2391,29.83179 -38.23923,29.8317 18.52583,22.8263 c 10.1891,12.5545 19.4852,22.9304 20.658,23.0577 1.1727,0.1272 18.9309,-12.8739 39.4626,-28.8915 z m 291.978,31.6795 37.3303,-29.1228 -20.5604,-24.7429 -20.5604,-24.7428 -39.3727,30.5703 -39.3727,30.5702 18.5496,22.8556 c 10.2023,12.5707 20.3735,23.0536 22.6027,23.2954 2.2293,0.2419 20.8519,-12.6654 41.3836,-28.683 z m -458.43863,-72.4213 37.3303,-29.12279 -20.5362,-24.7139 -20.5363,-24.7138 -39.3742,29.6508 -39.3742,29.6507 38.4957,-30.8103 38.4957,-30.8102 -20.4716,-24.9022 -20.4717,-24.9021 -38.3193,29.8943 -38.3193,29.8943 40.8143,49.7804 c 22.4479,27.37919 41.7417,49.88089 42.8753,50.00389 1.1336,0.123 18.8598,-12.8816 39.3915,-28.8991 z m 289.11203,30.5013 38.3063,-29.8842 -19.5715,-23.80719 -19.5715,-23.8072 -39.4166,30.6044 -39.4166,30.60439 18.5496,22.8556 c 10.2023,12.5706 19.5091,22.9597 20.6818,23.087 1.1727,0.1272 19.3701,-13.2166 40.4385,-29.6528 z m 291.9282,31.7183 38.2564,-29.8453 -18.5257,-22.8263 c -10.1892,-12.5544 -20.2795,-23.01649 -22.4229,-23.24909 -2.1433,-0.2325 -21.1832,12.58599 -42.3108,28.48569 l -38.4137,28.9086 37.4932,-30.0283 c 20.6213,-16.5155 37.6895,-31.73249 37.9294,-33.81539 0.2398,-2.083 -8.0429,-13.97 -18.4061,-26.4157 l -18.8422,-22.6284 -39.4064,30.5964 -39.4064,30.59649 40.8383,49.8097 c 22.4611,27.3953 41.7658,49.9103 42.8994,50.0333 1.1335,0.1229 19.2764,-13.2068 40.3175,-29.6217 z m 23.1808,-3.3391 c 18.1297,-11.0473 23.4925,-16.1336 20.6527,-19.588 -2.8398,-3.4543 -11.3112,1.224 -32.6244,18.017 -31.1987,24.5819 -26.7497,25.1657 11.9718,1.5708 z m -770.68163,-99.62239 37.3303,-29.1229 -20.5362,-24.7138 -20.5363,-24.7138 -38.3875,29.6637 -38.3875,29.6637 19.4722,23.9428 c 10.7096,13.1685 20.4266,24.04629 21.5933,24.17289 1.1667,0.1266 18.92,-12.87509 39.4517,-28.89259 z m 306.97443,-24.2587 -20.4957,-24.9314 -38.28573,29.8681 -38.2858,29.8682 20.2905,24.94899 20.2905,24.949 38.49103,-29.8857 38.491,-29.88569 z m 274.0719,86.47349 38.2626,-29.8501 -20.27,-24.92379 -20.2701,-24.924 -39.584,30.6034 -39.5841,30.60339 19.4703,23.9404 c 10.7085,13.1673 20.4247,24.044 21.5914,24.1706 1.1667,0.1266 19.3395,-13.2024 40.3839,-29.6199 z M 626.50537,927.78911 c -13.0659,-16.094 -20.2351,-22.3526 -21.4628,-18.7369 -1.0139,2.986 0.3759,19.4969 3.0885,36.6909 l 4.9319,31.2617 16.5309,-12.5249 16.5308,-12.5248 z m 539.63533,9.4891 -19.4914,-23.9664 -39.5841,30.6033 -39.584,30.6034 19.4914,23.9665 19.4914,23.96639 39.584,-30.60329 39.5841,-30.6034 z m 407.7907,85.75869 c 21.0741,-16.945 54.488,-45.99639 74.2532,-64.55869 l 35.9366,-33.7494 -22.2644,-27.0828 -22.2644,-27.0828 -38.4753,29.7315 -38.4753,29.7316 20.4717,24.9022 20.4716,24.9021 39.4199,-29.6861 39.4199,-29.686 -38.024,30.4423 c -21.2889,17.0441 -37.0877,32.364 -35.8967,34.8086 1.2466,2.5588 0.1348,3.364 -2.686,1.9451 -6.3022,-3.1701 -81.3073,55.26079 -78.4538,61.11759 1.1822,2.4266 3.5222,4.5609 5.2,4.743 1.6777,0.182 20.2929,-13.5332 41.367,-30.4782 z m -883.94563,-105.45489 37.3304,-29.1227 -19.7492,-23.7667 -19.7493,-23.7666 -38.2391,29.8318 -38.2392,29.8317 18.5258,22.8264 c 10.1892,12.5544 19.4853,22.9304 20.658,23.0576 1.1727,0.1272 18.9309,-12.8739 39.4626,-28.8915 z m 291.978,31.6795 37.33043,-29.1228 -20.53633,-24.7138 -20.5363,-24.7138 -39.3742,29.6508 -39.3742,29.6507 38.4957,-30.8103 38.4957,-30.8102 -20.4716,-24.9022 -20.4717,-24.9021 -38.3193,29.8943 -38.3192,29.8943 40.8142,49.7803 c 22.4479,27.3792 41.7418,49.881 42.8754,50.004 1.1335,0.123 18.8597,-12.8816 39.3914,-28.8992 z m 289.11213,30.5014 38.3063,-29.8842 -19.5716,-23.8072 -19.5715,-23.8072 -39.4166,30.6044 -39.4166,30.6043 18.5496,22.8557 c 10.2023,12.5706 19.5091,22.95969 20.6818,23.08699 1.1727,0.1272 19.3701,-13.21659 40.4386,-29.65279 z m 291.9281,31.71829 38.2565,-29.84529 -18.5258,-22.8263 c -10.1892,-12.5545 -20.2795,-23.0166 -22.4229,-23.2491 -2.1433,-0.2326 -21.1832,12.586 -42.3108,28.4857 l -38.4137,28.9086 37.4933,-30.0283 c 20.6213,-16.5155 37.6895,-31.7325 37.9293,-33.8154 0.2398,-2.083 -8.0429,-13.97 -18.4061,-26.4157 l -18.8422,-22.6284 -39.4064,30.5964 -39.4064,30.5964 40.8383,49.8098 c 22.4611,27.39529 41.7658,49.91029 42.8994,50.03319 1.1336,0.123 19.2765,-13.2067 40.3175,-29.6216 z m -747.50083,-102.96159 37.3303,-29.1228 -20.5362,-24.7138 -20.5363,-24.7138 -38.3875,29.6637 -38.3874,29.6637 19.4721,23.9428 c 10.7096,13.1685 20.4266,24.0463 21.5933,24.1729 1.1667,0.1265 18.92,-12.8751 39.4517,-28.8927 z m 289.06223,30.5402 38.2565,-29.8453 -18.5258,-22.8263 c -10.1892,-12.5544 -20.2776,-23.0163 -22.4186,-23.2486 -5.0385,-0.5467 -74.3828,52.953 -74.9431,57.8192 -0.4421,3.8399 33.4848,47.3073 37.2423,47.7149 1.1727,0.1273 19.3477,-13.199 40.3887,-29.6139 z m 291.9839,31.6764 38.2627,-29.8502 -20.2701,-24.9239 -20.2701,-24.9238 -39.584,30.6033 -39.5841,30.6034 19.4703,23.9405 c 10.7086,13.1672 20.4247,24.04399 21.5915,24.17059 1.1667,0.1265 19.3394,-13.20239 40.3838,-29.61989 z m -731.56703,-157.7399 -19.5486,-23.7793 -22.6618,17.371 -22.6618,17.3711 -0.048,31.1118 c -0.026,17.1115 1.5451,33.5232 3.4919,36.4705 2.7674,4.1897 11.9871,-1.2 42.2581,-24.7035 l 38.7184,-30.0623 z m 582.32033,61.2665 -19.4914,-23.9664 -39.584,30.6033 -39.5841,30.6034 19.4914,23.9665 19.4914,23.9664 39.5841,-30.6033 39.584,-30.6034 z m -476.15483,-19.6962 37.3303,-29.1227 -19.7492,-23.7667 -19.7492,-23.7666 -38.2392,29.8318 -38.2392,29.8317 18.5258,22.8264 c 10.1892,12.5544 19.4853,22.9304 20.658,23.0576 1.1727,0.1272 18.931,-12.8739 39.4627,-28.8915 z m 291.97793,31.6795 37.3304,-29.1228 -20.5604,-24.7428 -20.5605,-24.7429 -39.3726,30.5703 -39.37273,30.5703 18.5495,22.8556 c 10.20233,12.5706 20.37353,23.0535 22.60283,23.2954 2.2292,0.2418 20.8518,-12.6655 41.3835,-28.6831 z m 289.1121,30.5013 38.3063,-29.8841 -19.5716,-23.8072 -19.5715,-23.8072 -39.4166,30.6044 -39.4166,30.6043 18.5496,22.8556 c 10.2023,12.5706 19.5091,22.9598 20.6819,23.087 1.1727,0.1272 19.37,-13.2165 40.4385,-29.6528 z m -455.57273,-71.2432 37.3304,-29.1227 -20.5363,-24.7138 -20.5363,-24.7138 -38.3874,29.6637 -38.3875,29.6636 19.4721,23.9428 c 10.7096,13.1685 20.4266,24.0463 21.5934,24.1729 1.1666,0.1266 18.9199,-12.8751 39.4516,-28.8927 z m 289.06223,30.5402 38.2565,-29.8452 -18.5258,-22.8263 c -10.189,-12.5561 -20.2773,-23.018 -22.4184,-23.2503 -5.0385,-0.5467 -74.3828,52.953 -74.9431,57.8192 -0.4421,3.8399 33.4849,47.3073 37.2423,47.7149 1.1727,0.1273 19.3477,-13.199 40.3887,-29.6139 z m 291.978,31.6795 38.2565,-29.8452 -18.5258,-22.8264 c -10.189,-12.556 -20.2793,-23.0181 -22.4227,-23.2507 -2.1433,-0.2326 -20.7392,12.5919 -41.324,28.4987 l -37.427,28.9215 19.4721,23.9427 c 10.7097,13.1685 20.4266,24.0463 21.5934,24.1729 1.1667,0.1266 19.3366,-13.2002 40.3777,-29.6151 z m -731.58383,-157.7724 -19.5715,-23.8073 -38.4313,29.6976 -38.4313,29.6976 19.5137,23.9939 19.5136,23.9939 38.4892,-29.8843 38.4891,-29.8843 z m 273.15143,85.3463 38.2626,-29.8501 -20.2684,-24.9218 -20.2684,-24.9218 -37.46903,28.954 c -20.6079,15.9231 -37.6604,30.6147 -37.8943,32.6464 -0.4418,3.8367 33.4881,47.303 37.2428,47.7104 1.1727,0.1272 19.3504,-13.2012 40.39483,-29.6187 z m 309.1918,-24.052 -19.4914,-23.9664 -39.584,30.6033 -39.5841,30.6034 19.4914,23.9665 19.4914,23.9664 39.5841,-30.6033 39.584,-30.6034 z m 288.8284,32.2001 -20.4957,-24.9314 -38.2858,29.8681 -38.2857,29.8681 20.2905,24.949 20.2904,24.9491 38.491,-29.8857 38.491,-29.8858 z m -991.41333,-78.1227 c -8.8292,-10.9085 -16.5503,-19.8876 -17.158,-19.9535 -0.6076,-0.066 -2.9836,16.1978 -5.28,36.1416 l -4.1751,36.2615 21.3331,-16.3081 21.333,-16.308 z m 535.20313,4.1538 -20.4938,-24.9291 -39.4247,30.6106 -39.4246,30.6106 20.2939,24.9533 20.2939,24.9531 39.6245,-30.6346 39.6247,-30.6347 z m -308.77283,22.071 37.3303,-29.1228 -19.7492,-23.7666 -19.7492,-23.7666 -38.2392,29.8318 -38.2392,29.8317 18.5258,22.8264 c 10.1892,12.5544 19.4853,22.9303 20.658,23.0576 1.1727,0.1272 18.931,-12.8739 39.4627,-28.8915 z m 581.09003,62.1808 38.3063,-29.8841 -19.5716,-23.8072 -19.5715,-23.8072 -39.4166,30.6043 -39.4166,30.6044 18.5496,22.8556 c 10.2023,12.5706 19.5091,22.9598 20.6819,23.087 1.1727,0.1272 19.37,-13.2165 40.4385,-29.6528 z m 269.2212,49.0216 c 8.0757,-6.9498 22.5654,-22.5625 32.1994,-34.6947 l 17.5164,-22.0586 -15.7996,-19.219 -15.7996,-19.219 -39.4132,29.6808 -39.4132,29.6808 38.4957,-30.8103 38.4958,-30.8102 -20.4717,-24.9022 -20.4716,-24.9021 -38.3193,29.8943 -38.3193,29.8943 40.8143,49.7803 c 22.4478,27.3792 41.9367,49.9022 43.3086,50.051 1.3719,0.1489 9.1017,-5.4156 17.1773,-12.3654 z m -1016.77193,-151.9442 37.3304,-29.1228 -20.5342,-24.7113 -20.5341,-24.7112 -36.2706,28.0116 c -19.9488,15.4064 -36.4621,29.676 -36.6964,31.7102 -0.4421,3.8399 33.4849,47.3072 37.2423,47.7149 1.1727,0.1273 18.9309,-12.8739 39.4626,-28.8914 z m 289.6391,33.4959 c 19.4217,-14.9993 35.51653,-29.046 35.76633,-31.215 0.2497,-2.1689 -8.0249,-14.1262 -18.38813,-26.5719 l -18.8422,-22.6285 -39.3665,30.5655 -39.3664,30.5655 18.5495,22.8556 c 10.2023,12.5706 20.3014,23.0457 22.4424,23.278 2.1411,0.2323 19.7833,-11.8499 39.205,-26.8492 z m 291.40113,28.7237 38.2565,-29.8452 -18.5258,-22.8264 c -10.1892,-12.5544 -20.2775,-23.0163 -22.4186,-23.2486 -5.0385,-0.5467 -74.3827,52.953 -74.943,57.8192 -0.4422,3.8399 33.4848,47.3073 37.2422,47.7149 1.1727,0.1273 19.3477,-13.199 40.3887,-29.6139 z m 291.0519,32.4019 37.3304,-29.1227 -20.5363,-24.7138 -20.5363,-24.7138 -38.3874,29.6637 -38.3875,29.6636 19.4721,23.9428 c 10.7097,13.1685 20.4267,24.0463 21.5934,24.1729 1.1667,0.1266 18.9199,-12.8751 39.4516,-28.8927 z m -730.65773,-158.4948 -19.5715,-23.8073 -38.4313,29.6976 -38.4313,29.6976 19.5137,23.9939 19.5136,23.9939 38.4892,-29.8843 38.4891,-29.8843 z m 273.15143,85.3463 38.2626,-29.8501 -20.2701,-24.9239 -20.27,-24.9239 -39.5841,30.6033 -39.584,30.6034 19.4702,23.9405 c 10.7086,13.1672 20.4248,24.044 21.5915,24.1706 1.1667,0.1265 19.3394,-13.2024 40.3839,-29.6199 z m 309.1918,-24.052 -19.4914,-23.9664 -39.584,30.6033 -39.5841,30.6034 19.4914,23.9665 19.4914,23.9664 39.5841,-30.6033 39.584,-30.6034 z m -458.43863,-72.4213 -19.4914,-23.9664 -39.584,30.6033 -39.5841,30.6033 19.4914,23.9665 19.4914,23.9665 39.5841,-30.6034 39.584,-30.6033 z m 291.05663,30.6541 -20.4938,-24.9291 -39.4247,30.6106 -39.4246,30.6106 20.2939,24.9533 20.2939,24.9531 39.6246,-30.6346 39.6246,-30.6347 z m 271.3413,85.0131 37.3304,-29.1227 -19.7493,-23.7667 -19.7492,-23.7666 -38.2392,29.8318 -38.2391,29.8317 18.5257,22.8264 c 10.1892,12.5544 19.4853,22.9304 20.6581,23.0576 1.1727,0.1272 18.9309,-12.8739 39.4626,-28.8915 z M 657.37247,642.84691 c -12.6644,-14.9284 -22.3397,-25.9173 -21.5006,-24.4198 0.8391,1.4976 -0.2155,4.3916 -2.3432,6.4311 -3.7068,3.5529 -19.9612,68.7108 -22.3789,89.7082 -1.0702,9.295 1.6198,7.9326 34.0435,-17.2422 l 35.2055,-27.3348 z m 1128.55693,156.2467 c 25.1521,-37.8861 26.6969,-41.3118 21.4873,-47.6489 -5.2097,-6.3372 -8.4434,-4.6968 -44.9782,22.8155 l -39.3649,29.6435 38.4957,-30.8103 38.4958,-30.8102 -20.4717,-24.9022 -20.4716,-24.9021 -38.3145,29.8905 -38.3145,29.8906 35.6829,43.5576 c 19.6257,23.9567 36.8014,43.679 38.1681,43.8273 1.3668,0.1483 14.6803,-18.0998 29.5856,-40.5513 z m -1018.91783,-111.3044 37.3303,-29.1228 -20.5363,-24.7138 -20.5362,-24.7138 -39.3743,29.6507 -39.3742,29.6508 38.4957,-30.8103 38.4958,-30.8103 -20.4717,-24.9021 -20.4716,-24.9021 -38.3193,29.8942 -38.3193,29.8943 40.8143,49.7804 c 22.4478,27.3792 41.7417,49.8809 42.8753,50.0039 1.1336,0.123 18.8597,-12.8816 39.3915,-28.8991 z m 289.63903,33.4959 c 19.4217,-14.9993 35.5166,-29.046 35.7663,-31.215 0.2497,-2.1689 -8.0249,-14.1262 -18.3881,-26.5719 l -18.8422,-22.6285 -39.3664,30.5655 -39.36653,30.5655 18.5495,22.8556 c 10.20233,12.5706 20.30143,23.0457 22.44243,23.278 2.1411,0.2323 19.7833,-11.8499 39.205,-26.8492 z m 291.4011,28.7237 38.2565,-29.8452 -18.5258,-22.8264 c -10.1892,-12.5544 -20.2775,-23.0163 -22.4186,-23.2486 -5.0385,-0.5467 -74.3827,52.953 -74.943,57.8192 -0.4421,3.8399 33.4848,47.3072 37.2422,47.7149 1.1728,0.1273 19.3477,-13.199 40.3887,-29.6139 z m 291.052,32.4019 37.3303,-29.1227 -20.5363,-24.7138 -20.5362,-24.7138 -38.3875,29.6637 -38.3875,29.6636 19.4721,23.9428 c 10.7097,13.1685 20.4267,24.0463 21.5934,24.1729 1.1667,0.1266 18.9199,-12.8751 39.4517,-28.8927 z m -749.44073,-104.8621 38.3063,-29.8841 -19.5716,-23.8073 -19.5715,-23.8071 -39.4166,30.6043 -39.4166,30.6044 18.5496,22.8556 c 10.2023,12.5706 19.5091,22.9597 20.6818,23.087 1.1728,0.1272 19.3701,-13.2165 40.4386,-29.6528 z m 291.93433,31.7137 38.2626,-29.8501 -20.2701,-24.9239 -20.27,-24.9239 -39.5841,30.6034 -39.584,30.6033 19.4702,23.9405 c 10.7086,13.1672 20.4248,24.044 21.5915,24.1706 1.1667,0.1266 19.3394,-13.2024 40.3839,-29.6199 z m 306.9627,-22.4042 -19.5715,-23.8072 -38.4313,29.6975 -38.4313,29.6976 19.5137,23.9939 19.5137,23.9939 38.4891,-29.8843 38.4891,-29.8842 z m -456.2095,-74.0691 -19.4914,-23.9664 -39.58403,30.6033 -39.5841,30.6034 19.4914,23.9664 19.4914,23.9665 39.58413,-30.6033 39.584,-30.6034 z m 307.6897,55.0014 c 0.2494,-2.1664 -8.0255,-14.1217 -18.3887,-26.5674 l -18.8421,-22.6284 -39.3727,30.5703 -39.3727,30.5702 20.2922,24.9512 20.2922,24.9511 37.4691,-28.954 c 20.6081,-15.9248 37.6732,-30.7266 37.9227,-32.893 z m 254.7082,60.6657 37.3304,-29.1228 -19.7493,-23.7666 -19.7492,-23.7666 -38.2391,29.8318 -38.2392,29.8317 18.5258,22.8264 c 10.1891,12.5544 19.4852,22.9303 20.658,23.0576 1.1727,0.1272 18.9309,-12.8739 39.4626,-28.8915 z m -729.77993,-157.4344 -20.4938,-24.92914 -39.4246,30.61064 -39.4247,30.6106 20.2939,24.9532 20.2939,24.9532 39.6246,-30.6347 39.6246,-30.6347 z m 272.84423,87.2464 c 19.4218,-14.9993 35.5166,-29.046 35.7663,-31.215 0.2497,-2.1689 -8.0249,-14.1262 -18.3881,-26.5719 l -18.8421,-22.6285 -39.3665,30.5655 -39.3665,30.5655 18.5495,22.8556 c 10.2023,12.5706 20.3014,23.0457 22.4424,23.278 2.1411,0.2323 19.7833,-11.8499 39.205,-26.8492 z m 290.4751,29.4462 37.3303,-29.1228 -20.5362,-24.7138 -20.5363,-24.7138 -39.3742,29.6507 -39.3742,29.6508 38.4957,-30.8103 38.4957,-30.8103 -20.4716,-24.9021 -20.4717,-24.9021 -38.3193,29.8942 -38.3193,29.8943 40.8143,49.7804 c 22.4479,27.3792 41.7417,49.881 42.8753,50.0039 1.1336,0.123 18.8598,-12.8816 39.3915,-28.8991 z m 291.978,31.6794 37.3303,-29.1227 -20.5363,-24.7138 -20.5362,-24.7138 -38.3875,29.6637 -38.3875,29.6636 19.4721,23.9428 c 10.7097,13.1685 20.4267,24.0463 21.5934,24.1729 1.1667,0.1266 18.92,-12.8751 39.4517,-28.8927 z m 104.2662,14.2447 3.9375,-9.0232 -12.1128,8.1003 c -9.3594,6.259 -8.7369,5.2517 2.7387,-4.4316 11.5836,-9.7745 17.5517,-19.5161 27.1237,-44.2732 l 12.2722,-31.7413 -8.8982,-11.4693 -8.8983,-11.4693 -38.5286,29.9149 -38.5286,29.9148 25.3962,31.1055 c 25.9273,31.756 27.2574,32.2571 35.4982,13.3724 z m -1142.81283,-149.6129 37.3365,-29.12762 -18.7351,-22.49995 c -10.3044,-12.37499 -19.4631,-21.82806 -20.3527,-21.00688 -8.0521,7.43287 -45.3475,95.03025 -42.1276,98.94715 3.6777,4.4736 6.8701,2.5592 43.8789,-26.3127 z m 289.1059,30.5061 38.30633,-29.8841 -19.57163,-23.8073 -19.5715,-23.80714 -39.4166,30.60434 -39.4165,30.6044 18.5495,22.8556 c 10.2023,12.5706 19.5091,22.9597 20.6819,23.087 1.1727,0.1272 19.37,-13.2165 40.4385,-29.6528 z m 291.92813,31.7183 38.2565,-29.8452 -18.5258,-22.8264 c -10.1892,-12.5544 -20.2794,-23.0165 -22.4228,-23.249 -2.1434,-0.2326 -21.1833,12.586 -42.3108,28.4857 l -38.4138,28.9085 37.4933,-30.0282 c 20.6213,-16.5155 37.6895,-31.7325 37.9293,-33.8154 0.2398,-2.083 -8.0429,-13.97006 -18.4061,-26.41574 l -18.8421,-22.62843 -39.4065,30.59644 -39.4063,30.59643 40.8383,49.8097 c 22.461,27.3953 41.7657,49.9103 42.8993,50.0333 1.1336,0.123 19.2765,-13.2068 40.3175,-29.6217 z m 306.969,-22.409 -19.5716,-23.8072 -38.4313,29.6976 -38.4313,29.6975 19.5137,23.994 19.5137,23.9939 38.4891,-29.8843 38.4892,-29.8843 z m -765.40143,-50.0171 38.2626,-29.85011 -20.2684,-24.92181 -20.2683,-24.9218 -37.4691,28.95402 c -20.6081,15.92476 -37.6605,30.61637 -37.8945,32.64808 -0.4417,3.83672 33.4881,47.30292 37.2428,47.71032 1.1727,0.1273 19.3505,-13.2012 40.3949,-29.6187 z m 390.33723,-87.08952 -19.4746,-23.94588 -39.5841,30.60333 -39.584,30.60336 19.4433,24.88257 19.4433,24.88254 -20.4841,-23.94349 -20.4842,-23.94352 -39.5402,30.56945 -39.5402,30.56946 19.5069,23.9856 19.507,23.9856 80.1328,-62.1516 80.1328,-62.15151 z m 481.2525,178.70482 37.3304,-29.1228 -19.7492,-23.7666 -19.7493,-23.7667 -38.2391,29.8318 -38.2392,29.8318 18.5258,22.8263 c 10.1892,12.5545 19.4853,22.9304 20.658,23.0576 1.1727,0.1273 18.9309,-12.8738 39.4626,-28.8914 z m -729.77983,-157.43447 -20.4939,-24.92911 -39.4246,30.61061 -39.4247,30.61061 20.2939,24.95326 20.2939,24.9532 39.6246,-30.6347 39.6246,-30.63472 z m 563.31923,116.69257 37.3304,-29.1228 -20.5363,-24.7137 -20.5363,-24.71386 -39.3742,29.65076 -39.3742,29.6508 38.4957,-30.8103 38.4957,-30.81028 -20.4716,-24.90213 -20.4717,-24.90213 -38.3193,29.89426 -38.3192,29.89429 40.8142,49.78039 c 22.4479,27.3792 41.7418,49.8809 42.8754,50.0039 1.1335,0.123 18.8597,-12.8816 39.3914,-28.8991 z m 291.978,31.6795 37.3303,-29.1228 -20.5362,-24.7138 -20.5363,-24.7138 -38.3875,29.6637 -38.3874,29.6637 19.4721,23.9428 c 10.7096,13.1685 20.4266,24.0463 21.5933,24.1728 1.1667,0.1266 18.92,-12.875 39.4517,-28.8926 z M 762.87517,521.01325 l 37.3303,-29.12278 -20.6439,-24.82412 -20.6438,-24.82408 -39.1175,30.86319 -39.1174,30.86323 18.3778,22.6439 c 10.1078,12.45418 20.2017,22.84183 22.4309,23.0837 2.2292,0.24187 20.8519,-12.66547 41.3836,-28.68304 z m 289.11203,30.50131 38.3063,-29.88413 -19.5715,-23.80722 -19.5715,-23.80718 -39.4166,30.60437 -39.41663,30.60437 18.5495,22.85564 c 10.20233,12.5706 19.50913,22.9597 20.68193,23.0869 1.1727,0.1273 19.37,-13.2165 40.4385,-29.65275 z m 291.0021,32.44085 37.3303,-29.12283 -20.5362,-24.71378 -20.5363,-24.71382 -39.3742,29.65074 -39.3743,29.65079 38.4957,-30.8103 38.4958,-30.81025 -20.4717,-24.90212 -20.4716,-24.90213 -38.3193,29.89425 -38.3193,29.89429 40.8143,49.78036 c 22.4478,27.3792 41.7417,49.881 42.8753,50.004 1.1336,0.123 18.8598,-12.8816 39.3915,-28.8992 z m 307.895,-23.1315 -19.5716,-23.80721 -38.4313,29.69761 -38.4313,29.6975 19.5137,23.994 19.5137,23.9938 38.4891,-29.8842 38.4892,-29.8843 z M 885.47677,510.81156 923.73317,480.96632 905.20737,458.14 c -10.1892,-12.55442 -20.2775,-23.01632 -22.4186,-23.24862 -5.0385,-0.54668 -74.3827,52.95298 -74.943,57.81921 -0.4421,3.83989 33.4848,47.30725 37.2422,47.71493 1.1728,0.12724 19.3477,-13.19902 40.3888,-29.61392 z m 871.59593,91.61055 37.3303,-29.1228 -19.7492,-23.76663 -19.7493,-23.76666 -38.2391,29.8318 -38.2392,29.83179 18.5258,22.8263 c 10.1892,12.5545 19.4853,22.9304 20.658,23.0576 1.1727,0.1273 18.9309,-12.8739 39.4627,-28.8914 z m 109.5217,16.7909 1.5499,-11.0864 -11.488,8.9196 c -11.3521,8.8142 -11.4122,9.0219 -5.0797,17.5654 6.0406,8.1496 6.6108,8.2739 9.9381,2.1667 1.9414,-3.5634 4.2273,-11.4678 5.0797,-17.5653 z m -839.3016,-174.22538 -20.4938,-24.9291 -39.42473,30.6106 -39.4246,30.61061 20.2938,24.95323 20.2939,24.95319 39.62463,-30.63469 39.6246,-30.63469 z m 563.3192,116.69258 37.3304,-29.12277 -20.5363,-24.71378 -20.5363,-24.71382 -39.3742,29.65074 -39.3742,29.65078 38.4957,-30.81029 38.4957,-30.81025 -20.4716,-24.90212 -20.4717,-24.90213 -38.3192,29.89425 -38.3193,29.89429 40.8142,49.78036 c 22.4479,27.37924 41.7418,49.88094 42.8754,50.00394 1.1335,0.123 18.8597,-12.8816 39.3914,-28.8991 z m 266.0713,51.6464 c 14.6351,-12.1177 19.2881,-27.126 20.4172,-65.85509 l 0.9338,-32.0336 -37.9807,29.34941 -37.9807,29.34938 19.4721,23.9428 c 10.7096,13.1685 20.4993,24.0542 21.7549,24.1904 1.2556,0.1362 7.2781,-3.8883 13.3834,-8.9433 z M 746.75677,427.30509 l -10.6234,-12.92251 -12.9276,20.74158 c -7.1102,11.40785 -17.2996,28.77258 -22.6431,38.58825 l -9.7156,17.84668 33.2666,-25.66575 33.2665,-25.66571 z m 114.0753,-23.05928 -20.4938,-24.92911 -39.4246,30.61061 -39.4247,30.6106 20.2939,24.95323 20.2939,24.95319 39.6246,-30.63469 39.6246,-30.63469 z m 272.31723,84.25179 38.3063,-29.88414 -19.5715,-23.80722 -19.5715,-23.80718 -39.4166,30.60437 -39.4166,30.60438 18.5495,22.85559 c 10.2023,12.57062 19.5091,22.95974 20.6819,23.08698 1.1727,0.12724 19.37,-13.21651 40.4385,-29.65278 z m 291.0021,32.44079 37.3304,-29.12277 -20.5363,-24.71379 -20.5363,-24.71382 -39.3742,29.65074 -39.3742,29.65074 38.4957,-30.81029 38.4957,-30.81024 -20.4716,-24.90213 -20.4717,-24.90213 -38.3193,29.89426 -38.3193,29.89429 40.8143,49.78035 c 22.4479,27.3792 41.7417,49.88099 42.8753,50.00398 1.1336,0.12299 18.8598,-12.88162 39.3915,-28.89919 z m 307.895,-23.13143 -19.5716,-23.80723 -38.4313,29.69759 -38.4313,29.69755 19.5137,23.99394 19.5137,23.9939 38.4892,-29.88432 38.4891,-29.88425 z m -765.40753,-50.01237 38.25643,-29.84523 -18.52583,-22.82633 c -10.1891,-12.55446 -20.2794,-23.01656 -22.4228,-23.24912 -2.1434,-0.23255 -21.1832,12.58601 -42.3108,28.48571 l -38.4137,28.90853 37.4932,-30.02822 c 20.6213,-16.51552 37.6895,-31.73249 37.9293,-33.81542 0.2399,-2.08297 -8.0429,-13.97 -18.4061,-26.41568 l -18.8421,-22.62844 -39.4064,30.59644 -39.4064,30.59645 40.8383,49.80969 c 22.461,27.3953 41.7657,49.91028 42.8994,50.03327 1.1335,0.12299 19.2764,-13.20674 40.3175,-29.62165 z m 306.96893,-22.40897 -19.5716,-23.80723 -38.4313,29.69759 -38.4313,29.69756 19.5138,23.99392 19.5136,23.99389 38.4892,-29.8843 38.4891,-29.88425 z m 564.627,114.0195 37.3303,-29.12278 -19.7492,-23.76662 -19.7492,-23.76667 -38.2392,29.83181 -38.2392,29.83176 18.5258,22.82633 c 10.1892,12.55446 19.4853,22.93036 20.658,23.05766 1.1727,0.1272 18.931,-12.87392 39.4627,-28.89149 z M 800.22807,407.01387 l 38.3063,-29.88414 -19.7012,-23.85459 -19.7012,-23.85459 -7.5496,7.691 c -4.1523,4.23007 -18.0168,22.6036 -30.81,40.83008 l -23.2605,33.139 9.9622,12.66536 c 5.4793,6.96595 10.9715,12.77485 12.205,12.90868 1.2335,0.13383 19.4805,-13.20453 40.549,-29.6408 z m 324.85983,-0.6958 c 0.2494,-2.16641 -8.0254,-14.1217 -18.3886,-26.56738 l -18.8422,-22.62843 -39.3726,30.57027 -39.3727,30.57025 20.2922,24.95115 20.2922,24.95112 37.4691,-28.95402 c 20.608,-15.92473 37.6732,-30.72659 37.9226,-32.89296 z m 546.6862,92.34518 37.3304,-29.12277 -20.5363,-24.71379 -20.5362,-24.71381 -39.3743,29.65073 -39.3742,29.65074 38.4957,-30.81028 38.4957,-30.81025 -20.4716,-24.90213 -20.4716,-24.90213 -38.3193,29.89426 -38.3193,29.89429 40.8142,49.78035 c 22.4479,27.3792 41.7418,49.88099 42.8754,50.00398 1.1336,0.12299 18.8597,-12.88162 39.3914,-28.89919 z m -458.4386,-72.42133 37.3304,-29.12278 -19.7492,-23.76663 -19.7493,-23.76666 -38.2391,29.8318 -38.2392,29.83177 18.5258,22.82632 c 10.1892,12.55446 19.4853,22.9304 20.658,23.05764 1.1727,0.12724 18.9309,-12.8739 39.4626,-28.89146 z m 291.978,31.67947 37.3304,-29.12278 -20.5363,-24.71378 -20.5363,-24.71382 -39.3742,29.65074 -39.3742,29.65074 38.4957,-30.81029 38.4957,-30.81024 -20.4716,-24.90213 -20.4717,-24.90213 -38.3193,29.89425 -38.3192,29.89429 40.8142,49.78036 c 22.4479,27.3792 41.7418,49.88098 42.8754,50.00398 1.1335,0.12299 18.8597,-12.88162 39.3914,-28.89919 z m 307.895,-23.13144 -19.5715,-23.80722 -38.4313,29.69759 -38.4313,29.69755 19.5137,23.99393 19.5136,23.99388 38.4892,-29.88429 38.4891,-29.88426 z m -765.4075,-50.01236 38.2564,-29.84524 -18.5257,-22.82632 c -10.1892,-12.55446 -20.2795,-23.01657 -22.4229,-23.24912 -2.1433,-0.23255 -21.1832,12.58601 -42.3108,28.4857 l -38.41373,28.90854 37.49323,-30.02822 c 20.6213,-16.51552 37.6895,-31.73249 37.9294,-33.81542 0.2398,-2.08297 -8.0429,-13.97001 -18.4062,-26.41567 l -18.8421,-22.62846 -39.40643,30.59645 -39.4064,30.59645 40.8383,49.80968 c 22.4611,27.3953 41.76583,49.91028 42.89943,50.03328 1.1335,0.12299 19.2764,-13.20675 40.3175,-29.62165 z m 306.9689,-22.40898 -19.5715,-23.80722 -38.4313,29.69759 -38.4313,29.69755 19.5137,23.99393 19.5136,23.99388 38.4892,-29.88429 38.4891,-29.88426 z m 519.8299,103.85699 -3.5324,-30.21815 -16.3483,12.38652 -16.3482,12.38651 17.8816,22.03265 c 9.8349,12.11797 18.7813,20.1422 19.8807,17.83164 1.0995,-2.31056 0.4095,-17.79918 -1.5334,-34.41917 z m -993.25333,-122.19465 38.2626,-29.85009 -20.27,-24.92388 -20.2701,-24.92388 -39.584,30.60333 -39.5841,30.60337 19.4702,23.94044 c 10.7086,13.16725 20.4248,24.04401 21.5915,24.1706 1.1667,0.12659 19.3395,-13.20237 40.3839,-29.61989 z m 306.04233,-23.53134 -20.4957,-24.93138 -38.2858,29.8681 -38.2857,29.8681 20.2905,24.94901 20.2904,24.94904 38.491,-29.88572 38.491,-29.88572 z m 565.5475,115.14664 37.3303,-29.12278 -20.5363,-24.71378 -20.5362,-24.71382 -39.3743,29.65074 -39.3742,29.65074 38.4957,-30.81029 38.4958,-30.81026 -20.4717,-24.90213 -20.4716,-24.90213 -38.3193,29.89428 -38.3193,29.89428 40.8143,49.78036 c 22.4478,27.3792 41.7417,49.88098 42.8753,50.00398 1.1336,0.12299 18.8597,-12.88162 39.3915,-28.89919 z m -458.4386,-72.42134 37.3303,-29.12278 -19.7492,-23.76662 -19.7493,-23.76665 -38.2391,29.83179 -38.2392,29.83176 18.5258,22.82633 c 10.1892,12.55446 19.4853,22.93039 20.658,23.05764 1.1727,0.12724 18.9309,-12.8739 39.4627,-28.89147 z m 291.9779,31.67948 37.3304,-29.12278 -20.5363,-24.71378 -20.5363,-24.71381 -39.3742,29.65072 -39.3742,29.65074 38.4957,-30.81028 38.4957,-30.81027 -20.4716,-24.90213 -20.4717,-24.90212 -38.3192,29.89427 -38.3193,29.89429 40.8142,49.78035 c 22.4479,27.3792 41.7418,49.88099 42.8754,50.00398 1.1335,0.12299 18.8597,-12.88162 39.3914,-28.89918 z m 267.2099,47.51694 16.2029,-12.89039 -8.9172,-29.79097 c -4.9044,-16.38507 -10.1066,-29.92006 -11.5603,-30.07779 -1.4537,-0.15772 -14.0657,8.67786 -28.0266,19.63465 l -25.3835,19.92139 18.508,22.80447 c 10.1795,12.54244 19.5129,22.91347 20.741,23.04672 1.2281,0.13325 9.5242,-5.5584 18.4357,-12.64808 z m -725.6485,-119.93828 37.3304,-29.12278 -20.5363,-24.7138 -20.5363,-24.71379 -39.3742,29.65073 -39.3742,29.65073 38.4957,-30.81027 38.4957,-30.81027 -20.4716,-24.90213 -20.4717,-24.90213 -38.3192,29.89427 -38.3193,29.89428 40.8142,49.78036 c 22.4479,27.3792 41.7418,49.88099 42.8754,50.00398 1.1335,0.123 18.8597,-12.88162 39.3914,-28.89918 z m 307.895,-23.13145 -19.5715,-23.80721 -38.4313,29.69758 -38.4313,29.69756 19.5137,23.99392 19.5137,23.99389 38.4891,-29.88429 38.4891,-29.88426 z M 872.65557,257.50812 c -3.2384,-3.93922 -19.2083,8.05799 -37.0666,27.84593 l -14.6157,16.19498 27.0477,-20.55272 c 14.8763,-11.30402 25.9619,-21.87369 24.6346,-23.48819 z m 89.8469,23.5106 38.25643,-29.84526 -18.52583,-22.82629 c -10.1891,-12.55447 -20.2794,-23.01657 -22.4228,-23.24913 -2.1434,-0.23255 -20.7392,12.59184 -41.324,28.49867 l -37.427,28.92148 19.4721,23.94276 c 10.7096,13.16851 20.4266,24.0463 21.5934,24.17289 1.1666,0.12658 19.3366,-13.20022 40.3777,-29.61512 z m 306.04843,-23.53609 -20.4957,-24.93143 -38.2858,29.86811 -38.2857,29.8681 20.2905,24.94902 20.2904,24.94904 38.491,-29.88571 38.491,-29.88571 z m 568.751,78.37119 c -5.8212,-14.25937 -12.2633,-27.62007 -14.3158,-29.69044 -2.408,-2.42899 -15.7302,5.60791 -37.5556,22.65637 l -33.8238,26.42066 20.2818,24.93838 20.2818,24.93835 27.8578,-21.66859 27.8577,-21.66858 z m -461.6421,-35.6459 37.3303,-29.1228 -19.7492,-23.76663 -19.7492,-23.76663 -38.2392,29.83178 -38.2392,29.83179 18.5258,22.82629 c 10.1892,12.55447 19.4853,22.93041 20.658,23.05765 1.1727,0.12724 18.931,-12.87389 39.4627,-28.89145 z m 291.9779,31.67947 37.3304,-29.1228 -20.5363,-24.71379 -20.5362,-24.71379 -39.3743,29.65074 -39.3742,29.65073 38.4957,-30.81028 38.4957,-30.81027 -20.4716,-24.90213 -20.4716,-24.90213 -38.3193,29.89428 -38.3193,29.89427 40.8142,49.78036 c 22.4479,27.3792 41.7418,49.88099 42.8754,50.00399 1.1336,0.12299 18.8597,-12.88162 39.3914,-28.89918 z M 954.55747,198.22195 c 64.85943,-50.85138 76.50273,-65.97963 16.3304,-21.21824 -11.5859,8.61861 -22.0681,15.56138 -23.294,15.42838 -1.2257,-0.133 -19.0772,12.90234 -39.6698,28.96742 -32.3429,25.23183 -40.0938,34.2085 -30.4343,35.24719 1.2327,0.13256 35.9132,-26.15858 77.0677,-58.42475 z m 254.64163,61.2441 37.3304,-29.1228 -20.5363,-24.71378 -20.5362,-24.71379 -39.3743,29.65073 -39.3742,29.65073 38.4957,-30.81027 38.4957,-30.81028 -20.4716,-24.90213 -20.4716,-24.90213 -38.3193,29.89428 -38.3193,29.89428 40.8142,49.78035 c 22.4479,27.3792 41.7418,49.881 42.8754,50.00399 1.1336,0.12299 18.8597,-12.88163 39.3914,-28.89918 z m 307.895,-23.13146 -19.5715,-23.8072 -38.4313,29.69757 -38.4313,29.69758 19.5137,23.99389 19.5137,23.99389 38.4891,-29.88426 38.4891,-29.88426 z m 268.6412,88.84927 33.7324,-26.34928 -9.2016,-15.40603 c -5.0609,-8.47331 -13.0766,-20.54082 -17.8127,-26.81668 l -8.6111,-11.41065 -35.404,27.34245 c -19.4723,15.03835 -35.5957,29.0068 -35.8299,31.04101 -0.4429,3.84615 33.4878,47.30759 37.2523,47.71603 1.1782,0.12784 17.3218,-11.62474 35.8746,-26.11685 z m -742.9968,-106.45967 37.3304,-29.1228 -20.5363,-24.71379 -20.5363,-24.71379 -38.3874,29.6637 -38.38753,29.66369 19.4721,23.94274 c 10.7097,13.1685 20.42663,24.04631 21.59343,24.17289 1.1666,0.12659 18.9199,-12.8751 39.4516,-28.89264 z m 306.9745,-24.25857 -20.4957,-24.93142 -38.2858,29.8681 -38.2857,29.86811 20.2905,24.94902 20.2904,24.94902 38.4911,-29.8857 38.4909,-29.8857 z m 107.1089,42.7253 37.3303,-29.1228 -19.7492,-23.76664 -19.7492,-23.76663 -38.2392,29.83179 -38.2392,29.83179 18.5258,22.82629 c 10.1892,12.55447 19.4853,22.93041 20.658,23.05765 1.1728,0.12724 18.931,-12.87391 39.4627,-28.89145 z m 290.8225,32.57297 36.1654,-28.23031 -20.4695,-24.89957 -20.4695,-24.89956 -38.2796,29.8633 -38.2796,29.86331 18.5258,22.8263 c 10.1892,12.55446 20.3518,23.02442 22.5836,23.26658 2.2319,0.24215 20.3324,-12.26337 40.2234,-27.79005 z m -457.2831,-73.31484 37.3303,-29.1228 -20.5363,-24.71379 -20.5362,-24.71379 -39.3743,29.65073 -39.3742,29.65074 38.4957,-30.81028 38.4958,-30.81027 -20.4717,-24.902128 -20.4716,-24.90213 -38.3193,29.89428 -38.3193,29.894268 40.8143,49.78036 c 22.4478,27.3792 41.7417,49.88099 42.8753,50.00399 1.1336,0.12299 18.8597,-12.88164 39.3915,-28.89918 z m 307.8949,-23.13146 -19.5715,-23.8072 -38.4313,29.69757 -38.4313,29.69758 19.5137,23.99389 19.5137,23.99388 38.4891,-29.88426 38.4891,-29.88426 z m -474.342,-17.62099 37.3439,-29.13338 -16.4026,-19.64535 -16.4025,-19.645338 -28.703,14.134538 c -15.7867,7.77399 -34.9528,18.81531 -42.5913,24.53626 l -13.8884,10.40172 19.5287,24.01231 c 10.7408,13.20677 20.4833,24.11588 21.65,24.24247 1.1667,0.12658 18.926,-12.87987 39.4652,-28.90323 z m 306.9609,-24.24798 -20.4957,-24.93142 -38.2858,29.8681 -38.2857,29.86811 20.2905,24.94902 20.2905,24.94902 38.491,-29.8857 38.4909,-29.88571 z m 271.5132,88.46184 c 21.6856,-16.92755 34.8044,-29.68949 33.4266,-32.51745 -1.2473,-2.56014 -11.1655,-13.15315 -22.0404,-23.54002 l -19.7727,-18.88523 -35.2541,27.22672 -35.2542,27.22671 19.4742,23.9453 c 10.7107,13.16991 20.4308,24.04909 21.6001,24.17596 1.1693,0.12687 18.1885,-12.30753 37.8205,-27.63199 z m -164.4043,-45.73655 37.3304,-29.1228 -19.7493,-23.76663 -19.7492,-23.766628 -38.2392,29.831788 -38.2392,29.83178 18.5258,22.8263 c 10.1892,12.55446 19.4853,22.9304 20.6581,23.05764 1.1727,0.12724 18.9309,-12.87391 39.4626,-28.89145 z m -166.4606,-40.74186 37.3303,-29.1228 -20.5362,-24.713788 -20.5363,-24.71379 -39.3743,29.65073 -39.3742,29.650728 38.4686,-30.789108 38.4686,-30.7891 -9.1314,-11.10762 -9.1314,-11.10762 -34.6493,4.43093 c -28.3117,3.62048 -37.391,6.55977 -49.6395,16.06988 l -14.9903,11.63896 40.8215,49.789068 c 22.4517,27.38399 41.7488,49.88971 42.8824,50.0127 1.1336,0.12299 18.8598,-12.88163 39.3915,-28.89917 z m 284.3402,34.2086 33.5144,-26.179 -25.8009,-18.95542 -25.8009,-18.95543 -28.4011,22.05159 -28.4011,22.05159 18.5453,22.85041 c 10.2,12.56772 19.5094,22.955 20.6876,23.08284 1.1783,0.12783 17.2238,-11.54812 35.6567,-25.94658 z M 1205.1025,92.659192 c 29.3232,-22.8761 36.4774,-30.2397 33.2243,-34.19678 -6.5482,-7.96536 -11.5203,-7.12438 -59.3702,10.04176 l -45.1077,16.1824 14.7802,18.328678 c 8.1291,10.08077 15.7528,18.43421 16.9417,18.5632 1.1888,0.12899 18.9781,-12.88468 39.5317,-28.919258 z m 308.777,-22.07107 c -10.2023,-12.57059 -20.3757,-23.05375 -22.6075,-23.2959 -2.2318,-0.24215 -20.3119,12.24738 -40.1778,27.75452 l -36.12,28.194788 20.2884,24.94646 20.2884,24.94645 38.439,-29.84535 38.439,-29.845348 z m 115.071,29.20377 c -1.7245,-3.53966 -47.5233,-27.59723 -53.8425,-28.28286 -2.5299,-0.27449 -11.8896,5.02406 -20.7991,11.77458 l -16.1994,12.27366 19.5243,24.006948 19.5244,24.00694 26.593,-20.45941 c 14.6261,-11.25267 25.9658,-21.74661 25.1993,-23.319858 z m -178.6039,-27.56035 c 19.4217,-14.99933 35.4616,-28.56867 35.6441,-30.15408 0.1825,-1.58541 -19.035,-4.98387 -42.7056,-7.55212 l -43.0376,-4.66955 -15.0183,10.65604 -15.0182,10.65605 12.9758,-11.41687 12.9758,-11.41688 -9.875,1.30626 c -5.4312,0.71844 -15.0258,0.77061 -21.3214,0.11594 -11.063,-1.15044 -10.4807,-0.009 17.3854,34.06928 15.8575,19.39278 29.6983,35.35362 30.7573,35.46852 1.059,0.11491 17.816,-12.06326 37.2377,-27.06259 z m -192.6396,-20.60577 8.2428,-7.23202 -11.8319,1.47963 c -14.2036,1.77624 -15.4503,2.56449 -12.7668,8.07248 3.077,6.31566 7.176,5.73423 16.3559,-2.32009 z m 293.9814,26.91357 c 10.6236,-8.51595 13.0353,-12.20426 9.1882,-14.05173 -8.7494,-4.20168 -53.5019,-19.11307 -59.4917,-19.82245 -3.0939,-0.36639 2.7013,9.59313 12.878,22.13229 10.1768,12.53916 19.5198,22.90877 20.7622,23.04357 1.2424,0.1348 8.7409,-4.95095 16.6633,-11.30166 z"
       style="fill:#000000;stroke-width:3.81086" />
  </g>
</svg>
