<?xml version="1.0" encoding="UTF-8" standalone="no"?>
<svg
   xmlns:dc="http://purl.org/dc/elements/1.1/"
   xmlns:cc="http://creativecommons.org/ns#"
   xmlns:rdf="http://www.w3.org/1999/02/22-rdf-syntax-ns#"
   xmlns:svg="http://www.w3.org/2000/svg"
   xmlns="http://www.w3.org/2000/svg"
   xmlns:sodipodi="http://sodipodi.sourceforge.net/DTD/sodipodi-0.dtd"
   xmlns:inkscape="http://www.inkscape.org/namespaces/inkscape"
   inkscape:version="1.0 (4035a4fb49, 2020-05-01)"
   sodipodi:docname="БОЕВЫЕ.svg"
   viewBox="0 0 202 249"
   height="249"
   width="202"
   id="svg292"
   version="1.1">
  <metadata
     id="metadata298">
    <rdf:RDF>
      <cc:Work
         rdf:about="">
        <dc:format>image/svg+xml</dc:format>
        <dc:type
           rdf:resource="http://purl.org/dc/dcmitype/StillImage" />
        <dc:title></dc:title>
      </cc:Work>
    </rdf:RDF>
  </metadata>
  <defs
     id="defs296" />
  <sodipodi:namedview
     inkscape:current-layer="g300"
     inkscape:window-maximized="1"
     inkscape:window-y="-6"
     inkscape:window-x="-6"
     inkscape:cy="134.95732"
     inkscape:cx="62.458992"
     inkscape:zoom="1.686747"
     showgrid="false"
     id="namedview294"
     inkscape:window-height="1018"
     inkscape:window-width="1920"
     inkscape:pageshadow="2"
     inkscape:pageopacity="0"
     guidetolerance="10"
     gridtolerance="10"
     objecttolerance="10"
     borderopacity="1"
     bordercolor="#666666"
     pagecolor="#ffffff"
     inkscape:document-rotation="0" />
  <g
     id="g300"
     inkscape:label="Image"
     inkscape:groupmode="layer">
    <path
       id="path8"
       d="m 89.084287,243.49066 c -0.0553,-0.0546 -1.47763,-0.35202 -3.53891,-0.73994 -0.21249,-0.04 -4.0721,-0.81081 -8.57692,-1.71293 -4.50481,-0.90213 -8.36442,-1.67356 -8.57692,-1.71428 -0.21249,-0.0407 -1.42948,-0.28094 -2.70443,-0.53382 -1.27495,-0.25287 -2.62493,-0.52054 -2.99997,-0.5948 -1.7731,-0.35112 -2.94978,-1.67909 -2.94978,-3.32904 0,-0.39374 0.28366,-1.81162 0.63037,-3.15086 0.3467,-1.33923 1.21141,-4.70248 1.92158,-7.47387 0.71017,-2.77138 1.89104,-7.3751 2.62416,-10.23047 0.73311,-2.85537 2.05471,-8.00877 2.93688,-11.45201 0.88217,-3.44325 1.78209,-6.94599 1.99981,-7.78388 0.52288,-2.0123 0.51952,-2.06486 -0.13222,-2.06486 -1.91124,0 -3.65288,-2.19018 -3.18032,-3.99937 0.42986,-1.64571 2.27214,-5.61561 3.56354,-7.67899 0.73679,-1.17722 2.01863,-3.2398 2.84855,-4.58351 0.82991,-1.3437 1.99144,-3.21611 2.58118,-4.1609 l 1.07224,-1.7178 h 7.84997 7.84997 l 0.42277,0.60277 0.42277,0.60278 -0.93887,2.79465 c -0.51639,1.53706 -2.08803,6.18028 -3.49254,10.31826 -1.40451,4.13796 -2.55366,7.7503 -2.55366,8.02737 0,1.20749 0.81631,2.54721 1.88466,3.09307 0.77198,0.39444 2.15123,0.32177 2.9779,-0.1569 1.18219,-0.68455 0.90324,0.01 5.73747,-14.28296 1.14944,-3.39846 2.1582,-6.26032 2.24167,-6.35969 0.2127,-0.25323 1.936073,-0.23521 2.152533,0.0225 0.15314,0.18231 1.61647,4.38809 5.6564,16.25716 1.58278,4.65012 1.84019,5.28808 2.36218,5.85452 0.88003,0.95494 2.4012,1.29137 3.60042,0.79628 1.12474,-0.46433 1.97643,-1.81884 1.97364,-3.13885 -0.001,-0.63945 0.001,-0.63169 -2.84998,-8.93257 -1.24034,-3.61121 -2.85113,-8.30473 -3.57953,-10.43007 l -1.32438,-3.86424 0.42309,-0.60323 0.42309,-0.60323 9.28771,0.0394 9.28772,0.0394 3.62469,8.93257 c 4.0963,10.0948 4.06203,9.97205 3.17528,11.37253 -0.5761,0.90984 -1.53577,1.60383 -2.3709,1.7145 -0.35202,0.0467 -0.63905,0.12732 -0.63786,0.17925 0.001,0.0519 0.24025,1.02202 0.53123,2.15577 1.72091,6.70513 3.39815,13.24692 4.89363,19.0867 0.93552,3.6532 2.36208,9.21888 3.17012,12.36818 2.03214,7.92014 2.06623,8.06086 2.06453,8.52233 -0.002,0.62533 -0.65937,1.8849 -1.25106,2.39819 -0.29087,0.25235 -0.80607,0.54431 -1.1449,0.64883 -0.48236,0.1488 -4.4714,0.97547 -7.33849,1.5208 -0.21249,0.0404 -1.42948,0.28074 -2.70443,0.53406 -1.27495,0.25332 -2.49194,0.49204 -2.70444,0.53047 -0.21249,0.0384 -1.18608,0.23084 -2.16354,0.42756 -0.97746,0.19671 -1.95106,0.38912 -2.16355,0.42756 -0.21249,0.0384 -1.42949,0.27715 -2.70443,0.53047 -1.27495,0.25332 -2.49195,0.49468 -2.70444,0.53635 -0.21249,0.0417 -1.2904,0.26616 -2.39535,0.49888 -3.51913,0.74118 -4.25005,0.68158 -5.45958,-0.44525 -0.67284,-0.62683 -0.86081,-1.08824 -1.59474,-3.91476 -0.33801,-1.30171 -0.96311,-3.70664 -1.38912,-5.34428 -1.1377,-4.37349 -1.85004,-7.11885 -2.91202,-11.22298 -1.34083,-5.18176 -1.87507,-7.16691 -1.94847,-7.24022 -0.10739,-0.10725 -0.15283,0.019 -0.489893,1.36152 -0.30894,1.2305 -1.44369,5.62488 -2.79948,10.84125 -0.33833,1.30171 -1.06804,4.11891 -1.62156,6.26043 -0.55353,2.14153 -1.21974,4.71823 -1.48046,5.72601 -0.76065,2.9401 -1.14006,3.59612 -2.42502,4.19291 -0.59885,0.27813 -2.19097,0.4416 -2.38959,0.24535 z m 98.070523,-25.92354 c -0.25499,-0.0879 -0.6027,-0.2781 -0.77269,-0.42278 -0.16999,-0.14468 -0.72634,-0.51888 -1.23631,-0.83156 -0.50998,-0.31268 -1.24018,-0.79941 -1.62266,-1.08162 -0.38249,-0.2822 -0.74592,-0.51767 -0.80763,-0.52325 -0.0617,-0.005 -0.70757,-0.43093 -1.43526,-0.94521 -3.18749,-2.25277 -6.1199,-6.45771 -7.12125,-10.21156 -0.12322,-0.46189 -0.26878,-0.94288 -0.32347,-1.06885 -0.0547,-0.12597 -0.22121,-1.01923 -0.37003,-1.98502 -0.25497,-1.65446 -0.26548,-4.59481 -0.18192,-50.86177 l 0.0887,-49.10579 -0.64469,-0.10186 c -1.21394,-0.1918 -1.25849,-0.31688 -1.25849,-3.533169 V 94.06985 h -3.0564 c -2.51616,0 -3.1171,-0.04202 -3.39986,-0.237698 -0.32859,-0.227411 -0.34346,-0.335441 -0.34346,-2.49578 0,-2.038691 0.0291,-2.284052 0.29896,-2.525405 0.27152,-0.242792 0.65396,-0.262482 4.16702,-0.214533 3.50949,0.0479 3.89293,0.02822 4.13641,-0.212334 0.2512,-0.248184 0.27175,-1.438823 0.32161,-18.628618 0.0293,-10.099919 0.11304,-18.780264 0.18612,-19.289654 0.13031,-0.90831 0.39927,-1.437606 1.47106,-2.894947 0.79472,-1.080595 2.70807,-2.109659 4.37335,-2.352124 2.26882,-0.33034 4.98819,-0.102995 6.21732,0.519781 0.68194,0.345529 2.31784,1.467975 2.31883,1.591025 0,0.05082 0.24148,0.351387 0.53572,0.667933 0.29425,0.316547 0.60736,0.841061 0.6958,1.165589 0.0884,0.324528 0.26462,0.67518 0.39151,0.779228 0.20229,0.165891 0.2307,2.51871 0.2307,19.114524 0,12.753717 0.0522,19.02166 0.15997,19.220695 0.15182,0.280301 0.36337,0.295349 4.15171,0.295349 5.16502,0 4.80612,-0.21001 4.80612,2.812248 0,1.917359 -0.034,2.209684 -0.2826,2.432015 -0.24313,0.217388 -0.71396,0.252706 -3.36896,0.252706 -2.19444,0 -3.13994,0.05295 -3.27179,0.183232 -0.12904,0.127493 -0.18545,0.938733 -0.18545,2.666824 v 2.483592 l -0.47154,0.53065 c -0.3186,0.358532 -0.6319,0.545982 -0.96587,0.577922 l -0.49432,0.0473 -0.0934,15.49839 c -0.0514,8.52412 -0.10365,32.88256 -0.11621,54.12987 -0.0125,21.24732 -0.0688,40.44018 -0.1249,42.65082 l -0.10203,4.01934 -0.47717,0.35165 c -0.58035,0.4277 -1.39912,0.57251 -2.02256,0.35772 z m -1.15904,-4.61889 c 0,-0.12243 -0.40814,-1.03287 -0.90699,-2.02319 -1.16363,-2.31009 -1.57673,-3.31425 -1.71439,-4.16733 -0.061,-0.37792 -0.25876,-1.16811 -0.4395,-1.75598 -0.73361,-2.38619 -0.73448,-2.46467 -0.59259,-54.24688 0.10757,-39.25747 0.0953,-48.48913 -0.0648,-48.67974 -0.16828,-0.20034 -0.65013,-0.22827 -3.24963,-0.18838 -1.67864,0.0258 -3.09419,0.0886 -3.14568,0.13968 -0.0515,0.0511 -0.13514,21.62668 -0.18588,47.94579 -0.0867,44.97515 -0.0762,47.93557 0.17539,49.22718 0.14721,0.75583 0.31473,1.7178 0.37225,2.13771 0.39511,2.88389 3.73118,8.13243 6.29039,9.89648 2.65708,1.83151 3.46146,2.22997 3.46146,1.71466 z M 183.16871,83.011884 c 0.49242,-0.298905 1.17349,-0.673059 1.51348,-0.831456 0.66,-0.307488 1.46812,-0.979778 1.46812,-1.221362 0,-0.25901 -0.96587,-0.959535 -2.02557,-1.469101 -0.56699,-0.27264 -1.19317,-0.608019 -1.39152,-0.745286 -0.67101,-0.464383 -1.59883,-0.323085 -2.98109,0.453987 -1.99232,1.120033 -2.41055,1.436071 -2.41055,1.821567 0,0.235805 0.18445,0.457033 0.57952,0.69513 0.31874,0.192085 0.78815,0.475004 1.04314,0.628708 0.25499,0.153705 0.70584,0.388866 1.00191,0.52258 0.29607,0.133714 0.71329,0.379129 0.92719,0.545367 0.51698,0.401805 1.13257,0.293553 2.27537,-0.400134 z m 0.1999,-8.173574 c 0.72247,-0.414695 1.56492,-0.864686 1.87211,-0.999979 0.66687,-0.293698 0.93351,-0.767294 0.70948,-1.260103 -0.0859,-0.188959 -0.24019,-0.343561 -0.34283,-0.343561 -0.10265,0 -0.43552,-0.166888 -0.73972,-0.370862 -1.012,-0.678554 -2.93632,-1.614155 -3.31996,-1.614155 -0.20817,0 -0.71006,0.240493 -1.11533,0.534428 -0.40526,0.293935 -0.80746,0.534428 -0.89379,0.534428 -0.0863,0 -0.59857,0.264764 -1.13833,0.588366 -1.36022,0.815486 -1.39651,1.173724 -0.19579,1.932643 0.48473,0.306379 1.02784,0.616056 1.20691,0.688171 0.17908,0.07211 0.63852,0.341226 1.021,0.598025 0.9574,0.6428 1.38933,0.600522 2.93625,-0.287401 z m -0.61816,-7.718704 c 0.12749,-0.102189 0.66495,-0.399906 1.19434,-0.661594 1.78264,-0.881179 2.23394,-1.221326 2.11995,-1.597818 -0.11879,-0.392381 -0.54691,-0.760499 -1.30412,-1.121332 -0.29684,-0.141457 -1.01036,-0.555271 -1.5856,-0.919584 -1.14543,-0.725435 -1.71956,-0.821 -2.29683,-0.382314 -0.20271,0.15404 -0.57718,0.387918 -0.83217,0.519728 -2.39639,1.238748 -2.70444,1.449663 -2.70444,1.851724 2e-5,0.350502 0.90651,1.165814 1.29621,1.165814 0.12702,0 0.27128,0.0645 0.3206,0.143333 0.0493,0.07883 0.48494,0.36679 0.96806,0.639903 1.25034,0.70683 2.23621,0.833256 2.824,0.36214 z m 0.68023,-8.265794 c 2.11237,-1.19381 2.71963,-1.61959 2.71963,-1.906883 0,-0.303929 -0.84581,-0.923435 -2.30404,-1.687576 -0.5333,-0.279455 -1.11971,-0.596836 -1.30316,-0.70529 -0.52743,-0.311819 -1.56725,-0.127834 -2.46654,0.436429 -0.4418,0.277195 -1.23789,0.736455 -1.76912,1.020578 -0.82352,0.440449 -0.96587,0.578406 -0.96587,0.936043 0,0.358429 0.15178,0.504353 1.04314,1.002927 0.57373,0.320908 1.25177,0.688644 1.50676,0.81719 0.25499,0.128547 0.62947,0.359755 0.83217,0.513796 0.61317,0.465967 1.32555,0.353543 2.70703,-0.427214 z M 53.246717,172.11095 c -0.38249,-0.15202 -2.15582,-0.98062 -3.94075,-1.84134 -3.46601,-1.67137 -5.9584,-2.86681 -10.2914,-4.93611 -2.81445,-1.3441 -3.31081,-1.71436 -3.77738,-2.81766 -0.27634,-0.65348 -0.29341,-1.85984 -0.0345,-2.437 0.21962,-0.48955 4.41038,-7.53818 7.63201,-12.8366 0.65001,-1.06904 1.3008,-2.14984 1.4462,-2.40178 0.14539,-0.25194 0.91039,-1.52312 1.69999,-2.82483 0.78961,-1.30171 1.57248,-2.60724 1.73973,-2.90118 0.16725,-0.29394 0.60022,-1.01541 0.96216,-1.60328 0.71938,-1.16843 2.79894,-4.62312 6.34206,-10.53586 6.00614,-10.023 6.06107,-10.10623 7.94719,-12.04126 1.78842,-1.83479 3.82089,-3.2602 6.19221,-4.34271 2.36724,-1.08064 4.11423,-1.56076 7.88149,-2.16605 0.46748,-0.0751 1.8931,-0.31604 3.16805,-0.53541 1.27495,-0.21937 2.70057,-0.46043 3.16805,-0.53569 0.46748,-0.0752 1.47585,-0.25031 2.24082,-0.389 2.4786,-0.4494 3.40031,-0.46152 4.1998,-0.0552 1.13093,0.57471 1.04431,0.44067 5.12172,7.92622 0.29734,0.54588 0.80778,1.46247 1.13432,2.03686 0.32653,0.5744 0.5937,1.0641 0.5937,1.08824 0,0.0241 0.39987,0.75727 0.8886,1.62918 0.48873,0.87191 0.98278,1.76532 1.09789,1.98535 0.19795,0.37839 0.14859,0.49827 -0.91119,2.21267 -0.61627,0.99692 -1.69802,2.75278 -2.40391,3.90187 -0.70588,1.1491 -1.64187,2.6544 -2.07997,3.34509 -0.43811,0.69071 -0.92363,1.47937 -1.07894,1.75259 -0.1553,0.2732 -0.93853,1.55075 -1.7405,2.83898 -0.80197,1.28823 -2.07225,3.33857 -2.82285,4.55631 -0.75059,1.21773 -2.0463,3.3032 -2.87937,4.63437 -0.83306,1.33118 -1.51466,2.44258 -1.51466,2.46976 0,0.0272 -0.53229,0.89634 -1.18286,1.93145 -0.65057,1.03511 -1.7741,2.84398 -2.49672,4.01972 -0.72263,1.17574 -1.78082,2.89354 -2.35155,3.81734 -0.57072,0.92379 -1.49198,2.41616 -2.04723,3.31635 -0.72357,1.1731 -1.05211,1.58401 -1.1598,1.45059 -0.13264,-0.1643 -0.53015,-1.36148 -1.60817,-4.84329 -1.4342,-4.63222 -2.30267,-7.32929 -2.36006,-7.32929 -0.0523,0 -0.4546,0.64171 -1.03473,1.65052 -0.76342,1.32757 -1.57297,2.71938 -2.65286,4.56093 -0.64904,1.1068 -1.3172,2.25359 -1.48479,2.54843 -0.1676,0.29482 -1.21929,2.10338 -2.3371,4.01901 -1.11781,1.91564 -2.59913,4.46344 -3.29183,5.66176 -1.5555,2.69096 -2.17718,3.52201 -2.96417,3.96243 -0.76348,0.42725 -2.0182,0.45127 -3.00871,0.0576 z m 90.641963,-0.0576 c -0.78625,-0.44 -1.40698,-1.26928 -2.96599,-3.96243 -0.69368,-1.19832 -2.1433,-3.69045 -3.22138,-5.53804 -1.07807,-1.8476 -2.12253,-3.64517 -2.32103,-3.99461 -0.19849,-0.34942 -0.89778,-1.55188 -1.55396,-2.67213 -0.65619,-1.12024 -1.72155,-2.94656 -2.36747,-4.05849 -0.64593,-1.11193 -1.21539,-2.02237 -1.26548,-2.02319 -0.0501,-0.002 -0.24516,0.53102 -0.43349,1.18188 -0.18834,0.65085 -0.51725,1.76742 -0.73093,2.48127 -0.21368,0.71384 -0.44843,1.50403 -0.52166,1.75597 -0.0732,0.25195 -0.24711,0.836 -0.3864,1.2979 -0.13929,0.4619 -0.31222,1.04595 -0.38428,1.29789 -0.0721,0.25195 -0.31393,1.07649 -0.53748,1.83233 -0.22354,0.75583 -0.50279,1.7178 -0.62056,2.13771 -0.11777,0.4199 -0.30602,1.03831 -0.41833,1.37424 l -0.20421,0.61077 -8.96261,0.0393 -8.96261,0.0393 -0.36033,-0.67172 c -1.81064,-3.37529 -6.39216,-5.13081 -10.225593,-3.91819 -2.1178,0.66991 -4.04137,2.18567 -4.971,3.91711 l -0.36007,0.67063 h -5.6023 c -3.99866,0 -5.60231,-0.0485 -5.60231,-0.16932 0,-0.0931 0.50418,-0.96628 1.12041,-1.94032 0.61622,-0.97405 1.18995,-1.89198 1.27494,-2.03987 0.27135,-0.47208 1.3737,-2.26924 2.93389,-4.78306 1.73692,-2.79857 4.33526,-7.00094 6.18392,-10.00143 1.33752,-2.17088 3.6555,-5.92024 6.1832,-10.00143 0.83223,-1.34371 2.084083,-3.37071 2.781883,-4.50446 0.6978,-1.13375 2.04338,-3.31536 2.99018,-4.84803 0.94679,-1.53266 2.47355,-4.00629 3.39279,-5.49696 3.92458,-6.36421 5.69879,-9.23569 6.79178,-10.99223 l 1.16283,-1.86878 0.63452,0.0842 c 0.34899,0.0463 0.80838,0.12023 1.02088,0.16421 0.39174,0.0811 4.16126,0.7218 5.71794,0.97191 3.76726,0.60529 5.51424,1.08541 7.88149,2.16605 2.37132,1.08251 4.40379,2.50792 6.19221,4.34271 1.88612,1.93503 1.94104,2.01826 7.94719,12.04126 3.54312,5.91274 5.62267,9.36743 6.34205,10.53586 0.36195,0.58787 0.79492,1.30934 0.96216,1.60328 0.16726,0.29394 0.95012,1.59947 1.73973,2.90118 0.78961,1.30171 1.55461,2.57289 1.7,2.82483 0.14539,0.25194 0.79619,1.33274 1.44619,2.40178 3.22163,5.29842 7.41241,12.34705 7.63201,12.8366 0.25893,0.57716 0.24185,1.78352 -0.0345,2.437 -0.46656,1.1033 -0.96294,1.47356 -3.77739,2.81766 -4.09335,1.95486 -6.85872,3.28043 -10.5232,5.04432 -1.82742,0.87962 -3.59212,1.69482 -3.92153,1.81157 -0.91218,0.32327 -2.07664,0.26662 -2.79611,-0.136 z M 26.202377,119.01995 c -0.21249,-0.0385 -0.83837,-0.16612 -1.39085,-0.28353 -1.95161,-0.41475 -3.79082,-0.70009 -7.41788,-1.15081 -4.3959,-0.54626 -5.85353,-0.90526 -7.5349601,-1.85579 -3.03207,-1.71406 -6.31093,-5.48398 -7.75914,-8.92117 -0.64298,-1.52608 -0.71168,-2.27879 -0.36827,-4.03527 0.23464,-1.20015 0.28379,-2.21508 0.28467,-5.878699 l 0.001,-4.428114 0.4227,-0.839814 c 0.56681,-1.126123 1.765,-2.67208 3.3681,-4.345636 0.72724,-0.759206 2.14848,-2.307987 3.15832,-3.441737 1.6235101,-1.822737 2.5308101,-2.822428 4.9683701,-5.47434 0.60051,-0.653326 0.62746,-0.722496 0.4813,-1.235342 -0.17734,-0.622232 -0.0439,-7.311787 0.18453,-9.248846 0.30093,-2.552142 1.33639,-4.563122 2.69401,-5.232073 0.70387,-0.346824 0.77652,-0.352605 2.22928,-0.177421 0.82593,0.0996 2.51006,0.17676 3.74251,0.171477 2.01225,-0.0086 3.05983,0.0804 4.36381,0.370857 0.32733,0.07291 0.44476,0.02983 0.51897,-0.190416 0.0527,-0.156559 0.39615,-1.074841 0.76309,-2.040628 0.85624,-2.253608 1.76586,-4.662146 2.01834,-5.344275 0.10879,-0.293936 0.41607,-1.118481 0.68285,-1.832324 1.45879,-3.903457 1.69739,-4.794755 2.40179,-8.972093 l 0.41862,-2.482617 -1.27712,-1.183135 -1.27712,-1.183134 0.6,-0.579585 c 0.33,-0.318774 1.20659,-0.880712 1.94798,-1.248752 l 1.34798,-0.669165 -0.49801,-0.29533 c -0.27391,-0.162431 -0.84573,-0.41872 -1.27071,-0.569531 -1.11991,-0.397415 -1.11228,-0.458546 0.0504,-0.403378 0.57246,0.02716 1.31303,0.02716 1.64571,0 l 0.60488,-0.04939 -0.65648,-0.427475 c -0.72531,-0.472295 -1.48993,-1.546766 -1.7315,-2.433181 -0.20383,-0.747916 0.0372,-1.651149 0.60955,-2.284043 0.35902,-0.397017 0.57031,-0.487075 1.27897,-0.545142 l 0.84891,-0.06956 1.28055,1.197292 c 1.39516,1.304452 2.17333,2.303761 2.17333,2.790942 0,0.171338 -0.17385,0.687074 -0.38635,1.14608 -0.21249,0.459005 -0.38634,0.873314 -0.38634,0.920686 0,0.04737 0.33032,0.085 0.73406,0.08362 1.00906,-0.0034 2.06113,-0.635555 3.83077,-2.301611 0.59824,-0.563221 1.36321,-1.141887 1.69993,-1.285926 0.87214,-0.373072 3.11944,-0.390091 3.67896,-0.02786 0.5562,0.360088 0.53963,0.933003 -0.0425,1.470333 -0.41093,0.379282 -2.16847,1.078721 -2.71059,1.078721 -0.12143,0 -1.04141,0.35118 -2.04439,0.7804 -1.00299,0.429222 -2.22438,0.93103 -2.71419,1.115131 -0.55622,0.209059 -1.0548,0.5291 -1.32801,0.852442 l -0.43742,0.517714 0.20608,1.153815 c 0.11334,0.634598 0.30892,1.703511 0.43463,2.375363 0.12571,0.671851 0.30858,1.736889 0.40638,2.36675 0.38061,2.451189 2.16981,11.100603 2.40841,11.642886 0.23281,0.52912 0.30004,0.572346 0.88526,0.569248 0.65672,-0.0035 1.82423,-0.440458 2.02213,-0.756852 0.15469,-0.247291 1.41254,-0.766731 1.85669,-0.766731 1.24792,0 1.52946,0.867005 1.93377,5.95505 0.19288,2.427419 0.59097,3.869457 1.72104,6.234249 1.05739,2.212715 1.7627,4.04233 1.98199,5.141423 0.29051,1.45601 1.03101,2.463047 4.54381,6.179259 4.40095,4.655808 7.13463,9.233875 7.91253,13.25106 0.28056,1.448833 0.27714,2.343509 -0.0142,3.711947 -0.26129,1.227324 -0.51707,1.838219 -1.25483,2.997079 -0.53712,0.84368 -0.70756,1.556272 -0.98185,4.104972 -0.2281,2.11958 -1.03229,4.12846 -2.05656,5.13731 -0.27996,0.27575 -1.13186,0.87557 -1.89311,1.33294 -0.76126,0.45736 -1.73182,1.08538 -2.1568,1.39558 -1.99814,1.4585 -4.09154,2.08697 -7.62836,2.29015 -4.32593,0.24851 -6.5294,-0.0766 -11.86013,-1.7497 -0.29912,-0.0939 -0.36026,0.0194 -0.75028,1.38992 -0.79257,2.78511 -1.72159,3.98832 -3.86649,5.00766 -2.0574,0.97775 -6.14005,1.78231 -7.65252,1.50807 z m 21.94455,-48.7703 c -0.30409,-0.194171 -1.03759,-0.194171 -1.15905,0 -0.0587,0.09382 0.19105,0.151793 0.64767,0.150356 0.53681,-0.0017 0.67881,-0.04344 0.51138,-0.150356 z m -15.61956,-8.099542 c -0.1955,-0.119387 0.15478,-0.286756 2.56101,-1.223662 1.10495,-0.430233 2.92322,-1.227825 4.0406,-1.772425 l 2.03159,-0.990181 -0.35804,-0.902703 c -0.66113,-1.666849 -1.71606,-6.32032 -2.23052,-9.839178 -0.086,-0.58787 -0.22688,-1.521112 -0.31319,-2.07387 -0.0863,-0.55276 -0.16164,-1.308594 -0.16739,-1.67963 -0.0135,-0.870236 -0.0305,-0.829598 -1.31416,3.142726 -0.56991,1.763611 -1.36737,4.202891 -1.77213,5.420622 -0.40476,1.217732 -0.85463,2.695042 -0.99969,3.282912 -0.54436,2.205922 -1.36374,4.76324 -1.80067,5.619949 l -0.45209,0.886449 0.35381,0.283072 c 0.24684,0.197496 0.38651,0.230777 0.462,0.110091 0.0595,-0.09514 0.041,-0.214017 -0.0411,-0.264172 z m 3.39058,-21.747882 c 0.41354,-0.44328 0.62737,-0.799374 0.57904,-0.964272 -0.0421,-0.143797 -0.15456,-0.559216 -0.24981,-0.923155 -0.11992,-0.458246 -0.23857,-0.63691 -0.38588,-0.581059 -0.11699,0.04436 -0.48402,0.152834 -0.81563,0.241061 -0.33229,0.08841 -0.98544,0.491148 -1.45513,0.897253 l -0.85221,0.736843 0.44857,0.196182 c 0.24671,0.107899 0.70592,0.44772 1.02048,0.755158 0.67036,0.655192 0.78839,0.63049 1.71057,-0.358011 z m 3.10031,-5.921048 c 0.006,-0.650857 -0.0459,-1.183376 -0.11522,-1.183376 -0.22711,0 -0.80115,1.176285 -0.80115,1.641655 0,0.250179 0.15203,0.645847 0.33786,0.87926 0.31208,0.392009 0.34662,0.402317 0.45275,0.135111 0.0632,-0.159101 0.11979,-0.821794 0.12576,-1.47265 z m -1.99815,-0.70251 c 0,-2.36058 -0.37712,-3.288959 -1.29931,-3.198585 -0.40304,0.0395 -0.50319,0.147509 -0.75017,0.80905 -0.15677,0.419907 -0.29872,1.099476 -0.31545,1.510154 -0.0273,0.668835 0.0172,0.780277 0.42628,1.068856 0.25119,0.177191 0.73798,0.57812 1.08177,0.890951 0.34379,0.31283 0.67723,0.5705 0.74098,0.572601 0.0637,0.0021 0.1159,-0.741762 0.1159,-1.653027 z m 8.86152,1.168196 c 0.65327,-0.108985 1.36191,-0.356246 1.85447,-0.647065 0.6759,-0.399072 0.79717,-0.540126 0.79717,-0.927203 0,-0.444301 -0.0197,-0.456268 -0.73534,-0.446853 -0.57963,0.0076 -0.89052,0.119399 -1.46812,0.527836 -0.40303,0.284989 -1.1815,0.818877 -1.72994,1.18642 l -0.99716,0.668259 0.61081,-0.0925 c 0.33595,-0.05088 1.0866,-0.171877 1.66811,-0.268891 z m 49.82063,45.745554 c -0.0518,-0.0512 -0.60237,-0.118772 -1.22344,-0.150163 -0.62107,-0.03139 -1.82464,-0.0925 -2.67461,-0.135806 -1.01299,-0.05161 -2.31736,-0.26589 -3.7862,-0.621999 -1.23245,-0.298798 -2.41468,-0.578887 -2.62717,-0.622422 -0.21249,-0.04353 -0.52543,-0.139343 -0.69542,-0.212911 -0.58043,-0.251188 -3.43341,-1.064787 -3.7338,-1.064787 -0.16482,0 -0.36574,-0.0611 -0.44649,-0.135789 -0.0807,-0.07468 -0.52929,-0.244186 -0.99677,-0.376672 -0.47806,-0.135485 -1.166,-0.493643 -1.57223,-0.818548 -0.39725,-0.317714 -1.11201,-0.810959 -1.58837,-1.096099 -1.03248,-0.618034 -4.53318,-4.142389 -5.9257,-5.965747 -2.02321,-2.649162 -2.80817,-4.362218 -3.73622,-8.153716 -1.00377,-4.100847 -1.39022,-6.482021 -2.18414,-13.457719 -0.56198,-4.937857 -0.55428,-12.988098 0.0179,-18.704964 0.0798,-0.797824 0.2225,-2.240779 0.317,-3.206566 0.57515,-5.878207 1.80817,-13.509649 2.41775,-14.96397 0.13685,-0.326505 0.15893,-0.420042 0.18065,-0.765142 0.0232,-0.3690744 2.0883,-2.5401281 3.1455,-3.3069186 0.41525,-0.301182 0.94226,-0.5683164 1.17113,-0.593633 0.22887,-0.025317 1.0462,-0.2831 1.81629,-0.5728513 0.7701,-0.2897529 1.63938,-0.5781041 1.93174,-0.6407833 0.49646,-0.106432 2.04567,-0.9558725 3.9926,-2.1891771 1.62468,-1.0291685 2.07576,-1.0935059 7.64092,-1.0898123 3.74162,0.00249 5.3139,0.061093 6.36097,0.2371149 0.76496,0.1286 1.63425,0.2726832 1.93173,0.3201847 0.29749,0.047501 0.62477,0.1528508 0.7273,0.2341098 0.10252,0.08126 0.25418,0.1063526 0.33703,0.055762 0.0829,-0.05059 0.19634,-0.018902 0.25221,0.070418 0.0678,0.1084384 1.59904,0.1649732 4.608213,0.1701434 2.47865,0.00426 4.92389,0.011925 5.43387,0.017053 0.50998,0.00512 1.86606,-0.030255 3.01351,-0.078611 5.78144,-0.2436455 11.69326,-0.3623968 11.93654,-0.2397701 0.14787,0.074531 0.37269,0.333921 0.49961,0.5764198 0.12691,0.2425003 0.63182,0.681076 1.122,0.9746141 0.84205,0.5042431 0.98936,0.5388542 2.66845,0.6269691 2.22026,0.1165143 3.01355,0.2690873 3.53248,0.6793963 0.22455,0.1775445 0.79075,0.5916251 1.25823,0.9201805 1.27368,0.8951646 2.84916,2.5693657 3.38944,3.6018261 0.74938,1.432046 1.09371,3.539471 2.32715,14.242852 0.40462,3.511166 0.57774,11.717673 0.31262,14.818998 -0.0838,0.980239 -0.29586,3.63748 -0.47124,5.90498 -0.17538,2.2675 -0.4206,5.05034 -0.54492,6.18409 -0.12433,1.13375 -0.29451,2.889399 -0.37818,3.901443 -0.33896,4.099846 -1.15676,7.678585 -2.17905,9.535593 -0.0693,0.125972 -0.28518,0.534249 -0.47962,0.907281 -0.46982,0.901324 -2.70011,3.205262 -3.80089,3.926391 -0.48386,0.31698 -1.15791,0.823364 -1.4979,1.1253 -0.76664,0.680846 -5.78697,4.741251 -6.50977,5.265066 -0.28825,0.208896 -3.24065,1.403356 -3.71285,1.502119 -0.0977,0.02043 -0.27815,0.119614 -0.40108,0.22041 -0.12292,0.100797 -0.46026,0.227701 -0.74965,0.282006 -0.28938,0.05431 -0.5957,0.149849 -0.68069,0.212316 -0.085,0.06247 -0.39794,0.163947 -0.69543,0.22551 -0.29749,0.06156 -0.61043,0.153654 -0.69542,0.204643 -0.085,0.05099 -0.4307,0.111537 -0.76822,0.134554 -0.33752,0.02302 -1.03295,0.149883 -1.54539,0.281926 -0.51244,0.132043 -1.20989,0.26283 -1.54987,0.290638 -0.75888,0.06207 -1.90992,0.220649 -2.93624,0.404524 -0.73456,0.131603 -1.44976,0.216115 -3.01352,0.356092 -0.38248,0.03424 -1.19802,0.170638 -1.8123,0.303113 -1.36557,0.294496 -2.607143,0.384063 -3.163523,0.228216 -0.28937,-0.08105 -0.47247,-0.05067 -0.59845,0.09932 -0.13109,0.156073 -0.55544,0.2161 -1.52768,0.2161 -0.7404,0 -1.38857,-0.04189 -1.44039,-0.09309 z m 3.67437,-9.6793 c 0.0525,-0.08398 0.40249,-0.152693 0.777683,-0.152693 0.37519,0 0.97958,-0.13083 1.34309,-0.290733 1.2169,-0.5353 5.89615,-1.990775 7.65856,-2.382187 0.95881,-0.212943 2.03672,-0.498604 2.39535,-0.634802 0.61513,-0.233609 2.42926,-1.792195 2.42926,-2.087065 0,-0.161748 0.80064,-1.91632 1.50488,-3.297871 0.27521,-0.539897 0.48384,-0.991621 0.46362,-1.003832 -0.89232,-0.538841 -1.64253,-0.957901 -1.85568,-1.036561 -1.25194,-0.462028 -5.2188,-4.025162 -5.88705,-5.287899 -0.20857,-0.394131 -0.5269,-0.976389 -0.7074,-1.293907 -0.24026,-0.422656 -0.35384,-0.963469 -0.424,-2.018833 -0.13597,-2.045089 0.20312,-3.550666 1.16171,-5.158128 0.30557,-0.512415 0.57046,-1.024995 0.58864,-1.139065 0.0182,-0.11407 0.17718,-0.35899 0.35335,-0.544269 0.17616,-0.185277 0.32029,-0.398991 0.32029,-0.474919 0,-0.07593 0.35712,-0.495346 0.79361,-0.932039 l 0.7936,-0.79399 -0.6777,-0.08313 c -0.37273,-0.04572 -0.9211,-0.12482 -1.21859,-0.175771 -1.03021,-0.176445 -1.80648,-0.210492 -8.06422,-0.35371 -6.548813,-0.149879 -6.692383,-0.143608 -11.552413,0.504656 -0.97205,0.129658 -1.82972,0.235743 -1.90592,0.235743 -0.0762,0 0.42479,0.523631 1.11333,1.163622 0.68854,0.639992 1.396,1.363595 1.57214,1.608007 0.58874,0.816935 1.37249,4.65749 1.37374,6.731638 4.6e-4,0.780747 -0.62357,3.351571 -1.0044,4.137774 -0.41556,0.857915 -1.76624,2.50943 -2.75082,3.363525 -0.68589,0.594983 -1.24527,0.92661 -1.96301,1.163762 -0.55208,0.182415 -1.06018,0.385409 -1.12912,0.451098 -0.0689,0.06569 0.008,0.353252 0.17004,0.639028 0.16245,0.285777 0.28241,0.690424 0.26658,0.899214 -0.0158,0.208791 0.098,0.585756 0.25303,0.8377 0.15499,0.251945 0.35163,0.595505 0.43698,0.763468 0.0854,0.167963 0.42705,0.683304 0.75934,1.145202 0.33229,0.461898 0.78256,1.183376 1.00059,1.603283 0.34736,0.668961 0.53577,0.832815 1.52204,1.323681 0.61908,0.308117 1.50809,0.636475 1.97557,0.729684 0.46748,0.09321 1.44107,0.412694 2.16354,0.709966 1.03945,0.427698 1.64874,0.570607 2.91955,0.684789 0.88328,0.07936 1.78733,0.239149 2.00901,0.35508 0.49385,0.258275 0.89406,0.293737 1.0212,0.09049 z"
       style="fill:#000000;stroke-width:0.153614" />
  </g>
</svg>
