<?xml version="1.0" encoding="UTF-8" standalone="no"?>
<svg
   xmlns:dc="http://purl.org/dc/elements/1.1/"
   xmlns:cc="http://creativecommons.org/ns#"
   xmlns:rdf="http://www.w3.org/1999/02/22-rdf-syntax-ns#"
   xmlns:svg="http://www.w3.org/2000/svg"
   xmlns="http://www.w3.org/2000/svg"
   xmlns:sodipodi="http://sodipodi.sourceforge.net/DTD/sodipodi-0.dtd"
   xmlns:inkscape="http://www.inkscape.org/namespaces/inkscape"
   version="1.1"
   id="svg404"
   width="533.05023"
   height="401.10416"
   viewBox="0 0 533.05023 401.10415"
   sodipodi:docname="филипинское боевое.svg"
   inkscape:version="1.0 (4035a4fb49, 2020-05-01)">
  <metadata
     id="metadata410">
    <rdf:RDF>
      <cc:Work
         rdf:about="">
        <dc:format>image/svg+xml</dc:format>
        <dc:type
           rdf:resource="http://purl.org/dc/dcmitype/StillImage" />
        <dc:title></dc:title>
      </cc:Work>
    </rdf:RDF>
  </metadata>
  <defs
     id="defs408" />
  <sodipodi:namedview
     inkscape:document-rotation="0"
     pagecolor="#ffffff"
     bordercolor="#666666"
     borderopacity="1"
     objecttolerance="10"
     gridtolerance="10"
     guidetolerance="10"
     inkscape:pageopacity="0"
     inkscape:pageshadow="2"
     inkscape:window-width="1920"
     inkscape:window-height="1018"
     id="namedview406"
     showgrid="false"
     inkscape:zoom="2.1167552"
     inkscape:cx="273.55485"
     inkscape:cy="220.63925"
     inkscape:window-x="-6"
     inkscape:window-y="-6"
     inkscape:window-maximized="1"
     inkscape:current-layer="g412" />
  <g
     transform="translate(6.5269009,-206.90193)"
     inkscape:groupmode="layer"
     inkscape:label="Image"
     id="g412">
    <path
       id="path8"
       d="m 459.05398,604.35857 c -0.30084,-2.00614 -0.32336,-4.53848 -0.0501,-5.62745 0.86239,-3.43604 4.45003,-6.82384 9.04823,-8.54425 5.72049,-2.14031 7.70659,-3.41549 7.70659,-4.94801 0,-4.6278 -24.63419,-32.02679 -36.24289,-40.3106 -2.90221,-2.07096 -7.96016,-4.76647 -11.23989,-5.99001 -6.98727,-2.60668 -11.5766,-6.0407 -14.34126,-10.73103 -1.76822,-2.99984 -11.43714,-12.83819 -26.62984,-27.09645 -6.35916,-5.96803 -11.02429,-12.90779 -16.92196,-25.17272 l -4.55889,-9.48079 -8.23332,8.4328 c -4.52832,4.63804 -12.10211,11.63405 -16.83065,15.54668 l -8.59732,7.11387 0.62539,4.62655 c 1.07239,7.93338 1.36846,18.2135 0.59969,20.82308 -1.32414,4.49481 -4.60414,24.29 -5.19564,31.35638 -0.31811,3.80017 -0.84428,7.407 -1.16927,8.01518 -0.32499,0.60818 0.26925,4.06441 1.32056,7.68052 2.4525,8.43569 2.47305,11.95788 0.0825,14.14373 -4.64252,4.24503 -11.55646,5.92687 -24.36498,5.92687 -7.58298,0 -10.0141,0.33494 -15.05193,2.07377 -5.21699,1.80066 -7.34689,2.07039 -16.17265,2.04807 -10.07301,-0.0254 -14.87864,-0.77873 -19.19449,-3.00862 -1.80214,-0.93112 -2.2354,-1.71445 -2.2354,-4.04167 0,-3.99503 2.97756,-6.71471 10.97376,-10.02336 8.82402,-3.65119 13.60152,-6.1033 20.28581,-10.41192 5.20597,-3.35572 5.53511,-3.73167 4.1523,-4.74279 -0.82601,-0.60401 -1.90722,-1.23479 -2.40267,-1.40175 -0.65799,-0.22173 -0.6567,-0.61308 0.005,-1.45184 0.5504,-0.6979 1.1087,-7.36529 1.42343,-16.99925 0.28481,-8.71803 1.07138,-21.88653 1.74792,-29.26333 0.67654,-7.3768 1.57886,-18.53345 2.00512,-24.79255 0.42628,-6.25911 1.16106,-12.72024 1.63284,-14.35808 0.77913,-2.70482 4.05771,-8.36935 18.27193,-31.5691 3.70841,-6.05267 7.2139,-10.18274 16.21368,-19.10246 8.59576,-8.51931 12.16953,-12.68605 14.21594,-16.57472 l 2.73362,-5.19454 -0.5591,-9.84357 c -0.52926,-9.31812 -3.06955,-21.28782 -4.38153,-20.64555 -1.26676,0.62013 -6.73406,3.92682 -19.5401,11.81807 -8.08717,4.98343 -12.80737,8.33193 -11.74507,8.33193 2.09182,0 4.30689,2.82759 4.30689,5.49785 0,1.44247 -0.80323,2.22577 -3.42354,3.33862 -3.35183,1.42353 -3.41895,1.52926 -3.20382,5.04712 0.19223,3.14334 -0.11692,3.91811 -2.46976,6.18931 -1.47923,1.4279 -5.53143,4.08186 -9.0049,5.89768 -6.23998,3.26207 -6.35124,3.28652 -9.31826,2.04682 -1.65157,-0.69007 -3.60594,-1.80046 -4.34303,-2.46752 -1.20366,-1.0893 -2.82132,-0.53771 -15.88073,5.41503 -7.9973,3.64533 -16.44913,7.48734 -18.78184,8.5378 l -4.24128,1.90993 11.07346,17.68938 c 6.0904,9.72916 11.23692,18.31447 11.43671,19.07847 0.60697,2.32107 -3.45562,5.68872 -6.50521,5.39244 -2.47477,-0.24044 -3.19566,-1.23188 -13.7787,-18.94973 -6.14203,-10.28281 -11.4665,-18.63076 -11.83218,-18.55099 -0.81996,0.17886 -19.32342,8.42734 -38.66723,17.23709 -7.96754,3.62865 -15.31814,6.59756 -16.33464,6.59756 -3.60915,0 -6.65675,-6.26354 -4.38603,-9.01433 0.58661,-0.71063 12.97776,-6.68223 27.53589,-13.27022 l 26.46934,-11.97816 -8.58619,-14.59088 -8.58618,-14.5909 -4.92564,0.47486 c -4.85419,0.46796 -4.99771,0.4218 -9.89242,-3.18148 -4.01507,-2.95573 -5.44654,-4.66159 -7.47063,-8.9027 -1.37722,-2.8855 -2.50396,-5.58287 -2.50396,-5.99416 0,-2.37185 -7.15495,-6.87819 -30.42871,-19.16467 l -12.95199,-6.8375 -3.93395,6.0262 c -4.47155,6.84974 -6.34684,7.4433 -9.01912,2.85471 l -1.54734,-2.65695 3.33513,-5.61387 c 1.83433,-3.08763 3.33514,-5.7802 3.33514,-5.98349 0,-0.20329 -1.65086,-1.72238 -3.66858,-3.37575 l -3.66857,-3.00612 -3.44405,1.32687 c -2.17481,0.83789 -4.34272,2.54094 -5.88264,4.62123 -1.34124,1.8119 -3.17819,3.58009 -4.08211,3.92931 -1.33535,0.51591 -2.16166,2.81183 -4.40719,12.2454 -1.6753,7.03802 -3.33719,12.18393 -4.21993,13.06668 -1.3536,1.3536 -1.36899,1.73045 -0.21828,5.34724 0.85382,2.68368 1.2186,7.04386 1.17562,14.05191 -0.071,11.5773 1.72068,20.46474 10.04023,49.80303 l 4.55671,16.0689 v 11.65358 c 0,15.08267 2.51113,45.03737 6.54659,78.0926 1.98269,16.24056 1.99558,15.78059 -0.46881,16.71756 -1.72555,0.65605 -1.96801,1.13645 -1.52825,3.02814 0.67272,2.89379 0.92953,3.08789 15.36579,11.61322 6.70618,3.96034 13.19899,7.98216 14.42845,8.93738 2.96118,2.30065 2.96118,5.50711 0,8.27763 -8.18641,7.65929 -22.33494,8.20721 -55.478408,2.14846 -10.866979,-1.98652 -11.749821,-2.35705 -13.859253,-5.81659 -2.142962,-3.51454 -2.004506,-8.37029 0.446892,-15.67289 2.665468,-7.94027 2.617224,-9.15162 -0.406435,-10.20567 l -2.438611,-0.85011 -0.0073,-8.25241 c -0.01528,-17.34295 -2.535457,-47.7535 -3.947381,-47.63231 -1.395983,0.11982 -18.694121,22.97365 -25.727511,33.99049 l -7.976268,12.49372 -3.93116,-0.46558 c -5.479807,-0.64901 -5.214394,1.09936 0.742845,4.89336 15.15056,9.64895 16.898768,12.70028 9.65921,16.85924 -4.098302,2.35438 -10.902157,3.85715 -14.508105,3.20441 -1.468538,-0.26584 -5.047755,-1.18042 -7.953767,-2.03241 -2.906012,-0.85198 -10.452567,-2.23773 -16.770122,-3.07944 -6.3175558,-0.8417 -12.2493669,-1.93866 -13.1818023,-2.43768 -1.0176975,-0.54466 -2.1842972,-2.55383 -2.918631,-5.0266 -1.574017,-5.30029 -0.5062945,-10.80519 2.9329376,-15.12146 3.63838512,-4.56622 4.8286416,-7.1409 3.78407912,-8.18546 -0.619745,-0.61975 1.68010198,-3.85274 7.96714278,-11.19977 16.7953388,-19.62701 18.2459378,-21.61597 23.5535348,-32.295 5.397114,-10.85915 7.243159,-13.82259 15.243098,-24.46973 l 4.815769,-6.4093 1.073763,-13.09959 C 55.335297,440.45966 55.782104,442.79249 47.485051,430.5021 34.997269,412.004 34.57959,410.76356 32.839083,387.00596 c -0.405363,-5.53312 -1.078407,-10.28841 -1.495654,-10.56731 -0.417248,-0.27891 -0.749607,-6.17687 -0.738576,-13.10659 0.01103,-6.92972 -0.212877,-14.24556 -0.497573,-16.25741 -0.284695,-2.01185 -1.319,-11.34401 -2.298454,-20.73811 l -1.780934,-17.08019 1.740938,-6.89949 c 2.833052,-11.22763 4.793112,-14.37839 13.934519,-22.39949 4.451404,-3.90587 8.920499,-7.51182 9.931323,-8.01322 2.984127,-1.48024 2.899312,-7.10379 -0.224052,-14.8555 -2.361851,-5.86175 -2.53151,-6.92071 -2.252823,-14.06142 0.256249,-6.56576 0.676215,-8.51357 2.804202,-13.00593 5.016618,-10.5905 13.045633,-16.75939 22.986093,-17.66075 8.778066,-0.79597 19.1231,3.42885 25.753838,10.51765 3.64243,3.89406 3.73985,4.12954 3.06587,7.41143 -0.38284,1.86427 -0.69999,8.87646 -0.70477,15.58265 l -0.009,12.19305 -3.453058,6.83834 c -1.89916,3.76109 -3.45304,7.28277 -3.45304,7.82596 0,1.63489 1.97793,2.78866 9.081738,5.29756 13.79014,4.87036 19.54967,10.57077 25.10178,24.8441 l 2.56771,6.60105 11.06598,0.58643 c 6.0863,0.32255 11.16922,0.27677 11.29538,-0.10171 0.12616,-0.37849 7.77987,-13.48923 17.00826,-29.13499 9.22838,-15.64576 16.94068,-29.04319 17.13843,-29.77207 0.19776,-0.72888 -1.9023,-7.86182 -4.6668,-15.85097 -2.7645,-7.98916 -5.76694,-16.66253 -6.67209,-19.27417 -1.87747,-5.41709 -1.59839,-6.05316 3.60609,-8.21854 3.72124,-1.54827 2.94292,-2.8855 9.61327,16.51656 4.60974,13.40835 5.24675,14.77514 6.25098,13.41236 0.615,-0.83457 3.56765,-5.78998 6.56144,-11.01201 2.99379,-5.22203 6.04699,-9.65922 6.78488,-9.86041 2.93495,-0.80024 5.69052,0.45477 6.99228,3.18461 l 1.29612,2.71799 -9.04825,15.0035 -9.04826,15.00351 8.49108,24.56647 c 4.67008,13.51156 8.59358,24.66899 8.71889,24.79429 0.12529,0.1253 4.42773,0.97312 9.56097,1.88404 5.13323,0.91091 12.07659,2.40912 15.42968,3.32934 3.35309,0.92021 10.7589,2.03238 16.45735,2.4715 11.4834,0.8849 18.97915,2.27426 28.52139,5.28655 l 6.36739,2.01005 3.79349,-1.67549 c 2.08642,-0.92153 4.89087,-2.72142 6.2321,-3.99977 1.34124,-1.27835 4.99916,-3.70493 8.12871,-5.39238 3.12955,-1.68746 7.73641,-4.6557 10.23747,-6.59609 4.68739,-3.63661 8.27042,-5.10369 12.51754,-5.12532 4.01971,-0.0205 4.9238,-1.00875 3.67682,-4.01922 -0.75712,-1.82785 -1.43094,-2.41261 -2.36511,-2.0525 -0.71849,0.27696 -3.43579,1.00128 -6.03843,1.60958 -5.72556,1.33822 -5.92432,1.17782 -10.00453,-8.07416 -1.51175,-3.42792 -3.69555,-7.04709 -4.85289,-8.0426 l -2.10426,-1.81 0.92172,-9.21989 c 0.76759,-7.67797 0.72467,-9.84908 -0.25663,-12.98222 -0.64811,-2.06928 -1.36425,-5.09044 -1.59142,-6.71368 -0.87727,-6.26831 6.22005,-15.73375 14.75502,-19.67825 5.16871,-2.38875 20.15336,-2.52607 27.08955,-0.24826 9.01916,2.96185 12.96426,8.07247 14.44398,18.71122 1.20554,8.6675 1.10458,13.25259 -0.44731,20.31522 -2.2014,10.01849 0.31876,16.09644 7.04849,16.99909 7.08898,0.95083 18.50477,8.58486 24.24412,16.21265 3.90762,5.19338 9.20696,14.90521 11.94982,21.89986 2.11597,5.39598 2.52978,10.34192 4.04354,48.32932 0.28291,7.09961 1.01556,14.97952 1.62811,17.51091 0.63657,2.63063 1.16395,9.59593 1.23095,16.25741 0.10924,10.86291 0.3027,12.2212 2.84701,19.98899 1.5014,4.58375 3.69831,12.81407 4.88202,18.28959 3.34553,15.47539 3.84832,17.01194 11.40962,34.86768 6.69228,15.8036 7.277,16.86416 10.015,18.16488 5.72436,2.71943 18.75132,11.77609 22.58082,15.69872 2.14511,2.19729 8.64671,10.90464 14.44799,19.34968 10.62436,15.46608 14.21242,19.53595 28.58625,32.4249 10.61523,9.51861 10.69813,9.64729 12.06009,18.72005 1.11599,7.43423 1.09619,8.03709 -0.35761,10.88678 -2.0559,4.02989 -2.61204,4.41549 -10.54276,7.30985 -3.76072,1.3725 -10.17313,4.51347 -14.2498,6.97994 -4.07666,2.46648 -8.67553,4.84684 -10.21971,5.2897 -1.54417,0.44286 -9.09749,0.80521 -16.78517,0.80521 H 459.60096 Z M 254.57494,413.47684 c 10.90776,-5.00215 20.11508,-9.64351 20.4607,-10.31413 0.34562,-0.67062 1.40962,-3.26895 2.36445,-5.77406 1.19273,-3.12935 5.41444,-9.22323 13.49001,-19.47234 12.35765,-15.68372 15.22899,-18.52145 24.88223,-24.59088 7.29142,-4.58445 16.29082,-15.19235 12.88871,-15.19235 -0.42957,0 -6.73948,1.87186 -14.02202,4.1597 l -13.24099,4.15969 -8.94158,-0.43041 c -6.94409,-0.33426 -10.57588,-0.97409 -16.25741,-2.86417 -12.4604,-4.14521 -23.19705,-8.22399 -32.63464,-12.39767 -4.98377,-2.20403 -9.63521,-4.00733 -10.33652,-4.00733 -2.3759,0 -7.08543,2.72233 -6.6541,3.84637 0.2286,0.59572 1.0007,3.34096 1.71578,6.10055 1.2244,4.72511 1.21625,5.07876 -0.13988,6.07038 -0.79202,0.57914 -2.42597,1.05298 -3.631,1.05298 -1.96315,0 -2.40134,-0.57051 -4.21424,-5.48688 -1.50154,-4.07201 -2.45349,-5.55188 -3.69171,-5.73896 -1.86955,-0.28248 -8.28837,-6.85444 -8.28837,-8.48612 0,-0.57874 -1.18882,-2.49451 -2.64183,-4.25726 -2.3101,-2.80254 -2.64183,-3.79844 -2.64183,-7.93102 0,-4.34604 0.20815,-4.88893 2.58877,-6.75206 l 2.58878,-2.02601 -6.14662,-17.66254 c -3.38064,-9.7144 -6.32573,-18.48557 -6.54466,-19.4915 -0.21894,-1.00593 -0.62976,-1.82175 -0.91296,-1.81293 -0.28318,0.009 -1.64558,1.92922 -3.02753,4.26757 -1.38196,2.33835 -8.62637,14.38171 -16.09868,26.76303 l -13.58604,22.51149 1.2638,2.44391 c 1.67255,3.23436 1.594,5.19363 -0.36195,9.02761 -0.89416,1.7527 -1.62574,3.33273 -1.62574,3.51118 0,0.17846 6.3654,6.413 14.14534,13.85455 12.68017,12.12862 14.34306,13.45691 16.05419,12.82375 1.68353,-0.62293 2.21465,-0.2523 4.49931,3.13977 2.41979,3.59268 2.86335,3.8723 6.73271,4.24409 5.06987,0.48716 7.26529,2.35941 10.60604,9.04484 2.06309,4.12861 2.42473,5.78894 2.42473,11.13208 v 6.27975 l 9.1448,14.69895 c 5.02963,8.08442 9.32769,14.6882 9.55122,14.67508 0.22354,-0.0131 9.33097,-4.11654 20.23873,-9.1187 z"
       style="fill:#000000;stroke-width:0.812871" />
  </g>
</svg>
