<?xml version="1.0" encoding="UTF-8" standalone="no"?>
<svg
   xmlns:dc="http://purl.org/dc/elements/1.1/"
   xmlns:cc="http://creativecommons.org/ns#"
   xmlns:rdf="http://www.w3.org/1999/02/22-rdf-syntax-ns#"
   xmlns:svg="http://www.w3.org/2000/svg"
   xmlns="http://www.w3.org/2000/svg"
   xmlns:sodipodi="http://sodipodi.sourceforge.net/DTD/sodipodi-0.dtd"
   xmlns:inkscape="http://www.inkscape.org/namespaces/inkscape"
   inkscape:version="1.0 (4035a4fb49, 2020-05-01)"
   sodipodi:docname="кикбоксинг.svg"
   viewBox="0 0 198.70027 191.0612"
   height="191.0612"
   width="198.70027"
   id="svg8"
   version="1.1">
  <metadata
     id="metadata14">
    <rdf:RDF>
      <cc:Work
         rdf:about="">
        <dc:format>image/svg+xml</dc:format>
        <dc:type
           rdf:resource="http://purl.org/dc/dcmitype/StillImage" />
        <dc:title></dc:title>
      </cc:Work>
    </rdf:RDF>
  </metadata>
  <defs
     id="defs12" />
  <sodipodi:namedview
     inkscape:current-layer="g16"
     inkscape:window-maximized="1"
     inkscape:window-y="-6"
     inkscape:window-x="-6"
     inkscape:cy="84.542335"
     inkscape:cx="139.63687"
     inkscape:zoom="2.1875"
     showgrid="false"
     id="namedview10"
     inkscape:window-height="1018"
     inkscape:window-width="1920"
     inkscape:pageshadow="2"
     inkscape:pageopacity="0"
     guidetolerance="10"
     gridtolerance="10"
     objecttolerance="10"
     borderopacity="1"
     bordercolor="#666666"
     pagecolor="#ffffff"
     inkscape:document-rotation="0" />
  <g
     transform="translate(-12.507104,-2.7862429)"
     id="g16"
     inkscape:label="Image"
     inkscape:groupmode="layer">
    <path
       id="path8"
       d="m 58.113904,193.7982 c -0.67143,-0.0541 -1.10125,-0.14043 -1.48374,-0.29787 l -0.53848,-0.22164 0.0675,-0.53634 c 0.11459,-0.91066 0.27002,-1.06775 1.4488,-1.46429 0.33542,-0.11283 0.67287,-0.30927 0.8844,-0.51482 0.19938,-0.19375 0.56997,-0.41495 0.88857,-0.53036 0.3006,-0.10889 0.7329,-0.30345 0.96067,-0.43236 0.22776,-0.1289 0.72705,-0.29848 1.10952,-0.37683 1.68136,-0.34444 1.935,-0.42265 2.28026,-0.7031 0.19018,-0.15448 0.72142,-0.43691 1.18052,-0.62761 0.46927,-0.19493 0.88242,-0.42683 0.94363,-0.52967 0.0599,-0.1006 0.32702,-0.28231 0.59363,-0.40378 0.26661,-0.12147 0.73899,-0.43101 1.04974,-0.68786 0.31075,-0.25686 0.70825,-0.53362 0.88334,-0.61503 0.17509,-0.0814 0.54347,-0.34759 0.81862,-0.59151 0.27514,-0.24393 0.83033,-0.71675 1.23375,-1.05072 0.40342,-0.33397 0.98342,-0.82191 1.2889,-1.08432 0.30548,-0.2624 0.72863,-0.6187 0.94034,-0.79178 0.21171,-0.17307 0.58776,-0.52681 0.83567,-0.78608 0.58035,-0.60695 0.66005,-0.98578 0.67445,-3.20565 0.01,-1.53619 -0.0105,-1.75651 -0.24009,-2.58985 -0.31302,-1.13601 -0.44904,-2.18375 -0.45047,-3.46982 -0.002,-1.95736 -0.42058,-6.49687 -0.67026,-7.27199 -0.24879,-0.77233 -0.39377,-2.62985 -0.87254,-11.17866 -0.0902,-1.61016 -0.007,-3.45469 0.23653,-5.27424 0.20376,-1.51954 0.30013,-1.90468 0.62947,-2.51562 0.15431,-0.28626 0.3923,-0.90873 0.52886,-1.38326 0.13656,-0.47453 0.33232,-0.98199 0.43502,-1.12769 0.41759,-0.59241 0.50711,-0.86956 0.51984,-1.60946 0.0131,-0.76141 -0.0367,-0.90995 -0.61187,-1.82454 -0.10601,-0.16858 -0.30002,-0.74257 -0.43113,-1.27554 -0.13111,-0.53298 -0.3207,-1.11721 -0.42131,-1.2983 -0.27947,-0.50302 -0.38471,-0.9934 -0.54647,-2.54651 -0.12697,-1.21916 -0.40206,-3.36486 -0.82227,-6.41391 -0.30354,-2.20244 -0.41696,-2.81413 -0.67555,-3.64331 -0.38984,-1.25003 -0.46536,-1.7945 -0.5942,-4.28399 -0.17024,-3.28945 0.0868,-7.80458 0.4995,-8.77435 0.22509,-0.52888 0.47741,-1.84131 0.47887,-2.49075 10e-4,-0.65263 -0.0864,-1.24376 -0.4806,-3.23131 -0.23216,-1.17071 -0.34837,-2.2563 -0.48287,-4.51076 -0.15298,-2.564313 -0.2737,-3.854203 -0.48304,-5.161363 -0.30336,-1.894176 -0.37411,-2.756634 -0.48821,-5.950958 -0.0852,-2.384841 -0.0817,-3.413747 0.0162,-4.848855 0.0684,-1.00191 0.12678,-2.129567 0.12974,-2.505903 l 0.005,-0.684249 -0.37979,-0.269952 c -0.20888,-0.148473 -0.57792,-0.44968 -0.82008,-0.669354 -0.24216,-0.219674 -0.60238,-0.485939 -0.80048,-0.591708 -0.1981,-0.105769 -0.4586,-0.300989 -0.57888,-0.433814 -0.12028,-0.132825 -0.48603,-0.4023 -0.81278,-0.59883 -0.32674,-0.196522 -0.69578,-0.471583 -0.82008,-0.611235 -0.1243,-0.139651 -0.43075,-0.376727 -0.681,-0.52684 -0.25025,-0.150113 -0.54673,-0.388758 -0.65885,-0.530318 -0.11211,-0.141569 -0.33583,-0.318755 -0.49715,-0.393764 -0.16132,-0.075 -0.56301,-0.361954 -0.89264,-0.637666 -0.32963,-0.27572 -0.72606,-0.572962 -0.88096,-0.660558 -0.1549,-0.08759 -0.50783,-0.356302 -0.78428,-0.597141 -0.84169,-0.73327 -1.60703,-1.348909 -1.86112,-1.497107 -0.13266,-0.07737 -0.5017,-0.361192 -0.82008,-0.63071 -0.31839,-0.269518 -0.71112,-0.559503 -0.87273,-0.644411 -0.16162,-0.08491 -0.39704,-0.289772 -0.52316,-0.455256 -0.12614,-0.165484 -0.36167,-0.362413 -0.52342,-0.437622 -0.16176,-0.07521 -0.51867,-0.336219 -0.79314,-0.580026 -0.27447,-0.243807 -0.87804,-0.736051 -1.34128,-1.093876 -0.46323,-0.357825 -1.11942,-0.884804 -1.45819,-1.171064 -0.33877,-0.28626 -0.88699,-0.742487 -1.21827,-1.013839 -0.33128,-0.271351 -0.8194,-0.677293 -1.08472,-0.902091 -0.26532,-0.224798 -0.69948,-0.563517 -0.9648,-0.752706 -0.47541,-0.338993 -0.88344,-0.678788 -1.96097,-1.633042 -0.30113,-0.266681 -0.68927,-0.572284 -0.86253,-0.679116 -0.17326,-0.106831 -0.38022,-0.307607 -0.45992,-0.446168 -0.0797,-0.138562 -0.282,-0.315675 -0.44957,-0.393586 -0.16757,-0.07791 -0.6149,-0.400614 -0.99408,-0.717118 -0.37917,-0.316505 -0.81659,-0.676343 -0.97205,-0.79964 -0.15546,-0.123297 -0.41794,-0.35751 -0.5833,-0.520473 -0.16535,-0.162962 -0.43771,-0.413402 -0.60523,-0.556532 -0.16752,-0.14313 -0.46639,-0.40664 -0.66415,-0.585577 -0.19777,-0.178938 -0.46811,-0.41881 -0.60077,-0.533048 -0.13266,-0.11424 -0.35601,-0.319155 -0.49633,-0.455369 -0.14032,-0.136214 -0.40082,-0.367566 -0.57888,-0.514116 -0.17806,-0.14655 -0.41493,-0.361246 -0.52637,-0.4771 -0.11144,-0.115855 -0.45292,-0.42534 -0.75885,-0.687745 -0.6061,-0.519879 -2.49895,-2.354188 -3.30852,-3.206211 -0.279,-0.293625 -0.66814,-0.78534 -0.86475,-1.0927 l -0.35748,-0.558836 h -0.54553 -0.54552 l -0.30656,0.730286 c -0.16861,0.401657 -0.43219,0.872427 -0.58575,1.046156 -0.15355,0.173728 -0.37241,0.567733 -0.48635,0.875566 -0.11393,0.307833 -0.35935,0.758628 -0.54537,1.001768 -0.18602,0.24314 -0.422,0.662293 -0.5244,0.931453 -0.10239,0.26916 -0.3318,0.684559 -0.50978,0.923109 -0.17799,0.23855 -0.43899,0.711121 -0.58,1.050157 -0.14102,0.339037 -0.35888,0.702993 -0.48413,0.808793 -0.12526,0.105799 -0.34609,0.484108 -0.49073,0.840685 -0.14465,0.356578 -0.41609,0.812366 -0.6032,1.012863 -0.18712,0.200497 -0.40284,0.501163 -0.4794,0.668148 -0.0766,0.166985 -0.30393,0.459751 -0.50528,0.650591 -0.22268,0.211048 -0.43254,0.533892 -0.53568,0.824082 -0.0933,0.262405 -0.3103,0.730831 -0.48228,1.040946 -0.17199,0.310115 -0.38672,0.876129 -0.47718,1.257809 -0.0905,0.381681 -0.1827,0.754684 -0.20499,0.828898 -0.15975,0.532022 -2.07381,2.597549 -2.40706,2.597549 -0.0838,0 -0.38132,0.194665 -0.66112,0.432589 -0.27981,0.237925 -0.78735,0.5464 -1.12787,0.685503 -0.36503,0.149113 -0.70893,0.362604 -0.83793,0.520178 -0.38017,0.464397 -1.00352,0.646319 -2.14497,0.625999 -1.0466,-0.01863 -1.61019,-0.170142 -2.06122,-0.554121 -0.21946,-0.186836 -0.56073,-0.433224 -0.75838,-0.547528 -0.19765,-0.114304 -0.43491,-0.315307 -0.52724,-0.446673 -0.0923,-0.131366 -0.32909,-0.407048 -0.52612,-0.612626 -0.31102,-0.324494 -0.39311,-0.510365 -0.62258,-1.409614 -0.26118,-1.023548 -0.26756,-1.035835 -0.53759,-1.035835 h -0.27328 v -1.200992 c 0,-1.090826 -0.0177,-1.215394 -0.19296,-1.358 -0.17984,-0.146338 -0.19296,-0.267173 -0.19296,-1.778282 0,-1.511109 0.0131,-1.631943 0.19296,-1.778282 0.1596,-0.12986 0.19296,-0.267173 0.19296,-0.794154 v -0.637146 h 0.27396 c 0.3336,0 0.41242,-0.135871 0.68825,-1.186364 0.13151,-0.50088 0.30161,-0.89216 0.49217,-1.132159 0.16015,-0.201713 0.37124,-0.575952 0.46909,-0.831644 0.23721,-0.619902 0.42499,-0.935023 0.68162,-1.143833 0.11706,-0.09525 0.32468,-0.348888 0.46138,-0.563641 0.33639,-0.528481 0.85502,-1.067891 1.98136,-2.060733 0.52108,-0.459324 1.06003,-1.01309 1.19767,-1.230594 0.13763,-0.217504 0.35368,-0.497066 0.48011,-0.62125 0.12643,-0.124183 0.35164,-0.519275 0.50048,-0.87798 0.14883,-0.358706 0.38614,-0.788379 0.52734,-0.954829 0.14121,-0.166449 0.36012,-0.575929 0.48648,-0.909955 0.12636,-0.334026 0.36218,-0.771696 0.52404,-0.972598 0.16187,-0.200902 0.36776,-0.567394 0.45753,-0.814427 0.20477,-0.56344 0.39518,-0.906561 0.66373,-1.19605 0.11553,-0.124534 0.3096,-0.495371 0.43127,-0.824082 0.12166,-0.328711 0.36749,-0.768956 0.54627,-0.978322 0.17879,-0.209366 0.41579,-0.599721 0.52666,-0.867455 0.11088,-0.267734 0.3044,-0.584377 0.43005,-0.703652 0.12565,-0.119275 0.3842,-0.544602 0.57455,-0.945172 0.19036,-0.40057 0.46952,-0.854692 0.62037,-1.009161 0.15114,-0.154781 0.36538,-0.550566 0.47724,-0.881692 0.11164,-0.330462 0.33141,-0.76025 0.48839,-0.955085 0.15698,-0.194835 0.39327,-0.54381 0.52509,-0.775501 0.13183,-0.231689 0.4171,-0.575559 0.63394,-0.764154 0.21684,-0.188595 0.39426,-0.395204 0.39426,-0.45913 0,-0.06393 0.1882,-0.299976 0.41821,-0.524554 0.23002,-0.224579 0.51719,-0.595768 0.63815,-0.824863 0.12097,-0.229096 0.32186,-0.476581 0.44643,-0.549967 0.24993,-0.14724 0.5348,-0.758936 0.75997,-1.631874 0.0808,-0.313159 0.25877,-0.76793 0.39554,-1.010602 0.13677,-0.242672 0.3341,-0.793131 0.43851,-1.223243 0.20229,-0.833366 0.34498,-1.163666 0.6908,-1.599059 0.11897,-0.149794 0.28813,-0.390417 0.37592,-0.534717 0.0878,-0.1443 0.26678,-0.325505 0.39778,-0.402677 0.32932,-0.194007 1.21722,-0.311167 1.67236,-0.220669 0.20637,0.04103 0.93962,0.137874 1.62946,0.2152 0.90301,0.101222 1.39706,0.202183 1.76425,0.360527 0.47118,0.203186 0.52722,0.209798 0.73596,0.08683 0.33675,-0.198387 0.36637,-0.575441 0.15089,-1.92125 -0.21719,-1.356605 -0.29003,-1.600358 -0.67463,-2.257724 -0.1474,-0.251943 -0.36528,-0.841981 -0.48416,-1.311197 -0.11889,-0.469215 -0.33732,-1.068259 -0.48541,-1.331208 -0.14809,-0.26295 -0.34075,-0.809892 -0.42815,-1.215427 -0.19411,-0.900668 -0.4013,-1.501618 -0.6466,-1.875423 -0.10201,-0.155444 -0.3106,-0.711459 -0.46354,-1.235587 -0.15294,-0.524129 -0.39911,-1.160837 -0.54703,-1.414908 l -0.26894,-0.461946 0.007,-2.125265 0.007,-2.125264 0.29939,-0.824082 c 0.16467,-0.453245 0.38969,-1.1558829 0.50004,-1.5614179 0.12871,-0.472993 0.31727,-0.892833 0.52595,-1.171064 0.17892,-0.23855 0.41903,-0.628905 0.53359,-0.867455 0.11455,-0.23855 0.35135,-0.5703516 0.52621,-0.7373367 0.17487,-0.166985 0.41506,-0.4499921 0.53375,-0.6289047 0.1187,-0.1789125 0.25667,-0.3252955 0.3066,-0.3252955 0.0499,0 0.30552,-0.202431 0.56799,-0.4498464 0.2648,-0.2496196 0.76842,-0.5874603 1.13147,-0.7590229 0.58239,-0.2752122 0.65758,-0.3401472 0.68449,-0.5910993 l 0.0302,-0.2819228 h 0.60606 c 0.48352,0 0.64136,-0.035076 0.78068,-0.1734909 0.16526,-0.1641901 0.29716,-0.173491 2.46024,-0.173491 2.16309,0 2.29498,0.0093 2.46024,0.173491 0.15657,0.1555511 0.29716,0.1734909 1.35957,0.1734909 h 1.18493 l 0.0302,0.2788598 c 0.0338,0.3116254 0.0503,0.3192798 1.54901,0.7169332 0.78274,0.2076912 0.90237,0.2717215 1.66317,0.8902211 0.77515,0.630159 0.83311,0.7024535 1.06488,1.3281722 0.16325,0.44074 0.34454,0.746018 0.54283,0.914099 0.16374,0.138798 0.3743,0.41047 0.4679,0.603715 0.0936,0.193245 0.32532,0.499231 0.51491,0.67997 0.18959,0.18074 0.39616,0.471538 0.45906,0.646219 0.0629,0.174682 0.30417,0.649405 0.53617,1.0549399 0.28172,0.492451 0.46925,0.967817 0.56464,1.4313 0.15774,0.766383 0.43376,3.091257 0.4341,3.656279 1.9e-4,0.267401 0.087,0.475955 0.33789,0.811113 0.18573,0.248139 0.33768,0.500296 0.33768,0.56035 0,0.06005 0.17638,0.289345 0.39195,0.509537 0.45331,0.463031 0.57285,0.770312 0.57285,1.472548 0,0.56527 -0.0849,0.759315 -0.50815,1.161528 l -0.29204,0.277517 0.15266,0.720056 c 0.28942,1.36511 0.29142,1.419367 0.0739,2.007206 -0.31338,0.846695 -0.13941,1.082362 0.81489,1.103865 0.15919,0.0036 1.59427,-0.03448 3.18906,-0.0846 3.11774,-0.09797 4.61899,-0.236583 6.21775,-0.574088 2.43008,-0.513 4.31925,-0.512276 6.85008,0.0026 1.53159,0.311601 2.14327,0.372558 7.95961,0.793217 0.61663,0.0446 1.55827,-0.03641 4.72752,-0.406693 0.42452,-0.0496 1.40138,-0.203169 2.17081,-0.341268 0.82839,-0.148683 1.89083,-0.272441 2.60496,-0.303439 2.62791,-0.114068 4.78304,-0.440491 5.68789,-0.861507 0.42485,-0.197677 1.0008,-0.366238 1.654656,-0.484264 1.18338,-0.213607 1.50072,-0.297501 2.20724,-0.58353 0.95053,-0.38481 1.76395,-0.472361 4.39158,-0.472674 2.43779,-2.6e-4 3.3633,0.06623 6.22297,0.447251 1.64699,0.219447 5.38418,0.242801 6.60888,0.0413 0.42452,-0.06984 1.31455,-0.205081 1.97785,-0.300526 1.63102,-0.234691 1.54583,-0.209562 2.19278,-0.64681 0.6814,-0.460538 0.93754,-0.557915 1.74314,-0.662688 0.63025,-0.08197 0.96784,-7.81e-4 1.39436,0.335476 0.15163,0.119532 0.21871,0.118354 0.66659,-0.0117 0.2739,-0.07953 0.99525,-0.223431 1.60302,-0.319771 1.23715,-0.196108 1.63765,-0.322593 2.0792,-0.656644 0.16681,-0.126195 0.62965,-0.363004 1.02854,-0.526244 0.39889,-0.16324 0.85551,-0.408624 1.0147,-0.545297 0.15919,-0.136673 0.53595,-0.352542 0.83724,-0.47971 0.32851,-0.138652 0.63429,-0.344687 0.76383,-0.51466 0.11881,-0.155895 0.40695,-0.392049 0.6403,-0.524788 0.23336,-0.132739 0.65922,-0.434387 0.94635,-0.670331 0.35091,-0.288349 0.7821,-0.526125 1.31527,-0.725283 l 0.79322,-0.296295 0.39102,0.159963 c 0.21505,0.08798 0.57767,0.231155 0.80581,0.318167 0.22813,0.08701 0.53389,0.278274 0.67946,0.425027 0.14557,0.146752 0.51101,0.454134 0.81207,0.683072 0.30108,0.228938 0.85241,0.78109 1.22518,1.227006 0.59672,0.713823 0.70575,0.904797 0.91188,1.597336 0.12877,0.432619 0.2614,0.826255 0.29473,0.874749 0.0333,0.04849 0.11948,0.365934 0.19142,0.705425 0.11822,0.557809 0.11453,0.651973 -0.0383,0.97771 -0.093,0.198248 -0.24746,0.55334 -0.34324,0.789092 -0.0958,0.235751 -0.33176,0.58707 -0.52438,0.780709 -0.19262,0.193638 -0.4666,0.494128 -0.60885,0.667755 -0.27909,0.34067 -1.27011,0.991091 -1.63581,1.073614 -0.15572,0.03514 -0.48957,-0.07067 -1.0853,-0.343978 -0.47322,-0.217097 -0.96255,-0.394726 -1.08741,-0.394726 -0.30399,0 -0.96476,0.310435 -1.2195,0.572926 -0.11321,0.116652 -0.51664,0.325138 -0.89652,0.463303 -0.37988,0.138164 -0.90956,0.386574 -1.17707,0.552021 -0.53384,0.33016 -1.15395,0.477301 -2.99742,0.711219 -0.60635,0.07694 -1.49638,0.253343 -1.97784,0.392005 -0.48146,0.138662 -1.33125,0.312101 -1.88842,0.38542 -0.55718,0.07332 -1.46891,0.194688 -2.02609,0.26971 -0.55717,0.07502 -1.38207,0.253805 -1.83312,0.397296 -0.45104,0.143492 -1.32423,0.386726 -1.9404,0.540522 -0.68159,0.170124 -1.30995,0.389045 -1.60459,0.559027 -0.34943,0.201606 -0.78966,0.339684 -1.58111,0.495921 -0.73966,0.146008 -1.34044,0.32895 -1.84479,0.561742 -0.41136,0.189871 -1.17114,0.443672 -1.6884,0.564002 -0.54697,0.12724 -1.16251,0.340149 -1.47112,0.508848 -0.66403,0.362985 -0.93625,0.440992 -2.31552,0.663548 -0.61024,0.09847 -1.53415,0.311566 -2.05314,0.473554 -0.51898,0.161989 -1.27876,0.336242 -1.6884,0.387229 -0.91149,0.113456 -6.24244,0.493585 -8.02903,0.57252 -0.716366,0.03165 -1.649806,0.131215 -2.074316,0.221256 -0.42452,0.09004 -1.40138,0.203587 -2.17081,0.252324 -2.16647,0.137228 -3.03845,0.333432 -3.69739,0.831948 -0.3727,0.281964 -0.55572,0.34341 -1.66852,0.56018 -0.49669,0.09676 -1.21221,0.290534 -1.59004,0.430617 -1.21926,0.452052 -3.79431,0.745276 -7.5643,0.861357 -1.63027,0.0502 -2.31276,0.107162 -2.94264,0.245607 -0.45266,0.09949 -1.46253,0.218385 -2.25402,0.265365 -1.3821,0.08204 -1.44441,0.09399 -1.72346,0.330538 -0.26991,0.228807 -0.5324,0.543411 -0.98371,1.179045 -0.16912,0.238192 -0.17483,0.30777 -0.065,0.791456 0.0662,0.291669 0.24373,0.705966 0.39446,0.920661 0.15073,0.214695 0.37302,0.717984 0.49398,1.11842 0.12096,0.400436 0.31911,0.849344 0.44034,0.997573 0.12123,0.148229 0.37334,0.542756 0.56025,0.876726 0.57091,1.020116 1.83245,2.361433 2.60653,2.771383 0.21226,0.11241 0.48483,0.325197 0.6057,0.472862 0.12088,0.147665 0.43419,0.366169 0.69625,0.485564 0.26205,0.119396 0.70116,0.396509 0.97579,0.615809 0.27462,0.219298 0.69939,0.475826 0.94391,0.570059 0.24453,0.09423 0.66168,0.319987 0.927,0.501676 0.71072,0.486697 0.72989,0.490436 4.46981,0.871857 0.49503,0.05049 1.33737,0.169292 1.87187,0.264014 1.02985,0.182504 3.2853,0.384711 5.28417,0.473739 2.64483,0.117798 5.30108,0.3205 6.313616,0.481799 1.64267,0.261679 2.95748,0.410113 4.54039,0.512581 2.69974,0.174766 2.6601,0.16896 2.95321,0.432493 0.20884,0.187773 0.28058,0.353775 0.33304,0.77069 0.0368,0.292251 0.12228,0.599514 0.19002,0.682806 0.11635,0.143058 0.16505,0.140011 0.88017,-0.05506 1.26857,-0.346041 1.82778,-0.428797 4.13381,-0.611757 2.35977,-0.187223 3.13113,-0.262723 5.35465,-0.524105 1.5885,-0.186734 4.01045,-0.307118 8.6832,-0.431605 4.87579,-0.129895 5.11266,-0.154771 6.99599,-0.734742 0.55454,-0.170766 1.33534,-0.335227 1.83312,-0.386109 2.85046,-0.291367 2.65281,-0.254198 3.47211,-0.652929 0.52546,-0.255729 1.07588,-0.437224 1.72435,-0.568587 0.59335,-0.120198 1.21545,-0.318207 1.64982,-0.525129 0.58398,-0.278182 0.95449,-0.374751 2.27958,-0.59413 0.87024,-0.144076 1.9947,-0.375655 2.49881,-0.514619 0.95515,-0.263298 1.91452,-0.434376 3.72423,-0.664113 0.58907,-0.07478 1.50081,-0.229194 2.02608,-0.343142 1.20367,-0.261107 4.74804,-0.632239 7.08154,-0.741511 1.71664,-0.08038 2.57096,-0.172512 4.34161,-0.468187 1.31847,-0.220166 2.9949,-0.310181 6.85009,-0.367813 3.85828,-0.05768 6.84501,0.04412 7.86312,0.267995 0.68823,0.15134 1.76071,0.170989 2.1404,0.03921 0.14938,-0.05184 0.92703,-0.203505 1.72811,-0.33703 1.39855,-0.233111 1.93274,-0.394731 2.62516,-0.794242 0.17542,-0.101214 0.73983,-0.276332 1.25424,-0.38915 0.53186,-0.116642 1.26352,-0.357969 1.69618,-0.559462 0.4599,-0.21417 1.09537,-0.419972 1.60644,-0.52026 1.08077,-0.212081 1.23906,-0.268641 1.76826,-0.631834 0.24028,-0.16491 0.71447,-0.38289 1.05374,-0.4844 0.37822,-0.113163 0.72547,-0.287506 0.89761,-0.450658 0.15442,-0.146352 0.51954,-0.430488 0.8114,-0.631413 0.29185,-0.200925 0.87797,-0.689991 1.30248,-1.086815 0.42451,-0.396824 1.14575,-1.06016 1.60275,-1.474083 l 0.83091,-0.752585 0.90574,-0.186728 c 1.80878,-0.372904 2.24409,-0.40993 2.96928,-0.252559 0.74669,0.162043 1.56124,0.261553 3.29109,0.402062 2.05963,0.167298 2.29411,0.22326 2.86281,0.683255 1.03509,0.837219 1.14762,0.943031 1.40299,1.319136 0.14402,0.212138 0.34885,0.483293 0.45516,0.602568 0.48382,0.542807 0.44865,2.230808 -0.06,2.881611 -0.1491,0.190754 -0.37276,0.499921 -0.49703,0.687038 -0.12426,0.187117 -0.37963,0.446365 -0.56747,0.576106 -0.18785,0.12974 -0.54784,0.396595 -0.79998,0.593009 -0.28784,0.224221 -0.59727,0.379124 -0.83149,0.416252 -0.85224,0.135093 -1.59227,0.415386 -1.89951,0.719459 -0.16866,0.166916 -0.4672,0.377252 -0.66342,0.467414 -0.19622,0.09016 -0.49677,0.320571 -0.66789,0.512022 -0.17112,0.191451 -0.50986,0.462909 -0.75276,0.603241 -0.2429,0.140332 -0.62098,0.410317 -0.8402,0.599968 -0.21922,0.189652 -0.60996,0.442078 -0.86832,0.560949 -0.25836,0.118871 -0.63441,0.353125 -0.83567,0.520565 -0.23721,0.197354 -0.6241,0.382484 -1.09993,0.526325 -0.4037,0.122037 -0.95539,0.358137 -1.22599,0.524665 -0.46976,0.289091 -0.70488,0.358172 -2.37336,0.697302 -0.39798,0.08089 -1.04981,0.278046 -1.44851,0.43812 -0.45693,0.183461 -1.13707,0.357391 -1.83996,0.470537 -1.44679,0.232893 -1.65759,0.290791 -2.20165,0.60469 -0.30634,0.176737 -0.93723,0.37614 -1.93577,0.611822 -0.81474,0.192299 -1.52861,0.384567 -1.5864,0.427263 -0.44063,0.325532 -2.89716,0.332792 -3.99787,0.01181 -0.33685,-0.09823 -0.83613,-0.201277 -1.10952,-0.228994 -0.44005,-0.04462 -0.56897,-0.01592 -1.12418,0.250241 -0.34491,0.16535 -1.05452,0.409206 -1.5769,0.541902 -0.5224,0.132696 -1.0868,0.332373 -1.25425,0.443726 -0.34416,0.228866 -1.05453,0.542733 -1.71374,0.757182 -0.24447,0.07953 -0.66584,0.293083 -0.93637,0.474562 -0.32586,0.218595 -0.78531,0.409138 -1.36127,0.564547 -0.47815,0.129022 -0.99023,0.32496 -1.13794,0.435419 -0.41361,0.309292 -0.64853,0.39898 -1.72539,0.658728 -0.5836,0.140768 -1.19324,0.353272 -1.4676,0.511568 -0.32338,0.186574 -0.8818,0.364181 -1.79577,0.571146 -0.90762,0.205529 -1.46323,0.381838 -1.7597,0.558394 -0.47379,0.282161 -1.34614,0.491056 -2.39628,0.573814 -1.02128,0.08048 -1.57264,0.204671 -2.31552,0.521553 -0.58823,0.25091 -0.8932,0.311942 -2.36377,0.473053 -1.77883,0.194883 -2.67244,0.349679 -3.23189,0.559845 -0.61423,0.23075 -3.27321,0.577693 -5.95451,0.776941 -1.52511,0.113332 -1.64825,0.13623 -2.26728,0.421592 -0.36001,0.165964 -0.88647,0.369896 -1.16989,0.453183 -0.30205,0.08876 -0.70755,0.304931 -0.9798,0.52233 -0.3424,0.273415 -0.67608,0.433093 -1.26956,0.607525 -0.4428,0.130145 -1.07816,0.37157 -1.41192,0.536502 -0.33375,0.164932 -1.02669,0.393352 -1.53985,0.507599 -1.0834,0.241204 -1.38759,0.343207 -1.87636,0.629203 -0.20174,0.118048 -0.92963,0.338563 -1.67494,0.507425 -0.72498,0.164257 -1.57979,0.417399 -1.89958,0.56254 -0.31978,0.14514 -1.08562,0.379104 -1.70186,0.519921 -0.63945,0.146124 -1.30999,0.360903 -1.56204,0.500331 -0.55679,0.30801 -1.09336,0.481387 -2.05031,0.662488 -0.41616,0.07876 -1.04429,0.281136 -1.39896,0.450735 -0.74904,0.358184 -0.91767,0.408257 -2.12052,0.629679 -0.56107,0.10328 -1.19454,0.297058 -1.68841,0.51648 -0.58143,0.258326 -1.10739,0.407343 -1.98922,0.563589 -0.82077,0.145429 -1.3836,0.299781 -1.78488,0.489483 -0.7249,0.342692 -0.90272,0.391319 -2.22625,0.608792 -0.73038,0.120008 -1.32422,0.28306 -1.90455,0.522931 -0.63737,0.263447 -1.16739,0.401367 -2.1708,0.56487 -1.05373,0.171704 -1.4785,0.285423 -2.05946,0.551356 -0.40255,0.18427 -0.98867,0.401426 -1.30248,0.482567 -0.68261,0.176503 -1.03555,0.331629 -1.48712,0.653638 -0.18573,0.132435 -0.6416,0.326577 -1.01305,0.431428 -0.66331,0.187235 -1.10952,0.447251 -1.10952,0.646539 0,0.05548 -0.17236,0.317287 -0.38301,0.58179 -0.25293,0.317559 -0.46546,0.736674 -0.62571,1.233878 -0.13349,0.414131 -0.39145,0.994545 -0.57327,1.289801 -0.18181,0.295264 -0.42797,0.865477 -0.54701,1.267134 -0.25379,0.856317 -0.65541,1.332385 -1.26179,1.495735 -0.69656,0.187639 -2.86309,-0.05546 -4.76177,-0.5343 -0.854306,-0.21545 -2.748976,-0.295715 -2.939406,-0.124532 -0.19504,0.175339 -0.26156,1.220483 -0.14174,2.227164 0.0639,0.537154 0.14421,1.425549 0.1784,1.974214 0.12846,2.061333 0.27439,3.531122 0.4048,4.077038 0.0741,0.310115 0.17849,1.539732 0.23202,2.732482 0.1254,2.794081 0.36164,6.187937 0.47701,6.852897 0.20987,1.20953 0.48398,5.429873 0.48551,7.475153 8.7e-4,1.1869 -0.007,1.23843 -0.24134,1.48833 -0.22954,0.24527 -0.29164,0.26182 -1.18188,0.31502 -3.71299,0.22187 -6.22142,0.49866 -6.50451,0.71775 -0.29513,0.2284 -0.46096,0.68383 -0.61236,1.6818 -0.0823,0.54273 -0.20982,1.18197 -0.28329,1.42052 -0.19967,0.64825 -0.3258,1.54468 -0.48823,3.46982 -0.19186,2.27401 -0.29621,3.00937 -0.57275,4.03622 -0.23603,0.8764 -0.33476,1.51601 -0.58444,3.78601 -0.0796,0.72397 -0.24952,1.68034 -0.37752,2.12526 -0.3409,1.18494 -0.4208,1.66734 -0.58657,3.54143 -0.16704,1.88856 -0.26379,2.52024 -0.53142,3.46982 -0.22336,0.79251 -0.33422,1.55303 -0.53106,3.64331 -0.14223,1.51028 -0.29347,2.33694 -0.69037,3.77343 -0.18317,0.66295 -0.19019,1.61905 -0.0777,10.58295 0.0452,3.60165 0.0255,4.53853 -0.14611,6.93963 -0.21939,3.0698 -0.33597,4.09678 -0.54035,4.76022 -0.27543,0.89407 -0.43618,1.78221 -0.62211,3.43723 -0.13324,1.18604 -0.27505,1.96373 -0.47454,2.60236 -0.34703,1.11094 -0.43867,1.61925 -0.63342,3.5132 -0.13145,1.27837 -0.1381,2.052 -0.0499,5.81194 0.0559,2.3855 0.11239,6.60133 0.12548,9.36851 l 0.0238,5.03124 -0.2412,0.43373 c -0.27355,0.49189 -0.73457,0.77034 -1.50773,0.91067 -0.25856,0.0469 -1.46868,0.12447 -2.68915,0.17232 -2.37823,0.0932 -3.3115,0.21187 -4.80862,0.61118 -1.09077,0.29094 -1.9044,0.39551 -4.06755,0.52279 -2.01855,0.11878 -11.30675,0.17827 -12.52288,0.0802 z"
       style="fill:#000000;stroke-width:0.0914834" />
  </g>
</svg>
