<?xml version="1.0" encoding="UTF-8" standalone="no"?>
<svg
   xmlns:dc="http://purl.org/dc/elements/1.1/"
   xmlns:cc="http://creativecommons.org/ns#"
   xmlns:rdf="http://www.w3.org/1999/02/22-rdf-syntax-ns#"
   xmlns:svg="http://www.w3.org/2000/svg"
   xmlns="http://www.w3.org/2000/svg"
   xmlns:sodipodi="http://sodipodi.sourceforge.net/DTD/sodipodi-0.dtd"
   xmlns:inkscape="http://www.inkscape.org/namespaces/inkscape"
   version="1.1"
   id="svg380"
   width="639.27234"
   height="521.86279"
   viewBox="0 0 639.27234 521.86279"
   sodipodi:docname="нож.svg"
   inkscape:version="1.0 (4035a4fb49, 2020-05-01)">
  <metadata
     id="metadata386">
    <rdf:RDF>
      <cc:Work
         rdf:about="">
        <dc:format>image/svg+xml</dc:format>
        <dc:type
           rdf:resource="http://purl.org/dc/dcmitype/StillImage" />
        <dc:title></dc:title>
      </cc:Work>
    </rdf:RDF>
  </metadata>
  <defs
     id="defs384" />
  <sodipodi:namedview
     inkscape:document-rotation="0"
     pagecolor="#ffffff"
     bordercolor="#666666"
     borderopacity="1"
     objecttolerance="10"
     gridtolerance="10"
     guidetolerance="10"
     inkscape:pageopacity="0"
     inkscape:pageshadow="2"
     inkscape:window-width="1920"
     inkscape:window-height="1018"
     id="namedview382"
     showgrid="false"
     inkscape:zoom="0.81417625"
     inkscape:cx="-121.57684"
     inkscape:cy="272.83736"
     inkscape:window-x="-6"
     inkscape:window-y="-6"
     inkscape:window-maximized="1"
     inkscape:current-layer="g388" />
  <g
     transform="translate(-466.22883,15.967059)"
     inkscape:groupmode="layer"
     inkscape:label="Image"
     id="g388">
    <path
       id="path50"
       d="m 1093.0012,502.14072 c -52.6576,-20.16855 -93.95442,-49.46625 -116.41474,-82.5894 -11.08198,-16.34307 -31.30432,-51.74839 -54.97802,-96.25565 l -10.23243,-19.23728 -3.18742,1.3608 c -1.75308,0.74843 -9.43486,4.13808 -17.07062,7.53255 -15.75848,7.00542 -20.56857,8.28001 -39.88893,10.56988 -7.57467,0.89777 -16.21938,2.26972 -19.21046,3.0488 -3.87317,1.00883 -324.72404,151.21689 -338.5558,158.49671 -1.32598,0.69789 -3.36266,-9.21724 -14.75091,-71.81135 -7.26688,-39.94156 -12.8746,-72.93928 -12.46161,-73.32827 0.413,-0.38898 10.20091,-4.85977 21.75091,-9.93509 95.63728,-42.02504 178.09566,-84.69486 206.47511,-106.84487 16.60055,-12.95664 29.70552,-24.90245 34.95989,-31.8676 7.44481,-9.86877 15.05693,-25.40553 25.01092,-51.04865 10.70798,-27.58549 12.91016,-32.58255 18.59661,-42.198359 4.18587,-7.07833 5.98961,-9.52682 16.1138,-21.873752 2.28598,-2.787862 4.89932,-7.014325 5.80741,-9.392138 l 1.65108,-4.323297 -3.80741,-6.730312 c -2.30647,-4.077125 -4.59584,-6.894889 -5.80741,-7.147792 -1.1,-0.229613 -3.73778,-0.698229 -5.86173,-1.041367 -2.12395,-0.343139 -4.89083,-1.65299 -6.14862,-2.91078 -4.26218,-4.262182 -5.42715,-16.735859 -2.31688,-24.807516 1.37388,-3.565458 9.02869,-8.590882 26.32723,-17.2839677 7.7,-3.869504 16.7,-8.7020801 20,-10.7390582 6.28958,-3.8823441 16.2739,-7.7500201 20.00651,-7.7500201 3.03644,0 9.95934,5.225283 12.90744,9.7423062 1.34888,2.0667321 3.16175,6.68269408 4.0286,10.2576941 0.86684,3.575 3.66863,10.8411457 6.2262,16.1469917 l 4.65011,9.646992 17.59057,-5.998374 c 20.48812,-6.986437 21.56206,-7.021711 36.21899,-1.18963 9.09056,3.617188 9.88135,3.750845 26.37158,4.457217 19.10091,0.818202 25.5582,2.292986 31.01409,7.083321 2.99741,2.631759 3.48591,3.682341 3.48591,7.496912 0,7.902241 -7.99052,19.47858 -17.16189,24.863449 -7.68882,4.514405 -9.26343,7.175165 -9.68044,16.357944 -0.40322,8.878947 -0.42339,8.849507 8.25983,12.050807 6.11027,2.25271 9.71648,4.70702 20.20743,13.752719 6.79421,5.85825 8.37507,9.56291 8.37507,19.62659 0,6.78118 -2.20194,10.25634 -10.99379,17.35062 -3.55222,2.86635 -6.60224,5.64254 -6.77784,6.16932 -0.40412,1.21237 5.1519,3.18512 8.97051,3.18512 7.75818,0 14.77491,9.06042 14.79174,19.09996 0.008,4.63072 -0.50443,6.30926 -2.95924,9.69802 -1.63274,2.25394 -3.84252,4.56576 -4.91062,5.13739 -2.45151,1.31201 -6.12076,7.17257 -6.12076,9.77613 0,1.1466 2.13757,3.77785 5.09468,6.27132 2.80207,2.36275 6.40207,6.10071 8,8.30658 6.30885,8.70912 2.40466,20.67103 -10.8753,33.32043 l -7.53201,7.17438 9.30027,18.35789 c 5.11515,10.09685 33.76049,66.37961 63.65629,125.0728 29.8959,58.6932 54.3561,107.1807 54.3561,107.75 0,1.64369 -1.8575,1.21913 -12.5,-2.85712 z"
       style="fill:#000000" />
  </g>
</svg>
