<?xml version="1.0" encoding="UTF-8" standalone="no"?>
<svg
   xmlns:dc="http://purl.org/dc/elements/1.1/"
   xmlns:cc="http://creativecommons.org/ns#"
   xmlns:rdf="http://www.w3.org/1999/02/22-rdf-syntax-ns#"
   xmlns:svg="http://www.w3.org/2000/svg"
   xmlns="http://www.w3.org/2000/svg"
   xmlns:sodipodi="http://sodipodi.sourceforge.net/DTD/sodipodi-0.dtd"
   xmlns:inkscape="http://www.inkscape.org/namespaces/inkscape"
   version="1.1"
   id="svg332"
   width="1239.0979"
   height="1100.9919"
   viewBox="0 0 1239.0979 1100.9919"
   sodipodi:docname="ММА.svg"
   inkscape:version="1.0 (4035a4fb49, 2020-05-01)">
  <metadata
     id="metadata338">
    <rdf:RDF>
      <cc:Work
         rdf:about="">
        <dc:format>image/svg+xml</dc:format>
        <dc:type
           rdf:resource="http://purl.org/dc/dcmitype/StillImage" />
        <dc:title></dc:title>
      </cc:Work>
    </rdf:RDF>
  </metadata>
  <defs
     id="defs336" />
  <sodipodi:namedview
     inkscape:document-rotation="0"
     pagecolor="#ffffff"
     bordercolor="#666666"
     borderopacity="1"
     objecttolerance="10"
     gridtolerance="10"
     guidetolerance="10"
     inkscape:pageopacity="0"
     inkscape:pageshadow="2"
     inkscape:window-width="1920"
     inkscape:window-height="1018"
     id="namedview334"
     showgrid="false"
     inkscape:zoom="0.33468749"
     inkscape:cx="862.66393"
     inkscape:cy="548.68257"
     inkscape:window-x="-6"
     inkscape:window-y="-6"
     inkscape:window-maximized="1"
     inkscape:current-layer="g340" />
  <g
     transform="translate(-11.621105,-63.940241)"
     inkscape:groupmode="layer"
     inkscape:label="Image"
     id="g340">
    <path
       id="path24"
       d="m 173.62047,1162.5706 c -26.6507,-7.5527 -54.947,-28.6391 -63.9413,-47.6491 -5.4167,-11.4483 -9.4364,-31.7897 -9.4364,-47.7515 v -11.95 l -21.310101,-9.4955 c -28.131,-12.5347 -46.9265,-29.2937 -57.9496,-51.67061 -7.0764,-14.3652 -8.492,-20.2953 -9.2239,-38.6381 -1.4027,-35.1558 7.9105,-63.7163 26.6811,-81.8219 11.5535,-11.1443 43.9063,-28.38323 66.561601,-35.46689 26.7674,-8.36937 27.3335,-9.48472 28.8805,-56.89765 1.2518,-38.36559 1.7408,-41.45135 9.4309,-59.51131 7.508,-17.63193 7.9104,-19.99142 5.415,-31.74604 -7.6963,-36.25384 -5.3039,-89.10956 5.3184,-117.50006 4.8051,-12.84272 4.841,-13.99297 0.7948,-25.43579 -2.3308,-6.59162 -4.8452,-21.69907 -5.5875,-33.57209 -1.347,-21.54631 -1.3292,-21.62588 9.3785,-41.90476 9.8184,-18.59464 10.5969,-21.43495 9.1811,-33.49595 -0.8509,-7.24815 -2.6112,-15.97742 -3.9118,-19.39838 -3.3902,-8.91695 -27.3942,-22.02631 -40.3314,-22.02631 -8.9882,0 -12.6608,-2.00251 -28.093901,-15.31837 -18.87,-16.28127 -30.373,-32.44142 -37.0123,-51.99711 -13.0632,-38.47675 -2.6605,-83.78888 26.1558,-113.92961 16.735101,-17.50426 27.362901,-21.80582 54.042801,-21.87374 34.8399,-0.0887 52.5072,9.68927 65.0808,36.01893 4.1995,8.79383 8.4211,18.56022 9.3813,21.70307 0.9602,3.14286 2.7184,5.71429 3.9071,5.71429 1.1886,0 8.2544,-5.27939 15.7018,-11.73199 16.103,-13.95201 30.1529,-20.74044 49.414,-23.87527 7.801,-1.26965 15.8768,-3.71368 17.9463,-5.43118 2.0695,-1.7175 8.1515,-11.8517 13.5156,-22.52043 11.282,-22.43868 22.5083,-33.38716 40.8208,-39.81052 9.8954,-3.47097 14.9365,-7.23657 21.0037,-15.68941 10.3872,-14.47158 42.6689,-42.201399 58.5959,-50.333619 27.8607,-14.22551 63.5882,-23.62346 89.8076,-23.62346 22.8039,0 25.1189,1.24419 35.4406,19.04762 9.752,16.82093 13.3455,32.190249 13.3455,57.079569 0,16.77948 -1.4074,24.19388 -7.6791,40.45702 -6.6051,17.1276 -7.2697,20.93436 -4.7519,27.21966 1.6099,4.01899 3.0655,16.6481 3.2346,28.0647 0.2585,17.4537 -0.5451,21.90007 -5.0493,27.93652 -5.2019,6.97148 -5.9729,7.16403 -26.6667,6.65981 -26.398,-0.64323 -37.6909,-2.71193 -43.9124,-8.04409 -4.6179,-3.95784 -4.7503,-3.80854 -3.0884,3.48396 0.9549,4.19048 5.1358,14.47619 9.2909,22.85714 10.0523,20.27607 19.5838,50.47696 25.2484,80 9.1374,47.62312 20.1477,88.18401 28.4666,104.86843 4.9177,9.86303 27.2779,42.76035 38.3359,56.40142 11.915,14.69841 15.451,24.51251 15.5555,43.1746 0.076,13.62009 -1.2225,20.27843 -5.5534,28.47025 -4.4819,8.47739 -5.653,14.90101 -5.653,31.00737 0,11.1732 -1.0901,28.64731 -2.4225,38.83134 -1.3324,10.18405 -3.6435,29.37359 -5.1358,42.64343 -1.4922,13.26984 -3.8274,32.69841 -5.1891,43.1746 -1.3618,10.47619 -3.1297,26.65003 -3.9287,35.9419 -1.2412,14.43507 -3.0907,19.38821 -12.7057,34.02735 -6.1892,9.42319 -11.2531,18.11647 -11.2531,19.31837 0,1.20193 6.5714,1.3182 14.6032,0.25839 8.0317,-1.05983 23.5695,-1.91685 34.5283,-1.90451 18.1531,0.0203 20.3819,0.58509 25.0616,6.34921 4.5586,5.61486 4.8985,8.18423 3.0203,22.83469 -2.7681,21.5916 -2.7974,89.4213 -0.05,116.8254 2.5137,25.07771 -0.8643,43.18091 -8.0544,43.16511 -8.2657,-0.018 -19.6196,-9.4976 -28.4736,-23.7731 -13.2702,-21.39601 -40.418,-57.48721 -43.2417,-57.48721 -1.4361,0 -2.4725,10.4803 -2.4725,25.003 0,24.73261 -0.1062,25.16541 -9.7985,40.00011 -5.3891,8.2483 -16.9708,22.9969 -25.737,32.7747 -8.7663,9.7778 -20.4911,23.492 -26.0553,30.4762 -11.1806,14.0338 -30.9514,35.5538 -39.2391,42.7106 -6.4744,5.591 -61.4659,20.3908 -100.5489,27.0608 -27.1461,4.6328 -90.0549,10.9705 -136.399,13.7414 -13.8941,0.8308 -25.7575,0.109 -33.289,-2.0254 z m 83.9345,-208.77841 c 13.7771,-6.8729 49.6837,-15.7423 71.3994,-17.6366 27.8253,-2.4272 22.5694,-6.971 -8.3045,-7.1793 -16.2597,-0.1097 -27.6073,1.2284 -36.5468,4.3096 -14.8801,5.1288 -36.5587,18.1904 -36.5587,22.027 0,3.3731 0.2887,3.3293 10.0106,-1.5207 z m -22.709,-50.5857 c 0,-7.4608 21.597,-58.61231 46.5813,-110.32543 12.6552,-26.19416 34.7089,-49.4657 62.0235,-65.44874 27.9172,-16.33557 43.6758,-14.7171 92.0301,9.45181 36.6622,18.32488 38.6239,23.40193 15.873,41.08059 -16.1233,12.52861 -39.4384,38.18712 -49.8079,54.81397 -7.6178,12.2148 -7.934,13.40924 -3.5254,13.31829 1.746,-0.0361 7.1413,-5.91057 11.9895,-13.05455 12.8167,-18.88581 43.8898,-48.99987 57.2177,-55.45181 13.2868,-6.43202 16.4597,-11.12482 16.6286,-24.59451 0.157,-12.50179 13.6018,-56.67922 29.9853,-98.52562 l 12.9051,-32.9618 -6.743,-7.0382 c -3.7087,-3.87098 -7.6478,-7.03817 -8.7536,-7.03817 -1.1058,0 -9.7492,5.61341 -19.2074,12.47426 -33.1608,24.05425 -52.9334,31.00676 -98.4667,34.62311 -28.0744,2.22974 -32.0908,0.23035 -39.3099,-19.56879 -7.5631,-20.74255 -15.6518,-33.38395 -30.534,-47.71985 -13.4864,-12.99144 -41.9237,-28.69762 -51.9593,-28.69762 -13.343,0 -15.6732,5.39487 -17.5695,40.67644 -2.1621,40.22868 -6.1794,57.44237 -19.25,82.48511 -6.9107,13.24056 -10.2662,22.92772 -10.2662,29.63817 0,11.20391 -13.3682,59.66306 -27.0332,97.99394 -17.9947,50.4759 -17.9408,51.4015 3.9954,68.6356 8.2732,6.4998 18.1257,16.2672 21.8943,21.7053 6.6177,9.5495 11.3023,11.0119 11.3023,3.5285 z m 246.4202,-654.95237 c -4.166,-10.95749 -3.1258,-18.13067 5.1774,-35.70459 4.2835,-9.066 7.0618,-17.65893 6.174,-19.09542 -0.8878,-1.43648 -6.7173,3.40668 -12.9546,10.76258 -12.8473,15.15148 -13.3305,21.10125 -3.3824,41.65125 5.8765,12.13925 9.3204,13.78756 4.9856,2.38618 z m 704.07163,831.62248 c -4.5311,-1.0752 -10.0432,-3.4529 -12.2491,-5.2837 -6.6569,-5.5247 -12.99,-20.6507 -14.6002,-34.8708 -2.1089,-18.6244 -12.3193,-36.0106 -35.6236,-60.65941 -25.1005,-26.5486 -40.3878,-37.7958 -57.7891,-42.5169 -20.8316,-5.6518 -26.5612,-7.6138 -58.1837,-19.9234 -50.41463,-19.6249 -83.63393,-38.346 -118.58083,-66.82758 -7.1529,-5.82958 -11.5468,-6.89595 -36.8254,-8.93724 -53.1704,-4.29361 -82.2574,-11.06184 -116.3225,-27.06692 -15.8617,-7.45252 -24.1657,-13.98926 -49.6481,-39.08239 -18.7556,-18.46913 -32.5891,-30.13308 -35.738,-30.13308 -10.0077,0 -29.241,-8.28213 -37.6495,-16.21239 -9.9485,-9.38258 -15.1995,-25.67165 -13.4058,-41.58538 1.5183,-13.47014 19.6514,-41.47385 40.3242,-62.27434 22.5806,-22.71994 61.4718,-37.97343 85.7369,-33.62674 25.9362,4.64605 108.087,77.8417 146.2885,130.34174 l 10.8734,14.94329 26.2918,1.66647 c 50.8674,3.22417 100.72263,21.39883 129.59003,47.24183 15.7827,14.12911 41.7427,44.47964 56.3036,65.82588 5.1106,7.49206 16.4337,19.04775 25.1625,25.67925 8.7288,6.6316 23.8705,19.3788 33.6483,28.3272 9.7778,8.9484 29.7664,26.5356 44.4191,39.0826 32.713,28.0119 33.4492,28.8475 44.4541,50.4556 7.3359,14.40401 8.9046,20.25201 8.9046,33.19541 0,20.8566 -9.8764,41.3661 -22.8572,47.4656 -10.8675,5.1065 -31.4087,7.4133 -42.524,4.7754 z"
       style="fill:#000000;stroke-width:2.53968" />
  </g>
</svg>
