<?xml version="1.0" encoding="UTF-8" standalone="no"?>
<svg
   xmlns:dc="http://purl.org/dc/elements/1.1/"
   xmlns:cc="http://creativecommons.org/ns#"
   xmlns:rdf="http://www.w3.org/1999/02/22-rdf-syntax-ns#"
   xmlns:svg="http://www.w3.org/2000/svg"
   xmlns="http://www.w3.org/2000/svg"
   xmlns:sodipodi="http://sodipodi.sourceforge.net/DTD/sodipodi-0.dtd"
   xmlns:inkscape="http://www.inkscape.org/namespaces/inkscape"
   version="1.1"
   id="svg344"
   width="1016.0862"
   height="1920.127"
   viewBox="0 0 1016.0862 1920.127"
   sodipodi:docname="муай-тай.svg"
   inkscape:version="1.0 (4035a4fb49, 2020-05-01)">
  <metadata
     id="metadata350">
    <rdf:RDF>
      <cc:Work
         rdf:about="">
        <dc:format>image/svg+xml</dc:format>
        <dc:type
           rdf:resource="http://purl.org/dc/dcmitype/StillImage" />
        <dc:title></dc:title>
      </cc:Work>
    </rdf:RDF>
  </metadata>
  <defs
     id="defs348" />
  <sodipodi:namedview
     inkscape:document-rotation="0"
     pagecolor="#ffffff"
     bordercolor="#666666"
     borderopacity="1"
     objecttolerance="10"
     gridtolerance="10"
     guidetolerance="10"
     inkscape:pageopacity="0"
     inkscape:pageshadow="2"
     inkscape:window-width="1920"
     inkscape:window-height="1018"
     id="namedview346"
     showgrid="false"
     inkscape:zoom="0.44270833"
     inkscape:cx="-307.59261"
     inkscape:cy="964.68901"
     inkscape:window-x="-6"
     inkscape:window-y="-6"
     inkscape:window-maximized="1"
     inkscape:current-layer="g352" />
  <g
     transform="translate(-816.09261,4.6890113)"
     inkscape:groupmode="layer"
     inkscape:label="Image"
     id="g352">
    <path
       id="path38"
       d="m 1730.11,1906.0291 c -13.654,-5.1502 -25.0959,-9.6345 -25.4265,-9.9651 -0.3306,-0.3306 4.2212,-39.4092 10.1151,-86.8414 5.8939,-47.4321 10.6983,-87.6652 10.6765,-89.4069 -0.022,-1.7418 -3.4299,-18.7028 -7.5733,-37.6913 l -7.5335,-34.5245 -48.7165,-75.4234 -48.7165,-75.4233 -37.3593,-38.8854 -37.3592,-38.8854 -25.0956,-34.5 c -13.8026,-18.975 -30.4696,-41.201 -37.0379,-49.3912 -6.5682,-8.1902 -12.5046,-16.0652 -13.1921,-17.5 -0.6874,-1.4348 -6.0389,-23.8548 -11.8921,-49.8222 l -10.6423,-47.2134 -57.9243,-89.2941 -57.9242,-89.2941 -20.4864,-8.7425 c -11.2676,-4.8084 -20.8628,-8.7425 -21.3228,-8.7425 -0.46,0 -3.295,5.0362 -6.3001,11.1916 -4.3091,8.8267 -8.3165,14.7994 -18.9637,28.2641 -7.425,9.3899 -16.7625,21.6501 -20.75,27.2449 l -7.25,10.1725 v 29.8268 29.8268 l -3.5468,5.2667 c -2.2444,3.3327 -3.9887,5.0059 -4.75,4.5564 -0.6618,-0.3907 -5.7032,-3.7018 -11.2032,-7.3581 -5.5,-3.6563 -16.5893,-10.5808 -24.6429,-15.3879 l -14.6428,-8.7401 -6.5729,-9.8721 c -3.6151,-5.4297 -11.4786,-19.6865 -17.4744,-31.6819 l -10.9014,-21.8097 -9.3223,-36 -9.3223,-36 -23.475,-29.73458 -23.475,-29.73452 -24.8769,-17.07307 -24.8769,-17.07307 -31.56961,-9.48544 -31.5696,-9.48545 -15.63899,-14.09245 -15.639,-14.09245 -8,-22.11451 -8,-22.11451 -25.2015,-12.74174 -25.20151,-12.74175 -17.37365,-20.49367 -17.37366,-20.49367 -4.74132,-17.59816 c -4.06442,-15.08573 -4.55338,-17.86608 -3.42484,-19.47485 0.72406,-1.03218 7.84148,-10.39497 15.81648,-20.80621 11.71342,-15.29168 15.55698,-19.59649 20,-22.40009 3.025,-1.90882 11.03403,-6.98114 17.79784,-11.27183 l 12.29784,-7.80125 14.73584,2.66161 c 8.10472,1.46389 15.28154,2.66161 15.94849,2.66161 0.66696,0 -2.71676,-7.87405 -7.51936,-17.49788 l -8.73201,-17.49788 12.92247,-25.90622 12.92246,-25.90623 26.83666,-12.5884 26.83665,-12.58841 22.72656,-1.50395 c 12.49966,-0.82718 32.64966,-1.50555 44.77796,-1.50749 20.441,-0.003 22.666,0.17517 30.4693,2.4438 4.6299,1.34604 8.5982,2.26714 8.8184,2.04689 0.2203,-0.22026 -4.1588,-10.20906 -9.7313,-22.19735 l -10.1319,-21.79688 0.012,-11.51172 0.012,-11.51172 15.75,-15.57507 c 8.6625,-8.56628 26.4396,-25.58246 39.5045,-37.81372 l 23.7545,-22.23866 19.2349,-6.43065 19.235,-6.43066 27.027,7.92412 27.0271,7.92411 30.4835,17.66532 c 16.7659,9.71593 36.1085,21.17918 42.9835,25.47389 6.875,4.29472 21.5386,11.94996 32.5856,17.01166 l 20.0857,9.20308 7.6643,9.00068 c 8.7135,10.23267 8.5269,10.38765 6.5824,-5.46756 l -1.0765,-8.77691 4.7063,-8.02764 c 3.7663,-6.4243 6.636,-9.68905 14.3679,-16.34596 l 9.6617,-8.31832 12.326,-32.37714 c 9.0478,-23.76594 14.0638,-35.43573 18.8597,-43.87713 l 6.5336,-11.5 23.2803,-18.5 23.2803,-18.5 -0.5893,-4 c -1.3299,-9.0265 -1.6832,-9.33416 -3.9288,-3.42144 l -2.059,5.42144 -16.9327,0.27272 c -15.8041,0.25455 -17.8262,0.0699 -30.3354,-2.77 l -13.4027,-3.04274 -4.589,4.52001 c -2.5239,2.48601 -4.961,4.52001 -5.4158,4.52001 -0.4547,0 -4.6609,-2.31594 -9.3471,-5.14653 l -8.5203,-5.14653 2.3814,-1.81378 c 1.3098,-0.99757 7.5565,-4.57297 13.8815,-7.94534 11.5819,-6.17523 17.4246,-10.63962 18.2986,-13.98181 0.8603,-3.28951 -2.9655,-7.76907 -9.4162,-11.02537 -5.1633,-2.60643 -6.8911,-3.01646 -10.4575,-2.48164 -7.4812,1.12186 -13.6552,6.48255 -22.82,19.81382 -2.1423,3.11622 -4.2161,5.46744 -4.6085,5.22493 -0.3924,-0.24251 -0.9651,-3.21572 -1.2726,-6.60714 -0.5346,-5.89519 -0.8141,-6.42388 -6.3602,-12.02841 l -5.801,-5.8622 h -8.2813 c -9.727,0 -9.0523,1.66828 -6.7724,-16.74738 l 1.5088,-12.18766 -3.0088,-13.52513 c -1.6549,-7.43882 -3.0089,-13.72318 -3.0089,-13.96526 0,-0.24207 -3.3236,-4.25206 -7.3858,-8.91108 -6.389,-7.32766 -7.7567,-9.59743 -10.1337,-16.81722 -1.5582,-4.73293 -4.5638,-10.94385 -6.9424,-14.34627 -3.8762,-5.54464 -4.4044,-7.11527 -6.9592,-20.69515 -1.5206,-8.08233 -2.4714,-15.16983 -2.1128,-15.75 0.4171,-0.67493 -0.8394,-1.05485 -3.4888,-1.05485 -3.2665,0 -5.0594,-0.75278 -8.4919,-3.56552 -4.0845,-3.34692 -4.5826,-3.50164 -8.1248,-2.5236 -3.4983,0.96592 -4.1954,0.7701 -9.5576,-2.68448 -3.1812,-2.04952 -5.6758,-4.00968 -5.5435,-4.35592 0.9137,-2.39155 91.6506,-103.166654 99.2599,-110.241111 l 9.5414,-8.8706348 25.9288,-3.96504769 25.9289,-3.96504781 35.7907,18.4929303 35.7908,18.492929 29.6692,37.984435 c 29.2126,37.399827 29.7495,38.171617 34.889,50.146397 3.5257,8.21472 5.642,11.99996 6.5206,11.6628 0.7155,-0.27454 28.719,-17.17529 62.2301,-37.557223 l 60.9293,-37.058057 18.086,-16.496424 c 9.9473,-9.073032 18.6346,-16.496423 19.3052,-16.496423 0.6705,0 6.2062,2.741019 12.3015,6.091152 l 11.0824,6.091153 4.9934,18.419266 4.9933,18.419266 6.2556,7.239582 6.2556,7.239581 -0.6082,7.091484 c -0.4057,4.729236 -0.025,10.647723 1.1437,17.767353 0.9636,5.87172 1.5039,10.92394 1.2007,11.22715 -1.0107,1.0106 -30.0947,-3.65714 -41.1908,-6.61077 l -10.9434,-2.91298 -7.4419,2.16233 c -6.9291,2.01334 -7.7323,2.05792 -11.6563,0.64685 l -4.2144,-1.51548 2.3296,9.07203 c 2.7607,10.75037 2.7439,10.57203 0.9945,10.57203 -0.9028,0 -2.4486,-3.90082 -4.5,-11.35569 -1.7186,-6.24563 -3.1247,-11.87063 -3.1247,-12.5 0,-2.60182 -2.1181,-0.51792 -11.9936,11.79995 -14.8398,18.50975 -15.1717,17.6058 -3.9781,-10.83422 4.4138,-11.21448 7.9006,-20.48254 7.7484,-20.595694 -0.1522,-0.113153 -25.4463,16.374824 -56.2092,36.639954 -60.0726,39.57306 -56.5954,37.73045 -67.7533,35.90279 -3.6295,-0.59451 -6.9772,-0.57474 -9.2568,0.0547 -3.9294,1.08498 -3.9624,1.47206 -0.8806,10.33302 1.5997,4.59955 36.2427,60.62357 37.7834,61.10263 0.5719,0.17782 10.7148,0.64552 22.5398,1.03934 l 21.5,0.71603 17,18.40065 c 9.35,10.12036 18.1912,19.84014 19.6472,21.59951 2.3814,2.87776 3.4213,7.31435 10.3593,44.19797 l 7.7122,40.9991 -1.1592,44 c -0.6375,24.2 -1.5823,53.675 -2.0995,65.5 l -0.9403,21.5 -9.0537,34 c -4.9795,18.7 -13.0312,51.63816 -17.8926,73.19592 l -8.8391,39.19592 -31.0944,63.80408 -31.0944,63.80404 -5.6029,23.5 c -3.0815,12.925 -9.7958,42.57425 -14.9205,65.88723 l -9.3176,42.38723 16.3431,152.61279 c 8.9887,83.9371 18.4497,170.6128 21.0243,192.6128 l 4.6812,40 9.4179,27.3767 9.418,27.3768 11.151,14.4695 c 9.3342,12.1121 16.3795,19.5136 43.2418,45.4282 l 32.0907,30.9587 23.6421,54.1951 23.6421,54.195 6.6409,25.5 c 6.5622,25.1973 20.9584,74.9088 22.6456,78.1974 0.479,0.9336 5.3607,4.2396 10.8483,7.3467 l 9.9774,5.6493 5.8953,11.1533 5.8954,11.1533 0.5704,17 c 0.335,9.982 0.1155,20.9218 -0.5315,26.5 -0.9652,8.3217 -0.8296,11.3882 1.0935,24.7232 l 2.1953,15.2232 -3.1082,17.2768 c -1.7096,9.5022 -3.1397,18.4018 -3.178,19.7768 -0.038,1.375 1.5904,10.0406 3.6194,19.2569 2.0289,9.2164 3.5152,17.0914 3.3028,17.5 -0.2124,0.4087 -9.302,15.4255 -20.1991,33.3707 l -19.8129,32.6277 -17.886,7.1223 c -9.8372,3.9173 -18.2098,7.1023 -18.6056,7.0778 -0.3958,-0.025 -11.8911,-4.2585 -25.545,-9.4087 z m -506.6747,-1176.46281 22.5,-3.904 31.8008,-12.83997 31.8008,-12.83997 14.4857,-28.27275 14.4857,-28.27275 -9.2865,0.61142 c -5.1076,0.33627 -36.7365,2.07392 -70.2865,3.86144 l -61,3.25002 -7.4113,3.75511 -7.4113,3.7551 -9.935,-3.68523 c -5.4643,-2.02688 -10.6792,-3.47335 -11.5887,-3.21438 -0.9096,0.25896 -21.2287,8.43715 -45.1537,18.17375 -23.925,9.73659 -44.625,18.15819 -46,18.71465 -2.2848,0.92465 -0.7781,1.88059 17.5,11.10356 l 20,10.09182 44,11.72703 c 24.2,6.44987 45.125,11.76351 46.5,11.80809 1.375,0.0446 12.625,-1.67575 25,-3.82294 z"
       style="fill:#000000" />
  </g>
</svg>
