<?xml version="1.0" encoding="UTF-8" standalone="no"?>
<svg
   xmlns:dc="http://purl.org/dc/elements/1.1/"
   xmlns:cc="http://creativecommons.org/ns#"
   xmlns:rdf="http://www.w3.org/1999/02/22-rdf-syntax-ns#"
   xmlns:svg="http://www.w3.org/2000/svg"
   xmlns="http://www.w3.org/2000/svg"
   xmlns:sodipodi="http://sodipodi.sourceforge.net/DTD/sodipodi-0.dtd"
   xmlns:inkscape="http://www.inkscape.org/namespaces/inkscape"
   version="1.1"
   id="svg356"
   width="883.96344"
   height="1306.3"
   viewBox="0 0 883.96344 1306.3"
   sodipodi:docname="ниньзя.svg"
   inkscape:version="1.0 (4035a4fb49, 2020-05-01)">
  <metadata
     id="metadata362">
    <rdf:RDF>
      <cc:Work
         rdf:about="">
        <dc:format>image/svg+xml</dc:format>
        <dc:type
           rdf:resource="http://purl.org/dc/dcmitype/StillImage" />
        <dc:title></dc:title>
      </cc:Work>
    </rdf:RDF>
  </metadata>
  <defs
     id="defs360" />
  <sodipodi:namedview
     inkscape:document-rotation="0"
     pagecolor="#ffffff"
     bordercolor="#666666"
     borderopacity="1"
     objecttolerance="10"
     gridtolerance="10"
     guidetolerance="10"
     inkscape:pageopacity="0"
     inkscape:pageshadow="2"
     inkscape:window-width="1920"
     inkscape:window-height="1018"
     id="namedview358"
     showgrid="false"
     inkscape:zoom="0.65051016"
     inkscape:cx="433.44313"
     inkscape:cy="710.2118"
     inkscape:window-x="-6"
     inkscape:window-y="-6"
     inkscape:window-maximized="1"
     inkscape:current-layer="g364" />
  <g
     transform="translate(-9.2235279,56.878435)"
     inkscape:groupmode="layer"
     inkscape:label="Image"
     id="g364">
    <path
       id="path36"
       d="m 312.55686,1248.0043 c -15.35722,-3.9637 -26,-13.7324 -26,-23.8647 0,-11.4347 8.82642,-43.258 17.84834,-64.3514 3.99623,-9.3433 4.20187,-13.59 1.0933,-22.577 l -2.27498,-6.5769 -9.13833,-1.8251 c -12.39427,-2.4754 -24.18991,-7.336 -53.94097,-22.2272 -36.5757,-18.3071 -38.41086,-18.9696 -74.25403,-26.8048 -13.64418,-2.9826 -22.07366,-7.2632 -29.70216,-15.0829 -15.49483,-15.8834 -33.74925,-52.3339 -36.972262,-73.82636 -0.82919,-5.5295 -0.65503,-5.9879 2.896092,-7.6229 2.07809,-0.9569 7.22833,-2.05938 11.445,-2.45008 l 7.66667,-0.7104 v -6.9853 c 0,-3.842 0.91401,-9.1729 2.03114,-11.8465 2.73856,-6.5543 10.8496,-14.1722 19.30775,-18.13379 l 6.9586,-3.25922 8.92977,-18.70242 c 4.91138,-10.28632 11.22163,-22.28473 14.02279,-26.66312 6.91635,-10.81069 19.78397,-23.94633 29.07622,-29.68183 4.22055,-2.60508 7.66612,-4.80121 7.65683,-4.88032 -0.009,-0.0791 -1.80928,-3.67836 -4,-7.99837 -3.32665,-6.56007 -3.97828,-9.41675 -3.95383,-17.33333 0.02,-6.47519 0.84728,-11.28095 2.61074,-15.16611 5.58361,-12.30157 24.11352,-27.42496 43.35998,-35.38874 9.88131,-4.08866 25.999,-8.92393 29.74668,-8.92393 1.53588,0 6.6811,-3.45 11.43379,-7.66667 4.75269,-4.21666 15.88068,-12.16666 24.72884,-17.66666 8.84816,-5.5 16.08826,-10.32192 16.08913,-10.71538 8.5e-4,-0.39345 -4.49462,-3.6099 -9.98997,-7.14768 -5.49535,-3.53776 -11.71989,-8.40078 -13.83233,-10.80672 -8.30832,-9.46265 -8.73168,-26.66029 -1.5262,-61.99689 3.45289,-16.93343 4.13609,-23.09155 3.7821,-34.09046 -0.42525,-13.21274 -0.5432,-13.64349 -7.50277,-27.39856 -6.46453,-12.7767 -7.28819,-15.4552 -9.60739,-31.24288 -3.11905,-21.23257 -5.71205,-32.60058 -10.61329,-46.52984 -7.47884,-21.25475 -5.75588,-19.41216 -23.58885,-25.22676 -35.34818,-11.5256 -69.91883,-26.78865 -92.75241,-40.95049 -13.28543,-8.23988 -23.81589,-16.31639 -39.03399,-29.93776 -6.6,-5.90751 -25.200002,-22.08978 -41.333332,-35.96058 -16.13333,-13.87081 -37.332,-33.21517 -47.10815,-42.98747 -15.3346,-15.32856 -18.40063,-19.1223 -22.33333,-27.63412 -4.1045001,-8.88366 -4.5585201,-11.04372 -4.5585201,-21.68792 0,-6.76908 1.1126201,-16.91301 2.6032501,-23.73424 1.43179,-6.55196 3.91804,-23.92156 5.525,-38.59912 2.17055,-19.82512 3.45222,-27.115 4.98493,-28.35315 1.22228,-0.98737 5.96909,-1.66666 11.64657,-1.66666 9.37914,0 9.61851,-0.0848 11.23097,-3.97759 2.4628,-5.94575 14.32088,-22.69267 23.03808,-32.53621 15.211,-17.17643 41.748182,-37.21714 82.304532,-62.15589 9.9,-6.08765 25.35,-15.84556 34.33333,-21.68421 l 16.33333,-10.615735 v -5.70807 c 0,-14.0508 8.35178,-29.868655 19.3641,-36.67464 l 4.65149,-2.874786 -7.51125,-9.553103 C 198.74302,-6.8043261 180.65639,-32.108542 168.72834,-51.211768 l -3.53827,-5.666667 11.01674,0.06913 11.01672,0.06913 9.33333,12.019472 c 5.13333,6.61071 15.82804,21.129602 23.76602,32.264203 25.65003,35.979285 23.59756,33.775769 32.48692,34.877798 4.26088,0.528228 9.56894,1.717736 11.7957,2.643351 5.32726,2.214437 12.15928,9.583543 17.30934,18.670094 2.91466,5.14249 4.57887,6.91663 5.56398,5.93153 1.9289,-1.9289 11.29026,0.67317 14.27088,3.96672 3.64406,4.02664 7.4776,15.63661 7.43029,22.50288 -0.0379,5.494205 -2.11752,13.215075 -5.98437,22.217165 -0.92706,2.158192 -0.6951,2.407322 1.46309,1.57143 7.84925,-3.04009 16.91249,-4.60472 19.96052,-3.44585 6.69112,2.54396 4.19229,6.876642 -12.07025,20.928492 l -4.95978,4.28555 3.81716,5.07938 c 2.09944,2.79366 12.89547,17.1047 23.99116,31.80231 20.97723,27.78688 46.05897,63.09884 59.826,84.22754 5.89567,9.04826 8.74183,12.28334 10.82019,12.29876 3.98692,0.0296 9.01162,4.36206 13.04904,11.25138 3.95825,6.75426 9.30933,11.43621 13.07064,11.43621 2.29408,0 1.97836,-1.09036 -2.84647,-9.83082 -7.29493,-13.21516 -7.31111,-18.43712 -0.0933,-30.16919 3.1648,-5.14425 5.33214,-10.32257 5.33258,-12.74092 4.8e-4,-2.62745 -3.04198,-9.18929 -8.56774,-18.47844 -4.71267,-7.92229 -9.29422,-17.42936 -10.18122,-21.1268 -2.65553,-11.0695 -0.84514,-31.00637 4.56942,-50.32051 2.56981,-9.16666 5.61854,-23.26666 6.775,-31.33333 2.73492,-19.077152 7.30985,-28.691517 19.31376,-40.588457 10.36054,-10.26821 22.43044,-17.68179 35.42484,-21.758687 12.6107,-3.956486 38.9696,-3.891798 54.1809,0.132973 40.9154,10.825844 65.4484,42.800399 71.7488,93.512541 1.7231,13.86948 1.7491,41.58128 0.061,64.67129 l -1.2653,17.30299 -6.6958,6.15577 c -8.9774,8.2533 -8.87,10.57159 0.4898,10.57159 5.0055,0 8.1101,0.74859 10.2327,2.46737 l 3.0471,2.46738 -3.0347,4.26173 c -5.2488,7.37135 -5.0855,12.97704 0.747,25.63136 4.076,8.84359 5.1408,12.73219 5.1088,18.65694 l -0.04,7.48478 9.856,2.89968 c 14.017,4.12387 27.8694,11.01975 44.1268,21.96679 l 14.1044,9.4973 6.6667,-2.27497 c 12.936,-4.41438 40.1321,-2.22823 68.3333,5.49294 l 5.6667,1.55148 0.013,6.9486 c 0.02,10.61831 4.6515,18.92188 19.024,34.10603 16.5332,17.46697 17.6227,19.79923 17.656,37.79582 l 0.026,14.28654 4.614,5.04679 c 2.5377,2.77572 10.7221,11.34677 18.1877,19.04677 16.8498,17.37888 23.78,27.28558 27.3809,39.14074 2.3947,7.88396 2.6746,11.175 1.9308,22.70646 -1.3804,21.40241 2.0515,34.45762 18.7921,71.48614 5.1389,11.36667 10.5817,24.02207 12.0952,28.12311 3.6841,9.98356 6.9462,26.20897 6.9462,34.55101 0,8.32393 -3.3295,11.99125 -14.1659,15.60339 l -7.2655,2.42184 -0.3313,12.65033 c -0.2884,11.01714 -0.9027,13.94134 -4.7576,22.65032 -11.21,25.32506 -12.0389,27.73847 -13.4634,39.202 -1.5301,12.3135 -4.3604,19.62072 -9.346,24.12971 -1.6207,1.46577 -4.4589,5.24536 -6.307,8.39907 -3.0402,5.1877 -3.4484,7.66501 -4.2842,26.00161 -1.0034,22.01555 -1.5662,23.94227 -9.425,32.26762 -2.769,2.93333 -5.4075,6.58293 -5.8633,8.11021 -0.6278,2.10321 2.8386,8.08741 14.2885,24.66667 8.3146,12.03938 16.4305,24.07252 18.0354,26.74029 l 2.918,4.85052 -6.6866,4.29076 c -3.6776,2.35993 -7.5124,3.97391 -8.5216,3.58661 -1.0093,-0.3873 -6.5274,-7.20088 -12.2624,-15.14129 -33.7771,-46.76576 -42.6061,-57.35427 -59.6142,-71.49449 -5.6993,-4.73828 -13.0441,-10.03772 -16.3218,-11.77655 l -5.9594,-3.16149 v -7.73908 c 0,-4.2565 -0.9784,-12.05753 -2.1741,-17.33562 -4.1396,-18.27281 -10.6369,-29.64173 -31.7734,-55.59655 -7.465,-9.16666 -15.7806,-19.884 -18.4793,-23.81628 l -4.9066,-7.14961 0.023,17.14961 c 0.022,16.18068 1.6307,37.74847 3.4581,46.35895 l 0.8227,3.87601 -10.546,-0.81325 c -5.8003,-0.44728 -11.5687,-1.20568 -12.8186,-1.68532 -3.963,-1.52075 -2.6075,2.89811 3.7274,12.15121 6.3516,9.27746 7.2269,12.58391 4.0331,15.23455 -1.0818,0.89781 -5.2487,6.61539 -9.2597,12.70571 -4.011,6.09033 -7.9357,11.47068 -8.7215,11.95635 -2.8266,1.74696 0.2253,3.36556 6.3601,3.37313 3.4401,0.004 9.7916,0.58693 14.1144,1.29487 26.8731,4.4008 39.4778,14.25349 41.6268,32.53834 1.0348,8.8047 2.2506,9.99812 22.3386,21.92812 5.7704,3.42703 13.1204,8.67288 16.3333,11.65747 5.5082,5.11684 5.8427,5.83969 5.8614,12.66667 l 0.02,7.24014 24.8466,26.00001 c 41.7193,43.65597 53.4046,57.36187 70.6042,82.81221 11.7025,17.3163 25.5653,45.047 31.1482,62.308 3.8692,11.9626 4.0263,13.3817 3.987,36 l -0.041,23.5464 -5.1526,12.3744 c -2.8339,6.8059 -8.4797,17.9498 -12.5462,24.7641 -6.0251,10.0965 -9.5695,14.2507 -19.1499,22.4443 -12.2069,10.44 -26.1638,20.6084 -33.0694,24.0929 -13.4684,6.796 -30.2265,9.6348 -44.9652,7.6168 -17.6198,-2.4125 -30.7262,-8.0998 -61.8589,-26.8427 -15.7273,-9.4683 -30.1707,-17.8142 -32.0966,-18.5464 -1.9259,-0.7322 -5.4492,-3.0413 -7.8295,-5.1313 -2.701,-2.3714 -9.9022,-5.6574 -19.1561,-8.7409 -11.4308,-3.8089 -15.966,-6.0414 -19.7943,-9.7439 -2.7313,-2.6416 -5.8348,-4.6333 -6.8967,-4.426 -1.0619,0.2073 -4.5963,2.7233 -7.8544,5.5911 -7.0034,6.1647 -11.1435,6.6062 -17.5594,1.8727 -7.759,-5.7244 -9.9024,-10.5403 -10.6518,-23.9337 l -0.6703,-11.981 -22.453,-14.3766 c -12.3491,-7.9071 -23.0767,-13.9911 -23.839,-13.52 -2.4799,1.5326 -10.1705,19.7445 -17.6984,41.9109 -7.1671,21.1038 -7.3441,21.9762 -6.5037,32.0525 0.8603,10.3167 0.847,10.3751 -3.3393,14.5614 l -4.2031,4.2031 -13.9427,-0.4542 -13.9426,-0.4542 -7.8658,-7.7867 c -7.1203,-7.0488 -8.2076,-8.9011 -11.4728,-19.5456 -3.92192,-12.7852 -4.67463,-26.3916 -2.0964,-37.8962 0.7738,-3.453 1.1141,-6.7522 0.7562,-7.3314 -0.358,-0.5792 -5.21951,-2.7193 -10.80338,-4.7559 -18.01929,-6.572 -29.86267,-16.4455 -34.01522,-28.3575 -0.82896,-2.3779 -1.9138,-4.0722 -2.41075,-3.7651 -0.49694,0.3071 -6.79454,1.2153 -13.99466,2.0182 -17.25354,1.9239 -18.6751,2.7302 -17.84211,10.1203 0.35769,3.1735 2.43509,8.6705 4.61644,12.2157 6.93612,11.2726 7.58412,14.9171 4.35607,24.4994 -1.547,4.5922 -4.22074,11.128 -5.94166,14.5241 -8.8777,17.5193 -9.4077,34.1895 -2.07501,65.2666 6.6834,28.3253 6.24517,30.2528 -8.52543,37.4982 -18.76852,9.2063 -52.39188,14.2321 -68.09699,10.1787 z m 459.7869,-491.13881 c 19.1077,-9.60495 29.7974,-29.86322 26.8947,-50.9686 -0.8546,-6.21363 -1.2255,-6.77458 -4.4734,-6.7665 -1.9479,0.005 -8.1104,-0.68654 -13.6946,-1.53642 l -10.153,-1.54523 -3.5385,-18.13025 c -2.6987,-13.82686 -11.4265,-77.02781 -11.48,-83.13025 -0.01,-0.55 -0.7588,-1.00586 -1.6754,-1.01302 -0.9167,-0.007 -4.7218,-1.43558 -8.4558,-3.17426 l -6.789,-3.16124 -0.8503,-11.97878 c -1.2092,-17.03531 -0.9986,-16.72895 -11.0593,-16.08834 -12.6731,0.80696 -18.5792,7.63446 -13.2213,15.28395 1.7454,2.49185 1.7092,3.01271 -0.3333,4.80255 -1.2601,1.10417 -4.2668,3.00866 -6.6817,4.23222 -5.6066,2.8408 -6.9385,6.51175 -6.9602,19.18372 -0.022,12.96972 -3.85,31.66671 -8.9855,43.88952 -3.2287,7.6846 -3.6606,9.80528 -2.2907,11.24698 2.2394,2.35669 38.8458,54.90848 57.2246,82.15103 16.1937,24.00354 14.3318,22.831 26.5227,16.70292 z M 342.55685,310.91409 c 0,-3.46765 6.95263,-10.34784 12.65903,-12.52713 5.81175,-2.21954 11.05705,-2.26223 31.24964,-0.25442 2.44975,0.24359 4.24181,-1.03605 7.33333,-5.23642 2.25024,-3.05734 5.74134,-6.28014 7.758,-7.16176 2.01667,-0.88164 3.66667,-1.7706 3.66667,-1.97548 0,-0.20488 -1.49413,-3.5821 -3.32031,-7.50491 -1.91968,-4.12371 -3.3258,-9.57532 -3.33333,-12.92356 -0.012,-5.06954 -1.14979,-7.31251 -9.13565,-18 -5.01746,-6.71487 -16.52436,-23.00884 -25.57092,-36.20884 -29.33542,-42.80383 -48.14788,-67.46764 -60.34524,-79.11471 l -4.6582,-4.44804 -9.74295,4.2762 c -11.26457,4.94405 -18.31857,6.22318 -22.36785,4.05608 -4.4572,-2.38542 -3.41004,-6.01032 3.47445,-12.0273 l 6.33334,-5.53526 -4.66667,1.06318 c -2.56667,0.58475 -11.60972,0.92088 -20.09567,0.74698 l -15.42901,-0.3162 -19.52259,18.98286 c -17.58646,17.10027 -20.01086,20.02027 -24.44606,29.44334 -3.86143,8.20403 -5.0598,12.5846 -5.55543,20.30756 -0.59757,9.31145 -0.87741,10.03432 -5.14436,13.28888 -2.48182,1.89299 -5.96068,6.29979 -7.73076,9.79289 -3.17041,6.25651 -7.40945,24.74883 -7.40945,32.3229 0,3.33472 0.42036,3.78265 3,3.19682 12.08836,-2.7452 15.87069,-3.30816 22.41972,-3.33692 7.11614,-0.0312 7.50688,0.15018 9.55004,4.43474 1.46068,3.06308 5.74232,6.84614 13.62122,12.0351 11.52962,7.59327 16.72806,13.54909 16.73736,19.17589 0.005,2.87538 0.35186,2.97328 7.67166,2.16384 4.21666,-0.4663 7.96666,-0.84259 8.33333,-0.83622 11.72027,0.20382 16,2.6336 16,9.08391 0,2.65055 0.52665,3.25772 2.33333,2.69011 1.28334,-0.40319 7.1316,-1.957 12.99616,-3.45291 10.02998,-2.5584 10.76196,-2.58424 12.33334,-0.43527 2.0674,2.82735 2.13236,6.42055 0.18194,10.06494 l -1.48857,2.7814 22.73403,-0.94562 c 25.46003,-1.059 24.26143,-1.46609 26.12802,8.87416 0.81865,4.53506 3.44841,7.17303 3.44841,3.45919 z M 572.22356,190.24638 c 4.1153,-2.53313 -5.1219,-7.12481 -14.3334,-7.12481 -3.3471,0 -8.2398,0.90005 -10.8726,2.00013 -3.9541,1.65213 -4.5077,2.33663 -3.182,3.93408 2.3613,2.84513 24.2112,3.76152 28.388,1.1906 z m -85.0868,-0.42515 c 4.4147,-1.67848 4.3349,-3.34792 -0.2466,-5.15866 -7.0146,-2.77239 -10.8264,-3.09944 -18.2242,-1.56364 -5.81227,1.20661 -7.44244,2.08812 -7.44244,4.02444 0,1.51113 1.17157,2.70505 3,3.05722 5.88464,1.13343 19.55054,0.91911 22.91324,-0.35936 z"
       style="fill:#000000;stroke-width:1.33333" />
  </g>
</svg>
