<?xml version="1.0" encoding="UTF-8" standalone="no"?>
<svg
   xmlns:dc="http://purl.org/dc/elements/1.1/"
   xmlns:cc="http://creativecommons.org/ns#"
   xmlns:rdf="http://www.w3.org/1999/02/22-rdf-syntax-ns#"
   xmlns:svg="http://www.w3.org/2000/svg"
   xmlns="http://www.w3.org/2000/svg"
   xmlns:sodipodi="http://sodipodi.sourceforge.net/DTD/sodipodi-0.dtd"
   xmlns:inkscape="http://www.inkscape.org/namespaces/inkscape"
   version="1.1"
   id="svg392"
   width="666.82886"
   height="999.7215"
   viewBox="0 0 666.82886 999.7215"
   sodipodi:docname="тэквондо.svg"
   inkscape:version="1.0 (4035a4fb49, 2020-05-01)">
  <metadata
     id="metadata398">
    <rdf:RDF>
      <cc:Work
         rdf:about="">
        <dc:format>image/svg+xml</dc:format>
        <dc:type
           rdf:resource="http://purl.org/dc/dcmitype/StillImage" />
        <dc:title></dc:title>
      </cc:Work>
    </rdf:RDF>
  </metadata>
  <defs
     id="defs396" />
  <sodipodi:namedview
     inkscape:document-rotation="0"
     pagecolor="#ffffff"
     bordercolor="#666666"
     borderopacity="1"
     objecttolerance="10"
     gridtolerance="10"
     guidetolerance="10"
     inkscape:pageopacity="0"
     inkscape:pageshadow="2"
     inkscape:window-width="1920"
     inkscape:window-height="1018"
     id="namedview394"
     showgrid="false"
     inkscape:zoom="0.85"
     inkscape:cx="22.248274"
     inkscape:cy="499.83284"
     inkscape:window-x="-6"
     inkscape:window-y="-6"
     inkscape:window-maximized="1"
     inkscape:current-layer="g400" />
  <g
     transform="translate(-311.75173,-0.16716124)"
     inkscape:groupmode="layer"
     inkscape:label="Image"
     id="g400">
    <path
       id="path64"
       d="m 650.04519,998.84009 c -7.39521,-1.65751 -8.27746,-3.99599 -8.29794,-21.99446 -0.0233,-20.48593 -1.63564,-30.06324 -8.50686,-50.53099 l -3.75504,-11.18537 -6.61032,-0.60223 c -3.63568,-0.33123 -11.11032,-1.06474 -16.61032,-1.63001 -6.95985,-0.71532 -12.57615,-0.70389 -18.47377,0.0376 -18.04974,2.26933 -23.10947,1.12515 -24.15876,-5.46312 -0.34788,-2.18433 -1.79924,-7.83304 -3.22524,-12.5527 -5.93189,-19.63298 -8.11772,-32.74277 -9.65695,-57.9188 -0.62208,-10.175 -1.78828,-22.325 -2.59155,-27 -1.58975,-9.25229 -3.60609,-21.51093 -5.34568,-32.5 -0.60947,-3.85 -1.54041,-21.85 -2.06877,-40 -0.59333,-20.3819 -1.71009,-39.30905 -2.92065,-49.5 -1.078,-9.075 -2.45006,-21.9 -3.04902,-28.5 -0.59896,-6.6 -1.52439,-15.6 -2.05651,-20 -0.53212,-4.4 -1.41718,-16.55 -1.9668,-27 -0.54962,-10.45 -1.44457,-22.375 -1.98878,-26.5 -0.54422,-4.125 -1.45124,-11.775 -2.01562,-17 -1.38951,-12.86408 -3.31443,-81.48581 -2.5725,-91.70749 0.60527,-8.3389 -0.25205,-12.76812 -4.10689,-21.21774 -1.29009,-2.8278 -4.26973,-18.58144 -4.29544,-22.71041 -0.007,-1.05344 -24.11213,-38.03607 -27.41677,-42.06266 -22.16453,-27.00668 -26.39314,-33.57958 -43.60516,-67.77932 -14.58325,-28.97645 -20.46019,-38.97043 -25.48318,-43.33516 -1.46386,-1.27202 -6.78816,-5.53445 -11.83177,-9.47206 -11.96041,-9.33763 -16.93564,-14.30157 -24.34221,-24.28691 -1.1946,-1.61054 -4.3446,-5.84412 -7,-9.40797 -2.65539,-3.56386 -12.36548,-13.88398 -21.57798,-22.93361 -9.2125,-9.04964 -16.75,-17.06672 -16.75,-17.81574 0,-1.593 2.14909,-3.78176 11.01044,-11.21362 8.09993,-6.79327 24.73576,-23.37011 32.45063,-32.33555 l 5.83274,-6.77824 -2.73727,-7.22176 c -5.5226,-14.57033 -7.7588,-20.29936 -9.2593,-23.72177 -0.84398,-1.925 -2.10756,-4.85 -2.80795,-6.5 -0.7004,-1.65 -2.44701,-5.60084 -3.88137,-8.779635 -1.43436,-3.1788 -2.60792,-6.039465 -2.60792,-6.357033 0,-0.317569 -1.36665,-3.440941 -3.03699,-6.940828 -3.03275,-6.354546 -3.04404,-6.364367 -8.09068,-7.033827 -2.93663,-0.389558 -6.16771,-1.596434 -7.71301,-2.880968 C 342.73485,73.025439 340.20391,72 335.79833,72 c -5.87345,0 -10.61642,-2.292541 -12.57375,-6.077586 -1.70109,-3.28956 -1.69881,-3.569026 0.17619,-21.546456 0.52706,-5.053407 0.4704,-5.184365 -4.11067,-9.5 -7.56882,-7.130266 -8.92876,-11.459885 -6.32712,-20.143415 0.85463,-2.852495 2.61965,-5.1230229 6.15448,-7.9171422 9.97525,-7.8849867 14.89188,-8.4905666 26.14571,-3.2203618 6.17769,2.8930336 8.29425,4.495158 10.83913,8.204638 1.73932,2.53528 4.77994,6.430012 6.75693,8.654961 4.70807,5.298563 12.46574,18.176811 16.50349,27.396898 2.89524,6.611206 4.99507,9.179159 20.85149,25.5 9.69761,9.981655 19.67122,19.688492 22.16355,21.570748 16.55673,12.503946 43.17617,44.742656 69.83566,84.577716 6.99362,10.45 15.38906,22.375 18.65653,26.5 5.54607,7.00161 16.88785,27.26343 16.90034,30.19205 0.003,0.71937 0.46041,2.94546 1.01633,4.94685 0.91767,3.30382 1.40889,3.69862 5.33436,4.28727 5.90407,0.88538 12.91314,7.6153 14.50173,13.92419 2.81745,11.18909 11.85866,15.87097 42.77261,22.14926 6.67183,1.35498 14.77183,3.15355 18,3.99681 3.22816,0.84327 10.59439,2.22131 16.36939,3.06232 5.775,0.84102 13.65,2.36245 17.5,3.38096 3.85,1.01851 10.15,2.3491 14,2.95687 14.80522,2.33717 53.96657,4.55108 83.5,4.72051 26.98732,0.15483 31.36377,0.40544 38,2.17599 10.50441,2.8026 18.10438,6.50321 22.98387,11.19142 6.85154,6.58296 19.31413,13.28942 27.01613,14.53812 2.475,0.40127 6.525,1.77246 9,3.0471 2.475,1.27464 5.7375,2.61668 7.25,2.98231 1.5125,0.36563 2.75,1.01352 2.75,1.43975 0,0.42622 0.94961,1.02329 2.11024,1.3268 3.26011,0.85254 6.48362,-3.06927 7.30014,-8.88153 1.25894,-8.96161 5.4232,-19.75391 9.96525,-25.82642 2.87073,-3.83802 4.80354,-7.74822 5.66829,-11.46727 1.14197,-4.91134 2.93968,-8.05011 8.67139,-15.14006 0.66842,-0.82681 2.58256,-3.41416 4.25364,-5.74966 3.59086,-5.01859 9.43527,-9.51638 17.03105,-13.1069 5.03004,-2.37769 6.56809,-2.59629 18,-2.55821 15.92901,0.0531 26.19109,2.78941 37.72114,10.05819 13.51818,8.52214 18.78981,18.00453 19.93224,35.85328 1.02173,15.96299 -2.75651,27.69837 -11.843,36.78486 -3.68351,3.68351 -4.81038,5.53845 -4.81038,7.91837 0,3.8934 -3.80204,9.00042 -8.28393,11.12721 -1.86825,0.88655 -6.95615,2.37236 -11.30644,3.30181 -9.83019,2.10025 -14.31555,5.45315 -21.33536,15.94864 l -5.0477,7.54694 1.60066,3.68608 c 4.27134,9.83623 4.23898,12.61654 -0.20585,17.68609 -3.10047,3.53625 -4.42168,6.61918 -4.42059,10.3151 7.2e-4,2.45711 3.69267,11.03732 7.39443,17.1849 0.82796,1.375 3.27293,6.325 5.43327,11 2.16035,4.675 6.28599,11.38089 9.16811,14.90197 9.28489,11.34338 11.00356,14.70879 11.00212,21.54381 -7e-4,3.32982 0.52658,9.83166 1.17173,14.44853 1.09313,7.82266 1.03147,8.6739 -0.90538,12.5 -1.14311,2.25813 -3.54093,7.03069 -5.3285,10.60569 -1.78756,3.575 -3.88733,7.73712 -4.66616,9.24915 -1.18117,2.29316 -1.21478,3.9968 -0.20262,10.27116 1.43536,8.89772 0.77231,28.029 -1.09363,31.55533 -0.70557,1.3334 -4.09639,5.5783 -7.53516,9.43311 -5.12115,5.74074 -8.41471,8.2331 -18.20465,13.77613 -17.76708,10.05966 -26.39163,12.70496 -35.2373,10.80791 -12.67484,-2.71827 -21.19096,-9.60716 -29.01534,-23.4712 -2.65035,-4.69617 -3.12163,-6.73448 -3.75615,-16.24575 L 840.26471,550.5 837.0673,550.19056 c -1.75858,-0.17019 -8.28715,1.02154 -14.50793,2.64829 -6.22079,1.62674 -15.80696,3.47824 -21.30259,4.11444 -17.0396,1.97257 -24.63055,3.11702 -34.99207,5.27562 -8.94642,1.86378 -13.63485,2.09317 -44.5,2.17718 l -34.5,0.0939 -5.70384,-2.80078 c -7.14685,-3.50936 -9.90636,-6.78301 -15.53569,-18.43023 -4.77002,-9.86932 -6.93669,-11.46979 -9.09995,-6.72194 -2.43109,5.33565 -0.74931,15.33044 3.57052,21.21961 1.31789,1.79667 3.32636,5.39667 4.46327,8 1.68718,3.86339 9.2572,14.18345 11.90754,16.23334 2.70487,2.09206 4.89102,8.03946 4.89441,13.31522 0.004,5.68964 -0.10963,5.92756 -5.24626,11.01794 -3.8859,3.8509 -7.4122,6.10745 -13.57167,8.68478 -4.57692,1.91513 -8.83044,4.38206 -9.45227,5.48206 -0.63632,1.12563 -1.4867,10.30654 -1.94511,21 -0.44797,10.45 -1.0579,21.925 -1.3554,25.5 -0.40062,4.81424 0.13469,9.74184 2.06407,19 6.60116,31.67591 6.78601,36.69647 1.96189,53.28723 -2.68043,9.21835 -2.77696,10.18891 -1.66077,16.69805 1.12416,6.5556 1.89155,8.40368 7.16116,17.24612 1.69153,2.83841 2.44256,6.30854 3.1382,14.5 0.50297,5.92273 1.44739,13.2436 2.09871,16.2686 0.65132,3.025 1.12247,11.8 1.047,19.5 -0.18368,18.74058 1.16696,30.07201 5.7213,48 2.09579,8.25 4.09898,17.02809 4.45152,19.50686 0.35255,2.47877 1.75483,6.91095 3.11618,9.84929 2.55434,5.51329 3.22775,10.14386 1.47519,10.14386 -2.71461,0 0.45896,6.83867 8.53444,18.39075 13.3959,19.16302 22.03688,24.72035 53.02347,34.10138 14.91741,4.51616 20.08447,6.98601 34.19209,16.34376 10.88969,7.22325 12.05222,8.4168 10.48469,10.76441 -2.4308,3.64045 -7.7935,4.17889 -17.92264,1.79952 -11.91923,-2.79987 -57.4397,-0.76116 -81.31205,3.64169 -7.10899,1.31113 -28.90699,3.97029 -31.5,3.84271 -1.1,-0.0541 -3.89878,-0.52398 -6.21952,-1.04413 z m 18.79644,-617.76317 c 2.62044,-2.62044 2.92308,-3.58422 2.92308,-9.30887 0,-9.64421 -0.67947,-10.17041 -12.0819,-9.35647 -5.17996,0.36976 -13.1306,0.92459 -17.6681,1.23297 -6.99789,0.47559 -8.25,0.82795 -8.25,2.3217 0,2.2467 4.44984,6.71243 9.00327,9.03542 1.94121,0.99033 5.29755,3.42009 7.45852,5.39947 3.57932,3.27853 4.45255,3.59886 9.81055,3.59886 5.16728,0 6.23647,-0.35497 8.80458,-2.92308 z"
       style="fill:#000000" />
  </g>
</svg>
