<?xml version="1.0" encoding="UTF-8" standalone="no"?>
<svg
   xmlns:dc="http://purl.org/dc/elements/1.1/"
   xmlns:cc="http://creativecommons.org/ns#"
   xmlns:rdf="http://www.w3.org/1999/02/22-rdf-syntax-ns#"
   xmlns:svg="http://www.w3.org/2000/svg"
   xmlns="http://www.w3.org/2000/svg"
   xmlns:sodipodi="http://sodipodi.sourceforge.net/DTD/sodipodi-0.dtd"
   xmlns:inkscape="http://www.inkscape.org/namespaces/inkscape"
   version="1.1"
   id="svg1338"
   width="1278.8256"
   height="434.6236"
   viewBox="0 0 1278.8256 434.6236"
   sodipodi:docname="UFC.svg"
   inkscape:version="1.0 (4035a4fb49, 2020-05-01)">
  <metadata
     id="metadata1344">
    <rdf:RDF>
      <cc:Work
         rdf:about="">
        <dc:format>image/svg+xml</dc:format>
        <dc:type
           rdf:resource="http://purl.org/dc/dcmitype/StillImage" />
        <dc:title></dc:title>
      </cc:Work>
    </rdf:RDF>
  </metadata>
  <defs
     id="defs1342" />
  <sodipodi:namedview
     inkscape:document-rotation="0"
     pagecolor="#ffffff"
     bordercolor="#666666"
     borderopacity="1"
     objecttolerance="10"
     gridtolerance="10"
     guidetolerance="10"
     inkscape:pageopacity="0"
     inkscape:pageshadow="2"
     inkscape:window-width="1920"
     inkscape:window-height="1018"
     id="namedview1340"
     showgrid="false"
     inkscape:zoom="0.36294465"
     inkscape:cx="500.63135"
     inkscape:cy="590.15831"
     inkscape:window-x="-6"
     inkscape:window-y="-6"
     inkscape:window-maximized="1"
     inkscape:current-layer="g1346" />
  <g
     transform="translate(267.17479,575.84538)"
     inkscape:groupmode="layer"
     inkscape:label="Image"
     id="g1346">
    <path
       id="path8"
       d="m 618.24162,-141.92917 c -29.69579,-4.30945 -49.52708,-29.21904 -45.7108,-57.41621 0.59551,-4.4 20.26021,-80.66497 43.69934,-169.4777 47.95313,-181.69829 44.08643,-169.46096 58.01146,-183.59469 9.04299,-9.17852 18.07377,-14.93409 30,-19.11984 l 8,-2.80777 115.4635,-0.27051 c 102.2256,-0.23949 116.4394,-0.0876 123.9754,1.32448 24.8695,4.66014 48.0792,19.58487 56.24678,36.16892 2.7618,5.60773 3.3724,8.0931 3.663,14.90797 0.2263,5.30871 -0.1858,10.0539 -1.1745,13.52372 -0.8378,2.93998 -2.0211,7.24519 -2.6297,9.56712 l -1.1063,4.2217 -97.71908,0.2783 c -89.8297,0.25583 -98.0121,0.4166 -101.3484,1.99128 -5.2748,2.48967 -9.6853,6.50322 -11.8854,10.81588 -1.0599,2.0775 -15.4765,52.75839 -32.0369,112.62421 -23.2691,84.11765 -29.9971,109.71654 -29.6138,112.67455 0.5075,3.917 2.5859,6.96156 6.1542,9.015 1.4691,0.8454 28.4609,1.29216 100.1343,1.65738 l 98.1232,0.5 -7.6827,28 c -8.2033,29.89743 -11.2797,37.4047 -19.3674,47.26193 -6.7582,8.23689 -16.3898,15.84242 -26.1962,20.68569 -17.4617,8.62408 -5.844,7.95197 -141,8.15714 -66,0.10019 -122.7,-0.20966 -126,-0.68855 z m -837,-1.89565 c -23.92723,-2.94098 -41.97755,-17.97527 -46.96022,-39.11363 -1.72993,-7.33904 -1.94846,-18.3399 -0.49475,-24.90693 0.54787,-2.475 22.67161,-85.1625 49.16386,-183.75 l 48.16772,-179.25 h 81.918688 c 70.8108,0 81.8438998,0.19486 81.3672298,1.43705 -0.30329,0.79037 -19.7803998,65.92787 -43.2824498,144.75 -45.81881,153.66895 -45.42819,152.16152 -41.85453,161.51903 8.55978,22.41347 41.2624,22.86967 62.97445,0.87849 4.08068,-4.13313 8.10183,-9.38261 9.64199,-12.58728 1.84392,-3.83672 80.77633,-265.95684 88.60689,-294.24729 0.45562,-1.64609 4.7824,-1.75 72.867752,-1.75 39.81085,0 72.38337,0.26261 72.38337,0.58359 0,2.67405 -100.54275,373.58663 -102.41543,377.82109 -9.55584,21.60747 -31.426532,39.83313 -56.206412,46.8389 l -7.87816,2.22732 -131,0.14357 c -72.049998,0.079 -133.699998,-0.1883 -136.999998,-0.59391 z m 382.13717,0.20139 c -0.5169,-0.83637 75.32203,-266.88637 76.67185,-268.97195 0.64172,-0.99152 34.29535,-1.25 162.75,-1.25 153.57711,0 161.93905,0.0904 161.90351,1.75 -0.0206,0.9625 -6.66532,23.35 -14.76603,49.75 l -14.72856,48 -83.43976,0.25579 c -45.89187,0.14068 -83.77614,0.59217 -84.18727,1.0033 -0.41113,0.41113 -10.89787,37.87103 -23.30386,83.24421 -12.406,45.37319 -22.99236,83.5092 -23.52526,84.7467 l -0.96891,2.25 h -77.96242 c -42.87934,0 -78.17881,-0.35012 -78.44329,-0.77805 z m 93.65918,-328.55185 c 0.28196,-0.73476 7.18096,-24.36112 15.33112,-52.50301 l 14.81847,-51.16709 H 449.8327 612.47785 l -10.48499,36.25 c -5.76674,19.9375 -12.56989,43.45 -15.11811,52.25 l -4.63313,16 -162.85814,0.25301 c -135.53965,0.21057 -162.77215,0.0289 -162.34551,-1.08291 z"
       style="fill:#000000" />
  </g>
</svg>
