<?xml version="1.0" encoding="UTF-8" standalone="no"?>
<svg
   xmlns:dc="http://purl.org/dc/elements/1.1/"
   xmlns:cc="http://creativecommons.org/ns#"
   xmlns:rdf="http://www.w3.org/1999/02/22-rdf-syntax-ns#"
   xmlns:svg="http://www.w3.org/2000/svg"
   xmlns="http://www.w3.org/2000/svg"
   xmlns:sodipodi="http://sodipodi.sourceforge.net/DTD/sodipodi-0.dtd"
   xmlns:inkscape="http://www.inkscape.org/namespaces/inkscape"
   xml:space="preserve"
   width="37.065937mm"
   height="27.122585mm"
   version="1.1"
   style="clip-rule:evenodd;fill-rule:evenodd;image-rendering:optimizeQuality;shape-rendering:geometricPrecision;text-rendering:geometricPrecision"
   viewBox="0 0 125.12125 91.557331"
   id="svg323"
   sodipodi:docname="мебель.svg"
   inkscape:version="1.0 (4035a4fb49, 2020-05-01)"><metadata
   id="metadata327"><rdf:RDF><cc:Work
       rdf:about=""><dc:format>image/svg+xml</dc:format><dc:type
         rdf:resource="http://purl.org/dc/dcmitype/StillImage" /><dc:title></dc:title></cc:Work></rdf:RDF></metadata><sodipodi:namedview
   inkscape:document-rotation="0"
   pagecolor="#ffffff"
   bordercolor="#666666"
   borderopacity="1"
   objecttolerance="10"
   gridtolerance="10"
   guidetolerance="10"
   inkscape:pageopacity="0"
   inkscape:pageshadow="2"
   inkscape:window-width="1920"
   inkscape:window-height="1018"
   id="namedview325"
   showgrid="false"
   inkscape:zoom="5.6774848"
   inkscape:cx="87.152893"
   inkscape:cy="42.639305"
   inkscape:window-x="-6"
   inkscape:window-y="-6"
   inkscape:window-maximized="1"
   inkscape:current-layer="svg323" />
 <defs
   id="defs317">
  <style
   type="text/css"
   id="style315">
   <![CDATA[
    .fil0 {fill:black}
   ]]>
  </style>
 </defs>
 
<path
   id="path8"
   d="m 64.388182,89.482307 v -2.075028 l -0.864948,-0.379582 c -1.249603,-0.548382 -3.186126,-2.783468 -4.04824,-4.672378 l -0.744982,-1.632269 -0.08415,-6.454533 -0.08415,-6.454532 -1.173218,-0.205461 c -2.797073,-0.489838 -5.537473,-2.887197 -6.763375,-5.916731 -0.585002,-1.445703 -0.696702,-2.113177 -0.696702,-4.163268 0,-2.050091 0.1117,-2.717565 0.696702,-4.163268 2.114607,-5.225769 7.538949,-7.447874 11.776456,-4.824278 1.608107,0.995638 3.372959,3.170655 3.99372,4.921891 0.326718,0.921707 0.642313,2.69376 0.772567,4.337916 0.376298,4.749988 1.146091,6.955824 3.090269,8.855142 l 0.966197,0.943904 15.631103,0.09319 c 10.686756,0.06371 15.925809,-0.01126 16.562799,-0.237024 2.48807,-0.881825 4.0168,-4.237331 4.38379,-9.622282 0.19773,-2.901348 0.55509,-4.26059 1.60886,-6.119356 1.55626,-2.745124 5.16746,-4.707653 7.8637,-4.273582 4.0507,0.652123 6.95955,3.848832 7.709,8.471864 0.84894,5.236863 -2.29565,10.478947 -6.9215,11.538226 l -1.58286,0.36246 -0.0822,6.302267 c -0.0764,5.853291 -0.12345,6.403062 -0.66085,7.717166 -0.86563,2.116748 -2.12317,3.732106 -3.67113,4.715685 l -1.38528,0.880214 -0.073,1.98804 -0.073,1.988039 h -4.27506 -4.27507 l -0.0755,-1.757342 -0.0755,-1.757343 -14.384283,0.07879 -14.384289,0.07879 -0.07542,1.754849 -0.07542,1.754849 h -4.262511 -4.262514 z m -50.043375,0.09128 v -1.37336 h 2.389005 2.389006 V 77.365948 66.531663 H 16.74759 14.372363 l -0.07665,-1.449658 -0.07665,-1.449658 -6.7690831,-0.08138 c -4.480129,-0.05386 -6.88237698,-0.195495 -7.10414098,-0.418855 -0.442106,-0.445292 -0.470251,-5.775236 -0.0333,-6.305527 0.437583,-0.531053 47.74488408,-0.531053 48.18246708,0 0.436954,0.530291 0.408811,5.860235 -0.03329,6.305527 -0.221765,0.22336 -2.624013,0.364996 -7.104148,0.418856 l -6.769083,0.08138 -0.07665,1.449658 -0.07665,1.449658 h -2.375227 -2.375227 v 10.834285 10.834284 h 2.389005 2.389006 v 1.37336 1.37336 H 24.403772 14.344802 Z M 74.124637,64.06218 c -1.519961,-0.434361 -2.397885,-1.121883 -3.117315,-2.441236 -0.574541,-1.053639 -0.698807,-1.69621 -0.860845,-4.45135 -0.104155,-1.770975 -0.32624,-3.925402 -0.493523,-4.787616 -1.01631,-5.238285 -3.864762,-7.849436 -9.099754,-8.341675 l -1.948925,-0.183255 v -1.360372 c 0,-5.2105 3.131523,-11.171249 7.063459,-13.445054 3.264093,-1.887595 3.189857,-1.881228 21.856079,-1.874236 18.267757,0.0068 18.350547,0.01318 21.257897,1.628533 0.78602,0.436719 1.98515,1.289384 2.66474,1.89481 1.25251,1.115824 3.22189,4.149485 3.75756,5.788205 0.54002,1.652024 1.23068,5.158264 1.23503,6.26985 l 0.004,1.100205 -1.69745,0.178106 c -2.63366,0.276341 -4.16828,0.77763 -5.62156,1.836305 -2.67312,1.947293 -3.91892,5.02842 -4.21766,10.431191 -0.28142,5.089355 -1.39631,7.115808 -4.28007,7.779523 -1.670647,0.38451 -25.147699,0.365079 -26.501974,-0.02194 z M 15.345699,40.361525 c -0.96718,-4.123502 -1.230048,-7.994836 -0.763594,-11.2456 0.453587,-3.161066 1.746761,-7.84701 2.297125,-8.323856 0.460165,-0.398695 0.483268,-0.905716 0.483268,-10.605392 V 0 h 0.754423 0.754422 v 10.231456 10.231455 l 0.583079,0.269042 c 0.453898,0.209434 0.704658,0.776857 1.131865,2.561197 1.650843,6.895165 1.701032,12.634091 0.166516,19.040178 l -0.386664,1.614192 h -2.089666 -2.089665 z m 12.204991,-7.15957 c -1.755272,-6.048037 -2.192015,-12.309701 -1.229311,-17.624781 0.578282,-3.192687 1.464784,-6.4214409 1.763101,-6.4214409 0.27429,0 0.342885,-0.9157939 0.342885,-4.5778664 V 0 h 0.88016 0.88016 v 4.5778667 4.5778664 h 0.59367 c 0.514426,0 0.667785,0.28499 1.14889,2.1350039 1.868107,7.183497 1.970175,13.75363 0.316257,20.357066 l -0.443475,1.770624 -2.069007,0.08872 c -1.516521,0.06503 -2.099536,-0.01648 -2.18333,-0.305192 z"
   style="fill:#000000;stroke-width:0.277034" /></svg>
