<?xml version="1.0" encoding="UTF-8" standalone="no"?>
<svg
   xmlns:dc="http://purl.org/dc/elements/1.1/"
   xmlns:cc="http://creativecommons.org/ns#"
   xmlns:rdf="http://www.w3.org/1999/02/22-rdf-syntax-ns#"
   xmlns:svg="http://www.w3.org/2000/svg"
   xmlns="http://www.w3.org/2000/svg"
   xmlns:sodipodi="http://sodipodi.sourceforge.net/DTD/sodipodi-0.dtd"
   xmlns:inkscape="http://www.inkscape.org/namespaces/inkscape"
   xml:space="preserve"
   width="36.387543mm"
   height="25.460144mm"
   version="1.1"
   style="clip-rule:evenodd;fill-rule:evenodd;image-rendering:optimizeQuality;shape-rendering:geometricPrecision;text-rendering:geometricPrecision"
   viewBox="0 0 122.83124 85.945451"
   id="svg323"
   sodipodi:docname="самолет.svg"
   inkscape:version="1.0 (4035a4fb49, 2020-05-01)"><metadata
   id="metadata327"><rdf:RDF><cc:Work
       rdf:about=""><dc:format>image/svg+xml</dc:format><dc:type
         rdf:resource="http://purl.org/dc/dcmitype/StillImage" /><dc:title></dc:title></cc:Work></rdf:RDF></metadata><sodipodi:namedview
   inkscape:document-rotation="0"
   pagecolor="#ffffff"
   bordercolor="#666666"
   borderopacity="1"
   objecttolerance="10"
   gridtolerance="10"
   guidetolerance="10"
   inkscape:pageopacity="0"
   inkscape:pageshadow="2"
   inkscape:window-width="1920"
   inkscape:window-height="1018"
   id="namedview325"
   showgrid="false"
   inkscape:zoom="1.4193712"
   inkscape:cx="83.351302"
   inkscape:cy="43.798827"
   inkscape:window-x="-6"
   inkscape:window-y="-6"
   inkscape:window-maximized="1"
   inkscape:current-layer="svg323" />
 <defs
   id="defs317">
  <style
   type="text/css"
   id="style315">
   <![CDATA[
    .fil0 {fill:black}
   ]]>
  </style>
 </defs>
 
<path
   id="path8"
   d="m 60.330638,85.670795 c -0.0827,-0.14662 0.766599,-9.295396 1.887342,-20.330615 1.120742,-11.035219 2.001252,-20.103987 1.956685,-20.152814 -0.04456,-0.04883 -6.53067,3.393766 -14.413566,7.650212 C 34.421332,61.120435 33.296973,61.611175 30.593012,61.203713 28.456984,60.881832 27.466737,60.340254 23.926561,57.557757 13.060814,49.01753 3.7896598,40.443197 1.0555678,36.405758 c -1.90931698,-2.819494 -1.35214298,-4.1172 2.671755,-6.222752 1.565269,-0.819045 2.172138,-0.991872 3.415741,-0.972754 1.796899,0.02763 5.7171972,1.420552 11.2185952,3.986091 2.008736,0.93676 4.609513,2.078685 5.779501,2.537609 2.027914,0.795444 2.269205,0.82831 5.166988,0.703763 5.075936,-0.218162 3.852373,0.347704 34.797811,-16.093072 C 92.886792,5.0538827 93.930459,4.5283826 99.926496,2.3085041 107.5294,-0.50627578 113.96788,-0.75404428 118.23557,1.6039268 c 3.20311,1.7697776 4.59465,3.8081654 4.59649,6.7331822 0.002,2.267803 -0.70037,3.919556 -2.48638,5.851932 -1.14923,1.243408 -2.78049,2.205085 -14.65176,8.637659 l -13.358561,7.238475 -1.221499,3.979433 c -3.43825,11.201223 -10.381457,31.5033 -13.252841,38.751566 -2.492399,6.291592 -2.130097,5.876251 -7.96493,9.13101 -6.259897,3.491866 -9.083999,4.597129 -9.565451,3.743611 z M 38.775114,17.980212 C 34.408379,14.63131 30.673045,11.716829 30.47437,11.503589 30.161193,11.167447 30.177957,11.037186 30.600394,10.524285 31.708159,9.179301 42.311086,4.1947456 44.064318,4.1947456 c 1.17552,0 5.181277,1.2340569 9.707665,2.9906454 4.717596,1.830795 12.85343,5.188017 13.413401,5.534992 0.369175,0.228753 -0.247096,0.644615 -3.457497,2.333145 -2.148711,1.130125 -6.84447,3.622974 -10.435023,5.539667 -3.59055,1.916691 -6.539514,3.482877 -6.553253,3.480411 -0.01374,-0.0025 -3.597761,-2.744492 -7.964497,-6.093394 z"
   style="fill:#000000;stroke-width:0.263828" /></svg>
