<?xml version="1.0" encoding="UTF-8" standalone="no"?>
<svg
   xmlns:dc="http://purl.org/dc/elements/1.1/"
   xmlns:cc="http://creativecommons.org/ns#"
   xmlns:rdf="http://www.w3.org/1999/02/22-rdf-syntax-ns#"
   xmlns:svg="http://www.w3.org/2000/svg"
   xmlns="http://www.w3.org/2000/svg"
   xmlns:sodipodi="http://sodipodi.sourceforge.net/DTD/sodipodi-0.dtd"
   xmlns:inkscape="http://www.inkscape.org/namespaces/inkscape"
   xml:space="preserve"
   width="36.110554mm"
   height="21.146513mm"
   version="1.1"
   style="clip-rule:evenodd;fill-rule:evenodd;image-rendering:optimizeQuality;shape-rendering:geometricPrecision;text-rendering:geometricPrecision"
   viewBox="0 0 119.09825 69.74147"
   id="svg10"
   sodipodi:docname="контра.svg"
   inkscape:version="1.0 (4035a4fb49, 2020-05-01)"><metadata
   id="metadata14"><rdf:RDF><cc:Work
       rdf:about=""><dc:format>image/svg+xml</dc:format><dc:type
         rdf:resource="http://purl.org/dc/dcmitype/StillImage" /><dc:title></dc:title></cc:Work></rdf:RDF></metadata><sodipodi:namedview
   inkscape:document-rotation="0"
   pagecolor="#ffffff"
   bordercolor="#666666"
   borderopacity="1"
   objecttolerance="10"
   gridtolerance="10"
   guidetolerance="10"
   inkscape:pageopacity="0"
   inkscape:pageshadow="2"
   inkscape:window-width="1920"
   inkscape:window-height="1018"
   id="namedview12"
   showgrid="false"
   inkscape:zoom="3.3788992"
   inkscape:cx="35.313617"
   inkscape:cy="16.657519"
   inkscape:window-x="-6"
   inkscape:window-y="-6"
   inkscape:window-maximized="1"
   inkscape:current-layer="svg10" />
 <defs
   id="defs4">
  <style
   type="text/css"
   id="style2">
   <![CDATA[
    .fil0 {fill:black;fill-rule:nonzero}
   ]]>
  </style>
 </defs>
 
<path
   id="path8"
   d="m 64.557946,69.281438 c -0.639157,-0.62361 -0.607519,-1.55987 0.146449,-4.33388 0.377697,-1.38963 0.671282,-3.20785 0.745549,-4.61728 0.08219,-1.55981 0.261344,-2.59371 0.544361,-3.14153 0.232019,-0.44911 0.656739,-1.57106 0.943826,-2.49323 0.287084,-0.92217 1.119532,-2.80413 1.849885,-4.18214 1.233174,-2.32672 1.344771,-2.67135 1.564184,-4.83045 0.12995,-1.27874 0.246626,-4.051272 0.259282,-6.161188 0.02011,-3.353638 0.07961,-3.917668 0.472932,-4.483767 0.4211,-0.606075 0.431692,-0.825169 0.165332,-3.420214 -0.313843,-3.057644 -0.22238,-3.47826 0.880084,-4.047354 0.711842,-0.367455 0.519856,-0.52776 -0.780453,-0.651662 -0.713143,-0.06796 -0.71503,-0.0721 -0.773842,-1.695605 -0.03242,-0.895116 0.07481,-2.516787 0.238296,-3.603713 l 0.297251,-1.97623 1.219319,-0.21168 1.219319,-0.211679 0.150882,-1.741505 c 0.08298,-0.957827 0.150882,-2.277946 0.150882,-2.933597 0,-0.873823 0.212815,-1.624853 0.797106,-2.813016 1.361983,-2.7695969 3.370211,-4.0503199 5.794826,-3.6955719 1.048571,0.153415 1.079483,0.140942 0.913691,-0.368718 -0.355445,-1.092658 -0.169395,-3.468334 0.354274,-4.523774 0.94903,-1.912734 2.870009,-3.14163498 4.916487,-3.14520798 1.041591,-0.0018 4.02352,1.50746298 4.635766,2.34636098 1.023105,1.401856 0.840899,4.636702 -0.280731,4.98403 -0.560694,0.173627 -0.971983,0.88659 -0.785285,1.361278 0.20889,0.531117 0.90764,0.66212 2.000377,0.375035 0.75403,-0.198098 1.062442,-0.436217 1.363931,-1.053068 l 0.389585,-0.797085 0.411923,0.660872 c 0.235785,0.37828 0.702008,0.721682 1.090318,0.803081 0.373117,0.07821 3.520071,0.200616 6.993228,0.272004 3.47316,0.07139 6.71696,0.168507 7.20845,0.215823 l 0.89361,0.08603 v -1.010397 c 0,-1.723646 0.64643,-1.47655 1.05754,0.404239 0.0755,0.345583 0.38722,0.911768 0.69262,1.258184 l 0.55529,0.6298549 3.15735,-0.05417 c 2.94175,-0.05047 3.15167,-0.02525 3.07421,0.369299 -0.0756,0.385116 -0.46271,0.433994 -4.27437,0.539715 -3.17283,0.088 -4.29212,0.198112 -4.60639,0.45315 -0.30653,0.248768 -1.12145,0.34 -3.1151,0.348746 -3.04854,0.01337 -3.46579,0.18342 -4.7307,1.927933 -0.65783,0.907255 -0.67384,0.992856 -0.43068,2.303066 0.24118,1.299582 0.22635,1.383821 -0.32961,1.872824 -0.3609,0.317424 -0.68304,0.971 -0.84759,1.719615 -0.30126,1.370526 -1.626727,2.977348 -2.870738,3.480098 -1.016075,0.41063 -2.712601,0.04181 -5.34601,-1.162223 -2.691249,-1.230475 -3.148718,-0.995597 -1.72912,0.887785 l 0.750138,0.995215 -0.156036,2.828676 c -0.237083,4.297894 -0.52726,4.97609 -2.250339,5.259474 -0.808884,0.133033 -0.878344,0.20521 -0.847218,0.880362 0.02269,0.492237 0.54396,1.450301 1.57627,2.897101 1.752022,2.455489 2.264191,3.394751 4.26988,7.830494 l 1.431583,3.16607 -0.119536,2.55747 c -0.06575,1.40661 -0.254321,4.70226 -0.419053,7.32367 -0.164734,2.62141 -0.226405,5.14152 -0.137044,5.60024 0.236054,1.21175 1.584865,2.60825 3.359556,3.47833 1.24747,0.6116 1.56859,0.8848 1.6938,1.44098 0.085,0.37746 0.0556,0.78277 -0.0652,0.90068 -0.43842,0.42775 -3.2687,0.48348 -5.604595,0.11037 -1.27645,-0.20389 -2.836692,-0.37071 -3.467204,-0.37071 -1.898891,0 -2.026921,-0.3912 -1.21665,-3.71754 l 0.501648,-2.05937 -0.76849,-3.77263 c -0.659305,-3.23663 -0.744457,-4.0402 -0.599338,-5.65584 0.09303,-1.03575 0.186305,-2.45863 0.20727,-3.16193 l 0.03812,-1.27874 -1.19148,-0.38078 c -0.991825,-0.31698 -1.361953,-0.60917 -2.208828,-1.74373 -2.386316,-3.19697 -2.97566,-3.852825 -3.743282,-4.165753 -0.442549,-0.180409 -0.873283,-0.539043 -0.957185,-0.796962 -0.0839,-0.257919 -0.251478,-0.468945 -0.372394,-0.468945 -0.260095,0 -2.17022,3.66255 -2.606964,4.9987 -0.447476,1.36898 -1.347015,3.03706 -2.669652,4.95054 -0.856709,1.23941 -1.229702,2.04138 -1.386436,2.98097 -0.262545,1.57388 -1.707514,5.39945 -2.437995,6.4546 -0.294948,0.42605 -0.857968,1.22821 -1.251156,1.78258 -0.713901,1.00657 -0.71484,1.01231 -0.67957,4.16076 0.02412,2.15334 -0.05142,3.20695 -0.238295,3.32362 -0.150489,0.094 -1.158287,0.17242 -2.239555,0.17437 -1.65123,0.003 -2.042233,-0.0709 -2.442532,-0.46143 z M 97.496279,15.397064 c 0.326389,-0.481205 0.672347,-1.117505 0.768794,-1.414002 0.15285,-0.469847 0.10365,-0.529176 -0.383041,-0.461942 -0.366639,0.05065 -0.584559,0.256788 -0.634556,0.600257 -0.04942,0.339482 -0.240259,0.52312 -0.543645,0.52312 -0.593898,0 -0.804446,0.520941 -0.462504,1.14432 0.370088,0.674692 0.574998,0.610725 1.254952,-0.391753 z M 5.8135535,63.954658 c -2.0444878,-0.19437 -3.4883546,-0.91815 -4.5536712,-2.28266 -1.20487189,-1.54326 -1.32415249,-2.6193 -1.23783599,-11.16665 0.085801,-8.496335 0.051917,-8.312355 1.81751939,-9.868656 1.6466429,-1.451446 1.7517559,-1.463698 12.5571063,-1.463698 10.687158,0 10.887837,0.02192 12.44923,1.359478 0.850263,0.728378 1.714257,2.231656 1.724139,2.999856 0.0049,0.38197 -0.701986,0.40687 -11.552115,0.40687 H 5.4605773 v 7.40283 7.40284 l 5.4001667,0.15333 c 2.970092,0.0843 6.937718,0.15334 8.816946,0.15334 h 3.41678 l 3.1e-4,-2.73185 3.09e-4,-2.73184 -3.970842,0.0693 c -5.960077,0.10402 -7.66236,-0.44117 -8.792948,-2.81612 l -0.5739451,-1.20565 1.0090321,-0.15714 c 0.554967,-0.0864 4.776492,-0.16489 9.381167,-0.17437 l 8.372136,-0.0172 0.143685,0.52312 c 0.237941,0.86627 0.167949,7.92448 -0.09183,9.26099 -0.510539,2.62656 -1.954765,4.12043 -4.43083,4.58316 -1.6238,0.30345 -15.8442221,0.53681 -18.3271565,0.30075 z m 35.9649515,-0.021 c -3.364415,-0.15318 -4.235227,-0.26689 -5.004212,-0.65341 -1.135332,-0.57066 -2.360573,-1.78678 -2.709329,-2.68915 -0.582163,-1.50628 -0.746137,-5.25427 -0.49453,-11.30356 0.281959,-6.77899 0.450939,-7.501574 2.0562,-8.792571 1.544848,-1.242409 2.615111,-1.47463 7.365538,-1.598144 6.035498,-0.156927 14.087235,0.209943 15.012638,0.684038 1.589179,0.814153 2.732319,2.443585 3.188015,4.544197 0.321895,1.48384 0.350347,10.93919 0.04153,13.80203 -0.333893,3.09533 -1.406446,4.66543 -3.81302,5.58183 -1.190719,0.45341 -1.834787,0.50906 -6.446255,0.55697 -2.817848,0.0293 -6.956308,-0.0302 -9.196578,-0.13223 z m 13.852719,-12.26388 c -0.09611,-4.18786 -0.215646,-7.65563 -0.265645,-7.70616 -0.05,-0.0505 -3.669198,-0.14355 -8.04267,-0.20671 l -7.951768,-0.11485 -0.130389,7.40066 c -0.07171,4.07036 -0.07836,7.53293 -0.01477,7.69461 0.146819,0.3733 1.54237,0.4437 9.934792,0.50121 l 6.645196,0.0455 z M 5.8008943,32.775127 C 3.8707969,32.576365 2.9544886,32.17868 1.774935,31.027828 0.05143411,29.346264 0.09892091,29.649064 0.09892091,20.340688 c 0,-8.014295 0.020962,-8.408901 0.4933643,-9.287514 C 1.2790578,9.7758531 2.4718961,8.9153121 4.1499502,8.4865861 6.342327,7.9264581 18.376024,7.4978181 21.042515,7.8848731 c 3.740676,0.54298 5.836779,1.966516 6.468411,4.3929259 L 27.794138,13.36576 17.401819,13.482009 7.0095003,13.598258 6.8274198,15.34199 c -0.100144,0.959052 -0.1144258,4.019302 -0.031737,6.800554 l 0.1503428,5.056823 H 17.284058 27.622091 l -0.0052,0.639369 c -0.0073,0.889705 -0.757125,2.379773 -1.573215,3.126253 -0.930133,0.850795 -2.521428,1.504097 -4.380383,1.798353 -1.726227,0.273245 -13.2403551,0.281801 -15.8623653,0.01179 z m 33.8551367,0.01907 c -1.610251,-0.09915 -3.223929,-0.328616 -3.693586,-0.52524 -1.849295,-0.774214 -3.318036,-2.625172 -3.330909,-4.197723 l -0.0052,-0.639368 H 43.587945 54.549554 V 25.27606 23.120256 l -8.280781,0.0052 c -9.487975,0.006 -10.305568,-0.110337 -11.93208,-1.697272 -1.463203,-1.4276 -1.798895,-2.362248 -1.904987,-5.303921 -0.196299,-5.443011 1.438342,-7.5002799 6.534556,-8.2240429 2.204186,-0.313039 15.149674,0.0488 17.216202,0.481205 2.042689,0.427419 3.772676,2.1310709 4.024557,3.9632919 l 0.124386,0.904794 H 50.321359 c -5.505509,0 -10.331612,0.06275 -10.724676,0.139455 -0.657425,0.128285 -0.726197,0.235352 -0.858706,1.336861 -0.07923,0.658572 -0.07993,1.582325 -0.0017,2.052779 l 0.142467,0.855373 8.371493,-0.04163 c 9.190639,-0.04571 9.896953,0.03314 11.444248,1.277521 1.940341,1.560475 2.754393,4.35229 2.300005,7.887932 -0.411529,3.202152 -1.830174,5.020765 -4.530499,5.807811 -1.048476,0.305592 -12.932506,0.467213 -16.808083,0.228584 z"
   style="fill:#000000;stroke-width:0.235379" /></svg>
