<?xml version="1.0" encoding="UTF-8" standalone="no"?>
<svg
   xmlns:dc="http://purl.org/dc/elements/1.1/"
   xmlns:cc="http://creativecommons.org/ns#"
   xmlns:rdf="http://www.w3.org/1999/02/22-rdf-syntax-ns#"
   xmlns:svg="http://www.w3.org/2000/svg"
   xmlns="http://www.w3.org/2000/svg"
   xmlns:sodipodi="http://sodipodi.sourceforge.net/DTD/sodipodi-0.dtd"
   xmlns:inkscape="http://www.inkscape.org/namespaces/inkscape"
   width="53.523121"
   height="53.398502"
   viewBox="0 0 53.523121 53.398502"
   version="1.1"
   id="svg21"
   sodipodi:docname="DOTA.svg"
   inkscape:version="1.0 (4035a4fb49, 2020-05-01)">
  <metadata
     id="metadata27">
    <rdf:RDF>
      <cc:Work
         rdf:about="">
        <dc:format>image/svg+xml</dc:format>
        <dc:type
           rdf:resource="http://purl.org/dc/dcmitype/StillImage" />
        <dc:title>BMW-logo-grey-fallback-53px</dc:title>
      </cc:Work>
    </rdf:RDF>
  </metadata>
  <defs
     id="defs25" />
  <sodipodi:namedview
     inkscape:document-rotation="0"
     pagecolor="#ffffff"
     bordercolor="#666666"
     borderopacity="1"
     objecttolerance="10"
     gridtolerance="10"
     guidetolerance="10"
     inkscape:pageopacity="0"
     inkscape:pageshadow="2"
     inkscape:window-width="1920"
     inkscape:window-height="1018"
     id="namedview23"
     showgrid="false"
     inkscape:zoom="7.9245283"
     inkscape:cx="42.547112"
     inkscape:cy="26.521792"
     inkscape:window-x="-6"
     inkscape:window-y="-6"
     inkscape:window-maximized="1"
     inkscape:current-layer="svg21" />
  <!-- Generator: Sketch 62 (91390) - https://sketch.com -->
  <title
     id="title2">BMW-logo-grey-fallback-53px</title>
  <desc
     id="desc4">Created with Sketch.</desc>
  <path
     id="path9"
     d="M 22.528078,53.270985 C 22.137597,53.11347 21.782968,52.610246 21.633425,52.00146 l -0.105905,-0.43114 -1.12997,0.106041 c -0.955513,0.08967 -1.175022,0.06521 -1.421772,-0.15842 -0.277783,-0.251757 -0.312191,-0.248402 -0.716156,0.06982 l -0.424353,0.334282 -0.338152,-0.393698 c -0.387169,-0.450767 -0.505257,-0.489249 -0.505257,-0.164647 0,0.308025 -0.442153,0.290234 -0.797812,-0.0321 -0.241873,-0.219211 -0.309392,-0.226736 -0.420402,-0.04686 -0.106362,0.17235 -0.209001,0.179275 -0.524364,0.03538 -0.349244,-0.159358 -0.392114,-0.145888 -0.392114,0.123208 0,0.319815 -0.369936,0.414745 -0.540322,0.138652 -0.06079,-0.09851 -0.326656,-0.125276 -0.669021,-0.06735 -0.400076,0.06769 -0.62132,0.03195 -0.747932,-0.120835 -0.24724,-0.298339 -1.689274,-0.222017 -2.205517,0.116732 -0.407768,0.267569 -0.716505,0.212987 -0.716505,-0.126674 0,-0.278637 -1.4800296,-0.28084 -1.5867356,-0.0024 -0.12481,0.325753 -2.221362,0.286939 -2.81109,-0.05201 -0.419559,-0.241144 -0.481549,-0.242865 -0.736627,-0.02043 -0.153184,0.133577 -0.698516,0.284442 -1.211847,0.335253 -0.809955,0.08017 -0.969898,0.05192 -1.209958,-0.213728 -0.22324,-0.247038 -0.39624,-0.288541 -0.896406,-0.215054 -0.414111,0.06084 -0.71403808,0.02103 -0.90383008,-0.119969 -0.27196,-0.202049 -0.27845,-0.43153 -0.152478,-5.391105 l 0.131574,-5.180069 0.45743408,-0.08001 c 0.441402,-0.0772 0.45914,-0.11203 0.506114,-0.993734 0.02677,-0.502549 0.06108,-1.61409 0.07624,-2.47009 0.01783,-1.007085 0.09483,-1.624145 0.218156,-1.748419 0.326044,-0.328538 0.216253,-0.54197 -0.569666,-1.107419 l -0.76026308,-0.546987 0.09225,-2.864917 c 0.06688,-2.077073 0.146874,-2.909133 0.29089403,-3.025709 0.10925605,-0.08844 0.18686505,-0.294583 0.17246305,-0.458101 -0.01944,-0.220783 0.05662,-0.285943 0.295538,-0.253157 0.293175,0.04023 0.329319,-0.04783 0.407365,-0.992552 0.08149,-0.986409 0.06449,-1.058927 -0.350488,-1.494804 -0.239873,-0.251955 -0.50895705,-0.65154 -0.59796305,-0.887968 -0.24036603,-0.638478 -0.19619703,-1.701755 0.0962,-2.31581 0.24372505,-0.511841 0.24283705,-0.584197 -0.01603,-1.305129 -0.15073303,-0.419785 -0.23582203,-0.916956 -0.18908703,-1.104826 0.04674,-0.187869 0.09609,-3.708623 0.10968403,-7.823898 0.02452,-7.425232 0.02234,-7.4826765 -0.28658703,-7.5296577 -0.471443,-0.071697 -0.643499,-0.3692219 -0.507719,-0.8779622 0.08991,-0.3368854 0.230868,-0.4683567 0.564508,-0.5265253 C 0.89733035,2.0664848 1.0740794,1.931822 1.1105774,1.7349129 c 0.09861,-0.5320247 0.346443,-0.685975 1.104284,-0.685975 0.603033,0 0.833933,-0.083989 1.259403,-0.4581011 0.589149,-0.51803405 0.788478,-0.56463202 0.922222,-0.21559213 0.07568,0.19749623 0.301796,0.23377923 1.218239,0.19547713 0.782934,-0.032722 1.201219,0.016055 1.374791,0.1603165 0.211934,0.1761457 0.29066,0.1700222 0.523158,-0.040692 0.214581,-0.194476 0.313646,-0.20801758 0.458745,-0.062707 0.129074,0.1292622 1.009285,0.1936671 2.9093956,0.2128801 2.302996,0.023287 2.787084,0.068724 3.130086,0.2937954 0.35697,0.234237 0.657769,0.2542005 2.501831,0.1660429 1.723014,-0.082371 2.148935,-0.060171 2.393071,0.1247317 0.40185,0.3043528 0.450002,0.2934629 0.650445,-0.147101 0.113453,-0.2493658 0.297793,-0.3817509 0.531569,-0.3817509 0.196837,0 0.512588,-0.1649146 0.70167,-0.3664768 0.428586,-0.45687299 1.352296,-0.60441739 1.729706,-0.27628615 0.239536,0.20825927 0.296163,0.20541683 0.55347,-0.0277821 0.226696,-0.20545654 0.521622,-0.25031838 1.410421,-0.2145421 1.033284,0.0415921 1.127714,0.0729055 1.172514,0.38881099 0.0617,0.43509606 0.564795,0.45940986 0.789904,0.0381751 0.197706,-0.36995661 0.641413,-0.39182456 1.152015,-0.0567769 0.350054,0.22969816 0.428379,0.22969816 1.028959,0 0.357537,-0.13674309 0.949141,-0.24862381 1.31468,-0.24862381 0.570365,0 0.782471,0.10083616 1.49571,0.71106357 0.457105,0.3910849 0.90741,0.8787962 1.000681,1.0838029 0.149314,0.3281839 0.234197,0.3600548 0.710124,0.2666234 0.297295,-0.058364 0.812494,-0.150963 1.144884,-0.2057759 0.547193,-0.090235 0.617356,-0.1548072 0.741896,-0.6827762 0.172754,-0.7323695 0.4982,-0.86753707 2.088794,-0.86753707 0.809947,0 1.443248,0.0928869 1.934169,0.28368647 0.402072,0.1562682 1.354069,0.3263204 2.119545,0.3786077 1.279836,0.087422 1.412323,0.069809 1.67685,-0.2229156 0.237752,-0.263097 0.401482,-0.3021526 0.950662,-0.2267691 0.878459,0.1205817 1.346521,-0.012917 1.460015,-0.41641774 0.09162,-0.32574251 0.09851,-0.32441925 0.464527,0.089283 0.425934,0.48142144 1.053126,0.55373664 1.476294,0.17021654 0.256828,-0.2327638 0.310506,-0.22298917 0.791003,0.1440387 0.542416,0.4143231 0.925959,0.4137759 1.570819,-0.00224 0.567758,-0.36627719 1.99919,0.1243442 3.387674,1.1611222 0.507511,0.3789563 0.510934,0.3898195 0.408527,1.2963042 -0.0568,0.50278 -0.199217,1.09995 -0.31648,1.3270446 -0.184618,0.3575301 -0.180116,0.5635992 0.03356,1.5367022 0.348466,1.5869128 0.383258,9.8465604 0.04719,11.2020244 -0.22351,0.901476 -0.236354,0.916964 -0.798955,0.963596 -0.314486,0.02607 -0.571792,0.0844 -0.571792,0.129623 0,0.04523 0.112596,0.319852 0.250212,0.610279 0.248212,0.523834 0.246532,0.531944 -0.210422,1.01563 -0.987493,1.045264 -0.970315,1.263148 0.206175,2.615059 0.609534,0.700418 0.649152,0.799162 0.565593,1.409681 -0.07751,0.566358 -0.03995,0.697457 0.273565,0.954757 0.312582,0.256532 0.337158,0.341432 0.175687,0.606931 -0.283504,0.466151 -0.411311,1.485134 -0.202486,1.614383 0.131582,0.08144 0.127348,0.168202 -0.01669,0.342015 -0.106152,0.128091 -0.195252,0.620159 -0.198001,1.093484 -0.0048,0.828364 -0.02104,0.862432 -0.433377,0.909784 -0.693518,0.07964 -0.469569,0.542896 0.313186,0.647847 0.353759,0.04743 0.678254,0.121345 0.721099,0.16425 0.152278,0.152501 0.427553,21.527975 0.279152,21.676592 -0.146489,0.146703 -0.624829,-0.04462 -2.333601,-0.933355 -0.881153,-0.458289 -1.564779,-0.537823 -2.712529,-0.315575 -0.819622,0.158708 -0.906485,0.246489 -0.590228,0.59646 0.139259,0.154102 0.253196,0.343855 0.253196,0.421673 0,0.249445 -1.110493,0.561244 -2.246526,0.630768 -0.91545,0.05603 -1.215655,0.01113 -1.766008,-0.264135 -0.558911,-0.279541 -0.751954,-0.307057 -1.228925,-0.175167 -0.455203,0.125871 -0.732122,0.09918 -1.416091,-0.13648 l -0.850233,-0.29295 -1.087285,0.370018 c -1.465306,0.498662 -2.469794,0.634541 -2.780686,0.376146 -0.203518,-0.16915 -0.265237,-0.159782 -0.387387,0.0588 -0.07991,0.143007 -0.28568,0.260012 -0.457258,0.260012 -0.171579,0 -0.511528,0.142311 -0.755444,0.316247 -0.454117,0.323833 -0.45799,0.3219 -0.633555,-0.316247 -0.05333,-0.193853 -0.424223,-0.221171 -2.41361,-0.177772 -2.067557,0.0451 -2.378134,0.08536 -2.57931,0.334319 -0.368805,0.456399 -0.960327,0.515955 -1.731496,0.174332 -0.591742,-0.262136 -0.717103,-0.275021 -0.87085,-0.0895 -0.227064,0.273995 -0.718205,0.268988 -1.209605,-0.01234 -0.751449,-0.430193 -2.235626,-0.231997 -2.447801,0.326877 -0.148623,0.391479 -0.206143,0.408243 -0.707228,0.206108 z m -7.205315,-9.25914 c 0.876071,-0.306178 2.33596,-0.813296 3.244195,-1.126928 0.908235,-0.313633 1.719998,-0.639004 1.803919,-0.723047 0.10179,-0.101938 -1.05699,-1.34446 -3.481073,-3.732641 -5.672917,-5.588896 -6.513967,-6.382126 -6.766877,-6.382126 -0.135673,0 -0.3217746,0.24381 -0.4370886,0.572626 -0.110449,0.314944 -0.371199,0.916202 -0.579444,1.336128 -0.208246,0.419926 -0.507677,1.088966 -0.665403,1.486756 -0.157727,0.397791 -0.519556,1.222373 -0.804065,1.832404 -0.923488,1.980102 -1.070968,2.493385 -0.92054,3.203782 0.124075,0.58594 0.285737,0.755897 1.889183,1.986114 1.213474,0.931017 1.8450426,1.322973 2.0507516,1.272708 0.323986,-0.07916 1.505347,0.387166 1.674281,0.660906 0.199674,0.323552 1.406033,0.167651 2.992161,-0.386682 z m 28.694834,-0.355987 c 0.340004,-0.267838 1.628242,-3.182288 2.127692,-4.81359 0.482376,-1.575538 0.74014,-2.79806 0.826104,-3.91805 l 0.0981,-1.278138 -0.966239,-0.684964 c -0.531432,-0.37673 -1.185253,-0.822393 -1.452938,-0.990364 -0.267684,-0.16797 -0.872314,-0.563082 -1.343622,-0.878027 -0.667072,-0.445758 -1.006149,-0.572626 -1.530456,-0.572626 -0.648426,0 -0.67531,-0.0185 -0.721309,-0.496276 -0.04448,-0.46203 -0.279268,-0.652131 -3.402297,-2.754803 -1.844984,-1.24219 -4.280821,-2.887443 -5.41297,-3.656118 -8.999853,-6.110473 -12.677853,-8.553383 -12.957102,-8.606045 -0.875194,-0.16505 -1.061295,-0.249509 -1.147227,-0.52065 -0.05881,-0.185567 -0.230724,-0.305045 -0.438922,-0.305045 -0.205022,0 -0.480678,-0.187514 -0.687508,-0.467676 -0.292095,-0.395653 -0.413917,-0.452574 -0.791065,-0.369618 -0.367855,0.08091 -0.445802,0.04848 -0.445802,-0.185499 0,-0.155956 -0.101947,-0.429319 -0.226549,-0.607472 -0.259014,-0.370335 -2.159473,-1.65202 -3.999427,-2.6972466 -1.140156,-0.6476915 -1.342711,-0.711599 -2.2554096,-0.711599 -0.795099,0 -1.205364,0.094865 -1.981145,0.458101 -0.538114,0.251956 -1.045817,0.4580996 -1.128227,0.4580996 -0.47574,0 -0.210949,0.476723 0.921433,1.658921 0.700777,0.731607 1.994599,2.117439 2.8751596,3.079628 0.880561,0.962189 2.805324,2.986707 4.277252,4.498931 1.471929,1.512223 3.147101,3.247683 3.722608,3.856575 0.702582,0.743341 1.160443,1.107078 1.393555,1.107078 0.398157,0 0.597512,0.246825 0.555001,0.687151 -0.02007,0.2079 0.71943,1.082814 2.316332,2.740484 1.947273,2.021371 2.383559,2.403715 2.567966,2.250448 0.270481,-0.224807 0.371443,-0.118287 0.914066,0.964382 0.210463,0.419926 0.659027,1.07272 0.996807,1.450653 0.540178,0.60439 0.650388,0.665245 0.915044,0.505264 0.378345,-0.228704 0.486254,-0.121694 0.486254,0.482199 0,0.530318 0.231932,0.844941 0.622871,0.844941 0.141307,0 0.36932,0.171788 0.506692,0.381751 0.137373,0.209963 0.377016,0.381751 0.53254,0.381751 0.383118,0 0.621026,0.320008 0.581512,0.782182 -0.02605,0.304623 0.462805,0.904681 2.406964,2.954513 5.043958,5.31812 4.624201,5.021009 7.242706,5.126517 1.132149,0.04562 2.409429,0.09716 2.8384,0.114526 0.580289,0.0235 0.878045,-0.04569 1.163156,-0.270289 z M 42.236138,18.74732 c 0.101047,-0.163736 1.146722,-5.720453 1.189199,-6.319407 0.01206,-0.17013 -0.07866,-0.310353 -0.207257,-0.320317 -0.474828,-0.03679 -0.497824,-0.07185 -0.236703,-0.360804 0.147399,-0.163111 0.243802,-0.366699 0.21423,-0.452419 -0.02957,-0.08572 -0.669386,-0.576177 -1.421808,-1.089905 -1.311848,-0.8956819 -1.399532,-0.9310949 -2.134693,-0.8621286 -1.333536,0.1251009 -7.577988,1.7867786 -7.661895,2.0388666 -0.02765,0.08307 0.413151,0.489356 0.979557,0.902866 0.566404,0.41351 1.392258,1.078234 1.835233,1.477164 0.442973,0.398929 0.870951,0.725326 0.95106,0.725326 0.08011,0 0.851303,0.531909 1.713763,1.182019 2.144039,1.616147 2.747091,2.018662 3.029252,2.02191 0.132723,0.0015 0.461879,0.277639 0.731455,0.61358 0.49089,0.611738 0.824923,0.757093 1.018607,0.443249 z"
     style="fill:#000000;stroke-width:0.152589" />
</svg>
