<?xml version="1.0" encoding="UTF-8" standalone="no"?>
<svg
   xmlns:dc="http://purl.org/dc/elements/1.1/"
   xmlns:cc="http://creativecommons.org/ns#"
   xmlns:rdf="http://www.w3.org/1999/02/22-rdf-syntax-ns#"
   xmlns:svg="http://www.w3.org/2000/svg"
   xmlns="http://www.w3.org/2000/svg"
   xmlns:sodipodi="http://sodipodi.sourceforge.net/DTD/sodipodi-0.dtd"
   xmlns:inkscape="http://www.inkscape.org/namespaces/inkscape"
   version="1.1"
   id="svg187"
   width="7587.2173"
   height="7351.1675"
   viewBox="0 0 7587.2173 7351.1674"
   sodipodi:docname="квадрокоптер1.svg"
   inkscape:version="1.0 (4035a4fb49, 2020-05-01)">
  <metadata
     id="metadata193">
    <rdf:RDF>
      <cc:Work
         rdf:about="">
        <dc:format>image/svg+xml</dc:format>
        <dc:type
           rdf:resource="http://purl.org/dc/dcmitype/StillImage" />
        <dc:title></dc:title>
      </cc:Work>
    </rdf:RDF>
  </metadata>
  <defs
     id="defs191" />
  <sodipodi:namedview
     inkscape:document-rotation="0"
     pagecolor="#ffffff"
     bordercolor="#666666"
     borderopacity="1"
     objecttolerance="10"
     gridtolerance="10"
     guidetolerance="10"
     inkscape:pageopacity="0"
     inkscape:pageshadow="2"
     inkscape:window-width="1920"
     inkscape:window-height="1018"
     id="namedview189"
     showgrid="false"
     inkscape:zoom="0.11414791"
     inkscape:cx="3917.4469"
     inkscape:cy="3693.1314"
     inkscape:window-x="-6"
     inkscape:window-y="-6"
     inkscape:window-maximized="1"
     inkscape:current-layer="g195" />
  <g
     transform="translate(121.39047,13.694889)"
     inkscape:groupmode="layer"
     inkscape:label="Image"
     id="g195">
    <path
       id="path8"
       d="m 5072.9466,7333.8575 c -4.5922,-2.4392 -11.9723,-9.7369 -16.4002,-16.2169 -7.346,-10.75 -7.9044,-14.2976 -6.3765,-40.5141 3.3387,-57.2879 44.8874,-143.5676 124.0837,-257.6717 124.7104,-179.6799 341.4446,-407.4767 510.5084,-536.5666 31.7804,-24.2661 92.7181,-66.503 119.6694,-82.9447 4.9427,-3.0152 4.2341,-5.83 -6.5604,-26.0677 -27.719,-51.9685 -40.1963,-107.4095 -39.7778,-176.7492 0.2264,-37.6577 1.9703,-54.4465 8.5325,-82.1946 l 8.2472,-34.8703 -116.9294,-114.0767 c -200.3009,-195.4141 -316.3065,-303.3739 -481.9998,-448.5705 -332.2965,-291.1906 -653.5703,-526.0391 -900.845,-658.5106 l -42.2536,-22.6364 -55.7746,26.8512 c -132.9881,64.0236 -247.6912,97.4143 -403.9437,117.5899 -67.2145,8.6792 -239.6522,8.7485 -309.2958,0.1251 -153.9752,-19.0665 -291.8686,-60.1471 -423.5259,-126.1758 l -37.0584,-18.5855 -61.5017,35.3017 c -276.79,158.8752 -576.4464,373.7361 -851.9985,610.9034 -190.0545,163.5796 -362.4309,330.4901 -536.0963,519.0966 l -56.0962,60.9225 8.0965,42.0629 c 16.4103,85.2547 10.1511,168.8765 -18.0703,241.4129 -17.9687,46.1845 -18.7959,41.8642 11.3206,59.1327 38.3484,21.989 140.8405,91.1655 194.3879,131.2015 258.335,193.15 487.9683,432.9624 565.9054,590.9909 40.0676,81.2427 35.3041,129.6622 -13.7581,139.8473 -95.6042,19.8473 -355.1543,-130.7828 -587.0498,-340.6949 -121.9652,-110.403 -270.5476,-271.7171 -327.4472,-355.5052 l -13.5634,-19.9731 -21.555,13.0949 c -43.4371,26.3892 -90.864,41.3027 -151.4773,47.6333 -175.2257,18.3001 -344.8722,-75.7011 -424.5034,-235.2183 -15.8996,-31.85 -32.0736,-81.0781 -38.3157,-116.6197 -6.9564,-39.6098 -5.454,-110.163 3.217,-151.0594 8.7878,-41.4476 23.7674,-84.9502 41.1793,-119.5903 l 12.8575,-25.5793 -29.3045,-14.4692 C 458.8082,5825.1969 72.604404,5481.3716 -65.421396,5259.0984 -107.3978,5191.5006 -127.9836,5131.218 -119.5146,5100.6944 c 16.7365,-60.3211 113.8982035,-44.4764 272.3597,44.4145 144.179,80.879 328.2009,227.9845 502.0236,401.3135 104.0695,103.7739 181.4782,197.3973 220.0711,266.1688 4.4254,7.8858 8.8067,13.9649 9.7363,13.5086 0.9295,-0.456 14.8147,-7.3291 30.8558,-15.2731 35.4772,-17.5697 81.7306,-29.7283 132.3457,-34.7896 42.9612,-4.2963 79.558,-2.1975 130.3644,7.4762 19.2359,3.6625 36.8261,6.1957 39.0894,5.6292 5.2275,-1.3085 137.7253,-140.3828 226.4968,-237.7389 320.8597,-351.888 590.4857,-697.2385 774.5036,-992.0234 49.3312,-79.0256 100.1634,-170.5001 145.6487,-262.101 l 45.384,-91.3971 -15.2024,-36.2859 c -45.5431,-108.7041 -79.5763,-241.1304 -95.2894,-370.7794 -8.2327,-67.9281 -8.2289,-209.3239 0.01,-277.1493 20.6454,-170.0109 61.6332,-308.3025 133.9648,-451.9937 l 29.2753,-58.157 -10.0962,-17.8993 c -225.7485,-400.227 -524.9222,-797.7034 -873.592,-1160.6389 -119.8193,-124.7215 -335.5568,-327.4136 -345.5862,-324.6889 -2.7888,0.7577 -19.5184,5.329 -37.177,10.1584 -103.4745,28.2994 -220.7037,13.2055 -311.696,-40.1323 -14.3309,-8.4005 -26.7685,-15.2736 -27.6393,-15.2736 -0.8707,0 -6.339,8.3125 -12.1518,18.4722 -5.8128,10.1597 -24.1805,37.6279 -40.8171,61.0404 -183.2855,257.936 -490.793,539.1653 -709.455296,648.8286 -116.5773,58.464 -179.3223,53.7485 -179.3641,-13.4796 -0.073,-118.1544 191.232096,-382.0832 441.114196,-608.5699 138.1623,-125.2267 229.7382,-195.4164 348.6977,-267.2642 l 7.2892,-4.4025 -11.6551,-26.9581 c -20.8401,-48.2028 -28.8078,-86.4414 -30.7103,-147.3852 -1.2871,-41.2296 -0.3657,-61.6856 3.8763,-86.065 23.0344,-132.38114 107.1909,-246.47588 226.065,-306.48649 62.1678,-31.38392 120.7333,-45.19497 191.6484,-45.19497 48.3816,0 90.1564,6.12304 130.1409,19.07513 29.3583,9.50995 71.0804,29.08746 91.3675,42.87292 l 12.7583,8.66944 26.2507,-40.1383 C 1420.9409,609.71182 1512.218,500.81307 1635.0101,377.68287 1820.252,191.9308 2026.4224,40.861039 2153.9719,-2.5822908 c 36.7749,-12.5255602 76.6874,-14.7683902 91.929,-5.16584 17.976,11.3253 22.8483,21.9970498 22.4351,49.1395598 -1.1271,74.044831 -82.4075,216.112461 -211.8501,370.286831 -113.4992,135.18476 -281.8355,293.08119 -437.3629,410.23834 -40.5901,30.57616 -121.0851,83.90496 -135.9251,90.05186 -5.694,2.3586 -10.3528,5.5396 -10.3528,7.069 0,1.5294 5.1904,15.6554 11.5342,31.3913 32.3817,80.32274 39.2442,160.56644 20.7633,242.78564 l -7.4485,33.137 81.3783,77.0904 c 188.9252,178.9707 318.9637,295.2158 492.0826,439.8865 378.5261,316.324 736.0692,559.7531 1003.2246,683.0338 l 38.1543,17.6066 37.9021,-13.8834 c 106.2583,-38.9218 218.1833,-65.4709 331.9866,-78.7487 57.4141,-6.6987 221.9652,-5.6295 280.5634,1.823 147.9765,18.8197 278.7745,56.8164 427.2219,124.1075 l 24.9685,11.3182 24.0456,-12.9736 c 540.7407,-291.751 1071.6409,-694.1092 1493.5924,-1131.963 65.8019,-68.2818 77.2448,-81.64 75.2856,-87.8873 -18.6537,-59.4877 -27.6625,-123.5784 -23.8418,-169.6206 4.9903,-60.1389 23.1563,-125.76584 49.081,-177.30994 l 12.6734,-25.1974 -39.26,-22.2859 C 5623.7996,757.49327 5373.7734,559.18158 5220.7653,396.56336 5080.2253,247.19675 5005.2023,130.87167 5005.252,62.404499 c 0.034,-42.18213 33.6984,-62.2761698 89.0738,-53.1622998 74.6769,12.2905298 178.0384,61.6595498 308.0968,147.1573208 217.1743,142.76616 444.4959,350.98475 571.9751,523.90901 13.7862,18.70069 27.6328,37.35072 30.7707,41.44445 l 5.7049,7.44314 25.3521,-10.35282 c 13.9437,-5.69405 42.8451,-14.91952 64.2254,-20.50104 50.7336,-13.24452 128.6792,-16.70288 179.0228,-7.94309 132.2545,23.01242 246.5334,107.30457 306.4864,226.06499 32.1492,63.6835 45.2031,120.40404 45.1815,196.31664 -0.034,66.8486 -10.0043,120.7499 -31.7172,171.2097 -1.6543,3.8445 2.7867,7.6257 17.2875,14.7191 107.235,52.457 308.0677,195.2474 441.2559,313.7296 58.1668,51.7443 173.7721,167.6023 223.6353,224.1241 110.7124,125.4971 179.8558,229.9025 183.8068,277.5447 1.759,21.2079 -1.445,26.5624 -21.297,35.5929 -106.5205,48.4551 -488.2547,-188.3417 -787.6898,-488.6187 -75.022,-75.2329 -128.0258,-135.5446 -165.8414,-188.7076 l -20.5237,-28.8531 -28.4654,18.2142 c -48.9238,31.3047 -103.8351,50.9994 -164.8205,59.115 -28.3629,3.7744 -117.746,2.3204 -141.288,-2.2984 -10.0999,-1.9816 -14.2472,1.4246 -87.8873,72.1877 -163.0266,156.6576 -371.4923,371.0734 -508.4924,523.0064 -221.0468,245.1406 -412.822,487.9148 -550.0601,696.338 -54.7825,83.198 -132.6155,215.2286 -154.734,262.4801 l -5.7763,12.3391 20.4977,48.5059 c 138.3587,327.415 139.6202,688.4703 3.598,1029.9663 l -16.6263,41.7424 30.9992,59.666 c 193.0773,371.6275 472.2112,769.0861 787.3272,1121.0748 141.6104,158.181 386.9689,402.6984 403.2693,401.8874 4.0472,-0.2028 21.8095,-4.5295 39.4715,-9.6182 39.7433,-11.4507 109.6215,-15.3404 155.2621,-8.6431 54.9999,8.0708 111.3576,28.365 153.3276,55.2129 l 18.847,12.0564 19.2609,-31.0817 c 90.3451,-145.7908 267.1616,-353.79 422.3165,-496.7942 174.2035,-160.5607 342.2671,-269.2093 430.7304,-278.4558 26.5436,-2.7742 47.2911,6.2299 55.8328,24.2302 7.8662,16.5773 5.8492,55.1263 -4.507,86.1357 -27.8251,83.3158 -117.4364,223.6283 -225.1734,352.5752 -163.8088,196.0567 -397.1956,404.6873 -546.1038,488.1769 -12.121,6.796 -16.1023,10.7888 -14.4172,14.4591 9.5713,20.8425 32.0965,95.1178 36.3925,120 6.6757,38.6677 6.7615,107.2043 0.1791,144.9391 -26.2083,150.291 -132.628,277.3301 -274.6803,327.9011 -60.7978,21.6443 -150.6626,30.1177 -206.9872,19.5164 -35.2056,-6.6263 -84.8451,-23.4882 -120.0635,-40.7841 -32.2003,-15.8136 -32.7188,-15.94 -36.9563,-9.0169 -2.3639,3.862 -10.1131,16.9092 -17.2205,28.9937 -45.8508,77.9588 -122.8151,178.6056 -221.0083,289.0141 -189.1984,212.7353 -424.3291,401.1329 -561.7791,450.1237 -29.5717,10.5404 -74.1482,14.1985 -87.3779,7.1706 z m 1146.577,-1036.2544 c 34.1466,-15.1045 56.2709,-46.5347 59.2972,-84.2383 1.4522,-18.0899 0.4009,-23.7151 -7.4183,-39.697 -31.6729,-64.7372 -129.1474,-75.6636 -169.2616,-18.9729 -9.6202,13.5955 -10.1317,16.007 -9.9637,46.9731 0.142,26.2797 1.6655,36.0068 7.8146,49.9061 20.6923,46.7754 72.6311,66.7758 119.5318,46.029 z m -5076.8778,-6.1396 c 19.199,-6.5419 47.3439,-31.1138 57.2848,-50.0126 11.1627,-21.2218 10.3325,-52.2041 -2.0761,-77.4744 -17.2944,-35.2202 -60.3142,-60.0362 -95.6744,-55.1895 -54.4078,7.4576 -93.7893,68.5842 -79.1683,122.8823 4.1507,15.4148 20.4989,38.7911 34.2541,48.9803 21.5861,15.9894 57.0189,20.4774 85.3799,10.8139 z m 8.2582,-5094.0007 c 26.3625,-13.137 49.8026,-44.2796 56.4423,-74.9895 5.8606,-27.1066 -20.3377,-67.3379 -54.9031,-84.3117 -15.7552,-7.7368 -23.7082,-9.4613 -43.1377,-9.3542 -20.1705,0.1112 -26.6461,1.7183 -42.2535,10.4866 -54.8512,30.8152 -63.5428,100.3131 -17.9912,143.8577 18.0258,17.2317 32.5233,22.7011 60.5854,22.8568 19.0005,0.1055 27.3804,-1.6303 41.2578,-8.5457 z m 5096.6262,3.81 c 18.2566,-7.6281 43.9724,-33.8546 52.3964,-53.4372 18.8782,-43.8835 -5.5835,-104.5949 -49.5441,-122.9627 -18.0351,-7.5356 -54.1305,-5.9115 -73.8754,3.324 -29.5321,13.8133 -51.8748,43.4496 -57.3968,76.1326 -8.4433,49.9766 39.9154,101.8113 94.9839,101.8113 11.9817,0 27.028,-2.1906 33.436,-4.868 z"
       style="fill:#000000;stroke-width:3.38028" />
  </g>
</svg>
