<?xml version="1.0" encoding="UTF-8" standalone="no"?>
<svg
   xmlns:dc="http://purl.org/dc/elements/1.1/"
   xmlns:cc="http://creativecommons.org/ns#"
   xmlns:rdf="http://www.w3.org/1999/02/22-rdf-syntax-ns#"
   xmlns:svg="http://www.w3.org/2000/svg"
   xmlns="http://www.w3.org/2000/svg"
   xmlns:sodipodi="http://sodipodi.sourceforge.net/DTD/sodipodi-0.dtd"
   xmlns:inkscape="http://www.inkscape.org/namespaces/inkscape"
   version="1.1"
   id="svg402"
   width="167.02299"
   height="200.13351"
   viewBox="0 0 167.02299 200.13351"
   sodipodi:docname="роботы.svg"
   inkscape:version="1.0 (4035a4fb49, 2020-05-01)">
  <metadata
     id="metadata408">
    <rdf:RDF>
      <cc:Work
         rdf:about="">
        <dc:format>image/svg+xml</dc:format>
        <dc:type
           rdf:resource="http://purl.org/dc/dcmitype/StillImage" />
        <dc:title></dc:title>
      </cc:Work>
    </rdf:RDF>
  </metadata>
  <defs
     id="defs406" />
  <sodipodi:namedview
     inkscape:document-rotation="0"
     pagecolor="#ffffff"
     bordercolor="#666666"
     borderopacity="1"
     objecttolerance="10"
     gridtolerance="10"
     guidetolerance="10"
     inkscape:pageopacity="0"
     inkscape:pageshadow="2"
     inkscape:window-width="1920"
     inkscape:window-height="1018"
     id="namedview404"
     showgrid="false"
     inkscape:zoom="2.9698485"
     inkscape:cx="0.72686578"
     inkscape:cy="105.79266"
     inkscape:window-x="-6"
     inkscape:window-y="-6"
     inkscape:window-maximized="1"
     inkscape:current-layer="g410" />
  <g
     transform="translate(-87.479299,2.8339851)"
     inkscape:groupmode="layer"
     inkscape:label="Image"
     id="g410">
    <path
       id="path22"
       d="m 207.73408,196.34961 c -5.23027,-0.80132 -18.50402,-6.01218 -19.46771,-7.6424 -0.2815,-0.47621 -1.23213,-0.86584 -2.1125,-0.86584 -0.88036,0 -2.80688,-1.31692 -4.28115,-2.92648 -2.41544,-2.63711 -2.65435,-3.46267 -2.41611,-8.34887 0.70874,-14.53569 5.15542,-35.75916 8.49463,-40.54385 2.12628,-3.0467 2.48245,-2.26868 -5.43416,-11.8707 l -4.91671,-5.96348 -6.96148,0.045 -6.96147,0.045 -5.86805,5.63776 -5.86804,5.63775 1.13727,7.76714 c 1.454,9.93024 -0.25498,44.31742 -2.3265,46.81259 -2.52785,3.04482 -14.6388,6.01329 -24.50867,6.00723 -8.20174,-0.005 -9.46928,-0.24453 -12.32058,-2.32791 -6.04456,-4.41662 -7.27452,-5.88526 -6.75191,-8.06221 0.29231,-1.21765 -0.059,-2.55141 -0.85353,-3.24085 -2.62319,-2.2761 0.23474,-8.65901 7.38838,-16.50121 3.92889,-4.30706 4.99491,-6.15558 5.22739,-9.06448 0.16062,-2.00979 0.48739,-4.29818 0.72615,-5.08536 2.12799,-7.01581 3.40582,-12.51813 3.40582,-14.66538 0,-3.60041 2.08051,-8.30457 4.85588,-10.97944 1.80138,-1.73615 2.23545,-2.8836 1.85103,-4.89315 -0.70626,-3.69199 2.63024,-11.07913 7.2163,-15.977128 2.08829,-2.23034 4.16546,-4.05516 4.61593,-4.05516 0.45046,0 2.03921,-1.073425 3.53054,-2.385389 1.49134,-1.311965 3.35969,-2.38539 4.1519,-2.38539 1.28655,0 1.27907,-0.186346 -0.07,-1.744904 -0.83073,-0.959697 -1.51041,-3.057166 -1.51041,-4.661042 0,-2.138231 -0.6695,-3.363891 -2.50975,-4.594628 -1.38036,-0.923169 -3.24444,-2.475346 -4.14241,-3.449283 -2.35164,-2.550603 -3.18384,-2.214548 -4.2186,1.703541 -1.13175,4.285354 -4.32034,7.975537 -6.89145,7.975537 -1.16952,0 -3.28114,1.690884 -5.36223,4.293798 -4.26892,5.33934 -7.00912,6.849063 -13.89526,7.65566 -5.03928,0.59026 -5.57244,0.46164 -7.63036,-1.840807 -1.21688,-1.361475 -3.084295,-2.475405 -4.149802,-2.475405 -2.224592,0 -7.800719,-5.713356 -9.964563,-10.209792 -1.560854,-3.243364 -2.007411,-11.275534 -0.674752,-12.136634 0.437117,-0.282443 1.04636,-1.82878 1.353875,-3.436305 0.68728,-3.592737 9.062351,-13.113554 13.108702,-14.902024 1.61521,-0.713918 3.87786,-1.298033 5.02812,-1.298033 2.7618,0 4.72475,-3.221136 3.46393,-5.684183 -1.47141,-2.874432 -1.09457,-8.374078 0.84633,-12.351656 2.71111,-5.555985 9.89959,-11.78696 15.86715,-13.753648 4.7851,-1.576994 5.43352,-1.587716 9.46559,-0.156512 2.38073,0.845051 4.86419,2.001178 5.5188,2.569172 0.8595,0.745776 1.88001,0.703524 3.67291,-0.152072 4.86734,-2.322755 10.2861,-3.941227 15.47208,-4.621188 5.07216,-0.665038 5.26542,-0.793841 5.32037,-3.545821 0.14213,-7.1193679 0.52869,-8.3224898 3.88139,-12.0802846 2.98263,-3.3430037 4.14255,-3.9691657 8.0866,-4.3653802 2.53248,-0.25441 7.52482,0.05242 11.09409,0.6818443 5.59081,0.9859157 6.87235,1.60020419 9.25347,4.4355287 2.53966,3.0241123 2.77175,3.8883599 2.8606,10.6526268 0.0532,4.048829 0.0546,8.434933 0.003,9.746897 -0.0698,1.7791 0.93697,3.17145 3.96122,5.478067 2.31586,1.766326 4.29465,2.687042 4.61398,2.14685 0.8539,-1.444493 12.0564,-1.134995 14.91806,0.412151 3.99538,2.160089 9.97187,9.578344 11.03157,13.692835 0.5346,2.075646 0.71293,5.227496 0.3963,7.00411 -0.78932,4.428886 -5.05237,12.117631 -8.84325,15.949484 l -3.14374,3.177718 5.13864,5.504038 c 2.82626,3.02722 5.54934,5.965706 6.05129,6.529968 0.50195,0.564262 4.71546,4.857063 9.36336,9.53956 l 8.45072,8.513623 -1.28813,3.81706 c -1.92019,5.69002 -4.7083,11.0725 -6.61801,12.77616 -0.93183,0.83129 -4.7902,3.0212 -8.57417,4.86647 -7.74907,3.77888 -8.49283,3.70151 -14.21839,-1.47919 -2.87987,-2.60581 -3.66256,-3.92396 -3.34882,-5.63984 0.33964,-1.8576 -0.21176,-2.53209 -3.23539,-3.95759 -2.00465,-0.9451 -4.12455,-1.40838 -4.71089,-1.02952 -0.60257,0.38935 -2.15107,-0.39793 -3.56154,-1.81073 l -2.49548,-2.49959 3.01261,6.45052 c 1.65694,3.54778 3.01861,7.16128 3.02595,8.03001 0.007,0.86872 1.45074,3.37823 3.20756,5.57667 2.82297,3.53259 3.19432,4.62435 3.19499,9.39329 4.2e-4,2.96787 0.42121,10.03166 0.9351,15.69731 l 0.93435,10.30119 5.37127,7.06669 c 2.95421,3.88669 5.64438,8.36667 5.97817,9.95552 0.88336,4.20491 -1.07755,12.81738 -3.44818,15.14466 -1.73947,1.70767 -11.51393,4.27137 -14.79097,3.87946 -0.50195,-0.06 -3.26419,-0.46941 -6.13829,-0.90975 z M 200.18284,91.635896 c 0,-6.677903 0.26582,-7.833349 2.50975,-10.909131 1.38036,-1.892082 2.50974,-3.664257 2.50974,-3.938169 0,-0.273911 -2.6724,0.878208 -5.93869,2.560266 -6.18873,3.187055 -8.08135,6.005869 -6.17512,9.19709 0.51155,0.856394 1.22128,2.943147 1.57717,4.637222 0.40474,1.926584 1.55902,3.597931 3.08211,4.462718 1.33927,0.76042 2.43504,1.39977 2.43504,1.42078 0,0.021 0,-3.322839 0,-7.430776 z"
       style="fill:#000000;stroke-width:0.933165" />
  </g>
</svg>
