<?xml version="1.0" encoding="UTF-8" standalone="no"?>
<svg
   xmlns:dc="http://purl.org/dc/elements/1.1/"
   xmlns:cc="http://creativecommons.org/ns#"
   xmlns:rdf="http://www.w3.org/1999/02/22-rdf-syntax-ns#"
   xmlns:svg="http://www.w3.org/2000/svg"
   xmlns="http://www.w3.org/2000/svg"
   xmlns:sodipodi="http://sodipodi.sourceforge.net/DTD/sodipodi-0.dtd"
   xmlns:inkscape="http://www.inkscape.org/namespaces/inkscape"
   inkscape:version="1.0 (4035a4fb49, 2020-05-01)"
   sodipodi:docname="танки.svg"
   viewBox="0 0 876.25525 1107.4403"
   height="1107.4403"
   width="876.25525"
   id="svg356"
   version="1.1">
  <metadata
     id="metadata362">
    <rdf:RDF>
      <cc:Work
         rdf:about="">
        <dc:format>image/svg+xml</dc:format>
        <dc:type
           rdf:resource="http://purl.org/dc/dcmitype/StillImage" />
        <dc:title></dc:title>
      </cc:Work>
    </rdf:RDF>
  </metadata>
  <defs
     id="defs360" />
  <sodipodi:namedview
     inkscape:current-layer="g364"
     inkscape:window-maximized="1"
     inkscape:window-y="-6"
     inkscape:window-x="-6"
     inkscape:cy="642.30036"
     inkscape:cx="1242.1898"
     inkscape:zoom="0.45998015"
     showgrid="false"
     id="namedview358"
     inkscape:window-height="1018"
     inkscape:window-width="1920"
     inkscape:pageshadow="2"
     inkscape:pageopacity="0"
     guidetolerance="10"
     gridtolerance="10"
     objecttolerance="10"
     borderopacity="1"
     bordercolor="#666666"
     pagecolor="#ffffff"
     inkscape:document-rotation="0" />
  <g
     transform="translate(1055.5234,216.27576)"
     id="g364"
     inkscape:label="Image"
     inkscape:groupmode="layer">
    <path
       id="path36"
       d="m -836.5597,691.00368 -218.9637,-200.16097 0.046,-245.76627 0.046,-245.76627332 117.82329,-107.79296668 117.82328,-107.79296 h 203.39009 203.39007 l 116.86825,106.52856 116.86827,106.5285567 V 244.25354 491.72572 l -219.16419,199.71946 -219.16421,199.7194 z m 419.74771,-41.1087 192.61591,-176.04065 0.068,-229.60557 0.0678,-229.605543 -104.26883,-95.04899 -104.26884,-95.048987 -184.78357,-0.0226 -184.78358,-0.0226 -104.28283,95.610397 -104.28287,95.6104 V 244.78088 473.84095 l 196.53351,179.12093 c 163.9237,149.4004 197.21672,178.611 200.65144,176.0473 2.26489,-1.6905 90.79513,-82.2918 196.73386,-179.1141 z m -246.17335,70.7988 -45.53092,-40.1831 -0.014,-110.98212 -0.014,-110.9821 -60.80716,56.9365 -60.80907,56.9365 -66.50829,-60.80055 -66.50828,-60.80053 0.71912,-178.55482 0.71912,-178.554823 84.68605,-0.67524 84.68606,-0.67525 V 237.21457 382.07089 l 41.99308,38.20587 41.99309,38.20589 V 239.7395 20.996317 H -833.6427 -958.90485 l 85.3515,-77.81503 85.35151,-77.815037 h 171.70044 171.70043 l 83.77473,77.158067 c 46.0761,42.43693 83.77472,77.45369 83.77472,77.81504 0,0.36132 -55.43088,0.65696 -123.17972,0.65696 H -523.61096 V 239.09177 457.18722 l 40.59332,-36.06918 40.59331,-36.06916 V 238.74096 92.433077 h 85.38594 85.38595 V 271.68273 450.9324 l -66.63413,60.68633 -66.63412,60.68635 -16.10267,-16.05829 c -8.85648,-8.83209 -35.56179,-33.93474 -59.34514,-55.78372 l -43.24246,-39.72537 v 108.63982 108.63986 l -45.52342,41.4298 c -25.03787,22.7864 -46.15264,41.4298 -46.92173,41.4298 -0.76909,0 -21.88724,-18.0824 -46.92923,-40.1832 z"
       style="fill:#000000;stroke-width:2.67254" />
  </g>
</svg>
