<?xml version="1.0" encoding="UTF-8"?>
<!DOCTYPE svg PUBLIC "-//W3C//DTD SVG 1.1//EN" "http://www.w3.org/Graphics/SVG/1.1/DTD/svg11.dtd">
<!-- Creator: CorelDRAW 2019 (64-Bit) -->
<svg xmlns="http://www.w3.org/2000/svg" xml:space="preserve" width="88.1557mm" height="64.9334mm" version="1.1" style="shape-rendering:geometricPrecision; text-rendering:geometricPrecision; image-rendering:optimizeQuality; fill-rule:evenodd; clip-rule:evenodd"
viewBox="0 0 413.46 304.55"
 xmlns:xlink="http://www.w3.org/1999/xlink">
 <defs>
  <style type="text/css">
   <![CDATA[
    .fil0 {fill:black}
   ]]>
  </style>
 </defs>
 <g id="Слой_x0020_1">
  <metadata id="CorelCorpID_0Corel-Layer"/>
  <path class="fil0" d="M210.44 59.67c37.25,0.19 72.11,3.17 101.94,8.21l0 -51.36 68.24 30.51 -61.25 12.37 0 9.72c10.94,2.02 21.13,4.33 30.43,6.88 39.33,10.79 63.66,26.81 63.66,45.48 0,6.15 -2.64,12 -7.58,17.48l0 42.26 0 53.77 0 14.95c-30.5,29.99 -99.61,51.64 -181.69,54.33l-0.27 0.01 -0.27 0.01 -0.02 0 -0.52 0.02 -0.27 0.01 -0.27 0.01 -0.27 0.01 -0.27 0.01 -0.27 0.01 -1.08 0.03 -0.27 0.01 -0.27 0.01 -0.27 0.01 -0.27 0.01 -0.27 0.01 -0.06 0 -0.21 0 -0.27 0.01 -0.27 0.01 -0.27 0 -1.36 0.03 -0.27 0 -0.82 0.02 -0.27 0 -0.27 0 -0.13 0 -0.14 0 -0.27 0 -0.27 0 -2.74 0.03 -0.27 0 -0.27 0 -0.2 0 -0.07 0 -0.27 0 -0.27 0 -3.02 0.01 -0.28 0 -0.27 0 -0.27 0 -0.28 0 -3.02 -0.01 -0.27 -0 -0.27 -0 -0.07 0 -0.2 -0 -0.27 -0 -0.27 -0 -2.73 -0.03 -0.27 -0 -0.27 -0 -0.14 -0 -0.13 -0 -0.27 -0 -0.27 -0 -0.82 -0.02 -0.27 -0 -1.36 -0.03 -0.27 -0 -0.27 -0.01 -0.27 -0.01 -0.21 -0 -0.06 -0 -0.27 -0.01 -0.27 -0.01 -0.27 -0.01 -0.27 -0.01 -0.27 -0.01 -1.08 -0.03 -0.27 -0.01 -0.27 -0.01 -0.27 -0.01 -0.27 -0.01 -0.27 -0.01 -0.53 -0.02 -0.01 0 -0.27 -0.01 -0.27 -0.01c-82.09,-2.71 -151.22,-24.35 -181.7,-54.33l0 -14.95 0 -53.78 0 -42.26c-4.94,-5.48 -7.58,-11.34 -7.58,-17.48 0,-18.66 24.33,-34.68 63.66,-45.48 6.17,-1.69 12.74,-3.28 19.65,-4.74l0 -54.73 68.24 30.51 -61.25 12.37 0 10.44c32.18,-6.24 71.16,-9.98 113.17,-10.16l0 -59.66 68.24 30.51 -61.25 12.37 0 16.79zm13.75 237.46l0 -74.12 -34.92 0 0 74.12c-11.68,-0.38 -23.11,-1.16 -34.19,-2.28l0 -0.2 0 -76.62c0,-7.18 2.91,-13.71 7.59,-18.43l0.02 -0.02c4.68,-4.72 11.16,-7.65 18.29,-7.65l51.5 0c7.13,0 13.61,2.93 18.29,7.65l0.02 0.02c4.68,4.72 7.59,11.24 7.59,18.43l0 76.62 0 0.2c-11.08,1.12 -22.51,1.89 -34.19,2.28zm-154.45 -19.93l0 -77.3c0,-7.65 -3.09,-14.91 -8.05,-20.44 -4.97,-5.53 -11.81,-9.33 -19.31,-10.05 -0.76,-0.07 -1.61,-0.11 -2.54,-0.11 -6.33,0 -12.03,2.32 -16.27,6.23 -4.25,3.91 -7.09,9.43 -7.69,15.81 -0.07,0.75 -0.1,1.62 -0.1,2.6l0 56c13.47,10.51 31.88,19.77 53.97,27.26zm261.39 3.95l0 -71.15c0,-1 -0.04,-1.88 -0.1,-2.62 -0.61,-6.73 -3.59,-12.56 -8.06,-16.69 -4.46,-4.12 -10.47,-6.57 -17.15,-6.57 -0.96,0 -1.82,0.04 -2.56,0.1l-0.04 0c-7.81,0.73 -14.95,4.67 -20.15,10.43 -5.2,5.76 -8.42,13.33 -8.42,21.31l0 76.96c20.34,-2.78 39.34,-6.77 56.49,-11.77zm66.55 -31.21l0 -56c0,-0.98 -0.03,-1.85 -0.1,-2.6 -0.6,-6.38 -3.44,-11.9 -7.69,-15.81 -4.24,-3.91 -9.94,-6.23 -16.27,-6.23 -0.93,0 -1.78,0.04 -2.54,0.11 -7.5,0.72 -14.34,4.52 -19.31,10.05 -4.97,5.53 -8.06,12.79 -8.06,20.44l0 77.3c22.09,-7.49 40.51,-16.75 53.97,-27.26zm-258.88 42.98l0 -76.96c0,-7.98 -3.23,-15.55 -8.42,-21.31 -5.2,-5.76 -12.34,-9.7 -20.15,-10.43l-0.04 -0c-0.74,-0.07 -1.6,-0.1 -2.56,-0.1 -6.69,0 -12.69,2.45 -17.15,6.57 -4.48,4.13 -7.45,9.96 -8.06,16.69 -0.06,0.74 -0.1,1.61 -0.1,2.62l0 71.15c17.15,5 36.15,8.99 56.49,11.77zm67.92 -190.58l3.25 0.01 0.17 0 0.37 0 0.54 0 2.15 0.02 0.34 0 0.19 0 0.54 0 0.54 0.01 0.54 0.01 0.53 0.01 0.53 0.01 0.51 0.01 0.03 0 0.53 0.01 2.11 0.04 0.01 0 0.53 0.01 0.14 0 0.38 0.01 0.53 0.01 0.53 0.01 0.53 0.01 0.52 0.01 0.53 0.01 0.31 0.01 0.22 0 0.52 0.01 0.52 0.01 1.05 0.03 0.52 0.01 0.47 0.01 0.05 0 0.52 0.02 0.52 0.02 0.52 0.02 0.52 0.02 0.52 0.02 0.52 0.02 0.12 0 0.4 0.01 0.51 0.02 0.51 0.02 0.51 0.02 0.51 0.02 0.51 0.02 0.28 0.01 0.23 0.01 0.51 0.02 0.51 0.02 0.51 0.02 0.51 0.02 0.51 0.02 0.44 0.02 0.07 0 0.51 0.02 2.02 0.1 0.5 0.03 0.09 0 0.41 0.02 6.32 -28.48c-12.86,-0.72 -26.18,-1.09 -39.84,-1.09 -13.66,0 -26.98,0.37 -39.84,1.09l6.32 28.48 0.41 -0.02 0.09 -0 0.5 -0.03 2.02 -0.1 0.51 -0.02 0.07 -0 0.44 -0.02 0.51 -0.02 0.51 -0.02 0.51 -0.02 0.51 -0.02 0.51 -0.02 0.23 -0.01 0.28 -0.01 0.51 -0.02 0.51 -0.02 0.51 -0.02 0.51 -0.02 0.51 -0.02 0.4 -0.01 0.12 -0 0.52 -0.02 0.52 -0.02 0.52 -0.02 0.52 -0.02 0.52 -0.02 0.52 -0.02 0.05 -0 0.47 -0.01 0.52 -0.01 1.05 -0.03 0.52 -0.01 0.52 -0.01 0.22 -0 0.31 -0.01 0.53 -0.01 0.52 -0.01 0.53 -0.01 0.53 -0.01 0.53 -0.01 0.38 -0.01 0.14 -0 0.53 -0.01 0.01 0 2.11 -0.04 0.53 -0.01 0.03 0 0.51 -0.01 0.53 -0.01 0.53 -0.01 0.54 -0.01 0.54 -0.01 0.54 -0 0.19 -0 0.34 -0 2.15 -0.02 0.54 -0 0.37 -0 0.17 -0 3.25 -0.01zm52.08 -26.83l-6.91 28.39 1.2 0.09 1.19 0.09 2.37 0.19 1.18 0.1 1.17 0.1 1.16 0.1 2.31 0.21 1.15 0.11 1.14 0.11 1.14 0.11 1.13 0.11 0.02 0 1.11 0.12 1.12 0.12 1.11 0.12 1.1 0.12 2.14 0.24 0.05 0.01 1.09 0.13 1.08 0.13 1.07 0.13 1.06 0.13 0.17 0.02 0.88 0.11 1.05 0.14 1.04 0.14 1.04 0.14 1.03 0.14 0.24 0.03 0.78 0.11 1.02 0.15 2.01 0.3 0.99 0.15 0.98 0.16 0.98 0.15 0.08 0.01 0.89 0.15 0.96 0.16 0.95 0.16 0.37 0.06 0.57 0.1 0.94 0.17 0.93 0.17 0.92 0.17 0.92 0.17 0.42 0.08 0.48 0.09 0.9 0.17 0.89 0.17 0 0 0.88 0.18 0.87 0.18 0.86 0.18 0.86 0.18 0.07 0.01 1.62 0.35 0.83 0.19 0.51 0.11 0.31 0.07 1.62 0.38 0.13 0.03 0.67 0.16 0.78 0.19 0.54 0.14 0.23 0.06 1.53 0.39 0.18 0.05 0.57 0.15 0.74 0.2 0.57 0.16 0.17 0.05 16.79 -27.63c-21.05,-4.73 -45.8,-8.29 -72.92,-10.31zm83.66 12.9l-18.08 28.1 0.34 0.13 0.06 0.02 0.09 0.04 0.69 0.27 0.38 0.15 0.2 0.08 0.17 0.07 0.74 0.31 0.37 0.16 0.08 0.03 0 0 0.98 0.44 0.31 0.14 0.03 0.02 0.05 0.02 0.95 0.46 0.19 0.09 0.13 0.07 0.63 0.33 0.3 0.16 0.21 0.11 0.68 0.38 0.27 0.16 0.01 0.01 0.12 0.07 0.71 0.43 0.17 0.11 0.1 0.06 0.7 0.46 0.28 0.2 0.57 0.41 0.26 0.2 0.53 0.43 0.14 0.12 0.06 0.06 0.57 0.52 0.07 0.06 0.05 0.05c0.2,0.19 0.38,0.38 0.56,0.58l0.01 0.01 0.01 0.01 0.02 0.03c0.17,0.19 0.33,0.38 0.48,0.57l0.07 0.1c0.14,0.19 0.28,0.38 0.4,0.56l0.08 0.13 0.28 0.48 0.09 0.17c0.08,0.17 0.16,0.33 0.23,0.5l0.07 0.19c0.06,0.16 0.11,0.33 0.16,0.49l0.04 0.15 0.01 0.03 56.87 -14.36c-7.19,-8.59 -24.91,-16.76 -49.79,-23.59 -1.21,-0.33 -2.44,-0.66 -3.68,-0.99zm57.02 32.55l-69.45 17.26 -0.01 0c-0.79,0.4 -1.63,0.79 -2.51,1.18l-0.02 0.01 -1.22 0.52 -0.12 0.05 -0.04 0.02 -1.13 0.45 -0.27 0.1 -0.06 0.02 -0.33 0.13 -1.01 0.38 -0.09 0.03 -1.31 0.47 -0.25 0.09 -0.1 0.03 -0.36 0.12 -1.1 0.37 -0.06 0.02 -0.32 0.1 -1.14 0.36 -0.23 0.07 -0.15 0.05 -0.39 0.12 -0.39 0.12 -0.4 0.12 -0.4 0.12 -0.02 0.01 -0.38 0.11 -0.06 0.02 -0.76 0.22 -0.41 0.12 -0.2 0.06 -0.21 0.06 -0.42 0.12 -0.42 0.11 -0.43 0.11 -0.4 0.11 -0.03 0 -0.43 0.11 -0.43 0.11 -0.44 0.11 -0.44 0.11 -0.17 0.04 -0.27 0.07 -0.44 0.11 -0.45 0.11 -0.45 0.11 -0.38 0.09 -0.08 0.02 -0.46 0.11 -0.46 0.11 -0.46 0.11 -0.47 0.11 -0.47 0.11 -0.47 0.11 5.76 15.05c12.45,-2.15 23.96,-4.67 34.29,-7.51 32.96,-9.04 53.35,-20.45 53.35,-32.06l-0.01 -0.49zm-97.09 41.59l-5.96 -14.63 -0.62 0.11 -0.49 0.09 -1.12 0.2 -1.13 0.2 -1.15 0.19 -1.16 0.19 -1.17 0.19 -0.01 0c-1.56,0.25 -3.15,0.49 -4.77,0.72l-1.22 0.18 -0.17 0.02 -1.07 0.15 -1.24 0.17 -1.09 0.15 -0.16 0.02 -1.26 0.16 -0.46 0.06 -0.81 0.1 -1.28 0.16 -0.61 0.07 -0.68 0.08 -1.3 0.15 -0.03 0 -1.29 0.15 -1.32 0.15 -1.33 0.14 -1.34 0.14 -1.11 0.11 -0.24 0.02 -1.36 0.14 -1.28 0.13 -0.09 0.01 -1.37 0.13 -1.38 0.13 -0.07 0.01 -1.32 0.11 -1.4 0.12 -0.23 0.02 -1.18 0.1 -1.42 0.11 -0.4 0.03 -1.02 0.08 -1.43 0.11 -1.42 0.1 -4.39 0.3 -0.92 0.06 -0.55 0.03 -1.48 0.09 -1.09 0.06 -0.39 0.02 -1.49 0.08 -1.28 0.07 -0.22 0.01 -1.51 0.07 -1.46 0.07 -0.05 0 -1.52 0.07 -1.53 0.07 -0.13 0 -2.91 0.11 -0.03 0 -0.3 0.01 -1.24 0.04 -1.55 0.05 -0.48 0.01 -2.63 0.07 -0.67 0.02 -2.47 0.06 -0.85 0.02 -0.72 0.01 -1.59 0.03 -1.04 0.02 -3.37 0.04 -0.37 0 -3.03 0.02 -0.18 0 -1.61 0 -1.62 0 -1.62 -0 -1.61 -0 -0.18 -0 -3.03 -0.02 -0.37 -0 -3.37 -0.04 -1.04 -0.02 -1.59 -0.03 -0.72 -0.01 -0.85 -0.02 -2.47 -0.06 -0.67 -0.02 -2.63 -0.07 -0.48 -0.01 -1.55 -0.05 -1.24 -0.04 -0.31 -0.01 -0.03 -0 -2.91 -0.11 -0.13 -0 -1.53 -0.07 -1.52 -0.07 -0.05 -0 -1.46 -0.07 -1.51 -0.07 -0.22 -0.01 -1.28 -0.07 -1.49 -0.08 -0.39 -0.02 -1.09 -0.06 -1.48 -0.09 -0.55 -0.03 -0.92 -0.06 -4.39 -0.3 -1.42 -0.1 -1.43 -0.11 -1.02 -0.08 -0.4 -0.03 -1.42 -0.11 -1.18 -0.1 -0.23 -0.02 -1.4 -0.12 -1.32 -0.11 -0.07 -0.01 -1.38 -0.13 -1.37 -0.13 -0.09 -0.01 -1.28 -0.13 -1.36 -0.14 -0.24 -0.02 -1.11 -0.11 -1.34 -0.14 -1.33 -0.14 -1.32 -0.15 -1.29 -0.15 -0.03 -0 -1.3 -0.15 -0.68 -0.08 -0.61 -0.07 -1.28 -0.16 -0.81 -0.1 -0.46 -0.06 -1.26 -0.16 -0.16 -0.02 -1.09 -0.15 -1.24 -0.17 -1.07 -0.15 -0.17 -0.02 -1.22 -0.18c-1.62,-0.24 -3.21,-0.47 -4.77,-0.72l-0.01 -0 -1.17 -0.19 -1.16 -0.19 -1.15 -0.19 -1.13 -0.2 -1.12 -0.2 -0.49 -0.09 -0.62 -0.11 -5.96 14.63c28.28,4.29 60.89,6.74 95.66,6.74 34.77,0 67.38,-2.45 95.66,-6.74zm-200.78 -1.53l5.76 -15.05 -0.47 -0.11 -0.47 -0.11 -0.47 -0.11 -0.46 -0.11 -0.46 -0.11 -0.46 -0.11 -0.08 -0.02 -0.38 -0.09 -0.45 -0.11 -0.45 -0.11 -0.44 -0.11 -0.27 -0.07 -0.17 -0.04 -0.44 -0.11 -0.44 -0.11 -0.43 -0.11 -0.43 -0.11 -0.03 -0 -0.4 -0.11 -0.43 -0.11 -0.42 -0.11 -0.42 -0.12 -0.21 -0.06 -0.2 -0.06 -0.41 -0.12 -0.76 -0.22 -0.06 -0.02 -0.38 -0.11 -0.02 -0.01 -0.4 -0.12 -0.4 -0.12 -0.39 -0.12 -0.39 -0.12 -0.15 -0.05 -0.23 -0.07 -1.14 -0.36 -0.32 -0.1 -0.06 -0.02 -1.1 -0.37 -0.36 -0.12 -0.1 -0.03 -0.25 -0.09 -1.31 -0.47 -0.09 -0.03 -1.01 -0.38 -0.33 -0.13 -0.06 -0.02 -0.27 -0.1 -1.12 -0.45 -0.04 -0.02 -0.12 -0.05 -1.22 -0.52 -0.02 -0.01c-0.89,-0.39 -1.73,-0.78 -2.51,-1.18l-0.01 -0 -69.45 -17.26 -0.01 0.49c0,11.61 20.39,23.01 53.35,32.06 10.33,2.84 21.83,5.36 34.29,7.51zm-84.08 -48.03l56.87 14.36 0.01 -0.03 0.04 -0.15c0.04,-0.17 0.1,-0.33 0.16,-0.49l0.07 -0.19c0.07,-0.17 0.14,-0.33 0.23,-0.5l0.09 -0.17c0.08,-0.16 0.18,-0.32 0.28,-0.48l0.08 -0.13c0.12,-0.19 0.26,-0.38 0.4,-0.56l0.07 -0.1c0.15,-0.19 0.31,-0.38 0.48,-0.57l0.02 -0.03 0.01 -0.01 0.01 -0.01c0.18,-0.2 0.36,-0.38 0.56,-0.58l0.05 -0.05 0.07 -0.06c0.18,-0.17 0.37,-0.35 0.57,-0.52l0.06 -0.06 0.14 -0.12 0.53 -0.43 0.26 -0.2 0.57 -0.41 0.28 -0.2 0.7 -0.46 0.1 -0.06 0.17 -0.11 0.71 -0.43 0.12 -0.07 0.01 -0.01 0.27 -0.16 0.68 -0.38 0.21 -0.11 0.3 -0.16 0.63 -0.33 0.13 -0.07 0.19 -0.09 0.95 -0.46 0.05 -0.02 0.03 -0.02 0.31 -0.14 0.98 -0.44 0 -0 0.08 -0.03 0.37 -0.16 0.74 -0.31 0.17 -0.07 0.2 -0.08 0.38 -0.15 0.69 -0.27 0.09 -0.04 0.06 -0.02 0.34 -0.13 -18.08 -28.1c-1.24,0.32 -2.47,0.65 -3.68,0.99 -24.88,6.83 -42.6,15 -49.79,23.59zm64.2 -27.17l16.79 27.63 0.17 -0.05 0.57 -0.16 0.74 -0.2 0.57 -0.15 0.18 -0.05 1.53 -0.39 0.24 -0.06 0.54 -0.14 0.78 -0.19 0.67 -0.16 0.13 -0.03 1.62 -0.38 0.31 -0.07 0.51 -0.11 0.83 -0.19 1.62 -0.35 0.07 -0.01 0.86 -0.18 0.86 -0.18 0.87 -0.18 0.88 -0.18 0 0 0.89 -0.17 0.9 -0.17 0.48 -0.09 0.42 -0.08 0.92 -0.17 0.92 -0.17 0.93 -0.17 0.94 -0.17 0.57 -0.1 0.37 -0.06 0.95 -0.16 0.96 -0.16 0.89 -0.15 0.08 -0.01 0.98 -0.15 0.98 -0.16 0.99 -0.15 2.01 -0.3 1.02 -0.15 0.78 -0.11 0.24 -0.03 1.03 -0.14 1.04 -0.14 1.04 -0.14 1.05 -0.14 0.88 -0.11 0.17 -0.02 1.06 -0.13 1.07 -0.13 1.08 -0.13 1.09 -0.13 0.05 -0.01 2.14 -0.24 1.1 -0.12 1.11 -0.12 1.12 -0.12 1.11 -0.12 0.02 0 1.13 -0.11 1.14 -0.11 1.14 -0.11 1.15 -0.11 2.31 -0.21 1.16 -0.1 1.17 -0.1 1.18 -0.1 2.37 -0.19 1.19 -0.09 1.2 -0.09 -6.91 -28.39c-27.12,2.02 -51.87,5.58 -72.92,10.31z"/>
 </g>
</svg>
