<?xml version="1.0" encoding="UTF-8"?>
<!DOCTYPE svg PUBLIC "-//W3C//DTD SVG 1.1//EN" "http://www.w3.org/Graphics/SVG/1.1/DTD/svg11.dtd">
<!-- Creator: CorelDRAW 2019 (64-Bit) -->
<svg xmlns="http://www.w3.org/2000/svg" xml:space="preserve" width="72.2272mm" height="66.5589mm" version="1.1" style="shape-rendering:geometricPrecision; text-rendering:geometricPrecision; image-rendering:optimizeQuality; fill-rule:evenodd; clip-rule:evenodd"
viewBox="0 0 458.69 422.69"
 xmlns:xlink="http://www.w3.org/1999/xlink">
 <defs>
  <style type="text/css">
   <![CDATA[
    .fil0 {fill:black}
   ]]>
  </style>
 </defs>
 <g id="Слой_x0020_1">
  <metadata id="CorelCorpID_0Corel-Layer"/>
  <path class="fil0" d="M174.29 0c57.48,0 104.07,46.59 104.07,104.07 0,57.48 -46.59,104.07 -104.07,104.07 -57.48,0 -104.07,-46.59 -104.07,-104.07 0,-57.48 46.59,-104.07 104.07,-104.07zm258.06 422.69l-208.36 0c-14.49,0 -26.34,-11.85 -26.34,-26.34l0 -140.17c0,-14.49 11.85,-26.34 26.34,-26.34l120.64 0 0 -13.69c0,-6.28 2.58,-12.02 6.73,-16.17l0.04 -0.04c4.15,-4.15 9.89,-6.73 16.17,-6.73l44.02 0c6.32,0 12.06,2.58 16.21,6.73 4.15,4.15 6.73,9.89 6.73,16.21l0 13.78c13.48,1.12 24.16,12.5 24.16,26.25l0 140.17c0,14.49 -11.85,26.34 -26.34,26.34zm-68.32 -192.85l51.11 0 0 -13.69c0,-0.96 -0.4,-1.85 -1.05,-2.5 -0.64,-0.64 -1.53,-1.05 -2.5,-1.05l-44.02 0c-0.98,0 -1.87,0.39 -2.51,1.02 -0.63,0.65 -1.03,1.54 -1.03,2.52l0 13.69zm-127.91 25.16c10.04,0 18.17,8.14 18.17,18.17 0,10.04 -8.14,18.18 -18.17,18.18 -10.04,0 -18.17,-8.14 -18.17,-18.18 0,-10.04 8.14,-18.17 18.17,-18.17zm93.02 16.75c33.46,0 60.59,27.12 60.59,60.59 0,33.46 -27.12,60.59 -60.59,60.59 -33.46,0 -60.59,-27.12 -60.59,-60.59 0,-33.46 27.12,-60.59 60.59,-60.59zm0 20.67c22.04,0 39.92,17.87 39.92,39.92 0,22.04 -17.87,39.92 -39.92,39.92 -22.04,0 -39.92,-17.87 -39.92,-39.92 0,-22.04 17.87,-39.92 39.92,-39.92zm-159.67 130.27l-112.8 0c-39.92,0 -54.88,-27.09 -56.31,-56.31 -1.43,-29.22 0.71,-76.98 18.53,-111.2 15.41,-29.59 35.09,-44.25 78.4,-47.67 20.05,15.74 45,25.51 72.18,26.69l0 188.5z"/>
 </g>
</svg>
