<?xml version="1.0" encoding="UTF-8"?>
<!DOCTYPE svg PUBLIC "-//W3C//DTD SVG 1.1//EN" "http://www.w3.org/Graphics/SVG/1.1/DTD/svg11.dtd">
<!-- Creator: CorelDRAW 2019 (64-Bit) -->
<svg xmlns="http://www.w3.org/2000/svg" xml:space="preserve" width="74.7539mm" height="70.4454mm" version="1.1" style="shape-rendering:geometricPrecision; text-rendering:geometricPrecision; image-rendering:optimizeQuality; fill-rule:evenodd; clip-rule:evenodd"
viewBox="0 0 163.42 154"
 xmlns:xlink="http://www.w3.org/1999/xlink">
 <defs>
  <style type="text/css">
   <![CDATA[
    .fil0 {fill:black}
   ]]>
  </style>
 </defs>
 <g id="Слой_x0020_1">
  <metadata id="CorelCorpID_0Corel-Layer"/>
  <path class="fil0" d="M24.59 0l57.12 0 57.12 0c0,0 0.65,4.15 0.16,11.93l24.42 0c0,0 0.72,23.86 -10.48,43.74 -7.8,13.84 -23.13,24 -37.34,27.07 -13.75,20.54 -27.37,22.82 -27.37,22.82 0,0 -3.25,16.63 10.12,30.01 13.38,13.38 25.31,13.01 25.31,13.01l0 5.42 -41.94 0 -41.94 0 0 -5.42c0,0 11.93,0.36 25.31,-13.01 13.38,-13.38 10.12,-30.01 10.12,-30.01 0,0 -13.62,-2.27 -27.37,-22.82 -14.21,-3.07 -29.54,-13.23 -37.34,-27.07 -11.21,-19.88 -10.48,-43.74 -10.48,-43.74l24.42 0c-0.49,-7.78 0.16,-11.93 0.16,-11.93zm97.16 72.16c1.5,-2.94 2.98,-6.14 4.42,-9.62 7.26,-17.58 10.56,-31.92 11.99,-42.41l16.79 0c-0.98,10.85 -4.36,23.01 -9.16,31.52 -2.47,4.39 -5.85,8.3 -9.64,11.6 -3.69,3.21 -8.83,6.53 -14.39,8.92zm-80.09 0c-1.5,-2.94 -2.98,-6.14 -4.42,-9.62 -7.26,-17.58 -10.56,-31.92 -11.99,-42.41l-16.79 0c0.98,10.85 4.36,23.01 9.16,31.52 2.47,4.39 5.85,8.3 9.64,11.6 3.69,3.21 8.83,6.53 14.39,8.92z"/>
 </g>
</svg>
