<?xml version="1.0" encoding="UTF-8" standalone="no"?>
<!-- Creator: CorelDRAW 2019 (64-Bit) -->

<svg
   xml:space="preserve"
   width="72.4991mm"
   height="64.1456mm"
   version="1.1"
   style="shape-rendering:geometricPrecision; text-rendering:geometricPrecision; image-rendering:optimizeQuality; fill-rule:evenodd; clip-rule:evenodd"
   viewBox="0 0 170.23 150.61"
   id="svg9079"
   sodipodi:docname="зритель зарегистрированный.svg"
   inkscape:version="1.2.1 (9c6d41e410, 2022-07-14)"
   xmlns:inkscape="http://www.inkscape.org/namespaces/inkscape"
   xmlns:sodipodi="http://sodipodi.sourceforge.net/DTD/sodipodi-0.dtd"
   xmlns="http://www.w3.org/2000/svg"
   xmlns:svg="http://www.w3.org/2000/svg"><sodipodi:namedview
   id="namedview9081"
   pagecolor="#ffffff"
   bordercolor="#111111"
   borderopacity="1"
   inkscape:showpageshadow="0"
   inkscape:pageopacity="0"
   inkscape:pagecheckerboard="1"
   inkscape:deskcolor="#d1d1d1"
   inkscape:document-units="mm"
   showgrid="false"
   inkscape:zoom="3.4523997"
   inkscape:cx="132.66135"
   inkscape:cy="121.22003"
   inkscape:window-width="1920"
   inkscape:window-height="1018"
   inkscape:window-x="-6"
   inkscape:window-y="-6"
   inkscape:window-maximized="1"
   inkscape:current-layer="Слой_x0020_1" />
 <defs
   id="defs9067">
  <style
   type="text/css"
   id="style9065">
   <![CDATA[
    .fil0 {fill:black}
   ]]>
  </style>
 </defs>
 <g
   id="Слой_x0020_1"
   inkscape:label="Слой 1">
  <metadata
   id="CorelCorpID_0Corel-Layer" />
  <circle
   class="fil0"
   cx="68.24"
   cy="34.39"
   r="34.39"
   id="circle9070" />
  <path
   class="fil0"
   d="M103.66 81.04l17.74 0 0 -13.84 -17.74 0 0 13.84zm17.74 6.72l-21.41 0c0,0 -17.52,11.07 -17.52,30.83 0,19.77 0,32.02 0,32.02l30.15 0 0 -29.25 8.78 0 0 -7.31 -4.29 0 0 -18.97 4.29 0 0 -7.31z"
   id="path9072" />
  <path
   class="fil0"
   d="M149.04 81.04l-17.74 0 0 -13.84 17.74 0 0 13.84zm-17.74 6.72l21.41 0c0,0 17.52,11.07 17.52,30.83 0,19.77 0,32.02 0,32.02l-30.15 0 0 -29.25 -8.78 0 0 -7.31 4.29 0 0 -18.97 -4.29 0 0 -7.31z"
   id="path9074" />
  <path
   class="fil0"
   d="M72.38 135.3l-72.38 0c0.92,-27.4 17.11,-48.3 40.01,-57.47 7.6,8.03 18.67,13.09 31,13.09 4.05,0 7.96,-0.55 11.66,-1.56 -5.24,6.49 -10.28,15.82 -10.28,27.65l0 18.29z"
   id="path9076" />
 <path
   style="fill:#ff0000;fill-opacity:1;fill-rule:evenodd;stroke:#efe8e8;stroke-width:0.289654;stroke-opacity:1"
   d="M 0.38411589,214.12642 C 1.4060132,194.4054 8.5022898,174.83719 20.386455,158.96932 30.830402,145.02446 45.056918,133.8551 61.468734,126.71527 l 2.813877,-1.22416 2.689541,2.53452 c 9.934533,9.36192 22.619116,15.48016 36.723838,17.71325 4.67099,0.73953 16.44248,0.74962 20.98774,0.018 2.92882,-0.47143 6.20635,-1.14708 7.49767,-1.54561 0.35409,-0.10927 0.0485,0.45428 -0.90769,1.67366 -5.43271,6.92839 -10.32765,16.77202 -12.63794,25.41469 -1.98155,7.41287 -2.19502,10.30217 -2.19502,29.70856 v 16.6665 H 58.3205 0.20025352 Z"
   id="path10321"
   transform="matrix(0.62124935,0,0,0.62124935,0,-0.00286579)" /><path
   style="fill:#ff0000;fill-opacity:1;fill-rule:evenodd;stroke:#efe8e8;stroke-width:0.289654;stroke-opacity:1"
   d="M 102.36762,110.04577 C 80.280803,107.04066 61.758705,90.470503 56.352523,68.879958 55.040618,63.640635 54.663952,59.942424 54.824648,53.878874 54.9847,47.839663 55.383623,45.154499 56.907193,39.861207 60.376675,27.807285 68.39102,16.815434 78.86202,9.7496763 95.37901,-1.3958729 116.12236,-2.8904204 133.96479,5.7795515 c 6.03918,2.9345518 10.74646,6.4057035 15.78612,11.6406985 14.12824,14.675836 18.89186,35.859339 12.42908,55.271205 -6.70717,20.1459 -24.22088,34.608065 -45.24719,37.363445 -4.11258,0.53893 -10.5668,0.53489 -14.56518,-0.009 z"
   id="path10323"
   transform="matrix(0.62124935,0,0,0.62124935,0,-0.00286579)" /><path
   style="fill:#ff0000;fill-opacity:1;fill-rule:evenodd;stroke:#efe8e8;stroke-width:0.289654;stroke-opacity:1"
   d="m 167.13013,119.19246 v -11.00684 h 14.04819 14.0482 v 11.00684 11.00683 h -14.0482 -14.04819 z"
   id="path10325"
   transform="matrix(0.62124935,0,0,0.62124935,0,-0.00286579)" /><path
   style="fill:#ff0000;fill-opacity:1;fill-rule:evenodd;stroke:#efe8e8;stroke-width:0.289654;stroke-opacity:1"
   d="m 211.44713,119.19246 v -11.00684 h 14.19302 14.19303 v 11.00684 11.00683 h -14.19303 -14.19302 z"
   id="path10327"
   transform="matrix(0.62124935,0,0,0.62124935,0,-0.00286579)" /><path
   style="fill:#ff0000;fill-opacity:1;fill-rule:evenodd;stroke:#efe8e8;stroke-width:0.289654;stroke-opacity:1"
   d="m 133.03731,213.25746 c 0.0959,-25.34803 0.16941,-29.32496 0.57879,-31.29791 2.17482,-10.48112 6.25704,-18.98594 13.09627,-27.28453 2.99108,-3.62933 7.86189,-8.37125 11.39452,-11.09302 l 2.70774,-2.08622 h 17.20595 17.20594 v 5.64825 5.64824 h -3.47584 -3.47584 v 15.49647 15.49647 h 3.47584 3.47584 v 5.64824 5.64825 h -7.09651 -7.09651 v 23.60677 23.60676 h -24.05301 -24.053 z"
   id="path10329"
   transform="matrix(0.62124935,0,0,0.62124935,0,-0.00286579)" /><path
   style="fill:#ff0000;fill-opacity:1;fill-rule:evenodd;stroke:#efe8e8;stroke-width:0.289654;stroke-opacity:1"
   d="M 225.64015,218.68847 V 195.0817 h -7.09651 -7.09651 v -5.64825 -5.64824 h 3.47584 3.47584 v -15.49647 -15.49647 h -3.47584 -3.47584 v -5.64824 -5.64825 h 17.1968 17.1968 l 1.92695,1.40482 c 11.62055,8.47182 20.92644,21.74152 24.31953,34.67832 1.74532,6.65437 1.72133,6.17864 1.84992,36.69233 l 0.1181,28.02398 h -24.20754 -24.20754 z"
   id="path10331"
   transform="matrix(0.62124935,0,0,0.62124935,0,-0.00286579)" /></g>
</svg>
