<?xml version="1.0" encoding="UTF-8" standalone="no"?>
<svg
   xmlns:dc="http://purl.org/dc/elements/1.1/"
   xmlns:cc="http://creativecommons.org/ns#"
   xmlns:rdf="http://www.w3.org/1999/02/22-rdf-syntax-ns#"
   xmlns:svg="http://www.w3.org/2000/svg"
   xmlns="http://www.w3.org/2000/svg"
   xmlns:sodipodi="http://sodipodi.sourceforge.net/DTD/sodipodi-0.dtd"
   xmlns:inkscape="http://www.inkscape.org/namespaces/inkscape"
   version="1.1"
   id="svg11"
   width="459.17041"
   height="603.19232"
   viewBox="0 0 459.17039 603.19234"
   sodipodi:docname="BEST.svg"
   inkscape:version="1.0 (4035a4fb49, 2020-05-01)">
  <metadata
     id="metadata17">
    <rdf:RDF>
      <cc:Work
         rdf:about="">
        <dc:format>image/svg+xml</dc:format>
        <dc:type
           rdf:resource="http://purl.org/dc/dcmitype/StillImage" />
        <dc:title></dc:title>
      </cc:Work>
    </rdf:RDF>
  </metadata>
  <defs
     id="defs15" />
  <sodipodi:namedview
     inkscape:document-rotation="0"
     pagecolor="#ffffff"
     bordercolor="#666666"
     borderopacity="1"
     objecttolerance="10"
     gridtolerance="10"
     guidetolerance="10"
     inkscape:pageopacity="0"
     inkscape:pageshadow="2"
     inkscape:window-width="1920"
     inkscape:window-height="1018"
     id="namedview13"
     showgrid="false"
     inkscape:zoom="0.26890244"
     inkscape:cx="1148.4843"
     inkscape:cy="1072.9566"
     inkscape:window-x="-6"
     inkscape:window-y="-6"
     inkscape:window-maximized="1"
     inkscape:current-layer="g19" />
  <g
     transform="translate(1859.0045,346.71465)"
     inkscape:groupmode="layer"
     inkscape:label="Image"
     id="g19">
    <path
       id="path79"
       d="m -1680.8045,255.17417 c -0.8321,-0.83207 -1.2,-6.04444 -1.2,-17 v -15.8 h 83 83 v 15.8 c 0,10.95556 -0.3679,16.16793 -1.2,17 -1.738,1.73802 -161.862,1.73802 -163.6,0 z m -177.5333,-66.46667 c -0.3667,-0.36666 -0.6667,-3.4423 -0.6667,-6.83475 v -6.1681 l 14.75,-1.12468 c 34.5759,-2.6364 49.145,-7.31889 55.9736,-17.9898 4.7339,-7.39763 6.9461,-15.11469 8.7315,-30.45963 2.3116,-19.86667 2.307,-272.76456 -0.01,-292.21604 -3.0872,-25.97061 -8.3367,-35.27036 -23.0851,-40.89656 -11.4784,-4.37876 -22.0893,-6.24789 -41.1129,-7.2421 -8.7602,-0.45782 -13.6062,-1.12378 -14.3051,-1.96584 -0.5812,-0.70042 -0.9196,-3.67251 -0.7518,-6.60465 l 0.3051,-5.33118 h 156.5 c 120.4445,0 158.4583,0.28945 165,1.25635 14.6826,2.17017 30.2073,5.56704 40,8.75216 8.0464,2.61715 24.9478,10.68945 31.6661,15.12406 18.315,12.08952 32.7411,29.38657 39.0073,46.77019 4.7245,13.10672 5.6409,18.83765 5.6917,35.59724 0.052,17.13116 -1.003,24.185424 -5.5337,37.000004 -7.017,19.84663 -20.5892,37.35923 -37.9562,48.97583 -6.3492,4.24687 -8.3902,6.10918 -7.5816,6.91774 0.6085,0.60854 1.53,1.10643 2.0479,1.10643 1.9229,0 17.9176,8.07068 24.7355,12.48119 8.5635,5.5397298 22.1241,18.8162298 27.6971,27.11705 11.9486,17.79691 17.401,37.19294 17.401,61.90176 0,25.866606 -6.4229,46.850646 -19.3973,63.372656 -8.0119,10.20252 -8.7946,10.9741 -18.7866,18.51923 -24.2866,18.3391 -53.1737,27.70441 -97.4912,31.60692 -12.3582,1.08825 -321.759,1.40885 -322.8333,0.33452 z m 275.8333,-23.28818 c 26.7462,-5.06594 51.1864,-24.38553 62.5034,-49.40795 6.2779,-13.88074 7.4578,-19.774716 7.4341,-37.137196 -0.024,-17.87862 -1.2,-23.624 -7.7238,-37.74388 -10.8729,-23.53289 -31.8069,-41.20093024 -56.7678,-47.9114202 -12.1499,-3.2663598 -33.1546,-3.2520398 -43.9459,0.03 -25.3312,7.70411996 -46.0916,25.1448102 -56.0953,47.1253302 -1.1264,2.475 -2.4601,5.27229 -2.9637,6.21621 -0.5037,0.94391 -1.3459,3.41891 -1.8716,5.5 -0.5257,2.08108 -1.411,5.58379 -1.9672,7.78379 -0.5563,2.2 -1.2977,8.05 -1.6475,13 -2.6842,37.976256 19.6395,73.698276 54.9528,87.934646 4.7918,1.93181 11.048,3.81427 13.9025,4.18325 2.8545,0.36897 6.09,1.04791 7.19,1.50874 2.5501,1.06833 19.163,0.40289 27,-1.08149 z m 6.5,-197.465076 c 26.1184,-8.5069 44.7762,-24.4766 55.8551,-47.80807 10.2007,-21.481994 10.7558,-48.727874 1.4624,-71.780304 -5.7745,-14.32375 -18.9733,-30.46911 -32.1182,-39.28835 -7.6349,-5.12247 -21.1096,-10.91643 -29.9492,-12.87782 -7.4265,-1.64783 -29.0908,-1.64364 -36.5384,0.007 -41.6611,9.23382 -71.4548,49.6614 -68.2117,92.55754 2.9084,38.470164 28.3865,69.280624 65.8352,79.614024 9.5191,2.62667 35.0598,2.3786 43.6648,-0.42409 z m -106,-270.880074 c 0,-30.78889 0.3054,-41.60541 1.2,-42.5 0.8288,-0.82876 5.9333,-1.2 16.5,-1.2 h 15.3 v 42.5 42.5 h -16.5 -16.5 z m 131.69,40.65665 c -0.3795,-0.37949 -0.69,-18.97498 -0.69,-41.32332 0,-30.27037 0.306,-40.93937 1.2,-41.83333 1.8173,-1.81728 31.1666,-1.66814 32.6889,0.16611 0.8139,0.9807 1.06,12.90063 0.8724,42.25 l -0.2613,40.88389 -16.56,0.27332 c -9.108,0.15032 -16.8705,-0.0372 -17.25,-0.41667 z"
       style="fill:#000000" />
  </g>
</svg>
