<?xml version="1.0" encoding="UTF-8"?>
<!DOCTYPE svg PUBLIC "-//W3C//DTD SVG 1.1//EN" "http://www.w3.org/Graphics/SVG/1.1/DTD/svg11.dtd">
<!-- Creator: CorelDRAW 2019 (64-Bit) -->
<svg xmlns="http://www.w3.org/2000/svg" xml:space="preserve" width="84.808mm" height="85.6701mm" version="1.1" style="shape-rendering:geometricPrecision; text-rendering:geometricPrecision; image-rendering:optimizeQuality; fill-rule:evenodd; clip-rule:evenodd"
viewBox="0 0 228.64 230.96"
 xmlns:xlink="http://www.w3.org/1999/xlink">
 <defs>
  <style type="text/css">
   <![CDATA[
    .fil0 {fill:black}
   ]]>
  </style>
 </defs>
 <g id="Слой_x0020_1">
  <metadata id="CorelCorpID_0Corel-Layer"/>
  <path class="fil0" d="M142.62 0.06c6.79,0.23 12.36,3.59 17.51,13.21 9.83,18.33 11.18,47.98 11.18,69.14 0,4.41 -0.07,8.64 -0.12,12.26 -0.04,2.58 -0.07,4.86 -0.07,6.9 0,15.38 0.16,34.26 2.68,53.44 1.55,11.8 3.99,23.73 7.84,35.03l-62.14 0c-3.88,0 -7.76,0 -11.64,0 0,0 6.67,2.52 11.9,5.91 2.76,1.8 5.44,4.31 7.09,7.18 1.3,2.26 2.2,5.11 2.23,8.69 0.04,5.84 -1.73,11.38 -6.57,15.02 -5.1,3.84 -12.05,4.56 -18.27,3.9 -6.56,-0.69 -12.75,-4.24 -18.07,-9.8 -5.71,-5.96 -10.41,-14.2 -13.55,-23.73 -3.35,-10.18 -6.45,-21.27 -8.69,-35.17 -2.25,-13.95 -3.66,-30.85 -3.66,-52.67 0,-21.92 -0.24,-39.46 -1.06,-53.12 -0.83,-13.79 -2.29,-23.61 -4.73,-29.95 -3.78,-9.82 -8.65,-20.26 -18.22,-26.29l102.32 0c1.34,0 2.69,0.03 4.03,0.06zm-77.5 22.59c-2.22,0 -4.02,-1.8 -4.02,-4.02 0,-2.22 1.8,-4.02 4.02,-4.02l83.47 0c2.22,0 4.02,1.8 4.02,4.02 0,2.22 -1.8,4.02 -4.02,4.02l-83.47 0zm13.67 153.37c-2.22,0 -4.02,-1.8 -4.02,-4.02 0,-2.22 1.8,-4.02 4.02,-4.02l84.95 0c2.22,0 4.02,1.8 4.02,4.02 0,2.22 -1.8,4.02 -4.02,4.02l-84.95 0zm-3.06 -17.04c-2.22,0 -4.02,-1.8 -4.02,-4.02 0,-2.22 1.8,-4.02 4.02,-4.02l85.27 0c2.22,0 4.02,1.8 4.02,4.02 0,2.22 -1.8,4.02 -4.02,4.02l-85.27 0zm-1.78 -17.04c-2.22,0 -4.02,-1.8 -4.02,-4.02 0,-2.22 1.8,-4.02 4.02,-4.02l85.45 0c2.22,0 4.02,1.8 4.02,4.02 0,2.22 -1.8,4.02 -4.02,4.02l-85.45 0zm-0.82 -17.04c-2.22,0 -4.02,-1.8 -4.02,-4.02 0,-2.22 1.8,-4.02 4.02,-4.02l85.52 0c2.22,0 4.02,1.8 4.02,4.02 0,2.22 -1.8,4.02 -4.02,4.02l-85.52 0zm-0.14 -17.04c-2.22,0 -4.02,-1.8 -4.02,-4.02 0,-2.22 1.8,-4.02 4.02,-4.02l85.45 0c2.22,0 4.02,1.8 4.02,4.02 0,2.22 -1.8,4.02 -4.02,4.02l-85.45 0zm-0.08 -17.04c-2.22,0 -4.02,-1.8 -4.02,-4.02 0,-2.22 1.8,-4.02 4.02,-4.02l85.7 0c2.22,0 4.02,1.8 4.02,4.02 0,2.22 -1.8,4.02 -4.02,4.02l-85.7 0zm-0.35 -17.04c-2.22,0 -4.02,-1.8 -4.02,-4.02 0,-2.22 1.8,-4.02 4.02,-4.02l85.87 0c2.22,0 4.02,1.8 4.02,4.02 0,2.22 -1.8,4.02 -4.02,4.02l-85.87 0zm-0.83 -17.04c-2.22,0 -4.02,-1.8 -4.02,-4.02 0,-2.22 1.8,-4.02 4.02,-4.02l85.6 0c2.22,0 4.02,1.8 4.02,4.02 0,2.22 -1.8,4.02 -4.02,4.02l-85.6 0zm-1.81 -17.04c-2.22,0 -4.02,-1.8 -4.02,-4.02 0,-2.22 1.8,-4.02 4.02,-4.02l84.74 0c2.22,0 4.02,1.8 4.02,4.02 0,2.22 -1.8,4.02 -4.02,4.02l-84.74 0zm149.73 155.23c3.93,3.31 8.88,7.44 9,18.27 0.14,12.68 -6.79,17.77 -13.05,17.77l-89.78 0c6.15,-4.7 8.6,-11.65 8.55,-19.16 -0.05,-7.96 -3.7,-13.55 -7.38,-16.86l92.66 -0.02zm-175.86 -179.86l-43.77 0.36c2.17,-4.87 5.37,-9.08 9.93,-11.98 3.16,-2 7.19,-3.45 12.24,-3.44 10.62,0.02 17.05,6.8 21.61,15.07z"/>
 </g>
</svg>
