<?xml version="1.0" encoding="UTF-8" standalone="no"?>
<svg
   xmlns:dc="http://purl.org/dc/elements/1.1/"
   xmlns:cc="http://creativecommons.org/ns#"
   xmlns:rdf="http://www.w3.org/1999/02/22-rdf-syntax-ns#"
   xmlns:svg="http://www.w3.org/2000/svg"
   xmlns="http://www.w3.org/2000/svg"
   xmlns:sodipodi="http://sodipodi.sourceforge.net/DTD/sodipodi-0.dtd"
   xmlns:inkscape="http://www.inkscape.org/namespaces/inkscape"
   version="1.1"
   id="svg211"
   width="1049.697"
   height="318.39099"
   viewBox="0 0 1049.6971 318.39099"
   sodipodi:docname="авто.svg"
   inkscape:version="1.0 (4035a4fb49, 2020-05-01)">
  <metadata
     id="metadata217">
    <rdf:RDF>
      <cc:Work
         rdf:about="">
        <dc:format>image/svg+xml</dc:format>
        <dc:type
           rdf:resource="http://purl.org/dc/dcmitype/StillImage" />
        <dc:title></dc:title>
      </cc:Work>
    </rdf:RDF>
  </metadata>
  <defs
     id="defs215" />
  <sodipodi:namedview
     inkscape:document-rotation="0"
     pagecolor="#ffffff"
     bordercolor="#666666"
     borderopacity="1"
     objecttolerance="10"
     gridtolerance="10"
     guidetolerance="10"
     inkscape:pageopacity="0"
     inkscape:pageshadow="2"
     inkscape:window-width="1920"
     inkscape:window-height="1018"
     id="namedview213"
     showgrid="false"
     inkscape:zoom="0.4416668"
     inkscape:cx="479.93329"
     inkscape:cy="109.05003"
     inkscape:window-x="-6"
     inkscape:window-y="-6"
     inkscape:window-maximized="1"
     inkscape:current-layer="g219" />
  <g
     transform="translate(20.938822,-350.71667)"
     inkscape:groupmode="layer"
     inkscape:label="Image"
     id="g219">
    <path
       id="path22"
       d="M 128.68492,666.02408 C 110.859,661.11479 94.466867,650.89053 81.283357,636.45834 l -12.17278,-13.32571 -11.864512,-0.008 c -15.311054,-0.01 -21.133277,-3.66294 -44.768369,-28.08816 -29.046475,-30.0175 -37.251836,-50.48433 -31.870048,-79.49425 6.168338,-33.24976 27.8203134,-100.2113 34.67205,-107.22784 3.083609,-3.15777 9.512534,-4.10697 39.455883,-5.82547 71.998349,-4.1321 108.834489,-8.97592 190.636449,-25.06805 77.65081,-15.2755 86.42651,-16.8315 119.99429,-21.27589 56.02777,-7.41809 161.95099,-7.19894 215.93694,0.44676 24.7612,3.5068 110.92842,35.26504 174.81368,64.43025 17.61574,8.04203 32.91519,13.52825 42.04928,15.07844 51.59201,8.75589 128.49146,35.86549 167.55641,59.06917 35.06547,20.82811 51.92297,36.59198 58.00357,54.24076 7.5524,21.92062 6.3972,60.08238 -2.0817,68.76515 l -4.8407,4.95713 h -74.68246 -74.68252 l -5.91972,8.77786 c -7.48725,11.10225 -26.14247,25.26935 -41.3544,31.40533 -16.76168,6.76105 -47.76113,6.75512 -64.54099,-0.0126 -14.61114,-5.8928 -29.64921,-17.30051 -39.89116,-30.26097 l -7.81844,-9.89343 -236.67082,-0.008 -236.67083,-0.008 -11.87863,13.27522 c -24.37779,27.24395 -60.87411,38.74163 -94.00891,29.61623 z m 35.71893,-22.07417 c 17.10686,-3.23843 29.47625,-10.34025 41.52633,-23.84205 14.40573,-16.14128 19.49952,-30.57502 18.59431,-52.68883 -0.5693,-13.90794 -1.85864,-19.28416 -7.3761,-30.75663 -22.73715,-47.2773 -84.40973,-56.20367 -119.438993,-17.28736 -38.68001,42.97216 -15.07169,115.04632 40.860773,124.74442 13.42085,2.32702 12.61776,2.3323 25.83368,-0.16951 z m -22.61663,-26.89092 c -43.025903,-11.17984 -50.109593,-70.81845 -10.64646,-89.63413 32.03085,-15.27204 66.86366,6.94369 67.00899,42.73711 0.10133,24.96571 -16.76055,44.43979 -41.02679,47.38247 -5.0502,0.61241 -11.95128,0.39396 -15.33574,-0.48545 z m 658.5012,26.88762 c 21.11551,-3.99731 35.84578,-14.10411 47.06678,-32.29366 22.55232,-36.55789 9.80596,-83.41845 -28.09429,-103.28548 -22.49782,-11.7932 -54.60513,-8.41739 -74.75574,7.85992 -47.18602,38.11607 -28.56139,115.83429 30.62564,127.79688 12.1746,2.46067 11.74194,2.46202 25.15761,-0.0777 z m -30.83878,-26.86104 c -35.57806,-16.71323 -37.35754,-68.27841 -2.98138,-86.39283 17.32443,-9.12904 36.64556,-6.98824 51.07406,5.65908 14.72158,12.9042 20.3898,30.37225 15.7716,48.60409 -7.14602,28.21122 -38.56132,44.01603 -63.86428,32.12966 z M 620.77686,437.0487 c 2.78387,-13.73234 8.28814,-20.60848 14.93792,-18.66106 2.48064,0.72646 12.63023,4.22841 22.55464,7.78209 18.71012,6.69958 23.28279,10.82135 20.82013,18.76707 -1.3162,4.24675 -0.89961,4.34604 12.70629,3.02849 23.33721,-2.25991 47.91163,-6.07317 47.91163,-7.43454 0,-3.14809 -77.60308,-34.23362 -125.12225,-50.12031 -29.80055,-9.963 -33.78617,-10.76506 -63.58672,-12.79643 -17.48634,-1.19194 -46.13171,-2.68283 -63.65637,-3.31305 l -31.86302,-1.14585 -15.59218,27.83972 c -8.57569,15.31184 -15.00558,28.05191 -14.28863,28.31124 3.32056,1.20112 102.58591,13.24382 125.4002,15.21333 14.1019,1.2174 28.87042,2.52491 32.81895,2.90561 3.94853,0.38068 13.34419,0.84342 20.87921,1.02831 l 13.70007,0.33617 z M 408.34677,409.92987 c 4.63275,-8.087 11.04145,-19.31394 14.24154,-24.94873 l 5.81839,-10.24512 -22.28987,1.50141 c -12.25942,0.82578 -35.21231,3.29872 -51.00643,5.49542 -33.98811,4.72722 -108.06505,18.58687 -110.22253,20.62242 -1.51587,1.4302 143.6942,23.12443 151.08979,22.57265 2.57354,-0.19199 6.87555,-5.40836 12.36911,-14.99805 z"
       style="fill:#000000;stroke-width:2.07571" />
  </g>
</svg>
