<?xml version="1.0" encoding="UTF-8" standalone="no"?>
<svg
   xmlns:dc="http://purl.org/dc/elements/1.1/"
   xmlns:cc="http://creativecommons.org/ns#"
   xmlns:rdf="http://www.w3.org/1999/02/22-rdf-syntax-ns#"
   xmlns:svg="http://www.w3.org/2000/svg"
   xmlns="http://www.w3.org/2000/svg"
   xmlns:sodipodi="http://sodipodi.sourceforge.net/DTD/sodipodi-0.dtd"
   xmlns:inkscape="http://www.inkscape.org/namespaces/inkscape"
   inkscape:version="1.0 (4035a4fb49, 2020-05-01)"
   sodipodi:docname="вело.svg"
   viewBox="0 0 679.48365 620.63745"
   height="620.63745"
   width="679.48364"
   id="svg440"
   version="1.1">
  <metadata
     id="metadata446">
    <rdf:RDF>
      <cc:Work
         rdf:about="">
        <dc:format>image/svg+xml</dc:format>
        <dc:type
           rdf:resource="http://purl.org/dc/dcmitype/StillImage" />
        <dc:title></dc:title>
      </cc:Work>
    </rdf:RDF>
  </metadata>
  <defs
     id="defs444" />
  <sodipodi:namedview
     inkscape:current-layer="g448"
     inkscape:window-maximized="1"
     inkscape:window-y="-6"
     inkscape:window-x="-6"
     inkscape:cy="251.45359"
     inkscape:cx="309.6"
     inkscape:zoom="0.88043082"
     showgrid="false"
     id="namedview442"
     inkscape:window-height="1018"
     inkscape:window-width="1920"
     inkscape:pageshadow="2"
     inkscape:pageopacity="0"
     guidetolerance="10"
     gridtolerance="10"
     objecttolerance="10"
     borderopacity="1"
     bordercolor="#666666"
     pagecolor="#ffffff"
     inkscape:document-rotation="0" />
  <g
     transform="translate(-18.759196,-31.995118)"
     id="g448"
     inkscape:label="Image"
     inkscape:groupmode="layer">
    <path
       id="path36"
       d="m 137.44542,651.867 c -14.76435,-1.6849 -36.3983,-8.78065 -50.821174,-16.66894 -29.84373,-16.32238 -54.49048,-48.59348 -64.63702,-84.63217 -4.60409,-16.3529 -4.24282,-43.58966 0.82567,-62.24854 4.46929,-16.45298 15.18506,-38.36276 24.65345,-50.40711 18.82629,-23.94819 49.21382,-42.33855 82.735634,-50.07115 16.89972,-3.89834 45.08406,-3.17171 65.22675,1.68159 l 4.31031,1.03855 -4.69934,-5.152 c -7.44164,-8.15844 -10.62199,-15.47084 -11.50242,-26.44685 -0.46727,-5.82513 -1.6099,-10.60524 -2.74535,-11.48497 -3.07021,-2.3787 -5.1594,-9.06169 -4.17729,-13.36243 0.72569,-3.17787 0.0411,-4.75984 -3.55752,-8.22102 -5.67918,-5.46224 -9.37659,-4.9561 -10.00579,1.3697 -0.36258,3.6452 0.38508,5.49319 3.25955,8.05674 4.09546,3.65246 5.0159,10.74917 2.10032,16.19388 -1.95307,3.64728 -7.16708,9.31352 -8.57019,9.31352 -0.55152,0 -0.72587,-4.54581 -0.38747,-10.10179 l 0.61527,-10.10179 -3.69888,4.18005 c -2.03439,2.29903 -3.70212,4.65031 -3.70608,5.22507 -0.004,0.57475 -0.99277,1.045 -2.19735,1.045 -1.73885,0 -2.00177,-1.13301 -1.27598,-5.49855 1.27136,-7.64691 -4.68451,-40.07893 -8.2554,-44.95398 -3.89306,-5.31483 -3.45186,-8.65822 1.69187,-12.82105 6.04263,-4.89031 8.32987,-4.56688 14.63735,2.06981 l 5.39542,5.67703 25.28633,-0.99394 c 24.25329,-0.95334 25.49119,-0.87219 30.30016,1.98639 2.75759,1.63917 6.89258,2.97554 9.18887,2.96968 3.94326,-0.01 4.55678,-0.88042 11.04958,-15.6752 3.78098,-8.61549 9.5784,-23.17751 12.88315,-32.36006 l 6.00864,-16.69552 -2.16422,-18.83491 -2.16424,-18.83491 -8.17966,-11.35657 c -4.49881,-6.24611 -10.08243,-15.43551 -12.40805,-20.42086 -4.10789,-8.80598 -8.09783,-12.17339 -11.80957,-9.96704 -0.8629,0.51292 -3.07087,-0.42453 -4.90662,-2.08326 l -3.33772,-3.01586 -4.36358,5.09157 c -5.59617,6.52978 -9.93928,6.23225 -9.35797,-0.64111 l 0.39451,-4.66458 -5.83126,5.06697 c -3.2072,2.78682 -7.0241,5.06696 -8.48202,5.06696 -2.83927,0 -11.82779,-9.75644 -11.82779,-12.83828 0,-2.12326 -8.6971,-7.02254 -11.73738,-6.61194 -4.72131,0.6376 -5.21428,-0.26609 -5.39921,-9.89749 -0.22164,-11.54419 -0.86489,-12.95562 -5.40491,-11.85967 -2.61978,0.6324 -4.77609,-0.44701 -9.4673,-4.73918 l -6.07484,-5.55811 1.01686,-14.200084 c 1.1293,-15.770322 2.05055,-18.325372 7.55754,-20.960647 2.49919,-1.195943 4.85377,-4.389492 6.92293,-9.389684 3.00414,-7.259545 3.67439,-7.858526 15.98135,-14.281841 7.06512,-3.687476 14.21214,-6.705998 15.88225,-6.707823 1.67012,-0.0018 6.87304,-2.509857 11.56205,-5.573401 4.68902,-3.063546 9.01491,-5.570082 9.61306,-5.570082 2.80938,0 9.17341,4.280713 10.70243,7.198898 1.18669,2.264855 2.71057,3.113003 5.02294,2.795612 2.9065,-0.398943 3.26269,0.06452 2.86337,3.725955 -0.34965,3.206118 0.47552,4.88634 3.53733,7.202762 4.38056,3.31412 8.26646,10.948201 8.26646,16.239913 0,1.860325 -1.01085,5.262497 -2.24632,7.560382 -1.41686,2.635254 -2.08553,6.854292 -1.81086,11.425947 0.3582,5.962039 1.01376,7.491999 3.69501,8.623389 2.03378,0.858186 3.25955,2.592024 3.25955,4.610624 0,2.23902 0.5576,2.90048 1.81086,2.14815 0.99597,-0.59787 4.09255,-1.21697 6.88127,-1.37577 2.78873,-0.15879 8.00401,-0.93333 11.58951,-1.7212 9.58928,-2.107108 33.10359,-1.852374 44.64996,0.4837 11.86693,2.40093 23.88456,7.28149 29.95752,12.16625 5.79964,4.66491 10.25551,6.82517 15.35942,7.44644 7.21544,0.87828 22.67428,8.83356 27.02074,13.90515 3.43616,4.00942 6.06103,5.30003 15.5032,7.62269 9.71833,2.39058 12.4379,3.769 18.75364,9.50543 4.06282,3.69018 11.52726,8.82881 16.58765,11.41921 10.31884,5.28217 13.91796,8.37615 23.59707,20.28519 9.54585,11.74508 13.00281,17.85069 15.20713,26.85846 3.83587,15.67478 1.40299,28.50725 -7.54041,39.77264 l -5.188,6.53498 38.49846,-0.96833 38.49844,-0.96832 -0.11024,4.05067 c -0.15511,5.70112 -3.26093,13.34838 -6.12758,15.08754 -1.90662,1.15672 -2.90669,0.80549 -4.69377,-1.64844 -1.74303,-2.39352 -3.69583,-3.11836 -8.40107,-3.11836 -5.53892,0 -6.68375,0.63721 -11.86955,6.60667 -3.15665,3.63369 -5.5535,7.14823 -5.32635,7.81009 0.67272,1.96016 -2.73659,5.09014 -5.54438,5.09014 -3.00581,0 -3.65856,1.73302 -14.43233,38.31713 -4.06228,13.79417 -7.72235,26.17757 -8.13347,27.51868 -0.47894,1.56231 0.0375,2.43836 1.43766,2.43836 3.83635,0 3.99068,2.46232 0.78965,12.59839 -3.40045,10.76763 -3.31744,19.94778 0.24527,27.12509 1.81199,3.65034 2.92681,4.21997 8.9906,4.5938 5.58867,0.34451 9.35397,-0.64703 19.54586,-5.14721 6.94304,-3.06566 18.4909,-7.29871 25.66191,-9.40678 11.91906,-3.50386 15.08995,-3.83801 36.94157,-3.89299 20.45447,-0.0514 25.64592,0.39572 35.98055,3.09918 77.40359,20.24816 122.79431,98.52408 99.14596,170.9763 -7.4081,22.69644 -19.06957,40.82154 -36.81973,57.22791 -19.94582,18.43582 -41.12965,29.42278 -68.36382,35.45679 -12.2493,2.71398 -16.70871,3.0406 -31.87115,2.33449 -46.99373,-2.18849 -82.48991,-20.45623 -111.2104,-57.23327 l -7.48759,-9.58799 -10.13552,0.90601 c -9.17801,0.82041 -33.47252,7.47844 -38.7628,10.62314 -1.8175,1.08035 -1.73294,1.54669 0.57467,3.1696 4.00419,2.81608 1.87487,7.14741 -5.57924,11.34893 -7.89664,4.45098 -11.64399,4.51936 -14.54202,0.26535 -1.48782,-2.18395 -4.21469,-3.61416 -8.0012,-4.19651 -3.46712,-0.53325 -5.74415,-1.64395 -5.74415,-2.80194 0,-1.11207 -2.27231,-2.3285 -5.40592,-2.89391 -8.45023,-1.52471 -10.76328,-3.20299 -10.25431,-7.44019 0.37382,-3.11213 1.41924,-3.94009 6.24375,-4.94496 9.531,-1.98519 13.21038,-3.65962 17.49648,-7.96248 l 4.07434,-4.09023 -5.12683,-5.21365 c -4.20008,-4.27121 -9.02834,-12.48641 -9.20596,-15.66376 -0.0214,-0.38318 -0.38573,-1.32369 -0.80957,-2.09004 -0.96941,-1.75276 -0.55435,-15.56164 0.60726,-20.20357 0.47944,-1.91586 1.62731,-4.85813 2.55083,-6.53837 1.52187,-2.76885 0.39793,-4.46545 -11.99956,-18.11356 -7.52329,-8.28221 -27.26889,-30.10675 -43.8791,-48.49896 -36.8724,-40.82822 -55.27487,-60.22157 -58.92983,-62.10293 -3.87434,-1.99429 -6.81117,-0.017 -3.46749,2.3346 1.49303,1.05003 2.20683,2.73121 1.6995,4.00279 -0.5522,1.38401 0.57232,3.33527 3.04982,5.29199 10.56271,8.34247 25.96601,23.49665 31.686,31.17352 7.87659,10.5713 18.23944,31.59398 21.53325,43.68366 3.75971,13.79966 4.53673,43.74703 1.53647,59.21738 -10.039,51.76441 -55.39114,96.56612 -107.17831,105.87748 -14.55228,2.61651 -37.26287,3.48299 -50.79981,1.93815 z m 18.67796,-22.93522 c 1.06866,-2.67846 1.19159,-97.48866 0.12502,-96.46288 -1.12586,1.08286 -34.12649,93.44999 -33.5765,93.97897 1.37512,1.3226 18.67745,4.47142 25.12146,4.57183 5.53581,0.0863 7.67662,-0.45036 8.32996,-2.08792 z m 30.93964,-0.64713 c 2.58953,-0.88085 4.70823,-2.2636 4.70823,-3.0728 0,-1.51923 -26.78362,-86.76679 -29.1098,-92.65141 -3.44054,-8.7036 -4.21004,0.19844 -4.21004,48.70391 v 50.28534 l 11.95168,-0.83177 c 6.57343,-0.45747 14.07039,-1.55245 16.65993,-2.43327 z m 377.87868,-14.9141 c -0.51628,-9.00453 -1.31173,-19.37956 -1.76768,-23.05564 l -0.82899,-6.68378 -8.13459,0.41371 -8.13461,0.4137 -6.85183,20.20357 c -3.76851,11.11197 -6.67401,20.83059 -6.45668,21.59694 0.47823,1.68625 9.70984,2.99127 23.16071,3.2741 l 9.95235,0.20927 z m 22.58832,12.69896 c 16.03231,-3.5691 16.03555,-1.84572 -0.0588,-31.16085 -16.64151,-30.31168 -21.53977,-38.02175 -23.43848,-36.89312 -0.76808,0.45658 0.48735,3.14448 2.78983,5.97313 2.30249,2.82865 4.60783,7.46483 5.123,10.30262 0.82355,4.53652 0.47395,5.45123 -2.8948,7.57421 l -3.83147,2.41456 1.07158,16.11277 c 0.58937,8.86201 1.22868,17.36678 1.42067,18.89946 0.192,1.53269 0.43228,4.56078 0.53398,6.72913 0.20771,4.42938 -0.38944,4.42789 19.28454,0.0481 z M 137.12287,577.99159 c 9.38394,-26.16091 16.7024,-47.91087 16.26326,-48.33325 -0.43916,-0.42236 -1.71737,0.13529 -2.84049,1.23914 -5.43896,5.34591 -60.215924,78.55583 -59.777304,79.89291 0.46847,1.42809 26.021264,14.77532 28.275164,14.76923 0.55971,-9.9e-4 8.69543,-21.40712 18.07937,-47.56803 z m 65.57216,45.17326 c 5.35113,-2.4543 5.63374,-3.51302 2.89334,-10.8393 -0.6903,-1.84547 0.34773,-1.25878 3.07325,1.73699 l 4.11562,4.52372 6.15693,-3.55767 c 3.38631,-1.95671 6.15693,-3.87252 6.15693,-4.25733 0,-0.93486 -59.44147,-79.95672 -60.14468,-79.95672 -0.30224,0 0.051,1.72428 0.78484,3.83172 0.73391,2.10744 6.59513,20.44742 13.02494,40.7555 15.38198,48.5828 15.93019,50.16061 17.4284,50.16061 0.70571,0 3.63541,-1.07889 6.51043,-2.39752 z m 334.37364,-17.9712 c 3.78042,-11.20279 6.56661,-20.66387 6.19153,-21.02461 -0.37506,-0.36076 -5.81693,-0.99442 -12.09303,-1.40816 -9.21114,-0.60722 -11.85251,-0.32772 -13.70066,1.44983 -4.56791,4.39344 -18.84485,27.51431 -18.11672,29.33926 0.76129,1.90813 24.49837,11.82454 28.59482,11.94578 1.63565,0.0485 4.12856,-5.49858 9.12406,-20.3021 z m 82.17225,7.54063 c 7.46378,-4.18716 12.92729,-8.16396 12.92122,-9.40511 -0.009,-1.78543 -40.39753,-49.19618 -49.13541,-57.67808 -2.52045,-2.4466 -2.85321,-2.45746 -6.42012,-0.20961 -2.06904,1.3039 -4.74203,4.26042 -5.93998,6.57004 -2.1572,4.15903 -2.00903,4.50503 15.45413,36.08837 9.69771,17.53899 18.20736,31.88908 18.91032,31.88908 0.70295,0 7.09739,-3.26461 14.20984,-7.25469 z M 505.19845,598.0586 c 4.49995,-7.0805 8.18173,-13.50733 8.18173,-14.28185 0,-0.87251 -6.78592,-1.40824 -17.83757,-1.40824 h -17.83758 l -4.15445,4.17068 -4.15445,4.17065 3.52125,3.68581 c 6.31429,6.60938 22.17851,18.6596 23.15078,17.58497 0.5217,-0.57664 4.63035,-6.84155 9.13029,-13.92202 z M 119.33526,568.00134 c 16.9012,-22.0793 30.49777,-40.36584 30.21457,-40.63679 -0.85137,-0.81452 -84.327784,56.95824 -84.914884,58.76832 -0.64851,1.99937 20.65662,23.19587 22.61278,22.49748 0.74693,-0.26668 15.186324,-18.54973 32.087534,-40.62901 z m 120.93633,30.72835 c 5.99275,-5.56186 10.89591,-10.82217 10.89591,-11.68957 0,-2.07916 -82.13795,-60.77805 -84.14633,-60.13418 -0.85262,0.27337 4.78934,8.94547 12.53771,19.27135 39.4987,52.63812 47.2562,62.66488 48.48252,62.66488 0.73384,0 6.23744,-4.55062 12.23019,-10.11248 z m 413.87931,-16.91936 4.09934,-5.4349 -25.7148,-18.27365 c -14.14316,-10.0505 -29.09117,-20.63599 -33.2178,-23.52331 l -7.50296,-5.24967 -4.52866,6.33075 -4.52868,6.33075 26.4567,30.14111 26.45669,30.14113 7.19041,-7.51367 c 3.95473,-4.13249 9.03512,-9.95934 11.28976,-12.94854 z m -182.05835,3.34488 c 2.5822,-2.7443 2.53032,-2.7867 -3.40947,-2.7867 -5.66891,0 -5.92277,0.16755 -4.22212,2.7867 2.28767,3.52321 4.3165,3.52321 7.63159,0 z M 105.67694,554.38436 c 23.58013,-16.15762 42.5548,-29.6835 42.16592,-30.05751 -0.78358,-0.75367 -14.17833,3.09128 -64.723274,18.57873 -18.72431,5.73732 -34.58065,10.92728 -35.23632,11.53328 -1.09372,1.01086 12.6424,29.323 14.22655,29.323 0.38179,0 19.98699,-13.21987 43.567124,-29.3775 z m 156.32172,15.1198 c 3.9652,-7.39338 6.89202,-13.74779 6.50405,-14.12093 -0.73033,-0.70245 -97.9934,-31.53544 -99.4789,-31.53544 -0.46064,0 17.98329,13.48482 40.98651,29.96625 23.00322,16.48144 42.48889,29.77868 43.30147,29.54942 0.81258,-0.22926 4.72168,-6.46594 8.68687,-13.8593 z m 255.7221,8.33596 c 3.27644,-3.66406 28.96009,-43.6172 28.96943,-45.06448 0.006,-0.83725 -2.27425,-2.70534 -5.06591,-4.15132 -4.56723,-2.36567 -5.42139,-2.42254 -8.52609,-0.56774 -1.89771,1.1337 -14.09439,12.72042 -27.10374,25.74824 l -23.65337,23.68696 7.91394,0.8179 c 14.81637,1.53126 25.84519,1.34272 27.46574,-0.46956 z m 31.41493,-8.70843 c 2.45337,-6.995 3.17157,-11.35874 2.53944,-15.4295 -0.58904,-3.79329 -0.0971,-7.48159 1.48333,-11.11942 2.2025,-5.06995 2.19651,-5.5617 -0.0872,-7.16783 -1.34858,-0.94844 -2.97633,-1.41273 -3.61721,-1.03178 -1.45799,0.86666 -28.8304,42.92752 -28.8304,44.30119 0,0.55327 5.64552,0.8248 12.54561,0.60337 l 12.54562,-0.40258 z m 4.23843,8.24613 c -0.48364,-1.21219 -0.87934,-3.21861 -0.87934,-4.45872 0,-2.89315 -2.23638,-0.67492 -3.55651,3.52767 -0.81056,2.58035 -0.42747,3.13504 2.16519,3.13504 2.27721,0 2.90635,-0.61068 2.27066,-2.20399 z m -50.97926,-22.52798 c 13.06047,-12.83624 23.59991,-23.48715 23.42101,-23.66869 -0.5282,-0.53596 -72.38969,27.69223 -74.3367,29.2005 -1.94149,1.50399 -1.39216,2.90756 4.92433,12.58175 3.37262,5.16544 3.51901,5.22505 12.82831,5.22505 h 9.41678 z m 162.33864,9.05678 c 2.66598,-5.55599 5.29056,-12.38542 5.83241,-15.17654 l 0.98517,-5.07475 -36.7113,-8.58069 c -20.19122,-4.71938 -37.92927,-8.92837 -39.4179,-9.3533 -1.64341,-0.46913 -2.49306,-0.15645 -2.16298,0.79598 0.57935,1.67163 63.45153,47.18544 65.44661,47.37745 0.64943,0.0626 3.36203,-4.43217 6.02799,-9.98815 z m -109.00994,-1.36998 c -0.78487,-2.88671 -0.86308,-2.89881 -1.92165,-0.2971 -1.90267,4.67628 -1.59807,6.76893 0.71636,4.92149 1.17274,-0.93612 1.67948,-2.88034 1.20529,-4.62439 z m -176.50209,0.90768 c 1.75169,-4.39048 0.94305,-7.54946 -1.93254,-7.54946 -3.96093,0 -5.08952,2.48414 -2.90895,6.40292 2.16735,3.89505 3.60871,4.23637 4.84149,1.14654 z M 488.02813,543.3785 c 21.51303,-8.39046 38.28122,-15.27681 37.26267,-15.30301 -1.01856,-0.0262 -18.94083,3.40089 -39.82727,7.61578 -20.88643,4.21489 -38.46951,7.66343 -39.07353,7.66343 -1.57339,0 -1.35608,3.72556 0.57981,9.94014 0.9229,2.96269 1.73779,5.37599 1.81086,5.36286 0.073,-0.0125 17.73443,-6.88876 39.24746,-15.2792 z m -217.43164,7.45877 c 1.5153,-3.79796 5.11096,-28.78552 4.31942,-30.01731 -1.00208,-1.55949 -103.4263,-1.48403 -103.4263,0.0762 0,0.91675 92.04198,31.26162 97.26933,32.06824 0.51234,0.079 1.33924,-0.87815 1.83755,-2.12714 z M 98.330816,536.44871 c 25.496934,-7.84439 46.977364,-14.82918 47.734304,-15.52174 0.82106,-0.75124 -20.07206,-1.25923 -51.790634,-1.25923 -36.59456,0 -53.16688,0.46188 -53.16688,1.4818 0,0.815 1.06878,8.08197 2.37508,16.14882 2.21302,13.66628 2.58369,14.62423 5.43258,14.03995 1.68163,-0.34491 23.91863,-7.04522 49.41555,-14.8896 z m 273.603394,8.60872 c 0.3831,-0.59619 -0.54179,-2.63396 -2.05532,-4.52839 l -2.75186,-3.44442 -0.0322,4.52839 c -0.0303,4.2521 2.95505,6.37688 4.83939,3.44442 z m 15.35908,-5.79118 c 2.30855,-4.14882 1.79079,-4.95697 -1.39773,-2.18163 -3.10415,2.7019 -3.77293,4.87673 -1.49965,4.87673 0.76875,0 2.07257,-1.2128 2.89738,-2.6951 z m 287.87755,-16.18158 c 0.50271,-7.36086 0.30121,-13.10178 -0.47608,-13.56384 -1.29952,-0.77246 -78.84018,11.19918 -80.06728,12.36174 -1.32587,1.25614 2.18929,2.22914 39.08097,10.81764 44.464,10.35136 40.02847,11.38001 41.46239,-9.61554 z m -90.2921,11.27978 c 4.18205,-3.72774 4.78188,-6.26023 2.09484,-8.84464 -3.76203,-3.61832 -12.74846,-0.0567 -12.74846,5.05264 0,2.19568 4.03881,7.20885 5.80773,7.20885 0.55695,0 2.73759,-1.53758 4.84589,-3.41685 z M 415.74868,530.0039 c -0.48365,-1.21218 -0.93858,-5.44448 -1.01097,-9.40511 l -0.13168,-7.20112 -2.11847,7.51042 c -2.32673,8.24901 -1.8497,11.29981 1.76696,11.29981 1.56913,0 2.07549,-0.74692 1.49416,-2.204 z m 33.52702,-2.93653 c -1.39436,-0.35046 -3.67605,-0.35046 -5.07041,0 -1.39436,0.35047 -0.25352,0.63722 2.5352,0.63722 2.78873,0 3.92957,-0.28675 2.53521,-0.63722 z m 47.86893,-6.68192 c 20.33237,-2.99395 29.27375,-5.72386 29.27375,-8.93758 0,-0.65389 -5.25661,-2.45857 -11.68137,-4.01041 -11.66147,-2.81673 -11.72625,-2.81696 -38.02808,-0.12792 -39.09128,3.99656 -35.76319,3.05672 -35.76319,10.09913 0,3.2861 0.28344,6.24733 0.62986,6.58052 1.60103,1.53986 35.62138,-0.66637 55.56903,-3.60369 z m 92.86368,-1.23777 c 0.90808,-1.05239 1.33319,-2.77666 0.9447,-3.83172 -3.82376,-10.38443 -3.27176,-9.86115 -7.94859,-7.53504 -3.64379,1.81229 -4.20742,2.80349 -3.71634,6.53554 0.83672,6.35881 7.00385,9.13811 10.72023,4.83122 z m 46.53408,-6.6097 37.99129,-5.93523 -0.75885,-7.07167 c -1.03984,-9.69028 -5.24584,-23.09331 -7.50902,-23.92861 -1.46462,-0.54056 -73.69238,27.34675 -75.61364,29.19461 -0.2649,0.25478 0.53528,3.75677 1.77818,7.78219 1.53812,4.98155 2.87633,7.09138 4.19028,6.60643 1.06176,-0.39187 19.02656,-3.38334 39.92176,-6.64772 z m -490.47727,4.56509 c -2.35396,-2.00341 -97.794024,-32.65663 -98.766284,-31.72151 -1.62793,1.56574 -6.22937,29.23343 -5.05042,30.36736 0.62636,0.60242 23.9317,1.26875 51.78964,1.48071 27.857954,0.21197 51.270124,0.53375 52.027064,0.71509 0.86921,0.20822 0.86921,-0.10186 0,-0.84165 z m 128.87932,-0.0252 c 1.07248,-1.66902 -3.22392,-28.36008 -4.81072,-29.88627 -1.11801,-1.07531 -15.93826,3.19049 -91.76284,26.41265 -3.7847,1.15911 -6.88127,2.68409 -6.88127,3.38885 0,1.63829 102.40264,1.72222 103.45483,0.0848 z m 260.7966,-2.83745 c 1.27641,-1.98638 -3.46271,-3.06431 -6.53022,-1.48533 -1.53584,0.79056 -2.79244,1.72881 -2.79244,2.08502 0,1.20504 8.51495,0.6573 9.32266,-0.59969 z m -387.43045,-1.2808 c 0,-1.3985 -81.797184,-58.77933 -83.790784,-58.77933 -2.67672,0 -17.85411,26.9288 -16.00395,28.39533 1.23869,0.98186 94.904664,31.15386 97.259524,31.32957 1.39437,0.10408 2.53521,-0.32146 2.53521,-0.94557 z m 121.05435,-29.83664 c 0.90451,-0.86995 -13.37912,-28.94269 -14.72625,-28.94269 -1.54913,0 -83.14908,57.37194 -83.14908,58.46111 0,1.05086 96.28364,-27.98753 97.87533,-29.51842 z m 270.64833,22.69215 c 1.2888,-1.60201 1.17599,-1.7698 -0.55669,-0.82807 -5.13234,2.78953 -6.03267,3.92436 -4.05246,5.10794 1.11809,0.6683 2.10495,0.4359 2.43612,-0.57368 0.30618,-0.93337 1.28404,-2.60115 2.17303,-3.70619 z m -397.95001,-6.69929 c -4.34256,-5.93915 -17.46323,-23.96562 -29.15705,-40.05882 -11.69381,-16.0932 -22.143384,-29.45226 -23.221264,-29.68682 -1.96794,-0.42825 -23.99075,19.45958 -23.90254,21.58534 0.0403,0.97065 82.358514,58.95877 83.696134,58.95877 0.26416,0 -3.0727,-4.85931 -7.41528,-10.79847 z m 12.04208,8.61716 c 0,-3.12852 -30.33281,-93.01009 -31.9035,-94.53579 -1.55352,-1.50903 -29.654974,11.71477 -29.353004,13.81275 0.30083,2.09001 58.911924,82.79883 60.169994,82.85546 0.59758,0.0269 1.08651,-0.93269 1.08651,-2.13242 z m 379.80459,-1.51802 c 4.12571,-3.59108 3.42499,-6.55127 -1.33462,-5.63819 -2.19114,0.42034 -8.08029,1.2091 -13.08701,1.7528 -5.00671,0.5437 -8.81037,1.27009 -8.45259,1.6142 0.96141,0.92469 14.21512,4.30815 17.44164,4.45258 1.53081,0.0686 3.97547,-0.9131 5.43258,-2.18139 z m -156.10288,-0.1324 c 0.59759,-0.57476 1.52113,-1.12936 2.0523,-1.23245 4.39686,-0.85332 7.4849,-2.53017 7.4849,-4.06442 0,-3.49832 -2.71755,-8.68535 -6.412,-12.23867 l -3.71112,-3.56936 -0.69812,3.06318 c -0.38398,1.68476 -0.87689,4.77104 -1.09537,6.85839 -0.31242,2.98485 -0.86098,3.51649 -2.56913,2.48987 -1.88114,-1.13058 -1.61031,-2.89623 2.02303,-13.18865 l 4.19493,-11.8833 -2.45227,-11.50681 c -5.34918,-25.1 -7.34481,-31.59563 -14.237,-46.34057 -4.15399,-8.88687 -7.48719,-18.27008 -7.93288,-22.33163 l -0.76866,-7.00477 -17.57707,-11.10879 -17.57706,-11.10877 H 290.2821 c -28.68664,0 -34.76854,0.95683 -34.76854,5.46993 0,5.36205 32.67204,47.0396 52.33363,66.75852 6.68286,6.70237 8.16193,7.69315 6.74227,4.51646 -1.44233,-3.22742 -1.44746,-4.18838 -0.0248,-4.64449 2.93152,-0.93985 2.04917,-3.10518 -1.84571,-4.52944 -2.00174,-0.73199 -4.391,-2.9172 -5.30947,-4.85602 -1.42985,-3.0183 -1.21045,-3.99556 1.52592,-6.79703 l 3.19587,-3.27191 -3.74707,-2.36138 -3.74706,-2.36137 3.32547,-2.63314 c 3.2684,-2.58795 3.36413,-2.58507 5.57833,0.16751 1.93704,2.40802 2.77505,2.57182 5.97767,1.16836 4.91055,-2.15194 10.63797,1.26718 11.84484,7.07107 0.64885,3.12036 1.66205,4.12814 4.15394,4.13175 2.24354,0.003 7.52217,4.15492 16.5336,13.0037 12.53925,12.31295 17.90898,19.37046 17.90898,23.53802 0,2.22418 -17.0459,18.4476 -20.64382,19.64775 -1.39436,0.4651 -2.5352,1.5855 -2.5352,2.48978 0,1.59053 27.38749,27.65304 29.09449,27.68691 0.4648,0.01 1.33401,-0.45348 1.9316,-1.02823 z m 93.56116,-1.56894 19.5573,-2.44273 -22.90515,-5.32884 c -13.13038,-3.05476 -23.40556,-4.80019 -24.07775,-4.09006 -0.64492,0.68132 -1.57059,4.21704 -2.05702,7.85716 l -0.88442,6.61842 5.40487,-0.0856 c 2.97268,-0.0471 14.20565,-1.18482 24.96217,-2.52834 z m 86.92133,1.30283 c 0,-0.72111 -0.65191,-1.69863 -1.44869,-2.17225 -0.79678,-0.47364 -1.44869,0.11634 -1.44869,1.31111 0,1.19474 0.65191,2.17226 1.44869,2.17226 0.79678,0 1.44869,-0.59 1.44869,-1.31112 z m 26.52598,-1.43759 c 0.64566,-0.57318 -0.87115,-2.69723 -3.3707,-4.72012 -7.68805,-6.22195 -11.86252,-4.38904 -7.1127,3.12304 2.29889,3.63583 3.48217,4.3317 6.08184,3.57666 1.77519,-0.51558 3.7559,-1.40639 4.40156,-1.97958 z m -426.55584,-70.05385 0.19173,-27.51867 -6.88127,0.0489 c -6.84167,0.0486 -24.44647,3.14399 -25.91504,4.55646 -0.5985,0.57564 18.97199,60.67728 28.89876,88.74907 1.52922,4.32444 1.82585,2.43089 2.6193,-16.72021 0.49213,-11.87831 0.98107,-33.98033 1.08652,-49.1156 z m 58.88931,43.19387 36.74038,-25.42865 -12.30081,-11.84348 c -12.20584,-11.75203 -12.31982,-11.82073 -14.76131,-8.89611 -1.35328,1.62107 -9.53307,12.16586 -18.17734,23.43289 -8.64426,11.26704 -16.04184,20.17293 -16.43907,19.79087 -0.39723,-0.38206 3.13471,-5.59728 7.84875,-11.58942 4.71404,-5.9921 11.31729,-14.50004 14.6739,-18.90651 l 6.10294,-8.01177 -5.47829,0.007 -5.47827,0.007 -10.89807,20.80148 c -5.99394,11.44082 -10.06837,20.13921 -9.05431,19.32976 3.15512,-2.51849 2.04276,-0.0125 -3.05325,6.87802 -9.21789,12.46341 -12.1171,19.85763 -7.7863,19.85763 0.72637,0 17.85386,-11.4429 38.06105,-25.42864 z m 412.1263,9.38995 c 18.72431,-7.45067 34.58859,-14.02853 35.25399,-14.61744 2.61149,-2.31131 -14.33186,-28.32269 -17.86972,-27.43354 -3.23329,0.8126 -70.98576,47.13108 -70.98576,48.52889 0,0.66037 0.56227,1.20068 1.2495,1.20068 0.68721,0 3.6677,1.84835 6.62332,4.10746 4.16483,3.18335 6.08371,3.84345 8.52915,2.93405 1.73543,-0.64537 18.47522,-7.26941 37.19952,-14.7201 z M 520.26145,498.6364 c 8.96377,-0.89283 16.29775,-1.85335 16.29775,-2.13449 0,-0.28115 -17.72605,-9.04015 -39.39122,-19.46446 -36.62515,-17.62237 -39.52462,-18.77783 -41.29076,-16.45474 -2.92702,3.85 -10.79394,24.27092 -10.30009,26.7369 0.31275,1.56168 5.439,3.35131 17.82329,6.22232 27.96498,6.48298 34.59412,7.75382 37.66591,7.22067 1.59356,-0.27658 10.23136,-1.23336 19.19512,-2.1262 z M 170.17601,474.38385 c 15.38069,-34.48035 18.96676,-43.37857 20.21525,-50.16061 0.70538,-3.83171 1.68439,-8.29651 2.17561,-9.92177 1.0308,-3.41063 0.48201,-3.60316 -17.80973,-6.24796 -6.56903,-0.94982 -12.42842,-1.26074 -13.02084,-0.69095 -0.59244,0.5698 -1.24508,20.89875 -1.45033,45.17546 -0.24681,29.19421 0.1017,43.1959 1.02924,41.35274 0.77132,-1.53269 4.75868,-10.3108 8.8608,-19.50691 z m 383.01313,-4.21516 c -1.19491,-12.24217 -2.86312,-30.7231 -3.70715,-41.06872 -2.0017,-24.53584 -2.13446,-25.08407 -6.06911,-25.063 -3.03382,0.0163 -28.42432,6.3314 -29.45973,7.32725 -0.63648,0.61218 19.47121,62.41134 20.92675,64.31642 0.62609,0.81947 4.61277,5.76697 8.85928,10.99449 6.47212,7.96724 8.03649,9.2011 9.67174,7.62831 1.63525,-1.57278 1.59938,-5.47649 -0.22178,-24.13475 z m -19.70384,20.58703 c -1.99704,-2.45938 -48.43881,-55.63903 -50.74612,-58.10847 -2.02847,-2.17105 -22.96049,18.91564 -22.96049,23.13014 0,0.90066 72.63019,36.99168 75.14703,37.34166 0.29676,0.0412 -0.35142,-1.02223 -1.44042,-2.36333 z m 38.16099,-5.92173 c 3.43152,-20.12121 11.27096,-72.74496 11.27096,-75.6585 0,-3.02622 -0.81043,-3.56295 -6.65187,-4.40547 -3.65854,-0.52767 -6.80748,-0.75562 -6.99768,-0.50655 -0.19018,0.24908 -1.04175,2.64739 -1.89236,5.3296 l -1.54656,4.87672 -0.1479,-5.12816 c -0.16189,-5.61323 -2.01721,-6.5132 -11.37524,-5.51786 -5.62198,0.59796 -5.51836,-0.59459 -2.499,28.75958 1.18239,11.49514 2.85085,29.05135 3.70767,39.01381 0.85683,9.96244 1.76879,18.79076 2.0266,19.61845 0.294,0.94386 2.81143,1.20359 6.75241,0.69667 6.14972,-0.791 6.30645,-0.94187 7.35297,-7.07829 z m 23.51222,-28.91383 c 10.15518,-16.28578 19.11727,-29.99885 19.91579,-30.47351 1.95431,-1.16169 0.50018,1.34792 -19.39132,33.46656 -9.44315,15.24776 -16.98313,27.90233 -16.75551,28.12125 0.68884,0.66252 65.42336,-43.60945 65.93828,-45.09521 0.26309,-0.75914 -4.8896,-5.79847 -11.45045,-11.19849 -10.17842,-8.37751 -12.34621,-9.60337 -14.77318,-8.35411 -2.32471,1.19662 -2.68762,1.07127 -1.98646,-0.68614 0.47184,-1.18263 0.0817,-2.73033 -0.86685,-3.43929 -2.94715,-2.20265 -28.53206,-11.913 -29.34028,-11.13565 -0.59964,0.57674 -8.96329,52.22204 -12.53887,77.42718 -0.94328,6.64947 0.25623,5.03315 21.24885,-28.63259 z m -74.72956,-15.74431 c -4.83607,-14.90468 -8.97163,-27.28304 -9.19013,-27.50746 -0.21852,-0.22443 -2.71088,0.65305 -5.53856,1.94997 -4.97866,2.28348 -5.0699,2.46279 -2.88506,5.66991 1.62575,2.38644 2.00469,5.07661 1.35616,9.6275 -0.89074,6.25041 -0.76963,6.47946 11.72495,22.17442 6.94375,8.72235 12.78261,15.7072 12.97524,15.52193 0.19263,-0.18528 -3.60654,-12.5316 -8.4426,-27.43627 z m -158.45123,8.41649 c -2.28213,-2.29103 -4.80715,-4.16552 -5.61116,-4.16552 -0.80401,0 0.74019,2.18513 3.43157,4.85586 2.69137,2.67071 5.21639,4.54521 5.61115,4.16551 0.39476,-0.37968 -1.14944,-2.56482 -3.43156,-4.85585 z m 42.45842,-16.1876 c -0.47766,-3.68348 -0.57865,-3.58634 -1.27089,1.22235 -0.4312,2.99534 -0.20984,4.70234 0.51888,4.00147 0.69899,-0.6723 1.03739,-3.02301 0.75201,-5.22382 z m -61.8942,-5.08517 -3.35371,-3.09633 2.54391,3.8752 c 1.39916,2.13135 2.90833,3.52471 3.35371,3.09633 0.4454,-0.42837 -0.69937,-2.17221 -2.54391,-3.8752 z m 123.61398,-11.93233 c 0.41442,-0.64491 -1.50411,-3.27712 -4.26339,-5.84936 -4.05653,-3.78154 -5.36295,-4.3353 -6.8249,-2.89289 -1.45347,1.43408 -0.82442,2.58119 3.20766,5.84938 5.29774,4.29407 6.65913,4.79382 7.88063,2.89287 z m -30.47364,-22.80571 c 0.13704,-5.02805 -0.71341,-6.26527 -10.87376,-15.81851 -6.06236,-5.70009 -11.73147,-10.36381 -12.59802,-10.36381 -0.86656,0 -2.29139,2.66478 -3.16631,5.92173 -0.87491,3.25696 -1.89739,6.94493 -2.27217,8.1955 -0.7109,2.37208 7.2924,9.54299 19.68683,17.63928 7.4913,4.89344 8.96229,4.00446 9.22343,-5.57419 z m -221.57773,-2.75151 c 1.21876,-1.67357 1.9057,-4.33835 1.52652,-5.92174 -0.43502,-1.81668 1.95869,-7.24878 6.48758,-14.72238 7.64134,-12.60978 7.57057,-13.57772 -1.01145,-13.83556 -3.63406,-0.10924 -4.16024,1.26513 -1.47367,3.84907 1.41538,1.36132 1.11483,1.88644 -1.44869,2.5312 -1.77901,0.44746 -3.23456,1.38089 -3.23456,2.07427 0,0.69339 -1.53266,1.93235 -3.40589,2.75326 -2.84564,1.24703 -4.75335,0.76114 -11.59742,-2.95386 -4.50533,-2.44554 -8.79927,-5.4819 -9.54208,-6.74749 -1.06193,-1.8093 -1.73103,-1.93878 -3.13083,-0.60592 -2.66137,2.53415 0.74208,15.39183 6.1546,23.25111 3.73125,5.41799 14.04826,13.31297 17.45558,13.3577 0.5524,0.007 2.00154,-1.35611 3.22031,-3.02966 z m 226.69678,-13.87134 c 0.24793,-6.31351 -3.83317,-9.23849 -14.34248,-10.27943 l -9.41648,-0.9327 10.86517,10.61942 c 10.05325,9.82585 10.93557,10.38217 11.80728,7.44474 0.51816,-1.74608 1.0071,-4.82949 1.08651,-6.85203 z m 7.15582,-28.02137 c 8.52962,-26.70251 19.27432,-65.39142 18.61763,-67.03735 -0.4487,-1.12461 -3.78273,-2.18433 -8.1388,-2.58691 -4.05833,-0.37506 -8.56435,-1.71386 -10.01337,-2.97512 -4.94758,-4.30646 -7.01997,-2.84637 -10.18501,7.17579 -1.64468,5.20793 -3.73737,12.88877 -4.65039,17.06854 -0.91302,4.17975 -2.64173,8.67156 -3.84156,9.98178 -1.37078,1.49688 -1.84653,3.66589 -1.28015,5.83633 0.49874,1.91125 0.20777,3.86642 -0.6514,4.37715 -0.85403,0.50765 -1.21084,1.78001 -0.79294,2.82747 0.41792,1.04745 0.13647,2.27505 -0.62557,2.72798 -0.76198,0.45295 -1.38543,2.77493 -1.38543,5.15999 0,2.38503 -0.8878,5.32631 -1.9729,6.53617 -2.37331,2.64619 -7.02025,15.61149 -5.96064,16.63063 0.63631,0.612 13.60403,2.06081 24.89743,2.78166 2.71872,0.17352 3.62071,-1.10851 5.9831,-8.50411 z M 283.5962,343.87445 c -2.2986,-1.6598 -6.54974,-5.16593 -9.44701,-7.79138 l -5.26772,-4.77353 -0.57162,5.765 c -0.73281,7.39067 -0.18506,8.10026 6.77982,8.78305 13.51566,1.32503 13.19224,1.40041 8.50653,-1.98314 z m -48.36428,-1.74492 c 0,-1.08684 0.38664,-3.12461 0.8592,-4.52838 0.61362,-1.82281 0.001,-1.5567 -2.14083,0.93105 -3.58441,4.16194 -3.81016,5.5734 -0.8914,5.5734 1.19517,0 2.17303,-0.88924 2.17303,-1.97607 z m 29.92403,-5.36554 c -0.39684,-0.94334 -0.69735,0.16585 -0.66783,2.46488 0.0296,2.29903 0.3542,3.07086 0.7215,1.71518 0.36731,-1.3557 0.34316,-3.23672 -0.0537,-4.18006 z m -3.27828,2.35092 c 1.13783,-2.85186 1.13783,-15.03378 0,-17.88563 -1.48085,-3.71163 -4.70272,-2.47269 -8.46116,3.25364 -5.25481,8.00619 -6.16286,12.67511 -2.91009,14.96274 3.65372,2.56962 10.29111,2.37655 11.37125,-0.33075 z m 96.9947,-18.09696 c -0.12241,-7.33432 -0.6104,-13.70827 -1.08459,-14.16436 -1.28,-1.23111 -29.66038,9.85062 -29.36693,11.46694 0.18857,1.03868 25.41617,14.34793 29.94962,15.80046 0.39839,0.12762 0.62424,-5.76873 0.5019,-13.10304 z m -142.39316,4.93279 c 2.41251,-1.24182 7.1632,-8.09914 7.1632,-10.33963 0,-1.1487 -2.99929,-0.91659 -9.05431,0.70074 -5.87189,1.56843 -6.15529,2.09711 -4.01975,7.49946 1.58678,4.01411 1.98724,4.15906 5.91086,2.13943 z m -8.77238,-4.05652 c 0,-5.52939 -1.82271,-6.23879 -5.73595,-2.23247 -3.75447,3.8438 -2.89044,6.33029 2.19973,6.33029 2.94758,0 3.53622,-0.68213 3.53622,-4.09782 z m -53.26097,-5.95851 c -1.49614,-2.9869 -1.59908,-2.88788 -1.69116,1.62656 -0.0747,3.66418 0.30402,4.42035 1.59311,3.1805 1.25044,-1.20267 1.27599,-2.45541 0.0981,-4.80706 z m 44.56884,2.22844 c 0,-1.14951 -0.65191,-1.70251 -1.44869,-1.22889 -0.79678,0.47363 -1.44869,1.80164 -1.44869,2.95116 0,1.14951 0.65191,1.70252 1.44869,1.22889 0.79678,-0.47362 1.44869,-1.80164 1.44869,-2.95116 z m 73.56469,-17.21058 c 3.41038,-4.2379 9.38097,-12.13786 13.26802,-17.55549 3.88705,-5.41762 10.30844,-13.26101 14.26976,-17.42976 3.96133,-4.16875 7.45106,-8.82136 7.75497,-10.3391 0.65942,-3.29336 19.28985,-15.54742 34.20058,-22.49525 5.77665,-2.6917 10.48251,-5.31531 10.45748,-5.83023 -0.0251,-0.51495 -1.73669,-2.12219 -3.80368,-3.57167 -3.53009,-2.47548 -4.00241,-2.49661 -7.7836,-0.34833 -5.83687,3.31622 -7.44283,2.96061 -17.98783,-3.98301 -8.40758,-5.53618 -10.41069,-6.2586 -17.11367,-6.17213 -12.94095,0.16693 -13.15627,0.39611 -15.08848,16.05995 -3.41155,27.65639 -4.64475,33.52341 -9.5053,45.22222 -2.72297,6.5539 -8.32327,17.18681 -12.44509,23.62871 -4.12183,6.44189 -7.46004,12.99275 -7.41825,14.55748 0.0707,2.64432 0.24942,2.60225 2.53521,-0.59658 1.35257,-1.89286 5.24953,-6.90892 8.65988,-11.14681 z m -70.06146,10.25922 c 4.6959,-1.73315 2.47694,-4.72765 -3.50323,-4.72765 -5.6268,0 -5.72128,0.0775 -3.25955,2.67059 2.8767,3.03032 3.56144,3.23861 6.76278,2.05706 z m 282.07631,-38.26474 c 2.09305,-1.07739 3.45334,-1.04418 4.91172,0.11996 2.09101,1.66908 5.04127,0.79191 5.04127,-1.49887 0,-0.72111 -4.88933,-1.31112 -10.86517,-1.31112 -8.69213,0 -10.86517,0.41801 -10.86517,2.09003 0,2.49334 7.3697,2.86878 11.77735,0.6 z"
       style="fill:#000000;stroke-width:1.42075" />
  </g>
</svg>
