<?xml version="1.0" encoding="UTF-8" standalone="no"?>
<svg
   xmlns:dc="http://purl.org/dc/elements/1.1/"
   xmlns:cc="http://creativecommons.org/ns#"
   xmlns:rdf="http://www.w3.org/1999/02/22-rdf-syntax-ns#"
   xmlns:svg="http://www.w3.org/2000/svg"
   xmlns="http://www.w3.org/2000/svg"
   xmlns:sodipodi="http://sodipodi.sourceforge.net/DTD/sodipodi-0.dtd"
   xmlns:inkscape="http://www.inkscape.org/namespaces/inkscape"
   version="1.1"
   id="svg452"
   width="1279.6632"
   height="996.94604"
   viewBox="0 0 1279.6632 996.94604"
   sodipodi:docname="велотрек.svg"
   inkscape:version="1.0 (4035a4fb49, 2020-05-01)">
  <metadata
     id="metadata458">
    <rdf:RDF>
      <cc:Work
         rdf:about="">
        <dc:format>image/svg+xml</dc:format>
        <dc:type
           rdf:resource="http://purl.org/dc/dcmitype/StillImage" />
        <dc:title></dc:title>
      </cc:Work>
    </rdf:RDF>
  </metadata>
  <defs
     id="defs456" />
  <sodipodi:namedview
     inkscape:document-rotation="0"
     pagecolor="#ffffff"
     bordercolor="#666666"
     borderopacity="1"
     objecttolerance="10"
     gridtolerance="10"
     guidetolerance="10"
     inkscape:pageopacity="0"
     inkscape:pageshadow="2"
     inkscape:window-width="1920"
     inkscape:window-height="1018"
     id="namedview454"
     showgrid="false"
     inkscape:zoom="0.85255767"
     inkscape:cx="216.46136"
     inkscape:cy="466.98575"
     inkscape:window-x="-6"
     inkscape:window-y="-6"
     inkscape:window-maximized="1"
     inkscape:current-layer="g460" />
  <g
     transform="translate(-423.53864,-31.514246)"
     inkscape:groupmode="layer"
     inkscape:label="Image"
     id="g460">
    <path
       id="path50"
       d="m 1072.49,1026.0569 c -16.3778,-2.4939 -33.5089,-7.2097 -36.7951,-10.1289 -1.0889,-0.9672 -4.7328,-5.1975 -8.0975,-9.4007 -6.2181,-7.76738 -11.2315,-17.3465 -16.1501,-30.85789 l -2.7303,-7.5 -10.89259,-3.06966 c -5.99095,-1.68832 -11.56764,-3.35644 -12.39264,-3.70694 -0.825,-0.3505 -7.35,-2.72511 -14.5,-5.2769 -7.15,-2.55179 -14.40793,-5.49915 -16.12874,-6.54968 -4.517,-2.75756 -11.37126,-10.51251 -11.37126,-12.86549 0,-1.10734 -2.25,-6.34029 -5,-11.62877 -2.75,-5.28847 -5,-10.87012 -5,-12.40365 0,-3.93914 3.68541,-15.39719 5.75964,-17.90688 3.02236,-3.65688 45.75941,-17.98249 67.59079,-22.65668 l 7.8505,-1.68081 -0.6109,-3.05435 c -0.336,-1.6799 -0.7477,-3.1912 -0.915,-3.35844 -0.1672,-0.16725 -10.85,1.43962 -23.73953,3.57081 -18.36093,3.03586 -27.19693,3.99033 -40.80661,4.40796 l -17.37111,0.53306 -4.84482,-4.53176 c -2.66465,-2.49247 -5.11181,-5.37299 -5.43814,-6.40116 -0.77768,-2.45023 2.27036,-24.38243 3.93891,-28.34255 0.71331,-1.69296 6.98405,-10.12258 13.93499,-18.73248 11.54281,-14.29772 14.00357,-16.73109 28.39467,-28.07865 8.66613,-6.83335 20.97575,-16.33009 27.35471,-21.10386 l 11.59813,-8.67958 1.7878,-12.74177 c 1.2821,-9.13734 1.7763,-18.81508 1.7472,-34.21113 l -0.041,-21.46935 11.6018,-16.98946 11.6019,-16.98946 1.1966,-27.04118 c 0.6581,-14.87266 1.4479,-33.53093 1.7553,-41.46282 l 0.5587,-14.42164 -6.2024,5.91474 c -3.4113,3.2531 -10.3649,9.95895 -15.4524,14.90188 l -9.25,8.98715 v 14.32239 c 0,12.36186 -0.4891,16.81334 -3.5729,32.51975 -4.04507,20.60283 -3.86375,20.19231 -23.49624,53.19736 -12.24648,20.5881 -15.37539,24.87429 -30.06777,41.18877 -5.85028,6.49618 -16.14912,19.01123 -22.88631,27.81123 -6.73719,8.8 -14.5308,18.7 -17.31914,22 -9.12733,10.8022 -30.99901,32.58292 -38.65768,38.49689 -4.125,3.18529 -11.1,9.49943 -15.5,14.03141 -4.4,4.53198 -9.8,9.37895 -12,10.77104 -4.32128,2.73436 -32.19188,23.09274 -66.41192,48.51129 -20.31787,15.09207 -23.39996,16.97899 -60.32068,36.92963 -29.23979,15.80014 -47.27823,24.75264 -72.58809,36.02554 l -33.6793,15.00062 -38.5,10.42857 -38.5,10.4285 -31,-0.6858 -31,-0.6859 -6.5,-3.3023 c -12.17766,-6.1869 -16.82173,-9.75954 -22.07689,-16.98341 -6.44984,-8.86612 -13.10876,-21.97617 -16.01004,-31.52051 -2.14939,-7.07087 -2.20397,-8.02431 -1.08443,-18.94557 2.50805,-24.46636 5.6415,-34.00841 22.16586,-67.5 17.78284,-36.04229 28.69374,-50.6284 56.19669,-75.12588 7.31984,-6.51994 20.50881,-18.78122 29.30881,-27.24727 17.11038,-16.46107 42.32437,-37.65329 58.23751,-48.94832 5.36937,-3.81113 14.48749,-11.1125 20.26249,-16.22526 8.89467,-7.87469 27.40795,-20.91253 51.02622,-35.93485 3.01058,-1.91487 11.99878,-8.18534 19.97378,-13.93437 7.975,-5.74903 23.275,-16.50236 34,-23.89628 10.725,-7.39392 28.05,-19.40985 38.5,-26.70206 21.579,-15.05826 23.02326,-15.84078 53.04036,-28.73829 19.05529,-8.18753 24.47255,-10.04108 40.95964,-14.01464 29.07545,-7.00748 51.06764,-10.51311 58.71178,-9.35886 5.55075,0.83816 37.67465,3.62338 49.28822,4.27341 l 9,0.50375 39.00003,-25.92226 c 54.9976,-36.55549 83.3081,-59.06223 84.8884,-67.48605 l 0.6497,-3.46293 -5.7691,-0.6735 c -9.4425,-1.10235 -13.2604,-2.45342 -14.2441,-5.04071 -0.488,-1.28351 -1.1753,-6.77334 -1.5274,-12.19964 -0.471,-7.25888 -1.7246,-13.50692 -4.7441,-23.64424 l -4.1041,-13.77824 -11.5746,-10.81773 c -21.4206,-20.01972 -21.825,-20.3126 -35.8382,-25.95471 -7.0637,-2.84409 -13.49153,-5.17107 -14.28396,-5.17107 -0.79242,0 -12.46842,3.41269 -25.94667,7.58375 l -24.5059,7.58375 -13.5,8.77343 c -14.60675,9.49267 -18.07804,11.43805 -22.14819,12.41223 -3.78659,0.90631 -15.57405,12.59185 -16.34452,16.20321 -1.23943,5.80945 -5.65776,16.31394 -7.86246,18.69286 -2.22951,2.40568 -2.44978,2.4304 -27.69611,3.10911 l -25.44872,0.68414 -12,-4.30835 -12,-4.30834 -3,-5.9629 c -2.98793,-5.9389 -3.00343,-6.05911 -3.85336,-29.87935 -0.75726,-21.22312 -0.65972,-24.63183 0.86613,-30.26877 2.50298,-9.24678 4.24082,-10.31477 16.78431,-10.31477 8.87352,0 11.22577,0.40948 20.44208,3.55859 8.79889,3.00647 10.67328,3.35556 12.08117,2.25 0.91654,-0.71973 5.45765,-4.58988 10.09135,-8.60034 10.57286,-9.15078 19.86828,-16.16792 22.99821,-17.36141 1.32544,-0.5054 13.05805,-3.07982 26.07248,-5.72093 l 23.66258,-4.80201 15.92753,-11.04571 c 10.88834,-7.55105 30.3229,-19.03692 61.42755,-36.3038 l 45.5,-25.25809 16.0577,-3.28355 c 15.5528,-3.18034 17.3406,-3.82245 56.8681,-20.42607 l 40.8104,-17.14251 17.6319,-13.23095 c 9.6975,-7.27703 24.8319,-18.37427 33.6319,-24.66054 8.8,-6.28627 20.5293,-14.89086 26.0653,-19.1213 l 10.0653,-7.69171 1.7169,-11.32261 c 1.9289,-12.72023 1.7051,-12.29232 15.3081,-29.27194 11.5928,-14.470331 42.4344,-42.487567 57.4995,-52.233799 3.6603,-2.368016 12.6603,-7.248885 20,-10.846377 15.1538,-7.42751 17.3963,-7.871787 45.4276,-8.999658 l 15.9173,-0.64045 43.5,7.947046 43.5,7.947046 9.3838,5.690344 c 18.0617,10.95266 41.782,28.594224 40.9036,30.421386 -7.1874,14.950619 -21.3175,41.625872 -23.2933,43.973972 -1.4695,1.74646 -2.4516,3.17537 -2.1824,3.17537 0.2693,0 5.8177,-0.91089 12.3299,-2.02421 l 11.8403,-2.0242 7.0091,2.1251 c 11.0589,3.353 33.1991,11.79131 41.9845,16.00156 7.1282,3.41612 9.8674,5.65884 24.5245,20.07992 16.3515,16.0882 60.8971,66.6453 65.5021,74.34183 3.7829,6.3223 11.4741,45.48131 12.1775,62 0.7965,18.7036 -3.8377,78.52528 -6.6576,85.94224 -0.5676,1.49274 -2.3668,8.00145 -3.9983,14.46379 -3.4571,13.69383 -4.9788,17.41636 -20.4396,50.00408 -13.0778,27.56484 -15.7199,32.08382 -22.3752,38.27025 -5.2893,4.91669 -42.4722,33.32591 -51.7089,39.50766 -6.2734,4.19854 -28.8528,14.32009 -36.3605,16.29914 -4.4279,1.16721 -27.5414,11.0226 -45.5275,19.41251 -5.4384,2.53684 -17.1384,8.84418 -26,14.01632 -15.4963,9.04451 -20.327,11.13664 -51.4162,22.26787 -2.3673,0.84759 -4.0813,1.764 -3.8088,2.03647 0.2725,0.27246 4.8329,-0.24396 10.1342,-1.14762 15.2051,-2.5918 31.3652,-4.57271 37.3037,-4.57271 6.9949,0 24.9749,5.17385 32.163,9.25509 11.0754,6.28835 18.5847,11.49404 21.7019,15.0444 4.979,5.67078 11.1813,15.20844 14.6466,22.52287 2.9777,6.28532 3.1694,7.38265 3.2622,18.67764 0.1125,13.68997 1.728,8.67001 -18.8261,58.5 -11.6546,28.25483 -16.1905,35.80965 -32.7215,54.5 -13.9646,15.78878 -23.4967,27.29011 -30.2988,36.55814 -7.3393,10 -33.8929,36.6851 -50.7385,50.9898 -7.4174,6.29863 -17.7888,15.72706 -23.0476,20.95206 -13.0595,12.97578 -39.877,32.63666 -73.9661,54.22719 -61.3323,38.84518 -93.3098,56.90564 -117.4009,66.3066 -17.0219,6.6424 -55.7292,15.6939 -81.0991,18.9647 -11,1.4182 -22.7,3.0078 -26,3.5325 -7.7513,1.2323 -9.0772,1.1529 -27.4418,-1.6435 z M 966.34934,826.26427 c 7.75802,-9.29782 13.91099,-17.09964 13.67326,-17.33736 -1.55381,-1.55381 -26.64682,6.0419 -29.1698,8.82976 -2.52819,2.79362 -3.44579,9.36716 -2.75581,19.74213 0.735,11.05179 -1.48149,12.41606 18.25235,-11.23453 z m 14.85351,17.88048 c 2.82374,-0.83856 6.56858,-2.73171 8.32186,-4.20699 2.94824,-2.48079 8.90445,-13.17542 8.90627,-15.9916 10e-4,-2.1739 -4.36204,-10.27675 -5.5341,-10.27675 -0.91098,0 -20.64747,25.4683 -23.7648,30.6665 -1.12553,1.87684 5.45815,1.77258 12.07077,-0.19116 z m 127.22895,-206.0367 c 6.875,-2.01004 12.6435,-3.78711 12.819,-3.94904 0.5613,-0.51786 -2.1045,-20.49282 -2.7238,-20.40997 -0.3274,0.0438 -4.6452,4.57912 -9.5952,10.0785 -15.53,17.25352 -17.0608,19.15125 -14.9359,18.51487 1.0647,-0.31885 7.5609,-2.22431 14.4359,-4.23436 z m 98.6883,-33.77612 c 0.9526,-0.93185 13.3117,-29.99812 13.3117,-31.30649 0,-0.19582 -6.1146,-0.35603 -13.5879,-0.35603 h -13.5879 l 0.5758,3.75 c 0.3168,2.0625 1.267,9.15 2.1117,15.75 2.2847,17.85202 1.7933,16.68259 6.2439,14.85913 2.0594,-0.84374 4.2791,-2.05722 4.9327,-2.69661 z m -100.1883,-12.44413 7,-3.71839 0.2787,-13.82884 0.2787,-13.82885 -5.2787,2.82885 -5.2787,2.82884 -3.0619,14.75 c -1.8902,9.10553 -2.6556,14.7379 -2,14.71839 0.584,-0.0174 4.2119,-1.70489 8.0619,-3.75 z m 168.1797,-71.51112 33.8203,-20.29272 26.5,-9.9212 c 14.575,-5.45666 30.991,-11.82687 36.4801,-14.15601 9.9258,-4.21173 9.9894,-4.26099 11.6725,-9.03608 2.0821,-5.90698 2.2085,-7.35434 0.5974,-6.83756 -0.6875,0.22052 -15.2,4.88992 -32.25,10.37644 -17.05,5.48653 -36.0414,10.97588 -42.203,12.19854 -9.9902,1.98239 -12.3717,2.11602 -22,1.23442 l -10.797,-0.98861 -40.5,19.13691 -40.5,19.13691 -0.3359,3.47084 c -0.1847,1.90897 -0.036,6.28335 0.3296,9.72085 l 0.6655,6.25 h 22.3501 22.3502 z M 1145.7744,398.65703 c 21.8899,-19.12778 30.3785,-25.7907 49.1652,-38.59123 32.7682,-22.32696 99.304,-64.59951 103.9922,-66.06988 2.2,-0.69 5.9426,-1.7462 8.317,-2.34712 4.595,-1.16293 4.6994,-1.53697 2.5596,-9.17057 -0.2607,-0.93015 -3.4223,-3.33992 -7.0257,-5.35506 l -6.5516,-3.66388 0.6985,-9.75923 c 0.655,-9.15137 0.5537,-9.98007 -1.6258,-13.30501 l -2.3244,-3.54578 -17.5238,8.83463 c -9.6381,4.85905 -25.3988,11.83258 -35.0238,15.49673 -9.625,3.66416 -30.1668,11.77323 -45.6485,18.02016 l -28.1484,11.35805 -25.4332,2.4594 -25.4331,2.4594 -11.9495,7.84588 c -7.5273,4.94239 -22.5921,12.99984 -40.7084,21.77299 l -28.759,13.9271 18.8788,19.0729 c 13.3076,13.44444 21.3481,22.52995 27.2464,30.78766 l 8.3677,11.71476 10.1689,3.62299 c 5.5929,1.99265 11.9125,4.69604 14.0436,6.00754 2.1311,1.3115 4.4112,2.1961 5.0669,1.96578 0.6558,-0.23032 13.0984,-10.82251 27.6504,-23.53821 z"
       style="fill:#000000" />
  </g>
</svg>
