<?xml version="1.0" encoding="UTF-8" standalone="no"?>
<svg
   xmlns:dc="http://purl.org/dc/elements/1.1/"
   xmlns:cc="http://creativecommons.org/ns#"
   xmlns:rdf="http://www.w3.org/1999/02/22-rdf-syntax-ns#"
   xmlns:svg="http://www.w3.org/2000/svg"
   xmlns="http://www.w3.org/2000/svg"
   xmlns:sodipodi="http://sodipodi.sourceforge.net/DTD/sodipodi-0.dtd"
   xmlns:inkscape="http://www.inkscape.org/namespaces/inkscape"
   version="1.1"
   id="svg376"
   width="199.78226"
   height="54.103291"
   viewBox="0 0 199.78226 54.103291"
   sodipodi:docname="formula_1_.svg"
   inkscape:version="1.0 (4035a4fb49, 2020-05-01)">
  <metadata
     id="metadata382">
    <rdf:RDF>
      <cc:Work
         rdf:about="">
        <dc:format>image/svg+xml</dc:format>
        <dc:type
           rdf:resource="http://purl.org/dc/dcmitype/StillImage" />
        <dc:title></dc:title>
      </cc:Work>
    </rdf:RDF>
  </metadata>
  <defs
     id="defs380" />
  <sodipodi:namedview
     inkscape:document-rotation="0"
     pagecolor="#ffffff"
     bordercolor="#666666"
     borderopacity="1"
     objecttolerance="10"
     gridtolerance="10"
     guidetolerance="10"
     inkscape:pageopacity="0"
     inkscape:pageshadow="2"
     inkscape:window-width="1920"
     inkscape:window-height="1018"
     id="namedview378"
     showgrid="false"
     inkscape:zoom="4.6456916"
     inkscape:cx="82.177146"
     inkscape:cy="77.912515"
     inkscape:window-x="-6"
     inkscape:window-y="-6"
     inkscape:window-maximized="1"
     inkscape:current-layer="g384" />
  <g
     transform="translate(-10.320356,33.274545)"
     inkscape:groupmode="layer"
     inkscape:label="Image"
     id="g384">
    <path
       id="path8"
       d="m 33.431414,20.575753 c -1.129874,-0.284327 -4.041928,-1.880461 -6.471232,-3.546965 -2.429304,-1.666503 -5.17952,-3.030006 -6.111591,-3.030006 -1.233603,0 -1.386936,-0.314297 -0.563577,-1.1552 0.82336,-0.840904 0.460062,-2.1651 -1.335305,-4.8670939 -1.356522,-2.041541 -2.466404,-4.354123 -2.466404,-5.13907 0,-0.784947 -0.621694,-1.427176 -1.38154,-1.427176 -0.759848,0 -2.146511,-0.86329401 -3.081475,-1.91843201 -1.380367,-1.55778799 -1.699934,-4.25387199 -1.699934,-14.34176609 0,-14.597836 0.804929,-16.372406 7.039019,-15.518422 2.73998,0.375339 4.220803,0.04561 5.198476,-1.15751 1.561336,-1.921382 13.887434,-2.442417 14.982195,-0.633311 0.349151,0.576975 1.460344,1.049045 2.469318,1.049045 4.933998,0 6.773516,7.434451 3.131895,12.657612 l -2.102474,3.015568 4.112034,-0.417799 c 2.647111,-0.268957 7.595235,-2.5407 13.889375,-6.376781 13.479373,-8.215255 16.433772,-9.121606 26.904886,-8.253881 9.024676,0.747861 9.725394,1.137087 12.590002,6.993344 1.353021,2.766051 2.356718,3.456144 5.404488,3.715862 2.07674,0.176972 4.54812,1.22768 5.55178,2.360352 2.46325,2.779861 8.76315,2.74811 11.2485,-0.05669 2.20732,-2.491039 4.90622,-2.70307 6.67653,-0.524522 0.7754,0.954207 3.02465,1.573567 5.71452,1.573567 2.4397,0 4.75537,0.528073 5.14595,1.173496 0.49322,0.815054 3.52289,0.948768 9.91878,0.437764 8.35366,-0.667419 9.41395,-0.541155 11.41961,1.3599 2.2075,2.092368 8.47816,3.304583 10.49828,2.029479 2.72681,-1.721166 15.61394,3.2590351 19.34947,7.4775571 1.79998,2.032707 11.70256,7.446749 13.64269,7.45887 0.45869,0.0028 2.22064,1.185654 3.91545,2.628416 l 3.08148,2.623207 -3.59506,3.2408719 -3.59505,3.240873 -13.63407,-0.492121 -13.63408,-0.49212 -4.07551,3.015192 c -5.57806,4.126825 -11.9838,4.176653 -17.17394,0.133588 -2.9363,-2.287349 -4.66972,-2.840496 -8.40552,-2.682268 -2.5885,0.109634 -25.88614,0.212707 -51.772522,0.229051 l -47.066159,0.02972 -3.086609,2.652551 c -1.697634,1.4589 -3.706672,2.652548 -4.464528,2.652548 -0.757856,0 -1.993499,0.179924 -2.745876,0.39983 -0.752376,0.219907 -2.292398,0.167199 -3.422272,-0.117129 z"
       style="fill:#000000;stroke-width:1.03804" />
  </g>
</svg>
