<?xml version="1.0" encoding="UTF-8" standalone="no"?>
<svg
   xmlns:dc="http://purl.org/dc/elements/1.1/"
   xmlns:cc="http://creativecommons.org/ns#"
   xmlns:rdf="http://www.w3.org/1999/02/22-rdf-syntax-ns#"
   xmlns:svg="http://www.w3.org/2000/svg"
   xmlns="http://www.w3.org/2000/svg"
   xmlns:sodipodi="http://sodipodi.sourceforge.net/DTD/sodipodi-0.dtd"
   xmlns:inkscape="http://www.inkscape.org/namespaces/inkscape"
   inkscape:version="1.0 (4035a4fb49, 2020-05-01)"
   sodipodi:docname="мото.svg"
   id="svg10"
   viewBox="0 0 116.87613 70.132755"
   style="clip-rule:evenodd;fill-rule:evenodd;image-rendering:optimizeQuality;shape-rendering:geometricPrecision;text-rendering:geometricPrecision"
   version="1.1"
   height="21.265156mm"
   width="35.436806mm"
   xml:space="preserve"><metadata
   id="metadata14"><rdf:RDF><cc:Work
       rdf:about=""><dc:format>image/svg+xml</dc:format><dc:type
         rdf:resource="http://purl.org/dc/dcmitype/StillImage" /><dc:title></dc:title></cc:Work></rdf:RDF></metadata><sodipodi:namedview
   inkscape:current-layer="svg10"
   inkscape:window-maximized="1"
   inkscape:window-y="-6"
   inkscape:window-x="-6"
   inkscape:cy="92.380521"
   inkscape:cx="82.547281"
   inkscape:zoom="3.3788992"
   showgrid="false"
   id="namedview12"
   inkscape:window-height="1018"
   inkscape:window-width="1920"
   inkscape:pageshadow="2"
   inkscape:pageopacity="0"
   guidetolerance="10"
   gridtolerance="10"
   objecttolerance="10"
   borderopacity="1"
   bordercolor="#666666"
   pagecolor="#ffffff"
   inkscape:document-rotation="0" />
 <defs
   id="defs4">
  <style
   id="style2"
   type="text/css">
   <![CDATA[
    .fil0 {fill:black;fill-rule:nonzero}
   ]]>
  </style>
 </defs>
 
<path
   id="path78"
   d="M 16.098573,69.945703 C 12.189076,69.284605 8.4394864,67.40098 5.5664987,64.654865 3.7429356,62.91183 2.9513538,61.843571 1.8176201,59.59566 0.34433842,56.674512 0.09308272,55.492665 0.10356222,51.533149 c 0.0085,-3.212482 0.060015,-3.63206 0.6554437,-5.338691 C 3.2894858,38.94154 9.4443344,34.207077 17.503061,33.314511 c 5.750427,-0.636904 11.364605,1.228149 15.706568,5.217787 1.561072,1.434402 1.566727,1.437208 2.204279,1.09431 0.351554,-0.189079 1.41785,-0.766024 2.369544,-1.282097 L 39.513806,37.406196 38.26678,36.35727 C 33.789124,32.590922 28.006524,30.363475 20.043072,29.337531 16.327322,28.858825 14.595254,28.737135 8.9056634,28.555049 3.089199,28.368905 2.343284,28.197304 1.0147966,26.73974 0.57294162,26.254952 0.14206642,25.511106 0.05729612,25.086746 -0.08441348,24.37735 -0.01738588,24.248973 0.88921282,23.493411 3.300093,21.484169 8.0457235,20.282646 14.938426,19.936357 c 2.918678,-0.146635 7.976241,0.145282 9.447992,0.545328 1.446953,0.393307 2.234524,1.219366 3.411931,3.578677 1.974449,3.956434 2.723609,4.2628 10.807071,4.41954 3.684689,0.07145 5.784082,0.02885 6.205305,-0.125899 0.504033,-0.185172 0.911632,-0.76829 1.957333,-2.800189 1.139364,-2.213896 1.561757,-2.792061 3.075869,-4.2102 1.984823,-1.859011 3.873932,-2.889561 7.126891,-3.887872 3.499455,-1.073959 8.484049,-1.765117 12.775399,-1.771421 1.249286,-0.0017 2.412029,-0.08702 2.583872,-0.189295 0.252921,-0.150531 0.15762,-0.658404 -0.500272,-2.666006 -0.44699,-1.364029 -0.979774,-3.0365105 -1.183959,-3.7166225 l -0.371247,-1.236572 -1.680805,0.699824 c -2.244531,0.934539 -3.198306,1.4454805 -5.348543,2.8652325 -1.500195,0.990545 -1.979313,1.196095 -2.787972,1.196095 -2.093137,0 -3.515593,-1.410336 -3.339128,-3.3106765 0.129916,-1.399029 0.567326,-1.936548 2.886374,-3.546959 3.68069,-2.555974 10.439311,-5.78089698 12.115292,-5.78089698 1.928878,0 2.949121,1.14627498 3.949216,4.43707298 l 0.770681,2.53591 h 2.710281 c 3.181868,0 4.444963,0.320755 5.672712,1.440551 1.05281,0.960239 1.291174,1.402417 2.334132,4.3299505 1.212806,3.404296 1.978363,6.543349 1.978714,8.113406 2.32e-4,1.199224 -0.08075,1.441019 -0.707386,2.111278 -0.782166,0.836609 -1.534412,1.122672 -3.526851,1.341174 -0.733793,0.08047 -1.334169,0.191043 -1.334169,0.245711 0,0.176231 5.066869,9.874051 5.158943,9.874051 0.0489,0 0.927935,-0.287568 1.953407,-0.639039 4.620224,-1.583534 11.511181,-1.162054 16.289521,0.996339 2.75878,1.246149 5.3442,3.83063 5.36467,5.362726 0.004,0.323736 -0.21797,0.381335 -1.47174,0.381335 h -1.47683 l 2.0002,1.906675 c 3.45919,3.297425 4.88094,6.308861 5.0667,10.731856 0.13442,3.200391 -0.27675,5.119939 -1.65695,7.735654 -1.88794,3.577938 -4.38283,5.916528 -8.141,7.630971 -2.79111,1.273277 -5.22247,1.72497 -8.458437,1.571388 -4.951458,-0.234998 -9.003781,-2.137557 -12.37724,-5.811099 -1.227741,-1.336954 -3.211785,-4.965854 -3.633918,-6.646587 -0.486306,-1.936242 -0.548188,-4.462373 -0.152095,-6.208848 0.202018,-0.890762 0.334892,-1.650011 0.295273,-1.687218 -0.03962,-0.03721 -0.415947,0.620737 -0.836287,1.462097 -0.822699,1.646733 -1.390264,2.171548 -2.348441,2.171548 -1.08134,0 -1.482814,-0.699963 -1.574261,-2.744695 -0.157017,-3.510883 1.28192,-7.199936 4.065936,-10.423984 l 1.304534,-1.510721 -2.412337,-4.422503 c -1.326786,-2.432379 -2.468718,-4.424622 -2.537626,-4.42721 -0.06891,-0.0026 -0.46944,0.746917 -0.890072,1.665569 -3.112465,6.79756 -4.508261,12.917423 -4.488995,19.681979 l 0.01086,3.810844 -0.879795,0.785986 c -4.114462,3.675747 -19.943284,3.880618 -24.910696,0.322416 -0.76279,-0.54639 -0.862119,-0.558624 -4.535726,-0.558624 -2.803736,0 -3.777846,0.06905 -3.842601,0.272383 -0.687473,2.15872 -0.9799,2.898802 -1.657442,4.194685 -1.122504,2.146935 -2.912532,4.297713 -4.833747,5.807909 -1.80923,1.42217 -5.46159,3.220304 -7.677308,3.779707 -1.637939,0.413529 -6.889585,0.613326 -8.585086,0.326615 z m 86.477247,-6.732078 c 7.23182,-2.336662 9.25464,-10.831862 3.74454,-15.725881 -2.09658,-1.862159 -5.2053,-2.843635 -7.969378,-2.51607 -2.098237,0.248656 -2.120331,0.32269 -0.63668,2.133308 0.719011,0.877467 2.146541,2.514895 3.172278,3.638733 1.95033,2.136832 2.29002,2.855494 2.01069,4.253819 -0.41066,2.055753 -2.968667,3.16734 -4.940021,2.146687 -0.817707,-0.423363 -2.599295,-2.209479 -5.162138,-5.175261 -0.932088,-1.078633 -1.776129,-1.990843 -1.875647,-2.027133 -0.248169,-0.0905 -1.058798,2.026137 -1.235347,3.225614 -0.333533,2.266039 0.741812,5.449611 2.4693,7.310398 2.561129,2.758749 6.859426,3.887015 10.422403,2.735786 z M 22.765813,62.350989 c 3.016183,-0.785452 5.759725,-2.883364 7.005899,-5.357212 0.328167,-0.651464 0.596666,-1.239581 0.596666,-1.306925 0,-0.06735 -2.67286,-0.122448 -5.939689,-0.122448 -6.550812,0 -7.055373,-0.08522 -8.017532,-1.354201 -0.609771,-0.804218 -0.802967,-2.265472 -0.437153,-3.306432 0.337027,-0.959038 0.804983,-1.271046 6.563384,-4.376098 2.392802,-1.29025 4.35055,-2.413929 4.35055,-2.497064 0,-0.08314 -0.290341,-0.352746 -0.645199,-0.599136 -2.571236,-1.785282 -6.269011,-2.447391 -9.414586,-1.685736 -8.5836089,2.078395 -11.4834737,12.159104 -5.175268,17.990618 2.837571,2.623145 7.167882,3.641974 11.112928,2.614634 z M 44.754198,48.485617 c 0,-0.333278 -1.516541,-4.659648 -1.6907,-4.823204 -0.05358,-0.05031 -1.139742,0.468021 -2.413704,1.151857 l -2.316298,1.243335 0.32644,1.103479 c 0.179539,0.606913 0.367963,1.226051 0.418715,1.375861 0.06708,0.198011 0.854506,0.272382 2.883914,0.272382 2.314699,0 2.791633,-0.0553 2.791633,-0.32371 z"
   style="fill:#000000;stroke-width:0.224857" /></svg>
