<?xml version="1.0" encoding="UTF-8" standalone="no"?>
<svg
   xmlns:dc="http://purl.org/dc/elements/1.1/"
   xmlns:cc="http://creativecommons.org/ns#"
   xmlns:rdf="http://www.w3.org/1999/02/22-rdf-syntax-ns#"
   xmlns:svg="http://www.w3.org/2000/svg"
   xmlns="http://www.w3.org/2000/svg"
   xmlns:sodipodi="http://sodipodi.sourceforge.net/DTD/sodipodi-0.dtd"
   xmlns:inkscape="http://www.inkscape.org/namespaces/inkscape"
   xml:space="preserve"
   width="38.865177mm"
   height="29.431183mm"
   version="1.1"
   style="clip-rule:evenodd;fill-rule:evenodd;image-rendering:optimizeQuality;shape-rendering:geometricPrecision;text-rendering:geometricPrecision"
   viewBox="0 0 65.08357 49.287211"
   id="svg360"
   sodipodi:docname="ГОНКИ.svg"
   inkscape:version="1.0 (4035a4fb49, 2020-05-01)"><metadata
   id="metadata364"><rdf:RDF><cc:Work
       rdf:about=""><dc:format>image/svg+xml</dc:format><dc:type
         rdf:resource="http://purl.org/dc/dcmitype/StillImage" /><dc:title></dc:title></cc:Work></rdf:RDF></metadata><sodipodi:namedview
   inkscape:document-rotation="0"
   pagecolor="#ffffff"
   bordercolor="#666666"
   borderopacity="1"
   objecttolerance="10"
   gridtolerance="10"
   guidetolerance="10"
   inkscape:pageopacity="0"
   inkscape:pageshadow="2"
   inkscape:window-width="1920"
   inkscape:window-height="1018"
   id="namedview362"
   showgrid="false"
   inkscape:zoom="3.4227798"
   inkscape:cx="74.682202"
   inkscape:cy="47.55267"
   inkscape:window-x="-6"
   inkscape:window-y="-6"
   inkscape:window-maximized="1"
   inkscape:current-layer="svg360" />
 <defs
   id="defs354">
  <style
   type="text/css"
   id="style352">
   <![CDATA[
    .fil0 {fill:black}
   ]]>
  </style>
 </defs>
 
<path
   id="path64"
   d="m 15.175737,49.146082 c -0.501845,-0.136887 -1.108846,-0.767634 -1.341094,-1.393562 -0.101012,-0.272233 -0.171089,-0.96578 -0.171089,-1.693243 0,-1.074811 -0.0378,-1.290392 -0.295986,-1.688285 -0.774723,-1.193918 -0.76024,-1.085592 -0.76024,-5.686303 0,-4.081996 0.0099,-4.256635 0.288902,-5.086871 0.485449,-1.444662 1.022114,-2.380163 2.117703,-3.691531 0.576934,-0.690561 1.026355,-1.270894 0.998718,-1.28963 -0.02764,-0.01873 -0.32768,-0.200973 -0.666758,-0.404972 -0.799395,-0.480937 -1.329516,-1.23165 -1.346097,-1.90623 -0.02699,-1.098007 1.11197,-1.773977 2.75773,-1.636701 0.84617,0.07058 1.10992,0.272458 1.328413,1.016788 0.07444,0.253596 0.163853,0.461084 0.198691,0.461084 0.03484,0 0.855018,-0.877984 1.822621,-1.951076 1.333282,-1.478636 1.962176,-2.068488 2.597203,-2.435967 l 0.837924,-0.48489 h 7.393585 7.393585 l 0.807703,0.440629 c 0.641159,0.349773 1.179222,0.857837 2.609501,2.464016 1.582923,1.777595 1.820666,1.994895 1.957125,1.788835 0.08543,-0.129003 0.155328,-0.341197 0.155328,-0.47154 0,-0.660107 1.020657,-0.991188 2.429768,-0.788169 0.932586,0.134364 1.596318,0.782758 1.596318,1.559429 0,0.674917 -0.544545,1.453638 -1.359257,1.943792 -0.339079,0.203999 -0.639121,0.386237 -0.666759,0.404972 -0.02764,0.01874 0.423951,0.601307 1.00353,1.294603 1.13823,1.36156 1.764894,2.475531 2.154478,3.82985 0.224089,0.779006 0.247316,1.250028 0.247316,5.015225 0,4.52111 0.01336,4.422478 -0.760241,5.614657 -0.25819,0.397893 -0.295986,0.613474 -0.295986,1.688285 0,1.441604 -0.162272,1.983159 -0.78236,2.610984 -0.540707,0.547452 -1.273012,0.687133 -3.0772,0.58695 -1.089799,-0.06052 -1.271726,-0.110325 -1.664406,-0.455705 -0.51407,-0.452149 -0.813392,-1.050803 -0.813392,-1.626805 0,-0.224584 -0.0671,-0.485712 -0.149115,-0.580285 -0.21607,-0.249161 -21.355802,-0.249161 -21.571872,0 -0.08201,0.09457 -0.149114,0.408688 -0.149114,0.698032 0,0.724492 -0.730729,1.674761 -1.429013,1.858346 -0.596289,0.156769 -2.815436,0.153691 -3.396163,-0.0047 z m 6.498114,-5.151004 c 0.07469,-0.139358 -0.140254,-0.45419 -1.59558,-2.337077 L 19.21993,40.547487 h -1.976826 -1.976826 l -0.192229,0.530528 c -0.392172,1.082341 0.06718,2.067213 1.261137,2.703931 0.576974,0.307693 0.787046,0.331925 2.943887,0.33959 1.324192,0.0047 2.353614,-0.04965 2.394778,-0.126458 z M 37.44076,43.838435 c 0.295634,-0.160246 0.647602,-0.466533 0.782153,-0.680638 0.337259,-0.536666 0.582019,-1.272543 0.484056,-1.455323 -0.130803,-0.244058 -15.463798,-0.209783 -15.545172,0.03475 -0.07337,0.220468 0.219441,1.041624 0.532478,1.493301 0.121489,0.175295 0.44456,0.446772 0.717937,0.603283 0.474726,0.271785 0.766364,0.284822 6.49404,0.290274 5.776177,0.0055 6.016784,-0.005 6.534508,-0.285647 z m 8.061373,-0.04836 c 1.223859,-0.633863 1.692978,-1.615752 1.295745,-2.712062 l -0.19223,-0.530528 h -1.9793 -1.979301 l -0.853999,1.100078 c -1.177563,1.516878 -1.656512,2.23269 -1.584186,2.36764 0.03378,0.06302 1.091,0.114586 2.349382,0.114586 2.139959,0 2.330402,-0.02198 2.943889,-0.339714 z m -7.820772,-4.026981 c 0.850877,-0.409966 1.704414,-2.100828 1.704414,-3.376456 v -0.567794 h -8.46692 -8.46692 l 0.08282,0.812604 c 0.144514,1.417895 0.817839,2.72078 1.61423,3.123531 0.59624,0.301531 12.908069,0.308914 13.532374,0.0081 z m -17.831259,-2.37348 c 1.269388,-0.316588 1.27477,-1.215001 0.0146,-2.436689 -1.359475,-1.317958 -3.029952,-2.286508 -3.943584,-2.286508 -0.824549,0 -1.675496,0.864424 -1.879937,1.90971 -0.265869,1.359363 0.49433,2.65544 1.735018,2.958065 0.685304,0.167157 3.178786,0.07867 4.073907,-0.144578 z m 26.728514,-0.01498 c 1.651434,-0.721345 1.732952,-3.542554 0.129982,-4.498429 -0.969472,-0.578111 -2.748848,0.220641 -4.761576,2.137445 -0.771096,0.734346 -1.042463,1.401908 -0.766972,1.886752 0.193982,0.341393 0.436967,0.42874 1.809321,0.6504 0.828469,0.133812 3.139241,0.0204 3.589245,-0.176168 z m -3.286182,-8.276359 c 0.114399,-0.213448 -4.262581,-5.013369 -4.855784,-5.324989 -0.502604,-0.264027 -0.868555,-0.27757 -7.500687,-0.27757 -6.614712,0 -6.99904,0.01413 -7.493599,0.275449 -0.506061,0.267398 -4.932594,5.048002 -4.932594,5.327144 0,0.172024 24.690466,0.171991 24.782664,-3.4e-5 z m 12.53688,4.860194 c -2.907362,-0.711824 -4.642941,-3.955087 -4.004077,-7.482388 0.07564,-0.417635 0.187478,-0.820594 0.248524,-0.895464 0.06105,-0.07487 0.110993,-0.192661 0.110993,-0.261756 0,-0.06909 -0.143388,0.07088 -0.318642,0.311051 -0.715579,0.980655 -1.690618,0.855166 -3.152069,-0.405673 -0.37115,-0.320202 -0.716646,-0.582186 -0.767771,-0.582186 -0.05112,0 -0.656471,-0.483611 -1.345215,-1.074691 -0.688744,-0.59108 -1.298139,-1.074691 -1.354211,-1.074691 -0.05607,0 -0.615302,-0.43525 -1.242736,-0.967222 -0.627433,-0.531972 -1.433955,-1.180704 -1.792269,-1.441628 -1.372332,-0.999324 -1.554373,-1.362442 -1.576039,-3.143721 -0.0041,-0.334945 -0.0618,-0.608991 -0.128272,-0.608991 -0.06648,0 -0.415963,0.157387 -0.776637,0.349751 -0.911252,0.48601 -1.596459,0.605096 -2.788314,0.484592 -1.324763,-0.133941 -2.216213,-0.600237 -3.103434,-1.623334 -1.236765,-1.426169 -1.75392,-3.306983 -1.457563,-5.300926 0.293494,-1.9746852 0.658214,-2.7256622 1.785192,-3.6758032 2.016271,-1.6998952 4.595642,-1.6798085 6.573787,0.05119 0.164208,0.143692 0.322867,0.233228 0.352575,0.19897 0.02971,-0.03426 -0.01095,-0.42312 -0.09034,-0.864138 C 40.887472,5.3108191 40.747851,5.0202112 40.308502,4.506301 39.885071,4.0110117 39.758561,3.7557812 39.758561,3.39681 c 0,-0.5239249 0.01051,-0.5339453 1.442371,-1.3741832 2.172881,-1.2750858 3.92644,-1.7991455 6.516632,-1.9475258 L 49.028552,0 49.597326,1.6815869 c 0.312826,0.924872 0.610039,1.8364221 0.660475,2.0256652 0.102408,0.3842537 0.250353,0.3831604 -2.11156,0.0156 -0.478408,-0.07445 -1.393825,-0.1374745 -2.034259,-0.1400523 l -1.164425,-0.00469 0.480984,0.548316 c 0.4697,0.5354527 0.491685,0.5441018 0.937003,0.3686406 0.694954,-0.2738184 0.927458,-0.1240495 1.483771,0.9557715 0.27694,0.5375509 0.568879,1.0395679 0.648752,1.1155939 0.07987,0.07603 0.744851,0.494109 1.47773,0.929072 0.732881,0.434965 1.521009,0.956638 1.751398,1.159277 0.230387,0.202636 0.469527,0.370225 0.531419,0.372417 0.238539,0.0085 1.121692,0.897628 1.447973,1.4578532 0.280325,0.481314 0.342096,0.745367 0.342096,1.462335 0,0.481228 -0.05033,1.077309 -0.111835,1.324626 -0.101331,0.407428 -0.06923,0.495867 0.34172,0.941547 1.092385,1.184695 2.135092,1.914416 2.932585,2.052323 0.461868,0.07987 0.807186,0.0081 1.840643,-0.382345 0.699663,-0.264361 1.370978,-0.465803 1.491809,-0.44765 0.120832,0.01815 0.400422,0.223088 0.62131,0.455411 0.220889,0.232322 0.960794,0.984923 1.644235,1.672446 2.43164,2.446161 2.498448,2.547999 2.078624,3.16853 l -0.214695,0.317336 -2.858025,-0.704478 c -3.200497,-0.788895 -4.545351,-1.130181 -5.094739,-1.292901 -0.205032,-0.06073 -0.785995,-0.194012 -1.291029,-0.296188 -0.902229,-0.182534 -0.922308,-0.179985 -1.151295,0.14611 -0.361418,0.514685 -0.112629,0.741396 0.684451,0.623713 1.552203,-0.229173 3.042577,0.01118 4.517838,0.728563 0.636193,0.309369 0.719369,0.396861 0.719369,0.756685 v 0.406869 l -1.366881,0.235824 c -0.751785,0.129703 -1.604532,0.242545 -1.894995,0.250762 -0.290462,0.0082 -0.528113,0.06825 -0.528113,0.133412 0,0.06516 0.157162,0.09188 0.349248,0.05937 0.554069,-0.09378 1.735854,0.214292 2.473111,0.644688 0.772776,0.45113 1.734718,1.487124 2.091778,2.252807 0.191386,0.410406 0.354451,0.552994 0.770847,0.674046 0.303194,0.08814 0.528113,0.238097 0.528113,0.352097 0,0.109213 -0.134198,0.794735 -0.298216,1.523381 -0.16402,0.728645 -0.333533,1.582735 -0.376696,1.897977 -0.07774,0.567757 -0.426892,1.6531 -0.576211,1.791152 -0.04262,0.03941 -0.114091,0.23285 -0.158822,0.429877 -0.07354,0.32391 -1.471909,1.576213 -1.760063,1.576213 -0.05685,0 -0.191644,0.0856 -0.299542,0.190218 -0.481003,0.466389 -2.358562,0.765017 -3.323893,0.528669 z m 2.430283,-2.927087 c 0.231508,-0.140518 0.560008,-0.426574 0.729998,-0.63568 0.309713,-0.38098 0.775138,-1.463414 0.775138,-1.802733 0,-0.103465 -0.332182,-0.27215 -0.776638,-0.394383 l -0.776637,-0.213585 -0.127651,0.513731 c -0.104748,0.421555 -0.218303,0.550114 -0.63287,0.716503 -0.611512,0.245431 -0.676532,0.198042 -1.973241,-1.43818 -0.478409,-0.603668 -0.958839,-1.104628 -1.067623,-1.113245 -0.228796,-0.01812 -0.487153,0.825639 -0.482923,1.577172 0.0036,0.64674 0.403234,1.629674 0.899018,2.211432 0.815213,0.95658 2.37732,1.219992 3.433429,0.578968 z M 39.004123,14.133859 c 0.662433,-0.505512 1.270899,-1.557923 1.346212,-2.328422 0.110051,-1.125899 0.07255,-1.134561 -1.481815,-0.342217 -0.768667,0.391831 -1.461334,0.712421 -1.539259,0.712421 -0.458841,0 -0.820213,-1.334775 -0.428725,-1.583553 0.206397,-0.131159 1.337271,-0.7238952 2.223108,-1.1652202 l 0.572786,-0.285361 -0.424769,-0.412127 c -1.220748,-1.184414 -2.954345,-0.998292 -4.015359,0.431098 -1.23401,1.6624492 -0.768448,4.1416432 0.960794,5.1163722 0.843035,0.475197 2.058673,0.412828 2.787027,-0.142991 z M 5.5243967,32.617195 c -0.735363,-0.28326 -1.677548,-0.801959 -2.080086,-1.145146 -0.536901,-0.45774 -1.67375,-2.276034 -1.958613,-3.132638 -0.333929,-1.004149 -0.44182,-2.545748 -0.253751,-3.625707 0.330584,-1.898335 1.617623,-3.935633 2.925569,-4.630985 0.999817,-0.53154 0.995911,-0.527323 0.970122,-1.047251 -0.0273,-0.550378 -0.387538,-3.780036 -0.516271,-4.628524 -0.06326,-0.416943 -0.181498,-0.627862 -0.456019,-0.813457 -0.595653,-0.402701 -0.877089,-0.324074 -1.844068,0.515194 -1.127413,0.978513 -1.55583698,1.106569 -1.99764698,0.597098 -0.427766,-0.493277 -0.419103,-1.080872 0.02283,-1.548416 0.187946,-0.198839 1.41105998,-1.274847 2.71802998,-2.391129 2.010317,-1.7170112 2.444413,-2.0296042 2.818497,-2.0296042 0.341373,0 0.49809,0.09053 0.68738,0.397074 0.360465,0.583752 0.225024,1.0873512 -0.461018,1.7141722 -0.316224,0.288927 -0.625705,0.574176 -0.687735,0.633887 -0.149123,0.143545 0.146557,0.545247 0.522735,0.710173 0.261386,0.114598 0.627009,-0.155388 3.134363,-2.3145152 1.5611543,-1.344335 2.8626973,-2.521737 2.8923193,-2.616448 0.02962,-0.09471 -0.136947,-0.444609 -0.370157,-0.777549 -1.065673,-1.5214036 -1.0036,-1.7494803 0.932546,-3.4265257 1.548403,-1.3411917 2.02139,-1.6119207 2.83356,-1.6218795 1.335046,-0.01637 2.434254,1.2596641 2.429605,2.8204481 -0.0032,1.0654803 -0.227746,1.6512201 -0.836816,2.1826061 -0.620346,0.541226 -0.852548,0.541626 -1.320269,0.0023 -0.304259,-0.350854 -0.359807,-0.507907 -0.291416,-0.82393 0.04647,-0.2147459 0.159662,-0.4871686 0.251529,-0.6053846 0.478477,-0.6157178 0.254107,-1.5014553 -0.335317,-1.3237114 -0.380449,0.1147225 -1.963531,1.4622118 -1.963531,1.6713166 0,0.4610584 0.761782,1.3271594 1.512876,1.7200504 0.432283,0.226124 1.252663,0.659425 1.823065,0.96289 0.570402,0.303466 1.104936,0.551755 1.187853,0.551755 0.08292,0 0.415459,-0.353554 0.73898,-0.785676 1.019343,-1.361521 2.485071,-2.081315 4.232722,-2.078616 1.663943,0.0026 2.994508,0.6452 4.189839,2.023592 0.893378,1.030194 1.578135,2.6165722 1.681156,3.8947282 0.09416,1.168192 -0.13676,2.811912 -0.52953,3.769305 -0.962924,2.347177 -3.490874,4.037457 -5.71525,3.821427 -2.311072,-0.224451 -4.29468,-1.949747 -5.170565,-4.497238 -0.216761,-0.630444 -0.26793,-1.090865 -0.275781,-2.481495 -0.0078,-1.384722 -0.04487,-1.720469 -0.196031,-1.77642 -0.102516,-0.03794 -0.53728,-0.252944 -0.966141,-0.477775 -1.00361,-0.5261472 -1.186164,-0.5285922 -1.09993,-0.01473 0.0881,0.5249852 0.376098,2.7607552 0.816759,6.3406782 0.293445,2.383935 0.333809,3.004995 0.214198,3.295719 -0.08106,0.197027 -0.873863,0.994118 -1.761784,1.771313 -1.784498,1.561971 -1.744505,1.478186 -1.343199,2.814036 0.372683,1.240566 0.216032,3.403753 -0.347619,4.800287 -0.597578,1.480591 -1.813149,2.770678 -3.1762343,3.370941 -0.903011,0.39766 -2.829831,0.523424 -3.581755,0.233785 z M 12.045509,20.325688 c 0.47986,-0.403738 0.872473,-0.811971 0.872473,-0.907186 0,-0.09521 -0.153774,-0.263153 -0.34172,-0.373196 C 12.388316,18.935264 12.038829,18.7096 11.799625,18.543834 11.429954,18.287655 10.897299,17.9449 9.3765167,16.984605 c -0.136688,-0.08631 -0.388319,-0.260546 -0.559179,-0.387189 -0.601154,-0.445577 -2.023738,-1.276119 -2.078205,-1.213312 -0.07439,0.08578 0.193237,2.603861 0.347976,3.274066 0.09598,0.415707 0.199376,0.554152 0.460998,0.617262 1.454467,0.350855 2.075752,0.63799 3.0787613,1.422891 0.254026,0.198788 0.480834,0.361432 0.504016,0.361432 0.02318,0 0.434764,-0.33033 0.914625,-0.734067 z M 13.6133,16.653521 c -0.03685,-0.137919 -0.0955,-0.540928 -0.130331,-0.895576 -0.161933,-1.648807 -0.221497,-2.155262 -0.379178,-3.224073 -0.09302,-0.630486 -0.205386,-1.521991 -0.249712,-1.981122 -0.0586,-0.6069972 -0.125326,-0.8149882 -0.244532,-0.7622402 -0.271426,0.120108 -4.2755993,3.5910192 -4.3344833,3.7572322 -0.03003,0.08477 0.149595,0.27692 0.399166,0.42701 0.24957,0.150089 0.78927,0.503846 1.199335,0.786128 0.4100643,0.282279 1.0143903,0.670458 1.3429463,0.86262 0.62124,0.363343 0.888024,0.537777 1.515078,0.99062 0.497072,0.358973 0.972778,0.380231 0.881711,0.0394 z"
   style="fill:#000000;stroke-width:0.133438" /></svg>
