<?xml version="1.0" encoding="UTF-8" standalone="no"?>
<svg
   xmlns:dc="http://purl.org/dc/elements/1.1/"
   xmlns:cc="http://creativecommons.org/ns#"
   xmlns:rdf="http://www.w3.org/1999/02/22-rdf-syntax-ns#"
   xmlns:svg="http://www.w3.org/2000/svg"
   xmlns="http://www.w3.org/2000/svg"
   xmlns:sodipodi="http://sodipodi.sourceforge.net/DTD/sodipodi-0.dtd"
   xmlns:inkscape="http://www.inkscape.org/namespaces/inkscape"
   version="1.1"
   id="svg232"
   width="848.96906"
   height="719.52014"
   viewBox="0 0 848.96906 719.52014"
   sodipodi:docname="BMX.svg"
   inkscape:version="1.0 (4035a4fb49, 2020-05-01)">
  <metadata
     id="metadata238">
    <rdf:RDF>
      <cc:Work
         rdf:about="">
        <dc:format>image/svg+xml</dc:format>
        <dc:type
           rdf:resource="http://purl.org/dc/dcmitype/StillImage" />
        <dc:title></dc:title>
      </cc:Work>
    </rdf:RDF>
  </metadata>
  <defs
     id="defs236" />
  <sodipodi:namedview
     inkscape:document-rotation="0"
     pagecolor="#ffffff"
     bordercolor="#666666"
     borderopacity="1"
     objecttolerance="10"
     gridtolerance="10"
     guidetolerance="10"
     inkscape:pageopacity="0"
     inkscape:pageshadow="2"
     inkscape:window-width="1920"
     inkscape:window-height="1018"
     id="namedview234"
     showgrid="false"
     inkscape:zoom="0.58333333"
     inkscape:cx="55.21688"
     inkscape:cy="240.67564"
     inkscape:window-x="-6"
     inkscape:window-y="-6"
     inkscape:window-maximized="1"
     inkscape:current-layer="g240" />
  <g
     transform="translate(-351.92857,-294.90488)"
     inkscape:groupmode="layer"
     inkscape:label="Image"
     id="g240">
    <path
       id="path8"
       d="m 921.95935,1013.8141 c -13.58849,-2.1394 -28.14343,-8.5891 -39.10151,-17.32679 -25.57926,-20.39632 -38.57704,-57.04753 -34.47473,-97.21204 2.25985,-22.12545 6.18623,-37.30471 14.66312,-56.68716 4.58908,-10.49295 12.99289,-25.94253 17.22202,-31.66097 2.38511,-3.22504 2.42921,-3.49395 0.73807,-4.5 -14.75702,-8.77889 -17.63692,-19.5909 -12.49085,-46.89448 1.03877,-5.51141 1.04663,-9.00896 0.0409,-18.17805 -1.36251,-12.42132 -0.92373,-17.10406 2.122,-22.64674 5.63954,-10.26294 12.14428,-6.31053 15.15375,9.20772 2.20136,11.35123 4.72411,16.21505 9.29641,17.9233 4.48593,1.67598 6.30122,1.46163 7.98544,-0.94292 0.6824,-0.97427 3.08804,-2.06679 5.34586,-2.42783 4.73017,-0.75639 9.052,-4.48631 8.40139,-7.25076 -0.38078,-1.6179 -3.92701,-21.33668 -18.63333,-103.61024 -1.74504,-9.7625 -3.50985,-17.75 -3.9218,-17.75 -0.41196,0 -3.42726,3.2625 -6.70067,7.25 -9.69899,11.81479 -20.99005,22.13069 -28.17681,25.74331 -3.575,1.79708 -7.97075,4.55224 -9.76834,6.1226 -8.26572,7.22086 -16.23433,5.12652 -47.02926,-12.36041 -8.32421,-4.7269 -18.25665,-11.39774 -23.77377,-15.96695 -5.82435,-4.82366 -10.71945,-8.07983 -12.70239,-8.44948 -1.77443,-0.33079 -4.57624,-1.39385 -6.22624,-2.36238 -1.65,-0.96852 -4.49223,-2.07677 -6.31607,-2.46278 -3.19693,-0.67663 -3.65671,-0.34076 -12.79638,9.34779 -6.2126,6.58569 -12.82499,12.31513 -19.18393,16.62232 -13.769,9.32634 -16.01877,11.58908 -24.57485,24.71652 -8.10951,12.4423 -12.43151,17.30121 -18.10915,20.35883 -1.93579,1.04249 -3.51962,2.39369 -3.51962,3.00266 0,0.60897 -3.98472,4.92073 -8.85494,9.5817 -8.05778,7.71156 -9.06265,9.09863 -11.1621,15.40747 -1.26893,3.81314 -3.35353,9.29904 -4.63244,12.19089 l -2.3253,5.25791 h -9.64952 -9.64952 l 0.51372,6.39988 c 0.28255,3.51993 1.19507,7.76568 2.02784,9.435 0.83277,1.66932 2.06074,5.42687 2.72882,8.35012 0.66809,2.92325 2.28089,7.79 3.584,10.815 9.64,22.37797 17.79766,48.20784 21.43883,67.88249 1.15861,6.26037 3.4855,14.81037 5.17088,19 1.86881,4.6456 3.05519,9.37315 3.04088,12.11751 -0.0507,9.72783 -1.8885,28.61087 -2.97683,30.58625 -1.57593,2.8604 -7.74444,8.27734 -13.75432,12.07851 l -5,3.16244 -13.5,-1.48619 c -7.425,-0.8174 -17.55,-2.5187 -22.5,-3.78068 -9.99476,-2.54812 -11.87917,-2.44058 -46.11721,2.63171 -15.2062,2.25276 -18.35821,2.01655 -21.73675,-1.62896 -2.16004,-2.33073 -2.20866,-2.33567 -4.52556,-0.45956 -3.0401,2.46173 -6.45311,2.39796 -11.86454,-0.22167 l -4.37551,-2.11815 -2.36594,2.22269 c -1.30127,1.22248 -2.96638,3.41314 -3.70025,4.86815 -1.55924,3.09132 -15.95297,17.14546 -17.5598,17.14546 -0.60176,0 -3.42977,2.44725 -6.28447,5.43834 -8.99153,9.42112 -15.36068,10.66959 -22.49139,4.40874 -3.13173,-2.74969 -3.47862,-3.57144 -3.47862,-8.24057 0,-2.85247 0.66853,-7.75298 1.48563,-10.89002 2.08027,-7.98669 9.01811,-21.40665 13.71385,-26.52688 2.17417,-2.37071 4.5641,-5.77286 5.31095,-7.56033 1.54244,-3.69158 3.93756,-13.82079 4.94115,-20.89665 0.85106,-6.00039 5.7575,-18.00689 9.20618,-22.52835 2.99479,-3.92637 10.22743,-7.55866 12.9976,-6.5275 3.94748,1.46941 12.38577,8.52627 16.51056,13.80763 3.02288,3.87047 4.78026,5.33787 5.83059,4.86849 0.82692,-0.36954 7.35349,-1.21194 14.50349,-1.872 7.15,-0.66006 20.27935,-2.03207 29.17634,-3.04891 l 16.17634,-1.84881 -1.4508,-3.47226 c -1.90746,-4.56518 -8.59737,-15.15591 -14.16892,-22.43068 -2.45146,-3.20086 -10.49903,-15.35086 -17.88347,-27 -7.38445,-11.64913 -15.00825,-22.85328 -16.94177,-24.89812 -7.53547,-7.96926 -24.14668,-8.59229 -57.63842,-2.16182 -15.38465,2.95387 -30.50327,7.83817 -53.67926,17.3419 -9.57549,3.9266 -21.24554,8.25077 -25.93345,9.60928 -9.03842,2.61923 -26.13011,4.21887 -32.43649,3.03579 -5.56377,-1.04377 -21.4913,-11.91697 -22.44175,-15.32023 -0.42809,-1.53287 -0.77835,-8.48172 -0.77835,-15.44189 v -12.65485 l 5.11418,-7.34515 c 2.81279,-4.03983 6.0647,-9.21896 7.22646,-11.50917 2.4317,-4.7937 20.26963,-27.24119 25.52767,-32.12437 3.72972,-3.46381 11.22643,-18.07782 14.33921,-27.95269 1.78927,-5.67622 4.0525,-7.98957 12.19239,-12.46241 1.71254,-0.94103 3.08869,-2.50758 3.07463,-3.5 -0.0365,-2.57138 -15.36974,-19.01186 -29.97454,-32.13896 -6.875,-6.17939 -12.90774,-12.12107 -13.40609,-13.20374 -1.3988,-3.03891 0.88963,-9.06067 4.93358,-12.98219 l 3.58,-3.47162 9.69626,0.036 c 16.09944,0.0598 18.87832,0.99703 50.69625,17.09903 37.64096,19.04885 40.90963,21.11128 43.54605,27.47615 1.01325,2.44621 0.84983,3.73679 -1.09312,8.63252 -4.10901,10.35368 -6.96757,15.28792 -12.25027,21.14556 -5.29014,5.86588 -5.9437,6.88439 -12.90478,20.11075 -2.17101,4.125 -5.28487,9.1875 -6.9197,11.25 -1.63484,2.0625 -2.78915,3.75 -2.56515,3.75 0.84094,0 17.33221,-8.14116 20.81589,-10.27608 9.27069,-5.68138 16.84785,-11.42529 17.80079,-13.494 0.57514,-1.24854 2.22295,-2.71766 3.66181,-3.26471 1.43885,-0.54706 5.60688,-4.03295 9.26229,-7.74644 8.31156,-8.44363 12.97871,-11.71985 25.92134,-18.19613 11.4191,-5.71394 14.59717,-9.10585 15.82814,-16.89314 0.56127,-3.55065 1.3211,-4.74235 4.05052,-6.35275 1.84782,-1.09024 3.5476,-2.94851 3.77729,-4.1295 0.2297,-1.18099 0.78917,-4.09599 1.24327,-6.47779 0.61928,-3.24819 2.57516,-6.41512 7.82563,-12.6711 7.7558,-9.2411 11.20499,-11.49098 17.65113,-11.51367 5.64576,-0.0199 6.49842,-0.67525 7.13573,-5.48469 0.94154,-7.10535 3.60379,-17.27062 6.18998,-23.63528 1.38774,-3.41525 2.52352,-6.69445 2.52395,-7.28713 4.3e-4,-0.59267 1.27999,-3.78154 2.84345,-7.08636 1.56347,-3.30483 3.16086,-7.70487 3.54975,-9.77786 0.47081,-2.50963 2.61159,-5.98626 6.40655,-10.40426 19.10787,-22.24489 31.32029,-29.25461 51.03698,-29.29433 6.54144,-0.0132 8.01652,0.36495 13.5961,3.48522 3.44222,1.925 6.7371,3.5 7.32197,3.5 0.70843,0 0.59606,-1.75242 -0.33665,-5.25 -6.80995,-25.53668 8.99757,-57.40572 36.58106,-73.74987 7.61315,-4.51105 12.88961,-6.06817 21.36007,-6.30353 7.06134,-0.19621 11.86619,2.07795 19.63993,9.29566 4.74172,4.40256 15.65396,11.00774 18.18558,11.00774 1.75275,0 3.81442,4.06084 3.81442,7.51321 0,1.59649 2.55038,5.27792 7.5,10.82611 4.125,4.62386 7.5,9.13527 7.5,10.02537 0,0.8901 0.9,2.18042 2,2.86738 1.1,0.68696 2,1.60977 2,2.05068 0,1.19781 1.92696,3.45844 7.76982,9.11524 5.02677,4.86669 9.20944,10.24129 9.22359,11.85201 0.004,0.4125 -1.07373,0.75 -2.39411,0.75 -1.32039,0 -4.80789,1.1206 -7.75,2.49023 -3.12088,1.45285 -7.17829,2.4943 -9.73977,2.5 -5.01661,0.0112 -11.82807,3.06278 -15.58181,6.98084 l -2.53851,2.64963 1.85266,3.80886 c 1.40636,2.89132 2.00344,3.41594 2.47857,2.17776 0.69675,-1.81569 1.85229,-1.76611 24.67956,1.05902 10.1571,1.25706 13.45998,2.08932 17.62173,4.44034 2.81695,1.59133 6.42932,2.89332 8.02749,2.89332 1.59817,0 3.7934,0.60842 4.87827,1.35205 1.08488,0.74362 4.96295,1.6223 8.61793,1.95261 7.67721,0.6938 13.21736,-0.80938 12.53931,-3.40224 -0.5393,-2.06231 1.0254,-4.90242 2.7009,-4.90242 1.48279,0 13.72115,12.42248 15.45658,15.68912 1.83574,3.45545 8.63376,4.0519 14.21471,1.24717 3.6627,-1.8407 13.22342,-7.39509 14.87641,-8.64259 0.23834,-0.17987 -0.0992,-0.85953 -0.75,-1.51037 -0.65083,-0.65084 -1.18333,-3.29575 -1.18333,-5.87758 0,-6.48599 3.29893,-9.8712 12.5,-12.8269 3.85,-1.23676 11.3875,-4.31318 16.75,-6.83649 9.08482,-4.27483 9.75,-4.78857 9.75,-7.53027 0,-3.49263 3.23493,-6.77059 10.5,-10.63966 4.09091,-2.17865 4.96235,-3.10912 4.79295,-5.11762 -1.39,-16.47976 -1.36441,-22.73104 0.14588,-35.6469 4.27235,-36.53675 16.65831,-67.11089 37.89987,-93.55404 23.06433,-28.71228 52.22533,-46.48119 85.58753,-52.15171 18.3472,-3.11846 33.9588,-1.57554 49.6485,4.90685 24.7446,10.22354 41.9263,26.70064 54.9305,52.6778 10.4578,20.89046 13.9186,36.95429 13.9634,64.81318 0.043,26.96616 -3.1749,43.61133 -13.1476,68 -8.8778,21.71111 -18.2359,36.48245 -33.2602,52.5 -16.9516,18.07234 -27.7398,25.72413 -47.9164,33.98598 -14.9361,6.11597 -24.3613,8.44304 -37.2089,9.18679 -35.9395,2.08054 -69.63284,-15.42163 -89.76549,-46.62919 -6.20501,-9.61836 -5.69677,-9.3171 -11.09956,-6.57929 -2.58286,1.30883 -5.31592,3.12652 -6.07346,4.0393 -0.75755,0.91279 -3.89177,2.92889 -6.96495,4.48022 -4.52042,2.2819 -6.46686,2.72151 -10.19126,2.30171 -5.01178,-0.5649 -10.82429,0.92873 -14.99518,3.85329 -1.4599,1.02365 -3.75266,1.86119 -5.09501,1.86119 -3.74012,0 -7.3952,4.86556 -4.84096,6.44417 1.22287,0.75577 8.77272,-2.63006 13.03462,-5.84555 3.19323,-2.40921 4.19924,-2.59862 13.80188,-2.59862 8.80759,0 10.92266,-0.3252 14.13344,-2.1731 7.03013,-4.04603 8.8661,-0.56772 5.06408,9.59408 -2.33038,6.2285 -4.68198,8.4896 -15.6796,15.0762 -4.27025,2.5575 -9.51498,6.18188 -11.65497,8.05418 -4.60225,4.02655 -4.28679,4.76984 4.04811,9.53859 7.03635,4.02579 8.92383,6.8045 7.46488,10.98965 -1.05794,3.0348 -0.45987,4.00607 23.56353,38.26712 13.55696,19.3343 26.0362,37.08102 27.7317,39.43716 2.7484,3.8193 3.4331,4.23312 6.3144,3.81584 1.7774,-0.25742 3.5049,-0.0258 3.839,0.51468 0.3768,0.60977 1.2045,0.48991 2.1809,-0.31584 1.2455,-1.02775 1.6614,-1.03788 1.9943,-0.0486 0.2314,0.6875 1.2487,1.25 2.2607,1.25 1.012,0 3.2409,1.17885 4.9532,2.61968 5.2501,4.41767 7.3794,11.60913 6.1405,20.73884 -0.8617,6.35023 -0.402,7.24148 2.6375,5.11255 3.5098,-2.45834 13.2364,-33.29932 15.1217,-47.94756 0.5391,-4.1887 1.0536,-5.12168 3.25,-5.89365 4.035,-1.41814 7.756,0.0279 10.042,3.90244 1.1253,1.90723 2.6766,3.4677 3.4473,3.4677 0.7706,0 1.4012,0.43844 1.4012,0.97432 0,1.23454 5.5409,4.15145 6.3497,3.34267 0.3317,-0.33179 0.8893,0.1424 1.239,1.05375 0.3498,0.91134 3.3979,3.25791 6.7736,5.21459 15.1237,8.7662 19.5686,13.076 15.2106,14.74833 -1.8355,0.70431 -7.5126,-1.32787 -10.0115,-3.58366 -1.0662,-0.9625 -2.5055,-1.75 -3.1985,-1.75 -0.6929,0 -2.5035,-1.15253 -4.0234,-2.56118 -1.5996,-1.48246 -3.5167,-2.36425 -4.5516,-2.09362 -1.0849,0.28371 -1.7879,-0.0798 -1.7879,-0.92442 0,-0.7656 -2.6527,-2.73103 -5.8948,-4.36764 l -5.8947,-2.97565 -1.0803,2.71126 c -0.5941,1.49119 -1.9506,6.7778 -3.0144,11.74803 -3.0174,14.09874 -10.7392,42.46498 -12.9691,47.64288 -2.4291,5.64039 -4.6895,7.0103 -10.92,6.61798 -4.2338,-0.2666 -4.7597,-0.0654 -5.0433,1.92991 -0.2712,1.90796 0.8984,2.80483 8.1526,6.25126 19.1106,9.07945 34.7005,25.14773 42.7485,44.06035 7.3801,17.34283 10.4893,36.53489 9.6129,59.3369 -0.6632,17.25372 -2.984,28.76344 -9.7039,48.12394 -10.4655,30.15195 -27.1326,55.95749 -50.7719,78.60957 -26.5162,25.40889 -56.42122,39.25003 -87.22163,40.36933 -6.325,0.2299 -14.18615,0 -17.46922,-0.5219 z m 20.91553,-63.95696 c 4.23653,-17.325 7.90453,-32.12615 8.15113,-32.89144 0.86111,-2.67246 -2.58075,1.00683 -5.32937,5.69698 -3.83951,6.55164 -24.23675,56.56931 -23.41609,57.42045 0.94843,0.98364 11.49028,2.57372 12.26979,1.85071 0.34197,-0.31719 4.08801,-14.7517 8.32454,-32.0767 z m 9.64945,31.42041 c 1.23828,-0.35484 2.98133,-7.56601 7.78056,-32.18885 3.40163,-17.45236 6.17103,-32.9219 6.15423,-34.37676 -0.0247,-2.13976 -0.96816,-3.13545 -4.93757,-5.211 l -4.90702,-2.56581 -1.6613,4.15197 c -1.82466,4.56028 -17.52466,67.52977 -17.52466,70.28783 0,1.5178 0.77687,1.63721 6.75,1.03755 3.7125,-0.37271 7.46809,-0.88343 8.34576,-1.13493 z m 15.50056,-4.0012 c 1.97886,-0.52757 2.13276,-1.43746 2.74667,-16.23905 0.35769,-8.62409 0.65185,-18.92051 0.65368,-22.88094 0.003,-7.43808 -1.62956,-17.29922 -2.86474,-17.29922 -0.57317,0 -12.25083,56.857 -12.15933,59.20217 0.0151,0.38619 2.1649,0.0438 4.7774,-0.76096 2.6125,-0.80472 5.69334,-1.71462 6.84632,-2.022 z m -41.07595,-15.41921 c 3.73158,-9.075 7.8669,-19.425 9.18961,-23 2.19005,-5.91927 2.23124,-6.32131 0.46111,-4.5 -1.93093,1.98674 -28.14526,35.91824 -29.50001,38.18443 -0.7915,1.32399 11.39282,7.69795 12.44676,6.51124 0.33981,-0.38262 3.67094,-8.12067 7.40253,-17.19567 z m 52.94826,6.69527 c -0.36643,-1.7574 -1.8399,-8.14527 -3.27438,-14.19527 l -2.60814,-11 -0.70545,5 c -0.388,2.75 -0.74487,10.07165 -0.79305,16.27032 l -0.0876,11.27033 4.06744,-2.07505 c 3.78795,-1.93248 4.02165,-2.2946 3.40119,-5.27033 z m -56.01219,-21.23114 c 17.11526,-22.45474 25.35425,-35.53206 24.32718,-38.61327 -0.31992,-0.95975 -54.78362,50.65845 -54.78362,51.92141 0,0.87062 10.2331,11.22773 11.09331,11.22773 0.36389,0 9.0773,-11.04114 19.36313,-24.53587 z m 64.98046,18.9464 5.40612,-3.58946 -2.49805,-6.66054 c -6.0485,-16.12707 -15.6064,-39.74176 -16.43686,-40.61053 -0.54688,-0.5721 -0.90811,3.11853 -0.90811,9.27793 0,8.01609 0.76967,13.73602 3.55907,26.45 3.93835,17.95079 4.14123,18.72207 4.92493,18.72207 0.30072,0 2.97953,-1.61526 5.9529,-3.58947 z m 13.68543,-10.16053 c 3.2365,-2.6125 5.7093,-5.2 5.4949,-5.75 -0.2144,-0.55 -4.3238,-9.91345 -9.13204,-20.80767 -7.14139,-16.1806 -9.03913,-19.68303 -10.3637,-19.12699 -0.89182,0.37437 -2.97149,1.13853 -4.62149,1.69813 -1.65,0.5596 -3.73233,1.29175 -4.62741,1.62699 -1.38693,0.51947 -0.28907,4.04512 7.42963,23.85954 4.98137,12.7875 9.25466,23.25 9.4962,23.25 0.24154,0 3.08728,-2.1375 6.32391,-4.75 z m -61.44201,-44.75 c 8.23078,-7.97763 11.34502,-11.65186 11.33437,-13.37244 -0.0122,-1.97322 -0.26202,-2.16718 -1.48445,-1.15266 -1.22108,1.01341 -1.76,0.61114 -3.18521,-2.37755 -0.9435,-1.97854 -2.27477,-3.59735 -2.95837,-3.59735 -0.68361,0 -14.77351,12.17136 -31.3109,27.04747 l -30.06797,27.04747 2.12669,4.20253 c 1.16968,2.31139 3.00846,5.45393 4.08619,6.98341 l 1.9595,2.78088 19.07555,-18.28088 c 10.49155,-10.05448 24.18262,-23.23088 30.4246,-29.28088 z m 74.77291,32.3408 c 2.5512,-2.83756 4.4436,-5.66739 4.2052,-6.2885 -1.1481,-2.99203 -17.9246,-26.47034 -21.08737,-29.51129 -3.55928,-3.42222 -3.61732,-3.43817 -5.46001,-1.5 -1.82494,1.9195 -1.6811,2.36717 7.13628,22.20899 4.9493,11.1375 9.3517,20.25 9.783,20.25 0.4314,0 2.8717,-2.32164 5.4229,-5.1592 z M 914.74538,913.94549 c 12.47575,-11.2264 22.68319,-20.76738 22.68319,-21.20217 0,-1.26014 -8.53769,1.65395 -13.74002,4.68976 -2.61799,1.52772 -13.91189,8.38 -25.09755,15.22729 l -20.33758,12.44962 0.6356,3.62357 c 0.34957,1.99297 1.30856,6.01018 2.13107,8.92714 l 1.49549,5.30355 4.7733,-4.30355 c 2.62532,-2.36696 14.98074,-13.4888 27.4565,-24.71521 z m 110.19952,19.16165 c 1.3313,-1.5125 2.4347,-3.04225 2.4521,-3.39945 0.035,-0.72898 -17.3382,-13.85055 -18.3389,-13.85055 -0.3523,0 2.3555,4.5 6.0175,10 3.6619,5.5 6.836,10 7.0535,10 0.2175,0 1.4846,-1.2375 2.8158,-2.75 z m 8.2184,-11.78319 c 1.7791,-2.69352 2.9041,-5.18291 2.5,-5.53197 -1.0456,-0.9032 -30.2776,-14.52091 -32.9897,-15.36824 -3.25636,-1.01739 -3.93049,1.74425 -1.2581,5.154 2.6862,3.42726 26.1337,21.23061 27.5131,20.89027 0.55,-0.13571 2.4556,-2.45053 4.2347,-5.14406 z m -139.43969,-8.11004 c 17.83193,-10.85011 24.54327,-15.35677 22.86938,-15.35677 -1.75773,0 -21.76949,4.59339 -31.41442,7.21069 l -7.75,2.10308 v 6.67645 c 0,5.91505 0.44765,8.00978 1.7117,8.00978 0.20811,0 6.77061,-3.88945 14.58334,-8.64323 z m 147.98769,-6.87731 3.7212,-7.52054 -2.2519,-0.9961 c -1.2386,-0.54785 -9.677,-3.87419 -18.752,-7.39186 -16.2135,-6.28468 -16.5145,-6.3582 -17.3307,-4.23336 -0.4568,1.18932 -1.7612,4.08305 -2.8986,6.4305 -1.1373,2.34746 -1.8475,4.48849 -1.5781,4.75785 0.6003,0.60035 34.0961,16.41659 34.8381,16.45009 0.2919,0.0132 2.2053,-3.36028 4.252,-7.49658 z m -54.57757,-1.85129 c 0.7264,-0.7264 -0.51814,-3.84269 -2.62738,-6.57888 -1.66479,-2.15963 -2.0909,-2.28329 -3.58765,-1.0411 -1.86028,1.54389 -2.85925,3.76281 -3.94844,8.7703 l -0.71312,3.2785 5.19957,-1.97568 c 2.85976,-1.08663 5.41442,-2.19054 5.67702,-2.45314 z m -83.70516,-6.18772 c 20.94191,-5.27004 30.85864,-8.78467 32.56174,-11.54034 0.51902,-0.8398 -2.67181,-0.97833 -12.17923,-0.52875 -7.08538,0.33505 -19.94229,0.89177 -28.5709,1.23717 -11.34672,0.4542 -15.82427,0.98207 -16.17937,1.90746 -0.27004,0.70371 -0.81087,4.52585 -1.20185,8.49364 -0.6674,6.77313 -0.5953,7.17989 1.17937,6.65356 1.03963,-0.30834 12.01524,-3.10857 24.39024,-6.22274 z m 62,5.05955 c 0,-0.825 -0.45,-1.5 -1,-1.5 -0.55,0 -1,0.675 -1,1.5 0,0.825 0.45,1.5 1,1.5 0.55,0 1,-0.675 1,-1.5 z m 83.68573,-14.38118 c 1.3119,-3.50966 2.2568,-6.49445 2.0998,-6.63287 -0.1571,-0.13843 -7.9355,-1.41532 -17.2855,-2.83753 -19.1072,-2.90636 -25.8072,-2.73647 -25.3014,0.64155 0.2406,1.60698 3.83,3.38519 17.8014,8.81887 9.625,3.74331 18.1301,6.71268 18.9002,6.59859 0.7702,-0.11409 2.4736,-3.07896 3.7855,-6.58861 z m -48.8335,-3.69376 c 1.5043,-3.30162 0.7572,-4.42506 -2.94263,-4.42506 -3.67257,0 -4.79018,2.36949 -2.37589,5.03725 2.39357,2.64486 3.91422,2.46983 5.31852,-0.61219 z m -75.62181,-1.28546 c 10.74406,-0.42444 18.16841,-1.13843 18.84201,-1.81203 0.81546,-0.81546 0.50881,-2.27258 -1.15104,-5.46958 -1.24444,-2.39689 -2.57135,-5.03299 -2.94869,-5.85799 -0.57397,-1.25492 -5.08002,-1.60564 -27.57938,-2.14654 -14.79133,-0.3556 -27.19595,-0.3556 -27.56583,0 -0.36988,0.3556 -1.40609,3.57154 -2.30268,7.14654 -0.89659,3.575 -1.85952,7.28036 -2.13984,8.23414 -0.47177,1.60516 0.51763,1.69218 13.30268,1.17001 7.59679,-0.31026 21.79104,-0.87931 31.54277,-1.26455 z M 1053.82,875.8369 c 2.7766,-6.93934 2.9631,-6.87869 -11.9057,-3.87078 -7.4329,1.50364 -14.0704,2.92943 -14.75,3.16842 -1.301,0.45748 5.6802,2.03841 15.7643,3.56989 9.3891,1.42594 9.1481,1.48938 10.8914,-2.86753 z m -16.1258,-5.33379 c 9.7711,-1.83914 17.9447,-3.52437 18.1636,-3.74494 0.6355,-0.64045 2.6402,-16.16491 2.1506,-16.65451 -0.2437,-0.24374 -8.6864,2.77574 -18.7615,6.70997 -10.0751,3.93423 -21.0183,8.2029 -24.3183,9.48593 -4.9841,1.9378 -6.0536,2.77512 -6.3164,4.94518 -0.3094,2.55385 -0.1861,2.61229 5.5,2.60734 3.199,-0.003 13.8109,-1.50982 23.582,-3.34897 z m -39.18592,-1.24201 c 1.15647,-1.39347 1.0233,-1.55212 -1.04923,-1.25 -1.3056,0.19032 -2.55907,0.90854 -2.78549,1.59604 -0.59252,1.79918 2.26862,1.54099 3.83472,-0.34604 z m -62.07971,-3.90396 c 0,-0.92762 -0.94054,-1.5 -2.46482,-1.5 -1.38087,0 -2.90325,-0.81922 -3.46178,-1.86285 -1.39944,-2.61487 -4.55034,-3.67708 -21.0734,-7.10411 -7.975,-1.65409 -15.44472,-3.22976 -16.59937,-3.50148 -1.80438,-0.42463 -2.47183,0.45527 -4.75,6.26195 -1.45785,3.71581 -2.65063,7.06809 -2.65063,7.44952 0,0.6863 10.60309,1.12521 37.25,1.54194 11.65113,0.18221 13.75,-0.0139 13.75,-1.28497 z m 97.50003,-8.88143 24,-9.37822 0.2891,-9.24218 c 0.2262,-7.22949 0.01,-9.12973 -1,-8.72577 -0.709,0.28403 -13.3564,5.96393 -28.1053,12.62201 -14.749,6.65807 -27.2365,12.10559 -27.75,12.10559 -0.5136,0 -0.9338,0.45 -0.9338,1 0,0.55 0.6268,1 1.393,1 1.6046,0 2.607,2.12703 2.607,5.5321 0,2.20763 2.193,4.36944 4.5,4.43588 0.55,0.0158 11.8,-4.19139 25,-9.34941 z m -104.06251,-3.60525 c -0.1796,-3.70342 -1.04722,-4.80475 -12.21073,-15.5 -6.60956,-6.33233 -12.2147,-11.51332 -12.45587,-11.51332 -0.70009,0 -8.09248,11.01477 -7.661,11.415 1.85586,1.72148 30.96642,19.55188 31.95551,19.57295 0.31099,0.007 0.47843,-1.78196 0.37209,-3.97463 z m -21.66385,-6.03464 c -5.89948,-3.83827 -11.11863,-6.97868 -11.59812,-6.97868 -1.17186,0 -4.65925,7.84963 -3.84787,8.66102 0.93345,0.93344 19.6473,5.1602 23.17232,5.23375 2.55488,0.0533 1.4085,-0.97285 -7.72633,-6.91609 z m 117.50716,-5.86778 c 35.3267,-15.88311 31.8546,-13.86637 31.0766,-18.05074 -0.3641,-1.95809 -1.3868,-5.70095 -2.2726,-8.31746 l -1.6107,-4.7573 -13.9871,10.10243 c -7.6928,5.55634 -17.812,12.59348 -22.487,15.6381 -12.1486,7.91183 -20.35421,16.27407 -15.9692,16.27407 0.5669,0 11.9294,-4.90009 25.25,-10.8891 z m -38.48576,6.32155 c 2.89978,-3.51794 3.13234,-4.30921 10.85439,-36.93245 0.5917,-2.49975 -7.27928,11.74317 -13.76661,24.91135 -5.57986,11.32615 -6.25132,15.58865 -2.45565,15.58865 1.5665,0 3.46997,-1.26507 5.36787,-3.56755 z m -25.45521,-7.18579 -1.80011,-5.74666 -0.32276,4.15555 c -0.37638,4.84602 2.82476,13.55593 3.52501,9.59111 0.21889,-1.23933 -0.41207,-4.83933 -1.40214,-8 z m -32.88632,-0.76372 c -0.84068,-3.22759 -2.01767,-6.45775 -2.61553,-7.17812 -0.59786,-0.72038 -0.83033,-2.59321 -0.51661,-4.16184 0.79599,-3.97994 -1.83773,-12.0287 -5.02444,-15.35491 -1.46913,-1.53344 -3.02187,-2.78807 -3.45053,-2.78807 -0.42866,0 -3.09016,3.0375 -5.91445,6.75 l -5.13507,6.75 11.82856,11.18965 c 6.50571,6.15431 11.94737,11.07085 12.09257,10.92564 0.14521,-0.1452 -0.42382,-2.90476 -1.2645,-6.13235 z m 14.52167,3.5769 c 1.10041,-2.65661 0.94719,-3.29503 -1.58874,-6.6198 -3.05869,-4.01015 -4.20008,-3.21273 -2.47689,1.73043 0.59973,1.72039 1.09042,4.18583 1.09042,5.47875 0,3.24441 1.51121,2.94504 2.97521,-0.58938 z m 79.59832,-25.1491 c 19.4384,-23.59564 20.5946,-25.22804 19.4212,-27.42052 -1.4285,-2.66924 -8.7679,-10.08015 -9.3342,-9.42524 -0.2069,0.23926 -6.554,11.18538 -14.1046,24.3247 -12.995,22.61337 -19.81495,37.61032 -17.1036,37.61032 0.2488,0 9.7533,-11.29017 21.1212,-25.08926 z m -75.55216,16.53306 c 0.72493,-1.90673 0.55733,-3.36768 -0.65968,-5.75 -2.51389,-4.92104 -11.64455,-19.74428 -11.96467,-19.42415 -0.64898,0.64898 1.76409,9.03819 3.56768,12.4033 1.48947,2.77904 1.69901,4.0869 0.89534,5.58856 -0.87713,1.63894 -0.42641,2.59824 2.74833,5.84947 2.08864,2.13896 3.94234,3.88902 4.11933,3.88902 0.17699,0 0.75914,-1.15029 1.29367,-2.5562 z m 44.79024,-18.4438 c 8.87492,-17.22238 10.34332,-20.8185 12.57232,-30.78843 2.3626,-10.56757 2.5173,-14.21157 0.6031,-14.21157 -0.4395,0 -1.4889,1.9125 -2.3322,4.25 -4.2488,11.77779 -12.66597,32.98225 -20.03417,50.46987 -2.51488,5.96881 -3.6141,12.75075 -1.73914,10.73013 0.48483,-0.5225 5.40337,-9.725 10.93009,-20.45 z m 39.16442,6.72774 c 10.1619,-7.08475 19.0826,-13.22081 19.824,-13.63568 1.0635,-0.5952 0.6541,-2.16107 -1.9407,-7.42319 -1.8087,-3.66788 -3.6163,-6.66887 -4.0169,-6.66887 -0.6224,0 -18.505,21.33196 -31.3891,37.44373 -4.7248,5.90843 -5.521,6.34991 17.5227,-9.71599 z m -59.09291,5.02226 c -0.0643,-3.4375 -0.4072,-9.175 -0.76202,-12.75 l -0.64513,-6.5 -2.28679,4.98746 c -1.45953,3.18319 -2.06531,5.8964 -1.67453,7.5 1.87234,7.68352 3.73829,13.01254 4.55631,13.01254 0.51097,0 0.87644,-2.8125 0.81216,-6.25 z m 5.59905,-5.25 c 1.71848,-3.85825 2.50028,-8.50869 3.4237,-20.36539 0.65818,-8.45096 1.02913,-15.53294 0.82434,-15.73773 -0.20479,-0.20479 -1.42263,2.20963 -2.70631,5.36538 -1.28368,3.15576 -3.3178,7.53774 -4.52027,9.73774 -1.99866,3.65666 -2.12217,4.81543 -1.43892,13.5 0.41108,5.225 0.82521,10.85 0.9203,12.5 0.0961,1.66798 0.41648,2.33399 0.72152,1.5 0.30175,-0.825 1.55079,-3.75 2.77564,-6.5 z m -24.98955,-6.45633 c 0.74717,-4.42246 -3.45963,-18.5256 -7.22171,-24.21048 -2.34443,-3.54267 -6.27091,-5.28566 -6.27091,-2.7837 0,0.99143 8.55019,33.7471 9.64516,36.95051 0.58367,1.70755 2.88146,-4.2386 3.84746,-9.95633 z m 66.87801,-15.72397 c 6.3962,-11.09916 11.6294,-20.38975 11.6294,-20.64575 0,-0.98374 -9.973,-6.8087 -10.7913,-6.30293 -0.4747,0.29339 -1.5727,3.14243 -2.4399,6.33121 -0.8672,3.18877 -2.5595,9.39777 -3.7607,13.79777 -2.5682,9.40745 -7.0081,26.76242 -7.0081,27.39373 0,0.83561 0.7895,-0.47753 12.3706,-20.57403 z m -78.45182,4.49145 c -1.7639,-6.77113 -3.62417,-12.76115 -4.13393,-13.31115 -1.81732,-1.96076 -4.70638,3.18377 -4.08695,7.27761 0.59357,3.923 10.46791,21.22487 11.07456,19.40492 0.19438,-0.58313 -1.08978,-6.60025 -2.85368,-13.37138 z m -17.84319,4.43885 c -0.33525,-2.0625 -0.93941,-3.6375 -1.34258,-3.5 -0.40317,0.1375 -1.18304,0.25 -1.73304,0.25 -1.68076,0 -1.11798,2.24551 1.17431,4.68555 1.19588,1.27295 2.25004,2.31445 2.34259,2.31445 0.0925,0 -0.10603,-1.6875 -0.44128,-3.75 z m 65.48423,-18.17358 c 2.47273,-8.56703 4.76008,-16.43141 5.083,-17.47639 0.54819,-1.77399 0.38691,-1.75741 -2.43223,0.25 -1.66065,1.18248 -3.48584,2.14997 -4.05597,2.14997 -1.91245,0 -2.35902,2.07889 -3.72158,17.32498 -2.01838,22.5841 -2.044,22.59534 5.12678,-2.24856 z m -22.6427,3.31347 c 3.14494,-7.49218 3.68219,-12.3752 1.44235,-13.1096 -0.66626,-0.21846 -1.35755,1.20482 -1.6625,3.42288 -0.49832,3.62458 -2.71846,11.82319 -4.21,15.54683 -0.38554,0.9625 -0.26522,1.75 0.26736,1.75 0.53259,0 2.40585,-3.42455 4.16279,-7.61011 z m -5.91715,-13.33087 c 0,-3.90036 -1.28611,-6.02313 -2.47941,-4.09234 -0.83969,1.35865 0.48198,8.03332 1.5907,8.03332 0.48879,0 0.88871,-1.77344 0.88871,-3.94098 z m 14,-8.05902 c 0,-1.33333 -0.66667,-2 -2,-2 -1.33333,0 -2,0.66667 -2,2 0,1.33333 0.66667,2 2,2 1.33333,0 2,-0.66667 2,-2 z m -59.51522,-2.16428 c 1.89271,-2.24935 2.46315,-3.76735 1.97289,-5.25 -0.37932,-1.14715 -0.6266,-3.77322 -0.54951,-5.83572 0.1704,-4.55921 -0.82739,-4.75767 -3.17592,-0.63169 -1.34041,2.35487 -2.24697,2.95772 -3.75,2.49368 -1.09023,-0.3366 -2.87677,-0.88804 -3.97009,-1.22544 -3.85982,-1.19115 -3.42739,2.33481 0.88754,7.23683 2.25517,2.56201 4.10031,5.04484 4.10031,5.51741 0,1.74594 1.89611,0.77139 4.48478,-2.30507 z m 28.83879,-19.58572 c 0.68232,-1.15883 -1.12771,-5.25 -2.32273,-5.25 -1.40817,0 -2.36162,2.61744 -1.63921,4.5 0.59938,1.56197 3.19458,2.05325 3.96194,0.75 z m 9.17643,-4.46488 c 3.56398,-1.20024 6.5,-4.28931 6.5,-6.83884 0,-1.65518 -0.68027,-1.53169 -7.04263,1.2785 -4.9458,2.18452 -6.88107,3.53168 -6.5,4.52473 0.29845,0.77774 0.54263,1.87541 0.54263,2.43927 0,0.57991 0.7601,0.71713 1.75,0.31593 0.9625,-0.3901 3.1,-1.16392 4.75,-1.71959 z m 33.51365,-11.03512 c 0.008,-1.2375 0.2659,-3.18946 0.57419,-4.3377 0.49397,-1.83977 0.20263,-2.03516 -2.45337,-1.64534 -4.04392,0.59352 -6.85922,3.65484 -5.19986,5.65425 1.04475,1.25884 2.14976,1.68623 6.31539,2.44261 0.4125,0.0749 0.75614,-0.87632 0.76365,-2.11382 z m 26.76018,0.0714 c -0.7626,-2.28777 -3.5071,-3.28773 -5.19,-1.89101 -2.5096,2.08282 -1.8669,3.06957 1.9995,3.06957 2.3064,0 3.4433,-0.41999 3.1905,-1.17856 z m -71.39727,-7.33252 c 1.26841,-0.83109 9.44904,-4.00605 18.17918,-7.05546 8.73015,-3.04941 16.40445,-5.98546 17.05402,-6.52455 0.64956,-0.53909 1.49199,-2.65163 1.87205,-4.69454 0.38006,-2.0429 2.50763,-7.63083 4.72792,-12.41761 l 4.03689,-8.70324 -4.94858,-6.29676 c -4.5887,-5.83884 -42.37239,-59.39168 -59.29838,-84.04676 -4.059,-5.9125 -7.85692,-10.74311 -8.43983,-10.73469 -0.58291,0.008 -1.69,0.4143 -2.4602,0.90195 -1.1883,0.75237 -1.06663,3.11671 0.80344,15.61286 1.21209,8.09942 3.54156,20.6188 5.17661,27.82086 1.63505,7.20205 4.98239,25.03188 7.43854,39.62183 2.45615,14.58996 5.84116,31.92719 7.52225,38.52719 5.72989,22.49577 4.73486,20.34854 8.33609,17.98892 z M 835.81054,603.93423 c 1.71491,-1.05761 9.29587,-3.95434 16.84657,-6.4372 13.2087,-4.34334 20.01479,-7.88776 24.27146,-12.63989 1.1,-1.22804 3.9125,-3.55203 6.25,-5.16444 2.3375,-1.6124 4.25,-3.40135 4.25,-3.97544 0,-0.57409 -0.91931,-2.23997 -2.04292,-3.70196 -1.12361,-1.46199 -2.85466,-3.74711 -3.84678,-5.07805 l -1.80385,-2.41989 -4.40323,1.8086 c -2.42177,0.99473 -7.07376,1.96578 -10.33775,2.15788 -6.89804,0.40599 -8.9874,-0.88603 -10.55435,-6.52661 -0.84109,-3.02765 -0.68297,-4.03092 0.99438,-6.3096 2.20089,-2.98988 2.65732,-6.79049 0.8155,-6.79049 -0.64844,0 -2.56094,-1.4963 -4.25,-3.32512 -2.62666,-2.84401 -4.15616,-3.5052 -10.571,-4.56979 -4.125,-0.68457 -13.8,-1.62641 -21.5,-2.09297 -12.76554,-0.77349 -14.17635,-0.69018 -16,0.94483 -4.72469,4.23597 -8.72492,5.05446 -11.67126,2.38806 -1.72885,-1.56458 -1.82874,-1.50717 -1.82874,1.05103 0,2.18158 -0.72653,3.00958 -3.74884,4.27238 -2.06186,0.8615 -6.33686,1.80104 -9.5,2.08786 -3.16314,0.28682 -5.74809,0.7965 -5.74433,1.13261 0.004,0.33611 1.46626,1.60726 3.25,2.82477 5.57062,3.80229 10.95597,9.62295 12.75529,13.78634 0.95079,2.2 2.68702,4.85724 3.85829,5.90499 1.17128,1.04774 2.12959,2.70905 2.12959,3.69181 0,3.35452 9.57948,12.96601 16.41061,16.46543 3.55458,1.82092 9.52403,5.36434 13.26545,7.87427 3.74143,2.50992 7.42928,4.5635 8.19523,4.5635 0.76595,0 2.79576,-0.86531 4.51068,-1.92291 z M 1054.4286,549.2761 c 0,-0.31957 1.7594,-10.55707 3.9097,-22.75 4.8552,-27.52936 5.24,-30.22913 4.1451,-29.08265 -1.1589,1.21344 -23.7997,44.51316 -24.2241,46.32756 -0.2264,0.96773 1.8782,2.13515 6.6693,3.69961 7.2593,2.3704 9.5,2.79624 9.5,1.80548 z m 18,-33.41896 c 0,-18.7 -0.36,-34 -0.8,-34 -2.9607,0 -4.1471,4.57222 -10.249,39.5 -2.2099,12.65 -4.2637,24.2375 -4.564,25.75 l -0.5459,2.75 h 8.0794 8.0795 z m 14.5,30.65867 7,-2.24053 -0.2729,-6.95907 c -0.1501,-3.82749 -0.4829,-8.98407 -0.7396,-11.45907 -0.2566,-2.475 -0.9224,-13.5 -1.4794,-24.5 -1.5087,-29.79199 -1.9385,-31.54942 -6.4868,-26.52358 -0.9837,1.08703 -2.1232,1.76963 -2.5322,1.51689 -0.4089,-0.25274 -2.2613,0.56312 -4.1163,1.81303 l -3.3728,2.27256 -0.2632,34.21055 -0.2631,34.21055 2.7631,-0.0504 c 1.5198,-0.0277 5.9132,-1.05863 9.7632,-2.29093 z m -36.043,-32.05791 c 7.9986,-15.5839 14.543,-28.83888 14.543,-29.4555 0,-0.61663 -2.8297,0.33594 -6.2881,2.1168 -5.8917,3.03382 -7.1683,4.39733 -20.25,21.6289 -19.8474,26.1434 -19.0932,24.92506 -16.8233,27.17904 2.4645,2.44722 12.5644,7.92257 13.5221,7.33065 0.4143,-0.25603 7.2976,-13.21598 15.2963,-28.79989 z m 58.9391,22.77239 c 1.8236,-1.07354 1.6977,-1.91356 -3.2976,-21.99466 -5.7128,-22.96527 -7.9083,-29.38986 -11.5789,-33.88253 l -2.4477,-2.99596 -0.036,2.5 c -0.063,4.32429 2.9937,55.34815 3.5114,58.61675 l 0.4936,3.11676 5.7297,-2.1221 c 3.1513,-1.16715 6.5829,-2.62437 7.6258,-3.23826 z m 8.8779,-6.79152 3.774,-3.33511 -4.6133,-7.87326 c -6.0844,-10.38404 -12.6318,-20.50947 -13.0146,-20.12673 -0.2716,0.27159 6.984,30.34932 8.082,33.50347 0.6494,1.86566 1.6193,1.50131 5.7719,-2.16837 z M 1033.325,512.6552 c 7.757,-10.28606 14.1036,-18.91407 14.1036,-19.17335 0,-0.57317 -4.9149,1.6735 -11,5.02824 -2.475,1.36449 -8.1344,4.23579 -12.5764,6.38069 -6.7442,3.25659 -8.8678,4.90725 -12.8751,10.00793 -3.0587,3.89327 -4.4515,6.45548 -3.8409,7.06606 1.506,1.506 4.0616,0.002 6.3855,-3.75834 1.2883,-2.08441 2.7821,-3.32876 3.7703,-3.14056 2.8257,0.53818 2.4158,4.14962 -0.8234,7.25294 -1.672,1.60188 -3.04,3.58682 -3.04,4.41097 0,1.96016 4.1655,6.37755 5.0832,5.3906 0.3903,-0.41978 7.0563,-9.17911 14.8132,-19.46518 z m 101.3634,1.78171 c -0.8303,-1.38417 -27.9889,-33.79704 -32.7447,-39.07977 l -3.601,-4 0.6637,4.44438 c 1.2244,8.1993 4.2728,15.00596 14.0308,31.32929 5.3351,8.92448 10.1552,16.8123 10.7115,17.52849 0.7822,1.00709 2.2096,0.11877 6.2994,-3.92022 2.9085,-2.87232 4.9966,-5.70829 4.6403,-6.30217 z m -185.43764,5.53004 c 3.12279,-1.02454 6.89583,-2.14706 8.38453,-2.49449 1.4887,-0.34744 4.31485,-1.58052 6.28035,-2.74019 2.86878,-1.69262 3.44489,-2.52927 2.92089,-4.24181 -1.04285,-3.40829 -2.46713,-4.63845 -5.2804,-4.5607 -3.35066,0.0926 -31.32319,13.96055 -31.9373,15.83356 -0.62864,1.91733 11.77081,0.78275 19.63193,-1.79637 z m 193.12464,-13.14954 c 2.3302,-3.32186 4.0208,-6.58436 3.757,-7.25 -0.7761,-1.95825 -40.5486,-44.55685 -42.6518,-45.68242 -2.6578,-1.42242 -2.8292,-1.33421 -2.3744,1.22215 0.2202,1.2375 -0.2312,4.63142 -1.003,7.54204 l -1.4035,5.29203 18.962,22.45797 c 10.429,12.35188 19.3028,22.45796 19.7195,22.45796 0.4167,0 2.6641,-2.71788 4.9942,-6.03973 z m 10.9042,-17.20891 3.1645,-5.74864 -14.0674,-10.50655 c -7.7371,-5.77859 -15.4639,-11.22865 -17.1706,-12.11124 -3.763,-1.94588 -13.9747,-5.52106 -14.4402,-5.05557 -0.4007,0.4007 7.7236,9.64339 24.6516,28.04521 9.5221,10.35111 12.7512,13.28512 13.5932,12.35082 0.6074,-0.67396 2.5284,-3.81228 4.2689,-6.97403 z m -148.0514,0.84365 c 1.4852,-0.77274 3.7783,-2.55887 5.0957,-3.96918 1.3175,-1.4103 2.7282,-2.35849 3.135,-2.10707 0.4068,0.25141 2.7039,-1.37938 5.1047,-3.62398 l 4.365,-4.08109 -4.25,3.17719 c -2.3375,1.74745 -4.25,2.68371 -4.25,2.08058 0,-1.04389 -10.2526,3.67317 -17.22969,7.92713 l -3.27034,1.99393 4.29966,0.004 c 2.36477,0.002 5.51477,-0.6285 6.99997,-1.40125 z m 14.4902,-4.70716 c 11.7404,-5.88993 22.0442,-12.52175 24.7367,-15.92137 3.0701,-3.87627 3.9157,-5.95155 1.7235,-4.22946 -0.6875,0.54006 -3.5,1.805 -6.25,2.81099 -2.9933,1.09497 -9.1139,5.18749 -15.25,10.19686 -12.2824,10.02698 -13.1237,11.23843 -4.9602,7.14298 z m 139.6845,-8.66991 c 0.7122,-1.80514 1.1218,-3.42363 0.9103,-3.59665 -0.8434,-0.68985 -24.1862,-8.65308 -24.486,-8.35324 -0.1768,0.1768 4.4987,3.95923 10.39,8.4054 5.8912,4.44618 10.9768,7.80104 11.3011,7.45525 0.3243,-0.34578 1.1724,-2.10563 1.8846,-3.91076 z m -165.97433,-8.21794 c 3.95915,-2.16754 3.23756,-2.47139 -2.25,-0.94742 -2.0625,0.57279 -3.75,1.47028 -3.75,1.99442 0,1.44681 2.12092,1.07671 6,-1.047 z m 63.13483,-6.44426 c 1.916,-2.43575 1.9625,-2.71989 0.3949,-2.40863 -0.9775,0.19409 -3.8591,2.81387 -6.4035,5.82175 l -4.6262,5.46885 4.2313,-3.06023 c 2.3272,-1.68312 5.2088,-4.30291 6.4035,-5.82174 z m 106.9777,5.69426 c 1.5678,-4.05598 2.2787,-9.24793 1.2683,-9.26409 -0.4844,-0.008 -10.1058,-1.58181 -21.3808,-3.49792 -11.275,-1.9161 -21.5676,-3.48477 -22.8725,-3.48591 -2.0345,-0.002 -2.1883,0.21977 -1.0797,1.55556 2.5027,3.01554 10.151,6.71506 24.7267,11.96046 8.099,2.91459 15.5241,5.34035 16.5002,5.39058 1.0599,0.0545 2.203,-1.01643 2.8378,-2.65868 z m -164.11253,-4.2824 c 5.22503,-1.21124 11.75003,-3.24804 14.50003,-4.52622 2.75,-1.27819 9.8418,-4.57482 15.7596,-7.32586 9.5245,-4.42774 13.075,-7.11419 11.4931,-8.69609 -0.2718,-0.27187 -1.7097,0.0594 -3.1951,0.73627 -2.6604,1.21215 -3.6317,0.73225 -4.7914,-2.36733 -0.1464,-0.3914 -10.3912,1.20656 -22.7662,3.55103 l -22.50003,4.26267 -0.28869,8.68243 c -0.22357,6.72392 0.002,8.59253 1,8.28388 0.70878,-0.2192 5.56369,-1.38955 10.78869,-2.60078 z M 1168.023,449.37023 c 0.9708,-4.1178 1.4925,-7.75949 1.1594,-8.09265 -0.8321,-0.83209 -44.9467,-5.38704 -51.7538,-5.3437 -5.3431,0.034 -14.5,2.86612 -14.5,4.48464 0,0.44108 2.1257,2.32886 4.7238,4.19507 4.4811,3.21883 6.0221,3.61503 30,7.71355 13.9019,2.37623 26.0253,4.36758 26.9409,4.42522 1.271,0.08 2.0822,-1.66609 3.4297,-7.38213 z m -133.8035,-11.0242 c 1.26,-0.30114 2.0447,-0.9459 1.7437,-1.4328 -0.3009,-0.4869 0.6932,-1.31263 2.2091,-1.83495 2.743,-0.94513 2.735,-0.95555 -1.6665,-2.17047 -5.381,-1.4853 -45.45055,-1.10175 -46.94127,0.44933 -0.5286,0.55 -1.27047,3.96848 -1.6486,7.59662 l -0.6875,6.59663 22.35007,-4.32842 c 12.2925,-2.38063 23.381,-4.5748 24.641,-4.87594 z m 136.5841,-2.61389 c 0.3437,-1.71875 0.625,-4.86875 0.625,-7 0,-4.58327 1.8945,-4.36149 -21,-2.45835 -11.8584,0.98574 -18.1122,1.9822 -22.231,3.5422 -6.3316,2.39812 -8.1177,4.00281 -4.578,4.11309 1.2699,0.0396 11.534,1.11607 22.809,2.39224 11.275,1.27618 21.2312,2.3688 22.125,2.42807 1.0577,0.0701 1.8432,-0.98322 2.25,-3.01725 z m -151.375,-6.62614 c 0,-0.78851 -26.92797,-8.65426 -27.53822,-8.044 -0.19372,0.19372 -0.77904,2.25187 -1.30072,4.57368 l -0.9485,4.22146 h 14.89374 c 8.1915,0 14.8937,-0.33801 14.8937,-0.75114 z m 24,-0.73787 c 0,-0.55937 -44.92078,-22.51099 -46.06547,-22.51099 -0.70483,0 -5.20256,12.08762 -4.67762,12.57106 0.13368,0.12311 7.89309,2.33097 17.24309,4.90635 9.35,2.57538 17.45,4.836 18,5.0236 1.5898,0.54228 15.5,0.55124 15.5,0.01 z m 6,-1.31099 c 0,-0.44 -0.5043,-1.30429 -1.1207,-1.92064 -1.0834,-1.08343 0.5481,-1.4912 10.0669,-2.516 l 2.4462,-0.26336 -3.2151,-3.65352 c -2.1301,-2.42057 -11.2087,-8.1575 -26.9023,-17 -13.028,-7.34056 -24.0483,-13.49773 -24.4896,-13.6826 -1.0425,-0.43682 -8.24581,14.70908 -7.39848,15.55641 0.83074,0.83073 48.86928,24.18127 49.86308,24.23737 0.4125,0.0233 0.75,-0.31766 0.75,-0.75766 z m 64.9001,-2.95 c 3.8714,-2.0625 17.5993,-10.02304 30.5064,-17.69008 l 23.4674,-13.94007 -0.5824,-3.05992 c -0.5736,-3.01332 -4.9341,-12.55993 -5.7369,-12.55993 -0.3919,0 -47.8949,30.99833 -55.8338,36.43466 -2.0785,1.42333 -5.1292,4.71669 -6.7793,7.31859 -2.7799,4.38342 -2.8738,4.82308 -1.2797,5.98874 3.1725,2.31978 8.8384,1.45027 16.2383,-2.49199 z m 13.9728,1.70081 c 5.1232,-0.8313 18.422,-5.48325 41.1825,-14.4057 1.3079,-0.51272 1.4343,-1.74329 0.7943,-7.73315 -0.4187,-3.91787 -1.1187,-7.48096 -1.5557,-7.91797 -0.437,-0.43701 -6.1945,2.49178 -12.7943,6.50841 -6.5999,4.01664 -17.3997,10.48199 -23.9997,14.36745 -6.6,3.88546 -12.9,7.76244 -14,8.61551 -1.9364,1.50166 -1.9045,1.55181 1,1.57528 1.65,0.0133 5.8678,-0.44109 9.3729,-1.00983 z m 42.914,-3.40436 c 0.1823,-0.18231 0.1923,-2.35935 0.022,-4.83785 l -0.3092,-4.50637 -12.5,4.98822 c -6.875,2.74352 -12.725,5.2335 -13,5.53328 -0.525,0.57227 25.2123,-0.60275 25.7869,-1.17728 z m -72.8147,-14.54645 c 0.9939,-1.925 2.478,-5.75 3.2979,-8.5 0.8199,-2.75 6.0446,-18.1751 11.6103,-34.27801 5.5658,-16.1029 10.1196,-29.70245 10.1196,-30.22121 0,-0.84967 -10.7207,-4.48487 -15.3643,-5.20975 -1.6377,-0.25566 -3.1871,4.31064 -12.7504,37.57675 l -10.8861,37.86778 1.0469,6.55287 c 0.5757,3.60408 1.3034,6.96818 1.6172,7.47577 0.7917,1.28104 9.1088,-7.00315 11.3089,-11.2642 z m -22.743,4.5 c 0.411,-2.75 0.4919,-6.35 0.1799,-8 -0.6304,-3.33298 -23.2397,-62.55183 -24.3461,-63.76781 -0.3843,-0.42229 -3.9091,1.4868 -7.833,4.24244 l -7.1343,5.01024 1.3645,3.25757 c 9.5485,22.79535 21.8983,51.53995 23.4521,54.58575 2.5883,5.07342 8.6595,10.37458 11.4279,9.97836 1.7392,-0.24892 2.2823,-1.24658 2.889,-5.30655 z m -24.9227,-4.56873 c -3.524,-5.98619 -7.3878,-9.78423 -21.8808,-21.50839 l -14.6636,-11.86226 -2.1564,2.70434 c -1.186,1.48739 -2.9327,4.01863 -3.8816,5.62499 l -1.7253,2.92063 20.2506,11.23826 c 11.1378,6.18104 21.1506,11.82506 22.2506,12.54226 3.2162,2.09699 3.7366,1.61885 1.8065,-1.65983 z m 67.779,-5.23857 c 9.4694,-6.06209 41.5913,-27.29224 42.7548,-28.25763 0.6028,-0.50018 -5.0537,-12.3673 -6.4455,-13.52238 -1.0597,-0.87944 -5.814,3.20255 -22.4036,19.23549 -18.2407,17.62868 -28.9466,29.85182 -26.1464,29.85182 0.4544,0 5.9628,-3.28829 12.2407,-7.3073 z m -62.501,-0.4427 c -1.6744,-4.7327 -20.639,-49.59229 -21.2235,-50.20289 -0.2384,-0.2491 -2.8823,2.0009 -5.8752,5 l -5.4418,5.45289 12.228,18.46287 c 8.4398,12.74308 13.5687,19.48121 16.5557,21.74999 2.3803,1.80793 4.4978,3.28714 4.7057,3.28714 0.2078,0 -0.2192,-1.6875 -0.9489,-3.75 z m 52.8975,-3.25 c 1.3313,-1.925 8.9527,-14.975 16.9364,-29 l 14.5158,-25.5 -2.7171,-2.24069 c -3.7769,-3.11463 -10.9794,-6.8304 -11.7487,-6.06111 -0.6878,0.68782 -21.6935,61.47899 -22.8317,66.07596 -0.6438,2.5999 -0.5578,2.69412 1.3689,1.5 1.1308,-0.70079 3.1451,-2.84916 4.4764,-4.77416 z m -13.3281,-40.25578 c 4.4923,-15.81569 7.8959,-29.02777 7.5634,-29.36019 -0.3324,-0.33242 -3.8691,-0.66731 -7.8594,-0.74421 l -7.255,-0.13982 -3.3356,26.5 c -3.2306,25.66675 -3.8003,39.71053 -1.7457,43.03493 1.0118,1.63726 0.9703,1.76651 12.6323,-39.29071 z m -17.5685,27.25578 c -0.3043,-2.475 -2.6793,-15.4125 -5.2778,-28.75 -3.7456,-19.22565 -5.0439,-24.24115 -6.266,-24.20731 -0.8479,0.0235 -4.0166,1.30147 -7.0416,2.83999 -4.0637,2.06679 -5.4132,3.27461 -5.1677,4.62494 0.2625,1.44378 16.7982,44.28496 21.4188,55.49238 1.0054,2.43865 1.0534,2.40184 1.9591,-1.5 0.5107,-2.2 0.6795,-6.025 0.3752,-8.5 z m 72.2881,-26.3434 2.3735,-2.54845 -4.745,-5.55407 c -2.6097,-3.05474 -5.0278,-5.55036 -5.3735,-5.54583 -0.3457,0.005 -1.5622,1.69204 -2.7033,3.75 -1.1412,2.05797 -6.8787,12.21998 -12.75,22.58226 -5.8714,10.36228 -10.6752,19.07691 -10.6752,19.36584 0,0.54091 29.6326,-27.49629 33.8735,-32.04975 z m -113.5176,27.0934 c -1.468,-2.3375 -5.3636,-8.26684 -8.6569,-13.17632 l -5.9877,-8.92633 -3.4583,3.77367 c -1.9021,2.07551 -3.0747,4.15106 -2.6057,4.61233 2.5727,2.5305 21.9712,17.9199 22.6152,17.94131 0.4194,0.0139 -0.4386,-1.88716 -1.9066,-4.22466 z m 46.1815,-34.68873 c 1.478,-12.1934 2.4347,-22.42251 2.1258,-22.73135 -0.7848,-0.78484 -12.8223,1.42921 -13.961,2.56782 -0.578,0.57802 0.7161,9.54623 3.3981,23.55019 2.7215,14.20964 4.5952,21.90419 5.0407,20.69992 0.39,-1.05422 1.9184,-11.89318 3.3964,-24.08658 z"
       style="fill:#000000" />
  </g>
</svg>
