<?xml version="1.0" encoding="UTF-8" standalone="no"?>
<svg
   xmlns:dc="http://purl.org/dc/elements/1.1/"
   xmlns:cc="http://creativecommons.org/ns#"
   xmlns:rdf="http://www.w3.org/1999/02/22-rdf-syntax-ns#"
   xmlns:svg="http://www.w3.org/2000/svg"
   xmlns="http://www.w3.org/2000/svg"
   xmlns:sodipodi="http://sodipodi.sourceforge.net/DTD/sodipodi-0.dtd"
   xmlns:inkscape="http://www.inkscape.org/namespaces/inkscape"
   version="1.1"
   id="svg8"
   width="7924.7837"
   height="4640.9663"
   viewBox="0 0 7924.7837 4640.9663"
   sodipodi:docname="дайвинг.svg"
   inkscape:version="1.0 (4035a4fb49, 2020-05-01)">
  <metadata
     id="metadata14">
    <rdf:RDF>
      <cc:Work
         rdf:about="">
        <dc:format>image/svg+xml</dc:format>
        <dc:type
           rdf:resource="http://purl.org/dc/dcmitype/StillImage" />
        <dc:title></dc:title>
      </cc:Work>
    </rdf:RDF>
  </metadata>
  <defs
     id="defs12" />
  <sodipodi:namedview
     inkscape:document-rotation="0"
     pagecolor="#ffffff"
     bordercolor="#666666"
     borderopacity="1"
     objecttolerance="10"
     gridtolerance="10"
     guidetolerance="10"
     inkscape:pageopacity="0"
     inkscape:pageshadow="2"
     inkscape:window-width="1920"
     inkscape:window-height="1018"
     id="namedview10"
     showgrid="false"
     inkscape:zoom="0.11614229"
     inkscape:cx="1024.6687"
     inkscape:cy="1461.8214"
     inkscape:window-x="-6"
     inkscape:window-y="-6"
     inkscape:window-maximized="1"
     inkscape:current-layer="g16" />
  <g
     transform="translate(-3474.6572,-1382.6222)"
     inkscape:groupmode="layer"
     inkscape:label="Image"
     id="g16">
    <path
       id="path8"
       d="m 3955.5524,6022.6144 c -13.9869,-1.37 -25.1931,-3.6327 -44.5985,-9.005 -57.0089,-15.7828 -97.2321,-47.476 -113.1105,-89.1234 l -2.8074,-7.3636 1.7122,-6.6364 c 0.9417,-3.65 5.8017,-21.7445 10.7999,-40.2099 l 9.0877,-33.5734 -12.8343,-23.1766 c -7.0588,-12.7471 -13.2094,-23.1765 -13.6679,-23.1765 -0.4585,0 -2.9543,1.7882 -5.5462,3.9737 -6.5578,5.5296 -18.9407,12.4009 -28.7338,15.9445 -12.6622,4.5817 -23.8506,6.3329 -37.8825,5.9292 -11.252,-0.3237 -12.5183,-0.5677 -18.5531,-3.5757 -3.5623,-1.7756 -9.1769,-5.2396 -12.4769,-7.6978 -15.6025,-11.6224 -41.6011,-38.4153 -64.6417,-66.6165 -2.0029,-2.4516 -5.8616,-7.1574 -8.575,-10.4574 -21.7296,-26.4281 -63.6091,-84.5938 -87.9687,-122.178 -11.6219,-17.9315 -14.3146,-23.0127 -14.3146,-27.0124 0,-8.5916 11.6638,-36.0598 29.1589,-68.6691 5.6479,-10.5273 11.6175,-21.6738 13.2657,-24.77 l 2.9968,-5.6294 -10.6639,-10.1814 c -15.9324,-15.2116 -34.733,-37.7301 -46.1387,-55.2629 -13.3234,-20.4806 -20.9346,-38.9539 -24.1774,-58.6809 -2.8974,-17.6256 -0.4376,-56.907 5.0793,-81.1159 14.8424,-65.1301 52.7517,-146.1898 93.6885,-200.3296 20.1328,-26.6259 50.0266,-58.0933 71.2908,-75.0432 33.8049,-26.9463 67.2441,-44.8461 111.056,-59.4477 47.2145,-15.7357 80.6789,-22.1905 114.9379,-22.1699 54.3521,0.033 98.1292,15.3692 145.0061,50.8004 28.9952,21.9155 50.177,40.8641 63.9302,57.19 17.3309,20.5729 24.9971,35.9424 49.1313,98.5 8.5007,22.0346 18.6484,44.0319 26.0996,56.5763 9.7681,16.445 34.6792,36.2638 67.3432,53.5769 14.0092,7.4254 17.9957,9.1063 17.9957,7.5875 0,-1.1583 -7.9937,-60.5049 -8.2815,-61.4832 -0.1202,-0.4084 -7.1935,-6.7084 -15.7185,-14 l -15.5,-13.2575 -2,-11.7871 -2,-11.7872 -10,-8.3011 c -11.5934,-9.6239 -23.7757,-22.1438 -31.2584,-32.1246 -7.1678,-9.5608 -15.878,-27.244 -18.2249,-37 -4.4437,-18.4716 -6.6849,-52.6557 -4.1638,-63.5085 2.3967,-10.317 6.5599,-16.5617 13.5229,-20.2839 3.5495,-1.8974 5.6917,-2.2048 15.3732,-2.2061 6.1869,-8e-4 11.2405,-0.2265 11.2302,-0.5015 -0.01,-0.275 -0.4442,-3.44 -0.9642,-7.0333 -4.2938,-29.6716 -10.1275,-81.9836 -13.2112,-118.4667 -1.9152,-22.6592 -1.64,-92.4064 0.4538,-115 4.2174,-45.5101 12.7812,-87.8283 25.1785,-124.4211 13.6871,-40.3997 30.6226,-73.5412 51.8495,-101.4655 31.5223,-41.4681 72.8642,-69.37 116.5559,-78.6643 12.2967,-2.6158 36.0466,-3.5994 49.9995,-2.0708 41.72,4.5708 83.0238,26.504 124.1546,65.9287 5.2226,5.006 9.8183,8.7791 10.2126,8.3848 0.795,-0.795 14.8554,-31.398 26.5062,-57.6918 16.2525,-36.6789 42.1991,-99.6894 56.0024,-136 11.7751,-30.9754 25.0359,-69.3987 26.7842,-77.6073 2.6455,-12.4216 19.6096,-36.7692 45.6539,-65.5246 10.5096,-11.6037 45.2924,-46.4181 61.8696,-61.9258 13.5231,-12.6507 53.0395,-47.788 64.0586,-56.9599 1.9707,-1.6403 11.6457,-9.7512 21.5,-18.0241 44.9767,-37.7591 95.484,-76.1266 124.0253,-94.2149 16.2348,-10.2889 40.1137,-23.2349 96.3916,-52.2588 17.325,-8.9349 36.45,-18.8254 42.5,-21.9788 30.1396,-15.7095 142.2656,-72.2745 336.5,-169.7567 62.425,-31.3298 116.875,-58.7718 121,-60.9823 4.125,-2.2105 17.175,-9.0824 29,-15.271 29.2626,-15.3146 34.5061,-18.1197 65,-34.7725 41.652,-22.7463 48.1532,-26.8481 60.0854,-37.91 55.5895,-51.535 95.725,-85.3927 143.9146,-121.4039 28.5429,-21.3296 38.0743,-27.2262 81.5,-50.42 13.2,-7.0502 29.625,-16.0424 36.5,-19.9826 18.534,-10.6225 48.2936,-27.4456 76.5,-43.2455 13.75,-7.7021 29.275,-16.6733 34.5,-19.9359 35.6176,-22.2405 82.8995,-45.7436 109,-54.1822 8.2445,-2.6656 20.1003,-5.1432 24.6108,-5.1432 4.6239,0 8.3927,3.69 8.3798,8.2045 -0.03,10.5911 -25.8092,36.7483 -62.8784,63.8008 -7.9093,5.7721 -16.2327,11.9629 -18.4964,13.7573 -5.32,4.2171 -46.6547,31.7365 -61.8902,41.2046 -6.476,4.0245 -11.5494,7.5424 -11.2742,7.8175 0.2751,0.2752 1.0736,0.053 1.7744,-0.4947 2.9205,-2.2805 75.1188,-35.4045 117.7742,-54.0337 95.2368,-41.5936 155.4628,-63.3935 186.1108,-67.3661 7.6121,-0.9867 9.0386,-0.9131 12.2999,0.6344 6.93,3.2886 9.765,13.3989 5.353,19.0905 -3.8826,5.0088 11.3646,-4.9407 -187.7637,122.5245 -30.525,19.5395 -58.425,37.3921 -62,39.6724 -3.575,2.2803 -5.9131,4.1555 -5.1958,4.167 0.7172,0.012 5.4422,-1.1495 10.5,-2.5801 5.0577,-1.4306 13.0208,-3.6263 17.6958,-4.8794 4.675,-1.2531 12.1,-3.2717 16.5,-4.4858 22.9105,-6.3218 91.4882,-23.1785 116.5,-28.6362 58.3827,-12.7396 91.1326,-17.6825 118,-17.8098 21.0791,-0.1 26.7725,1.1378 29.5006,6.4134 3.0255,5.8507 -2.8691,14.7523 -15.2676,23.0561 -26.1646,17.5235 -76.8638,35.1786 -182.233,63.4592 -23.8912,6.4124 -49.9605,14.4945 -52.9478,16.4153 -2.2552,1.4499 1.3652,1.8791 21.4478,2.5426 16.5006,0.5452 65.0343,2.8364 85.5,4.0363 12.3546,0.7244 64.6665,3.2779 92.5,4.5152 34.8736,1.5503 42.763,3.0218 46.9971,8.7652 2.8185,3.8232 2.5025,10.1001 -0.7564,15.0247 -5.3975,8.156 -17.5425,13.4227 -39.4398,17.1029 -22.8737,3.8442 -38.4634,4.4706 -138.3009,5.5567 -91.7109,0.9977 -119.7403,5.5752 -152.9099,24.972 -6.2468,3.653 -14.033,8.7004 -17.3028,11.2164 -15.7991,12.1571 -24.8048,31.6959 -24.7725,53.7463 0.035,24.1434 7.689,38.2409 28.7031,52.8693 4.5198,3.1464 8.4663,5.7207 8.7699,5.7207 0.3035,0 2.4555,1.2225 4.7821,2.7166 2.3265,1.4941 11.6551,6.4679 20.7301,11.0528 9.075,4.5849 18.075,9.5845 20,11.1102 1.925,1.5257 6.6082,4.5051 10.407,6.621 11.6899,6.5111 17.7161,12.2422 22.4595,21.3598 5.517,10.6042 8.7055,19.2394 11.1402,30.1696 2.2619,10.1546 2.5594,25.4397 0.6029,30.97 -4.0453,11.4341 -25.095,8.7853 -67.6096,-8.5078 -24.0511,-9.783 -39.829,-17.148 -80.4866,-37.5703 -39.2556,-19.7181 -54.5498,-25.8972 -88.5915,-35.7925 -30.9712,-9.0027 -79.3869,-19.6344 -109.9219,-24.138 -27.1117,-3.9987 -31.3484,-4.2648 -39.7531,-2.4971 -10.5037,2.2091 -10.2731,2.0928 -29.1185,14.6803 -26.5177,17.7121 -48.9723,33.8689 -102.6284,73.8445 -53.1091,39.568 -71.4288,53.1195 -88.5,65.4653 -10.725,7.7563 -24.225,17.5601 -30,21.7862 -33.3917,24.4358 -60.6203,41.9874 -79.5,51.2457 -18.7205,9.1803 -32.5901,20.1836 -79.5,63.0703 -38.2254,34.9471 -71.653,67.4235 -175.9849,170.9772 -93.9392,93.2386 -130.5817,128.8127 -157.0151,152.4369 -6.325,5.6528 -12.4,11.1622 -13.5,12.2431 -1.1,1.0808 29.05,-18.8303 67,-44.247 91.4572,-61.2528 298.5341,-199.2723 330,-219.9496 13.75,-9.0355 74.275,-49.305 134.5,-89.4877 l 109.5,-73.0595 6.6044,0.16 c 7.822,0.1895 23.5856,5.1452 35.5469,11.1751 53.6738,27.0576 114.3636,101.0754 166.9754,203.6444 9.9907,19.4774 10.2762,19.9047 11.3598,17 0.6113,-1.6387 4.6592,-9.9994 8.9952,-18.5793 37.4862,-74.1749 88.0208,-136.484 145.3593,-179.2279 27.9785,-20.8571 64.7021,-39.6247 97.3714,-49.7619 18.9606,-5.8834 52.7083,-11.9104 66.6917,-11.9104 4.6097,0 6.0031,-0.6921 19.5299,-9.7011 43.6138,-29.0473 89.2204,-71.7894 219.0577,-205.2989 77.0432,-79.2221 141.3304,-142.2586 186.0262,-182.407 8.5151,-7.6488 17.2821,-15.5292 19.4821,-17.5119 40.6538,-36.6393 88.0925,-75.5578 127,-104.1904 47.4144,-34.8929 108.5629,-73.8574 143.2106,-91.2554 6.4028,-3.2151 10.492,-6.8777 36.5,-32.6922 16.1092,-15.9893 32.8351,-33.0909 37.1688,-38.0036 43.1055,-48.8647 80.9759,-106.2679 117.0617,-177.4395 14.6742,-28.9418 21.1115,-42.9103 46.5458,-101 11.5466,-26.3715 32.9295,-67.3767 49.6718,-95.2539 51.3756,-85.5441 127.6428,-169.8176 204.8413,-226.3449 43.6946,-31.9947 81.5709,-54.9842 132.5,-80.423 82.468,-41.1922 169.6287,-71.6222 306.5,-107.0069 82.5994,-21.3541 127.3851,-34.5613 152.5,-44.9721 11.0702,-4.5889 25.5622,-12.3921 32.1368,-17.304 21.6823,-16.1992 46.732,-59.6767 94.3136,-163.6952 28.1705,-61.5838 34.2173,-74.4785 46.1901,-98.5 28.5963,-57.3733 52.9483,-94.6698 72.2646,-110.677 11.9197,-9.8777 25.9391,-16.5749 42.7802,-20.4365 8.2775,-1.8979 13.182,-2.2884 31.3147,-2.4932 32.5401,-0.3674 49.0058,2.1995 126,19.6424 64.6139,14.6381 104.0126,17.6006 132.5,9.963 52.7977,-14.1554 267.7438,-111.1413 513.5,-231.6966 18.975,-9.3081 50.025,-24.5177 69,-33.799 103.1842,-50.4708 372.4972,-187.002 463.5,-234.9765 25.3997,-13.3901 89.3496,-46.244 115,-59.0807 22.301,-11.1604 26.7854,-12.2859 41.7343,-10.4749 36.4508,4.4161 81.9348,25.7339 195.2656,91.5187 79.379,46.0768 105.504,60.478 147,81.034 40.196,19.9119 70.948,32.1632 98.935,39.4154 6.07,1.5727 11.342,3.4673 11.716,4.2102 3.714,7.376 12.966,23.3416 17.924,30.9314 22.943,35.1176 73.195,85.392 119.272,119.3257 50.547,37.2257 104.205,67.0626 139.431,77.5319 4.003,1.1896 7.043,2.5426 6.756,3.0067 -1.139,1.8433 -24.683,18.907 -41.372,29.9846 -31.395,20.8392 -52.819,33.1958 -90.162,52.0022 -42.042,21.173 -74.779,35.9336 -121,54.5567 -67.451,27.1774 -169.28,61.1809 -263.5,87.9902 -29.698,8.4504 -43.9015,12.385 -75.9999,21.0539 -28.3395,7.6538 -106.5534,27.1703 -140,34.9338 -57.8545,13.4291 -65.7261,15.161 -152.5,33.5528 -103.9968,22.0421 -243.623,48.5242 -358.5,67.9947 -34.5847,5.8617 -92.9963,15.5871 -110.5,18.398 -8.525,1.369 -25.4,4.0865 -37.5,6.039 -81.8953,13.2146 -131.4051,21.1354 -153.5,24.5574 -32.4746,5.0295 -78.9937,12.4035 -94.5,14.9795 -6.6,1.0965 -21.9,3.594 -34,5.55 -28.1016,4.5428 -55.1018,9.379 -83.5,14.9563 -20.1046,3.9485 -58.8028,11.0114 -91,16.6086 -96.4354,16.7644 -177.536,36.4345 -244.7696,59.3664 -42.8454,14.6136 -80.5138,29.7038 -113.9257,45.6397 -7.0426,3.3589 -16.4708,7.8415 -20.9516,9.9612 -33.2227,15.7166 -90.1117,48.587 -130.3531,75.3179 -78.0101,51.8191 -157.4642,119.4799 -227.8672,194.0449 -60.9275,64.5295 -136.6036,144.1899 -198.1328,208.5647 -44.6591,46.7244 -52.7364,55.2161 -107.0127,112.5025 -16.1541,17.05 -38.1722,40.181 -48.9292,51.4023 -10.757,11.2213 -20.0081,20.9044 -20.5581,21.5181 -0.55,0.6136 -5.9528,6.2826 -12.0062,12.5977 -6.0533,6.315 -19.1033,20.0272 -29,30.4714 -9.8966,10.4442 -23.1934,24.3942 -29.5485,31 -6.3551,6.6058 -22.9689,23.9355 -36.9195,38.5105 -24.1045,25.1833 -34.6415,36.0964 -66.2778,68.644 -12.1205,12.4697 -13.7482,14.5413 -13.7493,17.5 0,7.5724 -8.1995,35.2313 -16.2563,54.856 -18.7973,45.7863 -54.6221,112.8051 -97.3879,182.1867 -76.6121,124.2928 -176.8111,264.3696 -248.7959,347.8133 -14.0478,16.284 -19.5175,22.1805 -37.9373,40.8974 -9.4167,9.5686 -16.4463,17.1697 -15.6213,16.8913 0.825,-0.2783 12.525,-3.1429 26,-6.3658 13.475,-3.2229 98.3,-24.324 188.5,-46.8914 l 164,-41.0315 2.379,-7 c 13.0776,-38.4806 35.7809,-85.8994 58.4114,-122 37.0256,-59.0639 88.4691,-114.8388 147.1396,-159.5285 94.9828,-72.3489 208.9949,-125.0882 357.57,-165.4036 42.3117,-11.4811 112.4633,-26.7717 153.5,-33.4575 3.3,-0.5377 14.1,-2.3371 24,-3.9987 66.0903,-11.0924 146.9012,-20.2235 226.5,-25.5928 12.375,-0.8348 25.425,-1.7229 29,-1.9736 3.575,-0.2507 12.125,-0.7189 19,-1.0405 6.875,-0.3216 14.75,-0.7746 17.5,-1.0066 2.75,-0.232 13.775,-0.7234 24.5,-1.092 10.725,-0.3687 20.85,-0.7833 22.5,-0.9214 1.65,-0.1381 22.125,-0.5492 45.5,-0.9135 23.375,-0.3643 53.75,-0.8402 67.5,-1.0575 16.2205,-0.2564 28.5118,-0.9568 35,-1.9944 62.653,-10.0197 120.2452,-51.4829 185.5915,-133.6154 6.8247,-8.5779 20.4733,-26.2867 30.3302,-39.3529 9.8569,-13.0663 21.4418,-27.648 25.7443,-32.404 4.3025,-4.7559 15.1851,-16.9721 24.1837,-27.1471 25.5517,-28.8923 46.0515,-47.9268 66.0494,-61.328 39.0366,-26.1599 79.6261,-36.8994 123.1772,-32.5915 72.1602,7.1379 148.7033,51.1625 232.6841,133.8306 8.1181,7.9913 15.7681,15.0892 17,15.7731 5.1908,2.8821 17.5183,5.4968 35.2396,7.4745 14.4318,1.6105 85.4811,1.6097 121,0 68.1153,-3.0896 80.5541,-3.7123 123,-6.157 26.2033,-1.5092 44.4244,-2.6951 76.5,-4.9788 45.6438,-3.2498 69.7694,-4.8672 97,-6.5028 44.5316,-2.6749 88.5634,-5.4367 119.5,-7.4955 40.014,-2.6627 90.1869,-5.763 105,-6.4881 6.6,-0.323 15.825,-0.7934 20.4999,-1.0452 4.675,-0.2518 14.125,-0.7014 21,-0.9992 6.875,-0.2978 30.725,-1.4173 53,-2.4879 22.275,-1.0705 51.75,-2.4103 65.5,-2.9773 13.75,-0.567 28.6,-1.2492 33,-1.516 56.819,-3.4452 298.544,-4.1355 351.5,-1.0037 4.125,0.2439 12.675,0.6921 19,0.9959 6.325,0.3039 14.875,0.7652 19,1.0252 31.378,1.9778 40,2.5674 43.5,2.9746 2.2,0.2559 6.379,0.5447 9.286,0.6417 l 5.285,0.1765 4.461,8.638 c 32.387,62.7069 113.123,131.4212 236.468,201.2569 42.712,24.1827 96.881,51.2826 154.126,77.1068 5.485,2.4744 5.643,2.6587 6.3,7.3583 0.371,2.6512 1.761,9.0953 3.09,14.3203 9.955,39.1582 30.568,76.5742 68.035,123.5 47.741,59.7926 129.309,132.7309 225.638,201.7666 21.101,15.1229 55.391,38.3911 71.061,48.2209 4.263,2.6739 7.75,5.1905 7.75,5.5925 0,0.8968 -12.171,5.3952 -34,12.5667 -63.898,20.9923 -131.39,33.3821 -222.5,40.8452 -42.671,3.4954 -73.615,4.7504 -120.5,4.8871 -37.361,0.1089 -94.484,-0.9732 -95.933,-1.8174 -0.312,-0.1818 -7.317,-0.6432 -15.567,-1.0254 -8.25,-0.3821 -16.35,-0.8725 -18,-1.0897 -1.65,-0.2172 -13.125,-1.0863 -25.5,-1.9314 -30.415,-2.0771 -42.803,-3.1114 -78.5,-6.5544 -24.151,-2.3294 -27.276,-2.6616 -37.5,-3.986 -4.125,-0.5343 -9.975,-1.2166 -13,-1.5161 -5.409,-0.5356 -22.394,-2.7737 -49,-6.4568 -7.425,-1.0279 -23.85,-3.5029 -36.5,-5.5001 -12.65,-1.9972 -25.7,-4.0564 -29,-4.576 -3.3,-0.5196 -10.275,-1.5746 -15.5,-2.3443 -10.589,-1.5601 -80.108,-13.3467 -98,-16.6156 -10.326,-1.8867 -15.616,-2.8883 -36.5,-6.9114 -8.641,-1.6646 -28.098,-5.644 -42,-8.5897 -6.6,-1.3986 -14.031,-2.9434 -16.513,-3.433 -3.862,-0.7617 -32.143,-6.875 -76.987,-16.6414 -6.325,-1.3776 -14.2,-3.1435 -17.5,-3.9244 -3.3,-0.7809 -13.425,-3.0582 -22.5,-5.0607 -9.075,-2.0024 -23.925,-5.405 -33,-7.5613 -9.075,-2.1563 -21.45,-5.0965 -27.5,-6.5339 -13.011,-3.0912 -64.31,-15.995 -80,-20.1234 -6.05,-1.5919 -23.6,-6.1356 -39,-10.0971 -67.893,-17.465 -156.1232,-41.881 -229.4999,-63.5097 -12.375,-3.6477 -33.3,-9.8105 -46.5,-13.6952 -46.0198,-13.5435 -87.1528,-26.0953 -151,-46.0782 -26.4,-8.2627 -51.375,-16.0529 -55.5,-17.3116 -4.125,-1.2587 -15.6,-4.8383 -25.5,-7.9547 -18.3016,-5.761 -31.4055,-9.9397 -99,-31.5697 -85.2581,-27.2822 -112.7271,-35.7037 -133.5,-40.9282 -4.675,-1.1758 -10.0882,-2.5546 -12.0293,-3.064 -1.9411,-0.5094 -8.5202,-1.6223 -14.6203,-2.4731 -6.1,-0.8509 -13.5119,-2.1655 -16.4707,-2.9216 -2.9588,-0.756 -7.344,-1.6949 -9.7449,-2.0864 -5.723,-0.9332 -28.5698,-7.2025 -65.6348,-18.0105 -16.5,-4.8113 -31.35,-9.0863 -33,-9.5 -1.65,-0.4136 -6.6,-1.7419 -11,-2.9517 -62.0734,-17.0669 -110.1426,-24.0889 -164.7158,-24.0618 -58.1187,0.029 -103.333,7.6332 -157.8691,26.5512 -27.6484,9.591 -39.2949,14.9207 -176.4151,80.7319 -106.5626,51.145 -327.0365,160.3542 -423.5,209.776 -15.125,7.7491 -33.8,17.2908 -41.5,21.2037 -7.7,3.913 -24.125,12.3672 -36.5,18.7871 -12.375,6.4199 -32.85,16.9776 -45.5,23.4617 -12.65,6.484 -26.15,13.4646 -30,15.5124 -3.85,2.0478 -13.75,7.2338 -22,11.5245 -122.3178,63.6153 -285.7442,152.0384 -347.7823,188.1704 -28.814,16.7817 -78.9507,49.4851 -125.7177,82.0037 -16.3009,11.3345 -22.237,15.5569 -39.5,28.0967 -109.1683,79.2994 -201.4363,161.8637 -264.5275,236.7076 -30.5816,36.2783 -65.5369,70.9429 -113.9992,113.0512 -18.4545,16.0348 -25.2154,21.6659 -44.9733,37.4572 -33.2194,26.5503 -54.5676,42.4901 -95.6771,71.4378 -165.1818,116.3142 -350.8897,206.03 -499.2524,241.1896 -32.5874,7.7227 -73.7283,14.9578 -99.7085,17.5349 l -12.3305,1.2231 -4.5659,6.8666 c -8.823,13.2685 -26.5701,29.8071 -45.4656,42.3694 -34.7585,23.1085 -89.8272,45.6033 -158.5,64.745 -15.0376,4.1916 -27.3485,7.2957 -57.7362,14.5581 -30.3411,7.2513 -82.6595,17.0835 -138.6923,26.0646 -27.0266,4.3319 -31.8657,5.3709 -34.55,7.4183 -3.0531,2.3287 -16.7653,14.0667 -37.4803,32.0842 -5.6911,4.95 -13.8066,11.925 -18.0344,15.5 -23.1897,19.6088 -32.0299,27.0413 -38.0612,32 -3.6792,3.025 -15.1234,12.475 -25.4314,21 -24.2165,20.0277 -45.5357,37.3064 -90.5142,73.3596 -93.2471,74.7437 -132.0415,104.4608 -197.5,151.2879 -7.7,5.5083 -22.1984,15.9185 -32.2187,23.1336 -47.1156,33.9257 -86.1,59.6661 -130.5991,86.2311 -11.3663,6.7855 -20.5572,12.4394 -20.4241,12.5642 0.2256,0.2116 9.3904,0.708 36.2419,1.963 6.05,0.2828 15.05,0.7174 20,0.966 4.95,0.2485 14.175,0.7065 20.5,1.0178 11.6612,0.574 67.9159,4.0971 78,4.8851 3.025,0.2363 12.7,0.9553 21.5,1.5977 29.8918,2.182 77.9852,6.9326 116,11.4583 39.4859,4.7009 84.4888,14.0194 99.2776,20.5568 l 4.2777,1.8909 10.2223,-7.235 c 18.4137,-13.0326 40.4119,-26.5793 67.5533,-41.6002 9.7241,-5.3816 52.1831,-26.7997 63.2785,-31.9202 3.5148,-1.6222 11.3406,-5.2849 17.3906,-8.1394 18.3476,-8.6568 55.5752,-24.6557 77.9039,-33.48 68.7959,-27.1881 175.3508,-61.1439 249.5961,-79.5386 106.7709,-26.4532 221.4066,-45.8906 304,-51.5457 5.225,-0.3577 10.85,-0.795 12.5,-0.9717 1.65,-0.1767 10.425,-0.6461 19.5,-1.0431 9.075,-0.3971 17.85,-0.8337 19.5,-0.9704 1.65,-0.1366 7.2093,-0.2978 12.3541,-0.3581 l 9.354,-0.1096 5.646,-5.8059 c 12.2815,-12.6294 31.4728,-50.4404 51.1498,-100.7764 18.8854,-48.3109 35.3802,-99.6445 43.4038,-135.0773 3.58,-15.8098 4.1875,-19.6175 8.111,-50.8404 1.3822,-11 2.9701,-23.15 3.5285,-27 0.5585,-3.85 1.6679,-11.5 2.4655,-17 2.5279,-17.433 9.5066,-56.5857 12.1205,-68 6.7506,-29.4778 20.4472,-51.6636 36.6767,-59.4093 11.3441,-5.414 21.0844,-3.7562 29.6368,5.0443 7.499,7.7166 13.0814,18.0364 16.0674,29.7026 6.3136,24.6675 5.1035,59.7802 -2.8912,83.8877 -2.8811,8.6877 -6.1229,29.1104 -6.1229,38.573 0,22.6649 12.4838,45.3399 32.2784,58.6289 17.4408,11.7088 41.5505,15.3779 63.8106,9.7109 14.8338,-3.7764 23.8094,-8.8609 36.0853,-20.4413 19.691,-18.5755 45.8266,-54.4662 89.348,-122.6968 44.425,-69.6473 64.3693,-96.8456 82.3872,-112.3532 12.4264,-10.6951 21.3042,-14.2853 29.431,-11.9022 22.7535,6.6724 2.5432,55.8315 -62.8008,152.7554 -9.4553,14.025 -22.3417,32.925 -28.6363,42 -20.5024,29.5583 -31.1849,47.0518 -29.6623,48.5745 0.9788,0.9788 8.3513,-4.5258 20.2589,-15.1261 6.05,-5.3858 11.45,-10.3211 12,-10.9673 1.9434,-2.2835 54.2573,-49.254 73,-65.5437 51.2994,-44.5856 83.7409,-67.4354 104.8553,-73.8536 8.0279,-2.4402 12.4353,-2.616 17.0673,-0.6806 13.9049,5.8099 -1.0087,32.5745 -46.024,82.5968 -14.6869,16.3205 -82.7108,85.0433 -107.9611,109.0703 -26.9357,25.6307 -30.2543,28.7615 -43.4068,40.9488 -7.4081,6.8645 -14.9537,13.9065 -16.768,15.6489 l -3.2988,3.1681 3.2681,6.0653 c 1.7974,3.3359 3.5622,6.0728 3.9218,6.082 1.0131,0.026 29.9972,-15.5149 42.9881,-23.0493 6.4031,-3.7136 22.1531,-13.2502 35,-21.1923 12.847,-7.9422 31.0081,-19.1718 40.3581,-24.9548 36.065,-22.3064 61.3336,-35.9813 80.6728,-43.6589 25.3707,-10.0721 42.7703,-9.1971 48.2869,2.4282 4.1199,8.682 -0.7431,18.9309 -16.3675,34.4951 -16.5591,16.4954 -35.2549,30.0373 -67.5922,48.9589 -11.55,6.7583 -38.1,22.4856 -59,34.9494 -20.9,12.4639 -42.6282,25.3343 -48.285,28.6009 -19.6931,11.3724 -34.0182,21.3502 -43.3008,30.1602 -18.4237,17.4856 -23.7661,28.9588 -14.3105,30.7327 5.7449,1.0777 21.4485,-4.7806 36.8963,-13.7643 11.603,-6.7478 71.5178,-34.8481 107.2172,-50.2853 21.9805,-9.5048 40.8119,-14.6666 53.7828,-14.7422 14.6198,-0.085 19.2345,3.9722 17.4228,15.3187 -2.5783,16.147 -13.7102,28.3933 -42.4228,46.6698 -75.3843,47.9846 -125.9922,77.2959 -183.5,106.2807 -20.6311,10.3983 -30.9502,15.3667 -64,30.8143 -87.0293,40.6777 -161.4366,67.3563 -254.5,91.2506 -37.1985,9.5508 -43.2948,11.4845 -57,18.08 -18.4559,8.8817 -36.2768,20.8811 -67.5,45.4501 -11.275,8.8721 -23.875,18.6169 -28,21.6552 -16.2136,11.9421 -76.4442,51.1529 -108,70.3093 -7.975,4.8413 -19.45,11.8186 -25.5,15.5051 -6.05,3.6865 -17.525,10.5412 -25.5,15.2327 -7.975,4.6915 -26.65,15.7172 -41.5,24.5016 -36.5819,21.6397 -49.7672,29.1977 -71.5,40.9848 -55.268,29.9754 -145.6002,75.5732 -173.684,87.672 -4.2988,1.8519 -10.291,4.504 -13.316,5.8934 -44.4329,20.4082 -82.4471,36.671 -108.5,46.4174 -85.282,31.9039 -166.766,49.2094 -316.5,67.218 -29.624,3.5629 -46.1377,5.2727 -112.5,11.6479 -40.8286,3.9222 -115.8967,14.3315 -187,25.9303 -11.55,1.8841 -37.425,5.9291 -57.5,8.9889 -20.075,3.0598 -62.825,9.5922 -95,14.5164 -94.7574,14.502 -143.7341,21.2798 -177,24.4947 -9.075,0.8771 -18.075,1.7735 -20,1.9921 -1.925,0.2186 -6.425,0.6694 -10,1.0018 -3.575,0.3323 -8.525,0.8072 -11,1.0551 -2.475,0.248 -16.65,1.3301 -31.5,2.4046 -26.2129,1.8968 -33.7629,2.3452 -68.5,4.069 -16.49,0.8183 -126.4952,0.4837 -135,-0.4106 -2.475,-0.2603 -9.225,-0.7375 -15,-1.0605 -70.0745,-3.9191 -140.6486,-14.442 -209,-31.1627 -15.3747,-3.7611 -16.6286,-4.1018 -38.5,-10.4633 -68.3573,-19.8822 -122.9698,-46.8215 -161,-79.4182 -8.1485,-6.9843 -8.3353,-7.0643 -9.4771,-4.0611 -1.7111,4.5006 -1.987,4.2235 -14.8786,-14.9398 -4.0699,-6.05 -8.6924,-12.6398 -10.2721,-14.6439 -1.5797,-2.0042 -2.8722,-4.5017 -2.8722,-5.55 0,-1.0484 -0.4232,-2.3336 -0.9404,-2.8561 -1.6555,-1.6723 -13.9704,-27.1385 -18.7321,-38.7365 -8.0765,-19.6716 -17.0578,-49.5116 -22.4537,-74.6014 l -1.3738,-6.3879 -15.25,-0.4498 -15.25,-0.4498 -0.057,16.8377 c -0.032,9.2607 -0.2439,19.5377 -0.4721,22.8377 -0.2283,3.3 -0.8962,14.1 -1.4843,24 -6.1931,104.2464 -27.3344,177.1562 -65.1514,224.6871 -24.2634,30.4958 -58.0355,48.3388 -97.8629,51.7045 -35.7536,3.0214 -80.6766,-6.229 -126.3904,-26.0259 -4.9052,-2.1242 -9.1121,-3.6686 -9.3487,-3.432 -0.2366,0.2366 0.8813,10.6144 2.4843,23.0616 3.3531,26.0378 4.2462,23.1948 -8.2922,26.3962 -16.0426,4.096 -41.8802,5.4726 -63.3138,3.3733 z m 215.3887,-83.2502 c 44.7104,-12.1411 73.1964,-52.5734 89.8386,-127.5146 4.9247,-22.1761 9.3116,-54.4497 11.1463,-82 0.293,-4.4 0.7447,-10.25 1.0039,-13 1.4757,-15.66 2.8017,-58.206 1.832,-58.7819 -0.4514,-0.268 -12.2958,-0.8021 -26.3208,-1.1869 -14.025,-0.3847 -28.65,-0.8483 -32.5,-1.0303 -3.85,-0.1819 -17.7128,-0.6487 -30.8062,-1.0373 l -23.8062,-0.7066 -2.5411,2.3715 c -5.0375,4.7013 -9.6568,17.2038 -13.6233,36.8722 -5.8839,29.1766 -7.87,59.9328 -5.7529,89.0899 1.136,15.6445 1.0954,18.1049 -0.3944,23.9236 -3.55,13.8656 -10.561,25.0104 -24.1969,38.4633 -13.5418,13.3601 -30.8471,23.8222 -49.4327,29.8848 -19.1282,6.2397 -33.1517,6.5446 -50.6963,1.1024 -2.7046,-0.839 -2.6898,-1.3813 -0.4241,15.5353 l 1.6741,12.5 14.5,7.249 c 26.7404,13.3682 54.6999,23.3236 79,28.129 15.1448,2.995 14.7728,2.9671 35,2.6234 15.1774,-0.258 19.9369,-0.7046 26.5,-2.4868 z m 126.3699,-936.9219 c 6.485,-4.6177 7.938,-14.0866 5.5385,-36.0927 -2.7412,-25.1408 -1.607,-37.512 4.6393,-50.5999 6.206,-13.0034 20.6299,-29.7053 38.7023,-44.8143 5.0875,-4.2533 9.25,-8.4075 9.25,-9.2315 0,-2.9155 11.2765,-41.1727 18.9687,-64.3543 21.48,-64.7332 41.3321,-107.4009 60.951,-131 3.8864,-4.675 9.9813,-12.0162 13.544,-16.3137 15.2457,-18.3899 36.7144,-53.0695 59.4569,-96.0439 l 6.2752,-11.8576 -3.8112,-4.1424 c -8.8624,-9.6328 -25.1334,-25.2134 -32.1704,-30.8054 -55.2265,-43.8865 -110.2728,-48.1188 -162.1897,-12.47 -8.7935,6.038 -26.8271,23.123 -35.1689,33.3188 -28.9029,35.3268 -51.2264,87.2247 -63.4281,147.458 -1.9338,9.5459 -3.9319,20.2812 -4.4403,23.8562 -3.0204,21.2386 -3.3871,24.6535 -4.9403,46 -1.1869,16.3114 -1.2157,64.2558 -0.049,81.7371 1.5609,23.3927 4.7271,57.4775 7.5219,80.9766 4.2854,36.0315 9.6882,75.7564 10.4112,76.5496 1.0522,1.1543 24.3573,11.082 34.5692,14.7261 17.2664,6.1615 30.4904,7.2898 36.3699,3.1033 z"
       style="fill:#000000" />
  </g>
</svg>
