<?xml version="1.0" encoding="UTF-8" standalone="no"?>
<svg
   xmlns:dc="http://purl.org/dc/elements/1.1/"
   xmlns:cc="http://creativecommons.org/ns#"
   xmlns:rdf="http://www.w3.org/1999/02/22-rdf-syntax-ns#"
   xmlns:svg="http://www.w3.org/2000/svg"
   xmlns="http://www.w3.org/2000/svg"
   xmlns:sodipodi="http://sodipodi.sourceforge.net/DTD/sodipodi-0.dtd"
   xmlns:inkscape="http://www.inkscape.org/namespaces/inkscape"
   version="1.1"
   id="svg64"
   width="959.98468"
   height="538.70178"
   viewBox="0 0 959.98468 538.70178"
   sodipodi:docname="фехтование.svg"
   inkscape:version="1.0 (4035a4fb49, 2020-05-01)">
  <metadata
     id="metadata70">
    <rdf:RDF>
      <cc:Work
         rdf:about="">
        <dc:format>image/svg+xml</dc:format>
        <dc:type
           rdf:resource="http://purl.org/dc/dcmitype/StillImage" />
        <dc:title></dc:title>
      </cc:Work>
    </rdf:RDF>
  </metadata>
  <defs
     id="defs68" />
  <sodipodi:namedview
     inkscape:document-rotation="0"
     pagecolor="#ffffff"
     bordercolor="#666666"
     borderopacity="1"
     objecttolerance="10"
     gridtolerance="10"
     guidetolerance="10"
     inkscape:pageopacity="0"
     inkscape:pageshadow="2"
     inkscape:window-width="1920"
     inkscape:window-height="1018"
     id="namedview66"
     showgrid="false"
     inkscape:zoom="1.36875"
     inkscape:cx="467.57991"
     inkscape:cy="265.79192"
     inkscape:window-x="-6"
     inkscape:window-y="-6"
     inkscape:window-maximized="1"
     inkscape:current-layer="g72" />
  <g
     transform="translate(-12.420088,-3.7080793)"
     inkscape:groupmode="layer"
     inkscape:label="Image"
     id="g72">
    <path
       id="path8"
       d="m 519.42009,541.11666 c -8.03051,-1.65597 -14.43354,-1.79162 -19.0066,-0.40264 -5.01475,1.52313 -55.29505,0.17008 -57.64924,-1.55135 -3.12052,-2.28178 -1.47025,-24.26159 2.76567,-36.83574 2.25062,-6.68085 2.1775,-7.54478 -2.76566,-32.67396 -3.15216,-16.02444 -5.84605,-26.1 -8.82315,-33 -2.89545,-6.71073 -4.09519,-13.43374 -5.52471,-30.9587 -0.6038,-7.40228 -1.58386,-14.04432 -2.17789,-14.76009 -2.26367,-2.72756 -12.00067,-4.65476 -22.31842,-4.4174 -5.63369,0.1296 -13.71137,-0.43265 -18.5,-1.28771 -52.61625,-9.39513 -58.72839,-10.36591 -72.5,-11.51506 -11.78467,-0.98335 -17.10567,-0.39545 -25.07252,2.77017 -6.55344,2.604 -23.28936,9.9059 -26.42748,11.53033 -5.53796,2.8667 -57.54824,33.93624 -62.95161,37.6056 -3.18751,2.16459 -7.98987,5.24815 -10.67193,6.85234 -2.68205,1.6042 -8.02646,4.86492 -11.87646,7.24604 -5.8579,3.62297 -7.89788,4.35325 -12.50317,4.47592 -7.90086,0.21047 -14.20626,3.38217 -21.37597,10.7524 -3.36647,3.46064 -9.94586,8.93773 -14.62086,12.17132 -4.675,3.2336 -12.1,8.36423 -16.5,11.40142 -4.62151,3.19009 -14.983702,12.51377 -24.536892,22.07779 -13.38764,13.4028 -17.33268,18.01061 -20.71558,24.1958 -3.2915,6.01809 -4.8546,7.87581 -7.36233,8.75 -4.43822,1.54718 -12.85614,1.38419 -17.75362,-0.34375 -2.58524,-0.91212 -5.89142,-1.24445 -8.87573,-0.89217 -9.71628,1.14696 -19.25585,-4.03718 -19.25585,-10.46431 0,-4.85967 5.69499,-12.11674 14,-17.84008 4.56138,-3.14345 10.55938,-8.69234 15.3082,-14.162 7.61775,-8.77407 12.12707,-12.00228 15.14676,-10.84352 2.21977,0.85181 6.7686,-3.47387 12.99054,-12.35324 3.05119,-4.35438 6.4145,-8.38099 7.47402,-8.94803 1.05952,-0.56704 7.98564,-8.3462 15.39138,-17.28702 15.344972,-18.52574 15.969732,-19.14262 28.189102,-27.83364 4.95,-3.52069 10.629,-7.86802 12.61999,-9.66074 1.991,-1.79272 7.80279,-5.36591 12.9151,-7.94044 5.59062,-2.8154 10.67069,-6.20356 12.74664,-8.50139 2.10963,-2.33511 5.37962,-4.5007 8.41077,-5.57014 4.09607,-1.44516 6.73648,-3.66425 15.1704,-12.7497 5.61614,-6.05 13.5275,-14.825 17.5808,-19.5 4.0533,-4.675 9.73413,-10.75 12.62408,-13.5 4.0677,-3.87072 5.6133,-6.22674 6.84333,-10.4315 0.87389,-2.98733 1.58889,-6.06806 1.58889,-6.84608 0,-1.94863 8.2995,-17.32424 13.62881,-25.24864 3.3262,-4.94588 4.90408,-8.69924 6.51606,-15.5 4.21485,-17.78191 7.69376,-31.035 8.98907,-34.24428 1.13175,-2.80406 1.07058,-4.22149 -0.4289,-9.9386 -0.9619,-3.66746 -2.00232,-6.92073 -2.31205,-7.2295 -0.30972,-0.30877 -1.68433,0.7886 -3.05468,2.4386 -1.37036,1.65 -4.84599,5.475 -7.72363,8.5 -6.21913,6.5376 -12.27805,17.04261 -13.21728,22.91625 -0.40625,2.54054 -2.86841,7.67632 -6.18546,12.90215 -3.03081,4.77488 -7.48078,12.1977 -9.88883,16.49515 -6.89021,12.29644 -8.96448,15.28736 -15.66838,22.59248 -3.45492,3.76476 -8.27811,10.09834 -10.7182,14.07462 -2.44009,3.97628 -7.18257,11.3448 -10.53884,16.37448 -3.35628,5.02968 -6.85488,10.6065 -7.77468,12.39293 -1.14814,2.22992 -3.53647,4.18906 -7.61917,6.25 -7.20955,3.63937 -8.04923,3.67607 -11.80489,0.5159 -4.18076,-3.51789 -5.51725,-9.6883 -4.65801,-21.50549 0.82522,-11.3493 2.1105,-14.87809 6.69167,-18.37232 4.2025,-3.2054 7.76045,-9.59003 11.13734,-19.98556 1.40239,-4.31717 3.46902,-9.40736 4.5925,-11.31152 1.12348,-1.90416 3.62743,-8.1987 5.56432,-13.98786 1.9369,-5.78917 4.42815,-12.30269 5.53613,-14.4745 2.28744,-4.48376 13.39573,-22.62726 18.90414,-30.87671 4.22044,-6.32058 8.24279,-15.56107 10.96679,-25.19393 1.90035,-6.72014 4.25717,-10.60783 12.61321,-20.80607 2.79574,-3.4121 5.11328,-7.5879 6.1049,-11 2.1873,-7.52634 3.85644,-10.54762 8.78811,-15.9072 2.32435,-2.52604 5.62112,-7.06998 7.32615,-10.09764 1.70502,-3.02766 5.60505,-8.07055 8.66672,-11.20643 4.8666,-4.98455 6.57928,-6.02147 13.6185,-8.24516 4.4285,-1.39896 8.6997,-2.54357 9.49155,-2.54357 1.29257,0 5.67728,-2.89568 13.73903,-9.0733 5.15849,-3.95289 6.54084,-8.27139 6.10118,-19.060214 -0.27064,-6.64101 -0.99296,-10.99076 -2.3253,-14.00274 -1.65739,-3.746804 -1.80654,-5.366018 -1.04701,-11.366485 1.14205,-9.022361 6.01288,-22.497263 8.13219,-22.497263 0.42495,0 1.92062,-1.958892 3.32371,-4.353092 5.50826,-9.399121 7.94353,-10.01324 38.94214,-9.820286 27.15715,0.169043 29.15914,0.632219 36.14235,8.361798 8.57904,9.495973 10.92828,19.498643 10.11609,43.072708 -0.55317,16.055924 -0.50008,16.719724 1.26168,15.776854 1.01153,-0.54135 6.12569,-2.51634 11.36478,-4.388874 10.64352,-3.80414 23.71259,-12.13713 26.48533,-16.88734 1.90349,-3.261027 19.46868,-16.448066 37.22086,-27.943506 6.325,-4.095759 16.18829,-10.937917 21.91843,-15.204794 5.73013,-4.266878 13.38013,-9.325768 17,-11.241979 3.61986,-1.916211 8.71927,-4.999863 11.33201,-6.85256 2.61273,-1.852698 8.48992,-4.779918 13.06042,-6.504935 7.41643,-2.799143 8.41102,-3.479279 9.24956,-6.3251938 0.78836,-2.675579 1.49207,-3.241428 4.3724,-3.515794 5.60026,-0.533453 9.8897,0.732266 13.63964,4.024762 4.06551,3.5695608 5.97437,6.8697188 6.93482,11.9893248 l 0.67873,3.617982 13.157,0.575419 c 7.23634,0.31648 44.88198,1.273691 83.65698,2.127137 173.2204,3.812614 319.0314,8.56286 318.9847,10.391919 -0.063,2.451902 -2.1654,2.73572 -14.9847,2.022457 -88.3874,-4.917846 -232.2734,-7.639699 -338.6272,-6.405716 l -62.12726,0.720839 -1.13347,3.631435 c -1.82384,5.843219 -7.39541,15.326075 -10.22301,17.399629 -1.54091,1.129989 -4.2048,1.902731 -6.5,1.885527 -16.81653,-0.12605 -20.51017,0.07982 -25.13432,1.400886 -4.83279,1.380673 -5.95128,2.341799 -14.22303,12.221954 -4.93777,5.897891 -10.35865,11.623437 -12.04642,12.723437 -1.68776,1.1 -5.74348,5.4421 -9.01271,9.64911 -6.29537,8.10121 -10.91623,12.498774 -14.60849,13.902574 -1.49642,0.56894 -2.8534,2.57995 -4.05637,6.01147 -1.31616,3.75439 -3.34762,6.586 -7.47085,10.41351 -5.07108,4.70737 -30.12079,21.90101 -41.83686,28.71603 -2.475,1.43966 -9.71438,7.04775 -16.08751,12.46244 -6.37312,5.41468 -12.80909,10.74487 -14.30215,11.84487 -2.46946,1.81937 -2.97411,3.3999 -5.58754,17.5 -4.35634,23.50357 -5.36806,34.58859 -4.70034,51.5 0.32574,8.25 1.08386,17.00217 1.68471,19.44928 0.60085,2.4471 1.51133,7.75305 2.02329,11.79099 1.29105,10.18273 -0.0505,15.64819 -5.59315,22.78599 -2.44052,3.14291 -4.43731,6.52105 -4.43731,7.50698 0,1.49922 3.15057,2.55902 19.25,6.47538 29.13494,7.08739 36.93282,9.75628 62.75,21.4767 5.775,2.62171 11.95119,5.32245 13.72488,6.00163 4.21482,1.61395 10.92142,8.95921 13.49749,14.78284 1.53666,3.47388 2.23914,7.9862 2.82959,18.17567 0.432,7.455 1.91872,20.75454 3.30384,29.55454 1.72947,10.98783 2.8648,23.98815 3.62424,41.5 0.60822,14.025 1.64903,28.64735 2.31291,32.49411 1.13674,6.58674 1.37694,7.02358 4.12383,7.5 2.04309,0.35436 4.28965,2.23427 7.5,6.27599 4.94184,6.22159 30.21557,25.7047 33.36534,25.72079 7.20873,0.0368 17.71788,9.47509 17.71788,15.9124 0,9.30609 -11.00733,13.06447 -28,9.5604 z"
       style="fill:#000000" />
  </g>
</svg>
