<?xml version="1.0" encoding="UTF-8" standalone="no"?>
<svg
   xmlns:dc="http://purl.org/dc/elements/1.1/"
   xmlns:cc="http://creativecommons.org/ns#"
   xmlns:rdf="http://www.w3.org/1999/02/22-rdf-syntax-ns#"
   xmlns:svg="http://www.w3.org/2000/svg"
   xmlns="http://www.w3.org/2000/svg"
   xmlns:sodipodi="http://sodipodi.sourceforge.net/DTD/sodipodi-0.dtd"
   xmlns:inkscape="http://www.inkscape.org/namespaces/inkscape"
   version="1.1"
   id="svg267"
   width="2873.0872"
   height="2587.8108"
   viewBox="0 0 2873.0872 2587.8108"
   sodipodi:docname="FMX.svg"
   inkscape:version="1.0 (4035a4fb49, 2020-05-01)">
  <metadata
     id="metadata273">
    <rdf:RDF>
      <cc:Work
         rdf:about="">
        <dc:format>image/svg+xml</dc:format>
        <dc:type
           rdf:resource="http://purl.org/dc/dcmitype/StillImage" />
        <dc:title></dc:title>
      </cc:Work>
    </rdf:RDF>
  </metadata>
  <defs
     id="defs271" />
  <sodipodi:namedview
     inkscape:document-rotation="0"
     pagecolor="#ffffff"
     bordercolor="#666666"
     borderopacity="1"
     objecttolerance="10"
     gridtolerance="10"
     guidetolerance="10"
     inkscape:pageopacity="0"
     inkscape:pageshadow="2"
     inkscape:window-width="1920"
     inkscape:window-height="1018"
     id="namedview269"
     showgrid="false"
     inkscape:zoom="0.32441252"
     inkscape:cx="1602.9783"
     inkscape:cy="1244.0941"
     inkscape:window-x="-6"
     inkscape:window-y="-6"
     inkscape:window-maximized="1"
     inkscape:current-layer="g275" />
  <g
     transform="translate(162.97831,-50.553846)"
     inkscape:groupmode="layer"
     inkscape:label="Image"
     id="g275">
    <path
       id="path8"
       d="m 1327.6298,2633.5455 c -4.7187,-5.6857 -25.5073,-6.9085 -28.7324,-1.6902 -3.0481,4.9319 -14.435,4.132 -17.5785,-1.2348 -3.1,-5.2927 -24.0985,-9.1932 -26.7135,-4.9621 -3.3269,5.3831 -14.5102,2.7729 -19.6678,-4.5906 -4.2482,-6.0651 -8.3397,-7.3597 -22.5805,-7.1449 -14.1196,0.213 -17.6955,-0.8974 -19.004,-5.9012 -1.9718,-7.5401 -19.1424,-13.9988 -29.9828,-11.278 -6.2976,1.5806 -8.7998,0.1673 -11.9513,-6.7493 -4.9508,-10.8658 -17.7438,-19.5785 -24.7819,-16.8777 -6.4496,2.4749 -15.3064,-4.298 -15.4515,-11.8161 -0.1139,-5.9086 -16.0017,-19.2528 -19.161,-16.0936 -3.9698,3.9698 -14.5356,-5.1888 -14.5356,-12.5997 0,-8.1139 -14.1119,-24.1049 -17.9156,-20.3012 -3.653,3.653 -12.4994,-5.843 -12.6145,-13.5407 -0.1335,-8.9259 -7.3338,-18.7334 -17.5093,-23.849 -4.8027,-2.4146 -7.8034,-7.0426 -7.9148,-12.2074 -0.2409,-11.1605 -8.2972,-26.91 -13.7653,-26.91 -6.2714,0 -11.95491,-11.6214 -7.7432,-15.8331 4.5962,-4.5962 -1.72411,-20.3645 -11.31541,-28.2306 -6.0807,-4.9871 -6.8422,-7.4008 -3.8918,-12.3359 4.5068,-7.5381 0.3619,-24.8391 -6.9282,-28.9188 -5.8301,-3.2627 -6.9828,-14.5835 -1.8104,-17.7802 5.1523,-3.1843 4.0287,-20.8405 -1.6901,-26.5594 -5.7703,-5.7702 -6.7369,-17.6455 -1.6902,-20.7646 1.8592,-1.149 3.3803,-7.2335 3.3803,-13.5211 0,-6.2876 -1.5211,-12.3721 -3.3803,-13.5211 -5.0897,-3.1456 -4.0585,-15.1632 1.4836,-17.2899 6.6535,-2.5532 10.2543,-20.6565 5.2967,-26.63 -4.6879,-5.6487 -1.4062,-18.6153 4.7114,-18.6153 6.4424,0 11.9067,-20.8337 7.4016,-28.2204 -2.9966,-4.9133 -2.0324,-7.4105 5.1799,-13.4154 11.91951,-9.924 16.21671,-19.1163 14.10371,-30.1695 -1.4388,-7.5268 -0.213,-9.7857 6.7463,-12.4316 10.3621,-3.9397 13.2716,-8.3329 15.7732,-23.8173 1.4708,-9.1042 3.7481,-12.2054 9.5733,-13.0369 8.8022,-1.2565 19.7305,-16.0416 18.2624,-24.7075 -1.0211,-6.0273 10.2637,-14.5606 14.1354,-10.6889 3.2517,3.2517 19.0227,-12.8839 19.0227,-19.4625 0,-7.1269 8.6061,-14.6933 13.3661,-11.7515 5.4437,3.3644 23.394,-8.7925 24.5107,-16.6 0.7134,-4.9875 3.8767,-7.245 11.1373,-7.9478 14.5595,-1.4095 28.7323,-7.5929 28.7323,-12.5357 0,-7.3471 9.5276,-13.1716 14.6253,-8.9408 6.2188,5.1611 24.9659,-2.1912 27.1805,-10.6598 1.4851,-5.6794 3.7118,-6.1732 18.6005,-4.1255 14.6364,2.013 17.726,1.3773 22.9485,-4.7222 6.4915,-7.5815 20.0477,-9.5171 22.1651,-3.1649 1.486,4.458 26.3111,1.0212 26.3111,-3.6424 0,-5.1685 13.206,-6.384 17.1911,-1.5823 4.4949,5.416 25.3175,6.3979 28.4427,1.3412 3.2933,-5.3286 14.5598,-3.9443 18.0052,2.2123 4.8093,8.5939 11.7783,3.4681 18.6924,-13.7488 l 6.2751,-15.6253 -15.0366,-17.6867 c -22.8418,-26.8677 -39.6624,-53.9184 -48.1975,-77.5111 l -7.7066,-21.3024 -35.4481,-0.9551 -35.448,-0.9551 -49.8884,55.0396 c -72.181,79.634 -69.4811,77.3173 -87.2663,74.8795 -12.7013,-1.7409 -15.8867,-0.8882 -22.2862,5.9659 -13.26,14.2016 -52.2159,9.8371 -170.99071,-19.1575 -78.2886,-19.1114 -81.9631,-20.5101 -88.7785,-33.7946 l -5.9936,-11.6827 -20.9104,13.6629 c -22.4005,14.6365 -36.1528,29.9094 -48.022,53.3315 -4.0815,8.0543 -12.058,17.1811 -17.7255,20.2817 -5.6675,3.1006 -24.9671,16.2217 -42.888,29.158 -97.1931,70.1595 -102.5531,71.541 -60.7198,15.6498 59.2619,-79.1765 130.318,-165.7356 184.2295,-224.4244 22.0085,-23.9588 24.0948,-27.4441 22.4596,-37.5206 -2.5896,-15.9574 4.4524,-27.0882 36.76,-58.1048 39.9027,-38.3083 74.8362,-61.1684 128.63091,-84.1749 16.2676,-6.9571 29.5775,-13.5588 29.5775,-14.6704 0,-1.1116 -2.3577,-8.1947 -5.2394,-15.7402 -4.0818,-10.6881 -9.0899,-15.8837 -22.6677,-23.5161 -61.66451,-34.6633 -137.98641,-94.8602 -169.85611,-133.9694 -11.1458,-13.6776 -25.3739,-30.1765 -31.6181,-36.6642 -6.2443,-6.4877 -21.3996,-24.7884 -33.6787,-40.6681 -77.332,-100.009 -94.1546,-117.8375 -116.1161,-123.0598 -4.9694,-1.1817 -13.3958,-5.8176 -18.7253,-10.3021 -7.4428,-6.2627 -19.066,-9.8038 -50.1197,-15.2694 -88.5944,-15.593 -125.6257,-33.471 -187.4719,-90.508 -12.0845,-11.1448 -29.2641,-23.4789 -38.1769,-27.409 -27.1521,-11.973 -35.945,-19.8872 -38.2734,-34.4485 -2.671,-16.7032 -12.6655,-25.67914 -31.1849,-28.00644 -11.8205,-1.4855 -17.5665,-4.8597 -29.5206,-17.3357 -8.1637,-8.5201 -16.2929,-15.4911 -18.0648,-15.4911 -1.7719,0 -12.8256,-8.3851 -24.5639,-18.6336 -13.6342,-11.9037 -39.0445,-27.8077 -70.3563,-44.0351 -39.6018,-20.5237 -60.698396,-34.5288 -109.859196,-72.9314 -56.3089,-43.9863 -61.5034,-48.9681 -69.6758,-66.8223 -10.0333,-21.9199 -22.4525,-33.6489 -50.7591,-47.9381 -22.505104,-11.3605 -31.750804,-22.7178 -28.626704,-35.165 1.7027,-6.7841 -0.9779,-11.8072 -13.9936,-26.2218 -24.0612,-26.6475 -39.021,-61.8432 -40.8151,-96.02544 -1.3621,-25.95022 -0.8156,-28.6919 9.6216,-48.27407 6.0861,-11.41873 22.3193,-32.46179 36.0738,-46.76235 l 25.008104,-26.00106 3.1214,-24.61883 c 1.7168,-13.54036 5.6266,-29.46334 8.6885,-35.38443 3.0619,-5.92108 20.452,-25.31103 38.6446,-43.08877 34.5118995,-33.72489 43.8390995,-47.29953 43.8390995,-63.80318 0,-5.84847 4.1159,-15.02317 10.1408005,-22.6045 12.5609,-15.80579 12.5436,-20.23755 -0.1439,-37.00707 -5.5532005,-7.3398 -11.7371005,-19.50882 -13.7421005,-27.04225 -2.4073,-9.04526 -9.1660995,-19.04556 -19.9005995,-29.4451 -13.4402,-13.02071 -19.6786,-16.42518 -36.0231,-19.65863 -35.7837,-7.07916 -41.2004,-9.79346 -50.204104,-25.15713 -11.2492,-19.195297 -10.7117,-26.970887 2.549,-36.874087 19.068204,-14.24025 34.637604,-17.49284 83.662004,-17.47775 43.1144,0.0133 46.7535,0.54444 65.9155,9.62074 13.7535,6.51454 31.3869,11.09907 54.7832,14.24321 27.635896,3.71387 41.761796,7.85334 70.985896,20.80179 32.7603,14.515237 37.1347,17.496917 42.855,29.211247 9.2614,18.96574 3.6301,39.48315 -23.3692,85.14517 -23.3618,39.5103 -43.6999,87.70466 -55.5639,131.66803 -20.5167,76.02633 -31.9358,102.38492 -57.840596,133.51268 -16.393,19.69819 -17.2114,21.5928 -15.1798,35.14037 1.7713,11.81192 0.9392,15.413 -4.7516,20.56303 -3.7943,3.43386 -9.0212,10.49787 -11.6153,15.69776 -4.5602,9.14112 -4.324,9.68589 7.1298,16.44378 9.733,5.74259 11.4857,8.42579 9.8254,15.04111 -1.7402,6.93343 1.2033,10.44173 21.1933,25.26093 12.7677,9.4652 30.634896,20.4917 39.704896,24.5033 9.0699,4.0117 25.5196,14.5991 36.5547,23.5275 21.3359,17.2626 51.6402,34.5065 66.9783,38.1122 l 9.2958,2.1853 0.1842,-33.0221 c 0.2299,-41.1694 12.2073,-114.9279 23.476,-144.56689 1.8601,-4.89248 3.382,-13.40863 3.382,-18.92478 0,-5.51614 2.2887,-15.5069 5.086,-22.20169 2.7972,-6.69478 11.1386,-45.13511 18.5364,-85.42297 l 13.4505,-73.25065 -4.9563,-30.2431 c -6.0435,-36.87712 -6.3348,-60.94944 -1.2455,-102.91917 3.2618,-26.89948 2.9965,-38.10997 -1.6343,-69.05532 -5.139,-34.341427 -5.1338,-37.378467 0.073,-43.132267 11.6699,-12.8951 64.799,-22.77974 88.3514,-16.43773 23.8553,6.42358 25.5504,11.81827 26.4823,84.283007 1.0799,83.96364 4.4063,139.75312 8.6372,144.85914 1.9044,2.29834 2.7208,9.90397 1.8143,16.90141 -0.9065,6.99744 0.4976,23.46331 3.1202,36.59083 6.5846,32.95925 10.2146,121.2989 6.6587,162.04729 -2.9991,34.36806 -3.2518,168.21169 -0.335,177.46479 0.8791,2.7887 15.5861,12.6761 32.6822,21.9718 17.0961,9.2958 35.8795,21.6659 41.7409,27.4892 14.7401,14.6443 45.4815,61.2828 45.4815,69.0011 0,4.7226 4.4814,7.6773 17.5149,11.5478 24.4847,7.2712 29.235,6.7326 57.3455,-6.5011 24.1348,-11.3621 112.6593,-39.0018 124.9152,-39.0018 4.16,0 10.4087,-8.3218 19.793,-26.3595 7.5425,-14.4978 20.6177,-33.1316 29.0559,-41.4084 l 15.3422,-15.049 29.4251,0.024 c 23.3268,0.017 35.3797,2.0174 58.1574,9.65 40.7111,13.6418 85.8278,35.9299 112.15021,55.4031 29.3029,21.6782 52.9063,31.6138 78.504,33.0455 21.0565,1.1777 46.7576,5.622 56.4386,9.7594 9.2283,3.9439 65.2522,-16.2074 81.3762,-29.2704 22.0601,-17.872 34.0774,-23.0869 45.592,-19.7846 14.2,4.0726 37.223,16.1332 59.2823,31.0554 17.6438,11.9352 23.4947,13.7445 69.7732,21.5766 27.7829,4.7019 87.5298,16.0639 132.7708,25.2488 45.241,9.1849 82.4702,16.4089 82.7314,16.0534 0.2613,-0.3556 9.9772,-19.38 21.5911,-42.2765 26.0587,-51.374 50.974,-85.2952 89.0551,-121.2452 36.5941,-34.5461 79.9457,-63.7289 132.3991,-89.12642 69.3175,-33.56292 151.3193,-57.27803 157.2023,-45.46317 0.9257,1.85916 -18.0884,13.7878 -42.2535,26.5081 -133.5288,70.28819 -212.0944,143.83709 -260.5516,243.91449 -16.2876,33.6384 -38.1318,97.9294 -34.5055,101.5556 0.8018,0.8018 46.1495,9.9722 100.7726,20.3787 89.2967,17.0123 99.71,18.3805 103.2321,13.5637 2.1546,-2.9464 5.5755,-5.3572 7.6021,-5.3572 2.0266,0 5.1143,-2.5545 6.8615,-5.6767 2.9704,-5.3077 5.0136,-5.2918 31.4356,0.2441 40.1979,8.4223 40.9746,8.3986 43.5441,-1.328 1.228,-4.6479 0.8274,-10.2791 -0.8902,-12.5138 -4.3447,-5.6532 -0.068,-17.1726 7.2366,-19.4909 7.953,-2.5242 14.4068,-17.0387 11.9423,-26.858 -2.0512,-8.173 6.7222,-20.4924 12.1883,-17.1142 4.097,2.5321 14.8813,-18.7737 13.8752,-27.4124 -0.9023,-7.7475 7.4554,-16.681 12.6197,-13.4892 4.6075,2.8475 17.3202,-14.3608 17.3202,-23.4451 0,-8.8249 8.1321,-16.8099 13.6478,-13.401 4.4943,2.7777 24.1449,-14.9487 21.434,-19.3351 -3.1737,-5.1351 5.8639,-12.8501 15.1912,-12.9683 10.3309,-0.1308 24.0932,-10.4451 24.0932,-18.0569 0,-6.193 12.1123,-13.5228 17.1753,-10.3937 6.0108,3.7149 23.7975,-5.8765 27.1243,-14.6265 2.6617,-7.001 4.7485,-8.0149 13.0702,-6.3505 13.2618,2.6524 29.4228,-3.3735 31.6242,-11.7914 1.6068,-6.1446 3.5737,-6.5982 19.815,-4.5689 16.3926,2.0481 18.9038,1.444 27.6349,-6.6477 9.1461,-8.4763 10.0003,-8.6406 17.9246,-3.4484 9.3321,6.1146 25.1286,4.2937 31.7273,-3.6574 5.2704,-6.3504 16.4079,-6.2222 18.879,0.2173 2.2263,5.8016 26.565,7.1749 29.9548,1.6902 3.0885,-4.9974 17.5906,-4.1038 19.6295,1.2095 2.2596,5.8883 22.8107,10.0967 27.3141,5.5933 5.3523,-5.3523 14.7759,-4.0276 19.6253,2.7588 6.1472,8.6027 23.2074,14.0955 30.1547,9.7089 7.1681,-4.526 16.7153,-0.6465 18.8919,7.6769 1.9807,7.5742 11.0219,11.3586 27.9374,11.6936 8.7458,0.1734 12.7168,2.223 15.6404,8.0733 5.1809,10.3675 17.3041,18.6056 23.7435,16.1345 7.2711,-2.7902 18.1899,3.8411 18.1899,11.0471 0,7.5857 15.1693,22.2215 19.9617,19.2597 6.0186,-3.7197 17.2214,4.6413 17.2214,12.853 0,8.6786 12.8366,22.4421 20.9308,22.4421 7.2966,0 14.0536,8.9466 11.5954,15.3528 -2.511,6.5433 10.7585,25.2513 16.3805,23.094 6.1782,-2.3709 12.9942,7.8552 10.8079,16.2153 -2.1318,8.1521 7.0549,26.4647 13.2764,26.4647 7.3589,0 13.1142,10.1859 9.2507,16.3723 -4.7864,7.6642 0.2887,20.6153 11.6364,29.6946 7.8491,6.2801 8.5136,8.2415 5.232,15.4436 -4.8465,10.637 -1.7492,26.8426 6.2085,32.4839 6.7111,4.7576 8.3532,15.8441 2.8505,19.245 -5.4261,3.3535 -4.078,25.29664 1.6901,27.51004 5.5258,2.1204 6.862,14.8348 2.1001,19.983 -1.6336,1.7662 -3.9511,8.739 -5.15,15.4951 -1.6537,9.3196 -0.9369,12.7608 2.9703,14.2601 7.3542,2.8221 6.3593,13.1717 -1.9503,20.2865 -7.1071,6.0854 -7.7516,19.1139 -1.6375,33.103 1.6629,3.8046 -0.582,8.3639 -7.0905,14.4004 -8.3092,7.7067 -9.4309,11.0286 -8.7958,26.0475 0.5987,14.1588 -0.3624,17.4994 -5.415,18.8207 -7.8421,2.0507 -17.6439,22.0715 -13.8284,28.2451 3.5223,5.6993 -2.0347,16.7782 -8.4156,16.7782 -6.0524,0 -19.8068,19.141 -17.0082,23.6692 4.1011,6.6358 -1.9615,16.8942 -9.9843,16.8942 -8.3216,0 -20.9686,15.1253 -19.2881,23.0677 1.431,6.7632 -6.1216,14.1154 -14.5004,14.1154 -8.4802,0 -23.919,14.6801 -20.7801,19.7589 3.1735,5.1348 -8.3204,14.782 -15.4044,12.9295 -7.4121,-1.9383 -18.3435,6.186 -24.2409,18.0158 -2.777,5.5706 -7.1237,8.5092 -12.7539,8.6223 -11.9858,0.2407 -30.0946,8.2713 -30.0946,13.3458 0,7.7495 -10.0601,13.5114 -16.5328,9.4691 -6.6307,-4.1409 -27.4109,2.7089 -27.4109,9.0355 0,6.4067 -16.0452,11.7699 -21.5484,7.2027 -6.2935,-5.2232 -22.69,-1.2219 -28.5024,6.9555 -4.7607,6.6977 -15.8479,8.3304 -19.2449,2.8339 -3.3898,-5.4847 -27.7286,-4.1114 -29.9549,1.6902 -2.0399,5.3161 -19.0592,7.2202 -19.0592,2.1324 0,-5.6612 -24.7067,-7.3053 -30.5337,-2.0319 -7.3381,6.6409 -11.1875,6.2679 -18.4804,-1.7907 -6.6335,-7.3299 -21.8261,-8.8855 -32.2574,-3.3028 -5.0465,2.7008 -7.9874,1.9312 -13.434,-3.5153 -9.8671,-9.8672 -21.1974,-13.4291 -35.3905,-11.1259 -10.3235,1.6753 -12.5394,0.9256 -14.022,-4.7439 -2.2187,-8.4843 -22.6072,-18.8123 -27.4927,-13.9267 -4.412,4.4102 -17.6851,-2.2755 -17.6851,-8.9096 0,-6.0525 -19.141,-19.8068 -23.6691,-17.0083 -6.17,3.8133 -16.8943,-1.9262 -16.8943,-9.0415 0,-8.7823 -15.3696,-20.9972 -26.6963,-21.2168 -6.4962,-0.1261 -9.1392,-2.3085 -10.4379,-8.6193 -2.6516,-12.8855 -13.3716,-26.9062 -18.9386,-24.77 -6.9225,2.6564 -15.4083,-5.4953 -14.3788,-13.8126 1.199,-9.6861 -9.6113,-25.0153 -18.5375,-26.2864 -5.577,-0.7942 -7.4366,-3.4916 -7.7125,-11.1874 -0.5019,-13.9988 -7.1148,-26.6988 -15.9134,-30.561 -5.4375,-2.3869 -7.2536,-5.9161 -6.8867,-13.3826 0.7675,-15.6193 -5.0994,-31.2015 -12.4738,-33.1299 -6.9773,-1.8246 -8.9055,-12.2426 -3.303,-17.8452 4.5148,-4.5148 -1.9403,-27.2115 -8.4495,-29.7093 -5.8511,-2.2453 -6.7028,-14.205 -1.2516,-17.574 5.0278,-3.1074 1.4799,-23.7524 -5.236,-30.4683 -6.6453,-6.6454 -6.7161,-12.9135 -0.2069,-18.3156 6.1672,-5.1183 6.5941,-12.4185 0.8451,-14.4534 -2.324,-0.8225 -13.3521,-0.7138 -24.5071,0.2417 -14.4752,1.2399 -21.5462,3.5229 -24.6987,7.9745 -4.641,6.5534 -17.5548,8.6551 -17.5548,2.8569 0,-1.8592 -2.856,-3.3803 -6.3467,-3.3803 -7.3234,0 -12.677,-5.591 -14.4367,-15.0768 -0.7718,-4.1604 -4.9955,-7.4371 -11.3497,-8.8051 -89.6601,-19.30394 -184.5936,-37.70124 -186.2091,-36.08574 -3.2368,3.2368 4.9519,57.85514 12.1848,81.27264 3.8216,12.3727 18.001,39.2927 34.2265,64.9799 42.5122,67.3026 44.8041,73.3645 46.2966,122.4475 0.763,25.0963 -0.02,41.4085 -1.9884,41.4085 -1.7861,0 -8.7429,-8.9035 -15.4597,-19.7855 -16.4301,-26.6188 -19.0675,-28.5053 -29.1838,-20.8746 l -8.2034,6.1879 19.9049,24.3298 c 17.4278,21.3019 29.0267,30.4241 38.6845,30.4241 1.5126,0 4.6644,-4.6215 7.0041,-10.2701 4.968,-11.9937 12.494,-16.7722 26.4164,-16.7722 11.9947,0 30.9949,19.476 30.9949,31.7711 0,6.2939 3.2218,9.0833 16.0563,13.9011 49.5136,18.5866 86.4919,45.7469 97.5966,71.6841 10.5386,24.6151 3.7965,52.95 -16.929,71.1472 -10.088,8.8575 -15.3383,10.9332 -27.6543,10.9332 -8.3612,0 -20.6631,-2.2817 -27.3375,-5.0705 -6.6744,-2.7887 -12.5826,-5.0704 -13.1294,-5.0704 -0.5468,0 -0.1619,20.1549 0.8551,44.7887 2.1181,51.2972 0.3431,60.7025 -24.4714,129.6677 -18.9657,52.7097 -51.2249,120.0105 -65.8948,137.4727 -16.4351,19.5634 -32.1803,26.0859 -63.1823,26.1733 -30.2573,0.085 -45.406,5.7068 -67.7403,25.1373 -15.5397,13.5193 -18.3756,24.9779 -9.1883,37.1247 7.9075,10.4546 5.9345,18.5884 -9.4032,38.7651 -12.4661,16.3991 -14.3662,21.1341 -14.3662,35.8001 0,16.8391 -0.062,16.933 -16.6633,25.4557 -16.0422,8.2355 -16.9533,9.4954 -24.443,33.8029 -4.2789,13.8866 -7.8085,25.5229 -7.8438,25.8584 -0.035,0.3357 3.3585,1.0961 7.5416,1.6902 5.1714,0.7344 7.971,3.7848 8.747,9.5308 1.3792,10.2112 13.8509,24.4694 19.5056,22.2995 5.285,-2.0281 16.1792,9.9918 13.2912,14.6647 -2.9242,4.7314 5.8303,16.9433 15.6855,21.8804 4.8114,2.4104 7.9721,7.1476 8.1801,12.2601 0.4562,11.213 8.2234,26.9235 13.3109,26.9235 7.5125,0 13.3645,10.1319 9.4374,16.3397 -4.2749,6.7577 0.6776,20.1881 9.9799,27.0636 4.9636,3.6688 5.7134,7.3009 3.9436,19.1029 -1.8129,12.0893 -0.9763,15.7818 4.909,21.6671 7.6021,7.6021 9.3602,18.8161 3.5161,22.4279 -4.4954,2.7783 -0.6816,21.4529 5.6805,27.815 5.9636,5.9636 5.8733,9.0998 -0.4121,14.3162 -5.6857,4.7187 -6.9086,25.5073 -1.6902,28.7324 4.9024,3.0299 4.1453,14.4207 -1.1684,17.5785 -5.6843,3.3781 -9.8991,23.7033 -5.4814,26.4336 5.8317,3.6042 3.4626,14.1899 -4.3361,19.3743 -6.4179,4.2665 -7.5236,7.8246 -7.0805,22.7843 0.4317,14.5754 -0.571,18.0148 -5.6387,19.3401 -7.3696,1.9272 -14.036,16.533 -12.7279,27.8864 0.667,5.7888 -1.4434,9.3779 -7.2667,12.3581 -9.874,5.0532 -17.4747,17.7796 -15.1924,25.4378 1.8166,6.0955 -6.6705,16.4126 -13.5015,16.4126 -6.2266,0 -14.6919,10.5278 -16.0306,19.9364 -0.6343,4.458 -3.4349,9.156 -6.2237,10.4399 -22.7554,10.4766 -25.4215,12.6564 -27.0792,22.141 -1.3743,7.8628 -3.5584,10.0653 -10.1527,10.2381 -12.1393,0.3181 -22.603,6.9226 -27.8108,17.5534 -2.9432,6.0081 -6.8682,9.0055 -11.1574,8.5205 -10.4271,-1.1788 -23.3811,5.3114 -26.9829,13.5192 -2.7198,6.1979 -6.0604,7.5269 -19.1127,7.6037 -12.8636,0.076 -17.4331,1.8371 -24.4729,9.433 -7.3586,7.9401 -9.7214,8.7697 -15.7655,5.535 -8.8428,-4.7325 -21.439,-1.7921 -30.3054,7.0742 -5.7362,5.7362 -7.8846,6.1305 -14.2802,2.6206 -9.1411,-5.0166 -22.536,-3.8471 -29.7661,2.599 -6.8437,6.1015 -11.3828,6.0162 -16.6353,-0.3127 z m -27.6807,-138.7251 c -2.0474,-24.0956 -4.7242,-44.9565 -5.9485,-46.3575 -1.2244,-1.401 -12.3615,15.306 -24.7492,37.1267 -12.3877,21.8208 -21.2441,40.9531 -19.6808,42.5163 2.3801,2.3802 51.2721,12.4498 53.404,10.9989 0.3833,-0.261 -0.9781,-20.1889 -3.0255,-44.2844 z m 67.3032,41.0744 c 0.7962,-0.7962 -5.8367,-21.2901 -14.7399,-45.5418 -8.9032,-24.2517 -16.7629,-43.5188 -17.466,-42.8157 -1.0815,1.0815 -24.011,88.777 -24.2397,92.7064 -0.1021,1.7562 54.5513,-2.4546 56.4456,-4.3489 z m 31.6713,-6.7225 c 8.1968,-2.5601 19.1037,-6.3318 24.2373,-8.3815 l 9.334,-3.7268 -25.9366,-36.4071 c -14.2651,-20.024 -27.2119,-37.8523 -28.7706,-39.6185 -1.5586,-1.7662 -2.8339,18.3888 -2.8339,44.7888 0,53.3199 -1.1734,51.1981 23.9698,43.3451 z m -157.8528,-14.7818 c 1.0259,-5.1126 4.2375,-22.9859 7.1368,-39.7183 2.8993,-16.7324 6.0743,-34.2253 7.0556,-38.8732 1.3518,-6.4026 -6.8815,0.1514 -33.9717,27.0422 -40.1699,39.8745 -39.8021,37.0644 -6.9011,52.731 21.5598,10.2663 24.4083,10.1402 26.6804,-1.1817 z m 79.6948,-37.6177 c 5.8032,-22.9866 10.102,-42.1581 9.5528,-42.6035 -0.5491,-0.4454 -7.6778,-1.8343 -15.8414,-3.0865 l -14.843,-2.2767 2.2399,26.3133 c 3.5026,41.1467 6.2837,65.5039 7.3568,64.4308 0.541,-0.541 5.7317,-19.7908 11.5349,-42.7774 z m 48.7268,-4.7325 -2.2982,-45.795 -12.1766,1.8368 c -6.6971,1.0102 -13.3381,2.8764 -14.7579,4.1469 -1.4197,1.2706 4.6174,21.5283 13.4159,45.0172 8.7984,23.4889 16.4737,42.2305 17.0561,41.6481 0.5825,-0.5825 0.024,-21.6668 -1.2393,-46.854 z m 107.1263,18.0173 10.2247,-8.6248 -35.9285,-29.8755 c -19.7607,-16.4315 -36.384,-29.3611 -36.9407,-28.7324 -0.8377,0.9462 18.4791,71.8513 23.626,86.7222 1.7715,5.1185 21.5686,-4.77 39.0185,-19.4895 z m -204.62,-21.3009 c 10.6966,-19.0563 20.0753,-35.7915 20.8417,-37.1894 1.3156,-2.3995 -4.9209,-5.4912 -21.4589,-10.6381 -6.7904,-2.1133 -7.5783,-0.3262 -12.8412,29.1261 -9.2351,51.6818 -9.4757,53.3493 -7.6996,53.3493 0.9403,0 10.4614,-15.5915 21.158,-34.6479 z m 148.1834,1.6902 c -4.5192,-16.2676 -9.8799,-36.0423 -11.9126,-43.9437 -2.0327,-7.9014 -5.1119,-14.3662 -6.8426,-14.3662 -2.7932,0 -22.8654,9.3169 -25.9981,12.0675 -1.0725,0.9418 50.5663,75.8198 52.2884,75.8198 0.375,0 -3.0158,-13.3098 -7.5351,-29.5774 z m -232.9912,10.1408 c 19.7429,-40.5917 35.2667,-75.3937 33.0895,-74.1819 -1.3803,0.7683 -21.4647,12.507 -44.632,26.0859 l -42.1222,24.689 19.8526,18.0415 c 10.9189,9.9229 21.6062,18.0416 23.7496,18.0416 2.1434,0 6.6716,-5.7042 10.0625,-12.6761 z m 69.4111,-63.3098 c -0.024,-1.8979 -5.4224,-6.9368 -11.9988,-11.1975 l -11.9569,-7.7467 -18.4238,39.0592 c -10.133,21.4826 -18.4237,40.1482 -18.4237,41.4791 0,1.3309 13.6902,-11.2069 30.4226,-27.8617 16.7324,-16.6549 30.4037,-31.8345 30.3806,-33.7324 z m 256.453,40.6953 c 9.5654,-10.1141 17.3917,-19.7444 17.3917,-21.4007 0,-3.0321 -81.666,-41.9244 -83.72,-39.8705 -1.5472,1.5472 44.3926,79.5354 46.8916,79.6042 1.1247,0.03 9.8712,-8.219 19.4367,-18.333 z m -51.64,-21.7388 c -10.0009,-16.4929 -20.2719,-33.9731 -22.8246,-38.845 l -4.6411,-8.8581 -12.5964,8.9625 c -6.928,4.9293 -12.5087,9.8603 -12.4017,10.9577 0.2018,2.0698 67.0725,57.77 69.3554,57.77 0.7105,0 -6.8908,-13.4942 -16.8916,-29.9871 z m -292.9553,-28.3227 c 15.3572,-18.1268 26.9599,-32.9578 25.7838,-32.9578 -5.7512,0 -91.8178,25.0141 -94.5665,27.4845 -1.8874,1.6963 3.4367,12.5044 13.1946,26.7855 15.5919,22.8196 16.6237,23.6536 22.0124,17.7936 3.1095,-3.3814 18.2186,-20.9791 33.5757,-39.1058 z m 29.9353,4.2558 c 13.5125,-7.917 25.3708,-15.6934 26.3519,-17.2809 1.9256,-3.1156 -11.7307,-23.313 -15.7629,-23.313 -2.7903,0 -57.1288,62.8185 -57.1288,66.0444 0,1.162 4.9436,-0.8503 10.9859,-4.4717 6.0422,-3.6213 22.0415,-13.0618 35.5539,-20.9788 z m 358.0239,-14.7753 c 4.5985,-9.0747 7.1008,-17.5912 5.5606,-18.9255 -1.5402,-1.3343 -18.7722,-5.1006 -38.2934,-8.3696 -19.5211,-3.269 -40.0563,-6.7409 -45.6338,-7.7154 -9.0635,-1.5835 -6.5497,1.8749 23.662,32.5534 l 33.8028,34.3251 6.2705,-7.6843 c 3.4487,-4.2263 10.0328,-15.109 14.6313,-24.1837 z m -65.7647,-5.6321 -31.3417,-30.268 -9.8407,10.9562 c -5.4123,6.026 -8.8015,11.9742 -7.5315,13.2182 2.5908,2.5376 75.7255,36.5354 78.3656,36.4295 0.9295,-0.037 -12.4137,-13.6885 -29.6517,-30.3359 z m -354.713,-24.0169 c 18.978,-13.3183 35.9506,-25.5105 37.7168,-27.0937 1.7839,-1.5992 -19.8141,-2.8787 -48.5916,-2.8787 h -51.8028 l 2.1339,10.9859 c 4.129,21.2571 16.2781,46.9468 21.292,45.0228 2.6104,-1.0017 20.2736,-12.718 39.2517,-26.0363 z m 25.7582,9.9973 c 21.5434,-5.904 40.3456,-11.7192 41.7826,-12.9227 3.3881,-2.8373 -6.6905,-27.047 -11.2598,-27.047 -1.9173,0 -19.6699,11.4085 -39.4503,25.3521 -19.7803,13.9437 -34.6768,25.3521 -33.1033,25.3521 1.5735,0 20.4874,-4.8305 42.0308,-10.7345 z m 414.5113,-38.3128 c 2.8997,-12.5034 4.5852,-23.4204 3.7455,-24.26 -0.8396,-0.8397 -23.0183,0.3563 -49.286,2.6576 -26.2676,2.3014 -46.5708,5.3492 -45.1182,6.7729 1.4527,1.4237 20.1341,12.3867 41.5144,24.3622 28.5052,15.9663 39.5399,20.6303 41.3727,17.4871 1.3747,-2.3576 4.8719,-14.5165 7.7716,-27.0198 z m -60.1297,10.1215 c -18.1265,-10.1964 -34.4396,-18.5389 -36.2512,-18.5389 -3.7305,0 -14.9445,20.0723 -12.5512,22.4657 1.5295,1.5294 66.7755,13.6981 76.6892,14.3029 2.7888,0.17 -9.7603,-8.0332 -27.8868,-18.2297 z m -392.0506,-34.3485 c 27.048,-9.6274 43.0955,-16.947 40.4277,-18.4399 -5.7067,-3.1937 -84.9142,-23.2153 -91.8418,-23.2153 -9.2341,0 -6.5112,57.3554 2.7317,57.5422 2.1071,0.043 24.0142,-7.1066 48.6824,-15.887 z m 68.3881,2.1824 c 0,-8.961 -1.7265,-14.2898 -5.0422,-15.5622 -2.7732,-1.0642 -23.6887,5.0048 -46.4789,13.4865 l -41.4366,15.4214 46.4789,0.1407 46.4788,0.1408 z m 344.7888,-6.0729 25.3521,-2.4471 -28.7324,-7.4747 c -15.8028,-4.1111 -31.9537,-8.3796 -35.891,-9.4855 -5.5737,-1.5656 -7.5354,-0.2657 -8.861,5.8723 -0.9364,4.3356 -2.7539,10.3688 -4.0389,13.407 -2.0023,4.7346 -0.2528,5.3134 12.2414,4.0496 8.0177,-0.8111 25.9861,-2.5758 39.9298,-3.9216 z m 43.9436,-32.6943 c 0,-22.1831 -1.0638,-28.7324 -4.6672,-28.7324 -5.2727,0 -66.7419,21.8415 -77.1586,27.4164 -3.7403,2.0017 -5.4862,4.9127 -3.8892,6.4843 2.3028,2.266 72.9262,22.0117 83.1798,23.2563 1.3944,0.1694 2.5352,-12.6218 2.5352,-28.4246 z m -387.4222,2.2435 c 2.4787,-8.6937 2.1161,-12.0258 -1.5826,-14.5435 -4.5591,-3.1033 -38.4811,-1.8977 -80.7569,2.8701 l -18.4942,2.0857 40.466,10.9945 c 50.2892,13.6635 56.1095,13.5279 60.3677,-1.4068 z m 363.3912,-32.8604 c 0.8227,-0.8227 -10.764,-1.4958 -25.7481,-1.4958 -28.5454,0 -31.3476,1.528 -31.3476,17.0928 0,5.9664 1.8797,5.7061 27.8,-3.851 15.29,-5.6376 28.4731,-10.9233 29.2957,-11.746 z m -441.2893,15.2134 c 64.6695,-5.622 63.8849,-3.5516 12.1634,-32.0962 -24.989,-13.7912 -46.3949,-25.0977 -47.5686,-25.1256 -2.5267,-0.06 -8.2553,22.1859 -11.5203,44.738 -1.6745,11.5658 -1.1842,16.0563 1.753,16.0563 2.2426,0 22.5702,-1.6076 45.1725,-3.5725 z m 86.4549,-17.3767 c 2.9033,-8.3282 2.7853,-11.7261 -0.5143,-14.8079 -4.2794,-3.9969 -86.5966,-19.9567 -89.2495,-17.3038 -2.5289,2.5289 71.2615,42.6232 78.7211,42.7735 5.2061,0.1048 8.3464,-2.9271 11.0427,-10.6618 z m 375.4852,-9.1173 c 0,-10.5793 -13.5428,-51.0603 -17.0821,-51.0603 -7.2438,0 -53.9039,35.4723 -53.9039,40.9793 0,3.1855 -0.9233,8.1978 -2.0518,11.1386 -1.795,4.6779 2.6459,5.3469 35.493,5.3469 34.5955,0 37.5448,-0.5031 37.5448,-6.4045 z m -360.3337,-23.3728 c 2.7139,-5.2481 3.7223,-11.4181 2.2543,-13.7934 -2.4081,-3.8963 -78.9081,-41.0294 -84.195,-40.8682 -5.037,0.1534 65.8344,63.8583 71.2016,64.0016 3.2058,0.086 8.0384,-4.1174 10.7391,-9.34 z m -67.549,-31.3381 c -22.5473,-22.0106 -39.9412,-36.4805 -42.1852,-35.0936 -5.782,3.5734 -27.1501,49.9387 -24.2745,52.6715 2.031,1.9301 86.8163,18.3419 100.993,19.5491 2.1085,0.1795 -13.4314,-16.5276 -34.5333,-37.127 z m 375.4883,18.3857 c 9.9177,-8.4928 9.9549,-8.6399 1.6901,-6.6852 -4.6479,1.0993 -10.3521,2.0195 -12.676,2.0448 -2.324,0.025 -4.2254,3.0884 -4.2254,6.8067 0,8.798 2.8875,8.3868 15.2113,-2.1663 z m -286.9863,-19.9926 7.6797,-9.9584 -32.4943,-27.0399 c -17.8719,-14.872 -33.802,-27.5655 -35.4001,-28.208 -2.4151,-0.9708 21.2455,40.214 40.1165,69.8286 5.9975,9.4121 9.982,8.4957 20.0982,-4.6223 z m 318.2431,-1.503 c 0.4707,0 0.8559,-1.5584 0.8559,-3.4632 0,-4.9645 -27.1263,-47.2411 -30.3117,-47.2411 -8.2371,0 -19.9453,33.6263 -17.8328,51.2161 l 1.4823,12.3428 22.4753,-6.4273 c 12.3614,-3.535 22.8603,-6.4273 23.331,-6.4273 z m -371.0376,-36.8244 c -13.3891,-22.3916 -26.6699,-42.6425 -29.5129,-45.002 -4.3854,-3.6396 -7.9238,-1.2211 -23.3376,15.9513 -9.9926,11.1327 -17.7667,22.3507 -17.2756,24.9289 0.7959,4.1785 90.4676,48.1934 93.3151,45.8032 0.6352,-0.5331 -9.7999,-19.2898 -23.189,-41.6814 z m 82.9919,-2.5458 c -1.3029,-3.8175 -33.7848,-50.714 -39.2127,-56.6145 -1.5315,-1.6647 0.9587,10.5043 5.5337,27.0423 4.5751,16.538 9.9261,35.9643 11.8912,43.1696 l 3.5729,13.1005 9.7691,-11.4103 c 5.373,-6.2757 9.1736,-13.1552 8.4458,-15.2876 z m -32.4587,-3.7284 c -19.9661,-70.3773 -22.2371,-76.9049 -27.0792,-77.8374 -6.8916,-1.3272 -47.0535,24.9565 -47.0535,30.7938 0,3.6745 75.3546,69.8605 79.538,69.8605 0.5873,0 -1.8451,-10.2676 -5.4053,-22.8169 z m 44.1772,-42.8756 c 0,-21.0382 -0.9731,-43.1163 -2.1623,-49.0625 -1.9195,-9.5973 -3.1531,-10.5806 -10.9859,-8.7567 -23.8413,5.5516 -45.1355,13.5433 -46.6579,17.5107 -2.1314,5.5542 52.4986,83.076 56.71,80.4732 1.7028,-1.0524 3.0961,-19.1265 3.0961,-40.1647 z m 12.8414,-12.4914 c -3.6858,-10.9143 -7.3225,-19.8443 -8.0813,-19.8443 -0.7589,0 -1.3252,13.3099 -1.2583,29.5775 l 0.1217,29.5774 7.9598,-9.7331 7.9598,-9.7331 -6.7016,-19.8444 z m 29.0609,-20.6728 c 8.3917,-15.3289 14.1673,-28.961 12.8349,-30.2934 -3.8303,-3.8303 -51.3548,1.179 -51.3732,5.415 -0.031,6.9684 17.8066,52.7492 20.552,52.7492 1.5008,0 9.5947,-12.5419 17.9863,-27.8708 z m -177.8343,-575.9699 c 18.4805,-11.7838 55.1818,-72.541 73.9877,-122.4832 15.55,-41.2958 28.3874,-93.6962 33.3751,-136.2323 5.6171,-47.9034 9.4207,-60.9306 26.9336,-92.2468 18.3036,-32.7298 20.0181,-41.3304 10.0758,-50.5445 -11.5503,-10.7045 -15.6833,-23.2456 -11.5593,-35.0757 2.8175,-8.0824 1.6745,-13.2909 -6.8897,-31.3941 -14.4965,-30.64324 -14.1962,-52.55904 1.123,-81.94924 l 11.3959,-21.8633 -19.0016,-3.8467 c -10.4508,-2.1157 -21.9542,-6.078 -25.5631,-8.805 -7.9444,-6.0031 -19.6089,-6.3221 -34.4843,-0.9431 -9.5924,3.4687 -12.045,3.163 -18.0222,-2.2463 -5.9107,-5.349 -8.6817,-5.7203 -19.0186,-2.5478 -14.1059,4.3292 -18.0844,3.1662 -38.533,-11.2641 -29.5819,-20.8757 -31.9976,-19.0255 -7.6056,5.8255 21.6878,22.096 24.507,26.4366 24.507,37.7327 0,15.1848 -6.0427,27.7859 -19.1348,39.903 -20.3764,18.8588 -37.259,20.9172 -77.9384,9.5025 -33.9713,-9.5324 -43.7945,-8.0983 -52.88111,7.7201 -5.1986,9.05 -6.2795,13.9852 -3.8485,17.57234 1.8591,2.7434 7.9436,11.4011 13.52111,19.2394 8.8559,12.4456 10.1409,17.1394 10.1409,37.0436 0,20.4287 -1.085,24.1391 -10.4622,35.782 -22.82441,28.3386 -54.61381,35.6716 -87.56601,20.199 -9.2958,-4.3647 -33.3622,-20.3662 -53.4809,-35.5589 l -36.5795,-27.6229 -14.9698,15.8479 c -8.2334,8.7164 -14.9698,18.6253 -14.9698,22.0198 0,3.3944 3.8028,19.2945 8.4507,35.3334 4.6478,16.0388 8.4868,33.9351 8.5309,39.7694 0.2204,29.1249 52.5395,112.2997 110.2725,175.3068 11.4537,12.5 33.1028,38.6318 48.1091,58.0708 28.87761,37.4075 43.05341,50.776 82.84231,78.1247 l 24.6616,16.9509 28.4256,-1.1955 c 17.2049,-0.7236 31.4769,-3.1411 36.1556,-6.1244 z m 1162.3167,-182.9199 c -0.922,-3.2536 -2.6946,-21.2962 -3.9391,-40.0949 -1.2445,-18.7985 -3.3061,-39.2804 -4.5812,-45.5152 -2.2775,-11.1356 -2.7494,-10.5701 -26.7112,32.0108 -13.416,23.8406 -24.3927,44.5976 -24.3927,46.1266 0,3.174 37.4467,12.6408 51.7771,13.0898 7.5229,0.2356 9.1714,-0.9443 7.8471,-5.6171 z m 65.001,2.8819 c 3.7377,-2.3678 1.5494,-11.2755 -11.4054,-46.4271 -8.8168,-23.9234 -16.8832,-44.9471 -17.9253,-46.7194 -1.5461,-2.6291 -13.4268,37.8102 -25.5258,86.8843 l -2.2918,9.2957 26.2615,-0.052 c 14.4439,-0.027 28.3429,-1.3702 30.8868,-2.9817 z m 60.6596,-15.8213 c 7.9903,-3.3111 10.4123,-5.9607 8.4507,-9.2452 -7.6441,-12.7993 -56.2896,-80.05 -57.2263,-79.1134 -0.5964,0.5964 -0.1416,24.0525 1.0108,52.1246 l 2.0952,51.0402 17.2347,-5.0825 c 9.479,-2.7953 22.2748,-7.171 28.4349,-9.7237 z m -184.8785,-49.3766 8.8569,-50.7831 -38.2794,38.1708 c -36.23,36.1272 -37.9221,38.4211 -31.6057,42.8453 10.2905,7.2077 48.5812,24.0425 50.4811,22.1943 0.9296,-0.9043 5.6757,-24.4966 10.5471,-52.4273 z m 88.3723,-49.2333 c -2.0547,-5.3773 -4.3893,-5.1997 -12.5232,0.9525 -3.6089,2.7296 -9.5223,4.9629 -13.141,4.9629 -6.1938,0 -6.4438,1.733 -4.2666,29.5775 1.2719,16.2676 3.2554,37.9359 4.4078,48.1518 l 2.0952,18.5743 12.5212,-48.9968 c 6.8866,-26.9483 11.7946,-50.8983 10.9066,-53.2222 z m 42.9772,49.014 c -0.065,-42.0544 -0.8898,-49.2292 -6.4931,-56.5212 -5.5617,-7.2377 -7.6941,-7.906 -15.9812,-5.0082 -14.4635,5.0575 -13.6814,16.2509 4.5865,65.6384 8.9501,24.1967 16.6532,44.0088 17.1179,44.027 0.4648,0.017 0.8113,-21.643 0.7699,-48.136 z m 92.6591,30.8108 c 9.5014,-5.8287 20.7624,-13.3238 25.0244,-16.6557 l 7.7491,-6.058 -39.137,-32.8014 c -21.5254,-18.0408 -39.5839,-32.2219 -40.13,-31.5134 -1.4209,1.8435 25.6613,97.6262 27.6035,97.6262 0.8881,0 9.3886,-4.769 18.89,-10.5977 z m -180.4817,-70.9516 c 0.01,-1.162 -4.1726,-2.9569 -9.2853,-3.9886 -5.1127,-1.0318 -11.6554,-2.7898 -14.5395,-3.9067 -4.3432,-1.682 -6.2438,4.2275 -11.0675,34.4111 -3.2031,20.0431 -6.6658,40.2448 -7.695,44.8926 -1.0293,4.6479 8.1295,-9.0422 20.3527,-30.4225 12.2233,-21.3803 22.2289,-39.8239 22.2346,-40.9859 z m 135.9817,17.6301 c -13.8617,-50.291 -19.3816,-58.0824 -35.8377,-50.5845 -5.7944,2.6401 -8.8659,6.7098 -8.8659,11.7472 0,6.6176 53.5462,87.5202 56.1817,84.8846 0.5234,-0.5234 -4.6418,-21.2447 -11.4781,-46.0473 z m -229.3031,-3.715 c 11.7845,-25.0829 21.0512,-46.0605 20.5927,-46.617 -1.0805,-1.3114 -83.0078,46.4515 -89.0254,51.9011 -3.7568,3.402 -0.4337,7.5704 18.4581,23.1532 12.6718,10.4523 24.2791,18.591 25.7939,18.0861 1.5149,-0.505 12.3962,-21.4405 24.1807,-46.5234 z m 42.4706,-26.4077 c -4.5615,-0.5964 -10.1793,-3.5276 -12.4841,-6.5139 -2.3047,-2.9862 -4.801,-4.78 -5.5474,-3.9862 -2.2531,2.3966 -32.5256,68.1896 -32.3866,70.3879 0.071,1.1228 13.3101,-11.6487 29.4204,-28.3811 26.8549,-27.892 28.6015,-30.5127 20.9977,-31.5067 z m 292.0369,33.4478 c 10.5083,-11.0169 19.1061,-20.9925 19.1061,-22.1679 0,-1.9351 -43.6415,-23.2344 -80.4428,-39.2604 l -14.5274,-6.3262 8.64,14.3151 c 4.752,7.8734 16.5661,27.625 26.2534,43.8926 9.6874,16.2677 18.5699,29.5775 19.739,29.5775 1.1691,0 10.7233,-9.0138 21.2317,-20.0307 z m -62.5946,-33.3925 c -27.2746,-45.4182 -35.0398,-51.9995 -46.7042,-39.5834 -5.1966,5.5316 -6.7514,10.1082 -5.1491,15.1565 2.0228,6.3734 72.8872,68.569 75.3699,66.15 0.5341,-0.5202 -10.0485,-19.2957 -23.5166,-41.7231 z m -312.3762,-13.7798 c 17.9457,-21.1589 32.1093,-38.9899 31.4747,-39.6245 -1.0579,-1.0579 -100.7472,25.5919 -103.3055,27.6165 -3.6539,2.8916 31.9858,53.2324 36.4743,51.5196 1.5003,-0.5725 17.4107,-18.3528 35.3565,-39.5116 z m 64.9189,-18.5745 c 2.1308,-2.1309 3.0819,-9.3676 2.1654,-16.476 -1.3169,-10.2134 -3.0402,-12.666 -8.8702,-12.6243 -3.9797,0.027 -8.9086,1.1693 -10.9531,2.5352 -4.444,2.969 -62.1982,70.9862 -62.1982,73.251 0,2.0588 74.9001,-41.7297 79.8561,-46.6859 z m 352.8722,6.238 c 6.5412,-12.8873 9.9236,-23.2274 8.1165,-24.8124 -3.0403,-2.6666 -86.1052,-17.5726 -96.0561,-17.2372 -2.7887,0.094 11.662,15.9463 32.1127,35.2274 24.585,23.179 38.4416,34.0165 40.8976,31.9868 2.043,-1.6883 8.7612,-13.0124 14.9293,-25.1646 z m -69.3686,-11.6655 c -38.0406,-37.9932 -50.8209,-44.3288 -58.9144,-29.206 -7.5147,14.0413 0.882,21.6971 47.4413,43.2561 23.0539,10.6749 42.6675,19.4722 43.5857,19.5496 0.9183,0.077 -13.5324,-15.0426 -32.1126,-33.5997 z m -268.7118,10.9553 c 0,-7.1416 -5.4494,-4.7533 -9.5152,4.1701 -3.5949,7.89 -3.4139,8.1615 2.8377,4.2573 3.6726,-2.2935 6.6775,-6.0859 6.6775,-8.4274 z m -76.3942,-59.0156 13.1832,-9.4671 h -54.6978 c -44.8839,0 -55.0382,0.8872 -56.5952,4.9447 -1.9847,5.172 6.3672,33.9284 14.5582,50.1257 l 4.7721,9.4366 32.7981,-22.7864 c 18.039,-12.5325 38.7306,-27.0465 45.9814,-32.2535 z m -19.7827,37.9425 c 14.7846,-4.0765 34.5023,-9.5682 43.8171,-12.2037 20.2989,-5.7434 27.0546,-14.1739 21.3648,-26.6616 -6.2131,-13.6364 -17.3186,-10.7 -53.0286,14.0216 -38.401,26.5845 -51.4686,36.6528 -44.266,34.1057 2.8774,-1.0175 17.3281,-5.1854 32.1127,-9.262 z m 211.4867,-17.9589 c -2.7605,-2.7606 -4.821,-2.7001 -7.7485,0.2275 -3.0639,3.0639 -2.8925,6.0353 0.7399,12.8224 l 4.728,8.8343 3.0206,-9.0618 c 1.9957,-5.9869 1.7446,-10.3378 -0.74,-12.8223 z m 18.1065,18.0428 c 1.0914,-1.7658 -1.1006,-4.8616 -4.8709,-6.8794 -5.8431,-3.1271 -6.8553,-2.6531 -6.8553,3.2107 0,6.9908 8.1057,9.5268 11.7262,3.6687 z m 25.4569,-14.1096 c 0,-1.1951 -3.0422,-2.9684 -6.7605,-3.9408 -5.3823,-1.4075 -6.7606,-0.1038 -6.7606,6.395 0,7.3167 0.7008,7.7252 6.7606,3.9408 3.7183,-2.3221 6.7605,-5.1998 6.7605,-6.395 z m -23.5165,-10.9286 c -6.8477,-6.8477 -10.8599,5.1045 -4.1998,12.511 5.6031,6.2311 5.7723,6.2026 6.8757,-1.1577 0.6222,-4.1503 -0.5819,-9.2593 -2.6759,-11.3533 z m 195.6292,10.066 c -0.7747,-0.7048 -19.2148,-11.3527 -40.978,-23.6619 -45.2878,-25.6147 -57.5123,-28.0463 -62.9259,-12.517 -5.3989,15.4873 2.8639,20.06 52.3998,28.9983 44.8994,8.1017 53.8947,9.3558 51.5041,7.1806 z m 26.8353,-11.9418 c 2.179,-7.2728 5.2975,-20.3728 6.93,-29.1112 l 2.9682,-15.888 -34.2822,2.3816 c -18.8553,1.3098 -43.409,3.3817 -54.564,4.6042 l -20.2817,2.2226 43.9437,24.4066 c 24.169,13.4236 45.6043,24.4518 47.6339,24.5071 2.0297,0.055 5.4732,-5.85 7.6521,-13.1229 z m -236.1311,1.3923 c 0,-2.7887 -2.4679,-5.0704 -5.4843,-5.0704 -4.4917,0 -4.7227,0.9177 -1.2762,5.0704 5.2986,6.3845 6.7605,6.3845 6.7605,0 z m 39.2349,-0.2765 c -1.1285,-2.9407 -2.0518,-6.5661 -2.0518,-8.0564 0,-1.4903 -3.0422,-3.5051 -6.7605,-4.4775 -8.7226,-2.281 -9.407,9.243 -0.8451,14.2298 8.5881,5.0021 11.9979,4.4034 9.6574,-1.6958 z m 14.507,-2.6909 c 3.0371,-3.6595 2.4014,-5.0404 -2.9664,-6.4441 -5.0912,-1.3313 -6.8318,-0.1447 -6.8318,4.6576 0,7.5668 4.3437,8.3588 9.7982,1.7865 z m -36.8405,-7.3729 c 0,-2.8985 -1.5459,-4.3145 -3.4354,-3.1467 -1.8895,1.1677 -2.5603,3.5392 -1.4906,5.2699 2.8977,4.6886 4.926,3.8144 4.926,-2.1232 z m 37.1831,-11.6315 c -3.002,-5.6094 -16.9014,-10.0066 -16.9014,-5.3469 0,6.6752 5.5239,12.1075 12.3116,12.1075 7.1605,0 7.7462,-0.8628 4.5898,-6.7606 z m -21.1267,-0.8451 c -1.5952,-4.7853 -7.0309,-4.2593 -8.7324,0.8451 -0.6198,1.8592 1.4084,3.3803 4.507,3.3803 3.0986,0 5,-1.9014 4.2254,-4.2254 z m 34.6479,2.8117 c 0,-0.7775 0.9232,-3.8198 2.0518,-6.7605 1.4708,-3.8331 0.035,-5.3469 -5.0705,-5.3469 -7.8197,0 -8.0591,0.3859 -5.0704,8.1742 1.7972,4.6835 8.0891,7.7428 8.0891,3.9332 z m -339.5297,-15.2029 c 21.1171,-7.7506 25.4094,-10.3895 20.093,-12.3529 -3.7183,-1.3733 -16.478,-6.8254 -28.3548,-12.1158 -11.8769,-5.2905 -22.1445,-9.619 -22.8169,-9.619 -1.9997,0 -1.2974,28.1091 0.9079,36.3381 1.121,4.1831 2.326,7.6056 2.6777,7.6056 0.3517,0 12.7236,-4.4352 27.4931,-9.856 z m 65.7268,6.1922 21.9719,-0.3316 -24.7314,-6.5528 -24.7313,-6.5528 -20.0574,7.3133 c -11.0316,4.0223 -20.0574,8.09 -20.0574,9.0393 0,0.9493 10.2676,0.7563 22.8169,-0.4289 12.5493,-1.1852 32.7042,-2.3041 44.7887,-2.4865 z m 250.1409,-9.8573 c 0,-4.3738 -5.7476,-4.3738 -8.4507,0 -1.149,1.8592 0.2822,3.3803 3.1808,3.3803 2.8984,0 5.2699,-1.5211 5.2699,-3.3803 z m 21.3791,1.1561 c 3.4721,-3.4721 -4.5989,-11.2969 -11.6522,-11.2969 -7.0137,0 -7.2552,0.4595 -4.2948,8.1742 2.0608,5.3703 11.7935,7.2762 15.947,3.1227 z m 12.4237,-11.2969 c 0,-3.7559 -2.2535,-6.7606 -5.0704,-6.7606 -6.1122,0 -6.5348,3.9441 -1.0141,9.4648 5.4551,5.455 6.0845,5.1753 6.0845,-2.7042 z m 103.0986,1.4796 c 18.5915,-1.2596 35.2781,-3.1649 37.0812,-4.2339 3.2331,-1.9168 -79.063,-24.0243 -90.0792,-24.1984 -8.0086,-0.1264 -16.2978,9.1438 -16.2978,18.2268 0,9.4767 11.4827,15.7609 25.3521,13.8748 5.5775,-0.7585 25.3521,-2.4097 43.9437,-3.6693 z m -130.1409,-8.0407 c 0,-1.7494 -1.5211,-4.1209 -3.3802,-5.2699 -1.8592,-1.1491 -3.3803,0.2822 -3.3803,3.1807 0,2.8985 1.5211,5.27 3.3803,5.27 1.8591,0 3.3802,-1.4314 3.3802,-3.1808 z m 193.1993,-58.49334 c -1.9277,-1.9277 -22.2321,3.79264 -52.7007,14.84724 -27.2606,9.8908 -47.862,18.5508 -45.7808,19.2445 2.0812,0.6937 25.3534,6.9457 51.7162,13.8932 l 47.9322,12.6321 0.9846,-28.7406 c 0.5414,-15.8072 -0.4267,-30.1516 -2.1515,-31.87644 z m -173.306,51.84484 c 3.7275,-2.3607 3.1665,-3.7763 -2.7512,-6.9434 -5.7528,-3.0788 -8.567,-3.0373 -12.4477,0.1832 -8.4333,6.999 5.2277,13.075 15.1989,6.7601 z m 10.5293,-15.6418 c 0,-7.7583 -0.6978,-8.1962 -7.3698,-4.6255 -7.1219,3.8116 -7.157,4.0997 -1.044,8.5697 8.3108,6.077 8.4138,6.0287 8.4138,-3.9442 z m -28.7324,1.8091 c 1.149,-1.8592 -0.2823,-3.3803 -3.1808,-3.3803 -2.8984,0 -5.2699,1.5211 -5.2699,3.3803 0,4.3737 5.7475,4.3737 8.4507,0 z m 20.054,-13.1528 c 1.0115,-1.6366 -1.9364,-3.6973 -6.5508,-4.5794 -10.1991,-1.9497 -19.1707,6.4243 -11.7778,10.9934 4.6563,2.8778 14.7743,-0.6629 18.3286,-6.414 z m 102.941,-10.7789 41.8683,-14.94164 -46.537,-0.9433 c -53.029,-1.075 -63.0437,1.916 -59.9853,17.91514 1.6111,8.4276 11.9697,15.8019 19.4055,13.8148 1.8591,-0.4968 22.221,-7.6271 45.2485,-15.845 z m -127.2204,5.6218 c 0.4648,-1.7042 -1.0563,-3.7324 -3.3802,-4.507 -2.324,-0.7747 -4.2254,1.1267 -4.2254,4.2253 0,5.724 6.0601,5.9485 7.6056,0.2816 z m 29.5257,-4.507 c -0.027,-1.3944 -1.4862,-4.8042 -3.2395,-7.5774 -2.5943,-4.1035 -3.9953,-4.2346 -7.5256,-0.7043 -3.5303,3.5303 -3.3992,4.9313 0.7043,7.5256 6.1201,3.8692 10.1306,4.1706 10.0608,0.7561 z m -15.1595,-10.986 c 5.9954,-6.62484 5.9041,-6.76054 -4.5465,-6.76054 -5.8656,0 -10.6647,0.6361 -10.6647,1.4136 0,0.7776 -0.9233,3.81984 -2.0518,6.76064 -3.0384,7.9178 9.7672,6.8691 17.263,-1.4137 z m -21.9718,-3.57974 c 0,-1.7495 -2.234,-3.1808 -4.9643,-3.1808 -3.0155,0 -4.2035,1.9828 -3.0261,5.05104 1.9953,5.1997 7.9904,3.7966 7.9904,-1.87024 z m -131.831,-7.8896 c 0,-4.9442 -7.0283,-8.8124 -16.0116,-8.8124 -4.5702,0 -4.4576,0.9506 0.8003,6.7606 7.0695,7.8116 15.2113,8.9099 15.2113,2.0518 z m 13.5211,-0.3616 c 0,-2.7888 -1.5211,-5.0705 -3.3802,-5.0705 -1.8592,0 -3.3803,2.2817 -3.3803,5.0705 0,2.7887 1.5211,5.0704 3.3803,5.0704 1.8591,0 3.3802,-2.2817 3.3802,-5.0704 z m -35.4929,-1.6902 c -2.677,-4.3314 -5.0704,-4.3314 -5.0704,0 0,1.8592 1.6109,3.3803 3.5797,3.3803 1.9689,0 2.6397,-1.5211 1.4907,-3.3803 z m 140.2817,-3.3803 c 0,-1.8591 -2.3715,-3.3803 -5.27,-3.3803 -2.8984,0 -4.3298,1.5212 -3.1807,3.3803 2.7031,4.3738 8.4507,4.3738 8.4507,0 z m 21.6897,-2.1739 c 1.1723,-3.0549 1.4497,-6.236 0.6164,-7.0692 -3.1068,-3.1068 -15.5456,3.119 -15.5456,7.7808 0,6.6972 12.3114,6.1104 14.9292,-0.7116 z m 14.7931,-1.0715 c -2.9852,-4.7801 -4.862,-5.4863 -6.7374,-2.5352 -4.2324,6.6597 -3.1168,9.1609 4.086,9.1609 5.897,0 6.2455,-0.8708 2.6514,-6.6257 z m 95.6807,-19.1068 c 20.4691,-14.1529 36.5468,-26.4023 35.7281,-27.2209 -0.8186,-0.8187 -21.0559,3.9694 -44.9717,10.6403 -48.389,13.4971 -57.4157,19.5102 -50.7764,33.8245 6.7896,14.6382 18.971,11.1384 60.02,-17.2439 z m 84.1745,23.4275 c 0,-9.1064 -15.2514,-56.0359 -18.6324,-57.3333 -3.0798,-1.1819 -76.4943,46.8246 -89.2549,58.3646 -0.7747,0.7005 23.1831,1.2737 53.2394,1.2737 30.0564,0 54.6479,-1.0373 54.6479,-2.305 z m -405.7545,-9.3664 c -2.7224,-2.7009 -23.2032,-8.0641 -45.5131,-11.9183 -22.3099,-3.8542 -44.3662,-7.7497 -49.0141,-8.6568 -7.821,-1.5263 -7.954,-1.3501 -1.785,2.3653 5.7225,3.4465 82,21.4093 96.3122,22.6809 4.3461,0.3861 4.3461,-0.1592 0,-4.4711 z m 84.6277,-1.7308 c 0,-3.6529 -3.0422,-8.2698 -6.7605,-10.2598 -5.619,-3.0072 -6.7606,-2.5706 -6.7606,2.5853 0,6.369 6.0047,14.3161 10.8169,14.3161 1.4873,0 2.7042,-2.9887 2.7042,-6.6416 z m 14.9924,3.6156 c 1.0286,-1.6644 -0.4027,-3.8983 -3.1808,-4.9644 -3.0681,-1.1773 -5.051,0.01 -5.051,3.0261 0,5.4672 5.2821,6.711 8.2318,1.9383 z m -31.9455,-2.8894 c -0.027,-1.3944 -1.4863,-4.8042 -3.2395,-7.5774 -2.4096,-3.8113 -4.1405,-4.0895 -7.0904,-1.1396 -2.1464,2.1464 -2.8805,5.5562 -1.6314,7.5774 2.5591,4.1406 12.041,5.044 11.9613,1.1396 z m 104.8405,-2.7348 c 0,-2.8984 -1.5212,-4.3298 -3.3803,-3.1807 -4.3738,2.7031 -4.3738,8.4507 0,8.4507 1.8591,0 3.3803,-2.3715 3.3803,-5.27 z m -57.4648,-2.3357 c 0,-3.9586 -4.9242,-2.9737 -6.338,1.2676 -0.6972,2.0916 0.4436,3.2324 2.5352,2.5352 2.0915,-0.6971 3.8028,-2.4084 3.8028,-3.8028 z m 78.4713,-5.9416 c 1.4136,-9.6311 1.122,-9.9216 -5.5318,-5.5116 -9.5602,6.3362 -11.1005,15.6786 -2.5851,15.6786 4.7804,0 7.0402,-2.8306 8.1169,-10.167 z m -37.9079,1.5168 c 0,-2.8985 -1.5212,-4.3298 -3.3803,-3.1808 -4.3738,2.7031 -4.3738,8.4507 0,8.4507 1.8591,0 3.3803,-2.3715 3.3803,-5.2699 z m 56.465,1.8896 c 1.0051,0 -0.066,-2.2817 -2.3805,-5.0704 -5.9319,-7.1475 -10.1409,-6.2958 -10.1409,2.0518 0,5.1057 1.5138,6.5413 5.3469,5.0704 2.9408,-1.1285 6.1693,-2.0518 7.1745,-2.0518 z m -190.4294,-7.1536 c 10.9103,-15.5766 2.6607,-21.6717 -75.6131,-55.8658 l -18.5916,-8.1218 36.3284,35.5706 c 38.5266,37.7229 48.0746,42.411 57.8763,28.417 z m 83.2601,1.2062 c 0,-3.2711 -3.0422,-7.8474 -6.7605,-10.1695 -6.0379,-3.7707 -6.7606,-3.3759 -6.7606,3.6939 0,4.3538 1.0141,8.9301 2.2535,10.1695 4.4084,4.4083 11.2676,2.1596 11.2676,-3.6939 z m 32.1127,2.5671 c -2.7031,-4.3737 -8.4507,-4.3737 -8.4507,0 0,1.8592 2.3715,3.3803 5.2699,3.3803 2.8985,0 4.3298,-1.5211 3.1808,-3.3803 z m -188.6033,-39.1983 c -25.162,-24.6029 -41.997,-38.5836 -45.6339,-37.8969 -7.3174,1.3817 -32.246,50.274 -27.8661,54.6539 2.3846,2.3846 90.4965,19.9178 109.9906,21.8867 1.8592,0.188 -14.5616,-17.2018 -36.4906,-38.6437 z m 223.4757,28.1835 c 1.229,-10.6477 -1.7359,-11.8602 -8.195,-3.3514 -6.3458,8.3596 -5.7557,15.0611 1.2099,13.7401 3.5679,-0.6766 6.34,-4.7996 6.9851,-10.3887 z m -87.2668,0.9801 c 0,-4.5263 -1.6215,-6.0322 -5.0704,-4.7088 -5.4229,2.081 -6.4675,5.4591 -2.8169,9.1097 4.2635,4.2635 7.8873,2.2415 7.8873,-4.4009 z m 42.1686,3.4117 c 2.0809,-3.367 -4.9679,-17.0389 -8.7848,-17.0389 -2.7928,0 -5.9418,16.1743 -3.604,18.5121 2.8891,2.8891 10.2324,2.0159 12.3888,-1.4732 z m 20.4854,-0.3296 c 1.2143,-1.9648 1.18,-7.6675 -0.076,-12.6727 l -2.284,-9.1003 -4.4297,8.2771 c -6.2449,11.6687 0.1112,24.3023 6.7899,13.4959 z m -263.7807,-3.1882 c -1.149,-1.8592 -5.4219,-3.2287 -9.4953,-3.0433 -6.8944,0.3136 -6.8222,0.5239 1.0446,3.0433 4.6479,1.4885 8.9207,2.858 9.4953,3.0433 0.5745,0.1853 0.1044,-1.1842 -1.0446,-3.0433 z m 304.9356,-7.4377 c -7.3296,-4.6581 -11.9596,-2.8994 -10.1893,3.8704 1.4329,5.4795 2.7642,5.9208 7.9994,2.6514 4.5649,-2.8509 5.1631,-4.6323 2.1899,-6.5218 z m 72.0562,7.4377 c 2.4376,0 47.8363,-51.1314 64.043,-72.13 2.638,-3.418 -9.572,2.366 -27.1334,12.8533 -17.5613,10.4873 -36.7253,21.4809 -42.5867,24.4303 -14.8766,7.4855 -19.6962,19.0893 -12.4941,30.0811 3.2668,4.9858 7.5586,7.7181 10.4066,6.6252 2.6657,-1.023 6.1598,-1.8599 7.7646,-1.8599 z m -150.0573,-15.8824 c -1.0198,-1.0198 -4.3728,-0.8877 -7.4511,0.2934 -4.6477,1.7835 -4.8588,3.0372 -1.2448,7.3918 3.9205,4.7239 4.6595,4.6947 7.4511,-0.2934 1.7045,-3.0457 2.2646,-6.372 1.2448,-7.3918 z m 51.2536,-1.514 c -8.6847,-5.5091 -13.3773,-3.4522 -9.3389,4.0935 3.0465,5.6925 4.6555,6.2148 8.7296,2.8336 4.0148,-3.3319 4.1343,-4.691 0.6093,-6.9271 z m 170.053,-2.7505 c 26.305,-7.3624 48.7408,-14.2999 49.8575,-15.4165 2.4083,-2.4083 -13.7825,-33.1023 -24.5716,-46.5822 l -7.5792,-9.4695 -34.3824,40.5547 c -32.1365,37.9058 -36.8659,44.2998 -32.7669,44.2998 0.8884,0 23.1376,-6.0238 49.4426,-13.3863 z m -195.1877,4.9356 c 1.421,-3.703 -0.4163,-5.0704 -6.8128,-5.0704 -7.4021,0 -8.1068,0.7853 -4.5505,5.0704 5.339,6.4331 8.8947,6.4331 11.3633,0 z m -90.4599,-5.3898 c 6.2646,-5.8853 6.9784,-8.5948 4.2304,-16.0564 -2.8081,-7.6248 -37.5368,-38.9613 -69.8753,-63.0499 l -9.0613,-6.7497 5.3454,8.4398 c 2.9399,4.6419 14.2017,23.3482 25.0261,41.5695 16.8229,28.3189 28.8126,42.9267 35.2332,42.9267 0.8609,0 4.9566,-3.186 9.1015,-7.08 z m 186.5626,-8.3574 c 4.159,-2.913 9.6577,-10.1384 12.2194,-16.0563 2.5617,-5.9179 11.7556,-25.9711 20.4308,-44.5627 l 15.7732,-33.8028 -35.3767,35.1191 c -38.2581,37.9796 -44.5602,49.967 -31.1917,59.33 8.9598,6.2753 9.1472,6.275 18.145,-0.027 z m -248.0872,-44.1432 c -14.2888,-23.9349 -28.1695,-45.7997 -30.846,-48.5885 -4.2903,-4.4701 -7.2498,-2.4978 -25,16.6608 -11.0736,11.9522 -19.6853,24.0596 -19.1372,26.9054 0.8733,4.5348 97.2023,52.3008 99.9443,49.5587 0.5602,-0.5601 -10.6724,-20.6015 -24.9611,-44.5364 z m 93.5195,32.4194 c 12.6916,-6.7923 7.9498,-19.9056 -22.5731,-62.4258 -16.0114,-22.3046 -27.9456,-36.7511 -26.5205,-32.1032 1.425,4.6479 7.6556,26.5186 13.8457,48.6016 12.9083,46.0498 19.3459,54.4379 35.2479,45.9274 z m 134.7088,-58.5744 c 4.0704,-23.9151 6.764,-44.1187 5.9859,-44.8968 -2.9894,-2.9894 -46.269,77.9011 -46.269,86.4777 0,6.7633 2.3463,9.9343 9.2957,12.563 16.5515,6.2608 22.4651,-4.072 30.9874,-54.1439 z m 83.2265,33.4615 c 23.7796,-13.8775 44.887,-26.9432 46.9052,-29.035 2.6741,-2.7714 -2.1874,-9.2237 -17.9186,-23.7823 -11.8736,-10.9885 -23.4285,-19.9791 -25.6775,-19.9791 -2.2491,0 -13.6107,20.155 -25.2482,44.7888 -24.4483,51.7515 -25.0889,53.2394 -22.9219,53.2394 0.894,0 21.0815,-11.3543 44.861,-25.2318 z m -174.0005,6.0792 c 2.8549,-7.5089 0.7269,-16.3876 -12.7597,-53.2395 l -16.1861,-44.2276 -0.9556,45.6338 c -1.0853,51.83 1.4071,60.8451 16.8218,60.8451 7.3468,0 10.4719,-2.1532 13.0796,-9.0118 z m 42.5359,-23.0848 c -1.0617,-9.3046 -2.9788,-31.1479 -4.2601,-48.5405 -1.2813,-17.3926 -3.4367,-29.5616 -4.7895,-27.0423 -6.2949,11.7224 -23.5618,87.899 -21.6503,95.5149 2.8293,11.2727 17.6479,13.4643 26.3468,3.8966 5.0426,-5.5463 5.9022,-10.2521 4.3531,-23.8287 z m -134.2388,-26.2363 c -7.738,-26.946 -15.3608,-51.0828 -16.9396,-53.6373 -2.3372,-3.7817 -5.7589,-3.0751 -18.4161,3.8036 -21.0187,11.4227 -39.3152,26.8332 -36.7625,30.9637 3.4585,5.5958 83.2505,70.7995 84.7747,69.2754 0.7769,-0.777 -4.9185,-23.4594 -12.6565,-50.4054 z m 257.6173,-30.6766 c 4.1551,-7.5219 0.1515,-10.9619 -30.466,-26.1778 -15.7808,-7.8425 -22.196,-9.6038 -24.0505,-6.6032 -1.391,2.2506 -5.8924,23.3489 -10.0033,46.8849 -4.1108,23.5361 -8.3038,47.3563 -9.3176,52.9337 -1.6347,8.9927 2.2474,6.1222 34.2867,-25.3521 19.8715,-19.5211 37.6694,-38.2796 39.5507,-41.6855 z m -205.0288,-42.3242 c -1.7574,-7.1104 -3.2636,-7.7099 -14.2118,-5.656 -6.7353,1.2636 -20.4928,5.3829 -30.5721,9.154 -14.3227,5.3589 -17.9825,8.1703 -16.7535,12.8701 0.8649,3.3074 15.0709,24.9317 31.5689,48.054 l 29.9963,42.0405 0.969,-49.2546 c 0.5329,-27.09 0.084,-52.8336 -0.9968,-57.208 z m 59.4218,46.3382 c 7.3408,-28.5482 12.6195,-53.8074 11.7304,-56.1313 -1.0137,-2.6499 -8.2727,-4.2115 -19.469,-4.1881 -28.0926,0.059 -43.1921,3.4419 -43.2923,9.7008 -0.098,6.1017 34.962,105.2467 36.6282,103.5805 0.5807,-0.5807 7.062,-24.4136 14.4027,-52.9619 z m 58.4987,6.986 c 17.1521,-30.6367 25.4616,-48.7208 23.3549,-50.8274 -4.4126,-4.4126 -57.4848,-15.2077 -60.4057,-12.2867 -2.7196,2.7196 5.5174,110.7081 8.4428,110.6862 1.0906,-0.01 13.9642,-21.4157 28.608,-47.5721 z"
       style="fill:#000000;stroke-width:3.38028" />
  </g>
</svg>
