<?xml version="1.0" encoding="UTF-8" standalone="no"?>
<svg
   xmlns:dc="http://purl.org/dc/elements/1.1/"
   xmlns:cc="http://creativecommons.org/ns#"
   xmlns:rdf="http://www.w3.org/1999/02/22-rdf-syntax-ns#"
   xmlns:svg="http://www.w3.org/2000/svg"
   xmlns="http://www.w3.org/2000/svg"
   xmlns:sodipodi="http://sodipodi.sourceforge.net/DTD/sodipodi-0.dtd"
   xmlns:inkscape="http://www.inkscape.org/namespaces/inkscape"
   version="1.1"
   id="svg279"
   width="821.32538"
   height="1173.2758"
   viewBox="0 0 821.32538 1173.2758"
   sodipodi:docname="фристайл.svg"
   inkscape:version="1.0 (4035a4fb49, 2020-05-01)">
  <metadata
     id="metadata285">
    <rdf:RDF>
      <cc:Work
         rdf:about="">
        <dc:format>image/svg+xml</dc:format>
        <dc:type
           rdf:resource="http://purl.org/dc/dcmitype/StillImage" />
        <dc:title></dc:title>
      </cc:Work>
    </rdf:RDF>
  </metadata>
  <defs
     id="defs283" />
  <sodipodi:namedview
     inkscape:document-rotation="0"
     pagecolor="#ffffff"
     bordercolor="#666666"
     borderopacity="1"
     objecttolerance="10"
     gridtolerance="10"
     guidetolerance="10"
     inkscape:pageopacity="0"
     inkscape:pageshadow="2"
     inkscape:window-width="1920"
     inkscape:window-height="1018"
     id="namedview281"
     showgrid="false"
     inkscape:zoom="0.71506403"
     inkscape:cx="446.311"
     inkscape:cy="521.56624"
     inkscape:window-x="-6"
     inkscape:window-y="-6"
     inkscape:window-maximized="1"
     inkscape:current-layer="g287" />
  <g
     transform="translate(34.951014,-65.793751)"
     inkscape:groupmode="layer"
     inkscape:label="Image"
     id="g287">
    <path
       id="path8"
       d="m 258.95809,1238.9856 c -0.352,-0.079 -1.432,-0.3031 -2.4,-0.498 -4.83655,-0.974 -16.66609,-10.0566 -24.71621,-18.9769 -11.97335,-13.2676 -20.60616,-29.5021 -25.36612,-47.7024 -2.81482,-10.7628 -17.77082,-82.1266 -52.77917,-251.83992 -4.64705,-22.528 -8.46029,-40.66442 -8.47384,-40.30317 -0.0136,0.36125 5.94984,58.53725 13.25201,129.27999 13.8404,134.0846 13.4821,130.9393 16.01422,140.5752 6.2095,23.63 16.90523,44.3907 31.39177,60.9325 3.97801,4.5423 5.42992,6.6532 6.69868,9.7387 2.36711,5.7566 -0.95448,6.9712 -9.725,3.5561 -3.67292,-1.4302 -4.98269,-2.3922 -10.52454,-7.73 -11.98153,-11.5402 -22.07918,-25.9346 -27.08459,-38.6094 -2.73245,-6.9192 -3.80139,-11.5188 -5.46599,-23.52 -4.72375,-34.0565 -19.13457,-158.89196 -37.62371,-325.91992 l -6.11035,-55.2 -44.64833,-164.8 c -24.55658,-90.64 -44.8599,-165.5439 -45.11848,-166.45315 l -0.47015,-1.65315 -2.1451,0.63388 c -3.56939,1.05476 -11.829,2.77485 -15.9051004,3.31229 -4.92081,0.64883 -13.19876,0.66055 -16.79999,0.0237 -8.5429596,-1.51061 -13.0794596,-4.93749 -16.3135496,-12.32338 -5.65845,-12.92256 -4.16921,-22.23078 4.2556,-26.59885 l 2.08415,-1.08057 -2.7731,-0.82195 c -6.13293,-1.81786 -11.04417,-4.30791 -12.48353,-6.32928 -1.93027,-2.71085 0.23762,-5.21005 6.751,-7.78279 4.39087,-1.73437 26.60351959,-7.73139 31.9662496,-8.63034 l 2.44683,-0.41016 0.20468,-6.58317 c 0.93373,-30.03202 3.5192204,-49.2131 7.9922304,-59.29229 2.0448,-4.60763 7.48586,-12.36066 10.94672,-15.59813 2.45434,-2.2959 4.17133,-3.19563 6.11766,-3.20573 3.03107,-0.0157 4.52466,2.97114 4.79703,9.59297 0.20334,4.94358 -0.28082,8.46718 -2.63819,19.2 -2.62339,11.94398 -2.828,13.76234 -2.61052,23.2 0.1014,4.4 0.41329,10.16 0.6931,12.8 0.57809,5.45428 2.00227,16.18531 2.17036,16.3534 0.29755,0.29755 8.55313,-0.32302 8.55163,-0.64283 -9.6e-4,-0.19281 -0.35615,-2.02065 -0.78943,-4.06185 -1.91671,-9.02965 -1.61636,-15.57717 0.81862,-17.8457 1.06909,-0.99601 2.3899,-1.255 4.97719,-0.97595 3.54576,0.38242 6.04336,1.90013 7.7043,4.68166 l 0.61428,1.02873 1.06592,-2.62873 c 1.68402,-4.15307 5.67785,-11.98788 7.53863,-14.78873 2.02617,-3.04979 3.50292,-4.53064 6.028,-6.04471 3.45976,-2.07453 6.7737,-2.21854 8.51048,-0.36982 0.67924,0.72301 0.731,0.99567 0.56294,2.96538 -0.30805,3.61047 -3.82741,14.26274 -7.11294,21.52915 -1.42563,3.15301 -5.36191,14.4211 -5.12165,14.66137 0.0604,0.0604 3.68265,-1.06596 8.04946,-2.50301 19.65777,-6.46906 40.75597,-11.82778 54.03584,-13.72454 7.92437,-1.13183 12.56234,-1.37514 21.63818,-1.13515 6.3489,0.16787 8.93945,0.12417 10.17239,-0.1716 2.30187,-0.55221 5.61882,-2.85635 9.94943,-6.9114 4.30791,-4.0338 7.05423,-5.91675 12.32,-8.44694 3.72253,-1.78866 5.30723,-2.41487 15.84,-6.25937 6.8084,-2.48508 10.8568,-4.52107 14.00484,-7.04319 1.45467,-1.16544 5.28458,-5.02309 8.51091,-8.57257 7.33464,-8.06926 11.69042,-12.23843 16.70995,-15.99404 12.01972,-8.99315 25.27714,-13.888 55.20796,-20.38366 16.70576,-3.62553 19.83216,-4.62982 23.97469,-7.7013 2.55987,-1.89802 7.01392,-5.79759 15.67165,-13.72069 10.21379,-9.34713 16.81459,-14.75447 23.04,-18.8743 5.86947,-3.88428 11.23056,-6.26927 14.96,-6.65526 0.924,-0.0956 1.67979,-0.18974 1.67959,-0.20911 -2e-4,-0.0194 -0.21755,-1.11524 -0.48302,-2.43524 -0.70025,-3.48201 -0.98297,-11.30788 -0.49888,-13.81045 0.67005,-3.46384 2.5267,-5.70955 4.7204,-5.70955 0.5218,0 0.6508,-0.41287 0.9754,-3.12 1.169,-9.74927 4.7212,-23.62878 8.4381,-32.96993 4.3723,-10.98804 9.0811,-18.68848 15.4743,-25.30548 3.6208,-3.74752 6.8284,-6.17933 10.9122,-8.2728 5.1924,-2.66174 10.4439,-4.07454 20.4619,-5.50476 14.42,-2.05867 30.5035,-1.65565 44.32,1.11057 4.7417,0.94935 11.349,2.78831 13.2808,3.69639 1.8055,0.84867 5.9284,4.70344 9.1568,8.5612 10.7764,12.87729 16.2616,28.23612 15.5016,43.40481 -0.6228,12.429 -1.7773,25.94025 -2.2871,26.7651 -0.2611,0.42246 0.036,0.35592 3.6907,-0.82544 5.567,-1.79968 9.4264,-2.45406 16.1772,-2.74294 6.8394,-0.29267 8.121,-0.57962 11.52,-2.5794 5.0572,-2.97536 6.3914,-3.37028 12.96,-3.83593 11.4102,-0.80887 20.8343,-3.06532 26.56,-6.35942 1.496,-0.86067 8.1849,-4.10826 14.8643,-7.21687 13.6939,-6.37325 22.4621,-10.72983 25.2957,-12.56849 1.056,-0.68523 4.224,-3.37771 7.04,-5.9833 15.7781,-14.5992 26.3922,-22.04528 35.7391,-25.07183 3.8329,-1.24112 3.9045,-1.25579 9.7665,-1.99983 8.699,-1.10412 11.678,-1.91933 15.021,-4.11058 2.2835,-1.49669 7.038,-5.56692 6.6406,-5.68475 -0.158,-0.0468 -79.1197,-11.19861 -175.4705,-24.78176 C 353.81511,94.257743 348.25796,93.495403 347.84385,94.082253 c -0.2352,0.33332 -1.32272,1.89417 -2.41671,3.46857 -2.60614,3.750607 -6.00893,7.178377 -8.21187,8.272137 -1.98691,0.98649 -4.18896,1.1364 -5.94083,0.40441 -2.85395,-1.19245 -6.01994,-6.276477 -7.68394,-12.339087 -0.45891,-1.672 -0.94957,-3.328247 -1.09033,-3.68055 -0.17684,-0.44249 -2.61923,-1.724126 -7.89901,-4.144964 -4.20368,-1.92733 -8.79507,-4.053273 -10.20307,-4.72422 l -2.56,-1.219905 11.41216,0.212156 11.41216,0.212155 1.1864,-2.367287 c 2.84998,-5.686858 6.78,-10.577451 9.48716,-11.806008 4.94592,-2.244538 9.27469,2.10419 12.42144,12.47872 0.56052,1.848 1.12535,3.640839 1.25517,3.984086 0.21738,0.574716 14.59991,2.61461 181.8108,25.786474 167.0985,23.1563 181.622,25.12205 182.1678,24.65631 1.0305,-0.87922 2.108,-3.04205 3.3839,-6.79262 2.1329,-6.26971 3.1505,-7.9604 5.6895,-9.45286 1.4477,-0.85097 1.7393,-0.90048 5.2135,-0.88506 3.3775,0.015 4.2192,0.15578 10.24,1.71302 7.8019,2.01791 16.6661,4.86067 22.126,7.09581 14.4212,5.90369 22.296,12.96839 25.7401,23.09198 1.2121,3.56312 1.2787,4.74175 0.3786,6.70776 -0.4299,0.939 -1.5987,2.58978 -2.5973,3.6684 -1.8846,2.03555 -3.3034,2.88183 -8.5274,5.08617 -3.6805,1.55302 -5.377,2.69053 -7.2857,4.88505 -2.7061,3.11126 -5.9461,4.44622 -13.0088,5.35992 -2.692,0.34827 -4.0077,0.69248 -5.4655,1.4298 -2.7436,1.38767 -7.0236,4.51664 -12.5143,9.14878 -2.6211,2.21129 -6.4937,5.40645 -8.6057,7.10036 -2.112,1.69391 -5.8418,4.999 -8.2885,7.34464 -2.4467,2.34563 -5.3778,4.94141 -6.5137,5.76839 -6.499,4.73177 -8.6078,6.40355 -12.0778,9.57497 -7.6053,6.95082 -15.7496,15.71249 -26.2069,28.19356 -9.149,10.91961 -30.9493,33.38736 -38.9131,40.10449 -11.2638,9.50052 -22.3714,16.80229 -34.72,22.82377 -9.096,4.43543 -13.5793,6.10997 -29.6,11.05585 -12.3519,3.81323 -23.1456,9.31037 -28.1943,14.35905 -3.949,3.94897 -4.6036,6.26453 -4.5777,16.1919 0.02,7.5028 0.4236,11.57146 2.3995,24.16 2.2462,14.311 2.3067,14.93002 2.095,21.44 -0.3334,10.25434 -1.9044,21.46003 -4.5126,32.18784 -3.9617,16.29523 -9.703,29.11402 -16.7865,37.48013 l -1.9542,2.308 -0.9222,4.892 c -1.4355,7.61507 -3.7724,17.73849 -5.6524,24.48681 -6.3103,22.65024 -13.4848,38.29072 -22.2039,48.40522 -7.848,9.104 -11.3669,15.31606 -12.3264,21.76074 -0.6394,4.29456 -1.4639,7.7038 -4.487,18.55379 -1.3477,4.83702 -2.8049,10.36518 -3.2383,12.28483 -0.9101,4.032 -1.8356,12.04675 -1.5635,13.54016 0.1022,0.5607 0.9041,2.90237 1.782,5.20365 3.9501,10.35478 12.8492,36.19981 14.0283,40.74147 2.3611,9.09453 4.8264,39.30147 4.8321,59.20797 0,14.9831 -0.8752,17.86512 -7.6184,24.9647 -2.2696,2.3896 -3.481,3.96189 -4.1584,5.39728 -1.067,2.26087 -1.1995,2.93789 -1.6532,8.44467 -0.5652,6.8609 -2.463,12.51082 -5.9854,17.81847 -2.8949,4.36211 -10.2849,11.26886 -16.5825,15.49814 -4.4115,2.96259 -23.6623,14.7873 -27.3425,16.79498 -6.7583,3.68685 -13.3209,6.01485 -20.1775,7.15769 -15.325,2.55434 -54.45993,-1.76393 -87.00729,-9.60067 -11.0944,-2.67129 -16.90134,-3.36688 -38.7527,-4.64205 -28.29717,-1.65129 -33.09023,-2.3791 -44.56392,-6.76684 -2.32984,-0.89098 -5.67608,-2.1721 -7.43608,-2.84695 -4.17523,-1.60089 -6.9076,-2.10957 -8.70599,-1.62077 -1.99314,0.54176 -6.00196,3.35008 -8.7887,6.15684 -1.88535,1.89888 -2.77599,3.1207 -3.84,5.26787 l -1.38531,2.79555 -0.21572,7.06422 c -0.16207,5.30759 -0.37359,7.74064 -0.8506,9.78426 -2.02539,8.67734 -5.72855,14.65757 -10.5449,17.0289 -1.75011,0.86166 -2.59452,1.07216 -4.68512,1.16787 -3.52199,0.16125 -5.42051,-0.3312 -10.43209,-2.70583 -2.38063,-1.12803 -4.76059,-2.05094 -5.28879,-2.05094 -3.20306,0 -3.77241,3.83021 -1.73622,11.68 2.46641,9.50838 8.64536,24.69958 16.59522,40.8 l 3.39712,6.88 -0.007,4.96 c -0.007,4.47523 -0.0792,5.12051 -0.74267,6.60237 -1.87919,4.19734 -5.1456,4.70464 -9.94422,1.54438 -0.94112,-0.61981 -1.73757,-1.0864 -1.76988,-1.03683 -0.0864,0.13258 52.45608,248.4389 53.43565,252.527 2.4807,10.353 8.02058,24.4168 14.07168,35.723 3.49503,6.5303 5.2346,9.4009 10.56859,17.44 6.71439,10.1196 9.257,14.8892 11.16876,20.951 0.93851,2.9759 1.16575,6.7781 0.50735,8.489 -0.97883,2.5436 -3.25363,3.7682 -7.2068,3.8797 -1.584,0.045 -3.168,0.017 -3.52,-0.062 z M 145.09002,877.80838 c -0.0888,-0.22 -0.1614,-0.04 -0.1614,0.4 0,0.44 0.0726,0.62 0.1614,0.4 0.0888,-0.22 0.0888,-0.58 0,-0.8 z M 342.28359,687.25331 c -6.27514,-6.78045 -15.7335,-24.34583 -26.75363,-49.68493 -4.14525,-9.53133 -11.90342,-28.01302 -12.94243,-30.83174 -1.24819,-3.38615 -1.47783,-5.77623 -0.74957,-7.80151 0.52739,-1.46659 0.53005,-1.64425 0.04,-2.66896 -0.28877,-0.60377 -1.68042,-2.46579 -3.09254,-4.13779 -1.41216,-1.672 -6.6241,-8.08 -11.58208,-14.24 -9.32056,-11.58026 -15.24184,-18.73046 -18.9475,-22.88 -2.7716,-3.10358 -3.69775,-4.89418 -3.69775,-7.14912 0,-3.81754 1.23161,-5.6713 8.64433,-13.01088 3.11069,-3.08 6.18684,-6.40419 6.8359,-7.38707 1.68364,-2.5496 3.46964,-6.81735 8.55929,-20.45293 9.49993,-25.45101 10.36077,-27.61258 13.11238,-32.92589 2.13002,-4.11305 2.22509,-4.74531 1.21389,-8.07446 -0.55933,-1.84141 -0.65325,-2.83159 -0.55114,-5.8097 0.10439,-3.04435 0.25114,-3.86595 0.96557,-5.40598 1.16179,-2.50448 2.96426,-4.34739 7.11415,-7.27386 1.95011,-1.3752 4.16995,-3.17869 4.93299,-4.00774 5.37289,-5.83786 6.46131,-19.37597 2.93462,-36.50237 -2.09501,-10.17386 -4.41069,-16.50048 -6.50752,-17.77904 -2.68995,-1.64019 -4.49577,-0.66157 -13.43933,7.2831 -8.04659,7.14791 -12.17254,10.17616 -18.20178,13.3592 -8.48167,4.4778 -15.58958,6.2282 -26.33335,6.48484 -9.559,0.22832 -10.13719,0.10736 -25.3111,-5.29572 -9.10705,-3.24278 -12.59812,-3.26915 -14.68812,-0.11094 -0.43808,0.66195 -1.3162,2.49242 -1.9514,4.06768 -1.97318,4.89341 -3.28246,6.04928 -6.83375,6.03309 -2.50422,-0.0115 -4.3484,-0.52823 -10.86343,-3.04439 -2.7103,-1.04675 -5.53708,-1.98668 -6.28175,-2.08873 -1.79035,-0.24541 -2.46463,0.43648 -3.34081,3.37853 -0.78984,2.65216 -1.78533,3.94633 -3.83417,4.98454 -4.34981,2.20422 -7.35994,2.43226 -36.01547,2.72854 -26.35869,0.27252 -28.01184,0.35677 -40.8,2.07943 -3.25599,0.43862 -8.2357,1.01587 -11.06602,1.28281 -6.4987,0.6129 -20.75093,1.12884 -24.49066,0.88653 -1.59783,-0.10352 -2.84331,-0.0587 -2.84331,0.10231 0,0.93459 3.91237,18.67184 4.26689,19.34451 0.31824,0.60384 179.92775,225.40797 181.34759,226.97958 0.63807,0.70624 15.12049,1.99303 32.94551,2.9272 10.30665,0.54016 16.77078,1.10099 24.16,2.09616 6.84758,0.92224 20.62659,3.2913 28.48,4.89667 3.696,0.75549 6.77779,1.32871 6.84841,1.2738 0.0706,-0.0549 -0.50669,-0.78605 -1.28291,-1.62477 z m -163.6455,-1.37095 c 6.23815,-0.44611 6.56,-0.52108 6.56,-1.52857 0,-2.66365 3.32285,-6.0761 8.56156,-8.79235 5.49248,-2.84788 14.89982,-6.36778 20.87669,-7.81143 2.70864,-0.65421 3.9157,-0.78448 6.24,-0.67344 3.38389,0.16167 4.71672,0.66298 9.91343,3.72877 3.72421,2.19712 8.05193,4.32605 9.55395,4.69987 0.73534,0.18304 -2.47403,-3.9192 -17.06739,-21.81571 -9.88516,-12.12262 -47.51669,-58.27818 -83.62563,-102.5679 -36.10893,-44.28973 -65.68904,-80.49332 -65.73356,-80.45239 -0.17373,0.15968 33.2242,156.58042 33.70663,157.86656 1.50135,4.00256 5.10123,7.48435 9.04488,8.74819 4.81745,1.54388 12.19979,0.62679 19.24944,-2.39136 0.39472,-0.16896 0.4888,0.14999 0.5295,1.79514 0.053,2.1431 1.2661,7.15203 3.16405,13.06467 2.6648,8.30154 5.23568,10.76205 9.21205,8.81661 2.83572,-1.38739 5.90931,-4.88701 9.16968,-10.44064 2.45682,-4.1849 5.20317,-6.39475 7.35886,-5.92128 1.75231,0.38486 3.7485,3.13603 4.95857,6.83395 0.52017,1.58963 0.62104,1.69971 1.40387,1.53203 0.46388,-0.0993 1.85142,-0.39955 3.08342,-0.6671 2.94617,-0.63984 6.64048,-0.64128 7.98532,-0.003 4.79874,2.27715 0.53898,10.75357 -12.58039,25.03347 -4.54079,4.94253 -5.16493,5.85523 -5.16493,7.55303 0,1.88841 1.92293,2.94147 6.19266,3.39126 1.25804,0.13251 2.43134,0.25923 2.60734,0.28157 0.176,0.0224 2.336,-0.10352 4.8,-0.27975 z"
       style="fill:#000000;stroke-width:0.32" />
  </g>
</svg>
