<?xml version="1.0" encoding="UTF-8" standalone="no"?>
<svg
   xmlns:dc="http://purl.org/dc/elements/1.1/"
   xmlns:cc="http://creativecommons.org/ns#"
   xmlns:rdf="http://www.w3.org/1999/02/22-rdf-syntax-ns#"
   xmlns:svg="http://www.w3.org/2000/svg"
   xmlns="http://www.w3.org/2000/svg"
   xmlns:sodipodi="http://sodipodi.sourceforge.net/DTD/sodipodi-0.dtd"
   xmlns:inkscape="http://www.inkscape.org/namespaces/inkscape"
   inkscape:version="1.0 (4035a4fb49, 2020-05-01)"
   sodipodi:docname="РЫЦАРЬ.svg"
   viewBox="0 0 795.19287 1161.9834"
   height="1161.9834"
   width="795.19287"
   id="svg20"
   version="1.1">
  <metadata
     id="metadata26">
    <rdf:RDF>
      <cc:Work
         rdf:about="">
        <dc:format>image/svg+xml</dc:format>
        <dc:type
           rdf:resource="http://purl.org/dc/dcmitype/StillImage" />
        <dc:title></dc:title>
      </cc:Work>
    </rdf:RDF>
  </metadata>
  <defs
     id="defs24" />
  <sodipodi:namedview
     inkscape:current-layer="g28"
     inkscape:window-maximized="1"
     inkscape:window-y="-6"
     inkscape:window-x="-6"
     inkscape:cy="676.59123"
     inkscape:cx="920.15706"
     inkscape:zoom="0.46403883"
     showguides="false"
     showgrid="false"
     id="namedview22"
     inkscape:window-height="1018"
     inkscape:window-width="1920"
     inkscape:pageshadow="2"
     inkscape:pageopacity="0"
     guidetolerance="10"
     gridtolerance="10"
     objecttolerance="10"
     borderopacity="1"
     bordercolor="#666666"
     pagecolor="#ffffff"
     inkscape:document-rotation="0" />
  <g
     transform="translate(877.09081,-85.766898)"
     id="g28"
     inkscape:label="Image"
     inkscape:groupmode="layer">
    <path
       id="path8"
       d="m -274.54178,1245.9005 c -3.59742,-1.2288 -14.81241,-3.8455 -24.9222,-5.8147 -10.1098,-1.9693 -19.92095,-5.0042 -21.80255,-6.7442 -1.8816,-1.74 -9.30779,-6.6998 -16.50263,-11.0218 -7.19484,-4.3219 -19.21349,-12.619 -26.70812,-18.4379 -11.81977,-9.1769 -13.63348,-11.5932 -13.67861,-18.2235 -0.0286,-4.204 -0.92173,-11.7498 -1.98473,-16.7683 -2.04639,-9.6612 0.19971,-22.7963 4.38277,-25.6291 1.7207,-1.1653 1.45181,-3.7064 -0.92513,-8.7431 -1.84297,-3.9053 -4.93694,-16.6801 -6.87554,-28.3886 -6.70158,-40.4756 -12.59335,-64.1686 -17.60902,-70.8124 -5.09813,-6.753 -7.14622,-19.9026 -8.09293,-51.96069 -0.35656,-12.07391 0.23169,-15.48958 2.67436,-15.52893 2.02952,-0.0327 4.54067,-5.93542 7.13602,-16.7739 5.26608,-21.99171 3.71023,-42.76224 -4.05318,-54.10978 -6.06699,-8.86797 -18.88286,-35.73312 -21.48436,-45.03645 -0.91858,-3.28496 -4.59068,-9.64081 -8.16021,-14.12411 -5.83992,-7.33484 -6.3796,-9.36913 -5.3873,-20.30706 1.35062,-14.88789 -5.88429,-65.14961 -10.13932,-70.43867 -4.5174,-5.61521 -6.5857,-22.71774 -3.41925,-28.27361 1.81814,-3.19014 2.14463,-9.56432 1.05891,-20.67361 l -1.5697,-16.06143 -9.08011,0.72467 -9.08008,0.72468 -1.1967,16.72346 c -0.96182,13.44105 -0.47237,17.77842 2.49367,22.09833 3.00343,4.37441 3.30901,7.26501 1.64168,15.52893 -1.12675,5.58473 -3.90791,11.76668 -6.18034,13.73766 -4.79887,4.1623 -11.31733,37.8039 -11.91285,61.48189 -0.28626,11.38268 -1.44553,16.1713 -4.91608,20.30706 -2.49781,2.97658 -7.52868,13.66135 -11.17971,23.74392 -3.65103,10.0826 -9.39614,22.87562 -12.7669,28.42893 -8.95631,14.75554 -8.75457,14.23876 -11.12394,28.49467 -2.49271,14.99813 1.73038,39.6391 7.66161,44.70396 2.86935,2.45023 3.15383,6.76749 1.85064,28.08536 -1.75135,28.64902 -2.90261,37.10782 -5.5281,40.61712 -2.51363,3.3599 -14.23952,49.0546 -17.49144,68.1626 -1.45355,8.5409 -4.4862,20.8456 -6.73923,27.3438 -3.47469,10.0217 -3.64643,12.3785 -1.13151,15.5289 5.13843,6.4368 5.90753,13.6123 2.59001,24.1637 -1.76744,5.6214 -2.70153,13.026 -2.07573,16.4546 0.98678,5.4066 -0.40468,7.3849 -10.48436,14.9063 -32.34609,24.1364 -50.06135,33.574 -73.60629,39.2128 -12.6752,3.0356 -25.40328,6.2734 -28.28464,7.1952 -5.04484,1.6139 -5.18683,1.3304 -3.83457,-7.6571 3.21208,-21.3485 6.11644,-27.7838 18.08787,-40.0779 6.56516,-6.7421 14.77443,-17.6338 18.2428,-24.2038 9.14552,-17.3239 21.50176,-30.4825 27.45311,-29.2358 l 4.81883,1.0094 -4.69169,-9.7775 c -4.53796,-9.457 -4.68422,-12.3213 -4.46401,-87.422 0.24281,-82.82116 1.19454,-92.28071 14.25132,-141.64949 4.88137,-18.45685 3.93346,-25.5852 -3.4022,-25.5852 -7.84501,0 -19.52738,-10.00875 -22.2166,-19.03383 -1.85352,-6.22046 -1.70906,-11.52715 0.61811,-22.70659 2.58371,-12.41189 2.5894,-16.50513 0.0382,-27.42899 -2.43622,-10.43113 -2.50204,-15.44836 -0.35096,-26.74363 2.1619,-11.35207 2.11138,-14.67832 -0.2753,-18.12469 -1.60772,-2.32158 -2.95433,-6.08801 -2.99248,-8.36988 -0.0685,-4.10129 17.81163,-86.43595 30.66155,-141.19038 3.64959,-15.55124 6.65108,-31.67743 6.66996,-35.83598 0.0196,-4.15856 1.54803,-12.93639 3.39815,-19.50632 4.84389,-17.20108 21.93552,-55.42461 25.44248,-56.89924 4.09912,-1.72361 5.86486,-16.2982 2.51335,-20.7454 -2.32803,-3.08913 -13.66034,-33.19442 -31.70088,-84.21632 -2.67183,-7.55637 -4.38911,-16.42578 -3.8162,-19.70979 1.47795,-8.47187 -0.54167,-7.34425 -9.25494,5.16729 -4.197,6.02651 -13.24706,18.20647 -20.11124,27.06656 -6.8642,8.86009 -13.47201,18.96727 -14.68402,22.4604 -1.212,3.4931 -3.93531,7.02516 -6.05179,7.84901 -2.11651,0.82385 -8.75375,7.02438 -14.74945,13.77898 -11.52096,12.97923 -31.70493,30.67131 -43.24264,37.90397 -5.15875,3.23386 -9.8057,4.03102 -18.38896,3.15447 -21.34556,-2.1798 -36.02119,-17.96721 -35.1529,-37.81592 0.57135,-13.06131 -14.42811,-47.19442 -22.36497,-50.89423 -4.5286,-2.11102 -6.17045,-7.25485 -14.10746,-44.19771 -4.94032,-22.99476 -10.59809,-46.64651 -12.57281,-52.55945 -1.97472,-5.91294 -3.97241,-11.9193 -4.4393,-13.34747 -1.28522,-3.93131 -40.3268,5.19638 -45.8474,10.71885 -9.43438,9.43757 -17.33177,8.4975 -28.14389,-3.35013 -5.47388,-5.99814 -4.37218,-9.49051 5.31426,-16.84611 7.57152,-5.7496 9.77271,-6.38637 14.8365,-4.29194 7.34863,3.03945 50.40161,-5.3245 50.40161,-9.79159 0,-3.62643 11.42116,-15.65106 14.8656,-15.65106 1.44958,0 4.58791,-1.33601 6.97406,-2.9689 3.20799,-2.19531 5.3279,-2.28501 8.13573,-0.34425 2.90833,2.01023 4.34904,1.79779 6.15429,-0.90748 3.35307,-5.02478 10.14537,-1.94947 14.81145,6.7061 2.5631,4.75455 5.17787,6.88013 7.55756,6.14362 2.00121,-0.61936 17.41289,-4.00325 34.24819,-7.51975 l 30.60964,-6.39365 -4.07442,-17.78909 c -4.35379,-19.00882 -3.17035,-24.70792 5.13069,-24.70792 4.79761,0 6.51101,2.69244 10.76256,16.9123 l 3.27081,10.93963 19.62229,-4.18994 c 10.79226,-2.30447 36.08278,-7.57433 56.20114,-11.7108 30.50534,-6.27209 37.45754,-8.48367 41.87081,-13.31962 3.62975,-3.97738 7.74141,-5.79877 13.09036,-5.79877 9.77301,0 11.03943,-3.3715 6.94346,-18.48507 -3.59025,-13.24755 -2.60563,-42.43742 1.63288,-48.40877 1.39902,-1.97098 3.95683,-6.66966 5.68403,-10.44151 4.7223,-10.31254 21.21819,-25.071385 31.3252,-28.026567 4.92332,-1.439522 11.74752,-4.248101 15.16491,-6.241286 4.63054,-2.70075 7.4077,-2.993552 10.90128,-1.149351 2.5783,1.361041 10.57161,5.310145 17.76292,8.775785 15.68347,7.558179 20.73542,12.422579 31.86501,30.681939 6.17891,10.13721 8.47613,16.39629 8.47613,23.0943 0,5.1004 1.18196,9.61996 2.65671,10.15862 2.055,0.75061 1.97516,3.23323 -0.35255,10.96175 -1.65509,5.49526 -2.56217,10.48127 -2.01573,11.08004 0.91697,1.0048 28.08676,-4.28089 134.88736,-26.24137 22.18409,-4.56153 65.56132,-13.3552 96.39383,-19.54151 l 56.05912,-11.24783 13.99523,5.26303 c 7.697394,2.89466 15.655344,5.26303 17.684354,5.26303 2.33985,0 3.42036,1.52911 2.95431,4.18086 -0.40413,2.29948 -1.30959,3.64333 -2.01211,2.98633 -0.70255,-0.65699 -6.87415,4.04492 -13.71472,10.4487 l -12.437374,11.64324 -37.49142,7.67624 c -20.62028,4.22194 -44.35922,8.94099 -52.7532,10.48678 -47.30546,8.71152 -83.89875,15.8026 -128.63502,24.92698 l -50.14586,10.22773 -0.63356,19.65501 c -0.61213,18.98974 -0.45122,19.73097 4.75379,21.89945 3.94966,1.64548 8.61342,1.00198 17.47607,-2.41133 26.10484,-10.05385 54.19382,-1.73026 69.81559,20.68841 6.94753,9.97032 12.70706,28.42728 11.57109,37.08063 -0.54934,4.18467 48.36195,45.08316 53.91582,45.08316 8.03707,0 42.24989,-35.43678 58.81703,-60.92118 2.07556,-3.19274 3.83533,-3.98544 5.30369,-2.38907 3.45346,3.75452 17.04551,63.39802 23.13871,101.5353 24.28521,152.00047 20.10764,297.8343 -15.39837,537.53982 -6.84332,46.20018 -7.15193,47.78131 -9.32608,47.78131 -0.97846,0 -8.53782,-9.94448 -16.79858,-22.09886 -8.26077,-12.15437 -24.36576,-35.1297 -35.78886,-51.05632 -11.4231,-15.92661 -26.65597,-37.87809 -33.85081,-48.78104 -15.01044,-22.74663 -59.8165,-92.85002 -63.54664,-99.4248 -1.69495,-2.98755 -3.24077,-3.63465 -4.80236,-2.01028 -1.61617,1.68114 -1.56322,7.12685 0.1777,18.2631 1.92427,12.30973 1.8618,18.73663 -0.27855,28.66245 -2.04752,9.49537 -2.1653,15.56704 -0.45672,23.54554 4.83162,22.56191 1.96384,33.59877 -10.64272,40.95917 -12.56119,7.33393 -14.10514,16.53819 -7.90303,47.11379 2.83459,13.97422 6.27567,34.0083 7.64681,44.52019 3.25664,24.96722 6.48883,156.98719 4.17821,170.66139 -1.71906,10.1733 -1.48815,10.8666 5.81673,17.4646 4.18375,3.7789 11.1537,13.8205 15.48874,22.3147 4.45243,8.7242 12.44732,19.6624 18.37451,25.1389 11.05756,10.2168 19.04928,26.3613 20.10051,40.6058 0.65962,8.9381 -1.92545,10.3274 -12.49643,6.7164 z m -32.8553,-847.49225 6.38928,-1.87313 -6.72585,-5.24789 c -3.69921,-2.88635 -8.77358,-5.24792 -11.27638,-5.24792 -2.50278,0 -5.78524,-2.24171 -7.29433,-4.98156 -1.50908,-2.73985 -7.42455,-7.60719 -13.14547,-10.8163 -8.74404,-4.90488 -10.60062,-5.26672 -11.64991,-2.27043 -0.68652,1.96037 0.90598,6.87932 3.53888,10.931 3.75952,5.78544 4.47131,9.21105 3.31604,15.95894 l -1.47102,8.59223 15.96474,-1.58591 c 8.7806,-0.87225 18.83991,-2.42882 22.35402,-3.45903 z m -368.99616,-41.635 c 21.50921,-30.27844 22.43976,-32.07072 21.39703,-41.21138 -0.94477,-8.2821 -1.81687,-9.55627 -6.54076,-9.55627 -4.99139,0 -5.79712,-1.56 -9.56293,-18.51526 -4.03031,-18.1461 -4.24766,-18.51616 -10.90128,-18.56051 -3.73393,-0.0249 -16.15862,1.79767 -27.6104,4.05014 l -20.82144,4.09539 -0.0389,7.29792 c -0.0214,4.01386 -3.06476,12.58235 -6.76307,19.04108 l -6.72421,11.74315 22.22837,32.45456 c 13.29925,19.41761 21.90723,34.13402 21.42894,36.63544 -0.43969,2.29948 -0.29973,4.18087 0.31101,4.18087 0.61075,0 11.22967,-14.24481 23.59761,-31.65513 z m 33.9335,-78.30956 c 5.89822,-7.92922 6.18224,-10.18986 1.09013,-8.67712 -2.0985,0.62341 -6.5835,1.81067 -9.96669,2.63835 -5.62203,1.37541 -6.02202,2.16527 -4.64917,9.18105 2.14325,10.95303 3.6173,12.78665 6.28214,7.81467 1.28591,-2.39921 4.54552,-7.32984 7.24359,-10.95695 z m 80.21878,-16.82322 c 0.79305,-1.40607 3.54902,-3.48808 6.12438,-4.6267 4.50116,-1.99006 4.47142,-2.07481 -0.76817,-2.18902 -2.99785,-0.0653 -7.67881,0.53536 -10.40217,1.3349 -3.91471,1.14932 -4.42947,2.14298 -2.45834,4.74551 2.99087,3.94893 5.55031,4.19971 7.5043,0.73531 z"
       style="fill:#000000;stroke-width:2.28227" />
  </g>
</svg>
