<?xml version="1.0" encoding="UTF-8" standalone="no"?>
<svg
   xmlns:dc="http://purl.org/dc/elements/1.1/"
   xmlns:cc="http://creativecommons.org/ns#"
   xmlns:rdf="http://www.w3.org/1999/02/22-rdf-syntax-ns#"
   xmlns:svg="http://www.w3.org/2000/svg"
   xmlns="http://www.w3.org/2000/svg"
   xmlns:sodipodi="http://sodipodi.sourceforge.net/DTD/sodipodi-0.dtd"
   xmlns:inkscape="http://www.inkscape.org/namespaces/inkscape"
   version="1.1"
   id="svg261"
   width="1238.4025"
   height="1271.1749"
   viewBox="0 0 1238.4025 1271.1749"
   sodipodi:docname="пейнтболл.svg"
   inkscape:version="1.0 (4035a4fb49, 2020-05-01)">
  <metadata
     id="metadata267">
    <rdf:RDF>
      <cc:Work
         rdf:about="">
        <dc:format>image/svg+xml</dc:format>
        <dc:type
           rdf:resource="http://purl.org/dc/dcmitype/StillImage" />
        <dc:title></dc:title>
      </cc:Work>
    </rdf:RDF>
  </metadata>
  <defs
     id="defs265" />
  <sodipodi:namedview
     inkscape:document-rotation="0"
     pagecolor="#ffffff"
     bordercolor="#666666"
     borderopacity="1"
     objecttolerance="10"
     gridtolerance="10"
     guidetolerance="10"
     inkscape:pageopacity="0"
     inkscape:pageshadow="2"
     inkscape:window-width="1920"
     inkscape:window-height="1018"
     id="namedview263"
     showgrid="false"
     inkscape:zoom="0.65625"
     inkscape:cx="599.29199"
     inkscape:cy="604.68989"
     inkscape:window-x="-6"
     inkscape:window-y="-6"
     inkscape:window-maximized="1"
     inkscape:current-layer="g269" />
  <g
     transform="translate(-20.208014,-35.310106)"
     inkscape:groupmode="layer"
     inkscape:label="Image"
     id="g269">
    <path
       id="path8"
       d="m 523.65111,1306.0264 c -14.0722,-1.2983 -19.7299,-2.8571 -31.3416,-8.6349 -7.6371,-3.8 -12.2827,-6.8406 -15.1958,-9.9455 -15.7364,-16.7726 -29.8637,-51.2957 -34.7457,-84.9087 l -1.3056,-8.9896 -0.1177,8 c -0.1638,11.137 1.601,34.2992 3.4087,44.7369 2.9665,17.129 7.9801,29.6205 16.1119,40.1431 l 4.5441,5.8801 -3.35,-0.625 c -12.7881,-2.386 -30.134,-3.9921 -76.8499,-7.1158 -17.082,-1.1422 -23.3494,-1.9696 -30.5,-4.0263 -26.8759,-7.7304 -48.3057,-18.411 -62.425,-31.1127 l -5.4249,-4.8803 -11.5751,-0.1115 c -6.8936,-0.066 -14.2201,-0.7633 -18.1152,-1.7232 -13.8135,-3.404 -32.1955,-10.2219 -45.0364,-16.704 -4.0959,-2.0676 -7.3292,-2.9613 -10.7134,-2.9613 -10.3499,0 -18.5245,-4.3759 -21.1485,-11.3207 -0.5862,-1.5514 -1.5102,-7.8514 -2.0535,-14 -0.5432,-6.1486 -1.4423,-12.7513 -1.9978,-14.6727 -0.5556,-1.9214 -1.0102,-5.0215 -1.0102,-6.8893 v -3.3959 l -4.8853,0.5786 -4.8852,0.5786 -1.6148,-5.7549 c -0.8881,-3.1652 -1.6147,-6.0593 -1.6147,-6.4313 0,-0.3721 3.15,-2.7711 7,-5.3311 3.85,-2.5601 7,-5.0161 7,-5.4577 0,-0.4416 -2.7,-1.3341 -6,-1.9834 -3.3,-0.6492 -6,-1.4958 -6,-1.8813 0,-0.3855 1.1676,-1.3258 2.5946,-2.0895 l 2.5946,-1.3886 -2.8446,-0.7614 c -1.886,-0.5048 -5.5406,-0.044 -10.8446,1.3666 -6.8911,1.833 -8.8849,2.9046 -14.384,7.731 -12.5624,11.0256 -13.0733,11.3833 -14.5292,10.175 -1.5592,-1.294 -2.5868,0.4828 -2.5868,4.4728 0,1.3096 -0.948,4.7603 -2.1066,7.6682 -2.1994,5.5201 -4.7985,18.043 -4.8585,23.4092 -0.032,2.8398 0.3043,3.1782 3.7151,3.7412 11.0576,1.8254 17.4613,6.1278 21.6908,14.5731 3.9229,7.8334 5.0489,14.5467 4.8724,29.0508 -0.1,8.213 0.2472,13.983 0.8878,14.7549 1.1157,1.3443 -1.7871,17.8839 -3.3031,18.8209 -1.0526,0.6505 -20.3825,-1.1702 -43.8979,-4.1347 -31.179496,-3.9308 -34.512696,-4.7234 -46.211096,-10.9887 -5.6589,-3.0307 -11.0566,-6.282 -11.9949,-7.225 -1.9263,-1.9361 -9.43,-18.4108 -14.2373,-31.2589 -3.18387,-8.5092 -3.1898,-8.5603 -1.451,-12.5 2.3572,-5.3406 2.309,-5.6479 -0.82755,-5.2774 -2.53151,0.2991 -2.80205,-0.038 -3.86833,-4.8198 -2.86034,-12.8272 -2.94975,-12.0916 1.56225,-12.8539 3.99243,-0.6745 4.02793,-0.7193 4.02793,-5.0926 0,-4.3875 -0.02,-4.4121 -3.54989,-4.4121 h -3.54991 l 0.29991,-5.75 c 0.2965,-5.6847 0.33678,-5.7536 3.5499,-6.0634 2.99379,-0.2886 3.24999,-0.5917 3.24999,-3.8436 0,-2.6892 -0.4764,-3.6548 -1.99999,-4.0533 -1.6929,-0.4427 -2,-1.364 -2,-6 0,-4.5325 0.32639,-5.5623 1.89271,-5.9719 2.20488,-0.5766 3.76148,-6.2955 2.00838,-7.379 -1.2834,-0.7931 -0.2397,-11.0695 1.2184,-11.9969 0.4826,-0.3069 1.3201,-3.0069 1.8611,-6 1.361,-7.5294 3.1414,-39.2363 2.2483,-40.0401 -0.4009,-0.3608 -3.0914,-1.4224 -5.9789,-2.3592 -2.88749,-0.9369 -5.24999,-1.824 -5.24999,-1.9715 0,-1.2117 5.56429,-25.0296 7.60919,-32.5711 2.9647,-10.9334 9.6869,-28.4822 15.8971,-41.5 4.5227,-9.48084 10.812,-17.57914 15.5586,-20.03364 6.2565,-3.2353 28.2786,-0.9794 37.5912,3.8508 2.448696,1.2701 5.922996,1.6223 15.499996,1.5712 12.5293,-0.067 23.1404,1.5148 33.3439,4.9697 6.1254,2.0741 23.2419,13.89124 24.1047,16.64194 2.2858,7.2866 10.4449,12.2962 25.3018,15.5349 6.1545,1.3417 10.3651,2.8572 12.1793,4.3838 4.3586,3.6676 18.5127,4.5746 22.5172,1.4429 0.6067,-0.4744 5.1067,-1.146 10,-1.4923 8.8354,-0.6254 8.9663,-0.6003 18.897,3.6214 23.4591,9.9728 35.2851,17.0117 45.689,27.1943 11.8902,11.6372 15.8487,14.5908 24.491,18.2736 32.7199,13.9432 54.2362,27.4027 69.8904,43.7198 4.3909,4.5769 9.424,10.7966 11.1845,13.8216 3.5112,6.033 3.8942,5.3903 1.8821,-3.1581 -1.566,-6.6537 -5.8708,-12.8842 -14.7899,-21.4065 -8.2109,-7.8455 -15.1241,-12.4573 -32.8709,-21.9282 -14.306,-7.6347 -22.8609,-13.314 -48.7334,-32.3521 -7.2914,-5.3654 -18.0914,-12.757 -24,-16.4258 -12.639,-7.8479 -23.6581,-17.3119 -36.7127,-31.5318 -29.009,-31.59814 -69.1446,-84.65926 -78.4372,-103.69758 -8.0747,-16.54312 -11.012,-27.72852 -11.4234,-43.5 l -0.1695,-6.5 -5.8639,-3.90048 c -7.1196,-4.73571 -8.3106,-7.24772 -9.639,-20.33052 -1.9784,-19.48269 -3.3833,-23.46186 -8.9712,-25.40982 -2.1576,-0.75214 -4.1045,-3.04563 -7.377,-8.69049 -8.2419,-14.21653 -13.2436,-27.90091 -18.1542,-49.66869 -3.6573,-16.21262 -4.3463,-27.28511 -2.0188,-32.44646 1.2804,-2.83954 1.5585,-4.94673 1.0197,-7.72873 -0.4073,-2.10365 -0.721,-6.74981 -0.697,-10.32481 0.024,-3.575 -4.0327,-39.125 -9.0147,-79 -9.993296,-79.9843 -10.604696,-88.70447 -6.887796,-98.23554 7.675396,-19.68123 23.740696,-30.67924 43.171596,-29.5544 6.4572,0.3738 9.1845,1.09676 14.9688,3.96797 l 7.073,3.51089 1.3366,-2.59446 c 3.0748,-5.96844 4.6967,-14.65795 6.084,-32.59446 1.7374,-22.46454 3.8998,-34.64146 9.9654,-56.11713 2.4673,-8.73558 6.5599,-25.10608 9.0946,-36.37889 7.34,-32.64321 9.9111,-39.3787 26.3408,-69.00398 2.8977,-5.225 7.344,-12.425 9.8807,-16 6.7475,-9.50918 22.0994,-24.96884 34.7618,-35.00583 6.0904,-4.82758 13.3641,-11.34744 16.1637,-14.48856 12.8562,-14.42429 22.8191,-19.04718 55.8657,-25.92209 19.0272,-3.95836 22.3267,-5.33413 25.2448,-10.52614 4.9114,-8.73864 13.5973,-13.05738 26.2611,-13.05738 6.5785,0 6.8224,-0.093 9.8388,-3.75 3.3945,-4.11544 7.0525,-12.86924 7.0525,-16.87719 0,-1.67929 -1.8795,-4.65906 -5.4955,-8.71248 -3.8208,-4.28298 -5.4969,-6.9964 -5.5,-8.90379 -0.01,-5.60435 5.1781,-29.04042 10.4717,-47.31067 3.0042,-10.368733 5.7484,-20.760533 6.0981,-23.092903 l 0.636,-4.24066 19.1448,-12.38541 c 25.2234,-16.31778 26.7099,-17.13302 36.6449,-20.097171 22.4293,-6.691873 39.5747,-8.535085 62.2754,-6.694904 17.0871,1.385135 24.9654,3.602725 53.2246,14.981885 14.0913,5.67415 15.3123,6.38361 20.1552,11.71135 l 5.1553,5.67131 5.5507,-0.57289 c 7.0131,-0.72382 7.2934,-0.52754 31.2079,21.85896 25.0315,23.432133 47.8737,41.090923 62.9309,48.650533 4.4,2.20906 8.2844,4.46278 8.632,5.00826 1.0962,1.72045 -0.643,6.04888 -3.1858,7.92855 -5.0673,3.74579 -22.4726,4.83882 -44.8882,2.81893 -5.7432,-0.51752 -10.6711,-0.71191 -10.9511,-0.43197 -0.2799,0.27993 -1.4587,9.38101 -2.6196,20.22461 -1.5095,14.09981 -2.4578,19.64157 -3.3292,19.45558 -0.6702,-0.14303 -2.4424,0.38108 -3.9383,1.16469 -5.1316,2.68815 -9.1712,8.08617 -12.8166,17.12663 -1.9844,4.92114 -4.4675,10.15475 -5.5182,11.63026 -3.0124,4.23051 -9.5702,6.22661 -18.2897,5.56715 -12.7201,-0.96202 -25.6988,-7.43963 -38.2242,-19.07744 l -7.3711,-6.84878 v -26.50821 c 0,-23.76118 -0.1639,-26.44531 -1.5818,-25.90122 -0.87,0.33385 -1.77,0.60699 -2,0.60699 -0.23,0 -0.4182,11.88513 -0.4182,26.41141 v 26.41141 l 6.75,6.23386 c 14.7352,13.60844 25.2166,19.77382 38.3441,22.55478 8.4314,1.78614 16.04,1.36779 21.4023,-1.17676 5.1338,-2.43615 9.7314,-8.97506 13.9306,-19.81273 3.7568,-9.69568 9.5897,-17.9712 11.3635,-16.12197 0.5275,0.55 1.7431,5.95 2.7013,12 0.9582,6.05 2.7683,14.17809 4.0223,18.06243 1.2541,3.88434 2.5783,10.63434 2.9428,15 0.3644,4.36566 0.8755,9.07934 1.1356,10.47485 0.4032,2.16312 -0.042,2.72333 -3.0164,3.79903 -4.6307,1.67449 -12.7904,7.78123 -25.5761,19.14123 -13.2101,11.7371 -20.6325,16.59677 -27.5386,18.03047 -11.6849,2.42578 -22.2411,-2.66097 -65.4614,-31.5442 -31.0239,-20.73266 -42.3944,-27.77935 -65.9812,-40.89096 -12.6339,-7.02304 -28.9463,-14.57285 -31.4865,-14.57285 -0.988,0 -0.5414,8.67474 0.6229,12.10078 1.1593,3.41147 5.8659,10.8379 6.894,10.87787 0.3021,0.0117 0.3565,-1.6297 0.1209,-3.64764 -0.3193,-2.73509 0.035,-4.00779 1.3919,-5 7.7465,-5.66437 31.2226,6.13244 88.9102,44.67755 41.5915,27.79014 51.8093,33.19144 62.7895,33.19144 9.6693,0 16.2788,-4.1257 37.5542,-23.44159 7.6362,-6.93287 18.1647,-13.75841 21.2226,-13.75841 1.9876,0 0.4605,15.12568 -2.4735,24.5 l -2.5039,8 3.2195,5.31784 c 1.7707,2.92481 5.8069,8.23382 8.9694,11.7978 3.1625,3.56398 5.75,6.83871 5.75,7.27717 0,0.43847 -0.7875,1.49473 -1.75,2.34726 -2.268,2.00884 -20.0716,12.75993 -21.1302,12.75993 -0.4454,0 -1.6243,0.9 -2.6198,2 -2.1001,2.32064 -0.893,2.6118 1.9411,0.4682 2.6728,-2.02155 4.429,-1.85785 10.9345,1.01919 3.0934,1.36806 5.6244,2.23664 5.6244,1.93018 0,-0.30647 -1.3465,-2.51428 -2.9922,-4.90625 l -2.9922,-4.34904 4.4738,-2.50046 c 4.3839,-2.45019 20.41,-15.12213 29.4467,-23.28367 5.9237,-5.34997 27.0759,-20.19636 36.9419,-25.92887 4.2459,-2.46702 12.0574,-6.03582 17.3589,-7.93066 11.8488,-4.23491 33.4351,-9.85845 35.2173,-9.17457 0.7214,0.27684 2.7144,2.95496 4.4288,5.95138 3.1185,5.45063 4.0721,11.64935 2.2375,14.54391 -0.4669,0.73664 -4.3914,2.08674 -8.7211,3.00023 -9.5906,2.02348 -10.681,3.88342 -3.7767,6.44232 2.5751,0.9544 9.001,2.23528 14.2797,2.84639 5.2787,0.61111 10.1404,1.54598 10.8038,2.0775 0.6634,0.53152 1.5634,0.74675 2,0.47829 1.0236,-0.62941 0.9329,11.26171 -0.1377,18.06593 -0.7286,4.63002 -0.6217,5.25 0.9053,5.25 0.9523,0 5.5652,1.79654 10.2509,3.99231 7.0273,3.29314 9.1948,3.88429 12.3764,3.37553 5.7298,-0.91622 7.0959,-2.36216 7.6466,-8.09351 l 0.4863,-5.06143 -5.867,-4.69469 c -3.2268,-2.58208 -9.2941,-6.38288 -13.4828,-8.44623 -6.265,-3.08613 -7.3292,-3.93895 -6,-4.80819 1.2683,-0.82939 1.3561,-1.3279 0.4082,-2.31784 -0.9716,-1.01472 -1.509,-1.01103 -2.75,0.0189 -1.2741,1.05742 -1.5424,1.01723 -1.5424,-0.23109 0,-1.54409 -1.9531,-2.0922 -11.5,-3.22725 -2.75,-0.32696 -6.575,-0.85889 -8.5,-1.18208 l -3.5,-0.58761 3,-1.3233 c 1.65,-0.72781 4.0125,-1.34359 5.25,-1.3684 1.3133,-0.0263 2.25,-0.66958 2.25,-1.5451 0,-0.825 0.1924,-1.5 0.4276,-1.5 4.4426,0 33.164,-5.07551 43.0724,-7.61156 7.3696,-1.88622 9.9964,-3.51396 12.036,-7.45813 1.4626,-2.82826 1.4422,-3.28359 -0.2796,-6.24058 -3.4492,-5.92363 -4.4369,-6.0489 -33.5774,-4.25873 -14.3985,0.88453 -27.1915,1.60445 -28.429,1.59982 -1.2375,-0.005 -2.25,0.42242 -2.25,0.949 0,0.52657 -0.6385,0.71239 -1.4189,0.41293 -0.7804,-0.29947 -7.1422,0.1933 -14.1373,1.09503 -15.1328,1.95076 -27.5513,6.07377 -40.5433,13.46059 -10.2912,5.85131 -12.6007,6.24607 -13.465,2.30163 -1.0735,-4.89944 -1.3363,-5.25 -3.9355,-5.25 -1.4095,0 -2.8175,-0.66387 -3.1289,-1.47526 -0.4964,-1.29357 -0.9116,-1.29661 -3.3711,-0.0247 -2.5027,1.29418 -2.8717,1.27684 -3.4233,-0.16086 -0.5671,-1.47767 -0.7684,-1.47561 -2.4263,0.0247 -3.8761,3.50784 -4.8085,2.23358 -5.5007,-7.5175 -0.8777,-12.36594 -0.8177,-19.8464 0.1592,-19.8464 0.4449,0 1.6705,0.63004 2.7236,1.40009 1.6141,1.18026 2.2179,1.18772 3.8457,0.0476 1.2771,-0.89453 2.5041,-1.04581 3.6235,-0.44675 2.1556,1.15362 8.9983,-0.84901 8.9983,-2.6335 0,-1.7403 3.2252,-3.36665 6.6843,-3.37066 2.4849,-0.003 3.3896,-1.00575 7.7007,-8.53708 2.6868,-4.69359 5.6682,-8.95292 6.6253,-9.46518 0.9572,-0.51226 7.2138,-9.03906 13.9037,-18.94846 6.6899,-9.9094 13.1232,-18.53072 14.2962,-19.15849 2.4464,-1.30929 67.661,0.60304 73.7898,2.16379 3.3015,0.84073 10.7001,6.93419 34.3944,28.32692 l 7.6183,6.87824 10.7436,-0.64669 c 14.8042,-0.89112 71.3283,4.25183 74.0778,6.74009 2.8975,2.62221 3.3864,1.99684 2.8144,-3.59988 -0.2952,-2.8875 -1.0593,-11.58745 -1.698,-19.33321 -1.1384,-13.80543 -1.1167,-14.17033 1.1028,-18.5 2.9771,-5.80774 2.7727,-13.00992 -0.511,-18.00703 -2.0455,-3.11284 -2.7756,-3.52914 -5.4902,-3.13071 -3.5711,0.52413 -6.2224,-1.36168 -8.0218,-5.70588 -0.9541,-2.30344 -2.1314,-3.00048 -6.8414,-4.05041 -14.0708,-3.13663 -32.9071,-11.96171 -52.0614,-24.39151 -9.8622,-6.39988 -10.0997,-6.49183 -13.0142,-5.03786 -3.2369,1.61475 -7.306,1.08427 -9.2014,-1.19957 -0.6925,-0.83442 -0.9693,-3.19188 -0.6781,-5.77532 0.5527,-4.90375 -1.3649,-10.61854 -3.5631,-10.61854 -0.7842,0 -1.9412,-0.62104 -2.5712,-1.38009 -1.9442,-2.34262 14.6043,-24.470243 32.9005,-43.992453 8.7139,-9.29786 19.642,-18.627458 21.8189,-18.627458 1.1197,0 2.1182,1.167151 2.7243,3.184293 1.9747,6.571875 10.4568,5.514045 10.4568,-1.304097 0,-1.82159 0.7309,-3.200993 2.0781,-3.922016 3.5479,-1.898736 4.9219,-0.509791 4.9219,4.975251 0,6.035327 0.5188,6.400577 11.5,8.095607 11.6,1.79056 36.3682,1.51462 56.49999,-0.62944 9.625,-1.02507 23.575,-1.85922 31,-1.85366 12.1742,0.009 14.2857,0.28375 21.5,2.79642 18.5429,6.45828 28.6602,13.14521 35.4905,23.45709 3.3553,5.06557 3.8995,10.14467 1.6587,15.48267 -2.3608,5.62401 -10.6939,16.666493 -18.0405,23.906113 -14.7791,14.56393 -47.1009,32.34897 -62.5026,34.39209 -4.4641,0.59217 -5.1061,0.96636 -5.1061,2.97593 0,2.89363 -4.3934,6.44375 -7.9743,6.44375 -3.35559,0 -4.96169,3.07771 -6.00129,11.5 -0.6657,5.39362 -0.5084,6.2784 1.557,8.75475 2.52099,3.02275 3.04709,5.98476 3.90469,21.98514 0.4576,8.53718 0.2617,11.34708 -0.9552,13.70034 -1.85709,3.59135 -2.03629,10.95329 -0.2809,11.54112 0.6875,0.23021 10.925,1.00359 22.75,1.71861 l 21.5,1.30004 1.4807,3.36689 1.4807,3.36689 28.5193,-0.71239 c 123.637,-3.08836 124.6164,-3.12579 127.0881,-4.85702 3.006,-2.10547 9.7937,-2.14939 12.7447,-0.0825 1.9539,1.36857 4.6719,1.48517 20.1548,0.86463 l 17.8964,-0.71728 2.1309,3.38538 c 1.74,2.76453 2.0437,4.4534 1.6557,9.20925 -0.7803,9.56596 -1.0176,9.67612 -20.8468,9.67612 -15.9425,0 -17.0554,0.12565 -19.9288,2.25 -3.8525,2.84829 -10.7666,3.06373 -13.6809,0.4263 -1.9452,-1.76039 -4.3706,-1.76823 -69.855,-0.22586 -37.3119,0.87882 -72.0222,1.85547 -77.1341,2.17035 l -9.2944,0.57251 -0.5979,2.9896 c -0.7206,3.6032 -2.6502,4.50014 -11.4651,5.32945 -6.4032,0.6024 -6.8189,0.81005 -11.1249,5.55672 -3.3775,3.72313 -5.1774,4.93185 -7.3483,4.93467 l -2.8751,0.004 3.1213,1.90327 c 4.641,2.82999 5.1014,7.14384 1.7937,16.80734 -1.4649,4.28005 -3.0725,8.56756 -3.5723,9.52779 -0.6541,1.25674 -0.2997,2.56959 1.265,4.68585 1.2748,1.72428 2.3723,5.00803 2.6541,7.9413 0.4213,4.38439 0.026,5.81432 -3.205,11.59186 l -3.6857,6.59052 2.0645,3.34033 c 1.1354,1.83718 2.064,4.41221 2.0636,5.72229 -9e-4,2.87422 -5.2072,14.14813 -8.5733,18.56525 -1.3343,1.7508 -2.4327,4.4508 -2.441,6 -0.027,5.13295 -2.5575,10.34313 -6.57529,13.54042 -8.0721,6.42362 -12.8049,11.60578 -20.9887,22.98158 -9.3426,12.98649 -9.5454,13.72579 -7.0088,25.54914 1.4903,6.9464 0.4334,14.63373 -3.4418,25.03309 -1.0837,2.90813 -1.9703,6.17958 -1.9703,7.26987 0,1.0903 -1.0913,3.71107 -2.4251,5.82393 -2.8544,4.52169 -8.3379,7.08817 -15.3451,7.18208 -5.5428,0.0743 -3.5495,1.24403 4.0202,2.35932 3.5293,0.51998 4.7444,1.13384 4.728,2.38856 -0.046,3.50896 -3.8988,9.8827 -9.217,15.24612 -6.2246,6.27761 -8.014,9.31342 -10.793,18.31066 -2.6658,8.63087 -6.5611,13.59843 -15.6976,20.0185 -10.4536,7.34556 -13.4383,10.69095 -17.9445,20.11345 -2.3261,4.86396 -5.5118,9.61788 -8.1266,12.1272 l -4.3008,4.12719 6.5747,1.24055 c 23.6988,4.47165 44.7475,25.47747 54.1153,54.00506 2.5178,7.66747 2.7971,9.9202 2.8513,23 0.038,9.26061 -0.3946,15.77964 -1.1985,18.0414 -1.1675,3.28467 -0.8889,4.66206 3.8429,19 9.4162,28.532 18.2616,67.20177 23.8941,104.4586 1.1641,7.7 2.8272,17.15 3.6958,21 2.839,12.584 11.3944,35.72689 18.29899,49.5 3.7222,7.425 7.5194,16.10756 8.4382,19.29457 0.9188,3.18701 3.305,9.48701 5.3028,14 1.9978,4.51299 3.5807,9.01458 3.5177,10.00355 -0.063,0.98896 1.4336,5.41562 3.326,9.83702 3.373,7.8804 3.4281,8.2329 2.796,17.8785 l -0.6448,9.8396 -3.5521,2.32338 c -2.2387,1.46429 -5.4239,5.46629 -8.6144,10.82339 l -5.0623,8.5 -7.9901,1 -7.99009,1 4.7018,3.2649 c 2.586,1.7956 6.63599,4.1078 8.99999,5.138 11.2921,4.9211 18.6774,13.601 19.5061,22.9254 l 0.504,5.67174 -6.0533,4.2473 -6.0533,4.2474 -3.5527,-2.0961 c -3.4232,-2.02 -3.5526,-2.0271 -3.5526,-0.1947 0,1.0459 -1.816,5.657 -4.0356,10.2469 l -4.03569,8.3451 1.63819,8.0317 c 1.3673,6.7041 2.4111,9.0526 6.3149,14.2094 3.1342,4.1402 5.4723,8.7147 7.0888,13.869 2.2858,7.2886 2.8076,8.04 9.9707,14.3578 4.1573,3.6666 12.0052,10.9572 17.4397,16.2013 8.1665,7.8803 10.455,10.7791 13.189,16.7063 2.6824,5.8152 4.3468,7.9558 8.8005,11.3184 3.0209,2.2808 7.2794,6.5136 9.4633,9.4061 l 3.9708,5.2593 12.7157,3.3499 c 11.4035,3.0043 13.4843,3.9114 20.165,8.7903 6.8816,5.0255 8.0351,5.51 15.1321,6.3556 4.2254,0.5034 12.4417,1.0342 18.2584,1.1795 9.2069,0.2299 11.3069,0.6218 16.2242,3.0277 9.5759,4.685 16.5559,14.9265 20.414,29.9528 1.3456,5.2409 2.3408,7.2093 4.036,7.9829 1.486,0.6782 2.2524,1.9062 2.2571,3.6164 0,1.4242 0.2853,5.5344 0.6254,9.1337 l 0.6183,6.5441 -6.8754,3.1539 c -13.7769,6.3196 -30.4815,9.7195 -55.9926,11.3963 -19.591,1.2877 -27.9872,0.6832 -28.8637,-2.0782 -0.3618,-1.14 -1.9483,-2.0347 -4.2964,-2.4229 -5.89,-0.9737 -7.0459,-0.7697 -7.7227,1.3626 -0.5054,1.5922 -1.513,2 -4.9424,2 -6.046,0 -10.5576,-1.0401 -10.5576,-2.4339 0,-2.5159 -2.6921,-4.38 -7.2514,-5.021 -4.4858,-0.6307 -4.8076,-0.5201 -5.7581,1.9799 -0.9323,2.4521 -1.3206,2.6007 -5.2486,2.008 -9.0313,-1.3627 -9.1356,-1.4226 -12.8243,-7.3637 l -3.5824,-5.7699 -24.8209,-2.7464 c -13.65149,-1.5105 -25.13819,-2.3878 -25.52589,-1.9497 -0.3877,0.4382 -1.2796,3.6065 -1.982,7.0407 -2.0574,10.0586 -1.5347,9.7921 -18.6865,9.5263 -8.1509,-0.1264 -26.2949,-0.6834 -40.3199,-1.2379 -22.9684,-0.9081 -26.3439,-1.2673 -34,-3.6176 -11.1812,-3.4325 -15.7766,-6.0427 -16.4154,-9.3239 -0.2775,-1.425 -1.0413,-6.9098 -1.6974,-12.1885 l -1.193,-9.5976 3.2819,-4.7701 3.2819,-4.7701 -3.0893,-7.1323 c -3.8921,-8.9855 -4.721,-16.6604 -3.2163,-29.7793 2.4365,-21.244 3.7999,-25.2214 14.5402,-42.4176 l 9.7033,-15.536 0.1787,-25.1997 c 0.1658,-23.3891 0.015,-25.8099 -2.098,-33.6927 -1.645,-6.1368 -2.2766,-11.2449 -2.2766,-18.4121 0,-9.04214 -0.2432,-10.32494 -2.75,-14.50714 -2.0199,-3.3699 -2.75,-5.9129 -2.75,-9.5793 v -4.9915 l -3.5213,0.2984 c -2.7536,0.2333 -5.6525,-0.9086 -13.2967,-5.2376 -8.6644,-4.9069 -16.1796,-8.4458 -24.9185,-11.7343 -2.0522,-0.7723 -3.0038,-2.0693 -3.8052,-5.1867 -2.1669,-8.4289 -4.121,-13.28873 -7.502,-18.65684 -5.6678,-8.99911 -7.3843,-13.33788 -8.527,-21.55307 -1.1868,-8.53333 -4.1597,-15.15773 -17.5794,-39.17214 -8.4804,-15.17539 -12.2936,-24.18518 -15.8368,-37.4187 -5.1426,-19.20702 -5.5266,-38.91003 -1.0173,-52.19186 0.8946,-2.63521 1.4866,-5.77521 1.3154,-6.97776 -0.4181,-2.9375 -7.9568,-6.68647 -13.4455,-6.68647 -3.9884,0 -4.2731,0.19791 -5.3948,3.75 -4.0026,12.67469 -23.5446,42.12777 -42.6297,64.25 -7.3753,8.54893 -8.8387,9.7509 -19.8412,16.29631 -9.3741,5.57669 -25.4589,19.00518 -44,36.73374 -18.9886,18.15643 -35.0175,30.64359 -51.7627,40.32521 -17.7712,10.27478 -37.8184,17.64478 -47.9961,17.64478 -7.9105,0 -15.011,-5.8107 -21.6105,-17.6848 l -3.2321,-5.81524 0.3499,3.75 c 0.1924,2.0625 0.1028,3.7262 -0.1993,3.6971 -0.3021,-0.0291 -3.2492,-3.50507 -6.5492,-7.72439 -7.5243,-9.62051 -41.992,-44.33305 -54.0646,-54.44861 -10.6066,-8.88734 -23.3684,-18.18554 -28.6854,-20.90016 -3.5328,-1.80371 -3.7492,-1.81207 -3.7356,-0.14426 0.01,1.07211 1.9038,2.81184 4.8049,4.41111 17.8917,9.86288 54.5857,48.72264 87.9742,93.16665 13.7968,18.3653 21.4353,31.1406 28.2167,47.1926 6.3823,15.10714 13.2184,28.94204 19.5178,39.50004 10.6072,17.7778 16.3923,31.1101 23.5094,54.1797 3.777,12.243 14.8954,56.0846 16.5381,65.2124 0.3882,2.1572 3.1295,7.5062 6.15,12 8.8617,13.1845 9.0501,13.7343 10.4221,30.4082 4.6413,56.4079 -15.2189,91.0117 -58.6476,102.186 -12.8799,3.314 -45.0565,5.4318 -60.6584,3.9924 z M 1013.88,997.35716 c 1.2207,-5.9686 -7.4117,-20.3095 -12.2252,-20.3095 -1.6255,0 -1.85859,0.7156 -1.71039,5.25 0.13979,4.2763 0.88609,6.3078 4.02399,10.9534 5.6867,8.41914 8.7684,9.69584 9.9116,4.1061 z M 468.91701,783.76253 c -1.2219,-1.23355 -27.0769,-7.50862 -36.6267,-8.88937 -6.4039,-0.92591 -8.2619,-1.51465 -7.2154,-2.28628 1.3409,-0.98867 2.0448,-7.50428 0.8179,-7.57097 -0.3208,-0.0174 -5.0833,-0.68317 -10.5833,-1.4794 -30.4729,-4.41152 -69.6553,-2.30568 -112.3171,6.03644 -19.2456,3.76331 -45.1829,10.45606 -45.1829,11.65881 0,0.90065 0.9456,0.80358 31.42,-3.22561 29.324,-3.8771 44.0821,-5.02338 64.58,-5.01606 31.8346,0.0114 64.0741,3.84774 84,9.99561 5.2872,1.63129 8.8683,1.96411 19.1926,1.78371 6.9809,-0.12198 12.3426,-0.57508 11.9149,-1.00688 z m 101.718,-39.63836 c 7.0513,-4.14496 14.5034,-11.24612 17.9203,-17.07655 3.2854,-5.60593 5.1548,-12.28634 7.8027,-27.8839 3.1126,-18.33427 5.5498,-26.63736 10.5748,-36.02555 5.1933,-9.70269 2.572,-7.39007 -5.1701,4.56121 -8.2135,12.679 -12.8846,23.07764 -20.0439,44.62115 -7.1595,21.54422 -10.0458,27.71426 -15.101,32.28131 -2.0977,1.89518 -3.5538,3.44578 -3.2356,3.44578 0.3181,0 3.5819,-1.76555 7.2528,-3.92345 z m 309.4615,-3.31308 c 20.4892,-13.76653 49.2197,-43.07538 56.81,-57.95357 l 2.0284,-3.976 -7.5955,6.48081 c -14.1139,12.04269 -30.7536,22.4142 -56.0299,34.92353 -7.7,3.81076 -13.1,6.63421 -12,6.27434 16.4631,-5.38596 25.272,-6.69713 27.4404,-4.08441 1.9075,2.29839 -0.8959,6.40683 -10.6498,15.60747 -9.2669,8.74134 -9.2672,8.95199 0,2.72783 z m -242.287,-105.82474 c 9.625,-4.51539 25.15,-11.28252 34.5,-15.03805 15.4446,-6.20352 60.4875,-21.5458 74.8028,-25.47896 l 5.8028,-1.59433 -7.0942,-4.88711 c -8.8162,-6.07339 -11.7848,-8.33538 -52.5114,-40.01269 -47.4459,-36.90359 -51.9007,-39.92684 -54.7036,-37.12402 -0.5814,0.58142 -1.4361,5.25098 -1.8993,10.37678 -0.4631,5.12581 -1.0838,10.89465 -1.3792,12.81965 -0.5334,3.47653 -0.459,3.55701 11.0961,12 6.3982,4.675 12.0548,8.76847 12.5703,9.0966 0.5155,0.32813 -1.9025,3.47813 -5.3735,7 -6.1991,6.29008 -6.4051,6.67771 -11.6385,21.9034 -4.8272,14.04374 -14.8246,39.17882 -21.6267,54.37303 -1.6051,3.58543 -2.126,5.65928 -1.3374,5.32427 0.7105,-0.30182 9.1668,-4.24317 18.7918,-8.75857 z m -131.4385,-30.04763 c 7.4648,-2.79293 21.2067,-11.26918 26.2076,-16.1653 2.3479,-2.29878 7.7479,-8.61847 12,-14.04375 5.9541,-7.59711 8.88,-10.44607 12.7309,-12.3962 14.5249,-7.35556 20.5885,-12.50057 48.5,-41.1524 23.3152,-23.93356 29.0979,-29.31231 38,-35.34561 5.775,-3.91391 11.0733,-7.82982 11.7741,-8.70202 2.4082,-2.99745 6.2259,-11.02154 6.2259,-13.08582 0,-3.94506 5.1634,-12.21957 12.5616,-20.13053 4.0911,-4.37465 7.4384,-8.64167 7.4384,-9.48228 0,-0.84061 1.7461,-3.63411 3.8803,-6.20778 2.1341,-2.57368 4.4237,-5.73634 5.088,-7.02813 3.0138,-5.86084 9.0579,-23.58491 9.9663,-29.22575 1.6721,-10.38268 6.5255,-13.28227 14.9977,-8.9601 l 3.8525,1.96544 0.5495,-2.10118 c 0.5167,-1.97606 0.9251,-2.04955 6.8576,-1.2342 8.4827,1.16585 15.4825,0.88779 24.1135,-0.9579 3.9571,-0.84618 11.3915,-1.6733 16.5211,-1.83805 l 9.3264,-0.29954 -0.6099,4.06471 c -0.4864,3.24098 -0.2225,4.41539 1.3022,5.79517 1.6461,1.48976 3.4068,1.65895 12.6571,1.21628 5.9097,-0.2828 11.502,-0.10904 12.4273,0.38615 1.8132,0.97038 55.1153,-4.10398 63.0426,-6.00166 17.584,-4.20933 31.9492,-18.56835 33.6481,-33.63347 0.5693,-5.04849 -2.893,-24.56602 -8.7947,-49.57718 l -3.0085,-12.75 h -3.9399 c -4.3888,0 -5.9831,-1.99952 -4.0555,-5.08611 2.2321,-3.57422 -0.6965,-2.82422 -6.4624,1.65497 l -5.8593,4.55178 v 9.68968 9.68968 l -7,16.32521 c -7.1018,16.56251 -10.8839,22.22967 -16.1795,24.24305 -3.0669,1.16603 -34.3205,1.23976 -34.3205,0.081 0,-0.46792 0.494,-2.26792 1.0978,-4 l 1.0979,-3.14926 h 15.2278 c 14.5195,0 15.323,-0.10467 17.2722,-2.25 1.1244,-1.2375 5.1167,-9.45 8.8718,-18.25 5.9685,-13.98672 6.7997,-16.68545 6.6064,-21.44741 -0.3177,-7.82394 -1.4474,-8.67226 -12.4571,-9.35501 -5.0692,-0.31437 -12.5918,-0.26242 -16.7168,0.11543 -7.0463,0.64543 -7.5167,0.83822 -7.7769,3.18699 -0.2308,2.08365 0.9763,3.41597 7.2483,8 9.6548,7.05642 11.0715,9.77202 8.9306,17.11932 -2.0527,7.0443 -3.9093,8.79812 -10.0887,9.52998 -4.4978,0.5327 -6.1061,0.13761 -13.9486,-3.42657 -14.0974,-6.4068 -14.3207,-6.40315 -9.3705,0.15332 l 4.2132,5.58034 -0.7299,7.2718 c -0.6578,6.55429 -1.0697,7.59249 -4.1748,10.52181 -1.8948,1.7875 -4.4256,3.30191 -5.6239,3.36535 -5.3357,0.28248 -5.1929,0.11087 -4.8957,5.88465 0.2115,4.10888 -0.2191,6.30828 -1.7023,8.69567 -3.7791,6.08303 -5.8673,6.74163 -23.5367,7.42333 -10.6479,0.41081 -18.0621,1.20626 -22.0441,2.36505 -5.1918,1.51083 -8.4663,1.6527 -24.3085,1.05315 l -18.3085,-0.69288 -3.4016,3.60675 c -2.1378,2.2667 -3.6064,4.98927 -3.9529,7.32784 -1.5121,10.20606 -8.8644,30.83585 -12.7504,35.77611 l -2.1356,2.71496 -1.3855,-4.75163 c -1.5954,-5.4712 -17.1365,-24.40957 -33.4411,-40.75105 -11.4116,-11.43748 -15.2714,-14.12906 -18.0948,-12.61806 -3.8478,2.05929 -3.5317,-0.79404 0.9029,-8.14924 2.487,-4.125 5.3364,-8.4 6.3319,-9.5 0.9956,-1.1 2.5924,-3.575 3.5484,-5.5 l 1.7382,-3.5 -3.1433,2.95822 c -1.7288,1.62702 -4.4305,5.22702 -6.0038,8 -1.7964,3.16641 -4.4025,5.97169 -7.0062,7.54178 -8.0918,4.8795 -7.8267,4.44475 -4.5349,7.43598 2.494,2.26626 2.6189,2.5868 0.8141,2.09054 -1.4429,-0.39677 -2.3361,-0.053 -2.7648,1.0642 -0.4948,1.28945 -0.1802,1.53183 1.4387,1.10847 1.7375,-0.45436 1.8737,-0.3029 0.8438,0.93802 -3.9078,4.70861 -18.1426,13.63769 -25.1361,15.76716 -0.9625,0.29307 -1.75,1.38773 -1.75,2.43258 0,1.4486 -0.9161,2.02259 -3.8581,2.41719 -2.122,0.28462 -6.2225,2.14387 -9.1122,4.13167 -5.951,4.09353 -6.6696,4.25008 -9.1607,1.99567 -2.5322,-2.29161 -5.6512,-1.22327 -13.1026,4.48797 -3.4856,2.67157 -7.6715,5.5511 -9.3019,6.39896 -3.8428,1.99831 -6.7308,5.21919 -9.3374,10.41374 -2.5588,5.09941 -2.6996,5.19036 -9.829,6.3507 -7.483,1.2179 -14.8123,6.26211 -20.1449,13.86428 l -4.0769,5.81205 -5.6196,-0.88123 c -5.3002,-0.83116 -5.8441,-0.71609 -9.572,2.02543 -4.7195,3.47076 -4.4699,3.63289 8.1852,5.3178 8.465,1.12704 9.1162,1.08035 11.6856,-0.83795 1.4965,-1.11734 4.002,-4.2369 5.5677,-6.93237 3.8606,-6.64645 10.5663,-13.40086 13.3042,-13.40086 1.2161,0 4.9742,0.70788 8.3513,1.57306 4.4766,1.14684 6.496,1.27783 7.4532,0.48344 0.7221,-0.5993 1.6252,-4.25847 2.0068,-8.1315 0.9895,-10.0412 2.8068,-11.70119 18.5613,-16.95388 7.294,-2.4319 14.678,-5.64776 17.7296,-7.72153 3.761,-2.55592 6.4288,-3.59866 9.5,-3.71327 5.3093,-0.19814 7.1624,-1.19986 15.5606,-8.41156 12.0989,-10.38954 20.9647,-16.33733 23.2645,-15.60739 1.1436,0.36297 6.0957,3.34647 11.0047,6.63002 10.1011,6.75654 11.2795,8.2507 22.2886,28.26109 10.2547,18.6392 10.2543,18.70288 -0.2275,36.38819 -4.8494,8.18212 -8.138,14.91141 -8.5516,17.49897 -1.2553,7.85133 -4.7764,12.1523 -15.8117,19.31342 -6.34,4.11425 -13.6284,10.07339 -19.4407,15.89514 -7.4227,7.43473 -11.2611,10.37151 -19.0292,14.55914 -9.3366,5.03324 -10.8707,6.39003 -37.8651,33.48862 -15.9655,16.02713 -31.7524,30.92553 -36.4994,34.44521 -9.5619,7.08975 -32.204,20.78432 -35.8961,21.71098 -3.6062,0.90509 -28.9799,-1.4449 -40.0172,-3.7062 -10.9173,-2.23674 -21.1364,-6.9114 -48.0095,-21.96168 -9.625,-5.39049 -22.675,-12.38736 -29,-15.54861 -23.2082,-11.59947 -51.5454,-28.48263 -63.1439,-37.62073 -5.0326,-3.96502 -5.9412,-3.59544 -1.8023,0.73305 5.9067,6.17716 34.6351,26.01258 58.9217,40.68223 13.9127,8.40353 56.2792,29.73148 68.0245,34.2445 9.9559,3.82549 21.8034,6.00626 40.7977,7.50968 7.5363,0.59651 14.1523,1.26027 14.7023,1.47503 1.6353,0.63855 7.4786,-0.53548 13.0615,-2.62432 z m 262.3454,-106.71424 c 3.5237,-2.98107 9.3737,-7.32572 13,-9.65476 6.3244,-4.06206 18.4823,-9.51185 21.2637,-9.53148 3.2691,-0.0231 12.0593,-6.55979 20.3703,-15.14808 7.6991,-7.95602 10.6673,-10.22205 20,-15.26882 11.4859,-6.21116 12.6037,-6.45643 23.2091,-5.09257 l 6.25,0.80376 0.035,-3.39245 c 0.02,-1.86585 0.6785,-4.51746 1.4646,-5.89246 0.786,-1.375 1.445,-4.5824 1.4645,-7.12756 0.041,-5.29058 1.7973,-7.40002 5.4081,-6.49377 3.3451,0.83958 4.2402,-0.63628 6.6343,-10.93862 1.1426,-4.91703 3.1221,-10.52511 4.3988,-12.46241 4.2977,-6.52122 6.4158,-11.52549 8.369,-19.77273 1.0688,-4.5127 1.6692,-8.20184 1.3343,-8.19808 -0.335,0.004 -1.7324,1.65596 -3.1055,3.67156 -2.9743,4.36618 -10.623,10.58989 -16.9443,13.78758 -10.8585,5.49277 -15.698,6.38485 -57.5027,10.5996 -10.9689,1.10588 -20.4189,2.40372 -21,2.88408 -0.5811,0.48036 -2.4065,1.0257 -4.0565,1.21186 -2.1941,0.24756 -3.0838,0.92733 -3.312,2.53045 -0.2557,1.7971 -1.3366,2.3969 -6,3.32963 -3.1284,0.62572 -9.0617,1.89886 -13.1851,2.8292 l -7.4971,1.69152 12.3294,7.47885 c 11.3931,6.91093 20.3157,13.16985 30.8449,21.63684 2.2991,1.84879 5.4861,5.77262 7.0823,8.71963 l 2.9021,5.35821 -8.5823,3.85522 c -13.5659,6.09394 -25.3243,14.52541 -38.1371,27.34654 -10.7468,10.75382 -18.2446,19.58576 -14.8918,17.54146 0.7957,-0.48513 4.3297,-3.32112 7.8535,-6.3022 z m -347.0096,-20.67391 c -11.3071,-16.75396 -14.0163,-43.19084 -6.7095,-65.47289 1.6364,-4.99011 3.3012,-7.64948 7.2787,-11.62698 2.8364,-2.83637 6.559,-5.88204 8.2726,-6.76815 2.8553,-1.47657 12.6089,-3.26733 30.7609,-5.64773 69.4637,-9.10926 131.3893,-16.21822 136.8566,-15.71093 2.6711,0.24785 5.1461,0.89471 5.5,1.43748 0.8684,1.3319 5.1983,3.56466 5.7817,2.98134 0.2568,-0.25683 -1.2422,-1.53079 -3.3311,-2.83102 -7.3775,-4.59214 -11.6085,-5.97768 -18.2937,-5.99072 -11.1531,-0.0217 -161.7537,18.38206 -165.1066,20.17648 -1.6246,0.86947 -2.6974,0.49213 -5.9701,-2.09989 -4.9236,-3.89952 -13.3715,-13.7803 -20.5914,-24.08384 -3.0002,-4.28162 -7.1232,-9.10607 -9.1622,-10.72101 -2.4705,-1.95671 -6.0265,-7.12544 -10.6591,-15.49355 -3.8234,-6.90651 -7.0551,-12.45387 -7.1815,-12.32748 -0.9161,0.91606 15.2281,30.08711 23.7251,42.86922 19.6306,29.53023 19.306,28.93835 17.4397,31.80672 -6.1738,9.48851 -9.0233,23.04542 -8.1973,39 0.9058,17.49524 7.3384,33.24876 17.0477,41.75 5.1652,4.52261 6.1177,4.05488 2.5395,-1.24705 z m 11.8402,-112.20444 c 9.4807,-4.83918 17.4758,-9.51446 17.767,-10.3895 0.7911,-2.37755 -8.9082,-27.34726 -10.7652,-27.71351 -2.1566,-0.42536 -35.3941,16.36517 -36.5759,18.47705 -0.9532,1.70323 -0.4931,3.22847 6.81,22.57745 1.4313,3.79201 2.7417,5.76652 3.8485,5.79851 0.9229,0.0267 9.435,-3.91082 18.9156,-8.75 z m -14.3301,3.88551 c -0.5484,-0.37621 -2.9614,-5.05127 -5.3621,-10.38903 -3.5614,-7.91864 -4.1379,-9.97853 -3.1316,-11.19097 2.0083,-2.41987 25.192,-15.73125 26.829,-15.4044 2.204,0.44007 10.5547,19.73714 9.2312,21.33186 -0.7627,0.91896 -21.1182,13.4732 -26.0216,16.04884 -0.3013,0.15824 -0.9965,-0.0201 -1.5449,-0.3963 z m 546.1912,-16.43402 c 7.241,-7.55739 10.5031,-12.32144 9.761,-14.25526 -0.4337,-1.13021 0.8804,-3.18498 4.1782,-6.53309 4.0285,-4.09004 4.9128,-5.67877 5.4376,-9.76978 0.3447,-2.68701 0.4538,-5.40441 0.2423,-6.03867 -0.688,-2.06404 -11.4778,-1.34094 -18.3486,1.22967 -3.503,1.31058 -8.3941,2.69338 -10.8691,3.07289 -2.475,0.3795 -5.85,1.29284 -7.5,2.02963 -1.65,0.73679 -8.0231,2.57215 -14.1624,4.07858 -12.0941,2.96759 -12.5597,3.3741 -11.3663,9.92491 0.4346,2.38557 1.5391,3.46107 5.4717,5.32815 4.2774,2.03082 5.4631,2.19974 8.9921,1.28112 11.682,-3.04096 33.6984,-5.68247 36.1106,-4.33253 1.3485,0.7547 -0.2643,1.16494 -6.6319,1.68687 -4.6276,0.3793 -13.7365,1.55766 -20.242,2.61858 -6.5055,1.06091 -12.243,1.92893 -12.75,1.92893 -1.6541,0 -0.9901,6.62843 0.8282,8.2676 2.5671,2.31416 11.8045,4.53752 19.2842,4.64154 l 6.5341,0.0909 5.0303,-5.25 z m -333.0075,-20.23924 c 5.4499,-3.01908 9.5666,-5.49408 9.1481,-5.5 -0.4184,-0.006 -5.1434,0.70779 -10.5,1.58602 -6.0654,0.99446 -12.5683,1.39553 -17.2392,1.06324 -9.1942,-0.65408 -24.6389,-4.62778 -36,-9.2623 -24.2097,-9.87583 -56.9087,-21.62476 -67.8068,-24.36335 -14.5282,-3.65079 -25.9296,-8.92348 -31.6021,-14.61462 -6.5598,-6.58135 -17.3383,-22.39318 -30.2798,-44.41975 -6.6245,-11.275 -13.0234,-22.3 -14.2198,-24.5 l -2.1753,-4 0.6254,3.95349 c 0.7902,4.99569 1.5914,6.53933 16.757,32.28599 13.399,22.7476 25.3372,39.97751 31.3684,45.27304 5.5056,4.83391 16.2874,9.53397 29.833,13.0049 6.6,1.69118 13.8,3.6945 16,4.45183 8.2305,2.83322 34.1354,12.74252 44.8732,17.16519 16.0332,6.60365 39.418,12.97874 48.7179,13.28127 1.4251,0.0464 7.0501,-2.38587 12.5,-5.40495 z m 281.8586,-17.46078 c 2.0773,-4.09751 4.4501,-9.72251 5.2729,-12.5 2.5407,-8.57667 7.9918,-19.05916 10.6512,-20.48242 3.2476,-1.7381 9.1709,-0.61375 12.0771,2.29247 1.2252,1.22512 2.5302,4.12029 2.9001,6.43373 0.6162,3.85318 0.9235,4.20624 3.6608,4.20624 2.5332,0 2.9882,-0.38669 2.9882,-2.53984 0,-4.48605 3.7231,-10.27822 8.0135,-12.46703 4.221,-2.1534 5.3397,-3.55739 1.9865,-2.49313 -1.5598,0.49505 -2,0.1797 -2,-1.43261 0,-1.63043 -0.6341,-2.06739 -3,-2.06739 -2.3333,0 -3,0.44444 -3,2 0,1.7037 -0.6667,2 -4.5,2 -3.8333,0 -4.5,-0.2963 -4.5,-2 0,-1.46667 -0.6667,-2 -2.5,-2 -2,0 -2.5,0.5 -2.5,2.5 0,2.29048 -0.3713,2.5 -4.4304,2.5 -3.8332,0 -4.4736,-0.30332 -4.75,-2.25 -0.444,-3.1258 -5.3652,-3.75697 -6.3011,-0.80814 -0.5715,1.80038 -1.4701,2.05814 -7.1756,2.05814 -6.9124,0 -9.0667,1.28086 -11.3529,6.75 -0.7188,1.71961 -1.7575,2.25 -4.4062,2.25 -1.9062,0 -3.6544,0.3375 -3.8849,0.75 -0.2305,0.4125 1.2846,8.175 3.3667,17.25 2.0822,9.075 4.3227,19.19121 4.9789,22.48047 l 1.193,5.98048 1.7176,-5.48048 c 0.9448,-3.01426 3.4173,-8.83298 5.4946,-12.93049 z m -497.0028,15.31343 c 6.1793,-2.1055 13.5531,-9.01083 13.5531,-12.69199 0,-3.30065 -0.3957,-3.31614 -3.7936,-0.14852 -7.6996,7.17769 -22.224,9.67605 -31.9438,5.49471 -5.9353,-2.5533 -7.6294,-4.2776 -12.7895,-13.01761 -10.1596,-17.20797 -24.9648,-33.57127 -38.7375,-42.81445 -8.618,-5.78376 -20.6696,-12.58489 -21.2579,-11.9966 -0.2304,0.23039 2.4877,2.09062 6.0402,4.13383 17.9138,10.30313 37.1198,31.05572 52.891,57.15024 5.4321,8.98775 6.1233,9.67789 13.0911,13.07193 6.0644,2.95397 15.6736,3.29671 22.9469,0.81846 z m 217.7745,-9.46907 c 10.2812,-2.41373 9.8854,-1.92426 14.4692,-17.89434 1.3419,-4.675 3.7604,-12.66788 5.3746,-17.76196 4.6552,-14.69125 3.5649,-23.8017 -2.2271,-18.60932 -1.148,1.0292 -7.9658,8.56462 -15.1506,16.74536 l -13.0633,14.87408 -0.9719,10.73821 c -0.9834,10.86442 -0.6592,14.01363 1.4425,14.01363 0.6367,0 5.1937,-0.94755 10.1266,-2.10566 z m -9.8604,-2.64434 c 0.2727,-0.9625 0.8049,-5.51968 1.1827,-10.12707 l 0.687,-8.37708 13.9114,-15.87292 c 7.6513,-8.73011 14.1755,-15.87293 14.4983,-15.87293 0.8996,0 -0.6753,9.36597 -1.7642,10.49156 -0.5276,0.54535 -2.6281,1.45977 -4.6678,2.03203 -5.1142,1.43493 -5.0393,4.08151 0.1041,3.67533 3.458,-0.27308 3.7191,-0.12647 2.8077,1.57644 -0.6167,1.15234 -3.1195,2.38483 -6.4798,3.19096 -6.7646,1.62281 -8.0933,2.41104 -7.3462,4.35808 0.5167,1.34641 1.2059,1.36264 5.8493,0.13776 2.8949,-0.76368 5.3791,-1.27292 5.5203,-1.13166 0.1413,0.14126 0.025,1.13719 -0.2593,2.21317 -0.3894,1.47591 -2.2658,2.38131 -7.6409,3.68689 -7.7516,1.88284 -9.8169,3.11615 -8.0975,4.83558 0.7549,0.75485 2.7717,0.62076 6.9075,-0.45924 3.2127,-0.83895 5.9948,-1.37181 6.1825,-1.18413 0.9384,0.93844 -1.1816,5.57723 -2.5489,5.57723 -3.5469,0 -13.2072,3.3447 -13.2072,4.57276 0,2.01063 1.4895,2.492 4.6351,1.49794 1.5757,-0.49794 4.1383,-1.18514 5.6947,-1.5271 2.5883,-0.5687 2.7697,-0.42641 2.1258,1.66732 -0.9501,3.08905 -0.3982,2.79538 -9.1556,4.87156 -9.6713,2.29286 -9.5404,2.29041 -8.939,0.16752 z m 340.4759,-2.94621 c 13.1386,-3.12063 15.7955,-3.4769 18.5367,-2.48567 3.7682,1.36259 14.6682,-0.11595 18.45989,-2.50401 2.997,-1.8875 5.2963,-7.39564 4.5927,-11.00192 -0.5014,-2.56975 -0.1618,-2.96896 3.9386,-4.63066 4.901,-1.98611 7.1367,-5.83522 6.006,-10.34018 -0.957,-3.81298 -7.2856,-6.50516 -14.7001,-6.25342 -3.39389,0.11523 -10.67069,0.11236 -16.17069,-0.006 -10.177,-0.21969 -16.1089,1.07923 -24.3202,5.32548 -4.3222,2.2351 -7.8681,9.43151 -5.399,10.95746 0.4294,0.26539 4.3669,-0.11141 8.75,-0.83735 10.3878,-1.72044 26.2972,-2.54548 29.4692,-1.52824 1.9609,0.62884 1.3552,0.82323 -2.8084,0.90141 -7.8041,0.14654 -31.1055,3.57056 -34.6916,5.09774 -1.1,0.46844 -4.7563,1.06275 -8.1252,1.32068 -8.6346,0.6611 -13.1566,3.00113 -13.9476,7.21755 -0.9555,5.09322 1.2137,10.39468 4.9314,12.05201 3.7611,1.67672 5.5746,1.44294 25.4783,-3.28451 z m 6.0412,-40.2073 c 0.758,-0.48009 1.0811,-1.35354 0.718,-1.94101 -0.8754,-1.4165 -3.5961,-0.31835 -3.5961,1.45151 0,1.59262 0.8959,1.745 2.8781,0.4895 z m 30.62189,-2.09649 c -0.3399,-0.55 -1.293,-1 -2.118,-1 -0.82499,0 -1.22189,0.45 -0.88199,1 0.3399,0.55 1.29299,1 2.11799,1 0.825,0 1.2219,-0.45 0.882,-1 z M 624.92581,250.38441 c 5.2245,-2.09042 12.3043,-10.17215 14.8339,-16.93322 2.2981,-6.14212 7.4412,-30.34549 6.6223,-31.16436 -0.7084,-0.70849 -1.1041,0.74403 -3.0676,11.26079 -3.4834,18.65761 -8.0287,27.47419 -16.7243,32.44049 -9.87,5.63695 -19.7291,4.97272 -35.2806,-2.37695 -10.7004,-5.05704 -23.5592,-14.36889 -32.4113,-23.47112 -3.5262,-3.62583 -5.889,-5.61024 -5.2508,-4.40979 1.8619,3.5022 17.0485,19.11309 23.1937,23.84167 8.2138,6.32037 18.5264,11.23078 26.9684,12.84112 4.3144,0.82298 17.0464,-0.40017 21.1163,-2.02863 z m 23.402,-2.4534 c 4.6672,-3.85674 6.4824,-7.38339 3.8004,-7.38339 -1.8207,0 -12.4246,9.51956 -11.7749,10.5708 1.0598,1.71485 2.9624,0.95439 7.9745,-3.18741 z m 0.3442,-11.91009 c 2.7965,-2.52872 4.1539,-4.48824 3.7814,-5.45899 -0.8547,-2.22734 -1.6427,-1.91162 -7.0621,2.82956 -3.0016,2.62591 -4.6348,4.7613 -4.191,5.47943 1.1995,1.9408 2.8841,1.29821 7.4717,-2.85 z m -37.8625,-10.65125 c 0,-2.91584 4.6929,-64.54163 5.3652,-70.45503 l 0.4131,-3.63298 -9.1391,-0.46924 c -5.0266,-0.25809 -9.2769,-0.3605 -9.4453,-0.2276 -1.0615,0.83804 3.1886,42.84577 5.8138,57.4628 3.7221,20.72411 3.5243,20 5.4609,20 0.994,0 1.5314,-0.93982 1.5314,-2.67795 z m -86.2624,-3.03344 c 0.5329,-1.60062 -13.5328,-10.58116 -15.4316,-9.85255 -2.4732,0.94906 -0.9604,2.87202 5.7617,7.32395 6.3667,4.21654 8.8884,4.87594 9.6699,2.5286 z m 125.6378,0.22763 c 1.8077,-1.36884 1.6759,-4.51624 -0.189,-4.51624 -1.5232,0 -4.4112,3.82731 -3.7253,4.93699 0.8574,1.38734 1.6373,1.3035 3.9143,-0.42075 z m 126.3349,-0.51624 c 0.656,-2.50864 7.2897,-2.96365 7.2897,-0.5 0,1.04762 1.0556,1.5 3.5,1.5 2.8333,0 3.5,-0.38095 3.5,-2 0,-1.66667 0.6667,-2 4,-2 3.3333,0 4,0.33333 4,2 0,1.61905 0.6667,2 3.5,2 2.7658,0 3.5,-0.39658 3.5,-1.89059 0,-2.73256 7.0655,-3.57508 7.7584,-0.92516 0.705,2.69579 6.2416,2.53235 6.2416,-0.18425 0,-1.66667 0.6667,-2 4,-2 3.3333,0 4,0.33333 4,2 0,1.55556 0.6667,2 3,2 2.2732,0 3,-0.45706 3,-1.8865 0,-1.36027 0.9066,-2.02442 3.25,-2.38093 3.9361,-0.59881 4.75,-0.20019 4.75,2.32645 0,2.7198 2.6406,2.41908 4.5664,-0.52003 0.8869,-1.35355 2.3609,-2.69852 3.2755,-2.98882 2.9018,-0.921 4.2272,-4.0823 3.0346,-7.23801 -1.1089,-2.93414 -15.0128,-16.07396 -18.4177,-17.40554 -2.3527,-0.92008 -57.5929,-1.17614 -59.9339,-0.27781 -1.4945,0.57349 -12.3011,20.79548 -13.9592,26.12119 -0.6341,2.03697 -0.3705,2.25 2.7851,2.25 4.4699,0 6.6492,0.85447 6.6492,2.60699 0,2.34293 6.0827,1.7927 6.7103,-0.60699 z m -238.8966,-1.72869 c -0.3706,-1.9248 -13.635,-10.49979 -14.9677,-9.67616 -2.1349,1.31944 -0.3501,3.77029 5.404,7.42076 6.7775,4.29971 10.1087,5.08532 9.5637,2.2554 z m 4.1863,-20.92701 c 0,-1.52326 -2.6199,-1.59276 -32.75,-0.86877 -47.8363,1.14944 -50.5092,2.20858 -6,2.37745 35.4566,0.13452 38.75,0.006 38.75,-1.50868 z m 1,-4.8443 c 0,-1.29983 -3.9832,-1.5 -29.8491,-1.5 -16.417,0 -33.4045,0.3375 -37.75,0.75 l -7.9009,0.75 11,0.55233 c 6.05,0.30378 23.0375,0.64128 37.75,0.75 23.199,0.17143 26.75,-0.001 26.75,-1.30233 z m 95.1136,-1.5608 c 1.0902,-0.58344 2.4421,-2.2706 3.0043,-3.74925 1.0499,-2.76161 7.8821,-33.20465 7.8821,-35.12151 0,-1.71405 -8.5665,-1.29571 -10.0491,0.49075 -1.0209,1.23011 -3.4966,25.40835 -3.9104,38.19081 -0.049,1.52608 0.5107,1.56056 3.0731,0.1892 z m -108.1136,-2.9889 c -20.0635,-0.96717 -48.0786,-0.93623 -45,0.0497 1.375,0.44035 15.325,0.76659 31,0.72496 24.6441,-0.0654 26.5382,-0.17024 14,-0.77466 z m -97.5983,-5.7003 c -0.2244,-2.0625 -0.8439,-10.18497 -1.3767,-18.04992 -0.5328,-7.86496 -1.2329,-14.72746 -1.5559,-15.25 -1.9199,-3.10651 -2.4691,0.65199 -2.4691,16.89711 0,17.52 0.041,17.86707 2.25,18.93232 3.4164,1.64767 3.5909,1.5076 3.1517,-2.52951 z m 94.5983,0.69766 c -29.8225,-1.11609 -67.2039,-1.08667 -66.5,0.0523 0.3991,0.64576 15.5639,0.93624 42.809,0.82001 35.0229,-0.14941 39.0479,-0.29762 23.691,-0.87235 z m 19.5,-3.94766 c 0.4034,-0.65265 -5.7416,-1.0028 -17.691,-1.00806 -10.0699,-0.004 -23.9649,-0.29276 -30.8777,-0.64073 -6.9128,-0.34797 -14.7878,-0.23185 -17.5,0.25806 -3.7342,0.6745 1.1375,1.01851 20.0687,1.41711 13.75,0.2895 29.5859,0.627 35.191,0.75 5.9677,0.13095 10.4471,-0.19079 10.809,-0.77638 z m 1,-5 c 0.4011,-0.64898 -4.4356,-1 -13.779,-1 -7.9184,0 -25.3825,-0.20052 -38.8091,-0.44559 -24.0361,-0.43874 -24.2349,-0.42578 -12.9119,0.84135 14.0944,1.57728 64.6106,2.04329 65.5,0.60424 z m 1.5,-5 c 0,-0.64004 -10.3487,-1.0533 -28.75,-1.14806 -32.7489,-0.16866 -40.311,0.032 -44.0794,1.16982 -1.4725,0.44461 14.2644,0.84489 35.0794,0.89229 24.5573,0.0559 37.75,-0.26353 37.75,-0.91405 z m 0.7547,-4.75 c 0.3221,-0.9774 -5.0038,-1.25131 -24.4214,-1.25599 -13.6583,-0.003 -28.6583,-0.22838 -33.3333,-0.50018 -6.8595,-0.3988 -7.921,-0.28545 -5.5,0.58733 1.65,0.59484 14.25,1.42841 28,1.8524 31.2154,0.96253 34.7348,0.89429 35.2547,-0.68356 z m 1.2453,-4.75 c 0,-1.30664 -4.8017,-1.49888 -37.25,-1.49131 -43.1149,0.0101 -59.7084,1.17827 -28.75,2.02404 10.725,0.29301 29.9625,0.63051 42.75,0.75 20.0966,0.1878 23.25,0.0138 23.25,-1.28273 z m 100,-27.5 c 0,-0.55 -0.39,-1 -0.8667,-1 -0.4767,0 -10.8276,-1.7695 -23.002,-3.93223 -12.1743,-2.16272 -29.5325,-4.73958 -38.5736,-5.72634 -9.0411,-0.98676 -16.3306,-1.90183 -16.199,-2.03349 0.1317,-0.13166 8.5423,-2.32309 18.6904,-4.86986 10.148,-2.54676 19.0717,-5.2241 19.8306,-5.94964 2.2112,-2.11429 0.67,-5.45756 -5.9875,-12.988443 -10.0987,-11.42356 -18.8922,-20.59597 -18.8922,-19.70633 0,0.45714 1.3476,4.81795 2.9947,9.6907 1.6471,4.87274 2.8846,8.9318 2.75,9.02012 -0.1346,0.0883 -3.1697,1.21203 -6.7447,2.49714 -14.6421,5.263423 -19.1978,7.987133 -27.3115,16.328853 -4.2964,4.41706 -8.2307,8.81421 -8.743,9.77143 -1.1178,2.08863 -1.4492,2.05218 40.0545,4.40536 15.675,0.88874 34.575,2.43725 42,3.44113 16.109,2.17799 20,2.38258 20,1.0516 z m -198.6843,-7.12218 c 3.9207,-2.01429 7.6843,-6.20294 7.6843,-8.55213 0,-1.65156 -2.1502,-4.06606 -7.6255,-8.56291 -13.0834,-10.745213 -36.8268,-28.751843 -37.8745,-28.723393 -0.55,0.0149 0.125,0.94664 1.5,2.07046 14.3295,11.71186 34.1832,29.848713 34.6432,31.647443 0.7098,2.77563 -1.8483,6.92343 -5.2165,8.45807 -3.2053,1.46041 -19.4919,-1.6665 -34.734,-6.66862 -5.9441,-1.95071 -11.0673,-3.54674 -11.3849,-3.54674 -2.0059,0 5.7382,4.48227 12.3326,7.13814 17.3336,6.98096 34.628,9.84655 40.6753,6.73968 z m 73.6251,-4.62782 c 13.0136,-12.48373 30.9701,-32.567903 31.5733,-35.314343 0.3405,-1.5501 0.12,-3.75085 -0.49,-4.89058 -1.2526,-2.34057 -21.1004,-12.60516 -34.0241,-17.59607 -16.6176,-6.41744 -49.321,-10.66257 -66.2187,-8.59564 -10.9315,1.33713 -23.0318,5.35895 -28.5004,9.47277 -2.3205,1.74563 -4.233,3.46105 -4.25,3.81206 -0.017,0.35101 3.6563,1.92173 8.1628,3.4905 9.1368,3.18061 40.4451,20.6624 49.4699,27.622723 3.21,2.47575 12.0855,9.73198 19.7233,16.12497 9.0233,7.55271 14.7052,11.62361 16.2234,11.62361 1.4828,0 4.5265,-2.10086 8.3305,-5.75 z m -16.4221,-4.46771 c -1.0897,-0.6273 -7.4887,-5.534 -14.22,-10.90377 -6.7312,-5.36977 -14.8397,-11.512463 -18.0187,-13.650443 -12.0421,-8.09864 -36.0907,-20.73793 -45.0378,-23.67058 -2.8917,-0.94786 -4.9987,-2.14249 -4.6821,-2.65473 1.0494,-1.69795 8.1873,-4.83854 16.1167,-7.09119 13.3379,-3.78913 39.0603,-2.49887 62.8232,3.15129 12.8605,3.05786 38.968,14.56543 42.8819,18.90129 3.1537,3.49375 0.727,6.69873 -15.6623,20.685063 -20.3527,17.36861 -20.4188,17.41025 -24.2009,15.23307 z"
       style="fill:#000000" />
  </g>
</svg>
