<?xml version="1.0" encoding="UTF-8" standalone="no"?>
<svg
   xmlns:dc="http://purl.org/dc/elements/1.1/"
   xmlns:cc="http://creativecommons.org/ns#"
   xmlns:rdf="http://www.w3.org/1999/02/22-rdf-syntax-ns#"
   xmlns:svg="http://www.w3.org/2000/svg"
   xmlns="http://www.w3.org/2000/svg"
   xmlns:sodipodi="http://sodipodi.sourceforge.net/DTD/sodipodi-0.dtd"
   xmlns:inkscape="http://www.inkscape.org/namespaces/inkscape"
   version="1.1"
   id="svg249"
   width="6537.0933"
   height="7280.8325"
   viewBox="0 0 6537.0933 7280.8325"
   sodipodi:docname="парашут.svg"
   inkscape:version="1.0 (4035a4fb49, 2020-05-01)">
  <metadata
     id="metadata255">
    <rdf:RDF>
      <cc:Work
         rdf:about="">
        <dc:format>image/svg+xml</dc:format>
        <dc:type
           rdf:resource="http://purl.org/dc/dcmitype/StillImage" />
        <dc:title></dc:title>
      </cc:Work>
    </rdf:RDF>
  </metadata>
  <defs
     id="defs253" />
  <sodipodi:namedview
     inkscape:document-rotation="0"
     pagecolor="#ffffff"
     bordercolor="#666666"
     borderopacity="1"
     objecttolerance="10"
     gridtolerance="10"
     guidetolerance="10"
     inkscape:pageopacity="0"
     inkscape:pageshadow="2"
     inkscape:window-width="1920"
     inkscape:window-height="1018"
     id="namedview251"
     showgrid="false"
     inkscape:zoom="0.11525974"
     inkscape:cx="3433.2155"
     inkscape:cy="3475.2353"
     inkscape:window-x="-6"
     inkscape:window-y="-6"
     inkscape:window-maximized="1"
     inkscape:current-layer="g257" />
  <g
     transform="translate(161.10274,-168.70825)"
     inkscape:groupmode="layer"
     inkscape:label="Image"
     id="g257">
    <path
       id="path8"
       d="m 2901.9257,7442.6628 c -4.4813,-4.175 -7.9604,-12.7515 -9.256,-22.8169 -3.7388,-29.0478 -8.5996,-45.2258 -20.9507,-69.7291 -17.3759,-34.4722 -34.0959,-73.794 -45.3628,-106.6838 -16.8793,-49.2737 -19.9127,-74.1775 -20.1514,-165.4404 -0.3103,-118.7226 -4.4298,-198.0314 -11.3031,-217.6144 -3.0917,-8.809 -10.9411,-24.9465 -17.443,-35.8614 -7.638,-12.8221 -13.0498,-27.4716 -15.2922,-41.396 -3.4023,-21.1261 -3.2336,-22.0046 8.5617,-44.5856 7.5554,-14.4642 12.0118,-27.6902 11.9768,-35.5456 -0.065,-14.6718 -11.4243,-36.1511 -24.0792,-45.5328 -8.8799,-6.5831 -9.0178,-6.5804 -28.1811,0.5895 -12.233,4.5769 -28.7063,7.4907 -45.1609,7.988 l -25.9034,0.7825 0.09,-38.8732 c 0.1089,-46.9302 7.6354,-71.0708 30.5157,-97.8761 8.131,-9.5256 16.437,-22.9636 18.4577,-29.8624 2.0208,-6.8988 5.7672,-39.1629 8.3252,-71.6981 2.5581,-32.5352 5.7182,-70.7808 7.0224,-84.9901 2.3146,-25.2179 2.1626,-25.9721 -6.3627,-31.558 -7.6495,-5.0123 -14.7346,-5.4257 -57.0532,-3.3299 -59.2571,2.9344 -76.2251,-0.598 -129.4459,-26.95 -45.9213,-22.7378 -61.1641,-35.1458 -71.2833,-58.0272 -10.1682,-22.9924 -45.3382,-63.7065 -62.6686,-72.5476 -16.2704,-8.3007 -26.4259,-27.6393 -26.5373,-50.5339 -0.064,-13.2909 3.4636,-20.9277 27.3288,-59.1549 15.0716,-24.142 32.2987,-49.9788 38.2824,-57.4155 5.9837,-7.4366 17.4474,-23.4084 25.4748,-35.4929 18.4189,-27.7278 26.9221,-37.152 33.6544,-37.3008 3.4072,-0.074 39.5959,-58.7165 100.4379,-162.7531 l 95.1117,-162.6355 -4.6891,-11.2228 c -6.768,-16.1984 -6.0697,-22.3637 7.8246,-69.0818 l 12.5137,-42.0764 0.1623,-116.6451 0.1622,-116.6454 -1246.802,-1414.6222 -1246.80215,-1414.6225 -26.7182,-5.255 c -45.8993,-9.0274 -57.6606,-23.0647 -87.678502,-104.6457 -17.8417,-48.4893 -28.1903,-69.9836 -60.8444,-126.3756 -31.9347004,-55.1498 -41.0698004,-73.9979 -48.4971,-100.0617 -5.1143,-17.9476 -22.3571,-59.6975 -39.0897,-94.6479 -32.1762,-67.2087 -37,-80.4757 -56.381898,-155.0709 -7.0453,-27.1151 -16.0753,-53.6755 -20.4306,-60.0933 -21.0285,-30.9873 -24.1021,-53.8298 -11.7023,-86.9712 3.9603,-10.5847 7.2005,-22.4658 7.2005,-26.4024 0,-3.9366 -5.2168,-23.2947 -11.5929,-43.018 -16.7529,-51.8219 -19.9227,-74.7738 -17.9479,-129.9565 2.1372,-59.7157 12.1289,-100.9732 36.3141,-149.9466 22.0246,-44.5984 49.821498,-81.4549 96.307198,-127.696 49.802,-49.5401 85.4095,-74.0891 160.433802,-110.6086 73.158,-35.6111 93.196,-48.5635 132.0544,-85.35925 60.7402,-57.5158 114.4088,-84.7205 223.5163,-113.3006 78.5533,-20.5766 104.6971,-26.0009 146.9279,-30.4847 18.3831,-1.9518 37.6433,-4.3924 42.8005,-5.4236 12.8532,-2.57 28.4266,-16.3758 36.6454,-32.486 20.3273,-39.8447 92.7466,-96.034 186.4796,-144.6872 71.6409,-37.186 118.71255,-53.3329 191.50115,-65.69 32.5437,-5.5249 43.0674,-9.8073 101.6309,-41.3574 38.1373,-20.5458 85.2602,-38.5201 138.5915,-52.8636 l 38.8733,-10.4549 99.7183,0.073 c 80.5632,0.059 104.9129,1.1719 126.7606,5.7939 34.7445,7.3505 55.1617,7.2838 65.9155,-0.2156 4.6479,-3.2413 21.3802,-18.9091 37.1831,-34.8173 31.816,-32.0282 60.6726,-50.5361 120.6703,-77.39488 95.8216,-42.8958 145.9669,-54.42276 249.4705,-57.34615 83.2878,-2.35241 75.1316,-0.2495 138.5916,-35.73251 112.6208,-62.97076 305.5019,-63.98868 396.6469,-2.09328 21.1514,14.36362 33.9154,17.2062 41.8104,9.31125 2.5157,-2.51571 12.5249,-14.37364 22.2426,-26.35098 55.1736,-68.00269 140.2479,-105.83593 247.6158,-110.11686 54.9997,-2.19294 89.0742,3.47343 129.9942,21.61716 65.3626,28.98151 66.6792,29.40544 91.2676,29.38621 20.2097,-0.0159 28.3711,-2.04798 55.9386,-13.92843 40.4116,-17.41567 76.0695,-22.72616 135.0473,-20.11234 88.1544,3.9069 176.6616,40.79785 222.1521,92.59571 46.1983,52.60414 50.1191,54.53995 98.4528,48.61181 41.7846,-5.12491 130.445,-4.44744 205.0624,1.56691 99.0514,7.98376 124.6452,13.15258 204.4736,41.29439 65.1289,22.95979 112.5285,33.97109 171.5712,39.85739 92.4393,9.2157 157.8483,27.6934 239.1333,67.5534 72.199,35.405 97.128,52.4088 138.591,94.5327 20.451,20.7766 39.751,38.708 42.889,39.8475 3.138,1.1395 23.674,-1.934 45.634,-6.8299 53.071,-11.8318 130.124,-12.3323 191.855,-1.2462 76.705,13.7751 154.671,41.1369 209.068,73.3712 46.485,27.5459 54.999,31.0762 97.033,40.236 81.243,17.7043 147.331,45.2378 211.399,88.0726 64.647,43.2227 107.381,84.3706 148.365,142.8588 10.097,14.4103 21.296,28.8582 24.885,32.1064 4.786,4.3315 25.348,8.6296 77.135,16.1237 102.183,14.78695 148.513,27.52495 206.916,56.88905 48.841,24.5569 87.955,53.6407 133.24,99.072 l 43.066,43.2058 49.533,24.1056 c 121.202,58.9827 195.289,128.4532 246.457,231.0996 29.545,59.2702 38.726,95.6466 38.713,153.3911 0,54.3581 -4.878,93.9293 -17.302,140.6934 -8.23,30.9824 -10.429,48.043 -13.182,102.3066 -3.631,71.5677 -4.578,77.2815 -23.385,141.1111 -7.128,24.1896 -15.469,61.0993 -18.537,82.0216 -10.048,68.5158 -29.063,121.055 -65.991,182.3423 -27.535,45.6967 -56.238,80.1418 -110.214,132.2582 -26.437,25.5263 -55.177,56.5821 -63.866,69.0129 -18.71,26.7647 -28.398,34.9998 -47.126,40.0605 -24.952,6.7424 -32.611,10.5238 -55.426,27.3658 -21.943,16.1978 -23.037,16.5897 -44.165,15.8238 l -21.665,-0.7854 -1241.738,1317.7729 c -1089.1552,1155.8476 -1243.8179,1321.254 -1258.6689,1346.1027 -16.1604,27.0399 -17.2742,30.5159 -24.4573,76.3275 -10.054,64.1226 -11.0664,202.9788 -1.7547,240.6737 11.2986,45.7369 13.3778,58.7949 11.2053,70.374 -2.5924,13.8197 -16.0746,28.4032 -29.5001,31.9102 l -9.5871,2.5045 106.176,187.6056 106.1756,187.6057 16.6841,1.7408 c 20.9229,2.183 26.5085,6.818 32.4909,26.9632 5.9284,19.9629 12.7596,33.3623 29.9625,58.7712 28.6648,42.3387 45.3309,90.4969 42.0997,121.653 -2.9418,28.3676 -7.4136,34.8409 -25.6242,37.0905 -8.6319,1.0664 -23.1367,4.0333 -32.233,6.5929 -13.5921,3.8247 -17.6796,6.8765 -22.9379,17.1262 -5.5552,10.8283 -11.5839,14.9178 -45.7403,31.0289 -21.6379,10.2064 -47.0623,24.4313 -56.4991,31.6107 -24.4712,18.6189 -27.9836,19.9967 -65.2391,25.5925 -35.2239,5.2904 -57.1619,3.7213 -93.8897,-6.716 -9.2957,-2.6417 -28.3098,-6.458 -42.2535,-8.4808 -13.9436,-2.0231 -30.0635,-5.1451 -35.8222,-6.9387 -11.9202,-3.7122 -20.2076,-1.5508 -23.116,6.0284 -1.098,2.8614 6.2464,24.4199 16.3206,47.9077 24.0109,55.9802 25.4914,62.3186 29.1523,124.7936 6.674,113.904 2.2066,185.0556 -15.4618,246.2569 -8.7833,30.4253 -18.9776,53.0924 -44.9696,99.9925 -19.9472,35.9929 -20.6857,48.3177 -6.9433,115.8878 9.3616,46.0297 10.9371,60.6626 10.5798,98.2544 -0.4583,48.2214 -7.2256,101.7005 -17.6124,139.1824 -3.6549,13.1895 -16.5285,47.7147 -28.6079,76.7229 -22.5727,54.2076 -29.9342,77.9381 -34.0508,109.7665 -2.7874,21.5514 -13.0395,34.102 -27.8564,34.102 -18.3739,0 -45.7596,-10.5137 -57.209,-21.9627 -13.4488,-13.4491 -14.366,-25.2017 -4.2462,-54.4093 3.8047,-10.9816 9.1598,-35.7972 11.9002,-55.1463 2.7405,-19.3494 5.8358,-38.5798 6.8786,-42.7345 1.0746,-4.2815 -0.7781,-12.4712 -4.2764,-18.9043 -5.4571,-10.035 -5.9786,-17.4202 -4.5004,-63.7443 0.9195,-28.8169 1.5924,-82.0563 1.4953,-118.3099 -0.1639,-61.2077 -0.9682,-69.6574 -11.2613,-118.3098 -9.6431,-45.5804 -17.7329,-70.344 -39.4486,-120.7562 -3.0361,-7.0482 -7.9147,-11.7056 -13.8122,-13.1858 -12.7212,-3.1927 -20.4804,7.4424 -23.1827,31.776 -1.1818,10.6422 -5.8853,39.8843 -10.452,64.9829 -11.8893,65.3425 -12.9971,93.8292 -6.8356,175.7746 3.5086,46.6621 5.1596,103.53 4.6126,158.8733 l -0.8521,86.1972 11.186,23.6619 c 8.6841,18.3695 11.6066,29.7103 13.0663,50.7043 1.6686,23.9972 1.085,28.0411 -5.1828,35.9148 -12.9812,16.3064 -63.5116,22.7006 -77.3692,9.7903 z m 563.322,-1249.5397 c 65.9624,-18.4178 76.1303,-23.0353 90.7112,-41.1921 16.8361,-20.9659 19.7469,-29.2263 13.6029,-38.6035 -2.8293,-4.3177 -10.0256,-22.0679 -15.9921,-39.4449 -9.5375,-27.7774 -10.4221,-33.2721 -7.3231,-45.482 3.2451,-12.7835 2.6211,-15.504 -7.848,-34.2145 -6.2552,-11.18 -51.8187,-91.7426 -101.2519,-179.0282 -85.175,-150.3951 -89.879,-157.9068 -89.879,-143.5271 0,22.0124 -7.5593,47.7384 -25.1885,85.7216 -20.9544,45.147 -25.1665,61.2777 -28.8206,110.3655 -1.7162,23.0535 -4.7304,47.2398 -6.6984,53.7468 -1.9683,6.5071 -7.4075,30.0845 -12.0875,52.3944 -4.6804,22.3098 -11.347,49.6901 -14.8155,60.8451 -3.4681,11.1549 -8.2154,31.2043 -10.5498,44.5544 l -4.244,24.2728 16.6692,21.192 c 9.3502,11.8868 23.8374,25.4035 32.9939,30.7832 8.9781,5.275 24.8982,16.6036 35.3777,25.1743 40.7115,33.2972 55.7142,34.6763 135.3435,12.4422 z m -780.7169,-40.0381 c 7.7932,-2.7495 18.9151,-8.3784 24.7153,-12.5084 5.8002,-4.13 21.9251,-13.6692 35.833,-21.1977 26.8571,-14.5386 37.3753,-25.3082 38.1296,-39.0409 1.322,-24.0697 -7.4595,-86.8084 -36.4317,-260.2817 -17.5434,-105.0423 -33.4135,-195.7457 -35.267,-201.5632 -1.8535,-5.8174 -5.9748,-12.9302 -9.1583,-15.8065 -5.3754,-4.8561 -12.2712,5.8279 -96.6843,149.7999 -88.3429,150.6747 -90.9188,155.5812 -91.7037,174.6797 -0.8338,20.2841 -8.8753,46.0141 -29.9119,95.707 -14.4647,34.1685 -15.449,47.8394 -4.2508,59.0379 8.9401,8.9399 32.6473,13.963 50.2831,10.654 30.9059,-5.7992 36.847,-6.076 46.3031,-2.1593 14.3456,5.9422 16.3428,15.5334 5.5752,26.7725 -11.4533,11.9544 -11.0742,15.8721 2.2067,22.8071 32.8043,17.1296 73.7811,22.4779 100.3617,13.0996 z m 507.2166,-120.6291 c 7.1175,-32.2283 13.8999,-69.2447 15.0722,-82.2588 3.4994,-38.8506 4.9947,-44.4696 14.3126,-53.7877 8.1163,-8.1164 9.1669,-12.2978 11.7721,-46.8578 1.5735,-20.8702 7.3765,-62.2841 12.8955,-92.0305 5.5189,-29.7465 16.8382,-94.3944 25.1537,-143.662 8.3154,-49.2676 24.3248,-141.9854 35.5757,-206.0397 11.2513,-64.0543 20.4568,-122.45 20.4568,-129.7683 0,-19.2791 -5.8452,-22.2615 -43.9436,-22.4221 -17.662,-0.074 -45.8029,-1.7493 -62.5353,-3.7217 -16.7324,-1.9727 -87.4648,-4.0174 -157.1831,-4.5444 -69.7183,-0.5267 -166.1654,-2.7712 -214.3269,-4.9883 -57.1016,-2.6285 -88.7172,-2.88 -90.8743,-0.7227 -2.1571,2.1569 -1.4144,15.4401 2.1349,38.1803 2.9936,19.1793 7.8197,66.8156 10.7248,105.8579 2.905,39.0422 8.2646,94.2885 11.9102,122.7691 3.6457,28.4809 6.6244,61.9457 6.6192,74.3662 -0.01,12.4208 1.6892,39.3154 3.7652,59.7661 3.3215,32.7211 4.8427,38.3243 12.6765,46.6915 l 8.902,9.5087 2.2869,76.6885 c 2.9419,98.6531 3.8581,105.8207 18.5325,144.9934 17.1988,45.9113 20.9297,61.9058 23.4751,100.6401 2.4317,37.0023 6.4457,45.6284 21.3176,45.8106 4.8245,0.057 11.7245,2.3409 15.3334,5.0704 9.1158,6.8948 13.8197,6.2123 17.7404,-2.5744 2.5585,-5.7336 1.6908,-11.1931 -3.6263,-22.8169 -5.4791,-11.9777 -7.0073,-22.2341 -7.072,-47.4632 -0.076,-29.452 0.834,-34.0458 10.7168,-54.1203 36.581,-74.3067 125.1521,-99.7978 192.7546,-55.4755 36.3135,23.8083 58.4179,63.9377 58.4179,106.0553 0,25.8294 6.1231,91.1128 8.9791,95.7343 1.0113,1.6361 2.5714,2.2422 3.4669,1.3467 0.8955,-0.8954 7.4515,-27.9968 14.5689,-60.2248 z M 2690.5287,5192.169 c -0.7498,-1.3944 -369.2039,-726.9719 -818.787,-1612.3944 -449.583,-885.4225 -818.3971,-1609.8591 -819.5869,-1609.8591 -1.1898,0 -12.4942,8.7465 -25.1209,19.4366 -59.71475,50.5563 -77.68865,61.8633 -123.70985,77.8231 -40.8364,14.1618 -78.1842,19.2964 -138.5916,19.0539 -56.4224,-0.2265 -81.3856,-4.4344 -118.1775,-19.9198 -11.1157,-4.6786 -22.5028,-8.5065 -25.3047,-8.5065 -10.5066,0 -15.0888,15.1222 -20.286,66.947 -5.8009,57.844 -13.3182,84.626 -36.9676,131.7048 -25.349,50.4624 -55.8359,85.6237 -100.6322,116.062 -17.9944,12.2268 -113.3309,60.4975 -119.4849,60.4975 -1.5632,0 -12.8416,-4.0005 -25.0634,-8.89 -20.5041,-8.2029 -84.094,-23.3533 -86.7734,-20.6739 -1.1153,1.1154 2456.65005,2791.1583 2458.80475,2791.2229 0.5745,0 0.431,-1.1098 -0.3188,-2.5041 z M 2266.9865,3438.1867 c -237.3943,-955.352 -432.0253,-1737.4835 -432.5135,-1738.07 -0.4881,-0.5865 -9.7878,3.4167 -20.6661,8.896 -21.2254,10.6912 -73.338,28.5388 -100.9055,34.5583 -89.623,19.5695 -202.0278,0.2937 -271.8105,-46.6116 -29.7938,-20.0263 -32.7185,-21.4483 -39.0873,-19.0043 -7.9903,3.0661 -20.457,29.7241 -30.3416,64.8806 -10.4025,36.998 -13.3736,44.1427 -28.3636,68.2066 -14.685,23.5741 -23.3607,33.4548 -55.7163,63.4553 -44.8085,41.5471 -95.9064,66.639 -152.8341,75.0501 -48.2809,7.1335 -63.7676,10.2325 -66.9273,13.3922 -1.8916,1.8915 316.2444,631.8999 812.5059,1609.0151 448.5881,883.2487 816.2158,1605.3056 816.9503,1604.571 0.7346,-0.7345 -192.8961,-782.9871 -430.2904,-1738.3393 z m 2070.3412,185.0171 c 511.467,-844.8041 929.94,-1537.278 929.94,-1538.8309 0,-7.934 -27.75,-20.772 -137.349,-63.5419 -52.434,-20.4619 -65.673,-28.3908 -94.506,-56.5967 -43.755,-42.8046 -66.582,-81.6598 -84.042,-143.0512 -5.024,-17.662 -11.972,-38.5775 -15.442,-46.4789 -7.856,-17.8891 -15.609,-18.6213 -38.985,-3.682 -56.497,36.1054 -120.888,56.4523 -187.422,59.2233 -71.877,2.9934 -119.325,-7.7899 -189.862,-43.1489 -21.942,-10.9989 -41.838,-19.998 -44.215,-19.998 -2.79,0 -194.656,601.7327 -541.3381,1697.7464 -295.3596,933.7606 -537.7572,1700.0282 -538.6618,1702.8169 -1.1063,3.4107 0.5794,2.8574 5.1492,-1.6901 3.7366,-3.7183 425.2669,-697.964 936.7337,-1542.768 z M 2698.1994,5087.3407 c -9.9114,-43.6591 -10.2665,-47.4511 -5.6221,-60.0419 2.7266,-7.3917 6.5936,-18.0031 8.5933,-23.5805 2.4738,-6.8999 9.5839,-530.8591 22.2468,-1639.4366 10.236,-896.1127 19.4013,-1658.5775 20.3673,-1694.3662 l 1.7564,-65.0704 -21.1085,0.03 c -11.6097,0.017 -40.8832,2.3944 -65.0522,5.2834 -52.7121,6.3009 -119.4799,6.8988 -155.9418,1.3965 -74.7742,-11.2839 -156.3245,-53.3073 -209.0016,-107.6998 -9.2259,-9.5261 -19.2729,-17.3204 -22.3267,-17.3204 -3.2968,0 -14.1457,13.1953 -26.706,32.4819 -38.7973,59.5737 -99.7353,112.7076 -152.677,133.1241 -53.256,20.5376 -138.2072,37.5896 -211.9095,42.536 -33.287,2.2339 -34.8226,2.6729 -33.2145,9.4945 0.9273,3.9337 194.6044,783.6639 430.3935,1732.7336 310.0607,1248.0186 428.9946,1721.6315 429.7449,1711.3095 0.5705,-7.8497 -3.7235,-35.2428 -9.5423,-60.8741 z m 698.4346,33.9127 c -1.1232,-1.1233 -1.9223,0.8734 -1.7756,4.4366 0.1622,3.938 0.9633,4.7388 2.0423,2.0423 0.9766,-2.4402 0.8566,-5.3557 -0.267,-6.4789 z m 1297.3737,-1325.5829 1192.314,-1265.5125 -23.979,-13.0115 c -74.178,-40.2497 -120.015,-84.3664 -148.877,-143.2874 -19.667,-40.1514 -28.08,-71.942 -35.336,-133.5211 -2.957,-25.0986 -7.048,-49.8169 -9.092,-54.9296 -4.608,-11.5245 -14.076,-12.0679 -42.086,-2.4154 -109.795,37.8361 -255.665,9.8951 -328.02,-62.8314 l -24.11,-24.2339 -912.005,1506.2896 c -501.6032,828.4594 -914.3876,1510.0327 -917.2984,1514.6075 -7.941,12.479 -29.7444,35.5515 1248.4894,-1321.1543 z M 3400.0143,5107.7322 c -1.1233,-1.1232 -1.9224,0.8735 -1.7757,4.4366 0.1623,3.9381 0.9634,4.7389 2.0424,2.0424 0.9766,-2.4402 0.8566,-5.3557 -0.267,-6.479 z M 3940.4125,3408.631 c 285.6927,-903.3261 518.1942,-1643.6332 516.6692,-1645.1269 -1.524,-1.4936 -26.349,-5.2604 -55.166,-8.3706 -64.75,-6.9884 -93.043,-14.0646 -134.217,-33.5687 -73.2022,-34.6764 -132.7986,-90.9545 -158.771,-149.9311 -9.9715,-22.643 -16.7774,-31.014 -25.2152,-31.014 -3.3932,0 -16.4671,9.3724 -29.0536,20.8274 -63.149,57.4732 -134.4432,86.6128 -231.1822,94.4894 -54.6344,4.4484 -93.9829,0.9848 -139.8662,-12.3116 -16.2984,-4.7231 -29.9557,-8.1554 -30.3495,-7.6273 -0.6311,0.8464 -243.2296,3378.6579 -246.9722,3438.7066 l -1.4745,23.6619 8.0785,-23.6619 c 4.4434,-13.0141 241.8274,-762.7471 527.5197,-1666.0732 z m -420.5713,-70.8608 c 67.1051,-936.7222 121.0594,-1704.0808 119.899,-1705.2414 -1.1605,-1.1605 -29.0333,-2.4494 -61.9393,-2.8641 -160.0526,-2.017 -260.7025,-38.3115 -347.7049,-125.383 -47.8385,-47.8763 -48.7652,-48.036 -81.2836,-14.0125 -30.3365,31.7409 -56.5965,50.1229 -102.9757,72.0833 -87.5568,41.4578 -166.5581,54.6951 -261.8526,43.8754 l -27.5088,-3.1233 -2.2019,125.0956 c -4.0836,231.996 -39.3237,3257.848 -37.958,3259.2136 0.7441,0.744 8.7911,-3.2708 17.8822,-8.9222 21.6107,-13.434 65.5425,-28.1331 107.718,-36.0409 28.248,-5.2966 49.9118,-6.3195 131.831,-6.2245 154.7443,0.1792 266.3956,15.981 335.6153,47.4997 28.5651,13.007 63.0656,43.8855 75.5557,67.6239 l 7.9839,15.1734 2.4653,-12.8109 c 1.3558,-7.0462 57.3691,-779.2198 124.4744,-1715.9421 z"
       style="fill:#000000;stroke-width:3.38028" />
  </g>
</svg>
