<?xml version="1.0" encoding="UTF-8" standalone="no"?>
<svg
   xmlns:dc="http://purl.org/dc/elements/1.1/"
   xmlns:cc="http://creativecommons.org/ns#"
   xmlns:rdf="http://www.w3.org/1999/02/22-rdf-syntax-ns#"
   xmlns:svg="http://www.w3.org/2000/svg"
   xmlns="http://www.w3.org/2000/svg"
   xmlns:sodipodi="http://sodipodi.sourceforge.net/DTD/sodipodi-0.dtd"
   xmlns:inkscape="http://www.inkscape.org/namespaces/inkscape"
   version="1.1"
   id="svg401"
   width="1058.8861"
   height="695.34076"
   viewBox="0 0 1058.8861 695.34076"
   sodipodi:docname="паркур.svg"
   inkscape:version="1.0 (4035a4fb49, 2020-05-01)">
  <metadata
     id="metadata407">
    <rdf:RDF>
      <cc:Work
         rdf:about="">
        <dc:format>image/svg+xml</dc:format>
        <dc:type
           rdf:resource="http://purl.org/dc/dcmitype/StillImage" />
        <dc:title></dc:title>
      </cc:Work>
    </rdf:RDF>
  </metadata>
  <defs
     id="defs405" />
  <sodipodi:namedview
     inkscape:document-rotation="0"
     pagecolor="#ffffff"
     bordercolor="#666666"
     borderopacity="1"
     objecttolerance="10"
     gridtolerance="10"
     guidetolerance="10"
     inkscape:pageopacity="0"
     inkscape:pageshadow="2"
     inkscape:window-width="1920"
     inkscape:window-height="1018"
     id="namedview403"
     showgrid="false"
     inkscape:zoom="0.60644074"
     inkscape:cx="3.9964099"
     inkscape:cy="186.95944"
     inkscape:window-x="-6"
     inkscape:window-y="-6"
     inkscape:window-maximized="1"
     inkscape:current-layer="g409" />
  <g
     transform="translate(-687.84308,-78.267117)"
     inkscape:groupmode="layer"
     inkscape:label="Image"
     id="g409">
    <path
       id="path8"
       d="m 892.29805,772.14976 c 1.85991,-0.63584 125.12115,-33.54625 273.91395,-73.13422 234.1634,-62.30179 270.5758,-72.47756 270.8562,-75.69308 0.1781,-2.04322 0.4318,-4.75647 0.5636,-6.02945 0.1319,-1.27298 4.331,-3.35468 9.3315,-4.626 6.6356,-1.68702 10.0059,-3.9461 12.4753,-8.36191 1.9098,-3.41512 6.7872,-7.42776 11.1981,-9.21265 7.2331,-2.92692 7.8146,-3.81282 7.8146,-11.90601 0,-8.4549 -10.6027,-49.70728 -15.6509,-60.89361 -1.3623,-3.01864 -3.3941,-13.01129 -4.5151,-22.20594 -1.5693,-12.87135 -4.454,-21.73167 -12.5386,-38.5117 -18.8379,-39.09918 -36.7408,-61.19021 -45.7572,-56.46158 -2.4262,1.27241 -60.2148,71.29631 -68.0794,82.49361 -10.8857,15.49839 -57.2658,52.76741 -75.5361,60.69743 -11.4421,4.96632 -20.2683,5.75593 -29.1478,2.60766 -6.6718,-2.36554 -9.2797,-4.98879 -13.8959,-13.97808 -8.2502,-16.06565 -8.7949,-16.74704 -13.9066,-17.3955 -6.1618,-0.78165 -26.7827,11.91392 -31.2451,19.2365 -3.4339,5.63498 -3.7665,5.72709 -16.2627,4.50454 -7.0165,-0.68644 -18.452,-2.235 -25.4123,-3.44123 -11.887,-2.06003 -13.8711,-1.82582 -32.6893,3.85877 -15.9983,4.83274 -23.91,6.10274 -39.2739,6.30431 -17.9543,0.23556 -20.023,-0.15648 -30.9637,-5.86905 -15.3129,-7.99534 -19.8692,-7.27293 -19.119,3.03132 0.8544,11.7354 -4.70049,15.0522 -25.20896,15.0522 -14.41707,0 -17.36979,-0.65271 -25.96264,-5.73914 -23.84528,-14.11493 -23.05893,-14.02467 -49.71587,-5.70647 -6.19925,1.93445 -13.21386,2.73767 -18.03549,2.06515 -4.33978,-0.60531 -13.76362,-0.13028 -20.94186,1.05578 -10.90169,1.80115 -15.38419,1.62046 -27.21491,-1.09702 -24.87623,-5.71401 -36.20454,-12.63884 -49.68905,-30.37419 -16.41037,-21.58352 -15.66931,-21.20489 -36.30592,-18.55043 -38.13779,4.90563 -61.99457,-4.54065 -61.97572,-24.53979 0.0124,-13.08963 5.91583,-19.92675 23.27649,-26.95756 17.17633,-6.95615 25.11488,-7.32588 39.32786,-1.83157 17.00325,6.5729 24.69186,6.62471 38.8916,0.26199 19.27886,-8.63862 40.6598,-12.99534 49.92223,-10.17248 12.40165,3.77957 52.4514,8.89852 59.73311,7.63476 3.73587,-0.64837 13.80416,-0.43145 22.37395,0.48205 8.5698,0.9135 18.86435,1.17004 22.87679,0.57007 4.01242,-0.59995 9.43423,-0.11937 12.04847,1.06779 3.88892,1.76613 5.63681,1.46423 9.61296,-1.66033 2.67288,-2.10042 8.94909,-4.73918 13.94718,-5.86392 4.99806,-1.12474 11.08503,-3.3265 13.52661,-4.89283 5.81547,-3.73075 11.34037,-3.68179 19.02167,0.16854 8.8063,4.41425 16.6775,2.18015 22.8402,-6.48272 2.8082,-3.94743 8.209,-9.44375 12.0018,-12.21405 l 6.8961,-5.0369 -3.8034,-6.76802 c -2.0919,-3.72241 -8.7287,-12.64714 -14.7486,-19.83272 -19.0851,-22.78105 -27.3248,-35.5183 -35.102,-54.26181 -7.11943,-17.1583 -21.56105,-40.7324 -29.55995,-48.25284 -5.97903,-5.62138 -23.62538,-3.28951 -80.1923,10.597 -34.92356,8.57332 -67.5185,12.96197 -92.43186,12.44522 -6.81966,-0.14138 -16.45738,0.73731 -21.41713,1.95278 -4.95976,1.21547 -19.22914,2.73568 -31.70974,3.37825 l -22.692,1.1683 -7.07758,-6.84026 c -10.67509,-10.31714 -12.9589,-19.08707 -10.14596,-38.96101 l 2.36729,-16.7254 -8.64044,-15.30438 c -10.92273,-19.34687 -14.13247,-29.88049 -12.16147,-39.91118 3.25726,-16.57669 17.78338,-33.74115 28.55482,-33.74115 8.53786,0 2.4504,-4.79131 -7.29173,-5.73915 -9.71069,-0.94477 -9.77783,-1.00169 -5.47134,-4.63723 7.01697,-5.92367 29.952,-13.8145 50.40315,-17.34126 l 18.96927,-3.27119 23.865,9.69414 c 35.56,14.44475 56.2324,17.449 133.20512,19.35822 60.62435,1.50372 62.52107,1.67201 85.66855,7.60094 32.2211,8.25307 70.0097,8.47517 136.3934,0.80169 28.562,-3.30156 32.6837,-5.31592 27.5412,-13.46008 -13.4255,-21.26199 -15.1412,-24.89757 -15.1334,-32.06952 0.016,-13.87983 12.8079,-25.918807 30.542,-28.741947 4.1109,-0.654419 13.2925,-4.16285 20.4036,-7.796508 15.3476,-7.842318 23.0988,-9.400976 47.1139,-9.473943 24.1872,-0.07348 28.8354,1.314537 43.3136,12.933921 21.1249,16.953637 22.017,19.411807 22.3627,61.620147 l 0.2977,36.34792 16.2346,14.02103 c 11.93,10.30339 20.1288,15.50367 30.9216,19.6128 11.9389,4.54546 20.1689,10.15499 43.9838,29.97907 19.302,16.06742 33.5865,29.93482 41.8707,40.64821 6.9157,8.9435 16.3334,19.91976 20.9282,24.39169 9.0977,8.8544 22.4698,29.46149 27,41.60846 1.5696,4.20871 8.7323,17.22989 15.917,28.93598 8.5299,13.89801 12.638,22.66302 11.8382,25.25837 -0.8834,2.86653 -5.254,5.11238 -15.6775,8.05581 -13.6925,3.86656 -21.1476,7.85563 -21.1476,11.31553 0,0.85419 4.4621,14.78187 9.9159,30.95038 12.4883,37.02377 14.7146,49.51207 16.7474,93.94662 1.2701,27.76104 2.3897,36.44433 4.9604,38.47074 2.8346,2.23446 18.5655,-1.35283 107.5881,-24.53436 57.3475,-14.93331 104.7752,-26.72122 105.3949,-26.19534 0.6197,0.52588 1.1268,52.0345 1.1268,114.46364 v 113.5075 l -428.9064,-0.15103 c -235.8985,-0.0831 -427.38466,-0.67125 -425.52475,-1.30709 z M 1159.1437,315.91117 c 1.7493,-2.36739 3.8285,-7.44612 4.6205,-11.28606 0.7919,-3.83993 2.9348,-8.03448 4.7619,-9.32121 5.1554,-3.63072 3.9692,-10.82676 -3.832,-23.24698 -8.2332,-13.10792 -14.3946,-17.85484 -25.4618,-19.61666 -4.3208,-0.68786 -13.5631,-3.79811 -20.5384,-6.91169 -7.5105,-3.35248 -16.1292,-5.66105 -21.1347,-5.66105 -11.336,0 -22.237,-3.41988 -25.0332,-7.85341 -2.3554,-3.73467 -9.9237,-4.93673 -12.1175,-1.92462 -0.6811,0.93516 5.1138,7.60691 12.8777,14.82612 30.2329,28.11224 36.1271,34.4701 43.5461,46.97143 5.4743,9.22428 10.9727,15.14872 19.1505,20.63398 13.0415,8.7477 18.6008,9.56143 23.1609,3.39015 z M 797.76964,201.62697 c 17.89229,-5.24965 33.96919,-10.01268 35.72646,-10.58447 7.15073,-2.32682 -2.8154,-5.68351 -20.06857,-6.7593 -16.17053,-1.00827 -19.05364,-1.83461 -30.91495,-8.86072 -27.76216,-16.44506 -36.36148,-18.22603 -47.24335,-9.78432 l -4.85441,3.76585 10.10962,18.48339 c 5.56029,10.16588 11.16611,19.56364 12.45738,20.88391 3.86231,3.94908 10.69084,2.85983 44.78782,-7.14434 z"
       style="fill:#000000;stroke-width:2.07674" />
  </g>
</svg>
