<?xml version="1.0" encoding="UTF-8" standalone="no"?>
<svg
   xmlns:dc="http://purl.org/dc/elements/1.1/"
   xmlns:cc="http://creativecommons.org/ns#"
   xmlns:rdf="http://www.w3.org/1999/02/22-rdf-syntax-ns#"
   xmlns:svg="http://www.w3.org/2000/svg"
   xmlns="http://www.w3.org/2000/svg"
   xmlns:sodipodi="http://sodipodi.sourceforge.net/DTD/sodipodi-0.dtd"
   xmlns:inkscape="http://www.inkscape.org/namespaces/inkscape"
   inkscape:version="1.0 (4035a4fb49, 2020-05-01)"
   sodipodi:docname="пятиборье.svg"
   viewBox="0 0 595.30811 598.40814"
   height="598.40814"
   width="595.30811"
   id="svg682"
   version="1.1">
  <metadata
     id="metadata688">
    <rdf:RDF>
      <cc:Work
         rdf:about="">
        <dc:format>image/svg+xml</dc:format>
        <dc:type
           rdf:resource="http://purl.org/dc/dcmitype/StillImage" />
        <dc:title></dc:title>
      </cc:Work>
    </rdf:RDF>
  </metadata>
  <defs
     id="defs686" />
  <sodipodi:namedview
     inkscape:current-layer="g690"
     inkscape:window-maximized="1"
     inkscape:window-y="-6"
     inkscape:window-x="-6"
     inkscape:cy="265.22949"
     inkscape:cx="281.07875"
     inkscape:zoom="1.4166667"
     showgrid="false"
     id="namedview684"
     inkscape:window-height="1018"
     inkscape:window-width="1920"
     inkscape:pageshadow="2"
     inkscape:pageopacity="0"
     guidetolerance="10"
     gridtolerance="10"
     objecttolerance="10"
     borderopacity="1"
     bordercolor="#666666"
     pagecolor="#ffffff"
     inkscape:document-rotation="0" />
  <g
     transform="translate(-18.921253,-8.0515081)"
     id="g690"
     inkscape:label="Image"
     inkscape:groupmode="layer">
    <path
       id="path8"
       d="m 306.8391,605.67722 c -1.30843,-1.26441 -0.9867,-10.03793 0.46416,-12.65769 0.71714,-1.2949 2.13415,-2.35437 3.14892,-2.35437 1.01477,0 1.84853,-0.68467 1.8528,-1.52149 0.004,-0.83682 0.86461,-3.10926 1.91188,-5.04987 1.04726,-1.94061 1.74041,-3.68658 1.54033,-3.87993 -0.20009,-0.19336 -2.26144,1.24954 -4.58081,3.20645 -2.31935,1.9569 -4.71641,3.25975 -5.32679,2.8952 -0.61038,-0.36454 -1.10977,-3.60391 -1.10977,-7.1986 0,-6.62905 2.05099,-10.36126 5.69392,-10.36126 2.95318,0 8.70482,-8.59511 10.52329,-15.72575 0.95271,-3.73579 1.84018,-9.98407 1.97215,-13.88505 0.27614,-8.16329 1.39255,-9.29359 9.20622,-9.32079 6.11741,-0.0213 6.16285,-0.15472 3.46381,-10.16845 -1.03914,-3.85533 -1.88935,-11.28856 -1.88935,-16.51831 v -9.50863 l -5.98294,-0.67622 c -9.01976,-1.01948 -12.8214,0.18691 -18.80229,5.9666 -8.13794,7.86417 -14.20878,22.01308 -14.33394,33.40718 -0.12168,11.07889 -1.50642,16.34571 -4.29749,16.34571 -4.20638,0 -6.92733,-9.97853 -7.14238,-26.19309 -0.17417,-13.13273 0.0414,-14.46988 3.40242,-21.10302 5.51467,-10.88357 20.16897,-23.91631 26.87764,-23.90354 1.80116,0.004 5.54204,1.35568 8.31309,3.00499 7.60881,4.52875 13.44314,4.11716 18.54807,-1.30848 12.5653,-13.35467 29.40703,-21.58965 53.24726,-26.03594 17.98816,-3.35485 29.32063,-7.35798 37.47213,-13.2368 3.29062,-2.37316 5.98294,-4.78698 5.98294,-5.36403 0,-0.57704 -2.63621,-4.16172 -5.85823,-7.96595 -10.79293,-12.74311 -12.11449,-18.79368 -5.5623,-25.46599 8.62082,-8.77883 42.21048,-16.67975 53.41317,-12.56377 2.77781,1.02059 3.27969,0.72802 4.69793,-2.73869 0.87334,-2.13475 2.43258,-4.83989 3.465,-6.01144 2.75835,-3.13008 9.2854,-2.72581 12.70001,0.7866 2.46031,2.53078 2.71895,3.69837 1.95484,8.82466 -1.13831,7.63656 -3.48813,10.16815 -9.43812,10.16815 -3.8979,0 -5.48764,0.84627 -9.34945,4.97702 -6.36879,6.81235 -5.2137,7.37653 4.35984,2.12946 4.43988,-2.4334 9.81978,-4.53454 15.11481,-5.90311 3.11743,-0.80574 7.75755,-2.29522 10.31137,-3.30994 9.24826,-3.67468 21.2471,1.76702 34.05579,15.44493 7.03457,7.51195 7.21506,7.61231 11.24704,6.25404 3.59019,-1.20944 4.41702,-1.06519 6.67562,1.16464 l 2.57789,2.54504 -4.06647,3.32636 -4.06647,3.32635 1.18026,10.00029 c 0.64914,5.50016 1.47604,11.76911 1.83755,13.93098 0.36151,2.16188 0.92927,6.78367 1.26171,10.27065 0.54698,5.73728 0.29041,6.57866 -2.6991,8.8511 -4.45053,3.38302 -8.72982,4.26973 -12.53024,2.59641 -2.70124,-1.18937 -3.03091,-1.92254 -2.30353,-5.12288 0.96553,-4.24815 -2.21698,-8.45942 -8.84332,-11.70201 -5.46485,-2.67421 -10.70632,-7.75579 -10.70632,-10.37972 0,-1.2469 0.90366,-3.95581 2.00812,-6.01977 2.46035,-4.59773 1.10485,-5.81768 -6.49492,-5.84537 -10.13134,-0.0369 -21.09869,8.0104 -24.19226,17.75109 -1.55849,4.9072 0.16811,6.50804 4.56605,4.2335 4.80006,-2.48249 8.9915,-1.46129 15.38495,3.7484 3.41491,2.78262 6.20892,5.8273 6.20892,6.76595 0,0.93864 -1.60168,3.72852 -3.5593,6.19973 -1.9576,2.47121 -5.04304,6.47004 -6.85651,8.88629 -1.81348,2.41625 -5.45475,5.38013 -8.0917,6.5864 -2.63697,1.20626 -5.36129,2.86611 -6.05405,3.68857 -1.73504,2.05984 -10.38547,4.5778 -12.73446,3.70673 -1.29716,-0.48103 -1.65213,-1.54215 -1.08921,-3.25606 0.70234,-2.13847 0.36588,-2.48388 -2.1174,-2.17364 -3.85445,0.48153 -6.10136,-0.95029 -6.10136,-3.88806 0,-3.92093 -6.14573,-2.93949 -12.59029,2.01058 -13.93293,10.70188 -29.60541,13.92051 -55.9564,11.49166 l -16.27465,-1.5001 -2.26885,2.85951 c -1.24786,1.57273 -3.75056,6.4198 -5.56155,10.77127 -4.62279,11.10765 -7.09249,13.36857 -18.98336,17.37863 -2.68118,0.90421 -10.56531,5.78 -17.52031,10.8351 -10.18617,7.40363 -13.21944,10.34743 -15.59685,15.13688 -1.62326,3.27017 -3.72639,7.49644 -4.6736,9.3917 -0.94722,1.89526 -1.7222,4.8022 -1.7222,6.45987 0,5.28641 -2.78804,14.35389 -5.21203,16.95093 -1.28996,1.38207 -2.34538,2.85195 -2.34538,3.26642 0,0.41445 -1.78513,3.52864 -3.96698,6.92041 -3.7331,5.80329 -5.83207,7.24645 -7.78897,5.35538 z M 174.02577,589.1665 c -0.85389,-0.99425 -1.42104,-5.49539 -1.35529,-10.75599 0.13747,-11.00009 -3.67233,-25.33409 -10.74415,-40.42372 -2.66941,-5.69592 -3.29631,-8.8756 -3.29631,-16.71915 v -9.68558 l -4.87531,-3.1178 c -2.68142,-1.71478 -6.66779,-5.27327 -8.85862,-7.90775 -7.29633,-8.77386 -7.96607,-8.6288 -14.61963,3.16669 -3.23218,5.73004 -7.58588,12.29944 -9.6749,14.59866 -6.11499,6.73029 -9.69861,5.84928 -30.47295,-7.49162 -4.07682,-2.61806 -8.31171,-5.30784 -9.41087,-5.9773 -1.09916,-0.66945 -6.16993,-3.86561 -11.26838,-7.10258 -10.78883,-6.84973 -18.60204,-10.48233 -22.62713,-10.52001 -1.77407,-0.0165 -4.9694,2.10553 -8.43862,5.6044 -6.42131,6.47621 -9.48902,6.52078 -9.48902,0.13787 0,-3.18616 1.20339,-5.18626 5.66805,-9.42058 3.11743,-2.95661 5.66806,-6.0832 5.66806,-6.94801 0,-2.47985 4.76713,-6.44113 7.75146,-6.44113 1.60003,0 4.45598,1.96754 6.96099,4.79563 4.69861,5.30461 12.86945,9.47594 26.22348,13.38746 4.84934,1.42042 10.80079,3.16923 13.22546,3.88624 2.42466,0.71701 6.58558,2.65834 9.24649,4.31407 4.76831,2.96705 4.82551,2.9724 3.97099,0.37059 -0.47686,-1.4519 -0.15436,-9.2231 0.71667,-17.26933 1.28064,-11.83021 1.27557,-15.79123 -0.0265,-20.70076 -1.5756,-5.94082 -1.51217,-6.25811 2.95305,-14.77259 2.50978,-4.78574 4.56069,-9.27689 4.55759,-9.9803 -0.003,-0.70343 -2.57018,-2.48298 -5.7046,-3.95457 -9.07209,-4.25929 -18.23416,-11.39741 -18.22258,-14.19711 0.006,-1.36338 3.83158,-7.33692 8.50208,-13.27455 4.67051,-5.93761 9.9426,-13.1932 11.71576,-16.12356 6.24208,-10.31572 13.98328,-16.29118 21.10522,-16.29118 4.85163,0 9.79373,-3.90083 10.74102,-8.47796 0.54551,-2.63575 -0.12407,-5.29468 -2.35399,-9.34743 -4.2906,-7.79805 -4.02976,-11.67706 1.15269,-17.14185 3.99969,-4.21759 4.74614,-4.50446 11.83054,-4.5466 9.41384,-0.056 12.26275,2.07439 13.4668,10.07043 0.47275,3.13947 1.71835,6.99908 2.768,8.57692 1.38067,2.07543 1.5277,3.23676 0.53164,4.19932 -0.75727,0.73179 -1.37684,3.40457 -1.37684,5.93952 0,4.11692 -0.47067,4.79905 -4.40848,6.38902 -5.05161,2.03969 -5.69029,4.83148 -1.57446,6.8823 8.72623,4.34806 10.47234,9.64472 5.98294,18.14864 -1.38552,2.62449 -2.51913,6.19885 -2.51913,7.94304 0,1.7442 -1.98382,7.32053 -4.40849,12.39186 -2.42466,5.07133 -4.40848,9.60329 -4.40848,10.07101 0,1.4415 6.21101,3.67554 10.2186,3.67554 6.0311,0 8.67491,1.97913 8.67491,6.49395 0,2.18565 -0.68017,4.63121 -1.51148,5.43455 -2.27477,2.19824 -7.99777,1.75901 -12.62821,-0.9692 -5.47723,-3.22712 -6.22378,-3.10184 -9.08442,1.52463 -7.05034,11.40241 -6.91156,18.90334 0.5115,27.64532 6.40116,7.53852 11.50397,16.07555 15.66514,26.20785 1.92454,4.6862 4.02303,9.13458 4.66331,9.88531 2.68815,3.15181 4.55093,14.20533 4.79555,28.45632 0.30096,17.5338 2.75624,36.41446 5.58671,42.96082 2.28072,5.27494 5.83728,6.94416 14.79563,6.94416 4.61692,0 6.46148,0.51902 7.04224,1.98154 1.37904,3.47284 -4.3435,6.30623 -14.06838,6.96563 -4.86198,0.32967 -10.85531,0.96373 -13.31848,1.40904 -3.14555,0.56865 -4.91555,0.30075 -5.94687,-0.90012 z m -55.4777,-175.72611 -0.52952,-4.38315 -2.54149,2.45599 c -2.90563,2.80788 -2.18699,6.3103 1.29478,6.3103 1.90578,0 2.2139,-0.76032 1.77623,-4.38314 z M 45.89875,380.64296 c -2.77105,-0.93648 -7.16155,-2.01603 -9.75668,-2.39902 -2.59512,-0.38299 -6.21146,-1.93741 -8.0363,-3.45427 l -3.31788,-2.75791 1.37036,-10.27266 c 2.38941,-17.91181 2.88986,-29.5616 1.53932,-35.83376 -0.72074,-3.34729 -1.52523,-21.97037 -1.78775,-41.38462 -0.3977,-29.41145 -0.83848,-36.29516 -2.64283,-41.27362 -1.72964,-4.77233 -2.00193,-8.20227 -1.3528,-17.04072 1.34525,-18.31648 1.27856,-22.90683 -0.4437,-30.54086 -0.90619,-4.01675 -1.92305,-13.48792 -2.2597,-21.04706 -0.59547,-13.37086 -0.52283,-13.85699 2.67633,-17.91019 1.80862,-2.29146 5.21497,-5.04976 7.56965,-6.12953 5.60606,-2.57076 6.13353,-4.31678 3.19448,-10.57424 -4.37052,-9.30519 -2.6708,-15.94163 5.07422,-19.812 4.67438,-2.3359 12.9459,-2.32883 17.6363,0.0151 3.99411,1.99595 5.53818,5.95332 6.88319,17.64119 0.9131,7.93463 -1.96079,14.7487 -6.6589,15.78847 -12.27163,2.7159 20.92749,3.7904 35.51414,1.14943 3.38517,-0.61291 14.89485,-1.11437 25.57706,-1.11437 h 19.4222 l 2.43364,-5.31657 c 1.33851,-2.92412 3.30526,-6.01562 4.37057,-6.87 1.21903,-0.97767 7.42013,-1.77166 16.73094,-2.14222 12.57808,-0.50061 15.04692,-0.29433 16.48238,1.37712 3.4967,4.07153 0.86224,5.6485 -9.43628,5.6485 -10.0529,0 -12.9515,1.39149 -13.04891,6.26419 -0.0805,4.02427 -8.10565,9.18812 -15.70543,10.10572 -3.9224,0.47358 -9.79588,2.00119 -13.05218,3.39468 -8.07722,3.45657 -15.35877,5.09698 -36.77994,8.28594 -3.81019,0.56723 -11.44076,1.74542 -16.95683,2.61823 l -10.02921,1.5869 -2.22755,15.82353 c -1.22515,8.70294 -2.2746,16.37127 -2.33211,17.04073 -0.0575,0.66945 0.92221,7.51617 2.17714,15.21493 2.65926,16.31402 2.93938,48.85566 0.54484,63.29412 -1.3342,8.0449 -4.51797,18.76193 -7.77437,26.16968 -3.91551,8.90709 -5.11113,27.50172 -2.03016,31.57346 1.10686,1.4628 3.87453,2.42145 8.13222,2.81679 7.22628,0.67099 11.67378,3.80316 8.74059,6.15561 -0.91625,0.73483 -6.1735,1.49805 -11.68277,1.69601 -9.1996,0.33057 -9.98655,0.55856 -9.64539,2.79433 1.09134,7.15196 5.03781,11.00262 13.68492,13.3527 1.49615,0.40663 3.40767,1.53971 4.24782,2.51797 4.16816,4.85336 -6.56887,7.08857 -17.04464,3.54831 z m 378.46604,-63.32415 c -0.73066,-1.85715 -1.08592,-3.98746 -0.78946,-4.73401 0.29646,-0.74657 5.16562,-2.91378 10.82035,-4.81603 11.95708,-4.02236 17.7639,-3.79387 27.74039,1.09152 7.81053,3.82476 11.14238,3.84429 18.76809,0.11004 3.90896,-1.91419 8.6701,-3.0774 13.49848,-3.29787 6.43847,-0.29399 8.54081,0.21928 15.35999,3.74999 l 7.90055,4.09061 7.21426,-3.46626 c 10.5437,-5.06596 21.58479,-5.53586 30.25969,-1.28784 8.28149,4.05538 10.63866,3.98588 21.15926,-0.62392 7.35084,-3.2209 9.66375,-3.69198 15.34508,-3.12534 3.67931,0.36697 9.35673,1.8385 12.61652,3.27008 11.33194,4.97658 11.48683,5.16662 7.89508,9.68674 l -2.38064,2.99594 -6.09162,-2.55644 c -15.35668,-6.44462 -14.36819,-6.37983 -24.55848,-1.60964 -10.33645,4.8386 -17.12674,4.83883 -27.70913,9.6e-4 -4.39198,-2.00785 -8.67971,-3.65106 -9.52832,-3.65158 -0.84859,-5.3e-4 -5.25553,1.64225 -9.79318,3.65062 -10.82877,4.79282 -16.94131,4.75766 -28.32918,-0.16297 l -8.82805,-3.81454 -8.82806,3.81454 c -11.42275,4.9357 -17.41748,4.94305 -29.51406,0.0362 l -9.31461,-3.77839 -8.60548,3.0382 c -4.73303,1.67101 -9.58954,3.42697 -10.79224,3.90213 -1.64372,0.64939 -2.51663,0.0254 -3.51523,-2.5127 z m 38.5642,-10.93892 c -1.31795,-0.93128 -5.28348,-2.50318 -8.81229,-3.4931 -6.85262,-1.92233 -10.455,-1.50869 -21.0344,2.4153 -7.14179,2.64896 -10.26215,1.77987 -9.71263,-2.70515 0.84175,-6.87007 20.87743,-13.12853 31.11621,-9.71965 4.96337,1.65248 5.90867,1.62242 10.66652,-0.33926 2.87127,-1.18383 7.2345,-2.51359 9.69606,-2.95501 2.69366,-0.48303 6.63234,-2.74607 9.89267,-5.68402 2.97942,-2.68479 7.8572,-6.26333 10.83953,-7.95229 2.98234,-1.68897 5.78975,-4.00655 6.2387,-5.15019 1.6951,-4.31808 15.39216,-22.76149 21.06371,-28.36275 3.24839,-3.20815 7.74064,-6.74972 9.98276,-7.87016 l 4.07658,-2.03717 9.54054,9.67469 c 5.24729,5.32108 16.56594,16.79817 25.15256,25.50467 8.58662,8.7065 16.67714,17.83625 17.97892,20.28835 1.48743,2.80176 3.26971,4.45834 4.79667,4.45834 1.33638,0 3.73176,0.48788 5.32307,1.08418 14.92048,5.59106 16.21056,6.77094 12.3894,11.33113 l -2.34348,2.79671 -6.09545,-2.2576 c -12.53282,-4.64186 -14.96823,-4.77144 -23.48405,-1.2495 -11.14328,4.60859 -17.4472,5.01535 -24.96837,1.61112 -3.375,-1.52758 -6.13636,-3.23153 -6.13636,-3.78655 0,-2.38117 -10.86309,-0.82616 -18.46001,2.64245 -10.03361,4.58118 -14.42903,4.58118 -24.99506,0 -4.63211,-2.00837 -9.46324,-3.65158 -10.73586,-3.65158 -1.27261,0 -5.89592,1.59966 -10.27401,3.5548 -8.7541,3.90935 -17.7091,4.67365 -21.70193,1.85224 z m 111.95337,-11.03994 c 2.42431,-1.62981 2.41513,-1.67027 -0.37917,-1.67027 -3.11973,0 -6.51383,-5.92405 -6.51383,-11.36923 0,-3.25749 -7.44123,-10.52107 -15.74459,-15.36869 -2.77104,-1.61778 -7.30549,-4.78946 -10.07653,-7.04819 l -5.03827,-4.10678 -1.88935,4.05034 c -1.03915,2.22769 -3.33478,5.96088 -5.10141,8.296 -3.71478,4.91015 -6.2347,11.49061 -6.2347,16.2812 v 3.34236 l 5.86717,-4.64597 c 5.66077,-4.48253 6.20553,-4.64597 15.48509,-4.64597 7.01515,0 10.52251,0.57276 12.96058,2.1165 4.65303,2.94622 7.70025,9.57634 6.60867,14.37909 -0.86882,3.82266 -0.85718,3.8329 3.34999,2.94792 2.32201,-0.48842 5.33987,-1.63967 6.70635,-2.55831 z M 228.58308,217.03669 c -1.27978,-1.36656 -2.96008,-2.48466 -3.73401,-2.48466 -2.27576,0 -10.79809,-7.31859 -10.79809,-9.2729 0,-0.98588 1.55871,-3.19331 3.46381,-4.90541 9.76107,-8.77222 11.61154,-10.79823 13.04912,-14.28699 4.2056,-10.20622 14.97889,-21.85065 24.35021,-26.31917 4.69487,-2.23865 5.51076,-6.14472 5.64748,-27.03716 0.11336,-17.31999 2.76317,-24.469 12.44876,-33.585689 5.6646,-5.33189 7.23639,-7.76256 11.39937,-17.62846 1.43101,-3.39137 2.04153,-16.679154 0.76634,-16.679154 -0.36863,0 -2.70508,0.821607 -5.19209,1.825792 -2.48703,1.004186 -5.4802,1.825792 -6.65151,1.825792 -1.17131,0 -3.79442,1.694969 -5.82913,3.766598 -2.0347,2.07163 -6.86917,5.322322 -10.74326,7.223762 -7.93788,3.89597 -11.20428,7.86221 -12.1629,14.76882 -0.78123,5.62859 -2.58287,7.099019 -4.91756,4.01355 -2.3066,-3.04834 -8.22214,-1.13355 -9.2288,2.987249 -0.3919,1.60428 -1.72477,3.51645 -2.96191,4.24926 -3.0024,1.77844 -5.88053,-1.87639 -5.88053,-7.467449 0,-3.56151 0.73571,-4.48981 5.84483,-7.37482 3.21466,-1.81525 8.1742,-5.75947 11.02121,-8.76494 17.52872,-18.504329 22.76646,-23.151945 28.34112,-25.14801 3.19292,-1.14326 7.22232,-3.004617 8.95423,-4.13635 9.83069,-6.423979 14.22657,-7.722397 26.45091,-7.812853 7.11681,-0.05266 13.10833,-0.70954 14.78504,-1.620954 3.42832,-1.863536 4.65564,-6.031432 3.56776,-12.1159 -2.19222,-12.26105 -2.19997,-13.449038 -0.10782,-16.534573 1.27185,-1.875784 4.57421,-3.901625 8.32001,-5.1039264 5.97709,-1.918487 6.41785,-1.896873 11.69905,0.573709 8.67965,4.0604024 9.40479,5.3816164 9.73222,17.7325864 0.388,14.636681 -1.89451,20.071933 -8.42915,20.071933 -3.59076,0 -4.40026,0.424308 -4.06383,2.130091 0.23637,1.19846 1.79173,2.308258 3.55618,2.537456 1.72482,0.224051 3.67451,0.908723 4.33263,1.521493 0.65813,0.61277 2.19672,1.114128 3.41912,1.114128 2.86385,0 12.12169,5.006979 20.2492,10.951519 3.51357,2.569866 8.14182,4.937047 10.285,5.260405 6.54568,0.9876 39.04776,0.267091 40.9583,-0.907966 0.98655,-0.606773 4.66517,-1.040018 8.17468,-0.962766 4.96561,0.109304 7.03808,-0.45317 9.34364,-2.535889 l 2.9627,-2.676344 3.97743,4.397006 c 2.18758,2.418354 4.96933,4.729048 6.18166,5.134875 2.90628,0.972875 2.81637,3.32188 -0.15588,4.073 -1.29807,0.32803 -3.58227,2.19383 -5.07598,4.14622 -3.02927,3.95947 -4.65479,4.3543 -7.57952,1.84101 -1.64005,-1.40933 -5.47312,-1.52861 -21.87206,-0.68062 -10.93594,0.5655 -24.13935,1.71922 -29.3409,2.56383 -7.68852,1.24844 -10.21254,1.2408 -13.495,-0.0408 -8.34228,-3.25728 -30.53967,-9.871123 -33.12949,-9.871123 -5.44395,0 -27.75412,23.519783 -30.81681,32.487632 -2.07014,6.06159 -0.69711,9.00906 6.32833,13.58483 11.40258,7.42668 31.53791,32.40846 31.53791,39.1289 0,1.26114 0.56681,2.6315 1.25957,3.04525 0.69276,0.41374 1.25957,1.77952 1.25957,3.03505 0,6.53833 28.15344,40.32565 34.93111,41.9213 1.91712,0.45133 5.4695,1.21097 7.89417,1.68808 3.25443,0.64036 4.40849,1.49932 4.40849,3.28119 0,2.57809 -2.14998,3.08464 -21.06662,4.96343 -9.76426,0.96978 -12.31192,-0.23487 -12.31192,-5.82174 0,-5.44911 -1.83811,-7.93113 -15.15452,-20.46324 -12.61684,-11.87376 -16.75387,-17.8258 -18.22883,-26.2263 -1.44399,-8.22406 -1.79539,-8.70978 -7.90226,-10.92282 -10.05831,-3.64499 -17.2772,-7.52691 -25.96895,-13.96467 l -8.33586,-6.17414 -1.44021,3.38717 c -3.87249,9.10752 -12.91967,26.77106 -14.74711,28.79197 -1.13301,1.25294 -5.41975,4.48887 -9.5261,7.19094 -4.10634,2.70206 -12.43878,9.61913 -18.51652,15.37123 -10.25439,9.70498 -10.98686,10.72144 -10.16785,14.10997 1.33427,5.5204 2.92373,7.26139 8.43998,9.24458 7.95613,2.86037 6.58383,5.2954 -3.22151,5.71632 -6.99713,0.30038 -8.61548,-0.0252 -10.58665,-2.13009 z"
       style="fill:#000000;stroke-width:1.2382" />
  </g>
</svg>
