<?xml version="1.0" encoding="UTF-8" standalone="no"?>
<svg
   xmlns:dc="http://purl.org/dc/elements/1.1/"
   xmlns:cc="http://creativecommons.org/ns#"
   xmlns:rdf="http://www.w3.org/1999/02/22-rdf-syntax-ns#"
   xmlns:svg="http://www.w3.org/2000/svg"
   xmlns="http://www.w3.org/2000/svg"
   xmlns:sodipodi="http://sodipodi.sourceforge.net/DTD/sodipodi-0.dtd"
   xmlns:inkscape="http://www.inkscape.org/namespaces/inkscape"
   inkscape:version="1.0 (4035a4fb49, 2020-05-01)"
   sodipodi:docname="скалолаз.svg"
   viewBox="0 0 786.12061 1275.2966"
   height="1275.2966"
   width="786.12061"
   id="svg20"
   version="1.1">
  <metadata
     id="metadata26">
    <rdf:RDF>
      <cc:Work
         rdf:about="">
        <dc:format>image/svg+xml</dc:format>
        <dc:type
           rdf:resource="http://purl.org/dc/dcmitype/StillImage" />
        <dc:title></dc:title>
      </cc:Work>
    </rdf:RDF>
  </metadata>
  <defs
     id="defs24" />
  <sodipodi:namedview
     inkscape:current-layer="g28"
     inkscape:window-maximized="1"
     inkscape:window-y="-6"
     inkscape:window-x="-6"
     inkscape:cy="801.88556"
     inkscape:cx="778.74534"
     inkscape:zoom="0.46403883"
     showguides="false"
     showgrid="false"
     id="namedview22"
     inkscape:window-height="1018"
     inkscape:window-width="1920"
     inkscape:pageshadow="2"
     inkscape:pageopacity="0"
     guidetolerance="10"
     gridtolerance="10"
     objecttolerance="10"
     borderopacity="1"
     bordercolor="#666666"
     pagecolor="#ffffff"
     inkscape:document-rotation="0" />
  <g
     transform="translate(735.67909,39.527432)"
     id="g28"
     inkscape:label="Image"
     inkscape:groupmode="layer">
    <path
       id="path8"
       d="m -559.11121,1085.1745 c 0,-82.8271 -0.31643,-152.39247 -0.70316,-154.58968 -0.54341,-3.08727 -2.47332,-5.50478 -8.4943,-10.64038 -18.71072,-15.95934 -34.56272,-27.95957 -41.7683,-31.61933 -3.0141,-1.53089 -7.45306,-3.81714 -9.86434,-5.08058 -2.41128,-1.26343 -6.60363,-3.28896 -9.31632,-4.50117 -9.87396,-4.41232 -14.86025,-6.81633 -17.89944,-8.62974 -1.70661,-1.01829 -3.95512,-1.85144 -4.9967,-1.85144 -1.04157,0 -2.85116,-0.82282 -4.02132,-1.8285 -1.17015,-1.00566 -2.74907,-1.8463 -3.5087,-1.8681 -3.54628,-0.1017 -46.54977,-24.18969 -56.26102,-31.51408 -3.277,-2.47156 -9.03401,-7.65652 -12.79334,-11.52213 -7.7385,-7.95728 -8.27782,-10.36506 -5.16287,-23.04955 0.91975,-3.74537 2.17867,-11.01299 2.79759,-16.15027 0.61893,-5.13727 1.83927,-11.74192 2.71187,-14.67698 0.87261,-2.93506 1.58656,-7.1577 1.58656,-9.38367 0,-2.22595 0.98643,-7.23623 2.19207,-11.13396 1.20564,-3.89772 2.19208,-8.80178 2.19208,-10.8979 0,-2.09612 0.69243,-5.05238 1.53873,-6.56947 0.8463,-1.51708 1.8829,-5.18597 2.30355,-8.15307 0.42065,-2.96712 1.45144,-6.89013 2.29065,-8.7178 0.83921,-1.82769 1.52887,-4.3329 1.53258,-5.56713 0.004,-1.23424 0.97368,-4.31661 2.15549,-6.8497 1.18181,-2.53311 3.43636,-7.68801 5.01011,-11.45534 3.58652,-8.58561 9.08206,-19.95889 10.83193,-22.41721 0.73136,-1.02746 2.75216,-6.07133 4.49067,-11.20861 1.73852,-5.13727 3.80322,-10.44595 4.58824,-11.79706 0.78501,-1.3511 1.4273,-3.48742 1.4273,-4.74737 0,-2.99387 4.70563,-13.97374 8.50791,-19.85189 1.65027,-2.55124 7.67117,-11.51813 13.37978,-19.92641 24.22007,-35.674 23.03887,-33.54549 24.17898,-43.57017 0.56794,-4.99379 1.57095,-12.44221 2.2289,-16.55203 0.65795,-4.10982 0.97826,-9.71412 0.7118,-12.45401 -0.57646,-5.92732 -6.51389,-17.78685 -12.71334,-25.39387 l -4.45579,-5.46747 -8.13316,0.83744 c -8.73982,0.89992 -11.64867,-0.46989 -11.64867,-5.48546 0,-1.2806 -0.47981,-2.6653 -1.06625,-3.07714 -0.58644,-0.41183 -1.60179,-3.10694 -2.25634,-5.98914 -0.65455,-2.88221 -1.901,-7.00636 -2.76988,-9.16479 -0.86889,-2.15843 -1.57979,-5.96917 -1.57979,-8.4683 0,-2.49913 -0.82906,-6.33744 -1.84235,-8.52958 -1.36861,-2.96082 -1.86182,-7.35721 -1.91807,-17.09721 -0.0782,-13.54626 0.37364,-15.65026 6.37271,-29.67332 2.17495,-5.08402 18.4427,-23.8441 20.67635,-23.8441 0.55185,0 3.81597,-1.87307 7.25361,-4.16236 3.43764,-2.28931 7.46636,-4.47424 8.95273,-4.85541 1.48636,-0.38117 4.18213,-1.26201 5.99059,-1.95743 12.27476,-4.72006 15.68872,-5.39668 24.67014,-4.88939 11.68051,0.65972 23.9085,3.09323 27.07909,5.38903 1.33514,0.96677 3.1565,1.75776 4.04749,1.75776 6.05639,0 25.85012,19.12254 34.16151,33.00311 4.6903,7.83311 11.42527,22.91413 11.42527,25.58359 0,1.33394 -2.51888,5.34837 -5.59752,8.92095 -5.4733,6.35145 -5.58145,6.62106 -4.87321,12.14894 1.41624,11.05383 2.65835,50.70617 2.01937,64.46516 -0.7462,16.06781 -0.23029,17.01549 7.37973,13.55561 2.42226,-1.10127 6.87605,-2.00231 9.89732,-2.00231 3.02127,0 7.26386,-0.84065 9.42799,-1.8681 2.16414,-1.02746 5.89919,-1.86811 8.30014,-1.86811 4.37091,0 5.0667,0.41497 18.93175,11.29063 3.01411,2.36424 7.94628,5.59313 10.96038,7.17531 3.01411,1.58217 6.78933,3.67889 8.38939,4.65938 1.60007,0.98048 3.47669,1.78269 4.17029,1.78269 0.69358,0 3.33018,1.02172 5.85909,2.27049 15.03865,7.42601 13.7113,7.04216 16.04682,4.64051 1.17009,-1.20322 2.46775,-3.95095 2.8837,-6.10608 0.41596,-2.15513 1.67695,-5.87163 2.80223,-8.25888 1.12527,-2.38725 2.04594,-5.21101 2.04594,-6.27502 0,-1.06401 0.98643,-4.13306 2.19208,-6.82012 1.20564,-2.68707 2.19207,-5.54365 2.19207,-6.34797 0,-0.80433 0.73679,-3.06766 1.63731,-5.02963 0.90051,-1.96196 1.64034,-4.5848 1.64405,-5.82853 0.003,-1.24373 0.5273,-3.36652 1.16351,-4.71729 1.74742,-3.71002 0.25143,-7.18261 -6.64239,-15.41881 l -6.27108,-7.49219 -0.67311,-13.6994 c -0.90903,-18.50101 -0.0239,-22.2408 7.01499,-29.64026 3.12752,-3.28769 7.11522,-6.30235 8.86155,-6.69921 1.74631,-0.39685 3.53477,-1.34971 3.97435,-2.11745 0.43957,-0.76774 1.04583,-107.87763 1.34724,-238.02197 l 0.54802,-236.626074 7.36499,-0.367391 c 7.23764,-0.361037 7.37816,-0.307804 8.1261,3.078334 0.41861,1.895148 0.43092,110.50371 0.0273,241.352361 l -0.73369,237.90665 7.64823,7.8357 c 5.43931,5.57262 7.97858,9.16952 8.792,12.454 0.62907,2.54007 1.87558,5.70618 2.77003,7.03579 0.89445,1.32961 1.62628,3.64021 1.62628,5.13464 0,3.21789 6.58026,20.88652 10.87007,29.18719 2.874,5.56108 9.95465,23.51463 9.95465,25.24075 0,1.10608 0.49321,2.35742 1.09603,2.78076 2.10748,1.47998 1.06833,5.40937 -2.27617,8.6071 -1.85471,1.77331 -4.00216,3.2242 -4.77212,3.2242 -0.76995,0 -2.70497,1.37431 -4.30006,3.05403 -2.62263,2.7618 -2.90139,3.92371 -2.91315,12.14266 -0.008,4.99874 -0.73785,12.17098 -1.62377,15.93832 -0.88591,3.76734 -1.90689,14.41551 -2.26884,23.66261 -0.36194,9.2471 -1.14795,18.49419 -1.74668,20.5491 -0.59872,2.05491 -1.51396,9.06887 -2.03385,15.58659 -0.51988,6.51771 -1.71284,13.52309 -2.65101,15.5675 -0.93816,2.04441 -1.70879,5.43367 -1.7125,7.53167 -0.004,2.56167 -1.03304,4.93178 -3.13139,7.2161 l -3.12464,3.40154 -5.61456,-2.51463 c -3.08799,-1.38305 -6.49078,-3.08886 -7.56173,-3.79071 -1.07095,-0.70183 -3.18022,-1.83541 -4.68727,-2.51903 -1.50705,-0.68363 -3.47992,-1.72202 -4.38415,-2.30752 -0.90423,-0.5855 -4.11014,-2.35389 -7.12424,-3.92973 -3.01411,-1.57586 -6.78933,-3.62008 -8.3894,-4.54273 -5.05594,-2.91542 -6.94184,-2.10464 -10.58216,4.54946 -3.75277,6.85962 -4.4675,7.18791 -9.01043,4.13863 -2.64652,-1.77638 -3.38021,-1.83482 -4.91103,-0.39122 -2.40742,2.27024 -1.44543,7.79205 3.21943,18.47984 10.19947,23.36821 14.06311,32.11974 14.92909,33.81577 0.52461,1.02746 4.30334,8.50847 8.39719,16.62445 4.09384,8.11599 8.30689,16.24223 9.36232,18.05831 1.05544,1.81608 2.53509,4.75099 3.28811,6.52205 3.9046,9.18329 20.41656,31.11783 27.08549,35.98045 5.49097,4.00373 8.88361,4.51106 15.93309,2.38266 2.41128,-0.72802 8.08328,-1.84309 12.60443,-2.47793 4.52116,-0.63486 9.77448,-1.98734 11.67405,-3.00552 1.89956,-1.01818 5.21879,-1.85125 7.37607,-1.85125 2.15727,0 5.78186,-0.79298 8.05464,-1.76219 2.27277,-0.96919 6.3518,-2.11798 9.06449,-2.55284 2.7127,-0.43487 7.15165,-1.56476 9.86434,-2.51087 2.7127,-0.9461 7.15165,-2.34065 9.86434,-3.099 2.7127,-0.75834 7.89148,-2.22239 11.5084,-3.25345 3.61693,-1.03105 9.65934,-2.6228 13.42758,-3.53721 3.76825,-0.91441 7.46737,-2.21463 8.22029,-2.88938 0.75291,-0.67476 3.56393,-1.60812 6.24672,-2.07416 2.68279,-0.46604 5.42212,-1.36068 6.08743,-1.98806 0.66529,-0.6274 4.63551,-1.67743 8.82268,-2.3334 4.18717,-0.65597 9.83252,-1.86016 12.54521,-2.676 2.97876,-0.89584 14.28321,-1.5531 28.54257,-1.65953 19.91536,-0.14864 24.0321,0.13404 26.30491,1.80623 1.48199,1.09034 3.98025,2.34185 5.55171,2.78112 4.21643,1.17865 17.89422,18.19314 21.92469,27.27323 1.90814,4.29881 6.51784,11.45881 10.24375,15.91112 3.72593,4.45231 26.74984,31.63317 51.164267,60.40192 24.41443,28.76875 47.57096,56.08972 51.45895,60.71327 5.39238,6.41254 7.78749,8.40645 10.09792,8.40645 1.66586,0 4.69786,0.7924 6.73777,1.76088 2.03991,0.96848 8.6364,2.15782 14.65883,2.64298 9.19276,0.74055 11.35728,0.55787 13.48863,-1.13843 2.7633,-2.19924 8.62594,-13.84807 8.62634,-17.14019 1.5e-4,-1.12388 0.97586,-4.48646 2.16826,-7.4724 1.1924,-2.98592 2.17884,-7.88472 2.19208,-10.88619 0.0204,-4.61431 0.62149,-6.09748 3.89189,-9.60218 8.58194,-9.19681 24.31159,-6.62381 29.85188,4.88306 1.59898,3.32098 1.95751,8.15792 2.25338,30.40003 l 0.35185,26.45068 -5.92534,10.28862 c -3.25893,5.6588 -8.13472,14.2117 -10.83508,19.0065 -2.70036,4.7947 -8.45367,14.9292 -12.78515,22.52114 -4.33147,7.5918 -7.8754,14.367 -7.8754,15.056 0,0.6891 -2.84685,4.7054 -6.32634,8.9253 -5.70865995,6.9234 -6.75446995,7.6725 -10.71136,7.6725 -5.31657,0 -12.47461,-5.0415 -24.5564,-17.2954 -4.55159,-4.6165 -11.28636,-11.1601 -14.96616,-14.5414 -3.67979,-3.38144 -15.53165,-14.83464 -26.33746,-25.45164 -10.80581,-10.6171 -21.11465,-20.42461 -22.90851,-21.79455 -6.8982,-5.268 -19.509867,-11.30689 -26.266327,-12.5772 -2.41129,-0.45335 -4.87737,-1.25919 -5.48019,-1.79074 -0.60282,-0.53156 -3.56212,-1.35987 -6.57623,-1.84071 -3.0141,-0.48084 -6.57258,-1.65415 -7.90771,-2.60736 -1.33514,-0.9532 -3.21176,-1.7331 -4.17027,-1.7331 -1.75677,0 -10.63119,-4.05537 -13.67891,-6.2509 -0.90423,-0.65139 -3.12371,-1.95238 -4.93217,-2.8911 -6.14096,-3.18755 -22.41216,-21.26675 -36.04601,-40.05131 -3.97722,-5.47977 -8.7512,-11.81046 -10.60886,-14.06822 l -3.37755,-4.10503 -9.50898,0.75346 c -12.89142,1.02146 -14.07714,1.39218 -14.84323,4.64081 -0.36522,1.54868 -0.67077,12.93651 -0.679,25.3063 -0.0115,17.33149 -0.36829,23.03958 -1.55528,24.88409 -1.34424,2.0889 -3.54165,2.50433 -17.26259,3.26357 -8.64726,0.47849 -18.92819,1.45874 -22.84653,2.17832 -3.91833,0.71958 -15.01572,1.3468 -24.66085,1.39384 -9.64513,0.0471 -22.46878,0.6165 -28.49699,1.26549 -6.0282,0.64899 -16.01148,1.67493 -22.18504,2.27986 -6.57687,0.64445 -12.25973,1.8705 -13.72441,2.96097 -1.37485,1.02361 -4.58256,2.26094 -7.12823,2.74965 -2.54565,0.48869 -4.87222,1.33667 -5.17013,1.88439 -0.29791,0.54771 -2.37148,1.3859 -4.60794,1.86264 -2.23644,0.47674 -5.06433,1.66113 -6.28418,2.63198 -1.21985,0.97085 -3.47808,1.7652 -5.01828,1.7652 -1.5402,0 -3.86364,0.84623 -5.16321,1.88054 -1.29957,1.03429 -4.73853,2.2339 -7.64213,2.66579 -2.90361,0.43189 -6.61113,1.54716 -8.23896,2.47837 -1.62782,0.9312 -5.08034,1.71296 -7.67226,1.73724 -2.59193,0.0243 -5.94564,0.84505 -7.45269,1.82396 -3.72634,2.42045 -21.71353,2.50275 -25.94207,0.11869 -1.70661,-0.9622 -5.46785,-2.97559 -8.3583,-4.47419 -6.47406,-3.35659 -21.2549,-15.8901 -33.65398,-28.53708 -5.12397,-5.22644 -10.16901,-10.25032 -11.21121,-11.16419 -1.67674,-1.4703 -2.68619,-0.74885 -8.76831,6.26666 -4.31167,4.97338 -9.66909,9.54767 -14.37454,12.2733 -4.12563,2.38976 -7.82476,4.90546 -8.22029,5.59043 -0.39552,0.68494 -0.96575,68.21677 -1.26716,150.07077 l -0.54802,148.8253 -7.39825,0.3683 -7.39826,0.3683 z m -1.09604,-237.35273 c 0,-2.2003 -7.97185,-16.38832 -17.84333,-31.75692 -1.94117,-3.02215 -4.51584,-7.37747 -5.72148,-9.67847 -1.20564,-2.301 -5.6446,-9.8017 -9.86434,-16.66821 -8.60471,-14.00188 -13.2887,-22.05263 -14.44292,-24.82422 -0.42788,-1.02746 -2.28544,-4.39004 -4.12791,-7.4724 -5.00182,-8.36785 -5.98169,-10.20975 -7.73951,-14.5483 -0.88297,-2.17931 -2.05655,-4.27919 -2.60793,-4.66641 -0.55138,-0.38721 -1.59448,-3.5079 -2.318,-6.93487 -0.72352,-3.42695 -1.72126,-6.23083 -2.21721,-6.23083 -0.49594,0 -1.46126,1.92648 -2.14515,4.28109 -0.68389,2.35459 -2.1909,5.64973 -3.34891,7.32251 -1.82854,2.64141 -2.7562,2.95809 -7.053,2.40779 -3.05779,-0.39163 -5.56049,-0.0557 -6.5523,0.87968 -0.88263,0.83234 -3.92229,6.20478 -6.75481,11.93875 -3.23377,6.54622 -7.73775,13.2801 -12.10455,18.09744 -3.82498,4.2196 -6.95451,8.31415 -6.95451,9.09898 0,1.93527 25.56894,23.62951 51.8068,43.95601 4.6823,3.62739 11.59186,9.27641 15.35455,12.55337 3.7627,3.27696 8.66034,7.23555 10.88364,8.79689 l 4.04235,2.83876 4.92979,-2.55181 c 6.49547,-3.36227 8.81758,-3.21169 16.01043,1.03824 6.98669,4.12813 8.7683,4.55948 8.7683,2.12293 z m 144.86636,-265.63952 c 1.93692,-22.64541 2.6097,-37.33572 2.04139,-44.57387 l -0.58669,-7.4724 -2.38114,4.3589 c -2.21344,4.05196 -3.50209,7.51413 -6.95317,18.681 -0.74091,2.3974 -2.01231,6.04019 -2.82532,8.09511 -3.00071,7.5843 -4.89967,15.64059 -4.05454,17.20133 3.29019,6.07622 11.96395,16.77045 12.81638,15.80185 0.55368,-0.62913 1.42806,-6.07049 1.94309,-12.09192 z"
       style="fill:#000000;stroke-width:1.16833" />
  </g>
</svg>
