<?xml version="1.0" encoding="UTF-8" standalone="no"?>
<svg
   xmlns:dc="http://purl.org/dc/elements/1.1/"
   xmlns:cc="http://creativecommons.org/ns#"
   xmlns:rdf="http://www.w3.org/1999/02/22-rdf-syntax-ns#"
   xmlns:svg="http://www.w3.org/2000/svg"
   xmlns="http://www.w3.org/2000/svg"
   xmlns:sodipodi="http://sodipodi.sourceforge.net/DTD/sodipodi-0.dtd"
   xmlns:inkscape="http://www.inkscape.org/namespaces/inkscape"
   version="1.1"
   id="svg285"
   width="733.11243"
   height="619.33649"
   viewBox="0 0 733.11242 619.33649"
   sodipodi:docname="скейтборд.svg"
   inkscape:version="1.0 (4035a4fb49, 2020-05-01)">
  <metadata
     id="metadata291">
    <rdf:RDF>
      <cc:Work
         rdf:about="">
        <dc:format>image/svg+xml</dc:format>
        <dc:type
           rdf:resource="http://purl.org/dc/dcmitype/StillImage" />
        <dc:title></dc:title>
      </cc:Work>
    </rdf:RDF>
  </metadata>
  <defs
     id="defs289" />
  <sodipodi:namedview
     inkscape:document-rotation="0"
     pagecolor="#ffffff"
     bordercolor="#666666"
     borderopacity="1"
     objecttolerance="10"
     gridtolerance="10"
     guidetolerance="10"
     inkscape:pageopacity="0"
     inkscape:pageshadow="2"
     inkscape:window-width="1920"
     inkscape:window-height="1018"
     id="namedview287"
     showgrid="false"
     inkscape:zoom="1.3548387"
     inkscape:cx="419.58866"
     inkscape:cy="293.09524"
     inkscape:window-x="-6"
     inkscape:window-y="-6"
     inkscape:window-maximized="1"
     inkscape:current-layer="g293" />
  <g
     transform="translate(52.922004,-16.904759)"
     inkscape:groupmode="layer"
     inkscape:label="Image"
     id="g293">
    <path
       id="path8"
       d="m 548.19046,634.76114 c -1.83333,-0.71936 -4.36998,-2.63132 -5.63701,-4.24881 -2.92357,-3.73224 -3.0572,-13.30854 -0.24559,-17.5996 2.0208,-3.08414 1.97518,-3.2612 -1,-3.88127 -1.71457,-0.35733 -19.91739,-4.30512 -40.45073,-8.77285 -46.93052,-10.21136 -45.54433,-9.92775 -68.66666,-14.04932 -10.63334,-1.8954 -34.93333,-6.76668 -54,-10.82507 -34.84699,-7.41727 -54.72827,-11.07965 -60.38024,-11.12284 -2.60128,-0.0199 -2.84504,0.35392 -1.66667,2.55573 0.75914,1.41846 1.38024,4.37574 1.38024,6.57174 0,5.33433 -7.58694,13.51592 -12.53359,13.51592 -5.28584,0 -12.37004,-3.37243 -14.17715,-6.74903 -2.1116,-3.94556 -0.89084,-14.00793 2.10044,-17.31325 1.30445,-1.4414 2.0768,-2.91568 1.71632,-3.27616 -0.36048,-0.36048 -5.10681,-1.81202 -10.54739,-3.22564 -34.18105,-8.88126 -55.8061,-22.86607 -64.6147,-41.78602 -8.6048,-18.48218 0.0936,-42.33738 18.3797,-50.40624 9.34928,-4.12541 29.14667,-4.9151 50.90506,-2.03054 8.74244,1.15901 16.11894,1.88369 16.39222,1.61042 0.27328,-0.27328 -7.59653,-2.40798 -17.48848,-4.7438 -24.54906,-5.79684 -27.69242,-8.66965 -29.57329,-27.0279 -1.02011,-9.95688 1.4278,-17.03992 6.72281,-19.45248 4.48344,-2.0428 5.15975,-5.66956 2.66044,-14.26688 -1.5411,-5.30122 -3.02868,-7.81791 -5.0624,-8.56455 -1.58398,-0.58155 -8.28108,-7.23571 -14.88241,-14.78703 -10.61187,-12.139 -13.73413,-14.76316 -26.94951,-22.65012 -8.22089,-4.90625 -15.9673,-9.76277 -17.21425,-10.79229 -3.92052,-3.23685 -7.13745,-12.53613 -9.26365,-26.77868 -2.37572,-15.91388 -9.00297,-46.71895 -12.13935,-56.42648 -1.18465,-3.66667 -6.9768,-17.76667 -12.87144,-31.33333 -9.41885,-21.67772 -10.78586,-25.83131 -11.2814,-34.27802 -0.47513,-8.09908 -0.11773,-10.33313 2.27136,-14.1988 3.81294,-6.16945 10.93604,-8.85652 23.47766,-8.85652 5.48516,0 9.97301,-0.54054 9.97301,-1.20122 0,-1.87098 -11.81045,-17.1228 -15.51697,-20.03834 -1.82594,-1.43629 -4.0316,-2.39053 -4.90146,-2.12054 -0.86986,0.26999 -8.74305,2.10829 -17.49596,4.08512 -8.75292,1.97682 -24.95292,6.89114 -36,10.9207 -18.6723,6.81096 -20.695773,7.27622 -28.757033,6.61218 -8.67062,-0.71426 -25.33248,-5.93075 -46.66191,-14.60894 -6.23334,-2.5361 -14.20703,-5.6533 -17.71933,-6.92709 -3.51229,-1.27378 -8.18472,-3.82951 -10.38318,-5.67939 l -3.99721,-3.36343 -7.7536999,2.82714 c -8.05222,2.93599 -19.2138901,3.66105 -26.1553801,1.69904 -6.14565,-1.73706 -7.32454,-0.69453 -7.32454,6.47731 0,6.9634 -2.34102,10.6508 -6.7619,10.6508 -3.84608,0 -7.90476,-4.79218 -7.90476,-9.33334 0,-3.56476 -0.4398,-4 -4.04185,-4 -2.46797,0 -4.35929,-0.82724 -4.85706,-2.12441 -0.97626,-2.5441 1.55783,-18.74769 4.28321,-27.38787 1.07197,-3.39843 1.94903,-8.34843 1.94903,-11 0,-5.063393 3.66767,-10.154383 7.31544,-10.154383 1.09016,0 2.83937,-2.05171 3.88712,-4.559351 2.78862,-6.674101 5.98343,-7.823493 20.03736,-7.208821 13.9612601,0.610616 19.4929701,2.867908 30.89089,12.605452 4.12386,3.52313 11.5155,7.828573 18.08807,10.535833 9.90019,4.07793 12.46802,4.58076 23.504,4.60249 13.76377,0.0271 29.19955,2.75854 37.89716,6.7061 6.941643,3.15057 15.513323,3.32313 30.991793,0.62391 14.52609,-2.53314 17.56282,-4.11289 29.34713,-15.26677 5.22101,-4.941713 10.80755,-9.688583 12.41451,-10.548593 5.9073,-3.161502 15.3854,-4.058849 27.00726,-2.556942 23.00872,2.973442 26.12969,0.246648 25.61157,-22.376767 -0.3225,-14.081974 -0.12,-15.388874 3.72743,-24.057068 11.79983,-26.584747 11.66913,-26.499478 40.6136,-26.499478 h 20 l 9.03716,5.086033 c 7.36037,4.142361 9.76373,6.37347 12.95316,12.024825 2.15381,3.816336 6.61403,10.099592 9.91158,13.96279 5.48435,6.425081 6.59082,9.086393 7.86875,18.926352 0.21179,1.630753 3.9494,2.167696 20.24455,2.908316 32.33408,1.469594 44.86972,5.040144 64.65146,18.414786 10.53109,7.120183 13.64763,8.549443 33.50821,15.367076 45.11486,15.48678 49.97644,16.41688 79.82512,15.27182 12.49219,-0.47922 12.82279,-0.41134 24,4.92767 12.45963,5.95158 19.52907,8.18988 38.97673,12.34067 16.19322,3.45617 19.03631,3.44994 30.61526,-0.0671 6.47164,-1.9657 11.24776,-2.61069 15.55479,-2.10058 9.4621,1.12065 21.68779,6.19951 26.5199,11.01703 3.8828,3.87107 4.3333,5.1152 4.3333,11.96558 0,4.20492 -0.7056,10.00045 -1.568,12.87897 -1.6402,5.47431 -7.76132,11.74239 -11.46717,11.74239 -1.19016,0 -7.22796,-1.91129 -13.41735,-4.24732 l -11.25342,-4.24732 -8.81369,2.25852 c -4.84752,1.24219 -9.73062,2.25348 -10.8513,2.24732 -1.12069,-0.007 -6.52069,-2.24332 -12,-4.97146 l -9.96238,-4.96027 -34,-0.82875 c -36.34592,-0.88592 -43.48479,-1.97824 -56.52168,-8.6484 -3.58692,-1.83521 -6.7866,-3.07182 -7.11039,-2.74804 -0.32378,0.32379 2.38112,4.38904 6.0109,9.03388 3.62977,4.64484 7.64946,10.54518 8.93265,13.11184 1.28319,2.56667 5.75423,9.16667 9.93567,14.66667 4.18144,5.5 13.52979,18.7 20.77413,29.33333 7.24433,10.63334 18.46886,26.48488 24.94338,35.22567 11.92619,16.10067 21.06827,33.14379 33.67274,62.77433 6.35533,14.9401 8.56376,24.28784 11.34009,48 1.74081,14.86791 3.15619,17.91131 10.48008,22.53467 6.74092,4.25536 9.35553,8.57309 11.55383,19.07977 3.34052,15.96599 -1.42606,26.68999 -13.28123,29.88052 -2.96827,0.79884 -12.67464,4.67263 -21.56975,8.60843 -17.82181,7.88557 -30.99069,10.75384 -42.93058,9.35053 -13.90327,-1.63405 -16.01256,-4.60742 -17.49679,-24.66425 -1.08535,-14.66665 -1.12959,-14.81087 -8.51674,-27.76644 -4.08416,-7.16277 -9.40771,-18.72323 -11.83011,-25.68989 -5.715,-16.43598 -9.17444,-22.14611 -22.21768,-36.67242 -5.92332,-6.59684 -16.93443,-20.07236 -24.46911,-29.94561 -14.73301,-19.30576 -20.80385,-24.69843 -26.3327,-23.39107 -10.45372,2.47191 -17.60569,14.91986 -24.85489,43.25979 -1.77042,6.92121 -4.14332,13.60548 -5.27315,14.85391 -3.74435,4.13746 -17.361,10.47209 -28.04144,13.04521 -28.05235,6.75836 -40.41796,11.8162 -40.51015,16.56963 -0.0107,0.57902 3.87959,5.20528 8.64626,10.28056 4.76666,5.07528 8.69901,9.40153 8.73856,9.61389 0.0396,0.21236 0.54826,4.91788 1.13049,10.45672 0.87995,8.37088 1.85267,11.22495 5.76321,16.90988 5.5125,8.01377 7.42707,17.09355 4.78063,22.67196 -1.00332,2.11491 -6.12187,6.51712 -12.03131,10.34755 -5.65678,3.66666 -10.3048,6.96666 -10.32892,7.33333 -0.0241,0.36667 10.90416,2.94333 24.28507,5.72592 39.301,8.17272 153.05826,32.33421 196.13497,41.65811 21.89332,4.73878 42.5163,8.61597 45.82888,8.61597 9.38277,0 32.71425,3.80503 41.16999,6.71423 14.5193,4.9954 24.3416,13.40877 28.4539,24.37257 0.7743,2.0644 1.4078,7.51857 1.4078,12.12037 0,11.303 -5.3664,22.07411 -15.7962,31.70486 -9.66626,8.92573 -17.75323,13.30862 -32.89968,17.83066 -10.08477,3.01086 -14.70155,3.6015 -29.30407,3.74895 -9.53333,0.0963 -19.88333,-0.32771 -23,-0.94217 l -5.66666,-1.1172 v 8.02042 c 0,7.07651 -0.41347,8.34566 -3.51315,10.78387 -3.86533,3.04048 -15.58851,3.73165 -21.82019,1.28648 z M 373.27094,191.90477 c 2.97261,-3.85 11.29557,-12.73362 18.49548,-19.74138 11.13672,-10.83952 15.32145,-13.89401 28.03542,-20.46342 17.40537,-8.99349 19.71328,-10.97451 14.17296,-12.16552 -2.08139,-0.44744 -11.28433,-2.95198 -20.451,-5.56564 -30.7069,-8.75538 -36.24721,-9.38491 -41.6116,-4.72815 -2.52969,2.196 -5.72952,11.26065 -7.10009,20.11356 -1.10191,7.11753 0.64909,49.55055 2.04471,49.55055 0.55514,0 3.4415,-3.15 6.41412,-7 z"
       style="fill:#000000;stroke-width:1.33333" />
  </g>
</svg>
