<?xml version="1.0" encoding="UTF-8" standalone="no"?>
<svg
   xmlns:dc="http://purl.org/dc/elements/1.1/"
   xmlns:cc="http://creativecommons.org/ns#"
   xmlns:rdf="http://www.w3.org/1999/02/22-rdf-syntax-ns#"
   xmlns:svg="http://www.w3.org/2000/svg"
   xmlns="http://www.w3.org/2000/svg"
   xmlns:sodipodi="http://sodipodi.sourceforge.net/DTD/sodipodi-0.dtd"
   xmlns:inkscape="http://www.inkscape.org/namespaces/inkscape"
   inkscape:version="1.0 (4035a4fb49, 2020-05-01)"
   sodipodi:docname="сноуборд.svg"
   viewBox="0 0 624.49622 626.32062"
   height="626.32062"
   width="624.49622"
   id="svg670"
   version="1.1">
  <metadata
     id="metadata676">
    <rdf:RDF>
      <cc:Work
         rdf:about="">
        <dc:format>image/svg+xml</dc:format>
        <dc:type
           rdf:resource="http://purl.org/dc/dcmitype/StillImage" />
        <dc:title></dc:title>
      </cc:Work>
    </rdf:RDF>
  </metadata>
  <defs
     id="defs674" />
  <sodipodi:namedview
     inkscape:current-layer="g678"
     inkscape:window-maximized="1"
     inkscape:window-y="-6"
     inkscape:window-x="-6"
     inkscape:cy="333.67313"
     inkscape:cx="222.90567"
     inkscape:zoom="0.93329313"
     showgrid="false"
     id="namedview672"
     inkscape:window-height="1018"
     inkscape:window-width="1920"
     inkscape:pageshadow="2"
     inkscape:pageopacity="0"
     guidetolerance="10"
     gridtolerance="10"
     objecttolerance="10"
     borderopacity="1"
     bordercolor="#666666"
     pagecolor="#ffffff"
     inkscape:document-rotation="0" />
  <g
     transform="translate(-44.965015,-27.555331)"
     id="g678"
     inkscape:label="Image"
     inkscape:groupmode="layer">
    <path
       id="path8"
       d="m 114.23849,652.14945 c -5.11255,-2.21353 -7.99156,-4.86366 -7.99156,-7.35625 0,-3.26958 6.46918,-7.70691 14.57009,-9.9939 46.86905,-13.23176 55.88532,-16.61977 94.56455,-35.53412 17.19439,-8.40815 35.51732,-17.25846 40.71762,-19.66734 8.27667,-3.83393 9.35951,-4.67126 8.68818,-6.71832 -0.42179,-1.28618 -1.33928,-4.50649 -2.03886,-7.15623 -0.96457,-3.65346 -1.72052,-4.6756 -3.12814,-4.22964 -5.47377,1.73417 -7.13987,-3.48673 -3.7842,-11.85822 1.50431,-3.75284 2.39827,-4.55507 5.39989,-4.84573 5.8235,-0.56392 5.50147,-4.98441 -0.938,-12.87606 -2.88274,-3.53284 -5.04846,-7.01048 -4.81271,-7.72808 0.23575,-0.71762 1.78939,-1.46569 3.45252,-1.6624 l 3.02389,-0.35764 -2.30458,-4.18142 c -1.26751,-2.29978 -3.56452,-5.91883 -5.10444,-8.04233 -1.53992,-2.12351 -3.83907,-7.48528 -5.1092,-11.91505 -6.86062,-23.92742 -19.60021,-57.62582 -24.52243,-64.86604 -3.22293,-4.74067 -3.39427,-8.3578 -0.77883,-16.44147 1.87055,-5.78132 1.8631,-6.03923 -0.20838,-7.2226 -1.1815,-0.67495 -4.31873,-3.40553 -6.97161,-6.06794 -5.45382,-5.47341 -12.9172,-9.28198 -18.26158,-9.31891 -8.06591,-0.0557 -14.08885,-9.82898 -19.09782,-30.98956 -3.20774,-13.55117 -7.34134,-25.20535 -11.3799,-32.08418 -3.17514,-5.40818 -8.20862,-21.77457 -12.57449,-40.88608 -2.14669,-9.39705 -3.25905,-18.00705 -3.65169,-28.26537 -0.80786,-21.10614 -3.06007,-24.76634 -18.46622,-30.01046 -30.84107,-10.49803 -64.069263,-33.88034 -73.498603,-51.72014 -5.90973,-11.1809 -6.23787,-13.71828 -3.59733,-27.8163 l 2.32655,-12.42162 -3.5408,-3.30162 c -1.94744,-1.8159 -3.54079,-3.89629 -3.54079,-4.6231 0,-2.14924 2.37343,-6.14646 4.79135,-8.06934 2.2148,-1.76135 2.17289,-1.94683 -2.56409,-11.34767 -9.93076,-19.708218 -10.96994,-27.081018 -6.15475,-43.667214 3.14467,-10.831985 9.48457,-24.432215 13.40055,-28.746591 4.50129,-4.959225 15.74699,-12.605184 18.53974,-12.605184 4.00214,0 4.33903,2.449722 1.19362,8.679567 -3.13205,6.203392 -4.88338,12.880993 -3.37828,12.880993 0.54932,0 1.61442,-1.699476 2.36688,-3.776614 1.67653,-4.627981 6.35677,-9.212776 8.54783,-8.373505 1.06656,0.408535 2.63635,5.962988 4.61063,16.313983 3.20306,16.793316 3.9319,26.733107 2.46185,33.573957 -0.77251,3.59488 -0.46312,4.92742 1.97605,8.51075 3.423393,5.029248 7.037523,20.335918 6.046573,25.608628 -0.59409,3.16105 -0.10382,4.35773 3.30918,8.07712 4.5122,4.9173 6.1815,9.48111 3.96746,10.84698 -1.67157,1.03122 -0.77791,5.93784 1.80843,9.92921 1.53545,2.36958 2.47829,2.55322 13.10882,2.55322 8.32487,0 12.54269,0.5155 15.43768,1.88679 3.35769,1.59045 4.81307,1.68103 9.26636,0.57677 3.84323,-0.953 10.39523,-1.01456 24.04058,-0.2259 10.31663,0.59627 19.69633,1.1027 20.84377,1.12538 1.74277,0.0345 1.41523,-0.87121 -1.98943,-5.50091 -2.91523,-3.96415 -4.07569,-6.71973 -4.07569,-9.67787 0,-4.8405 5.251,-15.82441 10.32016,-21.58743 5.03605,-5.72539 15.87587,-10.73076 25.10121,-11.59068 l 7.56886,-0.70551 1.43323,-5.10972 c 1.82688,-6.513198 9.00124,-17.272358 14.11224,-21.163658 5.41933,-4.12607 14.94827,-8.395342 20.63978,-9.247295 9.43729,-1.412653 26.4337,5.643555 37.15642,15.425815 8.02489,7.32105 13.83389,18.380338 13.83389,26.337228 0,4.76569 0.28962,5.414 2.41865,5.414 6.11223,0 6.38157,9.02225 0.61822,20.70949 l -3.21763,6.52491 h 3.29137 c 4.43706,0 7.38724,-1.68257 12.90863,-7.3621 5.68154,-5.84426 12.9431,-8.5231 23.11932,-8.52888 8.24574,-0.005 13.29121,-2.22418 16.63456,-7.31756 1.32671,-2.02118 2.91089,-2.89109 5.26489,-2.89109 3.95533,0 10.01318,-5.40042 10.01318,-8.92649 0,-2.75363 3.60589,-5.4743 9.28771,-7.00764 3.39386,-0.91589 5.29079,-0.68572 10.17017,1.23408 3.85208,1.51561 8.25714,2.30126 12.31186,2.19587 3.47253,-0.0902 6.94591,-0.1223 7.7186,-0.0711 2.55254,0.16885 7.44785,8.85239 6.6899,11.86685 -0.75844,3.01638 -11.41331,13.19091 -13.81368,13.19091 -0.82176,0 -2.11004,1.91492 -2.86283,4.25537 -2.50042,7.77395 -5.13378,9.26116 -11.59683,6.54943 -1.48464,-0.62292 -1.98943,-0.29488 -1.98943,1.29281 0,5.08826 -12.63718,19.81761 -19.89433,23.18798 -5.9954,2.78439 -11.92034,2.87135 -11.98212,0.17586 -0.0305,-1.32964 -0.63775,-0.86094 -1.8378,1.41845 -4.29952,8.16659 -12.26221,14.17665 -18.80718,14.19523 -8.13335,0.0231 -24.72241,12.83729 -29.68576,22.93074 -1.62142,3.29734 -3.78518,8.8037 -4.80834,12.23637 -1.02316,3.43267 -3.12803,7.91214 -4.67749,9.95441 l -2.81719,3.71319 2.29809,3.71168 c 4.72207,7.62667 5.05983,22.06574 0.63046,26.9513 -2.15931,2.3817 -4.89344,15.5305 -4.98816,23.98875 l -0.0598,5.3398 4.41803,-1.55596 c 7.67033,-2.70137 10.86449,-4.79112 20.04346,-13.11336 15.77102,-14.29898 25.12988,-17.57065 50.00016,-17.47905 23.31014,0.0858 32.52819,3.33424 38.2378,13.47476 1.40202,2.49007 4.69184,7.60529 7.31071,11.36716 6.2593,8.99116 10.36827,17.28063 12.3719,24.9592 0.8959,3.4334 3.12369,8.42076 4.95064,11.08304 6.39785,9.32309 8.35311,14.4251 8.97865,23.42875 0.41786,6.01446 1.38038,10.02771 3.16229,13.1852 1.40887,2.49648 6.47659,18.07115 11.2616,34.61037 4.78501,16.53922 9.2545,31.45611 9.93219,33.14863 1.89392,4.73005 11.58486,13.10691 19.47144,16.83115 8.93929,4.22136 10.86931,4.36965 8.42598,0.64739 -2.90399,-4.42406 1.6414,-6.01631 5.2304,-1.83222 1.10289,1.28575 3.35355,2.26953 5.19214,2.26953 1.80164,0 4.16075,1.00963 5.30301,2.26954 2.0129,2.22021 1.9856,2.26953 -1.25582,2.26953 -2.9826,0 -3.31234,0.36822 -3.30245,3.68799 0.009,2.9647 -0.49065,3.7591 -2.54685,4.0506 -1.40681,0.19944 -2.55784,0.57475 -2.55784,0.83403 0,0.57163 6.91318,11.85317 7.26347,11.85317 0.13614,0 5.33584,-1.71098 11.55489,-3.80217 20.85856,-7.01383 47.50345,-18.07881 66.42811,-27.586 17.74563,-8.91487 22.89741,-12.27088 45.69707,-29.76837 9.48471,-7.279 16.861,-11.39709 20.49761,-11.44358 3.33037,-0.0426 4.50893,3.81062 3.0202,9.87431 -1.11747,4.55155 -2.89748,6.96578 -11.10791,15.06563 -10.69326,10.54924 -20.86374,17.76618 -36.8731,26.16505 -10.88592,5.711 -29.38723,13.26705 -40.08823,16.37231 -11.20087,3.2503 -178.97513,74.58611 -255.6725,108.70919 -54.04601,24.04538 -77.63924,35.05178 -99.47167,46.40424 -29.24796,15.2084 -68.81357,32.64346 -78.25632,34.48457 -11.00065,2.14489 -27.97225,2.05757 -33.11813,-0.17038 z M 354.0735,537.86277 c 4.68938,-1.57522 14.1534,-5.24956 21.03115,-8.16521 12.9398,-5.48548 63.56112,-30.38197 66.1711,-32.54414 1.93634,-1.60413 -1.64771,-7.55353 -8.49667,-14.10413 l -4.90635,-4.69263 0.77166,-7.51828 0.77166,-7.51827 -4.06728,-1.69635 c -8.99663,-3.75224 -17.08447,-20.56251 -25.37487,-52.74075 -2.16424,-8.40022 -4.04107,-15.29392 -4.17074,-15.31934 -0.12966,-0.0254 -1.2589,-0.61077 -2.5094,-1.30077 -4.07478,-2.24843 -6.3039,-7.81939 -7.51755,-18.78778 -0.64486,-5.82799 -1.5875,-11.02189 -2.09472,-11.54199 -0.50724,-0.5201 -2.73032,0.85917 -4.9402,3.06505 -4.23666,4.22901 -18.75945,11.85344 -52.51986,27.57283 -11.25451,5.24028 -21.31058,10.53132 -22.34684,11.75788 -2.64951,3.1361 -1.48293,6.1233 4.41517,11.30563 4.88018,4.28795 5.0912,4.7334 5.02101,10.5989 -0.0402,3.36754 -1.07956,8.67118 -2.30946,11.78585 -2.8147,7.12804 -2.36689,9.18969 5.9596,27.43789 3.53016,7.73664 6.41847,15.57792 6.41847,17.42506 0,1.91786 1.20707,4.79038 2.81402,6.69668 2.99975,3.55856 6.28054,12.99161 6.28054,18.05802 0,1.99783 -0.96492,3.69893 -2.76653,4.87726 -2.67813,1.7516 -2.70896,1.9246 -0.96515,5.41385 1.09203,2.18508 1.88445,7.03406 2.01235,12.31398 0.11604,4.79026 0.62052,9.37104 1.12109,10.1795 1.32077,2.13319 11.83976,0.92067 22.1978,-2.55874 z"
       style="fill:#000000;stroke-width:1.13579" />
  </g>
</svg>
