<?xml version="1.0" encoding="UTF-8" standalone="no"?>
<svg
   xmlns:dc="http://purl.org/dc/elements/1.1/"
   xmlns:cc="http://creativecommons.org/ns#"
   xmlns:rdf="http://www.w3.org/1999/02/22-rdf-syntax-ns#"
   xmlns:svg="http://www.w3.org/2000/svg"
   xmlns="http://www.w3.org/2000/svg"
   xmlns:sodipodi="http://sodipodi.sourceforge.net/DTD/sodipodi-0.dtd"
   xmlns:inkscape="http://www.inkscape.org/namespaces/inkscape"
   inkscape:version="1.0 (4035a4fb49, 2020-05-01)"
   sodipodi:docname="X.svg"
   viewBox="0 0 6528.5176 7253.8818"
   height="7253.8818"
   width="6528.5176"
   id="svg249"
   version="1.1">
  <metadata
     id="metadata255">
    <rdf:RDF>
      <cc:Work
         rdf:about="">
        <dc:format>image/svg+xml</dc:format>
        <dc:type
           rdf:resource="http://purl.org/dc/dcmitype/StillImage" />
        <dc:title></dc:title>
      </cc:Work>
    </rdf:RDF>
  </metadata>
  <defs
     id="defs253" />
  <sodipodi:namedview
     inkscape:current-layer="g257"
     inkscape:window-maximized="1"
     inkscape:window-y="-6"
     inkscape:window-x="-6"
     inkscape:cy="1878.8764"
     inkscape:cx="-852.3138"
     inkscape:zoom="0.05762987"
     showgrid="false"
     id="namedview251"
     inkscape:window-height="1018"
     inkscape:window-width="1920"
     inkscape:pageshadow="2"
     inkscape:pageopacity="0"
     guidetolerance="10"
     gridtolerance="10"
     objecttolerance="10"
     borderopacity="1"
     bordercolor="#666666"
     pagecolor="#ffffff"
     inkscape:document-rotation="0" />
  <g
     transform="translate(-3625.8433,-437.40133)"
     id="g257"
     inkscape:label="Image"
     inkscape:groupmode="layer">
    <path
       id="path8"
       d="m 3625.8433,7688.3106 c 0,-2.9456 587.594,-856.3897 1305.7646,-1896.5424 l 1305.7644,-1891.1868 -63.6282,-92.1901 c -34.9955,-50.7046 -571.117,-824.143 -1191.381,-1718.7521 C 4362.099,1195.0303 3854.6102,457.30034 3854.6102,450.23935 c 0,-8.33449 225.6876,-12.83802 643.3536,-12.83802 h 643.3536 l 40.9785,54.97001 c 22.5383,30.23352 424.4067,609.35876 893.041,1286.94506 468.6344,677.5863 856.3302,1231.9751 861.5463,1231.9751 5.2163,0 392.939,-554.3888 861.6063,-1231.9751 468.6673,-677.5863 870.5632,-1256.71154 893.102,-1286.94506 l 40.9797,-54.97001 h 644.2363 c 535.4879,0 643.5795,2.95454 640.3435,17.50271 -2.141,9.62648 -545.7094,801.31696 -1207.9296,1759.31226 -662.2202,957.9953 -1205.5754,1746.6458 -1207.4558,1752.5565 -1.8805,5.9108 571.6842,845.3746 1274.5882,1865.4753 l 1278.0072,1854.7283 -642.4688,3.3616 c -353.358,1.8488 -648.4533,0.9015 -655.7674,-2.1054 -7.3142,-3.0068 -450.9685,-640.6207 -985.8987,-1416.9197 -534.93,-776.2991 -977.8595,-1409.5696 -984.2876,-1407.2679 -6.428,2.3018 -448.7561,638.4029 -982.9514,1413.5583 l -971.2641,1409.3731 -652.9399,3.3449 c -359.1169,1.8398 -652.9398,0.9349 -652.9398,-2.0107 z"
       style="fill:#000000;stroke-width:12.4792" />
  </g>
</svg>
