<?xml version="1.0" encoding="UTF-8" standalone="no"?>
<svg
   xmlns:dc="http://purl.org/dc/elements/1.1/"
   xmlns:cc="http://creativecommons.org/ns#"
   xmlns:rdf="http://www.w3.org/1999/02/22-rdf-syntax-ns#"
   xmlns:svg="http://www.w3.org/2000/svg"
   xmlns="http://www.w3.org/2000/svg"
   xmlns:sodipodi="http://sodipodi.sourceforge.net/DTD/sodipodi-0.dtd"
   xmlns:inkscape="http://www.inkscape.org/namespaces/inkscape"
   inkscape:version="1.0 (4035a4fb49, 2020-05-01)"
   sodipodi:docname="БАНКОМАТ.svg"
   id="svg12"
   viewBox="0 0 167.10259 244.81982"
   style="clip-rule:evenodd;fill-rule:evenodd;image-rendering:optimizeQuality;shape-rendering:geometricPrecision;text-rendering:geometricPrecision"
   version="1.1"
   height="80.212273mm"
   width="54.746811mm"
   xml:space="preserve"><metadata
   id="metadata16"><rdf:RDF><cc:Work
       rdf:about=""><dc:format>image/svg+xml</dc:format><dc:type
         rdf:resource="http://purl.org/dc/dcmitype/StillImage" /><dc:title></dc:title></cc:Work></rdf:RDF></metadata><sodipodi:namedview
   inkscape:current-layer="svg12"
   inkscape:window-maximized="1"
   inkscape:window-y="-6"
   inkscape:window-x="-6"
   inkscape:cy="142.06855"
   inkscape:cx="257.15488"
   inkscape:zoom="1.5970583"
   showgrid="false"
   id="namedview14"
   inkscape:window-height="1018"
   inkscape:window-width="1920"
   inkscape:pageshadow="2"
   inkscape:pageopacity="0"
   guidetolerance="10"
   gridtolerance="10"
   objecttolerance="10"
   borderopacity="1"
   bordercolor="#666666"
   pagecolor="#ffffff" />
 <defs
   id="defs4">
  <style
   id="style2"
   type="text/css">
   <![CDATA[
    .fil0 {fill:black;fill-rule:nonzero}
   ]]>
  </style>
 </defs>
 <g
   transform="translate(146.04775,-20.330725)"
   id="Слой_x0020_1">
  <metadata
   id="CorelCorpID_0Corel-Layer" />
  
  <path
   d="m 1.8984375,36.230469 -0.011719,0.0039 c 0.00172,0.02045 0.00329,0.02368 0.00586,0.03711 l 0.00781,0.01563 c 0.00326,-0.01899 -0.00286,-0.03768 -0.00195,-0.05664 z m 3.7695313,3.470703 c -0.032625,-5e-5 -0.070364,0.01357 -0.1113282,0.03711 7.59e-5,0.0085 -0.00211,0.01691 -0.00195,0.02539 0.037607,-0.02135 0.075275,-0.04185 0.1132813,-0.0625 z m -0.1113282,0.03711 c -8.15e-5,-0.0091 -7.4e-6,-0.01823 0,-0.02734 -0.1716655,0.019 -0.3427997,0.0402 -0.5136718,0.07617 -0.4505627,0.06539 -1.0157186,0.139307 -1.5761719,0.21875 l 0.1386719,0.328125 c 0.035297,-0.03838 0.060521,-0.08625 0.099609,-0.121093 0.3763978,-0.33555 1.1657786,-0.310362 1.7832031,-0.429688 0.023291,-0.01953 0.02816,-0.02182 0.068359,-0.04492 z m -0.068359,0.04492 c -0.025424,0.02132 -0.066526,0.05445 -0.041016,0.03906 0.034273,-0.02067 0.070681,-0.03687 0.1054688,-0.05664 -0.022951,0.005 -0.040947,0.01304 -0.064453,0.01758 z m 4.0390626,3.435547 c -0.06679,0.01613 -0.132216,0.03746 -0.1992188,0.05273 -0.012652,0.0049 -0.02653,0.0065 -0.039062,0.01172 -0.016436,0.0068 -0.019823,0.02803 -0.025391,0.04688 z"
   transform="matrix(0.80758239,0,0,0.80758239,-1.5170061,-3.4155606)"
   style="stroke-width:1.23826"
   id="polygon9" />
 </g>
<path
   id="path210"
   d="m 79.865315,242.60903 c -5.92122,-3.6351 -6.78876,-4.14246 -14.65236,-8.56905 -4.14577,-2.33374 -9.35483,-5.31064 -11.57568,-6.61533 -2.22086,-1.30469 -7.12692,-4.08925 -10.90237,-6.18789 -3.77544,-2.09864 -9.04492,-5.15857 -11.70994,-6.79984 -2.66502,-1.64126 -8.29791,-4.89203 -12.51753,-7.22393 -10.4432296,-5.77127 -15.9537596,-9.46756 -17.3960196,-11.66872 -1.81755996,-2.77394 -1.27518996,-72.25314 0.68009,-87.12156 0.74774,-5.68603 1.68352,-10.955508 2.0795,-11.709943 0.39598,-0.754427 0.96964,-3.007049 1.27481,-5.005816 0.59487,-3.896286 5.2477896,-18.562135 7.5318496,-23.740144 6.88021,-15.597594 14.79329,-29.679371 21.04659,-37.453623 1.75169,-2.177744 5.29104,-4.860215 9.58997,-7.268242 3.74748,-2.099138 7.42153,-4.183431 8.16454,-4.631763 1.56102,-0.94192 16.31063,-9.5297948 21.48576,-12.5099608 1.92829,-1.110425 5.09162,-2.938265 7.02964,-4.061865 l 3.52365,-2.04291002 3.51543,2.04291002 c 1.93347,1.1236 5.0968,2.95144 7.02962,4.061865 2.86023,1.643233 15.276355,8.8543388 21.539735,12.5099608 7.92477,4.625301 23.84082,13.749437 31.31044,17.949227 10.91812,6.138709 14.93978,8.699546 17.96871,11.441794 l 2.22085,2.01065 v 72.38023 72.38024 l -2.22085,2.01064 c -3.02893,2.74225 -7.05059,5.30309 -17.96871,11.4418 -7.46962,4.19979 -23.38567,13.32393 -31.31044,17.94923 -6.26338,3.65562 -18.679505,10.86672 -21.539735,12.50996 -1.93282,1.11042 -5.10442,2.9466 -7.048,4.08039 l -3.53381,2.06143 z m 0.5415,-85.08411 c 0.4785,-0.88834 1.0817,-4.0008 1.34045,-6.91657 1.49766,-16.87722 12.74632,-46.88918 24.044045,-64.150684 4.56132,-6.969121 5.36384,-8.688965 4.23073,-9.066671 -0.51402,-0.171345 -5.41582,-2.953523 -10.892865,-6.182625 -9.45508,-5.574423 -13.44476,-7.877723 -38.22366,-22.067044 -5.77422,-3.30653 -12.65236,-7.27053 -15.28477,-8.808887 -2.63241,-1.538358 -5.358,-2.688485 -6.05687,-2.555836 -1.10916,0.210524 -2.82325,2.810957 -10.09565,15.316074 -2.49706,4.29378 -9.2896,19.518965 -9.31886,20.887841 -0.0147,0.688464 -0.37199,1.596994 -0.79393,2.018956 -0.96882,0.968873 -3.70241,9.324492 -5.79931,17.726433 -3.40356,13.637503 -3.9641596,21.222923 -4.4534796,60.258963 l -0.4719,37.64665 6.2057496,3.54005 c 3.41316,1.94703 7.76252,4.44858 9.66523,5.55901 3.1471,1.83665 11.96061,6.90314 21.07267,12.11373 13.48195,7.70945 19.45461,11.16085 25.82969,14.9261 l 7.26824,4.29278 0.43225,-36.46155 c 0.28093,-23.69777 0.7368,-37.02696 1.30224,-38.07672 z m -38.88328,-2.66625 -17.76681,-10.25507 -0.2284,-9.09054 c -0.22438,-8.93099 -0.1941,-9.10617 1.725,-9.98057 1.74861,-0.79672 3.76215,0.14437 19.20658,8.97677 9.48926,5.42673 17.97804,10.56208 18.86398,11.41189 1.42729,1.36909 1.58504,2.43448 1.38476,9.35258 -0.23778,8.21343 -0.88792,9.94971 -3.70012,9.88161 -0.945,-0.0229 -9.71324,-4.65638 -19.48499,-10.29667 z m 15.73549,-1.97735 c -0.0271,-2.21315 -0.72774,-2.67819 -21.88406,-14.52546 l -3.94621,-2.20983 v 1.92644 c 0,1.63034 1.83091,2.99016 11.91184,8.84695 12.0106,6.97787 13.94101,7.80475 13.91843,5.9619 z m -4.83313,-17.92222 c -3.33127,-1.94401 -7.32881,-4.22659 -8.8834,-5.07241 -6.11119,-3.32497 -10.99978,-6.17549 -13.04599,-7.60705 -1.17899,-0.82485 -2.32294,-1.49972 -2.5421,-1.49972 -0.67473,0 -11.37454,-6.58014 -12.96582,-7.97368 -1.23953,-1.08551 -1.41496,-2.0374 -1.0106,-5.48369 0.77906,-6.63995 3.83759,-18.708276 6.92523,-27.325543 0.79576,-2.220852 2.0788,-5.797771 2.8512,-7.948703 1.83692,-5.115276 8.96692,-19.077056 12.74672,-24.960279 2.05813,-3.203453 3.50326,-4.643599 4.65967,-4.643599 1.3246,0 12.32432,5.747932 20.1485,10.528653 1.43242,0.875238 14.68842,8.602089 18.1706,10.591551 1.33251,0.761298 3.33128,1.842143 4.44171,2.401878 6.03378,3.041459 6.16963,5.024558 0.95096,13.8815 -7.57358,12.853627 -15.65742,32.179512 -18.64155,44.566032 -3.97302,16.49117 -3.81828,16.37297 -13.80513,10.54506 z m 6.14937,-11.35264 c 1.75229,-6.92384 3.33339,-12.14865 5.46252,-18.05109 2.37578,-6.58621 1.72844,-5.16933 9.40415,-20.583567 l 5.96781,-11.984434 -1.98387,-1.56633 c -1.09114,-0.86148 -3.25582,-2.22627 -4.81042,-3.032884 -1.55459,-0.806605 -8.52352,-4.793445 -15.48651,-8.859647 -6.96298,-4.066201 -13.18737,-7.393094 -13.83198,-7.393094 -2.68506,0 -16.01105,29.8408 -18.39273,41.186702 -0.51281,2.442937 -1.20381,4.805115 -1.53556,5.249286 -0.33176,0.44417 -0.82781,2.813918 -1.10235,5.266098 -0.54267,4.84713 -0.59147,4.77583 5.52831,8.0761 1.33251,0.71859 3.69469,2.05451 5.24928,2.9687 7.55443,4.44242 13.55349,7.89787 15.74786,9.07075 1.33251,0.71221 3.33128,1.93324 4.4417,2.71339 3.00291,2.10976 4.20816,1.41934 5.34179,-3.05998 z m -19.07069,-7.70133 c -13.22458,-7.61072 -15.79565,-9.71378 -14.61854,-11.95754 0.38614,-0.73605 0.94891,-2.97363 1.2506,-4.972397 0.9657,-6.398088 5.99296,-21.310153 9.93739,-29.476757 5.418,-11.217499 6.25614,-12.575491 8.04193,-13.029883 1.2933,-0.329076 5.6303,1.743492 15.74786,7.525589 12.94259,7.39658 13.98086,8.160965 14.20725,10.459555 0.17094,1.735688 -1.31226,5.726276 -4.94282,13.298758 -4.88748,10.194153 -10.28694,23.990675 -11.50347,29.393345 -0.78337,3.47898 -2.5935,6.06425 -4.20802,6.01 -0.76706,-0.0258 -7.02754,-3.28857 -13.91218,-7.25067 z m 14.09366,-11.29088 c 3.2576,-9.227977 4.51323,-12.208982 8.60637,-20.43244 1.72844,-3.472572 3.13483,-6.743281 3.12531,-7.268242 -0.022,-1.215233 -17.63609,-11.214674 -18.65043,-10.587779 -1.49581,0.924463 -9.59765,19.773407 -9.59765,22.328953 0,0.612705 -0.32461,1.459253 -0.72135,1.881215 -0.82699,0.879554 -2.50898,8.399519 -2.50898,11.217283 0,1.54583 1.43717,2.71258 7.87393,6.39232 4.33066,2.47574 8.16541,4.41705 8.52167,4.31402 0.35626,-0.10303 1.86427,-3.63342 3.35113,-7.84533 z m 38.72138,-11.75466 c -2.17597,-1.142721 -4.8399,-2.943121 -5.91986,-4.000869 -1.7117,-1.6765 -1.84341,-2.186917 -1.0268,-3.979184 1.30517,-2.864527 4.37474,-2.672508 9.85481,0.616468 4.66762,2.801366 6.093095,5.753572 3.99738,8.278737 -1.33566,1.609374 -2.35582,1.474185 -6.90553,-0.915152 z M 123.49676,68.34818 c 2.88512,-1.743065 8.69809,-5.07578 12.91771,-7.406032 4.21962,-2.330252 9.79121,-5.600718 12.38132,-7.267703 l 4.70929,-3.030881 -2.08465,-1.273031 c -1.14655,-0.700166 -3.08402,-1.909002 -4.30549,-2.6863 -1.22147,-0.777298 -3.53507,-2.140093 -5.14135,-3.028434 -6.14411,-3.397974 -18.78209,-10.568285 -21.35097,-12.113735 -1.47663,-0.888341 -6.17955,-3.613931 -10.45095,-6.056868 -4.27139,-2.442937 -9.35335,-5.350234 -11.293245,-6.460659 -1.93989,-1.110426 -5.86113,-3.381752 -8.71387,-5.04739 -2.85273,-1.665639 -5.84376,-3.028434 -6.64674,-3.028434 -0.80297,0 -3.794,1.362795 -6.64673,3.028434 -7.49213,4.37446 -11.2893,6.536534 -19.86183,11.309152 -4.19149,2.333543 -8.02567,4.730525 -8.52039,5.326627 -0.71608,0.86283 0.68031,1.97371 6.84845,5.448182 4.26137,2.400399 9.29304,5.272892 11.1815,6.383318 3.02009,1.775838 7.32787,4.247266 21.11464,12.113736 4.97589,2.839148 14.528395,8.413951 19.304255,11.265888 7.05397,4.212316 9.66884,5.620982 10.50218,5.657647 0.44615,0.01962 3.17174,-1.390447 6.05687,-3.133517 z"
   style="fill:#000000;stroke-width:0.807582" /></svg>
