<?xml version="1.0" encoding="UTF-8" standalone="no"?>
<svg
   xmlns:dc="http://purl.org/dc/elements/1.1/"
   xmlns:cc="http://creativecommons.org/ns#"
   xmlns:rdf="http://www.w3.org/1999/02/22-rdf-syntax-ns#"
   xmlns:svg="http://www.w3.org/2000/svg"
   xmlns="http://www.w3.org/2000/svg"
   xmlns:sodipodi="http://sodipodi.sourceforge.net/DTD/sodipodi-0.dtd"
   xmlns:inkscape="http://www.inkscape.org/namespaces/inkscape"
   version="1.1"
   id="svg518"
   width="1725.5405"
   height="1658.0914"
   viewBox="0 0 1725.5405 1658.0914"
   sodipodi:docname="пляж.svg"
   inkscape:version="1.0 (4035a4fb49, 2020-05-01)">
  <metadata
     id="metadata524">
    <rdf:RDF>
      <cc:Work
         rdf:about="">
        <dc:format>image/svg+xml</dc:format>
        <dc:type
           rdf:resource="http://purl.org/dc/dcmitype/StillImage" />
        <dc:title></dc:title>
      </cc:Work>
    </rdf:RDF>
  </metadata>
  <defs
     id="defs522" />
  <sodipodi:namedview
     inkscape:document-rotation="0"
     pagecolor="#ffffff"
     bordercolor="#666666"
     borderopacity="1"
     objecttolerance="10"
     gridtolerance="10"
     guidetolerance="10"
     inkscape:pageopacity="0"
     inkscape:pageshadow="2"
     inkscape:window-width="1920"
     inkscape:window-height="1018"
     id="namedview520"
     showgrid="false"
     inkscape:zoom="0.50508129"
     inkscape:cx="1362.5725"
     inkscape:cy="921.22157"
     inkscape:window-x="-6"
     inkscape:window-y="-6"
     inkscape:window-maximized="1"
     inkscape:current-layer="g526" />
  <g
     transform="translate(497.22038,10.477077)"
     inkscape:groupmode="layer"
     inkscape:label="Image"
     id="g526">
    <path
       id="path8"
       d="m 843.83343,1645.9924 c -95.0799,-6.6185 -155.8682,-22.0499 -146.5097,-37.1924 9.2273,-14.93 67.0574,-25.6634 174.9681,-32.4743 l 32.9196,-2.0777 5.2539,-17.4339 c 2.8897,-9.5886 11.1958,-47.0958 18.4582,-83.3493 68.4718,-341.812 26.329,-657.78407 -118.4567,-888.14651 -44.0375,-70.06625 -110.7595,-148.17857 -174.9672,-204.83646 -15.6487,-13.80868 -17.8213,-17.2516 -16.9014,-26.78342 1.0085,-10.44913 1.7619,-10.98342 16.8618,-11.95792 12.2057,-0.7877 20.3828,1.29029 35.8988,9.12271 77.4161,39.07957 176.4986,159.91832 246.9652,301.19314 78.3486,157.07719 121.79457,315.08123 143.13817,520.56336 5.6934,54.8131 5.7273,271.2618 0.051,324.507 -2.2794,21.3803 -5.0976,48.9406 -6.2627,61.2452 l -2.1183,22.3719 19.8806,2.4226 c 10.9344,1.3323 30.3393,4.5941 43.122,7.2483 78.7563,16.3528 51.9839,39.6501 -59.6057,51.8685 -45.2878,4.9587 -164.80367,7.043 -212.69547,3.7092 z m -1325.25295,-26.8983 c -9.40904,-8.4069 -11.03924,-12.1394 -11.03924,-25.2752 0,-11.9674 1.88865,-17.2709 8.4507,-23.7304 4.64789,-4.5752 64.73239,-34.4192 133.52112,-66.32 68.78873,-31.9008 143.47071,-66.9892 165.95994,-77.9742 22.86121,-11.1668 49.68797,-21.617 60.84506,-23.702 27.049933,-5.0549 59.459833,-1.551 97.059283,10.4931 41.24309,13.2114 159.696097,41.9143 279.515997,67.731 84.31517,18.1668 99.35746,20.5197 120.53239,18.8533 27.89821,-2.1954 55.64315,-11.6487 74.32333,-25.3237 7.16738,-5.2469 78.49697,-69.465 158.51017,-142.707 185.428,-169.7358 168.1004,-155.139 184.1632,-155.139 27.2901,0 45.9339,31.4601 31.6231,53.3619 -4.9759,7.6152 -175.4771,165.5451 -309.7967,286.9549 -35.73137,32.2971 -75.21364,49.5309 -127.68842,55.7355 -34.44649,4.0729 -46.01838,2.2159 -206.03327,-33.0624 -114.626357,-25.2716 -176.9793075,-40.6218 -224.359397,-55.2332 -42.95179,-13.2458 -61.288163,-13.3101 -88.049513,-0.309 -11.30187,5.4907 -85.93051,40.4766 -165.84145,77.7465 -159.82253,74.5402 -162.21824,75.3036 -181.6963,57.8999 z m -9.10376,-130.8739 c -14.80024,-18.8155 -5.76359,-35.377 34.05896,-62.42 19.84187,-13.4743 150.26132,-88.5088 268.99863,-154.7635 56.1911,-31.3543 72.30287,-38.8251 90.427843,-41.9297 26.98638,-4.6226 26.61509,-4.6763 226.518617,32.7747 l 152.0804,28.4916 37.21538,-17.9143 37.21538,-17.9143 -37.64803,0.446 c -32.42197,0.384 -38.62161,-0.432 -44.66149,-5.8784 -15.86032,-14.3017 -16.41103,-40.0207 -1.2427,-58.0358 13.3339,-15.8364 166.19591,-140.147 172.33569,-140.147 1.70491,0 7.13743,-7.4184 12.0723,-16.4853 l 8.97245,-16.4854 -5.597,-52.94436 c -5.99186,-56.67911 -4.94022,-63.52167 8.6453,-56.25092 7.03085,3.76279 7.12347,3.35817 7.12347,-31.12348 0,-45.33059 -5.28828,-50.60471 -29.07011,-28.99237 -6.03408,5.48366 -7.69183,5.7356 -11.05724,1.68054 -6.06075,-7.30276 16.4639,-25.87751 31.38037,-25.87751 17.86725,0 20.37603,6.05463 22.26811,53.74091 l 1.69014,42.59712 39.78154,20.28169 c 24.4358,12.45806 39.4311,22.03913 38.8732,24.8376 -0.4996,2.50577 -22.1188,16.95658 -48.0429,32.11292 -34.32389,20.06726 -48.89075,30.56396 -53.5961,38.62066 l -6.46154,11.0637 8.80739,6.9278 c 4.84408,3.8104 8.80743,10.0194 8.80743,13.7978 0,4.4354 -19.46556,25.779 -54.92958,60.2291 -30.21127,29.3475 -53.69321,54.6356 -52.18205,56.1957 1.51112,1.5601 48.7513,-20.3295 104.97816,-48.6434 69.09499,-34.794 105.78449,-51.4799 113.19499,-51.4799 14.3342,0 27.4859,7.0383 40.1915,21.5092 13.6423,15.5377 18.8238,32.4968 17.121,56.0373 -3.1239,43.1881 -27.804,73.7158 -117.6698,145.5497 -92.33506,73.8078 -145.82254,104.2449 -196.69859,111.9314 -22.20977,3.3555 -28.98497,2.8512 -66.96338,-4.984 -23.23943,-4.7945 -73.43662,-17.1567 -111.54929,-27.4716 -163.9248675,-44.3649 -211.306067,-55.7692 -231.789127,-55.7904 -19.82612,-0.02 -25.895593,2.56 -179.108293,76.146 -87.22271,41.892 -168.27501,79.1596 -180.11621,82.8169 -30.6597,9.4699 -45.63973,8.8481 -54.37482,-2.2567 z M 541.06233,971.85786 c 3.2535,-2.46977 5.9155,-5.45094 5.9155,-6.62481 0,-2.90485 -74.68312,-40.18371 -76.62077,-38.24606 -0.84798,0.84797 -0.30727,10.44818 1.20146,21.33373 l 2.74326,19.79196 25.35215,3.83084 c 33.754,5.10043 34.5789,5.09874 41.4084,-0.0855 z m 114.0845,100.80534 c -37.0657,-17.1914 -57.4436,-46.9517 -60.0161,-87.64912 -3.721,-58.86709 37.2906,-104.88868 97.1448,-109.01209 58.1964,-4.00918 108.2234,42.44722 108.2234,100.49913 0,32.94268 -7.8395,52.34638 -30.172,74.67888 -22.2945,22.2946 -41.7719,30.1875 -74.3738,30.139 -16.6515,-0.024 -26.8706,-2.1924 -40.8063,-8.6558 z M 131.2032,683.48123 c -13.56504,-6.96288 -13.5597,-6.88969 -4.53256,-61.84743 17.03635,-103.71803 61.43426,-186.95527 127.88721,-239.76297 60.98684,-48.46402 143.5198,-74.63909 234.9552,-74.51533 33.77198,0.0457 76.49518,4.29455 80.17388,7.97334 3.0244,3.0243 -8.7758,32.95818 -19.7085,49.99527 -18.043,28.11762 -49.861,40.85233 -80.92328,32.38844 -8.37742,-2.28271 -8.7379,-1.70289 -12.46351,20.04713 -4.54059,26.50783 -22.59833,64.08176 -35.14313,73.12462 -13.61222,9.81232 -36.22127,11.09344 -54.33907,3.07907 l -15.24869,-6.74522 -1.99629,32.55995 c -2.39507,39.06386 -6.87729,54.23311 -20.77569,70.31115 -8.79228,10.1712 -13.17657,12.37119 -27.37244,13.73523 -10.93727,1.05093 -21.29604,-0.21127 -29.34912,-3.576 l -12.4458,-5.20019 -14.97701,20.89839 c -41.41967,57.79552 -83.74952,82.92913 -113.7412,67.53455 z m 871.847,-333.51097 c -18.29857,-6.54169 -34.86577,-19.52718 -59.20647,-46.40638 l -13.8383,-15.2815 -7.3808,16.0888 c -12.5932,27.45055 -36.9061,38.32248 -67.3613,30.12175 -7.9211,-2.13292 -26.5506,-12.15034 -41.3989,-22.2609 l -26.997,-18.38286 -12.6209,13.98653 c -6.9414,7.69258 -17.5156,16.03567 -23.4981,18.5402 -23.6672,9.90797 -66.9404,1.66864 -90.6883,-17.2673 l -9.8086,-7.82109 26.9547,-27.76588 c 59.9833,-61.78845 131.1304,-104.07363 202.7294,-120.48907 38.6305,-8.85679 102.1896,-8.21664 139.33047,1.4033 66.5125,17.22753 133.0431,54.93795 193.4267,109.63676 19.296,17.47934 20.1461,23.32986 5.7275,39.41555 -12.7835,14.26153 -31.6069,20.52525 -61.9257,20.6066 -24.368,0.0654 -63.5979,-5.72513 -79.0682,-11.67083 -3.7879,-1.45582 -8.2695,2.68818 -15.5187,14.34961 -10.0922,16.23499 -27.2931,27.98343 -40.5112,27.66964 -3.4373,-0.0815 -11.6932,-2.09443 -18.3463,-4.47293 z M 551.12983,268.17053 c -73.94014,-10.77654 -108.94072,-25.1074 -108.94072,-44.60538 0,-6.51093 -1.26862,-7.79831 -5.9155,-6.00293 -39.49311,15.25866 -83.8658,4.60433 -120.58313,-28.95323 -17.22929,-15.74661 -18.7829,-16.43318 -32.83544,-14.51072 -17.21554,2.35519 -82.30871,-3.61752 -101.23964,-9.28936 -7.17374,-2.1493 -16.3029,-6.94473 -20.287,-10.65649 l -7.24384,-6.74867 19.82691,-11.32949 C 199.77153,121.29734 255.12419,99.653525 285.00601,92.634445 394.71636,66.864075 494.8662,105.9605 559.55343,199.81209 c 16.9326,24.56666 38.1286,63.57814 38.1286,70.17602 0,4.265 -6.5814,4.00804 -46.5522,-1.81758 z m 71.253,-54.70575 c 6.0587,-87.8654 52.2596,-163.058641 120.6513,-196.363476 40.1467,-19.5502852 62.0935,-24.6191224 115.4298,-26.6597268 45.3661,-1.7356742 46.2023,-1.6372152 50.2448,5.9162936 10.1452,18.9565762 -9.6227,45.3387762 -50.1622,66.9460712 -19.1354,10.199111 -19.3734,10.510083 -18.1178,23.676203 2.7287,28.612925 -13.7045,39.497775 -55.6776,36.879175 l -27.924,-1.74213 -3.7943,11.49669 c -5.3055,16.076 -25.8003,40.95852 -47.4476,57.60579 -21.9896,16.91053 -77.1489,51.82258 -81.8771,51.82258 -2.1319,0 -2.6175,-10.83734 -1.3253,-29.57747 z"
       style="fill:#000000;stroke-width:3.38028" />
  </g>
</svg>
