<?xml version="1.0" encoding="UTF-8" standalone="no"?>
<svg
   xmlns:dc="http://purl.org/dc/elements/1.1/"
   xmlns:cc="http://creativecommons.org/ns#"
   xmlns:rdf="http://www.w3.org/1999/02/22-rdf-syntax-ns#"
   xmlns:svg="http://www.w3.org/2000/svg"
   xmlns="http://www.w3.org/2000/svg"
   xmlns:sodipodi="http://sodipodi.sourceforge.net/DTD/sodipodi-0.dtd"
   xmlns:inkscape="http://www.inkscape.org/namespaces/inkscape"
   inkscape:version="1.0 (4035a4fb49, 2020-05-01)"
   sodipodi:docname="ДЕТИ.svg"
   id="svg12"
   viewBox="0 0 163.1185 145.16505"
   style="clip-rule:evenodd;fill-rule:evenodd;image-rendering:optimizeQuality;shape-rendering:geometricPrecision;text-rendering:geometricPrecision"
   version="1.1"
   height="47.561584mm"
   width="53.441528mm"
   xml:space="preserve"><metadata
   id="metadata16"><rdf:RDF><cc:Work
       rdf:about=""><dc:format>image/svg+xml</dc:format><dc:type
         rdf:resource="http://purl.org/dc/dcmitype/StillImage" /><dc:title></dc:title></cc:Work></rdf:RDF></metadata><sodipodi:namedview
   inkscape:current-layer="svg12"
   inkscape:window-maximized="1"
   inkscape:window-y="-6"
   inkscape:window-x="-6"
   inkscape:cy="56.907479"
   inkscape:cx="56.402354"
   inkscape:zoom="3.1941166"
   showgrid="false"
   id="namedview14"
   inkscape:window-height="1018"
   inkscape:window-width="1920"
   inkscape:pageshadow="2"
   inkscape:pageopacity="0"
   guidetolerance="10"
   gridtolerance="10"
   objecttolerance="10"
   borderopacity="1"
   bordercolor="#666666"
   pagecolor="#ffffff" />
 <defs
   id="defs4">
  <style
   id="style2"
   type="text/css">
   <![CDATA[
    .fil0 {fill:black;fill-rule:nonzero}
   ]]>
  </style>
 </defs>
 <g
   transform="translate(-8.2009462,-50.180616)"
   id="Слой_x0020_1">
  <metadata
   id="CorelCorpID_0Corel-Layer" />
  
  <path
   d="m 1.8984375,36.230469 -0.011719,0.0039 c 0.00172,0.02045 0.00329,0.02368 0.00586,0.03711 l 0.00781,0.01563 c 0.00326,-0.01899 -0.00286,-0.03768 -0.00195,-0.05664 z m 3.7695313,3.470703 c -0.032625,-5e-5 -0.070364,0.01357 -0.1113282,0.03711 7.59e-5,0.0085 -0.00211,0.01691 -0.00195,0.02539 0.037607,-0.02135 0.075275,-0.04185 0.1132813,-0.0625 z m -0.1113282,0.03711 c -8.15e-5,-0.0091 -7.4e-6,-0.01823 0,-0.02734 -0.1716655,0.019 -0.3427997,0.0402 -0.5136718,0.07617 -0.4505627,0.06539 -1.0157186,0.139307 -1.5761719,0.21875 l 0.1386719,0.328125 c 0.035297,-0.03838 0.060521,-0.08625 0.099609,-0.121093 0.3763978,-0.33555 1.1657786,-0.310362 1.7832031,-0.429688 0.023291,-0.01953 0.02816,-0.02182 0.068359,-0.04492 z m -0.068359,0.04492 c -0.025424,0.02132 -0.066526,0.05445 -0.041016,0.03906 0.034273,-0.02067 0.070681,-0.03687 0.1054688,-0.05664 -0.022951,0.005 -0.040947,0.01304 -0.064453,0.01758 z m 4.0390626,3.435547 c -0.06679,0.01613 -0.132216,0.03746 -0.1992188,0.05273 -0.012652,0.0049 -0.02653,0.0065 -0.039062,0.01172 -0.016436,0.0068 -0.019823,0.02803 -0.025391,0.04688 z"
   transform="matrix(0.80758239,0,0,0.80758239,-1.5170061,-3.4155606)"
   style="stroke-width:1.23826"
   id="polygon9" />
 </g>
<path
   id="path146"
   d="m 25.575377,143.76891 c -2.46447,-1.1268 -3.94832,-2.69783 -6.25876,-6.62645 -1.66564,-2.83221 -3.02844,-5.81177 -3.02844,-6.62124 0,-3.09808 2.4142,-6.00744 7.02371,-8.46428 5.40336,-2.87996 7.73859,-5.1804 8.95462,-8.82123 0.80604,-2.4133 0.60936,-2.8779 -3.24779,-7.67203 -2.25818,-2.80674 -5.14921,-7.32563 -6.42451,-10.04196 -2.04603,-4.35798 -2.40312,-6.30495 -3.03639,-16.55544 -0.68857,-11.1457 -1.51714,-15.03364 -6.17594,-28.979675 -0.33929,-1.015662 0.7435,-1.211373 6.702,-1.211373 6.28032,0 7.57015,-0.261374 11.09269,-2.247841 3.33996,-1.883508 4.58345,-2.168127 7.67203,-1.756037 5.05066,0.67388 13.0632,3.231166 16.52665,5.274655 2.49181,1.470206 3.24317,1.570147 5.70245,0.758512 2.8088,-0.926989 6.08817,-0.515472 6.08817,0.763983 0,0.366011 -1.36279,1.240284 -3.02843,1.942832 -3.35558,1.415344 -5.85497,3.184444 -5.85497,4.144214 0,0.34453 1.60058,0.40704 3.55685,0.1389 2.52645,-0.34629 3.82477,-0.16469 4.4817,0.62686 0.50867,0.61291 2.81477,1.55731 5.12466,2.09868 5.84911,1.37083 6.46581,1.99042 4.93249,4.95554 -2.45957,4.75628 -8.68038,5.4452 -17.76342,1.96718 -3.95332,-1.51377 -22.88809,-5.66806 -23.4182,-5.13794 -0.21553,0.21552 2.07419,1.25708 5.08826,2.31457 5.25165,1.84255 5.49012,2.04055 5.71968,4.74925 l 0.23954,2.82654 h 7.97393 c 7.33738,0 8.14094,0.15696 10.0662,1.96635 3.16072,2.97049 3.95831,7.20783 3.39216,18.02131 -0.27325,5.219 -0.31685,9.48909 -0.0969,9.48909 0.21995,0 1.756,-0.72682 3.41345,-1.61516 3.71356,-1.99035 6.55782,-2.0624 7.97014,-0.2019 2.64328,3.48208 0.82422,6.67843 -7.64758,13.43794 -9.15025,7.30084 -12.56582,8.28438 -14.84301,4.27419 -0.66847,-1.1772 -1.09466,-6.89709 -1.28357,-17.22649 l -0.28281,-15.46411 -5.98382,2.49767 c -3.83508,1.60078 -5.97799,2.94886 -5.96762,3.75416 0.009,0.69108 0.91015,4.70892 2.00277,8.92854 1.09262,4.21962 1.99358,9.30739 2.00213,11.30615 0.0211,4.91879 -3.52138,12.17537 -8.71677,17.85605 -4.24079,4.63692 -4.46004,5.56384 -1.31605,5.56384 0.98719,0 2.6455,0.68879 3.68514,1.53064 1.62223,1.3136 1.77683,1.85753 1.09029,3.83601 -1.63093,4.70007 -9.76865,6.52651 -16.12672,3.6195 z M 51.255297,53.943 c -1.86618,-0.858329 -5.27734,-1.917944 -7.58036,-2.354704 -4.15776,-0.788503 -13.29791,-1.015246 -11.51629,-0.28569 1.93356,0.791771 18.5387,4.198384 20.47074,4.199654 1.67852,10e-4 1.44681,-0.26182 -1.37409,-1.55926 z m 71.797283,87.26106 c -4.71092,-1.89044 -13.89242,-11.75064 -13.89242,-14.91935 0,-2.00948 1.34368,-4.21515 7.56643,-12.42041 5.09469,-6.71781 5.75868,-7.99862 5.75868,-11.10826 0,-3.24636 0.19967,-3.58081 2.6134,-4.3774 4.45805,-1.4713 3.64087,-2.1583 -2.08036,-1.74895 -4.0254,0.28802 -6.13631,0.0552 -7.93608,-0.87558 -2.37543,-1.22838 -6.17529,-5.14343 -8.04821,-8.29218 -0.50311,-0.84585 -1.19087,-1.27412 -1.52835,-0.95174 -0.33747,0.3224 -0.1671,1.12416 0.37861,1.78169 1.31739,1.58736 0.55182,2.6419 -2.38646,3.28726 -2.95685,0.64943 -3.0219,1.69927 -0.3279,5.29225 1.7637,2.35223 2.01976,3.36587 1.65915,6.56752 -0.95053,8.43875 -7.240403,17.55635 -11.281033,16.3526 -5.21927,-1.55487 -6.63061,-8.1171 -3.16417,-14.71227 0.99939,-1.9014 1.81091,-3.90017 1.80338,-4.4417 -0.007,-0.54154 -1.63296,-2.71082 -3.61207,-4.82063 -2.932,-3.12562 -4.10935,-3.83601 -6.35751,-3.83601 -1.51752,0 -3.61391,-0.69217 -4.65864,-1.53813 -1.8158,-1.47035 -1.83754,-1.60662 -0.49325,-3.09203 0.77343,-0.85464 1.40625,-2.72327 1.40625,-4.15251 0,-1.9859 0.52364,-2.90067 2.22085,-3.87969 1.22147,-0.70459 3.22433,-2.69705 4.4508,-4.42769 2.72365,-3.84328 8.44955,-7.5918 14.1236,-9.24617 3.582243,-1.04447 4.239813,-1.53458 4.239813,-3.16006 0,-1.51305 0.80265,-2.27891 3.75892,-3.58661 4.71263,-2.08462 4.1137,-2.99416 -0.85977,-1.30563 -4.18044,1.4193 -15.505383,2.87618 -22.435363,2.88617 -2.52777,0.004 -4.797,0.33194 -5.04273,0.72954 -0.24573,0.3976 -1.79766,0.0342 -3.44875,-0.80758 -1.65108,-0.84177 -3.81304,-1.53049 -4.80437,-1.53049 -0.99132,0 -2.36374,-0.80142 -3.04981,-1.78093 -1.15657,-1.65123 -1.45838,-1.70464 -4.14417,-0.73345 -4.76975,1.72477 -4.12513,0.33412 0.96399,-2.07963 2.60688,-1.236441 4.88243,-2.335176 5.05677,-2.441639 0.17433,-0.106463 -0.14272,-0.747469 -0.70457,-1.424458 -0.90229,-1.087189 -0.17858,-1.23089 6.199,-1.23089 8.34799,0 14.97152,-1.67269 17.52231,-4.425035 1.56099,-1.684334 2.12973,-1.810527 5.35797,-1.188837 4.938223,0.950994 8.255823,0.28355 15.108013,-3.039464 9.88884,-4.795652 11.4721,-3.192437 12.2296,12.383753 l 0.50147,10.31161 5.64592,1.03982 c 7.28191,1.34112 14.80577,5.07263 18.52209,9.18616 2.87101,3.17787 3.15283,4.80496 0.83223,4.80496 -0.63298,0 -4.46698,3.28468 -8.52001,7.2993 l -7.36914,7.29929 0.89564,3.55689 c 0.49259,1.95629 0.89451,4.94047 0.89315,6.63151 -0.003,3.68176 -4.14067,12.27443 -8.84996,18.37854 l -3.28121,4.25306 2.83649,4.71048 c 3.53909,5.87723 3.80955,9.7248 0.76498,10.88235 -2.42266,0.9211 -2.59502,0.91906 -5.0332,-0.0594 z M 97.146637,86.11246 c -0.79758,-0.79164 -0.89034,-0.69888 -0.45208,0.45208 0.30327,0.79646 0.75483,1.24467 1.00348,0.99602 0.24865,-0.24865 5.2e-4,-0.90028 -0.5514,-1.4481 z m -1.31159,-34.500672 c 3.55337,-0.950947 6.805903,-2.069049 7.227873,-2.484671 1.02971,-1.014242 0.80537,-0.986248 -6.089213,0.759853 -3.29128,0.833541 -8.87045,1.779623 -12.39815,2.102406 -3.5277,0.322782 -7.16183,0.921337 -8.07583,1.33012 -3.25632,1.456384 12.81667,0.0368 19.33532,-1.707708 z M 11.038897,43.263905 C 6.1292068,40.896617 3.9801968,38.657154 1.7242468,33.557188 c -2.28556495,-5.166892 -2.29961095,-11.205048 -0.038,-16.317882 2.30267,-5.205565 4.43901,-7.4326257 9.3526102,-9.7497677 8.3329,-3.929605 17.60896,-1.924143 23.83941,5.1540227 7.97517,9.060276 5.86191,23.295659 -4.40013,29.640192 -5.51632,3.410474 -13.55794,3.815942 -19.43928,0.980152 z m 85.19472,-3.674783 c -9.06397,-2.972351 -14.53126,-10.232024 -14.53126,-19.29515 0,-8.291655 3.00592,-13.4017447 10.47196,-17.8024477 4.79337,-2.825345 13.226173,-2.978705 18.312343,-0.333031 4.20477,2.187196 8.6281,7.29428 9.84999,11.3725847 3.92777,13.109723 -4.35906,25.568703 -17.57869,26.428983 -2.47508,0.161069 -5.411043,-0.0058 -6.524343,-0.370939 z M 147.87695,24.185779 c -3.32156,-1.007898 -5.37607,-2.308311 -9.66513,-6.117599 -5.40283,-4.798491 -8.40478,-6.25121 -12.17475,-5.891685 -2.7673,0.263905 -3.20561,0.04917 -4.04729,-1.982816 -0.84942,-2.0506647 -0.71507,-2.5176217 1.34212,-4.6648657 4.38238,-4.574214 11.40793,-6.707232 16.07679,-4.881045 1.53709,0.601224 1.53866,0.64052 0.0586,1.468847 -1.36164,0.762015 -1.14658,1.040853 2.05478,2.664062 8.00558,4.059142 14.1029,9.7564447 9.09677,8.4999847 -1.86924,-0.469148 -2.02939,-0.376053 -1.15843,0.673388 1.72197,2.074853 8.54148,6.10821 11.24022,6.647957 3.67405,0.734812 3.18111,1.68204 -1.61685,3.106883 -4.49006,1.333403 -7.90514,1.478727 -11.20674,0.476889 z"
   style="fill:#000000;stroke-width:0.807582" /></svg>
