<?xml version="1.0" encoding="UTF-8" standalone="no"?>
<svg
   xmlns:dc="http://purl.org/dc/elements/1.1/"
   xmlns:cc="http://creativecommons.org/ns#"
   xmlns:rdf="http://www.w3.org/1999/02/22-rdf-syntax-ns#"
   xmlns:svg="http://www.w3.org/2000/svg"
   xmlns="http://www.w3.org/2000/svg"
   xmlns:sodipodi="http://sodipodi.sourceforge.net/DTD/sodipodi-0.dtd"
   xmlns:inkscape="http://www.inkscape.org/namespaces/inkscape"
   inkscape:version="1.0 (4035a4fb49, 2020-05-01)"
   sodipodi:docname="уборка.svg"
   viewBox="0 0 597.96521 581.64124"
   height="581.64124"
   width="597.96521"
   id="svg566"
   version="1.1">
  <metadata
     id="metadata572">
    <rdf:RDF>
      <cc:Work
         rdf:about="">
        <dc:format>image/svg+xml</dc:format>
        <dc:type
           rdf:resource="http://purl.org/dc/dcmitype/StillImage" />
        <dc:title></dc:title>
      </cc:Work>
    </rdf:RDF>
  </metadata>
  <defs
     id="defs570" />
  <sodipodi:namedview
     inkscape:current-layer="g574"
     inkscape:window-maximized="1"
     inkscape:window-y="-6"
     inkscape:window-x="-6"
     inkscape:cy="329.63466"
     inkscape:cx="574.86623"
     inkscape:zoom="0.7"
     showgrid="false"
     id="namedview568"
     inkscape:window-height="1018"
     inkscape:window-width="1920"
     inkscape:pageshadow="2"
     inkscape:pageopacity="0"
     guidetolerance="10"
     gridtolerance="10"
     objecttolerance="10"
     borderopacity="1"
     bordercolor="#666666"
     pagecolor="#ffffff"
     inkscape:document-rotation="0" />
  <g
     transform="translate(311.32413,114.7618)"
     id="g574"
     inkscape:label="Image"
     inkscape:groupmode="layer">
    <path
       id="path8"
       d="M 12.248394,464.57363 C 9.0001343,460.5589 9.0552543,460.81192 8.9134443,449.2548 c -0.157,-12.79807 -0.0807,-13.17501 3.4647497,-17.11782 l 2.66168,-2.95994 16.00051,-0.18118 c 8.80027,-0.0997 16.31551,-0.3393 16.70052,-0.53253 1.13927,-0.57186 1.09123,-1.31081 -2.48692,-38.26186 -0.66286,-6.84545 -1.65149,-17.14697 -2.19695,-22.89226 -0.54546,-5.74529 -1.18564,-12.04622 -1.42256,-14.00206 -0.23693,-1.95584 -0.88131,-8.25677 -1.43193,-14.00206 -1.8231,-19.02165 -4.73667,-47.49087 -6.93758,-67.78777 -0.66274,-6.11201 -1.66109,-15.41338 -2.21854,-20.66971 -0.5575,-5.25633 -1.10292,-10.05703 -1.21208,-10.66824 -0.10913,-0.6112 -0.72843,-5.81196 -1.37617,-11.55725 -4.78771,-42.46562 -8.63179,-68.77649 -11.87497,-81.27824 -1.88966,-7.28414 -6.3252,-16.20541 -12.0040097,-24.14374 -2.94074,-4.11085 -10.46749,-12.49059 -14.5401,-16.18792 C -30.100636,88.728331 -49.621206,79.697801 -141.16502,46.315091 c -35.77686,-13.04653 -39.51304,-14.15936 -48.6475,-14.48983 -7.67633,-0.27772 -10.82353,0.21791 -14.75448,2.32354 -4.40602,2.36011 -8.40788,7.35529 -10.95781,13.67771 -1.69667,4.20681 -2.17444,7.02984 -1.94535,11.49473 0.17676,3.44483 0.40767,4.41711 1.83307,7.71816 1.30185,3.01494 2.35387,4.60737 5.21507,7.89396 6.9212,7.95023 9.88929,9.35541 51.85646,24.55033 40.21064,14.558939 65.524144,24.155429 76.894124,29.150979 22.23285,9.76831 36.95268,25.26801 43.03281,45.31273 4.16301,13.72442 3.92533,27.73362 -0.74994,44.20464 -2.29607,8.08908 -4.85093,14.64022 -5.86123,15.02931 -0.28173,0.1085 -1.19512,-0.067 -2.02977,-0.39008 -1.98449,-0.76808 -16.16152,-8.6532 -21.95002,-12.20837 -4.11821,-2.52931 -11.53353,-7.81883 -11.53353,-8.22712 0,-0.0917 0.73033,-3.02033 1.62296,-6.50794 1.05818,-4.13444 1.70517,-7.6942 1.85919,-10.22932 0.21055,-3.46547 0.11515,-4.30181 -0.87743,-7.69258 -3.1499,-10.76036 -10.28298,-16.72655 -28.416444,-23.76784 -8.63285,-3.35217 -45.66142,-17.10645 -61.59102,-22.87802 -41.14811,-14.90867 -46.44137,-17.01118 -53.40167,-21.21143 -3.81083,-2.29969 -8.22253,-5.55526 -11.80037,-8.70799 -4.41096,-3.88686 -13.35832,-14.153549 -16.08252,-18.453969 -13.02056,-20.55424 -12.84158,-48.45177 0.45681,-71.20394 9.48596,-16.2294896 25.16566,-28.2121796 41.22651,-31.5059696 7.64383,-1.5676204 9.34665,-1.7130304 17.44489,-1.4897004 8.09837,0.22333 13.07159,0.92258 19.55627,2.7496804 14.70889,4.14431 75.508844,26.1089496 113.203544,40.8959996 4.31264,1.69178 15.83212,6.66463 22.00069,9.49748 29.9159003,13.73856 47.02955,25.39988 63.3325,43.155 16.604,18.083009 26.47727,37.254309 31.41655,61.002569 2.42799,11.67395 7.95297,53.31281 11.46324,86.39264 0.54477,5.13409 1.08067,9.76972 1.19087,10.3014 0.11017,0.53168 0.75263,6.1325 1.42765,12.44628 3.03701,28.40692 3.67155,34.40309 4.78999,45.26234 3.46583,33.65011 5.55053,54.41713 7.1843,71.5661 0.65218,6.84545 1.7337,18.14711 2.40336,25.11481 0.6697,6.96769 1.58533,16.66912 2.03474,21.55873 0.44941,4.88961 0.98739,9.08347 1.19548,9.31973 0.60966,0.69214 13.331736,1.0554 38.245716,1.09203 l 23.27996,0.0342 2.41604,2.23433 c 3.8854,3.59315 3.82568,3.34009 3.82568,16.21283 0,6.11202 -0.14184,11.85504 -0.31521,12.76233 -0.20025,1.04793 -1.05375,2.54753 -2.34019,4.11172 l -2.02503,2.46214 H 84.038954 14.113974 Z M -243.1682,459.4567 c -7.90379,-0.95023 -18.45095,-4.3418 -25.28048,-8.12924 -19.48428,-10.80542 -32.96789,-29.97624 -36.5832,-52.01353 -0.93819,-5.7188 -0.94598,-19.02205 -0.0145,-24.73911 0.8421,-5.16841 2.86763,-11.3899 5.86695,-18.0207 3.88209,-8.58229 6.2824,-12.09174 12.96646,-18.95795 12.14934,-12.48037 21.09957,-17.5877 37.64458,-21.48134 3.85285,-0.90671 5.44497,-1.03073 12.8004,-0.99699 7.49087,0.0342 8.98144,0.17007 13.76873,1.25325 15.85366,3.58706 27.34817,9.9131 37.16401,20.45323 9.43258,10.12861 15.20101,21.22833 18.54623,35.68699 1.29263,5.587 1.31612,5.86273 1.31814,15.46761 0.002,9.18096 -0.0645,10.07064 -1.0856,14.54321 -3.24872,14.22966 -8.83113,24.69813 -18.78005,35.2175 -10.9246,11.55099 -24.81458,18.89723 -40.37791,21.35537 -3.77994,0.59702 -14.24305,0.80781 -17.95378,0.3617 z m 86.60018,-20.14141 c -0.11674,-0.2099 0.78797,-2.21464 2.01046,-4.45502 5.63219,-10.32156 8.70528,-18.94012 10.88025,-30.514 0.97614,-5.19446 1.0728,-6.6044 1.09161,-15.92284 0.0178,-8.82854 -0.10323,-10.95165 -0.88712,-15.55784 -3.37386,-19.82523 -11.72805,-37.05871 -24.58091,-50.70685 -10.53138,-11.18298 -15.90634,-15.14637 -28.91303,-21.31972 -9.22873,-4.38024 -16.91969,-6.79015 -24.68501,-7.73487 -6.13071,-0.74589 -24.81273,-0.6048 -29.84408,0.22541 -3.95828,0.65312 -14.28149,3.7029 -18.15281,5.36288 -14.41126,6.1794 -22.8996,12.26127 -34.70744,24.86784 -2.84419,3.03662 -5.33891,5.52108 -5.54383,5.52108 -0.20491,0 -0.61959,-1.65024 -0.92149,-3.66721 -0.65552,-4.3794 -0.67524,-28.61172 -0.0281,-34.56064 1.24726,-11.46609 1.84144,-15.16335 3.07175,-19.11393 1.33564,-4.28877 4.84345,-13.07152 6.83517,-17.11363 8.23713,-16.71697 21.9316,-29.81605 39.99255,-38.2538 5.12433,-2.394 5.84295,-2.67227 12.98172,-5.02689 7.51744,-2.47953 13.16902,-3.70977 26.20082,-5.7034 4.20054,-0.6426 7.92988,-0.79398 19.4006,-0.78748 12.37415,0.007 15.12645,0.13824 21.40067,1.02038 28.50048,4.00713 52.72519,11.68554 79.40248,25.16792 38.006314,19.20791 74.265354,51.08616 91.7932443,80.70279 8.02469,13.5592 13.49054,26.64357 16.34059,39.11688 1.23372,5.39928 1.26936,5.82659 1.26136,15.11333 -0.008,9.32618 -0.0388,9.68187 -1.27288,14.72973 -3.21654,13.15709 -9.82319,22.44268 -22.8481203,32.113 -13.02576,9.67089 -29.25377,15.89994 -53.27318,20.44865 -16.83993,3.18914 -30.456254,4.40936 -62.401964,5.59229 -21.31845,0.78941 -24.3862,0.84626 -24.60329,0.45594 z M 72.241664,133.53234 c -5.66045,-1.76381 -9.09636,-6.19398 -9.16328,-11.81486 -0.0819,-6.88513 5.17968,-12.16508 12.16338,-12.20582 6.83793,-0.0399 12.10474,5.14766 12.16666,11.98356 0.0432,4.77082 -2.17771,8.41914 -6.66261,10.94463 -2.15835,1.21538 -6.3724,1.75674 -8.50415,1.09249 z m 48.708686,-0.43094 c -4.05809,-1.67931 -6.73273,-4.70189 -7.85949,-8.8819 -0.78746,-2.92125 -0.63454,-4.0565 1.07956,-8.01355 0.98079,-2.26424 3.84388,-4.9537 6.45164,-6.0604 2.47588,-1.05072 7.71212,-0.71094 10.15988,0.65929 2.93805,1.6447 5.08988,4.41528 5.9747,7.69275 0.72439,2.68311 0.73571,3.05788 0.17001,5.63105 -1.56345,7.11164 -9.58586,11.61726 -15.9763,8.97276 z m 50.89443,0.4509 c -5.58217,-1.64656 -9.14212,-6.3408 -9.14368,-12.05708 0,-6.84073 5.1996,-11.96606 12.14378,-11.96606 4.96651,0 9.16212,2.67557 11.26155,7.18158 1.85866,3.98925 0.7953,10.07197 -2.32399,13.29353 -2.84089,2.93407 -8.40879,4.58892 -11.93766,3.54803 z m 49.95465,-0.006 c -4.51122,-1.29181 -8.06398,-4.99436 -9.03633,-9.41733 -0.56569,-2.57317 -0.55437,-2.94794 0.17001,-5.63105 0.88483,-3.27747 3.03665,-6.04805 5.97471,-7.69275 2.44775,-1.37023 7.684,-1.71001 10.15987,-0.65929 3.87537,1.64466 6.3946,4.79179 7.77429,9.71188 1.13463,4.04636 -2.12591,10.15943 -6.70185,12.56501 -2.42032,1.27237 -6.09319,1.76711 -8.3407,1.12353 z m 49.62367,0.007 c -1.95406,-0.56422 -5.35513,-2.78987 -6.4276,-4.20622 -1.97362,-2.60643 -2.72309,-4.78172 -2.70501,-7.85117 0.0284,-4.83994 2.24615,-8.36774 6.74794,-10.73438 4.6285,-2.43326 10.56437,-1.41192 14.25776,2.45323 5.67282,5.9366 3.89,15.72387 -3.53311,19.39591 -2.08146,1.02966 -6.36268,1.51355 -8.33998,0.94263 z M 98.042474,96.131161 c -3.56567,-0.56426 -6.71109,-2.87061 -8.70731,-6.38454 -1.23056,-2.16619 -1.66485,-6.76968 -0.88603,-9.39205 0.72046,-2.42579 3.78364,-5.88023 6.39324,-7.20982 1.77314,-0.90342 2.82713,-1.12118 5.431606,-1.1222 2.89669,-0.001 3.49079,0.15228 5.7337,1.48072 6.96678,4.12631 8.43407,12.35148 3.27166,18.33995 -3.03125,3.5163 -6.86597,4.97962 -11.236866,4.28794 z m 49.801556,0.0487 c -3.7898,-0.65501 -7.90081,-4.11997 -9.43069,-7.94865 -2.12727,-5.32362 0.25844,-11.52541 5.66561,-14.72798 2.24291,-1.32844 2.83701,-1.48187 5.7337,-1.48072 4.10485,0.002 6.81902,1.27685 9.49834,4.46271 7.1259,8.47312 -0.5103,21.58835 -11.46696,19.69464 z m 49.80156,-0.0272 c -7.05254,-1.20047 -11.40536,-8.35556 -9.56466,-15.72224 0.59758,-2.39163 3.67648,-5.91614 6.36456,-7.28572 1.77314,-0.90342 2.82713,-1.12118 5.43161,-1.12221 2.89669,-0.001 3.49079,0.15228 5.7337,1.48073 2.67548,1.58463 4.75495,4.03177 5.79358,6.81794 3.05298,8.18954 -4.89911,17.33958 -13.75879,15.8315 z m 49.80156,0.008 c -2.58692,-0.47798 -4.46866,-1.59219 -6.76525,-4.00583 -3.2177,-3.38169 -4.15057,-7.23348 -2.79765,-11.5517 0.91371,-2.91652 2.95501,-5.41627 5.79782,-7.10002 2.24291,-1.32844 2.83701,-1.48186 5.7337,-1.48072 2.60448,8.9e-4 3.65848,0.21879 5.43161,1.1222 2.6096,1.32959 5.67278,4.78403 6.39324,7.20983 0.77883,2.62236 0.34453,7.22586 -0.88603,9.39205 -2.72752,4.80125 -7.85268,7.34813 -12.90744,6.41419 z M 120.60334,57.995341 c -3.54739,-1.58301 -7.36039,-5.79031 -7.36039,-8.12151 0,-0.43554 -0.20637,-1.29524 -0.45862,-1.91045 -0.36637,-0.89352 -0.31341,-1.63551 0.26329,-3.68812 1.21816,-4.33574 2.75417,-6.38677 6.3344,-8.45839 1.78446,-1.03253 2.54452,-1.19395 5.6613,-1.20236 3.31842,-0.009 3.79048,0.10462 6.03331,1.45163 2.74108,1.64627 5.20856,4.82462 5.62165,7.24123 0.14197,0.83044 0.41822,1.85819 0.61394,2.28388 0.4635,1.00802 -0.65734,5.33581 -1.93942,7.48869 -1.14927,1.92986 -3.65431,3.96547 -6.14271,4.99159 -2.27899,0.93977 -6.43232,0.90308 -8.62675,-0.0762 z m 50.04141,0.11456 c -2.73233,-1.10446 -5.24669,-3.31971 -6.61445,-5.82755 -1.10028,-2.01739 -1.29628,-2.81048 -1.32472,-5.36088 -0.0554,-4.97131 2.35435,-8.94848 6.82421,-11.26293 2.71833,-1.40751 7.91185,-1.40751 10.63017,0 4.46986,2.31445 6.87962,6.29162 6.82422,11.26293 -0.0284,2.5504 -0.22445,3.34349 -1.32472,5.36088 -1.40177,2.5702 -3.92029,4.75057 -6.76474,5.85646 -2.17002,0.84367 -6.12563,0.82981 -8.24997,-0.0289 z m 49.56171,-0.11456 c -2.42408,-1.08174 -4.76851,-3.03305 -5.87359,-4.8887 -1.29556,-2.17547 -2.42123,-6.50209 -1.95534,-7.51539 0.19573,-0.42569 0.47198,-1.45344 0.61394,-2.28388 0.41309,-2.41661 2.88057,-5.59496 5.62166,-7.24123 2.24283,-1.34701 2.71488,-1.46059 6.03331,-1.45163 3.11677,0.008 3.87684,0.16983 5.66129,1.20236 3.58023,2.07162 5.11624,4.12265 6.3344,8.45839 0.5767,2.05261 0.62966,2.7946 0.26329,3.68812 -0.25225,0.61521 -0.45862,1.47491 -0.45862,1.91045 0,1.30695 -2.25659,4.68166 -4.08636,6.11107 -0.94259,0.73636 -2.52984,1.67535 -3.52723,2.08663 -2.27899,0.93977 -6.43232,0.90308 -8.62675,-0.0762 z M 88.042164,-3.1898086 V -15.413829 h 86.802716 86.80271 v 12.2240204 12.22402 H 174.84488 88.042164 Z M 100.67083,-28.698296 c -0.58637,-1.054306 2.80225,-12.310938 5.16709,-17.164466 2.19403,-4.502961 2.27335,-4.652138 3.90172,-7.334414 2.59668,-4.277327 2.82345,-4.613444 5.05716,-7.494877 3.52483,-4.547043 12.76916,-13.82353 13.78907,-13.837056 0.18832,-0.0027 0.99835,-0.574951 1.80005,-1.272116 0.80167,-0.697161 1.92723,-1.547286 2.5012,-1.889168 10.99227,-6.547413 16.06259,-8.692787 25.55724,-10.813881 4.40966,-0.985106 3.97329,0.47995 4.09397,-13.745056 l 0.10616,-12.51247 h 12.20039 12.20038 l 0.10616,12.51247 c 0.12069,14.225006 -0.31569,12.75995 4.09397,13.745056 9.49466,2.121094 14.56498,4.266468 25.55724,10.813881 0.57398,0.341882 1.69953,1.192007 2.5012,1.889168 0.8017,0.697165 1.61173,1.269618 1.80005,1.272116 1.01992,0.01351 10.26425,9.290013 13.78908,13.837056 2.23371,2.881433 2.46047,3.21755 5.05715,7.494877 1.62838,2.682276 1.7077,2.831453 3.90173,7.334414 2.36483,4.853528 5.75346,16.11016 5.16708,17.164466 -0.29017,0.521757 -148.05792,0.521757 -148.34809,0 z"
       style="fill:#000000;stroke-width:0.421675" />
  </g>
</svg>
