<?xml version="1.0" encoding="UTF-8" standalone="no"?>
<svg
   xmlns:dc="http://purl.org/dc/elements/1.1/"
   xmlns:cc="http://creativecommons.org/ns#"
   xmlns:rdf="http://www.w3.org/1999/02/22-rdf-syntax-ns#"
   xmlns:svg="http://www.w3.org/2000/svg"
   xmlns="http://www.w3.org/2000/svg"
   xmlns:sodipodi="http://sodipodi.sourceforge.net/DTD/sodipodi-0.dtd"
   xmlns:inkscape="http://www.inkscape.org/namespaces/inkscape"
   inkscape:version="1.0 (4035a4fb49, 2020-05-01)"
   sodipodi:docname="К.корт.svg"
   id="svg10"
   viewBox="0 0 125.9103 111.6572"
   style="clip-rule:evenodd;fill-rule:evenodd;image-rendering:optimizeQuality;shape-rendering:geometricPrecision;text-rendering:geometricPrecision"
   version="1.1"
   height="33.855904mm"
   width="38.175964mm"
   xml:space="preserve"><metadata
   id="metadata14"><rdf:RDF><cc:Work
       rdf:about=""><dc:format>image/svg+xml</dc:format><dc:type
         rdf:resource="http://purl.org/dc/dcmitype/StillImage" /><dc:title></dc:title></cc:Work></rdf:RDF></metadata><sodipodi:namedview
   inkscape:current-layer="svg10"
   inkscape:window-maximized="1"
   inkscape:window-y="-6"
   inkscape:window-x="-6"
   inkscape:cy="39.309206"
   inkscape:cx="52.026025"
   inkscape:zoom="2.3892426"
   showgrid="false"
   id="namedview12"
   inkscape:window-height="1018"
   inkscape:window-width="1920"
   inkscape:pageshadow="2"
   inkscape:pageopacity="0"
   guidetolerance="10"
   gridtolerance="10"
   objecttolerance="10"
   borderopacity="1"
   bordercolor="#666666"
   pagecolor="#ffffff" />
 <defs
   id="defs4">
  <style
   id="style2"
   type="text/css">
   <![CDATA[
    .fil0 {fill:black;fill-rule:nonzero}
   ]]>
  </style>
 </defs>
 <g
   transform="translate(2.691223,40.270515)"
   id="Слой_x0020_1">
  <metadata
   id="CorelCorpID_0Corel-Layer" />
  <path
   id="path7"
   d="m 1.81,0 h 56.36 61.8 v 16.8 37.79 16.8 H 58.17 0 V 54.59 16.8 0 Z M 58.17,67.77 V 58.22 H 27.18 3.63 v 9.55 h 54.55 z m 0,-13.18 V 37.51 H 30.81 v 17.08 z m 0,-20.71 V 16.8 H 30.81 v 17.08 z m 0,-20.71 V 3.62 H 3.62 v 9.55 h 23.55 1.81 29.18 z M 61.8,3.62 v 9.55 h 30.99 23.55 V 3.62 H 61.79 Z m 0,13.18 V 33.88 H 89.16 V 16.8 Z m 0,20.71 V 54.59 H 89.16 V 37.51 Z m 0,20.71 v 9.55 h 54.55 V 58.22 H 92.8 61.81 Z M 92.79,37.51 v 17.08 h 23.55 V 16.8 H 92.79 V 33.88 Z M 27.18,54.59 V 37.51 33.88 16.8 H 3.63 v 37.79 z"
   class="fil0" />
 </g>
<path
   id="polygon9"
   style="clip-rule:evenodd;fill-rule:evenodd;stroke-width:1.13699;image-rendering:optimizeQuality;shape-rendering:geometricPrecision;text-rendering:geometricPrecision"
   d="M 62.956002,-0.00155548 0,26.581497 3.0354822,33.789275 62.956002,8.4810918 122.88675,33.789275 125.9103,26.581497 Z" /></svg>
