<?xml version="1.0" encoding="UTF-8" standalone="no"?>
<svg
   xmlns:dc="http://purl.org/dc/elements/1.1/"
   xmlns:cc="http://creativecommons.org/ns#"
   xmlns:rdf="http://www.w3.org/1999/02/22-rdf-syntax-ns#"
   xmlns:svg="http://www.w3.org/2000/svg"
   xmlns="http://www.w3.org/2000/svg"
   xmlns:sodipodi="http://sodipodi.sourceforge.net/DTD/sodipodi-0.dtd"
   xmlns:inkscape="http://www.inkscape.org/namespaces/inkscape"
   inkscape:version="1.0 (4035a4fb49, 2020-05-01)"
   sodipodi:docname="к.бассейн.svg"
   id="svg10"
   viewBox="0 0 128.8683 114.69003"
   style="clip-rule:evenodd;fill-rule:evenodd;image-rendering:optimizeQuality;shape-rendering:geometricPrecision;text-rendering:geometricPrecision"
   version="1.1"
   height="33.975327mm"
   width="38.175964mm"
   xml:space="preserve"><metadata
   id="metadata14"><rdf:RDF><cc:Work
       rdf:about=""><dc:format>image/svg+xml</dc:format><dc:type
         rdf:resource="http://purl.org/dc/dcmitype/StillImage" /><dc:title></dc:title></cc:Work></rdf:RDF></metadata><sodipodi:namedview
   inkscape:current-layer="svg10"
   inkscape:window-maximized="1"
   inkscape:window-y="-6"
   inkscape:window-x="-6"
   inkscape:cy="92.361228"
   inkscape:cx="54.235693"
   inkscape:zoom="4.0623807"
   showgrid="false"
   id="namedview12"
   inkscape:window-height="1018"
   inkscape:window-width="1920"
   inkscape:pageshadow="2"
   inkscape:pageopacity="0"
   guidetolerance="10"
   gridtolerance="10"
   objecttolerance="10"
   borderopacity="1"
   bordercolor="#666666"
   pagecolor="#ffffff" />
 <defs
   id="defs4">
  <style
   id="style2"
   type="text/css">
   <![CDATA[
    .fil0 {fill:black}
   ]]>
  </style>
 </defs>
 <g
   transform="translate(0.89583379,21.250034)"
   id="Слой_x0020_1">
  <metadata
   id="CorelCorpID_0Corel-Layer" />
  <path
   id="path7"
   d="m 10.55,93.44 c -3.42,0 -6.66,-1.33 -8.69,-4.16 -2.93,-4.09 -2.12,-9.45 0.48,-13.46 4.31,-6.65 8.51,-13.41 12.71,-20.12 2.69,-4.29 5.38,-8.59 8.05,-12.89 1.53,-2.46 3.14,-4.98 4.57,-7.5 2.71,-4.78 5.78,-6.92 11.21,-6.92 15.94,0 31.88,0 47.82,0 5.44,0 8.51,2.14 11.21,6.92 1.43,2.52 3.04,5.03 4.57,7.5 2.67,4.31 5.35,8.6 8.05,12.89 4.21,6.71 8.41,13.47 12.71,20.12 2.6,4.01 3.41,9.38 0.48,13.46 -2.03,2.83 -5.27,4.16 -8.69,4.16 -34.83,0 -69.66,0 -104.49,0 z M 87.72,51.85 c -0.98,1.42 -2.21,2.6 -3.61,3.46 -1.61,0.99 -3.45,1.55 -5.4,1.55 -1.92,0 -3.73,-0.54 -5.32,-1.5 -0.97,-0.58 -1.86,-1.32 -2.64,-2.19 -0.78,0.87 -1.67,1.61 -2.64,2.19 -1.6,0.96 -3.4,1.5 -5.32,1.5 -1.92,0 -3.73,-0.54 -5.32,-1.5 -0.97,-0.58 -1.86,-1.32 -2.64,-2.19 -0.78,0.87 -1.67,1.61 -2.64,2.19 -1.6,0.96 -3.4,1.5 -5.32,1.5 -1.95,0 -3.78,-0.56 -5.4,-1.55 -1.4,-0.86 -2.63,-2.04 -3.61,-3.46 l 0.82,-0.7 c 0.57,-0.49 1.17,-0.99 1.74,-1.49 0.75,1.17 1.7,2.13 2.79,2.79 1.1,0.67 2.34,1.05 3.65,1.05 1.29,0 2.51,-0.37 3.59,-1.02 1.16,-0.7 2.17,-1.72 2.94,-2.96 0.13,-0.22 0.32,-0.41 0.55,-0.56 0.78,-0.48 1.81,-0.24 2.3,0.54 0.77,1.25 1.78,2.27 2.95,2.98 1.08,0.65 2.3,1.02 3.59,1.02 1.29,0 2.51,-0.37 3.59,-1.02 1.16,-0.7 2.17,-1.72 2.94,-2.96 0.13,-0.22 0.32,-0.41 0.55,-0.56 0.78,-0.48 1.81,-0.24 2.3,0.54 0.77,1.25 1.78,2.27 2.95,2.98 1.08,0.65 2.3,1.02 3.59,1.02 1.32,0 2.56,-0.38 3.65,-1.05 1.09,-0.67 2.04,-1.63 2.79,-2.79 0.57,0.5 1.17,1 1.74,1.49 l 0.82,0.7 z M 70.38,66.37 c 0.47,-0.79 1.5,-1.05 2.29,-0.58 0.4,0.24 0.66,0.62 0.77,1.04 0.86,1.29 1.94,2.36 3.19,3.11 1.25,0.75 2.66,1.18 4.16,1.18 1.49,0 2.91,-0.42 4.16,-1.18 1.34,-0.8 2.49,-1.98 3.38,-3.41 0.13,-0.22 0.32,-0.41 0.55,-0.56 0.78,-0.48 1.81,-0.24 2.3,0.54 0.89,1.44 2.05,2.62 3.39,3.42 1.25,0.75 2.66,1.18 4.16,1.18 0.12,0 0.24,0.01 0.36,0.04 v 3.27 c -0.12,0.02 -0.24,0.04 -0.36,0.04 -2.12,0 -4.12,-0.6 -5.89,-1.66 -1.14,-0.69 -2.18,-1.57 -3.08,-2.61 -0.91,1.04 -1.94,1.92 -3.08,2.61 -1.76,1.06 -3.77,1.66 -5.89,1.66 -2.12,0 -4.12,-0.6 -5.89,-1.66 -1.14,-0.68 -2.18,-1.57 -3.08,-2.6 -0.91,1.04 -1.94,1.92 -3.08,2.6 -1.77,1.06 -3.77,1.66 -5.89,1.66 h -0.1 c -2.12,0 -4.12,-0.6 -5.89,-1.66 -1.14,-0.69 -2.18,-1.57 -3.08,-2.6 -0.91,1.04 -1.94,1.92 -3.08,2.6 -1.77,1.06 -3.77,1.66 -5.89,1.66 -2.12,0 -4.12,-0.6 -5.89,-1.66 -1.14,-0.69 -2.18,-1.57 -3.08,-2.6 -0.91,1.04 -1.94,1.92 -3.08,2.6 -1.76,1.06 -3.77,1.66 -5.89,1.66 -0.12,0 -0.24,-0.01 -0.36,-0.04 v -3.27 c 0.12,-0.03 0.24,-0.04 0.36,-0.04 1.49,0 2.91,-0.42 4.16,-1.18 1.34,-0.8 2.49,-1.98 3.38,-3.41 0.13,-0.22 0.32,-0.41 0.55,-0.56 0.78,-0.48 1.81,-0.24 2.3,0.54 0.89,1.44 2.05,2.62 3.39,3.42 1.25,0.75 2.66,1.18 4.16,1.18 1.49,0 2.91,-0.42 4.16,-1.18 1.24,-0.75 2.33,-1.81 3.19,-3.11 0.1,-0.42 0.37,-0.8 0.77,-1.04 0.79,-0.47 1.82,-0.22 2.29,0.58 0.89,1.48 2.06,2.7 3.41,3.53 1.25,0.77 2.67,1.21 4.18,1.22 1.5,-0.01 2.92,-0.45 4.18,-1.22 1.35,-0.83 2.52,-2.05 3.41,-3.53 z M 72.18,0 c 1.77,0 3.38,0.73 4.55,1.89 h 0.01 c 1.17,1.17 1.89,2.78 1.89,4.56 V 26.47 H 75.68 V 21.5 H 51.29 v 4.97 H 48.34 V 6.45 c 0,-0.96 -0.39,-1.83 -1.03,-2.47 v 0 C 46.68,3.35 45.8,2.95 44.84,2.95 43.88,2.95 43,3.34 42.37,3.98 41.74,4.61 41.34,5.49 41.34,6.45 v 6.31 H 38.39 V 6.45 c 0,-1.77 0.73,-3.38 1.89,-4.55 L 40.29,1.89 C 41.46,0.72 43.07,0 44.84,0 c 1.77,0 3.38,0.73 4.55,1.89 h 0.01 c 1.17,1.17 1.89,2.78 1.89,4.56 V 18.27 H 75.68 V 6.45 c 0,-0.96 -0.39,-1.83 -1.03,-2.47 v 0 C 74.02,3.35 73.14,2.95 72.18,2.95 c -0.96,0 -1.84,0.39 -2.47,1.03 -0.63,0.63 -1.02,1.51 -1.02,2.47 v 6.31 H 65.74 V 6.45 c 0,-1.77 0.73,-3.38 1.89,-4.55 L 67.64,1.89 C 68.81,0.72 70.42,0 72.19,0 Z M 16.21,87.49 c -1.63,0 -3.03,-0.42 -4.14,-1.14 C 11.13,85.74 10.41,84.92 9.92,83.95 9.44,83.01 9.2,81.94 9.2,80.81 c 0,-1.69 0.55,-3.54 1.71,-5.34 1.68,-2.59 8.37,-13.18 14.12,-22.38 4.09,-6.54 7.67,-12.32 8.54,-13.86 1.25,-2.21 2.48,-3.44 3.8,-4.13 1.37,-0.72 2.67,-0.82 4.1,-0.82 H 84.1 c 1.44,0 2.74,0.1 4.11,0.82 1.31,0.7 2.55,1.92 3.8,4.13 0.87,1.54 4.45,7.31 8.54,13.86 5.75,9.2 12.44,19.79 14.12,22.38 1.16,1.79 1.71,3.65 1.71,5.34 0,1.13 -0.25,2.2 -0.72,3.14 -0.49,0.97 -1.21,1.78 -2.15,2.4 -1.11,0.72 -2.5,1.14 -4.14,1.14 z m -2.32,-3.94 c 0.57,0.37 1.35,0.59 2.32,0.59 h 93.16 c 0.97,0 1.74,-0.22 2.32,-0.59 0.43,-0.28 0.76,-0.66 0.99,-1.1 0.23,-0.46 0.36,-1.02 0.36,-1.63 0,-1.08 -0.38,-2.3 -1.16,-3.52 C 110.12,74.58 103.4,63.95 97.72,54.87 93.63,48.33 90.04,42.53 89.11,40.89 88.21,39.3 87.43,38.47 86.66,38.07 85.95,37.69 85.09,37.64 84.11,37.64 H 41.48 c -0.98,0 -1.83,0.05 -2.55,0.43 -0.77,0.41 -1.55,1.23 -2.45,2.82 -0.92,1.63 -4.52,7.44 -8.61,13.98 -5.68,9.08 -12.39,19.71 -14.16,22.43 -0.79,1.22 -1.16,2.44 -1.16,3.52 0,0.61 0.12,1.17 0.36,1.63 0.22,0.44 0.56,0.82 0.99,1.1 z"
   class="fil0" />
 </g>
<path
   id="polygon9"
   style="clip-rule:evenodd;fill-rule:evenodd;stroke-width:1.16372;image-rendering:optimizeQuality;shape-rendering:geometricPrecision;text-rendering:geometricPrecision"
   d="M 64.435047,0 -8.5982768e-4,27.207939 3.1059772,34.585151 64.435047,8.682049 l 61.339543,25.903102 3.09462,-7.377212 z" /></svg>
