<?xml version="1.0" encoding="UTF-8" standalone="no"?>
<svg
   xmlns:dc="http://purl.org/dc/elements/1.1/"
   xmlns:cc="http://creativecommons.org/ns#"
   xmlns:rdf="http://www.w3.org/1999/02/22-rdf-syntax-ns#"
   xmlns:svg="http://www.w3.org/2000/svg"
   xmlns="http://www.w3.org/2000/svg"
   xmlns:sodipodi="http://sodipodi.sourceforge.net/DTD/sodipodi-0.dtd"
   xmlns:inkscape="http://www.inkscape.org/namespaces/inkscape"
   inkscape:version="1.0 (4035a4fb49, 2020-05-01)"
   sodipodi:docname="к.тир.svg"
   id="svg10"
   viewBox="0 0 102.0459 113.06458"
   style="clip-rule:evenodd;fill-rule:evenodd;image-rendering:optimizeQuality;shape-rendering:geometricPrecision;text-rendering:geometricPrecision"
   version="1.1"
   height="33.493809mm"
   width="30.230093mm"
   xml:space="preserve"><metadata
   id="metadata14"><rdf:RDF><cc:Work
       rdf:about=""><dc:format>image/svg+xml</dc:format><dc:type
         rdf:resource="http://purl.org/dc/dcmitype/StillImage" /><dc:title></dc:title></cc:Work></rdf:RDF></metadata><sodipodi:namedview
   inkscape:current-layer="svg10"
   inkscape:window-maximized="1"
   inkscape:window-y="-6"
   inkscape:window-x="-6"
   inkscape:cy="89.653457"
   inkscape:cx="43.404585"
   inkscape:zoom="4.0623807"
   showgrid="false"
   id="namedview12"
   inkscape:window-height="1018"
   inkscape:window-width="1920"
   inkscape:pageshadow="2"
   inkscape:pageopacity="0"
   guidetolerance="10"
   gridtolerance="10"
   objecttolerance="10"
   borderopacity="1"
   bordercolor="#666666"
   pagecolor="#ffffff" />
 <defs
   id="defs4">
  <style
   id="style2"
   type="text/css">
   <![CDATA[
    .fil0 {fill:black}
   ]]>
  </style>
 </defs>
 
<path
   id="polygon9"
   style="clip-rule:evenodd;fill-rule:evenodd;stroke-width:0.905616;image-rendering:optimizeQuality;shape-rendering:geometricPrecision;text-rendering:geometricPrecision"
   d="M 51.02346,0 -8.7820205e-4,20.808357 2.4593072,26.450375 51.02346,6.6399435 99.595894,26.450375 102.04641,20.808357 Z" /><path
   style="clip-rule:evenodd;fill:#000000;fill-rule:evenodd;stroke-width:0.404721;image-rendering:optimizeQuality;shape-rendering:geometricPrecision;text-rendering:geometricPrecision"
   d="m 39.512629,112.42298 c -1.677946,-0.78925 -2.167297,-1.6542 -0.935882,-1.6542 1.690088,0 2.172881,-0.42807 2.172881,-1.9266 0,-0.79966 0.281909,-2.31404 0.626469,-3.36529 0.460133,-1.40388 0.627674,-3.8881 0.631025,-9.356344 l 0.0045,-7.44498 -2.882762,-0.26291 c -5.435526,-0.49572 -12.957119,-3.836843 -16.679046,-7.408853 -3.090571,-2.96608 -5.456143,-6.2135 -6.25555,-8.58753 -0.432673,-1.2849 -0.884898,-2.59901 -1.004949,-2.92024 -0.120052,-0.32123 -0.255199,-0.84687 -0.300333,-1.1681 -0.04512,-0.32122 -0.221778,-1.59153 -0.392537,-2.8229 l -0.310486,-2.23885 h -4.001281 c -3.0134958,0 -3.9582478,-0.12015 -3.8270148,-0.48671 0.118293,-0.33038 1.403546,-0.52254 4.0015018,-0.59829 4.32308,-0.12604 3.897276,0.26527 4.531741,-4.16468 0.593799,-4.14603 3.394233,-9.27691 7.089706,-12.989571 0.992584,-0.997192 1.930246,-2.134271 2.083697,-2.526843 0.153463,-0.392573 0.515553,-0.635913 0.80465,-0.540756 0.583778,0.192153 3.47437,-1.041643 3.886538,-1.658897 0.292635,-0.43824 4.680326,-2.373288 5.165133,-2.277914 0.169565,0.03336 0.81124,-0.132309 1.425942,-0.368148 0.614711,-0.235839 2.26723,-0.549176 3.672258,-0.696303 l 2.554614,-0.267507 0.113891,-7.640589 c 0.09666,-6.485211 0.209302,-7.64059 0.744905,-7.64059 0.535603,0 0.648245,1.155379 0.744917,7.64059 l 0.11388,7.640589 2.507721,0.262596 c 2.775849,0.290672 6.651382,1.415232 8.088881,2.347138 0.512389,0.332174 1.159937,0.603952 1.438992,0.603952 0.978483,0 1.829516,-1.23721 1.829516,-2.65971 0,-1.014304 0.24707,-1.578803 0.841367,-1.922316 1.02689,-0.593564 1.106928,-1.335137 0.127162,-1.178185 -0.507102,0.08123 -1.086523,-0.58108 -1.99824,-2.284082 -1.28219,-2.395019 -1.286337,-2.398188 -2.861604,-2.189088 -1.95711,0.259785 -2.110086,-0.42762 -0.304525,-1.368354 1.229822,-0.640758 1.263907,-0.732456 1.004185,-2.700391 -0.147866,-1.12041 -0.149791,-2.476192 -0.0045,-3.012849 0.321224,-1.184555 2.822497,-2.456827 5.497217,-2.796146 2.388378,-0.302993 3.773764,0.472449 4.70896,2.635738 0.563374,1.303187 0.832774,1.534276 1.567681,1.344771 2.804625,-0.723204 2.780483,-0.724207 2.780483,0.115437 0,0.446581 -0.466349,1.094777 -1.036314,1.440436 -0.937485,0.568533 -0.980871,0.708637 -0.454924,1.469096 0.319754,0.462345 0.805347,1.626374 1.079081,2.58673 0.273735,0.960356 1.046378,2.387286 1.716974,3.170956 0.728836,0.851719 1.219272,1.892149 1.219272,2.586584 0,0.638953 0.280183,1.376951 0.622631,1.639997 0.342448,0.263046 0.596475,0.853947 0.564523,1.313114 -0.03197,0.459167 0.160077,1.535706 0.426734,2.392311 0.593378,1.906154 0.626833,3.902075 0.08118,4.845695 -0.224575,0.388389 -0.439318,1.734782 -0.477197,2.991989 -0.07908,2.62384 -0.248011,3.06394 -0.964913,2.51326 -0.30562,-0.23477 -1.014195,-0.26868 -1.750451,-0.0838 -1.517791,0.38118 -1.552983,1.19344 -0.245257,5.66175 0.495744,1.69393 0.901365,3.65875 0.901365,4.36627 v 1.28639 l 4.067549,0.11144 c 2.79057,0.0765 4.122295,0.26424 4.241881,0.59815 0.131764,0.36785 -0.861528,0.48671 -4.067549,0.48671 -3.416042,0 -4.241881,0.10941 -4.241881,0.56197 0,0.30908 0.420727,0.83473 0.934964,1.1681 0.514235,0.33336 0.782286,0.60612 0.595678,0.60612 -0.186619,0 0.251992,0.691 0.97469,1.53555 l 1.313997,1.53554 -0.963132,0.46864 c -0.529721,0.25776 -1.413622,0.87971 -1.964233,1.38211 -0.896797,0.8183 -0.97051,1.12672 -0.707457,2.96023 0.161513,1.12572 0.394859,3.2662 0.51856,4.75662 0.12369,1.49043 0.587462,3.94343 1.030585,5.45112 0.443133,1.50769 1.108499,3.789683 1.478607,5.071113 0.860997,2.98108 0.590347,5.65122 -1.009428,9.958707 -1.679239,4.521417 -1.929085,5.969597 -1.305359,7.566067 0.469832,1.20259 0.410552,1.53335 -0.609183,3.39878 -0.621315,1.13658 -1.129656,2.24753 -1.129656,2.46875 0,0.67698 -5.588858,0.20486 -6.205074,-0.52417 -0.696619,-0.82414 -0.66834,-1.64138 0.05673,-1.64138 0.938083,0 1.737755,-1.49666 2.993324,-5.60229 1.061497,-3.47102 1.175178,-4.429537 1.154508,-9.734134 -0.02478,-6.35537 -0.323935,-7.4447 -3.362492,-12.243623 -0.8914,-1.40782 -1.173164,-1.61795 -1.544644,-1.15193 -0.249902,0.31349 -1.243005,1.02965 -2.206901,1.59146 -0.963896,0.56181 -1.866721,1.19248 -2.006292,1.40148 -0.13956,0.209 -1.33271,0.8372 -2.65144,1.39599 -1.318741,0.558793 -2.542713,1.227163 -2.719954,1.485263 -0.17724,0.2581 -0.329652,1.78338 -0.338677,3.38951 -0.01814,3.2167 -0.904494,5.70839 -3.327067,9.352467 -0.821261,1.235357 -1.277402,2.355477 -1.147053,2.816797 0.150387,0.53231 -0.03185,0.82597 -0.597758,0.96293 -1.033394,0.25012 -1.027013,0.70634 0.0272,1.94681 1.007083,1.18499 1.036956,1.61696 0.21293,3.07932 -0.345633,0.6134 -0.629599,1.87453 -0.631025,2.80252 -0.0022,1.82014 -0.858222,2.14967 -1.12583,0.4337 -0.307632,-1.97265 -0.590016,-2.18124 -1.28992,-0.95286 -1.273784,2.23559 -2.651495,2.62726 -5.134078,1.45953 z m 5.591467,-20.522884 c 0.920144,-3.07811 0.898545,-3.20125 -0.568328,-3.23985 l -1.26205,-0.0332 0.04037,5.32773 0.04037,5.327737 0.527993,-2.530877 c 0.290403,-1.39198 0.840173,-3.57517 1.221716,-4.85153 z m -5.088966,-4.59058 c 0.14102,-0.3878 0.30562,-0.38849 0.809958,-0.004 0.348133,0.26583 0.757535,0.36803 0.909781,0.22713 0.424488,-0.39289 0.328701,-6.280623 -0.106172,-6.529403 -0.210662,-0.12051 -1.168519,-0.24759 -2.128566,-0.28241 -0.960046,-0.0348 -2.618195,-0.47221 -3.684756,-0.97198 -1.066573,-0.49964 -2.181343,-0.90854 -2.477274,-0.90854 -0.295932,0 -1.048723,-0.43804 -1.672868,-0.97342 -0.624146,-0.53537 -1.343803,-0.97478 -1.599234,-0.97645 -0.45425,-0.003 -1.516132,-1.73371 -1.516132,-2.47113 0,-0.20464 0.350764,-0.0783 0.779488,0.28083 0.736057,0.61653 0.911318,0.5737 3.146233,-0.76888 2.44759,-1.47033 2.529144,-1.7535 0.858509,-2.98074 -0.514003,-0.37759 -1.36121,-1.56029 -1.882679,-2.62822 -0.521458,-1.06793 -1.056353,-1.94157 -1.188637,-1.94143 -0.132283,1.4e-4 -0.240523,-0.65692 -0.240523,-1.46012 v -1.46038 l -2.839607,-0.11513 -2.839607,-0.11513 0.0099,1.08854 c 0.01892,1.9974 0.866329,4.55974 2.143442,6.4808 1.53333,2.30646 1.349531,3.65317 -0.257344,1.88566 -1.101621,-1.21174 -3.147295,-4.98474 -3.154318,-5.81779 -0.0022,-0.26769 -0.175405,-0.48671 -0.384762,-0.48671 -0.209369,0 -0.285426,-0.65706 -0.169023,-1.46012 l 0.211624,-1.46012 -3.301609,0.0181 c -3.893727,0.0214 -3.905152,0.0384 -2.930406,4.36529 1.189709,5.28113 3.968854,9.99734 7.802428,13.24074 3.278881,2.77411 8.627846,5.543073 10.707828,5.543073 0.512986,0 1.112536,0.16038 1.332344,0.3564 0.352026,0.31392 1.448061,0.59167 2.993867,0.75868 0.26993,0.0292 0.57044,-0.166 0.667775,-0.43369 z m 4.790778,0.25227 c 0.779876,-0.19367 0.926891,-0.5729 1.092275,-2.817583 0.105066,-1.42658 0.319102,-2.86187 0.47555,-3.18952 0.208517,-0.43672 0.0066,-0.61702 -0.755909,-0.67544 -0.5722,-0.0438 -1.157471,0.0957 -1.300616,0.31007 -0.143143,0.21436 -0.436486,0.28895 -0.651871,0.16574 -0.23005,-0.13159 -0.391619,1.15092 -0.391619,3.10857 0,1.832933 0.141982,3.330203 0.315518,3.327283 0.173524,-0.003 0.721038,-0.10603 1.216672,-0.22912 z m 11.418604,-3.543153 c 1.268122,-0.73579 1.542698,-0.94108 4.392667,-3.28423 2.117595,-1.74101 2.125647,-1.77728 1.092629,-4.92113 l -0.419068,-1.27538 -0.749816,0.88602 c -1.656113,1.95693 -6.306357,9.25738 -5.896778,9.25738 0.241065,0 0.952227,-0.2982 1.580366,-0.66266 z m -14.483638,-6.63795 c -0.05486,-1.23136 -0.111082,-2.34983 -0.124851,-2.48546 -0.01371,-0.13564 -0.429918,-0.34461 -0.924789,-0.46439 -0.943867,-0.22845 -6.672539,2.18383 -6.672539,2.80973 0,0.62977 1.089012,1.17607 2.86981,1.43963 0.97699,0.1446 1.87798,0.4151 2.0022,0.60112 0.12421,0.18603 0.838779,0.33823 1.58792,0.33823 h 1.362073 z m 5.801534,1.55373 c 0.445367,-0.41934 2.884077,-6.16551 2.876479,-6.77768 -0.0045,-0.34913 -0.10772,-0.37945 -0.315507,-0.0926 -0.169997,0.23462 -0.877,0.67502 -1.571121,0.97865 -0.69413,0.30364 -1.285717,0.76873 -1.314637,1.03353 -0.02897,0.2648 -0.09721,0.61287 -0.151738,0.77348 -0.05453,0.16061 -0.0668,0.6711 -0.0272,1.13442 0.096,1.12524 -1.450395,1.59664 -2.460973,0.75016 -1.122677,-0.94037 -1.303943,-0.77551 -1.303943,1.18593 v 1.80507 l 1.981242,-0.25134 c 1.089687,-0.13824 2.119032,-0.38108 2.287437,-0.53964 z m -13.944397,-2.04043 c 0,-0.21415 -0.200476,-0.38937 -0.4455,-0.38937 -0.245036,0 -0.328513,0.17522 -0.185514,0.38937 0.333147,0.49892 0.631014,0.49892 0.631014,0 z m 14.27386,-5.22369 c 0.395999,-0.44163 0.312577,-0.6047 -0.419301,-0.8197 -0.992561,-0.29157 -3.026834,0.50185 -2.667277,1.04032 0.357346,0.53516 2.549383,0.37847 3.086578,-0.22062 z m -8.797732,-2.37702 c 0.284054,-0.31679 0.766062,-0.57597 1.07114,-0.57597 0.78514,0 1.202661,-0.77007 0.679875,-1.25394 -0.242072,-0.22405 -0.878681,-0.4278 -1.414705,-0.45278 -0.536024,-0.025 -0.990925,-0.22064 -1.01091,-0.43479 -0.06403,-0.68564 -0.703575,-1.92634 -1.354861,-2.62822 -0.65978,-0.71101 -2.007675,-0.85042 -4.235445,-0.43804 -1.08857,0.20151 -1.314628,0.42682 -1.314628,1.31027 0,0.58681 0.378614,1.51242 0.841367,2.05692 0.462743,0.54449 0.841356,1.23844 0.841356,1.5421 0,0.61279 1.55222,2.04955 2.50656,2.32013 0.718782,0.20379 2.649405,-0.61948 3.390251,-1.44568 z m -16.298687,-9.28376 c 0.315417,-2.82856 1.750351,-5.76176 4.204643,-8.59482 3.072223,-3.546364 8.275357,-6.438777 12.612648,-7.011346 l 1.998252,-0.263791 V 41.200573 38.26159 l -1.577568,0.234034 c -0.867655,0.128719 -2.334782,0.321255 -3.26029,0.427858 -1.453226,0.167389 -2.980927,0.623343 -7.184564,2.144284 -1.708834,0.618284 -5.950096,4.241388 -8.045417,6.872807 -3.212337,4.03423 -4.747845,7.48549 -5.389399,12.11335 l -0.283368,2.04416 h 3.34608 3.346079 z m 7.675806,-0.12476 c 0.595535,-2.4546 1.412183,-3.66604 4.049943,-6.00776 1.403756,-1.24622 2.638555,-1.94371 4.030887,-2.2769 1.103954,-0.26418 2.243829,-0.54532 2.533047,-0.62475 0.356826,-0.098 0.52586,-1.03542 0.52586,-2.91642 v -2.772004 l -1.78791,0.270078 c -6.033009,0.911338 -10.95085,4.300906 -13.767631,9.489196 -0.954871,1.75878 -2.148694,6.22763 -1.810404,6.7769 0.104733,0.16997 1.438217,0.25758 2.963396,0.19468 l 2.773051,-0.11437 z m 7.005078,0.86376 c 0.602525,-1.36974 1.282366,-1.9482 3.215356,-2.7359 1.376837,-0.56106 1.391944,-0.59517 1.195096,-2.69903 -0.256836,-2.74517 -0.553642,-3.18997 -1.563943,-2.34373 -0.431168,0.36115 -1.068885,0.55543 -1.41715,0.43174 -0.348277,-0.1237 -0.740006,-0.065 -0.870509,0.13045 -0.130513,0.19545 -0.467863,0.27851 -0.749671,0.18459 -0.74213,-0.24735 -2.135943,0.87932 -4.07339,3.29268 -2.69915,3.36216 -2.077979,5.12349 1.75973,4.9897 1.786063,-0.0623 2.036895,-0.18751 2.504481,-1.2505 z m 15.991951,1.14743 c 0.487859,-0.45154 -0.808199,-4.19579 -1.884514,-5.44427 -1.491116,-1.72965 -4.397524,-3.29351 -6.57171,-3.53606 -1.627812,-0.1816 -2.339627,0.28319 -1.192486,0.77867 0.420684,0.1817 0.420684,0.27255 0,0.45426 -0.289218,0.12492 -0.525859,0.87966 -0.525859,1.67719 0,1.27885 0.226477,1.59781 1.91808,2.7014 1.085717,0.70831 2.107642,1.75465 2.354911,2.41115 0.42169,1.1196 0.527752,1.1598 3.060002,1.1598 1.442741,0 2.721448,-0.091 2.841576,-0.20214 z m 14.869528,-4.67203 c -0.364335,-1.45403 -1.05277,-3.44897 -1.529846,-4.43322 l -0.867412,-1.78953 -0.661726,1.50822 c -0.788049,1.79614 -0.451939,2.95252 1.948583,6.70396 1.218873,1.90482 1.542741,2.20265 1.645219,1.51297 0.07023,-0.47229 -0.170483,-2.04837 -0.534818,-3.5024 z m -15.867166,-4.58298 c -0.02765,-1.11602 0.08825,-2.59872 0.257721,-3.29489 0.252323,-1.03674 0.168791,-1.30462 -0.461637,-1.480536 C 51.823406,47.74738 50.719806,47.31908 49.79431,46.91373 47.52114,45.918128 44.774422,45.295047 43.9498,45.587928 c -0.530506,0.188417 -0.676082,0.818035 -0.676082,2.924025 0,2.48049 0.06801,2.6839 0.897737,2.6839 1.83728,0 4.265991,0.96263 5.969959,2.36621 0.965963,0.79568 1.892047,1.37048 2.057939,1.27734 0.165905,-0.0931 0.278989,-1.08245 0.251296,-2.19847 z m 14.635474,-3.28646 c -0.427628,-0.39579 -0.780473,0.2001 -0.429608,0.72554 0.265043,0.39693 0.364136,0.39723 0.506627,0.002 0.09743,-0.27053 0.06282,-0.59772 -0.07697,-0.72711 z M 50.004651,44.422289 c 0,-0.901703 2.470274,-3.349942 3.380099,-3.349942 0.902614,0 0.321501,-0.650327 -0.961175,-1.075643 -2.086108,-0.691719 -6.693718,-1.637707 -8.008201,-1.644161 l -1.172092,-0.0057 0.0752,2.759091 c 0.04468,1.637503 0.264589,2.803445 0.541066,2.8682 2.667001,0.62464 5.57552,1.288026 5.829558,1.329624 0.173525,0.02841 0.315507,-0.36822 0.315507,-0.881413 z"
   id="path105" /></svg>
