<?xml version="1.0" encoding="UTF-8" standalone="no"?>
<svg
   xmlns:dc="http://purl.org/dc/elements/1.1/"
   xmlns:cc="http://creativecommons.org/ns#"
   xmlns:rdf="http://www.w3.org/1999/02/22-rdf-syntax-ns#"
   xmlns:svg="http://www.w3.org/2000/svg"
   xmlns="http://www.w3.org/2000/svg"
   xmlns:sodipodi="http://sodipodi.sourceforge.net/DTD/sodipodi-0.dtd"
   xmlns:inkscape="http://www.inkscape.org/namespaces/inkscape"
   inkscape:version="1.0 (4035a4fb49, 2020-05-01)"
   sodipodi:docname="P.svg"
   id="svg12"
   viewBox="0 0 53.180077 72.870138"
   style="clip-rule:evenodd;fill-rule:evenodd;image-rendering:optimizeQuality;shape-rendering:geometricPrecision;text-rendering:geometricPrecision"
   version="1.1"
   height="23.875025mm"
   width="17.423067mm"
   xml:space="preserve"><metadata
   id="metadata16"><rdf:RDF><cc:Work
       rdf:about=""><dc:format>image/svg+xml</dc:format><dc:type
         rdf:resource="http://purl.org/dc/dcmitype/StillImage" /><dc:title></dc:title></cc:Work></rdf:RDF></metadata><sodipodi:namedview
   inkscape:current-layer="svg12"
   inkscape:window-maximized="1"
   inkscape:window-y="-6"
   inkscape:window-x="-6"
   inkscape:cy="70.879445"
   inkscape:cx="145.53615"
   inkscape:zoom="1.5970583"
   showgrid="false"
   id="namedview14"
   inkscape:window-height="1018"
   inkscape:window-width="1920"
   inkscape:pageshadow="2"
   inkscape:pageopacity="0"
   guidetolerance="10"
   gridtolerance="10"
   objecttolerance="10"
   borderopacity="1"
   bordercolor="#666666"
   pagecolor="#ffffff" />
 <defs
   id="defs4">
  <style
   id="style2"
   type="text/css">
   <![CDATA[
    .fil0 {fill:black;fill-rule:nonzero}
   ]]>
  </style>
 </defs>
 <g
   transform="translate(55.906425,-77.821791)"
   id="Слой_x0020_1">
  <metadata
   id="CorelCorpID_0Corel-Layer" />
  
  <path
   d="m 1.8984375,36.230469 -0.011719,0.0039 c 0.00172,0.02045 0.00329,0.02368 0.00586,0.03711 l 0.00781,0.01563 c 0.00326,-0.01899 -0.00286,-0.03768 -0.00195,-0.05664 z m 3.7695313,3.470703 c -0.032625,-5e-5 -0.070364,0.01357 -0.1113282,0.03711 7.59e-5,0.0085 -0.00211,0.01691 -0.00195,0.02539 0.037607,-0.02135 0.075275,-0.04185 0.1132813,-0.0625 z m -0.1113282,0.03711 c -8.15e-5,-0.0091 -7.4e-6,-0.01823 0,-0.02734 -0.1716655,0.019 -0.3427997,0.0402 -0.5136718,0.07617 -0.4505627,0.06539 -1.0157186,0.139307 -1.5761719,0.21875 l 0.1386719,0.328125 c 0.035297,-0.03838 0.060521,-0.08625 0.099609,-0.121093 0.3763978,-0.33555 1.1657786,-0.310362 1.7832031,-0.429688 0.023291,-0.01953 0.02816,-0.02182 0.068359,-0.04492 z m -0.068359,0.04492 c -0.025424,0.02132 -0.066526,0.05445 -0.041016,0.03906 0.034273,-0.02067 0.070681,-0.03687 0.1054688,-0.05664 -0.022951,0.005 -0.040947,0.01304 -0.064453,0.01758 z m 4.0390626,3.435547 c -0.06679,0.01613 -0.132216,0.03746 -0.1992188,0.05273 -0.012652,0.0049 -0.02653,0.0065 -0.039062,0.01172 -0.016436,0.0068 -0.019823,0.02803 -0.025391,0.04688 z"
   transform="matrix(0.80758239,0,0,0.80758239,-1.5170061,-3.4155606)"
   style="stroke-width:1.23826"
   id="polygon9" />
 </g>
<path
   id="path178"
   d="M 0,36.432694 V -0.00393135 l 17.991227,0.269061 17.99124,0.269061 5.63055,2.82653805 c 6.58871,3.307538 9.50488,6.9591653 10.93507,13.6928853 1.95407,9.2003 -0.6664,17.72956 -7.26297,23.63998 -5.28832,4.73825 -10.05243,6.37424 -20.0277,6.87749 l -8.25725,0.41657 -0.22237,12.210681 -0.22236,12.21069 -8.27772,0.23014 L 0,72.869325 Z m 28.325347,-2.38711 c 1.58758,-0.44102 3.76805,-1.74021 4.8455,-2.8871 1.64661,-1.75273 1.95898,-2.89838 1.95898,-7.18468 0,-3.95725 -0.36177,-5.50516 -1.61516,-6.91085 -2.40529,-2.69753 -6.23188,-4.01124 -11.68401,-4.01124 h -4.87143 v 10.90237 10.90236 l 4.23981,-0.005 c 2.33189,-0.003 5.53873,-0.36534 7.12631,-0.80636 z"
   style="fill:#000000;stroke-width:0.807582" /></svg>
