<?xml version="1.0" encoding="UTF-8" standalone="no"?>
<svg
   xmlns:dc="http://purl.org/dc/elements/1.1/"
   xmlns:cc="http://creativecommons.org/ns#"
   xmlns:rdf="http://www.w3.org/1999/02/22-rdf-syntax-ns#"
   xmlns:svg="http://www.w3.org/2000/svg"
   xmlns="http://www.w3.org/2000/svg"
   xmlns:sodipodi="http://sodipodi.sourceforge.net/DTD/sodipodi-0.dtd"
   xmlns:inkscape="http://www.inkscape.org/namespaces/inkscape"
   inkscape:version="1.0 (4035a4fb49, 2020-05-01)"
   sodipodi:docname="КАТОК.svg"
   id="svg12"
   viewBox="0 0 210.6479 184.00913"
   style="clip-rule:evenodd;fill-rule:evenodd;image-rendering:optimizeQuality;shape-rendering:geometricPrecision;text-rendering:geometricPrecision"
   version="1.1"
   height="60.28838mm"
   width="69.013298mm"
   xml:space="preserve"><metadata
   id="metadata16"><rdf:RDF><cc:Work
       rdf:about=""><dc:format>image/svg+xml</dc:format><dc:type
         rdf:resource="http://purl.org/dc/dcmitype/StillImage" /><dc:title></dc:title></cc:Work></rdf:RDF></metadata><sodipodi:namedview
   inkscape:current-layer="svg12"
   inkscape:window-maximized="1"
   inkscape:window-y="-6"
   inkscape:window-x="-6"
   inkscape:cy="123.18263"
   inkscape:cx="170.77316"
   inkscape:zoom="3.1941166"
   showgrid="false"
   id="namedview14"
   inkscape:window-height="1018"
   inkscape:window-width="1920"
   inkscape:pageshadow="2"
   inkscape:pageopacity="0"
   guidetolerance="10"
   gridtolerance="10"
   objecttolerance="10"
   borderopacity="1"
   bordercolor="#666666"
   pagecolor="#ffffff" />
 <defs
   id="defs4">
  <style
   id="style2"
   type="text/css">
   <![CDATA[
    .fil0 {fill:black;fill-rule:nonzero}
   ]]>
  </style>
 </defs>
 <g
   transform="translate(84.162901,-37.111466)"
   id="Слой_x0020_1">
  <metadata
   id="CorelCorpID_0Corel-Layer" />
  
  <path
   d="m 1.8984375,36.230469 -0.011719,0.0039 c 0.00172,0.02045 0.00329,0.02368 0.00586,0.03711 l 0.00781,0.01563 c 0.00326,-0.01899 -0.00286,-0.03768 -0.00195,-0.05664 z m 3.7695313,3.470703 c -0.032625,-5e-5 -0.070364,0.01357 -0.1113282,0.03711 7.59e-5,0.0085 -0.00211,0.01691 -0.00195,0.02539 0.037607,-0.02135 0.075275,-0.04185 0.1132813,-0.0625 z m -0.1113282,0.03711 c -8.15e-5,-0.0091 -7.4e-6,-0.01823 0,-0.02734 -0.1716655,0.019 -0.3427997,0.0402 -0.5136718,0.07617 -0.4505627,0.06539 -1.0157186,0.139307 -1.5761719,0.21875 l 0.1386719,0.328125 c 0.035297,-0.03838 0.060521,-0.08625 0.099609,-0.121093 0.3763978,-0.33555 1.1657786,-0.310362 1.7832031,-0.429688 0.023291,-0.01953 0.02816,-0.02182 0.068359,-0.04492 z m -0.068359,0.04492 c -0.025424,0.02132 -0.066526,0.05445 -0.041016,0.03906 0.034273,-0.02067 0.070681,-0.03687 0.1054688,-0.05664 -0.022951,0.005 -0.040947,0.01304 -0.064453,0.01758 z m 4.0390626,3.435547 c -0.06679,0.01613 -0.132216,0.03746 -0.1992188,0.05273 -0.012652,0.0049 -0.02653,0.0065 -0.039062,0.01172 -0.016436,0.0068 -0.019823,0.02803 -0.025391,0.04688 z"
   transform="matrix(0.80758239,0,0,0.80758239,-1.5170061,-3.4155606)"
   style="stroke-width:1.23826"
   id="polygon9" />
 </g>
<path
   id="path162"
   d="m 3.9312248,183.1417 c -6.767616,-3.45516 -4.26311401,-12.70489 3.440038,-12.70489 8.1469762,0 18.2050742,-3.97163 24.1799962,-9.54794 3.786826,-3.53419 8.215185,-10.26836 7.506487,-11.41506 -0.202538,-0.32771 -3.56085,-0.83162 -7.462917,-1.1198 -11.500519,-0.84932 -13.168505,-1.28393 -14.100624,-3.67401 -0.504202,-1.29285 -0.662577,-7.55659 -0.410555,-16.23747 0.406537,-14.00313 0.601018,-15.30643 5.061395,-33.918464 0.935778,-3.904765 1.398498,-12.178721 1.806556,-32.303294 l 0.548563,-27.054009 2.174581,-3.698972 C 32.485019,21.584489 44.259966,15.205127 59.148623,13.874283 l 5.730658,-0.512243 0.403791,-2.708277 c 0.525866,-3.5270407 4.853984,-7.769978 9.562546,-9.374347 5.40377,-1.84124899 18.935007,-1.66452199 23.144538,0.302284 7.043464,3.2908991 6.460664,0.28512 6.460664,33.32023 0,32.931029 8e-4,32.937553 5.89854,41.622189 6.29992,9.27704 20.67976,19.64446 33.93275,24.464461 5.1217,1.86271 9.06008,2.63448 16.55544,3.24423 15.58665,1.26796 24.61487,4.74423 32.31229,12.44165 5.47654,5.47653 9.88886,16.04879 9.28282,22.24231 -0.23133,2.36411 -0.85925,3.03042 -5.02383,5.33112 -7.44918,4.11524 -18.36279,7.2715 -31.90244,9.22631 -3.28557,0.47436 -6.31857,1.07558 -6.74,1.33604 -1.14989,0.71067 6.48828,8.12207 11.0986,10.76908 6.01897,3.4558 14.22896,5.32627 18.18111,4.14217 3.58299,-1.07349 6.45015,-4.24184 6.45015,-7.12774 0,-1.10299 1.04038,-3.01255 2.36063,-4.33279 5.10682,-5.10684 13.79101,-1.64695 13.79101,5.4945 0,6.98358 -6.63612,15.51486 -14.42874,18.54935 -3.51848,1.37012 -9.31005,1.46899 -97.017621,1.65615 -73.775387,0.15743 -93.6927422,-0.0138 -95.2703042,-0.81926 z M 150.07922,170.07579 c 0,-0.50341 -7.63513,-10.95419 -9.61879,-13.16598 -1.5055,-1.67865 -2.32395,-1.81828 -10.74381,-1.83306 -5.01279,-0.009 -11.65804,-0.38782 -14.76723,-0.84227 -17.508657,-2.55912 -32.257678,-4.05486 -44.578953,-4.5209 l -13.890819,-0.52538 -0.97506,2.34659 c -3.358253,8.082 -5.007631,11.31278 -7.167793,14.04021 -1.339618,1.6914 -2.435669,3.47725 -2.435669,3.96854 0,0.6434 14.570519,0.89327 52.08906,0.89327 28.648984,0 52.089064,-0.16246 52.089064,-0.36102 z m -14.82447,-52.24062 c 2.02811,-1.90532 2.56176,-6.03502 1.12643,-8.71695 -1.97311,-3.68679 -9.11891,-4.08708 -12.71146,-0.71205 -3.26917,3.07121 -1.88504,9.34511 2.47034,11.19735 2.58802,1.10064 6.96463,0.25152 9.11469,-1.76835 z M 109.1475,104.89073 c 4.26609,-2.27214 5.13297,-7.474881 1.80068,-10.80716 -2.80066,-2.800671 -8.5789,-2.800671 -11.379564,0 -2.178348,2.178341 -2.643031,6.38562 -0.947092,8.57494 2.363516,3.05111 7.101796,4.05595 10.525976,2.23222 z M 94.077557,83.113913 c 0.65591,-0.544351 1.723049,-2.015588 2.371425,-3.269406 1.033423,-1.998432 1.033423,-2.560908 0,-4.55934 -1.765561,-3.414216 -3.401626,-4.423383 -7.308531,-4.508092 -4.681757,-0.101509 -7.711264,2.547319 -7.693368,6.726639 0.01494,3.492766 0.489944,4.280732 3.621756,6.008175 2.631224,1.451339 7.013715,1.257729 9.008718,-0.397976 z M 86.720708,53.777866 c 2.408751,-2.408746 2.647101,-6.708751 0.517644,-9.338519 -1.047095,-1.29311 -2.601045,-1.917355 -5.45118,-2.189827 -3.447948,-0.329622 -4.286633,-0.102544 -6.207425,1.680684 -3.09212,2.870668 -3.136901,7.761786 -0.09299,10.15613 3.105543,2.44282 8.634477,2.291003 11.233947,-0.308468 z"
   style="fill:#000000;stroke-width:0.807582" /></svg>
