<?xml version="1.0" encoding="UTF-8" standalone="no"?>
<svg
   xmlns:dc="http://purl.org/dc/elements/1.1/"
   xmlns:cc="http://creativecommons.org/ns#"
   xmlns:rdf="http://www.w3.org/1999/02/22-rdf-syntax-ns#"
   xmlns:svg="http://www.w3.org/2000/svg"
   xmlns="http://www.w3.org/2000/svg"
   xmlns:sodipodi="http://sodipodi.sourceforge.net/DTD/sodipodi-0.dtd"
   xmlns:inkscape="http://www.inkscape.org/namespaces/inkscape"
   xml:space="preserve"
   width="84.669762mm"
   height="71.431755mm"
   version="1.1"
   style="clip-rule:evenodd;fill-rule:evenodd;image-rendering:optimizeQuality;shape-rendering:geometricPrecision;text-rendering:geometricPrecision"
   viewBox="0 0 114.38525 96.516537"
   id="svg3250"
   sodipodi:docname="СЕЙФ.svg"
   inkscape:version="1.0 (4035a4fb49, 2020-05-01)"><metadata
   id="metadata3254"><rdf:RDF><cc:Work
       rdf:about=""><dc:format>image/svg+xml</dc:format><dc:type
         rdf:resource="http://purl.org/dc/dcmitype/StillImage" /><dc:title></dc:title></cc:Work></rdf:RDF></metadata><sodipodi:namedview
   inkscape:document-rotation="0"
   pagecolor="#ffffff"
   bordercolor="#666666"
   borderopacity="1"
   objecttolerance="10"
   gridtolerance="10"
   guidetolerance="10"
   inkscape:pageopacity="0"
   inkscape:pageshadow="2"
   inkscape:window-width="1920"
   inkscape:window-height="1018"
   id="namedview3252"
   showgrid="false"
   inkscape:zoom="2.1814529"
   inkscape:cx="172.55301"
   inkscape:cy="125.64948"
   inkscape:window-x="-6"
   inkscape:window-y="-6"
   inkscape:window-maximized="1"
   inkscape:current-layer="svg3250" />
 <defs
   id="defs3244">
  <style
   type="text/css"
   id="style3242">
   <![CDATA[
    .fil0 {fill:black;fill-rule:nonzero}
   ]]>
  </style>
 </defs>
 
<path
   id="path24"
   d="m 8.6411512,96.222884 c -0.294769,-0.191211 -0.428821,-0.828486 -0.357497,-1.699525 l 0.114113,-1.3936 3.8631878,-0.101672 3.863187,-0.101672 -0.109464,1.71041 -0.109464,1.710411 -3.396226,0.09078 c -1.867924,0.04993 -3.6084508,-0.04688 -3.8678368,-0.215135 z m 89.9055538,0.06477 c -0.13108,-0.13108 -0.23833,-0.940894 -0.23833,-1.799581 v -1.561249 l 3.843105,0.101469 3.84309,0.101468 0.11412,1.3936 c 0.0715,0.873227 -0.062,1.505264 -0.3575,1.69264 -0.55868,0.354244 -6.859235,0.416906 -7.204485,0.07165 z M 1.2120694,87.44555 -0.00342159,86.230059 V 44.594073 c 0,-40.9033252 0.01241,-41.6517652 0.705271,-42.5325951 C 2.4298042,-0.13526007 -1.3247546,0.00168293 57.175064,0.00168293 c 52.491436,0 53.338256,0.01099 54.708826,0.710208 2.73082,1.39316327 2.51186,-2.43481503 2.51186,43.91351707 v 41.604651 l -1.21549,1.215491 -1.21549,1.215492 H 57.196167 2.4275602 Z M 109.36736,84.214814 110.46329,83.164812 V 44.788148 c 0,-42.3206165 0.15179,-39.487535 -2.18032,-40.6935175 C 106.74739,3.3005537 7.6145012,3.3162964 6.0779822,4.1108615 3.7758432,5.3013443 3.9290492,2.4074535 3.9290492,44.701522 v 38.46329 l 0.983118,0.916026 c 0.540715,0.503814 1.224429,1.00469 1.519365,1.113058 0.294935,0.108364 23.3295658,0.168653 51.1880698,0.133976 l 50.651828,-0.06306 z M 8.5765162,44.68886 V 7.8666257 H 57.196167 105.81582 V 44.68886 81.511093 H 57.196167 8.5765162 Z M 71.461605,64.614071 c 1.60689,-0.825815 2.32676,-2.242503 2.45549,-4.832375 0.22496,-4.525592 -1.50376,-6.154289 -6.532251,-6.154289 -5.028487,0 -6.757209,1.628697 -6.532254,6.154289 0.128735,2.589872 0.848603,4.00656 2.455497,4.832375 1.128222,0.579814 7.025293,0.579814 8.153518,0 z m -5.685499,-5.267817 v -1.42999 h 1.619957 c 1.778782,0 2.189543,0.446893 1.808011,1.967037 -0.197289,0.786065 -0.415848,0.892942 -1.82604,0.892942 h -1.601928 z m 21.122349,4.373702 c 0.9835,-1.101439 1.04249,-1.344752 1.04249,-4.299797 0,-4.720914 -1.15856,-5.793864 -6.2562,-5.793864 -5.12773,0 -6.41038,1.296447 -6.2015,6.268202 0.098,2.332818 0.27404,3.118851 0.83904,3.746641 1.11843,1.242751 1.88586,1.41741 5.83933,1.328968 3.67873,-0.08229 3.69877,-0.08758 4.73684,-1.25015 z m -6.82245,-4.373702 v -1.42999 h 1.78749 1.78748 v 1.42999 1.429989 h -1.78748 -1.78749 z m 21.122355,4.373702 c 0.9835,-1.101439 1.04249,-1.344752 1.04249,-4.299797 0,-4.720914 -1.15857,-5.793864 -6.256215,-5.793864 -4.89475,0 -6.2562,1.235826 -6.2562,5.678932 0,3.105595 0.37869,4.131777 1.86795,5.061806 1.01858,0.636095 1.65105,0.717447 4.86513,0.625785 3.666945,-0.104571 3.702095,-0.114017 4.736845,-1.272862 z m -7.040705,-3.453958 c -0.10768,-0.280635 -0.14285,-0.883912 -0.0782,-1.340615 0.10366,-0.731662 0.34076,-0.843215 1.99451,-0.938427 l 1.87686,-0.108058 v 1.448673 1.448672 h -1.7987 c -1.22833,0 -1.8608,-0.161803 -1.99451,-0.510245 z m -58.081907,2.680144 c 0.279495,-0.176897 0.601243,-1.007135 0.714995,-1.844969 0.205196,-1.511367 0.222263,-1.526918 2.173055,-1.979706 l 1.966236,-0.456375 1.017792,1.234325 c 1.171923,1.421241 2.368881,1.601374 3.450926,0.519329 0.849571,-0.849571 0.893529,-1.477751 0.197578,-2.823565 -0.499731,-0.966376 -0.469623,-1.047242 0.880952,-2.366043 l 1.39837,-1.365472 1.400478,0.631527 c 1.050692,0.473798 1.57464,0.538319 2.097802,0.258331 1.888005,-1.010431 1.935144,-2.860648 0.0971,-3.811137 -0.587021,-0.303562 -1.067312,-0.817908 -1.067312,-1.142987 0,-1.256571 0.884295,-2.993533 1.59564,-3.134205 2.415127,-0.477606 2.749177,-0.633074 3.122979,-1.453488 0.344993,-0.757172 0.2842,-1.015293 -0.414192,-1.758698 -0.506581,-0.539231 -1.306514,-0.912558 -2.098972,-0.979582 -1.190609,-0.100703 -1.318043,-0.229832 -1.816308,-1.840522 -0.500779,-1.618816 -0.493311,-1.756038 0.114081,-2.09595 2.179923,-1.219946 2.49294,-2.74982 0.817618,-3.996092 -0.967714,-0.719883 -1.040822,-0.724276 -2.084582,-0.125241 -1.508503,0.865763 -2.07222,0.784349 -3.386001,-0.489015 -1.119539,-1.085101 -1.133503,-1.137448 -0.626876,-2.349975 0.525032,-1.25658 0.367197,-2.576097 -0.365909,-3.059056 -0.219278,-0.144456 -0.891273,-0.265112 -1.493324,-0.268123 -0.813003,-0.0041 -1.305323,0.279494 -1.913512,1.102114 -0.772666,1.045088 -0.91263,1.093633 -2.480339,0.860286 -2.076624,-0.309096 -2.555206,-0.697338 -2.555206,-2.072872 0,-2.011218 -1.834558,-3.047364 -3.38641,-1.912623 -0.391186,0.286043 -0.749039,1.127648 -0.872697,2.052429 l -0.209611,1.567567 -1.944414,0.309325 c -1.899088,0.302115 -1.965757,0.283363 -2.859979,-0.80441 -1.04403,-1.270005 -2.584508,-1.487152 -3.658021,-0.515636 -0.818003,0.740282 -0.827303,1.550522 -0.03367,2.933349 l 0.620102,1.080464 -1.424471,1.239074 -1.424471,1.239072 -1.363226,-0.760365 c -1.25148,-0.698035 -1.441968,-0.716375 -2.323736,-0.223724 -0.71889,0.401648 -0.987803,0.860741 -1.069019,1.825039 -0.09639,1.144474 0.03584,1.377616 1.183739,2.087055 0.940813,0.581456 1.22394,0.957193 1.041069,1.381599 -0.13815,0.320622 -0.327356,1.026926 -0.420459,1.569568 -0.16764,0.977069 -0.533935,1.180141 -2.553714,1.415779 -0.471833,0.05504 -1.171958,0.522396 -1.555835,1.038555 -0.869825,1.169567 -0.386795,2.349019 1.083416,2.645452 2.289135,0.461554 2.65584,0.708646 3.134962,2.112395 0.553646,1.622087 0.487014,1.803217 -0.933592,2.537842 -1.411484,0.729906 -1.503882,2.713012 -0.167214,3.588831 0.816744,0.535152 1.005375,0.531423 2.527699,-0.04996 l 1.64509,-0.628266 1.315398,1.317196 1.315399,1.317195 -0.625621,1.093706 c -0.805288,1.407804 -0.788367,1.710193 0.151692,2.710839 1.100377,1.171297 2.179119,1.040367 3.461452,-0.420131 l 1.095355,-1.247541 1.891033,0.481842 c 1.81109,0.461469 1.89571,0.53665 2.001667,1.778403 0.162598,1.905558 2.102826,3.004337 3.615018,2.047238 z m -5.97858,-8.338777 c -2.42678,-0.930144 -5.219304,-3.442583 -6.386508,-5.745949 -1.286527,-2.538839 -1.291174,-6.161518 -0.01111,-8.664146 1.081893,-2.115191 3.061255,-4.081498 5.254322,-5.21967 1.331564,-0.691064 2.274433,-0.855856 5.472481,-0.956466 3.651812,-0.114885 3.975347,-0.06586 5.898436,0.893743 2.786382,1.390383 4.785136,3.524628 5.731442,6.11997 0.911951,2.501109 0.968457,4.311143 0.203352,6.513992 -1.227318,3.53363 -3.201179,5.50664 -6.997387,6.994362 -2.816583,1.103809 -6.387337,1.128809 -9.165026,0.06416 z m 41.944847,-5.211691 c 1.56085,-1.225426 1.92991,-2.11968 1.94253,-4.706814 0.0211,-4.321629 -1.89275,-6.073931 -6.636208,-6.076119 -3.352876,-0.0014 -4.87988,0.733796 -5.951021,2.865767 -1.199521,2.387507 -0.61418,6.583408 1.078595,7.73169 1.654277,1.122166 1.950957,1.18406 5.276137,1.100738 2.767105,-0.06934 3.378697,-0.19982 4.289967,-0.915262 z m -6.265909,-4.885563 v -1.608738 h 1.584647 c 1.745088,0 2.261103,0.659969 1.837047,2.349534 -0.190092,0.757383 -0.42189,0.867943 -1.819766,0.867943 h -1.601928 z m 19.425319,5.563371 c 0.4851,-0.184433 1.29994,-0.786065 1.81076,-1.336961 0.84515,-0.911454 0.92876,-1.26907 0.92876,-3.972386 0,-3.74953 -0.49863,-4.801945 -2.66762,-5.630292 -1.21943,-0.465701 -2.31214,-0.574373 -4.50115,-0.447654 -2.66804,0.154449 -2.9784,0.254956 -4.02784,1.304397 -1.11645,1.116454 -1.13705,1.197917 -1.13705,4.4976 0,3.089814 0.072,3.43802 0.89374,4.322186 0.49156,0.528904 1.2155,1.094725 1.60874,1.257383 0.99074,0.409796 6.0182,0.413857 7.09166,0.0057 z m -5.12542,-5.563371 v -1.647913 l 1.69811,0.108962 1.69811,0.108962 v 1.429989 1.42999 l -1.69811,0.108961 -1.69811,0.108962 z m 19.88883,5.315858 c 1.945605,-0.923251 2.276015,-1.68131 2.276015,-5.221904 0,-3.07634 -0.0258,-3.171392 -1.21576,-4.469808 -1.170005,-1.276688 -1.319925,-1.331885 -3.982505,-1.46634 -3.38013,-0.170691 -5.18446,0.327335 -6.39406,1.764861 -0.82009,0.97462 -0.92009,1.403253 -0.92009,3.943769 0,3.331311 0.51586,4.596469 2.2158,5.434246 1.61239,0.794628 6.35909,0.803612 8.0206,0.01519 z m -5.80556,-4.213168 c -0.10681,-0.278326 -0.14198,-0.96204 -0.0782,-1.519364 0.11017,-0.962175 0.20624,-1.013315 1.90352,-1.013315 h 1.78749 l 0.10993,1.519364 0.10993,1.519364 h -1.81922 c -1.23908,0 -1.88119,-0.161382 -2.01345,-0.506049 z M 71.131445,35.125249 c 2.01172,-1.010725 2.8671,-2.637081 2.8671,-5.45128 0,-1.902872 -0.16796,-2.645982 -0.8151,-3.606273 -1.17841,-1.748641 -2.15252,-2.102445 -5.804989,-2.108416 -2.847185,-0.0047 -3.37622,0.09826 -4.527834,0.880802 -1.650301,1.121408 -2.234123,2.793621 -1.974594,5.655735 0.222735,2.456391 0.974917,3.708739 2.780504,4.629432 1.665527,0.849272 5.784541,0.849272 7.474913,0 z m -5.355339,-5.272532 v -1.608738 h 1.584647 c 1.745088,0 2.261103,0.659968 1.837047,2.349534 -0.190092,0.757385 -0.42189,0.867943 -1.819766,0.867943 h -1.601928 z m 19.013759,5.528757 c 0.7247,-0.201279 1.73016,-0.85622 2.23436,-1.455425 0.82642,-0.982136 0.91672,-1.388429 0.91672,-4.124263 0,-3.453735 -0.22668,-4.057678 -1.91453,-5.100829 -0.98892,-0.611181 -1.78573,-0.746704 -4.38387,-0.745611 -5.17733,0.0022 -6.42293,1.341485 -6.1564,6.61957 0.14892,2.949043 0.92291,4.202154 2.96142,4.794602 1.52226,0.442413 4.77042,0.448533 6.3423,0.01196 z m -4.71386,-5.509169 v -1.628326 h 1.80804 1.80805 l -0.10993,1.519364 -0.10994,1.519364 -1.69811,0.108962 -1.69811,0.108962 z m 19.01376,5.509169 c 0.7247,-0.201279 1.730165,-0.85622 2.234365,-1.455425 0.82641,-0.982136 0.91672,-1.388429 0.91672,-4.124263 0,-3.453735 -0.22668,-4.057678 -1.91453,-5.100829 -0.982855,-0.607431 -1.788305,-0.746947 -4.312255,-0.746947 -5.06903,0 -6.28563,1.128038 -6.28563,5.828086 0,4.331902 1.60841,5.905826 6.07746,5.947157 1.08143,0.01001 2.55917,-0.146499 3.28387,-0.347779 z m -4.83303,-4.15835 c -0.13108,-0.131082 -0.23833,-0.855014 -0.23833,-1.608738 v -1.370407 h 1.96623 1.96624 v 1.608738 1.608739 h -1.7279 c -0.95035,0 -1.83516,-0.10725 -1.96624,-0.238332 z"
   style="fill:#000000;stroke-width:0.357497" /></svg>
