<?xml version="1.0" encoding="UTF-8" standalone="no"?>
<svg
   xmlns:dc="http://purl.org/dc/elements/1.1/"
   xmlns:cc="http://creativecommons.org/ns#"
   xmlns:rdf="http://www.w3.org/1999/02/22-rdf-syntax-ns#"
   xmlns:svg="http://www.w3.org/2000/svg"
   xmlns="http://www.w3.org/2000/svg"
   xmlns:sodipodi="http://sodipodi.sourceforge.net/DTD/sodipodi-0.dtd"
   xmlns:inkscape="http://www.inkscape.org/namespaces/inkscape"
   inkscape:version="1.0 (4035a4fb49, 2020-05-01)"
   sodipodi:docname="тир.svg"
   id="svg12"
   viewBox="0 0 65.257625 84.389014"
   style="clip-rule:evenodd;fill-rule:evenodd;image-rendering:optimizeQuality;shape-rendering:geometricPrecision;text-rendering:geometricPrecision"
   version="1.1"
   height="27.649046mm"
   width="21.379961mm"
   xml:space="preserve"><metadata
   id="metadata16"><rdf:RDF><cc:Work
       rdf:about=""><dc:format>image/svg+xml</dc:format><dc:type
         rdf:resource="http://purl.org/dc/dcmitype/StillImage" /><dc:title></dc:title></cc:Work></rdf:RDF></metadata><sodipodi:namedview
   inkscape:current-layer="svg12"
   inkscape:window-maximized="1"
   inkscape:window-y="-6"
   inkscape:window-x="-6"
   inkscape:cy="66.786334"
   inkscape:cx="54.097073"
   inkscape:zoom="3.1941166"
   showgrid="false"
   id="namedview14"
   inkscape:window-height="1018"
   inkscape:window-width="1920"
   inkscape:pageshadow="2"
   inkscape:pageopacity="0"
   guidetolerance="10"
   gridtolerance="10"
   objecttolerance="10"
   borderopacity="1"
   bordercolor="#666666"
   pagecolor="#ffffff" />
 <defs
   id="defs4">
  <style
   id="style2"
   type="text/css">
   <![CDATA[
    .fil0 {fill:black;fill-rule:nonzero}
   ]]>
  </style>
 </defs>
 <g
   transform="translate(-10.062653,-21.975879)"
   id="Слой_x0020_1">
  <metadata
   id="CorelCorpID_0Corel-Layer" />
  
  <path
   d="m 1.8984375,36.230469 -0.011719,0.0039 c 0.00172,0.02045 0.00329,0.02368 0.00586,0.03711 l 0.00781,0.01563 c 0.00326,-0.01899 -0.00286,-0.03768 -0.00195,-0.05664 z m 3.7695313,3.470703 c -0.032625,-5e-5 -0.070364,0.01357 -0.1113282,0.03711 7.59e-5,0.0085 -0.00211,0.01691 -0.00195,0.02539 0.037607,-0.02135 0.075275,-0.04185 0.1132813,-0.0625 z m -0.1113282,0.03711 c -8.15e-5,-0.0091 -7.4e-6,-0.01823 0,-0.02734 -0.1716655,0.019 -0.3427997,0.0402 -0.5136718,0.07617 -0.4505627,0.06539 -1.0157186,0.139307 -1.5761719,0.21875 l 0.1386719,0.328125 c 0.035297,-0.03838 0.060521,-0.08625 0.099609,-0.121093 0.3763978,-0.33555 1.1657786,-0.310362 1.7832031,-0.429688 0.023291,-0.01953 0.02816,-0.02182 0.068359,-0.04492 z m -0.068359,0.04492 c -0.025424,0.02132 -0.066526,0.05445 -0.041016,0.03906 0.034273,-0.02067 0.070681,-0.03687 0.1054688,-0.05664 -0.022951,0.005 -0.040947,0.01304 -0.064453,0.01758 z m 4.0390626,3.435547 c -0.06679,0.01613 -0.132216,0.03746 -0.1992188,0.05273 -0.012652,0.0049 -0.02653,0.0065 -0.039062,0.01172 -0.016436,0.0068 -0.019823,0.02803 -0.025391,0.04688 z"
   transform="matrix(0.80758239,0,0,0.80758239,-1.5170061,-3.4155606)"
   style="stroke-width:1.23826"
   id="polygon9" />
 </g>
<path
   id="path105"
   d="m 29.989229,83.810921 c -1.51719,-0.713641 -1.95966,-1.49572 -0.84622,-1.49572 1.52817,0 1.96471,-0.387061 1.96471,-1.742027 0,-0.723045 0.2549,-2.092343 0.56645,-3.042881 0.41605,-1.269379 0.56754,-3.515598 0.57057,-8.459965 l 0.004,-6.731716 -2.60658,-0.237723 c -4.91471,-0.448232 -11.7157,-3.469253 -15.08105,-6.699051 -2.79448,-2.681917 -4.93342,-5.618218 -5.65624,-7.764804 -0.39122,-1.161806 -0.8001201,-2.350018 -0.9086701,-2.640469 -0.10855,-0.290452 -0.23075,-0.765736 -0.27156,-1.056188 -0.0408,-0.290452 -0.20053,-1.439056 -0.35493,-2.552454 l -0.28074,-2.02436 h -3.61794 c -2.72479004,0 -3.57903004,-0.108639 -3.46037004,-0.440078 0.10696,-0.298729 1.26908004,-0.472486 3.61814004,-0.540972 3.90891,-0.113967 3.5239,0.239849 4.09758,-3.765685 0.5369101,-3.748822 3.0690501,-8.388141 6.4104801,-11.745115 0.89749,-0.901656 1.74532,-1.929798 1.88407,-2.28476 0.13876,-0.354963 0.46616,-0.57499 0.72756,-0.488949 0.52785,0.173744 3.14151,-0.941849 3.51419,-1.499967 0.2646,-0.396255 4.23193,-2.145917 4.67029,-2.05968 0.15332,0.03016 0.73352,-0.119633 1.28933,-0.332877 0.55582,-0.213245 2.05002,-0.496563 3.32044,-0.629595 l 2.30987,-0.241878 0.10298,-6.9085865 c 0.0874,-5.8638983 0.18925,-6.9085873 0.67354,-6.9085873 0.48429,0 0.58614,1.044689 0.67355,6.9085873 l 0.10297,6.9085865 2.26747,0.237438 c 2.50991,0.262824 6.01415,1.279646 7.31393,2.122272 0.4633,0.300349 1.04881,0.54609 1.30113,0.54609 0.88474,0 1.65424,-1.11868 1.65424,-2.404898 0,-0.917129 0.2234,-1.427546 0.76076,-1.738149 0.92851,-0.536698 1.00088,-1.207225 0.11498,-1.06531 -0.45852,0.07345 -0.98243,-0.52541 -1.8068,-2.065256 -1.15935,-2.1655655 -1.1631,-2.1684305 -2.58745,-1.9793635 -1.76961,0.234896 -1.90793,-0.386653 -0.27535,-1.23726 1.112,-0.57937 1.14282,-0.662283 0.90798,-2.441681 -0.1337,-1.01307 -0.13544,-2.238962 -0.004,-2.7242043 0.29045,-1.07107 2.55209,-2.22145202 4.97056,-2.52826302 2.15956,-0.273965 3.41222,0.427186 4.25782,2.38322202 0.5094,1.1783363 0.75299,1.3872863 1.41749,1.2159363 2.53593,-0.653918 2.5141,-0.654825 2.5141,0.104378 0,0.403796 -0.42167,0.989892 -0.93703,1.302435 -0.84767,0.514065 -0.8869,0.640747 -0.41134,1.32835 0.28912,0.418051 0.72819,1.47056 0.9757,2.33891 0.24751,0.86835 0.94613,2.1585735 1.55248,2.8671635 0.65901,0.770121 1.10246,1.710873 1.10246,2.338778 0,0.577738 0.25334,1.245033 0.56298,1.482878 0.30964,0.237845 0.53933,0.772135 0.51044,1.187312 -0.0289,0.415176 0.14474,1.388578 0.38585,2.163116 0.53653,1.723536 0.56678,3.52824 0.0734,4.381456 -0.20306,0.35118 -0.39723,1.568583 -0.43148,2.70534 -0.0715,2.372464 -0.22425,2.770401 -0.87247,2.272479 -0.27634,-0.212271 -0.91703,-0.242932 -1.58275,-0.07574 -1.37238,0.344661 -1.4042,1.079104 -0.22176,5.119336 0.44825,1.531641 0.81501,3.308222 0.81501,3.947955 v 1.163155 l 3.67786,0.100764 c 2.52322,0.06913 3.72736,0.238924 3.83549,0.540842 0.11914,0.332611 -0.77899,0.440078 -3.67786,0.440078 -3.08877,0 -3.83549,0.09893 -3.83549,0.508132 0,0.279471 0.38042,0.754755 0.84539,1.056188 0.46497,0.301429 0.70734,0.548056 0.53861,0.548056 -0.16874,0 0.22785,0.624795 0.88131,1.388433 l 1.18811,1.388429 -0.87086,0.423746 c -0.47897,0.233062 -1.27819,0.795426 -1.77605,1.249699 -0.81088,0.739895 -0.87753,1.018767 -0.63968,2.676619 0.14604,1.01787 0.35703,2.953284 0.46888,4.30092 0.11184,1.34764 0.53118,3.565634 0.93185,4.928877 0.40068,1.363246 1.0023,3.426614 1.33695,4.58527 0.77851,2.695486 0.53379,5.109812 -0.91272,9.004621 -1.51836,4.088249 -1.74427,5.397686 -1.1803,6.84121 0.42482,1.08738 0.37122,1.386444 -0.55082,3.073154 -0.56179,1.027699 -1.02143,2.032208 -1.02143,2.232243 0,0.612113 -5.05342,0.185227 -5.6106,-0.473954 -0.62988,-0.745193 -0.60431,-1.48413 0.0513,-1.48413 0.84821,0 1.57127,-1.353273 2.70655,-5.065565 0.9598,-3.138483 1.06259,-4.005166 1.0439,-8.801565 -0.0224,-5.746493 -0.2929,-6.731465 -3.04035,-11.070626 -0.806,-1.272943 -1.06077,-1.46294 -1.39666,-1.041571 -0.22596,0.28346 -1.12392,0.931009 -1.99547,1.438993 -0.87155,0.507984 -1.68788,1.07823 -1.81408,1.267211 -0.12619,0.18898 -1.20503,0.75699 -2.39742,1.26225 -1.1924,0.505255 -2.29911,1.109588 -2.45937,1.34296 -0.16026,0.233372 -0.29807,1.612524 -0.30623,3.064782 -0.0164,2.908527 -0.81784,5.161499 -3.00832,8.45646 -0.74258,1.117006 -1.15502,2.129816 -1.03716,2.54694 0.13598,0.481309 -0.0288,0.746841 -0.54049,0.870676 -0.93439,0.226161 -0.92862,0.638666 0.0246,1.760299 0.9106,1.07146 0.93761,1.462042 0.19253,2.784308 -0.31252,0.554629 -0.56928,1.694938 -0.57057,2.53402 -0.002,1.645759 -0.776,1.943723 -1.01797,0.392152 -0.27816,-1.783662 -0.53349,-1.972273 -1.16634,-0.861568 -1.15175,2.02141 -2.39747,2.375546 -4.64221,1.319689 z m 5.05578,-18.556709 c 0.83199,-2.78321 0.81246,-2.894553 -0.51388,-2.929457 l -1.14114,-0.03003 0.0365,4.817312 0.0365,4.817314 0.47741,-2.288406 c 0.26258,-1.258624 0.75968,-3.232653 1.10467,-4.386736 z m -4.60142,-4.150783 c 0.12751,-0.350647 0.27634,-0.351267 0.73236,-0.0032 0.31478,0.240364 0.68496,0.33278 0.82262,0.205373 0.38382,-0.355246 0.29721,-5.678904 -0.096,-5.903854 -0.19048,-0.10896 -1.05657,-0.223866 -1.92464,-0.255351 -0.86807,-0.03148 -2.36736,-0.426968 -3.33174,-0.878858 -0.96439,-0.451774 -1.97236,-0.821503 -2.23994,-0.821503 -0.26758,0 -0.94825,-0.39607 -1.5126,-0.880156 -0.56435,-0.484086 -1.21506,-0.881392 -1.44602,-0.882903 -0.41073,-0.0027 -1.37088,-1.567618 -1.37088,-2.234383 0,-0.18504 0.31716,-0.07078 0.70481,0.253918 0.66554,0.55747 0.82401,0.518744 2.84481,-0.695211 2.2131,-1.329472 2.28684,-1.585514 0.77626,-2.695176 -0.46476,-0.341416 -1.2308,-1.410807 -1.70231,-2.376423 -0.4715,-0.965619 -0.95515,-1.755563 -1.07476,-1.755437 -0.11961,1.27e-4 -0.21748,-0.593979 -0.21748,-1.320234 v -1.320468 l -2.56756,-0.104101 -2.56756,-0.104101 0.009,0.984258 c 0.0171,1.806035 0.78333,4.122896 1.93809,5.859913 1.38643,2.085485 1.22024,3.303174 -0.23269,1.705004 -0.99608,-1.095654 -2.84577,-4.507183 -2.85212,-5.260425 -0.002,-0.242043 -0.1586,-0.440078 -0.3479,-0.440078 -0.18931,0 -0.25808,-0.594106 -0.15283,-1.320235 l 0.19135,-1.320235 -2.9853,0.01641 c -3.52069,0.01936 -3.53102,0.03475 -2.64966,3.947079 1.07573,4.775169 3.58862,9.039552 7.05492,11.97222 2.96475,2.50833 7.80126,5.012019 9.68197,5.012019 0.46384,0 1.00595,0.145015 1.2047,0.32225 0.3183,0.283851 1.30933,0.534988 2.70704,0.685994 0.24407,0.02637 0.51579,-0.150091 0.6038,-0.392134 z m 4.3318,0.228108 c 0.70516,-0.175123 0.83809,-0.518018 0.98763,-2.547648 0.095,-1.289908 0.28853,-2.587688 0.42999,-2.883952 0.18854,-0.394874 0.006,-0.5579 -0.68349,-0.610723 -0.51738,-0.03963 -1.04658,0.08653 -1.17601,0.280361 -0.12943,0.193828 -0.39467,0.261269 -0.58942,0.149863 -0.20801,-0.118983 -0.3541,1.040651 -0.3541,2.810758 0,1.657321 0.12838,3.01115 0.28529,3.008506 0.1569,-0.0028 0.65196,-0.09587 1.10011,-0.207165 z m 10.32465,-3.203702 c 1.14663,-0.665297 1.3949,-0.850922 3.97183,-2.969589 1.91472,-1.574216 1.922,-1.607011 0.98795,-4.449659 l -0.37892,-1.153199 -0.67798,0.801136 c -1.49745,1.769453 -5.70218,8.370482 -5.33184,8.370482 0.21797,0 0.861,-0.269627 1.42896,-0.599171 z m -13.09604,-6.002002 c -0.0496,-1.113398 -0.10044,-2.124705 -0.11289,-2.247346 -0.0124,-0.122641 -0.38873,-0.311597 -0.83619,-0.419895 -0.85344,-0.206566 -6.03328,1.974603 -6.03328,2.540544 0,0.569433 0.98468,1.063391 2.59487,1.301702 0.88339,0.130745 1.69806,0.375337 1.81038,0.543535 0.11231,0.168202 0.75842,0.30582 1.43579,0.30582 h 1.23158 z m 5.24572,1.40487 c 0.4027,-0.379161 2.60777,-5.57482 2.6009,-6.12835 -0.004,-0.315673 -0.0974,-0.343096 -0.28528,-0.08371 -0.15371,0.21215 -0.79298,0.610354 -1.4206,0.884899 -0.62763,0.274546 -1.16254,0.695074 -1.18869,0.934505 -0.0262,0.239434 -0.0879,0.554157 -0.1372,0.699383 -0.0493,0.145225 -0.0604,0.606804 -0.0246,1.025734 0.0868,1.01744 -1.31144,1.443675 -2.2252,0.678294 -1.01512,-0.85028 -1.17902,-0.701213 -1.17902,1.072309 v 1.632138 l 1.79143,-0.227264 c 0.98529,-0.124996 1.91602,-0.344567 2.06829,-0.487934 z m -12.60846,-1.844949 c 0,-0.193634 -0.18127,-0.352062 -0.40282,-0.352062 -0.22156,0 -0.29704,0.158428 -0.16774,0.352062 0.30123,0.451126 0.57056,0.451126 0.57056,0 z m 12.90636,-4.723236 c 0.35806,-0.399313 0.28263,-0.546768 -0.37913,-0.741166 -0.89747,-0.263639 -2.73685,0.453773 -2.41174,0.940648 0.32311,0.483889 2.30514,0.342219 2.79087,-0.199482 z m -7.95487,-2.14929 c 0.25684,-0.286434 0.69267,-0.520788 0.96852,-0.520788 0.70992,0 1.08744,-0.696296 0.61474,-1.133807 -0.21888,-0.202581 -0.7945,-0.386812 -1.27917,-0.409403 -0.48467,-0.0226 -0.89599,-0.1995 -0.91406,-0.393135 -0.0579,-0.61995 -0.63617,-1.741791 -1.22506,-2.376422 -0.59657,-0.642898 -1.81533,-0.768947 -3.82967,-0.396071 -0.98428,0.182203 -1.18868,0.385924 -1.18868,1.18474 0,0.530587 0.34234,1.367521 0.76076,1.859852 0.41841,0.492331 0.76075,1.119795 0.76075,1.394361 0,0.55408 1.40351,1.853195 2.26642,2.09785 0.64992,0.184266 2.39558,-0.560125 3.06545,-1.307177 z m -14.7372,-8.394331 c 0.2852,-2.557573 1.58266,-5.209759 3.80182,-7.771401 2.77789,-3.206605 7.48254,-5.821912 11.4043,-6.339626 l 1.80681,-0.238518 v -2.657416 -2.657415 l -1.42643,0.211613 c -0.78453,0.116387 -2.1111,0.290477 -2.94794,0.386867 -1.314,0.151352 -2.69534,0.563624 -6.49625,1.938852 -1.54512,0.559049 -5.38005,3.835044 -7.27463,6.214359 -2.90458,3.647731 -4.29298,6.768348 -4.87307,10.952835 l -0.25622,1.848328 h 3.02551 3.02551 z m 6.94043,-0.112807 c 0.53848,-2.219444 1.27689,-3.314815 3.66194,-5.432192 1.26927,-1.126822 2.38577,-1.757491 3.64471,-2.058762 0.99819,-0.238874 2.02886,-0.493078 2.29037,-0.564897 0.32264,-0.08861 0.47548,-0.936218 0.47548,-2.637013 v -2.506434 l -1.61662,0.244204 c -5.45502,0.824027 -9.90171,3.88886 -12.44863,8.580084 -0.86339,1.590285 -1.94284,5.630996 -1.63696,6.127644 0.0947,0.153693 1.30043,0.232907 2.67949,0.176031 l 2.50738,-0.103411 z m 6.33396,0.781008 c 0.5448,-1.238514 1.15951,-1.761559 2.90731,-2.473792 1.24493,-0.507309 1.25859,-0.538153 1.0806,-2.44045 -0.23223,-2.482171 -0.5006,-2.884355 -1.41411,-2.119188 -0.38986,0.32655 -0.96648,0.502218 -1.28138,0.390373 -0.31491,-0.111844 -0.66911,-0.05876 -0.78711,0.117957 -0.11801,0.176721 -0.42304,0.251827 -0.67785,0.166902 -0.67103,-0.223648 -1.93131,0.79508 -3.68314,2.97723 -2.44056,3.040045 -1.8789,4.632635 1.59114,4.511663 1.61495,-0.0563 1.84175,-0.169543 2.26454,-1.130695 z m 14.45985,1.037501 c 0.44112,-0.40828 -0.73077,-3.793817 -1.70397,-4.922688 -1.34826,-1.563936 -3.97622,-2.977972 -5.94211,-3.19729 -1.47186,-0.164203 -2.11548,0.256061 -1.07824,0.70407 0.38038,0.164296 0.38038,0.246444 0,0.410739 -0.26151,0.112954 -0.47548,0.795383 -0.47548,1.51651 0,1.15633 0.20478,1.444734 1.73432,2.442595 0.9817,0.640451 1.90572,1.586546 2.1293,2.180148 0.38129,1.012342 0.47719,1.048692 2.76684,1.048692 1.30452,0 2.46072,-0.08225 2.56934,-0.182776 z m 13.44496,-4.224427 c -0.32943,-1.314726 -0.95191,-3.118549 -1.38328,-4.008496 l -0.78431,-1.618085 -0.59833,1.363723 c -0.71255,1.624059 -0.40864,2.66965 1.7619,6.061686 1.1021,1.722336 1.39494,1.991629 1.4876,1.368027 0.0635,-0.427045 -0.15415,-1.852131 -0.48358,-3.166855 z m -14.34702,-4.143915 c -0.025,-1.009101 0.0798,-2.349751 0.23303,-2.979222 0.22815,-0.937413 0.15262,-1.179633 -0.41741,-1.338695 -0.38277,-0.10681 -1.38064,-0.494077 -2.21747,-0.860593 -2.05539,-0.900218 -4.53896,-1.463605 -5.28458,-1.198784 -0.47968,0.170366 -0.61131,0.739663 -0.61131,2.643888 0,2.242851 0.0615,2.426771 0.81173,2.426771 1.66126,0 3.85729,0.870404 5.39801,2.139517 0.87342,0.719449 1.71078,1.239185 1.86078,1.154968 0.15001,-0.08422 0.25226,-0.978749 0.22722,-1.98785 z m 13.23333,-2.971597 c -0.38666,-0.357877 -0.7057,0.180922 -0.38845,0.656027 0.23965,0.358898 0.32925,0.359176 0.45809,0.0014 0.0881,-0.244608 0.0568,-0.540459 -0.0696,-0.657446 z m -15.44499,-4.459662 c 0,-0.815316 2.23361,-3.029003 3.05627,-3.029003 0.81614,0 0.2907,-0.588023 -0.86909,-0.972591 -1.88625,-0.62545 -6.05243,-1.480807 -7.24098,-1.486644 l -1.0598,-0.0052 0.068,2.494759 c 0.0404,1.480622 0.23924,2.534862 0.48923,2.593413 2.41149,0.564797 5.04136,1.164627 5.27106,1.20224 0.1569,0.02569 0.28528,-0.332943 0.28528,-0.79697 z"
   style="fill:#000000;stroke-width:0.365947" /></svg>
