<?xml version="1.0" encoding="UTF-8" standalone="no"?>
<svg
   xmlns:dc="http://purl.org/dc/elements/1.1/"
   xmlns:cc="http://creativecommons.org/ns#"
   xmlns:rdf="http://www.w3.org/1999/02/22-rdf-syntax-ns#"
   xmlns:svg="http://www.w3.org/2000/svg"
   xmlns="http://www.w3.org/2000/svg"
   xmlns:sodipodi="http://sodipodi.sourceforge.net/DTD/sodipodi-0.dtd"
   xmlns:inkscape="http://www.inkscape.org/namespaces/inkscape"
   version="1.1"
   id="svg1251"
   width="481.56088"
   height="482.0961"
   viewBox="0 0 481.56088 482.0961"
   sodipodi:docname="ЗАПЧАСТИ.svg"
   inkscape:version="1.0 (4035a4fb49, 2020-05-01)">
  <metadata
     id="metadata1257">
    <rdf:RDF>
      <cc:Work
         rdf:about="">
        <dc:format>image/svg+xml</dc:format>
        <dc:type
           rdf:resource="http://purl.org/dc/dcmitype/StillImage" />
        <dc:title></dc:title>
      </cc:Work>
    </rdf:RDF>
  </metadata>
  <defs
     id="defs1255" />
  <sodipodi:namedview
     inkscape:document-rotation="0"
     pagecolor="#ffffff"
     bordercolor="#666666"
     borderopacity="1"
     objecttolerance="10"
     gridtolerance="10"
     guidetolerance="10"
     inkscape:pageopacity="0"
     inkscape:pageshadow="2"
     inkscape:window-width="1920"
     inkscape:window-height="1018"
     id="namedview1253"
     showgrid="false"
     inkscape:zoom="0.87278295"
     inkscape:cx="613.57082"
     inkscape:cy="290.40769"
     inkscape:window-x="-6"
     inkscape:window-y="-6"
     inkscape:window-maximized="1"
     inkscape:current-layer="g1259" />
  <g
     transform="translate(388.51045,-13.217958)"
     inkscape:groupmode="layer"
     inkscape:label="Image"
     id="g1259">
    <path
       id="path8"
       d="m -186.52401,494.64075 c -1.0568,-0.3703 -2.08135,-0.84593 -2.27678,-1.05692 -0.19543,-0.21099 -0.4998,-0.38361 -0.67639,-0.38361 -0.17659,0 -0.92522,-0.62033 -1.66362,-1.37851 -1.61811,-1.66143 -2.67455,-4.07316 -2.9272,-6.68247 -0.10188,-1.05218 -0.35503,-2.67264 -0.56256,-3.601 -0.20753,-0.92835 -0.46328,-2.58558 -0.56833,-3.68273 -0.10505,-1.09714 -0.3608,-2.75437 -0.56833,-3.68272 -0.20752,-0.92836 -0.45931,-2.58559 -0.55952,-3.68273 -0.10022,-1.09715 -0.36,-2.89248 -0.5773,-3.98963 -0.2173,-1.09714 -0.53315,-3.03057 -0.70188,-4.29651 -0.50447,-3.78493 -1.59547,-10.96078 -2.47295,-16.26539 -0.23734,-1.43472 -0.55439,-3.64436 -0.70457,-4.9103 -0.15017,-1.26594 -0.39383,-2.78506 -0.54146,-3.37583 -0.14763,-0.59077 -0.34991,-1.90275 -0.44951,-2.9155 -0.27354,-2.78159 -1.01962,-6.22138 -1.42822,-6.58478 -0.43854,-0.39003 -3.18304,-1.44019 -5.21852,-1.99683 -0.8142,-0.22269 -1.62105,-0.49803 -1.79299,-0.61189 -0.33784,-0.22376 -5.34462,-2.18162 -6.7502,-2.63963 -0.47254,-0.15396 -1.11691,-0.4159 -1.43194,-0.58208 -0.31502,-0.16615 -2.02077,-0.92541 -3.79056,-1.68721 -1.76978,-0.76177 -3.44514,-1.51701 -3.72303,-1.67828 -1.06415,-0.6175 -3.70527,-1.82888 -4.38764,-2.0124 -0.55456,-0.14915 -1.22274,0.16818 -2.99781,1.42381 -1.25631,0.88864 -2.34864,1.68988 -2.4274,1.7805 -0.0788,0.0906 -0.52982,0.45215 -1.00236,0.80336 -0.47253,0.35124 -1.56797,1.17589 -2.43429,1.83259 -0.86632,0.65669 -2.42436,1.81939 -3.46231,2.5838 -1.65014,1.21524 -3.27955,2.45165 -9.71812,7.37423 -0.77271,0.59077 -2.06319,1.55749 -2.86774,2.14826 -0.80454,0.59077 -2.3234,1.76774 -3.37525,2.6155 -1.05185,0.84774 -2.49238,1.95219 -3.20119,2.4543 -0.70881,0.50211 -1.35318,0.98583 -1.43194,1.07495 -0.0788,0.0891 -1.04531,0.82377 -2.14791,1.63253 -1.10259,0.80879 -2.97127,2.2189 -4.15261,3.1336 -8.84496,6.84859 -8.62293,6.73752 -13.45204,6.72976 -3.56101,-0.006 -3.59988,-0.0135 -5.16315,-1.03335 -0.86632,-0.56517 -3.29852,-2.6341 -5.40487,-4.59764 -2.10636,-1.96354 -4.74717,-4.38131 -5.86847,-5.37285 -1.12131,-0.99152 -2.87753,-2.60019 -3.90273,-3.5748 -1.02519,-0.9746 -3.02386,-2.85359 -4.44148,-4.1755 -1.41761,-1.32195 -2.64192,-2.48413 -2.72068,-2.58261 -0.0788,-0.0985 -1.3675,-1.34278 -2.86387,-2.76508 -1.49638,-1.4223 -3.49393,-3.36461 -4.43901,-4.31619 -0.94508,-0.95159 -2.80669,-2.81738 -4.13691,-4.14617 -7.15913,-7.1514 -15.95677,-16.93291 -19.46175,-21.63821 -2.64384,-3.54926 -3.17238,-4.99246 -3.17577,-8.6715 -0.002,-2.51037 0.10717,-3.27997 0.63305,-4.44997 1.02727,-2.28544 4.9655,-7.71795 13.0394,-17.9869 12.70833,-16.16338 21.23629,-27.38385 21.25371,-27.96413 0.0101,-0.3346 -1.4772,-3.4702 -2.96658,-6.25456 -0.40631,-0.75956 -0.82314,-1.58817 -0.9263,-1.84136 -0.10316,-0.25319 -0.92409,-2.11757 -1.8243,-4.14307 -0.9002,-2.0255 -1.99068,-4.63969 -2.42328,-5.80932 -0.4326,-1.1696 -0.88693,-2.34347 -1.00964,-2.6086 -0.1227,-0.2651 -0.47693,-1.24157 -0.78718,-2.16993 -0.31024,-0.92835 -0.83124,-2.44747 -1.15779,-3.37583 -0.32654,-0.92835 -0.67767,-2.13506 -0.78029,-2.68158 -0.26991,-1.43746 -1.27542,-2.12601 -3.65813,-2.50496 -1.13797,-0.18101 -2.90671,-0.4712 -3.93054,-0.64494 -1.02384,-0.17373 -3.47245,-0.52518 -5.44137,-0.78098 -1.96891,-0.25583 -4.0309,-0.5982 -4.5822,-0.76079 -0.55129,-0.16262 -1.56763,-0.29646 -2.25853,-0.29738 -0.69089,0 -2.9462,-0.2802 -5.01178,-0.62054 -2.06558,-0.34035 -4.65773,-0.7669 -5.76032,-0.94787 -2.35767,-0.38697 -6.97017,-1.04326 -10.59633,-1.50768 -1.41762,-0.18156 -3.73736,-0.52765 -5.15498,-0.76908 -1.41762,-0.24143 -3.35073,-0.52015 -4.29581,-0.61937 -0.94508,-0.0992 -2.3627,-0.31033 -3.15026,-0.46915 -0.78757,-0.15882 -2.40315,-0.41894 -3.59019,-0.57804 -1.18704,-0.15909 -2.54022,-0.50269 -3.00707,-0.76358 -0.46685,-0.26086 -1.00663,-0.47516 -1.19951,-0.47618 -0.71156,-0.004 -3.71287,-3.55607 -4.5393,-5.37254 l -0.83776,-1.84137 v -37.74796 -37.74797 l 1.00236,-1.98829 c 0.55129,-1.09355 1.61459,-2.64912 2.36288,-3.45681 1.42259,-1.5355 3.95723,-2.99449 5.20222,-2.99449 0.40068,0 1.72989,-0.19453 2.95382,-0.4323 1.22393,-0.23776 4.15844,-0.72707 6.52113,-1.08734 2.3627,-0.36028 5.19794,-0.80064 6.30053,-0.97858 1.10259,-0.17795 3.5512,-0.51229 5.44136,-0.74298 1.89016,-0.23069 3.6944,-0.49528 4.00943,-0.58797 0.55681,-0.16384 4.06349,-0.70817 9.0212,-1.40032 1.33886,-0.18692 3.43569,-0.53683 4.65961,-0.77757 1.22393,-0.24074 2.72151,-0.43771 3.32796,-0.43771 0.60645,0 2.56917,-0.2633 4.36159,-0.58512 1.79243,-0.32182 3.96777,-0.67074 4.83409,-0.77539 0.86632,-0.10465 2.2195,-0.32077 3.00707,-0.48028 0.78757,-0.15951 1.92115,-0.37044 2.51907,-0.46874 0.76404,-0.12562 1.15903,-0.37903 1.32904,-0.85269 0.25173,-0.70129 0.6529,-1.85678 1.72568,-4.97047 1.48315,-4.30477 3.5841,-9.37049 6.10948,-14.73091 0.79521,-1.68792 1.70261,-3.62135 2.01646,-4.29652 0.31385,-0.67517 0.72451,-1.43473 0.91257,-1.68792 0.18807,-0.25319 0.49026,-0.93347 0.67154,-1.51173 0.3137,-1.00065 0.26952,-1.13397 -0.91514,-2.76205 -0.68462,-0.94086 -1.36241,-1.93915 -1.5062,-2.21842 -0.1438,-0.27927 -0.68302,-1.03883 -1.19828,-1.68791 -0.51525,-0.64909 -1.54073,-2.00877 -2.27884,-3.02152 -0.73812,-1.01275 -1.41271,-1.91042 -1.4991,-1.99481 -0.0864,-0.0844 -0.52998,-0.70586 -0.98575,-1.38102 -0.45577,-0.67517 -0.97508,-1.36568 -1.15403,-1.53447 -0.17894,-0.1688 -1.41624,-1.73571 -2.74954,-3.48203 -1.3333,-1.74632 -3.17826,-4.16311 -4.09991,-5.37064 -0.92165,-1.20754 -1.76221,-2.26457 -1.86791,-2.34897 -0.1057,-0.0844 -0.83367,-0.98145 -1.61773,-1.99346 -1.31482,-1.69709 -4.03206,-5.09765 -8.70661,-10.89609 -1.02056,-1.26593 -2.33086,-2.85411 -2.91177,-3.52928 -3.19193,-3.70985 -4.63658,-6.62101 -4.63263,-9.33528 0.002,-1.29875 0.7353,-3.73498 1.57812,-5.24218 0.61237,-1.09511 4.52506,-6.50593 5.34778,-7.39539 0.24942,-0.26966 1.8882,-2.13404 3.64174,-4.14307 5.89359,-6.752318 15.91483,-17.202421 25.44168,-26.530481 2.1749,-2.129519 2.0252,-1.986509 4.16144,-3.975542 0.99705,-0.928354 1.96428,-1.848343 2.14939,-2.044417 1.54257,-1.633935 11.13747,-9.329125 13.43289,-10.773288 4.6345,-2.915794 5.55711,-3.243456 8.64532,-3.070358 1.78546,0.100078 2.83412,0.307722 3.2928,0.651996 0.37016,0.277834 0.8354,0.505154 1.03387,0.505154 0.44158,0 6.3837,4.286223 9.10568,6.568198 0.63005,0.528205 1.98324,1.575189 3.00707,2.326634 1.65538,1.214966 5.88802,4.494721 11.88508,9.209421 1.10259,0.866822 2.71352,2.11101 3.57985,2.764863 1.83616,1.385835 2.76729,2.106346 9.30759,7.202278 2.67772,2.08637 5.73013,4.495654 6.78312,5.353963 1.05299,0.858309 2.13594,1.560562 2.40656,1.560562 0.27061,0 1.34219,-0.428519 2.38128,-0.952267 2.65544,-1.338457 4.87011,-2.409533 6.04187,-2.922006 0.5513,-0.241111 1.36721,-0.641909 1.81313,-0.890656 0.44593,-0.248749 0.94731,-0.452269 1.11418,-0.452269 0.16688,0 0.83302,-0.258583 1.48033,-0.574629 2.29773,-1.121863 3.19553,-1.494429 4.13283,-1.715037 0.52189,-0.122834 1.29462,-0.416624 1.71717,-0.652862 0.42256,-0.236238 0.94211,-0.430376 1.15458,-0.431416 0.21246,-9.21e-4 0.7924,-0.202872 1.28874,-0.448517 1.36402,-0.675062 3.30119,-1.384862 5.04855,-1.849846 1.95795,-0.521024 2.58173,-1.287829 2.59084,-3.184894 0.004,-0.783062 0.13087,-1.976159 0.28248,-2.651325 0.15161,-0.675167 0.47072,-3.070622 0.70914,-5.323237 0.23842,-2.252611 0.49118,-4.19568 0.56168,-4.317931 0.0705,-0.122252 0.26956,-1.73176 0.44234,-3.576691 0.17279,-1.84493 0.44342,-3.87697 0.60142,-4.515645 0.158,-0.638674 0.40554,-2.295901 0.5501,-3.682728 0.14456,-1.386826 0.45463,-3.695372 0.68903,-5.130102 0.2344,-1.434729 0.70286,-4.334878 1.04101,-6.444774 0.33816,-2.109897 0.79748,-4.802892 1.02071,-5.984434 0.22324,-1.181542 0.5186,-2.907821 0.65635,-3.836175 0.2911,-1.961777 1.03202,-5.385002 1.59415,-7.365457 0.21559,-0.759563 0.47122,-1.892987 0.56805,-2.518722 0.42327,-2.735107 2.41091,-6.079767 4.41255,-7.42512 0.57219,-0.384578 1.93194,-0.997535 3.02168,-1.362128 l 1.98135,-0.662897 h 36.75142 c 36.53547,0 36.76158,0.0038 38.48085,0.641359 4.49199,1.665864 7.11988,4.544361 7.57237,8.29452 0.1096,0.908582 0.38181,2.431463 0.60488,3.384179 0.22304,0.952719 0.40412,2.126588 0.4024,2.608599 -0.003,0.482014 0.25042,2.395511 0.56032,4.25222 0.49972,2.993729 0.84802,5.210628 2.00105,12.736102 0.16811,1.097146 0.50123,3.439205 0.74031,5.204576 0.23905,1.765371 0.55101,3.698803 0.69323,4.296516 0.14222,0.597713 0.34401,1.984417 0.44842,3.081563 0.10439,1.097146 0.36056,2.754374 0.56923,3.682728 0.20866,0.928355 0.46495,2.610487 0.56954,3.738068 0.10456,1.127584 0.37261,2.784811 0.59565,3.682728 0.22304,0.89792 0.40705,2.081672 0.40891,2.630564 0.003,0.837283 0.28332,2.603517 1.30956,8.246709 0.11942,0.656716 0.98177,1.175545 2.75055,1.654837 0.52529,0.142337 2.43713,0.830207 4.24853,1.528602 1.8114,0.698393 3.87339,1.452873 4.5822,1.676621 1.26011,0.397777 2.66916,0.986544 4.48228,1.872909 0.49637,0.24264 1.0564,0.441167 1.24456,0.441167 0.18818,0 0.68418,0.190004 1.10227,0.422231 1.4149,0.785903 3.39905,1.726027 3.64285,1.726027 0.19884,0 2.71315,1.240103 5.06067,2.496 0.27353,0.146327 0.67324,0.266046 0.88832,0.266046 0.39968,0 3.27315,-2.011939 6.34686,-4.443936 0.94508,-0.747772 2.74932,-2.114423 4.00942,-3.036999 1.26011,-0.922578 3.03061,-2.238601 3.93448,-2.924497 0.90387,-0.685893 2.32149,-1.75854 3.15026,-2.383655 0.82878,-0.625113 2.2157,-1.671201 3.08202,-2.324634 0.86632,-0.653435 2.2195,-1.664798 3.00707,-2.247477 0.78756,-0.582681 1.68968,-1.270925 2.00471,-1.529434 1.50479,-1.234828 4.45805,-3.480595 8.01885,-6.09784 1.26011,-0.926197 3.12878,-2.320877 4.15262,-3.099292 1.02383,-0.778412 2.31258,-1.740905 2.86387,-2.138867 0.5513,-0.397965 1.90448,-1.419317 3.00707,-2.269672 4.26156,-3.286663 4.12015,-3.23144 8.30524,-3.243056 3.02803,-0.0084 3.8834095,0.08925 4.5821995,0.52311 0.47254,0.293394 0.95714,0.534293 1.0769,0.535333 0.55047,0.0048 4.58226,3.399159 7.65723002,6.446666 0.25549,0.253187 1.22043998,1.150852 2.14432998,1.994811 0.92391,0.843958 1.81833,1.682138 1.98761,1.862619 0.2713,0.289291 3.64663,3.495161 6.4418305,6.118433 10.00025,9.385175 25.52377,25.422033 30.66672,31.680828 2.69513,3.27987 6.21094,7.92113 6.61841,8.73699 0.14457,0.28947 0.46069,1.55142 0.70248,2.80433 0.39702,2.05737 0.39605,2.4793 -0.01,4.35613 -0.42729,1.97435 -1.93521,5.10497 -2.99756,6.22324 -0.27006,0.2843 -0.86701,1.06932 -1.32655,1.74449 -0.45951,0.67517 -0.9047,1.29663 -0.98929,1.38102 -0.0846,0.0844 -1.25516,1.60859 -2.60123,3.3871 -3.44991,4.55826 -3.4252,4.52611 -4.6943,6.10283 -0.63005,0.78277 -1.59661,2.02865 -2.1479,2.76861 -0.5513,0.73996 -1.42498,1.86186 -1.94151,2.49311 -0.51656,0.63124 -1.61199,2.03862 -2.43429,3.12752 -1.91313,2.53326 -5.71366,7.39291 -5.93822,7.59304 -0.0947,0.0844 -1.76463,2.29403 -3.71095,4.9103 -1.94632,2.61627 -3.68143,4.89496 -3.85584,5.06375 -0.70354,0.68095 -2.16543,3.06679 -2.15257,3.51302 0.007,0.26213 0.23309,0.92489 0.50118,1.47279 3.15676,6.4517 7.2308,15.53843 7.77284,17.33646 0.1901,0.63062 0.46512,1.2257 0.61115,1.32241 0.146,0.0967 0.26628,0.40936 0.26726,0.69479 0,0.28542 0.207,0.93326 0.45785,1.43963 0.25084,0.50638 0.62733,1.47309 0.83665,2.14826 1.5383,4.96212 2.00755,5.94409 2.94025,6.15306 0.42638,0.0955 1.29075,0.29453 1.9208,0.44221 0.63006,0.14768 2.11211,0.35361 3.29346,0.45762 1.18135,0.10401 3.30778,0.38789 4.72539,0.63084 2.74998,0.4713 5.0654,0.83166 9.88037,1.53773 1.65389,0.24252 3.58701,0.57194 4.29582,0.73203 0.7088,0.16009 2.2553,0.37463 3.43665,0.47676 1.18134,0.10212 3.11446,0.37975 4.29581,0.61694 1.18135,0.23719 3.24334,0.58082 4.5822,0.76363 3.00924,0.41088 7.33341,1.08582 13.88979,2.16798 1.10259,0.18199 3.2436,0.51626 4.75781,0.74282 4.25506,0.63666 7.05739,2.40824 8.98475,5.67997 1.60022,2.71644 1.57917,2.17351 1.57917,40.72179 0,38.56535 0.0517,37.25374 -1.59383,40.40883 -0.87168,1.67125 -2.7596,3.67665 -4.40298,4.67694 -1.12685,0.68591 -2.36178,0.96797 -7.32021,1.67208 -4.87328,0.69199 -10.71258,1.56924 -13.31701,2.00061 -5.28635,0.8756 -6.46996,1.05599 -9.02121,1.37489 -1.41762,0.1772 -3.67292,0.51767 -5.01178,0.75655 -1.33886,0.23892 -3.20754,0.51414 -4.15262,0.61161 -0.94508,0.0975 -2.81376,0.37282 -4.15262,0.61186 -4.30489,0.76855 -8.3825,1.40385 -11.02592,1.71781 -3.75339,0.44579 -6.29187,0.99255 -6.82831,1.47075 -0.25875,0.23067 -0.61289,0.98621 -0.78699,1.67899 -0.17407,0.69278 -0.49717,1.53604 -0.718,1.8739 -0.22084,0.33786 -0.40152,0.80436 -0.40152,1.03668 0,0.23232 -0.21041,0.92661 -0.46755,1.54291 -0.25715,0.61628 -0.70821,1.70744 -1.00236,2.4248 -0.29415,0.71737 -0.79255,1.90032 -1.10757,2.62877 -0.31503,0.72847 -0.57278,1.42055 -0.57278,1.53796 0,0.47379 -4.07673,9.38688 -5.63906,12.32883 -0.83986,1.58155 -1.23424,2.55145 -1.23424,3.03539 0,0.30561 2.69708,4.24641 4.95889,7.24556 0.19093,0.25319 0.79644,1.0818 1.34559,1.84136 0.54912,0.75956 1.06894,1.45008 1.15517,1.53447 0.0862,0.0844 1.23359,1.60352 2.54968,3.37584 1.31606,1.77231 2.53427,3.36049 2.70708,3.52928 0.17283,0.16879 1.04557,1.27361 1.93944,2.45515 0.89387,1.18154 1.86424,2.42446 2.15636,2.76205 0.29214,0.33758 1.22233,1.51145 2.06711,2.6086 0.84476,1.09714 1.61972,2.06386 1.72211,2.14825 0.10238,0.0844 0.76059,0.91768 1.46267,1.85174 1.32646,1.76479 2.83472,3.65345 6.71784,8.41212 5.53544,6.78352 5.94664,7.36856 6.95441,9.8946 0.8435,2.11432 0.84965,4.80114 0.016,6.94477 -0.74063,1.90424 -4.52848,7.0515 -8.83185,12.00152 -3.34827,3.85139 -15.23561,16.53895 -19.1572,20.44681 -2.10953,2.10213 -4.2404,4.23637 -4.73531,4.74274 -1.70601,1.74562 -6.35843,6.14295 -8.6043705,8.13269 -1.23845,1.09715 -2.7779,2.49266 -3.42101,3.10111 -0.64311,0.60848 -2.13585,1.88043 -3.3172,2.82658 -1.18134998,0.94613 -2.47008998,1.98042 -2.86386998,2.29839 -2.32951002,1.88111 -4.92406002,3.65723 -6.97067002,4.77181 -2.3240695,1.26569 -2.3542495,1.27266 -5.4871895,1.26541 -2.28079,-0.005 -3.38739,-0.13908 -4.00942,-0.48483 -0.47254,-0.26264 -1.50354,-0.83457 -2.2911,-1.27094 -1.34588,-0.74572 -2.88822,-1.90848 -9.46666,-7.13688 -1.48661,-1.18154 -3.67787,-2.90782 -4.86941,-3.83618 -1.19155,-0.92835 -3.38141,-2.65463 -4.86636,-3.83617 -1.48495,-1.18154 -3.34841,-2.63162 -4.14102,-3.22239 -1.24767,-0.92995 -5.31675,-4.13202 -6.15447,-4.84312 -0.15751,-0.13372 -1.1885,-0.92636 -2.2911,-1.76142 -1.10259,-0.83509 -2.13358,-1.62939 -2.2911,-1.76516 -0.15751,-0.13574 -1.63956,-1.30225 -3.29345,-2.59222 -7.36062,-5.74097 -7.1838,-5.63346 -8.23754,-5.00851 -0.2735,0.1622 -1.27053,0.65412 -2.21561,1.09313 -0.94507,0.43904 -1.94568,0.93016 -2.22357,1.09141 -0.27788,0.16127 -1.88881,0.89947 -3.57984,1.64044 -1.69103,0.74096 -3.46122,1.56632 -3.93376,1.83415 -0.47254,0.2678 -1.09704,0.48778 -1.38775,0.48879 -0.29071,0 -0.87064,0.19936 -1.28874,0.4407 -0.4181,0.24134 -1.14678,0.57659 -1.61932,0.74499 -0.47254,0.16839 -1.56797,0.60629 -2.4343,0.97309 -0.86632,0.3668 -2.2195,0.85338 -3.00707,1.08125 -2.42739,0.70236 -4.26115,1.43918 -5.06344,2.03456 -0.63587,0.47188 -0.79556,0.87155 -0.93045,2.32862 -0.0896,0.96742 -0.41297,3.69239 -0.71871,6.05548 -1.04354,8.06582 -1.18757,9.20924 -1.59658,12.67454 -0.22511,1.90722 -0.47343,3.57887 -0.55182,3.7148 -0.0784,0.13589 -0.3373,1.93327 -0.57541,3.99419 -0.2381,2.06092 -0.49338,3.85195 -0.56727,3.98011 -0.0739,0.12816 -0.27588,1.46579 -0.4488,2.97248 -0.17292,1.50673 -0.50155,3.42055 -0.73032,4.25294 -0.22873,0.83239 -0.41589,1.94273 -0.41589,2.4674 0,0.52466 -0.19889,1.77228 -0.44201,2.77245 -0.24311,1.00016 -0.54972,2.58285 -0.68137,3.51703 -0.23352,1.65717 -0.65629,3.61475 -1.7917,8.29676 -1.24561,5.13627 -2.99435,7.53465 -6.82209,9.35622 -1.26486,0.60194 -1.98438,0.61446 -38.80551,0.67507 l -37.51676,0.0618 -1.92146,-0.67329 z m 48.93738,-160.67014 c 3.05521,-0.33614 7.35371,-1.12562 9.40242,-1.72689 0.78756,-0.23115 2.01187,-0.51678 2.72068,-0.63475 0.70881,-0.11797 1.63676,-0.40531 2.06207,-0.63852 0.42535,-0.23324 0.98581,-0.42407 1.24547,-0.42407 0.25967,0 0.87821,-0.18653 1.37458,-0.41452 0.49634,-0.22799 1.67568,-0.72203 2.62076,-1.09788 0.94508,-0.37589 2.24794,-0.94889 2.89523,-1.2734 0.64732,-0.32454 1.29467,-0.59003 1.43861,-0.59003 0.32657,0 6.34509,-3.26968 8.23949,-4.47627 1.74178,-1.10939 6.49942,-4.45254 6.94065,-4.87716 0.17931,-0.17256 0.56593,-0.52135 0.85917,-0.77512 0.29323,-0.25377 1.56413,-1.35334 2.82424,-2.44349 4.68404,-4.05235 11.95335,-12.44115 15.00461,-17.31536 2.4243,-3.87267 3.05212,-4.99446 5.00044,-8.9347 2.4302,-4.91485 4.48451,-11.24507 5.67686,-17.49296 0.16106,-0.84396 0.48262,-2.50118 0.71456,-3.68273 1.03235,-5.25852 1.01599,-20.69907 -0.0272,-25.7791 -0.24263,-1.18154 -0.44342,-2.47207 -0.44614,-2.86785 -0.007,-1.09547 -1.93649,-8.23068 -3.08259,-11.40272 -2.4041,-6.65375 -6.13596,-13.75046 -9.92504,-18.87398 -0.49932,-0.67517 -1.11282,-1.57283 -1.36335,-1.99481 -1.04884,-1.76667 -8.59821,-9.75852 -11.80836,-12.50047 -1.90671,-1.62862 -3.53118,-3.0384 -3.60994,-3.13285 -0.15625,-0.1874 -3.07245,-2.2663 -6.01414,-4.28737 -1.55187,-1.06621 -7.06125,-4.08222 -10.45314,-5.72238 -1.96826,-0.95176 -7.78444,-2.97613 -10.48654,-3.64993 -0.88471,-0.22061 -2.04457,-0.54363 -2.57748,-0.71782 -0.53294,-0.1742 -1.5489,-0.39871 -2.25771,-0.4989 -0.70881,-0.1002 -2.38418,-0.38205 -3.72304,-0.62634 -2.90308,-0.52968 -10.00574,-1.09692 -13.60341,-1.08641 -2.95713,0.009 -13.18994,0.7989 -13.5655,1.04763 -0.13789,0.0913 -1.45936,0.373 -2.93659,0.62595 -2.82548,0.48381 -3.99415,0.77054 -7.26807,1.78321 -3.35266,1.03701 -5.69052,1.86439 -6.44372,2.28043 -0.39378,0.21751 -0.90401,0.39633 -1.13385,0.39737 -0.65184,0.003 -9.93158,5.00704 -12.32636,6.64698 -2.53552,1.73632 -8.31852,6.262 -9.71639,7.60389 -1.82758,1.7544 -6.38918,6.45852 -7.60963,7.84739 -1.49158,1.69741 -3.17811,3.81278 -4.2146,5.28623 -0.27012,0.38401 -0.98152,1.38871 -1.58088,2.23267 -1.62021,2.28143 -1.92511,2.79323 -4.24214,7.12072 -1.88572,3.5218 -4.71184,9.85824 -4.71184,10.56424 0,0.18096 -0.17795,0.7642 -0.39545,1.29609 -0.57834,1.41436 -1.52791,4.7694 -1.75032,6.18426 -0.10613,0.67517 -0.36677,1.84904 -0.57921,2.6086 -0.21244,0.75956 -0.47025,2.14059 -0.57291,3.06894 -0.10266,0.92835 -0.36919,2.84535 -0.59229,4.25999 -0.54932,3.48314 -0.54925,15.00425 1.1e-4,18.48669 0.22317,1.41464 0.49686,3.46974 0.60821,4.56689 0.11135,1.09714 0.32618,2.34007 0.4774,2.76204 0.15122,0.42198 0.39861,1.57976 0.54975,2.57284 0.15115,0.99307 0.46254,2.19461 0.69198,2.67008 0.22945,0.47547 0.42155,1.18207 0.42689,1.57024 0.005,0.38816 0.25872,1.25816 0.56306,1.93332 0.30434,0.67517 0.55771,1.39653 0.56306,1.60297 0.0172,0.66501 4.2488,10.23618 5.19352,11.74692 0.26388,0.42198 0.97381,1.59585 1.57763,2.6086 1.03841,1.74166 2.81097,4.35907 3.6371,5.37065 0.20678,0.25319 1.1556,1.49611 2.1085,2.76205 4.15418,5.51887 13.44958,14.23828 18.7092,17.54988 0.86633,0.54545 2.00165,1.30071 2.52296,1.67832 0.5213,0.37763 1.74561,1.11473 2.72068,1.63798 0.97507,0.52329 1.96617,1.07465 2.20244,1.22528 0.44531,0.28387 1.54958,0.81139 5.07882,2.42608 2.61985,1.19864 8.4514,3.29034 9.95652,3.5713 0.63005,0.1176 1.72549,0.39028 2.4343,0.60593 2.11498,0.64353 6.48886,1.41577 10.45314,1.84554 4.07353,0.44165 15.07458,0.38 19.52272,-0.10941 z"
       style="fill:#000000;stroke-width:0.296464" />
  </g>
</svg>
