<?xml version="1.0" encoding="UTF-8" standalone="no"?>
<svg
   xmlns:dc="http://purl.org/dc/elements/1.1/"
   xmlns:cc="http://creativecommons.org/ns#"
   xmlns:rdf="http://www.w3.org/1999/02/22-rdf-syntax-ns#"
   xmlns:svg="http://www.w3.org/2000/svg"
   xmlns="http://www.w3.org/2000/svg"
   xmlns:sodipodi="http://sodipodi.sourceforge.net/DTD/sodipodi-0.dtd"
   xmlns:inkscape="http://www.inkscape.org/namespaces/inkscape"
   xml:space="preserve"
   width="60.469357mm"
   height="44.952148mm"
   version="1.1"
   style="clip-rule:evenodd;fill-rule:evenodd;image-rendering:optimizeQuality;shape-rendering:geometricPrecision;text-rendering:geometricPrecision"
   viewBox="0 0 81.691531 60.738053"
   id="svg3250"
   sodipodi:docname="ШИНОМОНТАЖ.svg"
   inkscape:version="1.0 (4035a4fb49, 2020-05-01)"><metadata
   id="metadata3254"><rdf:RDF><cc:Work
       rdf:about=""><dc:format>image/svg+xml</dc:format><dc:type
         rdf:resource="http://purl.org/dc/dcmitype/StillImage" /><dc:title></dc:title></cc:Work></rdf:RDF></metadata><sodipodi:namedview
   inkscape:document-rotation="0"
   pagecolor="#ffffff"
   bordercolor="#666666"
   borderopacity="1"
   objecttolerance="10"
   gridtolerance="10"
   guidetolerance="10"
   inkscape:pageopacity="0"
   inkscape:pageshadow="2"
   inkscape:window-width="1920"
   inkscape:window-height="1018"
   id="namedview3252"
   showgrid="false"
   inkscape:zoom="2.1814529"
   inkscape:cx="168.42834"
   inkscape:cy="124.88682"
   inkscape:window-x="-6"
   inkscape:window-y="-6"
   inkscape:window-maximized="1"
   inkscape:current-layer="svg3250" />
 <defs
   id="defs3244">
  <style
   type="text/css"
   id="style3242">
   <![CDATA[
    .fil0 {fill:black;fill-rule:nonzero}
   ]]>
  </style>
 </defs>
 
<path
   id="path40"
   d="M 17.069836,60.073286 C 11.443481,58.465531 6.9609708,55.23487 3.8268258,50.528706 c -4.26383502,-6.402481 -4.97477,-13.34839 -2.124004,-20.751719 1.326721,-3.445442 2.478005,-5.079437 5.806781,-8.241447 l 2.7219152,-2.585553 v -2.097796 c 0,-1.611175 0.179931,-2.326542 0.77567,-3.083902 0.742947,-0.944505 0.867373,-0.975509 2.949354,-0.734935 4.145378,0.479001 3.672082,0.751495 5.250407,-3.022849 3.006493,-7.189612 3.237713,-7.540834 6.081655,-9.23803349 1.28224,-0.76521 1.45959,-0.77189299726 20.484477,-0.77189299726 20.780349,0 19.74696,-0.0887500027 22.499275,1.93224798726 1.052215,0.7726295 2.649034,3.6023435 3.44871,6.1114435 0.250662,0.786494 0.927012,2.371714 1.502997,3.52271 0.96894,1.936246 1.118967,2.075005 2.006481,1.855784 0.52758,-0.130316 1.87526,-0.326574 2.99485,-0.43613 2.00889,-0.196578 2.04525,-0.183394 2.76927,1.004195 1.78516,2.928131 -0.0624,7.459592 -3.04134,7.459592 -0.65827,0 -0.65385,0.024 0.62609,3.396224 0.77988,2.054752 0.8192,2.664507 0.9347,14.494932 l 0.12057,12.349947 -0.96683,0.96683 c -0.9405,0.940493 -1.08066,0.96683 -5.145735,0.96683 -3.997746,0 -4.21538,-0.03883 -5.020403,-0.895738 -0.71191,-0.757791 -0.866052,-1.363409 -1.000893,-3.932471 L 67.341437,45.760242 H 55.785699 44.229965 l -1.461997,2.81014 c -2.023392,3.889214 -6.378768,8.153414 -10.065801,9.855077 -1.44625,0.667483 -3.618009,1.469221 -4.826132,1.781638 -2.93119,0.758002 -7.900635,0.696466 -10.806199,-0.133811 z M 29.733293,52.836152 C 36.488799,49.370225 40.063351,42.5564 38.881225,35.398338 38.055942,30.40108 34.589356,25.818789 29.720731,23.289591 c -2.477777,-1.287177 -2.559934,-1.302924 -6.798057,-1.302924 -4.187836,0 -4.353801,0.03057 -6.971198,1.284178 -5.875445,2.814051 -9.6567662,8.678826 -9.6504362,14.967688 0.0061,6.05026 4.0927332,12.125907 10.0079332,14.878883 2.645466,1.231221 2.736069,1.246293 6.79245,1.129914 3.911555,-0.112222 4.233638,-0.180758 6.63187,-1.411178 z M 18.632706,51.334084 c -3.396714,-0.974442 -6.77393,-3.775348 -8.44493,-7.003832 -0.7449079,-1.439213 -0.8335649,-2.098477 -0.8413259,-6.256204 -0.0084,-4.492438 0.02593,-4.706339 1.0286699,-6.412396 3.155208,-5.368243 9.143743,-8.455142 14.3676,-7.406041 9.198251,1.847272 14.334689,10.717268 10.960485,18.927411 -1.572227,3.825558 -4.998045,6.946081 -9.05219,8.245498 -1.584133,0.507739 -6.104832,0.454494 -8.018309,-0.09444 z m 3.396225,-4.340844 v -3.414465 l -1.303939,-0.544822 -1.30394,-0.544819 -2.271034,2.250846 c -1.249069,1.237967 -2.271034,2.452879 -2.271034,2.699806 0,0.939778 3.934117,2.865324 5.988081,2.930853 l 1.161866,0.03707 z m 4.851905,2.817805 c 1.939063,-0.656702 3.728032,-1.822901 3.728032,-2.43025 0,-0.21448 -1.027082,-1.407921 -2.282404,-2.652083 l -2.282404,-2.262115 -1.29257,0.467399 -1.29257,0.4674 v 3.503156 c 0,3.426694 0.01812,3.503156 0.83006,3.503156 0.456532,0 1.622868,-0.268499 2.591856,-0.596663 z m -10.950558,-5.99565 c 2.194018,-2.213695 2.268843,-2.347907 1.943264,-3.485599 L 17.534925,39.14654 13.855062,39.04435 c -3.390327,-0.09415 -3.665082,-0.05196 -3.492015,0.536246 0.103315,0.351141 0.293895,1.237077 0.423509,1.968749 0.239462,1.351754 2.052902,4.568394 2.575518,4.568394 0.157478,0 1.31317,-1.036056 2.568204,-2.302344 z m 17.204421,1.197059 c 0.691468,-0.971074 2.121635,-4.826193 2.121635,-5.719014 0,-0.179107 -1.56852,-0.324629 -3.4856,-0.323389 l -3.485599,0.0021 -0.644322,1.131787 -0.644322,1.13179 2.422221,2.440924 c 1.332221,1.342624 2.536236,2.441042 2.675588,2.441042 0.139352,0 0.607532,-0.497379 1.040399,-1.105285 z M 25.685776,40.78011 c 1.290175,-1.443831 1.514698,-2.509091 0.859397,-4.07745 -0.905849,-2.168 -3.483921,-3.295719 -5.344113,-2.33766 -1.848151,0.951857 -2.389605,1.791246 -2.389605,3.704479 0,1.543638 0.157015,1.983335 0.983117,2.753063 1.292444,1.204244 1.777945,1.370813 3.4856,1.195871 1.031067,-0.105629 1.702155,-0.451076 2.405604,-1.238303 z m -7.812234,-4.961809 c 0.325579,-1.137692 0.250754,-1.271904 -1.943264,-3.485598 -1.255034,-1.26629 -2.385304,-2.302346 -2.511711,-2.302346 -0.808389,0 -3.155434,5.083974 -3.182806,6.89433 -0.0023,0.154346 1.639023,0.234783 3.64746,0.178749 l 3.651704,-0.10188 z m 17.382792,1.069392 c 0,-1.552557 -2.415902,-6.857336 -3.122968,-6.857336 -0.441233,0 -4.741974,4.427728 -4.741974,4.881989 0,0.238661 0.156892,0.846585 0.348649,1.350942 0.34225,0.900189 0.414418,0.917017 3.932471,0.917017 1.971102,0 3.583822,-0.131674 3.583822,-0.292612 z m -14.282142,-3.827789 1.054739,-0.545426 v -3.434116 -3.434116 l -1.452332,0.194799 c -1.758988,0.235929 -5.314756,1.919757 -5.594738,2.649378 -0.195869,0.510428 3.982345,5.114908 4.641389,5.114908 0.162912,0 0.770836,-0.245442 1.350942,-0.545427 z m 7.46028,-1.748631 c 1.581139,-1.595319 2.205446,-2.47184 2.049687,-2.877741 -0.283522,-0.738847 -3.7684,-2.350452 -5.619381,-2.598721 L 23.45892,25.646246 v 3.592254 3.592253 l 0.983118,0.359066 c 1.545737,0.564551 1.593177,0.542229 3.992434,-1.878546 z m 43.930089,6.870024 c 0.269907,-0.269906 0.428997,-1.618372 0.428997,-3.636198 0,-4.647337 0.211023,-4.514742 -7.185083,-4.514742 -7.256864,0 -7.114812,-0.0903 -7.114812,4.522727 0,4.178112 -0.217022,4.05721 7.282733,4.05721 4.313802,0 6.287703,-0.128534 6.588165,-0.428997 z M 70.926524,21.966396 c 0.436998,-0.306085 0.794542,-0.914937 0.794542,-1.353006 0,-0.863389 -1.186641,-4.447848 -1.981008,-5.983982 -0.27085,-0.523771 -1.23319,-2.772345 -2.138528,-4.99683 C 65.709969,4.98486 64.98574,3.834037 63.588108,3.25512 62.86346,2.954961 57.812344,2.867776 45.318773,2.939783 L 28.050995,3.039303 26.88158,4.315602 c -0.643178,0.701964 -1.459176,2.069392 -1.813329,3.038728 -0.354153,0.969336 -1.182881,3.037527 -1.841617,4.59598 -0.658737,1.558454 -1.197703,2.966099 -1.197703,3.128102 0,0.162003 0.77057,0.294551 1.712377,0.294551 3.897344,0 10.040882,2.389482 13.374216,5.201799 l 2.25203,1.900025 15.382214,0.02406 c 13.369758,0.02091 15.486168,-0.04875 16.176756,-0.532456 z"
   style="fill:#000000;stroke-width:0.357497" /></svg>
