<?xml version="1.0" encoding="UTF-8" standalone="no"?>
<svg
   xmlns:dc="http://purl.org/dc/elements/1.1/"
   xmlns:cc="http://creativecommons.org/ns#"
   xmlns:rdf="http://www.w3.org/1999/02/22-rdf-syntax-ns#"
   xmlns:svg="http://www.w3.org/2000/svg"
   xmlns="http://www.w3.org/2000/svg"
   xmlns:sodipodi="http://sodipodi.sourceforge.net/DTD/sodipodi-0.dtd"
   xmlns:inkscape="http://www.inkscape.org/namespaces/inkscape"
   inkscape:version="1.0 (4035a4fb49, 2020-05-01)"
   sodipodi:docname="трек.svg"
   id="svg12"
   viewBox="0 0 111.80846 69.419996"
   style="clip-rule:evenodd;fill-rule:evenodd;image-rendering:optimizeQuality;shape-rendering:geometricPrecision;text-rendering:geometricPrecision"
   version="1.1"
   height="23.812538mm"
   width="38.35321mm"
   xml:space="preserve"><metadata
   id="metadata16"><rdf:RDF><cc:Work
       rdf:about=""><dc:format>image/svg+xml</dc:format><dc:type
         rdf:resource="http://purl.org/dc/dcmitype/StillImage" /><dc:title></dc:title></cc:Work></rdf:RDF></metadata><sodipodi:namedview
   inkscape:current-layer="svg12"
   inkscape:window-maximized="1"
   inkscape:window-y="-6"
   inkscape:window-x="-6"
   inkscape:cy="28.321137"
   inkscape:cx="72.478512"
   inkscape:zoom="6.8876168"
   showgrid="false"
   id="namedview14"
   inkscape:window-height="1018"
   inkscape:window-width="1920"
   inkscape:pageshadow="2"
   inkscape:pageopacity="0"
   guidetolerance="10"
   gridtolerance="10"
   objecttolerance="10"
   borderopacity="1"
   bordercolor="#666666"
   pagecolor="#ffffff" />
 <defs
   id="defs4">
  <style
   id="style2"
   type="text/css">
   <![CDATA[
    .fil0 {fill:black;fill-rule:nonzero}
   ]]>
  </style>
 </defs>
 <g
   transform="translate(-0.01076712,-25.75)"
   id="Слой_x0020_1">
  <metadata
   id="CorelCorpID_0Corel-Layer" />
  <path
   id="path7"
   d="m 28.69,25.75 h 54.45 c 7.89,0 15.06,3.23 20.26,8.42 5.2,5.2 8.42,12.37 8.42,20.26 v 12.06 c 0,7.89 -3.23,15.06 -8.42,20.26 -5.2,5.2 -12.37,8.42 -20.26,8.42 H 28.69 C 20.8,95.17 13.63,91.94 8.43,86.75 3.23,81.55 0.01,74.38 0.01,66.49 V 54.43 c 0,-7.89 3.23,-15.06 8.42,-20.26 5.2,-5.2 12.37,-8.42 20.26,-8.42 z m 19.04,9.22 h 6.37 v -5.56 h -6.37 z m 10.01,0 h 6.37 v -5.56 h -6.37 z m 6.37,3.69 h -6.37 v 5.48 h 6.37 z m -10.01,0 h -6.37 v 5.48 H 54.1 Z M 44.09,44.14 V 29.41 h -15.4 c -6.88,0 -13.13,2.82 -17.67,7.35 C 6.48,41.3 3.67,47.55 3.67,54.43 v 12.06 c 0,6.88 2.82,13.13 7.35,17.67 4.54,4.54 10.79,7.35 17.67,7.35 h 54.45 c 6.88,0 13.13,-2.82 17.67,-7.35 4.54,-4.54 7.35,-10.79 7.35,-17.67 V 54.43 c 0,-6.88 -2.82,-13.13 -7.35,-17.67 -4.54,-4.54 -10.79,-7.35 -17.67,-7.35 h -15.4 v 14.73 h 9.99 c 3.86,0 7.36,1.58 9.9,4.12 2.54,2.54 4.12,6.04 4.12,9.9 v 4.6 c 0,3.86 -1.58,7.36 -4.12,9.9 -2.54,2.54 -6.04,4.12 -9.9,4.12 H 34.09 c -3.86,0 -7.36,-1.58 -9.9,-4.12 -2.54,-2.54 -4.12,-6.04 -4.12,-9.9 v -4.6 c 0,-3.86 1.58,-7.36 4.12,-9.9 2.54,-2.54 6.04,-4.12 9.9,-4.12 h 9.99 z M 33.73,38.65 h 4.44 c 0.83,0 1.57,-0.57 1.77,-1.37 0.3,-1.16 -0.58,-2.29 -1.77,-2.29 -2.8,0 -5.61,-0.14 -8.39,0.32 -0.83,0.14 -1.46,0.83 -1.53,1.67 -0.09,1.18 0.96,2.14 2.13,1.94 1.12,-0.18 2.21,-0.27 3.35,-0.27 z m -12.12,3.97 c 0.56,-0.41 0.84,-1.11 0.72,-1.8 -0.25,-1.34 -1.8,-1.96 -2.89,-1.15 -2.06,1.51 -3.78,3.25 -5.3,5.31 -0.35,0.48 -0.45,1.12 -0.25,1.68 0.49,1.4 2.34,1.67 3.21,0.48 1.28,-1.75 2.78,-3.24 4.52,-4.52 z M 13.39,55.9 c 0.3,-2.08 -2.5,-2.96 -3.45,-1.1 -0.08,0.17 -0.14,0.34 -0.17,0.53 -0.52,3.25 -0.53,7.41 0,10.66 0.3,1.76 2.68,2.1 3.46,0.49 0.16,-0.36 0.22,-0.7 0.15,-1.09 -0.47,-2.88 -0.46,-6.6 0,-9.48 z m 3.69,18.25 c -0.48,-0.66 -1.35,-0.91 -2.11,-0.63 -1.15,0.43 -1.56,1.82 -0.84,2.81 1.5,2.04 3.26,3.81 5.31,5.3 1.47,1.08 3.47,-0.46 2.78,-2.18 -0.13,-0.32 -0.34,-0.58 -0.62,-0.78 -1.75,-1.28 -3.24,-2.78 -4.52,-4.52 z m 13.29,8.22 c -2.08,-0.3 -2.96,2.5 -1.1,3.45 0.17,0.08 0.34,0.14 0.53,0.17 2.77,0.45 5.57,0.32 8.38,0.32 0.83,0 1.57,-0.57 1.77,-1.37 0.3,-1.16 -0.58,-2.29 -1.77,-2.29 -2.6,0 -5.22,0.14 -7.8,-0.28 z m 21.11,0.28 c -0.83,0 -1.57,0.57 -1.77,1.37 -0.3,1.16 0.58,2.29 1.77,2.29 h 8.88 c 0.83,0 1.57,-0.57 1.77,-1.37 0.3,-1.16 -0.58,-2.29 -1.77,-2.29 z m 22.19,0 c -0.83,0 -1.57,0.57 -1.77,1.37 -0.3,1.16 0.58,2.29 1.77,2.29 2.81,0 5.61,0.13 8.39,-0.32 1.76,-0.3 2.1,-2.68 0.49,-3.46 -0.36,-0.16 -0.7,-0.22 -1.09,-0.15 -2.57,0.42 -5.19,0.27 -7.78,0.27 z m 16.55,-3.97 c -1.49,1.1 -0.57,3.49 1.28,3.3 0.33,-0.03 0.63,-0.15 0.9,-0.35 2.03,-1.49 3.82,-3.28 5.3,-5.31 1.08,-1.47 -0.46,-3.47 -2.18,-2.78 -0.32,0.13 -0.58,0.34 -0.78,0.62 -1.28,1.74 -2.78,3.24 -4.52,4.52 z M 98.44,65.4 c -0.3,2.08 2.5,2.96 3.45,1.1 0.08,-0.17 0.14,-0.34 0.17,-0.53 0.52,-3.24 0.53,-7.43 0,-10.66 -0.3,-1.76 -2.68,-2.1 -3.46,-0.49 -0.16,0.36 -0.22,0.7 -0.15,1.09 0.47,2.86 0.46,6.61 0,9.48 z M 94.75,47.15 c 1.1,1.49 3.49,0.57 3.3,-1.28 -0.03,-0.33 -0.15,-0.63 -0.35,-0.9 -1.5,-2.05 -3.26,-3.79 -5.31,-5.3 -0.48,-0.35 -1.12,-0.45 -1.68,-0.25 -1.4,0.49 -1.67,2.34 -0.48,3.21 1.74,1.27 3.25,2.79 4.52,4.52 z M 81.47,38.93 c 2.08,0.3 2.96,-2.5 1.1,-3.45 -0.17,-0.08 -0.34,-0.14 -0.53,-0.17 -2.78,-0.45 -5.57,-0.32 -8.38,-0.32 -0.83,0 -1.57,0.57 -1.77,1.37 -0.3,1.16 0.58,2.29 1.77,2.29 2.61,0 5.22,-0.14 7.8,0.28 z m -3.73,8.88 H 34.1 c -2.84,0 -5.43,1.17 -7.31,3.04 -1.88,1.88 -3.04,4.46 -3.04,7.31 v 4.6 c 0,2.84 1.17,5.43 3.04,7.31 1.88,1.88 4.46,3.04 7.31,3.04 h 43.64 c 2.84,0 5.43,-1.17 7.31,-3.04 1.88,-1.88 3.04,-4.46 3.04,-7.31 v -4.6 c 0,-2.84 -1.17,-5.43 -3.04,-7.31 -1.88,-1.88 -4.46,-3.04 -7.31,-3.04 z"
   class="fil0" />
  <path
   d="m 71.751953,2.1289062 c 0.02455,0.023104 -0.05577,0.055294 -0.0918,0.0625 -0.15827,0.031673 -0.319964,0.047827 -0.480468,0.066406 0.333788,0.00707 0.749018,0.020652 1.050781,0.027344 -0.158494,-0.042162 -0.318381,-0.095188 -0.478516,-0.15625 z m 1.708985,0.3945313 c -0.01715,6.025e-4 -0.0443,0.00368 -0.0332,0.00586 0.03789,0.00744 0.07678,0.00979 0.115235,0.013672 -0.01604,-0.00548 -0.03255,-0.00916 -0.04883,-0.013672 -0.0112,-0.0018 -0.02202,-0.00408 -0.0332,-0.00586 z M 30.867188,23.705078 c -0.06194,0.0027 -0.07866,0.0034 -0.138672,0.0059 -0.01218,0.01667 -0.02058,0.02956 -0.03516,0.04883 0.05766,-0.01904 0.115292,-0.03794 0.173829,-0.05469 z m 88.695312,3.191406 c 8.2e-4,0.0358 7.5e-4,0.07162 0.002,0.107422 0.0121,0.0035 0.0963,0.02568 0.10743,0.0293 0.005,-0.03162 0.0106,-0.06625 0.0156,-0.09961 -0.0417,-0.01228 -0.0833,-0.02478 -0.125,-0.03711 z M 10.240234,35.658203 c -0.02612,0.01109 -0.0556,0.02221 -0.08203,0.0332 0.0072,0.07249 2.69e-4,0.05806 0.01953,0.191406 0.0022,0.01552 0.0026,-0.03207 0.0078,-0.04687 0.02033,-0.05822 0.03581,-0.118842 0.05469,-0.177735 z"
   transform="matrix(0.77133207,0,0,0.77133207,-7.6711747e-4,0)"
   style="stroke-width:1.29646"
   id="polygon9" />
 </g>
</svg>
