<?xml version="1.0" encoding="UTF-8" standalone="no"?>
<svg
   xmlns:dc="http://purl.org/dc/elements/1.1/"
   xmlns:cc="http://creativecommons.org/ns#"
   xmlns:rdf="http://www.w3.org/1999/02/22-rdf-syntax-ns#"
   xmlns:svg="http://www.w3.org/2000/svg"
   xmlns="http://www.w3.org/2000/svg"
   xmlns:sodipodi="http://sodipodi.sourceforge.net/DTD/sodipodi-0.dtd"
   xmlns:inkscape="http://www.inkscape.org/namespaces/inkscape"
   inkscape:version="1.0 (4035a4fb49, 2020-05-01)"
   sodipodi:docname="арена.svg"
   id="svg12"
   viewBox="0 0 106.08 72.756887"
   style="clip-rule:evenodd;fill-rule:evenodd;image-rendering:optimizeQuality;shape-rendering:geometricPrecision;text-rendering:geometricPrecision"
   version="1.1"
   height="23.837919mm"
   width="34.754349mm"
   xml:space="preserve"><metadata
   id="metadata16"><rdf:RDF><cc:Work
       rdf:about=""><dc:format>image/svg+xml</dc:format><dc:type
         rdf:resource="http://purl.org/dc/dcmitype/StillImage" /><dc:title></dc:title></cc:Work></rdf:RDF></metadata><sodipodi:namedview
   inkscape:current-layer="svg12"
   inkscape:window-maximized="1"
   inkscape:window-y="-6"
   inkscape:window-x="-6"
   inkscape:cy="38.115987"
   inkscape:cx="63.792864"
   inkscape:zoom="6.3882331"
   showgrid="false"
   id="namedview14"
   inkscape:window-height="1018"
   inkscape:window-width="1920"
   inkscape:pageshadow="2"
   inkscape:pageopacity="0"
   guidetolerance="10"
   gridtolerance="10"
   objecttolerance="10"
   borderopacity="1"
   bordercolor="#666666"
   pagecolor="#ffffff" />
 <defs
   id="defs4">
  <style
   id="style2"
   type="text/css">
   <![CDATA[
    .fil0 {fill:black;fill-rule:nonzero}
   ]]>
  </style>
 </defs>
 <g
   transform="translate(-8.18,-34.702297)"
   id="Слой_x0020_1">
  <metadata
   id="CorelCorpID_0Corel-Layer" />
  <path
   id="path7"
   d="m 9.77,34.7 h 104.49 v 72.76 H 8.18 V 34.7 h 1.6 z m 4.96,6.64 h 44.89 v 19.58 c -2.2,0.34 -4.17,1.38 -5.67,2.89 -1.86,1.86 -3.01,4.43 -3.01,7.27 0,2.84 1.15,5.41 3.01,7.27 1.5,1.5 3.47,2.55 5.67,2.89 v 19.58 H 14.73 v -6.36 h 3.75 c 6.43,0 12.27,-2.63 16.51,-6.86 4.24,-4.24 6.86,-10.08 6.86,-16.51 0,-6.43 -2.63,-12.27 -6.86,-16.51 -4.24,-4.24 -10.08,-6.87 -16.51,-6.87 h -3.75 v -6.36 z m 92.97,0 H 62.81 v 19.58 c 2.2,0.34 4.17,1.38 5.67,2.89 1.86,1.86 3.01,4.43 3.01,7.27 0,2.84 -1.15,5.41 -3.01,7.27 -1.5,1.5 -3.47,2.55 -5.67,2.89 v 19.58 h 44.89 v -6.36 h -3.75 c -6.43,0 -12.27,-2.63 -16.51,-6.86 -4.24,-4.24 -6.86,-10.08 -6.86,-16.51 0,-6.43 2.63,-12.27 6.86,-16.51 4.24,-4.24 10.08,-6.87 16.51,-6.87 h 3.75 V 41.35 Z M 89.3,64.53 c -2.97,0.7 -5.17,3.37 -5.17,6.55 0,3.18 2.21,5.85 5.17,6.55 z m 3.11,13.1 c 2.97,-0.7 5.17,-3.37 5.17,-6.55 0,-3.18 -2.21,-5.85 -5.17,-6.55 z M 107.7,91.09 V 84.54 L 85.98,79.86 c 0.98,1.99 2.28,3.79 3.83,5.35 3.63,3.63 8.63,5.88 14.13,5.88 h 3.75 z m 0,-33.17 v -6.85 h -3.75 c -5.5,0 -10.5,2.25 -14.13,5.88 -1.64,1.64 -3,3.57 -4,5.69 z m -41.47,8.15 c -1.28,-1.28 -3.05,-2.08 -5.01,-2.08 -1.96,0 -3.73,0.79 -5.01,2.08 -1.28,1.28 -2.08,3.05 -2.08,5.01 0,1.96 0.79,3.73 2.08,5.01 1.28,1.28 3.05,2.08 5.01,2.08 1.96,0 3.73,-0.79 5.01,-2.08 1.28,-1.28 2.08,-3.05 2.08,-5.01 0,-1.96 -0.79,-3.73 -2.08,-5.01 z M 33.14,64.53 c 2.97,0.7 5.17,3.37 5.17,6.55 0,3.18 -2.21,5.85 -5.17,6.55 z m -3.12,13.1 c -2.97,-0.7 -5.17,-3.37 -5.17,-6.55 0,-3.18 2.21,-5.85 5.17,-6.55 z M 14.73,91.09 v -6.55 l 21.72,-4.68 c -0.98,1.99 -2.28,3.79 -3.83,5.35 -3.63,3.63 -8.63,5.88 -14.13,5.88 h -3.75 z m 0,-33.17 v -6.85 h 3.75 c 5.5,0 10.5,2.25 14.13,5.88 1.64,1.64 3,3.57 4,5.69 z M 111.06,37.89 H 11.37 v 66.37 h 99.69 z"
   class="fil0" />
  <path
   d="m 1.8984375,36.230469 -0.011719,0.0039 c 0.00172,0.02045 0.00329,0.02368 0.00586,0.03711 l 0.00781,0.01563 c 0.00326,-0.01899 -0.00286,-0.03768 -0.00195,-0.05664 z m 3.7695313,3.470703 c -0.032625,-5e-5 -0.070364,0.01357 -0.1113282,0.03711 7.59e-5,0.0085 -0.00211,0.01691 -0.00195,0.02539 0.037607,-0.02135 0.075275,-0.04185 0.1132813,-0.0625 z m -0.1113282,0.03711 c -8.15e-5,-0.0091 -7.4e-6,-0.01823 0,-0.02734 -0.1716655,0.019 -0.3427997,0.0402 -0.5136718,0.07617 -0.4505627,0.06539 -1.0157186,0.139307 -1.5761719,0.21875 l 0.1386719,0.328125 c 0.035297,-0.03838 0.060521,-0.08625 0.099609,-0.121093 0.3763978,-0.33555 1.1657786,-0.310362 1.7832031,-0.429688 0.023291,-0.01953 0.02816,-0.02182 0.068359,-0.04492 z m -0.068359,0.04492 c -0.025424,0.02132 -0.066526,0.05445 -0.041016,0.03906 0.034273,-0.02067 0.070681,-0.03687 0.1054688,-0.05664 -0.022951,0.005 -0.040947,0.01304 -0.064453,0.01758 z m 4.0390626,3.435547 c -0.06679,0.01613 -0.132216,0.03746 -0.1992188,0.05273 -0.012652,0.0049 -0.02653,0.0065 -0.039062,0.01172 -0.016436,0.0068 -0.019823,0.02803 -0.025391,0.04688 z"
   transform="matrix(0.80758239,0,0,0.80758239,-1.5170061,-3.4155606)"
   style="stroke-width:1.23826"
   id="polygon9" />
 </g>
</svg>
