<?xml version="1.0" encoding="UTF-8" standalone="no"?>
<svg
   xmlns:dc="http://purl.org/dc/elements/1.1/"
   xmlns:cc="http://creativecommons.org/ns#"
   xmlns:rdf="http://www.w3.org/1999/02/22-rdf-syntax-ns#"
   xmlns:svg="http://www.w3.org/2000/svg"
   xmlns="http://www.w3.org/2000/svg"
   xmlns:sodipodi="http://sodipodi.sourceforge.net/DTD/sodipodi-0.dtd"
   xmlns:inkscape="http://www.inkscape.org/namespaces/inkscape"
   xml:space="preserve"
   width="37.119858mm"
   height="27.762943mm"
   version="1.1"
   style="clip-rule:evenodd;fill-rule:evenodd;image-rendering:optimizeQuality;shape-rendering:geometricPrecision;text-rendering:geometricPrecision"
   viewBox="0 0 125.30327 93.718979"
   id="svg323"
   sodipodi:docname="биржа.svg"
   inkscape:version="1.0 (4035a4fb49, 2020-05-01)"><metadata
   id="metadata327"><rdf:RDF><cc:Work
       rdf:about=""><dc:format>image/svg+xml</dc:format><dc:type
         rdf:resource="http://purl.org/dc/dcmitype/StillImage" /><dc:title></dc:title></cc:Work></rdf:RDF></metadata><sodipodi:namedview
   inkscape:document-rotation="0"
   pagecolor="#ffffff"
   bordercolor="#666666"
   borderopacity="1"
   objecttolerance="10"
   gridtolerance="10"
   guidetolerance="10"
   inkscape:pageopacity="0"
   inkscape:pageshadow="2"
   inkscape:window-width="1920"
   inkscape:window-height="1018"
   id="namedview325"
   showgrid="false"
   inkscape:zoom="2.007294"
   inkscape:cx="225.59559"
   inkscape:cy="50.900675"
   inkscape:window-x="-6"
   inkscape:window-y="-6"
   inkscape:window-maximized="1"
   inkscape:current-layer="svg323" />
 <defs
   id="defs317">
  <style
   type="text/css"
   id="style315">
   <![CDATA[
    .fil0 {fill:black}
   ]]>
  </style>
 </defs>
 
<path
   id="path8"
   d="m 38.25329,93.692837 c -0.95804,-0.03988 -1.05823,-0.06348 -0.99155,-0.23358 0.20096,-0.512692 0.25784,-5.681319 0.28074,-25.512597 0.0268,-23.226016 -0.0105,-21.630223 0.51057,-21.801861 0.16371,-0.05392 0.16092,-0.100646 -0.0385,-0.64273 -0.11827,-0.321521 -0.29044,-0.758452 -0.38262,-0.97096 -0.11768,-0.27132 -0.16952,-0.71512 -0.17407,-1.490319 -0.006,-0.996261 -0.0374,-1.17393 -0.32384,-1.8215 -0.44882,-1.014778 -0.75155,-1.744541 -0.75155,-1.811686 0,-0.03162 -0.39169,-1.007539 -0.87041,-2.168704 -0.69339,-1.681839 -0.96581,-2.220479 -1.33947,-2.648485 -0.25799,-0.2955 -0.46906,-0.638203 -0.46906,-0.761559 0,-0.123358 -0.0862,-0.585001 -0.19151,-1.025874 -0.10533,-0.440874 -0.25088,-1.049975 -0.32345,-1.353558 -0.0726,-0.303583 -0.16721,-0.775518 -0.21032,-1.048743 -0.0761,-0.482577 -0.49478,-2.339115 -0.7885,-3.496765 -0.12158,-0.479202 -0.26459,-0.69208 -0.88689,-1.32021 -0.40806,-0.411888 -0.7893,-0.850272 -0.8472,-0.97419 -0.0602,-0.128844 -0.61162,-0.491773 -1.28795,-0.847694 -0.65048,-0.342313 -2.32513,-1.224085 -3.72144,-1.959493 -1.39632,-0.735407 -2.5715,-1.337104 -2.61152,-1.337104 -0.04,0 -0.19583,-0.09211 -0.34625,-0.204689 -0.42883,-0.320944 -0.81471,-0.385727 -0.92378,-0.155086 -0.0505,0.106802 -0.14696,0.864827 -0.21434,1.684502 -0.0674,0.819676 -0.16701,1.730076 -0.2214,2.023112 -0.0544,0.293037 -0.0989,0.670337 -0.0989,0.838443 0,0.431113 -0.27177,0.622975 -0.92733,0.65467 -0.31168,0.01507 -0.98399,0.07374 -1.49402,0.130372 -0.51003,0.05663 -1.28709,0.103833 -1.7268,0.104885 l -0.79948,0.0019 -0.40939,0.923222 c -0.54114,1.220345 -0.60894,1.273976 -1.06647,0.843571 -0.19956,-0.187721 -0.53353,-0.616852 -0.74217,-0.953624 -0.33204,-0.535969 -0.37109,-0.667571 -0.31319,-1.05551 0.0364,-0.24376 0.13117,-0.577925 0.21065,-0.74259 l 0.1445,-0.29939 1.16626,0.04279 1.16626,0.04279 1.12102,-0.488721 c 0.61656,-0.268797 1.16199,-0.567155 1.21206,-0.663019 0.0533,-0.102144 0.0502,-0.37148 -0.008,-0.650618 -0.16649,-0.804556 -0.29342,-1.532896 -0.46779,-2.684198 -0.28089,-1.854632 -0.28288,-1.86124 -0.5967,-1.979007 -0.19563,-0.07341 -0.39101,-0.06549 -0.62554,0.02538 -0.18757,0.07267 -0.53666,0.132131 -0.77574,0.132131 -0.53329,0 -0.90303,0.197709 -2.39906,1.282868 -2.23653,1.622283 -3.13189,2.335074 -3.2631,2.597748 -0.0726,0.145313 -0.4817297,0.536294 -0.9092197,0.868848 -0.42749,0.332554 -1.06283,0.831969 -1.41186,1.109811 -0.34904,0.277841 -0.93599,0.740125 -1.30435,1.027296 -1.0219,0.796685 -1.0562,0.834253 -1.00235,1.097934 0.0269,0.131915 0.17746,0.761457 0.3345,1.398982 l 0.28552,1.159137 3.8725497,-0.03272 c 2.89234,-0.02444 3.93178,0.0012 4.10654,0.10145 l 0.23399,0.134167 -0.003,31.471224 -0.003,31.471223 -0.25385,0.441576 c -0.16072,0.279571 -0.25404,0.607145 -0.25437,0.892873 l -5.2e-4,0.451296 -3.57158,0.07308 c -6.5769197,0.134572 -8.3957397,0.08346 -10.00348973,-0.281096 -0.55748,-0.126409 -0.68941,-0.325763 -0.41215,-0.622793 0.10231,-0.109602 0.13476,-6.691145 0.15776,-32.001547 0.0207,-22.817117 0.0609,-31.904785 0.14141,-32.008743 0.0831,-0.107276 0.49245,-0.145616 1.56810003,-0.146864 0.80061,-8.83e-4 1.5164,-0.04297 1.59066,-0.09343 0.16075,-0.109224 0.7584,-2.641418 0.68411,-2.898536 -0.0755,-0.261402 0.0752,-0.589096 1.2416,-2.699844 0.97768,-1.769203 1.06489,-1.979441 0.91324,-2.201638 -0.0773,-0.113202 -0.14047,-0.283792 -0.14047,-0.37909 0,-0.17097 0.49215,-0.975416 1.38777,-2.268397 1.28055,-1.848681 2.09665,-3.444723 2.7659297,-5.409304 0.14262,-0.418662 0.58138,-1.518772 1.7283,-4.3333942 0.27843,-0.6832999 0.50624,-1.2889058 0.50624,-1.3457907 0,-0.056885 0.19077,-0.5410441 0.42394,-1.0759094 0.23317,-0.5348654 0.53851,-1.2953849 0.67852,-1.6900433 0.14002,-0.3946584 0.37322,-0.9907858 0.51822,-1.3247275 0.145,-0.3339418 0.4154,-0.999338 0.60089,-1.4786576 0.18548,-0.47932061 0.44629,-0.98831626 0.57956,-1.13110306 0.28011,-0.3001193 -0.0231,-0.3425724 4.05077,0.56719745 1.24674,0.27842021 2.49863,0.55110211 2.78197,0.60595911 0.28335,0.054858 0.72383,0.1461903 0.97885,0.2029604 0.25501,0.056771 1.18234,0.2636285 2.06072,0.4596827 0.87838,0.1960552 1.71297,0.3802564 1.85465,0.4093364 0.14167,0.02908 0.60534,0.1291554 1.03036,0.2223919 0.42502,0.093235 0.88869,0.19259 1.03036,0.2207879 0.14168,0.028197 0.60534,0.1276298 1.03036,0.2209602 0.42503,0.093331 0.98142,0.2098887 1.23644,0.2590151 1.47867,0.2848606 2.91554,0.673263 3.45381,0.9336084 0.65219,0.315443 1.2033,0.5708968 1.54344,0.7154158 0.54366,0.2309982 3.44874,1.5942797 3.81233,1.7890323 0.22668,0.1214191 0.59761,0.3804508 0.82429,0.5756262 0.765814,0.6593809 2.637067,1.941031 2.833973,1.941031 0.107545,0 0.464406,0.08015 0.793022,0.178104 0.328616,0.09796 0.806133,0.214901 1.061147,0.259877 0.459759,0.08108 2.215139,0.5172849 3.503227,0.8705269 0.606708,0.166381 0.680004,0.217621 0.778866,0.544474 0.07372,0.243741 0.491603,0.730827 1.287951,1.501242 0.648351,0.627239 2.430709,2.36447 3.960795,3.860512 2.407917,2.354345 2.825943,2.720122 3.108981,2.720399 0.179854,2.21e-4 0.561409,0.05829 0.847901,0.129144 0.539462,0.133415 0.586662,0.125228 1.864657,-0.323431 0.255015,-0.08953 0.602761,-0.203756 0.772771,-0.253844 0.17001,-0.05009 0.47139,-0.138868 0.669735,-0.19729 0.198344,-0.05842 1.079303,-0.334262 1.957686,-0.612979 0.878382,-0.278716 1.631834,-0.506942 1.674336,-0.507169 0.0425,-2.21e-4 0.0771,0.08652 0.07689,0.192776 -2.06e-4,0.127187 -0.167465,0.264937 -0.489422,0.403194 -0.268969,0.115502 -0.97588,0.454767 -1.570914,0.75392 -1.139024,0.572647 -1.164386,0.585023 -2.060722,1.005654 -1.169916,0.549014 -1.949947,0.963529 -2.010411,1.068349 -0.03436,0.05957 -0.465441,0.108688 -0.957958,0.109161 -0.871253,8.84e-4 -0.898969,0.0089 -1.024279,0.297995 -0.07084,0.163422 -0.128796,0.435313 -0.128796,0.604201 0,0.517313 0.446271,0.521062 1.840594,0.01546 0.247284,-0.08967 0.66458,-0.205274 0.927325,-0.256904 0.531582,-0.104455 0.673313,-0.145273 2.432363,-0.700511 0.901934,-0.284692 1.26919,-0.357484 1.366601,-0.270867 0.104474,0.0929 0.06191,0.174806 -0.197289,0.379696 -0.181775,0.143687 -0.379449,0.261109 -0.439277,0.26094 -0.05983,-2.2e-4 -0.294242,0.09472 -0.520922,0.210872 -0.226679,0.116146 -0.713524,0.360062 -1.081879,0.542033 -0.368354,0.18197 -0.994298,0.493565 -1.390987,0.692432 -0.702544,0.352197 -1.027176,0.508141 -2.03384,0.976998 -0.268564,0.125086 -0.652234,0.227427 -0.852598,0.227427 -0.429586,0 -0.515645,0.169337 -0.665892,1.310264 -0.104223,0.791432 -0.08507,0.919113 0.391322,2.608722 0.388305,1.377191 0.474318,1.868927 0.363148,2.07612 -0.04793,0.08933 -0.342165,0.374397 -0.653849,0.633473 -0.311684,0.259077 -0.914445,0.802087 -1.339469,1.20669 -0.425024,0.404603 -0.853037,0.767521 -0.951141,0.806484 -0.193522,0.07686 -0.827428,-0.571675 -1.31131,-1.341573 -0.144063,-0.229218 -0.479903,-0.686339 -0.746312,-1.015825 -0.656508,-0.811954 -0.969532,-1.284233 -1.2202,-1.840998 -0.129442,-0.287505 -0.28118,-0.469174 -0.391875,-0.469174 -0.09936,0 -0.224692,-0.04104 -0.278529,-0.0912 -0.05384,-0.05016 -0.306532,-0.158461 -0.561546,-0.240673 -0.255015,-0.08221 -0.510029,-0.181255 -0.566699,-0.220098 -0.05667,-0.03884 -0.311684,-0.135011 -0.566698,-0.213706 -0.556689,-0.171788 -1.008588,-0.329208 -1.287952,-0.448658 -0.113339,-0.04846 -0.368354,-0.147816 -0.566698,-0.220788 -0.198345,-0.07297 -0.453359,-0.173826 -0.566699,-0.22412 -0.113339,-0.0503 -0.47547,-0.190613 -0.804734,-0.311819 L 45.84927,25.78057 45.417573,26.087388 c -0.237435,0.168749 -0.686713,0.454772 -0.998397,0.635605 -1.355488,0.786428 -1.436803,0.856236 -1.365773,1.172489 0.06346,0.282536 1.497462,4.204234 1.804109,4.933857 0.114831,0.273225 0.245174,0.620966 0.28965,0.772758 0.04448,0.151792 0.177071,0.548509 0.294656,0.881593 0.117585,0.333085 0.213791,0.64447 0.213791,0.691968 0,0.0475 -1.008466,0.610715 -2.241035,1.251595 -1.23257,0.640881 -2.441724,1.271693 -2.687014,1.401807 l -0.44597,0.236571 0.0338,0.663154 c 0.0291,0.570264 0.007,0.668784 -0.15415,0.70335 -0.36821,0.07873 -0.58479,-0.289713 -0.58479,-0.994831 0,-0.763623 -0.16553,-0.557225 2.090972,-2.607252 0.890068,-0.808629 1.618314,-1.512438 1.618314,-1.564015 0,-0.09794 -3.822276,-3.852931 -4.083166,-4.011284 -0.22082,-0.134037 -1.0175,0.404127 -1.14945,0.776468 -0.48659,1.373072 -0.65918,2.143543 -0.83556,3.730016 -0.054,0.485733 -0.126,0.959213 -0.15998,1.052178 -0.034,0.09296 0.06,0.664254 0.20877,1.269531 0.14881,0.605276 0.3807,1.568783 0.51531,2.141124 0.13461,0.57234 0.31022,1.267822 0.39025,1.545515 0.08,0.277693 0.2231,0.78595 0.31795,1.129461 0.13726,0.497142 1.83975,3.917181 2.07621,4.170798 0.0318,0.03408 2.544066,0.08681 5.582864,0.117168 l 5.525087,0.0552 0.08023,0.413891 c 0.07536,0.388798 0.04078,45.552208 -0.03561,46.503542 l -0.03546,0.441576 -0.927325,0.03857 c -0.510028,0.02121 -1.901554,-0.0227 -3.092278,-0.09759 -1.650533,-0.103802 -2.296825,-0.105853 -2.719938,-0.0086 -0.581379,0.133587 -4.86049,0.23545 -6.69051,0.159265 z m -18.5369,-0.109239 -0.64397,-0.04811 -0.001,-0.574301 c -0.0423,-19.256507 0.0272,-53.02277 0.10955,-53.187544 0.10293,-0.206059 0.29725,-0.211019 7.18552,-0.183428 l 7.07972,0.02836 0.0745,3.201425 c 0.1194,5.132605 0.0481,50.473288 -0.0796,50.610081 -0.10938,0.117176 -12.37436,0.254366 -13.72445,0.153515 z m 36.105568,-0.773531 c -0.03778,-0.04048 -0.06869,-9.097086 -0.06869,-20.125798 0,-16.890955 0.02245,-20.085102 0.142425,-20.260889 0.205657,-0.301338 0.501038,-0.314014 7.517123,-0.322607 l 6.268559,-0.0077 0.196956,0.260616 c 0.192306,0.254466 0.196954,0.735788 0.196954,20.395285 v 20.134674 h -7.092317 c -3.900776,0 -7.12323,-0.03312 -7.161009,-0.0736 z m 36.84399,-0.711068 c -0.184177,-0.05764 -0.335217,-0.165476 -0.33564,-0.239636 -0.01681,-2.925371 0.01132,-28.167813 0.03142,-28.189338 0.01601,-0.01715 3.214932,-0.03786 7.108718,-0.04604 3.893794,-0.0082 7.079614,-0.05044 7.079614,-0.09394 0,-0.04349 -0.19705,-0.167021 -0.4379,-0.274502 -0.24085,-0.107482 -0.53064,-0.23673 -0.64398,-0.28722 -0.11334,-0.05049 -0.28728,-0.119612 -0.38654,-0.153605 -0.0992,-0.03399 -0.25645,-0.249626 -0.34933,-0.479184 -0.0929,-0.229559 -0.25253,-0.616089 -0.35479,-0.858955 -0.10228,-0.242867 -0.30801,-0.789317 -0.4572,-1.214334 -0.14918,-0.425017 -0.36321,-1.012557 -0.47561,-1.305644 -0.17749,-0.462798 -0.19651,-0.695111 -0.14464,-1.766303 0.0329,-0.67838 0.0843,-1.954166 0.11422,-2.83508 l 0.0545,-1.601664 -0.82315,-0.771807 c -0.45273,-0.424494 -1.03872,-0.945677 -1.3022,-1.158186 -0.26347,-0.212508 -0.62309,-0.52724 -0.79913,-0.699405 -0.39156,-0.382904 -0.784831,-0.340147 -1.255445,0.136493 -0.171565,0.173765 -0.497407,0.378999 -0.724086,0.456079 -0.422242,0.143575 -1.249828,0.592752 -2.163758,1.17439 -0.283349,0.180328 -0.862927,0.520743 -1.287951,0.756481 -0.425024,0.235736 -0.935053,0.534639 -1.133397,0.664228 -0.198345,0.129589 -0.963388,0.574455 -1.700096,0.988591 -0.736708,0.414136 -1.455385,0.836892 -1.597059,0.939457 -0.141675,0.102566 -0.813986,0.499122 -1.494024,0.881237 -0.680038,0.382116 -1.305982,0.752012 -1.390987,0.821993 -0.08501,0.06998 -0.285881,0.197776 -0.446393,0.283991 -0.2474,0.132884 -0.282761,0.205379 -0.232224,0.476099 0.128945,0.690771 0.29304,0.901007 0.730867,0.936371 0.229329,0.01852 0.468415,0.113364 0.540207,0.214289 0.184311,0.259102 0.189392,32.927179 0.0052,33.124575 -0.178779,0.191546 -13.792915,0.191546 -13.971694,0 -0.179735,-0.192569 -0.179735,-32.991856 0,-33.184425 0.09106,-0.09756 1.048208,-0.13432 3.632022,-0.139487 l 3.508379,-0.007 0.588774,-0.517358 c 0.480118,-0.421881 2.64523,-2.535109 3.79026,-3.699431 0.141675,-0.144062 0.473653,-0.57993 0.737728,-0.968595 0.264077,-0.388666 0.811138,-1.175951 1.215691,-1.749523 0.589099,-0.835216 0.729426,-1.108466 0.704777,-1.372369 -0.02922,-0.312846 -0.08809,-0.351536 -1.164172,-0.765043 C 86.81356,49.335656 86.14125,49.075003 85.942905,48.995969 84.55765,48.443996 82.829226,47.793373 82.437257,47.676354 82.18091,47.599824 81.292489,47.500859 80.46299,47.456431 l -1.508182,-0.08078 -0.802609,-0.467527 c -0.441435,-0.25714 -0.820032,-0.52353 -0.841328,-0.59198 -0.04051,-0.130223 0.414192,-0.366909 2.290761,-1.192396 1.190067,-0.523501 1.683862,-0.661881 2.941082,-0.824199 0.425024,-0.05488 1.074151,-0.147754 1.442505,-0.206399 0.368354,-0.05864 0.994299,-0.153745 1.390988,-0.211334 0.396689,-0.05759 0.860351,-0.131946 1.030361,-0.16524 0.279212,-0.05468 1.895377,-0.288604 3.174361,-0.459461 0.282989,-0.0378 0.519237,-0.132671 0.55096,-0.221242 0.128679,-0.35928 -0.980195,-1.797661 -1.868514,-2.423751 -0.779307,-0.549258 -1.820871,-1.115054 -2.624293,-1.425559 -0.64672,-0.249944 -0.734889,-0.260821 -0.877312,-0.108228 -0.08708,0.0933 -0.158334,0.265448 -0.158334,0.382545 0,0.117096 -0.05796,0.218623 -0.128795,0.225614 -0.229568,0.02266 -0.535171,-0.0212 -0.79853,-0.114604 -0.141675,-0.05025 -0.674886,-0.226985 -1.184915,-0.392753 -1.561885,-0.507639 -2.257582,-0.744119 -2.472866,-0.840573 -0.11334,-0.05078 -0.530636,-0.197319 -0.927325,-0.325642 -0.396689,-0.128324 -0.953084,-0.337867 -1.236433,-0.465652 -0.363094,-0.163747 -0.810934,-0.246396 -1.51702,-0.279965 -0.567538,-0.02698 -1.043692,-0.101937 -1.098385,-0.172903 -0.0612,-0.07941 -0.04392,-0.286917 0.04721,-0.566847 0.195999,-0.60208 0.185009,-0.746514 -0.0984,-1.293213 -1.498125,-2.889935 -1.916795,-3.775708 -1.82906,-3.869709 0.05439,-0.05827 0.578134,-0.148891 1.163876,-0.201374 1.960165,-0.175631 2.461202,-0.240748 2.510543,-0.326283 0.02696,-0.04674 -0.101796,-0.216689 -0.286125,-0.377667 -0.897196,-0.783543 -1.313987,-1.208485 -1.313987,-1.339687 0,-0.187682 0.309137,-0.235744 2.472867,-0.384461 0.991722,-0.06816 2.266794,-0.166439 2.833492,-0.218389 0.566699,-0.05195 1.633122,-0.147903 2.369831,-0.213229 2.004853,-0.177776 3.237773,-0.302535 3.812335,-0.385772 0.502361,-0.07278 0.526285,-0.0631 0.961421,0.388867 0.512167,0.531979 0.334465,0.53227 2.644842,-0.0043 0.28335,-0.06581 0.723829,-0.164766 0.978843,-0.219908 0.482498,-0.10433 0.996545,-0.218372 1.957686,-0.434318 0.311684,-0.07003 0.937629,-0.201053 1.390988,-0.291168 1.551126,-0.308316 2.075435,-0.421023 3.322914,-0.714304 0.269181,-0.06328 0.784259,-0.165438 1.144628,-0.227008 0.745229,-0.127329 0.929419,-0.03128 1.147599,0.598438 0.13717,0.395842 0.40449,1.113981 0.67783,1.820863 0.14645,0.378738 0.38546,0.639237 1.16478,1.26953 0.53928,0.436157 1.08103,0.867529 1.20388,0.958604 0.12286,0.09108 0.58888,0.463655 1.0356,0.827955 0.44671,0.3643 0.88677,0.712041 0.97788,0.772758 0.16424,0.109441 0.68917,0.521946 1.48315,1.165503 0.96862,0.785115 2.45172,1.957876 2.99349,2.367103 0.32154,0.242867 0.74005,0.565769 0.93003,0.717561 0.90994,0.727057 0.88729,0.7174 1.69194,0.721467 0.81944,0.0041 1.33059,0.197333 2.2188,0.838612 1.50369,1.085637 3.08763,3.845992 3.28565,5.725923 0.0352,0.333941 0.13705,1.128778 0.2264,1.766303 0.0893,0.637525 0.20304,1.482039 0.25266,1.876697 0.0496,0.394659 0.13431,1.040463 0.18823,1.435122 0.35091,2.568751 0.35124,2.544786 -0.0533,3.838508 -0.40084,1.281843 -0.51107,1.885037 -0.6703,3.668281 -0.0569,0.637525 -0.14769,1.631071 -0.20171,2.207879 -0.15114,1.613722 -0.27918,3.13228 -0.38166,4.526153 -0.0513,0.698242 -0.1537,1.552614 -0.22746,1.898604 l -0.13411,0.629073 0.37583,0.675968 c 0.20671,0.371782 0.37583,0.690761 0.37583,0.708842 0,0.01808 0.2468,0.474035 0.54842,1.013232 l 0.54841,0.980358 2.98058,0.0552 c 1.77171,0.03281 3.0533,0.101513 3.1599,0.169394 0.1685,0.107289 0.17946,0.778453 0.18129,11.094593 10e-4,6.039217 0.002,11.036466 10e-4,11.104995 -0.003,0.352064 -0.55241,0.378613 -7.19961,0.347747 l -6.6265,-0.03077 -0.19838,-0.262537 c -0.19327,-0.25579 -0.19767,-0.547314 -0.17116,-11.343538 l 0.0272,-11.081001 -0.32429,-0.114659 c -0.46176,-0.163258 -0.97507,-0.714694 -0.89255,-0.958845 0.0362,-0.107201 0.2321,-0.399813 0.43528,-0.650251 0.69263,-0.853739 1.96648,-2.625869 1.96648,-2.7357 0,-0.03607 -0.0847,-0.06558 -0.18812,-0.06558 -0.20522,0 -0.63617,-0.433244 -0.63617,-0.639562 0,-0.126974 -0.35871,-1.416319 -0.5131,-1.844302 -0.0438,-0.121433 -0.2529,-0.789964 -0.46464,-1.485623 -0.45273,-1.487378 -0.57983,-1.723898 -0.97146,-1.807816 -0.2967,-0.06358 -0.54648,-0.270768 -0.71471,-0.592854 -0.0509,-0.09746 -0.16136,-0.148907 -0.24546,-0.114333 -0.15962,0.06563 -0.90297,1.538121 -0.90297,1.788692 0,0.230418 0.73805,0.880957 1.38303,1.219054 0.32672,0.171265 0.61639,0.373778 0.6437,0.450028 0.0557,0.155486 -0.16391,0.563686 -0.63102,1.172983 -0.17261,0.225139 -0.47611,0.636739 -0.67446,0.914668 -0.80122,1.122722 -0.9023,1.223418 -1.10176,1.097663 -0.1024,-0.06456 -0.28499,-0.323894 -0.40575,-0.57629 l -0.21957,-0.458902 -0.0638,0.341702 c -0.0351,0.187937 -0.0638,6.439716 -0.0638,13.892844 0,12.468827 -0.0136,13.563242 -0.17034,13.702651 -0.13997,0.124498 -1.34777,0.154869 -6.774626,0.170356 -3.920873,0.01119 -6.740343,-0.02373 -6.939151,-0.08595 z M 123.25868,46.121963 c -0.16512,-0.200169 -0.0859,-0.486915 0.13455,-0.486915 0.10663,0 0.15779,0.107377 0.15779,0.331182 0,0.365005 -0.0832,0.409315 -0.29234,0.155733 z m -0.84106,-0.818097 c 0,-0.141456 0.073,-0.141456 0.15456,0 0.035,0.06072 0.0146,0.110394 -0.0454,0.110394 -0.06,0 -0.10912,-0.04968 -0.10912,-0.110394 z m -0.45264,-0.505802 c -0.0968,-0.270118 -0.0757,-0.296863 0.092,-0.117135 0.17516,0.187674 0.19747,0.291755 0.0625,0.291755 -0.0506,0 -0.12016,-0.07858 -0.15456,-0.17462 z m -3.95215,-2.639965 c -0.15451,-0.188027 -0.16927,-0.567796 -0.0258,-0.662824 0.0595,-0.03941 0.10304,0.06509 0.10304,0.24739 0,0.17359 0.0556,0.375232 0.12364,0.448092 0.068,0.07286 0.0796,0.130582 0.0258,0.128273 -0.0538,-0.0023 -0.15584,-0.07473 -0.22668,-0.160931 z"
   style="fill:#000000;stroke-width:0.106652" /></svg>
