<?xml version="1.0" encoding="UTF-8" standalone="no"?>
<!-- Created with Inkscape (http://www.inkscape.org/) -->

<svg
   version="1.1"
   id="svg224"
   width="341.73581"
   height="333.79257"
   viewBox="0 0 341.73581 333.79257"
   sodipodi:docname="ПРОСМОТР РЕКЛАМЫ.svg"
   inkscape:version="1.2.1 (9c6d41e410, 2022-07-14)"
   xml:space="preserve"
   xmlns:inkscape="http://www.inkscape.org/namespaces/inkscape"
   xmlns:sodipodi="http://sodipodi.sourceforge.net/DTD/sodipodi-0.dtd"
   xmlns="http://www.w3.org/2000/svg"
   xmlns:svg="http://www.w3.org/2000/svg"><defs
     id="defs228" /><sodipodi:namedview
     id="namedview226"
     pagecolor="#ffffff"
     bordercolor="#111111"
     borderopacity="1"
     inkscape:showpageshadow="0"
     inkscape:pageopacity="0"
     inkscape:pagecheckerboard="1"
     inkscape:deskcolor="#d1d1d1"
     showgrid="false"
     inkscape:zoom="1.4931072"
     inkscape:cx="29.468748"
     inkscape:cy="118.20986"
     inkscape:window-width="1920"
     inkscape:window-height="1018"
     inkscape:window-x="-6"
     inkscape:window-y="-6"
     inkscape:window-maximized="1"
     inkscape:current-layer="g230" /><g
     inkscape:groupmode="layer"
     inkscape:label="Image"
     id="g230"
     transform="translate(108.56826,-92.793393)"><g
       id="g4696"
       transform="translate(3.3487219,0.66974422)"><path
         style="fill:#e2989b;stroke-width:1.11156"
         d="m 110.84426,343.65554 c 18.57202,-0.42982 35.28684,-1.12127 37.14404,-1.53656 3.27164,-0.73156 3.28915,-0.71491 0.56279,0.53506 -1.92301,0.88166 -13.6832,1.36815 -37.14404,1.53656 l -34.3301,0.24642 z M 64.695603,342.5394 c -1.35918,-0.55314 0.42477,-0.67999 4.502308,-0.32016 3.714404,0.32779 6.964508,0.77476 7.222456,0.99328 0.959026,0.81247 -9.558006,0.20867 -11.724764,-0.67312 z m 90.687517,-4.12595 c 2.20225,-3.44884 -0.11109,-5.42688 -7.96807,-6.81324 l -6.18021,-1.09048 6.06365,0.47875 c 8.6366,0.68188 12.78776,4.82438 8.38802,8.37053 -1.7095,1.37783 -1.73542,1.29705 -0.30339,-0.94556 z m -94.838083,-6.5306 c 0.812521,-0.3171 1.783331,-0.27811 2.15736,0.0866 0.374018,0.36476 -0.290782,0.6242 -1.47732,0.57654 -1.311241,-0.0527 -1.577946,-0.31278 -0.68004,-0.6632 z m 3.740045,-0.86226 c 0.311222,-0.30351 5.963386,-0.94191 12.560359,-1.41866 6.596974,-0.47674 11.627121,-0.54689 11.178106,-0.1559 -0.951743,0.82877 -24.580824,2.39607 -23.738465,1.57456 z m 64.824708,-1.37556 c 1.99816,-0.2425 5.54372,-0.24648 7.87904,-0.009 2.3353,0.23763 0.70044,0.43603 -3.63303,0.4409 -4.33347,0.004 -6.24418,-0.18955 -4.24601,-0.43205 z m -34.132991,-2.2096 c 0.431006,-0.7454 1.251147,-3.46224 1.822534,-6.03743 l 1.038874,-4.68214 -0.443004,4.7982 c -0.243654,2.63901 -1.063794,5.35585 -1.822535,6.03742 -1.036161,0.93078 -1.184478,0.9019 -0.595869,-0.11605 z M 15.929201,314.72412 c -2.43728,-2.53015 -2.447354,-2.7423 -2.447354,-51.52775 0,-26.94294 0.379883,-49.21602 0.844183,-49.49574 0.464301,-0.27973 0.844183,21.94814 0.844183,49.39525 v 49.90385 l 2.813942,2.10809 c 1.547669,1.15944 2.269096,2.11906 1.603171,2.13249 -0.665914,0.0134 -2.31207,-1.11886 -3.658125,-2.51619 z m 179.614729,0.14898 2.53255,-2.68959 v -48.91752 c 0,-44.15539 -0.18113,-49.06419 -1.8606,-50.42408 -1.50917,-1.22198 -13.7867,-1.61363 -65.00207,-2.0735 l -63.141476,-0.56696 63.189016,-0.25633 c 60.74294,-0.2464 63.29187,-0.17513 65.84626,1.84138 l 2.65724,2.09771 0.31542,47.68951 c 0.19416,29.35524 -0.10963,48.7799 -0.7903,50.52578 -0.60815,1.55998 -2.26963,3.42735 -3.69216,4.14975 l -2.58642,1.31342 z m -10.33922,-6.06832 c -0.61083,-1.56446 -0.48155,-1.69054 0.6301,-0.6145 0.76924,0.74463 1.11507,1.63037 0.76852,1.96835 -0.34656,0.33797 -0.97593,-0.27126 -1.39862,-1.35385 z m -200.073334,-2.16934 c 0.812526,-0.3171 1.783336,-0.27811 2.157356,0.0866 0.374019,0.36476 -0.290775,0.6242 -1.47732,0.57654 -1.311233,-0.0527 -1.577946,-0.31278 -0.680036,-0.6632 z M 109.65761,280.73195 c -0.30425,-0.77328 -0.41368,-10.77619 -0.24316,-22.2287 l 0.31004,-20.82276 0.55989,22.22983 c 0.30793,12.22641 0.41736,22.22932 0.24317,22.2287 -0.17421,-6.3e-4 -0.56567,-0.63381 -0.86994,-1.40707 z m -7.31453,-3.68602 c -0.62106,-1.59309 -0.92035,-3.10021 -0.66507,-3.34916 0.25528,-0.24897 1.00287,1.05447 1.66131,2.89651 1.4637,4.09482 0.58017,4.49627 -0.99624,0.45265 z m 34.95224,2.46512 c 0,-0.23728 0.78607,-0.72559 1.74683,-1.08515 1.00167,-0.37486 1.45348,-0.19083 1.05915,0.43141 -0.66101,1.04306 -2.80598,1.54279 -2.80598,0.65374 z m 12.68791,-20.42515 c 0,-2.71684 0.21951,-3.82827 0.48779,-2.46985 0.2683,1.35842 0.2683,3.58129 0,4.93971 -0.26828,1.35842 -0.48779,0.24698 -0.48779,-2.46986 z m -68.96676,-8.7817 c 0,-0.60375 0.536405,-1.09772 1.192008,-1.09772 0.655604,0 0.878963,0.49397 0.496357,1.09772 -0.382606,0.60374 -0.919011,1.09771 -1.192008,1.09771 -0.272998,0 -0.496357,-0.49397 -0.496357,-1.09771 z m 41.36496,-4.06783 c 1.3929,-0.26166 3.67219,-0.26166 5.06509,0 1.3929,0.26164 0.25326,0.47571 -2.53255,0.47571 -2.7858,0 -3.92545,-0.21407 -2.53254,-0.47571 z M -14.868624,226.50235 c 0.812526,-0.31709 1.783336,-0.2781 2.157356,0.0866 0.374019,0.36476 -0.290775,0.62421 -1.47732,0.57654 -1.311233,-0.0527 -1.577946,-0.31278 -0.680036,-0.66319 z m 81.533986,-5.56154 c 22.131659,-0.16644 58.347098,-0.16644 80.478758,0 22.13166,0.16642 4.02394,0.3026 -40.23938,0.3026 -44.263315,0 -62.371036,-0.13618 -40.239378,-0.3026 z M 22.767858,209.98686 c 2.321503,-0.23682 6.120325,-0.23682 8.441828,0 2.321502,0.23683 0.422091,0.43059 -4.220914,0.43059 -4.643006,0 -6.542417,-0.19376 -4.220914,-0.43059 z m 16.341026,0.004 c 2.023056,-0.24431 5.062114,-0.23927 6.753462,0.0112 1.691349,0.25047 0.03613,0.45035 -3.678284,0.4442 -3.714404,-0.007 -5.098234,-0.21109 -3.075178,-0.4554 z m 12.361188,0.0209 c 1.392902,-0.26166 3.672195,-0.26166 5.065097,0 1.392902,0.26164 0.253255,0.47571 -2.532548,0.47571 -2.785803,0 -3.92545,-0.21407 -2.532549,-0.47571 z m 10.143318,-0.002 c 1.400117,-0.26256 3.426155,-0.25259 4.502308,0.0222 1.076153,0.27475 -0.06945,0.48958 -2.545672,0.4774 -2.47627,-0.0122 -3.356753,-0.23699 -1.956636,-0.49955 z"
         id="path4710" /><path
         style="fill:#ef7d81;stroke-width:1.11156"
         d="m 90.3239,328.57886 c 1.095153,-0.27831 2.614682,-0.26001 3.376731,0.0407 0.76205,0.30069 -0.133977,0.5284 -1.991179,0.50603 -1.857203,-0.0224 -2.480705,-0.26839 -1.385552,-0.5467 z m 27.4192,-0.10757 c -0.30264,-0.47757 1.187,-0.67051 3.31031,-0.42876 2.12331,0.24174 3.86056,0.63248 3.86056,0.8683 0,0.82612 -6.62618,0.41996 -7.17087,-0.43954 z M 24.98341,262.16942 c -0.135182,-22.1519 0.13409,-40.5057 0.59839,-40.78621 0.76868,-0.46441 0.74986,30.67603 -0.04041,66.79212 -0.171729,7.84865 -0.422834,-3.854 -0.558027,-26.00591 z m 37.461039,19.41251 c 2.57281,-0.87463 9.367367,-1.11418 8.859236,-0.31235 -0.302645,0.47758 -2.673043,0.8293 -5.267543,0.78164 -2.5945,-0.0476 -4.210761,-0.25884 -3.591693,-0.46929 z m 32.641734,0 c 2.57281,-0.87463 9.367367,-1.11418 8.859237,-0.31235 -0.30265,0.47758 -2.67304,0.8293 -5.267544,0.78164 -2.5945,-0.0476 -4.210761,-0.25884 -3.591693,-0.46929 z m 21.138527,-0.25226 c 2.95926,-0.22687 7.51784,-0.22413 10.13019,0.007 2.61237,0.23021 0.19116,0.41584 -5.38045,0.41249 -5.5716,-0.003 -7.70898,-0.19171 -4.74974,-0.41857 z m 26.6985,-6.32692 c 1.45396,-1.50936 2.89682,-2.74428 3.20635,-2.74428 0.30953,0 -0.62681,1.23492 -2.08078,2.74428 -1.45396,1.50935 -2.89681,2.74428 -3.20635,2.74428 -0.30953,0 0.62681,-1.23493 2.08078,-2.74428 z m -60.781163,-2.74428 -8.441828,-0.70219 8.094002,-0.19776 c 4.451702,-0.10879 8.407047,0.2962 8.789654,0.89995 0.382606,0.60374 0.539128,1.00872 0.347825,0.89994 -0.191303,-0.10877 -4.146648,-0.51374 -8.789653,-0.89994 z m 52.339333,-2.19543 c 1.1205,-1.20749 2.29053,-2.19543 2.60006,-2.19543 0.30953,0 -0.35398,0.98794 -1.47448,2.19543 -1.1205,1.20748 -2.29053,2.19543 -2.60006,2.19543 -0.30954,0 0.35398,-0.98795 1.47448,-2.19543 z m -57.25905,-6.35687 c -0.302646,-0.47757 1.313627,-0.68875 3.591705,-0.4693 6.229134,0.60006 6.970777,1.15367 1.675838,1.25094 -2.594501,0.0476 -4.964898,-0.30407 -5.267543,-0.78164 z m 61.48242,-4.07141 c 0.0125,-2.41497 0.243,-3.27366 0.51222,-1.9082 0.26923,1.36546 0.25901,3.34134 -0.0227,4.39085 -0.28172,1.04952 -0.50201,-0.0677 -0.48952,-2.48265 z m -68.847701,-4.39085 c 0.117206,-2.07931 1.993126,-5.58061 2.058455,-3.842 0.03399,0.90561 -0.429115,2.38753 -1.029228,3.29314 -0.600112,0.90561 -1.063265,1.1526 -1.029227,0.54886 z m 65.043541,-5.763 c -1.40007,-1.74104 -1.36026,-1.77987 0.42497,-0.41445 1.08337,0.82861 1.96976,1.69306 1.96976,1.921 0,0.90346 -0.92431,0.32197 -2.39473,-1.50655 z m -53.321332,-1.37214 c 0.382606,-0.60374 0.919011,-1.09772 1.192009,-1.09772 0.272997,0 0.496357,0.49398 0.496357,1.09772 0,0.60374 -0.536405,1.09771 -1.192009,1.09771 -0.655603,0 -0.878963,-0.49397 -0.496357,-1.09771 z m 62.325952,-4.11643 c -1.40008,-1.74104 -1.36026,-1.77986 0.42497,-0.41445 1.08337,0.82861 1.96976,1.69306 1.96976,1.921 0,0.90346 -0.92431,0.32197 -2.39473,-1.50655 z"
         id="path4708" /><path
         style="fill:#9a9a9b;stroke-width:1.11156"
         d="m 39.016125,316.4435 c 10.638977,-0.18025 28.366815,-0.18055 39.395197,-6.8e-4 11.02837,0.17988 2.323753,0.32736 -19.343605,0.32773 -21.667358,3.7e-4 -30.69058,-0.1468 -20.051592,-0.32705 z m 95.183855,-4e-4 c 10.98845,-0.17972 28.96954,-0.17972 39.95799,0 10.98845,0.17972 1.9979,0.32677 -19.97899,0.32677 -21.97689,0 -30.96744,-0.14705 -19.979,-0.32677 z M -11.15028,304.72745 c -0.07181,-1.15995 -0.998159,-3.13583 -2.058548,-4.39086 -1.85872,-2.19988 -1.834565,-2.19806 0.672385,0.0509 1.579939,1.41736 2.387747,3.14041 2.058548,4.39085 -0.518854,1.97082 -0.547349,1.96867 -0.672385,-0.0509 z m -9.278757,-1.45858 c -1.400072,-1.74104 -1.360261,-1.77986 0.424967,-0.41445 1.083368,0.82861 1.96976,1.69306 1.96976,1.921 0,0.90346 -0.924308,0.32197 -2.394727,-1.50655 z m -14.985454,-9.6399 c -1.20169,-0.88641 -1.643591,-1.61166 -0.982003,-1.61166 0.661587,0 1.833435,0.74095 2.604106,1.64657 1.752753,2.05966 1.20137,2.04779 -1.622103,-0.0349 z m 14.092311,-2.25199 c 0.05401,-1.27878 0.320723,-1.53889 0.680037,-0.66321 0.325146,0.79241 0.285158,1.73919 -0.08886,2.10396 -0.37402,0.36476 -0.640049,-0.28359 -0.591175,-1.44075 z m 8.915755,-0.87184 c 0,-0.22794 0.886392,-1.09239 1.96976,-1.921 1.7852284,-1.36541 1.8250401,-1.32658 0.424967,0.41446 -1.470418,1.82851 -2.394727,2.41 -2.394727,1.50654 z m 6.3391557,-10.01382 c 0.4023758,-1.81123 1.1084649,-5.02204 1.5690871,-7.13514 0.8142064,-3.73517 0.8387113,-3.75043 0.881302,-0.54886 0.024099,1.81123 -0.6819939,5.02204 -1.569087,7.13514 -1.4689197,3.49904 -1.5475896,3.54803 -0.8813021,0.54886 z m -38.4843637,-0.0606 c -2.098104,-1.63931 -2.084294,-1.65958 0.347657,-0.51023 1.392902,0.65829 2.532548,1.42649 2.532548,1.70712 0,0.84 -0.583733,0.59742 -2.880205,-1.19689 z m 15.480983,-13.11197 c 0.02294,-1.81122 0.275201,-2.41929 0.560585,-1.35125 0.285382,1.06804 0.266614,2.54996 -0.0417,3.29314 -0.308326,0.74319 -0.541821,-0.13066 -0.518882,-1.94189 z m 24.8044019,-7.13513 c 0,-2.1131 0.2316381,-2.97755 0.5147523,-1.921 0.283113,1.05655 0.283113,2.78545 0,3.842 -0.2831142,1.05654 -0.5147523,0.1921 -0.5147523,-1.921 z m -62.4680289,-4.52707 c 0.763517,-0.7502 1.671753,-1.08747 2.018304,-0.7495 0.346552,0.33798 -0.278144,0.95177 -1.388211,1.364 -1.60417,0.5957 -1.733459,0.46962 -0.630093,-0.6145 z m 13.807079,0.80251 c 0,-0.23728 0.786071,-0.72558 1.746826,-1.08514 1.001679,-0.37486 1.453482,-0.19084 1.059149,0.43141 -0.661005,1.04306 -2.805975,1.54278 -2.805975,0.65373 z m 6.453308,-10.68193 c 0.763517,-0.7502 1.671753,-1.08748 2.018304,-0.7495 0.346551,0.33797 -0.278144,0.95177 -1.388212,1.364 -1.60417,0.5957 -1.733458,0.46962 -0.630092,-0.6145 z m 35.049469,-1.78479 c -1.400072,-1.74104 -1.360261,-1.77986 0.424968,-0.41445 1.0833676,0.82861 1.9697595,1.69306 1.9697595,1.921 0,0.90346 -0.9243081,0.32197 -2.3947275,-1.50655 z m -9.897759,-2.01247 c 0.05401,-1.27878 0.320723,-1.53888 0.680037,-0.6632 0.325146,0.7924 0.285158,1.73918 -0.08886,2.10395 -0.37402,0.36476 -0.640049,-0.28358 -0.591175,-1.44075 z m 7.95537,-8.69023 c 1.019458,-1.20749 2.100348,-3.18337 2.401981,-4.39086 0.527448,-2.11146 0.553415,-2.10748 0.67899,0.10428 0.07181,1.26486 -1.009078,3.24074 -2.40198,4.39086 -2.51176,2.07396 -2.517334,2.07311 -0.678991,-0.10428 z m -8.044231,-2.06103 c 0,-0.22794 0.886392,-1.09239 1.96976,-1.921 1.785228,-1.36541 1.82504,-1.32658 0.424967,0.41446 -1.470419,1.82851 -2.394727,2.41001 -2.394727,1.50654 z"
         id="path4706" /><path
         style="fill:#dd565c;stroke-width:1.11156"
         d="m 56.342639,336.38323 c 0.05403,-1.27878 0.320722,-1.53888 0.680029,-0.6632 0.325145,0.7924 0.285165,1.73918 -0.08881,2.10395 -0.37403,0.36476 -0.640048,-0.28358 -0.591176,-1.44075 z m 39.572723,-9.5022 c 0.782084,-1.62704 1.607391,-2.43193 1.834015,-1.78863 0.226623,0.64331 -0.413267,1.97453 -1.421976,2.95826 -1.694983,1.65303 -1.726218,1.56436 -0.412039,-1.16963 z m 19.129548,-6.32317 c 0,-2.1131 0.23165,-2.97755 0.51476,-1.921 0.28311,1.05655 0.28311,2.78545 0,3.842 -0.28311,1.05655 -0.51476,0.1921 -0.51476,-1.921 z m -55.935771,-4.11623 c -21.644577,-0.16698 -39.7274,-0.66756 -40.184035,-1.1124 -0.456647,-0.44484 17.37918,-0.67321 39.63517,-0.50748 25.338247,0.18866 40.465428,0.70161 40.465428,1.37214 0,0.58895 -0.126627,0.95394 -0.281394,0.8111 -0.154767,-0.14286 -17.990593,-0.39636 -39.635169,-0.56336 z m 75.090841,-1.09624 c 10.98845,-0.17972 28.96954,-0.17972 39.95799,0 10.98845,0.17972 1.9979,0.32677 -19.97899,0.32677 -21.97689,0 -30.96744,-0.14705 -19.979,-0.32677 z m 61.34395,-1.37187 c 1.08112,-1.18236 1.40697,-12.91582 1.40697,-50.66176 0,-45.62578 -0.14023,-49.20268 -1.96976,-50.2419 -1.08336,-0.61539 -1.43792,-1.1339 -0.7879,-1.15226 3.7001,-0.1045 3.88324,2.3311 3.88324,51.6443 0,45.42219 -0.14543,49.15047 -1.96976,50.49676 -1.67572,1.23663 -1.75974,1.22392 -0.56279,-0.0852 z m -13.8346,-3.36811 c -0.40805,-0.64391 -0.50052,-1.40617 -0.20547,-1.69392 0.29503,-0.28774 0.83637,0.23909 1.20296,1.17075 0.76109,1.93429 0.11244,2.27452 -0.99749,0.52317 z M 14.944715,305.18987 c 0,-3.32058 0.211012,-4.679 0.468904,-3.01871 0.257903,1.66029 0.257903,4.37713 0,6.03742 -0.257892,1.66029 -0.468904,0.30187 -0.468904,-3.01871 z M 188.44311,270.61189 c 5.3e-4,-17.50853 0.15593,-24.51739 0.34535,-15.57527 0.18941,8.94214 0.18897,23.2673 -9.7e-4,31.8337 -0.18995,8.5664 -0.34492,1.25011 -0.34438,-16.25843 z m -77.68868,-10.97713 c -0.001,-12.07485 0.16346,-17.16433 0.36544,-11.30995 0.20198,5.85437 0.20281,15.73379 0.002,21.95427 -0.20099,6.22047 -0.36626,1.43053 -0.36725,-10.64432 z m -95.885872,11.52599 c 0,-2.1131 0.231644,-2.97755 0.51476,-1.921 0.283105,1.05655 0.283105,2.78545 0,3.842 -0.283116,1.05655 -0.51476,0.1921 -0.51476,-1.921 z m 106.971502,2.53244 c 1.09515,-0.27832 2.61468,-0.26002 3.37673,0.0407 0.76205,0.3007 -0.13398,0.52841 -1.99118,0.50604 -1.8572,-0.0224 -2.48071,-0.26839 -1.38555,-0.54671 z m 27.03296,-14.05843 c 0.009,-3.01871 0.22705,-4.12335 0.48576,-2.45476 0.25873,1.66859 0.25181,4.13844 -0.0153,5.48857 -0.26717,1.35012 -0.47885,-0.015 -0.47041,-3.03381 z M 62.163054,211.06132 c 23.988861,-0.16532 63.243356,-0.16532 87.232216,0 23.98887,0.16533 4.36162,0.30059 -43.61611,0.30059 -47.977717,0 -67.604966,-0.13526 -43.616106,-0.30059 z"
         id="path4704" /><path
         style="fill:#e52931;stroke-width:1.11156"
         d="m 99.025702,316.18087 c 0,-0.68747 -14.716199,-1.19451 -40.239379,-1.38646 -22.131658,-0.16642 -0.706299,-0.41965 47.611907,-0.56272 68.38091,-0.20246 88.20097,-0.56422 89.42909,-1.63225 1.34228,-1.16732 1.35532,-1.08539 0.0873,0.54885 -1.37018,1.76594 -4.70491,1.921 -41.31066,1.921 -25.79644,0 -39.82022,0.38659 -39.82022,1.09771 0,0.62727 -3.37673,1.09772 -7.87904,1.09772 -4.43511,0 -7.879038,-0.47375 -7.879038,-1.08385 z m -82.776196,-3.38004 c -0.408055,-0.6439 -0.500521,-1.40617 -0.205474,-1.69391 0.295036,-0.28774 0.836371,0.23909 1.202961,1.17074 0.761092,1.9343 0.112445,2.27453 -0.997487,0.52317 z M 15.037125,287.0776 c 0.0023,-7.24491 0.184392,-10.06589 0.404813,-6.26884 0.220422,3.79705 0.21861,9.7247 -0.0045,13.17257 -0.22265,3.44785 -0.40299,0.34118 -0.400773,-6.90373 z M 141.79763,275.00275 c 1.45396,-1.50936 2.89682,-2.74428 3.20635,-2.74428 0.30954,0 -0.62681,1.23492 -2.08077,2.74428 -1.45397,1.50935 -2.89682,2.74428 -3.20636,2.74428 -0.30953,0 0.62682,-1.23493 2.08078,-2.74428 z m -22.02049,-0.88418 c -0.31011,-0.78817 -0.42085,-7.58027 -0.24606,-15.09356 l 0.3178,-13.66053 4.23065,-0.11508 4.23066,-0.1151 -3.94927,0.45579 -3.94925,0.45578 v 14.12766 c 0,13.77816 0.0627,14.13944 2.53254,14.60339 l 2.53255,0.47571 -2.56787,0.14949 c -1.41234,0.0822 -2.82162,-0.49538 -3.13175,-1.28355 z m -28.999542,-1.21474 c -0.472383,-1.20054 -2.865866,-1.74735 -8.862276,-2.02465 l -8.215103,-0.37992 8.022618,-0.21811 c 6.020599,-0.16369 8.377906,0.1994 9.446405,1.45499 0.783087,0.9202 1.160932,1.92944 0.839658,2.24276 -0.321273,0.31332 -0.875361,-0.17046 -1.231302,-1.07507 z m 36.106132,0.82307 c 0.77384,-0.30452 2.04011,-0.30452 2.81395,0 0.77383,0.30452 0.14069,0.55367 -1.40697,0.55367 -1.54767,0 -2.18081,-0.24915 -1.40698,-0.55367 z M 15.092829,242.07134 c 7.43e-4,-14.48981 0.160902,-20.26564 0.355919,-12.83518 0.195018,7.43047 0.194421,19.28578 -0.0011,26.34513 -0.19575,7.05935 -0.355311,0.97987 -0.35458,-13.50995 z m 132.421551,22.96051 c 0.054,-1.27878 0.32072,-1.53888 0.68003,-0.6632 0.32514,0.79241 0.28516,1.73918 -0.0888,2.10395 -0.37403,0.36476 -0.64005,-0.28358 -0.59118,-1.44075 z m -7.98847,-5.17569 0.54223,-5.70997 0.37415,4.81442 c 0.20578,2.64794 -0.0383,5.21742 -0.54223,5.70997 -0.50401,0.49254 -0.67237,-1.67395 -0.37415,-4.81442 z m -51.667114,2.98027 c 0.05403,-1.27878 0.320722,-1.53889 0.680029,-0.66321 0.325145,0.79241 0.285165,1.73919 -0.08881,2.10396 -0.374029,0.36476 -0.640048,-0.28359 -0.591176,-1.44075 z m -16.28558,-9.78795 c 0.925753,-4.03622 1.569989,-4.91239 1.546982,-2.10396 -0.009,1.15718 -0.531374,2.84492 -1.159772,3.75053 -0.834402,1.2025 -0.938822,0.75843 -0.38721,-1.64657 z m 75.941164,-0.0914 c 0.054,-1.27878 0.32072,-1.53889 0.68003,-0.66321 0.32514,0.79241 0.28516,1.73919 -0.0888,2.10396 -0.37403,0.36476 -0.64005,-0.28358 -0.59118,-1.44075 z m -12.01436,-4.02499 -2.14422,-2.46985 2.53255,2.09113 c 2.37997,1.96515 3.04496,2.84858 2.14421,2.84858 -0.21359,0 -1.35323,-1.11144 -2.53254,-2.46986 z m -55.609127,-0.20964 c 0,-0.86998 0.459269,-1.8586 1.020605,-2.19694 0.561337,-0.33834 0.75551,0.37346 0.431513,1.58178 -0.687289,2.56315 -1.452118,2.88715 -1.452118,0.61516 z m 60.896107,-5.6474 c -2.10353,-1.45765 -3.27141,-2.65028 -2.59533,-2.65028 0.67611,0 2.65042,1.21932 4.38738,2.7096 3.97776,3.41285 3.1805,3.38646 -1.79205,-0.0593 z m 47.55258,-12.5297 c 0,-5.13181 0.19389,-7.23119 0.43087,-4.66528 0.23696,2.56591 0.23696,6.76466 0,9.33056 -0.23698,2.56591 -0.43087,0.46653 -0.43087,-4.66528 z M 66.102574,219.84308 c 22.441192,-0.16623 59.163146,-0.16623 81.604336,0 22.44119,0.16623 4.08022,0.30225 -40.80217,0.30225 -44.882383,0 -63.243358,-0.13602 -40.802166,-0.30225 z m -48.418576,-6.99736 c 0.763524,-0.7502 1.671752,-1.08747 2.018306,-0.7495 0.346554,0.33798 -0.278142,0.95178 -1.388208,1.364 -1.604173,0.59571 -1.733456,0.46962 -0.630098,-0.6145 z m 84.437042,-0.68632 c 16.86959,-0.17075 44.47436,-0.17075 61.34395,0 16.86958,0.17076 3.0672,0.31046 -30.67198,0.31046 -33.739168,0 -47.541557,-0.1397 -30.67197,-0.31046 z"
         id="path4702" /><path
         style="fill:#ea1b23;stroke-width:1.11156"
         d="m 71.980832,342.56258 c -7.202713,-0.72109 -14.60148,-3.79203 -14.60148,-6.0605 0,-2.31986 5.007096,-4.07216 14.481213,-5.06787 5.345275,-0.56177 13.264261,-1.38638 17.597732,-1.83245 l 7.87904,-0.81105 0.340217,-5.763 0.340217,-5.76299 h 8.236619 8.23663 l 0.58193,5.03517 c 0.32007,2.76935 1.02173,5.46407 1.55924,5.98828 0.53751,0.5242 7.68425,1.4814 15.88164,2.12712 16.45116,1.29588 23.1344,2.91001 23.68953,5.72149 0.55885,2.83035 -5.41751,5.24929 -15.86327,6.42072 -10.25666,1.1502 -56.88642,1.15367 -68.359258,0.005 z M 16.898176,311.84831 c -0.751851,-1.37006 -1.165175,-19.02503 -1.165175,-49.76975 v -47.64651 l 2.763033,-1.22776 c 3.589533,-1.59501 174.929206,-0.47445 177.047896,1.15789 1.99584,1.53769 2.05013,96.34765 0.0563,98.29214 -1.02753,1.00209 -22.42769,1.31726 -89.44377,1.31726 -85.943068,0 -88.121521,-0.0518 -89.258264,-2.12327 z m 169.746694,-1.65187 c 0.50939,-2.56257 -1.22906,-4.15665 -3.57546,-3.27854 -2.19263,0.82056 -2.5167,4.42559 -0.46961,5.22415 2.20077,0.85852 3.62371,0.17411 4.04507,-1.94561 z m 2.40976,-47.54297 c -0.009,-22.18753 -0.42135,-40.96173 -0.91525,-41.72043 -0.71016,-1.09089 -17.83688,-1.32053 -81.8685,-1.09772 l -80.970474,0.28175 -0.294935,41.43869 -0.294923,41.43868 h 82.180652 82.18067 l -0.0172,-40.34097 z M 63.030559,277.4726 c 1.206956,-4.72229 6.000215,-17.11913 8.285688,-21.42935 1.001651,-1.88903 1.821183,-4.34828 1.821183,-5.465 0,-1.11671 0.445324,-2.49967 0.989608,-3.07322 0.544284,-0.57356 1.596574,-2.89522 2.338442,-5.15926 1.290351,-3.93792 1.564699,-4.11642 6.326644,-4.11642 2.737797,0 4.977808,0.13365 4.977808,0.29701 0,0.16335 3.292313,9.64319 7.316251,21.06631 4.023938,11.42313 7.316247,20.95173 7.316247,21.17468 0,0.22294 -1.88605,0.25204 -4.191218,0.0646 -3.769985,-0.30646 -4.308303,-0.74985 -5.356002,-4.4115 -1.704168,-5.956 -2.716051,-6.50381 -11.335765,-6.13698 l -7.715707,0.32836 -1.656343,5.21414 c -1.587108,4.99617 -1.831347,5.21414 -5.84251,5.21414 -4.159502,0 -4.180348,-0.0227 -3.274326,-3.56757 z m 25.473789,-14.81913 c -0.359543,-1.05655 -1.786662,-5.26338 -3.171369,-9.34852 -1.384696,-4.08514 -2.98494,-7.27562 -3.556081,-7.08996 -0.748069,0.24319 -5.792883,14.62329 -6.344574,18.08505 -0.02409,0.15094 3.054389,0.27443 6.840999,0.27443 6.055548,0 6.806004,-0.23136 6.231025,-1.921 z M 111.40705,259.488 v -21.55217 l 11.0831,0.52047 c 16.91316,0.79427 23.94361,5.58265 25.61053,17.44316 1.57159,11.18213 -5.29017,21.84527 -15.421,23.96415 -3.09395,0.64711 -9.14599,1.17656 -13.44899,1.17656 h -7.82364 z m 21.62259,12.59295 c 13.92801,-9.61189 7.04821,-28.65015 -9.77219,-27.04229 l -3.40857,0.32582 -0.3178,13.66053 c -0.17479,7.51329 -0.047,14.34863 0.28387,15.18965 0.81081,2.0606 9.06916,0.72718 13.21469,-2.13371 z"
         id="path4700" /><path
         style="fill:#0b0b0b;stroke-width:1.11156"
         d="m -17.482679,305.17226 c -0.718538,-1.13384 -15.220671,-10.97254 -21.374806,-14.50134 -8.744645,-5.0142 -32.275177,-16.18753 -38.832408,-18.43933 -8.530057,-2.92928 -11.211747,-4.846 -9.337462,-6.67389 0.692473,-0.67533 6.278486,-3.30801 12.41336,-5.85041 19.78326,-8.19852 54.557333,-27.27806 57.137701,-31.34983 0.38523,-0.60789 1.936799,-1.10525 3.447932,-1.10525 3.497814,0 3.628015,2.78645 0.29202,6.24955 -2.375446,2.46596 -2.39317,2.66508 -0.543678,6.10817 1.0515,1.95752 3.407822,5.53501 5.2362737,7.94998 3.6357151,4.80196 6.2845018,16.75557 5.0858906,22.95193 -1.7784939,9.19414 -3.3977299,13.61837 -6.3346113,17.30802 -5.596672,7.0312 -6.236943,9.31869 -3.42528,12.23747 3.319145,3.44562 3.180314,6.23025 -0.310615,6.23025 -1.511133,0 -3.065575,-0.50189 -3.454317,-1.11532 z m -2.802785,-13.25993 c 0,-0.66148 -0.929098,-2.51387 -2.064664,-4.11642 -7.788861,-10.99197 -7.814702,-31.37455 -0.05332,-42.05202 4.811967,-6.61991 1.73414,-6.95604 -8.449002,-0.92271 -6.660386,3.94616 -34.064938,17.60667 -41.209564,20.54196 -2.68787,1.10429 -2.486153,1.29378 4.502308,4.22935 11.308145,4.7501 29.812797,14.29216 36.917843,19.03693 6.426669,4.29176 10.356397,5.53745 10.356397,3.28291 z M -7.5776833,258.7419 c 0.8724471,-2.21728 -0.4245317,-7.66958 -2.3326189,-9.80597 -1.2990028,-1.45443 -2.0785018,-1.62069 -3.2297648,-0.68887 -1.939249,1.56959 -1.913737,3.39826 0.113419,8.12982 1.643676,3.83648 4.3993596,5.03254 5.4489647,2.36502 z"
         id="path4698" /></g></g></svg>
