<?xml version="1.0" encoding="UTF-8" standalone="no"?>
<!-- Created with Inkscape (http://www.inkscape.org/) -->

<svg
   version="1.1"
   id="svg224"
   width="341.73581"
   height="333.79257"
   viewBox="0 0 341.73581 333.79257"
   sodipodi:docname="СОЗДАТЬ РЕКЛАМУ.svg"
   inkscape:version="1.2.1 (9c6d41e410, 2022-07-14)"
   xml:space="preserve"
   xmlns:inkscape="http://www.inkscape.org/namespaces/inkscape"
   xmlns:sodipodi="http://sodipodi.sourceforge.net/DTD/sodipodi-0.dtd"
   xmlns="http://www.w3.org/2000/svg"
   xmlns:svg="http://www.w3.org/2000/svg"><defs
     id="defs228" /><sodipodi:namedview
     id="namedview226"
     pagecolor="#ffffff"
     bordercolor="#111111"
     borderopacity="1"
     inkscape:showpageshadow="0"
     inkscape:pageopacity="0"
     inkscape:pagecheckerboard="1"
     inkscape:deskcolor="#d1d1d1"
     showgrid="false"
     inkscape:zoom="0.74655358"
     inkscape:cx="-215.65766"
     inkscape:cy="223.02485"
     inkscape:window-width="1920"
     inkscape:window-height="1018"
     inkscape:window-x="-6"
     inkscape:window-y="-6"
     inkscape:window-maximized="1"
     inkscape:current-layer="g230" /><g
     inkscape:groupmode="layer"
     inkscape:label="Image"
     id="g230"
     transform="translate(108.56826,-92.793393)"><g
       id="g3498"
       transform="translate(-5.3579497,2.6789742)"><path
         style="fill:#fce5e5;stroke-width:1.10704"
         d="m -6.6783359,306.60658 c 0.808931,-0.31592 1.7754459,-0.27707 2.1478113,0.0863 0.3723643,0.36341 -0.2894883,0.62189 -1.4707836,0.5744 -1.3054317,-0.0525 -1.570965,-0.31162 -0.6770277,-0.66073 z m 63.4559249,-2.30834 c 0.451635,-0.77823 0.175038,-2.25465 -0.614681,-3.28092 -1.292754,-1.68001 -1.223389,-1.67602 0.695947,0.0401 1.780931,1.59235 1.882099,2.13235 0.614681,3.28093 -1.221731,1.10717 -1.357233,1.09936 -0.695947,-0.0401 z M 29.479352,292.49836 c 0.05379,-1.27404 0.319303,-1.53318 0.67702,-0.66075 0.323707,0.78947 0.283904,1.73274 -0.08842,2.09616 -0.372374,0.3634 -0.637216,-0.28254 -0.58856,-1.43541 z m -61.235469,-40.37362 c -6.84e-4,-15.03758 0.157142,-21.341 0.350724,-14.00761 0.193583,7.33341 0.194142,19.63688 0.0012,27.34105 -0.192898,7.70418 -0.351284,1.70414 -0.351968,-13.33344 z M 33.15044,251.0311 c -0.0034,-5.41353 0.186075,-7.76604 0.421086,-5.2278 0.235012,2.53824 0.237813,6.96749 0.0067,9.84278 -0.231594,2.87528 -0.423888,0.79854 -0.427295,-4.61498 z"
         id="path3558" /><path
         style="fill:#e6e6e6;stroke-width:1.10704"
         d="m -2.5988607,373.79241 -4.4296618,-4.64797 4.7625374,4.32311 c 4.429115,4.02045 5.2774854,4.97284 4.4296641,4.97284 -0.1830831,0 -2.32622499,-2.09159 -4.7625397,-4.64798 z m 71.7408827,-56.86938 -7.814125,-7.92891 8.124329,7.62617 c 7.545876,7.08318 8.636094,8.23164 7.814124,8.23164 -0.17061,0 -3.826558,-3.568 -8.124328,-7.9289 z m -34.778951,1.09364 -3.291294,-3.55434 3.64194,3.21213 c 3.394804,2.99415 4.157023,3.89655 3.291295,3.89655 -0.192855,0 -1.831728,-1.59945 -3.641941,-3.55434 z m -6.759553,-6.56185 -2.134726,-2.4607 2.521343,2.08338 c 2.369435,1.95786 3.031484,2.83801 2.134726,2.83801 -0.212644,0 -1.347249,-1.10731 -2.521343,-2.46069 z m -49.975985,-21.32324 c 7.585368,-0.18949 19.6878157,-0.18891 26.8943304,0.001 7.2065146,0.1902 1.000301,0.34523 -13.79158,0.34452 -14.7918814,-7.2e-4 -20.6881184,-0.15634 -13.1027504,-0.34582 z m 65.490662,7.5e-4 c 7.241858,-0.19049 19.092172,-0.19049 26.334031,0 7.241858,0.1905 1.316701,0.34636 -13.167016,0.34636 -14.483716,0 -20.408873,-0.15586 -13.167015,-0.34636 z m 43.919627,-36.91395 c -5.04e-4,-18.04509 0.153018,-25.58063 0.341155,-16.74564 0.188137,8.835 0.188551,23.59917 9.19e-4,32.80926 -0.187644,9.21011 -0.34157,1.98147 -0.342074,-16.06362 z m 36.701668,-3.28093 c 0.0229,-1.80451 0.27399,-2.41032 0.55811,-1.34624 0.28411,1.06408 0.26543,2.5405 -0.0416,3.28093 -0.30696,0.74043 -0.53942,-0.13018 -0.51658,-1.93469 z M 68.871756,210.01952 c 0,-2.10526 0.230619,-2.9665 0.512483,-1.91387 0.281853,1.05263 0.281853,2.77511 0,3.82774 -0.281864,1.05263 -0.512483,0.19139 -0.512483,-1.91387 z M 49.00133,188.14668 c 1.115543,-1.20301 2.280392,-2.18729 2.588556,-2.18729 0.308165,0 -0.352416,0.98428 -1.467959,2.18729 -1.115544,1.20301 -2.280393,2.18728 -2.588557,2.18728 -0.308164,0 0.352416,-0.98427 1.46796,-2.18728 z"
         id="path3556" /><path
         style="fill:#f7d1d3;stroke-width:1.10704"
         d="m -4.5071792,298.97387 c 0.7704105,-0.30339 2.0310822,-0.30339 2.8014926,0 0.77041051,0.30339 0.1400747,0.55162 -1.4007463,0.55162 -1.5408209,0 -2.1711567,-0.24823 -1.4007463,-0.55162 z m 52.6680612,0 c 0.77041,-0.30339 2.031082,-0.30339 2.801492,0 0.770411,0.30339 0.140075,0.55162 -1.400746,0.55162 -1.540821,0 -2.171157,-0.24823 -1.400746,-0.55162 z m 29.901507,-46.84913 c -6.84e-4,-15.03758 0.157141,-21.341 0.350724,-14.00761 0.193584,7.33341 0.194144,19.63688 0.0011,27.34105 -0.1929,7.70418 -0.351285,1.70414 -0.351968,-13.33344 z M 44.241235,251.0311 c 0.01244,-2.40602 0.241926,-3.26152 0.509961,-1.90113 0.268036,1.3604 0.257861,3.32895 -0.02264,4.37457 -0.280474,1.04562 -0.499786,-0.0675 -0.487347,-2.47344 z"
         id="path3554" /><path
         style="fill:#d7d7d7;stroke-width:1.10704"
         d="m -26.550503,325.30762 c 0.05377,-1.27404 0.319304,-1.53318 0.677028,-0.66074 0.323708,0.78946 0.283896,1.73273 -0.08847,2.09615 -0.372366,0.3634 -0.637218,-0.28253 -0.58856,-1.43541 z M -7.3086718,216.85556 c 16.486784,-0.17046 43.4651578,-0.17046 59.9519418,0 16.486784,0.17044 2.997597,0.3099 -29.975971,0.3099 -32.973568,0 -46.462755,-0.13946 -29.9759708,-0.3099 z M 177.56967,197.98946 c 0,-2.10526 0.23062,-2.96651 0.51248,-1.91388 0.28185,1.05263 0.28185,2.77512 0,3.82775 -0.28186,1.05263 -0.51248,0.19139 -0.51248,-1.91387 z m -0.0416,-11.48324 c 0.0229,-1.80451 0.27398,-2.41033 0.5581,-1.34624 0.28411,1.06408 0.26543,2.54049 -0.0416,3.28092 -0.30696,0.74043 -0.53942,-0.13017 -0.51658,-1.93468 z"
         id="path3552" /><path
         style="fill:#f6b1b3;stroke-width:1.10704"
         d="m 40.596852,258.8205 c 0,-0.2271 0.88247,-1.08834 1.961045,-1.91388 1.777334,-1.36035 1.816969,-1.32166 0.423092,0.41292 -1.463914,1.82173 -2.384137,2.40107 -2.384137,1.50096 z"
         id="path3550" /><path
         style="fill:#c8c8c8;stroke-width:1.10704"
         d="m 151.62443,269.53188 c 0.0538,-1.27404 0.3193,-1.53318 0.67702,-0.66075 0.32371,0.78947 0.2839,1.73274 -0.0884,2.09615 -0.37237,0.36341 -0.63721,-0.28253 -0.58856,-1.4354 z M 96.803635,232.986 c 0,-1.50376 0.254353,-2.11893 0.565218,-1.36705 0.310865,0.75188 0.310865,1.98223 0,2.73411 -0.310865,0.75187 -0.565218,0.1367 -0.565218,-1.36706 z m 10.748895,1.46299 c 0.77041,-0.30339 2.03108,-0.30339 2.80149,0 0.77041,0.30339 0.14007,0.55162 -1.40075,0.55162 -1.54082,0 -2.17116,-0.24823 -1.40074,-0.55162 z m 65.36324,-9.75644 c 0.0538,-1.27403 0.31931,-1.53317 0.67702,-0.66074 0.32371,0.78947 0.28391,1.73273 -0.0884,2.09615 -0.37236,0.36341 -0.63722,-0.28253 -0.58856,-1.43541 z M 90.813607,211.45973 c 0.808925,-0.31592 1.77544,-0.27708 2.147814,0.0863 0.372364,0.36341 -0.289495,0.62189 -1.470783,0.57441 -1.30544,-0.0525 -1.570965,-0.31163 -0.677031,-0.66074 z m 86.714543,-19.4853 c 0.0229,-1.80451 0.27399,-2.41033 0.5581,-1.34624 0.28412,1.06408 0.26544,2.54049 -0.0416,3.28092 -0.30697,0.74043 -0.53942,-0.13017 -0.51658,-1.93468 z"
         id="path3548" /><path
         style="fill:#b7b7b7;stroke-width:1.10704"
         d="m 83.179539,218.76866 c -1.009983,-0.63701 -1.148197,-1.06684 -0.346287,-1.0769 0.734036,-0.009 1.64627,0.47539 2.027183,1.0769 0.859834,1.35779 0.471906,1.35779 -1.680896,0 z"
         id="path3546" /><path
         style="fill:#f3888d;stroke-width:1.10704"
         d="m 25.350636,251.0311 c 0.0022,-8.42105 0.177648,-11.72145 0.390898,-7.33424 0.213249,4.38721 0.211815,11.27715 -0.0034,15.31099 -0.214807,4.03383 -0.389284,0.44429 -0.387536,-7.97675 z"
         id="path3544" /><path
         style="fill:#b6a6a8;stroke-width:1.10704"
         d="m -39.826153,282.19989 c 0,-2.10526 0.230613,-2.9665 0.512474,-1.91387 0.281861,1.05263 0.281861,2.77512 0,3.82775 -0.281861,1.05263 -0.512474,0.19139 -0.512474,-1.91388 z M 85.917225,253.21838 c -5.04e-4,-18.04509 0.153018,-25.58063 0.341155,-16.74564 0.188137,8.835 0.188551,23.59917 9.19e-4,32.80926 -0.187644,9.21011 -0.34157,1.98147 -0.342074,-16.06362 z"
         id="path3542" /><path
         style="fill:#d98e92;stroke-width:1.10704"
         d="m -4.5849452,224.51138 c 14.9031862,-0.17218 39.6123512,-0.17235 54.9092512,-3.7e-4 15.296901,0.17197 3.103382,0.31285 -27.096708,0.31305 -30.2000907,2e-4 -42.715735,-0.1405 -27.8125432,-0.31268 z"
         id="path3540" /><path
         style="fill:#a8a8a8;stroke-width:1.10704"
         d="m -25.429906,330.77583 c 0.05377,-1.27404 0.319304,-1.53318 0.677028,-0.66074 0.323708,0.78946 0.283896,1.73273 -0.08847,2.09615 -0.372366,0.3634 -0.637218,-0.28253 -0.58856,-1.43541 z M 176.40755,206.19177 c 0.0229,-1.80451 0.27399,-2.41032 0.55811,-1.34624 0.28411,1.06408 0.26543,2.5405 -0.0416,3.28093 -0.30696,0.74043 -0.53942,-0.13018 -0.51658,-1.93469 z m -0.0416,-26.79423 c 0,-1.50376 0.25435,-2.11893 0.56522,-1.36705 0.31086,0.75188 0.31086,1.98223 0,2.73411 -0.31087,0.75187 -0.56522,0.1367 -0.56522,-1.36706 z"
         id="path3538" /><path
         style="fill:#c9898b;stroke-width:1.10704"
         d="m -39.595631,249.93745 c -6.01e-4,-16.24058 0.155351,-23.03691 0.346559,-15.10296 0.191209,7.93395 0.1917,21.22171 0.0011,29.52833 -0.190608,8.30664 -0.347051,1.81522 -0.347652,-14.42537 z"
         id="path3536" /><path
         style="fill:#989898;stroke-width:1.10704"
         d="m -1.4555917,318.01667 -7.8141249,-7.9289 8.1243286,7.62616 c 4.4683807,4.19439 8.1243285,7.7624 8.1243285,7.9289 0,0.8022 -1.1767726,-0.26179 -8.4345322,-7.62616 z"
         id="path3534" /><path
         style="fill:#888888;stroke-width:1.10704"
         d="m 130.54609,256.28824 c 1.09031,-0.27728 2.60311,-0.25905 3.36179,0.0406 0.75868,0.29958 -0.13338,0.52644 -1.98237,0.50416 -1.84898,-0.0223 -2.46973,-0.2674 -1.37942,-0.54468 z m -15.68836,-22.96648 c 1.09031,-0.27728 2.60311,-0.25905 3.36179,0.0406 0.75868,0.29958 -0.13338,0.52644 -1.98237,0.50415 -1.84898,-0.0223 -2.46973,-0.26739 -1.37942,-0.54467 z"
         id="path3532" /><path
         style="fill:#ee4b52;stroke-width:1.10704"
         d="m 12.805395,307.63382 c 5.361698,-0.20004 14.438534,-0.20098 20.170747,-0.002 5.732212,0.19889 1.345366,0.36256 -9.748544,0.3637 -11.093911,10e-4 -15.7839011,-0.16157 -10.422203,-0.36161 z M 3.9127069,258.44864 c 1.7033747,-0.25139 4.224718,-0.24466 5.6029852,0.0149 1.3782669,0.25959 -0.015464,0.46526 -3.0970501,0.45705 -3.0816419,-0.009 -4.2093099,-0.22061 -2.5059351,-0.47198 z M 45.2977,251.0311 c 0.02286,-1.80451 0.273986,-2.41033 0.558102,-1.34624 0.284117,1.06408 0.265436,2.54049 -0.04157,3.28092 -0.306965,0.74043 -0.539421,-0.13017 -0.516584,-1.93468 z"
         id="path3530" /><path
         style="fill:#cb5c63;stroke-width:1.10704"
         d="m 2.2164031,218.04436 c 0.7704105,-0.30339 2.0310821,-0.30339 2.8014926,0 0.7704105,0.30339 0.1400746,0.55162 -1.4007463,0.55162 -1.5408209,0 -2.1711568,-0.24823 -1.4007463,-0.55162 z m 55.5207759,-0.0896 c 4.804706,-0.2055 12.368736,-0.20425 16.808956,0.003 4.440209,0.20703 0.509076,0.37516 -8.73585,0.37363 -9.244925,-0.001 -12.877823,-0.17092 -8.073106,-0.37642 z"
         id="path3528" /><path
         style="fill:#ec3b42;stroke-width:1.10704"
         d="m 32.106805,259.95698 c -0.316535,-0.80506 -0.426779,-5.35734 -0.244974,-10.11619 0.310047,-8.11593 0.487953,-8.66149 2.869065,-8.79798 2.111653,-0.12105 2.158763,-0.0623 0.280149,0.34947 -2.043487,0.44789 -2.258373,1.36466 -2.258373,9.63469 0,7.78485 0.290706,9.21384 1.961045,9.63985 1.83788,0.46873 1.835673,0.50811 -0.03519,0.62701 -1.097928,0.0698 -2.255202,-0.53181 -2.571748,-1.33685 z m 15.070686,-20.13571 c -1.393877,-1.73459 -1.354242,-1.77327 0.423092,-0.41292 1.078575,0.82554 1.961045,1.68678 1.961045,1.91387 0,0.90011 -0.920223,0.32078 -2.384137,-1.50095 z"
         id="path3526" /><path
         style="fill:#7a7475;stroke-width:1.10704"
         d="m -0.86523878,374.61265 c -2.72196272,-2.70677 -4.69688832,-4.92139 -4.38872422,-4.92139 0.3081642,0 2.7873586,2.21462 5.50932126,4.92139 2.72196384,2.70676 4.69689284,4.92139 4.38872864,4.92139 -0.3081642,0 -2.7873618,-2.21463 -5.50932568,-4.92139 z m 70.00726078,-56.59598 -7.814125,-7.9289 8.124329,7.62616 c 7.545876,7.08318 8.636094,8.23165 7.814124,8.23165 -0.17061,0 -3.826558,-3.56801 -8.124328,-7.92891 z m -88.497112,-0.82023 c 3.659384,-3.60902 6.905559,-6.56185 7.213724,-6.56185 0.308164,0 -2.433743,2.95283 -6.093127,6.56185 -3.659384,3.60902 -6.905559,6.56185 -7.213723,6.56185 -0.308165,0 2.433742,-2.95283 6.093126,-6.56185 z m -1.89678,-28.15851 c 7.585368,-0.18948 19.6878157,-0.1889 26.8943305,10e-4 7.2065145,0.19019 1.0003009,0.34523 -13.79158,0.34452 -14.7918815,-7.2e-4 -20.6881185,-0.15634 -13.1027505,-0.34582 z m 62.753436,0 c 7.585366,-0.18948 19.687814,-0.1889 26.894329,10e-4 7.206515,0.19019 1.000301,0.34523 -13.79158,0.34452 -14.791881,-7.2e-4 -20.688115,-0.15634 -13.102749,-0.34582 z m 9.482133,-98.36821 c 1.090308,-0.27728 2.603114,-0.25905 3.361791,0.0405 0.758678,0.29958 -0.133384,0.52644 -1.982369,0.50415 -1.848985,-0.0223 -2.469729,-0.26739 -1.379422,-0.54467 z"
         id="path3524" /><path
         style="fill:#ce474d;stroke-width:1.10704"
         d="m 16.843769,217.95229 c 6.350155,-0.1953 16.435528,-0.1945 22.411941,0.002 5.976424,0.19626 0.780843,0.35605 -11.545724,0.35508 -12.326568,-9.7e-4 -17.21636,-0.16155 -10.866217,-0.35684 z"
         id="path3522" /><path
         style="fill:#e8363d;stroke-width:1.10704"
         d="m 11.181179,297.88023 c 0.770411,-0.30339 2.031083,-0.30339 2.801493,0 0.77041,0.30338 0.140075,0.55162 -1.400746,0.55162 -1.540821,0 -2.171157,-0.24824 -1.400747,-0.55162 z m 21.361382,-0.0227 c 0.808925,-0.31592 1.77544,-0.27707 2.147814,0.0863 0.372363,0.3634 -0.289495,0.62189 -1.470783,0.5744 -1.30544,-0.0525 -1.570965,-0.31162 -0.677031,-0.66073 z m 46.625454,-39.17089 c -9.97e-4,-12.03006 0.162733,-17.10067 0.363824,-11.268 0.201091,5.83265 0.201909,15.67543 0.0022,21.87284 -0.200105,6.1974 -0.364642,1.42522 -0.365628,-10.60484 z"
         id="path3520" /><path
         style="fill:#d83b42;stroke-width:1.10704"
         d="m 84.796628,253.21838 c -5.04e-4,-18.04509 0.153018,-25.58063 0.341155,-16.74564 0.188137,8.835 0.188551,23.59917 9.19e-4,32.80926 -0.187644,9.21011 -0.34157,1.98147 -0.342074,-16.06362 z M -26.91912,217.955 c 5.084709,-0.20264 13.405142,-0.20264 18.4898512,0 5.0847091,0.20265 0.9244925,0.36845 -9.2449252,0.36845 -10.169419,0 -14.329635,-0.1658 -9.244926,-0.36845 z"
         id="path3518" /><path
         style="fill:#db2930;stroke-width:1.10704"
         d="m -8.7094181,288.73238 c -18.8755389,-0.39614 -8.8957829,-0.60591 31.9370161,-0.6713 32.665403,-0.0523 58.383105,0.0607 57.150449,0.25111 -4.560987,0.70458 -62.512473,0.97792 -89.0874651,0.42019 z m -29.9961379,-6.53249 c 0,-2.10526 0.230613,-2.9665 0.512474,-1.91387 0.281861,1.05263 0.281861,2.77512 0,3.82775 -0.281861,1.05263 -0.512474,0.19139 -0.512474,-1.91388 z"
         id="path3516" /><path
         style="fill:#e92129;stroke-width:1.10704"
         d="m -4.5849452,280.28713 c 14.9031862,-0.17219 39.6123512,-0.17235 54.9092512,-3.8e-4 15.296901,0.17198 3.103382,0.31285 -27.096708,0.31306 -30.2000907,2e-4 -42.715735,-0.1405 -27.8125432,-0.31268 z M -38.475034,249.93745 c -6e-4,-16.24058 0.155351,-23.03691 0.346559,-15.10296 0.191209,7.93395 0.1917,21.22171 0.0011,29.52833 -0.190608,8.30664 -0.347051,1.81522 -0.347652,-14.42537 z m 89.439851,1.09365 c 0.01244,-2.40602 0.241926,-3.26152 0.509962,-1.90113 0.268035,1.3604 0.25786,3.32895 -0.02264,4.37457 -0.280475,1.04562 -0.499787,-0.0675 -0.487348,-2.47344 z m 28.079574,-19.68556 c 0.0067,-3.60902 0.21549,-4.95359 0.46489,-2.98793 0.249401,1.96566 0.244257,4.91849 -0.01143,6.56185 -0.255697,1.64336 -0.459747,0.0351 -0.45346,-3.57392 z"
         id="path3514" /><path
         style="fill:#666666;stroke-width:1.10704"
         d="m 33.730326,318.56349 c -1.393877,-1.73458 -1.354241,-1.77326 0.423093,-0.41291 1.078574,0.82553 1.961045,1.68678 1.961045,1.91387 0,0.90011 -0.920223,0.32078 -2.384138,-1.50096 z M 25.886147,310.908 c -1.393877,-1.73458 -1.354242,-1.77327 0.423092,-0.41292 1.078575,0.82554 1.961045,1.68678 1.961045,1.91388 0,0.90011 -0.920223,0.32077 -2.384137,-1.50096 z"
         id="path3512" /><path
         style="fill:#ea1b23;stroke-width:1.10704"
         d="m -7.3086718,305.44484 c -2.0030672,-0.97291 -3.6419402,-2.13362 -3.6419402,-2.57934 0,-1.55923 8.4853971,-3.53121 17.9295525,-4.16678 l 9.5250745,-0.64102 0.3478,-4.10115 0.347789,-4.10116 h 6.027994 6.027994 l 0.347788,4.10116 0.3478,4.10115 5.602985,0.24729 c 3.081642,0.13599 9.006799,0.79586 13.167015,1.46636 8.419606,1.35699 9.716843,3.15873 4.257888,5.91376 -4.98492,2.5158 -55.0240512,2.31637 -60.2877398,-0.24027 z M -37.333158,286.29861 c -0.300277,-0.76368 -0.412201,-16.1473 -0.248722,-34.18583 l 0.297237,-32.7973 h 60.512241 60.51224 v 33.9029 33.9029 l -60.263524,0.28293 c -47.886149,0.22482 -60.375647,-0.002 -60.809472,-1.1056 z m 115.273525,-0.44375 c 1.01339,-0.98902 -1.498036,-3.77584 -2.731982,-3.03156 -1.545012,0.93191 -1.16885,3.75116 0.500504,3.75116 0.821778,0 1.825934,-0.32383 2.231478,-0.7196 z m 0.496649,-5.6622 c 1.098633,-0.68056 1.352706,-7.06183 1.120597,-28.14454 l -0.300163,-27.26443 -55.749703,-0.28363 -55.749703,-0.28361 v 27.71581 c 0,15.24369 0.336179,28.0439 0.747065,28.44489 1.074815,1.04897 108.231031,0.86913 109.931907,-0.18449 z m -84.2622582,-18.9707 c 0.9936625,-2.59747 2.223594,-5.70693 2.7331821,-6.90994 0.509587,-1.203 2.27171244,-5.75529 3.91583001,-10.11619 2.71922959,-7.21251 3.26764979,-7.9289 6.06996039,-7.9289 2.9542524,0 3.2917537,0.60577 8.2258767,14.76417 l 5.145222,14.76416 h -2.688817 c -2.093835,0 -2.896609,-0.7865 -3.627899,-3.55433 -0.905162,-3.42599 -1.167696,-3.56614 -7.269739,-3.88098 -6.31863212,-0.32602 -6.3324715,-0.31979 -7.28204302,3.28093 -0.74368418,2.81999 -1.61470748,3.68355 -3.98980848,3.95565 l -3.0384238,0.34807 z m 16.1659742,-8.53471 c 0,-2.77737 -2.8225378,-10.94527 -3.6853191,-10.66459 -0.5343006,0.17382 -1.8632727,2.88699 -2.9532662,6.02929 l -1.9817983,5.71325 h 4.3101972 c 2.3706007,0 4.3101864,-0.48507 4.3101864,-1.07795 z M 26.02909,251.0311 v -14.76417 h 5.106763 c 13.952957,0 19.546372,4.17099 19.546372,14.57568 0,10.13397 -6.204634,14.93151 -19.330299,14.94655 l -5.322836,0.006 z m 17.649404,6.48136 c 2.807723,-3.09084 3.376695,-9.68698 1.084962,-12.57802 -1.481194,-1.86852 -7.725811,-4.29294 -11.057402,-4.29294 -1.874624,0 -2.073979,1.01207 -2.073979,10.52937 v 10.52938 l 4.762538,-0.70611 c 3.055924,-0.45308 5.666041,-1.70071 7.283881,-3.48168 z"
         id="path3510" /><path
         style="fill:#565656;stroke-width:1.10704"
         d="m 140.04984,255.22819 c 0.77041,-0.30339 2.03108,-0.30339 2.80149,0 0.77041,0.30339 0.14008,0.55162 -1.40074,0.55162 -1.54083,0 -2.17116,-0.24823 -1.40075,-0.55162 z M 67.709641,194.16171 c 0.02286,-1.80451 0.273986,-2.41032 0.558102,-1.34624 0.284116,1.06408 0.265436,2.5405 -0.04157,3.28093 -0.306965,0.74042 -0.539422,-0.13018 -0.516584,-1.93469 z"
         id="path3508" /><path
         style="fill:#363636;stroke-width:1.10704"
         d="m 110.16234,327.49491 c 0.0538,-1.27404 0.3193,-1.53318 0.67702,-0.66075 0.32371,0.78947 0.2839,1.73273 -0.0884,2.09615 -0.37237,0.36341 -0.63721,-0.28253 -0.58856,-1.4354 z m -28.663696,-3.73662 c 1.115543,-1.203 2.280392,-2.18728 2.588557,-2.18728 0.308164,0 -0.352417,0.98428 -1.46796,2.18728 -1.115543,1.20301 -2.280393,2.18729 -2.588557,2.18729 -0.308164,0 0.352417,-0.98428 1.46796,-2.18729 z m -30.816419,-4.78748 c 0,-0.2271 0.88247,-1.08834 1.961045,-1.91388 1.777334,-1.36034 1.81697,-1.32166 0.423093,0.41292 -1.463915,1.82173 -2.384138,2.40107 -2.384138,1.50096 z m 38.660598,-2.86801 c 1.115543,-1.20301 2.280393,-2.18729 2.588557,-2.18729 0.308164,0 -0.352417,0.98428 -1.46796,2.18729 -1.115543,1.203 -2.280392,2.18728 -2.588557,2.18728 -0.308164,0 0.352417,-0.98428 1.46796,-2.18728 z m 34.396667,-76.00812 c 0.0229,-1.80451 0.27399,-2.41033 0.55811,-1.34624 0.28411,1.06408 0.26543,2.54049 -0.0416,3.28092 -0.30696,0.74043 -0.53942,-0.13017 -0.51658,-1.93468 z M 95.766085,216.58137 c 0,-2.10526 0.230619,-2.9665 0.512483,-1.91387 0.281853,1.05263 0.281853,2.77512 0,3.82775 -0.281864,1.05263 -0.512483,0.19138 -0.512483,-1.91388 z m -20.640837,-4.028 c 0.808926,-0.31592 1.77544,-0.27708 2.147815,0.0863 0.372363,0.3634 -0.289495,0.62188 -1.470784,0.5744 -1.305439,-0.0525 -1.570965,-0.31162 -0.677031,-0.66074 z m -6.29501,-10.73617 c 0.02286,-1.8045 0.273986,-2.41032 0.558102,-1.34624 0.284117,1.06408 0.265436,2.5405 -0.04157,3.28093 -0.306965,0.74043 -0.539422,-0.13018 -0.516584,-1.93469 z M 58.246255,189.60967 c 0.770411,-0.30339 2.031082,-0.30339 2.801493,0 0.77041,0.30338 0.140074,0.55162 -1.400747,0.55162 -1.54082,0 -2.171156,-0.24824 -1.400746,-0.55162 z"
         id="path3506" /><path
         style="fill:#252525;stroke-width:1.10704"
         d="m 33.59312,391.93344 c 0.770411,-0.30338 2.031082,-0.30338 2.801493,0 0.77041,0.30339 0.140074,0.55162 -1.400746,0.55162 -1.540821,0 -2.171157,-0.24823 -1.400747,-0.55162 z m 15.149385,-0.0336 c 1.090308,-0.27728 2.603114,-0.25905 3.361791,0.0406 0.758678,0.29958 -0.133384,0.52645 -1.982369,0.50416 -1.848985,-0.0223 -2.469729,-0.2674 -1.379422,-0.54468 z M 91.023719,368.1847 c 0,-0.2271 0.88247,-1.08834 1.961044,-1.91387 1.777335,-1.36035 1.81697,-1.32167 0.423093,0.41291 -1.463914,1.82174 -2.384137,2.40107 -2.384137,1.50096 z M -25.429906,325.30762 c 0.05377,-1.27404 0.319304,-1.53318 0.677028,-0.66074 0.323708,0.78946 0.283896,1.73273 -0.08847,2.09615 -0.372366,0.3634 -0.637218,-0.28253 -0.58856,-1.43541 z M 151.79594,262.51434 c 0,-2.10526 0.23062,-2.96651 0.51248,-1.91388 0.28185,1.05263 0.28185,2.77512 0,3.82775 -0.28186,1.05263 -0.51248,0.19139 -0.51248,-1.91387 z m -26.97738,-13.12371 c 0,-1.50375 0.25435,-2.11893 0.56522,-1.36705 0.31086,0.75188 0.31086,1.98223 0,2.73411 -0.31087,0.75187 -0.56522,0.1367 -0.56522,-1.36706 z M 99.778383,234.42621 c 0.808927,-0.31592 1.775437,-0.27708 2.147817,0.0863 0.37236,0.3634 -0.2895,0.62189 -1.47079,0.5744 -1.305435,-0.0525 -1.570961,-0.31162 -0.677027,-0.66074 z m -2.891701,-9.0957 c 0,-2.10526 0.230619,-2.96651 0.512483,-1.91388 0.281853,1.05264 0.281853,2.77512 0,3.82775 -0.281864,1.05263 -0.512483,0.19139 -0.512483,-1.91387 z M 69.950835,209.4727 c 0.02286,-1.80451 0.273986,-2.41032 0.558102,-1.34624 0.284117,1.06408 0.265436,2.5405 -0.04157,3.28092 -0.306965,0.74043 -0.539422,-0.13017 -0.516584,-1.93468 z m 12.409582,1.97622 c 1.090307,-0.27728 2.603113,-0.25905 3.361791,0.0406 0.758677,0.29959 -0.133385,0.52645 -1.98237,0.50416 -1.848985,-0.0223 -2.469729,-0.26739 -1.379421,-0.54467 z m 94.226443,-19.47449 c -0.003,-5.41353 0.18608,-7.76604 0.42109,-5.2278 0.23501,2.53824 0.23781,6.96749 0.007,9.84278 -0.23211,2.87528 -0.4244,0.79854 -0.42781,-4.61498 z M 63.919278,188.49324 c 0.808925,-0.31592 1.77544,-0.27707 2.147814,0.0863 0.372364,0.36342 -0.289495,0.62189 -1.470783,0.5744 -1.30544,-0.0525 -1.570965,-0.31162 -0.677031,-0.66073 z M 131.1551,149.12213 c 0.80893,-0.31593 1.77544,-0.27707 2.14781,0.0863 0.37237,0.36341 -0.28949,0.62189 -1.47078,0.5744 -1.30544,-0.0525 -1.57096,-0.31162 -0.67703,-0.66074 z m 16.80896,0 c 0.80892,-0.31593 1.77544,-0.27707 2.14781,0.0863 0.37236,0.36341 -0.28949,0.62189 -1.47078,0.5744 -1.30544,-0.0525 -1.57097,-0.31162 -0.67703,-0.66074 z"
         id="path3504" /><path
         style="fill:#161616;stroke-width:1.10704"
         d="m 30.301366,390.81702 c 0.808926,-0.31592 1.775441,-0.27707 2.147815,0.0863 0.372363,0.3634 -0.289495,0.62189 -1.470783,0.5744 -1.30544,-0.0525 -1.570965,-0.31162 -0.677032,-0.66073 z M -24.22084,330.32014 c 0,-1.50375 0.254345,-2.11893 0.565213,-1.36705 0.310868,0.75188 0.310868,1.98223 0,2.73411 -0.310868,0.75188 -0.565213,0.1367 -0.565213,-1.36706 z m 27.1712229,-6.83526 -2.13472612,-2.46069 2.52134332,2.08337 c 2.3694352,1.95786 3.031484,2.83802 2.1347262,2.83802 -0.2126445,0 -1.347249,-1.10732 -2.5213434,-2.4607 z M 104.32794,318.56349 c -1.39388,-1.73458 -1.35424,-1.77326 0.42309,-0.41291 1.07858,0.82553 1.96105,1.68678 1.96105,1.91387 0,0.90011 -0.92023,0.32078 -2.38414,-1.50096 z m -109.2217386,-2.7341 -2.1347239,-2.4607 2.5213433,2.08338 c 2.3694408,1.95786 3.031484,2.83801 2.134724,2.83801 -0.2126412,0 -1.3472457,-1.10731 -2.5213434,-2.46069 z M 152.83349,269.07619 c 0,-1.50376 0.25435,-2.11893 0.56521,-1.36705 0.31087,0.75188 0.31087,1.98222 0,2.7341 -0.31086,0.75188 -0.56521,0.13671 -0.56521,-1.36705 z M 97.924232,231.89236 c 0,-1.50376 0.254353,-2.11893 0.565218,-1.36705 0.310865,0.75188 0.310865,1.98222 0,2.7341 -0.310865,0.75188 -0.565218,0.13671 -0.565218,-1.36705 z m 9.628298,1.46299 c 0.77041,-0.30339 2.03108,-0.30339 2.80149,0 0.77041,0.30338 0.14007,0.55162 -1.40075,0.55162 -1.54082,0 -2.17116,-0.24824 -1.40074,-0.55162 z m 12.3966,-1.11643 c 0.80893,-0.31592 1.77544,-0.27707 2.14781,0.0863 0.37237,0.36341 -0.28949,0.62189 -1.47078,0.57441 -1.30544,-0.0525 -1.57096,-0.31163 -0.67703,-0.66074 z M 90.204596,210.35528 c 1.090307,-0.27728 2.603113,-0.25905 3.361791,0.0406 0.758678,0.29958 -0.133385,0.52645 -1.98237,0.50416 -1.848985,-0.0223 -2.469728,-0.26739 -1.379421,-0.54468 z m 85.123884,-4.71033 c 0,-2.10526 0.23061,-2.9665 0.51248,-1.91387 0.28185,1.05263 0.28185,2.77511 0,3.82775 -0.28187,1.05263 -0.51248,0.19138 -0.51248,-1.91388 z m -0.0416,-25.70059 c 0.0229,-1.80451 0.27399,-2.41031 0.5581,-1.34624 0.28412,1.06408 0.26544,2.5405 -0.0416,3.28093 -0.30697,0.74043 -0.53942,-0.13018 -0.51658,-1.93469 z m -49.80482,-29.70581 c 0.77041,-0.30339 2.03108,-0.30339 2.80149,0 0.77041,0.30339 0.14007,0.55162 -1.40075,0.55162 -1.54082,0 -2.17115,-0.24823 -1.40074,-0.55162 z m 25.84377,-0.0228 c 0.80892,-0.31592 1.77544,-0.27707 2.14781,0.0863 0.37236,0.36341 -0.28949,0.62189 -1.47078,0.57441 -1.30544,-0.0525 -1.57097,-0.31163 -0.67703,-0.66075 z"
         id="path3502" /><path
         style="fill:#000000;stroke-width:1.10704"
         d="m 37.235061,392.05181 c -2.773478,-0.77293 -6.227147,-1.44493 -7.674824,-1.49334 -2.498214,-0.0836 -8.850442,-2.3925 -12.495923,-4.54214 -0.924493,-0.54515 -3.557235,-1.9833 -5.850525,-3.19591 C 6.6440837,380.40415 -5.725369,368.82338 -9.2561215,363.65567 -17.160407,352.08675 -22.551125,339.39757 -23.769766,329.49206 l -0.707339,-5.74947 6.765962,-6.68572 c 5.328118,-5.26491 7.089707,-6.42349 8.2893872,-5.45178 0.8378838,0.67864 4.8995001,4.51261 9.02581186,8.51991 l 7.50238594,7.28601 8.751986,-8.49136 8.751986,-8.49137 6.690122,6.3916 c 3.67957,3.51538 7.799781,7.34589 9.156039,8.51225 l 2.465908,2.12067 8.750305,-8.48974 8.750294,-8.48972 6.645522,6.36907 c 3.655029,3.50299 7.785695,7.32336 9.179247,8.48972 l 2.533737,2.12067 8.706019,-8.44678 8.706031,-8.44676 7.449812,7.12892 7.4498,7.12892 -2.21699,8.49315 c -2.7205,10.42204 -4.70266,15.14902 -10.276812,24.50775 -4.02384,6.75582 -13.278201,17.12434 -19.96087,22.36396 -5.294463,4.15122 -19.498904,10.20326 -26.275457,11.19512 -3.697971,0.54126 -7.479986,1.23069 -8.404478,1.53208 -0.924493,0.30138 -3.950105,-0.0844 -6.723582,-0.85735 z M 153.18381,271.31566 c 1.0196,-1.61007 -1.41245,-14.50849 -3.03403,-16.09108 -1.15471,-1.12693 -3.50848,-1.15947 -11.80003,-0.16313 -5.69667,0.68452 -10.71564,0.89516 -11.15326,0.46806 -0.43763,-0.42709 -1.40834,-5.49203 -2.15716,-11.25542 -0.74883,-5.76338 -1.77498,-10.86314 -2.28035,-11.33281 -0.50536,-0.46965 -5.8816,-0.36865 -11.94718,0.22445 -6.06557,0.59311 -11.261369,0.85093 -11.546202,0.57295 -0.284834,-0.27798 -1.123836,-5.21437 -1.86445,-10.96974 -0.740613,-5.75537 -1.916635,-11.02067 -2.613378,-11.70065 -1.159067,-1.13119 -11.760934,-0.28255 -21.250352,1.70098 -2.210904,0.46215 -2.448023,-0.21732 -3.795361,-10.8755 -0.790425,-6.25265 -1.82496,-11.98088 -2.298972,-12.72939 -0.677312,-1.06956 -2.243985,-1.09006 -7.317353,-0.0957 -13.02229,2.55235 -13.083531,1.94474 -0.699186,-6.93704 6.290304,-4.51128 11.661415,-8.20232 11.935793,-8.20232 0.274378,0 2.789996,-1.50906 5.590256,-3.35348 13.434916,-8.84901 35.558805,-17.23426 55.503305,-21.03649 7.84688,-1.49593 8.96607,-1.45402 17.76162,0.66511 12.23986,2.94897 18.75634,8.25043 22.7426,18.50213 2.41015,6.19833 2.66721,8.55832 2.65351,24.36147 -0.0156,17.9684 -1.05951,24.82474 -6.41091,42.10522 -2.20995,7.13626 -7.00337,19.68032 -8.74657,22.88922 -0.51323,0.94475 -2.28512,4.54752 -3.93757,8.00616 -1.65244,3.45865 -3.22715,6.28844 -3.49937,6.28844 -0.2722,0 -0.19814,-0.46864 0.1646,-1.04145 z"
         id="path3500" /></g></g></svg>
