<?xml version="1.0" encoding="UTF-8" standalone="no"?>
<svg
   xmlns:dc="http://purl.org/dc/elements/1.1/"
   xmlns:cc="http://creativecommons.org/ns#"
   xmlns:rdf="http://www.w3.org/1999/02/22-rdf-syntax-ns#"
   xmlns:svg="http://www.w3.org/2000/svg"
   xmlns="http://www.w3.org/2000/svg"
   xmlns:sodipodi="http://sodipodi.sourceforge.net/DTD/sodipodi-0.dtd"
   xmlns:inkscape="http://www.inkscape.org/namespaces/inkscape"
   inkscape:version="1.0 (4035a4fb49, 2020-05-01)"
   sodipodi:docname="лћла.svg"
   version="1.1"
   id="svg4362"
   width="1721.4124"
   height="1720.5924"
   viewBox="0 0 1721.4123 1720.5924">
  <sodipodi:namedview
     inkscape:current-layer="svg4362"
     inkscape:window-maximized="1"
     inkscape:window-y="-6"
     inkscape:window-x="-6"
     inkscape:cy="1250.4279"
     inkscape:cx="1021.6698"
     inkscape:zoom="0.24267578"
     showgrid="false"
     id="namedview261"
     inkscape:window-height="1018"
     inkscape:window-width="1920"
     inkscape:pageshadow="2"
     inkscape:pageopacity="0"
     guidetolerance="10"
     gridtolerance="10"
     objecttolerance="10"
     borderopacity="1"
     bordercolor="#666666"
     pagecolor="#ffffff"
     inkscape:document-rotation="0" />
  <metadata
     id="metadata4368">
    <rdf:RDF>
      <cc:Work
         rdf:about="">
        <dc:format>image/svg+xml</dc:format>
        <dc:type
           rdf:resource="http://purl.org/dc/dcmitype/StillImage" />
        <dc:title></dc:title>
      </cc:Work>
    </rdf:RDF>
  </metadata>
  <defs
     id="defs4366" />
  <path
     id="path7"
     d="m 44.9568,1579.2256 c 0,-124.6513 0.2572,-141.3667 2.1754,-141.3667 1.1964,0 2.1753,-0.6264 2.1753,-1.3918 0,-0.7655 1.9578,-1.8402 4.3507,-2.3881 2.3928,-0.5479 4.3506,-1.9627 4.3506,-3.144 0,-1.1813 0.9789,-2.1478 2.1753,-2.1478 1.1965,0 2.1754,-1.0206 2.1754,-2.2679 0,-1.2474 0.9789,-2.2679 2.1753,-2.2679 1.1964,0 2.1753,-1.0206 2.1753,-2.2679 0,-1.512 1.4503,-2.268 4.3507,-2.268 2.9004,0 4.3507,-0.7559 4.3507,-2.2679 0,-1.2473 0.9789,-2.2679 2.1753,-2.2679 1.1964,0 2.1753,-1.0206 2.1753,-2.2679 0,-1.512 1.4503,-2.2679 4.3507,-2.2679 2.9004,0 4.3507,-0.756 4.3507,-2.2679 0,-1.2474 0.9789,-2.268 2.1753,-2.268 1.1964,0 2.1753,-1.0205 2.1753,-2.2679 0,-1.2473 1.2586,-2.2679 2.7969,-2.2679 1.5382,0 3.7757,-1.0206 4.9722,-2.2679 1.1964,-1.2474 3.2008,-2.2679 4.4542,-2.2679 1.2534,0 2.2789,-1.0206 2.2789,-2.2679 0,-1.512 1.4502,-2.268 4.3507,-2.268 2.9004,0 4.3507,-0.7559 4.3507,-2.2679 0,-1.2473 0.9789,-2.2679 2.1753,-2.2679 1.1964,0 2.1753,-1.0205 2.1753,-2.2679 0,-1.5119 1.4502,-2.2679 4.3507,-2.2679 2.9004,0 4.3506,-0.756 4.3506,-2.2679 0,-1.512 1.4503,-2.268 4.3507,-2.268 2.9004,0 4.3507,-0.7559 4.3507,-2.2679 0,-1.5119 1.4502,-2.2679 4.3506,-2.2679 3.3839,0 4.3507,-0.672 4.3507,-3.0239 0,-2.3519 0.9668,-3.0239 4.3507,-3.0239 2.9004,0 4.3506,-0.7559 4.3506,-2.2679 0,-1.2473 0.9789,-2.2679 2.1753,-2.2679 1.1965,0 2.1754,-1.0206 2.1754,-2.2679 0,-1.512 1.4502,-2.2679 4.3506,-2.2679 2.9005,0 4.3507,-0.756 4.3507,-2.2679 0,-1.7136 1.7725,-2.268 7.2511,-2.268 5.4786,0 7.2511,-0.5543 7.2511,-2.2679 0,-1.5119 1.4502,-2.2679 4.3507,-2.2679 2.9004,0 4.3506,-0.756 4.3506,-2.2679 0,-1.512 1.4503,-2.2679 4.3507,-2.2679 2.9004,0 4.3507,-0.756 4.3507,-2.2679 0,-1.68 1.6919,-2.268 6.526,-2.268 4.834,0 6.526,-0.5879 6.526,-2.2679 0,-1.6799 1.6919,-2.2679 6.526,-2.2679 4.834,0 6.5259,-0.588 6.5259,-2.2679 0,-1.6799 1.692,-2.2679 6.526,-2.2679 4.8341,0 6.526,-0.588 6.526,-2.2679 0,-1.7834 2.0142,-2.268 9.4265,-2.268 7.4122,0 9.4264,-0.4845 9.4264,-2.2679 0,-1.8479 2.417,-2.2679 13.052,-2.2679 10.6349,0 13.052,-0.42 13.052,-2.2679 0,-1.9456 4.4312,-2.2679 31.1797,-2.2679 26.7485,0 31.1798,0.3223 31.1798,2.2679 0,1.8479 2.417,2.2679 13.052,2.2679 10.6349,0 13.052,0.42 13.052,2.2679 0,1.764 1.9336,2.2679 8.7013,2.2679 6.7677,0 8.7013,0.504 8.7013,2.268 0,1.6799 1.6919,2.2679 6.526,2.2679 4.8341,0 6.526,0.588 6.526,2.2679 0,1.7135 1.7725,2.2679 7.2511,2.2679 5.4786,0 7.2511,0.5544 7.2511,2.2679 0,1.68 1.6919,2.2679 6.526,2.2679 4.8341,0 6.526,0.588 6.526,2.268 0,1.5119 1.4502,2.2679 4.3507,2.2679 2.9004,0 4.3506,0.7559 4.3506,2.2679 0,1.5119 1.4502,2.2679 4.3507,2.2679 2.9004,0 4.3506,0.756 4.3506,2.2679 0,1.68 1.692,2.2679 6.526,2.2679 4.8341,0 6.526,0.588 6.526,2.268 0,1.5119 1.4503,2.2679 4.3507,2.2679 2.9004,0 4.3507,0.7559 4.3507,2.2679 0,1.5119 1.4502,2.2679 4.3506,2.2679 2.9005,0 4.3507,0.756 4.3507,2.2679 0,1.584 1.5308,2.2679 5.0758,2.2679 4.1089,0 5.0757,0.576 5.0757,3.0239 0,2.3519 0.9669,3.0239 4.3507,3.0239 2.3929,0 4.3507,0.6263 4.3507,1.3918 0,0.7655 1.9578,1.8401 4.3506,2.3881 2.3929,0.5479 4.3507,1.9627 4.3507,3.144 0,1.5376 1.8541,2.1478 6.526,2.1478 4.834,0 6.526,0.588 6.526,2.2679 0,1.5119 1.4502,2.2679 4.3506,2.2679 2.9005,0 4.3507,0.756 4.3507,2.2679 0,1.512 1.4502,2.2679 4.3507,2.2679 2.9004,0 4.3506,0.756 4.3506,2.268 0,1.5119 1.4502,2.2679 4.3507,2.2679 2.9004,0 4.3506,0.7559 4.3506,2.2679 0,1.4933 1.433,2.2679 4.1956,2.2679 2.3915,0 4.5544,0.9752 5.0302,2.2679 0.488,1.3258 2.661,2.2679 5.231,2.2679 2.9408,0 4.3961,0.7508 4.3961,2.268 0,1.6799 1.692,2.2679 6.526,2.2679 4.8341,0 6.526,0.588 6.526,2.2679 0,1.5119 1.4502,2.2679 4.3507,2.2679 2.9004,0 4.3506,0.756 4.3506,2.2679 0,1.68 1.692,2.2679 6.526,2.2679 4.8341,0 6.526,0.588 6.526,2.268 0,1.6799 1.692,2.2679 6.526,2.2679 4.8341,0 6.526,0.588 6.526,2.2679 0,1.7639 1.9336,2.2679 8.7013,2.2679 6.7677,0 8.7014,0.504 8.7014,2.2679 0,1.7833 2.0142,2.2679 9.4264,2.2679 7.4122,0 9.4264,0.4846 9.4264,2.268 0,1.8479 2.4171,2.2679 13.052,2.2679 10.635,0 13.052,0.42 13.052,2.2679 0,1.927 3.7061,2.2679 24.6538,2.2679 20.9476,0 24.6537,-0.3409 24.6537,-2.2679 0,-1.8143 2.1754,-2.2679 10.8767,-2.2679 8.7013,0 10.8766,-0.4536 10.8766,-2.2679 0,-1.68 1.692,-2.268 6.526,-2.268 4.8341,0 6.526,-0.5879 6.526,-2.2679 0,-1.5119 1.4502,-2.2679 4.3507,-2.2679 2.9004,0 4.3507,-0.756 4.3507,-2.2679 0,-1.512 1.4502,-2.2679 4.3506,-2.2679 2.9005,0 4.3507,-0.756 4.3507,-2.2679 0,-1.584 1.5308,-2.268 5.0758,-2.268 3.5449,0 5.0757,-0.6839 5.0757,-2.2679 0,-1.5119 1.4502,-2.2679 4.3507,-2.2679 2.9004,0 4.3507,-0.756 4.3507,-2.2679 0,-1.512 1.4502,-2.2679 4.3506,-2.2679 2.9005,0 4.3507,-0.756 4.3507,-2.2679 0,-1.2474 0.9789,-2.268 2.1753,-2.268 1.1964,0 2.1753,-1.0205 2.1753,-2.2679 0,-1.5119 1.4503,-2.2679 4.3507,-2.2679 2.9004,0 4.3507,-0.756 4.3507,-2.2679 0,-1.2474 0.9789,-2.2679 2.1753,-2.2679 1.1964,0 2.1753,-1.0206 2.1753,-2.2679 0,-1.2474 0.9789,-2.268 2.1754,-2.268 1.1964,0 2.1753,-1.0205 2.1753,-2.2679 0,-1.2473 0.9789,-2.2679 2.1753,-2.2679 1.1965,0 2.1754,-1.0205 2.1754,-2.2679 0,-1.5119 1.4502,-2.2679 4.3506,-2.2679 2.9005,0 4.3507,-0.756 4.3507,-2.2679 0,-1.2474 0.9789,-2.268 2.1753,-2.268 1.1964,0 2.1753,-1.0205 2.1753,-2.2679 0,-1.2473 0.9789,-2.2679 2.1754,-2.2679 1.20853,0 2.17533,-1.3439 2.17533,-3.0239 0,-1.6799 0.9668,-3.0239 2.1753,-3.0239 1.1965,0 2.1754,-1.0205 2.1754,-2.2679 0,-1.5119 1.4502,-2.2679 4.3506,-2.2679 2.9005,0 4.3507,-0.756 4.3507,-2.2679 0,-1.26 1.2891,-2.2679 2.9004,-2.2679 1.6114,0 2.9005,-1.008 2.9005,-2.2679 0,-1.2474 0.9789,-2.268 2.1753,-2.268 1.1964,0 2.1753,-1.0205 2.1753,-2.2679 0,-1.2473 0.9789,-2.2679 2.1754,-2.2679 1.1964,0 2.1753,-1.0206 2.1753,-2.2679 0,-1.2474 0.9789,-2.2679 2.1753,-2.2679 1.1965,0 2.1754,-1.0206 2.1754,-2.2679 0,-1.2474 0.9789,-2.268 2.1753,-2.268 1.1964,0 2.1753,-1.0205 2.1753,-2.2679 0,-1.2473 0.9789,-2.2679 2.1754,-2.2679 1.1964,0 2.1753,-1.0206 2.1753,-2.2679 0,-1.2474 0.9789,-2.2679 2.1753,-2.2679 1.1965,0 2.1754,-1.0206 2.1754,-2.2679 0,-1.2474 0.9789,-2.268 2.1753,-2.268 1.1964,0 2.1753,-1.0205 2.1753,-2.2679 0,-1.5119 1.4502,-2.2679 4.3507,-2.2679 2.9004,0 4.3506,-0.756 4.3506,-2.2679 0,-1.2474 0.9789,-2.2679 2.1754,-2.2679 1.1964,0 2.1753,-1.0206 2.1753,-2.2679 0,-1.2474 0.9789,-2.268 2.1753,-2.268 1.1965,0 2.1754,-1.0205 2.1754,-2.2679 0,-1.2473 0.9789,-2.2679 2.1753,-2.2679 1.1964,0 2.1753,-1.0205 2.1753,-2.2679 0,-1.2474 0.9789,-2.2679 2.1754,-2.2679 1.1964,0 2.1753,-1.0206 2.1753,-2.2679 0,-1.2474 0.9789,-2.2679 2.1753,-2.2679 1.1965,0 2.1754,-1.0206 2.1754,-2.268 0,-1.5119 1.4502,-2.2679 4.3506,-2.2679 3.3839,0 4.3507,-0.6719 4.3507,-3.0239 0,-2.0159 0.9668,-3.0239 2.9004,-3.0239 1.6114,0 2.9005,-1.0079 2.9005,-2.2679 0,-1.2473 0.9789,-2.2679 2.1753,-2.2679 1.1964,0 2.1753,-1.0206 2.1753,-2.2679 0,-1.5119 1.4502,-2.2679 4.3507,-2.2679 2.9004,0 4.3507,-0.756 4.3507,-2.2679 0,-1.2474 0.9789,-2.268 2.1753,-2.268 1.1964,0 2.1753,-1.0205 2.1753,-2.2679 0,-1.5119 1.4502,-2.2679 4.3507,-2.2679 2.9004,0 4.3506,-0.756 4.3506,-2.2679 0,-1.2474 0.9789,-2.2679 2.1754,-2.2679 1.1964,0 2.1753,-1.0206 2.1753,-2.2679 0,-1.512 1.4502,-2.268 4.3507,-2.268 2.9004,0 4.3506,-0.7559 4.3506,-2.2679 0,-1.5119 1.4503,-2.2679 4.3507,-2.2679 2.9004,0 4.3507,-0.756 4.3507,-2.2679 0,-1.5119 1.4502,-2.2679 4.3506,-2.2679 2.9005,0 4.3507,-0.756 4.3507,-2.2679 0,-1.584 1.5308,-2.2679 5.07577,-2.2679 3.545,0 5.0758,-0.684 5.0758,-2.268 0,-1.7639 1.9336,-2.2679 8.7013,-2.2679 6.7677,0 8.7013,-0.504 8.7013,-2.2679 0,-1.8899 2.9005,-2.2679 17.4027,-2.2679 14.5022,0 17.4026,0.378 17.4026,2.2679 0,1.6799 1.692,2.2679 6.526,2.2679 4.8341,0 6.526,0.588 6.526,2.2679 0,1.68 1.6919,2.268 6.526,2.268 4.8341,0 6.526,0.5879 6.526,2.2679 0,1.5839 1.5308,2.2679 5.0758,2.2679 3.545,0 5.0757,0.684 5.0757,2.2679 0,1.5119 1.4503,2.2679 4.3507,2.2679 2.9005,0 4.3507,0.756 4.3507,2.2679 0,1.512 1.4502,2.2679 4.3506,2.2679 2.9005,0 4.3507,0.756 4.3507,2.268 0,1.2473 0.9789,2.2679 2.1753,2.2679 1.1965,0 2.1754,1.0205 2.1754,2.2679 0,1.5119 1.4502,2.2679 4.3506,2.2679 2.9005,0 4.3507,0.756 4.3507,2.2679 0,1.2474 0.9789,2.2679 2.1753,2.2679 1.1965,0 2.1754,1.0206 2.1754,2.268 0,1.5119 1.4502,2.2679 4.3506,2.2679 2.9005,0 4.3507,0.756 4.3507,2.2679 0,1.2473 0.9789,2.2679 2.1753,2.2679 1.1964,0 2.1753,1.0206 2.1753,2.2679 0,1.2474 0.9789,2.2679 2.1754,2.2679 1.2085,0 2.1753,1.344 2.1753,3.0239 0,2.352 0.9668,3.0239 4.3507,3.0239 2.9004,0 4.3506,0.756 4.3506,2.2679 0,1.2474 0.9789,2.268 2.1754,2.268 1.1964,0 2.1753,1.0205 2.1753,2.2679 0,1.2599 1.2891,2.2679 2.9004,2.2679 1.6114,0 2.9005,1.008 2.9005,2.2679 0,1.2474 0.9789,2.2679 2.1753,2.2679 1.1964,0 2.1753,1.0206 2.1753,2.2679 0,1.2474 0.9789,2.2679 2.1754,2.2679 1.1964,0 2.1753,1.0206 2.1753,2.268 0,1.2473 0.9789,2.2679 2.1753,2.2679 1.1965,0 2.1754,1.0205 2.1754,2.2679 0,1.2474 0.9789,2.2679 2.1753,2.2679 1.1964,0 2.1753,1.0206 2.1753,2.2679 0,1.2474 0.9789,2.2679 2.1754,2.2679 1.1964,0 2.1753,1.0206 2.1753,2.268 0,1.5119 1.4502,2.2679 4.3507,2.2679 2.9004,0 4.3506,0.756 4.3506,2.2679 0,1.2473 0.9789,2.2679 2.1753,2.2679 1.1965,0 2.1754,1.0206 2.1754,2.2679 0,1.2474 0.9789,2.2679 2.1753,2.2679 1.1964,0 2.1753,1.0206 2.1753,2.268 0,1.2473 0.9789,2.2679 2.1754,2.2679 1.1964,0 2.1753,1.0205 2.1753,2.2679 0,1.2473 0.9789,2.2679 2.1753,2.2679 1.1965,0 2.1754,1.0206 2.1754,2.2679 0,1.2474 0.9789,2.2679 2.1753,2.2679 1.1964,0 2.1753,1.0206 2.1753,2.268 0,1.2473 0.9789,2.2679 2.1754,2.2679 1.1964,0 2.1753,1.0205 2.1753,2.2679 0,1.2473 1.2586,2.2679 2.7968,2.2679 1.5383,0 3.7758,1.0206 4.9722,2.2679 1.1965,1.2474 2.8746,2.2679 3.7292,2.2679 0.8546,0 1.5538,1.3608 1.5538,3.0239 0,2.0159 0.9668,3.0239 2.9004,3.0239 1.6114,0 2.9005,1.008 2.9005,2.2679 0,1.2474 0.9789,2.2679 2.1753,2.2679 1.1964,0 2.1753,1.0206 2.1753,2.268 0,1.2473 0.9789,2.2679 2.1754,2.2679 1.1964,0 2.1753,1.0205 2.1753,2.2679 0,1.5119 1.4502,2.2679 4.3507,2.2679 2.9004,0 4.3506,0.756 4.3506,2.2679 0,1.2474 0.9789,2.2679 2.1753,2.2679 1.1965,0 2.1754,1.0206 2.1754,2.268 0,1.2473 0.9789,2.2679 2.1753,2.2679 1.1964,0 2.1753,1.0205 2.1753,2.2679 0,1.5119 1.4503,2.2679 4.3507,2.2679 2.9004,0 4.3507,0.756 4.3507,2.2679 0,1.2474 0.9789,2.2679 2.1753,2.2679 1.1964,0 2.1753,1.0206 2.1753,2.268 0,1.5119 1.4503,2.2679 4.3507,2.2679 2.9004,0 4.3507,0.7559 4.3507,2.2679 0,1.5119 1.4502,2.2679 4.3506,2.2679 2.9005,0 4.3507,0.756 4.3507,2.2679 0,1.512 1.4502,2.2679 4.3506,2.2679 2.9005,0 4.3507,0.756 4.3507,2.268 0,1.5839 1.5308,2.2679 5.0758,2.2679 3.545,0 5.0758,0.6839 5.0758,2.2679 0,1.5119 1.4502,2.2679 4.3506,2.2679 2.9005,0 4.3507,0.756 4.3507,2.2679 0,1.68 1.6919,2.2679 6.526,2.2679 4.834,0 6.526,0.588 6.526,2.268 0,1.8143 2.1753,2.2679 10.8766,2.2679 8.7013,0 10.8767,0.4536 10.8767,2.2679 0,1.9073 3.2093,2.2679 20.1822,2.2679 14.8278,0 20.3421,-0.5001 20.7849,-1.8849 0.4007,-1.2532 4.8149,-2.0652 13.1728,-2.423 9.5502,-0.4089 12.5702,-1.0458 12.5702,-2.651 0,-1.4961 1.905,-2.1128 6.526,-2.1128 4.8341,0 6.526,-0.5879 6.526,-2.2679 0,-1.6799 1.692,-2.2679 6.526,-2.2679 4.834,0 6.526,-0.588 6.526,-2.2679 0,-1.512 1.4502,-2.2679 4.3507,-2.2679 2.9004,0 4.3506,-0.756 4.3506,-2.2679 0,-1.7136 1.7725,-2.268 7.2512,-2.268 5.4786,0 7.2511,-0.5543 7.2511,-2.2679 0,-1.2473 0.9789,-2.2679 2.1753,-2.2679 1.1964,0 2.1753,-1.0206 2.1753,-2.2679 0,-1.512 1.4502,-2.2679 4.3507,-2.2679 2.9004,0 4.3506,-0.756 4.3506,-2.2679 0,-1.512 1.4503,-2.268 4.3507,-2.268 2.9004,0 4.3507,-0.7559 4.3507,-2.2679 0,-1.5119 1.4502,-2.2679 4.3506,-2.2679 2.9005,0 4.3507,-0.756 4.3507,-2.2679 0,-1.2474 0.9789,-2.2679 2.1753,-2.2679 1.1965,0 2.1754,-1.0206 2.1754,-2.2679 0,-1.512 1.4502,-2.268 4.3506,-2.268 2.9005,0 4.3507,-0.7559 4.3507,-2.2679 0,-1.2473 0.9789,-2.2679 2.1753,-2.2679 1.1964,0 2.1753,-1.0205 2.1753,-2.2679 0,-1.5119 1.4503,-2.2679 4.3507,-2.2679 2.9005,0 4.3507,-0.756 4.3507,-2.2679 0,-1.2474 0.9789,-2.268 2.1753,-2.268 1.1964,0 2.1753,-1.0205 2.1753,-2.2679 0,-1.5839 1.5309,-2.2679 5.0758,-2.2679 4.1089,0 5.0758,-0.576 5.0758,-3.0239 0,-1.6799 0.9668,-3.0239 2.1753,-3.0239 1.1964,0 2.1753,-1.0205 2.1753,-2.2679 0,-1.2473 0.9789,-2.2679 2.1754,-2.2679 1.1964,0 2.1753,-1.0206 2.1753,-2.2679 0,-1.2474 0.6992,-2.2679 1.5538,-2.2679 0.8546,0 2.5328,-1.0206 3.7292,-2.2679 1.1964,-1.2474 3.4338,-2.268 4.9721,-2.268 1.5382,0 2.7969,-1.0205 2.7969,-2.2679 0,-1.2473 0.9789,-2.2679 2.1753,-2.2679 1.1965,0 2.1754,-1.0206 2.1754,-2.2679 0,-1.2474 0.9789,-2.2679 2.1753,-2.2679 1.1964,0 2.1753,-1.0206 2.1753,-2.2679 0,-1.2474 0.9789,-2.268 2.1754,-2.268 1.1964,0 2.1753,-1.0205 2.1753,-2.2679 0,-1.2473 0.9789,-2.2679 2.1753,-2.2679 1.1964,0 2.1753,-1.0206 2.1753,-2.2679 0,-1.5119 1.4503,-2.2679 4.3507,-2.2679 2.9005,0 4.3507,-0.756 4.3507,-2.2679 0,-1.2474 0.9789,-2.268 2.1753,-2.268 1.1964,0 2.1753,-1.0205 2.1753,-2.2679 0,-1.2473 0.9789,-2.2679 2.1754,-2.2679 1.1964,0 2.1753,-1.0205 2.1753,-2.2679 0,-1.2474 0.9789,-2.2679 2.1753,-2.2679 1.1965,0 2.1754,-1.0206 2.1754,-2.2679 0,-1.2474 0.9789,-2.268 2.1753,-2.268 1.1964,0 2.1753,-1.0205 2.1753,-2.2679 0,-1.2599 1.2891,-2.2679 2.9005,-2.2679 1.6113,0 2.9004,-1.008 2.9004,-2.2679 0,-1.2474 0.9789,-2.2679 2.1753,-2.2679 1.1965,0 2.1754,-1.0206 2.1754,-2.2679 0,-1.2474 0.9789,-2.2679 2.1753,-2.2679 1.1964,0 2.1753,-1.0206 2.1753,-2.268 0,-1.2473 0.9789,-2.2679 2.1754,-2.2679 1.2084,0 2.1753,-1.3439 2.1753,-3.0239 0,-1.6799 0.9669,-3.0239 2.1753,-3.0239 1.1965,0 2.1754,-1.0205 2.1754,-2.2679 0,-1.2473 0.9789,-2.2679 2.1753,-2.2679 1.1964,0 2.1753,-1.0206 2.1753,-2.2679 0,-1.2474 0.9789,-2.2679 2.1754,-2.2679 1.1964,0 2.1753,-1.0206 2.1753,-2.2679 0,-1.2474 0.9789,-2.268 2.1753,-2.268 1.1964,0 2.1753,-1.0205 2.1753,-2.2679 0,-1.2473 0.9789,-2.2679 2.1754,-2.2679 1.1964,0 2.1753,-1.0205 2.1753,-2.2679 0,-1.2474 0.9789,-2.2679 2.1753,-2.2679 1.1965,0 2.1754,-1.0206 2.1754,-2.2679 0,-1.2474 0.9789,-2.268 2.1753,-2.268 1.1964,0 2.1753,-1.0205 2.1753,-2.2679 0,-1.2473 0.9789,-2.2679 2.1754,-2.2679 1.4502,0 2.1753,-1.5119 2.1753,-4.5358 0,-4.0319 0.4834,-4.5358 4.3507,-4.5358 h 4.3506 v 235.8632 235.8633 H 860.70613 44.9568 Z M 0,1137.738 C 0,941.8572 0.2516,916.23815 2.1753,916.23815 c 1.1964,0 2.1753,-1.02056 2.1753,-2.26792 0,-1.24735 0.9789,-2.26791 2.1754,-2.26791 1.1964,0 2.1753,-1.02056 2.1753,-2.26792 0,-1.24735 0.9994,-2.26792 2.2209,-2.26792 1.2214,0 2.5964,-1.02056 3.0556,-2.26791 0.4591,-1.24736 2.3964,-2.26792 4.3051,-2.26792 2.5036,0 3.4704,-0.84242 3.4704,-3.02389 0,-2.44791 0.9668,-3.02388 5.0758,-3.02388 3.545,0 5.0757,-0.68398 5.0757,-2.26792 0,-1.51194 1.4503,-2.26792 4.3507,-2.26792 2.9004,0 4.3507,-0.75597 4.3507,-2.26791 0,-1.67994 1.6919,-2.26792 6.526,-2.26792 4.834,0 6.526,-0.58798 6.526,-2.26792 0,-1.67993 1.6919,-2.26791 6.5259,-2.26791 4.8341,0 6.526,-0.58798 6.526,-2.26792 0,-1.67993 1.692,-2.26791 6.526,-2.26791 4.8341,0 6.526,-0.58798 6.526,-2.26792 0,-1.67994 1.692,-2.26792 6.526,-2.26792 4.8341,0 6.526,-0.58798 6.526,-2.26791 0,-1.82693 2.2559,-2.26792 11.6018,-2.26792 9.3459,0 11.6018,-0.44099 11.6018,-2.26791 0,-1.81434 2.1753,-2.26792 10.8766,-2.26792 8.7013,0 10.8767,-0.45358 10.8767,-2.26792 0,-1.81433 2.1753,-2.26791 10.8766,-2.26791 8.7013,0 10.8767,-0.45359 10.8767,-2.26792 0,-1.85677 2.4976,-2.26792 13.7771,-2.26792 11.2795,0 13.7771,-0.41114 13.7771,-2.26791 0,-1.87194 2.6587,-2.26792 15.2273,-2.26792 12.5686,0 15.2273,-0.39598 15.2273,-2.26791 0,-1.88993 2.9005,-2.26792 17.4027,-2.26792 14.5022,0 17.4026,-0.37799 17.4026,-2.26792 0,-1.89496 2.981,-2.26791 18.1278,-2.26791 15.1467,0 18.1277,-0.37295 18.1277,-2.26792 0,-1.92661 3.6947,-2.26792 24.5502,-2.26792 19.8888,0 24.9632,-0.43061 26.7255,-2.26791 1.7265,-1.79994 6.3649,-2.26792 22.4784,-2.26792 16.1136,0 20.752,-0.46798 22.4785,-2.26791 1.7959,-1.87243 7.5043,-2.26792 32.7335,-2.26792 26.1961,0 30.5582,-0.32374 30.5582,-2.26792 0,-1.24735 0.9789,-2.26791 2.1754,-2.26791 1.9213,0 2.1753,-20.83124 2.1753,-178.40941 0,-157.57818 0.254,-178.40941 2.1753,-178.40941 1.4503,0 2.1754,-1.51194 2.1754,-4.53583 0,-3.02389 0.7251,-4.53584 2.1753,-4.53584 1.4502,0 2.1753,-1.51194 2.1753,-4.53583 0,-3.02389 0.7251,-4.53583 2.1754,-4.53583 1.4502,0 2.1753,-1.51194 2.1753,-4.53583 0,-3.02389 0.7251,-4.53584 2.1753,-4.53584 1.1965,0 2.1754,-1.02056 2.1754,-2.26791 0,-1.24736 0.9789,-2.26792 2.1753,-2.26792 1.1964,0 2.1753,-1.02056 2.1753,-2.26791 0,-1.24736 0.9789,-2.26792 2.1754,-2.26792 1.2085,0 2.1753,-1.34395 2.1753,-3.02389 0,-2.01592 0.9668,-3.02389 2.9004,-3.02389 1.6114,0 2.9005,-1.00796 2.9005,-2.26791 0,-1.51195 1.4502,-2.26792 4.3506,-2.26792 2.9005,0 4.3507,-0.75597 4.3507,-2.26792 0,-1.67993 1.6919,-2.26791 6.526,-2.26791 4.8341,0 6.526,-0.58798 6.526,-2.26792 0,-1.84793 2.417,-2.26791 13.052,-2.26791 10.6349,0 13.052,0.41998 13.052,2.26791 0,1.67994 1.6919,2.26792 6.526,2.26792 4.834,0 6.5259,0.58798 6.5259,2.26791 0,1.51195 1.4503,2.26792 4.3507,2.26792 2.9005,0 4.3507,0.75597 4.3507,2.26792 0,1.25995 1.2891,2.26791 2.9004,2.26791 1.9336,0 2.9005,1.00797 2.9005,3.02389 0,2.35192 0.9668,3.02389 4.3506,3.02389 3.8673,0 4.3507,0.50398 4.3507,4.53583 0,3.02389 0.7251,4.53583 2.1753,4.53583 1.1964,0 2.1753,1.02057 2.1753,2.26792 0,1.24735 0.9789,2.26792 2.1754,2.26792 1.4502,0 2.1753,1.51194 2.1753,4.53583 0,3.02389 0.7251,4.53583 2.1753,4.53583 1.4503,0 2.1754,1.51195 2.1754,4.53583 0,3.02389 0.7251,4.53584 2.1753,4.53584 1.9211,0 2.1753,20.49525 2.1753,175.38552 0,154.89027 0.2542,175.38552 2.1754,175.38552 1.1964,0 2.1753,1.02056 2.1753,2.26791 0,1.92699 3.7061,2.26792 24.6538,2.26792 20.9476,0 24.6537,-0.34093 24.6537,-2.26792 0,-1.98562 9.0064,-2.26791 72.3559,-2.26791 62.9785,0 72.4641,-0.29392 73.1906,-2.26792 0.488,-1.32576 2.6611,-2.26791 5.231,-2.26791 h 4.3962 V 610.06946 c 0,-175.7215 0.2527,-198.82065 2.1753,-198.82065 1.4502,0 2.1753,-1.51195 2.1753,-4.53584 0,-3.02388 0.7251,-4.53583 2.1753,-4.53583 1.4503,0 2.1754,-1.51194 2.1754,-4.53583 0,-3.02389 0.7251,-4.53583 2.1753,-4.53583 1.4502,0 2.1753,-1.51195 2.1753,-4.53584 0,-4.03185 0.4834,-4.53583 4.3507,-4.53583 2.9004,0 4.3507,-0.75597 4.3507,-2.26791 0,-1.24736 0.9789,-2.26792 2.1753,-2.26792 1.1964,0 2.1753,-1.02056 2.1753,-2.26792 0,-1.24735 0.9789,-2.26791 2.1754,-2.26791 1.1964,0 2.1753,-1.02057 2.1753,-2.26792 0,-1.24735 0.9789,-2.26792 2.1753,-2.26792 1.1965,0 2.1754,-1.02056 2.1754,-2.26791 0,-1.67994 1.6919,-2.26792 6.5259,-2.26792 4.8341,0 6.526,-0.58798 6.526,-2.26791 0,-1.89497 2.98113,-2.26792 18.12783,-2.26792 15.1467,0 18.1278,0.37295 18.1278,2.26792 0,1.67993 1.6919,2.26791 6.526,2.26791 4.834,0 6.526,0.58798 6.526,2.26792 0,1.24735 0.9789,2.26791 2.1753,2.26791 1.1964,0 2.1753,1.02057 2.1753,2.26792 0,1.24735 0.9789,2.26792 2.1753,2.26792 1.1965,0 2.1754,1.02056 2.1754,2.26791 0,1.24736 0.9789,2.26792 2.1753,2.26792 1.1964,0 2.1753,1.02056 2.1753,2.26792 0,1.25994 1.2891,2.26791 2.9005,2.26791 1.6113,0 2.9004,1.00797 2.9004,2.26792 0,1.24735 0.6526,2.26791 1.4502,2.26791 0.7977,0 1.4503,1.02057 1.4503,2.26792 0,1.24735 0.9789,2.26792 2.1753,2.26792 1.4502,0 2.1753,1.51194 2.1753,4.53583 0,3.02389 0.7251,4.53583 2.1754,4.53583 1.4552,0 2.1753,1.51722 2.1753,4.58328 0,2.67928 0.9037,4.94483 2.1753,5.45357 1.9183,0.76744 2.1754,24.25426 2.1754,198.77321 v 197.90292 h 4.3961 c 2.5699,0 4.743,0.94215 5.231,2.26791 0.7265,1.974 10.2121,2.26792 73.19067,2.26792 63.3495,0 72.3558,0.28229 72.3558,2.26791 0,1.92699 3.7062,2.26792 24.6538,2.26792 20.9476,0 24.6538,-0.34093 24.6538,-2.26792 0,-1.24735 0.9789,-2.26791 2.1753,-2.26791 1.9211,0 2.1753,-20.49525 2.1753,-175.38552 0,-154.89027 0.2542,-175.38552 2.1753,-175.38552 1.4503,0 2.1754,-1.51195 2.1754,-4.53584 0,-3.02388 0.7251,-4.53583 2.1753,-4.53583 1.4502,0 2.1753,-1.51194 2.1753,-4.53583 0,-3.02389 0.7252,-4.53583 2.1754,-4.53583 1.1964,0 2.1753,-1.02057 2.1753,-2.26792 0,-1.24735 0.9789,-2.26792 2.1753,-2.26792 1.4503,0 2.1754,-1.51194 2.1754,-4.53583 0,-4.03185 0.4834,-4.53583 4.3506,-4.53583 3.3839,0 4.3507,-0.67197 4.3507,-3.02389 0,-2.01592 0.9668,-3.02389 2.9004,-3.02389 1.6114,0 2.9005,-1.00796 2.9005,-2.26791 0,-1.51195 1.4502,-2.26792 4.3506,-2.26792 2.9005,0 4.3507,-0.75597 4.3507,-2.26792 0,-1.49755 1.4368,-2.26791 4.2298,-2.26791 2.3264,0 4.5012,-0.85047 4.8328,-1.88993 0.4144,-1.299 5.2133,-2.05242 15.3481,-2.4096 12.7339,-0.44878 14.7453,-0.19098 14.7453,1.88993 0,1.84785 1.5213,2.4096 6.526,2.4096 4.834,0 6.526,0.58798 6.526,2.26791 0,1.51195 1.4502,2.26792 4.3506,2.26792 2.9005,0 4.3507,0.75597 4.3507,2.26792 0,1.25995 1.2891,2.26791 2.9004,2.26791 1.9336,0 2.9005,1.00797 2.9005,3.02389 0,1.67994 0.9668,3.02389 2.1753,3.02389 1.1964,0 2.1753,1.02056 2.1753,2.26792 0,1.24735 0.9789,2.26791 2.1754,2.26791 1.1964,0 2.1753,1.02056 2.1753,2.26792 0,1.24735 0.9789,2.26791 2.1753,2.26791 1.4502,0 2.1754,1.51195 2.1754,4.53584 0,3.02389 0.7251,4.53583 2.1753,4.53583 1.4502,0 2.1753,1.51194 2.1753,4.53583 0,3.02389 0.7251,4.53583 2.1753,4.53583 1.4503,0 2.1754,1.51195 2.1754,4.53584 0,3.02389 0.7251,4.53583 2.1753,4.53583 1.9213,0 2.1753,20.83123 2.1753,178.40941 0,157.57817 0.254,178.40941 2.1754,178.40941 1.1964,0 2.1753,1.02056 2.1753,2.26791 0,1.94533 4.4178,2.26792 31.0589,2.26792 23.5592,0 31.2043,0.45635 31.661,1.88993 0.4399,1.3808 6.9187,2.01979 24.0495,2.37195 19.1589,0.39386 23.4474,0.87781 23.4474,2.64591 0,1.79234 4.2329,2.16387 24.6538,2.16387 20.9476,0 24.6537,0.34093 24.6537,2.26792 0,1.89497 2.981,2.26792 18.1278,2.26792 15.1467,0 18.1277,0.37295 18.1277,2.26791 0,1.88993 2.9005,2.26792 17.4027,2.26792 14.5022,0 17.4026,0.37799 17.4026,2.26792 0,1.87193 2.6587,2.26791 15.2274,2.26791 12.5686,0 15.2273,0.39598 15.2273,2.26792 0,1.85677 2.4975,2.26791 13.7771,2.26791 11.2795,0 13.7771,0.41115 13.7771,2.26792 0,1.81433 2.1753,2.26792 10.8766,2.26792 8.7014,0 10.8767,0.45358 10.8767,2.26791 0,1.81434 2.1753,2.26792 10.8766,2.26792 8.7014,0 10.8767,0.45358 10.8767,2.26792 0,1.82692 2.256,2.26791 11.6018,2.26791 9.3458,0 11.6017,0.44099 11.6017,2.26792 0,1.67993 1.692,2.26791 6.526,2.26791 4.834,0 6.526,0.58798 6.526,2.26792 0,1.76394 1.9336,2.26792 8.7013,2.26792 6.7678,0 8.7014,0.50397 8.7014,2.26791 0,1.51195 1.4502,2.26792 4.3506,2.26792 2.9005,0 4.3507,0.75597 4.3507,2.26791 0,1.67994 1.692,2.26792 6.526,2.26792 4.834,0 6.526,0.58798 6.526,2.26792 0,1.51194 1.4502,2.26791 4.3506,2.26791 2.9005,0 4.3507,0.75598 4.3507,2.26792 0,1.58394 1.5309,2.26792 5.0758,2.26792 4.1089,0 5.0758,0.57597 5.0758,3.02388 0,2.35192 0.9668,3.02389 4.3506,3.02389 2.9005,0 4.3507,0.75597 4.3507,2.26792 0,1.24735 0.9789,2.26791 2.1753,2.26791 1.1964,0 2.1753,1.02057 2.1753,2.26792 0,1.24736 0.9789,2.26792 2.1754,2.26792 1.1964,0 2.1753,1.02056 2.1753,2.26791 0,1.24736 0.9789,2.26792 2.1753,2.26792 1.9058,0 2.1754,9.74363 2.1754,78.6211 0,68.87745 -0.2696,78.62105 -2.1754,78.62105 -1.1964,0 -2.1753,1.0206 -2.1753,2.2679 0,1.2474 -0.9789,2.268 -2.1753,2.268 -1.1965,0 -2.1754,1.0205 -2.1754,2.2679 0,1.2473 -0.9789,2.2679 -2.1753,2.2679 -1.1964,0 -2.1753,1.0206 -2.1753,2.2679 0,1.2474 -0.9789,2.2679 -2.1753,2.2679 -1.1965,0 -2.1754,1.0206 -2.1754,2.2679 0,1.2474 -0.9789,2.268 -2.1753,2.268 -1.1964,0 -2.1753,1.0205 -2.1753,2.2679 0,1.2473 -0.9789,2.2679 -2.1754,2.2679 -1.1964,0 -2.1753,1.0206 -2.1753,2.2679 0,1.26 -1.2891,2.2679 -2.9004,2.2679 -1.6114,0 -2.9005,1.008 -2.9005,2.2679 0,1.2474 -0.9789,2.268 -2.1753,2.268 -1.1965,0 -2.1754,1.0205 -2.1754,2.2679 0,1.2473 -0.9789,2.2679 -2.1753,2.2679 -1.1964,0 -2.1753,1.0206 -2.1753,2.2679 0,1.2474 -0.9789,2.2679 -2.1753,2.2679 -1.1965,0 -2.1754,1.0206 -2.1754,2.2679 0,1.2474 -0.9789,2.268 -2.1753,2.268 -1.1964,0 -2.1753,0.9753 -2.1753,2.1674 0,1.2406 -1.7055,2.3721 -3.9881,2.646 -3.1325,0.3757 -4.0866,1.3705 -4.447,4.6362 -0.3843,3.4822 -1.1502,4.1579 -4.7132,4.1579 -3.2875,0 -4.2544,0.6871 -4.2544,3.0238 0,1.68 -0.9669,3.0239 -2.1753,3.0239 -1.1965,0 -2.1754,1.0206 -2.1754,2.2679 0,1.2474 -0.9789,2.268 -2.1753,2.268 -1.1964,0 -2.1753,1.0205 -2.1753,2.2679 0,1.2473 -0.9789,2.2679 -2.1753,2.2679 -1.1965,0 -2.1754,1.0206 -2.1754,2.2679 0,1.2474 -0.9789,2.2679 -2.1753,2.2679 -1.1964,0 -2.1753,1.0206 -2.1753,2.2679 0,1.2474 -0.9789,2.268 -2.1754,2.268 -1.1964,0 -2.1753,1.0205 -2.1753,2.2679 0,1.2473 -0.9789,2.2679 -2.1753,2.2679 -1.1965,0 -2.1754,1.0206 -2.1754,2.2679 0,1.2474 -0.9789,2.2679 -2.1753,2.2679 -1.1964,0 -2.1753,1.0206 -2.1753,2.2679 0,1.26 -1.2891,2.268 -2.9005,2.268 -1.6113,0 -2.9004,1.0079 -2.9004,2.2679 0,1.5119 -1.4502,2.2679 -4.3507,2.2679 -2.9004,0 -4.3506,0.756 -4.3506,2.2679 0,1.2474 -0.9789,2.2679 -2.1754,2.2679 -1.1964,0 -2.1753,1.0206 -2.1753,2.2679 0,1.2474 -0.9789,2.268 -2.1753,2.268 -1.1965,0 -2.1754,1.0205 -2.1754,2.2679 0,1.2473 -0.9789,2.2679 -2.1753,2.2679 -1.1964,0 -2.1753,1.0205 -2.1753,2.2679 0,1.2474 -0.9789,2.2679 -2.1754,2.2679 -1.1964,0 -2.1753,1.0206 -2.1753,2.2679 0,1.2474 -0.9789,2.268 -2.1753,2.268 -1.1965,0 -2.1754,1.0205 -2.1754,2.2679 0,1.5119 -1.4502,2.2679 -4.3506,2.2679 -2.9005,0 -4.3507,0.756 -4.3507,2.2679 0,1.2474 -0.9789,2.2679 -2.1753,2.2679 -1.1964,0 -2.1753,1.0206 -2.1753,2.2679 0,1.2474 -0.9789,2.2679 -2.1754,2.2679 -1.2084,0 -2.1753,1.344 -2.1753,3.0239 0,1.68 -0.9669,3.0239 -2.1753,3.0239 -1.1965,0 -2.1754,1.0206 -2.1754,2.2679 0,1.512 -1.4502,2.268 -4.3506,2.268 -2.9005,0 -4.3507,0.7559 -4.3507,2.2679 0,1.2473 -0.9789,2.2679 -2.1753,2.2679 -1.1965,0 -2.1754,1.0206 -2.1754,2.2679 0,1.2474 -0.9789,2.2679 -2.1753,2.2679 -1.1964,0 -2.1753,1.0206 -2.1753,2.2679 0,1.584 -1.5309,2.268 -5.0758,2.268 -3.5449,0 -5.0758,0.6839 -5.0758,2.2679 0,1.2473 -0.9789,2.2679 -2.1753,2.2679 -1.1964,0 -2.1753,1.0205 -2.1753,2.2679 0,1.2474 -0.9789,2.2679 -2.1754,2.2679 -1.1964,0 -2.1753,1.0206 -2.1753,2.2679 0,1.512 -1.4502,2.268 -4.3507,2.268 -2.9004,0 -4.3506,0.7559 -4.3506,2.2679 0,1.2473 -0.9789,2.2679 -2.1753,2.2679 -1.1965,0 -2.1754,1.0205 -2.1754,2.2679 0,1.5119 -1.4502,2.2679 -4.3506,2.2679 -2.9005,0 -4.3507,0.756 -4.3507,2.2679 0,1.2474 -0.9789,2.2679 -2.1753,2.2679 -1.1965,0 -2.1754,1.0206 -2.1754,2.268 0,1.5119 -1.4502,2.2679 -4.3506,2.2679 -2.9005,0 -4.3507,0.756 -4.3507,2.2679 0,1.2474 -0.9789,2.2679 -2.1753,2.2679 -1.1965,0 -2.1754,1.0206 -2.1754,2.2679 0,1.512 -1.4502,2.2679 -4.3506,2.2679 -2.9005,0 -4.3507,0.756 -4.3507,2.268 0,1.5119 -1.4502,2.2679 -4.3506,2.2679 -2.9005,0 -4.3507,0.756 -4.3507,2.2679 0,1.2473 -1.2587,2.2679 -2.7969,2.2679 -1.5383,0 -3.7757,1.0206 -4.9721,2.2679 -1.1964,1.2474 -4.1798,2.2679 -6.6297,2.2679 -3.4873,0 -4.4542,0.6564 -4.4542,3.0239 0,1.68 -0.9668,3.0239 -2.1753,3.0239 -1.1964,0 -2.1753,1.0206 -2.1753,2.2679 0,1.68 -1.692,2.268 -6.526,2.268 -4.8341,0 -6.526,0.5879 -6.526,2.2679 0,1.5119 -1.4503,2.2679 -4.3507,2.2679 -2.9004,0 -4.3507,0.756 -4.3507,2.2679 0,1.6799 -1.6919,2.2679 -6.526,2.2679 -4.834,0 -6.5259,0.588 -6.5259,2.2679 0,1.764 -1.9337,2.2679 -8.7014,2.2679 -6.7677,0 -8.7013,0.504 -8.7013,2.268 0,1.8784 -2.7393,2.2679 -15.9524,2.2679 -13.2131,0 -15.9525,-0.3895 -15.9525,-2.2679 0,-1.764 -1.9336,-2.268 -8.7013,-2.268 -6.3955,0 -8.7013,-0.5482 -8.7013,-2.0688 0,-1.2891 -2.3112,-2.392 -6.1323,-2.9263 -3.3727,-0.4717 -6.3638,-1.5818 -6.6468,-2.467 -0.283,-0.8852 -1.4391,-1.6095 -2.5691,-1.6095 -1.1299,0 -2.0545,-0.931 -2.0545,-2.0689 0,-1.2891 -2.3111,-2.392 -6.1322,-2.9263 -3.3728,-0.4716 -6.3638,-1.5818 -6.6469,-2.467 -0.283,-0.8852 -1.7654,-1.6095 -3.2941,-1.6095 -1.8128,0 -2.7796,-1.0518 -2.7796,-3.0239 0,-2.3519 -0.9668,-3.0239 -4.3507,-3.0239 -2.9004,0 -4.3507,-0.7559 -4.3507,-2.2679 0,-1.2473 -0.9789,-2.2679 -2.1753,-2.2679 -1.1964,0 -2.1753,-1.0206 -2.1753,-2.2679 0,-1.5119 -1.4502,-2.2679 -4.3507,-2.2679 -2.9004,0 -4.3506,-0.756 -4.3506,-2.2679 0,-1.2474 -0.9789,-2.268 -2.1754,-2.268 -1.1964,0 -2.1753,-1.0205 -2.1753,-2.2679 0,-1.2473 -0.9789,-2.2679 -2.1753,-2.2679 -1.1965,0 -2.1754,-1.0205 -2.1754,-2.2679 0,-1.2474 -0.9789,-2.2679 -2.1753,-2.2679 -1.1964,0 -2.1753,-1.0206 -2.1753,-2.2679 0,-1.512 -1.4503,-2.268 -4.3507,-2.268 -2.9004,0 -4.3507,-0.7559 -4.3507,-2.2679 0,-1.2473 -0.9789,-2.2679 -2.1753,-2.2679 -1.1964,0 -2.1753,-1.0205 -2.1753,-2.2679 0,-1.2474 -0.9789,-2.2679 -2.1754,-2.2679 -1.1964,0 -2.1753,-1.0206 -2.1753,-2.2679 0,-1.2474 -0.9789,-2.2679 -2.1753,-2.2679 -1.1964,0 -2.1753,-1.0206 -2.1753,-2.268 0,-1.2473 -0.9789,-2.2679 -2.1754,-2.2679 -1.1964,0 -2.1753,-1.0205 -2.1753,-2.2679 0,-1.2474 -1.2586,-2.2679 -2.7969,-2.2679 -1.5382,0 -3.7757,-1.0206 -4.9721,-2.2679 -1.1965,-1.2474 -2.8746,-2.2679 -3.7292,-2.2679 -0.8546,0 -1.5538,-1.0206 -1.5538,-2.268 0,-1.2599 -1.2891,-2.2679 -2.9004,-2.2679 -1.6114,0 -2.9005,-1.0079 -2.9005,-2.2679 0,-1.2473 -0.9789,-2.2679 -2.1753,-2.2679 -1.1964,0 -2.1753,-1.0206 -2.1753,-2.2679 0,-1.2474 -0.9789,-2.2679 -2.1754,-2.2679 -1.1964,0 -2.1753,-1.0206 -2.1753,-2.268 0,-1.2473 -0.9789,-2.2679 -2.1753,-2.2679 -1.2086,0 -2.1754,-1.3439 -2.1754,-3.0239 0,-1.6631 -0.6992,-3.0239 -1.5538,-3.0239 -0.8546,0 -2.5327,-1.0205 -3.7291,-2.2679 -1.1965,-1.2473 -3.4339,-2.2679 -4.9722,-2.2679 -1.5383,0 -2.7969,-1.0205 -2.7969,-2.2679 0,-1.2474 -0.9789,-2.2679 -2.1753,-2.2679 -1.1964,0 -2.1753,-1.0206 -2.1753,-2.2679 0,-1.2474 -0.9789,-2.2679 -2.1754,-2.2679 -1.1964,0 -2.1753,-1.0206 -2.1753,-2.268 0,-1.2473 -0.9789,-2.2679 -2.1753,-2.2679 -1.1964,0 -2.1753,-1.0205 -2.1753,-2.2679 0,-1.5119 -1.4503,-2.2679 -4.3507,-2.2679 -2.9005,0 -4.3507,-0.756 -4.3507,-2.2679 0,-1.2474 -0.9789,-2.2679 -2.1753,-2.2679 -1.1964,0 -2.1753,-1.0206 -2.1753,-2.268 0,-1.2473 -0.9789,-2.2679 -2.1754,-2.2679 -1.1964,0 -2.1753,-1.0205 -2.1753,-2.2679 0,-1.5119 -1.4502,-2.2679 -4.3507,-2.2679 -2.9004,0 -4.3506,-0.756 -4.3506,-2.2679 0,-1.26 -1.2891,-2.2679 -2.9005,-2.2679 -1.6113,0 -2.9004,-1.008 -2.9004,-2.268 0,-1.5119 -1.4502,-2.2679 -4.3507,-2.2679 -2.9004,0 -4.3506,-0.7559 -4.3506,-2.2679 0,-1.5119 -1.4503,-2.2679 -4.3507,-2.2679 -2.9004,0 -4.3507,-0.756 -4.3507,-2.2679 0,-1.512 -1.4502,-2.2679 -4.3506,-2.2679 -2.9005,0 -4.3507,-0.756 -4.3507,-2.268 0,-1.5119 -1.4502,-2.2679 -4.3506,-2.2679 -2.9005,0 -4.3507,-0.7559 -4.3507,-2.2679 0,-1.5172 -1.4553,-2.2679 -4.3962,-2.2679 -2.5699,0 -4.7429,-0.9422 -5.2309,-2.2679 -0.5992,-1.628 -3.0416,-2.2679 -8.6558,-2.2679 -5.9853,0 -7.8211,-0.5324 -7.8211,-2.268 0,-1.7833 -2.0142,-2.2679 -9.4264,-2.2679 -8.4596,0 -9.4265,-0.3101 -9.4265,-3.0239 0,-2.9446 -0.9602,-3.0233 -36.618,-3.0032 -38.1909,0.022 -43.1441,0.4733 -43.1441,3.9356 0,1.4709 -1.9365,2.0915 -6.52607,2.0915 -4.834,0 -6.5259,0.588 -6.5259,2.2679 0,1.764 -1.9337,2.268 -8.7014,2.268 -6.7677,0 -8.7013,0.5039 -8.7013,2.2679 0,1.5119 -1.4502,2.2679 -4.3507,2.2679 -2.9004,0 -4.3506,0.756 -4.3506,2.2679 0,1.512 -1.4502,2.2679 -4.3507,2.2679 -2.9004,0 -4.3506,0.756 -4.3506,2.2679 0,1.512 -1.4503,2.268 -4.3507,2.268 -2.9005,0 -4.3507,0.7559 -4.3507,2.2679 0,1.2473 -0.9789,2.2679 -2.1753,2.2679 -1.1964,0 -2.1753,1.0206 -2.1753,2.2679 0,1.584 -1.5308,2.2679 -5.0758,2.2679 -3.545,0 -5.0758,0.684 -5.0758,2.2679 0,1.2474 -0.9789,2.268 -2.1753,2.268 -1.1964,0 -2.1753,1.0205 -2.1753,2.2679 0,1.5119 -1.4503,2.2679 -4.3507,2.2679 -2.9004,0 -4.3507,0.756 -4.3507,2.2679 0,1.2474 -0.9789,2.2679 -2.1753,2.2679 -1.1964,0 -2.1753,1.0206 -2.1753,2.2679 0,1.2474 -0.9789,2.268 -2.1754,2.268 -1.1964,0 -2.1753,1.0205 -2.1753,2.2679 0,1.2473 -0.9789,2.2679 -2.1753,2.2679 -1.1965,0 -2.1754,1.0205 -2.1754,2.2679 0,1.5119 -1.4502,2.2679 -4.3506,2.2679 -2.9005,0 -4.3507,0.756 -4.3507,2.2679 0,1.2474 -0.9789,2.268 -2.1753,2.268 -1.1964,0 -2.1753,1.0205 -2.1753,2.2679 0,1.2473 -0.9789,2.2679 -2.1754,2.2679 -1.1964,0 -2.1753,1.0205 -2.1753,2.2679 0,1.2474 -0.9789,2.2679 -2.1753,2.2679 -1.1965,0 -2.1754,1.0206 -2.1754,2.2679 0,1.2474 -0.9789,2.2679 -2.1753,2.2679 -1.2085,0 -2.1753,1.344 -2.1753,3.0239 0,1.68 -0.9669,3.0239 -2.1754,3.0239 -1.1964,0 -2.1753,1.0206 -2.1753,2.2679 0,1.2474 -0.9789,2.268 -2.1753,2.268 -1.1965,0 -2.1754,1.0205 -2.1754,2.2679 0,1.2473 -0.9789,2.2679 -2.1753,2.2679 -1.1964,0 -2.1753,1.0206 -2.1753,2.2679 0,1.26 -1.2891,2.2679 -2.9005,2.2679 -1.6113,0 -2.9004,1.008 -2.9004,2.2679 0,1.2474 -0.9789,2.268 -2.1753,2.268 -1.1965,0 -2.1754,1.0205 -2.1754,2.2679 0,1.2473 -0.9789,2.2679 -2.1753,2.2679 -1.1964,0 -2.1753,1.0205 -2.1753,2.2679 0,1.2474 -0.9789,2.2679 -2.1754,2.2679 -1.1964,0 -2.1753,1.0206 -2.1753,2.2679 0,1.2474 -0.9789,2.268 -2.17533,2.268 -1.1965,0 -2.1754,1.0205 -2.1754,2.2679 0,1.2473 -0.9789,2.2679 -2.1753,2.2679 -1.1964,0 -2.1753,1.0205 -2.1753,2.2679 0,1.2474 -0.9789,2.2679 -2.1754,2.2679 -1.1964,0 -2.1753,1.0206 -2.1753,2.2679 0,1.2474 -0.9789,2.2679 -2.1753,2.2679 -1.1964,0 -2.1753,1.0206 -2.1753,2.268 0,1.2473 -0.9789,2.2679 -2.1754,2.2679 -1.1964,0 -2.1753,1.0205 -2.1753,2.2679 0,1.2474 -0.9789,2.2679 -2.1753,2.2679 -1.1965,0 -2.1754,1.0206 -2.1754,2.2679 0,1.2474 -0.9789,2.2679 -2.1753,2.2679 -1.1964,0 -2.1753,1.0206 -2.1753,2.268 0,1.2473 -0.9789,2.2679 -2.1754,2.2679 -1.1964,0 -2.1753,1.0205 -2.1753,2.2679 0,1.2473 -0.9789,2.2679 -2.1753,2.2679 -1.1965,0 -2.1754,1.0206 -2.1754,2.2679 0,1.512 -1.4502,2.2679 -4.3506,2.2679 -3.3839,0 -4.3507,0.672 -4.3507,3.0239 0,1.68 -0.9668,3.0239 -2.1753,3.0239 -1.1965,0 -2.1753,1.0206 -2.1753,2.2679 0,1.2474 -0.9789,2.268 -2.1754,2.268 -1.1964,0 -2.1753,1.0205 -2.1753,2.2679 0,1.2473 -0.9789,2.2679 -2.1753,2.2679 -1.1965,0 -2.1754,1.0205 -2.1754,2.2679 0,1.2599 -1.2891,2.2679 -2.9004,2.2679 -1.6114,0 -2.9005,1.008 -2.9005,2.2679 0,1.512 -1.4502,2.2679 -4.3506,2.2679 -2.9005,0 -4.3507,0.756 -4.3507,2.268 0,1.2473 -0.9789,2.2679 -2.1753,2.2679 -1.1964,0 -2.1753,1.0205 -2.1753,2.2679 0,1.5119 -1.4503,2.2679 -4.3507,2.2679 -2.9005,0 -4.3507,0.756 -4.3507,2.2679 0,1.512 -1.4502,2.2679 -4.3506,2.2679 -2.9005,0 -4.3507,0.756 -4.3507,2.268 0,1.5119 -1.4502,2.2679 -4.3507,2.2679 -2.9004,0 -4.3506,0.756 -4.3506,2.2679 0,1.5119 -1.4502,2.2679 -4.3507,2.2679 -2.9004,0 -4.3506,0.756 -4.3506,2.2679 0,1.764 -1.9337,2.2679 -8.7014,2.2679 -6.7677,0 -8.7013,0.504 -8.7013,2.268 0,1.8784 -2.7393,2.2679 -15.9524,2.2679 -13.2132,0 -15.9525,-0.3895 -15.9525,-2.2679 0,-1.8144 -2.1753,-2.268 -10.8766,-2.268 -8.7013,0 -10.8767,-0.4535 -10.8767,-2.2679 0,-1.6799 -1.6919,-2.2679 -6.526,-2.2679 -4.834,0 -6.526,-0.588 -6.526,-2.2679 0,-1.6799 -1.6919,-2.2679 -6.526,-2.2679 -4.834,0 -6.526,-0.588 -6.526,-2.2679 0,-1.7136 -1.7724,-2.268 -7.2511,-2.268 -5.4786,0 -7.2511,-0.5543 -7.2511,-2.2679 0,-1.5119 -1.4502,-2.2679 -4.3506,-2.2679 -2.7144,0 -4.3507,-0.7781 -4.3507,-2.0688 0,-1.2892 -2.3112,-2.3921 -6.1322,-2.9264 -3.3728,-0.4716 -6.3639,-1.5818 -6.6469,-2.467 -0.283,-0.8852 -1.4391,-1.6095 -2.5691,-1.6095 -1.1299,0 -2.0544,-1.0205 -2.0544,-2.2679 0,-1.6799 -1.692,-2.2679 -6.526,-2.2679 -4.8341,0 -6.526,-0.588 -6.526,-2.2679 0,-1.2474 -0.9789,-2.2679 -2.1754,-2.2679 -1.1964,0 -2.1753,-1.0206 -2.1753,-2.2679 0,-1.5172 -1.4553,-2.2679 -4.3962,-2.2679 -2.5699,0 -4.7429,-0.9422 -5.2309,-2.268 -0.4591,-1.2473 -2.3964,-2.2679 -4.3051,-2.2679 -2.5036,0 -3.4704,-0.8424 -3.4704,-3.0239 0,-2.4479 -0.9669,-3.0239 -5.0758,-3.0239 -3.545,0 -5.0758,-0.6839 -5.0758,-2.2679 0,-1.5119 -1.4502,-2.2679 -4.3507,-2.2679 -2.9004,0 -4.3506,-0.756 -4.3506,-2.2679 0,-1.5119 -1.4502,-2.2679 -4.3507,-2.2679 -2.9004,0 -4.3506,-0.756 -4.3506,-2.2679 0,-1.512 -1.4503,-2.268 -4.3507,-2.268 -2.9004,0 -4.3507,-0.7559 -4.3507,-2.2679 0,-1.5119 -1.4502,-2.2679 -4.3506,-2.2679 -2.9005,0 -4.3507,-0.756 -4.3507,-2.2679 0,-1.5119 -1.4502,-2.2679 -4.3507,-2.2679 -2.9004,0 -4.3506,-0.756 -4.3506,-2.2679 0,-1.512 -1.4502,-2.268 -4.3507,-2.268 -2.9004,0 -4.3506,-0.7559 -4.3506,-2.2679 0,-1.5119 -1.4503,-2.2679 -4.3507,-2.2679 -2.9004,0 -4.3507,-0.756 -4.3507,-2.2679 0,-1.5839 -1.5308,-2.2679 -5.0757,-2.2679 -3.545,0 -5.0758,-0.684 -5.0758,-2.2679 0,-1.512 -1.4502,-2.2679 -4.3507,-2.2679 -2.9004,0 -4.3506,-0.756 -4.3506,-2.268 0,-1.5119 -1.4503,-2.2679 -4.3507,-2.2679 -2.9004,0 -4.3507,-0.756 -4.3507,-2.2679 0,-1.6799 -1.6919,-2.2679 -6.526,-2.2679 -4.834,0 -6.526,-0.588 -6.526,-2.2679 0,-1.512 -1.4502,-2.2679 -4.3506,-2.2679 -2.9005,0 -4.3507,-0.756 -4.3507,-2.268 0,-1.6799 -1.6919,-2.2679 -6.526,-2.2679 -4.834,0 -6.526,-0.588 -6.526,-2.2679 0,-1.6799 -1.6919,-2.2679 -6.526,-2.2679 -4.834,0 -6.526,-0.588 -6.526,-2.2679 0,-1.7834 -2.0142,-2.2679 -9.4264,-2.2679 -7.4122,0 -9.4264,-0.4846 -9.4264,-2.268 0,-1.609 -1.5799,-2.2739 -5.4384,-2.2885 -7.5733,-0.029 -11.9643,-1.4731 -11.9643,-3.9356 0,-1.648 -3.2293,-2.0916 -15.2273,-2.0916 -12.5686,0 -15.2273,-0.3959 -15.2273,-2.2679 0,-1.9403 -4.1895,-2.2679 -29.0044,-2.2679 -24.8149,0 -29.0045,0.3276 -29.0045,2.2679 0,1.848 -2.417,2.2679 -13.0519,2.2679 -12.0852,0 -13.052,0.224 -13.052,3.0239 0,2.7138 -0.9669,3.0239 -9.4265,3.0239 -7.4122,0 -9.4264,0.4846 -9.4264,2.2679 0,1.68 -1.6919,2.268 -6.526,2.268 -4.8341,0 -6.526,0.5879 -6.526,2.2679 0,1.6799 -1.6919,2.2679 -6.526,2.2679 -4.8341,0 -6.526,0.588 -6.526,2.2679 0,1.6799 -1.6919,2.2679 -6.526,2.2679 -4.834,0 -6.526,0.588 -6.526,2.2679 0,1.512 -1.4502,2.268 -4.3506,2.268 -2.9005,0 -4.3507,0.7559 -4.3507,2.2679 0,1.6799 -1.6919,2.2679 -6.526,2.2679 -4.8341,0 -6.526,0.588 -6.526,2.2679 0,1.5839 -1.5308,2.2679 -5.0758,2.2679 -3.5449,0 -5.0757,0.684 -5.0757,2.2679 0,1.512 -1.4503,2.268 -4.3507,2.268 -2.9004,0 -4.3507,0.7559 -4.3507,2.2679 0,1.5119 -1.4502,2.2679 -4.3506,2.2679 -2.9005,0 -4.3507,0.756 -4.3507,2.2679 0,1.5119 -1.4502,2.2679 -4.3506,2.2679 -2.9005,0 -4.3507,0.756 -4.3507,2.2679 0,1.512 -1.4502,2.2679 -4.3507,2.2679 -2.9004,0 -4.3506,0.756 -4.3506,2.268 0,1.5119 -1.4503,2.2679 -4.3507,2.2679 -2.9004,0 -4.3507,0.756 -4.3507,2.2679 0,1.5119 -1.4502,2.2679 -4.3506,2.2679 -2.9005,0 -4.3507,0.756 -4.3507,2.2679 0,1.2474 -0.9789,2.2679 -2.1753,2.2679 -1.1964,0 -2.1753,1.0206 -2.1753,2.268 0,1.5119 -1.4503,2.2679 -4.3507,2.2679 -2.9005,0 -4.3507,0.756 -4.3507,2.2679 0,1.5839 -1.5308,2.2679 -5.0757,2.2679 -3.545,0 -5.0758,0.684 -5.0758,2.2679 0,1.2474 -0.9789,2.2679 -2.1753,2.2679 -1.2086,0 -2.1754,1.344 -2.1754,3.0239 0,2.352 -0.9668,3.0239 -4.3506,3.0239 -2.9005,0 -4.3507,0.756 -4.3507,2.2679 0,1.2474 -0.9789,2.268 -2.1753,2.268 -1.1965,0 -2.1754,0.6263 -2.1754,1.3918 0,0.7655 -1.9578,1.8401 -4.3506,2.388 -2.3929,0.5479 -4.3507,1.9628 -4.3507,3.144 0,1.3785 -1.5584,2.1478 -4.3507,2.1478 -2.9004,0 -4.3506,0.756 -4.3506,2.2679 0,1.2474 -0.9789,2.2679 -2.1754,2.2679 -1.1964,0 -2.1753,1.0206 -2.1753,2.268 0,1.2473 -0.9091,2.2679 -2.0202,2.2679 -1.1111,0 -2.3958,1.0205 -2.8549,2.2679 -0.4591,1.2474 -2.4867,2.2679 -4.5058,2.2679 -2.2964,0 -3.6711,0.8493 -3.6711,2.2679 0,1.2474 -0.9789,2.2679 -2.1753,2.2679 -1.1964,0 -2.1753,1.0206 -2.1753,2.268 0,1.5119 -1.4503,2.2679 -4.3507,2.2679 -2.9004,0 -4.3507,0.756 -4.3507,2.2679 0,1.2599 -1.289,2.2679 -2.9004,2.2679 -1.6114,0 -2.9004,1.008 -2.9004,2.2679 0,1.2474 -0.9789,2.2679 -2.1754,2.2679 -1.1964,0 -2.1753,1.0206 -2.1753,2.268 0,1.5119 -1.4502,2.2679 -4.3507,2.2679 -2.9004,0 -4.3506,0.7559 -4.3506,2.2679 0,1.2473 -0.9789,2.2679 -2.1754,2.2679 -1.1964,0 -2.1753,1.0206 -2.1753,2.2679 0,1.2474 -0.9789,2.2679 -2.1753,2.2679 -1.1965,0 -2.1754,1.0206 -2.1754,2.268 0,1.2473 -0.9789,2.2679 -2.1753,2.2679 C 0.2516,1359.2378 0,1333.6187 0,1137.738 Z M 501.7764,354.5509 c 0,-1.75893 -1.9148,-2.26792 -8.5322,-2.26792 -7.3125,0 -8.6406,-0.43225 -9.2906,-3.02388 -0.6197,-2.47028 -1.9781,-3.02389 -7.4203,-3.02389 -4.9547,0 -6.6617,-0.58113 -6.6617,-2.26792 0,-1.51194 -1.4503,-2.26791 -4.3507,-2.26791 -2.9004,0 -4.3507,-0.75598 -4.3507,-2.26792 0,-1.24735 -0.9789,-2.26792 -2.1753,-2.26792 -1.1964,0 -2.1753,-1.02056 -2.1753,-2.26791 0,-1.24736 -0.9789,-2.26792 -2.1754,-2.26792 -1.1964,0 -2.1753,-1.02056 -2.1753,-2.26792 0,-1.24735 -0.9789,-2.26791 -2.1753,-2.26791 -1.1965,0 -2.1754,-1.02056 -2.1754,-2.26792 0,-1.24735 -0.9789,-2.26791 -2.1753,-2.26791 -1.1964,0 -2.1753,-1.02057 -2.1753,-2.26792 0,-1.24735 -0.9789,-2.26792 -2.1753,-2.26792 -1.4503,0 -2.1754,-1.51194 -2.1754,-4.53583 0,-3.02389 -0.7251,-4.53583 -2.1753,-4.53583 -1.4502,0 -2.1753,-1.51195 -2.1753,-4.53583 0,-3.02389 -0.7252,-4.53584 -2.1754,-4.53584 -1.8611,0 -2.1753,-4.36784 -2.1753,-30.23888 0,-25.87104 0.3142,-30.23888 2.1753,-30.23888 1.7725,0 2.1754,-2.51991 2.1754,-13.6075 0,-11.08758 0.4028,-13.6075 2.1753,-13.6075 1.6113,0 2.1753,-1.76394 2.1753,-6.80375 0,-5.0398 0.564,-6.80374 2.1754,-6.80374 1.6435,0 2.1753,-1.84793 2.1753,-7.55972 0,-5.7118 0.5317,-7.55973 2.1753,-7.55973 1.6114,0 2.1753,-1.76394 2.1753,-6.80374 0,-5.03981 0.564,-6.80375 2.1754,-6.80375 1.4502,0 2.1753,-1.51195 2.1753,-4.53584 0,-3.02388 0.7251,-4.53583 2.1753,-4.53583 1.4503,0 2.1754,-1.51194 2.1754,-4.53583 0,-3.02389 0.7251,-4.53583 2.1753,-4.53583 1.4502,0 2.1753,-1.51195 2.1753,-4.53584 0,-3.02388 0.7251,-4.53583 2.1754,-4.53583 1.4502,0 2.1753,-1.51194 2.1753,-4.53583 0,-3.02389 0.7251,-4.53583 2.1753,-4.53583 1.1965,0 2.1754,-1.02056 2.1754,-2.26792 0,-1.24735 0.9789,-2.26791 2.1753,-2.26791 1.1964,0 2.1753,-1.02057 2.1753,-2.26792 0,-1.24735 0.8973,-2.26792 1.9941,-2.26792 1.0967,0 2.3698,-1.95897 2.8291,-4.35327 0.5813,-3.02975 1.9524,-4.64562 4.5099,-5.31483 2.2531,-0.58956 4.0144,-2.37265 4.5528,-4.60899 0.483,-2.00609 1.7981,-4.0155 2.9225,-4.46536 1.1245,-0.44985 2.0445,-1.85983 2.0445,-3.13328 0,-1.56467 1.4106,-2.31537 4.3507,-2.31537 3.8672,0 4.3506,-0.50398 4.3506,-4.535835 0,-4.031851 0.4834,-4.535832 4.3507,-4.535832 2.9004,0 4.3506,-0.755972 4.3506,-2.267917 0,-1.247353 0.9789,-2.267916 2.1754,-2.267916 1.1964,0 2.1753,-1.020562 2.1753,-2.267916 0,-1.247354 0.9789,-2.267915 2.1753,-2.267915 1.1965,0 2.1754,-1.020562 2.1754,-2.267916 0,-1.511945 1.4502,-2.267917 4.3506,-2.267917 2.9005,0 4.3507,-0.755972 4.3507,-2.267916 0,-1.511944 1.4502,-2.267916 4.3507,-2.267916 2.9004,0 4.3506,-0.755972 4.3506,-2.267916 0,-1.511944 1.4502,-2.267916 4.3507,-2.267916 2.9004,0 4.3506,-0.755973 4.3506,-2.267917 0,-1.511944 1.4503,-2.267916 4.3507,-2.267916 2.9005,0 4.3507,-0.755972 4.3507,-2.267916 0,-1.713536 1.7725,-2.267916 7.2511,-2.267916 5.4786,0 7.2511,-0.55438 7.2511,-2.267917 0,-1.679937 1.6919,-2.267916 6.526,-2.267916 h 6.526 v 9.071665 c 0,6.727743 -0.5198,9.071665 -2.0117,9.071665 -1.474,0 -2.169,2.901719 -2.6001,10.857228 -0.3604,6.649725 -1.2669,11.092979 -2.339,11.465575 -1.2828,0.445782 -1.7506,8.049263 -1.7506,28.453323 0,23.74312 0.3205,27.84497 2.1754,27.84497 1.6919,0 2.1753,2.01592 2.1753,9.07166 0,7.05575 0.4834,9.07167 2.1753,9.07167 1.4503,0 2.1754,1.51194 2.1754,4.53583 0,3.02389 0.7251,4.53583 2.1753,4.53583 1.6436,0 2.1753,1.84793 2.1753,7.55972 0,5.7118 0.5318,7.55972 2.1754,7.55972 1.4502,0 2.1753,1.51195 2.1753,4.53584 0,3.02388 0.7251,4.53583 2.1753,4.53583 1.4503,0 2.1754,1.51194 2.1754,4.53583 0,3.02389 0.7251,4.53583 2.1753,4.53583 1.6113,0 2.1753,1.76394 2.1753,6.80375 0,5.03981 0.564,6.80375 2.1754,6.80375 1.6113,0 2.1753,1.76394 2.1753,6.80375 0,5.03981 0.564,6.80375 2.1753,6.80375 1.8662,0 2.1753,4.61983 2.1753,32.5068 0,27.88696 -0.3091,32.5068 -2.1753,32.5068 -1.4502,0 -2.1753,1.51194 -2.1753,4.53583 0,3.02389 -0.7251,4.53583 -2.1753,4.53583 -1.1965,0 -2.1754,1.02056 -2.1754,2.26792 0,1.24735 -0.9789,2.26791 -2.1753,2.26791 -1.4502,0 -2.1753,1.51195 -2.1753,4.53584 0,4.03185 -0.4834,4.53583 -4.3507,4.53583 -2.9004,0 -4.3507,0.75597 -4.3507,2.26791 0,1.24736 -0.9789,2.26792 -2.1753,2.26792 -1.1964,0 -2.1753,1.02056 -2.1753,2.26792 0,1.24735 -0.9789,2.26791 -2.1754,2.26791 -1.1964,0 -2.1753,1.02057 -2.1753,2.26792 0,1.51194 -1.4502,2.26792 -4.3507,2.26792 -2.9004,0 -4.3506,0.75597 -4.3506,2.26791 0,1.51195 -1.4502,2.26792 -4.3507,2.26792 -2.7246,0 -4.3506,0.77697 -4.3506,2.07892 0,2.23933 -6.0827,3.96885 -13.9584,3.96885 -3.3839,0 -4.8945,0.69997 -4.8945,2.26792 0,1.90393 -3.1422,2.26792 -19.578,2.26792 -16.4358,0 -19.578,-0.36399 -19.578,-2.26792 z m 678.7035,0 c 0,-1.65694 -1.6605,-2.27348 -6.1635,-2.28855 -8.2615,-0.0277 -12.6894,-1.40099 -12.6894,-3.93556 0,-1.31602 -1.6132,-2.09158 -4.3507,-2.09158 -2.9004,0 -4.3506,-0.75597 -4.3506,-2.26792 0,-1.51194 -1.4503,-2.26791 -4.3507,-2.26791 -2.9004,0 -4.3507,-0.75598 -4.3507,-2.26792 0,-1.24735 -0.9789,-2.26792 -2.1753,-2.26792 -1.1964,0 -2.1753,-1.02056 -2.1753,-2.26791 0,-1.24736 -0.9789,-2.26792 -2.1754,-2.26792 -1.1964,0 -2.1753,-1.02056 -2.1753,-2.26792 0,-1.51194 -1.4502,-2.26791 -4.3506,-2.26791 -3.8673,0 -4.3507,-0.50398 -4.3507,-4.53583 0,-3.02389 -0.7251,-4.53584 -2.1753,-4.53584 -1.1965,0 -2.1754,-1.02056 -2.1754,-2.26791 0,-1.24736 -0.9789,-2.26792 -2.1753,-2.26792 -1.4502,0 -2.1753,-1.51194 -2.1753,-4.53583 0,-3.02389 -0.7251,-4.53583 -2.1754,-4.53583 -1.8778,0 -2.1753,-5.37581 -2.1753,-39.31055 0,-33.93474 0.2975,-39.31055 2.1753,-39.31055 1.692,0 2.1754,-2.01592 2.1754,-9.07166 0,-7.05575 0.4834,-9.07167 2.1753,-9.07167 1.7105,0 2.1753,-2.09992 2.1753,-9.82764 0,-7.72771 0.4648,-9.82763 2.1754,-9.82763 1.4502,0 2.1753,-1.51195 2.1753,-4.53584 0,-3.02388 0.7251,-4.53583 2.1753,-4.53583 1.6114,0 2.1754,-1.76394 2.1754,-6.80375 0,-5.03981 0.5639,-6.80375 2.1753,-6.80375 1.4502,0 2.1753,-1.51194 2.1753,-4.53583 0,-3.02389 0.7251,-4.53583 2.1753,-4.53583 1.4503,0 2.1754,-1.51194 2.1754,-4.53583 0,-3.02389 0.7251,-4.53584 2.1753,-4.53584 1.4502,0 2.1753,-1.51194 2.1753,-4.53583 0,-3.02389 0.7252,-4.53583 2.1754,-4.53583 1.1964,0 2.1753,-1.02056 2.1753,-2.26792 0,-1.24735 0.9271,-2.26791 2.0601,-2.26791 1.1331,0 2.4901,-2.04113 3.0157,-4.53583 0.5255,-2.49471 1.5563,-4.53584 2.2905,-4.53584 0.7343,0 1.335,-1.02056 1.335,-2.26791 0,-1.24736 0.9789,-2.26792 2.1754,-2.26792 1.1964,0 2.1753,-1.02056 2.1753,-2.26792 0,-1.25995 1.2891,-2.26791 2.9004,-2.26791 1.9337,0 2.9005,-1.00797 2.9005,-3.02389 0,-1.67994 0.9668,-3.02389 2.1753,-3.02389 1.1964,0 2.1753,-1.02056 2.1753,-2.26791 0,-1.24736 0.9789,-2.26792 2.1754,-2.26792 1.1964,0 2.1753,-1.02056 2.1753,-2.26792 0,-1.24735 0.9789,-2.26791 2.1753,-2.26791 1.1965,0 2.1754,-1.02057 2.1754,-2.267919 0,-1.247354 0.9789,-2.267916 2.1753,-2.267916 1.1964,0 2.1753,-1.020562 2.1753,-2.267916 0,-1.247354 0.9789,-2.267916 2.1754,-2.267916 1.1964,0 2.1753,-1.020563 2.1753,-2.267917 0,-1.247353 0.6992,-2.267916 1.5538,-2.267916 0.8546,0 2.5327,-1.020562 3.7291,-2.267916 1.1965,-1.247354 3.4339,-2.267915 4.9722,-2.267915 1.5383,0 2.7969,-1.020562 2.7969,-2.267916 0,-1.511945 1.4502,-2.267917 4.3506,-2.267917 2.9005,0 4.3507,-0.755972 4.3507,-2.267916 0,-1.247354 0.9789,-2.267916 2.1753,-2.267916 1.1965,0 2.1754,-1.020562 2.1754,-2.267916 0,-1.679938 1.6919,-2.267916 6.526,-2.267916 4.834,0 6.526,-0.587979 6.526,-2.267917 0,-1.511944 1.4502,-2.267916 4.3506,-2.267916 2.9005,0 4.3507,-0.755972 4.3507,-2.267916 0,-1.583942 1.5308,-2.267916 5.0758,-2.267916 3.5449,0 5.0757,-0.683975 5.0757,-2.267917 0,-1.763935 1.9337,-2.267916 8.7014,-2.267916 h 8.7013 v 6.803749 c 0,5.039813 -0.564,6.803749 -2.1754,6.803749 -1.6919,0 -2.1753,2.015925 -2.1753,9.071664 0,7.055739 -0.4834,9.071664 -2.1753,9.071664 -1.781,0 -2.1753,2.603904 -2.1753,14.36347 0,11.75956 -0.3944,14.36347 -2.1754,14.36347 -1.6919,0 -2.1753,2.01592 -2.1753,9.07166 0,7.05574 0.4834,9.07167 2.1753,9.07167 1.7725,0 2.1754,2.51991 2.1754,13.60749 0,11.08759 0.4028,13.6075 2.1753,13.6075 1.6113,0 2.1753,1.76394 2.1753,6.80375 0,5.03981 0.564,6.80375 2.1753,6.80375 1.4503,0 2.1754,1.51194 2.1754,4.53583 0,3.02389 0.7251,4.53583 2.1753,4.53583 1.5193,0 2.1753,1.59595 2.1753,5.29181 0,3.69586 0.6561,5.2918 2.1754,5.2918 1.6113,0 2.1753,1.76394 2.1753,6.80375 0,5.03981 0.564,6.80375 2.1753,6.80375 1.4503,0 2.1754,1.51194 2.1754,4.53583 0,3.02389 0.7251,4.53584 2.1753,4.53584 1.6114,0 2.1753,1.76394 2.1753,6.80374 0,5.03981 0.564,6.80375 2.1754,6.80375 1.6919,0 2.1753,2.01592 2.1753,9.07167 0,7.05574 0.4834,9.07166 2.1753,9.07166 1.8483,0 2.1754,3.86387 2.1754,25.70305 0,21.83919 -0.3271,25.70305 -2.1754,25.70305 -1.4502,0 -2.1753,1.51195 -2.1753,4.53584 0,3.02388 -0.7251,4.53583 -2.1753,4.53583 -1.4503,0 -2.1754,1.51194 -2.1754,4.53583 0,3.02389 -0.7251,4.53583 -2.1753,4.53583 -1.1964,0 -2.1753,1.02057 -2.1753,2.26792 0,1.24735 -0.9789,2.26792 -2.1754,2.26792 -1.1964,0 -2.1753,1.02056 -2.1753,2.26791 0,1.24736 -0.9789,2.26792 -2.1753,2.26792 -1.1965,0 -2.1754,1.02056 -2.1754,2.26791 0,1.24736 -0.9789,2.26792 -2.1753,2.26792 -1.1964,0 -2.1753,1.02056 -2.1753,2.26792 0,1.24735 -0.9789,2.26791 -2.1754,2.26791 -1.1964,0 -2.1753,1.02057 -2.1753,2.26792 0,1.51194 -1.4502,2.26792 -4.3506,2.26792 -2.9005,0 -4.3507,0.75597 -4.3507,2.26791 0,1.68679 -1.707,2.26792 -6.6618,2.26792 -5.4421,0 -6.8006,0.55361 -7.4202,3.02389 -0.6501,2.59163 -1.9781,3.02388 -9.2907,3.02388 -6.6173,0 -8.5322,0.50899 -8.5322,2.26792 0,1.90393 -3.1421,2.26792 -19.578,2.26792 -16.4358,0 -19.5779,-0.36399 -19.5779,-2.26792 z M 842.5783,303.1448 c 0,-1.76394 -1.9336,-2.26792 -8.7013,-2.26792 -6.7677,0 -8.7013,-0.50397 -8.7013,-2.26791 0,-1.51195 -1.4502,-2.26792 -4.3507,-2.26792 -2.7144,0 -4.3506,-0.77809 -4.3506,-2.06884 0,-1.28913 -2.3112,-2.39203 -6.1323,-2.92635 -3.3727,-0.47164 -6.3638,-1.58178 -6.6468,-2.46699 -0.2831,-0.88522 -1.4391,-1.60948 -2.5691,-1.60948 -1.13,0 -2.0545,-1.02057 -2.0545,-2.26792 0,-1.24735 -0.9789,-2.26792 -2.1753,-2.26792 -1.1965,0 -2.1753,-1.02056 -2.1753,-2.26791 0,-1.24736 -0.9789,-2.26792 -2.1754,-2.26792 -1.1964,0 -2.1753,-1.02056 -2.1753,-2.26791 0,-1.24736 -0.9789,-2.26792 -2.1753,-2.26792 -1.2086,0 -2.1754,-1.34395 -2.1754,-3.02389 0,-2.01592 -0.9668,-3.02389 -2.9004,-3.02389 -2.2559,0 -2.9005,-1.00797 -2.9005,-4.53583 0,-3.02389 -0.7251,-4.53583 -2.1753,-4.53583 -1.4502,0 -2.1753,-1.51195 -2.1753,-4.53583 0,-3.09291 -0.7166,-4.53584 -2.2525,-4.53584 -1.9831,0 -2.1999,-4.09774 -1.8128,-34.27241 0.3303,-25.74169 0.8909,-34.4288 2.2525,-34.90071 1.2331,-0.42738 1.8128,-4.21408 1.8128,-11.84188 0,-8.95967 0.4372,-11.21359 2.1753,-11.21359 1.6114,0 2.1753,-1.76394 2.1753,-6.80375 0,-5.79578 0.4297,-6.80375 2.9005,-6.80375 2.4707,0 2.9004,-1.00796 2.9004,-6.80375 0,-5.03981 0.564,-6.80374 2.1754,-6.80374 1.4502,0 2.1753,-1.51195 2.1753,-4.53584 0,-3.02389 0.7251,-4.53583 2.1753,-4.53583 1.5193,0 2.1754,-1.59594 2.1754,-5.2918 0,-3.69587 0.656,-5.29181 2.1753,-5.29181 1.4502,0 2.1753,-1.51194 2.1753,-4.53583 0,-3.02389 0.7251,-4.53583 2.1753,-4.53583 1.4503,0 2.1754,-1.511949 2.1754,-4.535835 0,-3.023888 0.7251,-4.535832 2.1753,-4.535832 1.4502,0 2.1753,-1.511944 2.1753,-4.535833 0,-3.023888 0.7251,-4.535831 2.1754,-4.535831 1.1964,0 2.1753,-1.020562 2.1753,-2.267916 0,-1.247354 0.9789,-2.267917 2.1753,-2.267917 1.4503,0 2.1754,-1.511944 2.1754,-4.535832 0,-3.023888 0.7251,-4.535832 2.1753,-4.535832 1.1964,0 2.1753,-1.020563 2.1753,-2.267917 0,-1.247354 0.9789,-2.267916 2.1754,-2.267916 1.1964,0 2.1753,-1.020562 2.1753,-2.267916 0,-1.247354 0.9789,-2.267916 2.1753,-2.267916 1.1965,0 2.1754,-1.020563 2.1754,-2.267917 0,-1.247353 0.9789,-2.267916 2.1753,-2.267916 1.1964,0 2.1753,-1.020562 2.1753,-2.267916 0,-1.247354 0.9789,-2.267916 2.1753,-2.267916 1.1965,0 2.1754,-1.020562 2.1754,-2.267916 0,-1.247354 0.9789,-2.267917 2.1753,-2.267917 1.1964,0 2.1753,-1.020562 2.1753,-2.267916 0,-1.247354 0.9789,-2.267916 2.1754,-2.267916 1.19643,0 2.17533,-1.020562 2.17533,-2.267916 0,-1.247354 0.9789,-2.267916 2.1753,-2.267916 1.2085,0 2.1754,-1.343951 2.1754,-3.023889 0,-2.351914 0.9668,-3.023888 4.3506,-3.023888 2.9005,0 4.3507,-0.755972 4.3507,-2.267916 0,-1.583942 1.5308,-2.267916 5.0758,-2.267916 3.5449,0 5.0757,-0.683975 5.0757,-2.267917 0,-1.247354 0.9789,-2.267916 2.1754,-2.267916 1.1964,0 2.1753,-1.020562 2.1753,-2.267916 0,-1.511944 1.4502,-2.267916 4.3507,-2.267916 2.9004,0 4.3506,-0.755972 4.3506,-2.267917 0,-1.679937 1.692,-2.267916 6.526,-2.267916 4.8341,0 6.526,-0.587978 6.526,-2.267916 0,-1.679938 1.6919,-2.267917 6.526,-2.267917 4.8341,0 6.526,-0.587978 6.526,-2.267916 0,-1.511944 1.4502,-2.267916 4.3507,-2.267916 2.9004,0 4.3506,-0.755972 4.3506,-2.267916 0,-1.247354 0.9789,-2.267917 2.1754,-2.267917 1.6919,0 2.1753,2.015926 2.1753,9.071665 0,7.055741 -0.4834,9.071666 -2.1753,9.071666 -1.6948,0 -2.1754,2.027925 -2.1754,9.179661 0,6.143773 -0.7194,9.929704 -2.1753,11.447576 -1.7983,1.874811 -2.1753,7.88371 -2.1753,34.666721 0,27.790971 0.3093,32.398801 2.1753,32.398801 1.6436,0 2.1753,1.84793 2.1753,7.55972 0,5.71179 0.5318,7.55972 2.1754,7.55972 1.6113,0 2.1753,1.76394 2.1753,6.80375 0,5.03981 0.564,6.80375 2.1753,6.80375 1.4502,0 2.1754,1.51194 2.1754,4.53583 0,3.02389 0.7251,4.53583 2.1753,4.53583 1.4502,0 2.1753,1.51195 2.1753,4.53583 0,3.02389 0.7251,4.53584 2.1753,4.53584 1.4116,0 2.1754,1.47461 2.1754,4.19982 0,2.3288 1.2921,5.35326 2.9004,6.78894 1.7079,1.5246 2.9005,4.46015 2.9005,7.13977 0,3.03704 0.7235,4.55063 2.1753,4.55063 1.7105,0 2.1753,2.09992 2.1753,9.82764 0,7.72771 0.4648,9.82763 2.1754,9.82763 1.853,0 2.1753,4.03186 2.1753,27.215 0,23.18314 -0.3223,27.21499 -2.1753,27.21499 -1.4503,0 -2.1754,1.51195 -2.1754,4.53584 0,3.02388 -0.7251,4.53583 -2.1753,4.53583 -1.4502,0 -2.1753,1.51194 -2.1753,4.53583 0,3.52786 -0.6446,4.53583 -2.9005,4.53583 -1.9336,0 -2.9004,1.00797 -2.9004,3.02389 0,1.67994 -0.9668,3.02389 -2.1754,3.02389 -1.1964,0 -2.1753,1.02056 -2.1753,2.26792 0,1.24735 -0.9789,2.26791 -2.1753,2.26791 -1.1964,0 -2.1753,1.02056 -2.1753,2.26792 0,1.24735 -0.9789,2.26791 -2.1754,2.26791 -1.1964,0 -2.1753,1.02057 -2.1753,2.26792 0,1.24735 -0.9245,2.26792 -2.0545,2.26792 -1.1299,0 -2.286,0.72426 -2.5691,1.60948 -0.283,0.88521 -3.2741,1.99535 -6.6468,2.46699 -3.8211,0.53432 -6.1323,1.63722 -6.1323,2.92635 0,1.29075 -1.6362,2.06884 -4.3506,2.06884 -2.9005,0 -4.3507,0.75597 -4.3507,2.26792 0,1.76394 -1.9336,2.26791 -8.7013,2.26791 -6.7677,0 -8.7013,0.50398 -8.7013,2.26792 0,1.89496 -2.9811,2.26792 -18.1278,2.26792 -15.1467,0 -18.12783,-0.37296 -18.12783,-2.26792 z"
     style="fill:#000000;stroke-width:1.48076" />
</svg>
