<?xml version="1.0" encoding="UTF-8" standalone="no"?>
<svg
   xmlns:dc="http://purl.org/dc/elements/1.1/"
   xmlns:cc="http://creativecommons.org/ns#"
   xmlns:rdf="http://www.w3.org/1999/02/22-rdf-syntax-ns#"
   xmlns:svg="http://www.w3.org/2000/svg"
   xmlns="http://www.w3.org/2000/svg"
   xmlns:sodipodi="http://sodipodi.sourceforge.net/DTD/sodipodi-0.dtd"
   xmlns:inkscape="http://www.inkscape.org/namespaces/inkscape"
   inkscape:version="1.0 (4035a4fb49, 2020-05-01)"
   sodipodi:docname="ФЕДЕРАЦИЯ.svg"
   version="1.1"
   id="svg6506"
   width="358.37747"
   height="351.39026"
   viewBox="0 0 358.37747 351.39026">
  <sodipodi:namedview
     inkscape:current-layer="g6514"
     inkscape:window-maximized="1"
     inkscape:window-y="-6"
     inkscape:window-x="-6"
     inkscape:cy="202.63061"
     inkscape:cx="72.299122"
     inkscape:zoom="1.6453454"
     showgrid="false"
     id="namedview7"
     inkscape:window-height="1018"
     inkscape:window-width="1920"
     inkscape:pageshadow="2"
     inkscape:pageopacity="0"
     guidetolerance="10"
     gridtolerance="10"
     objecttolerance="10"
     borderopacity="1"
     bordercolor="#666666"
     pagecolor="#ffffff"
     inkscape:document-rotation="0" />
  <metadata
     id="metadata6512">
    <rdf:RDF>
      <cc:Work
         rdf:about="">
        <dc:format>image/svg+xml</dc:format>
        <dc:type
           rdf:resource="http://purl.org/dc/dcmitype/StillImage" />
        <dc:title></dc:title>
      </cc:Work>
    </rdf:RDF>
  </metadata>
  <defs
     id="defs6510">
    <clipPath
       id="clipPath130"
       clipPathUnits="userSpaceOnUse">
      <path
         d="M 0.85922619,6.8758185 V 367.87582 H 360.85923 V 145.75668 c -1.91235,0.34938 -4.3159,-0.51723 -4.66797,-3.40821 -0.12346,-1.01377 -0.10098,-2.00627 -0.28125,-3.02148 -0.35274,-2.39979 -0.21018,-1.91511 -0.90039,-4.39453 -0.4051,-1.45519 -0.76196,-2.24006 -1.10156,-3.75196 -0.14457,-0.64342 0.1175,-1.34503 -0.22266,-1.96484 -0.35472,-2.17579 -0.10447,-0.74278 -0.33398,-1.7168 -1.0382,-1.84369 -1.53799,-3.59368 -2.05078,-5.74218 -0.70176,-2.94027 -1.00911,-5.9077 -1.25586,-8.90625 -0.18676,-0.92854 -0.32329,-1.842 -0.51953,-2.81836 -0.0777,-0.3866 -0.39091,-1.75442 -0.58399,-2.16602 -0.19046,-0.40602 -0.46192,-0.7682 -0.69336,-1.15234 -0.37475,-0.93305 -0.25219,-0.59736 -0.75586,-2.18359 -0.0172,-0.0544 0.0682,0.21103 0.0742,0.15429 0.01,-0.0883 -0.0369,-0.17281 -0.0625,-0.25781 -0.0762,-0.25354 -0.21694,-0.4925 -0.24414,-0.75586 -0.0489,-0.47244 -0.0568,-0.94837 -0.0606,-1.42383 -1.40682,-3.359187 -0.30885,-0.57883 -2.44531,-6.175779 -0.6103,-1.539572 -1.21978,-3.077614 -1.83008,-4.617188 -0.4159,-1.194445 -0.78414,-2.40735 -1.24804,-3.583984 -0.31892,-0.808886 -0.77253,-1.560778 -1.09766,-2.367187 -0.44883,-1.113214 -0.75283,-2.268155 -0.73828,-3.470703 -0.94613,-2.692267 -1.85734,-5.398247 -2.81055,-8.087891 -1.71122,-5.869484 -3.34326,-10.517452 -4.29101,-16.15625 -1.4845,-1.908615 -2.09426,-2.795041 -3.78125,-4.544922 -0.67395,-0.699078 -1.40586,-1.338143 -2.09961,-2.017578 -0.89822,-0.879682 -1.7712,-1.787103 -2.67774,-2.658203 -7.07417,-6.797594 0.6379,0.80175 -5.03711,-4.826172 -3.6004,-1.604655 -7.22166,-3.161534 -10.83984,-4.726563 -10.93304,-4.731328 2.86926,1.171194 -7.45899,-3.029297 -1.47163,-0.598517 -2.90903,-1.277174 -4.37695,-1.884765 -3.54914,-1.469036 -7.16676,-2.782468 -10.65625,-4.394531 -0.67419,-0.360344 -1.37288,-0.677425 -2.02148,-1.082032 -3.92496,-2.448479 -0.0722,-0.160031 -2.42774,-1.996093 -0.52375,-0.408241 -1.09126,-0.757274 -1.65429,-1.109375 -2.29119,-1.432851 -1.85963,-1.143025 -4.25586,-2.179688 -2.19664,-0.950313 -3.30855,-2.432561 -3.50586,-3.734375 -0.56285,-0.203632 -0.93311,-0.303452 -4.00391,-1.109375 -5.09214,-1.336414 -4.86943,-5.842195 -0.78906,-6.121094 0.58291,-0.03984 1.24437,0.0079 1.98047,0.16211 4.65186,0.974601 8.99655,2.971045 13.57031,4.220703 0.68818,0.188026 1.39188,0.31218 2.08789,0.46875 l 2.24609,0.625 c 1.98647,0.59942 4.04056,1.076243 5.9668,1.861328 2.64057,1.076228 5.11439,2.545216 7.63672,3.863281 5.11298,2.864398 10.01979,6.079896 14.83789,9.41211 1.32678,0.917611 2.69039,1.790008 3.94922,2.798828 1.09872,0.880508 2.10485,1.869487 3.13867,2.826172 0.42855,0.192645 0.86141,0.375611 1.28906,0.570312 3.25198,1.480555 5.29133,2.381298 8.38086,4.136719 0.62799,0.356812 1.2438,0.734293 1.85742,1.115234 -0.21947,-3.007214 -0.52291,-6.017832 -0.30664,-9.035156 0.10435,-1.455817 0.68387,-5.726295 0.90235,-7.386719 0.10533,-0.805952 0.21875,-1.611069 0.3164,-2.417968 -0.0838,-0.284876 -0.0751,-0.558357 0.084,-0.808594 0.11945,-1.633633 0.31255,-1.878911 3.72461,-1.236328 0.47876,9.1e-4 0.94037,-0.0077 1.4082,0.0039 0.85532,-0.450268 1.50373,-0.661279 1.99219,-0.652344 1.4729,0.02694 1.60965,1.909775 2.40039,4.25586 0.37423,1.712756 0.74881,3.425913 1.12305,5.138671 0.0858,0.371948 0.17353,0.743393 0.25976,1.115235 1.87741,4.401727 3.20551,7.526485 4.7832,11.755859 0.32111,0.228455 0.65275,0.499503 1.01563,0.863281 0.52597,0.527274 0.75282,1.286865 1.12891,1.929688 0.42718,1.179603 0.942,2.33123 1.28125,3.539062 0.73171,2.605134 1.38443,6.292391 1.39843,9.011719 0.003,0.649888 0.20454,1.494878 0.22071,2.216797 1.73897,2.320805 3.55029,4.589605 5.0332,7.085938 V 6.8758185 Z M 350.7811,45.166834 c -0.79061,-0.562524 -1.48521,-0.733316 -2.18945,-0.492187 0.004,0.01896 0.009,0.03768 0.0137,0.05664 0.37697,1.696787 0.74139,3.395672 1.10352,5.095703 0.58893,-0.343754 1.17037,-0.72845 1.80664,-0.93164 -0.0477,-0.45195 -0.19583,-0.856787 -0.57422,-1.300781 0.20067,0.29997 0.46625,0.565815 0.60156,0.90039 0.46741,1.155769 0.4158,1.291294 0.4043,2.216797 -9.3e-4,0.07955 0.0338,0.194296 0.0547,0.294922 -0.007,-0.0052 -0.007,-0.01682 -0.0195,-0.01758 -0.0839,-0.005 -0.16798,-0.0051 -0.25196,-0.0078 -4.6e-4,0.08969 6.6e-4,0.151167 0,0.246094 0.0697,-0.0019 0.1393,-7e-5 0.20899,-0.0039 0.0394,-0.0022 0.0587,-0.02396 0.0684,-0.05469 -0.0229,0.07235 -0.0542,0.152836 -0.0488,0.208985 0.0674,0.707742 0.16002,1.411601 0.26172,2.115234 0.29285,2.026101 0.62433,4.047242 0.95312,6.068359 0.11431,0.126469 0.24745,0.237724 0.36719,0.359375 0.30775,0.312645 0.61143,0.627578 0.91797,0.941407 0.36764,0.521937 0.75157,1.032592 1.13281,1.544922 0.17727,-1.955563 -0.45206,-4.351435 -0.93945,-6.025391 -0.7132,-2.449543 -1.55754,-4.859932 -2.41797,-7.261719 -0.56746,-1.584006 -1.00709,-2.757428 -1.45313,-3.953125 z m -1.07226,4.660156 c -0.10714,0.06253 -0.21721,0.114585 -0.32617,0.169922 0.16933,0.230459 0.33289,0.436981 0.49219,0.623047 -0.0561,-0.264157 -0.10976,-0.528861 -0.16602,-0.792969 z m -1.11719,-5.152343 c -0.83612,-3.760985 -1.72332,-7.510453 -2.59375,-11.263672 -0.42911,-1.006088 -0.6439,-1.520295 -1.17969,-2.78711 -0.30917,-0.616836 -0.60969,-1.239002 -0.91211,-1.859375 0.16693,1.333667 0.3581,2.664235 0.59766,3.986329 0.93167,5.141671 1.77355,8.511819 2.83399,12.724609 0.43838,-0.398365 0.84882,-0.662083 1.2539,-0.800781 z m -1.2539,0.800781 c -0.42649,-0.607152 -0.88532,-1.40057 -1.56836,-1.322266 -0.5896,0.06759 -1.13869,0.271524 -1.67188,0.533203 0.42089,1.078947 0.91318,2.39081 1.41602,3.757813 -0.0542,-0.411133 -0.0548,-0.80244 0.18359,-1.111328 0.60473,-0.78363 1.14165,-1.401879 1.64063,-1.855469 0,0 0,-0.002 0,-0.002 z m 0,0.002 c 0.2146,0.852551 0.4079,1.641751 0.63085,2.542969 0.42903,0.570451 0.87073,1.229392 1.29493,1.818359 -0.41546,-1.328084 -1.06204,-3.228512 -1.76953,-4.140625 -0.051,-0.06576 -0.10463,-0.147235 -0.15625,-0.220703 z m -1.82422,2.966797 c 0.01,0.07418 0.0226,0.149446 0.0352,0.224609 0.006,-0.02795 0.01,-0.05605 0.0156,-0.08398 -0.0173,-0.04724 -0.0341,-0.09515 -0.0508,-0.140625 z m -1.41602,-3.757813 c -1.12235,-2.877112 -2.31792,-5.682331 -3.91601,-9.449218 0.80017,3.443864 1.61153,6.885531 2.38281,10.335937 0.50532,-0.316317 1.01051,-0.630191 1.5332,-0.886719 z m -1.5332,0.886719 c -0.42266,0.264572 -0.85123,0.514432 -1.28516,0.740235 0.33308,1.330918 0.66765,2.661975 0.99805,3.990234 0.10347,0.358769 0.20665,0.717552 0.31055,1.076172 0.27111,0.20291 0.63192,0.450222 1.01171,0.705078 -0.54542,-1.776316 -0.58385,-2.011579 -1.01953,-2.759766 -10e-4,5.1e-5 -0.003,-5e-5 -0.004,0 -0.28865,0.01117 -0.58142,-0.999333 -0.43555,-0.75 0.20342,0.347707 0.32314,0.550249 0.43945,0.75 0.26373,-0.01037 0.52321,-0.05233 0.78321,-0.0918 -0.22575,-1.045804 -0.44765,-2.092295 -0.67969,-3.136718 -0.0388,-0.1747 -0.0801,-0.348789 -0.11914,-0.523438 z m 0.79883,3.660156 c 0.22645,1.04906 0.44313,2.100395 0.66601,3.150391 0.002,9.99e-4 0.002,9.53e-4 0.004,0.002 0.51031,0.331141 1.05181,0.609124 1.59375,0.886719 -10e-4,0.09245 0.0157,-1.063273 0.0312,-2.955078 -0.0776,-0.257011 -0.12587,-0.576031 -0.16211,-1.136719 -0.01,-0.148587 0.0128,-0.296122 0.041,-0.443359 -0.71957,0.201486 -1.44271,0.385099 -2.17382,0.496093 z m -2.08399,-2.919921 c -0.46929,-1.875227 -0.91847,-3.75567 -1.35351,-5.640626 0.0944,1.188097 0.20674,2.377378 0.22265,3.56836 0.0122,0.907612 -0.0709,1.813671 -0.10547,2.720703 -0.17175,0.546486 -0.32254,1.100382 -0.50586,1.642578 0.60674,0.567998 1.0927,1.035478 1.4629,1.402344 -8.7e-4,-0.04569 -0.001,-0.03525 -0.002,-0.08203 -0.0215,-1.163384 0.0455,-2.326877 0.0684,-3.490235 0.0725,-0.03513 0.14109,-0.08373 0.21289,-0.121094 z m -1.35351,-5.640626 c -0.061,-0.767538 -0.11509,-1.53534 -0.12891,-2.304687 -0.0219,-1.217875 0.06,-2.426252 0.17383,-3.632813 -0.23574,-0.556432 -0.32143,-0.761019 -0.58594,-1.388671 -0.46146,-0.921219 -0.92127,-1.843458 -1.38476,-2.763672 0.46196,3.393366 1.15487,6.749682 1.92578,10.089843 z m -1.92578,-10.089843 c -0.12514,-0.919121 -0.23767,-1.839298 -0.32813,-2.763672 -0.0863,-0.882277 -0.70452,-2.145916 0.0176,-2.660156 0.84762,-0.60363 1.55671,-1.061601 2.17383,-1.41211 -0.37959,-0.07352 -0.73256,-0.137702 -1.04883,-0.197265 -1.41282,-0.0027 -2.79539,0.133771 -3.64063,1.113281 -0.0347,0.04024 -0.0576,0.0816 -0.084,0.123047 -0.0149,0.20447 -0.0236,0.319675 -0.0527,0.570312 -0.009,0.07957 -0.0216,0.158762 -0.0312,0.238282 0.2672,0.90881 1.48698,1.951831 1.9336,2.873046 0.34406,0.709682 0.70574,1.410838 1.06055,2.115235 z m 1.86328,-6.835938 c 0.48994,0.0949 0.74675,0.139515 1.35351,0.25586 0.0287,0.0055 0.0514,0.02068 0.0781,0.0293 0.046,-0.249246 0.0612,-0.469482 -0.12696,-0.464844 -0.2989,0.0074 -0.62625,-0.0058 -0.94531,-0.01367 -0.11614,0.06114 -0.23495,0.12269 -0.35937,0.193359 z m 1.43164,0.285157 c -0.0313,0.169575 -0.0768,0.354477 -0.082,0.482421 -0.0134,0.330507 -0.0815,0.869421 -0.13477,1.353516 0.33801,-0.102111 0.72534,-0.202635 1.20898,-0.302734 -0.27856,-0.551017 -0.43934,-1.355335 -0.99218,-1.533203 z m 0.99218,1.533203 c 0.0102,0.02022 0.0187,0.04695 0.0293,0.06641 0.55976,1.0289 1.07649,2.079671 1.58984,3.132812 -0.075,-0.599465 -0.15741,-1.197814 -0.21679,-1.798828 -0.055,-0.556699 0.6275,-1.77077 0.0762,-1.675781 -0.56821,0.0979 -1.05042,0.186788 -1.47852,0.275391 z m -1.20898,0.302734 c -1.6125,0.487133 -1.79188,1.079907 -2.40234,2.580078 0.37481,1.715394 0.74823,3.429137 1.12304,5.144531 0.0654,0.283866 0.13154,0.56776 0.19727,0.851563 0.18919,-1.883437 0.47315,-3.759671 0.7207,-5.638672 0.0781,-0.597942 0.2388,-1.823299 0.36133,-2.9375 z m -1.08203,8.576172 c -0.01,0.09692 -0.0163,0.194052 -0.0254,0.291015 0.0852,0.201007 0.12914,0.309161 0.21094,0.501954 -0.0614,-0.264369 -0.12431,-0.528558 -0.18555,-0.792969 z m -0.15625,47.587891 c 0.59181,1.684045 1.19503,3.364146 1.83789,5.029296 1.68786,4.371914 3.89331,9.202171 6.01367,13.703128 0.42427,-0.56207 0.82162,-1.170983 1.39453,-1.478518 0.01,-1.48195 0.0332,-2.958406 0.0488,-4.132813 0.0611,-1.42551 0.0875,-2.850427 0.0957,-4.27539 -0.19201,-0.482448 -0.38437,-0.964761 -0.57617,-1.447266 -0.49441,-1.385336 -0.94263,-2.787954 -1.48242,-4.15625 -0.4775,-1.210418 -1.35598,-2.236024 -1.26367,-3.585937 -0.0185,-0.420695 -0.0295,-0.593518 -0.0391,-0.810547 -0.26603,-0.747934 -0.52926,-1.497817 -0.78907,-2.248047 -0.0717,0.107318 -0.10315,0.15845 -0.18945,0.287109 -0.15168,0.226135 -0.0754,-0.124621 0.10352,-0.53125 -0.53491,-1.547574 -1.06927,-3.095433 -1.60547,-4.642578 -0.61045,-1.023318 -1.21576,-2.049939 -1.8418,-3.064453 -0.20337,-0.332372 -0.40594,-0.665476 -0.60937,-0.998047 -0.0431,0.463656 -0.0825,0.911033 -0.13672,1.410156 -0.12959,1.191767 -0.37285,2.368421 -0.5586,3.552735 -0.10075,0.425516 -0.72369,1.164221 -0.30078,1.27539 0.0447,0.01174 0.0846,-0.0072 0.125,-0.03125 0.16655,-0.386022 0.33667,-0.770523 0.4375,-1.175781 0.0961,-0.386301 -0.0892,0.968708 -0.4375,1.175781 -0.17884,0.414513 -0.35293,0.830364 -0.43359,1.271485 -0.11716,0.640679 0.039,1.3024 0.0664,1.953125 0.04,0.948177 0.0952,1.895642 0.13672,2.84375 -6e-4,0.02564 0.004,0.05058 0.004,0.07617 z m 5.1543,-3.646485 c 0.0282,0.08152 0.0577,0.162639 0.0859,0.244141 0.29515,-0.442041 0.45828,-0.71905 0.58203,-0.960938 -0.0188,-0.03327 -0.0378,-0.06636 -0.0566,-0.09961 -0.23145,0.100255 -0.45902,0.470207 -0.61132,0.816406 z m 0.875,2.492188 c 0.45142,1.269184 0.91,2.534056 1.39453,3.791015 0.59333,1.539222 1.26287,3.143002 1.96093,4.765625 -0.002,-0.913985 -0.001,-1.827941 -0.0117,-2.742187 0,-0.804683 9.5e-4,-1.609376 0.002,-2.414063 -0.73238,-1.502654 -1.79064,-3.452842 -2.14453,-4.107422 -0.3844,-0.710998 -0.79431,-1.406697 -1.18946,-2.111328 -0.0406,0.269063 -0.1205,0.583047 -0.10937,0.792969 0.0635,1.199135 0.0738,1.483078 0.0977,2.025391 z m 1.82226,19.886721 c -0.15994,0.21189 -0.32431,0.41748 -0.5039,0.5957 0.009,0.29523 0.009,0.59103 0.0117,0.88672 0.0779,0.18607 0.022,0.0489 0.11719,0.27734 0.11039,0.26488 0.0635,0.93073 0.31836,0.79883 0.32692,-0.16919 0.68083,-0.33278 1.03125,-0.49805 -0.32098,-0.67567 -0.64694,-1.365 -0.97461,-2.06054 z m 0.97461,2.06054 c 0.0924,0.19451 0.18769,0.40123 0.2793,0.59375 0.0654,-0.0524 0.13998,-0.0957 0.20898,-0.14453 -0.01,-0.178 -0.0322,-0.35493 -0.0391,-0.5332 -0.002,-0.0393 -5.4e-4,-0.0949 -0.002,-0.13477 -0.14994,0.0718 -0.29803,0.14837 -0.44727,0.21875 z m 0.2793,0.59375 c -0.28961,0.2319 -0.55502,0.48769 -0.75196,0.81446 -0.27413,0.45486 0.34271,0.69069 1.08789,0.79102 -0.0353,-0.35539 -0.0512,-0.71229 -0.0781,-1.06837 -0.036,-0.0737 -0.12688,-0.26078 -0.13477,-0.27734 -0.04,-0.0839 -0.0829,-0.17543 -0.12304,-0.25977 z m 1,-52.472652 c -0.11258,3.69e-4 -0.22529,0.003 -0.33789,0.0039 0.0333,0.110015 0.0505,0.169242 0.082,0.273438 0.10548,0.004 0.21094,0.0066 0.3164,0.0098 -0.0203,-0.09568 -0.0403,-0.19143 -0.0605,-0.287109 z m -1.15235,0.01758 c -0.40433,0.0069 -0.80854,0.0076 -1.21289,0.01758 0.001,0.0038 0.002,0.008 0.004,0.01172 0.41949,0.03126 0.8386,0.0832 1.25781,0.142578 -0.0167,-0.05716 -0.0321,-0.114714 -0.0488,-0.171875 z m -2.35156,0.01362 c 0.004,0.01015 0.006,0.01713 0.01,0.02734 0.23433,-0.0039 0.46872,-0.0078 0.70312,-0.01367 -1.8e-4,-0.0033 -0.002,-0.0065 -0.002,-0.0098 -0.23697,-0.0088 -0.47394,-0.01144 -0.71094,-0.0039 z m 0.0352,0.09766 c 0.0268,0.07447 0.0443,0.117191 0.0723,0.195313 0.0137,0.03837 0.0273,0.07684 0.041,0.115234 0.21409,0.04541 0.40125,0.08935 0.59766,0.134766 -0.007,-0.137453 -0.018,-0.274706 -0.0254,-0.41211 -0.22853,-0.01125 -0.45706,-0.02365 -0.68554,-0.0332 z m 1.16211,0.05664 c 0.0666,0.170217 0.15028,0.388125 0.20898,0.539062 0.47837,0.120748 0.88071,0.234757 1.24805,0.345703 -0.0805,-0.275725 -0.15755,-0.552454 -0.23828,-0.828124 -0.40621,-0.0196 -0.81248,-0.03562 -1.21875,-0.05664 z m 2.0625,0.130859 c 0.11915,0.394107 0.21535,0.722937 0.31054,1.042969 0.0871,0.02974 0.15638,0.05117 0.23438,0.07813 -0.0754,-0.357328 -0.14895,-0.715008 -0.22461,-1.072266 -0.10677,-0.01702 -0.21354,-0.03184 -0.32031,-0.04883 z m 2.02929,0.28711 c -0.004,0.433812 -1.4e-4,0.600266 -0.006,1.0625 0.11512,-0.157673 0.15262,-0.479507 0.2168,-1.035157 -0.0703,-0.0068 -0.14065,-0.01965 -0.21094,-0.02734 z m -12.04492,5.201172 c 0.37784,0.487447 0.87858,1.192037 1.67774,2.335937 -5.9e-4,-0.173076 0.003,-0.306786 0.002,-0.484375 -0.002,-0.438187 -0.009,-0.427726 -0.0117,-0.785156 -0.33436,-0.192442 -0.6731,-0.377706 -0.99414,-0.591797 -0.28819,-0.192182 -0.43748,-0.310561 -0.67383,-0.474609 z m 4.95313,2.880859 c 0.11044,0.176277 0.24051,0.338731 0.41992,0.466797 0.0564,0.04024 0.10285,0.07026 0.1582,0.109375 0.0158,-0.03405 0.04,-0.07431 0.043,-0.101563 0.006,-0.05693 0.007,-0.08252 0.0117,-0.132812 -0.0784,-0.03998 -0.45887,-0.249061 -0.63281,-0.341797 z m 0.57812,0.576172 c -0.0158,0.03405 -0.0233,0.0603 0.004,0.05664 0.0232,-0.0031 0.0488,-0.003 0.0723,-0.0059 -0.0261,-0.01837 -0.0498,-0.03216 -0.0762,-0.05078 z m 0.0762,0.05078 c 0.0869,0.06109 0.16565,0.115503 0.25,0.173828 -0.0128,-0.07578 -0.019,-0.114836 -0.0312,-0.1875 -0.0724,0.0059 -0.14794,0.0051 -0.21875,0.01367 z m 0.21875,-0.01367 c 0.0459,-0.0038 0.0922,-0.0069 0.13868,-0.0098 -0.004,-0.02082 -0.008,-0.04168 -0.0117,-0.0625 -0.0125,-0.0064 -0.13784,-0.07469 -0.15235,-0.08203 0.009,0.05634 0.0154,0.09452 0.0254,0.154297 z m 0.13868,-0.0098 c 0.0201,0.104988 0.0424,0.209471 0.0625,0.314454 0.60435,0.412824 1.13718,0.747061 1.61718,1.021484 -0.0577,-0.121029 -0.11072,-0.244058 -0.13281,-0.375 -0.0119,-0.07064 0.0341,-0.0075 0.0957,0.08203 -0.005,-0.0279 -0.007,-0.05609 -0.0117,-0.08398 -0.12436,-0.180971 -0.22975,-0.318793 -0.0742,-0.06836 -1.24296,-0.766744 -1.29759,-0.808003 -1.46094,-0.892579 -0.0313,0.0016 -0.0646,6.2e-5 -0.0957,0.002 z m 0.0625,0.314454 c -0.0561,-0.03828 -0.11274,-0.07765 -0.16993,-0.117188 0.0329,0.194956 0.0428,0.265524 0.0801,0.482422 0.0607,0.02605 0.11916,0.05924 0.17969,0.08594 -0.029,-0.150591 -0.061,-0.300552 -0.0898,-0.451172 z m 0.0898,0.451172 c 0.1204,0.624797 0.24786,1.248093 0.37695,1.871093 0.009,-0.06355 0.0228,-0.118549 0.0605,-0.146484 0.37466,-0.277438 0.76613,-0.532287 1.16211,-0.777344 1.6e-4,-0.01236 -10e-6,-0.02474 0,-0.03711 -0.01,-0.05469 -0.0198,-0.109334 -0.0293,-0.164063 -0.51921,-0.261312 -1.0421,-0.51317 -1.57031,-0.746093 z m 1.59961,0.947265 c -0.0278,2.083438 -0.11195,4.165602 -0.25586,6.248047 0.68578,1.122987 1.36533,2.249436 2.0332,3.382812 -0.0227,-0.215104 -0.0489,-0.42747 -0.0938,-0.597656 -0.90339,-3.429767 -0.11354,1.552415 -1.0664,-3.597656 -0.26876,-1.452638 -0.32958,-2.943832 -0.42579,-4.414062 -0.0612,-0.341924 -0.12437,-0.683482 -0.18554,-1.025391 -0.002,0.0012 -0.004,0.0027 -0.006,0.0039 z m -1.22266,0.923828 c -0.0398,0.296064 0.17509,0.860231 0.12891,0.646485 -0.0464,-0.214791 -0.0843,-0.431317 -0.12891,-0.646485 z m 9.1211,9.488281 c 0.007,0.587491 -0.002,1.176405 -0.002,1.664063 7.1e-4,2.982799 -0.005,5.964933 -0.008,8.947266 0.0116,0.02946 0.0404,0.0838 0.0508,0.111328 0.26859,0.71341 0.39555,1.470953 0.59375,2.207031 0.0653,0.454306 0.0948,0.915458 0.19531,1.363281 0.21997,0.979743 0.47196,0.917631 0.98047,1.908203 0.51238,0.998104 0.98375,2.01775 1.43946,3.042969 0.53666,1.207328 1.02473,2.434518 1.53711,3.652344 0.25724,0.575391 0.51426,1.151027 0.77148,1.726562 V 84.05157 c -0.73144,-1.548991 -0.31556,-0.998215 -1.07031,-2.816407 -0.23096,-0.55637 -0.49646,-1.097041 -0.75196,-1.642578 -0.32598,-0.696011 -0.66139,-1.38829 -0.99218,-2.082031 -0.71831,-1.379393 -1.37611,-2.7902 -2.14063,-4.144531 -0.19313,-0.342133 -0.39605,-0.675769 -0.60351,-1.00586 z m -0.13868,26.769532 c -0.01,1.170578 -0.0162,2.366938 0.0117,3.164068 6.4e-4,0.0183 0.003,0.0364 0.004,0.0547 0.61756,1.2778 1.23808,2.55436 1.85937,3.83007 0.65154,1.3378 1.26829,2.69277 1.96094,4.00977 0.5821,1.1068 1.24117,2.17188 1.86133,3.25781 v -2.74414 c -1.57833,-2.75675 -2.86692,-5.67111 -4.32031,-8.49218 -0.45868,-1.02683 -0.91778,-2.05347 -1.37696,-3.080086 z m 0.9004,12.757818 c 0.16075,2.05722 0.35395,4.04848 0.68164,6.05273 0.42303,0.40228 0.86151,0.69363 1.29492,0.88086 0.005,-0.57419 0.006,-1.15284 -0.0899,-1.71875 -0.10333,-0.60728 -0.71866,-1.8089 -0.96484,-2.33203 -0.21789,-0.58204 -0.47931,-1.14919 -0.65234,-1.74609 -0.10858,-0.37458 -0.18749,-0.75601 -0.26953,-1.13672 z m 1.97656,6.93359 c -7e-5,0.008 7e-5,0.0169 0,0.0254 -8.8e-4,0.10999 -0.031,0.21725 -0.0605,0.32422 0.008,-0.009 0.0164,-0.0247 0.0273,-0.0195 0.10263,0.0483 0.0763,0.21379 0.11524,0.32031 0.0594,0.42553 0.12029,0.84986 0.17969,1.27539 0.0687,0.3309 0.15327,0.66017 0.20507,0.99414 0.0821,0.52947 0.11202,1.06446 0.19532,1.59375 0.18755,1.19227 0.26883,1.50534 0.36718,1.85547 0.3246,0.37688 0.67695,0.73291 0.9961,1.11328 h 0.002 c 0.32446,0.38671 0.57436,0.76924 0.79297,1.14844 v -8.9668 c -0.7029,0.62857 -1.74291,0.80139 -2.82031,0.33594 z m -0.0605,0.34961 c -0.0467,0.0521 -0.0543,0.27891 -0.0469,0.21094 0.008,-0.071 0.0277,-0.14145 0.0469,-0.21094 z m 2.88086,12.91406 c -0.09,0.0884 -0.19603,0.15548 -0.29883,0.22656 0.0836,0.27404 0.17875,0.54444 0.25586,0.82032 0.0193,0.0691 0.0248,0.091 0.043,0.15625 z"
         style="fill:#ffffff;fill-opacity:0;fill-rule:evenodd;stroke:#ffffff"
         id="path132" />
    </clipPath>
  </defs>
  <g
     transform="translate(-103.7391,-53.559917)"
     id="g6514">
    <path
       id="path10"
       d="m 273.14614,404.53824 c -9.51192,-1.37142 -18.20619,-4.50468 -23.30137,-8.3974 l -2.29485,-1.75327 v -11.24496 c 0,-6.78156 -0.32802,-12.16933 -0.8264,-13.57377 -1.4658,-4.13069 1.63107,-7.28168 9.95968,-10.13376 l 4.63584,-1.58752 0.20508,-5.37319 0.20509,-5.37319 5.62031,2.57567 c 3.09117,1.41661 5.62031,2.79587 5.62031,3.06502 0,0.26914 -2.14121,0.94272 -4.75826,1.49683 -3.30485,0.69974 -4.82523,1.36456 -4.9775,2.17652 -0.18828,1.00395 0.20946,1.08539 2.81646,0.57667 1.66964,-0.3258 6.28093,-0.81784 10.24732,-1.09342 l 7.21162,-0.50105 0.20252,-5.93256 0.20253,-5.93256 5.9602,3.0559 5.96019,3.05589 -5.43061,1.23118 c -4.83016,1.09503 -5.43062,1.41267 -5.43062,2.87276 0,1.5646 0.32289,1.66372 6.88456,2.11333 3.78651,0.25945 8.07612,0.67427 9.53247,0.92184 l 2.64791,0.4501 v -5.0701 -5.07011 l 5.64887,2.61481 c 3.10688,1.43815 5.64887,2.82842 5.64887,3.08949 0,0.26107 -2.30059,0.92551 -5.11242,1.47653 -6.91729,1.35555 -7.14557,2.7322 -0.73361,4.42431 5.70954,1.50674 9.77533,3.73778 11.74559,6.44521 1.2636,1.73637 1.33756,2.27846 0.59597,4.36829 -0.52215,1.47142 -0.84666,6.696 -0.84666,13.63088 v 11.24496 l -2.29485,1.75327 c -6.9756,5.32935 -17.83946,8.33725 -31.59837,8.74868 -5.24286,0.15677 -11.5185,-10e-4 -13.94587,-0.35128 z m 7.59089,-8.2786 v -7.55511 h 3.53054 3.53055 v 7.55511 c 0,7.35816 0.0414,7.55485 1.58874,7.54529 4.65232,-0.0288 4.76624,-0.22574 4.76624,-8.24137 0,-7.93248 -0.80933,-11.51635 -2.85229,-12.63049 -0.71034,-0.38739 -4.01328,-0.70435 -7.33987,-0.70435 -8.66179,0 -8.87278,0.28089 -8.87278,11.81236 0,9.52741 0.0313,9.60934 3.70707,9.71687 l 1.9418,0.0568 z m -9.17941,-2.55107 c 0,-9.0067 -0.0702,-9.45815 -1.73318,-11.15279 -2.07506,-2.11451 -4.57109,-2.26152 -6.8247,-0.40196 -1.52027,1.25444 -1.67499,2.0118 -1.9237,9.41613 -0.15056,4.48266 0.0242,8.35217 0.39416,8.72921 0.36553,0.37248 2.7053,1.12824 5.19948,1.67945 2.49419,0.55121 4.61432,1.02795 4.71141,1.05941 0.0971,0.0314 0.17653,-4.16679 0.17653,-9.32945 z m 34.39522,7.17034 1.76802,-0.68498 -0.25958,-8.33259 c -0.24038,-7.71647 -0.3823,-8.43385 -1.91934,-9.70213 -2.25981,-1.86468 -4.75428,-1.71986 -6.83123,0.39657 -1.66115,1.69273 -1.73318,2.15215 -1.73318,11.05456 v 9.28842 l 3.60364,-0.66743 c 1.98201,-0.36709 4.39925,-0.97568 5.37167,-1.35242 z M 258.84766,390.6004 c 0,-7.91149 -0.16213,-9.10717 -1.46347,-10.79301 -1.79866,-2.33011 -4.98019,-2.52504 -7.0351,-0.43106 -1.27953,1.30385 -1.41531,2.22517 -1.23569,8.38462 l 0.20179,6.9198 4.23665,2.39982 c 2.33016,1.3199 4.47497,2.40368 4.76624,2.4084 0.29127,0.005 0.52958,-3.99514 0.52958,-8.88857 z m 56.13564,6.48017 4.23666,-2.39982 0.20179,-6.9198 c 0.17962,-6.15945 0.0438,-7.08077 -1.23569,-8.38462 -2.05491,-2.09398 -5.23644,-1.89905 -7.0351,0.43106 -1.30134,1.68584 -1.46347,2.88152 -1.46347,10.79301 0,4.89343 0.23831,8.89328 0.52958,8.88857 0.29127,-0.005 2.43608,-1.0885 4.76623,-2.4084 z m -15.00481,-20.32674 c 2.05435,-0.47518 2.25997,-0.81545 1.36274,-2.25516 -0.43678,-0.70085 -2.23047,-0.72877 -8.28597,-0.129 -7.05088,0.69836 -15.05933,0.5166 -22.63391,-0.5137 -2.50369,-0.34056 -2.95337,-0.19272 -3.27952,1.0782 -0.32614,1.27085 0.0234,1.52538 2.54849,1.85573 1.60955,0.21057 3.72083,0.5279 4.69173,0.7052 2.35507,0.43003 23.13405,-0.17172 25.59644,-0.74127 z m -34.77585,-1.30184 c 0,-0.1655 0.18033,-0.7798 0.40074,-1.3651 0.42826,-1.13726 -1.68786,-2.00715 -11.52195,-4.73642 -4.22383,-1.17224 -5.11929,-1.24289 -5.11929,-0.40388 0,0.55928 0.85305,1.58644 1.89566,2.28257 3.53279,2.35879 14.34484,5.54164 14.34484,4.22283 z m 47.62608,-1.90565 c 4.33852,-1.65412 7.0822,-3.62816 6.668,-4.79753 -0.25215,-0.71186 -15.50893,3.21838 -16.52916,4.25801 -0.20592,0.20983 -0.16133,0.94732 0.0991,1.63885 0.57575,1.52889 3.82971,1.16245 9.76208,-1.09933 z m -51.59035,-5.61748 c 1.12943,-1.27173 1.11165,-1.49632 -0.31335,-3.95744 -0.83091,-1.43506 -1.62631,-2.6092 -1.76756,-2.6092 -1.12887,0 -8.12244,3.14626 -8.77524,3.94778 -0.68377,0.83956 -0.11432,1.21756 3.28968,2.18374 2.26413,0.64263 4.43435,1.28123 4.8227,1.41909 1.29523,0.45979 1.5393,0.37226 2.74377,-0.98397 z m 53.5934,-0.42177 c 2.52545,-0.71906 3.90627,-1.45802 3.61668,-1.9355 -0.473,-0.77988 -7.57038,-4.20937 -8.71135,-4.20937 -0.33892,0 -1.29606,1.17414 -2.12697,2.6092 -1.42928,2.46851 -1.44569,2.68244 -0.30432,3.96761 0.66352,0.74712 1.70915,1.21729 2.32362,1.0448 0.61447,-0.17248 2.95553,-0.83702 5.20234,-1.47674 z m -43.74043,-2.30212 c 4.51441,-0.50752 4.98381,-0.98769 4.10824,-4.20252 -0.65992,-2.42309 -1.36884,-2.49625 -9.72755,-1.00388 l -4.32032,0.77135 1.49588,2.83785 c 1.16392,2.20807 1.80928,2.75162 2.9081,2.4493 0.77672,-0.2137 3.26776,-0.59714 5.53565,-0.8521 z m 34.79622,-1.62646 1.49588,-2.80859 -4.32032,-0.77135 c -8.35871,-1.49237 -9.06763,-1.41921 -9.72756,1.00388 -0.84639,3.10775 -0.27853,3.94642 2.73718,4.04257 1.46853,0.0468 3.62331,0.33231 4.78839,0.63441 3.3825,0.87706 3.45688,0.84598 5.02643,-2.10092 z m -15.00395,-0.9571 c 1.0775,-4.09713 1.01323,-4.13733 -6.61604,-4.13733 -7.62926,0 -7.69353,0.0402 -6.61603,4.13733 0.40048,1.52281 0.79339,1.61895 6.61603,1.61895 5.82265,0 6.21556,-0.0961 6.61604,-1.61895 z M 265.3564,339.39555 c -21.7457,-2.54384 -40.35207,-9.12556 -51.37616,-18.17351 l -4.20714,-3.45299 -0.37766,-24.43351 c -0.33812,-21.8749 -0.51901,-24.78181 -1.72742,-27.75978 -1.18731,-2.92597 -1.24193,-3.693 -0.45385,-6.3734 0.55043,-1.87211 2.08032,-4.22012 3.96743,-6.08905 5.16784,-5.11806 17.44587,-10.78179 25.39753,-11.71559 1.95615,-0.22973 3.71552,-0.6416 3.9097,-0.91528 0.53259,-0.75063 12.02501,-2.72694 21.18326,-3.64279 10.02861,-1.0029 32.31584,-1.00439 42.71958,-0.003 9.76119,0.93968 18.00578,2.32218 18.00578,3.0193 0,0.29377 1.19156,0.51952 2.6479,0.50166 2.77613,-0.034 8.45544,1.41806 15.00482,3.83646 10.12327,3.73809 17.54998,9.55775 19.15248,15.00814 0.78808,2.68039 0.73346,3.44742 -0.45385,6.37339 -1.20841,2.97797 -1.3893,5.88488 -1.72742,27.75979 l -0.37766,24.4335 -4.20714,3.45299 c -17.56891,14.41958 -54.06324,22.03589 -87.08018,18.17352 z m 11.14398,-17.60772 v -15.82976 h 6.70803 6.70803 v 15.7469 15.7469 l 4.76624,-0.31895 c 2.62143,-0.17542 5.48117,-0.46809 6.35498,-0.65039 l 1.58874,-0.33143 -0.0155,-17.435 c -0.0139,-15.63544 -0.15544,-17.7491 -1.37117,-20.47816 -2.3908,-5.36683 -4.14618,-5.94564 -18.03132,-5.94564 -10.66276,0 -12.2564,0.15691 -14.26442,1.40456 -4.49752,2.79443 -4.77619,4.14248 -5.02092,24.28848 l -0.2204,18.14332 1.63262,0.37805 c 0.89794,0.20793 3.38024,0.48304 5.51622,0.61137 2.13598,0.12831 4.28078,0.2932 4.76623,0.36641 0.68335,0.10304 0.88267,-3.44156 0.88267,-15.69666 z m -18.36573,-4.13733 c -0.006,-17.22379 -0.0619,-17.92886 -1.68237,-21.47513 -2.03939,-4.46309 -5.76138,-7.11591 -9.99258,-7.12215 -3.77018,-0.006 -6.49893,1.92107 -8.16861,5.76743 -1.23336,2.84122 -1.34192,4.65446 -1.16965,19.53622 l 0.1899,16.40431 4.58971,1.27304 c 5.59667,1.55232 13.32667,3.28644 15.00481,3.3661 1.14529,0.0544 1.23519,-1.24416 1.22879,-17.74982 z m 63.86493,15.0084 7.1059,-1.87689 0.1899,-16.41473 c 0.17228,-14.89201 0.0638,-16.70525 -1.16965,-19.54663 -1.66968,-3.84636 -4.39843,-5.77299 -8.16861,-5.76743 -4.2312,0.006 -7.95318,2.65906 -9.99258,7.12215 -1.62082,3.54705 -1.6757,4.24903 -1.68237,21.51922 l -0.007,17.85257 3.30921,-0.50568 c 1.82006,-0.27813 6.50686,-1.35029 10.4151,-2.38258 z m -91.20707,-43.22096 c -2.25222,-4.57673 -5.23204,-6.70121 -9.39918,-6.70121 -3.60806,0 -6.13495,1.77621 -7.78029,5.46896 -1.15267,2.587 -1.33969,4.80254 -1.35305,16.02917 l -0.0155,13.02725 4.14624,2.96372 c 2.28043,1.63005 6.80836,4.27576 10.06205,5.87935 l 5.9158,2.91563 0.1892,-17.8056 0.18921,-17.8056 z m 110.78772,35.89651 c 2.45952,-1.25991 6.29892,-3.59161 8.53199,-5.18154 l 4.06012,-2.8908 -0.0155,-13.02725 c -0.0133,-11.22663 -0.20038,-13.44217 -1.35306,-16.02917 -1.64534,-3.69275 -4.17223,-5.46896 -7.78029,-5.46896 -4.12236,0 -7.14428,2.13541 -9.3865,6.63289 l -1.9418,3.89488 v 17.84152 17.84153 l 1.70659,-0.66118 c 0.93862,-0.36365 3.71892,-1.69201 6.17845,-2.95192 z m -32.2458,-44.18132 c 4.66032,-0.5875 8.69234,-1.07497 8.96003,-1.08324 0.2677,-0.008 -0.01,-1.50062 -0.61713,-3.31631 -1.04897,-3.13707 -1.21363,-3.28171 -3.31116,-2.90841 -16.86268,3.0011 -45.45284,3.0011 -62.31551,0 -2.09129,-0.37218 -2.26391,-0.22355 -3.28421,2.82783 l -1.07692,3.22065 2.5781,0.40933 c 1.41796,0.22513 6.07334,0.74893 10.3453,1.164 4.27196,0.41507 8.87932,0.88684 10.23858,1.04839 4.88061,0.58006 30.17961,-0.31549 38.48292,-1.36224 z m -63.89717,-5.07638 c 0.49242,-1.79219 0.77203,-3.33772 0.62135,-3.43449 -2.25531,-1.4485 -33.67904,-10.9533 -34.25894,-10.36236 -0.20099,0.2048 0.13503,1.35856 0.74672,2.56391 2.23227,4.39883 11.30579,9.08441 24.44968,12.62588 3.66864,0.98846 6.86727,1.8126 7.10807,1.83141 0.24079,0.0188 0.8407,-1.43214 1.33312,-3.22435 z m 86.47765,0.61771 c 11.91865,-3.3776 19.81995,-7.64238 21.95553,-11.85065 0.61168,-1.20535 0.9477,-2.35911 0.74671,-2.56391 -0.5799,-0.59094 -32.00363,8.91386 -34.25894,10.36236 -0.15067,0.0968 0.1278,1.6382 0.61884,3.42538 1.02215,3.72016 0.1905,3.67249 10.93786,0.62682 z m -94.14571,-15.65221 1.87007,-1.20412 -3.18106,-5.7214 c -1.74958,-3.14678 -3.57405,-5.72142 -4.05438,-5.72142 -1.5819,0 -8.85775,2.78618 -12.38617,4.74311 -3.29234,1.82598 -6.94229,5.04817 -6.3049,5.56598 0.16335,0.1327 4.74548,1.54078 10.18252,3.12907 9.28442,2.7122 9.94992,2.81254 10.94468,1.65034 0.58254,-0.68059 1.9007,-1.77929 2.92924,-2.44156 z m 114.93487,-2.34138 c 0.64004,-0.51237 -3.01747,-3.73919 -6.30491,-5.56245 -3.52841,-1.95693 -10.80427,-4.74311 -12.38617,-4.74311 -0.48033,0 -2.30875,2.58176 -4.06317,5.73723 l -3.18986,5.73723 2.33839,1.47267 c 1.28611,0.80998 2.50577,1.91716 2.71034,2.46042 0.29642,0.78714 2.42569,0.39353 10.48516,-1.93825 5.56228,-1.60929 10.24686,-3.03297 10.41022,-3.16374 z m -98.09306,-2.37351 c 4.46613,-0.79671 8.99406,-1.45029 10.06205,-1.4524 2.2687,-0.004 2.23139,0.39353 0.60747,-6.47965 -0.91267,-3.86281 -1.61929,-5.46511 -2.48634,-5.6379 -2.16234,-0.43092 -21.32964,2.52443 -25.00409,3.85532 -0.67971,0.24619 -0.10748,1.91778 2.10503,6.14916 2.77275,5.30284 3.19405,5.77622 4.81706,5.41256 0.97821,-0.21919 5.43268,-1.05038 9.89882,-1.84709 z m 71.93792,-3.61755 c 2.19389,-4.19579 2.75788,-5.85075 2.07779,-6.09708 -3.67445,-1.33089 -22.84175,-4.28624 -25.00409,-3.85532 -0.86705,0.17279 -1.57367,1.77509 -2.48634,5.6379 -0.70126,2.96808 -1.28837,5.57323 -1.30467,5.78921 -0.0163,0.21598 3.14203,0.81613 7.01854,1.33365 3.87651,0.51753 8.72218,1.35732 10.76816,1.86622 5.85182,1.45553 5.67761,1.54672 8.93061,-4.67458 z m -29.84847,-3.23519 c 0.49088,-2.37447 0.91291,-5.04574 0.93785,-5.93616 l 0.0453,-1.61896 h -14.47523 c -13.81314,0 -14.47523,0.0633 -14.47523,1.38418 0,1.23903 1.1685,7.60161 1.83012,9.96516 0.19793,0.70707 3.10714,0.87124 12.75054,0.71954 l 12.49411,-0.19656 z M 157.3443,336.902 c -9.51191,-1.37142 -18.20618,-4.50468 -23.30136,-8.3974 l -2.29486,-1.75327 v -11.24496 c 0,-6.78156 -0.32801,-12.16933 -0.82639,-13.57377 -1.4658,-4.13068 1.63106,-7.28168 9.95967,-10.13376 l 4.63584,-1.58752 0.20509,-5.37319 0.20509,-5.37319 5.6203,2.57567 c 3.09118,1.41662 5.62032,2.79587 5.62032,3.06502 0,0.26914 -2.14122,0.94272 -4.75827,1.49683 -3.30484,0.69974 -4.82523,1.36456 -4.9775,2.17652 -0.18827,1.00395 0.20946,1.08539 2.81647,0.57667 1.66963,-0.32579 6.28093,-0.81784 10.24732,-1.09342 l 7.21161,-0.50104 0.20253,-5.93256 0.20252,-5.93257 5.9602,3.0559 5.9602,3.05589 -5.43061,1.23118 c -4.83017,1.09504 -5.43062,1.41267 -5.43062,2.87276 0,1.56461 0.32289,1.66372 6.88456,2.11333 3.78651,0.25945 8.07612,0.67428 9.53247,0.92184 l 2.6479,0.4501 v -5.0701 -5.07011 l 5.64887,2.61481 c 3.10688,1.43815 5.64887,2.82842 5.64887,3.0895 0,0.26107 -2.30058,0.9255 -5.11241,1.47652 -6.9173,1.35555 -7.14557,2.7322 -0.73362,4.42431 5.70954,1.50674 9.77534,3.73778 11.74559,6.44521 1.26361,1.73638 1.33756,2.27846 0.59597,4.3683 -0.52214,1.47141 -0.84666,6.69599 -0.84666,13.63087 v 11.24496 l -2.29485,1.75327 c -6.9756,5.32936 -17.83946,8.33725 -31.59837,8.74868 -5.24285,0.15677 -11.51849,-0.001 -13.94587,-0.35128 z m 7.59089,-8.2786 v -7.55511 h 3.53055 3.53054 v 7.55511 c 0,7.35816 0.0414,7.55486 1.58875,7.54529 4.65231,-0.0288 4.76623,-0.22574 4.76623,-8.24137 0,-7.93248 -0.80933,-11.51634 -2.85228,-12.63049 -0.71034,-0.38739 -4.01328,-0.70435 -7.33988,-0.70435 -8.66179,0 -8.87278,0.28089 -8.87278,11.81236 0,9.52741 0.0313,9.60934 3.70708,9.71687 l 1.94179,0.0568 z m -9.17941,-2.55107 c 0,-9.0067 -0.0702,-9.45815 -1.73318,-11.15278 -2.07505,-2.11452 -4.57108,-2.26153 -6.82469,-0.40197 -1.52027,1.25444 -1.675,2.0118 -1.92371,9.41613 -0.15056,4.48266 0.0241,8.35217 0.39416,8.72921 0.36553,0.37248 2.70531,1.12824 5.19949,1.67945 2.49418,0.55122 4.61431,1.02795 4.7114,1.05941 0.0971,0.0314 0.17653,-4.16679 0.17653,-9.32945 z m 34.39522,7.17034 1.76802,-0.68498 -0.25957,-8.33258 c -0.24039,-7.71648 -0.3823,-8.43385 -1.91935,-9.70214 -2.25981,-1.86468 -4.75428,-1.71986 -6.83122,0.39658 -1.66115,1.69272 -1.73318,2.15215 -1.73318,11.05455 v 9.28843 l 3.60364,-0.66744 c 1.982,-0.36709 4.39924,-0.97568 5.37166,-1.35242 z m -47.10518,-10.2785 c 0,-7.91149 -0.16213,-9.10718 -1.46346,-10.79302 -1.79867,-2.33011 -4.9802,-2.52504 -7.03511,-0.43106 -1.27952,1.30385 -1.41531,2.22517 -1.23569,8.38462 l 0.2018,6.91981 4.23665,2.39982 c 2.33016,1.31989 4.47496,2.40367 4.76623,2.40839 0.29127,0.005 0.52958,-3.99513 0.52958,-8.88856 z m 56.13565,6.48017 4.23665,-2.39982 0.20179,-6.91981 c 0.17962,-6.15945 0.0438,-7.08077 -1.23569,-8.38462 -2.05491,-2.09398 -5.23644,-1.89905 -7.0351,0.43106 -1.30134,1.68584 -1.46347,2.88153 -1.46347,10.79302 0,4.89343 0.23832,8.89328 0.52959,8.88856 0.29127,-0.005 2.43607,-1.0885 4.76623,-2.40839 z m -15.00481,-20.32675 c 2.05434,-0.47518 2.25996,-0.81545 1.36273,-2.25516 -0.43678,-0.70085 -2.23047,-0.72877 -8.28597,-0.129 -7.05088,0.69836 -15.05933,0.5166 -22.63391,-0.5137 -2.50368,-0.34056 -2.95336,-0.19272 -3.27951,1.0782 -0.32614,1.27085 0.0234,1.52538 2.54848,1.85573 1.60956,0.21057 3.72084,0.52791 4.69174,0.7052 2.35507,0.43004 23.13404,-0.17172 25.59644,-0.74127 z m -34.77586,-1.30183 c 0,-0.16551 0.18034,-0.77981 0.40075,-1.3651 0.42826,-1.13726 -1.68786,-2.00715 -11.52196,-4.73643 -4.22383,-1.17223 -5.11929,-1.24288 -5.11929,-0.40388 0,0.55928 0.85305,1.58644 1.89567,2.28257 3.53279,2.3588 14.34483,5.54164 14.34483,4.22284 z m 47.62608,-1.90566 c 4.33852,-1.65412 7.0822,-3.62815 6.668,-4.79753 -0.25214,-0.71185 -15.50892,3.21838 -16.52916,4.25801 -0.20592,0.20983 -0.16133,0.94732 0.0991,1.63885 0.57575,1.52889 3.82972,1.16245 9.76208,-1.09933 z m -51.59034,-5.61748 c 1.12943,-1.27173 1.11164,-1.49631 -0.31336,-3.95744 -0.8309,-1.43506 -1.62631,-2.6092 -1.76756,-2.6092 -1.12886,0 -8.12244,3.14626 -8.77524,3.94779 -0.68376,0.83955 -0.11431,1.21756 3.28969,2.18373 2.26412,0.64263 4.43434,1.28123 4.8227,1.41909 1.29523,0.45979 1.5393,0.37227 2.74377,-0.98397 z m 53.59339,-0.42177 c 2.52546,-0.71906 3.90627,-1.45801 3.61668,-1.9355 -0.473,-0.77988 -7.57037,-4.20937 -8.71135,-4.20937 -0.33892,0 -1.29606,1.17414 -2.12696,2.6092 -1.42929,2.46851 -1.44569,2.68244 -0.30433,3.96761 0.66352,0.74713 1.70916,1.21729 2.32363,1.0448 0.61447,-0.17248 2.95552,-0.83702 5.20233,-1.47674 z m -43.74043,-2.30212 c 4.51441,-0.50752 4.98381,-0.98768 4.10825,-4.20251 -0.65993,-2.4231 -1.36885,-2.49626 -9.72756,-1.00388 l -4.32032,0.77134 1.49589,2.83785 c 1.16392,2.20808 1.80927,2.75162 2.9081,2.4493 0.77672,-0.21369 3.26776,-0.59714 5.53564,-0.8521 z m 34.79622,-1.62646 1.49589,-2.80859 -4.32032,-0.77134 c -8.35871,-1.49238 -9.06763,-1.41922 -9.72756,1.00388 -0.84639,3.10774 -0.27854,3.94641 2.73717,4.04256 1.46854,0.0468 3.62331,0.33231 4.78839,0.63441 3.38251,0.87706 3.45688,0.84598 5.02643,-2.10092 z m -15.00395,-0.9571 c 1.0775,-4.09713 1.01323,-4.13732 -6.61603,-4.13732 -7.62927,0 -7.69354,0.0402 -6.61604,4.13732 0.40048,1.52281 0.7934,1.61895 6.61604,1.61895 5.82264,0 6.21556,-0.0961 6.61603,-1.61895 z M 388.24186,336.902 c -9.51191,-1.37142 -18.20618,-4.50468 -23.30136,-8.3974 l -2.29485,-1.75327 v -11.24496 c 0,-6.78156 -0.32802,-12.16933 -0.8264,-13.57377 -1.4658,-4.13068 1.63106,-7.28168 9.95967,-10.13376 l 4.63585,-1.58752 0.20508,-5.37319 0.20509,-5.37319 5.62031,2.57567 c 3.09117,1.41662 5.62031,2.79587 5.62031,3.06502 0,0.26914 -2.14122,0.94272 -4.75827,1.49683 -3.30484,0.69974 -4.82523,1.36456 -4.97749,2.17652 -0.18828,1.00395 0.20946,1.08539 2.81646,0.57667 1.66964,-0.32579 6.28093,-0.81784 10.24732,-1.09342 l 7.21161,-0.50104 0.20253,-5.93256 0.20253,-5.93257 5.9602,3.0559 5.96019,3.05589 -5.43061,1.23118 c -4.83017,1.09504 -5.43062,1.41267 -5.43062,2.87276 0,1.56461 0.32289,1.66372 6.88456,2.11333 3.78651,0.25945 8.07612,0.67428 9.53247,0.92184 l 2.64791,0.4501 v -5.0701 -5.07011 l 5.64887,2.61481 c 3.10687,1.43815 5.64887,2.82842 5.64887,3.0895 0,0.26107 -2.30059,0.9255 -5.11242,1.47652 -6.9173,1.35555 -7.14557,2.7322 -0.73361,4.42431 5.70953,1.50674 9.77533,3.73778 11.74559,6.44521 1.2636,1.73638 1.33756,2.27846 0.59597,4.3683 -0.52215,1.47141 -0.84666,6.69599 -0.84666,13.63087 v 11.24496 l -2.29486,1.75327 c -6.9756,5.32936 -17.83945,8.33725 -31.59836,8.74868 -5.24286,0.15677 -11.5185,-0.001 -13.94588,-0.35128 z m 7.5909,-8.2786 v -7.55511 h 3.53054 3.53054 v 7.55511 c 0,7.35816 0.0414,7.55486 1.58875,7.54529 4.65232,-0.0288 4.76623,-0.22574 4.76623,-8.24137 0,-7.93248 -0.80932,-11.51634 -2.85228,-12.63049 -0.71034,-0.38739 -4.01328,-0.70435 -7.33987,-0.70435 -8.6618,0 -8.87278,0.28089 -8.87278,11.81236 0,9.52741 0.0313,9.60934 3.70707,9.71687 l 1.9418,0.0568 z m -9.17942,-2.55107 c 0,-9.0067 -0.0702,-9.45815 -1.73318,-11.15278 -2.07505,-2.11452 -4.57108,-2.26153 -6.82469,-0.40197 -1.52027,1.25444 -1.675,2.0118 -1.9237,9.41613 -0.15057,4.48266 0.0241,8.35217 0.39415,8.72921 0.36553,0.37248 2.70531,1.12824 5.19949,1.67945 2.49418,0.55122 4.61432,1.02795 4.71141,1.05941 0.0971,0.0314 0.17652,-4.16679 0.17652,-9.32945 z m 34.39522,7.17034 1.76802,-0.68498 -0.25957,-8.33258 c -0.24039,-7.71648 -0.3823,-8.43385 -1.91934,-9.70214 -2.25981,-1.86468 -4.75428,-1.71986 -6.83123,0.39658 -1.66115,1.69272 -1.73318,2.15215 -1.73318,11.05455 v 9.28843 l 3.60364,-0.66744 c 1.982,-0.36709 4.39925,-0.97568 5.37166,-1.35242 z m -47.10517,-10.2785 c 0,-7.91149 -0.16213,-9.10718 -1.46347,-10.79302 -1.79867,-2.33011 -4.98019,-2.52504 -7.0351,-0.43106 -1.27953,1.30385 -1.41531,2.22517 -1.23569,8.38462 l 0.20179,6.91981 4.23665,2.39982 c 2.33016,1.31989 4.47496,2.40367 4.76623,2.40839 0.29127,0.005 0.52959,-3.99513 0.52959,-8.88856 z m 56.13564,6.48017 4.23665,-2.39982 0.2018,-6.91981 c 0.17962,-6.15945 0.0438,-7.08077 -1.23569,-8.38462 -2.05492,-2.09398 -5.23644,-1.89905 -7.03511,0.43106 -1.30133,1.68584 -1.46346,2.88153 -1.46346,10.79302 0,4.89343 0.23831,8.89328 0.52958,8.88856 0.29127,-0.005 2.43607,-1.0885 4.76623,-2.40839 z m -15.00481,-20.32675 c 2.05435,-0.47518 2.25996,-0.81545 1.36273,-2.25516 -0.43677,-0.70085 -2.23047,-0.72877 -8.28596,-0.129 -7.05089,0.69836 -15.05933,0.5166 -22.63392,-0.5137 -2.50368,-0.34056 -2.95336,-0.19272 -3.27951,1.0782 -0.32614,1.27085 0.0234,1.52538 2.54849,1.85573 1.60955,0.21057 3.72083,0.52791 4.69173,0.7052 2.35507,0.43004 23.13404,-0.17172 25.59644,-0.74127 z m -34.77586,-1.30183 c 0,-0.16551 0.18034,-0.77981 0.40075,-1.3651 0.42826,-1.13726 -1.68786,-2.00715 -11.52196,-4.73643 -4.22382,-1.17223 -5.11929,-1.24288 -5.11929,-0.40388 0,0.55928 0.85305,1.58644 1.89566,2.28257 3.5328,2.3588 14.34484,5.54164 14.34484,4.22284 z m 47.62609,-1.90566 c 4.33851,-1.65412 7.0822,-3.62815 6.66799,-4.79753 -0.25214,-0.71185 -15.50892,3.21838 -16.52916,4.25801 -0.20592,0.20983 -0.16133,0.94732 0.0991,1.63885 0.57574,1.52889 3.82971,1.16245 9.76208,-1.09933 z m -51.59035,-5.61748 c 1.12943,-1.27173 1.11164,-1.49631 -0.31336,-3.95744 -0.8309,-1.43506 -1.62631,-2.6092 -1.76756,-2.6092 -1.12886,0 -8.12244,3.14626 -8.77523,3.94779 -0.68377,0.83955 -0.11432,1.21756 3.28968,2.18373 2.26412,0.64263 4.43434,1.28123 4.8227,1.41909 1.29523,0.45979 1.5393,0.37227 2.74377,-0.98397 z m 53.59339,-0.42177 c 2.52546,-0.71906 3.90627,-1.45801 3.61669,-1.9355 -0.47301,-0.77988 -7.57038,-4.20937 -8.71135,-4.20937 -0.33893,0 -1.29607,1.17414 -2.12697,2.6092 -1.42929,2.46851 -1.44569,2.68244 -0.30433,3.96761 0.66353,0.74713 1.70916,1.21729 2.32363,1.0448 0.61447,-0.17248 2.95552,-0.83702 5.20233,-1.47674 z m -43.74043,-2.30212 c 4.51441,-0.50752 4.98381,-0.98768 4.10825,-4.20251 -0.65993,-2.4231 -1.36885,-2.49626 -9.72756,-1.00388 l -4.32032,0.77134 1.49589,2.83785 c 1.16392,2.20808 1.80927,2.75162 2.9081,2.4493 0.77672,-0.21369 3.26776,-0.59714 5.53564,-0.8521 z m 34.79622,-1.62646 1.49589,-2.80859 -4.32032,-0.77134 c -8.35871,-1.49238 -9.06763,-1.41922 -9.72756,1.00388 -0.84639,3.10774 -0.27854,3.94641 2.73717,4.04256 1.46854,0.0468 3.62332,0.33231 4.7884,0.63441 3.3825,0.87706 3.45687,0.84598 5.02642,-2.10092 z m -15.00395,-0.9571 c 1.07751,-4.09713 1.01324,-4.13732 -6.61603,-4.13732 -7.62926,0 -7.69353,0.0402 -6.61603,4.13732 0.40047,1.52281 0.79339,1.61895 6.61603,1.61895 5.82264,0 6.21556,-0.0961 6.61603,-1.61895 z M 130.51217,246.96019 c -9.51192,-1.37141 -18.20618,-4.50468 -23.30137,-8.39739 l -2.29485,-1.75327 v -11.24497 c 0,-6.78156 -0.32801,-12.16932 -0.82639,-13.57376 -1.46581,-4.13069 1.63106,-7.28168 9.95967,-10.13377 l 4.63584,-1.58751 0.20509,-5.3732 0.20508,-5.37319 5.62031,2.57567 c 3.09118,1.41662 5.62032,2.79587 5.62032,3.06502 0,0.26915 -2.14122,0.94272 -4.75827,1.49684 -3.30484,0.69974 -4.82523,1.36456 -4.9775,2.17652 -0.18827,1.00395 0.20946,1.08539 2.81647,0.57667 1.66963,-0.3258 6.28093,-0.81785 10.24731,-1.09342 l 7.21162,-0.50105 0.20253,-5.93256 0.20252,-5.93256 5.9602,3.0559 5.9602,3.05589 -5.43062,1.23117 c -4.83016,1.09504 -5.43062,1.41268 -5.43062,2.87277 0,1.5646 0.32289,1.66372 6.88457,2.11333 3.7865,0.25944 8.07611,0.67427 9.53246,0.92183 l 2.64791,0.45011 v -5.07011 -5.0701 l 5.64887,2.61481 c 3.10688,1.43814 5.64887,2.82841 5.64887,3.08949 0,0.26107 -2.30059,0.92551 -5.11242,1.47653 -6.91729,1.35554 -7.14556,2.73219 -0.73361,4.42431 5.70954,1.50674 9.77534,3.73778 11.74559,6.44521 1.2636,1.73637 1.33756,2.27845 0.59597,4.36829 -0.52215,1.47141 -0.84666,6.69599 -0.84666,13.63087 v 11.24497 l -2.29485,1.75327 c -6.9756,5.32935 -17.83946,8.33724 -31.59837,8.74867 -5.24286,0.15677 -11.5185,-0.001 -13.94587,-0.35128 z m 7.59089,-8.27859 v -7.55511 h 3.53055 3.53054 v 7.55511 c 0,7.35815 0.0414,7.55485 1.58874,7.54529 4.65232,-0.0288 4.76624,-0.22575 4.76624,-8.24138 0,-7.93248 -0.80933,-11.51634 -2.85229,-12.63049 -0.71033,-0.38739 -4.01328,-0.70434 -7.33987,-0.70434 -8.66179,0 -8.87278,0.28088 -8.87278,11.81236 0,9.5274 0.0313,9.60934 3.70707,9.71686 l 1.9418,0.0568 z m -9.17941,-2.55108 c 0,-9.0067 -0.0702,-9.45815 -1.73318,-11.15278 -2.07505,-2.11452 -4.57109,-2.26152 -6.8247,-0.40197 -1.52026,1.25445 -1.67499,2.01181 -1.9237,9.41613 -0.15057,4.48267 0.0242,8.35218 0.39416,8.72922 0.36553,0.37248 2.7053,1.12823 5.19949,1.67945 2.49418,0.55121 4.61431,1.02794 4.7114,1.0594 0.0971,0.0315 0.17653,-4.16679 0.17653,-9.32945 z m 34.39522,7.17035 1.76802,-0.68499 -0.25957,-8.33258 c -0.24039,-7.71647 -0.38231,-8.43385 -1.91935,-9.70214 -2.25981,-1.86467 -4.75428,-1.71986 -6.83123,0.39658 -1.66115,1.69273 -1.73318,2.15215 -1.73318,11.05455 v 9.28843 l 3.60364,-0.66743 c 1.98201,-0.36709 4.39925,-0.97568 5.37167,-1.35242 z m -47.10518,-10.27851 c 0,-7.91149 -0.16213,-9.10718 -1.46347,-10.79302 -1.79866,-2.3301 -4.98018,-2.52504 -7.0351,-0.43106 -1.27953,1.30386 -1.41531,2.22518 -1.23569,8.38462 l 0.20179,6.91981 4.23666,2.39982 c 2.33015,1.3199 4.47496,2.40368 4.76623,2.4084 0.29127,0.005 0.52958,-3.99514 0.52958,-8.88857 z m 56.13565,6.48017 4.23665,-2.39982 0.20179,-6.91981 c 0.17962,-6.15944 0.0438,-7.08076 -1.23569,-8.38462 -2.05491,-2.09398 -5.23644,-1.89904 -7.0351,0.43106 -1.30134,1.68584 -1.46347,2.88153 -1.46347,10.79302 0,4.89343 0.23831,8.89328 0.52958,8.88857 0.29127,-0.005 2.43608,-1.0885 4.76624,-2.4084 z m -15.00481,-20.32675 c 2.05434,-0.47517 2.25996,-0.81545 1.36273,-2.25516 -0.43678,-0.70084 -2.23047,-0.72877 -8.28597,-0.12899 -7.05088,0.69835 -15.05933,0.51659 -22.63391,-0.51371 -2.50368,-0.34055 -2.95337,-0.19271 -3.27952,1.0782 -0.32613,1.27086 0.0234,1.52539 2.54849,1.85573 1.60955,0.21057 3.72083,0.52791 4.69173,0.7052 2.35507,0.43004 23.13405,-0.17171 25.59645,-0.74127 z m -34.77586,-1.30183 c 0,-0.16551 0.18034,-0.7798 0.40075,-1.3651 0.42826,-1.13726 -1.68787,-2.00715 -11.52196,-4.73642 -4.22383,-1.17224 -5.11929,-1.24289 -5.11929,-0.40388 0,0.55928 0.85305,1.58643 1.89566,2.28257 3.5328,2.35879 14.34484,5.54164 14.34484,4.22283 z m 47.62608,-1.90566 c 4.33852,-1.65411 7.0822,-3.62815 6.668,-4.79752 -0.25215,-0.71186 -15.50892,3.21837 -16.52916,4.25801 -0.20592,0.20983 -0.16133,0.94732 0.0991,1.63885 0.57575,1.52888 3.82972,1.16245 9.76208,-1.09934 z m -51.59034,-5.61748 c 1.12942,-1.27172 1.11164,-1.49631 -0.31336,-3.95743 -0.83091,-1.43507 -1.62631,-2.6092 -1.76756,-2.6092 -1.12886,0 -8.12244,3.14626 -8.77524,3.94778 -0.68377,0.83955 -0.11431,1.21756 3.28969,2.18374 2.26412,0.64263 4.43434,1.28122 4.8227,1.41909 1.29523,0.45978 1.53929,0.37226 2.74377,-0.98398 z m 53.59339,-0.42176 c 2.52545,-0.71906 3.90627,-1.45802 3.61668,-1.9355 -0.473,-0.77988 -7.57037,-4.20937 -8.71135,-4.20937 -0.33892,0 -1.29606,1.17413 -2.12697,2.6092 -1.42928,2.46851 -1.44568,2.68243 -0.30432,3.96761 0.66352,0.74712 1.70916,1.21729 2.32362,1.0448 0.61447,-0.17249 2.95553,-0.83702 5.20234,-1.47674 z m -43.74043,-2.30213 c 4.51441,-0.50751 4.9838,-0.98768 4.10825,-4.20251 -0.65993,-2.4231 -1.36885,-2.49625 -9.72756,-1.00388 l -4.32032,0.77135 1.49588,2.83784 c 1.16392,2.20808 1.80928,2.75162 2.9081,2.4493 0.77672,-0.21369 3.26776,-0.59714 5.53565,-0.8521 z m 34.79622,-1.62645 1.49588,-2.80859 -4.32032,-0.77135 c -8.35871,-1.49237 -9.06762,-1.41922 -9.72755,1.00388 -0.8464,3.10775 -0.27854,3.94642 2.73717,4.04257 1.46854,0.0468 3.62331,0.33231 4.78839,0.6344 3.3825,0.87707 3.45688,0.84598 5.02643,-2.10091 z m -15.00395,-0.95711 c 1.0775,-4.09713 1.01323,-4.13732 -6.61603,-4.13732 -7.62927,0 -7.69354,0.0402 -6.61604,4.13732 0.40048,1.52281 0.79339,1.61896 6.61604,1.61896 5.82264,0 6.21555,-0.0962 6.61603,-1.61896 z m 264.70603,39.0387 c -9.51192,-1.37142 -18.20618,-4.50468 -23.30136,-8.3974 l -2.29486,-1.75327 v -11.24496 c 0,-6.78157 -0.32801,-12.16933 -0.82639,-13.57377 -1.46581,-4.13069 1.63106,-7.28168 9.95967,-10.13376 l 4.63584,-1.58752 0.20508,-5.3732 0.20509,-5.37318 5.62031,2.57566 c 3.09118,1.41662 5.62032,2.79588 5.62032,3.06503 0,0.26914 -2.14122,0.94272 -4.75827,1.49683 -3.30485,0.69974 -4.82523,1.36456 -4.9775,2.17652 -0.18827,1.00395 0.20946,1.08539 2.81647,0.57667 1.66963,-0.3258 6.28093,-0.81784 10.24731,-1.09342 l 7.21162,-0.50105 0.20253,-5.93256 0.20252,-5.93256 5.9602,3.0559 5.9602,3.05589 -5.43062,1.23117 c -4.83016,1.09504 -5.43061,1.41268 -5.43061,2.87277 0,1.5646 0.32288,1.66372 6.88456,2.11333 3.7865,0.25945 8.07611,0.67427 9.53246,0.92184 l 2.64791,0.4501 v -5.0701 -5.07011 l 5.64887,2.61481 c 3.10688,1.43815 5.64887,2.82842 5.64887,3.08949 0,0.26107 -2.30059,0.92551 -5.11242,1.47653 -6.91729,1.35555 -7.14556,2.7322 -0.73361,4.42431 5.70954,1.50674 9.77534,3.73778 11.74559,6.44521 1.2636,1.73637 1.33756,2.27845 0.59597,4.36829 -0.52214,1.47141 -0.84666,6.696 -0.84666,13.63088 v 11.24496 l -2.29485,1.75327 c -6.9756,5.32935 -17.83946,8.33724 -31.59837,8.74867 -5.24286,0.15678 -11.5185,-0.001 -13.94587,-0.35127 z m 7.59089,-8.2786 v -7.55511 h 3.53055 3.53054 v 7.55511 c 0,7.35815 0.0414,7.55485 1.58875,7.54529 4.65231,-0.0288 4.76623,-0.22575 4.76623,-8.24137 0,-7.93248 -0.80933,-11.51635 -2.85228,-12.6305 -0.71034,-0.38739 -4.01329,-0.70434 -7.33988,-0.70434 -8.66179,0 -8.87278,0.28088 -8.87278,11.81236 0,9.5274 0.0313,9.60934 3.70707,9.71687 l 1.9418,0.0568 z m -9.17941,-2.55107 c 0,-9.0067 -0.0702,-9.45815 -1.73318,-11.15279 -2.07506,-2.11451 -4.57109,-2.26152 -6.8247,-0.40196 -1.52026,1.25444 -1.67499,2.0118 -1.9237,9.41613 -0.15056,4.48266 0.0241,8.35217 0.39416,8.72921 0.36553,0.37248 2.70531,1.12823 5.19949,1.67945 2.49418,0.55121 4.61431,1.02795 4.7114,1.0594 0.0971,0.0314 0.17653,-4.16678 0.17653,-9.32944 z m 34.39522,7.17034 1.76802,-0.68498 -0.25957,-8.33259 c -0.24039,-7.71647 -0.38231,-8.43385 -1.91935,-9.70214 -2.25981,-1.86467 -4.75428,-1.71986 -6.83123,0.39658 -1.66115,1.69273 -1.73318,2.15215 -1.73318,11.05456 v 9.28842 l 3.60364,-0.66743 c 1.98201,-0.36709 4.39925,-0.97568 5.37167,-1.35242 z m -47.10518,-10.27851 c 0,-7.91149 -0.16213,-9.10717 -1.46347,-10.79302 -1.79866,-2.3301 -4.98019,-2.52504 -7.0351,-0.43105 -1.27952,1.30385 -1.41531,2.22517 -1.23569,8.38462 l 0.20179,6.9198 4.23666,2.39982 c 2.33015,1.3199 4.47496,2.40368 4.76623,2.4084 0.29127,0.005 0.52958,-3.99514 0.52958,-8.88857 z m 56.13565,6.48017 4.23665,-2.39982 0.20179,-6.9198 c 0.17962,-6.15945 0.0439,-7.08077 -1.23569,-8.38462 -2.05491,-2.09399 -5.23644,-1.89905 -7.0351,0.43105 -1.30134,1.68585 -1.46347,2.88153 -1.46347,10.79302 0,4.89343 0.23831,8.89328 0.52958,8.88857 0.29127,-0.005 2.43608,-1.0885 4.76624,-2.4084 z m -15.00481,-20.32675 c 2.05434,-0.47517 2.25996,-0.81544 1.36273,-2.25515 -0.43678,-0.70085 -2.23047,-0.72878 -8.28597,-0.129 -7.05088,0.69836 -15.05933,0.5166 -22.63391,-0.51371 -2.50369,-0.34055 -2.95336,-0.19271 -3.27952,1.0782 -0.32613,1.27086 0.0234,1.52539 2.54849,1.85573 1.60956,0.21058 3.72083,0.52791 4.69173,0.70521 2.35507,0.43003 23.13405,-0.17172 25.59645,-0.74128 z m -34.77586,-1.30183 c 0,-0.1655 0.18033,-0.7798 0.40075,-1.3651 0.42826,-1.13726 -1.68787,-2.00715 -11.52196,-4.73642 -4.22382,-1.17224 -5.11929,-1.24289 -5.11929,-0.40388 0,0.55928 0.85305,1.58643 1.89566,2.28257 3.5328,2.35879 14.34484,5.54164 14.34484,4.22283 z m 47.62608,-1.90566 c 4.33852,-1.65411 7.0822,-3.62815 6.668,-4.79752 -0.25215,-0.71186 -15.50892,3.21838 -16.52916,4.25801 -0.20592,0.20983 -0.16133,0.94732 0.0991,1.63885 0.57575,1.52889 3.82972,1.16245 9.76208,-1.09934 z m -51.59034,-5.61747 c 1.12942,-1.27173 1.11164,-1.49632 -0.31336,-3.95744 -0.83091,-1.43506 -1.62631,-2.6092 -1.76756,-2.6092 -1.12886,0 -8.12244,3.14626 -8.77524,3.94778 -0.68376,0.83956 -0.11432,1.21756 3.28969,2.18374 2.26412,0.64263 4.43434,1.28122 4.8227,1.41909 1.29523,0.45979 1.53929,0.37226 2.74377,-0.98397 z m 53.59339,-0.42177 c 2.52545,-0.71906 3.90627,-1.45802 3.61668,-1.9355 -0.473,-0.77988 -7.57037,-4.20937 -8.71135,-4.20937 -0.33892,0 -1.29606,1.17414 -2.12697,2.6092 -1.42928,2.46851 -1.44568,2.68244 -0.30432,3.96761 0.66352,0.74712 1.70916,1.21729 2.32363,1.0448 0.61447,-0.17249 2.95552,-0.83702 5.20233,-1.47674 z m -43.74043,-2.30212 c 4.51441,-0.50752 4.98381,-0.98769 4.10825,-4.20252 -0.65993,-2.42309 -1.36885,-2.49625 -9.72756,-1.00388 l -4.32032,0.77135 1.49588,2.83784 c 1.16392,2.20808 1.80928,2.75163 2.9081,2.44931 0.77672,-0.2137 3.26776,-0.59714 5.53565,-0.8521 z m 34.79622,-1.62646 1.49588,-2.80859 -4.32031,-0.77135 c -8.35872,-1.49237 -9.06763,-1.41921 -9.72756,1.00388 -0.84639,3.10775 -0.27854,3.94642 2.73717,4.04257 1.46854,0.0468 3.62331,0.33231 4.78839,0.63441 3.3825,0.87706 3.45688,0.84597 5.02643,-2.10092 z m -15.00395,-0.9571 c 1.0775,-4.09713 1.01323,-4.13733 -6.61603,-4.13733 -7.62927,0 -7.69354,0.0402 -6.61604,4.13733 0.40048,1.5228 0.79339,1.61895 6.61604,1.61895 5.82264,0 6.21555,-0.0962 6.61603,-1.61895 z m -168.299,24.57757 c -9.22955,-0.96831 -16.03074,-2.503 -19.76811,-4.46067 -2.58331,-1.35316 -3.27294,-2.14712 -3.7863,-4.35914 -0.34524,-1.48754 -0.50368,-2.83099 -0.35211,-2.98545 0.15157,-0.15445 1.53767,0.0236 3.0802,0.39577 15.02527,3.62475 64.14762,3.97867 80.8115,0.58223 2.12601,-0.43332 4.27081,-0.94636 4.76624,-1.14009 1.51558,-0.59264 1.05518,3.72484 -0.63002,5.90794 -2.02531,2.62372 -4.79941,3.7226 -12.71927,5.03836 -8.14529,1.35322 -41.85389,2.0228 -51.40213,1.02105 z m -8.8423,-12.55123 C 248.89153,213.6718 243.371,212.65552 241.284,211.93315 l -3.79453,-1.3134 -1.6735,-6.8099 c -2.12005,-8.62699 -7.50975,-19.91648 -12.64222,-26.48095 -4.12118,-5.27099 -11.99708,-12.17667 -16.64061,-14.59067 -3.63339,-1.88885 -3.83226,-2.51432 -1.16424,-3.66156 3.63545,-1.56325 11.62544,-1.23381 15.07532,0.62157 2.80164,1.50675 9.45298,8.29291 9.45298,9.64458 0,0.36311 0.93747,0.16619 2.08326,-0.43759 4.5769,-2.4118 10.81309,-0.56373 13.0638,3.87142 1.38115,2.72164 1.37317,3.92633 -0.0462,6.97426 -1.37593,2.95467 -2.22037,3.11924 -2.52056,0.49121 -0.14435,-1.26373 -0.92584,-2.34605 -2.20803,-3.05802 -1.87767,-1.04261 -2.05842,-1.01045 -3.35402,0.59666 -2.73216,3.38909 -0.99019,8.2692 4.06479,11.38747 3.09863,1.91146 7.63408,2.19227 9.85103,0.60993 2.13492,-1.52379 3.60219,-5.13523 4.16906,-10.26148 l 0.49544,-4.4803 3.44219,4.99469 c 5.01431,7.27588 9.76785,9.98897 14.35723,8.19438 2.19007,-0.85639 3.91173,-5.64322 3.90437,-10.8555 -0.0112,-7.90228 -3.39567,-13.83451 -9.336,-16.36373 -5.15505,-2.19487 -8.90662,-1.2591 -10.48111,2.61433 -0.94833,2.333 -0.95502,2.33563 -1.43868,0.56715 -1.43859,-5.26023 0.13649,-9.72982 4.26127,-12.09216 1.49516,-0.8563 3.78733,-1.5498 5.09371,-1.54111 2.79536,0.0186 7.97396,2.2573 8.83415,3.819 0.36141,0.65615 0.60218,-1.99334 0.60218,-6.6266 0,-7.44892 0.0915,-7.90841 2.60635,-13.09185 1.4335,-2.95458 3.44759,-6.17485 4.47576,-7.15613 l 1.86939,-1.78416 1.76735,2.1586 c 4.74218,5.79203 7.71809,15.94622 6.84452,23.35442 l -0.46307,3.92699 2.2388,-1.91964 c 6.24372,-5.35364 15.98626,-2.23975 16.82896,5.37885 0.2039,1.84339 0.14616,4.26132 -0.12832,5.37317 l -0.49905,2.02154 -0.9428,-2.28183 c -0.51854,-1.25501 -1.65177,-2.66848 -2.5183,-3.14105 -2.25737,-1.23108 -7.5,-0.31243 -10.75898,1.88527 -6.65763,4.48957 -8.93453,19.038 -3.84753,24.58399 1.73943,1.89637 5.24967,2.14698 8.21149,0.58624 2.31789,-1.22142 6.32045,-5.6027 9.05693,-9.9139 l 1.95772,-3.08431 0.44413,4.67698 c 0.52441,5.52244 1.38602,7.9521 3.54779,10.00438 3.09778,2.9409 10.06249,1.43973 13.68744,-2.9502 3.215,-3.89345 1.77455,-10.67039 -2.02441,-9.52432 -1.9145,0.57756 -3.2728,2.31563 -3.30311,4.22661 -0.0226,1.42448 -0.0769,1.41613 -1.41221,-0.21723 -0.90414,-1.10593 -1.38873,-2.7715 -1.38873,-4.77313 0,-2.68973 0.36478,-3.41029 2.91495,-5.75802 2.75019,-2.53188 3.11934,-2.662 6.5315,-2.30228 1.98911,0.20969 4.25206,0.5626 5.02878,0.78422 1.08689,0.31012 2.01681,-0.41176 4.0367,-3.13364 1.44347,-1.94511 4.14433,-4.44695 6.00192,-5.55962 2.91285,-1.74475 4.10593,-2.01851 8.67326,-1.99014 3.06769,0.0191 6.30531,0.48275 7.69517,1.10208 l 2.39935,1.06916 -4.8045,2.85537 c -9.15989,5.44383 -18.51703,15.75718 -23.48091,25.88047 -2.2976,4.6857 -6.52291,17.49675 -6.52291,19.77733 0,2.73265 -5.82822,4.39791 -20.1241,5.74991 -10.70037,1.01196 -45.4609,0.78178 -55.78259,-0.36939 z M 165.8176,158.45746 c -9.51191,-1.37142 -18.20618,-4.50468 -23.30136,-8.3974 l -2.29485,-1.75327 v -11.24496 c 0,-6.78156 -0.32802,-12.16933 -0.8264,-13.57377 -1.4658,-4.13069 1.63107,-7.28168 9.95968,-10.13376 l 4.63584,-1.58752 0.20508,-5.37319 0.20509,-5.37319 5.62031,2.57566 c 3.09117,1.41662 5.62031,2.79588 5.62031,3.06502 0,0.26915 -2.14121,0.94272 -4.75827,1.49684 -3.30484,0.69974 -4.82522,1.36456 -4.97749,2.17652 -0.18828,1.00395 0.20946,1.08539 2.81646,0.57667 1.66964,-0.3258 6.28093,-0.81784 10.24732,-1.09342 l 7.21162,-0.50105 0.20252,-5.93256 0.20253,-5.932561 5.9602,3.055901 5.96019,3.05589 -5.43061,1.23117 c -4.83016,1.09504 -5.43062,1.41268 -5.43062,2.87277 0,1.5646 0.32289,1.66372 6.88456,2.11332 3.78651,0.25946 8.07612,0.67428 9.53247,0.92185 l 2.64791,0.4501 v -5.0701 -5.07011 l 5.64887,2.61481 c 3.10688,1.43814 5.64887,2.82842 5.64887,3.08949 0,0.26107 -2.30059,0.92551 -5.11242,1.47653 -6.91729,1.35554 -7.14557,2.7322 -0.73361,4.42431 5.70954,1.50674 9.77533,3.73778 11.74559,6.44521 1.2636,1.73637 1.33756,2.27845 0.59597,4.36829 -0.52215,1.47141 -0.84666,6.696 -0.84666,13.63088 v 11.24496 l -2.29485,1.75327 c -6.9756,5.32935 -17.83946,8.33724 -31.59837,8.74867 -5.24286,0.15678 -11.5185,-0.001 -13.94588,-0.35127 z m 7.5909,-8.2786 v -7.55511 h 3.53054 3.53055 v 7.55511 c 0,7.35815 0.0414,7.55485 1.58874,7.54529 4.65232,-0.0288 4.76624,-0.22575 4.76624,-8.24137 0,-7.93248 -0.80933,-11.51635 -2.85229,-12.6305 -0.71034,-0.38739 -4.01328,-0.70434 -7.33987,-0.70434 -8.66179,0 -8.87278,0.28088 -8.87278,11.81236 0,9.52741 0.0313,9.60934 3.70707,9.71687 l 1.9418,0.0568 z m -9.17941,-2.55107 c 0,-9.0067 -0.0702,-9.45815 -1.73318,-11.15279 -2.07506,-2.11451 -4.57109,-2.26152 -6.8247,-0.40196 -1.52027,1.25444 -1.675,2.0118 -1.9237,9.41613 -0.15056,4.48266 0.0241,8.35217 0.39416,8.72921 0.36553,0.37248 2.7053,1.12824 5.19948,1.67945 2.49419,0.55121 4.61432,1.02795 4.71141,1.05941 0.0971,0.0314 0.17653,-4.16679 0.17653,-9.32945 z m 34.39522,7.17034 1.76802,-0.68498 -0.25958,-8.33259 c -0.24038,-7.71647 -0.3823,-8.43385 -1.91934,-9.70213 -2.25981,-1.86468 -4.75428,-1.71986 -6.83123,0.39657 -1.66115,1.69273 -1.73318,2.15215 -1.73318,11.05456 v 9.28842 l 3.60364,-0.66743 c 1.98201,-0.36709 4.39925,-0.97568 5.37167,-1.35242 z m -47.10518,-10.27851 c 0,-7.91149 -0.16213,-9.10717 -1.46347,-10.79301 -1.79866,-2.33011 -4.98019,-2.52505 -7.0351,-0.43106 -1.27953,1.30385 -1.41531,2.22517 -1.23569,8.38462 l 0.20179,6.9198 4.23665,2.39982 c 2.33016,1.3199 4.47497,2.40368 4.76624,2.4084 0.29127,0.005 0.52958,-3.99514 0.52958,-8.88857 z m 56.13564,6.48017 4.23666,-2.39982 0.20179,-6.9198 c 0.17962,-6.15945 0.0438,-7.08077 -1.23569,-8.38462 -2.05491,-2.09399 -5.23644,-1.89905 -7.0351,0.43106 -1.30134,1.68584 -1.46347,2.88152 -1.46347,10.79301 0,4.89343 0.23831,8.89328 0.52958,8.88857 0.29127,-0.005 2.43608,-1.0885 4.76623,-2.4084 z m -15.00481,-20.32674 c 2.05435,-0.47518 2.25997,-0.81545 1.36274,-2.25516 -0.43678,-0.70085 -2.23047,-0.72878 -8.28597,-0.129 -7.05088,0.69836 -15.05933,0.5166 -22.63391,-0.5137 -2.50369,-0.34056 -2.95337,-0.19272 -3.27952,1.0782 -0.32614,1.27085 0.0234,1.52538 2.54849,1.85573 1.60955,0.21057 3.72083,0.5279 4.69173,0.7052 2.35507,0.43003 23.13404,-0.17172 25.59644,-0.74127 z m -34.77585,-1.30184 c 0,-0.1655 0.18033,-0.7798 0.40074,-1.3651 0.42826,-1.13726 -1.68786,-2.00715 -11.52196,-4.73642 -4.22382,-1.17224 -5.11928,-1.24289 -5.11928,-0.40388 0,0.55928 0.85305,1.58644 1.89566,2.28257 3.53279,2.35879 14.34484,5.54164 14.34484,4.22283 z m 47.62608,-1.90565 c 4.33852,-1.65412 7.0822,-3.62816 6.668,-4.79753 -0.25215,-0.71186 -15.50893,3.21838 -16.52916,4.25801 -0.20592,0.20983 -0.16133,0.94732 0.0991,1.63885 0.57574,1.52889 3.82971,1.16245 9.76208,-1.09933 z m -51.59035,-5.61748 c 1.12943,-1.27173 1.11164,-1.49632 -0.31335,-3.95744 -0.83091,-1.43506 -1.62631,-2.6092 -1.76756,-2.6092 -1.12887,0 -8.12244,3.14626 -8.77524,3.94778 -0.68377,0.83956 -0.11432,1.21756 3.28968,2.18374 2.26413,0.64263 4.43434,1.28123 4.8227,1.41909 1.29523,0.45979 1.5393,0.37226 2.74377,-0.98397 z m 53.5934,-0.42177 c 2.52545,-0.71906 3.90627,-1.45802 3.61668,-1.9355 -0.473,-0.77988 -7.57038,-4.20937 -8.71135,-4.20937 -0.33893,0 -1.29606,1.17414 -2.12697,2.6092 -1.42928,2.46851 -1.44569,2.68244 -0.30432,3.96761 0.66352,0.74712 1.70915,1.21729 2.32362,1.0448 0.61447,-0.17248 2.95553,-0.83702 5.20234,-1.47674 z m -43.74043,-2.30212 c 4.5144,-0.50752 4.9838,-0.98769 4.10824,-4.20252 -0.65993,-2.42309 -1.36884,-2.49625 -9.72755,-1.00388 l -4.32032,0.77135 1.49588,2.83784 c 1.16392,2.20808 1.80928,2.75163 2.9081,2.44931 0.77672,-0.2137 3.26776,-0.59714 5.53565,-0.8521 z m 34.79622,-1.62646 1.49588,-2.80859 -4.32032,-0.77135 c -8.35871,-1.49237 -9.06763,-1.41921 -9.72756,1.00388 -0.84639,3.10775 -0.27854,3.94642 2.73718,4.04257 1.46853,0.0468 3.62331,0.33231 4.78839,0.63441 3.3825,0.87706 3.45687,0.84598 5.02643,-2.10092 z m -15.00395,-0.9571 c 1.0775,-4.09713 1.01323,-4.13733 -6.61604,-4.13733 -7.62926,0 -7.69353,0.0402 -6.61603,4.13733 0.40048,1.5228 0.79339,1.61895 6.61603,1.61895 5.82265,0 6.21556,-0.0961 6.61604,-1.61895 z m 184.91574,36.88009 c -9.51192,-1.37142 -18.20618,-4.50468 -23.30137,-8.3974 l -2.29485,-1.75327 v -11.24496 c 0,-6.78157 -0.32802,-12.16933 -0.82639,-13.57377 -1.46581,-4.13069 1.63106,-7.28168 9.95967,-10.13377 l 4.63584,-1.58751 0.20508,-5.37319 0.20509,-5.373196 5.62031,2.575668 c 3.09118,1.416617 5.62032,2.795878 5.62032,3.065018 0,0.26915 -2.14122,0.94272 -4.75827,1.49684 -3.30485,0.69974 -4.82523,1.36456 -4.9775,2.17652 -0.18828,1.00395 0.20946,1.08539 2.81646,0.57667 1.66964,-0.3258 6.28093,-0.81784 10.24732,-1.09342 l 7.21162,-0.50105 0.20253,-5.932562 0.20252,-5.93256 5.9602,3.055896 5.96019,3.055897 -5.43061,1.23117 c -4.83016,1.095039 -5.43062,1.412679 -5.43062,2.872769 0,1.5646 0.32289,1.66372 6.88456,2.11332 3.78651,0.25946 8.07612,0.67428 9.53247,0.92184 l 2.64791,0.45011 v -5.0701 -5.070114 l 5.64887,2.614812 c 3.10688,1.438142 5.64887,2.828412 5.64887,3.089492 0,0.26107 -2.30059,0.92551 -5.11242,1.47653 -6.91729,1.35554 -7.14556,2.7322 -0.73361,4.42431 5.70954,1.50674 9.77534,3.73778 11.74559,6.44521 1.2636,1.73637 1.33756,2.27845 0.59597,4.36829 -0.52215,1.47141 -0.84666,6.696 -0.84666,13.63088 v 11.24496 l -2.29485,1.75327 c -6.9756,5.32935 -17.83946,8.33724 -31.59837,8.74867 -5.24286,0.15678 -11.5185,-10e-4 -13.94587,-0.35127 z m 7.59089,-8.2786 v -7.55511 h 3.53055 3.53054 v 7.55511 c 0,7.35815 0.0414,7.55485 1.58874,7.54529 4.65232,-0.0288 4.76624,-0.22575 4.76624,-8.24137 0,-7.93248 -0.80933,-11.51635 -2.85229,-12.6305 -0.71033,-0.38739 -4.01328,-0.70434 -7.33987,-0.70434 -8.66179,0 -8.87278,0.28088 -8.87278,11.81236 0,9.5274 0.0313,9.60934 3.70707,9.71686 l 1.9418,0.0568 z m -9.17941,-2.55107 c 0,-9.0067 -0.0702,-9.45815 -1.73318,-11.15279 -2.07506,-2.11451 -4.57109,-2.26152 -6.8247,-0.40196 -1.52026,1.25444 -1.67499,2.0118 -1.9237,9.41613 -0.15056,4.48266 0.0242,8.35217 0.39416,8.72921 0.36553,0.37248 2.70531,1.12823 5.19949,1.67945 2.49418,0.55121 4.61431,1.02795 4.7114,1.0594 0.0971,0.0315 0.17653,-4.16678 0.17653,-9.32944 z m 34.39522,7.17034 1.76802,-0.68498 -0.25958,-8.33259 c -0.24038,-7.71647 -0.3823,-8.43385 -1.91934,-9.70214 -2.25981,-1.86467 -4.75428,-1.71986 -6.83123,0.39658 -1.66115,1.69273 -1.73318,2.15215 -1.73318,11.05456 v 9.28842 l 3.60364,-0.66743 c 1.98201,-0.36709 4.39925,-0.97568 5.37167,-1.35242 z m -47.10518,-10.27851 c 0,-7.91149 -0.16213,-9.10718 -1.46347,-10.79302 -1.79866,-2.3301 -4.98019,-2.52504 -7.0351,-0.43105 -1.27952,1.30385 -1.41531,2.22517 -1.23569,8.38462 l 0.20179,6.9198 4.23665,2.39982 c 2.33016,1.3199 4.47497,2.40368 4.76624,2.4084 0.29127,0.005 0.52958,-3.99514 0.52958,-8.88857 z m 56.13565,6.48017 4.23665,-2.39982 0.20179,-6.9198 c 0.17962,-6.15945 0.0438,-7.08077 -1.23569,-8.38462 -2.05491,-2.09399 -5.23644,-1.89905 -7.0351,0.43105 -1.30134,1.68584 -1.46347,2.88153 -1.46347,10.79302 0,4.89343 0.23831,8.89328 0.52958,8.88857 0.29127,-0.005 2.43608,-1.0885 4.76624,-2.4084 z M 395.30318,125.6363 c 2.05434,-0.47517 2.25996,-0.81544 1.36273,-2.25515 -0.43678,-0.70085 -2.23047,-0.72878 -8.28597,-0.129 -7.05088,0.69836 -15.05933,0.5166 -22.63391,-0.51371 -2.50369,-0.34055 -2.95337,-0.19271 -3.27952,1.0782 -0.32613,1.27086 0.0234,1.52539 2.54849,1.85573 1.60955,0.21058 3.72083,0.52791 4.69173,0.70521 2.35507,0.43003 23.13405,-0.17172 25.59645,-0.74128 z m -34.77586,-1.30183 c 0,-0.16551 0.18033,-0.7798 0.40074,-1.3651 0.42827,-1.13726 -1.68786,-2.00715 -11.52195,-4.73642 -4.22383,-1.17224 -5.11929,-1.24289 -5.11929,-0.40388 0,0.55928 0.85305,1.58643 1.89566,2.28257 3.5328,2.35879 14.34484,5.54164 14.34484,4.22283 z m 47.62608,-1.90566 c 4.33852,-1.65411 7.0822,-3.62815 6.668,-4.79752 -0.25215,-0.71186 -15.50893,3.21838 -16.52916,4.25801 -0.20592,0.20983 -0.16133,0.94732 0.0991,1.63885 0.57575,1.52889 3.82972,1.16245 9.76208,-1.09934 z m -51.59034,-5.61747 c 1.12942,-1.27173 1.11164,-1.49632 -0.31336,-3.95744 -0.83091,-1.43506 -1.62631,-2.6092 -1.76756,-2.6092 -1.12886,0 -8.12244,3.14626 -8.77524,3.94778 -0.68377,0.83956 -0.11432,1.21756 3.28968,2.18374 2.26413,0.64263 4.43435,1.28122 4.82271,1.41909 1.29523,0.45979 1.53929,0.37226 2.74377,-0.98397 z m 53.59339,-0.42177 c 2.52545,-0.71906 3.90627,-1.45802 3.61668,-1.9355 -0.473,-0.77988 -7.57038,-4.20937 -8.71135,-4.20937 -0.33892,0 -1.29606,1.17414 -2.12697,2.6092 -1.42928,2.46851 -1.44568,2.68244 -0.30432,3.96761 0.66352,0.74712 1.70915,1.21729 2.32362,1.0448 0.61447,-0.17249 2.95553,-0.83702 5.20234,-1.47674 z m -43.74043,-2.30213 c 4.51441,-0.50751 4.98381,-0.98768 4.10825,-4.20251 -0.65993,-2.42309 -1.36885,-2.49625 -9.72756,-1.00388 l -4.32032,0.77135 1.49588,2.83784 c 1.16392,2.20808 1.80928,2.75163 2.9081,2.44931 0.77672,-0.2137 3.26776,-0.59715 5.53565,-0.85211 z m 34.79622,-1.62645 1.49588,-2.80859 -4.32032,-0.77135 c -8.35871,-1.49237 -9.06763,-1.41921 -9.72755,1.00388 -0.8464,3.10775 -0.27854,3.94642 2.73717,4.04257 1.46854,0.0468 3.62331,0.33231 4.78839,0.63441 3.3825,0.87706 3.45688,0.84597 5.02643,-2.10092 z m -15.00395,-0.95711 c 1.0775,-4.09713 1.01323,-4.13732 -6.61603,-4.13732 -7.62927,0 -7.69354,0.0402 -6.61604,4.13732 0.40048,1.52281 0.79339,1.61896 6.61604,1.61896 5.82264,0 6.21555,-0.0961 6.61603,-1.61896 z m -114.47437,3.06198 c -9.51192,-1.37142 -18.20618,-4.50468 -23.30136,-8.3974 l -2.29486,-1.75327 V 93.170223 c 0,-6.781558 -0.32801,-12.169324 -0.82639,-13.573767 -1.46581,-4.130683 1.63106,-7.28168 9.95967,-10.133764 l 4.63584,-1.587517 0.20508,-5.37319 0.20509,-5.373191 5.62031,2.575668 c 3.09118,1.416617 5.62032,2.795877 5.62032,3.065021 0,0.269144 -2.14122,0.942719 -4.75827,1.496833 -3.30485,0.699743 -4.82523,1.364567 -4.9775,2.176523 -0.18827,1.003954 0.20946,1.085391 2.81647,0.576673 1.66963,-0.325804 6.28093,-0.817844 10.24731,-1.093422 l 7.21162,-0.501051 0.20253,-5.932561 0.20252,-5.932561 5.9602,3.055897 5.9602,3.055897 -5.43062,1.23117 c -4.83016,1.095041 -5.43061,1.412678 -5.43061,2.872766 0,1.564604 0.32288,1.66372 6.88456,2.113326 3.7865,0.259452 8.07611,0.67428 9.53246,0.92184 l 2.64791,0.45011 v -5.070109 -5.070108 l 5.64887,2.614812 c 3.10688,1.438145 5.64887,2.828416 5.64887,3.08949 0,0.261074 -2.30059,0.925513 -5.11242,1.47653 -6.91729,1.355544 -7.14556,2.732199 -0.73361,4.42431 5.70954,1.506742 9.77534,3.737783 11.74559,6.445207 1.2636,1.736377 1.33756,2.278459 0.59597,4.368292 -0.52214,1.471415 -0.84666,6.695996 -0.84666,13.630876 v 11.244967 l -2.29485,1.75327 c -6.9756,5.32935 -17.83946,8.33724 -31.59837,8.74867 -5.24286,0.15677 -11.5185,-0.001 -13.94587,-0.35127 z m 7.59089,-8.2786 v -7.555112 h 3.53055 3.53054 v 7.555112 c 0,7.35815 0.0414,7.55485 1.58875,7.54529 4.65231,-0.0288 4.76623,-0.22575 4.76623,-8.24137 0,-7.932486 -0.80933,-11.51635 -2.85228,-12.630497 -0.71034,-0.38739 -4.01329,-0.704346 -7.33988,-0.704346 -8.66179,0 -8.87278,0.280884 -8.87278,11.812363 0,9.5274 0.0313,9.60934 3.70707,9.71686 l 1.9418,0.0568 z m -9.17941,-2.55108 c 0,-9.006695 -0.0702,-9.458141 -1.73318,-11.152782 -2.07506,-2.114511 -4.57109,-2.261523 -6.8247,-0.401963 -1.52026,1.254444 -1.67499,2.011805 -1.9237,9.416125 -0.15056,4.48267 0.0241,8.35218 0.39416,8.72922 0.36553,0.37248 2.70531,1.12823 5.19949,1.67945 2.49418,0.55121 4.61431,1.02795 4.7114,1.0594 0.0971,0.0314 0.17653,-4.16679 0.17653,-9.32945 z m 34.39522,7.17035 1.76802,-0.68498 -0.25957,-8.33259 c -0.24039,-7.716475 -0.38231,-8.433851 -1.91935,-9.702139 -2.25981,-1.864674 -4.75428,-1.719861 -6.83123,0.396577 -1.66115,1.692732 -1.73318,2.15215 -1.73318,11.054562 v 9.28842 l 3.60364,-0.66743 c 1.98201,-0.36709 4.39925,-0.97568 5.37167,-1.35242 z m -47.10518,-10.27851 c 0,-7.911487 -0.16213,-9.107178 -1.46347,-10.793017 -1.79866,-2.330103 -4.98019,-2.525043 -7.0351,-0.431058 -1.27952,1.303857 -1.41531,2.225177 -1.23569,8.384619 l 0.20179,6.919806 4.23666,2.39982 c 2.33015,1.3199 4.47496,2.40368 4.76623,2.4084 0.29127,0.005 0.52958,-3.99514 0.52958,-8.88857 z m 56.13565,6.48017 4.23665,-2.39982 0.20179,-6.919806 c 0.17962,-6.159442 0.0439,-7.080762 -1.23569,-8.384619 -2.05491,-2.093985 -5.23644,-1.899045 -7.0351,0.431058 -1.30134,1.685839 -1.46347,2.88153 -1.46347,10.793017 0,4.89343 0.23831,8.89328 0.52958,8.88857 0.29127,-0.005 2.43608,-1.0885 4.76624,-2.4084 z M 298.56628,86.781439 c 2.05434,-0.475172 2.25996,-0.815448 1.36273,-2.255154 -0.43678,-0.700846 -2.23047,-0.72877 -8.28597,-0.128998 -7.05088,0.698361 -15.05933,0.5166 -22.63391,-0.513703 -2.50369,-0.340555 -2.95336,-0.192714 -3.27952,1.078199 -0.32613,1.270855 0.0234,1.525383 2.54849,1.855728 1.60956,0.210572 3.72083,0.527912 4.69173,0.705201 2.35507,0.430042 23.13405,-0.171716 25.59645,-0.741273 z m -34.77586,-1.30183 c 0,-0.165505 0.18033,-0.7798 0.40075,-1.3651 0.42826,-1.137258 -1.68787,-2.007151 -11.52196,-4.736418 -4.22382,-1.172242 -5.11929,-1.24289 -5.11929,-0.403887 0,0.55928 0.85305,1.58644 1.89566,2.282577 3.5328,2.358787 14.34484,5.541632 14.34484,4.222828 z m 47.62608,-1.905658 c 4.33852,-1.654111 7.0822,-3.628147 6.668,-4.79752 -0.25215,-0.711859 -15.50892,3.218375 -16.52916,4.258006 -0.20592,0.209834 -0.16133,0.947316 0.0991,1.638851 0.57575,1.528887 3.82972,1.162449 9.76208,-1.099337 z m -51.59034,-5.617476 c 1.12942,-1.271729 1.11164,-1.496318 -0.31336,-3.95744 -0.83091,-1.435058 -1.62631,-2.609196 -1.76756,-2.609196 -1.12886,0 -8.12244,3.146255 -8.77524,3.947783 -0.68376,0.839553 -0.11432,1.217561 3.28969,2.183734 2.26412,0.642636 4.43434,1.281227 4.8227,1.41909 1.29523,0.459792 1.53929,0.372265 2.74377,-0.983971 z m 53.59339,-0.421768 c 2.52545,-0.71906 3.90627,-1.458015 3.61668,-1.935497 -0.473,-0.77988 -7.57037,-4.209371 -8.71135,-4.209371 -0.33892,0 -1.29606,1.174138 -2.12697,2.609196 -1.42928,2.468515 -1.44568,2.68244 -0.30432,3.967611 0.66352,0.747128 1.70916,1.21729 2.32363,1.044805 0.61447,-0.172485 2.95552,-0.837019 5.20233,-1.476744 z m -43.74043,-2.302122 c 4.51441,-0.507518 4.98381,-0.987685 4.10825,-4.202514 -0.65993,-2.423095 -1.36885,-2.496255 -9.72756,-1.003883 l -4.32032,0.771354 1.49588,2.837843 c 1.16392,2.208077 1.80928,2.751619 2.9081,2.449303 0.77672,-0.213698 3.26776,-0.597144 5.53565,-0.852103 z m 34.79622,-1.626459 1.49588,-2.808584 -4.32031,-0.771354 c -8.35872,-1.492372 -9.06763,-1.419212 -9.72756,1.003883 -0.84639,3.107745 -0.27854,3.946419 2.73717,4.042571 1.46854,0.04682 3.62331,0.332304 4.78839,0.634403 3.3825,0.877065 3.45688,0.845978 5.02643,-2.100919 z m -15.00395,-0.957102 c 1.0775,-4.097131 1.01323,-4.137323 -6.61603,-4.137323 -7.62927,0 -7.69354,0.04019 -6.61604,4.137323 0.40048,1.522807 0.79339,1.618952 6.61604,1.618952 5.82264,0 6.21555,-0.09614 6.61603,-1.618952 z"
       style="fill:#000000;stroke-width:0.71279" />
  </g>
</svg>
