<?xml version="1.0" encoding="UTF-8" standalone="no"?>
<svg
   xmlns:dc="http://purl.org/dc/elements/1.1/"
   xmlns:cc="http://creativecommons.org/ns#"
   xmlns:rdf="http://www.w3.org/1999/02/22-rdf-syntax-ns#"
   xmlns:svg="http://www.w3.org/2000/svg"
   xmlns="http://www.w3.org/2000/svg"
   xmlns:sodipodi="http://sodipodi.sourceforge.net/DTD/sodipodi-0.dtd"
   xmlns:inkscape="http://www.inkscape.org/namespaces/inkscape"
   inkscape:version="1.0 (4035a4fb49, 2020-05-01)"
   sodipodi:docname="ЖЕНЩИНА.svg"
   viewBox="0 0 857.73199 1886.5699"
   height="1886.5699"
   width="857.73199"
   id="svg344"
   version="1.1">
  <metadata
     id="metadata350">
    <rdf:RDF>
      <cc:Work
         rdf:about="">
        <dc:format>image/svg+xml</dc:format>
        <dc:type
           rdf:resource="http://purl.org/dc/dcmitype/StillImage" />
        <dc:title></dc:title>
      </cc:Work>
    </rdf:RDF>
  </metadata>
  <defs
     id="defs348" />
  <sodipodi:namedview
     inkscape:current-layer="g352"
     inkscape:window-maximized="1"
     inkscape:window-y="-6"
     inkscape:window-x="-6"
     inkscape:cy="901.94531"
     inkscape:cx="1472.8134"
     inkscape:zoom="0.31304206"
     showgrid="false"
     id="namedview346"
     inkscape:window-height="1018"
     inkscape:window-width="1920"
     inkscape:pageshadow="2"
     inkscape:pageopacity="0"
     guidetolerance="10"
     gridtolerance="10"
     objecttolerance="10"
     borderopacity="1"
     bordercolor="#666666"
     pagecolor="#ffffff"
     inkscape:document-rotation="0" />
  <g
     transform="translate(1278.5773,-35.727695)"
     id="g352"
     inkscape:label="Image"
     inkscape:groupmode="layer">
    <path
       id="path8"
       d="m -984.12555,1915.3487 c -5.57341,-3.3127 -14.75204,-13.8606 -20.39695,-23.4396 l -10.2634,-17.4164 v -277.059 -277.059 l -92.272,-1.1697 -92.272,-1.1697 0.9134,-16.9263 c 0.5025,-9.3095 2.4354,-19.126 4.2953,-21.8146 1.8601,-2.6885 4.3285,-8.8148 5.4855,-13.614 8.4931,-35.2292 30.98,-119.4161 33.7955,-126.5242 7.3701,-18.6061 23.5003,-76.8512 23.5003,-84.8578 0,-4.6363 1.7482,-9.6431 3.8851,-11.1261 2.1368,-1.4831 3.8851,-7.0962 3.8851,-12.4737 0,-5.3774 1.4443,-11.6423 3.2095,-13.9219 1.7653,-2.2796 5.4841,-12.9796 8.2641,-23.77784 10.4409,-40.55603 24.5475,-89.70429 27.8454,-97.01542 1.8796,-4.16675 3.4175,-11.41328 3.4175,-16.1034 0,-4.69017 1.55,-9.60336 3.4447,-10.9183 1.8946,-1.31489 4.6027,-9.77483 6.0181,-18.7998 2.8173,-17.96465 12.4166,-54.98303 17.8312,-68.76396 1.8856,-4.7992 5.5635,-17.56069 8.1731,-28.35888 2.6096,-10.79819 5.9849,-21.59638 7.5009,-23.99598 1.516,-2.3996 3.9417,-11.23448 5.3904,-19.63307 2.5242,-14.63253 7.1548,-31.46405 13.8037,-50.17341 14.5361,-40.90332 16.5328,-60.09648 6.4917,-62.40267 -17.4706,-4.01261 -24.1765,2.48402 -31.6245,30.63741 -3.9871,15.0713 -8.9777,31.32897 -11.0904,36.12817 -2.1128,4.79919 -5.3167,12.13494 -7.1198,16.30169 -1.8032,4.16674 -3.2786,11.27854 -3.2786,15.80401 0,8.20331 -16.4345,69.12351 -23.1174,85.69273 -6.1368,15.21528 -27.4088,95.66323 -27.3989,103.61899 0.01,4.19929 -1.7387,7.63508 -3.8756,7.63508 -2.1368,0 -3.8851,3.16106 -3.8851,7.02454 0,12.69797 -35.5287,125.86031 -42.1105,134.12581 -11.4767,14.4128 -26.8103,20.2771 -53.0191,20.2771 -29.3132,0 -40.2821,-6.0739 -52.3096,-28.9659 -12.6702,-24.115 -9.7932,-51.56662 11.3672,-108.46557 3.5697,-9.59839 9.6146,-30.21312 13.4332,-45.8105 3.8186,-15.59739 8.4981,-32.77632 10.399,-38.17542 1.9008,-5.39909 5.0279,-14.23398 6.9491,-19.63307 5.1545,-14.48602 10.1101,-31.49586 21.9256,-75.26011 5.8306,-21.59638 11.7927,-41.22945 13.2492,-43.62905 1.4564,-2.3996 5.8599,-16.14275 9.7855,-30.54033 9.3942,-34.45465 17.7187,-63.37185 21.3517,-74.16939 1.6147,-4.79919 5.0419,-16.57903 7.6161,-26.17743 24.5462,-91.52654 63.9725,-138.95511 142.0889,-170.92818 17.4479,-7.14142 33.66565,-7.95092 159.29049,-7.95092 152.96655,0 153.41412,0.0607 199.24723,26.91629 56.64639,33.19189 87.69179,77.39414 109.79514,156.32572 4.70373,16.79718 13.38919,45.26514 19.30095,63.26212 5.91178,17.99698 12.01761,39.59336 13.56848,47.99195 1.55092,8.3986 4.05134,17.23348 5.55652,19.63308 1.50518,2.39959 4.99919,13.19778 7.76449,23.99597 4.83962,18.89836 7.69667,27.91225 15.55723,49.08268 2.0047,5.3991 6.44276,21.59638 9.86242,35.99397 3.41962,14.39758 8.13244,31.08569 10.47288,37.08469 2.34048,5.99899 5.68931,14.83388 7.4419,19.63307 2.72414,7.45974 15.22048,53.56011 31.7354,117.07559 3.28143,12.62005 3.21626,18.76704 -0.26535,25.02754 -2.53832,4.5643 -4.61512,10.8852 -4.61512,14.0464 0,18.623 -56.07751,50.9407 -67.03689,38.6336 -2.44725,-2.7482 -8.14359,-4.9968 -12.6585,-4.9968 -4.51493,0 -12.71757,-5.3991 -18.22816,-11.9979 -11.34634,-13.5873 -26.40073,-46.87166 -26.40073,-58.37053 0,-4.20689 -1.74832,-8.86224 -3.88514,-10.34528 -2.13682,-1.48304 -3.88513,-7.09617 -3.88513,-12.47363 0,-5.37745 -1.39142,-11.64232 -3.09202,-13.92194 -3.32456,-4.45649 -7.84607,-19.51292 -18.27735,-60.86252 -6.61219,-26.21072 -11.50838,-41.38037 -17.93525,-55.56784 -1.88752,-4.16675 -3.43185,-10.47952 -3.43185,-14.02839 0,-6.38184 -35.94809,-131.70218 -42.61126,-148.54902 -1.89813,-4.79919 -4.57074,-16.32992 -5.93909,-25.62382 -1.36839,-9.2939 -3.98902,-20.09209 -5.8237,-23.99598 -1.83467,-3.90388 -4.28266,-10.53375 -5.44,-14.73305 -1.58315,-5.74441 -6.30344,-7.63508 -19.06175,-7.63508 -19.45803,0 -23.02137,2.42159 -18.34673,12.46835 1.83352,3.94062 6.31078,18.94457 9.94948,33.34215 13.06983,51.71482 22.26143,82.96723 25.59922,87.03995 1.86824,2.27962 3.39681,8.54449 3.39681,13.92195 0,5.37745 1.55014,10.85303 3.44472,12.16796 1.89459,1.3149 4.60271,9.77483 6.01811,18.7998 3.48466,22.21976 12.96272,56.1081 21.96441,78.53295 4.08324,10.17215 7.42411,21.36876 7.42411,24.88143 0,3.51261 1.62996,10.89644 3.62215,16.40844 1.99218,5.51201 6.53782,21.80166 10.10142,36.19924 3.56361,14.39759 8.28665,31.0857 10.49565,37.0847 2.20897,5.99899 5.46343,14.83387 7.23211,19.63307 1.76866,4.79919 6.01363,20.50569 9.43325,34.90329 3.41966,14.3975 7.6238,30.104 9.34259,34.9032 11.78773,32.9137 11.10188,30.567 27.41428,93.8025 4.64254,17.9969 11.11355,40.575 14.38001,50.1734 10.20648,29.9916 20.64742,68.4466 20.64742,76.0466 0,4.0066 1.885,9.4016 4.18888,11.9888 2.30388,2.5872 3.61511,10.3423 2.91385,17.2335 l -1.27502,12.5295 -92.27194,1.1697 -92.27193,1.1697 v 276.4667 c 0,293.7546 0.32596,288.2768 -18.30403,307.7675 -13.64433,14.2748 -23.70636,17.6887 -52.13544,17.6887 -24.34487,0 -30.29561,-1.6201 -43.3952,-11.8145 -8.34977,-6.498 -17.18529,-16.8053 -19.63449,-22.9052 -3.12745,-7.7892 -5.03136,-93.5631 -6.39567,-288.1352 l -1.94257,-277.0445 -20.39695,-1.3187 -20.39695,-1.3188 -0.0156,276.1818 c -0.0156,264.2061 -0.33645,276.7746 -7.43949,289.8558 -4.08373,7.5207 -13.42084,18.8097 -20.74914,25.0867 -11.92146,10.2111 -16.55774,11.3639 -44.03854,10.9498 -17.85248,-0.2692 -34.95783,-2.9851 -40.84783,-6.4861 z m 83.95103,-1585.51138 c -8.5473,-4.44327 -17.8865,-8.22429 -20.75377,-8.40225 -15.24739,-0.94636 -57.29272,-48.13462 -69.62533,-78.14185 -8.62973,-20.99753 -9.3923,-27.4189 -7.7718,-65.44357 2.16608,-50.82582 8.95762,-66.74758 41.98563,-98.429204 40.48012,-38.829945 53.71359,-44.167266 108.25633,-43.661919 42.18739,0.390872 46.51236,1.261438 68.3481,13.75757 30.43614,17.417968 52.07855,41.555949 65.87023,73.465663 6.13187,14.18725 12.61387,29.20416 14.40449,33.37089 4.55496,10.59933 4.07632,54.60171 -0.62948,57.86769 -2.13682,1.48304 -3.88513,6.44746 -3.88513,11.03205 0,19.93655 -33.86453,68.6705 -60.78165,87.46987 -36.38734,25.41357 -103.20835,33.85889 -135.41762,17.11506 z"
       style="fill:#000000;stroke-width:4.11709" />
  </g>
</svg>
