<?xml version="1.0" encoding="UTF-8" standalone="no"?>
<svg
   xmlns:dc="http://purl.org/dc/elements/1.1/"
   xmlns:cc="http://creativecommons.org/ns#"
   xmlns:rdf="http://www.w3.org/1999/02/22-rdf-syntax-ns#"
   xmlns:svg="http://www.w3.org/2000/svg"
   xmlns="http://www.w3.org/2000/svg"
   xmlns:sodipodi="http://sodipodi.sourceforge.net/DTD/sodipodi-0.dtd"
   xmlns:inkscape="http://www.inkscape.org/namespaces/inkscape"
   inkscape:version="1.0 (4035a4fb49, 2020-05-01)"
   sodipodi:docname="ПОЛ.svg"
   id="svg12"
   viewBox="0 0 159.90137 184.91907"
   style="clip-rule:evenodd;fill-rule:evenodd;image-rendering:optimizeQuality;shape-rendering:geometricPrecision;text-rendering:geometricPrecision"
   version="1.1"
   height="60.58651mm"
   width="52.38752mm"
   xml:space="preserve"><metadata
   id="metadata16"><rdf:RDF><cc:Work
       rdf:about=""><dc:format>image/svg+xml</dc:format><dc:type
         rdf:resource="http://purl.org/dc/dcmitype/StillImage" /><dc:title></dc:title></cc:Work></rdf:RDF></metadata><sodipodi:namedview
   inkscape:current-layer="svg12"
   inkscape:window-maximized="1"
   inkscape:window-y="-6"
   inkscape:window-x="-6"
   inkscape:cy="114.46459"
   inkscape:cx="180.64773"
   inkscape:zoom="3.1941166"
   showgrid="false"
   id="namedview14"
   inkscape:window-height="1018"
   inkscape:window-width="1920"
   inkscape:pageshadow="2"
   inkscape:pageopacity="0"
   guidetolerance="10"
   gridtolerance="10"
   objecttolerance="10"
   borderopacity="1"
   bordercolor="#666666"
   pagecolor="#ffffff" />
 <defs
   id="defs4">
  <style
   id="style2"
   type="text/css">
   <![CDATA[
    .fil0 {fill:black;fill-rule:nonzero}
   ]]>
  </style>
 </defs>
 <g
   transform="translate(92.137427,-3.698506)"
   id="Слой_x0020_1">
  <metadata
   id="CorelCorpID_0Corel-Layer" />
  
  <path
   d="m 1.8984375,36.230469 -0.011719,0.0039 c 0.00172,0.02045 0.00329,0.02368 0.00586,0.03711 l 0.00781,0.01563 c 0.00326,-0.01899 -0.00286,-0.03768 -0.00195,-0.05664 z m 3.7695313,3.470703 c -0.032625,-5e-5 -0.070364,0.01357 -0.1113282,0.03711 7.59e-5,0.0085 -0.00211,0.01691 -0.00195,0.02539 0.037607,-0.02135 0.075275,-0.04185 0.1132813,-0.0625 z m -0.1113282,0.03711 c -8.15e-5,-0.0091 -7.4e-6,-0.01823 0,-0.02734 -0.1716655,0.019 -0.3427997,0.0402 -0.5136718,0.07617 -0.4505627,0.06539 -1.0157186,0.139307 -1.5761719,0.21875 l 0.1386719,0.328125 c 0.035297,-0.03838 0.060521,-0.08625 0.099609,-0.121093 0.3763978,-0.33555 1.1657786,-0.310362 1.7832031,-0.429688 0.023291,-0.01953 0.02816,-0.02182 0.068359,-0.04492 z m -0.068359,0.04492 c -0.025424,0.02132 -0.066526,0.05445 -0.041016,0.03906 0.034273,-0.02067 0.070681,-0.03687 0.1054688,-0.05664 -0.022951,0.005 -0.040947,0.01304 -0.064453,0.01758 z m 4.0390626,3.435547 c -0.06679,0.01613 -0.132216,0.03746 -0.1992188,0.05273 -0.012652,0.0049 -0.02653,0.0065 -0.039062,0.01172 -0.016436,0.0068 -0.019823,0.02803 -0.025391,0.04688 z"
   transform="matrix(0.80758239,0,0,0.80758239,-1.5170061,-3.4155606)"
   style="stroke-width:1.23826"
   id="polygon9" />
 </g>
<path
   id="path130"
   d="m 27.017301,182.84196 -1.982247,-1.98224 V 153.769 126.67828 h -8.937828 c -8.141726,0 -8.898571,-0.12588 -8.497095,-1.41327 0.242403,-0.7773 2.573908,-9.04492 5.181121,-18.37249 2.607214,-9.327582 6.679329,-23.767066 9.049145,-32.087744 C 25.7253,61.129349 26.363351,57.114107 24.294379,59.298993 23.901814,59.713552 21.022372,68.953505 17.895621,79.832221 11.759682,101.18062 11.093122,102.45081 6.026015,102.45081 3.070117,102.45081 0,99.469072 0,96.59827 0,95.222061 4.866242,78.095754 11.793484,55.092151 14.340606,46.633808 17.889101,41.898089 23.761478,39.12001 c 4.151345,-1.963901 5.130772,-2.083371 17.079623,-2.083371 7.597986,0 13.98531,0.392357 15.944862,0.979454 1.900673,0.569455 5.082293,2.682286 7.600641,5.047389 4.138769,3.886918 4.614857,4.786634 10.698877,20.218842 5.622745,14.262176 6.458544,15.91489 7.147081,14.132692 10.530139,-27.255973 14.811126,-36.926004 17.407333,-39.320298 4.309125,-3.973992 7.378545,-4.423897 28.241145,-4.139483 20.54366,0.280065 20.90538,0.357628 26.28727,5.636601 5.63177,5.524066 5.69549,5.938447 5.71527,37.159621 l 0.0178,28.004873 -2.12787,1.67378 c -2.39853,1.88669 -4.16792,2.08223 -7.03228,0.77714 -3.49325,-1.59161 -3.7612,-3.51539 -3.7612,-27.00295 0,-19.16874 -0.16401,-22.170519 -1.21138,-22.170519 -1.06594,0 -1.21137,7.227831 -1.21137,60.204989 0,52.11941 -0.16381,60.52177 -1.21973,62.5637 -1.60443,3.10262 -3.49378,4.02174 -8.26708,4.02174 -3.34187,0 -4.29995,-0.37569 -6.31185,-2.47512 l -2.37194,-2.47511 -0.22608,-35.88505 c -0.14169,-22.49127 -0.51847,-35.88504 -1.00948,-35.88504 -0.49416,0 -0.7834,12.98532 -0.7834,35.16994 0,29.78976 -0.18659,35.53076 -1.21973,37.52864 -1.61028,3.11393 -3.49427,4.02174 -8.34638,4.02174 -3.49666,0 -4.29104,-0.32305 -6.10996,-2.48471 l -2.09074,-2.4847 v -60.97781 c 0,-46.817193 -0.2234,-60.903342 -0.96197,-60.657149 -0.52909,0.17636 -4.83377,9.886955 -9.565969,21.5791 -4.732198,11.692146 -9.026752,21.935379 -9.543443,22.762739 -1.334264,2.13649 -7.589891,2.09284 -9.575816,-0.0668 -0.7946,-0.86412 -5.063046,-11.039655 -9.485436,-22.61231 C 61.0841,63.176228 59.129175,58.84136 57.979183,58.84136 c -1.7568,0 -1.826734,1.413363 -0.268918,5.434839 1.158754,2.991305 18.20251,60.918121 18.20251,61.865091 0,0.26625 -4.088386,0.58685 -9.085302,0.71244 l -9.085302,0.22834 -0.403791,27.17228 c -0.375469,25.26643 -0.511697,27.29143 -1.942226,28.87107 -1.108537,1.22409 -2.507486,1.69879 -5.006291,1.69879 -2.983493,0 -3.755589,-0.37723 -5.527912,-2.70087 l -2.060054,-2.70087 v -26.43131 c 0,-24.73788 -0.09055,-26.41388 -1.41327,-26.15937 -1.307248,0.25154 -1.429247,2.29765 -1.626253,27.27487 -0.20834,26.41422 -0.251024,27.04343 -1.957833,28.86024 -2.501968,2.66323 -8.063461,2.59881 -10.78721,-0.12494 z M 36.085853,32.682466 c -4.04858,-1.504584 -6.109025,-3.419018 -7.916789,-7.355772 -3.978171,-8.66323 0.319122,-18.261292 9.253122,-20.666968 6.368029,-1.714732 13.426688,0.857076 16.645126,6.06462 2.325734,3.763115 2.325734,12.520264 0,16.283379 -3.389176,5.483802 -11.558174,8.061844 -17.981459,5.674741 z M 117.0362,27.932119 c -1.49867,-1.009953 -3.58172,-3.099572 -4.629,-4.643599 -1.66393,-2.453154 -1.86978,-3.571442 -1.63169,-8.864188 0.20233,-4.4976936 0.68755,-6.606736 1.88493,-8.192921 5.2202,-6.91525299 15.80964,-8.317812 22.58169,-2.990918 7.82409,6.1544316 6.66634,19.949989 -2.08712,24.869706 -4.28171,2.406457 -12.41698,2.316579 -16.11881,-0.17808 z"
   style="fill:#000000;stroke-width:0.807582" /></svg>
