<?xml version="1.0" encoding="UTF-8" standalone="no"?>
<svg
   xmlns:dc="http://purl.org/dc/elements/1.1/"
   xmlns:cc="http://creativecommons.org/ns#"
   xmlns:rdf="http://www.w3.org/1999/02/22-rdf-syntax-ns#"
   xmlns:svg="http://www.w3.org/2000/svg"
   xmlns="http://www.w3.org/2000/svg"
   xmlns:sodipodi="http://sodipodi.sourceforge.net/DTD/sodipodi-0.dtd"
   xmlns:inkscape="http://www.inkscape.org/namespaces/inkscape"
   xml:space="preserve"
   width="41.742855mm"
   height="26.658813mm"
   version="1.1"
   style="clip-rule:evenodd;fill-rule:evenodd;image-rendering:optimizeQuality;shape-rendering:geometricPrecision;text-rendering:geometricPrecision"
   viewBox="0 0 133.19175 85.065009"
   id="svg79"
   sodipodi:docname="RU.svg"
   inkscape:version="1.0 (4035a4fb49, 2020-05-01)"><metadata
   id="metadata83"><rdf:RDF><cc:Work
       rdf:about=""><dc:format>image/svg+xml</dc:format><dc:type
         rdf:resource="http://purl.org/dc/dcmitype/StillImage" /><dc:title></dc:title></cc:Work></rdf:RDF></metadata><sodipodi:namedview
   inkscape:document-rotation="0"
   pagecolor="#ffffff"
   bordercolor="#666666"
   borderopacity="1"
   objecttolerance="10"
   gridtolerance="10"
   guidetolerance="10"
   inkscape:pageopacity="0"
   inkscape:pageshadow="2"
   inkscape:window-width="1920"
   inkscape:window-height="1018"
   id="namedview81"
   showgrid="false"
   inkscape:zoom="4.1672061"
   inkscape:cx="54.619557"
   inkscape:cy="73.385393"
   inkscape:window-x="-6"
   inkscape:window-y="-6"
   inkscape:window-maximized="1"
   inkscape:current-layer="svg79" />
 <defs
   id="defs73">
  <style
   type="text/css"
   id="style71">
   <![CDATA[
    .fil0 {fill:black}
   ]]>
  </style>
 </defs>
 
<path
   id="path8"
   d="M 100.78222,84.828781 C 89.369849,83.700449 81.629063,76.912333 78.138639,64.971967 77.214484,61.81054 76.41764,57.302099 76.130214,53.60858 75.97088,51.561086 75.947354,42.337288 76.058244,25.390356 L 76.222979,0.2139 l 8.33173,0.03678 8.33173,0.03678 0.0241,26.27195 c 0.0256,27.89896 0.0246,27.871197 1.11377,32.547186 1.57553,6.764081 6.093271,10.385928 11.891261,9.533133 5.53916,-0.814723 8.46902,-5.118004 9.7837,-14.369948 0.306,-2.153402 0.39324,-6.535343 0.55788,-28.019273 0.15617,-20.379126 0.25331,-25.518371 0.48625,-25.725475 0.19771,-0.175778 2.8832,-0.226855 8.37087,-0.159213 l 8.07977,0.09959 -0.0991,25.906519 c -0.10558,27.591083 -0.1167,27.890251 -1.26102,33.943094 -1.91292,10.118183 -6.52646,17.511039 -13.30758,21.32437 -3.32446,1.8695 -6.61002,2.81561 -11.24531,3.238197 -2.84712,0.259567 -3.42342,0.255237 -6.49874,-0.04881 z M 0.05694077,82.788006 c -0.08223,-0.08956 -0.07836,-18.753495 0.0086,-41.475419 L 0.22362577,0 16.654166,0.07254 c 13.600217,0.06004 16.860522,0.139261 18.926667,0.459873 4.586395,0.711688 8.746639,2.13032 11.689323,3.986027 1.906978,1.202574 5.466624,5.078937 6.567073,7.151376 0.955108,1.798723 2.028196,5.24466 2.401183,7.710768 0.342898,2.267151 0.315192,8.31294 -0.04832,10.543956 -0.535466,3.286396 -1.992523,7.166583 -3.465411,9.228497 -2.61236,3.657074 -6.714068,6.355017 -12.269923,8.070672 -1.483029,0.457961 -2.671717,0.948619 -2.641528,1.090352 0.03019,0.141734 5.418454,8.026715 11.973923,17.52218 l 11.919035,17.264484 -9.676601,0.02077 c -5.322131,0.01142 -9.789794,-0.02673 -9.928142,-0.08477 C 41.963097,82.978685 41.049616,81.687218 40.071487,80.16681 39.093347,78.646398 34.23505,71.113328 29.275259,63.426648 L 20.25746,49.45087 l -1.8362,0.06216 -1.8362,0.06217 -0.121842,16.723437 -0.121842,16.723436 -8.0674672,-0.03562 C 3.8368018,82.966863 0.13916577,82.877564 0.05694077,82.788006 Z M 31.179175,35.569087 c 3.495764,-0.875717 5.326882,-2.001608 6.675882,-4.104771 1.130781,-1.762947 1.329422,-2.762794 1.335709,-6.723241 0.0049,-3.084376 -0.05787,-3.701627 -0.499959,-4.916412 -0.695353,-1.910721 -2.164382,-3.624901 -3.779911,-4.410698 -2.517253,-1.224398 -4.12733,-1.451367 -11.489643,-1.61967 l -6.811272,-0.155705 -0.0423,11.055598 c -0.02327,6.080576 0.03337,11.139129 0.125874,11.241224 0.3209,0.354196 12.876919,0.03666 14.485625,-0.366325 z"
   style="fill:#000000;stroke-width:0.234045" /></svg>
