<?xml version="1.0" encoding="UTF-8" standalone="no"?>
<svg
   inkscape:version="1.2.1 (9c6d41e410, 2022-07-14)"
   sodipodi:docname="инфо2.svg"
   id="svg79"
   viewBox="0 0 274.37278 141.83451"
   style="clip-rule:evenodd;fill-rule:evenodd;image-rendering:optimizeQuality;shape-rendering:geometricPrecision;text-rendering:geometricPrecision"
   version="1.1"
   height="44.450001mm"
   width="85.989586mm"
   xml:space="preserve"
   xmlns:inkscape="http://www.inkscape.org/namespaces/inkscape"
   xmlns:sodipodi="http://sodipodi.sourceforge.net/DTD/sodipodi-0.dtd"
   xmlns="http://www.w3.org/2000/svg"
   xmlns:svg="http://www.w3.org/2000/svg"
   xmlns:rdf="http://www.w3.org/1999/02/22-rdf-syntax-ns#"
   xmlns:cc="http://creativecommons.org/ns#"
   xmlns:dc="http://purl.org/dc/elements/1.1/"><metadata
   id="metadata83"><rdf:RDF><cc:Work
       rdf:about=""><dc:format>image/svg+xml</dc:format><dc:type
         rdf:resource="http://purl.org/dc/dcmitype/StillImage" /></cc:Work></rdf:RDF></metadata><sodipodi:namedview
   inkscape:current-layer="svg79"
   inkscape:window-maximized="1"
   inkscape:window-y="-6"
   inkscape:window-x="-6"
   inkscape:cy="90.780761"
   inkscape:cx="160.0117"
   inkscape:zoom="2.9466596"
   showgrid="false"
   id="namedview81"
   inkscape:window-height="1018"
   inkscape:window-width="1920"
   inkscape:pageshadow="2"
   inkscape:pageopacity="0"
   guidetolerance="10"
   gridtolerance="10"
   objecttolerance="10"
   borderopacity="1"
   bordercolor="#666666"
   pagecolor="#ffffff"
   inkscape:document-rotation="0"
   inkscape:showpageshadow="0"
   inkscape:pagecheckerboard="1"
   inkscape:deskcolor="#d1d1d1"
   inkscape:document-units="mm" />
 <defs
   id="defs73">
  <style
   id="style71"
   type="text/css">
   <![CDATA[
    .fil0 {fill:black}
   ]]>
  </style>
 </defs>
 
<g
   id="g1100"
   transform="translate(2.4120851e-4)"><g
     id="g1085"><g
       id="g434"
       transform="translate(-7.5985187,-8.4425305)"><path
         style="fill:#a5a5a5;fill-opacity:1;stroke-width:0.844253"
         d="m 29.514768,136.55793 c -6.362983,-3.33032 -10.477821,-8.45593 -10.351995,-12.89485 0.0457,-1.61215 -0.2592,-2.71964 -0.677551,-2.46109 -0.418352,0.25855 -0.760639,-0.71448 -0.760639,-2.16231 0,-1.70977 0.327604,-2.42994 0.934701,-2.05473 0.625161,0.38637 0.751161,-6.1e-4 0.380474,-1.16854 -1.1793,-3.71565 4.853753,-11.5618 11.57108,-15.04852 1.502834,-0.780064 5.407103,-1.591847 8.676151,-1.803948 7.668641,-0.497569 13.336858,1.759108 18.148525,7.225458 7.723318,8.77414 6.421031,21.35117 -2.950984,28.49955 -4.170563,3.18104 -8.460597,4.53256 -14.52454,4.57575 -4.275466,0.0305 -6.137225,-0.45201 -10.445222,-2.70677 z m 207.686252,-0.84425 c -6.36298,-3.33033 -10.47782,-8.45593 -10.35199,-12.89485 0.0457,-1.61216 -0.25921,-2.71965 -0.67756,-2.46109 -0.41835,0.25855 -0.76064,-0.71449 -0.76064,-2.16231 0,-1.70978 0.32761,-2.42994 0.9347,-2.05474 0.62516,0.38637 0.75117,-6.1e-4 0.38048,-1.16854 -1.1793,-3.71564 4.85375,-11.5618 11.57108,-15.048512 1.50283,-0.780065 5.4071,-1.591848 8.67615,-1.803949 7.66864,-0.497569 13.33686,1.759111 18.14852,7.225451 7.72332,8.77415 6.42104,21.35117 -2.95098,28.49956 -4.17056,3.18104 -8.46059,4.53255 -14.52454,4.57575 -4.27547,0.0305 -6.13722,-0.45201 -10.44522,-2.70677 z M 66.69126,126.21583 v -9.70891 h 77.67128 77.67128 v 9.70891 9.70891 H 144.36254 66.69126 Z m 0,-29.548856 v -9.70891 h 77.67128 77.67128 v 9.70891 9.708906 H 144.36254 66.69126 Z m 0,-28.704604 v -9.70891 h 77.67128 77.67128 v 9.70891 9.70891 H 144.36254 66.69126 Z m 171.38337,-8.086711 c -6.95932,-3.146564 -13.16229,-10.931025 -12.06224,-15.137603 0.35312,-1.350315 0.20982,-1.760482 -0.46857,-1.341216 -0.66034,0.408116 -0.97724,-0.249661 -0.97724,-2.028441 0,-1.709776 0.3276,-2.429939 0.9347,-2.054733 0.61976,0.383033 0.75475,0.0107 0.40063,-1.105043 -1.22466,-3.858554 4.30903,-11.354906 10.90634,-14.77454 5.26892,-2.731078 14.13977,-3.010906 19.69464,-0.621262 14.62142,6.289963 17.22419,24.746486 4.82363,34.204849 -6.35031,4.843618 -16.1863,6.052602 -23.25189,2.857989 z M 34.040955,57.358649 c -9.4381,-1.831128 -17.642537,-9.95651 -16.591917,-16.432041 0.314498,-1.938412 0.202519,-2.223505 -0.489684,-1.246715 -0.709993,1.001894 -0.900122,0.693328 -0.910349,-1.477443 -0.0071,-1.509102 0.303667,-2.743822 0.690616,-2.743822 0.38695,0 0.703545,-1.120348 0.703545,-2.489663 0,-3.092596 3.471366,-8.457326 7.422628,-11.471101 9.479334,-7.230241 23.499592,-5.866369 31.111546,3.026488 3.432797,4.010451 4.792264,7.772957 4.79944,13.283088 0.01583,12.154276 -13.587651,22.102146 -26.735825,19.551209 z M 66.69126,40.10202 v -9.70891 h 77.67128 77.67128 v 9.70891 9.70891 H 144.36254 66.69126 Z"
         id="path438" /><path
         style="fill:#333333;fill-opacity:1;stroke-width:0.844253"
         d="M 7.5935464,79.359787 V 8.4425305 H 144.78467 281.97579 V 79.359787 150.27704 H 144.78467 7.5935464 Z M 48.330471,138.09721 c 13.826435,-4.93416 18.543766,-20.92238 9.34424,-31.66995 -7.613091,-8.894192 -21.457106,-10.307126 -30.843449,-3.14793 -12.842165,9.79505 -11.418002,26.29511 2.886568,33.44319 5.810312,2.90344 12.868091,3.42472 18.612641,1.37469 z m 207.686249,-0.84425 c 13.82643,-4.93417 18.54377,-20.92238 9.34424,-31.66996 -7.61309,-8.894185 -21.4571,-10.307119 -30.84345,-3.14792 -12.84217,9.79505 -11.418,26.29511 2.88657,33.44318 5.81031,2.90345 12.86809,3.42473 18.61264,1.3747 z m -33.9829,-11.03713 v -9.70891 H 144.36254 66.69126 v 9.70891 9.70891 h 77.67128 77.67128 z m 0,-29.548856 v -9.70891 H 144.36254 66.69126 v 9.70891 9.708906 h 77.67128 77.67128 z m 0,-28.704604 V 58.25346 H 144.36254 66.69126 v 9.70891 9.70891 h 77.67128 77.67128 z m 33.13865,-7.536438 c 13.98325,-4.99013 18.58963,-21.132761 9.10504,-31.90782 -4.81166,-5.466341 -10.47988,-7.723023 -18.14852,-7.225453 -6.90577,0.448072 -10.45104,2.021721 -15.47871,6.87056 -10.04697,9.6896 -6.34903,25.484989 7.42435,31.71244 4.45242,2.013104 12.29173,2.265403 17.09784,0.550273 z M 48.321701,55.5126 C 55.470602,52.508378 60.786085,44.952306 60.77678,37.80744 60.769454,32.181777 59.361041,28.402606 55.737777,24.286361 50.908927,18.800497 45.272586,16.574694 37.476664,17.075005 27.385496,17.722617 19.90573,23.51613 17.192852,32.785996 12.301827,49.498559 30.688815,62.922563 48.321701,55.5126 Z M 222.03382,40.10202 V 30.39311 H 144.36254 66.69126 v 9.70891 9.70891 h 77.67128 77.67128 z"
         id="path436" /></g></g><path
     style="fill:#ffffff;fill-opacity:1;fill-rule:evenodd;stroke-width:0.844253"
     id="path837"
     sodipodi:type="arc"
     sodipodi:cx="30.222275"
     sodipodi:cy="29.653982"
     sodipodi:rx="22.777697"
     sodipodi:ry="20.772114"
     sodipodi:start="0"
     sodipodi:end="6.268738"
     sodipodi:arc-type="slice"
     d="M 52.999971,29.653982 A 22.777697,20.772114 0 0 1 30.304544,50.42596 22.777697,20.772114 0 0 1 7.4451725,29.804031 22.777697,20.772114 0 0 1 29.975472,8.8830878 22.777697,20.772114 0 0 1 52.997594,29.353891 l -22.775319,0.300091 z" /><path
     style="fill:#ffffff;fill-opacity:1;fill-rule:evenodd;stroke-width:0.844253"
     id="path839"
     sodipodi:type="arc"
     sodipodi:cx="32.51437"
     sodipodi:cy="111.02336"
     sodipodi:rx="21.918161"
     sodipodi:ry="20.199089"
     sodipodi:start="0"
     sodipodi:end="6.268738"
     sodipodi:arc-type="slice"
     d="M 54.432531,111.02336 A 21.918161,20.199089 0 0 1 32.593534,131.22232 21.918161,20.199089 0 0 1 10.59678,111.16927 21.918161,20.199089 0 0 1 32.276881,90.825458 21.918161,20.199089 0 0 1 54.430244,110.73155 l -21.915874,0.29181 z" /><path
     style="fill:#ffffff;fill-opacity:1;fill-rule:evenodd;stroke-width:0.844253"
     id="path841"
     sodipodi:type="arc"
     sodipodi:cx="34.233444"
     sodipodi:cy="109.5908"
     sodipodi:rx="4.4409347"
     sodipodi:ry="3.2948868"
     sodipodi:start="0"
     sodipodi:end="6.268738"
     sodipodi:arc-type="slice"
     d="m 38.674379,109.5908 a 4.4409347,3.2948868 0 0 1 -4.424895,3.29486 4.4409347,3.2948868 0 0 1 -4.456859,-3.27106 4.4409347,3.2948868 0 0 1 4.3927,-3.3185 4.4409347,3.2948868 0 0 1 4.48859,3.2471 l -4.440471,0.0476 z" /><path
     style="fill:#ffffff;fill-opacity:1;fill-rule:evenodd;stroke-width:0.844253"
     id="path843"
     sodipodi:type="arc"
     sodipodi:cx="240.2355"
     sodipodi:cy="33.092125"
     sodipodi:rx="23.064209"
     sodipodi:ry="21.058624"
     sodipodi:start="0"
     sodipodi:end="6.268738"
     sodipodi:arc-type="slice"
     d="m 263.29971,33.092125 a 23.064209,21.058624 0 0 1 -22.9809,21.058487 23.064209,21.058624 0 0 1 -23.14691,-20.906368 23.064209,21.058624 0 0 1 22.8137,-21.209507 23.064209,21.058624 0 0 1 23.31171,20.753158 l -23.06181,0.30423 z" /><path
     style="fill:#ffffff;fill-opacity:1;fill-rule:evenodd;stroke-width:0.844253"
     id="path845"
     sodipodi:type="arc"
     sodipodi:cx="241.66806"
     sodipodi:cy="109.5908"
     sodipodi:rx="23.064209"
     sodipodi:ry="21.345137"
     sodipodi:start="0"
     sodipodi:end="6.268738"
     sodipodi:arc-type="slice"
     d="m 264.73227,109.5908 a 23.064209,21.345137 0 0 1 -22.98091,21.34499 23.064209,21.345137 0 0 1 -23.14691,-21.1908 23.064209,21.345137 0 0 1 22.8137,-21.498076 23.064209,21.345137 0 0 1 23.31171,21.035516 l -23.0618,0.30837 z" /><rect
     style="fill:#ffffff;fill-opacity:1;fill-rule:evenodd;stroke-width:0.844253"
     id="rect899"
     width="155.28944"
     height="19.196299"
     x="59.30323"
     y="21.201881" /><rect
     style="fill:#ffffff;fill-opacity:1;fill-rule:evenodd;stroke-width:0.844253"
     id="rect901"
     width="155.28944"
     height="19.769321"
     x="59.303234"
     y="49.853069" /><rect
     style="fill:#ffffff;fill-opacity:1;fill-rule:evenodd;stroke-width:0.844253"
     id="rect903"
     width="155.28944"
     height="18.909784"
     x="59.303234"
     y="79.077286" /><rect
     style="fill:#ffffff;fill-opacity:1;fill-rule:evenodd;stroke-width:0.844253"
     id="rect905"
     width="155.00294"
     height="19.482809"
     x="59.303234"
     y="108.58801" /></g></svg>
