<?xml version="1.0" encoding="UTF-8" standalone="no"?>
<svg
   xmlns:dc="http://purl.org/dc/elements/1.1/"
   xmlns:cc="http://creativecommons.org/ns#"
   xmlns:rdf="http://www.w3.org/1999/02/22-rdf-syntax-ns#"
   xmlns:svg="http://www.w3.org/2000/svg"
   xmlns="http://www.w3.org/2000/svg"
   xmlns:sodipodi="http://sodipodi.sourceforge.net/DTD/sodipodi-0.dtd"
   xmlns:inkscape="http://www.inkscape.org/namespaces/inkscape"
   version="1.1"
   id="svg432"
   width="935.19019"
   height="1305.3872"
   viewBox="0 0 935.19019 1305.3872"
   sodipodi:docname="место1.svg"
   inkscape:version="1.0 (4035a4fb49, 2020-05-01)">
  <metadata
     id="metadata438">
    <rdf:RDF>
      <cc:Work
         rdf:about="">
        <dc:format>image/svg+xml</dc:format>
        <dc:type
           rdf:resource="http://purl.org/dc/dcmitype/StillImage" />
        <dc:title></dc:title>
      </cc:Work>
    </rdf:RDF>
  </metadata>
  <defs
     id="defs436" />
  <sodipodi:namedview
     inkscape:document-rotation="0"
     pagecolor="#ffffff"
     bordercolor="#666666"
     borderopacity="1"
     objecttolerance="10"
     gridtolerance="10"
     guidetolerance="10"
     inkscape:pageopacity="0"
     inkscape:pageshadow="2"
     inkscape:window-width="1920"
     inkscape:window-height="1018"
     id="namedview434"
     showgrid="false"
     inkscape:zoom="0.6428571"
     inkscape:cx="730.81641"
     inkscape:cy="627.68203"
     inkscape:window-x="-6"
     inkscape:window-y="-6"
     inkscape:window-maximized="1"
     inkscape:current-layer="g440" />
  <g
     transform="translate(261.48307,-25.651338)"
     inkscape:groupmode="layer"
     inkscape:label="Image"
     id="g440">
    <path
       id="path8"
       d="m 159.77777,1330.7586 c -137.173526,-6.3999 -241.553766,-27.9856 -316.66668,-65.4861 -30.48817,-15.2214 -48.54388,-27.8253 -67.33333,-47.0023 -15.55183,-15.8727 -25.37887,-31.2773 -31.76,-49.7862 -4.2354,-12.2851 -4.74539,-15.3359 -5.29258,-31.6615 -0.51547,-15.379 -0.18241,-19.7424 2.23904,-29.3333 8.01293,-31.7378 29.68126,-60.1041 65.33848,-85.5357 52.54843,-37.47883 135.795464,-66.24609 227.197744,-78.51164 18.23087,-2.44644 22.25152,-3.36367 21.64727,-4.93832 C 54.739564,937.43993 8.3791641,864.79151 -47.875406,777.06263 -167.71782,590.16864 -168.80315,588.26556 -184.90768,536.78093 -210.70092,454.32243 -207.23399,362.0061 -175.29848,280.9104 -124.56297,152.0748 -7.2701759,56.955413 132.06058,31.655496 c 26.59335,-4.828866 42.5224,-6.091037 75.71719,-5.999608 34.89799,0.09612 54.00111,1.912792 82.7868,7.872874 152.4356,31.561781 274.9058,146.214078 311.8773,291.968498 9.2314,36.39356 12.1725,59.86905 12.2017,97.39164 0.049,63.15846 -13.5035,119.78686 -42.0468,175.6908 -8.9232,17.47663 -364.42155,594.0935 -366.36472,594.242 -0.48348,0.037 -19.6025,-29.7828 -42.4867,-66.2661 -22.88421,-36.4833 -41.83313,-66.5778 -42.10872,-66.8767 -0.85265,-0.9245 -53.295506,5.2411 -73.775806,8.6737 -67.56654,11.3246 -126.27599,29.399 -161.763544,49.8006 -9.64304,5.5438 -18.40505,12.4596 -18.22326,14.3836 0.35456,3.7524 20.88394,16.4185 41.240554,25.4443 102.44679,45.4236 287.146206,61.5253 445.672996,38.853 70.2509,-10.0472 133.0935,-28.2052 169.7086,-49.0362 10.0419,-5.713 20.5099,-13.6575 20.5232,-15.5756 0.014,-2.0945 -10.204,-9.2536 -22.6857,-15.8935 -31.8728,-16.9553 -82.2121,-33.4459 -134.7786,-44.1519 -8.9329,-1.8193 -16.4047,-3.4709 -16.604,-3.6702 -0.1993,-0.1993 15.2337,-24.6448 34.2955,-54.3234 19.0619,-29.67859 35.1619,-54.81587 35.7779,-55.86065 2.3779,-4.03308 74.1133,16.9626 108.7533,31.83014 33.9988,14.59241 61.8257,32.18301 82.6693,52.25901 19.8827,19.1504 29.9516,34.5202 37.4356,57.1438 3.4415,10.4033 3.7551,13.0292 3.8221,32 0.084,23.79 -2.0505,33.6826 -11.1899,51.86 -39.8348,79.2275 -173.1645,131.19 -373.4038,145.5265 -19.51458,1.3972 -110.83141,2.6798 -129.3333,1.8165 z m 76.09837,-785.31272 c 44.23283,-7.42484 84.32943,-31.64302 110.91563,-66.99257 15.9817,-21.24956 25.5169,-42.51898 31.1863,-69.56441 3.1957,-15.24483 3.2036,-45.58869 0.016,-61.69984 -10.0027,-50.55791 -43.1696,-94.6681 -88.883,-118.20946 -16.12134,-8.30215 -24.11038,-11.36885 -40.66663,-15.61045 -17.88998,-4.58331 -52.37991,-5.86188 -70.96475,-2.63075 -43.59571,7.57948 -83.192136,30.85052 -108.896806,63.99927 -21.17686,27.30967 -31.86732,53.94941 -35.65164,88.84092 -5.95786,54.93176 20.41986,113.54106 66.83693,148.50654 22.036736,16.60005 49.706276,28.63948 76.676256,33.36299 14.76779,2.58642 44.01657,2.58532 59.43171,-0.003 z"
       style="fill:#000000;stroke-width:1.33333" />
  </g>
</svg>
