<?xml version="1.0" encoding="UTF-8" standalone="no"?>
<svg
   xmlns:dc="http://purl.org/dc/elements/1.1/"
   xmlns:cc="http://creativecommons.org/ns#"
   xmlns:rdf="http://www.w3.org/1999/02/22-rdf-syntax-ns#"
   xmlns:svg="http://www.w3.org/2000/svg"
   xmlns="http://www.w3.org/2000/svg"
   xmlns:sodipodi="http://sodipodi.sourceforge.net/DTD/sodipodi-0.dtd"
   xmlns:inkscape="http://www.inkscape.org/namespaces/inkscape"
   inkscape:version="1.0 (4035a4fb49, 2020-05-01)"
   sodipodi:docname="LOGO.svg"
   id="svg79"
   viewBox="0 0 101.85496 28.8354"
   style="clip-rule:evenodd;fill-rule:evenodd;image-rendering:optimizeQuality;shape-rendering:geometricPrecision;text-rendering:geometricPrecision"
   version="1.1"
   height="9.0368242mm"
   width="31.921772mm"
   xml:space="preserve"><metadata
   id="metadata83"><rdf:RDF><cc:Work
       rdf:about=""><dc:format>image/svg+xml</dc:format><dc:type
         rdf:resource="http://purl.org/dc/dcmitype/StillImage" /><dc:title></dc:title></cc:Work></rdf:RDF></metadata><sodipodi:namedview
   inkscape:current-layer="svg79"
   inkscape:window-maximized="1"
   inkscape:window-y="-6"
   inkscape:window-x="-6"
   inkscape:cy="59.041928"
   inkscape:cx="88.437745"
   inkscape:zoom="4.1672061"
   showgrid="false"
   id="namedview81"
   inkscape:window-height="1018"
   inkscape:window-width="1920"
   inkscape:pageshadow="2"
   inkscape:pageopacity="0"
   guidetolerance="10"
   gridtolerance="10"
   objecttolerance="10"
   borderopacity="1"
   bordercolor="#666666"
   pagecolor="#ffffff"
   inkscape:document-rotation="0" />
 <defs
   id="defs73">
  <style
   id="style71"
   type="text/css">
   <![CDATA[
    .fil0 {fill:black}
   ]]>
  </style>
 </defs>
 
<path
   id="path38"
   d="M 1.0536716,28.135679 C 0.27123265,27.819949 -0.00164535,24.222649 -0.00164535,14.223608 V 0.73737031 l 3.58807595,0.259606 3.588075,0.25960599 0.422127,10.5531637 0.422126,10.553163 4.6360734,0.42213 c 3.591572,0.32702 4.700981,0.76413 4.92417,1.94012 0.586062,3.088 -1.3666,3.97334 -8.6083014,3.903 -3.773942,-0.0367 -7.3366049,-0.25828 -7.917029,-0.49248 z m 23.5584574,-0.87097 c -4.359535,-2.14802 -6.88446,-6.835388 -6.88446,-12.780576 0,-8.0276757 4.825068,-13.54994469 12.482081,-14.28568669 7.37494,-0.70863902 12.190485,2.81781599 14.414708,10.55598269 1.160184,4.036328 0.188515,8.98297 -2.550022,12.98184 -3.193477,4.66318 -11.679295,6.37782 -17.462307,3.52844 z m 10.308872,-6.229455 c 1.92991,-1.518067 2.224488,-2.375718 2.224488,-6.476484 0,-5.8495688 -1.494504,-7.8145427 -5.943523,-7.8145427 -3.986307,0 -5.87602,2.5821299 -5.87602,8.0290757 0,2.980264 0.475277,4.342494 2.072257,5.939476 2.531604,2.5316 4.601544,2.62033 7.522798,0.322475 z m 19.533557,6.329515 c -4.095651,-2.13553 -5.432512,-3.76376 -6.759744,-8.233039 -2.16794,-7.300247 0.766504,-14.1439587 7.452433,-17.3805607 3.551312,-1.71916099 9.193224,-2.25578601 12.996581,-1.23615699 2.126687,0.57013599 3.140204,2.89416799 2.349125,5.38663499 -0.435898,1.373396 -0.960824,1.571189 -2.800714,1.055316 -4.329151,-1.213818 -8.438528,-0.655163 -10.681637,1.452128 -3.049172,2.8645477 -3.054964,9.3122637 -0.0111,12.3561277 2.784557,2.78456 7.441068,2.60558 7.853993,-0.301879 0.202145,-1.423317 -0.150961,-1.89957 -1.408392,-1.89957 -3.132588,0 -4.349033,-0.96983 -4.349033,-3.467338 v -2.442433 h 6.331898 6.331898 v 7.093562 7.093558 l -2.658741,0.92685 c -3.861666,1.34618 -11.705625,1.13025 -14.646565,-0.4032 z m 26.583503,-0.56953 C 76.69341,23.838289 74.897461,20.823472 74.520867,15.85496 73.394543,0.99508131 91.090118,-5.6955477 99.990175,6.2251123 c 2.500545,3.3492039 2.485615,12.8979567 -0.0255,16.2869507 -4.662632,6.292776 -13.15136,8.213806 -18.92665,4.283176 z m 10.962398,-5.677235 c 2.132921,-2.132917 2.884492,-5.172504 2.191867,-8.864542 -0.72789,-3.8799787 -2.514777,-5.5092347 -6.042243,-5.5092347 -2.373677,0 -3.213903,0.503377 -4.579929,2.7438229 -1.912765,3.1371578 -2.07585,5.1533248 -0.7293,9.0160458 1.462964,4.196643 6.219486,5.554033 9.159605,2.613908 z"
   style="fill:#000000;stroke-width:0.844253" /></svg>
