<?xml version="1.0" encoding="UTF-8" standalone="no"?>
<svg
   xmlns:dc="http://purl.org/dc/elements/1.1/"
   xmlns:cc="http://creativecommons.org/ns#"
   xmlns:rdf="http://www.w3.org/1999/02/22-rdf-syntax-ns#"
   xmlns:svg="http://www.w3.org/2000/svg"
   xmlns="http://www.w3.org/2000/svg"
   xmlns:sodipodi="http://sodipodi.sourceforge.net/DTD/sodipodi-0.dtd"
   xmlns:inkscape="http://www.inkscape.org/namespaces/inkscape"
   inkscape:version="1.0 (4035a4fb49, 2020-05-01)"
   sodipodi:docname="МУЖЧИНА.svg"
   viewBox="0 0 687.99921 1886.8971"
   height="1886.8971"
   width="687.99921"
   id="svg344"
   version="1.1">
  <metadata
     id="metadata350">
    <rdf:RDF>
      <cc:Work
         rdf:about="">
        <dc:format>image/svg+xml</dc:format>
        <dc:type
           rdf:resource="http://purl.org/dc/dcmitype/StillImage" />
        <dc:title></dc:title>
      </cc:Work>
    </rdf:RDF>
  </metadata>
  <defs
     id="defs348" />
  <sodipodi:namedview
     inkscape:current-layer="g352"
     inkscape:window-maximized="1"
     inkscape:window-y="-6"
     inkscape:window-x="-6"
     inkscape:cy="835.92407"
     inkscape:cx="828.27197"
     inkscape:zoom="0.31304206"
     showgrid="false"
     id="namedview346"
     inkscape:window-height="1018"
     inkscape:window-width="1920"
     inkscape:pageshadow="2"
     inkscape:pageopacity="0"
     guidetolerance="10"
     gridtolerance="10"
     objecttolerance="10"
     borderopacity="1"
     bordercolor="#666666"
     pagecolor="#ffffff"
     inkscape:document-rotation="0" />
  <g
     transform="translate(634.0358,-54.850494)"
     id="g352"
     inkscape:label="Image"
     inkscape:groupmode="layer">
    <path
       id="path8"
       d="m -422.68109,1937.7731 c -2.84959,-2.186 -6.87348,-4.0133 -8.94195,-4.0606 -5.66595,-0.1297 -26.66265,-24.1585 -33.19213,-37.9854 l -5.75267,-12.1819 -1.33455,-617.217 -1.33455,-617.21687 -12.88562,-0.83368 c -7.21048,-0.46651 -14.5576,0.57366 -16.68191,2.36178 -3.2257,2.71518 -3.79628,36.48537 -3.79628,224.68579 0,122.83925 -1.03526,222.13918 -2.32436,222.94718 -1.27839,0.8013 -3.08868,5.333 -4.02286,10.0704 -1.00077,5.075 -7.44704,14.8288 -15.6921,23.7434 -12.21344,13.2052 -15.6913,15.3887 -27.33911,17.1642 -29.68073,4.5243 -39.49904,1.7445 -56.60579,-16.0267 -7.73808,-8.0386 -14.78007,-17.9244 -15.64886,-21.9684 -0.8688,-4.0439 -2.69964,-10.3981 -4.06855,-14.1203 -3.36536,-9.151 -1.37887,-502.34418 2.10986,-523.82225 4.10094,-25.24704 11.95426,-50.63648 18.42154,-59.55602 3.23867,-4.4667 7.80096,-12.38495 10.13844,-17.5961 8.0153,-17.8693 35.34204,-51.43475 41.87472,-51.43475 1.16304,0 5.88062,-3.48865 10.48352,-7.75259 4.60289,-4.26392 12.94221,-9.14229 18.53183,-10.84082 5.58962,-1.69851 11.65359,-4.90991 13.47549,-7.13641 1.8219,-2.2265 5.90097,-4.04819 9.0646,-4.04819 3.16363,0 8.72177,-2.13183 12.35143,-4.73741 6.14069,-4.40815 20.2347,-4.73741 202.77854,-4.73741 181.7327,0 196.768899,0.34762 204.186499,4.72074 4.404,2.5964 9.9473,4.72823 12.3183,4.73741 2.371,0.008 7.3649,2.45306 11.0974,5.43086 3.7325,2.9778 8.5519,5.41418 10.7096,5.41418 2.1577,0 5.4183,1.82729 7.2458,4.06064 1.8275,2.23335 4.9092,4.06064 6.8483,4.06064 1.939,0 5.0949,2.13183 7.0132,4.73741 1.9182,2.60557 8.6554,8.29742 14.9715,12.64856 11.1296999,7.66716 27.2181999,25.63843 27.2181999,30.4033 0,1.28871 2.4022001,3.86467 5.3382001,5.72433 2.936,1.85966 5.3382,4.91538 5.3382,6.7905 0,1.87509 2.7559,7.65119 6.1241,12.83576 3.3683,5.18454 8.296,14.9083 10.9505,21.60836 2.6544,6.70005 5.9975,14.44899 7.4291,17.21989 7.8068,15.11085 8.552,38.47064 9.3902,294.35567 l 0.8567,261.4943 -6.6989,10.0118 c -3.6843,5.5065 -6.6988,11.0944 -6.6988,12.4175 0,4.6239 -23.9723,22.2804 -33.9630001,25.015 -12.5075,3.4236 -20.3325999,3.527 -34.4455999,0.4553 -14.2545,-3.1024 -34.742,-22.0135 -39.8944,-36.8247 -3.169,-9.1099 -3.7994,-48.0554 -3.7994,-234.72885 0,-170.46255 -0.7634,-224.58113 -3.2029,-227.05536 -4.3478,-4.40963 -24.7874,-4.12374 -28.487899,0.39851 -2.1753,2.65834 -3.1843,168.69504 -3.7223,612.4795 -0.5488,452.75 -1.5333,611.5574 -3.8403,619.4614 -4.514,15.4652 -16.0909,30.7804 -33.8353,44.7611 l -15.5951,12.2873 -25.4587,0.9521 c -21.7793,0.8144 -27.0938,0.1237 -36.773,-4.7791 -6.2229,-3.1521 -12.7943,-7.5396 -14.603,-9.7501 -1.8088,-2.2104 -5.3403,-4.019 -7.8476,-4.019 -5.2793,0 -17.917,-17.0356 -27.111,-36.5457 l -6.3785,-13.5355 -0.733,-360.6852 -0.7329,-360.6851 -6.2846,-1.5998 c -3.4565,-0.8798 -9.7327,-1.2001 -13.9471,-0.7116 l -7.6626,0.8881 -1.3345,365.4575 -1.3346,365.4574 -9.3418,18.8056 c -7.0459,14.1836 -11.7841,20.1718 -19.2784,24.3639 -5.4651,3.0569 -14.8106,8.2991 -20.7678,11.6491 -8.9262,5.0196 -14.9521,6.0909 -34.26079,6.0909 -16.46877,0 -24.96888,-1.1808 -28.61069,-3.9745 z m 99.07108,-1581.11379 c -2.8495,-2.186 -7.8907,-3.97455 -11.2024,-3.97455 -5.8314,0 -20.5101,-7.06053 -36.9986,-17.79656 -9.3659,-6.09832 -41.37108,-39.68656 -41.37108,-43.41734 0,-1.40339 -2.09439,-5.56362 -4.65417,-9.24491 -5.56583,-8.00436 -13.99548,-31.34106 -14.11444,-39.07449 -0.0467,-3.03498 -1.84836,-7.88278 -4.00366,-10.77293 -5.39751,-7.23771 -5.39751,-44.51577 0,-51.75348 2.1553,-2.89014 3.95756,-7.6912 4.00499,-10.669 0.11397,-7.16015 8.66162,-29.62566 16.7457,-44.01247 7.75871,-13.80785 37.68766,-46.650338 42.58926,-46.735306 1.9099,-0.03311 6.4753,-2.4424 10.1453,-5.353989 3.67,-2.911588 8.397,-5.320881 10.5044,-5.353989 2.1074,-0.03311 6.4304,-2.536347 9.6066,-5.562757 11.5181,-10.974689 95.5136,-10.700517 104.8359,0.342196 2.3961,2.838201 5.8955,5.160366 7.7766,5.160366 7.9674,0 23.1433,11.425401 44.5816,33.563999 12.5827,12.99381 22.8777,25.41872 22.8777,27.61089 0,2.19221 1.7345,6.68387 3.8544,9.98151 7.0696,10.99743 10.3965,30.04212 11.4396,65.48637 0.8956,30.43045 0.2767,37.40032 -4.6294,52.13142 -3.1148,9.35254 -7.1131,19.73657 -8.8851,23.07566 -6.8727,12.9507 -27.3455,39.87389 -31.3674,41.25045 -2.3273,0.79656 -8.8933,5.65468 -14.591,10.79582 -5.6978,5.14118 -13.6196,10.07382 -17.6042,10.96143 -3.9846,0.88762 -8.6759,3.36283 -10.4251,5.50048 -1.7492,2.13766 -6.3363,3.92537 -10.1935,3.97271 -3.8573,0.0474 -9.3448,1.87466 -12.1943,4.06064 -7.3159,5.61218 -59.3624,5.47788 -66.7277,-0.17217 z"
       style="fill:#000000;stroke-width:2.68803" />
  </g>
</svg>
