<?xml version="1.0" encoding="UTF-8" standalone="no"?>
<svg
   xmlns:dc="http://purl.org/dc/elements/1.1/"
   xmlns:cc="http://creativecommons.org/ns#"
   xmlns:rdf="http://www.w3.org/1999/02/22-rdf-syntax-ns#"
   xmlns:svg="http://www.w3.org/2000/svg"
   xmlns="http://www.w3.org/2000/svg"
   xmlns:sodipodi="http://sodipodi.sourceforge.net/DTD/sodipodi-0.dtd"
   xmlns:inkscape="http://www.inkscape.org/namespaces/inkscape"
   inkscape:version="1.0 (4035a4fb49, 2020-05-01)"
   sodipodi:docname="СМИ.svg"
   id="svg79"
   viewBox="0 0 241.40095 234.24061"
   style="clip-rule:evenodd;fill-rule:evenodd;image-rendering:optimizeQuality;shape-rendering:geometricPrecision;text-rendering:geometricPrecision"
   version="1.1"
   height="73.409462mm"
   width="75.656075mm"
   xml:space="preserve"><metadata
   id="metadata83"><rdf:RDF><cc:Work
       rdf:about=""><dc:format>image/svg+xml</dc:format><dc:type
         rdf:resource="http://purl.org/dc/dcmitype/StillImage" /><dc:title></dc:title></cc:Work></rdf:RDF></metadata><sodipodi:namedview
   inkscape:current-layer="svg79"
   inkscape:window-maximized="1"
   inkscape:window-y="-6"
   inkscape:window-x="-6"
   inkscape:cy="192.51145"
   inkscape:cx="157.97391"
   inkscape:zoom="1.4733298"
   showgrid="false"
   id="namedview81"
   inkscape:window-height="1018"
   inkscape:window-width="1920"
   inkscape:pageshadow="2"
   inkscape:pageopacity="0"
   guidetolerance="10"
   gridtolerance="10"
   objecttolerance="10"
   borderopacity="1"
   bordercolor="#666666"
   pagecolor="#ffffff"
   inkscape:document-rotation="0" />
 <defs
   id="defs73">
  <style
   id="style71"
   type="text/css">
   <![CDATA[
    .fil0 {fill:black}
   ]]>
  </style>
 </defs>
 
<path
   id="path116"
   d="m 140.05353,232.61098 c -4.49103,-2.59249 -6.13522,-5.7269 -6.54933,-12.48532 -1.16484,-19.01058 6.45864,-33.14848 18.72399,-34.72402 3.04418,-0.39103 4.18133,-0.13191 7.74749,1.76545 2.29879,1.22308 6.17418,2.62897 8.61196,3.12423 l 4.43233,0.90048 v 21.52441 21.5244 h -15.07171 c -14.23862,0 -15.22774,-0.0901 -17.89473,-1.62963 z m 42.2747,0.20166 c -0.91687,-0.78538 -1.88641,-2.1767 -2.15454,-3.09179 -0.26812,-0.91509 -0.37276,-9.57661 -0.23254,-19.24781 0.32283,-22.26427 -1.50024,-20.34671 19.34419,-20.34671 h 15.10302 v -2.56402 c 0,-1.75805 0.65139,-3.122 2.07226,-4.33911 1.84915,-1.58397 2.78773,-1.77509 8.71749,-1.77509 5.85459,0 6.86364,0.19914 8.48091,1.67377 1.19923,1.09347 1.83567,2.59787 1.83567,4.33912 0,1.46593 0.39718,2.66533 0.88262,2.66533 0.48545,0 1.81515,0.79879 2.95489,1.77509 l 2.07226,1.77509 v 18.50696 18.50696 l -2.07226,1.77509 -2.07226,1.77509 H 210.6276 c -25.39231,0 -26.70997,-0.0665 -28.29937,-1.42797 z m 34.0152,-6.61543 c 7.77441,-3.4214 10.9648,-12.52214 6.83988,-19.51107 -0.61073,-1.03477 -2.4514,-2.88997 -4.09038,-4.12264 -8.55271,-6.43252 -20.89044,-1.17305 -22.17052,9.45109 -0.41917,3.47895 -0.16165,4.66376 1.72045,7.91559 2.86365,4.94774 6.40943,7.07858 11.77891,7.07858 2.24268,0 4.90743,-0.36519 5.92166,-0.81155 z m -10.04275,-4.8911 c -3.40094,-1.77648 -4.90961,-5.0027 -4.34521,-9.29196 1.11187,-8.44993 13.41058,-10.35013 17.16546,-2.65214 1.54489,3.16722 1.48679,5.65995 -0.20302,8.7103 -2.4086,4.34786 -7.8262,5.73641 -12.61723,3.2338 z M 191.95535,202.7304 c 3.10703,-2.66146 0.0988,-7.43744 -4.11408,-6.5317 -4.23709,0.91094 -3.60353,7.66814 0.71897,7.66814 1.13764,0 2.66544,-0.51139 3.39511,-1.13644 z m 39.16308,-14.59283 c -0.25867,-1.92576 -0.44767,-1.99554 -5.96584,-2.2026 l -5.69871,-0.21383 v 2.20259 2.2026 h 5.96585 5.96584 z m -66.65223,-5.4345 c -9.93368,-4.40492 -14.76797,-12.38196 -14.05677,-23.19502 0.46169,-7.0197 2.74129,-11.69855 7.81597,-16.0422 14.26074,-12.20644 36.00169,-5.05297 40.1577,13.21317 2.57164,11.30267 -5.12936,23.87003 -16.6957,27.24592 -6.26071,1.82732 -11.12282,1.48236 -17.2212,-1.22187 z M 6.661561,171.14026 C 2.170535,168.54777 0.52633805,165.41335 0.11222805,158.65493 -1.052614,139.64435 6.570864,125.50646 18.836219,123.93092 c 3.044175,-0.39105 4.18133,-0.13191 7.747491,1.76545 2.29879,1.22306 6.17418,2.62897 8.61196,3.12423 l 4.43232,0.90047 v 21.52441 21.52441 h -15.0717 c -14.23862,0 -15.227743,-0.0901 -17.894729,-1.62963 z m 42.274689,0.20165 c -0.91687,-0.78538 -1.8864,-2.17669 -2.15453,-3.09178 -0.26812,-0.9151 -0.37277,-9.57662 -0.23254,-19.24782 0.32283,-22.26426 -1.50024,-20.34671 19.34418,-20.34671 h 15.103029 v -2.56402 c 0,-1.75804 0.65139,-3.122 2.07226,-4.33911 1.84914,-1.58398 2.78772,-1.77509 8.71749,-1.77509 5.85459,0 6.86364,0.19915 8.480911,1.67377 1.19922,1.09347 1.83567,2.59787 1.83567,4.33911 0,1.46594 0.39717,2.66534 0.88262,2.66534 0.48544,0 1.81514,0.7988 2.95488,1.77509 l 2.07227,1.77509 v 18.50696 18.50697 l -2.07227,1.77508 -2.07225,1.7751 H 77.23562 c -25.39231,0 -26.70996,-0.0665 -28.29937,-1.42798 z m 34.015209,-6.61542 c 7.77441,-3.42141 10.9648,-12.52215 6.83988,-19.51108 -0.61073,-1.03477 -2.4514,-2.88996 -4.09038,-4.12264 -8.552709,-6.43251 -20.890439,-1.17305 -22.170519,9.45109 -0.41917,3.47895 -0.16166,4.66376 1.72045,7.91559 2.86365,4.94774 6.40943,7.07859 11.77891,7.07859 2.24268,0 4.907429,-0.3652 5.921659,-0.81155 z M 72.90871,159.83538 c -3.40094,-1.77648 -4.90961,-5.00269 -4.34521,-9.29196 1.11187,-8.44993 13.410579,-10.35013 17.165459,-2.65213 1.54489,3.16721 1.48679,5.65995 -0.20302,8.71029 -2.4086,4.34787 -7.826209,5.7364 -12.617229,3.2338 z m -14.34533,-18.5757 c 3.10703,-2.66147 0.0988,-7.43744 -4.11409,-6.5317 -4.23708,0.91093 -3.60352,7.66814 0.71898,7.66814 1.13764,0 2.66544,-0.5114 3.39511,-1.13644 z m 39.163079,-14.59284 c -0.25868,-1.92575 -0.44767,-1.99553 -5.96584,-2.2026 l -5.69871,-0.21384 v 2.20261 2.20259 h 5.96584 5.96585 z m -66.652239,-5.4345 c -9.933672,-4.40491 -14.767964,-12.38196 -14.056766,-23.195009 0.461701,-7.01972 2.741292,-11.69855 7.815966,-16.0422 14.26074,-12.20644 36.00169,-5.05297 40.15771,13.21317 2.57164,11.302659 -5.12936,23.870029 -16.6957,27.245919 -6.26071,1.82732 -11.12282,1.48234 -17.22121,-1.22188 z m 80.27471,-26.026499 c -4.49103,-2.5925 -6.13522,-5.72691 -6.54933,-12.48533 -1.16484,-19.01058 6.45863,-33.148476 18.72399,-34.724019 3.04418,-0.391039 4.18133,-0.131911 7.74748,1.765452 2.2988,1.223068 6.17419,2.628971 8.61197,3.124231 l 4.43232,0.900472 v 21.524404 21.52441 h -15.0717 c -14.23862,0 -15.22774,-0.0901 -17.89473,-1.62962 z m 42.2747,0.20165 c -0.91687,-0.78539 -1.88641,-2.17669 -2.15454,-3.09179 -0.26812,-0.9151 -0.37276,-9.57661 -0.23254,-19.24782 0.32283,-22.264254 -1.50025,-20.346704 19.34418,-20.346704 h 15.10303 v -2.56402 c 0,-1.758046 0.65139,-3.122001 2.07226,-4.33911 1.84914,-1.583971 2.78773,-1.77509 8.71749,-1.77509 5.85459,0 6.86364,0.199144 8.48091,1.673776 1.19923,1.093465 1.83567,2.597871 1.83567,4.33911 0,1.465934 0.39717,2.665334 0.88262,2.665334 0.48545,0 1.81514,0.79879 2.95489,1.77509 l 2.07226,1.775091 v 18.506963 18.50696 l -2.07226,1.77509 -2.07226,1.77509 h -26.63235 c -25.39231,0 -26.70996,-0.0665 -28.29936,-1.42797 z m 34.0152,-6.61543 c 7.77441,-3.4214 10.9648,-12.52214 6.83988,-19.51108 -0.61073,-1.03476 -2.4514,-2.88996 -4.09038,-4.12263 -8.55271,-6.432518 -20.89044,-1.17305 -22.17052,9.45108 -0.41917,3.47896 -0.16165,4.66377 1.72045,7.9156 2.86365,4.94774 6.40943,7.07858 11.77891,7.07858 2.24268,0 4.90743,-0.36519 5.92166,-0.81155 z m -10.04275,-4.8911 c -3.40094,-1.77648 -4.90961,-5.00269 -4.34521,-9.29196 1.11187,-8.44993 13.41058,-10.35013 17.16546,-2.65214 1.54489,3.16721 1.48679,5.65995 -0.20302,8.7103 -2.4086,4.34787 -7.8262,5.7364 -12.61723,3.2338 z m -14.34533,-18.5757 c 3.10703,-2.661476 0.0988,-7.437447 -4.11409,-6.531709 -4.23708,0.910938 -3.60352,7.668139 0.71898,7.668139 1.13764,0 2.66544,-0.51139 3.39511,-1.13643 z m 39.16308,-14.592843 c -0.25868,-1.925755 -0.44767,-1.995532 -5.96584,-2.202597 l -5.69871,-0.213839 v 2.202598 2.202597 h 5.96585 5.96584 z m -66.65223,-5.4345 c -9.93368,-4.40492 -14.76797,-12.38196 -14.05677,-23.195009 0.46169,-7.019715 2.74129,-11.698554 7.81596,-16.0422088 14.26075,-12.206436 36.00169,-5.052967 40.15771,13.2131698 2.57164,11.302663 -5.12936,23.87003 -16.6957,27.245922 -6.26071,1.827327 -11.12282,1.482352 -17.2212,-1.221874 z"
   style="fill:#000000;stroke-width:0.781378" /></svg>
