<?xml version="1.0" encoding="UTF-8" standalone="no"?>
<svg
   xmlns:dc="http://purl.org/dc/elements/1.1/"
   xmlns:cc="http://creativecommons.org/ns#"
   xmlns:rdf="http://www.w3.org/1999/02/22-rdf-syntax-ns#"
   xmlns:svg="http://www.w3.org/2000/svg"
   xmlns="http://www.w3.org/2000/svg"
   xmlns:sodipodi="http://sodipodi.sourceforge.net/DTD/sodipodi-0.dtd"
   xmlns:inkscape="http://www.inkscape.org/namespaces/inkscape"
   inkscape:version="1.0 (4035a4fb49, 2020-05-01)"
   sodipodi:docname="МУЛЬТИкомпания.svg"
   id="svg79"
   viewBox="0 0 324.88935 259.92029"
   style="clip-rule:evenodd;fill-rule:evenodd;image-rendering:optimizeQuality;shape-rendering:geometricPrecision;text-rendering:geometricPrecision"
   version="1.1"
   height="81.457306mm"
   width="101.82169mm"
   xml:space="preserve"><metadata
   id="metadata83"><rdf:RDF><cc:Work
       rdf:about=""><dc:format>image/svg+xml</dc:format><dc:type
         rdf:resource="http://purl.org/dc/dcmitype/StillImage" /><dc:title></dc:title></cc:Work></rdf:RDF></metadata><sodipodi:namedview
   inkscape:current-layer="svg79"
   inkscape:window-maximized="1"
   inkscape:window-y="-6"
   inkscape:window-x="-6"
   inkscape:cy="170.85975"
   inkscape:cx="195.47398"
   inkscape:zoom="1.4733298"
   showgrid="false"
   id="namedview81"
   inkscape:window-height="1018"
   inkscape:window-width="1920"
   inkscape:pageshadow="2"
   inkscape:pageopacity="0"
   guidetolerance="10"
   gridtolerance="10"
   objecttolerance="10"
   borderopacity="1"
   bordercolor="#666666"
   pagecolor="#ffffff"
   inkscape:document-rotation="0" />
 <defs
   id="defs73">
  <style
   id="style71"
   type="text/css">
   <![CDATA[
    .fil0 {fill:black}
   ]]>
  </style>
 </defs>
 
<path
   id="path86"
   d="m 202.53309,257.59861 c -0.60716,-1.27694 -1.28091,-5.36554 -1.49722,-9.08577 -0.45078,-7.75279 0.85592,-12.07102 4.34434,-14.35673 2.47852,-1.62398 22.58853,-10.71295 22.91034,-10.35461 0.11758,0.13093 1.03432,3.53653 2.0372,7.56801 2.29719,9.23443 5.30982,16.96207 8.29085,21.26671 l 2.31664,3.34526 0.23147,-14.06996 c 0.18545,-11.27299 -0.0161,-14.44785 -1.01412,-15.97096 l -1.24559,-1.90101 h 5.82738 c 5.82172,0 5.82619,0.002 4.60219,1.86987 -0.95099,1.45139 -1.21889,5.04123 -1.19709,16.0408 l 0.0281,14.17094 1.78653,-2.11063 c 2.88524,-3.40865 6.4563,-12.03337 8.82709,-21.31896 1.21496,-4.75861 2.29943,-8.75914 2.40992,-8.89007 0.30522,-0.36169 20.43585,8.74172 22.89743,10.35461 3.48843,2.28571 4.79513,6.60394 4.34435,14.35673 -0.21631,3.72023 -0.89006,7.80883 -1.49722,9.08577 l -1.10395,2.32169 h -41.09735 -41.09737 z m -37.18972,-5.79332 c -1.38923,-4.2094 -0.65832,-11.66755 1.36598,-13.9382 0.89106,-0.99952 5.02545,-3.48151 9.18752,-5.51552 l 7.5674,-3.69822 1.93589,7.29256 c 2.12766,8.01495 4.59428,14.15055 6.0506,15.05061 1.19395,0.7379 1.32028,-18.33688 0.13611,-20.54951 -0.71694,-1.33964 -0.39765,-1.49329 2.95468,-1.42194 3.532,0.0751 4.97436,1.33978 2.95299,2.58907 -0.48898,0.3022 -0.60378,4.97 -0.29192,11.86936 l 0.51399,11.37128 H 182.0332 166.34979 Z m 126.66918,0.51673 c 0,-1.97924 0.37313,-2.53275 1.70737,-2.53275 2.287,0 8.59648,-5.93265 13.26013,-12.46817 4.21401,-5.9054 4.06529,-5.87679 11.39599,-2.19254 2.3333,1.17267 4.52481,3.03837 5.27659,4.49213 1.50641,2.91309 1.6745,8.80156 0.35894,12.57536 l -0.92684,2.65873 h -15.53609 -15.53609 z m -1.5214,-16.66265 c -3.57857,-4.72171 -3.60677,-4.8114 -1.9162,-6.09539 0.94368,-0.71674 1.96074,-2.53789 2.2601,-4.04699 0.52757,-2.65943 0.45668,-2.74423 -2.30504,-2.75701 -2.91123,-0.0135 -12.29956,-1.97944 -13.05363,-2.7335 -0.22962,-0.22964 0.4252,-1.84579 1.45516,-3.59145 1.85992,-3.15233 1.863,-3.22054 0.45252,-10.02637 -2.44151,-11.78067 -1.81211,-15.575 3.48844,-21.03031 8.02425,-8.25853 23.78113,-6.86027 29.80937,2.64527 2.89289,4.56163 3.18688,9.59082 1.09762,18.77661 -1.30058,5.71824 -1.28722,5.98894 0.46143,9.34379 0.99045,1.90022 1.61069,3.64508 1.37831,3.87746 -0.74423,0.74422 -10.11259,2.72485 -12.95309,2.7385 -1.5091,0.008 -2.74382,0.36837 -2.74382,0.80248 0,1.73112 1.83481,5.46344 3.16341,6.43494 1.26932,0.92815 1.04733,1.4981 -2.24649,5.76751 -2.01026,2.60566 -3.89375,4.72612 -4.18554,4.71213 -0.29178,-0.014 -2.16493,-2.18196 -4.16255,-4.81767 z m -99.413,-10.31875 c -2.76972,-1.12173 -6.70769,-6.15932 -8.84402,-11.31362 -1.08553,-2.61903 -2.43247,-4.76188 -2.9932,-4.76188 -1.2978,0 -2.1378,-3.2688 -1.48322,-5.77191 0.307,-1.17396 0.95222,-1.74932 1.65801,-1.47848 0.91853,0.35247 1.15543,-0.94455 1.15543,-6.32608 0,-7.37033 1.13625,-10.6419 4.45021,-12.81329 6.96863,-4.56602 16.11265,-3.72363 21.24493,1.95719 2.95231,3.26785 3.00946,3.46734 3.00946,10.50483 0,5.2887 0.2773,7.11826 1.05532,6.96265 0.6816,-0.13632 1.14724,1.05958 1.31492,3.37702 0.19248,2.66041 -0.0507,3.58807 -0.94062,3.58807 -0.66013,0 -1.84212,1.6808 -2.62667,3.7351 -3.73946,9.79163 -10.74239,14.87493 -17.00055,12.3404 z m 48.12672,-7.97624 c -1.41603,-0.61679 -3.65881,-2.4065 -4.98395,-3.97715 -2.49174,-2.95338 -8.06011,-13.80449 -8.06011,-15.70677 0,-0.59352 -0.71918,-1.07913 -1.59818,-1.07913 -1.80941,0 -2.62308,-1.57132 -2.62308,-5.06552 0,-3.24978 0.78893,-5.06552 2.20096,-5.06552 0.91334,0 1.17605,-1.60908 1.17605,-7.20326 0,-8.2238 1.25425,-12.07155 5.29634,-16.24789 6.80798,-7.0341 21.69757,-6.81552 28.58769,0.41966 3.94889,4.14666 4.95161,7.38293 4.95161,15.98132 0,5.46332 0.26471,7.05017 1.17605,7.05017 1.41202,0 2.20096,1.81574 2.20096,5.06552 0,3.4942 -0.81367,5.06552 -2.62309,5.06552 -0.87899,0 -1.59817,0.48561 -1.59817,1.07913 0,1.90315 -5.5689,12.75401 -8.06255,15.70966 -4.08939,4.84705 -10.43004,6.41803 -16.04053,3.97426 z M 37.903735,212.00894 c -0.60716,-1.27693 -1.2809,-5.36553 -1.49721,-9.08576 -0.45078,-7.7528 0.85591,-12.07102 4.34434,-14.35673 2.47852,-1.62399 22.58852,-10.71295 22.91033,-10.35461 0.11758,0.13093 1.03432,3.53653 2.03721,7.568 2.29718,9.23443 5.30981,16.96208 8.29085,21.26672 l 2.31664,3.34526 0.23146,-14.06996 c 0.18546,-11.273 -0.0161,-14.44785 -1.01411,-15.97096 l -1.2456,-1.90101 h 5.82738 c 5.82173,0 5.8262,0.002 4.6022,1.86987 -0.951,1.4514 -1.21889,5.04122 -1.19709,16.0408 l 0.0281,14.17094 1.78653,-2.11063 c 2.88524,-3.40866 6.4563,-12.03338 8.82709,-21.31896 1.21496,-4.75861 2.29943,-8.75914 2.40992,-8.89007 0.30522,-0.36169 20.435845,8.74172 22.897435,10.35461 3.48843,2.28571 4.79512,6.60393 4.34434,14.35673 -0.21631,3.72023 -0.89005,7.80883 -1.49721,9.08576 l -1.10395,2.3217 H 80.105015 39.007645 Z M 0.71401014,206.21563 c -1.38922,-4.20941 -0.65831,-11.66755 1.36597996,-13.93821 0.89107,-0.99952 5.02546,-3.4815 9.1875299,-5.51552 l 7.5674,-3.69821 1.93589,7.29256 c 2.12766,8.01495 4.59428,14.15054 6.0506,15.05061 1.193945,0.73789 1.320285,-18.33688 0.13611,-20.54951 -0.71695,-1.33964 -0.39765,-1.49329 2.954685,-1.42194 3.53199,0.0752 4.97436,1.33978 2.95299,2.58906 -0.48898,0.3022 -0.60379,4.97001 -0.29193,11.86936 l 0.514,11.37129 H 17.40385 1.7204401 Z M 127.3832,206.73236 c 0,-1.97925 0.37313,-2.53276 1.70737,-2.53276 2.287,0 8.59649,-5.93264 13.26013,-12.46816 4.21401,-5.9054 4.06529,-5.87679 11.396,-2.19254 2.3333,1.17266 4.52481,3.03837 5.27658,4.49212 1.50642,2.9131 1.6745,8.80157 0.35895,12.57536 l -0.92684,2.65874 h -15.5361 -15.53609 z m -1.52139,-16.66266 c -3.57858,-4.7217 -3.60678,-4.81139 -1.91621,-6.09538 0.94369,-0.71674 1.96074,-2.53789 2.26011,-4.04699 0.52756,-2.65943 0.45667,-2.74423 -2.30505,-2.75701 -2.91123,-0.0135 -12.29956,-1.97944 -13.05362,-2.7335 -0.22963,-0.22964 0.42519,-1.84578 1.45516,-3.59145 1.85991,-3.15233 1.863,-3.22054 0.45251,-10.02637 -2.4415,-11.78067 -1.81211,-15.575 3.48844,-21.03031 8.02425,-8.25853 23.78113,-6.86027 29.80937,2.64527 2.8929,4.56163 3.18689,9.59082 1.09762,18.77661 -1.30058,5.71824 -1.28722,5.98894 0.46143,9.34379 0.99046,1.90022 1.61069,3.64508 1.37831,3.87746 -0.74422,0.74422 -10.11259,2.72485 -12.95308,2.7385 -1.50911,0.008 -2.74383,0.36838 -2.74383,0.80248 0,1.73112 1.83481,5.46344 3.16341,6.43494 1.26933,0.92815 1.04733,1.4981 -2.24649,5.7675 -2.01026,2.60567 -3.89374,4.72613 -4.18554,4.71213 -0.29178,-0.014 -2.16493,-2.18195 -4.16254,-4.81767 z M 26.4488,179.75096 c -2.76973,-1.12173 -6.70769,-6.15932 -8.84403,-11.31362 -1.08553,-2.61903 -2.43246,-4.76188 -2.99319,-4.76188 -1.29781,0 -2.1378,-3.26879 -1.48322,-5.77191 0.307,-1.17396 0.95222,-1.74932 1.65801,-1.47848 0.91853,0.35247 1.15542,-0.94455 1.15542,-6.32608 0,-7.37033 1.13626,-10.6419 4.45021,-12.81329 6.968645,-4.56603 16.112665,-3.72363 21.244945,1.95719 2.9523,3.26785 3.00946,3.46735 3.00946,10.50483 0,5.2887 0.2773,7.11826 1.05531,6.96265 0.6816,-0.13632 1.14725,1.05958 1.31492,3.37702 0.19249,2.66041 -0.0507,3.58807 -0.94061,3.58807 -0.66013,0 -1.84213,1.6808 -2.62667,3.7351 -3.73946,9.79163 -10.74239,14.87493 -17.000555,12.3404 z m 48.126725,-7.97624 c -1.41603,-0.61679 -3.65881,-2.4065 -4.98395,-3.97715 -2.49174,-2.95338 -8.06011,-13.80449 -8.06011,-15.70677 0,-0.59352 -0.71918,-1.07913 -1.59818,-1.07913 -1.80941,0 -2.62309,-1.57132 -2.62309,-5.06552 0,-3.24978 0.78894,-5.06552 2.20096,-5.06552 0.91334,0 1.17605,-1.60908 1.17605,-7.20327 0,-8.22379 1.25426,-12.07154 5.29635,-16.24788 6.80797,-7.0341 21.69757,-6.81552 28.58768,0.41966 3.9489,4.14666 4.95162,7.38293 4.95162,15.98132 0,5.46332 0.2647,7.05017 1.176055,7.05017 1.41202,0 2.20096,1.81574 2.20096,5.06552 0,3.4942 -0.81368,5.06552 -2.62309,5.06552 -0.878995,0 -1.598185,0.48561 -1.598185,1.07913 0,1.90315 -5.56889,12.75401 -8.06254,15.70966 -4.08939,4.84705 -10.43004,6.41803 -16.04053,3.97426 z M 161.16469,99.723295 c -0.60716,-1.276933 -1.28091,-5.365532 -1.49722,-9.085766 -0.45078,-7.752793 0.85592,-12.07102 4.34434,-14.356726 2.47852,-1.623988 22.58853,-10.712954 22.91034,-10.354611 0.11758,0.130926 1.03432,3.536525 2.0372,7.568002 2.29719,9.234431 5.30982,16.962073 8.29085,21.266717 l 2.31664,3.34526 0.23147,-14.069958 c 0.18546,-11.272999 -0.0161,-14.447854 -1.01412,-15.970963 l -1.24559,-1.901013 h 5.82738 c 5.82172,0 5.82619,0.0017 4.60219,1.869869 -0.95099,1.451397 -1.21889,5.041229 -1.19709,16.040807 l 0.0281,14.170939 1.78653,-2.110632 c 2.88524,-3.408655 6.4563,-12.033375 8.82709,-21.318959 1.21496,-4.758616 2.29943,-8.759143 2.40992,-8.890069 0.30522,-0.361695 20.43585,8.741716 22.89744,10.354611 3.48843,2.285706 4.79512,6.603933 4.34434,14.356726 -0.21631,3.720234 -0.89006,7.808833 -1.49722,9.085766 l -1.10394,2.321695 H 203.36598 162.26861 Z M 123.97497,93.92998 c -1.38923,-4.209403 -0.65832,-11.667551 1.36598,-13.938204 0.89106,-0.999519 5.02545,-3.481505 9.18752,-5.515521 l 7.5674,-3.698217 1.93589,7.292565 c 2.12766,8.01495 4.59428,14.150542 6.0506,15.050608 1.19395,0.737894 1.32028,-18.33688 0.13611,-20.549515 -0.71694,-1.339636 -0.39765,-1.49329 2.95468,-1.421942 3.532,0.07522 4.97436,1.339787 2.95299,2.589071 -0.48898,0.3022 -0.60378,4.970008 -0.29192,11.869362 l 0.51399,11.371286 H 140.6648 124.98139 Z m 126.66918,0.516734 c 0,-1.97925 0.37313,-2.532759 1.70737,-2.532759 2.287,0 8.59648,-5.932642 13.26013,-12.468165 4.214,-5.905398 4.06529,-5.876787 11.396,-2.192542 2.33329,1.172667 4.52481,3.038373 5.27658,4.492126 1.50642,2.913095 1.6745,8.801566 0.35894,12.57536 l -0.92684,2.658739 h -15.53609 -15.53609 z m -1.5214,-16.662659 c -3.57857,-4.721705 -3.60677,-4.811398 -1.91621,-6.095389 0.94369,-0.716737 1.96075,-2.537884 2.26011,-4.046986 0.52757,-2.659431 0.45668,-2.744227 -2.30504,-2.75701 -2.91123,-0.01347 -12.29956,-1.979447 -13.05363,-2.733508 -0.22962,-0.22963 0.42519,-1.845779 1.45516,-3.591439 1.85992,-3.152336 1.863,-3.220549 0.45252,-10.026376 -2.44151,-11.780665 -1.81212,-15.575002 3.48843,-21.030307 8.02426,-8.258533 23.78114,-6.860274 29.80938,2.645271 2.89289,4.561623 3.18689,9.590812 1.09762,18.776613 -1.30059,5.718227 -1.28722,5.988935 0.46143,9.343785 0.99045,1.90022 1.61069,3.645076 1.37831,3.877455 -0.74423,0.744219 -10.11259,2.724853 -12.95309,2.738506 -1.5091,0.0073 -2.74382,0.368373 -2.74382,0.80248 0,1.731115 1.83481,5.46344 3.16341,6.434939 1.26932,0.928155 1.04733,1.498101 -2.24649,5.767506 -2.01026,2.605669 -3.89375,4.726128 -4.18554,4.712131 -0.29178,-0.01402 -2.16493,-2.181955 -4.16255,-4.817671 z m -99.413,-10.318748 c -2.76972,-1.121725 -6.70769,-6.159317 -8.84402,-11.313614 -1.08553,-2.619036 -2.43247,-4.761884 -2.9932,-4.761884 -1.2978,0 -2.1378,-3.268799 -1.48322,-5.771909 0.307,-1.173965 0.95222,-1.749324 1.65801,-1.478487 0.91853,0.352473 1.15542,-0.944552 1.15542,-6.326075 0,-7.370329 1.13626,-10.641902 4.45021,-12.813289 6.96864,-4.566023 16.11266,-3.723631 21.24494,1.957188 2.95231,3.267852 3.00946,3.467342 3.00946,10.50483 0,5.288706 0.2773,7.118257 1.05532,6.962655 0.68159,-0.136319 1.14724,1.059582 1.31492,3.377012 0.19248,2.660406 -0.0507,3.588075 -0.94062,3.588075 -0.66013,0 -1.84212,1.680795 -2.62667,3.735099 -3.73946,9.791633 -10.74239,14.874931 -17.00055,12.340399 z m 48.12673,-7.976237 c -1.41604,-0.616788 -3.65882,-2.406508 -4.98396,-3.977156 -2.49174,-2.953383 -8.06011,-13.804491 -8.06011,-15.706766 0,-0.593524 -0.71918,-1.079134 -1.59818,-1.079134 -1.80941,0 -2.62308,-1.571311 -2.62308,-5.065518 0,-3.249775 0.78893,-5.065518 2.20095,-5.065518 0.91335,0 1.17606,-1.609083 1.17606,-7.203268 0,-8.223796 1.25425,-12.0715454 5.29634,-16.2478884 6.80798,-7.034093 21.69757,-6.815516 28.58769,0.419662 3.94889,4.146658 4.95161,7.3829354 4.95161,15.9813254 0,5.463323 0.26471,7.050169 1.17605,7.050169 1.41202,0 2.20096,1.815743 2.20096,5.065518 0,3.494207 -0.81367,5.065518 -2.62308,5.065518 -0.879,0 -1.59818,0.48561 -1.59818,1.079134 0,1.903152 -5.5689,12.754007 -8.06255,15.70966 -4.08939,4.847048 -10.43004,6.418033 -16.04052,3.974262 z"
   style="fill:#000000;stroke-width:0.844253" /></svg>
