<?xml version="1.0" encoding="UTF-8" standalone="no"?>
<svg
   xmlns:dc="http://purl.org/dc/elements/1.1/"
   xmlns:cc="http://creativecommons.org/ns#"
   xmlns:rdf="http://www.w3.org/1999/02/22-rdf-syntax-ns#"
   xmlns:svg="http://www.w3.org/2000/svg"
   xmlns="http://www.w3.org/2000/svg"
   xmlns:sodipodi="http://sodipodi.sourceforge.net/DTD/sodipodi-0.dtd"
   xmlns:inkscape="http://www.inkscape.org/namespaces/inkscape"
   inkscape:version="1.0 (4035a4fb49, 2020-05-01)"
   sodipodi:docname="ИМЯ.svg"
   version="1.1"
   id="svg6506"
   width="358.99841"
   height="362.0697"
   viewBox="0 0 358.99841 362.0697">
  <sodipodi:namedview
     inkscape:current-layer="g6514"
     inkscape:window-maximized="1"
     inkscape:window-y="-6"
     inkscape:window-x="-6"
     inkscape:cy="298.26604"
     inkscape:cx="336.08731"
     inkscape:zoom="0.8226727"
     showgrid="false"
     id="namedview7"
     inkscape:window-height="1018"
     inkscape:window-width="1920"
     inkscape:pageshadow="2"
     inkscape:pageopacity="0"
     guidetolerance="10"
     gridtolerance="10"
     objecttolerance="10"
     borderopacity="1"
     bordercolor="#666666"
     pagecolor="#ffffff"
     inkscape:document-rotation="0" />
  <metadata
     id="metadata6512">
    <rdf:RDF>
      <cc:Work
         rdf:about="">
        <dc:format>image/svg+xml</dc:format>
        <dc:type
           rdf:resource="http://purl.org/dc/dcmitype/StillImage" />
        <dc:title></dc:title>
      </cc:Work>
    </rdf:RDF>
  </metadata>
  <defs
     id="defs6510">
    <clipPath
       id="clipPath130"
       clipPathUnits="userSpaceOnUse">
      <path
         d="M 0.85922619,6.8758185 V 367.87582 H 360.85923 V 145.75668 c -1.91235,0.34938 -4.3159,-0.51723 -4.66797,-3.40821 -0.12346,-1.01377 -0.10098,-2.00627 -0.28125,-3.02148 -0.35274,-2.39979 -0.21018,-1.91511 -0.90039,-4.39453 -0.4051,-1.45519 -0.76196,-2.24006 -1.10156,-3.75196 -0.14457,-0.64342 0.1175,-1.34503 -0.22266,-1.96484 -0.35472,-2.17579 -0.10447,-0.74278 -0.33398,-1.7168 -1.0382,-1.84369 -1.53799,-3.59368 -2.05078,-5.74218 -0.70176,-2.94027 -1.00911,-5.9077 -1.25586,-8.90625 -0.18676,-0.92854 -0.32329,-1.842 -0.51953,-2.81836 -0.0777,-0.3866 -0.39091,-1.75442 -0.58399,-2.16602 -0.19046,-0.40602 -0.46192,-0.7682 -0.69336,-1.15234 -0.37475,-0.93305 -0.25219,-0.59736 -0.75586,-2.18359 -0.0172,-0.0544 0.0682,0.21103 0.0742,0.15429 0.01,-0.0883 -0.0369,-0.17281 -0.0625,-0.25781 -0.0762,-0.25354 -0.21694,-0.4925 -0.24414,-0.75586 -0.0489,-0.47244 -0.0568,-0.94837 -0.0606,-1.42383 -1.40682,-3.359187 -0.30885,-0.57883 -2.44531,-6.175779 -0.6103,-1.539572 -1.21978,-3.077614 -1.83008,-4.617188 -0.4159,-1.194445 -0.78414,-2.40735 -1.24804,-3.583984 -0.31892,-0.808886 -0.77253,-1.560778 -1.09766,-2.367187 -0.44883,-1.113214 -0.75283,-2.268155 -0.73828,-3.470703 -0.94613,-2.692267 -1.85734,-5.398247 -2.81055,-8.087891 -1.71122,-5.869484 -3.34326,-10.517452 -4.29101,-16.15625 -1.4845,-1.908615 -2.09426,-2.795041 -3.78125,-4.544922 -0.67395,-0.699078 -1.40586,-1.338143 -2.09961,-2.017578 -0.89822,-0.879682 -1.7712,-1.787103 -2.67774,-2.658203 -7.07417,-6.797594 0.6379,0.80175 -5.03711,-4.826172 -3.6004,-1.604655 -7.22166,-3.161534 -10.83984,-4.726563 -10.93304,-4.731328 2.86926,1.171194 -7.45899,-3.029297 -1.47163,-0.598517 -2.90903,-1.277174 -4.37695,-1.884765 -3.54914,-1.469036 -7.16676,-2.782468 -10.65625,-4.394531 -0.67419,-0.360344 -1.37288,-0.677425 -2.02148,-1.082032 -3.92496,-2.448479 -0.0722,-0.160031 -2.42774,-1.996093 -0.52375,-0.408241 -1.09126,-0.757274 -1.65429,-1.109375 -2.29119,-1.432851 -1.85963,-1.143025 -4.25586,-2.179688 -2.19664,-0.950313 -3.30855,-2.432561 -3.50586,-3.734375 -0.56285,-0.203632 -0.93311,-0.303452 -4.00391,-1.109375 -5.09214,-1.336414 -4.86943,-5.842195 -0.78906,-6.121094 0.58291,-0.03984 1.24437,0.0079 1.98047,0.16211 4.65186,0.974601 8.99655,2.971045 13.57031,4.220703 0.68818,0.188026 1.39188,0.31218 2.08789,0.46875 l 2.24609,0.625 c 1.98647,0.59942 4.04056,1.076243 5.9668,1.861328 2.64057,1.076228 5.11439,2.545216 7.63672,3.863281 5.11298,2.864398 10.01979,6.079896 14.83789,9.41211 1.32678,0.917611 2.69039,1.790008 3.94922,2.798828 1.09872,0.880508 2.10485,1.869487 3.13867,2.826172 0.42855,0.192645 0.86141,0.375611 1.28906,0.570312 3.25198,1.480555 5.29133,2.381298 8.38086,4.136719 0.62799,0.356812 1.2438,0.734293 1.85742,1.115234 -0.21947,-3.007214 -0.52291,-6.017832 -0.30664,-9.035156 0.10435,-1.455817 0.68387,-5.726295 0.90235,-7.386719 0.10533,-0.805952 0.21875,-1.611069 0.3164,-2.417968 -0.0838,-0.284876 -0.0751,-0.558357 0.084,-0.808594 0.11945,-1.633633 0.31255,-1.878911 3.72461,-1.236328 0.47876,9.1e-4 0.94037,-0.0077 1.4082,0.0039 0.85532,-0.450268 1.50373,-0.661279 1.99219,-0.652344 1.4729,0.02694 1.60965,1.909775 2.40039,4.25586 0.37423,1.712756 0.74881,3.425913 1.12305,5.138671 0.0858,0.371948 0.17353,0.743393 0.25976,1.115235 1.87741,4.401727 3.20551,7.526485 4.7832,11.755859 0.32111,0.228455 0.65275,0.499503 1.01563,0.863281 0.52597,0.527274 0.75282,1.286865 1.12891,1.929688 0.42718,1.179603 0.942,2.33123 1.28125,3.539062 0.73171,2.605134 1.38443,6.292391 1.39843,9.011719 0.003,0.649888 0.20454,1.494878 0.22071,2.216797 1.73897,2.320805 3.55029,4.589605 5.0332,7.085938 V 6.8758185 Z M 350.7811,45.166834 c -0.79061,-0.562524 -1.48521,-0.733316 -2.18945,-0.492187 0.004,0.01896 0.009,0.03768 0.0137,0.05664 0.37697,1.696787 0.74139,3.395672 1.10352,5.095703 0.58893,-0.343754 1.17037,-0.72845 1.80664,-0.93164 -0.0477,-0.45195 -0.19583,-0.856787 -0.57422,-1.300781 0.20067,0.29997 0.46625,0.565815 0.60156,0.90039 0.46741,1.155769 0.4158,1.291294 0.4043,2.216797 -9.3e-4,0.07955 0.0338,0.194296 0.0547,0.294922 -0.007,-0.0052 -0.007,-0.01682 -0.0195,-0.01758 -0.0839,-0.005 -0.16798,-0.0051 -0.25196,-0.0078 -4.6e-4,0.08969 6.6e-4,0.151167 0,0.246094 0.0697,-0.0019 0.1393,-7e-5 0.20899,-0.0039 0.0394,-0.0022 0.0587,-0.02396 0.0684,-0.05469 -0.0229,0.07235 -0.0542,0.152836 -0.0488,0.208985 0.0674,0.707742 0.16002,1.411601 0.26172,2.115234 0.29285,2.026101 0.62433,4.047242 0.95312,6.068359 0.11431,0.126469 0.24745,0.237724 0.36719,0.359375 0.30775,0.312645 0.61143,0.627578 0.91797,0.941407 0.36764,0.521937 0.75157,1.032592 1.13281,1.544922 0.17727,-1.955563 -0.45206,-4.351435 -0.93945,-6.025391 -0.7132,-2.449543 -1.55754,-4.859932 -2.41797,-7.261719 -0.56746,-1.584006 -1.00709,-2.757428 -1.45313,-3.953125 z m -1.07226,4.660156 c -0.10714,0.06253 -0.21721,0.114585 -0.32617,0.169922 0.16933,0.230459 0.33289,0.436981 0.49219,0.623047 -0.0561,-0.264157 -0.10976,-0.528861 -0.16602,-0.792969 z m -1.11719,-5.152343 c -0.83612,-3.760985 -1.72332,-7.510453 -2.59375,-11.263672 -0.42911,-1.006088 -0.6439,-1.520295 -1.17969,-2.78711 -0.30917,-0.616836 -0.60969,-1.239002 -0.91211,-1.859375 0.16693,1.333667 0.3581,2.664235 0.59766,3.986329 0.93167,5.141671 1.77355,8.511819 2.83399,12.724609 0.43838,-0.398365 0.84882,-0.662083 1.2539,-0.800781 z m -1.2539,0.800781 c -0.42649,-0.607152 -0.88532,-1.40057 -1.56836,-1.322266 -0.5896,0.06759 -1.13869,0.271524 -1.67188,0.533203 0.42089,1.078947 0.91318,2.39081 1.41602,3.757813 -0.0542,-0.411133 -0.0548,-0.80244 0.18359,-1.111328 0.60473,-0.78363 1.14165,-1.401879 1.64063,-1.855469 0,0 0,-0.002 0,-0.002 z m 0,0.002 c 0.2146,0.852551 0.4079,1.641751 0.63085,2.542969 0.42903,0.570451 0.87073,1.229392 1.29493,1.818359 -0.41546,-1.328084 -1.06204,-3.228512 -1.76953,-4.140625 -0.051,-0.06576 -0.10463,-0.147235 -0.15625,-0.220703 z m -1.82422,2.966797 c 0.01,0.07418 0.0226,0.149446 0.0352,0.224609 0.006,-0.02795 0.01,-0.05605 0.0156,-0.08398 -0.0173,-0.04724 -0.0341,-0.09515 -0.0508,-0.140625 z m -1.41602,-3.757813 c -1.12235,-2.877112 -2.31792,-5.682331 -3.91601,-9.449218 0.80017,3.443864 1.61153,6.885531 2.38281,10.335937 0.50532,-0.316317 1.01051,-0.630191 1.5332,-0.886719 z m -1.5332,0.886719 c -0.42266,0.264572 -0.85123,0.514432 -1.28516,0.740235 0.33308,1.330918 0.66765,2.661975 0.99805,3.990234 0.10347,0.358769 0.20665,0.717552 0.31055,1.076172 0.27111,0.20291 0.63192,0.450222 1.01171,0.705078 -0.54542,-1.776316 -0.58385,-2.011579 -1.01953,-2.759766 -10e-4,5.1e-5 -0.003,-5e-5 -0.004,0 -0.28865,0.01117 -0.58142,-0.999333 -0.43555,-0.75 0.20342,0.347707 0.32314,0.550249 0.43945,0.75 0.26373,-0.01037 0.52321,-0.05233 0.78321,-0.0918 -0.22575,-1.045804 -0.44765,-2.092295 -0.67969,-3.136718 -0.0388,-0.1747 -0.0801,-0.348789 -0.11914,-0.523438 z m 0.79883,3.660156 c 0.22645,1.04906 0.44313,2.100395 0.66601,3.150391 0.002,9.99e-4 0.002,9.53e-4 0.004,0.002 0.51031,0.331141 1.05181,0.609124 1.59375,0.886719 -10e-4,0.09245 0.0157,-1.063273 0.0312,-2.955078 -0.0776,-0.257011 -0.12587,-0.576031 -0.16211,-1.136719 -0.01,-0.148587 0.0128,-0.296122 0.041,-0.443359 -0.71957,0.201486 -1.44271,0.385099 -2.17382,0.496093 z m -2.08399,-2.919921 c -0.46929,-1.875227 -0.91847,-3.75567 -1.35351,-5.640626 0.0944,1.188097 0.20674,2.377378 0.22265,3.56836 0.0122,0.907612 -0.0709,1.813671 -0.10547,2.720703 -0.17175,0.546486 -0.32254,1.100382 -0.50586,1.642578 0.60674,0.567998 1.0927,1.035478 1.4629,1.402344 -8.7e-4,-0.04569 -0.001,-0.03525 -0.002,-0.08203 -0.0215,-1.163384 0.0455,-2.326877 0.0684,-3.490235 0.0725,-0.03513 0.14109,-0.08373 0.21289,-0.121094 z m -1.35351,-5.640626 c -0.061,-0.767538 -0.11509,-1.53534 -0.12891,-2.304687 -0.0219,-1.217875 0.06,-2.426252 0.17383,-3.632813 -0.23574,-0.556432 -0.32143,-0.761019 -0.58594,-1.388671 -0.46146,-0.921219 -0.92127,-1.843458 -1.38476,-2.763672 0.46196,3.393366 1.15487,6.749682 1.92578,10.089843 z m -1.92578,-10.089843 c -0.12514,-0.919121 -0.23767,-1.839298 -0.32813,-2.763672 -0.0863,-0.882277 -0.70452,-2.145916 0.0176,-2.660156 0.84762,-0.60363 1.55671,-1.061601 2.17383,-1.41211 -0.37959,-0.07352 -0.73256,-0.137702 -1.04883,-0.197265 -1.41282,-0.0027 -2.79539,0.133771 -3.64063,1.113281 -0.0347,0.04024 -0.0576,0.0816 -0.084,0.123047 -0.0149,0.20447 -0.0236,0.319675 -0.0527,0.570312 -0.009,0.07957 -0.0216,0.158762 -0.0312,0.238282 0.2672,0.90881 1.48698,1.951831 1.9336,2.873046 0.34406,0.709682 0.70574,1.410838 1.06055,2.115235 z m 1.86328,-6.835938 c 0.48994,0.0949 0.74675,0.139515 1.35351,0.25586 0.0287,0.0055 0.0514,0.02068 0.0781,0.0293 0.046,-0.249246 0.0612,-0.469482 -0.12696,-0.464844 -0.2989,0.0074 -0.62625,-0.0058 -0.94531,-0.01367 -0.11614,0.06114 -0.23495,0.12269 -0.35937,0.193359 z m 1.43164,0.285157 c -0.0313,0.169575 -0.0768,0.354477 -0.082,0.482421 -0.0134,0.330507 -0.0815,0.869421 -0.13477,1.353516 0.33801,-0.102111 0.72534,-0.202635 1.20898,-0.302734 -0.27856,-0.551017 -0.43934,-1.355335 -0.99218,-1.533203 z m 0.99218,1.533203 c 0.0102,0.02022 0.0187,0.04695 0.0293,0.06641 0.55976,1.0289 1.07649,2.079671 1.58984,3.132812 -0.075,-0.599465 -0.15741,-1.197814 -0.21679,-1.798828 -0.055,-0.556699 0.6275,-1.77077 0.0762,-1.675781 -0.56821,0.0979 -1.05042,0.186788 -1.47852,0.275391 z m -1.20898,0.302734 c -1.6125,0.487133 -1.79188,1.079907 -2.40234,2.580078 0.37481,1.715394 0.74823,3.429137 1.12304,5.144531 0.0654,0.283866 0.13154,0.56776 0.19727,0.851563 0.18919,-1.883437 0.47315,-3.759671 0.7207,-5.638672 0.0781,-0.597942 0.2388,-1.823299 0.36133,-2.9375 z m -1.08203,8.576172 c -0.01,0.09692 -0.0163,0.194052 -0.0254,0.291015 0.0852,0.201007 0.12914,0.309161 0.21094,0.501954 -0.0614,-0.264369 -0.12431,-0.528558 -0.18555,-0.792969 z m -0.15625,47.587891 c 0.59181,1.684045 1.19503,3.364146 1.83789,5.029296 1.68786,4.371914 3.89331,9.202171 6.01367,13.703128 0.42427,-0.56207 0.82162,-1.170983 1.39453,-1.478518 0.01,-1.48195 0.0332,-2.958406 0.0488,-4.132813 0.0611,-1.42551 0.0875,-2.850427 0.0957,-4.27539 -0.19201,-0.482448 -0.38437,-0.964761 -0.57617,-1.447266 -0.49441,-1.385336 -0.94263,-2.787954 -1.48242,-4.15625 -0.4775,-1.210418 -1.35598,-2.236024 -1.26367,-3.585937 -0.0185,-0.420695 -0.0295,-0.593518 -0.0391,-0.810547 -0.26603,-0.747934 -0.52926,-1.497817 -0.78907,-2.248047 -0.0717,0.107318 -0.10315,0.15845 -0.18945,0.287109 -0.15168,0.226135 -0.0754,-0.124621 0.10352,-0.53125 -0.53491,-1.547574 -1.06927,-3.095433 -1.60547,-4.642578 -0.61045,-1.023318 -1.21576,-2.049939 -1.8418,-3.064453 -0.20337,-0.332372 -0.40594,-0.665476 -0.60937,-0.998047 -0.0431,0.463656 -0.0825,0.911033 -0.13672,1.410156 -0.12959,1.191767 -0.37285,2.368421 -0.5586,3.552735 -0.10075,0.425516 -0.72369,1.164221 -0.30078,1.27539 0.0447,0.01174 0.0846,-0.0072 0.125,-0.03125 0.16655,-0.386022 0.33667,-0.770523 0.4375,-1.175781 0.0961,-0.386301 -0.0892,0.968708 -0.4375,1.175781 -0.17884,0.414513 -0.35293,0.830364 -0.43359,1.271485 -0.11716,0.640679 0.039,1.3024 0.0664,1.953125 0.04,0.948177 0.0952,1.895642 0.13672,2.84375 -6e-4,0.02564 0.004,0.05058 0.004,0.07617 z m 5.1543,-3.646485 c 0.0282,0.08152 0.0577,0.162639 0.0859,0.244141 0.29515,-0.442041 0.45828,-0.71905 0.58203,-0.960938 -0.0188,-0.03327 -0.0378,-0.06636 -0.0566,-0.09961 -0.23145,0.100255 -0.45902,0.470207 -0.61132,0.816406 z m 0.875,2.492188 c 0.45142,1.269184 0.91,2.534056 1.39453,3.791015 0.59333,1.539222 1.26287,3.143002 1.96093,4.765625 -0.002,-0.913985 -0.001,-1.827941 -0.0117,-2.742187 0,-0.804683 9.5e-4,-1.609376 0.002,-2.414063 -0.73238,-1.502654 -1.79064,-3.452842 -2.14453,-4.107422 -0.3844,-0.710998 -0.79431,-1.406697 -1.18946,-2.111328 -0.0406,0.269063 -0.1205,0.583047 -0.10937,0.792969 0.0635,1.199135 0.0738,1.483078 0.0977,2.025391 z m 1.82226,19.886721 c -0.15994,0.21189 -0.32431,0.41748 -0.5039,0.5957 0.009,0.29523 0.009,0.59103 0.0117,0.88672 0.0779,0.18607 0.022,0.0489 0.11719,0.27734 0.11039,0.26488 0.0635,0.93073 0.31836,0.79883 0.32692,-0.16919 0.68083,-0.33278 1.03125,-0.49805 -0.32098,-0.67567 -0.64694,-1.365 -0.97461,-2.06054 z m 0.97461,2.06054 c 0.0924,0.19451 0.18769,0.40123 0.2793,0.59375 0.0654,-0.0524 0.13998,-0.0957 0.20898,-0.14453 -0.01,-0.178 -0.0322,-0.35493 -0.0391,-0.5332 -0.002,-0.0393 -5.4e-4,-0.0949 -0.002,-0.13477 -0.14994,0.0718 -0.29803,0.14837 -0.44727,0.21875 z m 0.2793,0.59375 c -0.28961,0.2319 -0.55502,0.48769 -0.75196,0.81446 -0.27413,0.45486 0.34271,0.69069 1.08789,0.79102 -0.0353,-0.35539 -0.0512,-0.71229 -0.0781,-1.06837 -0.036,-0.0737 -0.12688,-0.26078 -0.13477,-0.27734 -0.04,-0.0839 -0.0829,-0.17543 -0.12304,-0.25977 z m 1,-52.472652 c -0.11258,3.69e-4 -0.22529,0.003 -0.33789,0.0039 0.0333,0.110015 0.0505,0.169242 0.082,0.273438 0.10548,0.004 0.21094,0.0066 0.3164,0.0098 -0.0203,-0.09568 -0.0403,-0.19143 -0.0605,-0.287109 z m -1.15235,0.01758 c -0.40433,0.0069 -0.80854,0.0076 -1.21289,0.01758 0.001,0.0038 0.002,0.008 0.004,0.01172 0.41949,0.03126 0.8386,0.0832 1.25781,0.142578 -0.0167,-0.05716 -0.0321,-0.114714 -0.0488,-0.171875 z m -2.35156,0.01362 c 0.004,0.01015 0.006,0.01713 0.01,0.02734 0.23433,-0.0039 0.46872,-0.0078 0.70312,-0.01367 -1.8e-4,-0.0033 -0.002,-0.0065 -0.002,-0.0098 -0.23697,-0.0088 -0.47394,-0.01144 -0.71094,-0.0039 z m 0.0352,0.09766 c 0.0268,0.07447 0.0443,0.117191 0.0723,0.195313 0.0137,0.03837 0.0273,0.07684 0.041,0.115234 0.21409,0.04541 0.40125,0.08935 0.59766,0.134766 -0.007,-0.137453 -0.018,-0.274706 -0.0254,-0.41211 -0.22853,-0.01125 -0.45706,-0.02365 -0.68554,-0.0332 z m 1.16211,0.05664 c 0.0666,0.170217 0.15028,0.388125 0.20898,0.539062 0.47837,0.120748 0.88071,0.234757 1.24805,0.345703 -0.0805,-0.275725 -0.15755,-0.552454 -0.23828,-0.828124 -0.40621,-0.0196 -0.81248,-0.03562 -1.21875,-0.05664 z m 2.0625,0.130859 c 0.11915,0.394107 0.21535,0.722937 0.31054,1.042969 0.0871,0.02974 0.15638,0.05117 0.23438,0.07813 -0.0754,-0.357328 -0.14895,-0.715008 -0.22461,-1.072266 -0.10677,-0.01702 -0.21354,-0.03184 -0.32031,-0.04883 z m 2.02929,0.28711 c -0.004,0.433812 -1.4e-4,0.600266 -0.006,1.0625 0.11512,-0.157673 0.15262,-0.479507 0.2168,-1.035157 -0.0703,-0.0068 -0.14065,-0.01965 -0.21094,-0.02734 z m -12.04492,5.201172 c 0.37784,0.487447 0.87858,1.192037 1.67774,2.335937 -5.9e-4,-0.173076 0.003,-0.306786 0.002,-0.484375 -0.002,-0.438187 -0.009,-0.427726 -0.0117,-0.785156 -0.33436,-0.192442 -0.6731,-0.377706 -0.99414,-0.591797 -0.28819,-0.192182 -0.43748,-0.310561 -0.67383,-0.474609 z m 4.95313,2.880859 c 0.11044,0.176277 0.24051,0.338731 0.41992,0.466797 0.0564,0.04024 0.10285,0.07026 0.1582,0.109375 0.0158,-0.03405 0.04,-0.07431 0.043,-0.101563 0.006,-0.05693 0.007,-0.08252 0.0117,-0.132812 -0.0784,-0.03998 -0.45887,-0.249061 -0.63281,-0.341797 z m 0.57812,0.576172 c -0.0158,0.03405 -0.0233,0.0603 0.004,0.05664 0.0232,-0.0031 0.0488,-0.003 0.0723,-0.0059 -0.0261,-0.01837 -0.0498,-0.03216 -0.0762,-0.05078 z m 0.0762,0.05078 c 0.0869,0.06109 0.16565,0.115503 0.25,0.173828 -0.0128,-0.07578 -0.019,-0.114836 -0.0312,-0.1875 -0.0724,0.0059 -0.14794,0.0051 -0.21875,0.01367 z m 0.21875,-0.01367 c 0.0459,-0.0038 0.0922,-0.0069 0.13868,-0.0098 -0.004,-0.02082 -0.008,-0.04168 -0.0117,-0.0625 -0.0125,-0.0064 -0.13784,-0.07469 -0.15235,-0.08203 0.009,0.05634 0.0154,0.09452 0.0254,0.154297 z m 0.13868,-0.0098 c 0.0201,0.104988 0.0424,0.209471 0.0625,0.314454 0.60435,0.412824 1.13718,0.747061 1.61718,1.021484 -0.0577,-0.121029 -0.11072,-0.244058 -0.13281,-0.375 -0.0119,-0.07064 0.0341,-0.0075 0.0957,0.08203 -0.005,-0.0279 -0.007,-0.05609 -0.0117,-0.08398 -0.12436,-0.180971 -0.22975,-0.318793 -0.0742,-0.06836 -1.24296,-0.766744 -1.29759,-0.808003 -1.46094,-0.892579 -0.0313,0.0016 -0.0646,6.2e-5 -0.0957,0.002 z m 0.0625,0.314454 c -0.0561,-0.03828 -0.11274,-0.07765 -0.16993,-0.117188 0.0329,0.194956 0.0428,0.265524 0.0801,0.482422 0.0607,0.02605 0.11916,0.05924 0.17969,0.08594 -0.029,-0.150591 -0.061,-0.300552 -0.0898,-0.451172 z m 0.0898,0.451172 c 0.1204,0.624797 0.24786,1.248093 0.37695,1.871093 0.009,-0.06355 0.0228,-0.118549 0.0605,-0.146484 0.37466,-0.277438 0.76613,-0.532287 1.16211,-0.777344 1.6e-4,-0.01236 -10e-6,-0.02474 0,-0.03711 -0.01,-0.05469 -0.0198,-0.109334 -0.0293,-0.164063 -0.51921,-0.261312 -1.0421,-0.51317 -1.57031,-0.746093 z m 1.59961,0.947265 c -0.0278,2.083438 -0.11195,4.165602 -0.25586,6.248047 0.68578,1.122987 1.36533,2.249436 2.0332,3.382812 -0.0227,-0.215104 -0.0489,-0.42747 -0.0938,-0.597656 -0.90339,-3.429767 -0.11354,1.552415 -1.0664,-3.597656 -0.26876,-1.452638 -0.32958,-2.943832 -0.42579,-4.414062 -0.0612,-0.341924 -0.12437,-0.683482 -0.18554,-1.025391 -0.002,0.0012 -0.004,0.0027 -0.006,0.0039 z m -1.22266,0.923828 c -0.0398,0.296064 0.17509,0.860231 0.12891,0.646485 -0.0464,-0.214791 -0.0843,-0.431317 -0.12891,-0.646485 z m 9.1211,9.488281 c 0.007,0.587491 -0.002,1.176405 -0.002,1.664063 7.1e-4,2.982799 -0.005,5.964933 -0.008,8.947266 0.0116,0.02946 0.0404,0.0838 0.0508,0.111328 0.26859,0.71341 0.39555,1.470953 0.59375,2.207031 0.0653,0.454306 0.0948,0.915458 0.19531,1.363281 0.21997,0.979743 0.47196,0.917631 0.98047,1.908203 0.51238,0.998104 0.98375,2.01775 1.43946,3.042969 0.53666,1.207328 1.02473,2.434518 1.53711,3.652344 0.25724,0.575391 0.51426,1.151027 0.77148,1.726562 V 84.05157 c -0.73144,-1.548991 -0.31556,-0.998215 -1.07031,-2.816407 -0.23096,-0.55637 -0.49646,-1.097041 -0.75196,-1.642578 -0.32598,-0.696011 -0.66139,-1.38829 -0.99218,-2.082031 -0.71831,-1.379393 -1.37611,-2.7902 -2.14063,-4.144531 -0.19313,-0.342133 -0.39605,-0.675769 -0.60351,-1.00586 z m -0.13868,26.769532 c -0.01,1.170578 -0.0162,2.366938 0.0117,3.164068 6.4e-4,0.0183 0.003,0.0364 0.004,0.0547 0.61756,1.2778 1.23808,2.55436 1.85937,3.83007 0.65154,1.3378 1.26829,2.69277 1.96094,4.00977 0.5821,1.1068 1.24117,2.17188 1.86133,3.25781 v -2.74414 c -1.57833,-2.75675 -2.86692,-5.67111 -4.32031,-8.49218 -0.45868,-1.02683 -0.91778,-2.05347 -1.37696,-3.080086 z m 0.9004,12.757818 c 0.16075,2.05722 0.35395,4.04848 0.68164,6.05273 0.42303,0.40228 0.86151,0.69363 1.29492,0.88086 0.005,-0.57419 0.006,-1.15284 -0.0899,-1.71875 -0.10333,-0.60728 -0.71866,-1.8089 -0.96484,-2.33203 -0.21789,-0.58204 -0.47931,-1.14919 -0.65234,-1.74609 -0.10858,-0.37458 -0.18749,-0.75601 -0.26953,-1.13672 z m 1.97656,6.93359 c -7e-5,0.008 7e-5,0.0169 0,0.0254 -8.8e-4,0.10999 -0.031,0.21725 -0.0605,0.32422 0.008,-0.009 0.0164,-0.0247 0.0273,-0.0195 0.10263,0.0483 0.0763,0.21379 0.11524,0.32031 0.0594,0.42553 0.12029,0.84986 0.17969,1.27539 0.0687,0.3309 0.15327,0.66017 0.20507,0.99414 0.0821,0.52947 0.11202,1.06446 0.19532,1.59375 0.18755,1.19227 0.26883,1.50534 0.36718,1.85547 0.3246,0.37688 0.67695,0.73291 0.9961,1.11328 h 0.002 c 0.32446,0.38671 0.57436,0.76924 0.79297,1.14844 v -8.9668 c -0.7029,0.62857 -1.74291,0.80139 -2.82031,0.33594 z m -0.0605,0.34961 c -0.0467,0.0521 -0.0543,0.27891 -0.0469,0.21094 0.008,-0.071 0.0277,-0.14145 0.0469,-0.21094 z m 2.88086,12.91406 c -0.09,0.0884 -0.19603,0.15548 -0.29883,0.22656 0.0836,0.27404 0.17875,0.54444 0.25586,0.82032 0.0193,0.0691 0.0248,0.091 0.043,0.15625 z"
         style="fill:#ffffff;fill-opacity:0;fill-rule:evenodd;stroke:#ffffff"
         id="path132" />
    </clipPath>
  </defs>
  <g
     transform="translate(20.493121,-24.595562)"
     id="g6514">
    <path
       id="path10"
       d="M 100.01204,386.33033 C 15.117918,386.01666 -7.2960417,385.81662 -11.219052,385.33761 l -4.91303,-0.59988 -1.84557,-1.92938 c -1.08458,-1.13383 -2.01562,-2.60207 -2.25798,-3.56079 -0.32716,-1.29422 -0.34614,-109.34909 -0.0364,-206.99891 0.0125,-3.93297 1.23297,-7.28238 3.32556,-9.12636 l 1.60695,-1.41604 72.83439,-0.18692 c 40.05892,-0.1028 73.675392,-0.3614 74.703272,-0.57467 l 1.86887,-0.38776 0.26208,-9.5112 c 0.25411,-9.2217 0.78195,-15.18041 1.5871,-17.91643 0.2148,-0.72993 0.57217,-3.34608 0.79416,-5.81366 0.25167,-2.79744 0.69,-5.04582 1.16431,-5.97214 0.58749,-1.14736 0.7607,-2.45118 0.7607,-5.72608 0,-3.88666 -0.0937,-4.38491 -1.12305,-5.97214 -0.61768,-0.95243 -1.25134,-2.62752 -1.40814,-3.72242 -0.15679,-1.09489 -0.63258,-2.7293 -1.0573,-3.63201 -0.42471,-0.90272 -0.77221,-1.92192 -0.77221,-2.26488 0,-0.342961 -0.39171,-1.893691 -0.87047,-3.446071 -0.80867,-2.622121 -0.85282,-3.466387 -0.62175,-11.891327 0.43409,-15.827001 1.53693,-32.709288 2.58643,-39.593105 0.33386,-2.189786 0.802,-6.370288 1.04032,-9.290003 0.50398,-6.174214 1.24621,-7.807385 4.45855,-9.810275 1.78336,-1.11192 2.32152,-1.208831 7.52729,-1.355499 11.65459,-0.328356 31.68376,1.234576 35.56154,2.774968 2.73963,1.088277 3.60728,2.640023 4.19695,7.506044 0.34456,2.843277 0.21287,10.290358 -0.25815,14.598575 -0.23941,2.189787 -0.62351,7.625549 -0.85354,12.079473 -0.23004,4.453924 -0.56101,8.335817 -0.73549,8.62643 -0.17448,0.290613 -0.45129,4.70889 -0.61513,9.818391 -0.55259,17.232708 -0.93685,19.537538 -4.70817,28.240609 -1.073,2.47615 -1.10688,2.77673 -0.82264,7.29928 0.16304,2.59424 0.74189,6.83072 1.28633,9.41441 0.59536,2.82529 1.15789,7.51661 1.41138,11.77037 0.23182,3.89001 0.60861,8.12377 0.83732,9.40836 0.2287,1.28458 0.41583,5.07106 0.41583,8.4144 0,5.05487 0.11292,6.17861 0.6704,6.67144 0.55162,0.48765 13.41088,0.64639 72.57454,0.89593 75.89115,0.32008 76.63548,0.34203 78.70637,2.32076 2.37901,2.27313 2.21642,-5.1232 2.39353,108.88497 0.11529,74.21819 0.0313,105.52014 -0.28728,107.15793 -0.51414,2.64249 -1.687,3.90442 -4.07078,4.37989 -0.83339,0.16623 -2.16936,0.61571 -2.96882,0.99884 -1.29973,0.62289 -7.98109,0.70327 -63.12636,0.75953 -33.92003,0.0346 -109.51592,-0.11386 -167.99086,-0.32993 z M 318.8043,368.98605 c 0.35314,-1.64862 -0.0117,-88.90988 -0.55699,-133.22437 -0.45155,-36.69532 -0.607,-42.54121 -1.14351,-43.00284 -0.47913,-0.41227 -15.86933,-0.5391 -67.40178,-0.55547 -36.72947,-0.0117 -67.07374,-0.14091 -67.43171,-0.28723 -0.92392,-0.37766 -0.81291,-2.5323 0.17977,-3.48924 0.59337,-0.572 0.83061,-1.36252 0.83061,-2.76776 v -1.96707 l -24.15678,0.24848 c -18.99432,0.19538 -24.22707,0.36964 -24.48571,0.8154 -0.4038,0.69596 -0.10541,2.04945 0.92768,4.20791 0.95691,1.99929 0.98325,2.60535 0.12842,2.95476 -0.36131,0.14769 -29.18866,0.26972 -64.060792,0.27117 -34.87212,0.001 -64.9619397,0.13184 -66.8662497,0.28973 l -3.46238,0.28708 0.33151,1.14801 c 0.18233,0.63141 0.35462,15.28208 0.38287,32.55707 0.0283,17.27498 0.0643,32.60348 0.0802,34.06334 0.0159,1.45986 0.0311,3.59987 0.0339,4.75559 0.003,1.15572 0.007,2.44969 0.009,2.87548 0.002,0.42579 0.0283,9.23471 0.058,19.57536 0.0297,10.34066 0.068,19.09981 0.0851,19.46477 0.0172,0.36496 -0.005,1.36032 -0.0491,2.21191 -0.0442,0.85158 0.0376,14.48798 0.18176,30.3031 0.19321,21.20297 0.39083,28.88902 0.75247,29.26596 0.36818,0.38375 39.3175497,0.58605 156.2298117,0.81142 85.65665,0.16512 155.77638,0.33948 155.82162,0.38745 0.0452,0.048 0.8238,0.0119 1.73013,-0.0802 1.27822,-0.12984 1.69365,-0.38106 1.8519,-1.11984 z M 102.89076,324.56968 c -0.70041,-1.55755 -0.74459,-3.96885 -0.72285,-39.45521 l 0.0231,-37.79628 0.92919,-0.80147 c 0.77487,-0.66834 1.71106,-0.80147 5.63605,-0.80147 4.2965,0 4.80252,0.0877 5.80427,1.00551 0.7304,0.66922 1.22069,1.70836 1.46601,3.10712 0.20273,1.15589 0.9545,3.54018 1.67061,5.29842 0.71611,1.75825 1.58185,3.89356 1.92385,4.74515 0.34202,0.85158 1.14957,2.74276 1.79458,4.20262 1.95559,4.42615 2.92205,6.94582 3.76823,9.82428 0.44401,1.51041 1.00998,2.87963 1.2577,3.04271 0.56217,0.37009 2.3268,4.55354 3.14176,7.44824 0.33719,1.19769 0.85576,2.59119 1.15238,3.09667 0.29663,0.50548 0.76371,1.67262 1.03797,2.59365 0.27426,0.92103 0.95858,1.99561 1.52071,2.38794 0.62746,0.43793 0.92948,0.97034 0.78226,1.37899 -0.29759,0.82606 0.55804,3.71594 1.01176,3.41724 0.75415,-0.49647 0.99803,-6.91396 1.06994,-28.15427 0.0417,-12.3157 0.20663,-22.61765 0.36652,-22.89322 0.40474,-0.69758 8.04931,-0.64966 9.32325,0.0584 l 0.98312,0.54645 0.10342,22.56144 c 0.0569,12.40879 0.11359,23.05911 0.12601,23.66739 0.0404,1.9806 -0.57593,31.18515 -0.6602,31.28122 -1.56147,1.78013 -1.92488,1.89736 -5.88207,1.89736 -4.70095,0 -5.42909,-0.38422 -6.49604,-3.42772 -0.4053,-1.15613 -0.96633,-2.50019 -1.24673,-2.98681 -0.2804,-0.48662 -0.72713,-1.78058 -0.99273,-2.87548 -0.2656,-1.09489 -0.72603,-2.39584 -1.02316,-2.891 -0.29714,-0.49516 -1.05248,-2.2868 -1.67853,-3.98143 -0.62606,-1.69462 -1.83411,-4.67371 -2.68457,-6.62019 -0.85046,-1.94648 -1.98772,-4.63394 -2.52726,-5.97214 -0.53953,-1.33821 -1.31579,-2.96151 -1.72503,-3.60734 -0.40924,-0.64583 -0.74407,-1.50019 -0.74407,-1.89857 0,-0.39838 -0.54875,-1.97455 -1.21945,-3.5026 -0.6707,-1.52806 -1.35403,-3.36117 -1.51852,-4.07358 -0.27929,-1.20959 -1.98906,-5.18638 -3.31475,-7.70982 -0.31956,-0.60828 -0.97483,-1.97316 -1.45615,-3.03307 -1.56469,-3.44557 -1.84759,-1.98361 -1.72549,8.91685 0.0605,5.40141 0.11303,10.31842 0.11673,10.9267 0.0758,12.46086 -0.39859,30.24899 -0.83674,31.37574 l -0.52903,1.36046 h -3.64004 -3.64004 z m 51.3083,0.0774 c -0.54785,-1.76823 -0.25634,-4.83404 0.6896,-7.25248 0.33015,-0.84408 0.79602,-3.03386 1.03526,-4.86619 0.23925,-1.83232 0.7757,-4.42639 1.19211,-5.76459 0.41641,-1.3382 0.87776,-3.52799 1.02522,-4.86619 0.14746,-1.3382 0.55403,-3.48886 0.9035,-4.77923 0.34946,-1.29037 0.53038,-2.63763 0.40204,-2.99389 -0.12834,-0.35627 0.0225,-1.29122 0.33519,-2.07768 0.95316,-2.39728 2.73262,-9.78583 2.74702,-11.40598 0.007,-0.83921 0.38484,-2.62074 0.83863,-3.95894 1.68584,-4.97147 2.92045,-9.61338 3.49397,-13.13676 0.32459,-1.99406 0.97458,-4.95133 1.44444,-6.57172 0.46985,-1.62038 0.85428,-3.59415 0.85428,-4.38614 0,-0.792 0.12177,-2.38637 0.27061,-3.54305 0.37273,-2.89666 1.43513,-3.33104 8.12597,-3.32249 6.86256,0.009 7.11016,0.1568 7.40762,4.42845 0.12664,1.81869 0.44366,3.72155 0.70448,4.22859 0.26083,0.50705 0.76788,2.86577 1.12679,5.24162 0.35892,2.37584 0.8288,4.67048 1.04421,5.0992 0.21539,0.42872 0.75582,2.97637 1.20094,5.66145 0.44512,2.68507 0.99391,5.25097 1.21953,5.702 0.22563,0.45102 0.62751,2.41261 0.89308,4.35909 0.26557,1.94647 0.84546,4.6845 1.28865,6.0845 0.4432,1.4 0.80581,2.83031 0.80581,3.17846 0,0.34816 0.22078,1.19342 0.49062,1.87836 0.26985,0.68494 0.52867,2.04163 0.57516,3.01487 0.0903,1.89029 1.75037,8.82935 2.77455,11.59761 0.3406,0.9206 0.74761,2.66918 0.90446,3.88573 0.15686,1.21655 0.63808,3.32514 1.06938,4.68576 1.00079,3.15719 1.4707,8.62696 0.88011,10.2446 l -0.44415,1.21655 h -4.73667 -4.73667 l -1.26524,-4.31322 c -0.69588,-2.37227 -1.48778,-5.789 -1.7598,-7.59274 -0.80628,-5.34651 -0.80974,-5.34832 -10.24125,-5.34013 -4.29322,0.004 -8.01147,0.15303 -8.2628,0.33178 -0.77859,0.55378 -1.28887,1.9964 -1.58684,4.48622 -0.15742,1.31543 -0.54593,2.92663 -0.86334,3.58047 -0.31741,0.65383 -0.70499,2.26503 -0.86129,3.58046 -0.15629,1.31542 -0.53084,3.03866 -0.83234,3.82942 l -0.54816,1.43774 h -4.55734 -4.55734 z m 28.16962,-33.04485 c 0.47765,-1.06318 0.43142,-1.71144 -0.34696,-4.86619 -0.49391,-2.00178 -1.23032,-5.43125 -1.63646,-7.62104 -0.69505,-3.74748 -1.6219,-8.05483 -2.54635,-11.83369 -0.22321,-0.91241 -0.57094,-1.65893 -0.77273,-1.65893 -0.61519,0 -2.54786,6.61625 -3.16599,10.83834 -0.32059,2.18978 -0.85924,4.6243 -1.19701,5.41003 -0.33776,0.78573 -0.83088,3.22901 -1.0958,5.42951 -0.44184,3.66988 -0.41926,4.0744 0.27287,4.88906 0.68266,0.80351 1.19214,0.8763 5.34598,0.76382 4.56149,-0.12351 4.59498,-0.13231 5.14245,-1.35091 z m 26.66935,32.87446 c -0.78899,-1.64739 -0.83904,-2.57846 -0.83904,-15.6061 0,-11.9822 -0.0898,-13.99071 -0.66432,-14.86447 -0.60944,-0.92682 -0.60878,-1.07564 0.008,-1.80154 0.60347,-0.7103 0.65975,-2.95959 0.55,-21.98137 -0.0672,-11.65457 -0.27579,-21.62295 -0.46345,-22.15197 -0.28331,-0.79865 -0.12648,-1.08012 0.9243,-1.65893 1.00484,-0.55349 2.70497,-0.69708 8.25391,-0.69708 8.17953,0 8.83443,0.23358 8.83443,3.15084 0,0.97544 0.19173,2.15511 0.42606,2.62151 0.23432,0.46639 0.6175,2.47437 0.85149,4.46218 0.234,1.98781 0.69932,4.31239 1.03405,5.16574 0.33472,0.85335 0.8032,2.96301 1.04106,4.68814 0.23785,1.72513 0.79302,4.43056 1.23371,6.01208 0.44068,1.58151 0.98477,4.27933 1.20907,5.99516 0.2243,1.71583 0.67791,3.80826 1.00802,4.64984 0.33012,0.84158 0.807,3.1138 1.05973,5.04939 0.35314,2.70447 0.69387,3.77979 1.47174,4.64464 0.73563,0.81789 0.90378,1.30549 0.61539,1.7845 -0.21826,0.3625 -0.31293,1.15677 -0.21039,1.76504 0.76572,4.54229 1.16622,6.17431 1.46664,5.97654 0.62443,-0.41109 1.37816,-6.42401 0.93502,-7.45921 -0.31601,-0.73821 -0.18107,-1.36475 0.60431,-2.80607 0.64437,-1.18252 1.30897,-3.65209 1.83213,-6.80795 0.45154,-2.72377 0.99721,-5.30308 1.21261,-5.73179 0.2154,-0.42872 0.68529,-2.72337 1.0442,-5.09921 0.35891,-2.37585 0.84755,-4.7078 1.08586,-5.18212 0.23831,-0.47432 0.70703,-2.67378 1.04158,-4.88768 0.33456,-2.2139 0.98906,-5.22675 1.45444,-6.69521 0.50916,-1.60662 0.89875,-4.16646 0.97824,-6.42766 0.12832,-3.65015 0.16578,-3.77307 1.30859,-4.29326 0.76017,-0.34602 3.6789,-0.54259 8.24809,-0.55549 8.23818,-0.0232 9.13927,0.26869 8.47257,2.74489 -0.21266,0.78986 -0.38554,10.76178 -0.38554,22.23893 0,17.66443 0.0929,20.94833 0.61533,21.74277 0.54356,0.82664 0.54356,0.99922 0,1.47974 -0.52041,0.46006 -0.61533,2.75574 -0.61533,14.8814 0,11.58158 -0.11677,14.63512 -0.60751,15.88619 l -0.60751,1.54877 -4.66963,-0.12524 c -4.58444,-0.12295 -4.67489,-0.14542 -4.95771,-1.23119 -0.15844,-0.60827 -0.30671,-7.63863 -0.32948,-15.62301 -0.0259,-9.07424 -0.20258,-14.83788 -0.47131,-15.37274 -0.29015,-0.57749 -0.29411,-1.12598 -0.0122,-1.68708 0.23705,-0.47179 0.43937,-4.85104 0.46777,-10.12478 0.0394,-7.32258 -0.0771,-9.55192 -0.5496,-10.51248 -0.32981,-0.6705 -0.69598,-1.04137 -0.81369,-0.82415 -0.29748,0.54889 -1.05479,4.39508 -1.3659,6.93699 -0.14259,1.16502 -0.50601,2.7576 -0.80759,3.53904 -0.89765,2.32591 -2.01131,10.33317 -1.55734,11.19726 0.30152,0.57392 0.15982,0.97962 -0.58789,1.6832 -0.75507,0.71052 -1.07947,1.65565 -1.38898,4.04672 -0.22211,1.71583 -0.66702,3.80608 -0.98869,4.645 -0.32167,0.83892 -0.81135,3.21366 -1.08818,5.2772 -0.27682,2.06354 -0.69173,4.12689 -0.92201,4.58523 -0.23029,0.45833 -0.77586,2.94303 -1.21239,5.52155 -0.54341,3.20978 -1.12195,5.21658 -1.83462,6.3637 l -1.04092,1.6755 h -3.49969 c -2.10457,0 -3.61263,-0.19466 -3.78301,-0.48831 -0.27253,-0.46973 -0.80579,-2.44411 -2.85512,-10.57122 -0.5215,-2.06813 -1.23154,-4.65606 -1.57788,-5.75095 -0.34633,-1.0949 -0.75619,-3.18515 -0.9108,-4.64501 -0.2492,-2.35301 -1.0636,-5.62388 -2.42322,-9.73238 -0.24155,-0.72993 -0.41358,-2.02389 -0.38228,-2.87548 0.0313,-0.85158 -0.20911,-2.27312 -0.53425,-3.15898 -0.32514,-0.88585 -0.80953,-3.37425 -1.07642,-5.52976 -0.26689,-2.15552 -0.761,-4.49214 -1.09802,-5.19251 -0.48155,-1.00071 -1.70099,-8.03642 -1.76899,-10.20639 -0.008,-0.26158 -0.16425,-0.25934 -0.41329,0.006 -0.81588,0.86907 -1.18547,8.35521 -0.80673,16.34004 0.20774,4.37957 0.36243,8.361 0.34377,8.84762 -0.0187,0.48662 -0.15917,7.6532 -0.31222,15.92572 -0.20303,10.97408 -0.42259,15.31009 -0.81201,16.03632 -0.48731,0.90875 -0.83887,0.99535 -4.04078,0.99535 h -3.50704 l -0.83906,-1.7519 z m 67.01167,0.97773 c -0.26047,-0.57917 -1.00139,-28.24017 -0.86798,-32.40441 0.0117,-0.36497 0.0705,-10.99515 0.13062,-23.62263 0.0878,-18.42105 0.21758,-23.03213 0.65684,-23.32882 0.30111,-0.20338 6.64515,-0.37283 14.09786,-0.37656 10.34296,-0.005 13.65106,0.12412 13.97571,0.54621 0.51308,0.66704 -0.001,12.11199 -0.57117,12.71203 -0.20648,0.21735 -3.77723,0.45702 -7.93501,0.53259 -5.49647,0.0999 -7.70665,0.29404 -8.09844,0.71132 -0.62359,0.66416 -0.98748,9.46834 -0.54667,13.22646 0.42375,3.61268 0.55225,3.67368 7.7395,3.67368 6.12041,0 6.23563,0.018 7.28322,1.13383 1.0346,1.10205 1.06009,1.26875 0.90974,5.948 -0.12984,4.04071 -0.29481,5.01352 -1.0268,6.05487 l -0.87211,1.24068 -5.73059,0.0322 c -5.49316,0.0309 -5.74443,0.0722 -6.06504,0.99536 -0.18396,0.5297 -0.61424,0.96309 -0.95619,0.96309 -1.17784,0 -1.48157,1.69715 -1.47925,8.26556 0.002,7.56218 0.40359,9.72196 1.91857,10.33551 0.57218,0.23172 4.09823,0.42132 7.83567,0.42132 h 6.79536 l 0.86075,1.16561 c 0.73112,0.99007 0.86075,1.78727 0.86075,5.29356 0,2.95755 -0.19843,4.57121 -0.69987,5.6913 l -0.69988,1.56336 h -13.58371 c -12.52737,0 -13.61079,-0.0602 -13.93188,-0.77417 z M 69.364038,287.25323 c 0.32848,-0.3499 0.67559,-0.35371 1.22515,-0.0134 0.67222,0.41621 0.61568,0.47643 -0.45834,0.48823 -0.89346,0.01 -1.10106,-0.11873 -0.76681,-0.47477 z m -2.09187,-0.69146 c -0.15228,-0.1622 -0.27687,-1.35663 -0.27687,-2.65429 0,-1.73231 0.1552,-2.35936 0.58398,-2.35936 0.6333,0 1.36356,4.01481 0.88141,4.8458 -0.30717,0.52942 -0.78565,0.59699 -1.18852,0.16785 z m -14.53928,-0.44622 c -0.43224,-0.46042 -0.31766,-4.56743 0.12743,-4.56743 0.57245,0 1.26052,1.52416 1.26052,2.79222 0,1.12124 -0.90965,2.28469 -1.38795,1.77521 z m 10.21318,0.006 c -0.65044,-0.27957 -0.66782,-2.39357 -0.0381,-4.63248 0.87637,-3.11575 1.5977,-1.75865 1.27416,2.39718 -0.19686,2.52857 -0.26539,2.65251 -1.23607,2.2353 z m -18.79255,-5.90037 c 0,-0.92401 0.67671,-1.0944 2.39676,-0.6035 1.31239,0.37455 0.41313,1.48826 -1.20169,1.48826 -0.9182,0 -1.19507,-0.20498 -1.19507,-0.88476 z M 148.73286,95.382216 c 0.13908,-1.500079 -0.4647,-1.874046 -1.09346,-0.677268 -0.47582,0.905673 -0.13084,2.462871 0.49707,2.243691 0.25644,-0.0895 0.52481,-0.794407 0.59639,-1.566423 z"
       style="fill:#000000;stroke-width:0.428629" />
  </g>
</svg>
