<?xml version="1.0" encoding="UTF-8" standalone="no"?>
<svg
   xmlns:dc="http://purl.org/dc/elements/1.1/"
   xmlns:cc="http://creativecommons.org/ns#"
   xmlns:rdf="http://www.w3.org/1999/02/22-rdf-syntax-ns#"
   xmlns:svg="http://www.w3.org/2000/svg"
   xmlns="http://www.w3.org/2000/svg"
   xmlns:sodipodi="http://sodipodi.sourceforge.net/DTD/sodipodi-0.dtd"
   xmlns:inkscape="http://www.inkscape.org/namespaces/inkscape"
   inkscape:version="1.0 (4035a4fb49, 2020-05-01)"
   sodipodi:docname="ПАРОЛЬ NEW.svg"
   id="svg10"
   viewBox="0 0 399.44466 331.6242"
   style="clip-rule:evenodd;fill-rule:evenodd;image-rendering:optimizeQuality;shape-rendering:geometricPrecision;text-rendering:geometricPrecision"
   version="1.1"
   height="52.219219mm"
   width="62.89819mm"
   xml:space="preserve"><sodipodi:namedview
   inkscape:current-layer="svg10"
   inkscape:window-maximized="1"
   inkscape:window-y="-6"
   inkscape:window-x="-6"
   inkscape:cy="113.27119"
   inkscape:cx="112.32853"
   inkscape:zoom="2.3892428"
   showgrid="false"
   id="namedview26"
   inkscape:window-height="1018"
   inkscape:window-width="1920"
   inkscape:pageshadow="2"
   inkscape:pageopacity="0"
   guidetolerance="10"
   gridtolerance="10"
   objecttolerance="10"
   borderopacity="1"
   bordercolor="#666666"
   pagecolor="#ffffff"
   inkscape:document-rotation="0" /><metadata
   id="metadata14"><rdf:RDF><cc:Work
       rdf:about=""><dc:format>image/svg+xml</dc:format><dc:type
         rdf:resource="http://purl.org/dc/dcmitype/StillImage" /><dc:title></dc:title></cc:Work></rdf:RDF></metadata>
 <defs
   id="defs4">
  <style
   id="style2"
   type="text/css">
   <![CDATA[
    .fil0 {fill:black}
   ]]>
  </style>
 </defs>
 
<path
   style="fill:#000000;fill-opacity:0.975904;fill-rule:evenodd;stroke-width:16.1026"
   d="m 2877.7384,1223.2382 c -9.8522,-48.7103 -20.288,-106.6796 -23.1908,-128.8206 -4.4845,-34.2059 -13.2164,-24.8851 -58.0964,62.014 -29.0503,56.2489 -55.8096,99.2797 -59.4652,95.6241 -3.6557,-3.6556 0.2842,-49.2312 8.7552,-101.2791 8.471,-52.0478 11.9364,-98.0979 7.7009,-102.3334 -4.2355,-4.2355 -7.7009,0.6057 -7.7009,10.7582 0,16.17 -110.8684,83.5239 -137.4852,83.5239 -5.4711,0 16.1858,-30.5309 48.1266,-67.8465 71.0635,-83.02182 153.6812,-244.5172 154.0155,-301.05901 0.4306,-72.82284 24.6567,-90.16206 47.8249,-34.22924 11.3705,27.4509 23.8557,46.72873 27.7449,42.83956 3.8891,-3.88916 -4.0693,-28.61439 -17.6853,-54.94495 C 2803.5591,602.32372 2684.7633,514.7249 2579.7511,514.7249 h -54.5551 l -26.5993,-199.4611 c -14.6296,-109.70359 -26.5993,-208.09137 -26.5993,-218.639498 0,-10.54814 29.9442,6.452698 66.5427,37.779608 36.5985,31.32693 104.7805,72.80674 151.5156,92.17738 47.7249,19.78082 93.735,51.59114 104.9613,72.56775 10.9936,20.54162 26.1115,33.56404 33.5955,28.93869 7.4839,-4.62533 22.0473,10.11429 32.3629,32.75473 18.6554,40.94403 45.7915,55.79576 45.7915,25.06185 0,-8.85641 -6.7219,-16.10257 -14.9375,-16.10257 -8.2157,0 -27.9051,-29.39148 -43.7543,-65.31439 -23.5105,-53.28778 -30.9292,-59.95909 -40.2896,-36.23079 -8.915,22.59911 -11.7254,19.08412 -12.6048,-15.76502 -1.3872,-54.97109 41.5162,-124.14071 77.2074,-124.47499 23.0075,-0.21548 23.2817,-2.40066 2.1737,-17.32847 -18.1768,-12.854818 -19.173,-19.102968 -4.0257,-25.249158 33.9023,-13.75623 22.5169,-53.791224 -15.2974,-53.791224 -26.0553,0 -30.6761,-4.749607 -17.4693,-17.956351 13.2067,-13.20674385 37.017,-10.6770198 90.017,9.563853 58.1124,22.193354 78.9971,23.807933 107.8966,8.341434 29.032,-15.537524 34.4882,-15.060393 28.7377,2.51304 -3.904,11.93054 -28.9826,28.941918 -55.7303,37.803068 -49.8262,16.50678 -59.5163,56.890858 -22.5265,93.880638 22.6794,22.67943 21.7815,63.65767 -2.5657,117.09406 l -19.7843,43.42162 -9.3046,-38.63831 c -9.0525,-37.59153 -9.5536,-37.70504 -18.4985,-4.19005 -5.0567,18.94655 -3.3276,43.94034 3.8425,55.54176 9.5422,15.43965 20.5275,8.04114 40.9842,-27.60249 18.7632,-32.69307 52.2709,-57.33484 101.9622,-74.98363 186.7618,-66.33189 319.7041,-208.265439 451.8379,-482.39668 41.5788,-86.26131 80.3559,-152.08059 86.1715,-146.26505 24.9592,24.95926 8.8958,164.08793 -27.1702,235.32757 l -37.744,74.553758 64.2481,-50.885398 c 58.5782,-46.3948 100.6406,-118.18688 167.5621,-285.99491 14.3432,-35.96622 17.2915,-30.36784 27.6648,52.53141 14.5405,116.20239 -6.3159,182.6587 -79.6237,253.71148 -30.8307,29.882217 -56.0557,60.618825 -56.0557,68.303556 0,24.345437 186.8735,-115.974406 323.5394,-242.939666 77.8836,-72.35545 128.1038,-109.41775 122.9449,-90.73289 -4.7968,17.37322 -13.5,52.88419 -19.3401,78.91323 -15.8534,70.65667 -66.2879,132.55393 -158.7326,194.80987 -45.5412,30.669212 -77.2233,55.762205 -70.4049,55.762205 20.6468,0 178.4457,-82.460015 208.5833,-108.998125 39.4964,-34.77914 35.0842,-2.66202 -8.5634,62.334757 -20.2086,30.093061 -71.112,73.372703 -113.1187,96.17697315 -119.7782,65.02412185 -120.0609,78.49957185 -0.9762,46.52817185 60.4986,-16.242417 112.2381,-27.290929 114.9769,-24.552262 2.7385,2.738684 -14.0781,27.627774 -37.3704,55.309102 -27.7051,32.925688 -57.1674,50.414958 -85.2003,50.576268 -23.5678,0.13562 -53.7198,7.27081 -67.0045,15.856 -17.2253,11.13187 1.0858,15.68015 63.8352,15.85599 83.7805,0.23478 86.6436,1.59448 59.8582,28.42608 -19.5871,19.62104 -63.4274,30.66167 -144.348,36.35227 l -116.2172,8.17278 96.6643,50.43623 c 53.1654,27.73992 114.7577,65.48651 136.8719,83.8813 l 40.2075,33.44508 -48.3077,-0.17101 c -61.9998,-0.21964 -162.4076,-36.03806 -202.3481,-72.18373 -53.717,-48.61322 -34.1965,-5.8534 50.0225,109.57443 89.0519,122.0518 125.38,222.26507 69.7872,192.51275 -17.0177,-9.10762 -68.8122,-56.60224 -115.099,-105.54363 -46.2867,-48.94143 -84.1576,-82.90782 -84.1576,-75.48088 0,7.42693 21.7384,54.82903 48.3077,105.33797 84.1798,160.02836 62.2805,176.70397 -71.4946,54.44103 -77.2583,-70.6097 -87.8359,-76.23242 -73.7593,-39.20816 41.8409,110.04974 12.4694,114.85009 -86.7764,14.18236 -73.5138,-74.56716 -74.0239,-74.77933 -56.0892,-23.33187 9.9546,28.55579 14.3504,55.66844 9.7685,60.25037 -4.5819,4.5819 -41.6173,-17.0775 -82.301,-48.13201 -81.031,-61.85237 -193.4479,-89.39067 -247.287,-60.57689 -17.5612,9.39851 -35.7377,13.28005 -40.3921,8.62564 -4.6544,-4.65441 -37.5461,19.20395 -73.0927,53.01859 -54.1461,51.50795 -63.3397,69.29818 -56.6753,109.67021 21.3627,129.41262 87.0198,276.12067 185.9286,415.44969 52.5722,74.0565 17.2159,70.6951 -62.6591,-5.957 -45.9153,-44.0628 -70.1875,-59.3899 -63.3126,-39.9802 17.7051,49.9871 31.2024,169.8051 19.1281,169.8051 -6.0394,0 -28.3233,-37.4321 -49.5197,-83.1823 -38.3049,-82.6773 -38.6042,-82.8972 -49.3131,-36.2308 -5.9258,25.8233 -19.7356,83.1823 -30.6883,127.4644 l -19.9141,80.5128 z"
   id="path916" /><path
   style="fill:#000000;fill-opacity:0.975904;fill-rule:evenodd;stroke:#000000;stroke-width:0.125801;stroke-opacity:1"
   d=""
   id="path2960" /><path
   style="fill:#000000;fill-opacity:0.975904;fill-rule:evenodd;stroke:#000000;stroke-width:0.125801;stroke-opacity:1"
   d=""
   id="path3032" /><path
   id="path27"
   d="m 23.77274,26.198126 23.772687,-26.19939685 6.287747,5.84479105 6.28776,5.8447718 -4.823352,28.994884 -4.82334,28.994866 16.803408,-17.858796 16.8034,-17.85882 5.26402,4.89318 5.26401,4.89317 -23.77271,26.199386 -23.772678,26.19939 -5.565476,-5.22082 -5.565465,-5.22081 4.91774,-29.3237 c 2.704752,-16.128026 4.539498,-29.713606 4.077216,-30.190186 -0.462256,-0.47659 -8.377536,7.43991 -17.589459,17.59218 L 10.589309,62.240872 5.294657,57.319212 0,52.397556 Z m 60.00614,55.778736 23.77268,-26.19937 14.70739,13.67126 14.7074,13.67125 -3.78201,4.1681 -3.78203,4.16809 -8.69855,-8.08575 c -9.69525,-9.01224 -10.45307,-9.05402 -17.77932,-0.97993 l -4.23393,4.66615 8.82443,8.20275 8.82444,8.202758 -3.73468,4.1159 -3.73468,4.11593 -8.84776,-7.57946 -8.84778,-7.579438 -5.94316,6.549858 -5.94319,6.54985 9.39305,9.36893 9.39302,9.36888 -3.73832,4.11994 -3.73832,4.11992 -15.29569,-14.21811 -15.295696,-14.21812 z m 42.33388,42.078758 c 8.84666,-16.82151 16.45563,-31.530828 16.9088,-32.687368 0.62846,-1.60389 2.23397,-0.63233 6.76704,4.09499 l 5.94311,6.197798 L 143.26224,123 c -6.85821,11.73644 -13.22702,22.61061 -14.15291,24.1648 -0.9259,1.5542 8.11919,-3.37457 20.10022,-10.95282 11.98102,-7.57824 22.9318,-14.48897 24.33508,-15.35719 2.10815,-1.30431 3.54799,-0.53801 8.28779,4.41091 l 5.73637,5.98951 -13.57247,24.70436 c -9.48248,17.25985 -12.55122,23.99977 -10.18346,22.36626 1.86394,-1.28595 10.84058,-7.76018 19.9481,-14.3872 9.10752,-6.62701 17.93387,-12.994 19.61413,-14.14885 2.6163,-1.79825 3.82543,-1.38355 8.4207,2.88798 l 5.36573,4.98772 -4.34713,3.09396 c -2.3909,1.70168 -11.65099,7.66549 -20.57795,13.2529 -8.92697,5.58742 -20.73986,13.12983 -26.25092,16.76093 l -10.02007,6.60199 -6.15533,-5.72171 c -5.94542,-5.52657 -6.07128,-5.88687 -3.69004,-10.5649 1.35592,-2.66374 7.05956,-13.54143 12.67475,-24.17258 l 10.20943,-19.32941 -12.93877,8.01101 c -7.11632,4.40606 -17.40235,11.02417 -22.85781,14.70692 l -9.91905,6.69589 -6.63037,-6.18011 -6.63035,-6.1801 z"
   style="fill:#ff0000;stroke-width:1.60717" /><path
   id="path43"
   d="m 156.04921,328.25099 c -2.23202,-1.89363 -4.05823,-4.09554 -4.05823,-4.89313 0,-0.7976 -3.95626,-4.74502 -8.79169,-8.77207 -8.07613,-6.72594 -9.10374,-7.16708 -12.6256,-5.41997 -2.10865,1.04604 -3.83391,2.39154 -3.83391,2.98998 0,0.59845 -3.28348,1.08808 -7.29662,1.08808 -7.74183,0 -16.15093,-4.81479 -16.15093,-9.24755 0,-1.21781 -0.81165,-2.2142 -1.80366,-2.2142 -1.00203,0 -1.80366,-3.82059 -1.80366,-8.59631 0,-4.77573 0.80163,-8.59631 1.80366,-8.59631 0.99201,0 1.80366,-1.53407 1.80366,-3.40904 0,-2.03784 2.90187,-5.78426 7.21463,-9.31431 3.96805,-3.2479 7.21463,-6.25621 7.21463,-6.68512 0,-0.42891 1.8262,-2.33131 4.05823,-4.22754 5.04306,-4.28436 6.86998,-6.14738 10.8009,-11.01434 1.70887,-2.11578 5.15199,-5.47128 7.65138,-7.45664 2.4994,-1.98538 4.54435,-4.33435 4.54435,-5.21994 0,-0.88559 3.24659,-4.08796 7.21463,-7.11639 3.96805,-3.02842 7.21464,-6.52385 7.21464,-7.76762 0,-1.24377 0.7258,-2.26141 1.61291,-2.26141 2.41121,0 12.81635,-8.06607 12.81635,-9.93524 0,-0.89211 2.63785,-3.82198 5.86188,-6.51081 8.53948,-7.12188 10.37103,-9.03405 10.37103,-10.82745 0,-0.88304 3.24659,-4.08332 7.21463,-7.11175 3.96805,-3.02842 7.21464,-6.22731 7.21464,-7.10864 0,-0.88136 3.24658,-4.05569 7.21463,-7.0541 3.96804,-2.9984 7.21463,-6.05386 7.21463,-6.78991 0,-0.73606 1.62329,-2.26765 3.60731,-3.40356 1.98402,-1.13592 3.60732,-2.78749 3.60732,-3.67017 0,-0.8827 3.6524,-4.67635 8.11646,-8.43034 4.46405,-3.75398 8.11645,-7.30387 8.11645,-7.88864 0,-0.58476 1.42039,-2.39895 3.15641,-4.03154 1.73602,-1.63258 4.77969,-4.73891 6.76371,-6.90297 1.98402,-2.16405 4.75351,-4.8538 6.1544,-5.97722 1.4398,-1.15462 1.82767,-2.45319 0.89221,-2.9871 -0.91018,-0.51948 -2.6651,-3.24682 -3.89983,-6.06075 -2.78877,-6.3556 -3.17978,-55.774308 -0.44129,-55.774308 0.99201,0 1.80366,-1.28945 1.80366,-2.86544 0,-1.575988 0.81164,-2.865438 1.80365,-2.865438 0.99201,0 1.80366,-1.28945 1.80366,-2.86544 0,-1.57599 0.81165,-2.86543 1.80366,-2.86543 0.99201,0 1.80366,-1.28945 1.80366,-2.86544 0,-1.57599 0.81164,-2.865436 1.80365,-2.865436 0.99202,0 1.80366,-0.96708 1.80366,-2.14908 0,-1.18199 0.81165,-2.14908 1.80366,-2.14908 0.99201,0 1.80366,-0.96708 1.80366,-2.14907 0,-1.18199 0.79028,-2.14908 1.75619,-2.14908 0.96591,0 5.4086,-2.90125 9.87265,-6.44723 4.46406,-3.545984 9.35529,-6.44724 10.8694,-6.44724 1.51414,0 2.75296,-0.644724 2.75296,-1.432719 0,-0.787995 1.62329,-1.432719 3.60732,-1.432719 1.98402,0 3.60731,-0.644723 3.60731,-1.432718 0,-0.787996 2.02912,-1.432719 4.50915,-1.432719 2.48003,0 4.50914,-0.644723 4.50914,-1.432719 0,-0.818696 5.41097,-1.432719 12.6256,-1.432719 7.21463,0 12.62561,0.614023 12.62561,1.432719 0,0.787996 2.43494,1.432719 5.41097,1.432719 2.97604,0 5.41097,0.644723 5.41097,1.432719 0,0.787995 1.6233,1.432718 3.60732,1.432718 1.98402,0 3.60731,0.644724 3.60731,1.432719 0,0.787995 1.23255,1.432719 2.739,1.432719 3.51789,0 24.31587,16.56634 24.31587,19.36848 0,1.16727 0.81164,2.1223 1.80366,2.1223 0.99201,0 1.80365,1.289446 1.80365,2.865436 0,1.57599 0.71319,2.86544 1.58484,2.86544 0.87165,0 2.57687,2.09535 3.78934,4.65633 1.21247,2.560988 2.88818,5.945778 3.72376,7.521778 5.31118,10.01725 5.11941,48.412588 -0.2644,52.938948 -0.89039,0.7486 -1.61891,2.84395 -1.61891,4.65634 0,1.81239 -0.81164,3.29525 -1.80365,3.29525 -0.99202,0 -1.80366,1.28945 -1.80366,2.86544 0,1.57599 -0.81165,2.86544 -1.80366,2.86544 -0.99201,0 -1.80366,0.96708 -1.80366,2.14907 0,1.182 -0.81164,2.14908 -1.80365,2.14908 -0.99202,0 -1.80366,0.99013 -1.80366,2.20028 0,1.21015 -1.63121,3.62786 -3.62492,5.37269 -14.4793,12.67181 -18.0711,15.35053 -20.58305,15.35053 -1.56579,0 -2.8469,0.64473 -2.8469,1.43272 0,0.78801 -1.62329,1.43273 -3.60731,1.43273 -1.98402,0 -3.60732,0.57419 -3.60732,1.27596 0,2.55599 -30.1308,5.4501 -33.00143,3.16984 -1.09424,-0.8692 -3.8084,-1.58036 -6.03148,-1.58036 -2.22308,0 -4.5436,-0.64473 -5.1567,-1.43272 -0.6131,-0.788 -2.69012,-1.43272 -4.61559,-1.43272 -1.92548,0 -3.50087,-0.64472 -3.50087,-1.43273 0,-0.78799 -2.43493,-1.43272 -5.41097,-1.43272 -3.72677,0 -5.41097,0.70388 -5.41097,2.26142 0,1.24377 -3.24659,4.7392 -7.21463,7.76762 -3.96805,3.02843 -7.21463,5.94282 -7.21463,6.47645 0,0.53362 -2.26339,2.67951 -5.02976,4.76866 -2.76637,2.08915 -7.00553,6.05497 -9.42036,8.81296 -5.51191,6.29515 -7.11005,7.897 -12.15383,12.18196 -2.23203,1.89623 -4.05823,4.17228 -4.05823,5.05787 0,0.88559 -3.24659,4.08796 -7.21463,7.11638 -3.96805,3.02843 -7.21463,6.48041 -7.21463,7.67108 0,1.19068 -1.6233,2.57411 -3.60732,3.07431 -1.98402,0.50021 -3.60731,1.69077 -3.60731,2.64571 0,0.95493 -1.6233,2.66561 -3.60732,3.80153 -4.62241,2.64646 -4.62241,7.38257 0,10.02903 1.98402,1.13592 3.60732,2.9406 3.60732,4.01041 0,1.06981 3.24658,4.42292 7.21463,7.45134 3.96804,3.02842 7.21463,6.52386 7.21463,7.76763 0,1.24377 0.81164,2.2614 1.80365,2.2614 4.02619,0 1.66722,8.28474 -3.60731,12.66893 -2.97604,2.47369 -5.41097,5.16969 -5.41097,5.99113 0,2.02111 -11.98644,11.42703 -14.56204,11.42703 -2.49222,0 -21.51112,-15.86766 -21.51112,-17.94693 0,-1.8215 -6.56229,-6.40928 -9.16773,-6.40928 -2.28693,0 -7.06518,3.59272 -7.06518,5.31224 0,0.67033 -1.6233,2.14815 -3.60732,3.28407 -5.49543,3.14629 -4.34948,7.64332 3.60732,14.15606 3.96804,3.2479 7.21562,6.38808 7.21683,6.97817 0.001,0.59011 2.03033,2.94617 4.50914,5.23573 5.24943,4.84862 6.35285,14.70614 1.80146,16.09349 -1.48802,0.45358 -2.70549,1.73975 -2.70549,2.85817 0,1.11842 -3.63105,4.91779 -8.06899,8.44304 -9.17311,7.28656 -14.22312,7.97964 -20.33862,2.79129 z M 345.94429,113.42737 c 3.43898,-2.73172 6.25269,-5.95534 6.25269,-7.1636 0,-1.20826 0.81164,-2.19683 1.80366,-2.19683 0.99201,0 1.80365,-1.28945 1.80365,-2.86544 0,-1.575988 0.81165,-2.865438 1.80366,-2.865438 1.04212,0 1.80366,-4.53694 1.80366,-10.74539 0,-6.20845 -0.76154,-10.74539 -1.80366,-10.74539 -0.99201,0 -1.80366,-1.28945 -1.80366,-2.86544 0,-1.57599 -0.81164,-2.86543 -1.80365,-2.86543 -0.99202,0 -1.80366,-0.98858 -1.80366,-2.19684 0,-2.85169 -11.68096,-12.13035 -15.27098,-12.13035 -1.52107,0 -2.7656,-0.64473 -2.7656,-1.43272 0,-0.787998 -4.05823,-1.432718 -9.01829,-1.432718 -4.96005,0 -9.01828,0.64472 -9.01828,1.432718 0,0.78799 -0.8387,1.43272 -1.86378,1.43272 -2.90708,0 -14.36914,9.67622 -14.36914,12.13035 0,1.20826 -0.81165,2.19684 -1.80366,2.19684 -0.99201,0 -1.80366,1.28944 -1.80366,2.86543 0,1.57599 -0.81164,2.86544 -1.80365,2.86544 -1.04212,0 -1.80366,4.53694 -1.80366,10.74539 0,6.20845 0.76154,10.74539 1.80366,10.74539 0.99201,0 1.80365,1.28945 1.80365,2.865438 0,1.57599 0.81165,2.86544 1.80366,2.86544 0.99201,0 1.80366,0.9854 1.80366,2.18978 0,1.20438 2.63785,4.38369 5.86189,7.06512 5.65746,4.70531 6.35147,4.87877 19.90034,4.97381 13.6817,0.096 14.19739,-0.0277 20.29115,-4.86828 z"
   style="fill:#000000;stroke-width:1.60752" /></svg>
