<?xml version="1.0" encoding="UTF-8" standalone="no"?>
<svg
   xmlns:dc="http://purl.org/dc/elements/1.1/"
   xmlns:cc="http://creativecommons.org/ns#"
   xmlns:rdf="http://www.w3.org/1999/02/22-rdf-syntax-ns#"
   xmlns:svg="http://www.w3.org/2000/svg"
   xmlns="http://www.w3.org/2000/svg"
   xmlns:sodipodi="http://sodipodi.sourceforge.net/DTD/sodipodi-0.dtd"
   xmlns:inkscape="http://www.inkscape.org/namespaces/inkscape"
   version="1.1"
   id="svg3093"
   width="959.99872"
   height="1022.5256"
   viewBox="0 0 959.99872 1022.5256"
   sodipodi:docname="КЛЮЧ.svg"
   inkscape:version="1.0 (4035a4fb49, 2020-05-01)">
  <metadata
     id="metadata3099">
    <rdf:RDF>
      <cc:Work
         rdf:about="">
        <dc:format>image/svg+xml</dc:format>
        <dc:type
           rdf:resource="http://purl.org/dc/dcmitype/StillImage" />
        <dc:title></dc:title>
      </cc:Work>
    </rdf:RDF>
  </metadata>
  <defs
     id="defs3097" />
  <sodipodi:namedview
     inkscape:document-rotation="0"
     pagecolor="#ffffff"
     bordercolor="#666666"
     borderopacity="1"
     objecttolerance="10"
     gridtolerance="10"
     guidetolerance="10"
     inkscape:pageopacity="0"
     inkscape:pageshadow="2"
     inkscape:window-width="1920"
     inkscape:window-height="1018"
     id="namedview3095"
     showgrid="false"
     inkscape:zoom="0.8203125"
     inkscape:cx="319.34122"
     inkscape:cy="520.3489"
     inkscape:window-x="-6"
     inkscape:window-y="-6"
     inkscape:window-maximized="1"
     inkscape:current-layer="g3101" />
  <g
     transform="translate(-192.65878,-89.174915)"
     inkscape:groupmode="layer"
     inkscape:label="Image"
     id="g3101">
    <path
       id="path8"
       d="m 395.41429,1110.6565 c -2.2,-0.7243 -5.125,-1.8969 -6.5,-2.6059 -1.375,-0.7089 -19.8826,-18.6124 -41.12799,-39.7855 l -38.62799,-38.4964 -5.86047,4.7734 c -11.89484,9.6885 -26.7102,14.7902 -42.88355,14.767 -31.59281,-0.045 -57.99641,-20.5576 -66.05782,-51.31862 -2.22647,-8.49583 -2.26973,-24.37218 -0.0899,-33 0.90321,-3.575 3.51548,-10.325 5.80504,-15 l 4.16282,-8.5 249.72175,-250 249.72175,-250 -4.3675,-9 c -19.08362,-39.32509 -27.52907,-85.43843 -23.37744,-127.64405 5.32192,-54.10273 27.48082,-102.73707 64.59264,-141.76786 30.00545,-31.55697 70.26911,-55.35694 111.73969,-66.049678 55.64871,-14.348415 113.52173,-8.928993 164.14898,15.371458 39.9964,19.19778 73.3315,48.37953 97.772,85.59013 7.8982,12.02501 18.897,33.99075 24.1647,48.25916 25.6065,69.3602 16.3985,150.54772 -24.0872,212.37927 -38.3107,58.50972 -98.623,96.56604 -168.84949,106.54183 -11.68668,1.66012 -49.31332,1.66012 -61,0 -23.73519,-3.37162 -50.4756,-11.24673 -71.5,-21.05688 l -12.5,-5.83261 -124.72512,124.57823 -124.72511,124.57823 37.95331,38.10791 c 44.18625,44.36624 43.50706,43.43772 43.48211,59.44486 -0.0227,14.58293 -0.56046,15.36038 -33.33785,48.19898 -32.54902,32.60981 -33.58891,33.32102 -48.64734,33.2713 -14.48823,-0.0478 -13.43801,0.74063 -57.76332,-43.36621 l -38.76332,-38.57227 -24.22096,24.22095 -24.22096,24.22096 39.10154,39.26315 c 44.46058,44.64436 42.88144,42.49706 42.84783,58.26316 -0.0299,14.0455 -0.75844,15.0867 -33.32785,47.6349 -31.77986,31.7591 -33.50687,33.0002 -46.65296,33.5272 -4.80142,0.1925 -9.59929,-0.2058 -12,-0.9961 z m 543.7737,-683.05621 c 25.79427,-6.61538 49.88415,-24.77912 62.79801,-47.34964 8.8388,-15.44822 12.8054,-29.10408 13.6432,-46.96964 1.3974,-29.79839 -8.857,-56.5334 -29.6645,-77.34094 -18.24181,-18.24182 -41.37232,-28.45652 -67.1818,-29.66827 -30.25766,-1.42058 -57.19947,8.91506 -78.01727,29.92964 -13.10736,13.23125 -21.68671,28.28034 -26.60625,46.67016 -2.22065,8.30104 -2.58105,11.74246 -2.63056,25.11888 -0.0469,12.67976 0.33313,17.04658 2.0888,24 4.91137,19.45172 14.51701,36.17664 28.46858,49.56828 9.3718,8.99567 14.24964,12.57411 24.22493,17.7717 21.796,11.35674 48.86401,14.42832 72.87686,8.26983 z"
       style="fill:#000000" />
  </g>
</svg>
