<?xml version="1.0" encoding="UTF-8" standalone="no"?>
<svg
   inkscape:version="1.2.1 (9c6d41e410, 2022-07-14)"
   sodipodi:docname="предпросмотр-инфо1 золото.svg"
   id="svg79"
   viewBox="0 0 278.59389 187.42417"
   style="clip-rule:evenodd;fill-rule:evenodd;image-rendering:optimizeQuality;shape-rendering:geometricPrecision;text-rendering:geometricPrecision"
   version="1.1"
   height="58.737499mm"
   width="87.3125mm"
   xml:space="preserve"
   xmlns:inkscape="http://www.inkscape.org/namespaces/inkscape"
   xmlns:sodipodi="http://sodipodi.sourceforge.net/DTD/sodipodi-0.dtd"
   xmlns="http://www.w3.org/2000/svg"
   xmlns:svg="http://www.w3.org/2000/svg"
   xmlns:rdf="http://www.w3.org/1999/02/22-rdf-syntax-ns#"
   xmlns:cc="http://creativecommons.org/ns#"
   xmlns:dc="http://purl.org/dc/elements/1.1/"><metadata
   id="metadata83"><rdf:RDF><cc:Work
       rdf:about=""><dc:format>image/svg+xml</dc:format><dc:type
         rdf:resource="http://purl.org/dc/dcmitype/StillImage" /></cc:Work></rdf:RDF></metadata><sodipodi:namedview
   inkscape:current-layer="svg79"
   inkscape:window-maximized="1"
   inkscape:window-y="-6"
   inkscape:window-x="-6"
   inkscape:cy="133.37136"
   inkscape:cx="122.17224"
   inkscape:zoom="1.4733298"
   showgrid="false"
   id="namedview81"
   inkscape:window-height="1018"
   inkscape:window-width="1920"
   inkscape:pageshadow="2"
   inkscape:pageopacity="0"
   guidetolerance="10"
   gridtolerance="10"
   objecttolerance="10"
   borderopacity="1"
   bordercolor="#666666"
   pagecolor="#ffffff"
   inkscape:document-rotation="0"
   inkscape:showpageshadow="0"
   inkscape:pagecheckerboard="1"
   inkscape:deskcolor="#d1d1d1"
   inkscape:document-units="mm" />
 <defs
   id="defs73">
  <style
   id="style71"
   type="text/css">
   <![CDATA[
    .fil0 {fill:black}
   ]]>
  </style>
 </defs>
 
<g
   id="g318"><path
     style="fill:#ffff00;fill-opacity:1;fill-rule:evenodd;stroke-width:0.844253"
     id="path295"
     sodipodi:type="arc"
     sodipodi:cx="78.499443"
     sodipodi:cy="58.448429"
     sodipodi:rx="62.459595"
     sodipodi:ry="57.30238"
     sodipodi:start="0"
     sodipodi:end="0.00068392258"
     sodipodi:arc-type="slice"
     d="m 140.95904,58.448429 a 62.459595,57.30238 0 0 1 -2e-5,0.03919 l -62.459577,-0.03919 z" /><path
     style="fill:#ffff00;fill-opacity:1;fill-rule:evenodd;stroke-width:0.844253"
     id="path297"
     sodipodi:type="arc"
     sodipodi:cx="79.6455"
     sodipodi:cy="81.082878"
     sodipodi:rx="9.7414045"
     sodipodi:ry="9.4548922"
     sodipodi:start="0"
     sodipodi:end="0.00068392258"
     sodipodi:arc-type="slice"
     d="m 89.386905,81.082878 a 9.7414045,9.4548922 0 0 1 -3e-6,0.0065 l -9.741402,-0.0065 z" /><path
     style="fill:#ffff00;fill-opacity:1;fill-rule:evenodd;stroke-width:0.844253"
     id="path299"
     sodipodi:type="arc"
     sodipodi:cx="32.084526"
     sodipodi:cy="30.656775"
     sodipodi:rx="30.943285"
     sodipodi:ry="29.510725"
     sodipodi:start="0"
     sodipodi:end="6.2595711"
     sodipodi:arc-type="slice"
     d="M 63.027811,30.656775 A 30.943285,29.510725 0 0 1 32.2672,60.166985 30.943285,29.510725 0 0 1 1.1433979,31.005203 30.943285,29.510725 0 0 1 31.536529,1.1506777 30.943285,29.510725 0 0 1 63.019184,29.959967 l -30.934658,0.696808 z" /><path
     style="fill:#ffff00;fill-opacity:1;fill-rule:evenodd;stroke-width:0.844253"
     id="path301"
     sodipodi:type="arc"
     sodipodi:cx="140.09952"
     sodipodi:cy="93.116364"
     sodipodi:rx="63.31913"
     sodipodi:ry="60.45401"
     sodipodi:start="0"
     sodipodi:end="6.268738"
     sodipodi:arc-type="slice"
     d="m 203.41865,93.116364 a 63.31913,60.45401 0 0 1 -63.09043,60.453616 63.31913,60.45401 0 0 1 -63.54618,-60.016921 63.31913,60.45401 0 0 1 62.6314,-60.887157 63.31913,60.45401 0 0 1 63.9986,59.577094 l -63.31252,0.873368 z" /><path
     style="fill:#ffff00;fill-opacity:1;fill-rule:evenodd;stroke-width:0.844253"
     id="path303"
     sodipodi:type="arc"
     sodipodi:cx="32.657543"
     sodipodi:cy="156.149"
     sodipodi:rx="30.943285"
     sodipodi:ry="28.9377"
     sodipodi:start="0"
     sodipodi:end="6.2595711"
     sodipodi:arc-type="slice"
     d="M 63.600828,156.149 A 30.943285,28.9377 0 0 1 32.840217,185.0862 30.943285,28.9377 0 0 1 1.716415,156.49066 30.943285,28.9377 0 0 1 32.109546,127.21584 30.943285,28.9377 0 0 1 63.592201,155.46572 L 32.657543,156.149 Z" /><path
     style="fill:#ffff00;fill-opacity:1;fill-rule:evenodd;stroke-width:0.844253"
     id="path305"
     sodipodi:type="arc"
     sodipodi:cx="246.39542"
     sodipodi:cy="32.089333"
     sodipodi:rx="30.943283"
     sodipodi:ry="29.797235"
     sodipodi:start="0"
     sodipodi:end="6.2616424"
     sodipodi:arc-type="slice"
     d="M 277.3387,32.089333 A 30.943283,29.797235 0 0 1 246.56207,61.886136 30.943283,29.797235 0 0 1 215.45393,32.410286 30.943283,29.797235 0 0 1 245.89548,2.2959864 30.943283,29.797235 0 0 1 277.33152,31.447463 l -30.9361,0.64187 z"
     inkscape:transform-center-x="21.20188"
     inkscape:transform-center-y="-0.57302379" /><path
     style="fill:#ffff00;fill-opacity:1;fill-rule:evenodd;stroke-width:0.844253"
     id="path307"
     sodipodi:type="arc"
     sodipodi:cx="245.8224"
     sodipodi:cy="155.86249"
     sodipodi:rx="31.516308"
     sodipodi:ry="30.370262"
     sodipodi:start="0"
     sodipodi:end="6.2616424"
     sodipodi:arc-type="slice"
     d="m 277.33871,155.86249 a 31.516308,30.370262 0 0 1 -31.34657,30.36982 31.516308,30.370262 0 0 1 -31.68422,-30.0427 31.516308,30.370262 0 0 1 31.00529,-30.69342 31.516308,30.370262 0 0 1 32.01819,29.71208 l -31.509,0.65422 z" /></g></svg>
