<?xml version="1.0" encoding="UTF-8" standalone="no"?>
<svg
   inkscape:version="1.2.1 (9c6d41e410, 2022-07-14)"
   sodipodi:docname="МАСШТАБ.svg"
   id="svg79"
   viewBox="0 0 93.763959 56.314333"
   style="clip-rule:evenodd;fill-rule:evenodd;image-rendering:optimizeQuality;shape-rendering:geometricPrecision;text-rendering:geometricPrecision"
   version="1.1"
   height="17.64854mm"
   width="29.386021mm"
   xml:space="preserve"
   xmlns:inkscape="http://www.inkscape.org/namespaces/inkscape"
   xmlns:sodipodi="http://sodipodi.sourceforge.net/DTD/sodipodi-0.dtd"
   xmlns="http://www.w3.org/2000/svg"
   xmlns:svg="http://www.w3.org/2000/svg"
   xmlns:rdf="http://www.w3.org/1999/02/22-rdf-syntax-ns#"
   xmlns:cc="http://creativecommons.org/ns#"
   xmlns:dc="http://purl.org/dc/elements/1.1/"><metadata
   id="metadata83"><rdf:RDF><cc:Work
       rdf:about=""><dc:format>image/svg+xml</dc:format><dc:type
         rdf:resource="http://purl.org/dc/dcmitype/StillImage" /></cc:Work></rdf:RDF></metadata><sodipodi:namedview
   inkscape:current-layer="svg79"
   inkscape:window-maximized="1"
   inkscape:window-y="-6"
   inkscape:window-x="-6"
   inkscape:cy="72.285241"
   inkscape:cx="105.20387"
   inkscape:zoom="1.4733298"
   showgrid="false"
   id="namedview81"
   inkscape:window-height="1018"
   inkscape:window-width="1920"
   inkscape:pageshadow="2"
   inkscape:pageopacity="0"
   guidetolerance="10"
   gridtolerance="10"
   objecttolerance="10"
   borderopacity="1"
   bordercolor="#666666"
   pagecolor="#ffffff"
   inkscape:document-rotation="0"
   inkscape:showpageshadow="0"
   inkscape:pagecheckerboard="1"
   inkscape:deskcolor="#d1d1d1"
   inkscape:document-units="mm" />
 <defs
   id="defs73">
  <style
   id="style71"
   type="text/css">
   <![CDATA[
    .fil0 {fill:black}
   ]]>
  </style>
 </defs>
 
<path
   style="fill:#000000;stroke-width:1.10797"
   d="m 41.051044,54.236445 c -5.67528,-6.47584 4.17661,-14.28287 10.18902,-8.07419 2.62431,2.70998 2.72652,4.3237 0.48333,7.63084 -2.13975,3.15465 -8.07996,3.40141 -10.67235,0.44335 z M 10.898371,34.461585 V 13.753648 l -4.0466497,2.13045 c -6.02109997,3.16994 -6.85651997,2.83305 -6.85651997,-2.76493 V 8.223808 L 8.0520613,4.111904 C 12.483344,1.850357 17.635084,0 19.500384,0 h 3.39146 v 27.584765 27.58476 h -5.99674 -5.996733 z m 47.973903,16.55978 c 0,-6.91063 3.86725,-13.36343 12.04891,-20.10455 4.09417,-3.37331 8.20981,-7.26239 9.14585,-8.6424 2.01996,-2.97806 2.23549,-8.888017 0.3935,-10.790147 -2.05959,-2.12683 -10.78966,-1.61282 -15.33508,0.90291 l -4.07254,2.25401 v -5.03986 c 0,-4.518518 0.35665,-5.230317 3.44774,-6.880964 4.61936,-2.466748 14.90337,-3.329378 19.79941,-1.66079 6.1672,2.1018 9.46344,6.962514 9.45675,13.945104 -0.008,7.521297 -3.06907,12.810477 -10.92377,18.870187 -7.28554,5.62062 -10.87697,8.99904 -10.87697,10.23184 0,0.5113 4.90642,0.92964 10.90316,0.92964 h 10.90316 v 5.06659 5.06659 h -17.44506 -17.44506 z m -17.82123,-24.93264 c -5.67528,-6.47584 4.17661,-14.282867 10.18902,-8.074187 2.62431,2.709977 2.72652,4.323697 0.48333,7.630837 -2.13975,3.15465 -8.07996,3.40141 -10.67235,0.44335 z"
   id="path1133" /></svg>
