<?xml version="1.0" encoding="UTF-8" standalone="no"?>
<svg
   xmlns:dc="http://purl.org/dc/elements/1.1/"
   xmlns:cc="http://creativecommons.org/ns#"
   xmlns:rdf="http://www.w3.org/1999/02/22-rdf-syntax-ns#"
   xmlns:svg="http://www.w3.org/2000/svg"
   xmlns="http://www.w3.org/2000/svg"
   xmlns:sodipodi="http://sodipodi.sourceforge.net/DTD/sodipodi-0.dtd"
   xmlns:inkscape="http://www.inkscape.org/namespaces/inkscape"
   inkscape:version="1.0 (4035a4fb49, 2020-05-01)"
   sodipodi:docname="СОЦСЕТИ.svg"
   version="1.1"
   id="svg6506"
   width="350.14819"
   height="324.53754"
   viewBox="0 0 350.14819 324.53754">
  <sodipodi:namedview
     inkscape:current-layer="g6514"
     inkscape:window-maximized="1"
     inkscape:window-y="-6"
     inkscape:window-x="-6"
     inkscape:cy="300.04653"
     inkscape:cx="447.71416"
     inkscape:zoom="0.8226727"
     showgrid="false"
     id="namedview7"
     inkscape:window-height="1018"
     inkscape:window-width="1920"
     inkscape:pageshadow="2"
     inkscape:pageopacity="0"
     guidetolerance="10"
     gridtolerance="10"
     objecttolerance="10"
     borderopacity="1"
     bordercolor="#666666"
     pagecolor="#ffffff"
     inkscape:document-rotation="0" />
  <metadata
     id="metadata6512">
    <rdf:RDF>
      <cc:Work
         rdf:about="">
        <dc:format>image/svg+xml</dc:format>
        <dc:type
           rdf:resource="http://purl.org/dc/dcmitype/StillImage" />
        <dc:title></dc:title>
      </cc:Work>
    </rdf:RDF>
  </metadata>
  <defs
     id="defs6510">
    <clipPath
       id="clipPath130"
       clipPathUnits="userSpaceOnUse">
      <path
         d="M 0.85922619,6.8758185 V 367.87582 H 360.85923 V 145.75668 c -1.91235,0.34938 -4.3159,-0.51723 -4.66797,-3.40821 -0.12346,-1.01377 -0.10098,-2.00627 -0.28125,-3.02148 -0.35274,-2.39979 -0.21018,-1.91511 -0.90039,-4.39453 -0.4051,-1.45519 -0.76196,-2.24006 -1.10156,-3.75196 -0.14457,-0.64342 0.1175,-1.34503 -0.22266,-1.96484 -0.35472,-2.17579 -0.10447,-0.74278 -0.33398,-1.7168 -1.0382,-1.84369 -1.53799,-3.59368 -2.05078,-5.74218 -0.70176,-2.94027 -1.00911,-5.9077 -1.25586,-8.90625 -0.18676,-0.92854 -0.32329,-1.842 -0.51953,-2.81836 -0.0777,-0.3866 -0.39091,-1.75442 -0.58399,-2.16602 -0.19046,-0.40602 -0.46192,-0.7682 -0.69336,-1.15234 -0.37475,-0.93305 -0.25219,-0.59736 -0.75586,-2.18359 -0.0172,-0.0544 0.0682,0.21103 0.0742,0.15429 0.01,-0.0883 -0.0369,-0.17281 -0.0625,-0.25781 -0.0762,-0.25354 -0.21694,-0.4925 -0.24414,-0.75586 -0.0489,-0.47244 -0.0568,-0.94837 -0.0606,-1.42383 -1.40682,-3.359187 -0.30885,-0.57883 -2.44531,-6.175779 -0.6103,-1.539572 -1.21978,-3.077614 -1.83008,-4.617188 -0.4159,-1.194445 -0.78414,-2.40735 -1.24804,-3.583984 -0.31892,-0.808886 -0.77253,-1.560778 -1.09766,-2.367187 -0.44883,-1.113214 -0.75283,-2.268155 -0.73828,-3.470703 -0.94613,-2.692267 -1.85734,-5.398247 -2.81055,-8.087891 -1.71122,-5.869484 -3.34326,-10.517452 -4.29101,-16.15625 -1.4845,-1.908615 -2.09426,-2.795041 -3.78125,-4.544922 -0.67395,-0.699078 -1.40586,-1.338143 -2.09961,-2.017578 -0.89822,-0.879682 -1.7712,-1.787103 -2.67774,-2.658203 -7.07417,-6.797594 0.6379,0.80175 -5.03711,-4.826172 -3.6004,-1.604655 -7.22166,-3.161534 -10.83984,-4.726563 -10.93304,-4.731328 2.86926,1.171194 -7.45899,-3.029297 -1.47163,-0.598517 -2.90903,-1.277174 -4.37695,-1.884765 -3.54914,-1.469036 -7.16676,-2.782468 -10.65625,-4.394531 -0.67419,-0.360344 -1.37288,-0.677425 -2.02148,-1.082032 -3.92496,-2.448479 -0.0722,-0.160031 -2.42774,-1.996093 -0.52375,-0.408241 -1.09126,-0.757274 -1.65429,-1.109375 -2.29119,-1.432851 -1.85963,-1.143025 -4.25586,-2.179688 -2.19664,-0.950313 -3.30855,-2.432561 -3.50586,-3.734375 -0.56285,-0.203632 -0.93311,-0.303452 -4.00391,-1.109375 -5.09214,-1.336414 -4.86943,-5.842195 -0.78906,-6.121094 0.58291,-0.03984 1.24437,0.0079 1.98047,0.16211 4.65186,0.974601 8.99655,2.971045 13.57031,4.220703 0.68818,0.188026 1.39188,0.31218 2.08789,0.46875 l 2.24609,0.625 c 1.98647,0.59942 4.04056,1.076243 5.9668,1.861328 2.64057,1.076228 5.11439,2.545216 7.63672,3.863281 5.11298,2.864398 10.01979,6.079896 14.83789,9.41211 1.32678,0.917611 2.69039,1.790008 3.94922,2.798828 1.09872,0.880508 2.10485,1.869487 3.13867,2.826172 0.42855,0.192645 0.86141,0.375611 1.28906,0.570312 3.25198,1.480555 5.29133,2.381298 8.38086,4.136719 0.62799,0.356812 1.2438,0.734293 1.85742,1.115234 -0.21947,-3.007214 -0.52291,-6.017832 -0.30664,-9.035156 0.10435,-1.455817 0.68387,-5.726295 0.90235,-7.386719 0.10533,-0.805952 0.21875,-1.611069 0.3164,-2.417968 -0.0838,-0.284876 -0.0751,-0.558357 0.084,-0.808594 0.11945,-1.633633 0.31255,-1.878911 3.72461,-1.236328 0.47876,9.1e-4 0.94037,-0.0077 1.4082,0.0039 0.85532,-0.450268 1.50373,-0.661279 1.99219,-0.652344 1.4729,0.02694 1.60965,1.909775 2.40039,4.25586 0.37423,1.712756 0.74881,3.425913 1.12305,5.138671 0.0858,0.371948 0.17353,0.743393 0.25976,1.115235 1.87741,4.401727 3.20551,7.526485 4.7832,11.755859 0.32111,0.228455 0.65275,0.499503 1.01563,0.863281 0.52597,0.527274 0.75282,1.286865 1.12891,1.929688 0.42718,1.179603 0.942,2.33123 1.28125,3.539062 0.73171,2.605134 1.38443,6.292391 1.39843,9.011719 0.003,0.649888 0.20454,1.494878 0.22071,2.216797 1.73897,2.320805 3.55029,4.589605 5.0332,7.085938 V 6.8758185 Z M 350.7811,45.166834 c -0.79061,-0.562524 -1.48521,-0.733316 -2.18945,-0.492187 0.004,0.01896 0.009,0.03768 0.0137,0.05664 0.37697,1.696787 0.74139,3.395672 1.10352,5.095703 0.58893,-0.343754 1.17037,-0.72845 1.80664,-0.93164 -0.0477,-0.45195 -0.19583,-0.856787 -0.57422,-1.300781 0.20067,0.29997 0.46625,0.565815 0.60156,0.90039 0.46741,1.155769 0.4158,1.291294 0.4043,2.216797 -9.3e-4,0.07955 0.0338,0.194296 0.0547,0.294922 -0.007,-0.0052 -0.007,-0.01682 -0.0195,-0.01758 -0.0839,-0.005 -0.16798,-0.0051 -0.25196,-0.0078 -4.6e-4,0.08969 6.6e-4,0.151167 0,0.246094 0.0697,-0.0019 0.1393,-7e-5 0.20899,-0.0039 0.0394,-0.0022 0.0587,-0.02396 0.0684,-0.05469 -0.0229,0.07235 -0.0542,0.152836 -0.0488,0.208985 0.0674,0.707742 0.16002,1.411601 0.26172,2.115234 0.29285,2.026101 0.62433,4.047242 0.95312,6.068359 0.11431,0.126469 0.24745,0.237724 0.36719,0.359375 0.30775,0.312645 0.61143,0.627578 0.91797,0.941407 0.36764,0.521937 0.75157,1.032592 1.13281,1.544922 0.17727,-1.955563 -0.45206,-4.351435 -0.93945,-6.025391 -0.7132,-2.449543 -1.55754,-4.859932 -2.41797,-7.261719 -0.56746,-1.584006 -1.00709,-2.757428 -1.45313,-3.953125 z m -1.07226,4.660156 c -0.10714,0.06253 -0.21721,0.114585 -0.32617,0.169922 0.16933,0.230459 0.33289,0.436981 0.49219,0.623047 -0.0561,-0.264157 -0.10976,-0.528861 -0.16602,-0.792969 z m -1.11719,-5.152343 c -0.83612,-3.760985 -1.72332,-7.510453 -2.59375,-11.263672 -0.42911,-1.006088 -0.6439,-1.520295 -1.17969,-2.78711 -0.30917,-0.616836 -0.60969,-1.239002 -0.91211,-1.859375 0.16693,1.333667 0.3581,2.664235 0.59766,3.986329 0.93167,5.141671 1.77355,8.511819 2.83399,12.724609 0.43838,-0.398365 0.84882,-0.662083 1.2539,-0.800781 z m -1.2539,0.800781 c -0.42649,-0.607152 -0.88532,-1.40057 -1.56836,-1.322266 -0.5896,0.06759 -1.13869,0.271524 -1.67188,0.533203 0.42089,1.078947 0.91318,2.39081 1.41602,3.757813 -0.0542,-0.411133 -0.0548,-0.80244 0.18359,-1.111328 0.60473,-0.78363 1.14165,-1.401879 1.64063,-1.855469 0,0 0,-0.002 0,-0.002 z m 0,0.002 c 0.2146,0.852551 0.4079,1.641751 0.63085,2.542969 0.42903,0.570451 0.87073,1.229392 1.29493,1.818359 -0.41546,-1.328084 -1.06204,-3.228512 -1.76953,-4.140625 -0.051,-0.06576 -0.10463,-0.147235 -0.15625,-0.220703 z m -1.82422,2.966797 c 0.01,0.07418 0.0226,0.149446 0.0352,0.224609 0.006,-0.02795 0.01,-0.05605 0.0156,-0.08398 -0.0173,-0.04724 -0.0341,-0.09515 -0.0508,-0.140625 z m -1.41602,-3.757813 c -1.12235,-2.877112 -2.31792,-5.682331 -3.91601,-9.449218 0.80017,3.443864 1.61153,6.885531 2.38281,10.335937 0.50532,-0.316317 1.01051,-0.630191 1.5332,-0.886719 z m -1.5332,0.886719 c -0.42266,0.264572 -0.85123,0.514432 -1.28516,0.740235 0.33308,1.330918 0.66765,2.661975 0.99805,3.990234 0.10347,0.358769 0.20665,0.717552 0.31055,1.076172 0.27111,0.20291 0.63192,0.450222 1.01171,0.705078 -0.54542,-1.776316 -0.58385,-2.011579 -1.01953,-2.759766 -10e-4,5.1e-5 -0.003,-5e-5 -0.004,0 -0.28865,0.01117 -0.58142,-0.999333 -0.43555,-0.75 0.20342,0.347707 0.32314,0.550249 0.43945,0.75 0.26373,-0.01037 0.52321,-0.05233 0.78321,-0.0918 -0.22575,-1.045804 -0.44765,-2.092295 -0.67969,-3.136718 -0.0388,-0.1747 -0.0801,-0.348789 -0.11914,-0.523438 z m 0.79883,3.660156 c 0.22645,1.04906 0.44313,2.100395 0.66601,3.150391 0.002,9.99e-4 0.002,9.53e-4 0.004,0.002 0.51031,0.331141 1.05181,0.609124 1.59375,0.886719 -10e-4,0.09245 0.0157,-1.063273 0.0312,-2.955078 -0.0776,-0.257011 -0.12587,-0.576031 -0.16211,-1.136719 -0.01,-0.148587 0.0128,-0.296122 0.041,-0.443359 -0.71957,0.201486 -1.44271,0.385099 -2.17382,0.496093 z m -2.08399,-2.919921 c -0.46929,-1.875227 -0.91847,-3.75567 -1.35351,-5.640626 0.0944,1.188097 0.20674,2.377378 0.22265,3.56836 0.0122,0.907612 -0.0709,1.813671 -0.10547,2.720703 -0.17175,0.546486 -0.32254,1.100382 -0.50586,1.642578 0.60674,0.567998 1.0927,1.035478 1.4629,1.402344 -8.7e-4,-0.04569 -0.001,-0.03525 -0.002,-0.08203 -0.0215,-1.163384 0.0455,-2.326877 0.0684,-3.490235 0.0725,-0.03513 0.14109,-0.08373 0.21289,-0.121094 z m -1.35351,-5.640626 c -0.061,-0.767538 -0.11509,-1.53534 -0.12891,-2.304687 -0.0219,-1.217875 0.06,-2.426252 0.17383,-3.632813 -0.23574,-0.556432 -0.32143,-0.761019 -0.58594,-1.388671 -0.46146,-0.921219 -0.92127,-1.843458 -1.38476,-2.763672 0.46196,3.393366 1.15487,6.749682 1.92578,10.089843 z m -1.92578,-10.089843 c -0.12514,-0.919121 -0.23767,-1.839298 -0.32813,-2.763672 -0.0863,-0.882277 -0.70452,-2.145916 0.0176,-2.660156 0.84762,-0.60363 1.55671,-1.061601 2.17383,-1.41211 -0.37959,-0.07352 -0.73256,-0.137702 -1.04883,-0.197265 -1.41282,-0.0027 -2.79539,0.133771 -3.64063,1.113281 -0.0347,0.04024 -0.0576,0.0816 -0.084,0.123047 -0.0149,0.20447 -0.0236,0.319675 -0.0527,0.570312 -0.009,0.07957 -0.0216,0.158762 -0.0312,0.238282 0.2672,0.90881 1.48698,1.951831 1.9336,2.873046 0.34406,0.709682 0.70574,1.410838 1.06055,2.115235 z m 1.86328,-6.835938 c 0.48994,0.0949 0.74675,0.139515 1.35351,0.25586 0.0287,0.0055 0.0514,0.02068 0.0781,0.0293 0.046,-0.249246 0.0612,-0.469482 -0.12696,-0.464844 -0.2989,0.0074 -0.62625,-0.0058 -0.94531,-0.01367 -0.11614,0.06114 -0.23495,0.12269 -0.35937,0.193359 z m 1.43164,0.285157 c -0.0313,0.169575 -0.0768,0.354477 -0.082,0.482421 -0.0134,0.330507 -0.0815,0.869421 -0.13477,1.353516 0.33801,-0.102111 0.72534,-0.202635 1.20898,-0.302734 -0.27856,-0.551017 -0.43934,-1.355335 -0.99218,-1.533203 z m 0.99218,1.533203 c 0.0102,0.02022 0.0187,0.04695 0.0293,0.06641 0.55976,1.0289 1.07649,2.079671 1.58984,3.132812 -0.075,-0.599465 -0.15741,-1.197814 -0.21679,-1.798828 -0.055,-0.556699 0.6275,-1.77077 0.0762,-1.675781 -0.56821,0.0979 -1.05042,0.186788 -1.47852,0.275391 z m -1.20898,0.302734 c -1.6125,0.487133 -1.79188,1.079907 -2.40234,2.580078 0.37481,1.715394 0.74823,3.429137 1.12304,5.144531 0.0654,0.283866 0.13154,0.56776 0.19727,0.851563 0.18919,-1.883437 0.47315,-3.759671 0.7207,-5.638672 0.0781,-0.597942 0.2388,-1.823299 0.36133,-2.9375 z m -1.08203,8.576172 c -0.01,0.09692 -0.0163,0.194052 -0.0254,0.291015 0.0852,0.201007 0.12914,0.309161 0.21094,0.501954 -0.0614,-0.264369 -0.12431,-0.528558 -0.18555,-0.792969 z m -0.15625,47.587891 c 0.59181,1.684045 1.19503,3.364146 1.83789,5.029296 1.68786,4.371914 3.89331,9.202171 6.01367,13.703128 0.42427,-0.56207 0.82162,-1.170983 1.39453,-1.478518 0.01,-1.48195 0.0332,-2.958406 0.0488,-4.132813 0.0611,-1.42551 0.0875,-2.850427 0.0957,-4.27539 -0.19201,-0.482448 -0.38437,-0.964761 -0.57617,-1.447266 -0.49441,-1.385336 -0.94263,-2.787954 -1.48242,-4.15625 -0.4775,-1.210418 -1.35598,-2.236024 -1.26367,-3.585937 -0.0185,-0.420695 -0.0295,-0.593518 -0.0391,-0.810547 -0.26603,-0.747934 -0.52926,-1.497817 -0.78907,-2.248047 -0.0717,0.107318 -0.10315,0.15845 -0.18945,0.287109 -0.15168,0.226135 -0.0754,-0.124621 0.10352,-0.53125 -0.53491,-1.547574 -1.06927,-3.095433 -1.60547,-4.642578 -0.61045,-1.023318 -1.21576,-2.049939 -1.8418,-3.064453 -0.20337,-0.332372 -0.40594,-0.665476 -0.60937,-0.998047 -0.0431,0.463656 -0.0825,0.911033 -0.13672,1.410156 -0.12959,1.191767 -0.37285,2.368421 -0.5586,3.552735 -0.10075,0.425516 -0.72369,1.164221 -0.30078,1.27539 0.0447,0.01174 0.0846,-0.0072 0.125,-0.03125 0.16655,-0.386022 0.33667,-0.770523 0.4375,-1.175781 0.0961,-0.386301 -0.0892,0.968708 -0.4375,1.175781 -0.17884,0.414513 -0.35293,0.830364 -0.43359,1.271485 -0.11716,0.640679 0.039,1.3024 0.0664,1.953125 0.04,0.948177 0.0952,1.895642 0.13672,2.84375 -6e-4,0.02564 0.004,0.05058 0.004,0.07617 z m 5.1543,-3.646485 c 0.0282,0.08152 0.0577,0.162639 0.0859,0.244141 0.29515,-0.442041 0.45828,-0.71905 0.58203,-0.960938 -0.0188,-0.03327 -0.0378,-0.06636 -0.0566,-0.09961 -0.23145,0.100255 -0.45902,0.470207 -0.61132,0.816406 z m 0.875,2.492188 c 0.45142,1.269184 0.91,2.534056 1.39453,3.791015 0.59333,1.539222 1.26287,3.143002 1.96093,4.765625 -0.002,-0.913985 -0.001,-1.827941 -0.0117,-2.742187 0,-0.804683 9.5e-4,-1.609376 0.002,-2.414063 -0.73238,-1.502654 -1.79064,-3.452842 -2.14453,-4.107422 -0.3844,-0.710998 -0.79431,-1.406697 -1.18946,-2.111328 -0.0406,0.269063 -0.1205,0.583047 -0.10937,0.792969 0.0635,1.199135 0.0738,1.483078 0.0977,2.025391 z m 1.82226,19.886721 c -0.15994,0.21189 -0.32431,0.41748 -0.5039,0.5957 0.009,0.29523 0.009,0.59103 0.0117,0.88672 0.0779,0.18607 0.022,0.0489 0.11719,0.27734 0.11039,0.26488 0.0635,0.93073 0.31836,0.79883 0.32692,-0.16919 0.68083,-0.33278 1.03125,-0.49805 -0.32098,-0.67567 -0.64694,-1.365 -0.97461,-2.06054 z m 0.97461,2.06054 c 0.0924,0.19451 0.18769,0.40123 0.2793,0.59375 0.0654,-0.0524 0.13998,-0.0957 0.20898,-0.14453 -0.01,-0.178 -0.0322,-0.35493 -0.0391,-0.5332 -0.002,-0.0393 -5.4e-4,-0.0949 -0.002,-0.13477 -0.14994,0.0718 -0.29803,0.14837 -0.44727,0.21875 z m 0.2793,0.59375 c -0.28961,0.2319 -0.55502,0.48769 -0.75196,0.81446 -0.27413,0.45486 0.34271,0.69069 1.08789,0.79102 -0.0353,-0.35539 -0.0512,-0.71229 -0.0781,-1.06837 -0.036,-0.0737 -0.12688,-0.26078 -0.13477,-0.27734 -0.04,-0.0839 -0.0829,-0.17543 -0.12304,-0.25977 z m 1,-52.472652 c -0.11258,3.69e-4 -0.22529,0.003 -0.33789,0.0039 0.0333,0.110015 0.0505,0.169242 0.082,0.273438 0.10548,0.004 0.21094,0.0066 0.3164,0.0098 -0.0203,-0.09568 -0.0403,-0.19143 -0.0605,-0.287109 z m -1.15235,0.01758 c -0.40433,0.0069 -0.80854,0.0076 -1.21289,0.01758 0.001,0.0038 0.002,0.008 0.004,0.01172 0.41949,0.03126 0.8386,0.0832 1.25781,0.142578 -0.0167,-0.05716 -0.0321,-0.114714 -0.0488,-0.171875 z m -2.35156,0.01362 c 0.004,0.01015 0.006,0.01713 0.01,0.02734 0.23433,-0.0039 0.46872,-0.0078 0.70312,-0.01367 -1.8e-4,-0.0033 -0.002,-0.0065 -0.002,-0.0098 -0.23697,-0.0088 -0.47394,-0.01144 -0.71094,-0.0039 z m 0.0352,0.09766 c 0.0268,0.07447 0.0443,0.117191 0.0723,0.195313 0.0137,0.03837 0.0273,0.07684 0.041,0.115234 0.21409,0.04541 0.40125,0.08935 0.59766,0.134766 -0.007,-0.137453 -0.018,-0.274706 -0.0254,-0.41211 -0.22853,-0.01125 -0.45706,-0.02365 -0.68554,-0.0332 z m 1.16211,0.05664 c 0.0666,0.170217 0.15028,0.388125 0.20898,0.539062 0.47837,0.120748 0.88071,0.234757 1.24805,0.345703 -0.0805,-0.275725 -0.15755,-0.552454 -0.23828,-0.828124 -0.40621,-0.0196 -0.81248,-0.03562 -1.21875,-0.05664 z m 2.0625,0.130859 c 0.11915,0.394107 0.21535,0.722937 0.31054,1.042969 0.0871,0.02974 0.15638,0.05117 0.23438,0.07813 -0.0754,-0.357328 -0.14895,-0.715008 -0.22461,-1.072266 -0.10677,-0.01702 -0.21354,-0.03184 -0.32031,-0.04883 z m 2.02929,0.28711 c -0.004,0.433812 -1.4e-4,0.600266 -0.006,1.0625 0.11512,-0.157673 0.15262,-0.479507 0.2168,-1.035157 -0.0703,-0.0068 -0.14065,-0.01965 -0.21094,-0.02734 z m -12.04492,5.201172 c 0.37784,0.487447 0.87858,1.192037 1.67774,2.335937 -5.9e-4,-0.173076 0.003,-0.306786 0.002,-0.484375 -0.002,-0.438187 -0.009,-0.427726 -0.0117,-0.785156 -0.33436,-0.192442 -0.6731,-0.377706 -0.99414,-0.591797 -0.28819,-0.192182 -0.43748,-0.310561 -0.67383,-0.474609 z m 4.95313,2.880859 c 0.11044,0.176277 0.24051,0.338731 0.41992,0.466797 0.0564,0.04024 0.10285,0.07026 0.1582,0.109375 0.0158,-0.03405 0.04,-0.07431 0.043,-0.101563 0.006,-0.05693 0.007,-0.08252 0.0117,-0.132812 -0.0784,-0.03998 -0.45887,-0.249061 -0.63281,-0.341797 z m 0.57812,0.576172 c -0.0158,0.03405 -0.0233,0.0603 0.004,0.05664 0.0232,-0.0031 0.0488,-0.003 0.0723,-0.0059 -0.0261,-0.01837 -0.0498,-0.03216 -0.0762,-0.05078 z m 0.0762,0.05078 c 0.0869,0.06109 0.16565,0.115503 0.25,0.173828 -0.0128,-0.07578 -0.019,-0.114836 -0.0312,-0.1875 -0.0724,0.0059 -0.14794,0.0051 -0.21875,0.01367 z m 0.21875,-0.01367 c 0.0459,-0.0038 0.0922,-0.0069 0.13868,-0.0098 -0.004,-0.02082 -0.008,-0.04168 -0.0117,-0.0625 -0.0125,-0.0064 -0.13784,-0.07469 -0.15235,-0.08203 0.009,0.05634 0.0154,0.09452 0.0254,0.154297 z m 0.13868,-0.0098 c 0.0201,0.104988 0.0424,0.209471 0.0625,0.314454 0.60435,0.412824 1.13718,0.747061 1.61718,1.021484 -0.0577,-0.121029 -0.11072,-0.244058 -0.13281,-0.375 -0.0119,-0.07064 0.0341,-0.0075 0.0957,0.08203 -0.005,-0.0279 -0.007,-0.05609 -0.0117,-0.08398 -0.12436,-0.180971 -0.22975,-0.318793 -0.0742,-0.06836 -1.24296,-0.766744 -1.29759,-0.808003 -1.46094,-0.892579 -0.0313,0.0016 -0.0646,6.2e-5 -0.0957,0.002 z m 0.0625,0.314454 c -0.0561,-0.03828 -0.11274,-0.07765 -0.16993,-0.117188 0.0329,0.194956 0.0428,0.265524 0.0801,0.482422 0.0607,0.02605 0.11916,0.05924 0.17969,0.08594 -0.029,-0.150591 -0.061,-0.300552 -0.0898,-0.451172 z m 0.0898,0.451172 c 0.1204,0.624797 0.24786,1.248093 0.37695,1.871093 0.009,-0.06355 0.0228,-0.118549 0.0605,-0.146484 0.37466,-0.277438 0.76613,-0.532287 1.16211,-0.777344 1.6e-4,-0.01236 -10e-6,-0.02474 0,-0.03711 -0.01,-0.05469 -0.0198,-0.109334 -0.0293,-0.164063 -0.51921,-0.261312 -1.0421,-0.51317 -1.57031,-0.746093 z m 1.59961,0.947265 c -0.0278,2.083438 -0.11195,4.165602 -0.25586,6.248047 0.68578,1.122987 1.36533,2.249436 2.0332,3.382812 -0.0227,-0.215104 -0.0489,-0.42747 -0.0938,-0.597656 -0.90339,-3.429767 -0.11354,1.552415 -1.0664,-3.597656 -0.26876,-1.452638 -0.32958,-2.943832 -0.42579,-4.414062 -0.0612,-0.341924 -0.12437,-0.683482 -0.18554,-1.025391 -0.002,0.0012 -0.004,0.0027 -0.006,0.0039 z m -1.22266,0.923828 c -0.0398,0.296064 0.17509,0.860231 0.12891,0.646485 -0.0464,-0.214791 -0.0843,-0.431317 -0.12891,-0.646485 z m 9.1211,9.488281 c 0.007,0.587491 -0.002,1.176405 -0.002,1.664063 7.1e-4,2.982799 -0.005,5.964933 -0.008,8.947266 0.0116,0.02946 0.0404,0.0838 0.0508,0.111328 0.26859,0.71341 0.39555,1.470953 0.59375,2.207031 0.0653,0.454306 0.0948,0.915458 0.19531,1.363281 0.21997,0.979743 0.47196,0.917631 0.98047,1.908203 0.51238,0.998104 0.98375,2.01775 1.43946,3.042969 0.53666,1.207328 1.02473,2.434518 1.53711,3.652344 0.25724,0.575391 0.51426,1.151027 0.77148,1.726562 V 84.05157 c -0.73144,-1.548991 -0.31556,-0.998215 -1.07031,-2.816407 -0.23096,-0.55637 -0.49646,-1.097041 -0.75196,-1.642578 -0.32598,-0.696011 -0.66139,-1.38829 -0.99218,-2.082031 -0.71831,-1.379393 -1.37611,-2.7902 -2.14063,-4.144531 -0.19313,-0.342133 -0.39605,-0.675769 -0.60351,-1.00586 z m -0.13868,26.769532 c -0.01,1.170578 -0.0162,2.366938 0.0117,3.164068 6.4e-4,0.0183 0.003,0.0364 0.004,0.0547 0.61756,1.2778 1.23808,2.55436 1.85937,3.83007 0.65154,1.3378 1.26829,2.69277 1.96094,4.00977 0.5821,1.1068 1.24117,2.17188 1.86133,3.25781 v -2.74414 c -1.57833,-2.75675 -2.86692,-5.67111 -4.32031,-8.49218 -0.45868,-1.02683 -0.91778,-2.05347 -1.37696,-3.080086 z m 0.9004,12.757818 c 0.16075,2.05722 0.35395,4.04848 0.68164,6.05273 0.42303,0.40228 0.86151,0.69363 1.29492,0.88086 0.005,-0.57419 0.006,-1.15284 -0.0899,-1.71875 -0.10333,-0.60728 -0.71866,-1.8089 -0.96484,-2.33203 -0.21789,-0.58204 -0.47931,-1.14919 -0.65234,-1.74609 -0.10858,-0.37458 -0.18749,-0.75601 -0.26953,-1.13672 z m 1.97656,6.93359 c -7e-5,0.008 7e-5,0.0169 0,0.0254 -8.8e-4,0.10999 -0.031,0.21725 -0.0605,0.32422 0.008,-0.009 0.0164,-0.0247 0.0273,-0.0195 0.10263,0.0483 0.0763,0.21379 0.11524,0.32031 0.0594,0.42553 0.12029,0.84986 0.17969,1.27539 0.0687,0.3309 0.15327,0.66017 0.20507,0.99414 0.0821,0.52947 0.11202,1.06446 0.19532,1.59375 0.18755,1.19227 0.26883,1.50534 0.36718,1.85547 0.3246,0.37688 0.67695,0.73291 0.9961,1.11328 h 0.002 c 0.32446,0.38671 0.57436,0.76924 0.79297,1.14844 v -8.9668 c -0.7029,0.62857 -1.74291,0.80139 -2.82031,0.33594 z m -0.0605,0.34961 c -0.0467,0.0521 -0.0543,0.27891 -0.0469,0.21094 0.008,-0.071 0.0277,-0.14145 0.0469,-0.21094 z m 2.88086,12.91406 c -0.09,0.0884 -0.19603,0.15548 -0.29883,0.22656 0.0836,0.27404 0.17875,0.54444 0.25586,0.82032 0.0193,0.0691 0.0248,0.091 0.043,0.15625 z"
         style="fill:#ffffff;fill-opacity:0;fill-rule:evenodd;stroke:#ffffff"
         id="path132" />
    </clipPath>
  </defs>
  <g
     transform="translate(264.33621,-55.77093)"
     id="g6514">
    <path
       id="path10"
       d="m -30.309619,379.44186 c -13.57157,-2.34153 -24.21487,-6.84191 -35.26807,-14.91263 -7.57459,-5.53075 -12.93399,-10.58888 -17.66853,-16.67533 -3.58517,-4.60889 -10.60674,-15.53389 -10.60674,-16.50324 0,-0.20297 2.272,-0.36904 5.0489,-0.36904 h 5.04889 l 2.46654,3.84098 c 5.95289,9.27005 15.88623,19.05458 25.13603,24.75947 3.8534,2.37662 13.46571,6.92915 13.81657,6.54372 0.0966,-0.10615 -1.37314,-2.72139 -3.26613,-5.81165 -1.89299,-3.09026 -4.46865,-8.04382 -5.72369,-11.0079 -2.22977,-5.26613 -6.04289,-16.45895 -6.04289,-17.73795 0,-0.37286 1.95642,-0.56093 4.65808,-0.44777 l 4.65808,0.1951 1.33262,4.34197 c 4.26016,13.8805 11.74278,26.17654 19.0747,31.34509 14.70466,10.36588 30.40072,-1.41667 40.1989,-30.17609 l 1.99135,-5.84497 h 4.52812 4.52812 l -0.42211,2.17099 c -1.34219,6.90309 -8.14063,22.67313 -12.54882,29.10893 -1.3404,1.95695 -2.32771,3.67826 -2.19401,3.82513 0.37958,0.41699 6.15395,-2.13512 11.30295,-4.9956 9.88856,-5.49349 20.02773,-14.91881 26.62661,-24.75197 l 3.58981,-5.34926 5.01658,-0.004 c 2.75912,-0.002 5.01658,0.19276 5.01658,0.43337 0,0.24062 -1.75708,3.32175 -3.90463,6.84696 -13.50818,22.17379 -35.1442,37.09755 -59.63871,41.13668 -7.22523,1.19145 -19.96819,1.21007 -26.7551,0.0392 z m -84.030091,-88.66713 c -3.07396,-15.1332 -5.45209,-27.75832 -5.28473,-28.05581 0.16737,-0.29749 2.20944,-0.54089 4.53795,-0.54089 3.81408,0 4.29082,0.14894 4.81068,1.50299 0.31737,0.82664 1.96265,9.01794 3.65616,18.20289 1.69352,9.18495 3.24222,17.1508 3.44154,17.7019 0.19933,0.55109 2.32678,-7.56506 4.727671,-18.0359 l 4.36526,-19.03789 h 5.73075 5.73075 l 2.53064,11.35594 c 1.39184,6.24576 3.2875,14.91425 4.21256,19.26331 0.96111,4.5185 1.86994,7.52448 2.1206,7.01396 0.24127,-0.49138 1.85049,-8.55868 3.57605,-17.92732 1.72556,-9.36865 3.39358,-17.71025 3.70671,-18.53689 0.512,-1.35166 0.98901,-1.50299 4.7375,-1.50299 2.29251,0 4.31624,0.16264 4.49719,0.36142 0.18095,0.19878 -0.33173,3.43022 -1.1393,7.18096 -2.02761,9.41731 -9.93228,47.83023 -9.93228,48.26619 0,0.19531 -2.38055,0.26826 -5.29012,0.1621 l -5.29012,-0.193 -4.58095,-20.20688 c -2.51954,-11.11379 -4.75662,-20.20688 -4.97131,-20.20688 -0.21469,0 -2.21602,8.041 -4.44739,17.86889 -2.23138,9.82789 -4.32826,18.99614 -4.65974,20.37388 l -0.60268,2.50498 -5.297181,-2e-5 -5.29718,-2e-5 z m 76.715081,25.34398 c -0.23036,-1.19405 -2.71964,-13.43819 -5.53173,-27.20921 -2.8121,-13.77101 -4.97982,-25.41919 -4.81717,-25.88484 0.2001,-0.57283 1.68335,-0.84663 4.58637,-0.84663 3.8964,0 4.33645,0.13809 4.78932,1.50299 0.27428,0.82664 1.95822,9.40007 3.74208,19.05207 1.78386,9.65198 3.42496,17.31724 3.64689,17.0339 0.22194,-0.28335 2.25883,-8.63133 4.52644,-18.55108 2.26761,-9.91974 4.43139,-18.25674 4.8084,-18.52666 0.89185,-0.63853 9.60454,-0.63853 10.47738,0 0.36897,0.26992 2.23367,7.85543 4.14378,16.85667 1.91011,9.00125 3.76601,17.5683 4.12422,19.03789 0.62173,2.5507 0.67407,2.59619 1.15307,1.002 0.27597,-0.9185 1.91234001,-9.33525 3.63637,-18.70389 1.72403,-9.36865 3.41002,-17.40965 3.74664,-17.8689 0.92187,-1.25768 8.97612,-1.14261 8.97612,0.12824 0,0.52977 -2.30358,12.02765 -5.11906,25.55085 -2.81549,13.52319 -5.30862,25.71486 -5.5403,27.0926 l -0.42125,2.50498 h -5.26338 -5.26338 l -4.48209,-19.87288 c -2.46514,-10.93008 -4.67718,-20.2816 -4.91562,-20.78115 -0.24059,-0.50403 -2.53641,8.34061 -5.15844,19.87288 l -4.72491,20.78115 h -5.35046 -5.35045 z m 71.84226,1.02723 c -0.73673,-2.67616 -10.71303,-52.8783 -10.71303,-53.90949 0,-0.96173 0.6464,-1.08786 4.71255,-0.91952 l 4.71254,0.19509 3.3734,18.0359 c 1.85538,9.91974 3.52844,18.48679 3.71791,19.03789 0.21368,0.62147 0.58997,-0.0127 0.99088,-1.66999 0.35551,-1.4696 2.37648,-10.03665 4.49104,-19.03789 l 3.84467,-16.36591 5.22763,-0.19151 c 3.71081,-0.13595 5.40806,0.0579 5.84944,0.668 0.34199,0.47272 2.29369,8.766 4.33713,18.42949 2.04343,9.66349 3.94315,18.01721 4.2216,18.5638 0.32432,0.63664 1.77149,-5.79785 4.02673,-17.90398 1.93625,-10.3938 3.64555,-19.12325 3.79844,-19.3988 0.39234,-0.70705 8.57685,-0.62646 8.97904,0.0884 0.29878,0.53109 -2.12632,12.82411 -8.44933,42.83033 -1.20001,5.69467 -2.3294,10.87999 -2.50977,11.52293 -0.27792,0.99066 -1.09892,1.16899 -5.38171,1.16899 h -5.05376 l -4.71374,-20.73203 c -2.59256,-11.40262 -4.82933,-20.60506 -4.9706,-20.44987 -0.14127,0.15519 -2.37671,9.40946 -4.96764,20.56503 l -4.7108,20.28288 -5.24192,0.19223 c -4.59595,0.16854 -5.28244,0.0451 -5.5707,-1.00199 z M -169.86174,288.49245 c -5.03377,-0.8748 -8.66914,-1.98225 -12.11282,-3.68993 -3.76141,-1.86523 -4.30511,-1.94479 -14.89772,-2.18022 -11.09997,-0.2467 -14.25184,-0.81073 -21.97124,-3.93178 -17.66951,-7.14399 -33.07947,-25.5582 -38.2088,-45.65778 -2.04411,-8.01 -3.02242,-18.58542 -2.30921,-24.96239 0.51298,-4.58669 0.44209,-5.26882 -0.83906,-8.07363 -3.0821,-6.7476 -4.15737,-11.85659 -4.13529,-19.64821 0.0229,-8.08863 1.03694,-12.43285 4.67767,-20.03988 2.49637,-5.21598 9.95174,-13.40608 14.6998,-16.14847 11.60985,-6.70565 23.3588,-7.17018 34.63861,-1.36956 4.02731,2.07105 4.50939,2.16756 8.23034,1.64782 7.14314,-0.99776 18.47963,0.48733 26.27512,3.44206 5.93998,2.25143 14.04511,7.24636 19.37748,11.94173 9.37258,8.25292 17.52115,21.68223 20.87506,34.40331 1.95559,7.41735 2.98138,18.57919 2.31598,25.20076 -0.4697,4.67415 -0.39367,5.25624 1.13423,8.68395 5.41663,12.15169 5.37205,24.73567 -0.13216,37.30524 -4.34719,9.92739 -13.10924,18.04663 -23.0243,21.33518 -3.95337,1.31122 -11.7303,2.23943 -14.59369,1.7418 z m -15.32813,-30.68119 c 9.95513,-2.18091 17.45076,-7.96435 20.98428,-16.19097 1.71834,-4.00056 1.93031,-5.14999 1.9371,-10.50408 0.0118,-9.27959 -2.42402,-14.44439 -9.02475,-19.13586 -4.76008,-3.38323 -8.45557,-4.84784 -21.0671,-8.34938 -13.25399,-3.67992 -15.19014,-4.4806 -17.69225,-7.31654 -3.55913,-4.03398 -2.30352,-8.92021 3.15243,-12.26783 2.16193,-1.32649 3.76074,-1.69778 8.23922,-1.9134 8.63601,-0.41579 12.05714,1.50335 16.27399,9.12914 3.26544,5.90525 4.73164,7.12206 8.58182,7.12206 2.76757,0 3.53274,-0.29182 5.10555,-1.94717 3.4882,-3.67125 3.76263,-7.6626 0.94546,-13.75074 -2.68054,-5.79289 -8.93901,-10.59644 -16.61631,-12.75346 -5.84785,-1.64303 -18.09072,-1.74864 -24.29449,-0.20959 -13.60227,3.37451 -20.80689,12.45635 -20.04503,25.26796 0.75729,12.73476 7.75023,18.59307 28.79729,24.12483 11.67123,3.06752 14.90316,4.48435 17.53822,7.6885 1.82561,2.21988 2.17551,3.13556 2.17551,5.69331 0,7.83189 -6.08306,12.40752 -16.49512,12.40752 -8.96822,0 -12.96653,-2.78619 -17.1983,-11.98444 -1.13281,-2.46229 -2.74453,-5.17788 -3.5816,-6.03464 -3.24725,-3.32366 -9.549,-2.26389 -12.00299,2.01854 -2.56183,4.47061 -0.26732,12.76327 5.36019,19.37243 3.76905,4.42653 9.53852,7.8654 15.60029,9.29849 6.27342,1.48313 17.13078,1.59266 23.32659,0.23532 z m 88.305121,-8.49216 c 0.005,-0.45925 1.12444,-3.08948 2.48829,-5.84496 11.47373,-23.18102 31.56121,-40.39658 54.91261,-47.06172 9.00053,-2.56899 15.3624,-3.25533 26.2002,-2.82655 14.28388,0.56513 23.07001,2.97652 35.87615,9.84634 16.45454,8.82702 30.81339,24.30688 38.84614,41.87892 l 2.21389,4.84297 h -5.05508 -5.05507 l -1.26861,-2.83899 c -3.97065,-8.88586 -14.29947,-21.50699 -23.33399,-28.51259 -6.22059,-4.8236 -19.59199,-12.10277 -20.46678,-11.14176 -0.15389,0.16905 0.8169,1.90851 2.1573,3.86546 2.9479,4.30383 6.68517,11.82748 9.23752,18.59645 1.65409,4.38671 5.46099,17.96589 5.46099,19.47928 0,0.30368 -2.03282,0.55215 -4.51738,0.55215 h -4.51737 l -0.96391,-3.84098 c -5.12188,-20.40964 -14.64640999,-36.45075 -24.62175,-41.46768 -4.76889,-2.39843 -10.60291,-2.33737 -15.39194,0.1611 -9.54497,4.97968 -17.77371,18.19392 -23.27176,37.37129 l -2.22942,7.77627 h -4.48891 -4.48892 l 0.37074,-2.17099 c 0.72817,-4.26413 5.04663,-17.94709 7.37617,-23.37129 1.30378,-3.03574 3.91809,-8.04549 5.80958,-11.13276 1.89149,-3.08727 3.43907,-5.70131 3.43907,-5.80898 0,-0.58939 -7.56433,2.80665 -11.91587,5.34967 -13.16467,7.69338 -24.82981,20.00687 -31.3974,33.14246 l -1.98796,3.97604 -4.71254,0.008 c -3.37302,0.005 -4.71012,-0.22941 -4.70399,-0.82706 z m 28.4065,-82.41742 c -24.40009,-3.8778 -42.421961,-21.32318 -63.396701,-61.36873 -4.14466,-7.913101 -15.45924,-32.576943 -17.30626,-37.724685 -2.74742,-7.657154 -1.46639,-8.200702 18.64425,-7.91087 14.58857,0.210247 14.70959,0.223852 16.26305,1.828333 0.86081,0.889079 2.18119,3.143566 2.93419,5.00997 8.65699,21.457745 19.249631,39.661472 24.969571,42.910872 4.53804,2.57798 6.6962,-1.20772 7.80876,-13.697552 0.8938,-10.033889 -0.009,-22.719406 -1.90756,-26.807945 -1.3746,-2.95997 -3.93666,-5.185986 -6.65671,-5.78361 -1.03842,-0.228152 -2.04992,-0.702567 -2.24778,-1.054257 -0.58702,-1.043424 3.50134,-5.159886 5.8307,-5.870771 1.18538,-0.361757 9.07321,-0.659416 17.52853,-0.661465 17.19436,-0.0041 18.71779,0.300203 20.61447,4.118626 0.98173,1.976424 1.13831,4.599855 1.40854,23.599485 0.26325,18.508259 0.44377,21.656259 1.34567,23.465909 1.11817,2.24361 2.15602,2.91993 4.48074,2.91993 4.69154,0 19.01546,-23.562601 25.50828,-41.960668 1.05144,-2.979384 2.41125,-5.521597 3.48373,-6.512961 l 1.75911,-1.62607 h 17.30287 c 19.05873,0 21.11797,0.344326 21.87497,3.657718 0.4855,2.125023 -1.31839,7.825425 -4.41003,13.935963 -1.21613,2.403641 -6.58109,10.775951 -11.92214,18.605139 -12.1406,17.796329 -13.20986,19.610669 -13.20986,22.414789 0,3.5785 1.18902,5.30696 10.45795,15.20254 10.31978,11.01749 15.06919,17.1742 17.60538,22.82202 2.12495,4.73204 2.00823,7.09235 -0.47749,9.65632 l -1.53845,1.58687 h -17.12817 -17.12817 l -3.64842,-1.9432 c -2.89821,-1.54363 -5.58647,-4.1142 -13.07351,-12.50119 -9.32179,-10.44227 -11.71113,-12.3825 -14.21794,-11.54546 -3.69792,1.23477 -5.53917,5.36007 -6.68135,14.96956 -1.02316,8.60807 -1.70172,9.83376 -5.94237,10.73375 -3.85788,0.81876 -12.11453,0.61446 -18.92785,-0.46836 z M -238.26278,90.251285 c 0.57481,-0.963724 1.16009,-1.752234 1.30061,-1.752234 0.43986,0 -0.97589,2.574437 -1.67785,3.051026 -0.36733,0.249396 -0.19757,-0.335061 0.37724,-1.298792 z"
       style="fill:#000000;stroke-width:0.637329" />
  </g>
</svg>
