<?xml version="1.0" encoding="UTF-8" standalone="no"?>
<svg
   xmlns:dc="http://purl.org/dc/elements/1.1/"
   xmlns:cc="http://creativecommons.org/ns#"
   xmlns:rdf="http://www.w3.org/1999/02/22-rdf-syntax-ns#"
   xmlns:svg="http://www.w3.org/2000/svg"
   xmlns="http://www.w3.org/2000/svg"
   xmlns:sodipodi="http://sodipodi.sourceforge.net/DTD/sodipodi-0.dtd"
   xmlns:inkscape="http://www.inkscape.org/namespaces/inkscape"
   inkscape:version="1.0 (4035a4fb49, 2020-05-01)"
   sodipodi:docname="СУПЕР ФЕДЕРАЦИЯ.svg"
   version="1.1"
   id="svg6506"
   width="356.06644"
   height="355.22379"
   viewBox="0 0 356.06644 355.22379">
  <sodipodi:namedview
     inkscape:current-layer="g6514"
     inkscape:window-maximized="1"
     inkscape:window-y="-6"
     inkscape:window-x="-6"
     inkscape:cy="215.13609"
     inkscape:cx="89.892883"
     inkscape:zoom="1.6453454"
     showgrid="false"
     id="namedview7"
     inkscape:window-height="1018"
     inkscape:window-width="1920"
     inkscape:pageshadow="2"
     inkscape:pageopacity="0"
     guidetolerance="10"
     gridtolerance="10"
     objecttolerance="10"
     borderopacity="1"
     bordercolor="#666666"
     pagecolor="#ffffff"
     inkscape:document-rotation="0" />
  <metadata
     id="metadata6512">
    <rdf:RDF>
      <cc:Work
         rdf:about="">
        <dc:format>image/svg+xml</dc:format>
        <dc:type
           rdf:resource="http://purl.org/dc/dcmitype/StillImage" />
        <dc:title></dc:title>
      </cc:Work>
    </rdf:RDF>
  </metadata>
  <defs
     id="defs6510">
    <clipPath
       id="clipPath130"
       clipPathUnits="userSpaceOnUse">
      <path
         d="M 0.85922619,6.8758185 V 367.87582 H 360.85923 V 145.75668 c -1.91235,0.34938 -4.3159,-0.51723 -4.66797,-3.40821 -0.12346,-1.01377 -0.10098,-2.00627 -0.28125,-3.02148 -0.35274,-2.39979 -0.21018,-1.91511 -0.90039,-4.39453 -0.4051,-1.45519 -0.76196,-2.24006 -1.10156,-3.75196 -0.14457,-0.64342 0.1175,-1.34503 -0.22266,-1.96484 -0.35472,-2.17579 -0.10447,-0.74278 -0.33398,-1.7168 -1.0382,-1.84369 -1.53799,-3.59368 -2.05078,-5.74218 -0.70176,-2.94027 -1.00911,-5.9077 -1.25586,-8.90625 -0.18676,-0.92854 -0.32329,-1.842 -0.51953,-2.81836 -0.0777,-0.3866 -0.39091,-1.75442 -0.58399,-2.16602 -0.19046,-0.40602 -0.46192,-0.7682 -0.69336,-1.15234 -0.37475,-0.93305 -0.25219,-0.59736 -0.75586,-2.18359 -0.0172,-0.0544 0.0682,0.21103 0.0742,0.15429 0.01,-0.0883 -0.0369,-0.17281 -0.0625,-0.25781 -0.0762,-0.25354 -0.21694,-0.4925 -0.24414,-0.75586 -0.0489,-0.47244 -0.0568,-0.94837 -0.0606,-1.42383 -1.40682,-3.359187 -0.30885,-0.57883 -2.44531,-6.175779 -0.6103,-1.539572 -1.21978,-3.077614 -1.83008,-4.617188 -0.4159,-1.194445 -0.78414,-2.40735 -1.24804,-3.583984 -0.31892,-0.808886 -0.77253,-1.560778 -1.09766,-2.367187 -0.44883,-1.113214 -0.75283,-2.268155 -0.73828,-3.470703 -0.94613,-2.692267 -1.85734,-5.398247 -2.81055,-8.087891 -1.71122,-5.869484 -3.34326,-10.517452 -4.29101,-16.15625 -1.4845,-1.908615 -2.09426,-2.795041 -3.78125,-4.544922 -0.67395,-0.699078 -1.40586,-1.338143 -2.09961,-2.017578 -0.89822,-0.879682 -1.7712,-1.787103 -2.67774,-2.658203 -7.07417,-6.797594 0.6379,0.80175 -5.03711,-4.826172 -3.6004,-1.604655 -7.22166,-3.161534 -10.83984,-4.726563 -10.93304,-4.731328 2.86926,1.171194 -7.45899,-3.029297 -1.47163,-0.598517 -2.90903,-1.277174 -4.37695,-1.884765 -3.54914,-1.469036 -7.16676,-2.782468 -10.65625,-4.394531 -0.67419,-0.360344 -1.37288,-0.677425 -2.02148,-1.082032 -3.92496,-2.448479 -0.0722,-0.160031 -2.42774,-1.996093 -0.52375,-0.408241 -1.09126,-0.757274 -1.65429,-1.109375 -2.29119,-1.432851 -1.85963,-1.143025 -4.25586,-2.179688 -2.19664,-0.950313 -3.30855,-2.432561 -3.50586,-3.734375 -0.56285,-0.203632 -0.93311,-0.303452 -4.00391,-1.109375 -5.09214,-1.336414 -4.86943,-5.842195 -0.78906,-6.121094 0.58291,-0.03984 1.24437,0.0079 1.98047,0.16211 4.65186,0.974601 8.99655,2.971045 13.57031,4.220703 0.68818,0.188026 1.39188,0.31218 2.08789,0.46875 l 2.24609,0.625 c 1.98647,0.59942 4.04056,1.076243 5.9668,1.861328 2.64057,1.076228 5.11439,2.545216 7.63672,3.863281 5.11298,2.864398 10.01979,6.079896 14.83789,9.41211 1.32678,0.917611 2.69039,1.790008 3.94922,2.798828 1.09872,0.880508 2.10485,1.869487 3.13867,2.826172 0.42855,0.192645 0.86141,0.375611 1.28906,0.570312 3.25198,1.480555 5.29133,2.381298 8.38086,4.136719 0.62799,0.356812 1.2438,0.734293 1.85742,1.115234 -0.21947,-3.007214 -0.52291,-6.017832 -0.30664,-9.035156 0.10435,-1.455817 0.68387,-5.726295 0.90235,-7.386719 0.10533,-0.805952 0.21875,-1.611069 0.3164,-2.417968 -0.0838,-0.284876 -0.0751,-0.558357 0.084,-0.808594 0.11945,-1.633633 0.31255,-1.878911 3.72461,-1.236328 0.47876,9.1e-4 0.94037,-0.0077 1.4082,0.0039 0.85532,-0.450268 1.50373,-0.661279 1.99219,-0.652344 1.4729,0.02694 1.60965,1.909775 2.40039,4.25586 0.37423,1.712756 0.74881,3.425913 1.12305,5.138671 0.0858,0.371948 0.17353,0.743393 0.25976,1.115235 1.87741,4.401727 3.20551,7.526485 4.7832,11.755859 0.32111,0.228455 0.65275,0.499503 1.01563,0.863281 0.52597,0.527274 0.75282,1.286865 1.12891,1.929688 0.42718,1.179603 0.942,2.33123 1.28125,3.539062 0.73171,2.605134 1.38443,6.292391 1.39843,9.011719 0.003,0.649888 0.20454,1.494878 0.22071,2.216797 1.73897,2.320805 3.55029,4.589605 5.0332,7.085938 V 6.8758185 Z M 350.7811,45.166834 c -0.79061,-0.562524 -1.48521,-0.733316 -2.18945,-0.492187 0.004,0.01896 0.009,0.03768 0.0137,0.05664 0.37697,1.696787 0.74139,3.395672 1.10352,5.095703 0.58893,-0.343754 1.17037,-0.72845 1.80664,-0.93164 -0.0477,-0.45195 -0.19583,-0.856787 -0.57422,-1.300781 0.20067,0.29997 0.46625,0.565815 0.60156,0.90039 0.46741,1.155769 0.4158,1.291294 0.4043,2.216797 -9.3e-4,0.07955 0.0338,0.194296 0.0547,0.294922 -0.007,-0.0052 -0.007,-0.01682 -0.0195,-0.01758 -0.0839,-0.005 -0.16798,-0.0051 -0.25196,-0.0078 -4.6e-4,0.08969 6.6e-4,0.151167 0,0.246094 0.0697,-0.0019 0.1393,-7e-5 0.20899,-0.0039 0.0394,-0.0022 0.0587,-0.02396 0.0684,-0.05469 -0.0229,0.07235 -0.0542,0.152836 -0.0488,0.208985 0.0674,0.707742 0.16002,1.411601 0.26172,2.115234 0.29285,2.026101 0.62433,4.047242 0.95312,6.068359 0.11431,0.126469 0.24745,0.237724 0.36719,0.359375 0.30775,0.312645 0.61143,0.627578 0.91797,0.941407 0.36764,0.521937 0.75157,1.032592 1.13281,1.544922 0.17727,-1.955563 -0.45206,-4.351435 -0.93945,-6.025391 -0.7132,-2.449543 -1.55754,-4.859932 -2.41797,-7.261719 -0.56746,-1.584006 -1.00709,-2.757428 -1.45313,-3.953125 z m -1.07226,4.660156 c -0.10714,0.06253 -0.21721,0.114585 -0.32617,0.169922 0.16933,0.230459 0.33289,0.436981 0.49219,0.623047 -0.0561,-0.264157 -0.10976,-0.528861 -0.16602,-0.792969 z m -1.11719,-5.152343 c -0.83612,-3.760985 -1.72332,-7.510453 -2.59375,-11.263672 -0.42911,-1.006088 -0.6439,-1.520295 -1.17969,-2.78711 -0.30917,-0.616836 -0.60969,-1.239002 -0.91211,-1.859375 0.16693,1.333667 0.3581,2.664235 0.59766,3.986329 0.93167,5.141671 1.77355,8.511819 2.83399,12.724609 0.43838,-0.398365 0.84882,-0.662083 1.2539,-0.800781 z m -1.2539,0.800781 c -0.42649,-0.607152 -0.88532,-1.40057 -1.56836,-1.322266 -0.5896,0.06759 -1.13869,0.271524 -1.67188,0.533203 0.42089,1.078947 0.91318,2.39081 1.41602,3.757813 -0.0542,-0.411133 -0.0548,-0.80244 0.18359,-1.111328 0.60473,-0.78363 1.14165,-1.401879 1.64063,-1.855469 0,0 0,-0.002 0,-0.002 z m 0,0.002 c 0.2146,0.852551 0.4079,1.641751 0.63085,2.542969 0.42903,0.570451 0.87073,1.229392 1.29493,1.818359 -0.41546,-1.328084 -1.06204,-3.228512 -1.76953,-4.140625 -0.051,-0.06576 -0.10463,-0.147235 -0.15625,-0.220703 z m -1.82422,2.966797 c 0.01,0.07418 0.0226,0.149446 0.0352,0.224609 0.006,-0.02795 0.01,-0.05605 0.0156,-0.08398 -0.0173,-0.04724 -0.0341,-0.09515 -0.0508,-0.140625 z m -1.41602,-3.757813 c -1.12235,-2.877112 -2.31792,-5.682331 -3.91601,-9.449218 0.80017,3.443864 1.61153,6.885531 2.38281,10.335937 0.50532,-0.316317 1.01051,-0.630191 1.5332,-0.886719 z m -1.5332,0.886719 c -0.42266,0.264572 -0.85123,0.514432 -1.28516,0.740235 0.33308,1.330918 0.66765,2.661975 0.99805,3.990234 0.10347,0.358769 0.20665,0.717552 0.31055,1.076172 0.27111,0.20291 0.63192,0.450222 1.01171,0.705078 -0.54542,-1.776316 -0.58385,-2.011579 -1.01953,-2.759766 -10e-4,5.1e-5 -0.003,-5e-5 -0.004,0 -0.28865,0.01117 -0.58142,-0.999333 -0.43555,-0.75 0.20342,0.347707 0.32314,0.550249 0.43945,0.75 0.26373,-0.01037 0.52321,-0.05233 0.78321,-0.0918 -0.22575,-1.045804 -0.44765,-2.092295 -0.67969,-3.136718 -0.0388,-0.1747 -0.0801,-0.348789 -0.11914,-0.523438 z m 0.79883,3.660156 c 0.22645,1.04906 0.44313,2.100395 0.66601,3.150391 0.002,9.99e-4 0.002,9.53e-4 0.004,0.002 0.51031,0.331141 1.05181,0.609124 1.59375,0.886719 -10e-4,0.09245 0.0157,-1.063273 0.0312,-2.955078 -0.0776,-0.257011 -0.12587,-0.576031 -0.16211,-1.136719 -0.01,-0.148587 0.0128,-0.296122 0.041,-0.443359 -0.71957,0.201486 -1.44271,0.385099 -2.17382,0.496093 z m -2.08399,-2.919921 c -0.46929,-1.875227 -0.91847,-3.75567 -1.35351,-5.640626 0.0944,1.188097 0.20674,2.377378 0.22265,3.56836 0.0122,0.907612 -0.0709,1.813671 -0.10547,2.720703 -0.17175,0.546486 -0.32254,1.100382 -0.50586,1.642578 0.60674,0.567998 1.0927,1.035478 1.4629,1.402344 -8.7e-4,-0.04569 -0.001,-0.03525 -0.002,-0.08203 -0.0215,-1.163384 0.0455,-2.326877 0.0684,-3.490235 0.0725,-0.03513 0.14109,-0.08373 0.21289,-0.121094 z m -1.35351,-5.640626 c -0.061,-0.767538 -0.11509,-1.53534 -0.12891,-2.304687 -0.0219,-1.217875 0.06,-2.426252 0.17383,-3.632813 -0.23574,-0.556432 -0.32143,-0.761019 -0.58594,-1.388671 -0.46146,-0.921219 -0.92127,-1.843458 -1.38476,-2.763672 0.46196,3.393366 1.15487,6.749682 1.92578,10.089843 z m -1.92578,-10.089843 c -0.12514,-0.919121 -0.23767,-1.839298 -0.32813,-2.763672 -0.0863,-0.882277 -0.70452,-2.145916 0.0176,-2.660156 0.84762,-0.60363 1.55671,-1.061601 2.17383,-1.41211 -0.37959,-0.07352 -0.73256,-0.137702 -1.04883,-0.197265 -1.41282,-0.0027 -2.79539,0.133771 -3.64063,1.113281 -0.0347,0.04024 -0.0576,0.0816 -0.084,0.123047 -0.0149,0.20447 -0.0236,0.319675 -0.0527,0.570312 -0.009,0.07957 -0.0216,0.158762 -0.0312,0.238282 0.2672,0.90881 1.48698,1.951831 1.9336,2.873046 0.34406,0.709682 0.70574,1.410838 1.06055,2.115235 z m 1.86328,-6.835938 c 0.48994,0.0949 0.74675,0.139515 1.35351,0.25586 0.0287,0.0055 0.0514,0.02068 0.0781,0.0293 0.046,-0.249246 0.0612,-0.469482 -0.12696,-0.464844 -0.2989,0.0074 -0.62625,-0.0058 -0.94531,-0.01367 -0.11614,0.06114 -0.23495,0.12269 -0.35937,0.193359 z m 1.43164,0.285157 c -0.0313,0.169575 -0.0768,0.354477 -0.082,0.482421 -0.0134,0.330507 -0.0815,0.869421 -0.13477,1.353516 0.33801,-0.102111 0.72534,-0.202635 1.20898,-0.302734 -0.27856,-0.551017 -0.43934,-1.355335 -0.99218,-1.533203 z m 0.99218,1.533203 c 0.0102,0.02022 0.0187,0.04695 0.0293,0.06641 0.55976,1.0289 1.07649,2.079671 1.58984,3.132812 -0.075,-0.599465 -0.15741,-1.197814 -0.21679,-1.798828 -0.055,-0.556699 0.6275,-1.77077 0.0762,-1.675781 -0.56821,0.0979 -1.05042,0.186788 -1.47852,0.275391 z m -1.20898,0.302734 c -1.6125,0.487133 -1.79188,1.079907 -2.40234,2.580078 0.37481,1.715394 0.74823,3.429137 1.12304,5.144531 0.0654,0.283866 0.13154,0.56776 0.19727,0.851563 0.18919,-1.883437 0.47315,-3.759671 0.7207,-5.638672 0.0781,-0.597942 0.2388,-1.823299 0.36133,-2.9375 z m -1.08203,8.576172 c -0.01,0.09692 -0.0163,0.194052 -0.0254,0.291015 0.0852,0.201007 0.12914,0.309161 0.21094,0.501954 -0.0614,-0.264369 -0.12431,-0.528558 -0.18555,-0.792969 z m -0.15625,47.587891 c 0.59181,1.684045 1.19503,3.364146 1.83789,5.029296 1.68786,4.371914 3.89331,9.202171 6.01367,13.703128 0.42427,-0.56207 0.82162,-1.170983 1.39453,-1.478518 0.01,-1.48195 0.0332,-2.958406 0.0488,-4.132813 0.0611,-1.42551 0.0875,-2.850427 0.0957,-4.27539 -0.19201,-0.482448 -0.38437,-0.964761 -0.57617,-1.447266 -0.49441,-1.385336 -0.94263,-2.787954 -1.48242,-4.15625 -0.4775,-1.210418 -1.35598,-2.236024 -1.26367,-3.585937 -0.0185,-0.420695 -0.0295,-0.593518 -0.0391,-0.810547 -0.26603,-0.747934 -0.52926,-1.497817 -0.78907,-2.248047 -0.0717,0.107318 -0.10315,0.15845 -0.18945,0.287109 -0.15168,0.226135 -0.0754,-0.124621 0.10352,-0.53125 -0.53491,-1.547574 -1.06927,-3.095433 -1.60547,-4.642578 -0.61045,-1.023318 -1.21576,-2.049939 -1.8418,-3.064453 -0.20337,-0.332372 -0.40594,-0.665476 -0.60937,-0.998047 -0.0431,0.463656 -0.0825,0.911033 -0.13672,1.410156 -0.12959,1.191767 -0.37285,2.368421 -0.5586,3.552735 -0.10075,0.425516 -0.72369,1.164221 -0.30078,1.27539 0.0447,0.01174 0.0846,-0.0072 0.125,-0.03125 0.16655,-0.386022 0.33667,-0.770523 0.4375,-1.175781 0.0961,-0.386301 -0.0892,0.968708 -0.4375,1.175781 -0.17884,0.414513 -0.35293,0.830364 -0.43359,1.271485 -0.11716,0.640679 0.039,1.3024 0.0664,1.953125 0.04,0.948177 0.0952,1.895642 0.13672,2.84375 -6e-4,0.02564 0.004,0.05058 0.004,0.07617 z m 5.1543,-3.646485 c 0.0282,0.08152 0.0577,0.162639 0.0859,0.244141 0.29515,-0.442041 0.45828,-0.71905 0.58203,-0.960938 -0.0188,-0.03327 -0.0378,-0.06636 -0.0566,-0.09961 -0.23145,0.100255 -0.45902,0.470207 -0.61132,0.816406 z m 0.875,2.492188 c 0.45142,1.269184 0.91,2.534056 1.39453,3.791015 0.59333,1.539222 1.26287,3.143002 1.96093,4.765625 -0.002,-0.913985 -0.001,-1.827941 -0.0117,-2.742187 0,-0.804683 9.5e-4,-1.609376 0.002,-2.414063 -0.73238,-1.502654 -1.79064,-3.452842 -2.14453,-4.107422 -0.3844,-0.710998 -0.79431,-1.406697 -1.18946,-2.111328 -0.0406,0.269063 -0.1205,0.583047 -0.10937,0.792969 0.0635,1.199135 0.0738,1.483078 0.0977,2.025391 z m 1.82226,19.886721 c -0.15994,0.21189 -0.32431,0.41748 -0.5039,0.5957 0.009,0.29523 0.009,0.59103 0.0117,0.88672 0.0779,0.18607 0.022,0.0489 0.11719,0.27734 0.11039,0.26488 0.0635,0.93073 0.31836,0.79883 0.32692,-0.16919 0.68083,-0.33278 1.03125,-0.49805 -0.32098,-0.67567 -0.64694,-1.365 -0.97461,-2.06054 z m 0.97461,2.06054 c 0.0924,0.19451 0.18769,0.40123 0.2793,0.59375 0.0654,-0.0524 0.13998,-0.0957 0.20898,-0.14453 -0.01,-0.178 -0.0322,-0.35493 -0.0391,-0.5332 -0.002,-0.0393 -5.4e-4,-0.0949 -0.002,-0.13477 -0.14994,0.0718 -0.29803,0.14837 -0.44727,0.21875 z m 0.2793,0.59375 c -0.28961,0.2319 -0.55502,0.48769 -0.75196,0.81446 -0.27413,0.45486 0.34271,0.69069 1.08789,0.79102 -0.0353,-0.35539 -0.0512,-0.71229 -0.0781,-1.06837 -0.036,-0.0737 -0.12688,-0.26078 -0.13477,-0.27734 -0.04,-0.0839 -0.0829,-0.17543 -0.12304,-0.25977 z m 1,-52.472652 c -0.11258,3.69e-4 -0.22529,0.003 -0.33789,0.0039 0.0333,0.110015 0.0505,0.169242 0.082,0.273438 0.10548,0.004 0.21094,0.0066 0.3164,0.0098 -0.0203,-0.09568 -0.0403,-0.19143 -0.0605,-0.287109 z m -1.15235,0.01758 c -0.40433,0.0069 -0.80854,0.0076 -1.21289,0.01758 0.001,0.0038 0.002,0.008 0.004,0.01172 0.41949,0.03126 0.8386,0.0832 1.25781,0.142578 -0.0167,-0.05716 -0.0321,-0.114714 -0.0488,-0.171875 z m -2.35156,0.01362 c 0.004,0.01015 0.006,0.01713 0.01,0.02734 0.23433,-0.0039 0.46872,-0.0078 0.70312,-0.01367 -1.8e-4,-0.0033 -0.002,-0.0065 -0.002,-0.0098 -0.23697,-0.0088 -0.47394,-0.01144 -0.71094,-0.0039 z m 0.0352,0.09766 c 0.0268,0.07447 0.0443,0.117191 0.0723,0.195313 0.0137,0.03837 0.0273,0.07684 0.041,0.115234 0.21409,0.04541 0.40125,0.08935 0.59766,0.134766 -0.007,-0.137453 -0.018,-0.274706 -0.0254,-0.41211 -0.22853,-0.01125 -0.45706,-0.02365 -0.68554,-0.0332 z m 1.16211,0.05664 c 0.0666,0.170217 0.15028,0.388125 0.20898,0.539062 0.47837,0.120748 0.88071,0.234757 1.24805,0.345703 -0.0805,-0.275725 -0.15755,-0.552454 -0.23828,-0.828124 -0.40621,-0.0196 -0.81248,-0.03562 -1.21875,-0.05664 z m 2.0625,0.130859 c 0.11915,0.394107 0.21535,0.722937 0.31054,1.042969 0.0871,0.02974 0.15638,0.05117 0.23438,0.07813 -0.0754,-0.357328 -0.14895,-0.715008 -0.22461,-1.072266 -0.10677,-0.01702 -0.21354,-0.03184 -0.32031,-0.04883 z m 2.02929,0.28711 c -0.004,0.433812 -1.4e-4,0.600266 -0.006,1.0625 0.11512,-0.157673 0.15262,-0.479507 0.2168,-1.035157 -0.0703,-0.0068 -0.14065,-0.01965 -0.21094,-0.02734 z m -12.04492,5.201172 c 0.37784,0.487447 0.87858,1.192037 1.67774,2.335937 -5.9e-4,-0.173076 0.003,-0.306786 0.002,-0.484375 -0.002,-0.438187 -0.009,-0.427726 -0.0117,-0.785156 -0.33436,-0.192442 -0.6731,-0.377706 -0.99414,-0.591797 -0.28819,-0.192182 -0.43748,-0.310561 -0.67383,-0.474609 z m 4.95313,2.880859 c 0.11044,0.176277 0.24051,0.338731 0.41992,0.466797 0.0564,0.04024 0.10285,0.07026 0.1582,0.109375 0.0158,-0.03405 0.04,-0.07431 0.043,-0.101563 0.006,-0.05693 0.007,-0.08252 0.0117,-0.132812 -0.0784,-0.03998 -0.45887,-0.249061 -0.63281,-0.341797 z m 0.57812,0.576172 c -0.0158,0.03405 -0.0233,0.0603 0.004,0.05664 0.0232,-0.0031 0.0488,-0.003 0.0723,-0.0059 -0.0261,-0.01837 -0.0498,-0.03216 -0.0762,-0.05078 z m 0.0762,0.05078 c 0.0869,0.06109 0.16565,0.115503 0.25,0.173828 -0.0128,-0.07578 -0.019,-0.114836 -0.0312,-0.1875 -0.0724,0.0059 -0.14794,0.0051 -0.21875,0.01367 z m 0.21875,-0.01367 c 0.0459,-0.0038 0.0922,-0.0069 0.13868,-0.0098 -0.004,-0.02082 -0.008,-0.04168 -0.0117,-0.0625 -0.0125,-0.0064 -0.13784,-0.07469 -0.15235,-0.08203 0.009,0.05634 0.0154,0.09452 0.0254,0.154297 z m 0.13868,-0.0098 c 0.0201,0.104988 0.0424,0.209471 0.0625,0.314454 0.60435,0.412824 1.13718,0.747061 1.61718,1.021484 -0.0577,-0.121029 -0.11072,-0.244058 -0.13281,-0.375 -0.0119,-0.07064 0.0341,-0.0075 0.0957,0.08203 -0.005,-0.0279 -0.007,-0.05609 -0.0117,-0.08398 -0.12436,-0.180971 -0.22975,-0.318793 -0.0742,-0.06836 -1.24296,-0.766744 -1.29759,-0.808003 -1.46094,-0.892579 -0.0313,0.0016 -0.0646,6.2e-5 -0.0957,0.002 z m 0.0625,0.314454 c -0.0561,-0.03828 -0.11274,-0.07765 -0.16993,-0.117188 0.0329,0.194956 0.0428,0.265524 0.0801,0.482422 0.0607,0.02605 0.11916,0.05924 0.17969,0.08594 -0.029,-0.150591 -0.061,-0.300552 -0.0898,-0.451172 z m 0.0898,0.451172 c 0.1204,0.624797 0.24786,1.248093 0.37695,1.871093 0.009,-0.06355 0.0228,-0.118549 0.0605,-0.146484 0.37466,-0.277438 0.76613,-0.532287 1.16211,-0.777344 1.6e-4,-0.01236 -10e-6,-0.02474 0,-0.03711 -0.01,-0.05469 -0.0198,-0.109334 -0.0293,-0.164063 -0.51921,-0.261312 -1.0421,-0.51317 -1.57031,-0.746093 z m 1.59961,0.947265 c -0.0278,2.083438 -0.11195,4.165602 -0.25586,6.248047 0.68578,1.122987 1.36533,2.249436 2.0332,3.382812 -0.0227,-0.215104 -0.0489,-0.42747 -0.0938,-0.597656 -0.90339,-3.429767 -0.11354,1.552415 -1.0664,-3.597656 -0.26876,-1.452638 -0.32958,-2.943832 -0.42579,-4.414062 -0.0612,-0.341924 -0.12437,-0.683482 -0.18554,-1.025391 -0.002,0.0012 -0.004,0.0027 -0.006,0.0039 z m -1.22266,0.923828 c -0.0398,0.296064 0.17509,0.860231 0.12891,0.646485 -0.0464,-0.214791 -0.0843,-0.431317 -0.12891,-0.646485 z m 9.1211,9.488281 c 0.007,0.587491 -0.002,1.176405 -0.002,1.664063 7.1e-4,2.982799 -0.005,5.964933 -0.008,8.947266 0.0116,0.02946 0.0404,0.0838 0.0508,0.111328 0.26859,0.71341 0.39555,1.470953 0.59375,2.207031 0.0653,0.454306 0.0948,0.915458 0.19531,1.363281 0.21997,0.979743 0.47196,0.917631 0.98047,1.908203 0.51238,0.998104 0.98375,2.01775 1.43946,3.042969 0.53666,1.207328 1.02473,2.434518 1.53711,3.652344 0.25724,0.575391 0.51426,1.151027 0.77148,1.726562 V 84.05157 c -0.73144,-1.548991 -0.31556,-0.998215 -1.07031,-2.816407 -0.23096,-0.55637 -0.49646,-1.097041 -0.75196,-1.642578 -0.32598,-0.696011 -0.66139,-1.38829 -0.99218,-2.082031 -0.71831,-1.379393 -1.37611,-2.7902 -2.14063,-4.144531 -0.19313,-0.342133 -0.39605,-0.675769 -0.60351,-1.00586 z m -0.13868,26.769532 c -0.01,1.170578 -0.0162,2.366938 0.0117,3.164068 6.4e-4,0.0183 0.003,0.0364 0.004,0.0547 0.61756,1.2778 1.23808,2.55436 1.85937,3.83007 0.65154,1.3378 1.26829,2.69277 1.96094,4.00977 0.5821,1.1068 1.24117,2.17188 1.86133,3.25781 v -2.74414 c -1.57833,-2.75675 -2.86692,-5.67111 -4.32031,-8.49218 -0.45868,-1.02683 -0.91778,-2.05347 -1.37696,-3.080086 z m 0.9004,12.757818 c 0.16075,2.05722 0.35395,4.04848 0.68164,6.05273 0.42303,0.40228 0.86151,0.69363 1.29492,0.88086 0.005,-0.57419 0.006,-1.15284 -0.0899,-1.71875 -0.10333,-0.60728 -0.71866,-1.8089 -0.96484,-2.33203 -0.21789,-0.58204 -0.47931,-1.14919 -0.65234,-1.74609 -0.10858,-0.37458 -0.18749,-0.75601 -0.26953,-1.13672 z m 1.97656,6.93359 c -7e-5,0.008 7e-5,0.0169 0,0.0254 -8.8e-4,0.10999 -0.031,0.21725 -0.0605,0.32422 0.008,-0.009 0.0164,-0.0247 0.0273,-0.0195 0.10263,0.0483 0.0763,0.21379 0.11524,0.32031 0.0594,0.42553 0.12029,0.84986 0.17969,1.27539 0.0687,0.3309 0.15327,0.66017 0.20507,0.99414 0.0821,0.52947 0.11202,1.06446 0.19532,1.59375 0.18755,1.19227 0.26883,1.50534 0.36718,1.85547 0.3246,0.37688 0.67695,0.73291 0.9961,1.11328 h 0.002 c 0.32446,0.38671 0.57436,0.76924 0.79297,1.14844 v -8.9668 c -0.7029,0.62857 -1.74291,0.80139 -2.82031,0.33594 z m -0.0605,0.34961 c -0.0467,0.0521 -0.0543,0.27891 -0.0469,0.21094 0.008,-0.071 0.0277,-0.14145 0.0469,-0.21094 z m 2.88086,12.91406 c -0.09,0.0884 -0.19603,0.15548 -0.29883,0.22656 0.0836,0.27404 0.17875,0.54444 0.25586,0.82032 0.0193,0.0691 0.0248,0.091 0.043,0.15625 z"
         style="fill:#ffffff;fill-opacity:0;fill-rule:evenodd;stroke:#ffffff"
         id="path132" />
    </clipPath>
  </defs>
  <g
     transform="translate(-86.145344,-41.054443)"
     id="g6514">
    <path
       id="path10"
       d="m 262.93605,396.10337 c -8.36883,-0.8672 -16.23421,-3.52308 -21.20151,-7.15905 l -2.57388,-1.88404 -0.005,-9.67817 c -0.003,-5.32299 -0.29805,-10.50688 -0.65641,-11.51975 -1.55333,-4.39037 3.90235,-8.67241 13.71662,-10.76585 7.53439,-1.60713 24.03647,-1.6406 31.0862,-0.0631 5.95874,1.3334 12.25968,4.37247 13.05479,6.29658 0.29894,0.7234 0.45827,6.63698 0.35406,13.14128 -0.21766,13.58667 -0.10504,13.30592 -6.74325,16.80969 -6.48872,3.42486 -18.99224,5.65545 -27.03176,4.82236 z m 2.48501,-7.51715 v -6.48523 h 2.48501 2.48501 v 6.48523 6.48522 h 2.48501 2.48501 v -7.67983 c 0,-10.49945 -0.0911,-10.63139 -7.338,-10.63139 -3.61737,0 -6.19484,0.35116 -6.72005,0.91556 -0.55749,0.59907 -0.85201,3.76397 -0.85201,9.15561 v 8.24005 h 2.48501 2.48501 z m -7.10003,-1.80453 c 0,-6.45936 -0.20869,-7.81188 -1.47153,-9.5371 -1.66354,-2.2726 -4.24451,-2.62557 -5.93278,-0.81136 -0.86228,0.92661 -1.11572,2.89504 -1.11572,8.66573 v 7.46677 l 3.01751,0.77975 c 5.79534,1.49755 5.50252,1.84685 5.50252,-6.56379 z m 24.1401,6.47925 3.19501,-1.02437 0.20632,-6.68038 c 0.15638,-5.06326 -0.0624,-7.12114 -0.90387,-8.50115 -1.37235,-2.25072 -4.10345,-2.38387 -6.04747,-0.29482 -1.23969,1.33216 -1.42001,2.54322 -1.42001,9.53709 0,8.87459 -0.1844,8.61622 4.97002,6.96363 z m -34.19301,-9.99001 c -0.26621,-8.77995 -1.00789,-10.51629 -4.492,-10.51629 -2.87324,0 -3.51078,1.25302 -3.80316,7.47488 -0.29909,6.36486 0.075,7.23404 4.0974,9.51915 4.40203,2.5008 4.46696,2.40062 4.19776,-6.47774 z m 44.57572,5.54009 2.39734,-1.51998 v -6.39227 c 0,-5.92953 -0.12505,-6.48033 -1.72739,-7.60855 -1.33503,-0.93999 -2.05707,-1.02667 -3.17874,-0.38158 -2.37965,1.36855 -2.9039,3.37265 -2.9039,11.10103 0,8.24566 -0.008,8.23836 5.41269,4.80135 z m -12.37145,-17.09869 c 0.66346,-0.20405 1.05931,-0.7826 0.87968,-1.28565 -0.45084,-1.26262 -26.73049,-1.19586 -27.12281,0.0689 -0.51656,1.66527 6.38465,2.41889 17.58183,1.91996 4.10026,-0.18271 7.99785,-0.49914 8.6613,-0.7032 z m -27.12138,-2.15277 c 0,-0.55377 -0.87862,-1.3937 -1.9525,-1.8665 -3.34846,-1.47424 -11.53755,-3.72485 -11.53755,-3.17087 0,1.88193 4.68015,4.4739 11.71505,6.48806 1.04,0.29775 1.775,-0.30295 1.775,-1.45069 z m 36.73652,-0.58855 c 3.11799,-1.23258 6.38964,-4.10737 5.61802,-4.93655 -0.11713,-0.12588 -3.27442,0.79948 -7.0162,2.05635 -5.97519,2.00707 -6.75837,2.46953 -6.43469,3.7996 0.41711,1.71403 1.48972,1.58813 7.83287,-0.9194 z M 249.659,364.40014 c 1.16342,-1.25021 1.05206,-2.19391 -0.51794,-4.38918 -1.22255,-1.70945 -1.51302,-1.7872 -3.35672,-0.89841 -1.1101,0.53513 -2.81712,1.53262 -3.79337,2.21665 l -1.77501,1.24369 3.90502,1.32479 c 4.81279,1.63277 4.51161,1.60544 5.53802,0.50246 z m 42.54142,-0.67501 c 3.45616,-1.06758 3.30267,-1.8234 -0.77435,-3.81289 -3.93821,-1.92176 -4.26644,-1.85869 -5.56586,1.06949 -1.0326,2.32695 -1.02887,2.60165 0.046,3.38086 1.22185,0.88574 1.43184,0.86448 6.2942,-0.63746 z m -34.34452,-2.01181 c 3.38818,-0.43551 3.43344,-0.47687 3.01013,-2.75132 -0.23638,-1.27004 -0.59614,-2.48793 -0.79947,-2.70644 -0.41134,-0.44202 -9.48026,1.09523 -10.04567,1.70281 -0.19703,0.21174 0.22476,1.44555 0.93731,2.74179 0.85415,1.55382 1.66391,2.20324 2.37669,1.90606 0.59462,-0.24791 2.62908,-0.64972 4.52101,-0.8929 z m 26.9157,-1.28581 c 1.32292,-2.98113 1.36076,-2.95454 -5.59201,-3.9286 -3.84497,-0.53867 -4.06242,-0.40709 -4.79885,2.90379 -0.44444,1.99809 -0.33906,2.10179 2.20934,2.17422 1.47182,0.0418 3.47479,0.35094 4.45105,0.68691 0.97625,0.33597 1.95545,0.64509 2.176,0.68692 0.22055,0.0418 0.92006,-1.09363 1.55447,-2.52324 z m -11.54051,-1.89361 c 0,-1.92037 -0.32409,-2.26932 -2.51857,-2.71172 -3.76871,-0.75976 -9.02484,0.24984 -8.52905,1.63825 0.21867,0.61235 0.39758,1.60029 0.39758,2.19542 0,0.8379 1.20149,1.08205 5.32502,1.08205 h 5.32502 z m 83.42534,3.23592 c -8.36883,-0.86719 -16.23422,-3.52307 -21.20151,-7.15904 l -2.57388,-1.88404 -0.005,-9.67817 c -0.003,-5.323 -0.29805,-10.50688 -0.65641,-11.51975 -1.55334,-4.39037 3.90234,-8.67241 13.71661,-10.76585 7.5344,-1.60713 24.03647,-1.6406 31.0862,-0.0631 5.95874,1.3334 12.25968,4.37248 13.0548,6.29659 0.29893,0.7234 0.45826,6.63697 0.35406,13.14127 -0.21766,13.58668 -0.10504,13.30593 -6.74326,16.8097 -6.48871,3.42486 -18.99223,5.65544 -27.03176,4.82236 z m 2.48501,-7.51715 v -6.48522 h 2.48501 2.48501 v 6.48522 6.48523 h 2.48501 2.48501 v -7.67984 c 0,-10.49945 -0.0911,-10.63139 -7.33801,-10.63139 -3.61737,0 -6.19483,0.35117 -6.72005,0.91556 -0.55749,0.59908 -0.852,3.76397 -0.852,9.15562 v 8.24005 h 2.48501 2.48501 z m -7.10003,-1.80452 c 0,-6.45937 -0.20869,-7.81189 -1.47154,-9.5371 -1.66354,-2.27261 -4.2445,-2.62558 -5.93278,-0.81136 -0.86228,0.92661 -1.11572,2.89503 -1.11572,8.66572 v 7.46678 l 3.01752,0.77974 c 5.79534,1.49756 5.50252,1.84685 5.50252,-6.56378 z m 24.14009,6.47925 3.19502,-1.02438 0.20632,-6.68038 c 0.15638,-5.06326 -0.0624,-7.12113 -0.90387,-8.50114 -1.37236,-2.25073 -4.10346,-2.38387 -6.04748,-0.29483 -1.23969,1.33217 -1.42001,2.54322 -1.42001,9.5371 0,8.87459 -0.1844,8.61621 4.97002,6.96363 z m -34.19301,-9.99001 c -0.26621,-8.77995 -1.00788,-10.5163 -4.49199,-10.5163 -2.87325,0 -3.51078,1.25302 -3.80316,7.47489 -0.2991,6.36486 0.075,7.23404 4.0974,9.51915 4.40203,2.50079 4.46695,2.40061 4.19775,-6.47774 z m 44.57572,5.54009 2.39735,-1.51999 v -6.39227 c 0,-5.92952 -0.12506,-6.48032 -1.7274,-7.60854 -1.33503,-0.94 -2.05706,-1.02667 -3.17874,-0.38158 -2.37965,1.36855 -2.9039,3.37264 -2.9039,11.10102 0,8.24567 -0.008,8.23837 5.41269,4.80136 z m -12.37144,-17.09869 c 0.66345,-0.20405 1.05931,-0.7826 0.87967,-1.28566 -0.45084,-1.26262 -26.73049,-1.19586 -27.12281,0.0689 -0.51655,1.66527 6.38465,2.41889 17.58183,1.91995 4.10027,-0.1827 7.99786,-0.49914 8.66131,-0.70319 z m -27.12138,-2.15278 c 0,-0.55377 -0.87863,-1.3937 -1.95251,-1.86649 -3.34846,-1.47425 -11.53755,-3.72486 -11.53755,-3.17087 0,1.88193 4.68015,4.4739 11.71505,6.48805 1.04,0.29776 1.77501,-0.30295 1.77501,-1.45069 z m 36.73651,-0.58854 c 3.11799,-1.23259 6.38964,-4.10738 5.61803,-4.93656 -0.11713,-0.12587 -3.27442,0.79949 -7.0162,2.05635 -5.97519,2.00707 -6.75838,2.46953 -6.4347,3.79961 0.41711,1.71403 1.48972,1.58813 7.83287,-0.9194 z m -40.42853,-4.57087 c 1.16342,-1.25021 1.05206,-2.19392 -0.51794,-4.38918 -1.22255,-1.70945 -1.51302,-1.7872 -3.35672,-0.89842 -1.1101,0.53513 -2.81711,1.53263 -3.79337,2.21665 l -1.775,1.24369 3.90501,1.3248 c 4.8128,1.63276 4.51162,1.60543 5.53802,0.50246 z m 42.54142,-0.67502 c 3.45617,-1.06757 3.30267,-1.8234 -0.77434,-3.81288 -3.93822,-1.92176 -4.26644,-1.8587 -5.56586,1.06949 -1.03261,2.32694 -1.02888,2.60165 0.046,3.38085 1.22186,0.88575 1.43185,0.86448 6.29421,-0.63746 z m -34.34451,-2.01181 c 3.38817,-0.4355 3.43343,-0.47687 3.01012,-2.75131 -0.23637,-1.27004 -0.59614,-2.48794 -0.79947,-2.70644 -0.41133,-0.44202 -9.48026,1.09523 -10.04567,1.70281 -0.19703,0.21174 0.22476,1.44554 0.93731,2.74178 0.85415,1.55383 1.66392,2.20324 2.37669,1.90607 0.59462,-0.24792 2.62908,-0.64972 4.52102,-0.89291 z m 26.91569,-1.2858 c 1.32292,-2.98114 1.36077,-2.95455 -5.59201,-3.92861 -3.84497,-0.53867 -4.06241,-0.40709 -4.79885,2.9038 -0.44443,1.99809 -0.33906,2.10178 2.20935,2.17421 1.47182,0.0418 3.47479,0.35094 4.45104,0.68692 0.97625,0.33597 1.95545,0.64509 2.17601,0.68691 0.22055,0.0418 0.92006,-1.09362 1.55446,-2.52323 z m -11.5405,-1.89361 c 0,-1.92038 -0.3241,-2.26933 -2.51858,-2.71173 -3.76871,-0.75975 -9.02484,0.24985 -8.52904,1.63826 0.21866,0.61235 0.39758,1.60028 0.39758,2.19541 0,0.83791 1.20148,1.08205 5.32502,1.08205 h 5.32502 z m -197.7358,35.28056 c -8.36883,-0.86719 -16.23421,-3.52308 -21.2015,-7.15905 l -2.57388,-1.88404 -0.005,-9.67817 c -0.003,-5.32299 -0.29806,-10.50688 -0.65642,-11.51975 -1.55333,-4.39036 3.90235,-8.67241 13.71662,-10.76584 7.53439,-1.60714 24.03647,-1.64061 31.0862,-0.0631 5.95874,1.3334 12.25968,4.37247 13.0548,6.29659 0.29893,0.7234 0.45826,6.63697 0.35405,13.14127 -0.21766,13.58667 -0.10503,13.30592 -6.74325,16.80969 -6.48871,3.42487 -18.99223,5.65545 -27.03176,4.82236 z m 2.48501,-7.51715 v -6.48523 h 2.48501 2.48501 v 6.48523 6.48522 h 2.48501 2.48501 v -7.67983 c 0,-10.49945 -0.0911,-10.63139 -7.338,-10.63139 -3.61737,0 -6.19483,0.35116 -6.72005,0.91556 -0.55749,0.59907 -0.85201,3.76397 -0.85201,9.15561 v 8.24005 h 2.48501 2.48501 z m -7.10002,-1.80453 c 0,-6.45936 -0.20869,-7.81188 -1.47154,-9.53709 -1.66354,-2.27261 -4.2445,-2.62558 -5.93278,-0.81137 -0.86228,0.92661 -1.11572,2.89504 -1.11572,8.66573 v 7.46677 l 3.01751,0.77975 c 5.79535,1.49755 5.50253,1.84685 5.50253,-6.56379 z m 24.14009,6.47925 3.19502,-1.02437 0.20632,-6.68038 c 0.15637,-5.06326 -0.0624,-7.12113 -0.90387,-8.50115 -1.37236,-2.25072 -4.10346,-2.38386 -6.04748,-0.29482 -1.23969,1.33216 -1.42001,2.54322 -1.42001,9.53709 0,8.87459 -0.1844,8.61622 4.97002,6.96363 z m -34.19301,-9.99001 c -0.26621,-8.77994 -1.00788,-10.51629 -4.492,-10.51629 -2.87324,0 -3.51078,1.25302 -3.80315,7.47488 -0.2991,6.36486 0.075,7.23404 4.09739,9.51916 4.40204,2.50079 4.46696,2.40061 4.19776,-6.47775 z m 44.57572,5.5401 2.39734,-1.51999 v -6.39227 c 0,-5.92953 -0.12505,-6.48033 -1.72739,-7.60854 -1.33503,-0.94 -2.05706,-1.02668 -3.17874,-0.38159 -2.37965,1.36855 -2.9039,3.37265 -2.9039,11.10103 0,8.24567 -0.008,8.23837 5.41269,4.80136 z m -12.37145,-17.0987 c 0.66346,-0.20404 1.05931,-0.7826 0.87968,-1.28565 -0.45084,-1.26262 -26.73049,-1.19586 -27.12281,0.0689 -0.51655,1.66526 6.38465,2.41889 17.58183,1.91995 4.10027,-0.18271 7.99786,-0.49914 8.6613,-0.7032 z m -27.12137,-2.15277 c 0,-0.55377 -0.87863,-1.3937 -1.95251,-1.86649 -3.34846,-1.47425 -11.53755,-3.72486 -11.53755,-3.17088 0,1.88193 4.68015,4.4739 11.71505,6.48806 1.04,0.29776 1.77501,-0.30295 1.77501,-1.45069 z m 36.73651,-0.58855 c 3.11799,-1.23258 6.38964,-4.10737 5.61802,-4.93655 -0.11713,-0.12587 -3.27442,0.79948 -7.01619,2.05635 -5.9752,2.00707 -6.75838,2.46953 -6.4347,3.7996 0.41711,1.71403 1.48972,1.58813 7.83287,-0.9194 z m -40.42853,-4.57087 c 1.16342,-1.2502 1.05206,-2.19391 -0.51794,-4.38917 -1.22255,-1.70946 -1.51302,-1.7872 -3.35672,-0.89842 -1.1101,0.53513 -2.81711,1.53262 -3.79337,2.21665 l -1.77501,1.24369 3.90502,1.32479 c 4.8128,1.63277 4.51161,1.60544 5.53802,0.50246 z m 42.54142,-0.67501 c 3.45617,-1.06757 3.30267,-1.8234 -0.77434,-3.81289 -3.93822,-1.92176 -4.26645,-1.85869 -5.56587,1.06949 -1.0326,2.32695 -1.02887,2.60166 0.046,3.38086 1.22186,0.88574 1.43185,0.86448 6.29421,-0.63746 z m -34.34451,-2.01181 c 3.38817,-0.43551 3.43343,-0.47687 3.01012,-2.75131 -0.23638,-1.27005 -0.59614,-2.48794 -0.79947,-2.70645 -0.41134,-0.44202 -9.48026,1.09523 -10.04567,1.70282 -0.19703,0.21174 0.22476,1.44554 0.93731,2.74178 0.85415,1.55382 1.66391,2.20324 2.37669,1.90606 0.59462,-0.24791 2.62908,-0.64972 4.52102,-0.8929 z m 26.91569,-1.2858 c 1.32292,-2.98114 1.36077,-2.95455 -5.59201,-3.92861 -3.84497,-0.53867 -4.06241,-0.40709 -4.79885,2.90379 -0.44443,1.99809 -0.33906,2.10179 2.20934,2.17422 1.47183,0.0418 3.47479,0.35094 4.45105,0.68691 0.97625,0.33598 1.95545,0.64509 2.17601,0.68692 0.22054,0.0418 0.92005,-1.09362 1.55446,-2.52323 z m -11.5405,-1.89361 c 0,-1.92038 -0.3241,-2.26933 -2.51858,-2.71173 -3.76871,-0.75975 -9.02484,0.24984 -8.52905,1.63825 0.21867,0.61235 0.39758,1.60029 0.39758,2.19542 0,0.83791 1.20149,1.08205 5.32502,1.08205 h 5.32503 z m 78.32021,27.38508 c -2.41731,-0.36502 -5.0532,-1.04214 -5.85753,-1.50471 -1.84291,-1.05988 -2.04818,-3.5229 -0.21989,-2.63842 1.97969,0.95774 25.96555,1.32216 29.76146,0.45217 1.87722,-0.43023 3.50458,-0.68397 3.61636,-0.56384 0.65795,0.70703 -0.95413,2.7315 -2.69414,3.38331 -2.88371,1.08026 -19.35936,1.66378 -24.60626,0.87149 z m -3.41491,-5.04124 c -0.781,-0.19916 -2.10277,-0.51721 -2.93725,-0.70678 -1.04386,-0.23712 -1.65507,-1.12054 -1.95897,-2.83141 -1.0819,-6.09079 -4.81313,-12.11373 -10.38074,-16.75657 l -2.47311,-2.06234 3.23968,-0.0358 c 2.67804,-0.0296 3.58456,0.35101 5.22903,2.19552 1.09415,1.22723 2.43265,2.04854 2.97444,1.82513 2.87038,-1.18363 6.55301,2.46949 4.60244,4.56556 -0.56737,0.60967 -0.78053,0.58869 -0.78053,-0.0768 0,-0.50356 -0.639,-0.91556 -1.42001,-0.91556 -1.81486,0 -1.88532,2.36285 -0.12159,4.07807 2.89833,2.81863 6.51162,0.91271 6.51162,-3.4347 v -1.74589 l 1.16888,1.88643 c 1.65049,2.66372 3.11786,3.79387 4.92588,3.79387 3.21592,0 3.449,-6.64695 0.34988,-9.97727 -2.33927,-2.51378 -3.70363,-2.77781 -5.32892,-1.03126 -1.01429,1.08995 -1.11572,1.06022 -1.11572,-0.32699 0,-3.25147 4.80036,-5.32689 6.95803,-3.00827 0.66266,0.7121 0.852,0.10245 0.852,-2.74341 0,-3.69765 1.74654,-8.09074 3.2166,-8.09074 1.26943,0 3.17343,5.14251 3.17343,8.57113 0,2.47223 0.18933,2.97512 0.852,2.26302 1.09832,-1.18025 4.2977,-1.18025 5.39602,0 0.4686,0.50355 0.852,1.5756 0.852,2.38232 0,1.21689 -0.18132,1.30505 -1.06436,0.51752 -0.83229,-0.74226 -1.50824,-0.75166 -3.10009,-0.0431 -3.08592,1.37358 -4.71224,5.58212 -3.54616,9.17664 1.04237,3.2132 3.39539,3.06691 6.21706,-0.38653 1.91552,-2.3444 2.20356,-2.48744 2.20356,-1.09429 0,4.34117 4.07759,6.19561 6.72109,3.05668 1.74705,-2.07447 0.92004,-4.15462 -1.40269,-3.52817 -1.41893,0.3827 -1.76839,0.191 -1.76839,-0.9701 0,-2.03089 1.70707,-3.32212 4.04676,-3.06097 1.39704,0.15594 2.55926,-0.39295 3.9085,-1.84588 1.52529,-1.64251 2.58401,-2.06781 5.14752,-2.06781 1.77501,0 3.22729,0.11346 3.22729,0.25214 0,0.13868 -1.44721,1.36899 -3.21603,2.734 -3.9678,3.06203 -7.77925,9.00507 -8.96576,13.97997 -0.5433,2.27799 -1.46365,4.0931 -2.34391,4.62268 -1.44902,0.87175 -26.91466,1.58835 -29.84948,0.83996 z m 97.13528,-29.29231 c -2.41731,-0.36501 -5.0532,-1.04213 -5.85752,-1.5047 -1.84291,-1.05988 -2.04819,-3.52291 -0.2199,-2.63842 1.9797,0.95773 25.96555,1.32216 29.76147,0.45217 1.87721,-0.43024 3.50457,-0.68397 3.61635,-0.56385 0.65796,0.70704 -0.95413,2.7315 -2.69414,3.38332 -2.8837,1.08026 -19.35935,1.66377 -24.60626,0.87148 z m -187.44075,-2.2889 c -2.41731,-0.36502 -5.0532,-1.04214 -5.85752,-1.50471 -1.84292,-1.05987 -2.04819,-3.5229 -0.2199,-2.63842 1.97969,0.95774 25.96555,1.32217 29.76147,0.45218 1.87721,-0.43024 3.50457,-0.68397 3.61635,-0.56385 0.65796,0.70703 -0.95413,2.7315 -2.69414,3.38332 -2.8837,1.08025 -19.35935,1.66377 -24.60626,0.87148 z m 184.02584,-2.75234 c -0.781,-0.19915 -2.10276,-0.5172 -2.93725,-0.70677 -1.04386,-0.23712 -1.65507,-1.12055 -1.95897,-2.83142 -1.08189,-6.09079 -4.81312,-12.11372 -10.38074,-16.75657 l -2.47311,-2.06234 3.23968,-0.0358 c 2.67804,-0.0296 3.58456,0.351 5.22904,2.19551 1.09415,1.22724 2.43264,2.04855 2.97443,1.82514 2.87038,-1.18363 6.55301,2.46949 4.60245,4.56556 -0.56738,0.60966 -0.78054,0.58869 -0.78054,-0.0768 0,-0.50356 -0.639,-0.91556 -1.42,-0.91556 -1.81487,0 -1.88532,2.36285 -0.1216,4.07807 2.89833,2.81862 6.51162,0.9127 6.51162,-3.43471 v -1.74586 l 1.16888,1.88644 c 1.65049,2.66372 3.11786,3.79386 4.92589,3.79386 3.21591,0 3.449,-6.64695 0.34987,-9.97726 -2.33927,-2.51378 -3.70362,-2.77782 -5.32892,-1.03127 -1.01429,1.08995 -1.11572,1.06023 -1.11572,-0.32698 0,-3.25148 4.80037,-5.3269 6.95803,-3.00828 0.66267,0.7121 0.852,0.10246 0.852,-2.74341 0,-3.69765 1.74654,-8.09073 3.2166,-8.09073 1.26943,0 3.17343,5.14251 3.17343,8.57113 0,2.47222 0.18934,2.97511 0.852,2.26301 1.09832,-1.18025 4.29771,-1.18025 5.39602,0 0.46861,0.50356 0.85201,1.57561 0.85201,2.38232 0,1.2169 -0.18132,1.30506 -1.06437,0.51753 -0.83228,-0.74226 -1.50824,-0.75166 -3.10009,-0.0431 -3.08591,1.37358 -4.71223,5.58213 -3.54616,9.17665 1.04237,3.21319 3.3954,3.0669 6.21706,-0.38654 1.91552,-2.3444 2.20356,-2.48744 2.20356,-1.09428 0,4.34117 4.0776,6.19561 6.72109,3.05668 1.74705,-2.07448 0.92004,-4.15462 -1.40269,-3.52817 -1.41893,0.38269 -1.76839,0.19099 -1.76839,-0.9701 0,-2.0309 1.70707,-3.32212 4.04677,-3.06097 1.39703,0.15593 2.55926,-0.39295 3.9085,-1.84589 1.52528,-1.64251 2.584,-2.06781 5.14752,-2.06781 1.775,0 3.22728,0.11347 3.22728,0.25215 0,0.13867 -1.44721,1.36898 -3.21602,2.734 -3.9678,3.06202 -7.77925,9.00506 -8.96577,13.97996 -0.5433,2.27799 -1.46365,4.0931 -2.34391,4.62269 -1.44902,0.87175 -26.91466,1.58835 -29.84948,0.83995 z m -187.44075,-2.2889 c -0.781,-0.19916 -2.10276,-0.51721 -2.93725,-0.70677 -1.04386,-0.23713 -1.65507,-1.12055 -1.95897,-2.83142 -1.0819,-6.09079 -4.81312,-12.11372 -10.38074,-16.75657 l -2.47311,-2.06234 3.23968,-0.0358 c 2.67804,-0.0296 3.58456,0.35101 5.22904,2.19552 1.09414,1.22723 2.43264,2.04855 2.97443,1.82513 2.87038,-1.18363 6.55301,2.46949 4.60245,4.56556 -0.56738,0.60967 -0.78054,0.58869 -0.78054,-0.0768 0,-0.50356 -0.639,-0.91557 -1.42,-0.91557 -1.81487,0 -1.88532,2.36285 -0.1216,4.07807 2.89833,2.81863 6.51162,0.91271 6.51162,-3.4347 v -1.74586 l 1.16888,1.88644 c 1.65049,2.66371 3.11786,3.79386 4.92588,3.79386 3.21592,0 3.44901,-6.64695 0.34988,-9.97727 -2.33927,-2.51378 -3.70362,-2.77781 -5.32892,-1.03126 -1.01429,1.08995 -1.11572,1.06023 -1.11572,-0.32699 0,-3.25147 4.80037,-5.32689 6.95803,-3.00827 0.66267,0.7121 0.852,0.10246 0.852,-2.74341 0,-3.69765 1.74654,-8.09073 3.2166,-8.09073 1.26943,0 3.17343,5.14251 3.17343,8.57112 0,2.47223 0.18933,2.97512 0.852,2.26302 1.09832,-1.18025 4.2977,-1.18025 5.39602,0 0.4686,0.50356 0.85201,1.5756 0.85201,2.38232 0,1.21689 -0.18132,1.30505 -1.06437,0.51753 -0.83229,-0.74226 -1.50824,-0.75166 -3.10009,-0.0431 -3.08592,1.37358 -4.71223,5.58212 -3.54616,9.17665 1.04237,3.21319 3.3954,3.0669 6.21706,-0.38654 1.91552,-2.3444 2.20356,-2.48744 2.20356,-1.09428 0,4.34117 4.07759,6.19561 6.72109,3.05667 1.74705,-2.07447 0.92004,-4.15462 -1.40269,-3.52817 -1.41893,0.3827 -1.76839,0.191 -1.76839,-0.97009 0,-2.0309 1.70707,-3.32213 4.04676,-3.06098 1.39704,0.15594 2.55927,-0.39295 3.9085,-1.84588 1.52529,-1.64251 2.58401,-2.06781 5.14753,-2.06781 1.775,0 3.22728,0.11347 3.22728,0.25214 0,0.13868 -1.44721,1.36899 -3.21602,2.73401 -3.96781,3.06202 -7.77926,9.00506 -8.96577,13.97996 -0.5433,2.27799 -1.46365,4.0931 -2.34391,4.62268 -1.44902,0.87175 -26.91466,1.58836 -29.84948,0.83996 z m 84.84534,-22.54993 c -17.11238,-1.18482 -29.33339,-4.17332 -33.52532,-8.19821 -1.5966,-1.53299 -2.20575,-2.90084 -2.48733,-5.58532 l -0.3729,-3.55515 3.81522,1.08948 c 21.31489,6.08673 90.93512,6.10559 110.81676,0.03 1.83763,-0.56156 3.46402,-0.88896 3.6142,-0.72758 0.15018,0.16138 0.0555,1.8344 -0.21056,3.71781 -0.86066,6.09424 -4.39127,8.61817 -15.35132,10.97425 -12.80708,2.75312 -43.85147,3.80889 -66.29875,2.2547 z m -1.42,-16.41431 c -12.47031,-0.49169 -25.46222,-2.33725 -32.33245,-4.59296 l -3.57734,-1.17454 -2.00095,-8.43864 c -2.37238,-10.00503 -6.16163,-20.28063 -10.19198,-27.63832 -6.87976,-12.55948 -18.7846,-25.26523 -29.10747,-31.06568 -2.43919,-1.37059 -4.43607,-2.70783 -4.43752,-2.97164 -0.009,-1.64858 9.91541,-3.99992 14.85228,-3.51887 7.4967,0.73049 14.53935,5.60093 18.96229,13.11363 l 1.90539,3.23644 3.44641,-1.40722 c 1.89553,-0.77397 4.41175,-1.40722 5.59161,-1.40722 4.93139,0 10.92858,4.93804 11.75645,9.68017 0.57262,3.28002 -0.6354,7.90692 -2.5507,9.76955 -1.39955,1.36105 -1.42614,1.34203 -1.42614,-1.02024 0,-4.63231 -5.31709,-7.31479 -8.05499,-4.06376 -1.43964,1.70946 -1.52772,6.34772 -0.17343,9.13342 2.98676,6.1436 11.45891,10.55783 16.40085,8.5453 4.85499,-1.97714 7.02669,-6.5333 7.98326,-16.74863 l 0.52938,-5.65332 2.79501,4.90659 c 5.3528,9.39674 13.70288,16.18854 18.35892,14.93277 5.3143,-1.4333 7.96118,-7.6711 7.44889,-17.55445 -0.71978,-13.88611 -8.28661,-22.60895 -19.61267,-22.60895 -3.24063,0 -5.60708,2.13144 -6.91234,6.2259 l -0.81235,2.54823 -0.85056,-4.3353 c -1.42742,-7.27543 0.80711,-12.85552 6.36896,-15.90463 5.13449,-2.81482 12.6914,-1.50731 16.79889,2.90659 2.17099,2.33294 2.35371,2.40382 2.0421,0.79216 -1.5179,-7.85076 -0.83893,-17.16237 1.80517,-24.75653 1.42923,-4.10493 8.00067,-14.78041 9.09829,-14.78041 1.28689,0 5.88839,6.63697 8.19913,11.826 3.1703,7.11929 4.20438,13.29279 3.71204,22.1609 l -0.39879,7.18293 1.73744,-2.21888 c 2.45267,-3.13225 7.14918,-4.88995 11.92797,-4.46409 7.20961,0.64248 11.80134,5.98815 11.75403,13.68398 -0.0139,2.25084 -0.48177,4.95078 -1.03984,5.99986 l -1.01469,1.90742 -0.0251,-2.15685 c -0.0156,-1.3412 -0.81002,-3.00025 -2.10056,-4.38706 -1.73427,-1.86365 -2.63869,-2.22472 -5.50252,-2.19673 -4.24019,0.0414 -7.72879,1.33898 -11.15889,4.15041 -3.55144,2.91089 -5.85692,7.3794 -7.26551,14.08215 -2.2239,10.58236 1.0669,20.60626 7.16879,21.83637 5.0371,1.01547 12.32939,-5.0172 18.59927,-15.38655 l 2.71924,-4.49722 0.41415,6.49268 c 0.73809,11.57138 4.97431,17.39741 11.95341,16.43938 6.68306,-0.91737 13.54755,-7.67654 13.54755,-13.33968 0,-3.90667 -1.6622,-6.15903 -4.54524,-6.15903 -2.94331,0 -4.67843,1.99148 -4.70561,5.40085 l -0.0208,2.61031 -2.10919,-2.49168 c -1.76462,-2.0846 -2.10922,-3.13238 -2.10922,-6.41321 0,-4.81772 2.3048,-8.49049 6.66261,-10.61707 3.7365,-1.8234 7.11004,-1.80776 10.9201,0.0506 l 3.02766,1.47677 1.78901,-3.04541 c 6.5829,-11.20587 18.01104,-16.08471 29.02079,-12.3894 2.31273,0.77625 4.29929,1.74871 4.41457,2.16102 0.11528,0.41232 -1.7627,1.95134 -4.17328,3.42005 -19.57976,11.92949 -33.72679,33.41222 -39.65531,60.21788 l -1.49022,6.73802 -3.66046,1.27765 c -11.46642,4.00226 -45.35908,5.89152 -80.69576,4.49821 z m 162.23565,-11.42535 c -8.36884,-0.8672 -16.23422,-3.52308 -21.20151,-7.15905 l -2.57388,-1.88404 -0.005,-9.67817 c -0.003,-5.323 -0.29806,-10.50688 -0.65642,-11.51975 -1.55333,-4.39037 3.90235,-8.67241 13.71662,-10.76585 7.53439,-1.60713 24.03647,-1.6406 31.0862,-0.0631 5.95874,1.3334 12.25968,4.37248 13.0548,6.29659 0.29893,0.7234 0.45826,6.63697 0.35405,13.14127 -0.21765,13.58668 -0.10503,13.30593 -6.74325,16.8097 -6.48871,3.42486 -18.99223,5.65544 -27.03176,4.82236 z m 2.485,-7.51716 v -6.48522 h 2.48501 2.48501 v 6.48522 6.48523 h 2.48501 2.48501 v -7.67984 c 0,-10.49945 -0.0911,-10.63139 -7.338,-10.63139 -3.61737,0 -6.19483,0.35117 -6.72005,0.91556 -0.55749,0.59908 -0.852,3.76397 -0.852,9.15562 v 8.24005 h 2.48501 2.485 z m -7.10002,-1.80452 c 0,-6.45936 -0.20869,-7.81189 -1.47154,-9.5371 -1.66354,-2.27261 -4.2445,-2.62558 -5.93278,-0.81136 -0.86228,0.92661 -1.11572,2.89503 -1.11572,8.66572 v 7.46678 l 3.01751,0.77974 c 5.79535,1.49756 5.50253,1.84685 5.50253,-6.56378 z m 24.14009,6.47925 3.19502,-1.02438 0.20632,-6.68038 c 0.15637,-5.06326 -0.0624,-7.12113 -0.90387,-8.50114 -1.37236,-2.25073 -4.10346,-2.38387 -6.04748,-0.29483 -1.23969,1.33217 -1.42001,2.54323 -1.42001,9.5371 0,8.87459 -0.1844,8.61621 4.97002,6.96363 z m -34.19301,-9.99001 c -0.26621,-8.77995 -1.00788,-10.5163 -4.492,-10.5163 -2.87324,0 -3.51077,1.25302 -3.80315,7.47489 -0.2991,6.36486 0.075,7.23404 4.09739,9.51915 4.40204,2.50079 4.46696,2.40062 4.19776,-6.47774 z m 44.57572,5.54009 2.39734,-1.51998 v -6.39228 c 0,-5.92952 -0.12505,-6.48032 -1.72739,-7.60854 -1.33503,-0.94 -2.05706,-1.02667 -3.17874,-0.38158 -2.37965,1.36855 -2.9039,3.37264 -2.9039,11.10102 0,8.24567 -0.008,8.23837 5.41269,4.80136 z m -12.37145,-17.09869 c 0.66346,-0.20405 1.05931,-0.7826 0.87968,-1.28566 -0.45084,-1.26262 -26.73049,-1.19586 -27.12281,0.0689 -0.51655,1.66527 6.38465,2.41889 17.58183,1.91995 4.10027,-0.1827 7.99786,-0.49914 8.6613,-0.70319 z m -27.12137,-2.15278 c 0,-0.55377 -0.87863,-1.3937 -1.95251,-1.86649 -3.34846,-1.47425 -11.53755,-3.72485 -11.53755,-3.17087 0,1.88193 4.68015,4.4739 11.71505,6.48805 1.04,0.29776 1.77501,-0.30295 1.77501,-1.45069 z m 36.73651,-0.58854 c 3.11799,-1.23258 6.38964,-4.10738 5.61802,-4.93656 -0.11713,-0.12587 -3.27442,0.79949 -7.01619,2.05635 -5.9752,2.00707 -6.75838,2.46953 -6.4347,3.79961 0.41711,1.71403 1.48972,1.58813 7.83287,-0.9194 z m -40.42853,-4.57087 c 1.16342,-1.25021 1.05206,-2.19392 -0.51794,-4.38918 -1.22255,-1.70945 -1.51302,-1.7872 -3.35672,-0.89842 -1.1101,0.53513 -2.81711,1.53263 -3.79337,2.21665 l -1.77501,1.24369 3.90502,1.3248 c 4.8128,1.63276 4.51161,1.60543 5.53802,0.50246 z m 42.54142,-0.67502 c 3.45617,-1.06757 3.30267,-1.8234 -0.77434,-3.81288 -3.93822,-1.92176 -4.26645,-1.8587 -5.56587,1.06949 -1.0326,2.32694 -1.02887,2.60165 0.046,3.38085 1.22185,0.88575 1.43184,0.86448 6.29421,-0.63746 z m -34.34451,-2.0118 c 3.38817,-0.43551 3.43343,-0.47687 3.01012,-2.75132 -0.23638,-1.27004 -0.59614,-2.48794 -0.79947,-2.70644 -0.41134,-0.44202 -9.48026,1.09523 -10.04567,1.70281 -0.19703,0.21174 0.22476,1.44554 0.93731,2.74179 0.85415,1.55382 1.66391,2.20323 2.37669,1.90606 0.59462,-0.24791 2.62908,-0.64972 4.52102,-0.8929 z m 26.91569,-1.28581 c 1.32292,-2.98114 1.36077,-2.95455 -5.59201,-3.92861 -3.84497,-0.53867 -4.06241,-0.40708 -4.79885,2.9038 -0.44443,1.99809 -0.33906,2.10178 2.20934,2.17421 1.47183,0.0418 3.47479,0.35094 4.45105,0.68692 0.97625,0.33597 1.95545,0.64509 2.17601,0.68691 0.22055,0.0418 0.92005,-1.09362 1.55446,-2.52323 z m -11.5405,-1.89361 c 0,-1.92038 -0.3241,-2.26933 -2.51858,-2.71173 -3.76871,-0.75975 -9.02484,0.24985 -8.52905,1.63826 0.21867,0.61235 0.39758,1.60028 0.39758,2.19541 0,0.83791 1.20149,1.08205 5.32502,1.08205 h 5.32503 z m -304.23622,36.8065 c -8.36883,-0.8672 -16.234218,-3.52308 -21.201506,-7.15905 l -2.573887,-1.88404 -0.0048,-9.67817 c -0.0027,-5.323 -0.298055,-10.50688 -0.656414,-11.51975 -1.55334,-4.39037 3.902347,-8.67241 13.716617,-10.76585 7.53439,-1.60713 24.03647,-1.6406 31.0862,-0.0631 5.95874,1.3334 12.25968,4.37248 13.05479,6.29659 0.29894,0.7234 0.45827,6.63697 0.35406,13.14127 -0.21766,13.58668 -0.10504,13.30593 -6.74325,16.8097 -6.48872,3.42486 -18.99223,5.65544 -27.03176,4.82236 z m 2.48501,-7.51716 v -6.48522 h 2.48501 2.48501 v 6.48522 6.48523 h 2.48501 2.48501 v -7.67984 c 0,-10.49945 -0.0911,-10.63139 -7.33801,-10.63139 -3.61736,0 -6.19483,0.35117 -6.72005,0.91557 -0.55748,0.59907 -0.852,3.76397 -0.852,9.15561 v 8.24005 h 2.48501 2.48501 z m -7.10003,-1.80452 c 0,-6.45936 -0.20869,-7.81188 -1.47154,-9.5371 -1.66353,-2.2726 -4.2445,-2.62558 -5.93277,-0.81136 -0.862287,0.92661 -1.115724,2.89503 -1.115724,8.66573 v 7.46677 l 3.017514,0.77975 c 5.79534,1.49755 5.50252,1.84684 5.50252,-6.56379 z m 24.1401,6.47925 3.19501,-1.02438 0.20632,-6.68037 c 0.15637,-5.06326 -0.0624,-7.12114 -0.90387,-8.50115 -1.37236,-2.25072 -4.10345,-2.38387 -6.04748,-0.29483 -1.23969,1.33217 -1.42,2.54323 -1.42,9.5371 0,8.87459 -0.18441,8.61622 4.97002,6.96363 z m -34.193012,-9.99001 c -0.266211,-8.77995 -1.007888,-10.5163 -4.492003,-10.5163 -2.873246,0 -3.510774,1.25303 -3.803153,7.47489 -0.299099,6.36486 0.07503,7.23404 4.097394,9.51915 4.402036,2.5008 4.466957,2.40062 4.197762,-6.47774 z m 44.575712,5.54009 2.39735,-1.51998 v -6.39227 c 0,-5.92953 -0.12506,-6.48033 -1.7274,-7.60855 -1.33503,-0.94 -2.05706,-1.02667 -3.17874,-0.38158 -2.37965,1.36855 -2.90389,3.37264 -2.90389,11.10103 0,8.24566 -0.008,8.23836 5.41268,4.80135 z m -12.37144,-17.09869 c 0.66345,-0.20405 1.0593,-0.7826 0.87968,-1.28565 -0.45085,-1.26262 -26.73049,-1.19586 -27.12281,0.0689 -0.51656,1.66527 6.38465,2.41889 17.58182,1.91996 4.10027,-0.18271 7.99786,-0.49915 8.66131,-0.7032 z m -27.12138,-2.15278 c 0,-0.55376 -0.87863,-1.39369 -1.95251,-1.86649 -3.348459,-1.47424 -11.537543,-3.72485 -11.537543,-3.17087 0,1.88193 4.68015,4.4739 11.715043,6.48806 1.04,0.29775 1.77501,-0.30296 1.77501,-1.4507 z m 36.73651,-0.58854 c 3.11799,-1.23258 6.38964,-4.10738 5.61803,-4.93655 -0.11713,-0.12588 -3.27442,0.79948 -7.0162,2.05635 -5.97519,2.00707 -6.75838,2.46952 -6.4347,3.7996 0.41711,1.71403 1.48972,1.58813 7.83287,-0.9194 z m -40.428524,-4.57087 c 1.163414,-1.25021 1.052054,-2.19391 -0.517939,-4.38918 -1.222555,-1.70945 -1.513024,-1.7872 -3.356726,-0.89842 -1.110097,0.53513 -2.817112,1.53263 -3.793366,2.21665 l -1.775007,1.24369 3.905016,1.3248 c 4.812794,1.63276 4.51161,1.60544 5.538022,0.50246 z m 42.541414,-0.67501 c 3.45617,-1.06758 3.30267,-1.82341 -0.77434,-3.81289 -3.93822,-1.92176 -4.26644,-1.8587 -5.56586,1.06949 -1.03261,2.32695 -1.02887,2.60165 0.046,3.38086 1.22185,0.88574 1.43184,0.86448 6.2942,-0.63746 z m -34.34451,-2.01181 c 3.38817,-0.43551 3.43343,-0.47687 3.01012,-2.75132 -0.23638,-1.27004 -0.59614,-2.48794 -0.79947,-2.70644 -0.41133,-0.44202 -9.48026,1.09523 -10.045664,1.70281 -0.197035,0.21174 0.224755,1.44554 0.937314,2.74179 0.85414,1.55382 1.66391,2.20323 2.37668,1.90606 0.59463,-0.24791 2.62908,-0.64972 4.52102,-0.8929 z m 26.91569,-1.28581 c 1.32292,-2.98113 1.36077,-2.95455 -5.592,-3.9286 -3.84497,-0.53867 -4.06242,-0.40709 -4.79886,2.90379 -0.44443,1.99809 -0.33906,2.10179 2.20935,2.17421 1.47182,0.0418 3.47479,0.35095 4.45104,0.68692 0.97625,0.33597 1.95546,0.64509 2.17601,0.68691 0.22055,0.0418 0.92006,-1.09362 1.55446,-2.52323 z m -11.5405,-1.89361 c 0,-1.92037 -0.3241,-2.26932 -2.51858,-2.71172 -3.76871,-0.75976 -9.02484,0.24984 -8.52904,1.63825 0.21867,0.61235 0.39758,1.60029 0.39758,2.19542 0,0.8379 1.20149,1.08204 5.32502,1.08204 h 5.32502 z m 278.54101,-8.47439 c -2.41731,-0.36502 -5.0532,-1.04214 -5.85752,-1.50471 -1.84292,-1.05988 -2.04819,-3.52291 -0.2199,-2.63842 1.97969,0.95774 25.96555,1.32216 29.76147,0.45217 1.87721,-0.43024 3.50457,-0.68397 3.61635,-0.56385 0.65796,0.70704 -0.95413,2.7315 -2.69414,3.38332 -2.8837,1.08026 -19.35935,1.66377 -24.60626,0.87149 z m -293.94117,-0.76297 c -2.41732,-0.36502 -5.05321,-1.04214 -5.85753,-1.50471 -1.842911,-1.05988 -2.048191,-3.52291 -0.2199,-2.63842 1.9797,0.95774 25.96555,1.32216 29.76147,0.45217 1.87721,-0.43023 3.50457,-0.68397 3.61635,-0.56385 0.65796,0.70704 -0.95412,2.7315 -2.69414,3.38332 -2.8837,1.08026 -19.35935,1.66378 -24.60625,0.87149 z m 290.52626,-4.27827 c -0.781,-0.19916 -2.10276,-0.51721 -2.93725,-0.70678 -1.04386,-0.23712 -1.65507,-1.12055 -1.95897,-2.83142 -1.0819,-6.09078 -4.81312,-12.11372 -10.38074,-16.75657 l -2.47311,-2.06234 3.23968,-0.0358 c 2.67804,-0.0296 3.58456,0.351 5.22904,2.19551 1.09415,1.22724 2.43264,2.04855 2.97443,1.82514 2.87038,-1.18363 6.55301,2.46949 4.60245,4.56556 -0.56738,0.60966 -0.78054,0.58869 -0.78054,-0.0768 0,-0.50356 -0.639,-0.91556 -1.42,-0.91556 -1.81487,0 -1.88532,2.36285 -0.1216,4.07807 2.89833,2.81862 6.51162,0.91271 6.51162,-3.43471 v -1.74586 l 1.16888,1.88644 c 1.65049,2.66372 3.11786,3.79386 4.92588,3.79386 3.21592,0 3.44901,-6.64695 0.34988,-9.97726 -2.33927,-2.51378 -3.70362,-2.77782 -5.32892,-1.03127 -1.01429,1.08995 -1.11572,1.06023 -1.11572,-0.32698 0,-3.25147 4.80037,-5.3269 6.95803,-3.00828 0.66267,0.7121 0.852,0.10246 0.852,-2.74341 0,-3.69765 1.74654,-8.09073 3.2166,-8.09073 1.26943,0 3.17343,5.14251 3.17343,8.57113 0,2.47222 0.18933,2.97511 0.852,2.26301 1.09832,-1.18025 4.2977,-1.18025 5.39602,0 0.4686,0.50356 0.85201,1.57561 0.85201,2.38232 0,1.2169 -0.18132,1.30506 -1.06437,0.51753 -0.83229,-0.74226 -1.50824,-0.75166 -3.10009,-0.0431 -3.08592,1.37358 -4.71223,5.58213 -3.54616,9.17665 1.04237,3.21319 3.3954,3.0669 6.21706,-0.38653 1.91552,-2.34441 2.20356,-2.48745 2.20356,-1.09429 0,4.34117 4.07759,6.19561 6.72109,3.05668 1.74705,-2.07447 0.92004,-4.15462 -1.40269,-3.52817 -1.41893,0.38269 -1.76839,0.19099 -1.76839,-0.9701 0,-2.0309 1.70707,-3.32212 4.04676,-3.06097 1.39704,0.15593 2.55927,-0.39295 3.90851,-1.84589 1.52528,-1.64251 2.584,-2.06781 5.14752,-2.06781 1.775,0 3.22728,0.11347 3.22728,0.25215 0,0.13867 -1.44721,1.36898 -3.21602,2.734 -3.9678,3.06203 -7.77926,9.00506 -8.96577,13.97996 -0.5433,2.278 -1.46365,4.0931 -2.34391,4.62269 -1.44902,0.87175 -26.91466,1.58835 -29.84948,0.83996 z m -293.94118,-0.76297 c -0.781,-0.19916 -2.10276,-0.51721 -2.93725,-0.70678 -1.043857,-0.23712 -1.655066,-1.12055 -1.958966,-2.83142 -1.081897,-6.09078 -4.813121,-12.11372 -10.38074,-16.75657 l -2.47311,-2.06234 3.239678,-0.0358 c 2.678037,-0.0296 3.58456,0.351 5.229038,2.19552 1.094148,1.22723 2.432643,2.04854 2.974434,1.82513 2.870376,-1.18363 6.553006,2.46949 4.602446,4.56556 -0.56738,0.60966 -0.78054,0.58869 -0.78054,-0.0768 0,-0.50356 -0.639,-0.91556 -1.420001,-0.91556 -1.81487,0 -1.885322,2.36285 -0.121594,4.07807 2.898325,2.81862 6.511615,0.91271 6.511615,-3.43471 v -1.74586 l 1.16889,1.88644 c 1.65049,2.66372 3.11785,3.79387 4.92588,3.79387 3.21591,0 3.449,-6.64696 0.34988,-9.97727 -2.33927,-2.51378 -3.70363,-2.77781 -5.32893,-1.03127 -1.01429,1.08996 -1.11572,1.06023 -1.11572,-0.32698 0,-3.25147 4.80037,-5.3269 6.95803,-3.00828 0.66267,0.7121 0.85201,0.10246 0.85201,-2.74341 0,-3.69764 1.74653,-8.09073 3.21659,-8.09073 1.26943,0 3.17343,5.14251 3.17343,8.57113 0,2.47223 0.18934,2.97511 0.852,2.26301 1.09832,-1.18025 4.29771,-1.18025 5.39603,0 0.4686,0.50356 0.852,1.57561 0.852,2.38232 0,1.2169 -0.18132,1.30506 -1.06436,0.51753 -0.83229,-0.74226 -1.50824,-0.75166 -3.1001,-0.0431 -3.08591,1.37357 -4.71223,5.58212 -3.54616,9.17664 1.04237,3.21319 3.3954,3.0669 6.21706,-0.38653 1.91552,-2.3444 2.20356,-2.48744 2.20356,-1.09429 0,4.34117 4.0776,6.19561 6.7211,3.05668 1.74704,-2.07447 0.92003,-4.15462 -1.40269,-3.52817 -1.41894,0.3827 -1.76839,0.19099 -1.76839,-0.9701 0,-2.0309 1.70706,-3.32212 4.04676,-3.06097 1.39704,0.15593 2.55926,-0.39295 3.9085,-1.84589 1.52528,-1.64251 2.584,-2.06781 5.14752,-2.06781 1.77501,0 3.22728,0.11347 3.22728,0.25215 0,0.13868 -1.4472,1.36898 -3.21602,2.734 -3.9678,3.06203 -7.77925,9.00507 -8.96577,13.97997 -0.5433,2.27799 -1.46364,4.0931 -2.34391,4.62268 -1.44901,0.87175 -26.91466,1.58835 -29.84948,0.83996 z M 362.33645,161.8723 c -8.36883,-0.8672 -16.23422,-3.52308 -21.20151,-7.15905 l -2.57388,-1.88404 -0.005,-9.67817 c -0.003,-5.323 -0.29805,-10.50688 -0.65641,-11.51975 -1.55334,-4.39037 3.90234,-8.67241 13.71661,-10.76585 7.5344,-1.60713 24.03648,-1.6406 31.08621,-0.0631 5.95873,1.3334 12.25967,4.37248 13.05479,6.29659 0.29893,0.7234 0.45827,6.63697 0.35406,13.14127 -0.21766,13.58668 -0.10504,13.30593 -6.74325,16.8097 -6.48872,3.42486 -18.99224,5.65544 -27.03176,4.82236 z m 2.48501,-7.51716 v -6.48522 h 2.48501 2.48501 v 6.48522 6.48523 h 2.48501 2.48501 v -7.67984 c 0,-10.49945 -0.0911,-10.63139 -7.33801,-10.63139 -3.61736,0 -6.19483,0.35117 -6.72005,0.91557 -0.55748,0.59907 -0.852,3.76397 -0.852,9.15561 v 8.24005 h 2.48501 2.48501 z m -7.10003,-1.80452 c 0,-6.45936 -0.20869,-7.81188 -1.47154,-9.5371 -1.66353,-2.2726 -4.2445,-2.62558 -5.93277,-0.81136 -0.86229,0.92661 -1.11572,2.89503 -1.11572,8.66573 v 7.46677 l 3.01751,0.77975 c 5.79534,1.49755 5.50252,1.84684 5.50252,-6.56379 z m 24.1401,6.47925 3.19501,-1.02438 0.20632,-6.68037 c 0.15638,-5.06326 -0.0624,-7.12114 -0.90387,-8.50115 -1.37236,-2.25072 -4.10345,-2.38387 -6.04748,-0.29483 -1.23968,1.33217 -1.42,2.54323 -1.42,9.5371 0,8.87459 -0.1844,8.61622 4.97002,6.96363 z m -34.19301,-9.99001 c -0.26621,-8.77995 -1.00789,-10.5163 -4.492,-10.5163 -2.87325,0 -3.51078,1.25303 -3.80316,7.47489 -0.2991,6.36486 0.075,7.23404 4.0974,9.51915 4.40203,2.5008 4.46695,2.40062 4.19776,-6.47774 z m 44.57571,5.54009 2.39735,-1.51998 v -6.39227 c 0,-5.92953 -0.12505,-6.48033 -1.7274,-7.60855 -1.33503,-0.94 -2.05706,-1.02667 -3.17874,-0.38158 -2.37965,1.36855 -2.90389,3.37264 -2.90389,11.10103 0,8.24566 -0.008,8.23836 5.41268,4.80135 z m -12.37144,-17.09869 c 0.66345,-0.20405 1.05931,-0.7826 0.87968,-1.28565 -0.45085,-1.26262 -26.73049,-1.19586 -27.12281,0.0689 -0.51656,1.66527 6.38465,2.41889 17.58182,1.91996 4.10027,-0.18271 7.99786,-0.49914 8.66131,-0.7032 z m -27.12138,-2.15277 c 0,-0.55377 -0.87863,-1.3937 -1.95251,-1.8665 -3.34846,-1.47424 -11.53754,-3.72485 -11.53754,-3.17087 0,1.88193 4.68014,4.4739 11.71504,6.48806 1.04,0.29775 1.77501,-0.30296 1.77501,-1.45069 z m 36.73651,-0.58855 c 3.118,-1.23258 6.38965,-4.10738 5.61803,-4.93655 -0.11713,-0.12588 -3.27442,0.79948 -7.0162,2.05635 -5.97519,2.00707 -6.75837,2.46952 -6.4347,3.7996 0.41711,1.71403 1.48972,1.58813 7.83287,-0.9194 z m -40.42852,-4.57087 c 1.16341,-1.25021 1.05206,-2.19391 -0.51794,-4.38918 -1.22256,-1.70945 -1.51303,-1.7872 -3.35673,-0.89842 -1.11009,0.53513 -2.81711,1.53263 -3.79336,2.21665 l -1.77501,1.24369 3.90501,1.3248 c 4.8128,1.63276 4.51162,1.60544 5.53803,0.50246 z m 42.54141,-0.67501 c 3.45617,-1.06758 3.30267,-1.82341 -0.77434,-3.81289 -3.93821,-1.92176 -4.26644,-1.85869 -5.56586,1.06949 -1.03261,2.32695 -1.02887,2.60165 0.046,3.38086 1.22185,0.88574 1.43184,0.86448 6.2942,-0.63746 z m -34.34451,-2.01181 c 3.38818,-0.43551 3.43343,-0.47687 3.01012,-2.75132 -0.23637,-1.27004 -0.59614,-2.48794 -0.79947,-2.70644 -0.41133,-0.44202 -9.48025,1.09523 -10.04567,1.70281 -0.19703,0.21174 0.22476,1.44554 0.93732,2.74179 0.85414,1.55382 1.66391,2.20323 2.37669,1.90606 0.59462,-0.24791 2.62907,-0.64972 4.52101,-0.8929 z m 26.9157,-1.28581 c 1.32292,-2.98113 1.36076,-2.95455 -5.59201,-3.9286 -3.84497,-0.53867 -4.06242,-0.40709 -4.79886,2.90379 -0.44443,1.99809 -0.33906,2.10179 2.20935,2.17421 1.47182,0.0418 3.47479,0.35095 4.45104,0.68692 0.97626,0.33597 1.95546,0.64509 2.17601,0.68691 0.22055,0.0418 0.92006,-1.09362 1.55447,-2.52323 z m -11.54051,-1.89361 c 0,-1.92037 -0.32409,-2.26932 -2.51858,-2.71172 -3.76871,-0.75976 -9.02484,0.24984 -8.52904,1.63825 0.21866,0.61235 0.39758,1.60029 0.39758,2.19542 0,0.8379 1.20149,1.08204 5.32502,1.08204 h 5.32502 z m -203.41582,33.75463 c -8.36883,-0.8672 -16.23421,-3.52308 -21.2015,-7.15905 l -2.57388,-1.88404 -0.005,-9.67817 c -0.003,-5.32299 -0.29806,-10.50688 -0.65642,-11.51975 -1.55333,-4.39037 3.90235,-8.67241 13.71662,-10.76585 7.53439,-1.60713 24.03647,-1.6406 31.0862,-0.0631 5.95874,1.3334 12.25968,4.37247 13.0548,6.29658 0.29893,0.7234 0.45826,6.63698 0.35405,13.14128 -0.21766,13.58667 -0.10503,13.30592 -6.74325,16.80969 -6.48871,3.42486 -18.99223,5.65545 -27.03176,4.82236 z m 2.48501,-7.51715 v -6.48523 h 2.48501 2.48501 v 6.48523 6.48522 h 2.48501 2.48501 v -7.67983 c 0,-10.49945 -0.0911,-10.63139 -7.338,-10.63139 -3.61737,0 -6.19483,0.35116 -6.72005,0.91556 -0.55749,0.59907 -0.85201,3.76397 -0.85201,9.15561 v 8.24005 h 2.48501 2.48501 z m -7.10002,-1.80453 c 0,-6.45936 -0.20869,-7.81188 -1.47154,-9.5371 -1.66354,-2.2726 -4.2445,-2.62557 -5.93278,-0.81136 -0.86228,0.92661 -1.11572,2.89504 -1.11572,8.66573 v 7.46677 l 3.01751,0.77975 c 5.79535,1.49755 5.50253,1.84685 5.50253,-6.56379 z m 24.14009,6.47925 3.19502,-1.02437 0.20632,-6.68038 c 0.15637,-5.06326 -0.0624,-7.12114 -0.90387,-8.50115 -1.37236,-2.25072 -4.10346,-2.38387 -6.04748,-0.29482 -1.23969,1.33216 -1.42001,2.54322 -1.42001,9.53709 0,8.87459 -0.1844,8.61622 4.97002,6.96363 z m -34.19301,-9.99001 c -0.26621,-8.77995 -1.00788,-10.51629 -4.492,-10.51629 -2.87324,0 -3.51078,1.25302 -3.80315,7.47488 -0.2991,6.36486 0.075,7.23404 4.09739,9.51915 4.40204,2.5008 4.46696,2.40062 4.19776,-6.47774 z m 44.57572,5.54009 2.39734,-1.51998 v -6.39227 c 0,-5.92953 -0.12505,-6.48033 -1.72739,-7.60855 -1.33503,-0.93999 -2.05706,-1.02667 -3.17874,-0.38158 -2.37965,1.36855 -2.9039,3.37265 -2.9039,11.10103 0,8.24566 -0.008,8.23836 5.41269,4.80135 z m -12.37145,-17.09869 c 0.66346,-0.20405 1.05931,-0.7826 0.87968,-1.28565 -0.45084,-1.26262 -26.73049,-1.19586 -27.12281,0.0689 -0.51655,1.66527 6.38465,2.41889 17.58183,1.91996 4.10027,-0.18271 7.99786,-0.49914 8.6613,-0.7032 z m -27.12137,-2.15277 c 0,-0.55377 -0.87863,-1.3937 -1.95251,-1.8665 -3.34846,-1.47424 -11.53755,-3.72485 -11.53755,-3.17087 0,1.88193 4.68015,4.4739 11.71505,6.48806 1.04,0.29775 1.77501,-0.30295 1.77501,-1.45069 z m 36.73651,-0.58855 c 3.11799,-1.23258 6.38964,-4.10737 5.61802,-4.93655 -0.11713,-0.12588 -3.27442,0.79948 -7.01619,2.05635 -5.9752,2.00707 -6.75838,2.46953 -6.4347,3.7996 0.41711,1.71403 1.48972,1.58813 7.83287,-0.9194 z m -40.42853,-4.57087 c 1.16342,-1.25021 1.05206,-2.19391 -0.51794,-4.38918 -1.22255,-1.70945 -1.51302,-1.7872 -3.35672,-0.89841 -1.1101,0.53513 -2.81711,1.53262 -3.79337,2.21665 l -1.77501,1.24369 3.90502,1.32479 c 4.8128,1.63277 4.51161,1.60544 5.53802,0.50246 z m 42.54142,-0.67501 c 3.45617,-1.06758 3.30267,-1.8234 -0.77434,-3.81289 -3.93822,-1.92176 -4.26645,-1.85869 -5.56587,1.06949 -1.0326,2.32695 -1.02887,2.60165 0.046,3.38086 1.22186,0.88574 1.43185,0.86448 6.29421,-0.63746 z m -34.34451,-2.01181 c 3.38817,-0.43551 3.43343,-0.47687 3.01012,-2.75132 -0.23638,-1.27004 -0.59614,-2.48793 -0.79947,-2.70644 -0.41134,-0.44202 -9.48026,1.09523 -10.04567,1.70281 -0.19703,0.21174 0.22476,1.44555 0.93731,2.74179 0.85415,1.55382 1.66391,2.20324 2.37669,1.90606 0.59462,-0.24791 2.62908,-0.64972 4.52102,-0.8929 z m 26.91569,-1.28581 c 1.32292,-2.98113 1.36077,-2.95454 -5.59201,-3.9286 -3.84497,-0.53867 -4.06241,-0.40709 -4.79885,2.90379 -0.44443,1.99809 -0.33906,2.10179 2.20934,2.17422 1.47183,0.0418 3.47479,0.35094 4.45105,0.68691 0.97625,0.33597 1.95545,0.64509 2.17601,0.68692 0.22054,0.0418 0.92005,-1.09363 1.55446,-2.52324 z m -11.5405,-1.89361 c 0,-1.92037 -0.3241,-2.26932 -2.51858,-2.71172 -3.76871,-0.75976 -9.02484,0.24984 -8.52905,1.63825 0.21867,0.61235 0.39758,1.60029 0.39758,2.19542 0,0.8379 1.20149,1.08205 5.32502,1.08205 h 5.32503 z m 85.55534,7.81373 c -8.36883,-0.8672 -16.23421,-3.52308 -21.20151,-7.15905 l -2.57388,-1.88404 -0.005,-9.67817 c -0.003,-5.323 -0.29805,-10.506881 -0.65641,-11.51975 -1.55334,-4.39037 3.90235,-8.67241 13.71662,-10.765849 7.53439,-1.607127 24.03647,-1.640603 31.0862,-0.06306 5.95873,1.333405 12.25968,4.372478 13.05479,6.296587 0.29894,0.723402 0.45827,6.636972 0.35406,13.141272 -0.21766,13.58668 -0.10504,13.30593 -6.74325,16.8097 -6.48872,3.42487 -18.99224,5.65545 -27.03176,4.82236 z m 2.48501,-7.51715 v -6.48523 h 2.48501 2.48501 v 6.48523 6.48522 h 2.48501 2.48501 v -7.67983 c 0,-10.49945 -0.0911,-10.63139 -7.33801,-10.63139 -3.61736,0 -6.19483,0.35116 -6.72004,0.91556 -0.55749,0.59907 -0.85201,3.76397 -0.85201,9.15561 v 8.24005 h 2.48501 2.48501 z m -7.10003,-1.80453 c 0,-6.45936 -0.20869,-7.81188 -1.47153,-9.5371 -1.66354,-2.2726 -4.24451,-2.62557 -5.93278,-0.81136 -0.86229,0.92661 -1.11572,2.89504 -1.11572,8.66573 v 7.46677 l 3.01751,0.77975 c 5.79534,1.49755 5.50252,1.84685 5.50252,-6.56379 z m 24.1401,6.47925 3.19501,-1.02437 0.20632,-6.68038 c 0.15638,-5.06326 -0.0624,-7.12114 -0.90387,-8.50115 -1.37235,-2.25072 -4.10345,-2.38387 -6.04747,-0.29482 -1.23969,1.33216 -1.42001,2.54322 -1.42001,9.53709 0,8.87459 -0.1844,8.61622 4.97002,6.96363 z m -34.19301,-9.99001 c -0.26621,-8.77995 -1.00789,-10.51629 -4.492,-10.51629 -2.87325,0 -3.51078,1.25302 -3.80316,7.47488 -0.29909,6.36486 0.075,7.23404 4.0974,9.51915 4.40203,2.5008 4.46695,2.40062 4.19776,-6.47774 z m 44.57571,5.5401 2.39735,-1.51999 v -6.39227 c 0,-5.92953 -0.12505,-6.48033 -1.72739,-7.60855 -1.33504,-0.94 -2.05707,-1.02667 -3.17874,-0.38158 -2.37966,1.36855 -2.9039,3.37265 -2.9039,11.10103 0,8.24567 -0.008,8.23836 5.41268,4.80136 z m -12.37144,-17.0987 c 0.66346,-0.20405 1.05931,-0.7826 0.87968,-1.28565 -0.45085,-1.26262 -26.73049,-1.19587 -27.12281,0.0689 -0.51656,1.66526 6.38465,2.41889 17.58183,1.91995 4.10026,-0.18271 7.99785,-0.49914 8.6613,-0.7032 z m -27.12138,-2.15277 c 0,-0.55377 -0.87863,-1.3937 -1.9525,-1.8665 -3.34846,-1.47424 -11.53755,-3.72485 -11.53755,-3.170871 0,1.881927 4.68015,4.473901 11.71505,6.488061 1.03999,0.29775 1.775,-0.30295 1.775,-1.45069 z m 36.73652,-0.58855 c 3.11799,-1.232583 6.38964,-4.107378 5.61802,-4.936554 -0.11713,-0.125871 -3.27442,0.799487 -7.0162,2.056351 -5.97519,2.007073 -6.75837,2.469533 -6.4347,3.799603 0.41712,1.71403 1.48972,1.58813 7.83288,-0.9194 z m -40.42853,-4.570871 c 1.16342,-1.250208 1.05206,-2.193915 -0.51794,-4.38918 -1.22256,-1.70945 -1.51302,-1.787193 -3.35672,-0.898418 -1.1101,0.535132 -2.81712,1.532627 -3.79337,2.216655 l -1.77501,1.243687 3.90502,1.324797 c 4.81279,1.632764 4.51161,1.605438 5.53802,0.502459 z m 42.54142,-0.675011 c 3.45616,-1.067574 3.30267,-1.8234 -0.77435,-3.812891 -3.93821,-1.921759 -4.26644,-1.85869 -5.56586,1.069492 -1.03261,2.326944 -1.02887,2.601651 0.046,3.380854 1.22185,0.885748 1.43184,0.86448 6.2942,-0.637455 z m -34.34452,-2.011811 c 3.38818,-0.435507 3.43343,-0.476871 3.01012,-2.751316 -0.23637,-1.27004 -0.59614,-2.487938 -0.79947,-2.70644 -0.41133,-0.442019 -9.48025,1.09523 -10.04566,1.702814 -0.19704,0.211734 0.22476,1.445535 0.93731,2.74178 0.85414,1.553822 1.66391,2.203237 2.37669,1.906063 0.59462,-0.247911 2.62908,-0.649717 4.52101,-0.892901 z m 26.9157,-1.285803 c 1.32292,-2.981137 1.36076,-2.954549 -5.59201,-3.928609 -3.84497,-0.538667 -4.06242,-0.407087 -4.79885,2.903796 -0.44444,1.998089 -0.33907,2.101788 2.20934,2.174213 1.47182,0.04183 3.47479,0.350941 4.45104,0.686915 0.97626,0.335975 1.95546,0.645087 2.17601,0.686915 0.22055,0.04183 0.92006,-1.093624 1.55447,-2.52323 z M 275.3611,90.732253 c 0,-1.920376 -0.32409,-2.269329 -2.51858,-2.711727 -3.76871,-0.759756 -9.02484,0.24984 -8.52904,1.638256 0.21867,0.612349 0.39758,1.600284 0.39758,2.195411 0,0.837908 1.20149,1.082051 5.32502,1.082051 h 5.32502 z m 81.87022,24.333217 c -2.41731,-0.36502 -5.05319,-1.04214 -5.85752,-1.50471 -1.84291,-1.05988 -2.04819,-3.52291 -0.2199,-2.63842 1.9797,0.95774 25.96555,1.32216 29.76147,0.45217 1.87721,-0.43024 3.50457,-0.68397 3.61636,-0.56385 0.65795,0.70704 -0.95413,2.7315 -2.69414,3.38332 -2.88371,1.08026 -19.35936,1.66378 -24.60627,0.87149 z m -193.12077,-3.81484 c -2.41731,-0.36502 -5.0532,-1.04214 -5.85752,-1.50471 -1.84292,-1.05988 -2.04819,-3.52291 -0.2199,-2.63842 1.97969,0.95774 25.96555,1.32216 29.76147,0.45217 1.87721,-0.43024 3.50457,-0.68397 3.61635,-0.56385 0.65796,0.70704 -0.95413,2.7315 -2.69414,3.38332 -2.8837,1.08026 -19.35935,1.66378 -24.60626,0.87149 z m 189.70587,-1.2264 c -0.78101,-0.19916 -2.10277,-0.51721 -2.93726,-0.70678 -1.04386,-0.23712 -1.65506,-1.12055 -1.95897,-2.83142 -1.08189,-6.09078 -4.81312,-12.113717 -10.38073,-16.756572 l -2.47312,-2.062333 3.23968,-0.03583 c 2.67804,-0.02962 3.58457,0.351006 5.22904,2.195515 1.09415,1.227239 2.43265,2.04855 2.97444,1.825136 2.87037,-1.183634 6.553,2.469488 4.60244,4.565562 -0.56738,0.609702 -0.78053,0.588728 -0.78053,-0.0768 0,-0.503558 -0.63901,-0.915561 -1.42001,-0.915561 -1.81487,0 -1.88532,2.362851 -0.1216,4.078071 2.89834,2.818622 6.51163,0.912702 6.51163,-3.43471 V 94.12265 l 1.16887,1.886442 c 1.6505,2.663713 3.11787,3.793861 4.92589,3.793861 3.21591,0 3.449,-6.646954 0.34987,-9.977269 -2.33926,-2.513776 -3.70362,-2.777808 -5.32891,-1.031264 -1.01429,1.089953 -1.11572,1.060227 -1.11572,-0.326987 0,-3.251472 4.80036,-5.32689 6.95802,-3.008272 0.66267,0.712103 0.85201,0.102457 0.85201,-2.743409 0,-3.697649 1.74653,-8.090732 3.21659,-8.090732 1.26943,0 3.17343,5.142512 3.17343,8.571123 0,2.472228 0.18934,2.975121 0.85201,2.263018 1.09831,-1.180248 4.2977,-1.180248 5.39602,0 0.4686,0.503559 0.852,1.575605 0.852,2.382325 0,1.216889 -0.18132,1.305053 -1.06436,0.517524 -0.83229,-0.742263 -1.50824,-0.751662 -3.1001,-0.04311 -3.08591,1.37358 -4.71223,5.582119 -3.54616,9.176649 1.04237,3.213191 3.3954,3.066901 6.21707,-0.386535 1.91551,-2.344403 2.20355,-2.487444 2.20355,-1.094292 0,4.341168 4.0776,6.195618 6.7211,3.056677 1.74704,-2.074467 0.92003,-4.154618 -1.40269,-3.528162 -1.41894,0.382695 -1.76839,0.19099 -1.76839,-0.970103 0,-2.030895 1.70706,-3.322119 4.04676,-3.060968 1.39703,0.155934 2.55926,-0.392955 3.9085,-1.845887 1.52528,-1.642514 2.58401,-2.067812 5.14752,-2.067812 1.77501,0 3.22728,0.113466 3.22728,0.252146 0,0.13868 -1.4472,1.368983 -3.21602,2.734005 -3.9678,3.062026 -7.77925,9.005063 -8.96577,13.979962 -0.5433,2.27799 -1.46365,4.0931 -2.34391,4.62268 -1.44901,0.87176 -26.91466,1.58836 -29.84947,0.83996 z m -193.12078,-3.81484 c -0.781,-0.19916 -2.10276,-0.51721 -2.93725,-0.70678 -1.04386,-0.23712 -1.65507,-1.12055 -1.95897,-2.83142 -1.0819,-6.09078 -4.81312,-12.113715 -10.38074,-16.75657 l -2.47311,-2.062334 3.23968,-0.03583 c 2.67804,-0.02962 3.58456,0.351007 5.22904,2.195516 1.09414,1.227239 2.43264,2.04855 2.97443,1.825136 2.87038,-1.183634 6.55301,2.469488 4.60245,4.565562 -0.56738,0.609701 -0.78054,0.588727 -0.78054,-0.0768 0,-0.503559 -0.639,-0.915561 -1.42,-0.915561 -1.81487,0 -1.88532,2.36285 -0.1216,4.078071 2.89833,2.81862 6.51162,0.912703 6.51162,-3.43471 v -1.745859 l 1.16888,1.886442 c 1.65049,2.663714 3.11786,3.793862 4.92588,3.793862 3.21592,0 3.44901,-6.646954 0.34988,-9.97727 -2.33927,-2.513775 -3.70362,-2.777808 -5.32892,-1.031263 -1.01429,1.089953 -1.11572,1.060227 -1.11572,-0.326987 0,-3.251472 4.80037,-5.32689 6.95803,-3.008272 0.66267,0.712103 0.852,0.102456 0.852,-2.743409 0,-3.697649 1.74654,-8.090732 3.2166,-8.090732 1.26943,0 3.17343,5.142512 3.17343,8.571123 0,2.472228 0.18933,2.975121 0.852,2.263018 1.09832,-1.180249 4.2977,-1.180249 5.39602,0 0.4686,0.503558 0.85201,1.575604 0.85201,2.382324 0,1.216889 -0.18132,1.305053 -1.06437,0.517525 -0.83229,-0.742264 -1.50824,-0.751663 -3.10009,-0.04311 -3.08592,1.37358 -4.71223,5.58212 -3.54616,9.17665 1.04237,3.213191 3.3954,3.066895 6.21706,-0.386535 1.91552,-2.344403 2.20356,-2.487444 2.20356,-1.094293 0,4.341173 4.07759,6.195616 6.72109,3.056678 1.74705,-2.074467 0.92004,-4.154619 -1.40269,-3.528163 -1.41893,0.382696 -1.76839,0.19099 -1.76839,-0.970102 0,-2.030895 1.70707,-3.322119 4.04676,-3.060969 1.39704,0.155934 2.55927,-0.392954 3.9085,-1.845886 1.52529,-1.642515 2.58401,-2.067812 5.14753,-2.067812 1.775,0 3.22728,0.113466 3.22728,0.252146 0,0.13868 -1.44721,1.368983 -3.21602,2.734005 -3.96781,3.062026 -7.77926,9.005062 -8.96577,13.979959 -0.5433,2.278 -1.46365,4.0931 -2.34391,4.62269 -1.44902,0.87175 -26.91466,1.58835 -29.84948,0.83995 z m 99.2653,-24.714504 c -2.41732,-0.365019 -5.0532,-1.042138 -5.85753,-1.504709 -1.84291,-1.059873 -2.04819,-3.522904 -0.21989,-2.638415 1.97969,0.957734 25.96555,1.322157 29.76146,0.452173 1.87721,-0.430238 3.50458,-0.68397 3.61636,-0.563849 0.65795,0.707036 -0.95413,2.731497 -2.69414,3.383318 -2.88371,1.080255 -19.35936,1.663775 -24.60626,0.871482 z m -3.41491,-5.041235 c -0.78101,-0.199159 -2.10277,-0.517208 -2.93726,-0.706775 -1.04386,-0.237129 -1.65506,-1.120551 -1.95896,-2.831423 -1.0819,-6.090782 -4.81313,-12.113717 -10.38074,-16.756572 l -2.47311,-2.062333 3.23968,-0.03583 c 2.67803,-0.02962 3.58456,0.351006 5.22903,2.195515 1.09415,1.227239 2.43265,2.04855 2.97444,1.825136 2.87038,-1.183634 6.553,2.469488 4.60244,4.565562 -0.56738,0.609701 -0.78053,0.588728 -0.78053,-0.0768 0,-0.503558 -0.639,-0.915561 -1.42001,-0.915561 -1.81486,0 -1.88532,2.362851 -0.12159,4.078071 2.89833,2.81862 6.51162,0.912703 6.51162,-3.43471 v -1.745858 l 1.16888,1.886442 c 1.65049,2.663713 3.11786,3.793861 4.92588,3.793861 3.21592,0 3.449,-6.646954 0.34988,-9.977269 -2.33927,-2.513776 -3.70363,-2.777808 -5.32892,-1.031264 -1.01429,1.089953 -1.11572,1.060227 -1.11572,-0.326987 0,-3.251472 4.80036,-5.32689 6.95803,-3.008272 0.66266,0.712103 0.852,0.102457 0.852,-2.743409 0,-3.697649 1.74653,-8.090732 3.2166,-8.090732 1.26942,0 3.17342,5.142512 3.17342,8.571123 0,2.472228 0.18934,2.975121 0.85201,2.263018 1.09832,-1.180248 4.2977,-1.180248 5.39602,0 0.4686,0.503559 0.852,1.575604 0.852,2.382325 0,1.216889 -0.18132,1.305053 -1.06436,0.517524 -0.83229,-0.742263 -1.50824,-0.751662 -3.1001,-0.04311 -3.08591,1.373579 -4.71223,5.582119 -3.54615,9.176649 1.04237,3.213191 3.39539,3.066896 6.21706,-0.386535 1.91551,-2.344403 2.20356,-2.487444 2.20356,-1.094292 0,4.341172 4.07759,6.195615 6.72109,3.056677 1.74705,-2.074467 0.92003,-4.154618 -1.40269,-3.528162 -1.41893,0.382695 -1.76839,0.19099 -1.76839,-0.970103 0,-2.030895 1.70707,-3.322119 4.04676,-3.060968 1.39704,0.155934 2.55926,-0.392955 3.9085,-1.845887 1.52529,-1.642514 2.58401,-2.067812 5.14752,-2.067812 1.77501,0 3.22728,0.113466 3.22728,0.252146 0,0.13868 -1.4472,1.368983 -3.21602,2.734005 -3.9678,3.062026 -7.77925,9.005063 -8.96576,13.979961 -0.54331,2.277991 -1.46365,4.093102 -2.34391,4.622685 -1.44902,0.87175 -26.91466,1.58835 -29.84948,0.839961 z"
       style="fill:#000000;stroke-width:0.736009" />
  </g>
</svg>
