<?xml version="1.0" encoding="UTF-8" standalone="no"?>
<svg
   inkscape:version="1.2.1 (9c6d41e410, 2022-07-14)"
   sodipodi:docname="РАБОЧЕЕ ВРЕМЯ.svg"
   viewBox="0 0 1433.644 1372.313"
   height="1372.313"
   width="1433.644"
   id="svg11"
   version="1.1"
   xml:space="preserve"
   xmlns:inkscape="http://www.inkscape.org/namespaces/inkscape"
   xmlns:sodipodi="http://sodipodi.sourceforge.net/DTD/sodipodi-0.dtd"
   xmlns="http://www.w3.org/2000/svg"
   xmlns:svg="http://www.w3.org/2000/svg"
   xmlns:rdf="http://www.w3.org/1999/02/22-rdf-syntax-ns#"
   xmlns:cc="http://creativecommons.org/ns#"
   xmlns:dc="http://purl.org/dc/elements/1.1/"><metadata
     id="metadata17"><rdf:RDF><cc:Work
         rdf:about=""><dc:format>image/svg+xml</dc:format><dc:type
           rdf:resource="http://purl.org/dc/dcmitype/StillImage" /></cc:Work></rdf:RDF></metadata><defs
     id="defs15" /><sodipodi:namedview
     inkscape:current-layer="g19"
     inkscape:window-maximized="1"
     inkscape:window-y="-6"
     inkscape:window-x="-6"
     inkscape:cy="615.46485"
     inkscape:cx="1058.0045"
     inkscape:zoom="0.26890244"
     showgrid="false"
     id="namedview13"
     inkscape:window-height="1018"
     inkscape:window-width="1920"
     inkscape:pageshadow="2"
     inkscape:pageopacity="0"
     guidetolerance="10"
     gridtolerance="10"
     objecttolerance="10"
     borderopacity="1"
     bordercolor="#666666"
     pagecolor="#ffffff"
     inkscape:document-rotation="0"
     inkscape:showpageshadow="0"
     inkscape:pagecheckerboard="1"
     inkscape:deskcolor="#d1d1d1" /><g
     transform="translate(1973.7834,-115.00343)"
     id="g19"
     inkscape:label="Image"
     inkscape:groupmode="layer"><path
       id="path8"
       d="m -1751.6292,1213.8154 c -2.9647,-3.0072 -5.3902,-7.0399 -5.3902,-8.9617 0,-1.9218 -1.0779,-3.4941 -2.3956,-3.4941 -1.3514,0 -2.3956,-6.4464 -2.3956,-14.7889 0,-8.3423 1.0442,-14.7888 2.3956,-14.7888 1.3177,0 2.3956,-5.5707 2.3956,-12.3793 0,-6.8086 1.0781,-13.0121 2.3957,-13.7855 1.3176,-0.7734 2.3956,-5.4411 2.3956,-10.3727 0,-4.9316 1.078,-8.9665 2.3956,-8.9665 1.3176,0 2.3957,-4.0349 2.3957,-8.9665 0,-4.9316 1.078,-9.5994 2.3955,-10.3729 1.3178,-0.7732 2.3958,-4.4171 2.3958,-8.0975 0,-3.68 1.0778,-6.6912 2.3955,-6.6912 1.3176,0 2.3956,-3.0715 2.3956,-6.8256 0,-3.754 1.078,-6.8257 2.3955,-6.8257 1.3177,0 2.3958,-3.0713 2.3958,-6.8255 0,-3.7541 1.0779,-6.8257 2.3955,-6.8257 1.3176,0 2.3957,-3.0111 2.3957,-6.6912 0,-3.6802 0.9365,-7.241 2.081,-7.9129 1.1445,-0.6718 2.8088,-5.5446 3.6985,-10.8284 0.8896,-5.284 2.4706,-10.6819 3.513,-11.9953 1.0429,-1.3135 4.4991,-10.3177 7.6809,-20.0095 3.1817,-9.69182 6.5937,-17.62671 7.5818,-17.63287 0.9881,-0.008 1.7966,-2.5106 1.7966,-5.56522 0,-3.05447 1.0781,-6.18643 2.3957,-6.95986 1.3174,-0.77336 2.3956,-3.39337 2.3956,-5.82226 0,-2.4289 1.0781,-4.41603 2.3955,-4.41603 1.3177,0 2.3957,-2.55971 2.3957,-5.68814 0,-3.12836 1.078,-5.68799 2.3957,-5.68799 1.3174,0 2.3955,-2.04767 2.3955,-4.55039 0,-2.50278 1.078,-4.55046 2.3957,-4.55046 1.3175,0 2.3955,-2.04762 2.3955,-4.5503 0,-2.50279 1.0781,-4.55047 2.3957,-4.55047 1.3176,0 2.3955,-1.65357 2.3955,-3.67469 0,-4.24933 16.1913,-19.07732 20.831,-19.07732 1.719,0 3.1253,-1.02381 3.1253,-2.27519 0,-1.2514 2.1561,-2.27519 4.7914,-2.27519 2.635,0 4.7912,-1.02389 4.7912,-2.27519 0,-1.25133 1.5909,-2.27529 3.5355,-2.27529 1.9446,0 7.0651,-2.04374 11.3791,-4.54183 4.3141,-2.49808 9.7303,-4.54578 12.0361,-4.55038 2.3057,-0.008 4.1924,-1.03236 4.1924,-2.28367 0,-1.25147 1.4937,-2.27527 3.3195,-2.27527 1.8258,0 6.4074,-1.52942 10.1815,-3.39881 3.7739,-1.8693 8.7481,-3.40505 11.0541,-3.41279 2.3057,-0.008 4.1922,-1.03786 4.1922,-2.28925 0,-1.25133 2.1562,-2.27519 4.7913,-2.27519 2.6352,0 4.7913,-1.02381 4.7913,-2.27522 0,-1.25138 1.5842,-2.27509 3.5204,-2.27509 1.9364,0 7.3594,-2.0477 12.0511,-4.55048 4.6918,-2.50268 10.1147,-4.55039 12.0511,-4.55039 1.9363,0 3.5204,-1.0238 3.5204,-2.27527 0,-1.2513 2.1561,-2.27511 4.7913,-2.27511 2.6351,0 4.7913,-1.02388 4.7913,-2.27528 0,-1.25139 1.687,-2.27519 3.7489,-2.27519 2.0619,0 8.9991,-5.11919 15.416,-11.37595 6.4169,-6.25684 12.8995,-11.37605 14.406,-11.37605 1.5065,0 6.8821,-4.0954 11.9458,-9.10081 5.0638,-5.00546 10.9259,-9.10082 13.0268,-9.10082 2.1011,0 22.2194,17.50778 44.7075,38.90628 l 40.8876,38.90619 -1.2651,12.85462 c -0.696,7.07002 -2.4277,19.50962 -3.8483,27.64352 -4.5573,26.09338 -6.9661,46.30443 -7.1181,59.72407 -0.082,7.19523 -1.2259,13.08233 -2.5435,13.08233 -1.3283,0 -2.3957,6.0225 -2.3957,13.5169 0,7.4343 -1.0781,14.1498 -2.3955,14.9232 -1.3177,0.7734 -2.3958,7.4887 -2.3958,14.923 0,7.4945 -1.0673,13.5169 -2.3956,13.5169 -1.367,0 -2.3957,6.7808 -2.3957,15.7922 0,8.6857 -1.0779,16.4249 -2.3956,17.1983 -1.3175,0.7734 -2.3956,7.4887 -2.3956,14.9232 0,7.4944 -1.0674,13.5169 -2.3955,13.5169 -4.7153,0 -2.283,11.6899 3.5934,17.2708 3.294,3.1285 5.989,6.6189 5.989,7.7565 0,1.1375 2.5657,4.5052 5.7019,7.4836 3.1361,2.9784 6.4784,7.7389 7.4276,10.5789 0.949,2.84 5.2733,8.7359 9.6095,13.1021 7.1436,7.1926 8.4102,7.6709 13.4848,5.0914 6.854,-3.4836 11.6886,-7.9215 11.6886,-10.7289 0,-1.1552 3.2341,-5.3143 7.187,-9.2426 3.9527,-3.9283 7.1868,-8.2766 7.1868,-9.663 0,-1.3865 3.2342,-5.39 7.1868,-8.8968 6.8413,-6.0694 7.187,-7.2624 7.187,-24.8025 0,-10.7674 -0.9958,-18.4264 -2.3957,-18.4264 -1.369,0 -2.3956,-6.8256 -2.3956,-15.9264 0,-9.1009 -1.0266,-15.9265 -2.3957,-15.9265 -1.3282,0 -2.3955,-6.0223 -2.3955,-13.5169 0,-7.4342 -1.0781,-14.1497 -2.3957,-14.923 -1.3176,-0.7735 -2.3956,-7.4888 -2.3956,-14.9231 0,-7.4945 -1.0674,-13.517 -2.3957,-13.517 -1.3308,0 -2.3955,-6.0672 -2.3955,-13.6512 0,-7.584 -1.0648,-13.65113 -2.3956,-13.65113 -1.3843,0 -2.3956,-7.20489 -2.3956,-17.06411 0,-9.85922 -1.0116,-17.06403 -2.3958,-17.06403 -1.3271,0 -2.3956,-6.00401 -2.3956,-13.46167 0,-7.40384 -0.9289,-13.8028 -2.0642,-14.21996 -1.1353,-0.41706 -2.6157,-8.27887 -3.2899,-17.47056 l -1.2257,-16.7122 25.9719,-24.81024 c 14.2845,-13.64566 26.4997,-24.81026 27.1444,-24.81026 0.6448,0 7.6782,-6.25598 15.6298,-13.90219 17.5147,-16.84205 20.4601,-16.73567 39.587,1.42983 7.2228,6.85984 14.2337,12.47236 15.5801,12.47236 1.3463,0 2.4476,1.02381 2.4476,2.27523 0,1.25134 1.5445,2.27515 3.4321,2.27515 1.8876,0 4.1163,2.0477 4.9528,4.55044 0.8363,2.50268 3.604,4.55036 6.1504,4.55036 2.5465,0 4.6299,1.0238 4.6299,2.27519 0,1.2514 2.1561,2.27528 4.7912,2.27528 2.6351,0 4.7912,1.02381 4.7912,2.27511 0,1.25147 2.1561,2.27527 4.7914,2.27527 2.6349,0 4.7912,1.02381 4.7912,2.27519 0,1.25132 2.1559,2.2752 4.7911,2.2752 2.6353,0 4.7912,0.83868 4.7912,1.86387 0,1.02522 5.3902,3.25795 11.9782,4.9617 6.5879,1.70386 11.9781,3.82264 11.9781,4.70846 0,0.8859 3.773,2.28301 8.3847,3.10465 4.6115,0.82165 8.3845,2.47144 8.3845,3.66604 0,1.19472 2.1563,2.17211 4.7913,2.17211 2.6353,0 4.7912,1.0238 4.7912,2.27527 0,1.25131 2.1562,2.27512 4.7914,2.27512 2.6351,0 4.7912,1.02387 4.7912,2.27526 0,1.25132 2.1561,2.27519 4.7913,2.27519 2.6351,0 4.7912,1.0238 4.7912,2.27519 0,1.25141 2.156,2.27512 4.7912,2.27512 2.6352,0 4.7914,1.02396 4.7914,2.27529 0,1.2513 2.996,2.27519 6.6579,2.27519 3.9098,0 8.0835,1.87826 10.1114,4.55038 1.8992,2.50268 4.8324,4.55039 6.5179,4.55039 1.6854,0 3.0645,1.02389 3.0645,2.27519 0,1.25146 1.3918,2.27519 3.0928,2.27519 4.0757,0 16.0722,22.67154 16.0722,30.37381 0,3.31628 0.8085,6.0375 1.7967,6.04722 2.4308,0.0238 7.7857,11.27796 7.7857,16.36226 0,2.2533 0.8832,4.09685 1.9626,4.09685 1.0796,0 3.4303,5.11919 5.2243,11.37598 1.794,6.25686 4.1449,11.37601 5.2244,11.37601 1.0794,0 1.9624,3.0716 1.9624,6.8256 0,3.7541 1.078,6.8256 2.3956,6.8256 1.3176,0 2.3957,3.0715 2.3957,6.8257 0,3.7541 1.078,6.8256 2.3956,6.8256 1.3175,0 2.3957,2.5596 2.3957,5.688 0,3.1284 1.0779,5.688 2.3956,5.688 1.3175,0 2.3956,3.0714 2.3956,6.8256 0,3.7541 1.0779,6.8255 2.3955,6.8255 1.3177,0 2.3957,3.0717 2.3957,6.8257 0,3.7541 1.078,6.8256 2.3955,6.8256 1.3177,0 2.3957,3.0715 2.3957,6.8255 0,3.7542 1.0782,6.8256 2.3956,6.8256 1.3176,0 2.3957,3.0716 2.3957,6.8257 0,3.7541 1.0782,6.8256 2.3957,6.8256 1.3174,0 2.3956,3.5835 2.3956,7.9632 0,4.3798 0.9695,7.9633 2.1544,7.9633 2.0272,0 2.7314,3.3051 6.4238,30.1463 0.8177,5.944 2.4563,10.8073 3.6411,10.8073 1.1849,0 2.1543,12.3326 2.1543,27.4059 0,26.064 -0.2878,27.6793 -5.8802,32.9904 l -5.88,5.5847 -366.04,-0.1393 -366.0402,-0.1391 z m 348.3285,-405.34046 c -0.8974,-0.85235 -7.2757,-2.43073 -14.1739,-3.50757 -25.5804,-3.99309 -28.114,-4.58491 -28.114,-6.56765 0,-1.11443 -2.1561,-2.02627 -4.7913,-2.02627 -2.6351,0 -4.7912,-1.02383 -4.7912,-2.27521 0,-1.25135 -2.156,-2.27519 -4.7914,-2.27519 -2.6349,0 -4.7912,-1.02384 -4.7912,-2.27521 0,-1.25136 -1.6169,-2.2752 -3.5931,-2.2752 -1.9766,0 -3.5935,-1.02385 -3.5935,-2.27521 0,-1.25135 -1.3792,-2.2752 -3.0646,-2.2752 -1.6856,0 -4.6187,-2.04768 -6.518,-4.55041 -1.8993,-2.50273 -4.3107,-4.5504 -5.3588,-4.5504 -2.8105,0 -37.7623,-33.66009 -37.7623,-36.36656 0,-1.27154 -1.0781,-2.31191 -2.3957,-2.31191 -1.3176,0 -2.3956,-1.53575 -2.3956,-3.4128 0,-1.87704 -1.078,-3.4128 -2.3957,-3.4128 -1.3175,0 -2.3955,-1.45045 -2.3955,-3.22322 0,-1.77274 -0.8086,-3.56447 -1.7968,-3.9816 -2.7622,-1.1659 -17.3682,-28.48532 -17.3682,-32.48575 0,-1.94608 -1.0409,-3.53831 -2.3132,-3.53831 -1.2722,0 -3.0281,-5.11919 -3.9019,-11.37601 -0.8741,-6.2568 -2.5283,-11.37601 -3.6761,-11.37601 -1.1479,0 -2.0869,-2.55962 -2.0869,-5.68801 0,-3.12841 -1.078,-5.68802 -2.3956,-5.68802 -1.3177,0 -2.3957,-4.09536 -2.3957,-9.10081 0,-5.00544 -1.0778,-9.10081 -2.3956,-9.10081 -1.3176,0 -2.3956,-5.11921 -2.3956,-11.37603 0,-6.2568 -1.078,-11.376 -2.3955,-11.376 -1.3825,0 -2.3958,-7.16006 -2.3958,-16.92975 0,-9.31137 -1.0779,-17.56253 -2.3956,-18.33592 -3.2176,-1.88862 -3.2176,-77.74348 0,-79.63212 1.3177,-0.77339 2.3956,-6.91643 2.3956,-13.65123 0,-6.73478 1.078,-12.87783 2.3958,-13.65121 1.3175,-0.77338 2.3955,-4.92917 2.3955,-9.2351 0,-4.30592 0.8428,-7.82892 1.8725,-7.82892 1.03,0 3.3052,-4.6073 5.0559,-10.23841 1.7506,-5.63114 4.142,-10.23843 5.314,-10.23843 1.1722,0 2.1313,-1.97455 2.1313,-4.3879 0,-2.41333 1.6171,-5.92365 3.5934,-7.80069 1.9764,-1.87704 3.5935,-4.5263 3.5935,-5.88723 0,-3.31186 35.1088,-36.52907 38.6093,-36.52907 1.5135,0 4.4955,-1.87596 6.6266,-4.16879 2.1308,-2.29285 10.6119,-6.07007 18.8469,-8.3938 8.2351,-2.32377 14.9727,-5.05509 14.9727,-6.06963 0,-1.01452 3.1704,-1.84462 7.0454,-1.84462 3.8752,0 7.7118,-1.02382 8.5262,-2.27519 0.8144,-1.25136 6.268,-2.2752 12.1195,-2.2752 5.8513,0 10.6388,-1.02385 10.6388,-2.27521 0,-3.09807 106.9848,-3.09807 109.0008,0 0.8142,1.25136 5.7291,2.27521 10.9217,2.27521 5.1926,0 9.4411,1.02384 9.4411,2.2752 0,1.25137 4.3121,2.27519 9.5825,2.27519 5.2704,0 9.5824,0.93386 9.5824,2.07523 0,1.14138 4.3122,2.76712 9.5825,3.61279 5.2705,0.84566 9.5824,2.47142 9.5824,3.61279 0,1.14137 2.1562,2.07522 4.7914,2.07522 2.6351,0 4.7912,1.02384 4.7912,2.27521 0,1.25135 1.9181,2.27519 4.2624,2.27519 2.3442,0 5.8165,2.04768 7.7156,4.55041 1.8995,2.50273 4.317,4.55041 5.3722,4.55041 3.1125,0 26.6705,23.41333 30.3682,30.18135 1.8695,3.42205 4.2951,6.22192 5.3901,6.22192 1.0949,0 1.9908,2.04768 1.9908,4.5504 0,2.50272 1.0781,4.5504 2.3956,4.5504 1.3177,0 2.3956,2.04769 2.3956,4.55041 0,2.50273 1.0782,4.55041 2.3957,4.55041 1.3175,0 2.3956,1.53576 2.3956,3.4128 0,1.87704 1.0781,3.41281 2.3957,3.41281 1.3175,0 2.3956,3.07152 2.3956,6.82561 0,3.75409 1.078,6.82561 2.3956,6.82561 1.3177,0 2.3957,4.09535 2.3957,9.10081 0,5.00546 1.0779,9.10082 2.3955,9.10082 1.3974,0 2.3956,7.584 2.3956,18.20162 0,11.33015 0.9608,18.20164 2.5451,18.20164 2.9432,0 1.6253,36.94581 -2.4751,69.3937 -1.4233,11.26227 -3.1913,26.87584 -3.9289,34.69686 -0.7376,7.821 -2.3272,14.22002 -3.5324,14.22002 -1.2052,0 -2.1911,4.09535 -2.1911,9.10082 0,5.00543 -1.0781,9.10081 -2.3956,9.10081 -1.3176,0 -2.3957,3.07152 -2.3957,6.8256 0,3.7541 -1.0781,6.82562 -2.3956,6.82562 -1.3175,0 -2.3957,2.5596 -2.3957,5.688 0,3.12841 -1.0779,5.68801 -2.3956,5.68801 -1.3175,0 -2.3956,3.07153 -2.3956,6.82562 0,3.75408 -1.0779,6.8256 -2.3955,6.8256 -1.3177,0 -2.3956,2.04769 -2.3956,4.55042 0,2.50272 -1.078,4.55041 -2.3957,4.55041 -1.3175,0 -2.3955,2.04768 -2.3955,4.5504 0,2.50273 -1.0782,4.55041 -2.3957,4.55041 -1.3176,0 -2.3957,2.04768 -2.3957,4.55039 0,2.50273 -1.0781,4.55043 -2.3957,4.55043 -1.3174,0 -2.3955,1.82165 -2.3955,4.04813 0,2.22646 -2.1562,5.52401 -4.7912,7.32788 -2.6353,1.80387 -4.7913,4.63836 -4.7913,6.29892 0,1.66053 -2.6951,5.39133 -5.989,8.29064 -3.2941,2.89931 -5.9893,6.4608 -5.9893,7.91446 0,3.06186 -20.4042,23.00006 -23.5378,23.00006 -1.1568,0 -5.4874,3.07152 -9.6238,6.8256 -4.136,3.7541 -9.1471,6.82561 -11.1355,6.82561 -1.9884,0 -3.6154,0.84908 -3.6154,1.88685 0,2.79898 -29.3917,16.31478 -35.4785,16.31478 -2.8858,0 -5.2469,1.02383 -5.2469,2.27521 0,1.25135 -5.3901,2.2752 -11.9781,2.2752 -6.5879,0 -11.978,1.02385 -11.978,2.2752 0,2.55145 -43.7072,3.23556 -46.3502,0.72547 z m 387.7262,-50.77995 c -0.8145,-1.25135 -7.8852,-2.27521 -15.7129,-2.27521 -7.8911,0 -14.2324,-1.01371 -14.2324,-2.27519 0,-1.25136 -3.2488,-2.2752 -7.2194,-2.2752 -3.9706,0 -9.6303,-1.18371 -12.577,-2.63044 -11.2417,-5.51933 -13.7851,-6.47038 -17.3032,-6.47038 -1.9942,0 -3.626,-1.02384 -3.626,-2.27521 0,-1.25136 -1.8865,-2.2815 -4.1922,-2.28922 -2.3059,-0.007 -7.2803,-1.54347 -11.0542,-3.41279 -3.774,-1.86934 -8.3556,-3.3988 -10.1812,-3.3988 -1.8259,0 -3.3199,-1.02385 -3.3199,-2.2752 0,-1.25137 -1.918,-2.27521 -4.2623,-2.27521 -2.3442,0 -5.8164,-2.04768 -7.7157,-4.55041 -1.8993,-2.50273 -4.8815,-4.5504 -6.6269,-4.5504 -4.3903,0 -14.9338,-10.39322 -14.9338,-14.72121 0,-5.59747 5.7643,-21.68205 7.7703,-21.68205 0.9969,0 1.8123,-2.86743 1.8123,-6.37204 0,-8.17653 5.0879,-18.61451 9.0847,-18.63746 3.1876,-0.0181 6.1256,1.95368 16.0758,10.78947 3.1707,2.81558 6.6886,5.11921 7.8176,5.11921 1.129,0 4.1426,1.79303 6.6968,3.98453 2.5542,2.19147 10.0343,6.54279 16.6223,9.66962 6.5878,3.12678 12.3374,6.45296 12.7766,7.39148 0.4392,0.93852 2.8647,1.70642 5.3902,1.70642 2.5253,0 4.5915,1.02384 4.5915,2.27519 0,1.25136 3.2341,2.27521 7.1867,2.27521 3.9529,0 7.187,1.02384 7.187,2.27521 0,1.25136 4.2484,2.2752 9.4412,2.2752 5.1925,0 10.1073,1.02385 10.9216,2.2752 2.0029,3.07771 82.64891,3.07771 82.64891,0 0,-1.25135 4.85113,-2.2752 10.78037,-2.2752 5.92914,0 10.78027,-1.02384 10.78027,-2.2752 0,-1.25137 2.69505,-2.27521 5.98904,-2.27521 3.29398,0 5.98903,-1.02385 5.98903,-2.27521 0,-1.25135 2.69511,-2.27519 5.9891,-2.27519 3.29392,0 5.98905,-1.02385 5.98905,-2.27521 0,-1.25136 2.15607,-2.2752 4.79124,-2.2752 2.63517,0 4.79124,-1.02385 4.79124,-2.27521 0,-1.25136 2.15607,-2.27521 4.79124,-2.27521 2.63518,0 4.79125,-0.95486 4.79125,-2.12187 0,-1.16704 2.19069,-2.78224 4.8682,-3.58935 2.67753,-0.80707 7.47965,-3.94761 10.67141,-6.97893 3.19176,-3.03129 6.97571,-5.51146 8.40879,-5.51146 2.63453,0 7.42928,-3.25442 12.69954,-8.61975 1.58386,-1.61247 8.00045,-8.07973 14.259,-14.37169 6.25857,-6.29196 11.37922,-12.349 11.37922,-13.46005 0,-1.11109 2.69505,-4.57975 5.98903,-7.70816 3.29399,-3.1284 5.98904,-7.27031 5.98904,-9.20424 0,-1.93393 0.87685,-3.5162 1.94848,-3.5162 1.07167,0 3.429,-3.58345 5.23841,-7.96322 1.80944,-4.37977 4.16669,-7.96322 5.23837,-7.96322 1.07168,0 1.94847,-2.04767 1.94847,-4.5504 0,-2.50273 1.07802,-4.55041 2.39566,-4.55041 1.31755,0 2.39558,-2.49918 2.39558,-5.55373 0,-3.05453 1.07804,-6.1865 2.39566,-6.95989 1.31754,-0.77338 2.39559,-4.41726 2.39559,-8.09748 0,-3.68025 1.07803,-6.69134 2.39566,-6.69134 1.31754,0 2.39558,-4.09537 2.39558,-9.10082 0,-5.00544 1.13484,-9.10081 2.52192,-9.10081 1.69762,0 2.15482,-10.22497 1.39874,-31.28404 -1.27695,-35.56644 -3.4255,-52.89849 -6.55751,-52.89849 -1.18487,0 -2.15439,-3.07152 -2.15439,-6.82561 0,-3.75409 -1.07805,-6.82561 -2.39559,-6.82561 -1.31762,0 -2.39566,-2.5596 -2.39566,-5.68802 0,-3.1284 -1.07803,-5.688 -2.39558,-5.688 -1.31764,0 -2.39566,-2.04769 -2.39566,-4.55041 0,-2.50273 -1.07805,-4.5504 -2.39558,-4.5504 -1.31763,0 -2.39566,-2.04769 -2.39566,-4.5504 0,-2.50274 -1.07803,-4.55043 -2.3956,-4.55043 -1.31761,0 -2.39566,-2.04767 -2.39566,-4.55039 0,-2.50273 -1.07801,-4.55042 -2.39557,-4.55042 -1.31763,0 -2.39566,-1.6369 -2.39566,-3.63757 0,-2.00066 -3.2341,-6.5068 -7.18682,-10.01364 -3.95281,-3.50684 -7.18691,-7.43843 -7.18691,-8.73684 0,-3.01799 -28.42987,-29.94162 -31.61674,-29.94162 -1.31742,0 -5.4164,-3.07153 -9.10879,-6.82562 -3.69247,-3.75408 -8.43712,-6.82561 -10.5437,-6.82561 -2.10648,0 -3.83003,-1.02384 -3.83003,-2.2752 0,-1.25137 -2.15606,-2.27519 -4.79124,-2.27519 -2.63518,0 -4.79125,-1.02385 -4.79125,-2.27522 0,-1.25136 -2.15607,-2.2752 -4.79124,-2.2752 -2.63516,0 -4.79124,-1.02383 -4.79124,-2.27521 0,-1.25136 -2.15608,-2.27521 -4.79124,-2.27521 -2.63518,0 -4.79125,-1.02383 -4.79125,-2.27519 0,-1.25136 -2.69513,-2.2752 -5.98903,-2.2752 -3.29399,0 -5.98912,-1.02384 -5.98912,-2.27521 0,-1.25136 -2.63144,-2.27521 -5.84766,-2.27521 -3.21621,0 -6.51391,-1.02384 -7.3282,-2.2752 -0.81435,-1.25136 -6.8071,-2.27519 -13.3173,-2.27519 -6.51021,0 -11.83678,-1.02385 -11.83678,-2.27521 0,-1.40446 -12.37737,-2.27522 -32.34084,-2.27522 -19.96359,0 -32.34089,0.87076 -32.34089,2.27522 0,1.25136 -5.3902,2.27521 -11.9783,2.27521 -6.5879,0 -11.9779,1.02383 -11.9779,2.27519 0,1.25136 -3.2341,2.2752 -7.187,2.2752 -3.9527,0 -7.1868,1.02385 -7.1868,2.27521 0,1.25137 -2.0923,2.27521 -4.6498,2.27521 -2.5574,0 -5.3162,1.02384 -6.1305,2.2752 -0.8142,1.25136 -3.573,2.27519 -6.1305,2.27519 -2.5572,0 -4.6497,1.02385 -4.6497,2.27521 0,1.25138 -1.9182,2.27521 -4.2624,2.27521 -2.3443,0 -5.8165,2.04769 -7.7157,4.55042 -1.8995,2.50271 -5.3715,4.55039 -7.7158,4.55039 -2.3443,0 -4.2624,0.85949 -4.2624,1.90999 0,1.05051 -2.7087,3.08215 -6.0195,4.51478 -3.3106,1.43263 -9.5092,5.70478 -13.7747,9.49367 -4.2654,3.78889 -13.415,11.92918 -20.3325,18.08954 -6.9173,6.16037 -12.577,12.29098 -12.577,13.62358 0,4.34409 -2.6002,2.62253 -16.9594,-11.2283 -7.7838,-7.50818 -15.1584,-13.65122 -16.3879,-13.65122 -4.0292,0 -4.2287,-7.82715 -0.3753,-14.73098 5.7293,-10.26471 43.6645,-44.42432 49.3346,-44.42432 1.9542,0 3.5531,-0.85082 3.5531,-1.89074 0,-1.0399 2.9645,-3.34354 6.5879,-5.1192 3.6235,-1.77566 8.0125,-4.50828 9.7537,-6.07247 1.741,-1.5642 5.2446,-2.84401 7.7857,-2.84401 2.541,0 4.62,-1.02384 4.62,-2.27519 0,-1.25137 2.1561,-2.27521 4.7913,-2.27521 2.6352,0 4.7911,-1.02385 4.7911,-2.27521 0,-1.25137 1.6693,-2.27521 3.7094,-2.27521 2.0401,0 8.1717,-2.04767 13.6259,-4.5504 5.4541,-2.50273 12.9482,-4.55041 16.6535,-4.55041 3.7053,0 6.7369,-0.91182 6.7369,-2.02627 0,-2.18535 10.5421,-4.35377 30.5442,-6.28276 6.9175,-0.66712 12.5771,-2.14201 12.5771,-3.27755 0,-1.13556 12.39723,-2.06464 27.54959,-2.06464 16.7693,0 27.5496,0.8903 27.5496,2.27521 0,1.264 6.38832,2.2752 14.37372,2.2752 7.98541,0 14.37374,1.0112 14.37374,2.27521 0,1.25135 3.77315,2.2752 8.38469,2.2752 4.61162,0 8.38469,1.02384 8.38469,2.2752 0,1.25135 3.23412,2.2752 7.18684,2.2752 3.95279,0 7.1869,1.02384 7.1869,2.2752 0,1.25137 3.2341,2.27521 7.18682,2.27521 3.95281,0 7.1869,1.02385 7.1869,2.27521 0,1.25136 2.15607,2.27519 4.79125,2.27519 2.63518,0 4.79124,1.02384 4.79124,2.27521 0,1.25136 2.15608,2.27521 4.79124,2.27521 2.63518,0 4.79125,1.02384 4.79125,2.27521 0,1.25135 1.58042,2.27519 3.5121,2.27519 4.86383,0 20.44412,7.25681 20.44412,9.5222 0,1.01961 1.37903,1.85382 3.06454,1.85382 1.68551,0 4.61854,2.04768 6.51795,4.5504 1.89931,2.50273 4.88806,4.5504 6.64171,4.5504 3.92205,0 53.24878,47.0741 53.24878,50.81706 0,1.48129 2.15607,3.97206 4.79124,5.53503 2.63517,1.56298 4.79124,3.93007 4.79124,5.2602 0,1.33016 1.61711,3.95421 3.59346,5.83126 1.97637,1.87704 3.59345,5.38736 3.59345,7.8007 0,2.41333 1.07804,4.38789 2.39559,4.38789 1.31762,0 2.39566,2.04768 2.39566,4.55041 0,2.50271 1.07802,4.55039 2.39557,4.55039 1.31763,0 2.39566,2.0477 2.39566,4.55042 0,2.50273 1.07804,4.5504 2.39559,4.5504 1.31762,0 2.39566,2.04769 2.39566,4.55042 0,2.50272 1.07804,4.55039 2.39559,4.55039 1.31762,0 2.39566,3.07153 2.39566,6.82563 0,3.75408 1.07803,6.8256 2.39559,6.8256 1.31762,0 2.39565,3.0111 2.39565,6.69134 0,3.68024 1.07804,7.3241 2.39559,8.0975 1.31762,0.77337 2.39565,4.86872 2.39565,9.10079 0,4.23207 1.07803,8.32743 2.39558,9.10083 1.31762,0.77338 2.39566,6.91643 2.39566,13.65121 0,6.73479 1.07804,12.87783 2.39559,13.65123 1.31762,0.77339 2.39566,10.04838 2.39566,20.61111 0,11.28649 -0.98778,19.20495 -2.39566,19.20495 -1.36888,0 -2.39559,6.82561 -2.39559,15.92643 0,9.10081 -1.0267,15.92642 -2.39566,15.92642 -1.31755,0 -2.39558,3.52301 -2.39558,7.82892 0,4.30592 -1.07803,8.46172 -2.39565,9.2351 -1.31755,0.77339 -2.39559,4.35685 -2.39559,7.96321 0,3.60639 -1.07803,7.18983 -2.39565,7.96322 -1.31756,0.77339 -2.39559,3.39343 -2.39559,5.82229 0,2.42887 -1.07804,4.41612 -2.39566,4.41612 -1.31755,0 -2.39559,2.04769 -2.39559,4.55042 0,2.50272 -1.07804,4.55041 -2.39566,4.55041 -1.31755,0 -2.39559,1.64197 -2.39559,3.64888 0,3.99472 -15.75531,33.586 -21.54127,40.45828 -1.98703,2.36012 -8.1944,8.73217 -13.79415,14.16014 -5.59974,5.42797 -10.18142,10.99296 -10.18142,12.36663 0,3.26654 -6.09389,8.99819 -9.56686,8.99819 -1.49725,0 -7.97248,5.1192 -14.38935,11.37602 -6.41688,6.25679 -13.11608,11.37602 -14.88716,11.37602 -1.77102,0 -4.77409,2.04768 -6.6734,4.5504 -1.89939,2.50272 -4.74261,4.5504 -6.31831,4.5504 -1.57567,0 -3.22424,0.76788 -3.66347,1.7064 -1.36544,2.91791 -24.18894,13.45835 -36.13394,16.68758 -6.25856,1.69196 -11.3792,3.8766 -11.3792,4.85479 0,0.97815 -3.23411,1.77848 -7.1869,1.77848 -3.95273,0 -7.18683,1.02383 -7.18683,2.2752 0,1.25136 -3.1705,2.27521 -7.04546,2.27521 -3.87502,0 -7.71177,1.02384 -8.52607,2.2752 -0.81434,1.25135 -7.88513,2.27519 -15.71297,2.27519 -7.89113,0 -14.23235,1.01372 -14.23235,2.27521 0,3.05183 -61.49803,3.05183 -63.48393,0 z m 19.1649,-232.07076 c -0.83641,-2.50272 -2.52606,-4.5504 -3.7548,-4.5504 -1.3406,0 -2.2343,-32.82683 -2.2343,-82.06986 0,-68.09359 0.583,-82.62335 3.42229,-85.32012 1.8824,-1.78766 4.57743,-3.25029 5.98919,-3.25029 1.41164,0 2.56666,-1.02385 2.56666,-2.27521 0,-1.25137 2.74419,-2.2752 6.09803,-2.2752 6.04008,0 17.85825,8.96559 17.85825,13.54781 0,1.30823 1.07805,2.37862 2.39567,2.37862 1.54291,0 2.39559,23.88963 2.39559,67.11851 v 67.11849 h 55.20817 55.20821 l 5.88016,5.5846 c 6.4022,6.08042 7.44066,13.70055 3.09997,22.74839 l -2.78012,5.79506 h -74.91612 c -72.8122,0 -74.95885,-0.12787 -76.43685,-4.5504 z"
       style="fill:#000000;stroke-width:2.33464" /></g></svg>
