<?xml version="1.0" encoding="UTF-8" standalone="no"?>
<svg
   xmlns:dc="http://purl.org/dc/elements/1.1/"
   xmlns:cc="http://creativecommons.org/ns#"
   xmlns:rdf="http://www.w3.org/1999/02/22-rdf-syntax-ns#"
   xmlns:svg="http://www.w3.org/2000/svg"
   xmlns="http://www.w3.org/2000/svg"
   xmlns:sodipodi="http://sodipodi.sourceforge.net/DTD/sodipodi-0.dtd"
   xmlns:inkscape="http://www.inkscape.org/namespaces/inkscape"
   inkscape:version="1.0 (4035a4fb49, 2020-05-01)"
   sodipodi:docname="РАБОЧЕЕ ВРЕМЯ.svg"
   viewBox="0 0 1433.644 1372.313"
   height="1372.313"
   width="1433.644"
   id="svg11"
   version="1.1">
  <metadata
     id="metadata17">
    <rdf:RDF>
      <cc:Work
         rdf:about="">
        <dc:format>image/svg+xml</dc:format>
        <dc:type
           rdf:resource="http://purl.org/dc/dcmitype/StillImage" />
        <dc:title></dc:title>
      </cc:Work>
    </rdf:RDF>
  </metadata>
  <defs
     id="defs15" />
  <sodipodi:namedview
     inkscape:current-layer="g19"
     inkscape:window-maximized="1"
     inkscape:window-y="-6"
     inkscape:window-x="-6"
     inkscape:cy="611.23854"
     inkscape:cx="1263.2632"
     inkscape:zoom="0.26890244"
     showgrid="false"
     id="namedview13"
     inkscape:window-height="1018"
     inkscape:window-width="1920"
     inkscape:pageshadow="2"
     inkscape:pageopacity="0"
     guidetolerance="10"
     gridtolerance="10"
     objecttolerance="10"
     borderopacity="1"
     bordercolor="#666666"
     pagecolor="#ffffff"
     inkscape:document-rotation="0" />
  <g
     transform="translate(1973.7834,-115.00343)"
     id="g19"
     inkscape:label="Image"
     inkscape:groupmode="layer">
    <path
       id="path8"
       d="m -1959.8407,1479.1619 c -4.0598,-4.2678 -7.3814,-9.991 -7.3814,-12.7184 0,-2.7274 -1.4763,-4.9588 -3.2807,-4.9588 -1.8506,0 -3.2806,-9.1488 -3.2806,-20.9884 0,-11.8395 1.43,-20.9883 3.2806,-20.9883 1.8044,0 3.2807,-7.9059 3.2807,-17.5688 0,-9.6628 1.4763,-18.4668 3.2806,-19.5644 1.8044,-1.0975 3.2807,-7.722 3.2807,-14.7209 0,-6.9989 1.4763,-12.7253 3.2806,-12.7253 1.8044,0 3.2807,-5.7264 3.2807,-12.7253 0,-6.999 1.4763,-13.6234 3.2806,-14.721 1.8044,-1.0976 3.2807,-6.269 3.2807,-11.492 0,-5.2229 1.4763,-9.4963 3.2806,-9.4963 1.8044,0 3.2807,-4.3591 3.2807,-9.6869 0,-5.3278 1.4763,-9.6869 3.2806,-9.6869 1.8044,0 3.2807,-4.3591 3.2807,-9.6869 0,-5.3278 1.4763,-9.687 3.2806,-9.687 1.8044,0 3.2807,-4.2733 3.2807,-9.4963 0,-5.223 1.2823,-10.2764 2.8497,-11.2298 1.5673,-0.9535 3.8465,-7.869 5.0649,-15.368 1.2183,-7.499 3.3833,-15.1596 4.8111,-17.0237 1.4278,-1.864 6.161,-14.6429 10.5182,-28.3975 4.3572,-13.7546 9.0295,-25.0157 10.3827,-25.0245 1.3533,-0.01 2.4605,-3.5631 2.4605,-7.8981 0,-4.335 1.4763,-8.7799 3.2807,-9.8775 1.8043,-1.0976 3.2806,-4.8159 3.2806,-8.263 0,-3.447 1.4763,-6.2673 3.2807,-6.2673 1.8043,0 3.2806,-3.6326 3.2806,-8.0725 0,-4.4398 1.4763,-8.0724 3.2807,-8.0724 1.8043,0 3.2806,-2.9061 3.2806,-6.4579 0,-3.5519 1.4763,-6.458 3.2807,-6.458 1.8043,0 3.2806,-2.9061 3.2806,-6.4579 0,-3.5519 1.4763,-6.458 3.2807,-6.458 1.8043,0 3.2806,-2.3468 3.2806,-5.2152 0,-6.0306 22.1726,-27.0745 28.5266,-27.0745 2.354,0 4.2799,-1.453 4.2799,-3.229 0,-1.7759 2.9526,-3.2289 6.5613,-3.2289 3.6087,0 6.5613,-1.4531 6.5613,-3.229 0,-1.7759 2.1788,-3.229 4.8417,-3.229 2.6629,0 9.6753,-2.9006 15.5831,-6.4458 5.9077,-3.5453 13.3249,-6.4514 16.4825,-6.458 3.1576,-0.01 5.7412,-1.4651 5.7412,-3.241 0,-1.776 2.0456,-3.229 4.5459,-3.229 2.5003,0 8.7746,-2.1706 13.9428,-4.8236 5.1682,-2.6529 11.9803,-4.8325 15.1379,-4.8434 3.1576,-0.011 5.7411,-1.473 5.7411,-3.2489 0,-1.7759 2.9526,-3.229 6.5613,-3.229 3.6088,0 6.5613,-1.453 6.5613,-3.2289 0,-1.776 2.1696,-3.22898 4.8212,-3.22898 2.6517,0 10.0781,-2.9061 16.5031,-6.458 6.425,-3.5518 13.8514,-6.4579 16.503,-6.4579 2.6517,0 4.8212,-1.453 4.8212,-3.229 0,-1.7759 2.9526,-3.2289 6.5613,-3.2289 3.6087,0 6.5613,-1.4531 6.5613,-3.229 0,-1.776 2.3103,-3.229 5.134,-3.229 2.8236,0 12.3237,-7.2652 21.1112,-16.1448 8.7875,-8.8797 17.6651,-16.1449 19.7281,-16.1449 2.063,0 9.4245,-5.8122 16.359,-12.91589 6.9346,-7.10374 14.9623,-12.91589 17.8394,-12.91589 2.8772,0 30.428,24.84708 61.2241,55.21578 l 55.9929,55.21578 -1.7327,18.2433 c -0.9529,10.0338 -3.3244,27.6881 -5.2698,39.2317 -6.2409,37.0319 -9.5396,65.7154 -9.7477,84.7605 -0.1115,10.2116 -1.6791,18.5665 -3.4834,18.5665 -1.819,0 -3.2807,8.5471 -3.2807,19.1833 0,10.5508 -1.4763,20.0813 -3.2806,21.1789 -1.8044,1.0976 -3.2807,10.6281 -3.2807,21.1789 0,10.6362 -1.4617,19.1832 -3.2806,19.1832 -1.872,0 -3.2807,9.6234 -3.2807,22.4123 0,12.3267 -1.4763,23.3102 -3.2806,24.4078 -1.8044,1.0976 -3.2807,10.6281 -3.2807,21.1789 0,10.6362 -1.4617,19.1833 -3.2806,19.1833 -6.4572,0 -3.1264,16.5902 4.921,24.5108 4.5109,4.4399 8.2016,9.3934 8.2016,11.0079 0,1.6145 3.5138,6.3939 7.8084,10.6208 4.2947,4.227 8.8718,10.9831 10.1715,15.0136 1.2997,4.0304 7.2216,12.3979 13.1598,18.5943 9.7825,10.208 11.517,10.8867 18.4664,7.226 9.3861,-4.9441 16.0069,-11.2421 16.0069,-15.2265 0,-1.6394 4.4289,-7.5421 9.8419,-13.1171 5.4131,-5.5751 9.842,-11.7463 9.842,-13.7138 0,-1.9676 4.4289,-7.6494 9.8419,-12.6263 9.3686,-8.6137 9.842,-10.3068 9.842,-35.1997 0,-15.2812 -1.3636,-26.1508 -3.2807,-26.1508 -1.8746,0 -3.2806,-9.6869 -3.2806,-22.6028 0,-12.9159 -1.406,-22.6028 -3.2807,-22.6028 -1.8189,0 -3.2806,-8.547 -3.2806,-19.1832 0,-10.5508 -1.4763,-20.0813 -3.2807,-21.1789 -1.8043,-1.0976 -3.2806,-10.6281 -3.2806,-21.1789 0,-10.6362 -1.4617,-19.1833 -3.2807,-19.1833 -1.8226,0 -3.2806,-8.6106 -3.2806,-19.3738 0,-10.7632 -1.4581,-19.3738 -3.2807,-19.3738 -1.8955,0 -3.2806,-10.2251 -3.2806,-24.2173 0,-13.9922 -1.3852,-24.2173 -3.2807,-24.2173 -1.8174,0 -3.2806,-8.5209 -3.2806,-19.1048 0,-10.5076 -1.2721,-19.589 -2.8268,-20.181 -1.5547,-0.592 -3.5821,-11.7494 -4.5053,-24.7943 l -1.6786,-23.718 35.5669,-35.21078 c 19.5618,-19.3659 36.2894,-35.2107 37.1725,-35.2107 0.883,0 10.5148,-8.8785 21.404,-19.73 23.9851,-23.90228 28.0187,-23.75129 54.2118,2.0292 9.8912,9.7355 19.4924,17.7008 21.336,17.7008 1.8436,0 3.352,1.453 3.352,3.229 0,1.7759 2.115,3.2289 4.6999,3.2289 2.5849,0 5.637,2.9061 6.7824,6.458 1.1453,3.5518 4.9355,6.4579 8.4227,6.4579 3.4871,0 6.3402,1.453 6.3402,3.229 0,1.7759 2.9526,3.229 6.5613,3.229 3.6087,0 6.5613,1.453 6.5613,3.2289 0,1.776 2.9526,3.229 6.5613,3.229 3.6087,0 6.5613,1.453 6.5613,3.229 0,1.7759 2.9526,3.2289 6.5613,3.2289 3.6087,0 6.5613,1.1904 6.5613,2.6453 0,1.4549 7.3814,4.62358 16.4032,7.04168 9.0218,2.418 16.4033,5.425 16.4033,6.6822 0,1.2573 5.167,3.24 11.4823,4.4061 6.3152,1.1661 11.4822,3.5074 11.4822,5.2028 0,1.6955 2.9526,3.0827 6.5613,3.0827 3.6087,0 6.5613,1.453 6.5613,3.229 0,1.7759 2.9526,3.2289 6.5613,3.2289 3.6087,0 6.5613,1.4531 6.5613,3.229 0,1.7759 2.9526,3.229 6.5613,3.229 3.6087,0 6.5613,1.453 6.5613,3.2289 0,1.776 2.9526,3.229 6.5613,3.229 3.6087,0 6.5613,1.4531 6.5613,3.229 0,1.7759 4.103,3.229 9.1177,3.229 5.3543,0 11.0698,2.6656 13.8469,6.4579 2.601,3.5519 6.6176,6.4579 8.9258,6.4579 2.3082,0 4.1968,1.4531 4.1968,3.229 0,1.776 1.906,3.229 4.2356,3.229 5.5812,0 22.0096,32.1755 22.0096,43.1065 0,4.7064 1.1072,8.5684 2.4605,8.5822 3.3287,0.034 10.6621,16.0057 10.6621,23.2214 0,3.1978 1.2094,5.8142 2.6876,5.8142 1.4782,0 4.6976,7.2652 7.1543,16.1448 2.4567,8.8797 5.6762,16.1449 7.1544,16.1449 1.4782,0 2.68758,4.3591 2.68758,9.6869 0,5.3278 1.47629,9.6869 3.28065,9.6869 1.80436,0 3.28065,4.3591 3.28065,9.687 0,5.3278 1.47629,9.6869 3.28065,9.6869 1.80436,0 3.28065,3.6326 3.28065,8.0724 0,4.4398 1.47629,8.0724 3.28065,8.0724 1.80436,0 3.28066,4.3591 3.28066,9.6869 0,5.3278 1.4763,9.687 3.2806,9.687 1.8044,0 3.2807,4.3591 3.2807,9.6869 0,5.3278 1.4763,9.6869 3.2806,9.6869 1.8044,0 3.2807,4.3591 3.2807,9.6869 0,5.3278 1.4763,9.6869 3.2806,9.6869 1.8044,0 3.2807,4.3591 3.2807,9.6869 0,5.3278 1.4763,9.6869 3.2806,9.6869 1.8044,0 3.2807,5.0857 3.2807,11.3015 0,6.2157 1.3276,11.3014 2.9503,11.3014 2.7762,0 3.7406,4.6906 8.7971,42.7838 1.1197,8.4357 3.3635,15.3376 4.9862,15.3376 1.6226,0 2.9503,17.5025 2.9503,38.8945 0,36.99 -0.3943,39.2825 -8.0525,46.8201 l -8.0525,7.9256 -501.26839,-0.1975 -501.2684,-0.1975 z m 477.0137,-575.25976 c -1.229,-1.20964 -9.9637,-3.4497 -19.4105,-4.97794 -35.0308,-5.66701 -38.5002,-6.50693 -38.5002,-9.32082 0,-1.58161 -2.9525,-2.87569 -6.5613,-2.87569 -3.6087,0 -6.5613,-1.45303 -6.5613,-3.22897 0,-1.77593 -2.9525,-3.22897 -6.5613,-3.22897 -3.6087,0 -6.5613,-1.45304 -6.5613,-3.22897 0,-1.77594 -2.2144,-3.22897 -4.9209,-3.22897 -2.7066,0 -4.921,-1.45304 -4.921,-3.22898 0,-1.77593 -1.8885,-3.22897 -4.1967,-3.22897 -2.3082,0 -6.3249,-2.90607 -8.9259,-6.45794 -2.601,-3.55187 -5.9033,-6.45795 -7.3385,-6.45795 -3.8486,0 -51.7132,-47.77044 -51.7132,-51.61146 0,-1.80458 -1.4763,-3.28106 -3.2807,-3.28106 -1.8043,0 -3.2806,-2.17955 -3.2806,-4.84345 0,-2.66391 -1.4763,-4.84346 -3.2807,-4.84346 -1.8043,0 -3.2806,-2.05847 -3.2806,-4.57439 0,-2.51588 -1.1072,-5.0587 -2.4605,-5.6507 -3.7826,-1.65465 -23.7847,-40.4264 -23.7847,-46.10381 0,-2.76187 -1.4254,-5.02157 -3.1677,-5.02157 -1.7422,0 -4.1468,-7.26518 -5.3436,-16.14485 -1.1968,-8.87968 -3.4621,-16.14486 -5.034,-16.14486 -1.5719,0 -2.858,-3.6326 -2.858,-8.07243 0,-4.43984 -1.4762,-8.07243 -3.2806,-8.07243 -1.8044,0 -3.2807,-5.81215 -3.2807,-12.91589 0,-7.10374 -1.4762,-12.91589 -3.2806,-12.91589 -1.8044,0 -3.2807,-7.26518 -3.2807,-16.14486 0,-8.87967 -1.4762,-16.14485 -3.2806,-16.14485 -1.8932,0 -3.2807,-10.16155 -3.2807,-24.02672 0,-13.2147 -1.4762,-24.92476 -3.2806,-26.02235 -4.4063,-2.68033 -4.4063,-110.33367 0,-113.01401 1.8044,-1.09759 3.2806,-9.81582 3.2806,-19.37383 0,-9.55802 1.4763,-18.27624 3.2807,-19.37383 1.8044,-1.09759 3.2806,-6.99549 3.2806,-13.10645 0,-6.11096 1.154,-11.11084 2.5645,-11.11084 1.4104,0 4.526,-6.53867 6.9234,-14.53037 2.3974,-7.99171 5.6723,-14.53038 7.2775,-14.53038 1.6052,0 2.9185,-2.80228 2.9185,-6.2273 0,-3.42502 2.2145,-8.40686 4.921,-11.07076 2.7066,-2.6639 4.921,-6.42372 4.921,-8.35515 0,-4.70021 48.0792,-51.84211 52.8729,-51.84211 2.0728,0 6.1565,-2.66237 9.0746,-5.91637 2.9182,-3.254 14.5326,-8.61463 25.8099,-11.91249 11.2772,-3.29787 20.504,-7.17417 20.504,-8.614 0,-1.43984 4.3418,-2.61789 9.6484,-2.61789 5.3066,0 10.5607,-1.45303 11.6759,-3.22897 1.1151,-1.77593 8.5837,-3.22897 16.5968,-3.22897 8.0132,0 14.5693,-1.45304 14.5693,-3.22897 0,-4.3968 146.5087,-4.3968 149.2696,0 1.1152,1.77593 7.8456,3.22897 14.9566,3.22897 7.1109,0 12.9289,1.45304 12.9289,3.22897 0,1.77594 5.9052,3.22897 13.1226,3.22897 7.2175,0 13.1226,1.32532 13.1226,2.94516 0,1.61983 5.9052,3.9271 13.1226,5.12727 7.2175,1.20017 13.1226,3.50745 13.1226,5.12728 0,1.61983 2.9526,2.94515 6.5613,2.94515 3.6087,0 6.5613,1.45304 6.5613,3.22898 0,1.77593 2.6267,3.22897 5.8371,3.22897 3.2104,0 7.9652,2.90607 10.5662,6.45794 2.601,3.55187 5.9116,6.45794 7.3568,6.45794 4.262,0 36.5234,33.22823 41.5871,42.83342 2.5604,4.85657 5.882,8.83013 7.3815,8.83013 1.4994,0 2.7263,2.90608 2.7263,6.45795 0,3.55187 1.4763,6.45794 3.2806,6.45794 1.8044,0 3.2807,2.90607 3.2807,6.45794 0,3.55187 1.4763,6.45795 3.2806,6.45795 1.8044,0 3.2807,2.17955 3.2807,4.84345 0,2.66391 1.4763,4.84346 3.2806,4.84346 1.8044,0 3.2807,4.35911 3.2807,9.68692 0,5.3278 1.4763,9.68691 3.2806,9.68691 1.8044,0 3.2807,5.81215 3.2807,12.91589 0,7.10374 1.4763,12.91589 3.2806,12.91589 1.9137,0 3.2807,10.76323 3.2807,25.83177 0,16.07976 1.3157,25.83178 3.4853,25.83178 4.0305,0 2.2258,52.43353 -3.3897,98.48364 -1.949,15.98341 -4.3701,38.14223 -5.3802,49.24182 -1.0101,11.09959 -3.1869,20.18107 -4.8373,20.18107 -1.6504,0 -3.0007,5.81215 -3.0007,12.91589 0,7.10373 -1.4763,12.91588 -3.2807,12.91588 -1.8043,0 -3.2806,4.35912 -3.2806,9.68692 0,5.3278 -1.4763,9.68691 -3.2807,9.68691 -1.8043,0 -3.2806,3.6326 -3.2806,8.07243 0,4.43984 -1.4763,8.07243 -3.2807,8.07243 -1.8043,0 -3.2806,4.35912 -3.2806,9.68692 0,5.3278 -1.4763,9.68691 -3.2807,9.68691 -1.8043,0 -3.2806,2.90608 -3.2806,6.45795 0,3.55187 -1.4763,6.45794 -3.2807,6.45794 -1.8043,0 -3.2806,2.90608 -3.2806,6.45795 0,3.55186 -1.4763,6.45794 -3.2807,6.45794 -1.8043,0 -3.2806,2.90607 -3.2806,6.45794 0,3.55187 -1.4763,6.45795 -3.2807,6.45795 -1.8043,0 -3.2806,2.5853 -3.2806,5.74511 0,3.15981 -2.9526,7.83969 -6.5613,10.39975 -3.6087,2.56005 -6.5613,6.58277 -6.5613,8.93944 0,2.35663 -3.6907,7.65137 -8.2016,11.76608 -4.5109,4.11471 -8.2017,9.16918 -8.2017,11.2322 0,4.34539 -27.9425,32.64171 -32.2336,32.64171 -1.5842,0 -7.5148,4.35911 -13.179,9.68692 -5.6643,5.3278 -12.5266,9.68691 -15.2495,9.68691 -2.723,0 -4.9509,1.20502 -4.9509,2.67782 0,3.97231 -40.2504,23.15396 -48.5858,23.15396 -3.9519,0 -7.1852,1.45303 -7.1852,3.22897 0,1.77593 -7.3815,3.22897 -16.4033,3.22897 -9.0217,0 -16.4032,1.45304 -16.4032,3.22897 0,3.62104 -59.8541,4.59192 -63.4734,1.02959 z m 530.96599,-72.06697 c -1.1151,-1.77593 -10.7982,-3.22897 -21.5178,-3.22897 -10.80646,0 -19.49031,-1.43867 -19.49031,-3.22897 0,-1.77594 -4.44892,-3.22897 -9.88648,-3.22897 -5.4375,0 -13.1881,-1.67991 -17.2234,-3.73311 -15.3949,-7.83304 -18.8778,-9.18278 -23.6957,-9.18278 -2.731,0 -4.9655,-1.45304 -4.9655,-3.22897 0,-1.77594 -2.5835,-3.23792 -5.7411,-3.24886 -3.1576,-0.01 -9.9697,-2.19051 -15.1379,-4.84346 -5.1683,-2.65296 -11.4425,-4.82357 -13.9428,-4.82357 -2.5003,0 -4.546,-1.45304 -4.546,-3.22897 0,-1.77594 -2.6267,-3.22897 -5.837,-3.22897 -3.2104,0 -7.9652,-2.90608 -10.5662,-6.45795 -2.6011,-3.55187 -6.6848,-6.45794 -9.075,-6.45794 -6.0125,0 -20.4509,-14.75007 -20.4509,-20.89238 0,-7.94392 7.8937,-30.77117 10.6408,-30.77117 1.365,0 2.4818,-4.06944 2.4818,-9.04319 0,-11.60415 6.9676,-26.41776 12.4409,-26.45031 4.3652,-0.0258 8.3887,2.77265 22.0148,15.31243 4.342,3.99585 9.1596,7.26518 10.7057,7.26518 1.5462,0 5.6731,2.54466 9.1709,5.65484 3.4979,3.11014 13.7412,9.28555 22.763,13.72313 9.0218,4.43754 16.8953,9.15807 17.4968,10.49002 0.6015,1.33195 3.9231,2.42173 7.3815,2.42173 3.4583,0 6.2879,1.45304 6.2879,3.22897 0,1.77594 4.4289,3.22898 9.8419,3.22898 5.4131,0 9.84198,1.45303 9.84198,3.22897 0,1.77593 5.81803,3.22897 12.92901,3.22897 7.1109,0 13.8414,1.45304 14.9565,3.22897 2.7427,4.3679 113.1824,4.3679 113.1824,0 0,-1.77593 6.6433,-3.22897 14.763,-3.22897 8.1196,0 14.7629,-1.45304 14.7629,-3.22897 0,-1.77594 3.6907,-3.22897 8.2016,-3.22897 4.5109,0 8.2016,-1.45304 8.2016,-3.22898 0,-1.77593 3.6908,-3.22897 8.2017,-3.22897 4.5108,0 8.2016,-1.45304 8.2016,-3.22897 0,-1.77593 2.9526,-3.22897 6.5613,-3.22897 3.6087,0 6.5613,-1.45304 6.5613,-3.22897 0,-1.77594 2.9526,-3.22898 6.5613,-3.22898 3.6087,0 6.5613,-1.35513 6.5613,-3.01137 0,-1.65627 3,-3.94854 6.6667,-5.09399 3.6667,-1.14541 10.2429,-5.60246 14.6138,-9.90452 4.3709,-4.30202 9.5528,-7.82189 11.5153,-7.82189 3.6078,0 10.1739,-4.61866 17.3912,-12.23315 2.169,-2.28841 10.9561,-11.46676 19.5268,-20.39632 8.5707,-8.92956 15.5831,-17.5257 15.5831,-19.10253 0,-1.57684 3.6907,-6.49957 8.2016,-10.9394 4.5109,-4.43984 8.2016,-10.31805 8.2016,-13.06268 0,-2.74463 1.2008,-4.99021 2.6683,-4.99021 1.4676,0 4.6958,-5.08564 7.1737,-11.30141 2.4779,-6.21577 5.706,-11.3014 7.1736,-11.3014 1.4676,0 2.6683,-2.90607 2.6683,-6.45794 0,-3.55187 1.4763,-6.45794 3.2807,-6.45794 1.8043,0 3.2806,-3.54684 3.2806,-7.88186 0,-4.33502 1.4763,-8.7799 3.2807,-9.87749 1.8043,-1.09759 3.2806,-6.26898 3.2806,-11.49197 0,-5.223 1.4763,-9.49635 3.2807,-9.49635 1.8043,0 3.2806,-5.81215 3.2806,-12.91588 0,-7.10374 1.5541,-12.91589 3.4536,-12.91589 2.3248,0 2.9509,-14.51129 1.9155,-44.39836 -1.7487,-50.47592 -4.691,-75.0736 -8.9801,-75.0736 -1.6226,0 -2.9503,-4.35911 -2.9503,-9.68691 0,-5.32781 -1.4763,-9.68692 -3.2806,-9.68692 -1.8044,0 -3.2807,-3.63259 -3.2807,-8.07243 0,-4.43983 -1.4763,-8.07243 -3.2806,-8.07243 -1.8044,0 -3.2807,-2.90607 -3.2807,-6.45794 0,-3.55187 -1.4763,-6.45794 -3.2806,-6.45794 -1.8044,0 -3.2807,-2.90608 -3.2807,-6.45795 0,-3.55187 -1.4763,-6.45794 -3.2806,-6.45794 -1.8044,0 -3.2807,-2.90608 -3.2807,-6.45794 0,-3.55187 -1.4763,-6.45795 -3.2806,-6.45795 -1.8044,0 -3.2807,-2.3231 -3.2807,-5.16245 0,-2.83934 -4.4289,-9.23446 -9.8419,-14.21138 -5.4131,-4.97691 -9.842,-10.55661 -9.842,-12.39933 0,-4.28313 -38.9329,-42.49319 -43.2971,-42.49319 -1.8041,0 -7.4174,-4.35911 -12.4739,-9.68691 -5.0566,-5.32781 -11.5541,-9.68692 -14.4389,-9.68692 -2.8847,0 -5.245,-1.45304 -5.245,-3.22897 0,-1.77594 -2.9526,-3.22897 -6.5613,-3.22897 -3.6087,0 -6.5613,-1.45304 -6.5613,-3.22898 0,-1.77593 -2.9526,-3.22897 -6.5613,-3.22897 -3.6087,0 -6.5613,-1.45303 -6.5613,-3.22897 0,-1.77593 -2.9526,-3.22897 -6.5613,-3.22897 -3.6087,0 -6.5613,-1.45304 -6.5613,-3.22897 0,-1.77594 -3.6908,-3.22897 -8.2016,-3.22897 -4.5109,0 -8.2017,-1.45304 -8.2017,-3.22898 0,-1.77593 -3.6036,-3.22897 -8.008,-3.22897 -4.4044,0 -8.9204,-1.45304 -10.0355,-3.22897 -1.1152,-1.77593 -9.3219,-3.22897 -18.2372,-3.22897 -8.9153,0 -16.2097,-1.45304 -16.2097,-3.22897 0,-1.9932 -16.95,-3.22898 -44.2887,-3.22898 -27.3388,0 -44.2888,1.23578 -44.2888,3.22898 0,1.77593 -7.3815,3.22897 -16.4033,3.22897 -9.0218,0 -16.40321,1.45304 -16.40321,3.22897 0,1.77593 -4.42888,3.22897 -9.84195,3.22897 -5.41303,0 -9.84193,1.45304 -9.84193,3.22897 0,1.77594 -2.8655,3.22898 -6.3677,3.22898 -3.5022,0 -7.2801,1.45303 -8.3953,3.22897 -1.1151,1.77593 -4.893,3.22897 -8.3952,3.22897 -3.5022,0 -6.3677,1.45304 -6.3677,3.22897 0,1.77594 -2.6267,3.22897 -5.837,3.22897 -3.2104,0 -7.9652,2.90608 -10.5662,6.45795 -2.6011,3.55187 -7.3558,6.45794 -10.5662,6.45794 -3.2104,0 -5.8371,1.2198 -5.8371,2.71067 0,1.49087 -3.7094,4.37419 -8.2432,6.40737 -4.5338,2.03319 -13.0224,8.09623 -18.8637,13.47342 -5.8413,5.37719 -18.3711,16.92991 -27.844,25.67271 -9.4728,8.74279 -17.2234,17.44337 -17.2234,19.3346 0,6.16514 -3.5609,3.7219 -23.2249,-15.93522 -10.6594,-10.65561 -20.7584,-19.37383 -22.4422,-19.37383 -5.5177,0 -5.7908,-11.10831 -0.5139,-20.90622 7.8458,-14.5677 59.7957,-63.04705 67.5605,-63.04705 2.6761,0 4.8657,-1.2075 4.8657,-2.68334 0,-1.47584 4.0598,-4.74517 9.0218,-7.26519 4.962,-2.52001 10.9726,-6.39814 13.357,-8.61806 2.3843,-2.21991 7.1822,-4.03621 10.6621,-4.03621 3.4798,0 6.3269,-1.45304 6.3269,-3.22897 0,-1.77594 2.9526,-3.22897 6.5613,-3.22897 3.6087,0 6.5613,-1.45304 6.5613,-3.22898 0,-1.77593 2.2858,-3.22897 5.0795,-3.22897 2.7937,0 11.1906,-2.90607 18.6598,-6.45794 7.4691,-3.55187 17.7319,-6.45795 22.806,-6.45795 5.0742,0 9.2258,-1.29406 9.2258,-2.8757 0,-3.10142 14.43661,-6.17886 41.82829,-8.91649 9.4729,-0.94676 17.2234,-3.03993 17.2234,-4.6515 0,-1.61158 16.9773,-2.93014 37.7275,-2.93014 22.9645,0 37.7274,1.26351 37.7274,3.22898 0,1.79387 8.7484,3.22897 19.6839,3.22897 10.9355,0 19.6839,1.4351 19.6839,3.22897 0,1.77593 5.1671,3.22897 11.4823,3.22897 6.3153,0 11.4823,1.45304 11.4823,3.22897 0,1.77594 4.4289,3.22897 9.8419,3.22897 5.4131,0 9.842,1.45304 9.842,3.22898 0,1.77593 4.4289,3.22897 9.8419,3.22897 5.4131,0 9.842,1.45304 9.842,3.22897 0,1.77593 2.9526,3.22897 6.5613,3.22897 3.6087,0 6.5613,1.45304 6.5613,3.22897 0,1.77594 2.9526,3.22898 6.5613,3.22898 3.6087,0 6.5613,1.45303 6.5613,3.22897 0,1.77593 2.1643,3.22897 4.8096,3.22897 6.6607,0 27.9969,10.29888 27.9969,13.51393 0,1.44701 1.8885,2.63093 4.1967,2.63093 2.3082,0 6.3248,2.90607 8.9259,6.45794 2.601,3.55187 6.6939,6.45794 9.0954,6.45794 5.371,0 72.9208,66.80762 72.9208,72.11962 0,2.10225 2.9526,5.63714 6.5613,7.85532 3.6087,2.21818 6.5613,5.57757 6.5613,7.4653 0,1.88775 2.2145,5.61181 4.921,8.27571 2.7065,2.66391 4.921,7.64575 4.921,11.07077 0,3.42501 1.4763,6.2273 3.2806,6.2273 1.8044,0 3.2807,2.90607 3.2807,6.45794 0,3.55187 1.4763,6.45794 3.2806,6.45794 1.8044,0 3.2807,2.90608 3.2807,6.45795 0,3.55187 1.4763,6.45794 3.2806,6.45794 1.8044,0 3.2807,2.90608 3.2807,6.45795 0,3.55186 1.4763,6.45794 3.2806,6.45794 1.8044,0 3.2807,4.35911 3.2807,9.68691 0,5.32781 1.4763,9.68692 3.2806,9.68692 1.8044,0 3.2807,4.27336 3.2807,9.49635 0,5.223 1.4763,10.39438 3.2806,11.49197 1.8044,1.09759 3.2807,6.90973 3.2807,12.91588 0,6.00615 1.4763,11.8183 3.2806,12.91589 1.8044,1.09759 3.2807,9.81581 3.2807,19.37383 0,9.55802 1.4763,18.27624 3.2806,19.37383 1.8044,1.09759 3.2807,14.26069 3.2807,29.25132 0,16.0178 -1.3527,27.25569 -3.2807,27.25569 -1.8746,0 -3.2806,9.68691 -3.2806,22.6028 0,12.91589 -1.406,22.6028 -3.2807,22.6028 -1.8043,0 -3.2806,4.99987 -3.2806,11.11083 0,6.11096 -1.4763,12.00887 -3.2807,13.10646 -1.8043,1.09759 -3.2806,6.18323 -3.2806,11.3014 0,5.11818 -1.4763,10.20381 -3.2807,11.30141 -1.8043,1.09759 -3.2806,4.81594 -3.2806,8.263 0,3.44706 -1.4763,6.26737 -3.2807,6.26737 -1.8043,0 -3.2806,2.90607 -3.2806,6.45794 0,3.55187 -1.4763,6.45795 -3.2807,6.45795 -1.8043,0 -3.2806,2.33031 -3.2806,5.17852 0,5.6693 -21.5759,47.66528 -29.4994,57.41842 -2.7211,3.34948 -11.2217,12.3927 -18.8902,20.09609 -7.6685,7.70339 -13.9428,15.60123 -13.9428,17.55075 0,4.63587 -8.3452,12.77023 -13.1012,12.77023 -2.0504,0 -10.9178,7.26518 -19.7053,16.14486 -8.7875,8.87967 -17.9616,16.14486 -20.387,16.14486 -2.4253,0 -6.5378,2.90607 -9.1388,6.45794 -2.6011,3.55187 -6.4947,6.45794 -8.6525,6.45794 -2.1578,0 -4.4154,1.08978 -5.0169,2.42173 -1.8699,4.14109 -33.1252,19.10008 -49.4831,23.68302 -8.5707,2.40123 -15.5831,5.50169 -15.5831,6.88992 0,1.3882 -4.4289,2.52402 -9.842,2.52402 -5.413,0 -9.8419,1.45304 -9.8419,3.22897 0,1.77594 -4.3418,3.22898 -9.6483,3.22898 -5.3066,0 -10.5608,1.45303 -11.6759,3.22897 -1.1152,1.77593 -10.7982,3.22897 -21.5179,3.22897 -10.8064,0 -19.4903,1.43867 -19.4903,3.22897 0,4.33115 -84.2176,4.33115 -86.9372,0 z m 26.2452,-329.35512 c -1.1454,-3.55187 -3.4593,-6.45794 -5.142,-6.45794 -1.8358,0 -3.0596,-46.58787 -3.0596,-116.47363 0,-96.63851 0.7981,-117.25918 4.6866,-121.08644 2.5777,-2.53705 6.2684,-4.61282 8.2016,-4.61282 1.9333,0 3.515,-1.45304 3.515,-3.22897 0,-1.77594 3.7579,-3.22897 8.3508,-3.22897 8.2715,0 24.4557,12.72397 24.4557,19.22706 0,1.85665 1.4763,3.37574 3.2807,3.37574 2.113,0 3.2806,33.9042 3.2806,95.25467 v 95.25467 h 75.6041 75.6041 l 8.0525,7.92567 c 8.7674,8.62933 10.1895,19.44383 4.2452,32.28455 l -3.8072,8.22435 h -102.5928 c -99.7116,0 -102.6513,-0.18147 -104.6753,-6.45794 z"
       style="fill:#000000;stroke-width:3.25471" />
  </g>
</svg>
