<?xml version="1.0" encoding="UTF-8" standalone="no"?>
<!-- Created with Inkscape (http://www.inkscape.org/) -->

<svg
   version="1.1"
   id="svg224"
   width="311.95459"
   height="286.60919"
   viewBox="0 0 311.95459 286.60919"
   sodipodi:docname="НОВЫЙ ПАРОЛЬ.svg"
   inkscape:version="1.2.1 (9c6d41e410, 2022-07-14)"
   xml:space="preserve"
   xmlns:inkscape="http://www.inkscape.org/namespaces/inkscape"
   xmlns:sodipodi="http://sodipodi.sourceforge.net/DTD/sodipodi-0.dtd"
   xmlns="http://www.w3.org/2000/svg"
   xmlns:svg="http://www.w3.org/2000/svg"><defs
     id="defs228" /><sodipodi:namedview
     id="namedview226"
     pagecolor="#ffffff"
     bordercolor="#111111"
     borderopacity="1"
     inkscape:showpageshadow="0"
     inkscape:pageopacity="0"
     inkscape:pagecheckerboard="1"
     inkscape:deskcolor="#d1d1d1"
     showgrid="false"
     inkscape:zoom="1.0557862"
     inkscape:cx="-100.39911"
     inkscape:cy="257.15434"
     inkscape:window-width="1920"
     inkscape:window-height="1018"
     inkscape:window-x="-6"
     inkscape:window-y="-6"
     inkscape:window-maximized="1"
     inkscape:current-layer="g230" /><g
     inkscape:groupmode="layer"
     inkscape:label="Image"
     id="g230"
     transform="translate(84.131999,-129.12997)"><g
       id="g6942"
       transform="translate(-0.94716146,0.94716122)"><path
         style="fill:#fefefe;stroke-width:0.974029"
         d="M 55.171467,413.19843 C 39.703941,411.07262 25.17358,407.83001 15.726351,404.39581 7.1672894,401.28448 -8.2835679,394.15325 -8.8063499,393.07294 c -0.1866764,-0.38576 -0.9885204,-0.70137 -1.7818791,-0.70137 -0.793359,0 -1.442471,-0.41929 -1.442471,-0.93176 0,-0.51247 -0.691779,-0.93176 -1.537287,-0.93176 -0.845509,0 -2.321928,-0.83859 -3.280933,-1.86352 -0.959005,-1.02494 -2.325227,-1.86352 -3.03605,-1.86352 -0.710823,0 -1.864702,-0.83859 -2.564176,-1.86353 -0.699474,-1.02493 -1.848849,-1.86352 -2.554165,-1.86352 -0.705316,0 -1.285525,-0.31447 -1.289351,-0.69882 -0.0039,-0.38435 -1.607515,-1.69628 -3.563751,-2.91538 -1.956237,-1.21912 -3.556794,-2.79147 -3.556794,-3.49411 0,-0.70265 -0.616281,-1.27753 -1.369511,-1.27753 -1.740035,0 -4.96882,-3.20686 -4.063189,-4.0356 0.374568,-0.34277 0.151706,-0.62321 -0.495246,-0.62321 -1.478164,0 -5.272415,-2.9219 -5.272415,-4.06021 0,-0.46793 -1.145492,-1.82224 -2.545537,-3.00959 -1.400045,-1.18736 -2.545536,-2.49727 -2.545536,-2.91094 0,-0.41367 -0.934173,-1.28599 -2.075939,-1.93849 -1.141767,-0.6525 -1.853603,-1.51557 -1.581859,-1.91792 0.271744,-0.40237 -0.37323,-1.30361 -1.433276,-2.00278 -1.060046,-0.69916 -1.695758,-1.61412 -1.412693,-2.03324 0.283065,-0.41912 0.02942,-0.76204 -0.563644,-0.76204 -0.593068,0 -1.078307,-0.43683 -1.078307,-0.97072 0,-0.5339 -0.900548,-1.85527 -2.001219,-2.93639 -1.10067,-1.08112 -1.760924,-2.32147 -1.46723,-2.75632 0.293695,-0.43486 0.04875,-0.79065 -0.544317,-0.79065 -0.593068,0 -1.078307,-0.65889 -1.078307,-1.4642 0,-0.8053 -0.687295,-2.09314 -1.527322,-2.86184 -0.840027,-0.7687 -1.527322,-2.16141 -1.527322,-3.09492 0,-0.9335 -0.67957,-1.93591 -1.510156,-2.22758 -0.830586,-0.29166 -1.273448,-1.09477 -0.984139,-1.78468 0.28931,-0.68991 -0.396199,-2.22743 -1.523353,-3.4167 -1.127153,-1.18927 -1.800569,-2.5307 -1.496478,-2.98096 0.30409,-0.45024 -0.163617,-1.4743 -1.03935,-2.27568 -0.875732,-0.80138 -1.592241,-2.65003 -1.592241,-4.10813 0,-1.4581 -0.500412,-2.80372 -1.112027,-2.99029 -0.611615,-0.18655 -1.18436,-1.47907 -1.272768,-2.87227 -0.08841,-1.39319 -0.618938,-2.53978 -1.178956,-2.54799 -0.560018,-0.008 -0.411613,-0.36686 0.329788,-0.79702 1.094378,-0.63494 1.046484,-1.058 -0.254553,-2.24857 -0.933119,-0.85389 -1.602557,-3.0512 -1.602557,-5.26009 0,-2.08648 -0.413208,-3.7936 -0.918239,-3.7936 -1.511608,0 -2.44046,-10.69463 -2.346838,-27.02106 0.09666,-16.85613 0.927219,-26.08929 2.346838,-26.08929 0.505031,0 0.918239,-2.06153 0.918239,-4.58116 0,-2.51963 0.470363,-4.72464 1.04525,-4.89999 0.574888,-0.17536 1.290426,-2.20194 1.590084,-4.50351 0.299658,-2.30157 0.974787,-4.32444 1.500286,-4.49526 0.525499,-0.17083 0.955453,-1.50357 0.955453,-2.96167 0,-1.4581 0.687295,-3.28002 1.527322,-4.04872 0.840027,-0.7687 1.527322,-2.23124 1.527322,-3.25008 0,-1.01883 0.462737,-1.99357 1.028303,-2.16609 0.565566,-0.17251 1.242128,-1.32969 1.503469,-2.57151 0.261343,-1.24181 0.873547,-2.4983 1.360457,-2.79221 0.486911,-0.29389 1.193669,-1.6874 1.570574,-3.09669 0.376905,-1.40929 1.13475,-2.56234 1.684099,-2.56234 0.549348,0 0.998815,-0.83859 0.998815,-1.86353 0,-1.02493 0.485239,-1.86352 1.078307,-1.86352 0.593068,0 0.838012,-0.35579 0.544317,-0.79065 -0.293694,-0.43486 0.36656,-1.6752 1.46723,-2.75632 1.100671,-1.08112 2.001219,-2.40249 2.001219,-2.93639 0,-0.5339 0.485239,-0.97072 1.078307,-0.97072 0.593068,0 0.846709,-0.34292 0.563644,-0.76204 -0.283065,-0.41912 0.352647,-1.33408 1.412693,-2.03324 1.060046,-0.69917 1.70502,-1.60042 1.433276,-2.00278 -0.271744,-0.40235 0.440092,-1.26542 1.581859,-1.91792 1.141766,-0.65251 2.075939,-1.52483 2.075939,-1.93849 0,-0.41367 1.145491,-1.72359 2.545536,-2.91094 1.400045,-1.18735 2.545537,-2.54166 2.545537,-3.00959 0,-1.13832 3.794251,-4.06022 5.272415,-4.06022 0.646952,0 0.869814,-0.28044 0.495246,-0.6232 -0.905631,-0.82874 2.323154,-4.0356 4.063189,-4.0356 0.75323,0 1.369511,-0.57489 1.369511,-1.27753 0,-0.70265 1.600557,-2.27499 3.556794,-3.49411 1.956236,-1.21911 3.559924,-2.53103 3.563751,-2.91538 0.0039,-0.38436 0.584035,-0.69882 1.289351,-0.69882 0.705316,0 1.854691,-0.83859 2.554165,-1.86353 0.699474,-1.02493 1.853353,-1.86352 2.564176,-1.86352 0.710823,0 2.077045,-0.83858 3.03605,-1.86352 0.959005,-1.02494 2.435424,-1.86352 3.280933,-1.86352 0.845508,0 1.537287,-0.41929 1.537287,-0.93176 0,-0.51247 0.687295,-0.93176 1.527322,-0.93176 0.8400274,0 1.5273223,-0.35569 1.5273223,-0.79042 0,-0.43474 1.7182372,-1.47146 3.8183049,-2.30383 2.1000677,-0.83237 6.3383861,-2.77219 9.4184854,-4.3107 24.1068834,-12.04143 61.4138094,-16.95212 92.3017984,-12.14964 17.031397,2.64805 29.315237,6.37842 45.705097,13.87978 28.7467,13.15688 52.58814,34.67881 66.66893,60.18281 1.13175,2.04987 2.45738,4.35598 2.94587,5.12468 0.94572,1.48822 3.31419,6.40689 4.93534,10.24937 0.54053,1.28117 1.78835,4.84515 2.77294,7.91996 0.98459,3.07481 2.19026,6.6388 2.67926,7.91997 4.60999,12.07812 4.61987,57.08805 0.0152,68.95029 -0.49733,1.28117 -1.70982,4.84515 -2.69441,7.91996 -2.46705,7.70444 -2.67392,8.17144 -8.04881,18.16934 -9.95544,18.51822 -15.9649,26.35111 -30.03587,39.14953 -11.99681,10.91184 -22.07424,17.93802 -34.66185,24.16688 -24.91575,12.32935 -48.566362,17.85635 -75.381279,17.61613 -7.560243,-0.0677 -14.891389,-0.28058 -16.291434,-0.473 z m 31.055546,-6.39385 c 13.643181,-1.03249 32.970447,-5.45958 43.095237,-9.87134 3.7385,-1.62902 9.08826,-3.95017 11.88835,-5.15811 5.49474,-2.37041 8.85827,-4.16039 9.68325,-5.15319 0.28562,-0.34372 1.77159,-0.91256 3.30216,-1.2641 1.53057,-0.35153 2.52987,-1.01371 2.22068,-1.47151 -0.30919,-0.4578 -0.0977,-0.83237 0.46987,-0.83237 0.56761,0 2.20218,-1.0708 3.63238,-2.37956 1.43019,-1.30877 3.0547,-2.1226 3.61003,-1.80853 0.55532,0.31406 1.00968,-0.004 1.00968,-0.70637 0,-1.35366 5.29494,-5.3549 7.08627,-5.3549 0.5827,0 1.05945,-0.61555 1.05945,-1.36788 0,-0.75235 1.26004,-1.99343 2.80009,-2.75799 1.54005,-0.76455 2.36414,-1.40687 1.83131,-1.42739 -0.53283,-0.0205 0.93861,-1.71448 3.26986,-3.76435 2.33124,-2.04987 4.03172,-3.72704 3.77883,-3.72704 -0.6049,0 2.38836,-3.38933 5.81564,-6.58517 1.5024,-1.40093 2.45698,-2.79848 2.12129,-3.10568 -0.33569,-0.30719 -0.0758,-0.55852 0.57756,-0.55852 0.65336,0 1.18792,-0.62894 1.18792,-1.39764 0,-0.7687 0.40853,-1.39764 0.90783,-1.39764 0.49931,0 1.17477,-0.94341 1.50101,-2.09646 0.32625,-1.15306 1.75051,-3.31473 3.16503,-4.80373 1.41452,-1.489 2.57185,-3.48064 2.57185,-4.42587 0,-0.94522 0.4582,-1.71859 1.01821,-1.71859 0.56002,0 1.01822,-0.80864 1.01822,-1.79697 0,-0.98834 0.68729,-2.4259 1.52732,-3.1946 0.84003,-0.76871 1.52732,-2.26619 1.52732,-3.32772 0,-1.06155 0.40721,-1.93008 0.9049,-1.93008 0.49769,0 1.20575,-1.46752 1.57346,-3.26116 0.36771,-1.79364 1.106,-3.26116 1.64064,-3.26116 0.53464,0 0.97208,-1.22294 0.97208,-2.71764 0,-1.4947 0.45958,-2.85782 1.02128,-3.02916 0.5617,-0.17134 1.2994,-2.82686 1.63933,-5.90114 0.33993,-3.0743 0.98979,-5.80363 1.44412,-6.06518 0.45432,-0.26154 1.15581,-6.02681 1.55887,-12.81171 0.40305,-6.78489 1.12641,-12.33616 1.60747,-12.33616 0.48105,0 0.87464,-0.83859 0.87464,-1.86353 0,-1.02493 -0.38897,-1.86352 -0.8644,-1.86352 -0.73664,0 -2.14991,-12.70572 -2.43556,-21.89637 -0.0477,-1.53741 -0.51862,-3.05699 -1.04631,-3.37685 -0.52769,-0.31986 -1.00101,-2.3115 -1.05183,-4.42587 -0.0508,-2.11436 -0.46072,-3.84429 -0.9109,-3.84429 -0.45017,0 -0.8185,-0.44404 -0.8185,-0.98675 0,-0.54272 0.57275,-0.72127 1.27277,-0.39679 0.70002,0.32449 0.40083,-0.0583 -0.66486,-0.85077 -1.1831,-0.87969 -1.90351,-2.53939 -1.84999,-4.26202 0.0482,-1.5517 -0.31913,-2.82128 -0.81631,-2.82128 -0.49719,0 -1.20483,-1.46752 -1.57254,-3.26116 -0.36771,-1.79364 -1.07577,-3.26116 -1.57346,-3.26116 -0.49769,0 -0.9049,-1.04823 -0.9049,-2.3294 0,-1.28118 -0.42732,-2.32941 -0.94959,-2.32941 -0.96676,0 -2.67388,-3.62011 -2.30679,-4.89174 0.11096,-0.38435 -0.25646,-0.69882 -0.81648,-0.69882 -0.56001,0 -1.01821,-0.80864 -1.01821,-1.79697 0,-0.98833 -0.58783,-2.35103 -1.30628,-3.02822 -2.72826,-2.57157 -5.73477,-7.05622 -5.11233,-7.62581 0.3568,-0.32651 0.11416,-0.59365 -0.53919,-0.59365 -0.65335,0 -1.18792,-0.62894 -1.18792,-1.39764 0,-0.7687 -0.53456,-1.39764 -1.18792,-1.39764 -0.65335,0 -0.91325,-0.25134 -0.57756,-0.55853 0.33569,-0.30718 -0.61889,-1.70474 -2.12129,-3.10568 -3.42728,-3.19583 -6.42054,-6.58516 -5.81564,-6.58516 0.25289,0 -1.44759,-1.67717 -3.77883,-3.72704 -2.33125,-2.04987 -3.80269,-3.74383 -3.26986,-3.76435 0.53283,-0.0205 -0.29126,-0.66285 -1.83131,-1.4274 -1.54005,-0.76455 -2.80009,-2.00564 -2.80009,-2.75797 0,-0.75234 -0.47675,-1.36789 -1.05945,-1.36789 -1.79133,0 -7.08627,-4.00124 -7.08627,-5.3549 0,-0.70257 -0.40361,-1.04913 -0.89693,-0.77014 -0.4933,0.27899 -2.61818,-0.74449 -4.72197,-2.27441 -2.10378,-1.52992 -3.43838,-2.78168 -2.96576,-2.78168 1.40814,0 -16.54112,-8.51657 -29.59839,-14.04385 -22.15239,-9.37735 -59.067936,-12.05345 -87.56646,-6.34793 -29.235875,5.85314 -57.664905,20.85125 -76.875206,40.55651 -11.622608,11.92207 -17.097023,19.44357 -24.318072,33.41151 -2.384391,4.61222 -4.761206,9.11392 -5.281811,10.00379 -0.520606,0.88986 -0.946556,2.29402 -0.946556,3.12034 0,0.82632 -0.645512,2.82366 -1.434473,4.43851 -1.52615,3.12374 -2.173772,5.47485 -3.760328,13.65134 -0.546912,2.81858 -1.434605,6.9127 -1.972651,9.09804 -1.307154,5.30918 -1.247768,28.96569 0.09046,36.03626 2.166404,11.44626 5.314845,22.96708 8.163618,29.87244 3.194833,7.7442 15.933294,29.63594 18.162927,31.21398 0.362037,0.25623 2.24529,2.3527 4.185006,4.6588 24.681484,29.34354 63.310147,48.29769 104.330024,51.19221 10.000782,0.70569 12.041355,0.6733 26.494932,-0.42053 z m 7.127503,-102.01851 c -1.34276,-0.52801 -1.516183,-0.81823 -0.509107,-0.852 0.840027,-0.0281 2.214616,0.35522 3.054643,0.852 1.861266,1.1007 0.253628,1.1007 -2.545536,0 z M 77.572189,289.00113 c 0,-0.48222 0.452953,-1.13295 1.006556,-1.44604 0.577185,-0.32643 0.747879,0.0476 0.400169,0.87677 -0.676899,1.6142 -1.406725,1.90954 -1.406725,0.56927 z M 55.687783,242.36877 c -0.356721,-0.52818 0.05203,-0.68438 0.95812,-0.36619 1.763975,0.61943 2.086719,1.28728 0.622088,1.28728 -0.526967,0 -1.238067,-0.41449 -1.580208,-0.92109 z M 5.2789493,232.10874 c 0,-0.51247 0.4852404,-0.93177 1.0783097,-0.93177 0.5930693,0 0.7951238,0.4193 0.4490122,0.93177 -0.3461115,0.51246 -0.8313518,0.93176 -1.0783096,0.93176 -0.2469578,0 -0.4490123,-0.4193 -0.4490123,-0.93176 z m -7.6366098,-16.7717 c -1.6601074,-0.6528 -1.7182474,-0.81288 -0.3146487,-0.86626 0.9469803,-0.0361 2.00496643,0.3538 2.35107795,0.86626 0.72360442,1.07142 0.68822146,1.07142 -2.03642925,0 z m -38.6921565,-1.86352 c 0.346111,-0.51247 0.831348,-0.93176 1.078307,-0.93176 0.246958,0 0.449015,0.41929 0.449015,0.93176 0,0.51247 -0.485238,0.93176 -1.078307,0.93176 -0.593068,0 -0.795125,-0.41929 -0.449015,-0.93176 z m 2.545537,-2.74029 c 0,-0.48222 0.452948,-1.13294 1.006552,-1.44603 0.577185,-0.32644 0.747885,0.0476 0.400169,0.87676 -0.6769,1.61421 -1.406721,1.90955 -1.406721,0.56927 z"
         id="path7026" /><path
         style="fill:#fdfdfd;stroke-width:0.974029"
         d="m 15.331212,365.58345 c -1.266526,-1.47783 -1.230512,-1.51078 0.384437,-0.3518 0.980032,0.70334 1.781876,1.43711 1.781876,1.63059 0,0.76687 -0.836148,0.27329 -2.166313,-1.27879 z"
         id="path7024" /><path
         style="fill:#fcfcfc;stroke-width:0.974029"
         d="m 66.371828,324.00125 c 0,-0.19348 0.801844,-0.92725 1.781875,-1.63059 1.61495,-1.15898 1.650964,-1.12603 0.384438,0.3518 -1.330165,1.55208 -2.166313,2.04566 -2.166313,1.27879 z M -83.22534,283.74381 c 0.04885,-1.08546 0.290131,-1.30624 0.615172,-0.56294 0.294133,0.67261 0.257959,1.47625 -0.08039,1.78587 -0.338345,0.30962 -0.578999,-0.24071 -0.534787,-1.22293 z m 0,-23.29402 c 0.04885,-1.08545 0.290131,-1.30623 0.615172,-0.56294 0.294133,0.67261 0.257959,1.47625 -0.08039,1.78588 -0.338345,0.30961 -0.578999,-0.24071 -0.534787,-1.22294 z"
         id="path7022" /><path
         style="fill:#fbfbfb;stroke-width:0.974029"
         d="m -83.22534,265.1086 c 0.04885,-1.08546 0.290131,-1.30624 0.615172,-0.56295 0.294133,0.67261 0.257959,1.47626 -0.08039,1.78588 -0.338345,0.30962 -0.578999,-0.24071 -0.534787,-1.22293 z"
         id="path7020" /><path
         style="fill:#fafafa;stroke-width:0.974029"
         d="m -83.107225,276.36737 c 0.02075,-1.53741 0.248952,-2.05355 0.507114,-1.14697 0.258161,0.90657 0.241183,2.16445 -0.03772,2.79528 -0.278916,0.63083 -0.49014,-0.11091 -0.469389,-1.64831 z m -0.03772,-7.91997 c 0,-1.28117 0.231108,-1.80528 0.513574,-1.1647 0.282465,0.64059 0.282465,1.68882 0,2.3294 -0.282466,0.64059 -0.513574,0.11647 -0.513574,-1.1647 z"
         id="path7018" /><path
         style="fill:#f8f8f8;stroke-width:0.974029"
         d="m 107.10041,319.34244 c 0,-0.19348 0.80185,-0.92724 1.78188,-1.63058 1.61495,-1.15899 1.65096,-1.12603 0.38444,0.3518 -1.33017,1.55208 -2.16632,2.04566 -2.16632,1.27878 z m 6.10929,-5.59056 c 0,-0.19348 0.80185,-0.92724 1.78188,-1.63058 1.61495,-1.15899 1.65096,-1.12604 0.38443,0.35179 -1.33016,1.55208 -2.16631,2.04566 -2.16631,1.27879 z M -83.144954,272.17444 c 0,-1.28117 0.231108,-1.80528 0.513574,-1.1647 0.282465,0.64059 0.282465,1.68882 0,2.3294 -0.282466,0.64059 -0.513574,0.11647 -0.513574,-1.1647 z m 303.427954,0 c 0,-1.28117 0.23112,-1.80528 0.51358,-1.1647 0.28247,0.64059 0.28247,1.68882 0,2.3294 -0.28246,0.64059 -0.51358,0.11647 -0.51358,-1.1647 z"
         id="path7016" /><path
         style="fill:#f6f6f6;stroke-width:0.974029"
         d="m 69.624973,223.25701 c 0.02077,-1.53741 0.248953,-2.05355 0.507111,-1.14697 0.258158,0.90657 0.241185,2.16445 -0.03778,2.79528 -0.27892,0.63083 -0.490138,-0.11091 -0.469387,-1.64831 z"
         id="path7014" /><path
         style="fill:#f2f2f2;stroke-width:0.974029"
         d="m 133.73476,328.08008 c 0,-1.28117 0.23111,-1.80528 0.51358,-1.1647 0.28246,0.64059 0.28246,1.68882 0,2.3294 -0.28247,0.64059 -0.51358,0.11647 -0.51358,-1.1647 z"
         id="path7012" /><path
         style="fill:#f0f0f0;stroke-width:0.974029"
         d="m 123.80421,313.87073 -1.93968,-2.09646 2.29098,1.775 c 2.15295,1.66805 2.75451,2.41793 1.93969,2.41793 -0.19322,0 -1.22416,-0.94341 -2.29099,-2.09647 z"
         id="path7010" /><path
         style="fill:#d6d6d6;stroke-width:0.974029"
         d="m 177.43761,207.33943 c 0.0489,-1.08545 0.29013,-1.30623 0.61517,-0.56294 0.29413,0.67261 0.25796,1.47626 -0.0803,1.78588 -0.33834,0.30961 -0.579,-0.24071 -0.53479,-1.22294 z"
         id="path7008" /><path
         style="fill:#cccccc;stroke-width:0.974029"
         d="m 51.862269,206.33411 c 0.700023,-0.25848 1.845514,-0.25848 2.545537,0 0.700022,0.25848 0.127277,0.46997 -1.272769,0.46997 -1.400045,0 -1.97279,-0.21149 -1.272768,-0.46997 z"
         id="path7006" /><path
         style="fill:#cacaca;stroke-width:0.974029"
         d="m 176.49978,219.99585 c 0,-1.28117 0.23111,-1.80529 0.51357,-1.1647 0.28247,0.64058 0.28247,1.68881 0,2.3294 -0.28246,0.64058 -0.51357,0.11647 -0.51357,-1.1647 z m 0,-24.22578 c 0,-1.28117 0.23111,-1.80529 0.51357,-1.1647 0.28247,0.64058 0.28247,1.68882 0,2.3294 -0.28246,0.64059 -0.51357,0.11647 -0.51357,-1.1647 z"
         id="path7004" /><path
         style="fill:#c6c6c6;stroke-width:0.974029"
         d="m 151.11987,273.1062 c 0,-1.79363 0.20955,-2.5274 0.46566,-1.63058 0.2561,0.89682 0.2561,2.36435 0,3.26117 -0.25611,0.89682 -0.46566,0.16305 -0.46566,-1.63059 z"
         id="path7002" /><path
         style="fill:#bcbcbc;stroke-width:0.974029"
         d="m 76.363059,226.81344 c 0.735019,-0.26916 1.613229,-0.23606 1.951581,0.0735 0.338343,0.30963 -0.263045,0.52984 -1.336406,0.48938 -1.186169,-0.0447 -1.427435,-0.26549 -0.615175,-0.56293 z"
         id="path7000" /><path
         style="fill:#a9a9a9;stroke-width:0.974029"
         d="m 99.781996,247.31217 c 0.735014,-0.26916 1.613224,-0.23606 1.951584,0.0735 0.33834,0.30961 -0.26305,0.52983 -1.33641,0.48938 -1.186169,-0.0447 -1.427435,-0.2655 -0.615174,-0.56294 z M 58.989772,205.40235 c 0.700022,-0.25848 1.845514,-0.25848 2.545536,0 0.700023,0.25848 0.127277,0.46997 -1.272768,0.46997 -1.400045,0 -1.972791,-0.21149 -1.272768,-0.46997 z"
         id="path6998" /><path
         style="fill:#a1a1a1;stroke-width:0.974029"
         d="m 151.98225,279.08501 c 0.0489,-1.08546 0.29013,-1.30624 0.61516,-0.56295 0.29413,0.67261 0.25797,1.47626 -0.0803,1.78588 -0.33834,0.30962 -0.57899,-0.24071 -0.53478,-1.22293 z m -28.42964,-27.4093 c 0,-1.28117 0.23112,-1.80529 0.51358,-1.1647 0.28246,0.64058 0.28246,1.68881 0,2.3294 -0.28246,0.64059 -0.51358,0.11647 -0.51358,-1.1647 z"
         id="path6996" /><path
         style="fill:#999999;stroke-width:0.974029"
         d="m 2.2243054,319.34244 c 0,-0.19348 0.801844,-0.92724 1.7818756,-1.63058 1.6149495,-1.15899 1.6509638,-1.12603 0.3844371,0.3518 -1.3301651,1.55208 -2.1663127,2.04566 -2.1663127,1.27878 z M 83.955407,225.87247 c 0.990692,-0.23624 2.365282,-0.22071 3.054644,0.0345 0.689362,0.25523 -0.121198,0.44852 -1.801252,0.42953 -1.680054,-0.019 -2.244084,-0.22782 -1.253392,-0.46406 z"
         id="path6994" /><path
         style="fill:#858585;stroke-width:0.974029"
         d="m 108.94593,246.38041 c 0.73502,-0.26916 1.61323,-0.23606 1.95158,0.0735 0.33834,0.30961 -0.26305,0.52983 -1.33641,0.48938 -1.18617,-0.0447 -1.42743,-0.2655 -0.61517,-0.56294 z"
         id="path6992" /><path
         style="fill:#7d7d7d;stroke-width:0.974029"
         d="m 124.49045,260.44979 c 0.0489,-1.08545 0.29013,-1.30623 0.61517,-0.56294 0.29413,0.67261 0.25796,1.47625 -0.0803,1.78588 -0.33835,0.30961 -0.579,-0.24071 -0.53479,-1.22294 z"
         id="path6990" /><path
         style="fill:#7a7a7a;stroke-width:0.974029"
         d="m 96.060818,231.17697 c 0,-1.28117 0.231115,-1.80528 0.513578,-1.1647 0.282463,0.64059 0.282463,1.68882 0,2.32941 -0.282463,0.64058 -0.513578,0.11647 -0.513578,-1.16471 z"
         id="path6988" /><path
         style="fill:#757575;stroke-width:0.974029"
         d="m 130.79328,266.86994 c 0.99069,-0.23624 2.36528,-0.22071 3.05464,0.0346 0.68937,0.25524 -0.12119,0.44852 -1.80125,0.42953 -1.68005,-0.019 -2.24408,-0.22781 -1.25339,-0.46405 z M 91.636279,224.94992 c 0.735018,-0.26916 1.613228,-0.23607 1.951581,0.0735 0.338343,0.30963 -0.263045,0.52984 -1.336407,0.48938 -1.186169,-0.0447 -1.427435,-0.26549 -0.615174,-0.56293 z"
         id="path6986" /><path
         style="fill:#646464;stroke-width:0.974029"
         d="m 84.569808,311.54133 c -1.266527,-1.47783 -1.230512,-1.51078 0.384437,-0.35179 1.696091,1.21722 2.23547,1.98237 1.397439,1.98237 -0.211433,0 -1.013277,-0.73376 -1.781876,-1.63058 z m 30.950252,-66.10189 c 0.99069,-0.23623 2.36528,-0.2207 3.05464,0.0346 0.68937,0.25524 -0.12119,0.44852 -1.80125,0.42954 -1.68005,-0.019 -2.24408,-0.22782 -1.25339,-0.46406 z"
         id="path6984" /><path
         style="fill:#eb1b23;stroke-width:0.974029"
         d="m 94.627284,304.14378 c -0.980031,-0.23436 -1.781875,-0.73043 -1.781875,-1.10238 0,-0.37194 -1.603383,-1.20682 -3.563069,-1.85528 -5.92435,-1.96038 -6.143561,-3.65933 -1.520806,-11.78676 2.236111,-3.93139 4.06566,-7.47762 4.06566,-7.88049 0,-0.68531 -3.976882,-2.42785 -6.899789,-3.02325 -0.714777,-0.14561 -2.923274,2.46067 -4.907774,5.79171 -1.98449,3.33105 -4.235722,6.64509 -5.002743,7.36455 -2.140522,2.00777 -6.761343,1.43149 -12.288354,-1.53255 -6.437601,-3.45238 -6.752179,-5.52268 -2.006596,-13.20561 1.987402,-3.21753 3.613461,-6.24961 3.613461,-6.73796 0,-0.48833 -4.696515,-2.92271 -10.436701,-5.40972 -5.740185,-2.487 -15.935059,-6.89955 -22.655275,-9.80565 -7.165788,-3.09879 -12.673769,-4.9668 -13.319327,-4.51719 -11.5466357,8.04181 -20.737652,11.08516 -30.864197,10.21983 -7.020679,-0.59994 -15.670414,-3.86677 -20.031895,-7.56566 -10.235744,-8.68072 -13.545533,-22.76574 -8.325786,-35.43092 2.76925,-6.7193 13.641254,-17.55515 18.830382,-18.76776 1.260041,-0.29445 2.290983,-0.86374 2.290983,-1.2651 0,-1.52237 8.100633,-2.965 17.3096491,-3.08265 5.1980774,-0.0664 7.9579279,0.47181 12.860387,2.50801 12.9443689,5.37636 20.4558609,16.8125 19.5687009,29.79305 l -0.355327,5.19893 7.127503,2.97697 c 3.920126,1.63733 13.194351,5.63362 20.609387,8.88063 7.415036,3.24701 13.675468,5.90366 13.912081,5.90366 0.403335,0 12.279057,5.11629 40.669496,17.52119 12.4838,5.45467 15.70735,8.02093 15.44424,12.29515 -0.37609,6.10974 -5.51526,10.24937 -12.72417,10.24937 -3.51592,0 -3.89152,0.29344 -6.2074,4.8496 -4.49946,8.85203 -7.36292,10.86257 -13.410846,9.41628 z M -1.543435,239.91634 c 4.6987653,-2.17734 6.7974788,-4.08587 8.4337599,-7.66954 5.5942541,-12.25211 -6.12417419,-22.5354 -19.2476329,-16.89042 -5.992388,2.57759 -8.754692,6.05497 -9.522517,11.98758 -1.019403,7.87645 4.704858,13.96308 13.2088875,14.04507 2.1278751,0.0205 5.3352513,-0.64219 7.1275025,-1.47269 z"
         id="path6982" /><path
         style="fill:#555555;stroke-width:0.974029"
         d="m 97.116768,238.16518 c 0.02077,-1.53741 0.248954,-2.05354 0.507112,-1.14697 0.258158,0.90658 0.241184,2.16445 -0.03778,2.79528 -0.27892,0.63083 -0.490138,-0.11091 -0.469387,-1.64831 z"
         id="path6980" /><path
         style="fill:#525252;stroke-width:0.974029"
         d="m 140.44694,265.96679 c 0.70003,-0.25848 1.84552,-0.25848 2.54554,0 0.70002,0.25848 0.12728,0.46997 -1.27277,0.46997 -1.40004,0 -1.97279,-0.21149 -1.27277,-0.46997 z M 68.606758,209.2806 c 0.02077,-1.53741 0.248954,-2.05355 0.507112,-1.14697 0.258158,0.90658 0.241184,2.16445 -0.03778,2.79528 -0.27892,0.63083 -0.490138,-0.11091 -0.469387,-1.64831 z"
         id="path6978" /><path
         style="fill:#353535;stroke-width:0.974029"
         d="m 146.61987,265.01562 c 0.73502,-0.26915 1.61323,-0.23606 1.95158,0.0735 0.33834,0.30962 -0.26304,0.52984 -1.33641,0.48938 -1.18617,-0.0447 -1.42743,-0.2655 -0.61517,-0.56293 z m -48.603,-20.40576 c 0.04887,-1.08545 0.29013,-1.30623 0.615164,-0.56294 0.294132,0.67261 0.257965,1.47625 -0.08034,1.78588 -0.338352,0.30961 -0.578997,-0.24071 -0.534786,-1.22294 z M 69.624973,215.80292 c 0.02077,-1.5374 0.248953,-2.05354 0.507111,-1.14697 0.258158,0.90658 0.241185,2.16446 -0.03778,2.79529 -0.27892,0.63083 -0.490138,-0.11091 -0.469387,-1.64832 z"
         id="path6976" /><path
         style="fill:#2e2e2e;stroke-width:0.974029"
         d="m 106.59131,321.55776 c 1.01362,-1.02494 2.07204,-1.86352 2.35205,-1.86352 0.28001,0 -0.32022,0.83858 -1.33384,1.86352 -1.01362,1.02494 -2.07205,1.86352 -2.35205,1.86352 -0.28001,0 0.32021,-0.83858 1.33384,-1.86352 z"
         id="path6974" /><path
         style="fill:#2c2c2c;stroke-width:0.974029"
         d="m 70.605452,222.79113 c 0,-1.28117 0.231115,-1.80529 0.513578,-1.1647 0.282463,0.64058 0.282463,1.68881 0,2.3294 -0.282463,0.64059 -0.513578,0.11647 -0.513578,-1.1647 z"
         id="path6972" /><path
         style="fill:#2a2a2a;stroke-width:0.974029"
         d="m 132.63617,327.53656 c 0.0489,-1.08545 0.29013,-1.30624 0.61516,-0.56294 0.29413,0.67261 0.25797,1.47625 -0.0803,1.78588 -0.33836,0.30961 -0.579,-0.24072 -0.53479,-1.22294 z"
         id="path6970" /><path
         style="fill:#282828;stroke-width:0.974029"
         d="m 57.971557,387.09568 c 0.700023,-0.25848 1.845514,-0.25848 2.545537,0 0.700022,0.25848 0.127276,0.46997 -1.272769,0.46997 -1.400045,0 -1.972791,-0.21149 -1.272768,-0.46997 z m 13.765274,-0.0286 c 0.990693,-0.23623 2.365282,-0.2207 3.054644,0.0346 0.689362,0.25524 -0.121198,0.44852 -1.801252,0.42954 -1.680054,-0.019 -2.244084,-0.22782 -1.253392,-0.46406 z m 104.963599,-179.65 c -0.003,-4.61222 0.16908,-6.61651 0.38262,-4.45398 0.21354,2.16253 0.21608,5.93616 0.006,8.38585 -0.21044,2.44968 -0.38516,0.68034 -0.38826,-3.93187 z"
         id="path6968" /><path
         style="fill:#202020;stroke-width:0.974029"
         d="m 51.862269,205.40235 c 0.700023,-0.25848 1.845514,-0.25848 2.545537,0 0.700022,0.25848 0.127277,0.46997 -1.272769,0.46997 -1.400045,0 -1.97279,-0.21149 -1.272768,-0.46997 z"
         id="path6966" /><path
         style="fill:#1e1e1e;stroke-width:0.974029"
         d="m 152.13808,273.1062 c 0,-1.79363 0.20955,-2.5274 0.46566,-1.63058 0.25611,0.89682 0.25611,2.36435 0,3.26117 -0.25611,0.89682 -0.46566,0.16305 -0.46566,-1.63059 z m 23.38122,-53.57623 c 0.0208,-1.53741 0.24895,-2.05355 0.50711,-1.14697 0.25816,0.90657 0.24118,2.16445 -0.0378,2.79528 -0.27892,0.63083 -0.49014,-0.11091 -0.46939,-1.64831 z m -0.0377,-23.7599 c 0,-1.28117 0.23111,-1.80529 0.51358,-1.1647 0.28246,0.64058 0.28246,1.68882 0,2.3294 -0.28247,0.64059 -0.51358,0.11647 -0.51358,-1.1647 z"
         id="path6964" /><path
         style="fill:#1a1a1a;stroke-width:0.974029"
         d="m 76.363059,225.88168 c 0.735019,-0.26916 1.613229,-0.23607 1.951581,0.0735 0.338343,0.30963 -0.263045,0.52984 -1.336406,0.48938 -1.186169,-0.0447 -1.427435,-0.26549 -0.615175,-0.56293 z"
         id="path6962" /><path
         style="fill:#161616;stroke-width:0.974029"
         d="m 99.781996,246.38041 c 0.735014,-0.26916 1.613224,-0.23606 1.951584,0.0735 0.33834,0.30961 -0.26305,0.52983 -1.33641,0.48938 -1.186169,-0.0447 -1.427435,-0.2655 -0.615174,-0.56294 z M 58.989772,204.47059 c 0.700022,-0.25848 1.845514,-0.25848 2.545536,0 0.700023,0.25848 0.127277,0.46997 -1.272768,0.46997 -1.400045,0 -1.972791,-0.21149 -1.272768,-0.46997 z"
         id="path6960" /><path
         style="fill:#141414;stroke-width:0.974029"
         d="m 153.00046,279.08501 c 0.0489,-1.08546 0.29013,-1.30624 0.61517,-0.56295 0.29413,0.67261 0.25796,1.47626 -0.0803,1.78588 -0.33834,0.30962 -0.579,-0.24071 -0.53479,-1.22293 z"
         id="path6958" /><path
         style="fill:#121212;stroke-width:0.974029"
         d="m 124.60856,251.20983 c 0.0208,-1.53741 0.24896,-2.05355 0.50712,-1.14697 0.25815,0.90657 0.24118,2.16445 -0.0378,2.79528 -0.27892,0.63083 -0.49014,-0.11091 -0.46939,-1.64831 z"
         id="path6956" /><path
         style="fill:#101010;stroke-width:0.974029"
         d="m 83.955407,224.94071 c 0.990692,-0.23624 2.365282,-0.22071 3.054644,0.0345 0.689362,0.25523 -0.121198,0.44852 -1.801252,0.42953 -1.680054,-0.019 -2.244084,-0.22782 -1.253392,-0.46406 z"
         id="path6954" /><path
         style="fill:#0c0c0c;stroke-width:0.974029"
         d="m 108.94593,245.44865 c 0.73502,-0.26916 1.61323,-0.23606 1.95158,0.0735 0.33834,0.30961 -0.26305,0.52983 -1.33641,0.48938 -1.18617,-0.0447 -1.42743,-0.2655 -0.61517,-0.56294 z"
         id="path6952" /><path
         style="fill:#080808;stroke-width:0.974029"
         d="m 130.7739,265.94159 c 0.98004,-0.23436 2.58372,-0.23436 3.56376,0 0.98003,0.23437 0.17818,0.42612 -1.78188,0.42612 -1.96006,0 -2.76191,-0.19175 -1.78188,-0.42612 z m -5.18486,-5.88003 c 0,-1.28118 0.23112,-1.80529 0.51358,-1.16471 0.28246,0.64059 0.28246,1.68882 0,2.32941 -0.28246,0.64058 -0.51358,0.11647 -0.51358,-1.1647 z M 97.175041,229.77933 c 0.0113,-2.04987 0.219822,-2.77874 0.463369,-1.61971 0.243546,1.15902 0.234301,2.83619 -0.02057,3.72704 -0.254849,0.89085 -0.454124,-0.0575 -0.442822,-2.10733 z"
         id="path6950" /><path
         style="fill:#060606;stroke-width:0.974029"
         d="m 91.08291,224.00895 c 0.990692,-0.23624 2.365282,-0.22071 3.054643,0.0345 0.689362,0.25524 -0.121198,0.44853 -1.801252,0.42954 -1.680054,-0.019 -2.244084,-0.22782 -1.253391,-0.46406 z"
         id="path6948" /><path
         style="fill:#020202;stroke-width:0.974029"
         d="m 115.00345,244.49439 c 1.26657,-0.22287 3.09935,-0.21441 4.07286,0.0188 0.9735,0.23321 -0.0628,0.41556 -2.30286,0.40522 -2.24007,-0.0103 -3.03657,-0.20116 -1.77,-0.42402 z"
         id="path6946" /><path
         style="fill:#000000;stroke-width:0.974029"
         d="m 62.808077,387.58518 c -1.680055,-0.36832 -6.26202,-1.38286 -10.182147,-2.25452 -10.79111,-2.39944 -20.230112,-7.5728 -29.839605,-16.35458 -4.588889,-4.19362 -8.343444,-8.14113 -8.343444,-8.77224 0,-0.63111 -0.668539,-1.65521 -1.485657,-2.27577 -2.877892,-2.18564 -10.4176183,-18.24419 -12.21147831,-26.0087 l -1.80383849,-7.80773 7.1115267,-6.5077 7.1115161,-6.5077 8.228397,7.56016 c 4.525617,4.15809 8.745578,7.56016 9.377706,7.56016 0.632128,0 4.813823,-3.29534 9.292674,-7.32298 l 8.143355,-7.32298 8.002444,7.32298 c 4.401345,4.02764 8.738746,7.32298 9.638665,7.32298 0.899918,0 5.233226,-3.3049 9.629581,-7.34422 l 7.993362,-7.34422 8.166967,7.34422 c 4.491834,4.03932 8.842889,7.34422 9.669009,7.34422 0.82613,0 5.14825,-3.3232 9.60475,-7.38489 l 8.10269,-7.3849 7.02518,6.4789 c 7.99913,7.37715 7.91886,6.97776 3.84804,19.14595 -2.55946,7.65059 -8.46776,19.03528 -11.15476,21.49414 -0.79774,0.73001 -1.45045,1.74251 -1.45045,2.25 0,2.2572 -17.594108,16.6035 -24.170064,19.70835 -9.501765,4.48627 -25.279846,8.16263 -30.304419,7.06107 z m 76.875203,-77.67443 c 0,-0.7687 0.4582,-1.39764 1.01822,-1.39764 0.56001,0 1.01821,0.62894 1.01821,1.39764 0,0.7687 -0.4582,1.39764 -1.01821,1.39764 -0.56002,0 -1.01822,-0.62894 -1.01822,-1.39764 z m 13.76055,-29.37215 c 0.96527,-1.42922 -1.44662,-14.25669 -2.82745,-15.03763 -0.65907,-0.37274 -5.64522,-0.42979 -11.08034,-0.12679 -7.93012,0.44211 -10.17775,0.28033 -11.37907,-0.81899 -0.91456,-0.8369 -1.89043,-4.74078 -2.50813,-10.03355 -0.62525,-5.35752 -1.54023,-8.99531 -2.3977,-9.53279 -1.32025,-0.82758 -7.38473,-0.59424 -18.79752,0.72324 l -5.192329,0.5994 -0.651199,-3.60728 c -0.358157,-1.98399 -0.656239,-6.5958 -0.6624,-10.24845 -0.01517,-9.01763 -0.48187,-9.31067 -12.504958,-7.85286 -5.168825,0.62673 -10.350977,1.34163 -11.515876,1.58867 -1.999193,0.42397 -2.193051,-0.16849 -3.455464,-10.5603 -0.735599,-6.05521 -1.686845,-11.36846 -2.113874,-11.80723 -0.427834,-0.43959 -4.049094,-0.29261 -8.065941,0.32739 -7.438791,1.14818 -10.227518,0.62267 -6.736783,-1.2695 1.070898,-0.58048 2.691111,-1.69948 3.600469,-2.48666 1.48473,-1.28524 8.701448,-5.92402 16.752176,-10.76801 13.604223,-8.18543 32.920309,-16.29197 45.920659,-19.27191 14.31047,-3.28025 20.47978,-3.83674 28.04783,-2.53 3.94518,0.6812 7.40839,1.58699 7.69601,2.01286 0.28763,0.42588 1.21378,0.77432 2.05813,0.77432 2.41791,0 8.38204,4.5964 11.71334,9.02716 4.87416,6.48283 6.35647,12.95059 6.36615,27.77739 0.0121,18.61991 -3.92698,36.32937 -11.72629,52.71879 -1.60461,3.37191 -2.91748,6.42372 -2.91748,6.78178 0,1.0678 -7.17579,14.5744 -7.74308,14.5744 -0.28756,0 -0.23304,-0.42906 0.12112,-0.95345 z"
         id="path6944" /></g></g></svg>
