<?xml version="1.0" encoding="UTF-8" standalone="no"?>
<svg
   viewBox="0 0 558.57268 561.12316"
   version="1.1"
   id="svg1793"
   sodipodi:docname="НОВЫЕ МОДЕРАТОРЫ.svg"
   xml:space="preserve"
   inkscape:version="1.2.1 (9c6d41e410, 2022-07-14)"
   width="558.57269"
   height="561.12317"
   xmlns:inkscape="http://www.inkscape.org/namespaces/inkscape"
   xmlns:sodipodi="http://sodipodi.sourceforge.net/DTD/sodipodi-0.dtd"
   xmlns:xlink="http://www.w3.org/1999/xlink"
   xmlns="http://www.w3.org/2000/svg"
   xmlns:svg="http://www.w3.org/2000/svg"
   xmlns:rdf="http://www.w3.org/1999/02/22-rdf-syntax-ns#"
   xmlns:cc="http://creativecommons.org/ns#"
   xmlns:dc="http://purl.org/dc/elements/1.1/"><sodipodi:namedview
     id="namedview1795"
     pagecolor="#ffffff"
     bordercolor="#111111"
     borderopacity="1"
     inkscape:showpageshadow="0"
     inkscape:pageopacity="0"
     inkscape:pagecheckerboard="1"
     inkscape:deskcolor="#d1d1d1"
     showgrid="false"
     inkscape:zoom="1.0439548"
     inkscape:cx="60.34744"
     inkscape:cy="323.28986"
     inkscape:window-width="1920"
     inkscape:window-height="1018"
     inkscape:window-x="-6"
     inkscape:window-y="-6"
     inkscape:window-maximized="1"
     inkscape:current-layer="svg1793" /><defs
     id="defs1248"><style
       id="style920">
      .cls-1 {
        fill: url(#radial-gradient);
      }

      .cls-2 {
        fill: url(#radial-gradient-2);
      }

      .cls-3 {
        fill: url(#radial-gradient-3);
      }

      .cls-4 {
        fill: url(#radial-gradient-4);
      }

      .cls-5 {
        fill: url(#radial-gradient-5);
      }

      .cls-6 {
        fill: url(#radial-gradient-6);
      }

      .cls-7 {
        fill: url(#radial-gradient-7);
      }

      .cls-8 {
        fill: url(#radial-gradient-8);
      }

      .cls-9 {
        fill: url(#radial-gradient-9);
      }

      .cls-10 {
        fill: url(#radial-gradient-11);
      }

      .cls-11 {
        fill: url(#radial-gradient-12);
      }

      .cls-12 {
        fill: url(#radial-gradient-13);
      }

      .cls-13 {
        fill: url(#radial-gradient-14);
      }

      .cls-14 {
        fill: url(#radial-gradient-15);
      }

      .cls-15 {
        fill: url(#radial-gradient-16);
      }

      .cls-16 {
        fill: url(#radial-gradient-17);
      }

      .cls-17 {
        fill: url(#radial-gradient-18);
      }

      .cls-18 {
        fill: url(#radial-gradient-19);
      }

      .cls-19 {
        fill: url(#radial-gradient-21);
      }

      .cls-20 {
        fill: url(#radial-gradient-22);
      }

      .cls-21 {
        fill: url(#radial-gradient-23);
      }

      .cls-22 {
        fill: url(#radial-gradient-24);
      }

      .cls-23 {
        fill: url(#radial-gradient-25);
      }

      .cls-24 {
        fill: url(#radial-gradient-26);
      }

      .cls-25 {
        fill: url(#radial-gradient-27);
      }

      .cls-26 {
        fill: url(#radial-gradient-28);
      }

      .cls-27 {
        fill: url(#radial-gradient-29);
      }

      .cls-28 {
        fill: url(#radial-gradient-31);
      }

      .cls-29 {
        fill: url(#radial-gradient-32);
      }

      .cls-30 {
        fill: url(#radial-gradient-33);
      }

      .cls-31 {
        fill: url(#radial-gradient-34);
      }

      .cls-32 {
        fill: url(#radial-gradient-35);
      }

      .cls-33 {
        fill: url(#radial-gradient-36);
      }

      .cls-34 {
        fill: url(#radial-gradient-37);
      }

      .cls-35 {
        fill: url(#radial-gradient-38);
      }

      .cls-36 {
        fill: url(#radial-gradient-39);
      }

      .cls-37 {
        fill: url(#radial-gradient-41);
      }

      .cls-38 {
        fill: url(#radial-gradient-42);
      }

      .cls-39 {
        fill: url(#radial-gradient-43);
      }

      .cls-40 {
        fill: url(#radial-gradient-44);
      }

      .cls-41 {
        fill: url(#radial-gradient-45);
      }

      .cls-42 {
        fill: url(#radial-gradient-46);
      }

      .cls-43 {
        fill: url(#radial-gradient-47);
      }

      .cls-44 {
        fill: url(#radial-gradient-48);
      }

      .cls-45 {
        fill: url(#radial-gradient-49);
      }

      .cls-46 {
        fill: url(#radial-gradient-51);
      }

      .cls-47 {
        fill: url(#radial-gradient-52);
      }

      .cls-48 {
        fill: url(#radial-gradient-53);
      }

      .cls-49 {
        fill: url(#radial-gradient-54);
      }

      .cls-50 {
        fill: url(#radial-gradient-56);
      }

      .cls-51 {
        fill: url(#radial-gradient-57);
      }

      .cls-52, .cls-53, .cls-54, .cls-55, .cls-56, .cls-57, .cls-58, .cls-59, .cls-60, .cls-86 {
        fill: none;
      }

      .cls-53 {
        clip-path: url(#clip-path);
      }

      .cls-54 {
        clip-path: url(#clip-path-8);
      }

      .cls-55 {
        clip-path: url(#clip-path-2);
      }

      .cls-56 {
        clip-path: url(#clip-path-3);
      }

      .cls-57 {
        clip-path: url(#clip-path-4);
      }

      .cls-58 {
        clip-path: url(#clip-path-5);
      }

      .cls-59 {
        clip-path: url(#clip-path-6);
      }

      .cls-60 {
        clip-path: url(#clip-path-7);
      }

      .cls-61 {
        isolation: isolate;
      }

      .cls-62 {
        clip-path: url(#clip-path-9);
      }

      .cls-63 {
        mask: url(#mask);
      }

      .cls-64, .cls-69 {
        fill: #fff;
      }

      .cls-64, .cls-90 {
        mix-blend-mode: overlay;
      }

      .cls-65 {
        mask: url(#mask-2);
      }

      .cls-66 {
        mask: url(#mask-3);
      }

      .cls-67 {
        mask: url(#mask-4);
      }

      .cls-68 {
        mask: url(#mask-5);
      }

      .cls-70 {
        mask: url(#mask-6);
      }

      .cls-71 {
        opacity: 0.3;
        fill: url(#radial-gradient-58);
      }

      .cls-71, .cls-80, .cls-81, .cls-82, .cls-83, .cls-84 {
        mix-blend-mode: color-dodge;
      }

      .cls-72, .cls-90 {
        opacity: 0.5;
      }

      .cls-73 {
        mix-blend-mode: multiply;
      }

      .cls-74 {
        clip-path: url(#clip-path-10);
      }

      .cls-75 {
        fill: url(#linear-gradient);
      }

      .cls-76 {
        fill: url(#linear-gradient-2);
      }

      .cls-77 {
        fill: url(#linear-gradient-3);
      }

      .cls-78 {
        fill: url(#linear-gradient-4);
      }

      .cls-79 {
        fill: #f7e8da;
      }

      .cls-80 {
        opacity: 0.8;
        fill: url(#radial-gradient-59);
      }

      .cls-81 {
        opacity: 0.67;
        fill: url(#radial-gradient-60);
      }

      .cls-82 {
        fill: url(#radial-gradient-61);
      }

      .cls-83 {
        fill: url(#radial-gradient-62);
      }

      .cls-84 {
        fill: url(#radial-gradient-63);
      }

      .cls-85, .cls-87 {
        fill: #ff7009;
      }

      .cls-85, .cls-86, .cls-87 {
        stroke: #000;
        stroke-miterlimit: 10;
      }

      .cls-85 {
        stroke-width: 0.17443px;
      }

      .cls-86 {
        stroke-width: 3px;
      }

      .cls-87 {
        stroke-width: 0.17774px;
      }

      .cls-88 {
        mask: url(#mask-7);
      }

      .cls-89 {
        mask: url(#mask-8);
      }

      .cls-90 {
        fill: #030303;
      }

      .cls-91 {
        mask: url(#mask-9);
      }

      .cls-92 {
        mask: url(#mask-10);
      }

      .cls-93 {
        mask: url(#mask-11);
      }

      .cls-94 {
        mask: url(#mask-12);
      }

      .cls-95 {
        mask: url(#mask-13);
      }

      .cls-96 {
        mask: url(#mask-14);
      }

      .cls-97 {
        mask: url(#mask-15);
      }

      .cls-98 {
        mask: url(#mask-16);
      }

      .cls-99 {
        mask: url(#mask-17);
      }

      .cls-100 {
        mask: url(#mask-19);
      }

      .cls-101 {
        mask: url(#mask-20);
      }

      .cls-102 {
        mask: url(#mask-21);
      }

      .cls-103 {
        mask: url(#mask-22);
      }

      .cls-104 {
        mask: url(#mask-23);
      }

      .cls-105 {
        mask: url(#mask-24);
      }

      .cls-106 {
        mask: url(#mask-25);
      }

      .cls-107 {
        mask: url(#mask-26);
      }

      .cls-108 {
        mask: url(#mask-28);
      }

      .cls-109 {
        mask: url(#mask-29);
      }

      .cls-110 {
        opacity: 0.6;
      }

      .cls-111 {
        mask: url(#mask-30);
      }

      .cls-112 {
        mask: url(#mask-31);
      }

      .cls-113 {
        mask: url(#mask-32);
      }

      .cls-114 {
        mask: url(#mask-33);
      }

      .cls-115 {
        mask: url(#mask-34);
      }

      .cls-116 {
        mask: url(#mask-35);
      }

      .cls-117 {
        mask: url(#mask-37);
      }

      .cls-118 {
        mask: url(#mask-38);
      }

      .cls-119 {
        clip-path: url(#clip-path-11);
      }

      .cls-120 {
        mask: url(#mask-39);
      }

      .cls-121 {
        mask: url(#mask-40);
      }

      .cls-122 {
        mask: url(#mask-41);
      }

      .cls-123 {
        mask: url(#mask-42);
      }

      .cls-124 {
        mask: url(#mask-43);
      }

      .cls-125 {
        mask: url(#mask-44);
      }

      .cls-126 {
        mask: url(#mask-46);
      }

      .cls-127 {
        mask: url(#mask-47);
      }

      .cls-128 {
        clip-path: url(#clip-path-12);
      }

      .cls-129 {
        mask: url(#mask-48);
      }

      .cls-130 {
        mask: url(#mask-49);
      }

      .cls-131 {
        mask: url(#mask-50);
      }

      .cls-132 {
        mask: url(#mask-51);
      }

      .cls-133 {
        mask: url(#mask-52);
      }

      .cls-134 {
        mask: url(#mask-53);
      }

      .cls-135 {
        mask: url(#mask-55);
      }

      .cls-136 {
        mask: url(#mask-56);
      }
    </style><radialGradient
       id="radial-gradient"
       cx="8237.7695"
       cy="2885.6951"
       r="136.18636"
       gradientTransform="matrix(-0.216,0.75768,-0.97796,-0.28443,5251.9708,-5143.9097)"
       gradientUnits="userSpaceOnUse"><stop
         offset="0"
         stop-color="#4a4848"
         id="stop922" /><stop
         offset="1"
         stop-color="#020000"
         id="stop924" /></radialGradient><radialGradient
       id="radial-gradient-2"
       cx="8244.7988"
       cy="2882.7891"
       r="148.04797"
       xlink:href="#radial-gradient" /><radialGradient
       id="radial-gradient-3"
       cx="1242.4672"
       cy="1779.7726"
       r="107.5862"
       gradientTransform="matrix(0.78713,0.03506,-0.03996,1.01766,-503.99377,-1573.636)"
       xlink:href="#radial-gradient" /><radialGradient
       id="radial-gradient-4"
       cx="5329.1577"
       cy="2223.0308"
       r="51.176231"
       gradientTransform="matrix(0.41525,0.66956,-0.86839,0.53218,90.78117,-4371.9614)"
       xlink:href="#radial-gradient" /><radialGradient
       id="radial-gradient-5"
       cx="5331.7988"
       cy="2221.9387"
       r="55.633598"
       gradientTransform="matrix(0.41525,0.66956,-0.86839,0.53218,90.78117,-4371.9614)"
       xlink:href="#radial-gradient" /><radialGradient
       id="radial-gradient-6"
       cx="5411.0913"
       cy="2223.4846"
       r="59.705502"
       gradientTransform="matrix(0.39414,0.6355,-0.86839,0.53218,173.60874,-4238.5254)"
       xlink:href="#radial-gradient" /><radialGradient
       id="radial-gradient-7"
       cx="5333.0713"
       cy="2219.5662"
       r="52.76976"
       gradientTransform="matrix(0.41525,0.66956,-0.86839,0.53218,90.78117,-4371.9614)"
       xlink:href="#radial-gradient" /><radialGradient
       id="radial-gradient-8"
       cx="5329.4175"
       cy="2210.874"
       r="42.709541"
       gradientTransform="matrix(0.41525,0.66956,-0.86839,0.53218,90.78117,-4371.9614)"
       xlink:href="#radial-gradient" /><radialGradient
       id="radial-gradient-9"
       cx="5941.6646"
       cy="1909.6281"
       r="36.00251"
       gradientTransform="matrix(0.24993,0.74597,-0.96919,0.31768,741.41231,-4671.9074)"
       xlink:href="#radial-gradient" /><radialGradient
       id="radial-gradient-11"
       cx="5946.6138"
       cy="1909.6034"
       r="40.950062"
       gradientTransform="matrix(0.24993,0.74597,-0.96919,0.31768,741.41231,-4671.9074)"
       xlink:href="#radial-gradient" /><radialGradient
       id="radial-gradient-12"
       cx="5950.0054"
       cy="1909.6295"
       r="44.337971"
       gradientTransform="matrix(0.24993,0.74597,-0.96919,0.31768,741.41231,-4671.9074)"
       xlink:href="#radial-gradient" /><radialGradient
       id="radial-gradient-13"
       cx="8486.1992"
       cy="2886.697"
       r="158.8838"
       gradientTransform="matrix(-0.205,0.71916,-0.97796,-0.28443,5208.9736,-4992.8573)"
       xlink:href="#radial-gradient" /><radialGradient
       id="radial-gradient-14"
       cx="5477.2432"
       cy="2067.3115"
       r="51.176231"
       gradientTransform="matrix(0.44217,0.69344,-0.92468,0.55116,-132.13179,-4563.2389)"
       xlink:href="#radial-gradient" /><radialGradient
       id="radial-gradient-15"
       cx="5479.8848"
       cy="2066.2192"
       r="55.633598"
       gradientTransform="matrix(0.44217,0.69344,-0.92468,0.55116,-132.13179,-4563.2389)"
       xlink:href="#radial-gradient" /><radialGradient
       id="radial-gradient-16"
       cx="5567.1118"
       cy="2067.7678"
       r="59.705502"
       gradientTransform="matrix(0.41969,0.65816,-0.92468,0.55116,-43.93464,-4425.0443)"
       xlink:href="#radial-gradient" /><radialGradient
       id="radial-gradient-17"
       cx="5481.1572"
       cy="2063.8467"
       r="52.76976"
       gradientTransform="matrix(0.44217,0.69344,-0.92468,0.55116,-132.13179,-4563.2389)"
       xlink:href="#radial-gradient" /><radialGradient
       id="radial-gradient-18"
       cx="5477.5029"
       cy="2055.1548"
       r="42.709541"
       gradientTransform="matrix(0.44217,0.69344,-0.92468,0.55116,-132.13179,-4563.2389)"
       xlink:href="#radial-gradient" /><radialGradient
       id="radial-gradient-19"
       cx="6039.2134"
       cy="1731.8132"
       r="36.00251"
       gradientTransform="matrix(0.26613,0.77258,-1.03202,0.329,560.67877,-4873.8813)"
       xlink:href="#radial-gradient" /><radialGradient
       id="radial-gradient-21"
       cx="6044.1621"
       cy="1731.7887"
       r="40.950062"
       gradientTransform="matrix(0.26613,0.77258,-1.03202,0.329,560.67877,-4873.8813)"
       xlink:href="#radial-gradient" /><radialGradient
       id="radial-gradient-22"
       cx="6047.5537"
       cy="1731.8148"
       r="44.337971"
       gradientTransform="matrix(0.26613,0.77258,-1.03202,0.329,560.67877,-4873.8813)"
       xlink:href="#radial-gradient" /><radialGradient
       id="radial-gradient-23"
       cx="8227.3965"
       cy="3216.3218"
       r="115.37826"
       xlink:href="#radial-gradient" /><radialGradient
       id="radial-gradient-24"
       cx="8248.1846"
       cy="2876.4751"
       r="140.42693"
       xlink:href="#radial-gradient" /><radialGradient
       id="radial-gradient-25"
       cx="8233.3516"
       cy="3213.8596"
       r="125.42752"
       xlink:href="#radial-gradient" /><radialGradient
       id="radial-gradient-26"
       cx="8472.6631"
       cy="3217.2024"
       r="134.60773"
       gradientTransform="matrix(-0.205,0.71916,-0.97796,-0.28443,5208.9736,-4992.8573)"
       xlink:href="#radial-gradient" /><radialGradient
       id="radial-gradient-27"
       cx="8236.2197"
       cy="3208.5105"
       r="118.9709"
       xlink:href="#radial-gradient" /><radialGradient
       id="radial-gradient-28"
       cx="8227.9824"
       cy="3188.9141"
       r="96.289864"
       xlink:href="#radial-gradient" /><radialGradient
       id="radial-gradient-29"
       cx="9041.7383"
       cy="2354.2156"
       r="81.168671"
       gradientTransform="matrix(-0.38376,0.68678,-0.88708,-0.50332,5911.6147,-4864.3417)"
       xlink:href="#radial-gradient" /><radialGradient
       id="radial-gradient-31"
       cx="9052.8955"
       cy="2354.1602"
       r="92.323067"
       gradientTransform="matrix(-0.38376,0.68678,-0.88708,-0.50332,5911.6147,-4864.3417)"
       xlink:href="#radial-gradient" /><radialGradient
       id="radial-gradient-32"
       cx="9060.542"
       cy="2354.2192"
       r="99.961197"
       gradientTransform="matrix(-0.38376,0.68678,-0.88708,-0.50332,5911.6147,-4864.3417)"
       xlink:href="#radial-gradient" /><radialGradient
       id="radial-gradient-33"
       cx="8204.4668"
       cy="3222.1523"
       r="136.18636"
       xlink:href="#radial-gradient" /><radialGradient
       id="radial-gradient-34"
       cx="8211.4961"
       cy="3219.2461"
       r="148.04797"
       xlink:href="#radial-gradient" /><radialGradient
       id="radial-gradient-35"
       cx="8969.54"
       cy="2028.1936"
       r="117.98889"
       gradientTransform="matrix(-0.38376,0.68678,-0.88708,-0.50332,5911.6147,-4864.3417)"
       xlink:href="#radial-gradient" /><radialGradient
       id="radial-gradient-36"
       cx="8451.1123"
       cy="3223.1536"
       r="158.8838"
       gradientTransform="matrix(-0.205,0.71916,-0.97796,-0.28443,5208.9736,-4992.8573)"
       xlink:href="#radial-gradient" /><radialGradient
       id="radial-gradient-37"
       cx="8214.8818"
       cy="3212.9324"
       r="140.42693"
       xlink:href="#radial-gradient" /><radialGradient
       id="radial-gradient-38"
       cx="8205.1582"
       cy="3189.8018"
       r="113.65543"
       xlink:href="#radial-gradient" /><radialGradient
       id="radial-gradient-39"
       cx="9015.541"
       cy="2361.5068"
       r="95.807182"
       gradientTransform="matrix(-0.38376,0.68678,-0.88708,-0.50332,5911.6147,-4864.3417)"
       xlink:href="#radial-gradient" /><radialGradient
       id="radial-gradient-41"
       cx="9028.71"
       cy="2361.4414"
       r="108.97324"
       gradientTransform="matrix(-0.38376,0.68678,-0.88708,-0.50332,5911.6147,-4864.3417)"
       xlink:href="#radial-gradient" /><radialGradient
       id="radial-gradient-42"
       cx="9037.7354"
       cy="2361.511"
       r="117.98889"
       gradientTransform="matrix(-0.38376,0.68678,-0.88708,-0.50332,5911.6147,-4864.3417)"
       xlink:href="#radial-gradient" /><radialGradient
       id="radial-gradient-43"
       cx="8469.1582"
       cy="3502.5808"
       r="136.18636"
       xlink:href="#radial-gradient" /><radialGradient
       id="radial-gradient-44"
       cx="8476.1865"
       cy="3499.6746"
       r="148.04797"
       xlink:href="#radial-gradient" /><radialGradient
       id="radial-gradient-45"
       cx="8729.9854"
       cy="3503.5867"
       r="158.8838"
       gradientTransform="matrix(-0.205,0.71916,-0.97796,-0.28443,5208.9736,-4992.8573)"
       xlink:href="#radial-gradient" /><radialGradient
       id="radial-gradient-46"
       cx="4089.0166"
       cy="2953.5498"
       r="208.90215"
       gradientTransform="matrix(0.56429,0.85264,-0.8528,0.55736,495.69011,-4848.9425)"
       gradientUnits="userSpaceOnUse"><stop
         offset="0.97191"
         stop-color="#fff"
         id="stop967" /><stop
         offset="1"
         stop-color="#020100"
         id="stop969" /></radialGradient><radialGradient
       id="radial-gradient-47"
       cx="8479.5723"
       cy="3493.3606"
       r="140.42693"
       xlink:href="#radial-gradient" /><radialGradient
       id="radial-gradient-48"
       cx="8469.8486"
       cy="3470.2302"
       r="113.65543"
       xlink:href="#radial-gradient" /><radialGradient
       id="radial-gradient-49"
       cx="9356.9766"
       cy="2587.4109"
       r="95.807182"
       gradientTransform="matrix(-0.38376,0.68678,-0.88708,-0.50332,5911.6147,-4864.3417)"
       xlink:href="#radial-gradient" /><radialGradient
       id="radial-gradient-51"
       cx="9370.1455"
       cy="2587.3455"
       r="108.97324"
       gradientTransform="matrix(-0.38376,0.68678,-0.88708,-0.50332,5911.6147,-4864.3417)"
       xlink:href="#radial-gradient" /><radialGradient
       id="radial-gradient-52"
       cx="9379.1709"
       cy="2587.4153"
       r="117.98889"
       gradientTransform="matrix(-0.38376,0.68678,-0.88708,-0.50332,5911.6147,-4864.3417)"
       xlink:href="#radial-gradient" /><radialGradient
       id="radial-gradient-53"
       cx="3814.9697"
       cy="2883.8525"
       r="141.19342"
       gradientTransform="matrix(0.46822,0.63365,-0.82233,0.60091,826.73182,-3940.4667)"
       xlink:href="#radial-gradient" /><radialGradient
       id="radial-gradient-54"
       cx="570.63708"
       cy="701.14136"
       r="78.270973"
       gradientTransform="matrix(0.76722,-0.31041,0.38936,0.94409,-560.15886,-192.1193)"
       gradientUnits="userSpaceOnUse"><stop
         offset="0"
         stop-color="#595757"
         id="stop978" /><stop
         offset="1"
         stop-color="#020000"
         id="stop980" /></radialGradient><radialGradient
       id="radial-gradient-56"
       cx="1207.584"
       cy="1779.8021"
       r="142.48737"
       gradientTransform="matrix(0.78713,0.03506,-0.03996,1.01766,-503.99377,-1573.636)"
       xlink:href="#radial-gradient" /><radialGradient
       id="radial-gradient-57"
       cx="1216.2158"
       cy="1783.8734"
       r="119.16956"
       gradientTransform="matrix(0.78713,0.03506,-0.03996,1.01766,-503.99377,-1573.636)"
       xlink:href="#radial-gradient" /><clipPath
       id="clip-path"><path
         class="cls-54"
         d="m 322.04061,208.71911 c -39.697,-22.50978 -58.13052,-65.87311 -40.8907,-96.58185 17.16168,-30.81117 63.38662,-37.36316 103.12351,-14.92593 39.7804,22.67147 58.05755,65.76959 40.902,96.64522 -17.17294,30.74798 -63.37818,37.41227 -103.13481,14.86256 z"
         clip-path="url(#clip-path-8)"
         id="path985" /></clipPath><clipPath
       id="clip-path-2"><path
         class="cls-53"
         d="m 313.50056,224.05716 c -45.27964,-25.62064 -66.06444,-74.86056 -46.43579,-109.91279 19.41556,-34.95392 71.88332,-42.48491 117.20865,-16.933 45.30288,25.7375 65.968,74.93786 46.56045,109.9513 -19.64701,34.93392 -72.26187,42.61203 -117.33331,16.89449 z"
         clip-path="url(#clip-path)"
         id="path988" /></clipPath><clipPath
       id="clip-path-3"><path
         class="cls-52"
         d="m 304.31855,254.9662 c -62.43712,-17.94 -101.91408,-71.85932 -88.06327,-120.25649 13.76895,-48.20631 75.48111,-72.58589 137.82538,-54.51879 62.35294,18.13113 101.645,71.96689 87.94138,120.21713 -13.79489,48.38755 -75.45031,72.76235 -137.70349,54.55815 z"
         id="path991" /></clipPath><clipPath
       id="clip-path-4"><path
         class="cls-56"
         d="M 303.1226,267.7495 C 235.45642,248.0743 192.44,189.64159 207.51882,137.1657 222.4884,84.70862 289.47854,58.0766 357.32382,77.77575 425.1293,97.6032 467.8051,156.03512 452.95776,208.53132 437.85335,260.89076 370.93024,287.57675 303.1226,267.7495 Z"
         clip-path="url(#clip-path-3)"
         id="path994" /></clipPath><clipPath
       id="clip-path-5"><path
         class="cls-57"
         d="m 297.83493,274.50275 c -72.56171,-21.12656 -119.17175,-81.58157 -103.98688,-135.11 15.264,-53.37633 86.46223,-79.536 159.25715,-58.39518 72.6608,21.04843 119.30925,81.55209 104.08007,135.15403 -15.20127,53.42052 -86.67746,79.45268 -159.35034,58.35115 z"
         clip-path="url(#clip-path-4)"
         id="path997" /></clipPath><clipPath
       id="clip-path-6"><path
         class="cls-58"
         d="m 309.162,266.56874 c -64.2242,-18.66006 -104.84084,-74.16477 -90.70739,-123.87756 14.191,-49.72787 77.74837,-75.01151 142.03,-56.351 64.33592,18.64046 104.89439,74.15538 90.74546,124.10814 C 437.01161,260.0045 373.35546,285.068 309.162,266.56874 Z"
         clip-path="url(#clip-path-5)"
         id="path1000" /></clipPath><clipPath
       id="clip-path-7"><path
         class="cls-59"
         d="M 334.95666,248.72824 C 282.98786,233.622 250.11778,188.63551 261.625,148.437 273.0492,108.0813 324.62872,87.66335 376.55413,102.83779 428.5833,117.933 461.2662,162.83621 449.97242,203.28 c -11.56905,40.15936 -62.94157,60.47047 -115.01576,45.44824 z"
         clip-path="url(#clip-path-6)"
         id="path1003" /></clipPath><clipPath
       id="clip-path-8"><path
         class="cls-60"
         d="m 322.04061,208.71911 c -39.697,-22.50978 -58.13052,-65.87311 -40.8907,-96.58185 17.16168,-30.81117 63.38662,-37.36316 103.12351,-14.92593 39.7804,22.67147 58.05755,65.76959 40.902,96.64522 -17.17294,30.74798 -63.37818,37.41227 -103.13481,14.86256 z"
         clip-path="url(#clip-path-7)"
         id="path1006" /></clipPath><clipPath
       id="clip-path-9"><circle
         class="cls-52"
         cx="936.02759"
         cy="284.03427"
         r="213.63554"
         id="circle1009" /></clipPath><mask
       id="mask"
       x="513.97873"
       y="166.78018"
       width="272.96878"
       height="220.45204"
       maskUnits="userSpaceOnUse"><path
         class="cls-1"
         d="m 621.19184,380.11162 c -73.69746,-21.17546 -120.294,-84.81892 -103.9452,-141.94437 16.25213,-56.90015 89.09389,-85.67652 162.68175,-64.35107 73.59808,21.401 119.9764,84.94589 103.80133,141.8979 -16.28272,57.11409 -89.05754,85.88481 -162.53788,64.39754 z"
         id="path1012" /></mask><mask
       id="mask-2"
       x="503.37836"
       y="163.30005"
       width="296.7389"
       height="239.63937"
       maskUnits="userSpaceOnUse"><path
         class="cls-2"
         d="M 619.7802,395.20034 C 539.91065,371.97679 489.13629,303.00593 506.93459,241.06618 c 17.66929,-61.91755 96.74089,-93.35257 176.8219,-70.10074 80.034,23.40327 130.40622,92.3732 112.88121,154.33692 -17.82848,61.8023 -96.82096,93.30102 -176.8575,69.89798 z"
         id="path1015" /></mask><mask
       id="mask-3"
       x="487.41211"
       y="166.11821"
       width="317.61702"
       height="245.69815"
       maskUnits="userSpaceOnUse"><path
         class="cls-12"
         d="m 613.53893,403.17153 c -85.648,-24.93667 -140.664,-96.29455 -122.74059,-159.47666 18.01681,-63.00258 102.05541,-93.8801 187.97866,-68.92656 85.76494,24.84445 140.8263,96.25975 122.85058,159.52862 -17.94272,63.05474 -102.30946,93.78171 -188.08865,68.8746 z"
         id="path1018" /></mask><mask
       id="mask-4"
       x="516.52907"
       y="173.82209"
       width="281.39246"
       height="227.1711"
       maskUnits="userSpaceOnUse"><path
         class="cls-22"
         d="M 626.90884,393.80664 C 551.102,371.7813 503.16029,306.26649 519.84266,247.58816 c 16.75026,-58.69613 91.77,-88.53959 167.64468,-66.51373 75.9387,22.0022 123.81176,87.52907 107.11111,146.49065 -16.78278,58.49349 -91.91912,88.07714 -167.68961,66.24156 z"
         id="path1021" /></mask><mask
       id="mask-5"
       x="556.25809"
       y="174.47182"
       width="228.1188"
       height="200.92533"
       maskUnits="userSpaceOnUse"><path
         class="cls-32"
         d="m 625.07581,356.0105 c -57.874,-32.73236 -84.3775,-95.54345 -59.44627,-140.35183 25.06231,-44.83727 92.18626,-54.57212 149.93678,-21.7525 57.88905,32.801 84.3934,95.618 59.40733,140.50119 -24.95339,44.68086 -92.16665,54.29496 -149.89784,21.60314 z"
         id="path1024" /></mask><mask
       id="mask-6"
       x="70.53794"
       y="70.89198"
       width="427.27181"
       height="425.5823"
       maskUnits="userSpaceOnUse"><path
         class="cls-42"
         d="M 402.20556,461.73426 C 303.77032,526.14402 171.113,498.38932 105.97356,400.00474 40.902,301.49122 67.987,169.90433 166.41645,105.66373 264.78526,41.2235 397.10028,68.97031 462.47729,167.21779 c 64.73896,98.34321 38.12217,230.3437 -60.27173,294.51647 z"
         id="path1027" /></mask><radialGradient
       id="radial-gradient-58"
       cx="284.17383"
       cy="283.68314"
       r="213.21394"
       gradientUnits="userSpaceOnUse"><stop
         offset="0"
         stop-color="#ffedcc"
         id="stop1030" /><stop
         offset="0.12062"
         stop-color="#e7d7b9"
         id="stop1032" /><stop
         offset="0.37548"
         stop-color="#aa9e88"
         id="stop1034" /><stop
         offset="0.74009"
         stop-color="#49443a"
         id="stop1036" /><stop
         offset="1"
         id="stop1038" /></radialGradient><clipPath
       id="clip-path-10"><ellipse
         class="cls-52"
         cx="284.55887"
         cy="282.64087"
         rx="212.55757"
         ry="213.05264"
         transform="rotate(-1.03687,284.55871,282.64084)"
         id="ellipse1041" /></clipPath><linearGradient
       id="linear-gradient"
       x1="166.33524"
       y1="244.21269"
       x2="150.58687"
       y2="143.23767"
       gradientTransform="rotate(-0.00573,-126742.02,-792813.31)"
       gradientUnits="userSpaceOnUse"><stop
         offset="0"
         stop-color="#e5dbb7"
         id="stop1044" /><stop
         offset="1"
         stop-color="#fff"
         id="stop1046" /></linearGradient><linearGradient
       id="linear-gradient-2"
       x1="184.38641"
       y1="257.52493"
       x2="-76.976242"
       y2="272.16116"
       gradientTransform="rotate(-0.00573,-126742.02,-792813.31)"
       gradientUnits="userSpaceOnUse"><stop
         offset="0"
         stop-color="#dbd1b7"
         id="stop1049" /><stop
         offset="1"
         stop-color="#fff"
         id="stop1051" /></linearGradient><linearGradient
       id="linear-gradient-3"
       x1="407.19049"
       y1="258.1915"
       x2="68.051964"
       y2="247.73862"
       gradientTransform="rotate(-0.00573,-126742.02,-792813.31)"
       gradientUnits="userSpaceOnUse"><stop
         offset="0"
         stop-color="#f0decb"
         id="stop1054" /><stop
         offset="0.48257"
         stop-color="#f7ede2"
         id="stop1056" /><stop
         offset="1"
         stop-color="#fff"
         id="stop1058" /></linearGradient><linearGradient
       id="linear-gradient-4"
       x1="189.43958"
       y1="544.02844"
       x2="173.46053"
       y2="290.35965"
       gradientTransform="rotate(-0.00573,-126742.02,-792813.31)"
       gradientUnits="userSpaceOnUse"><stop
         offset="0"
         stop-color="#d9d3c3"
         id="stop1061" /><stop
         offset="1"
         stop-color="#fff"
         id="stop1063" /></linearGradient><radialGradient
       id="radial-gradient-59"
       cx="143.79828"
       cy="7.0620999"
       r="398.84097"
       gradientTransform="rotate(-1.01423,-1158.9925,-2131.9896)"
       xlink:href="#radial-gradient-58" /><radialGradient
       id="radial-gradient-60"
       cx="-8614.7207"
       cy="-1260.4393"
       r="111.51287"
       gradientTransform="matrix(0.2907,0.3637,-0.41,0.3277,2337.9209,3973.5819)"
       gradientUnits="userSpaceOnUse"><stop
         offset="0"
         stop-color="#aaa"
         id="stop1067" /><stop
         offset="0.19573"
         stop-color="#7e7e7e"
         id="stop1069" /><stop
         offset="0.46604"
         stop-color="#484848"
         id="stop1071" /><stop
         offset="0.69995"
         stop-color="#212121"
         id="stop1073" /><stop
         offset="0.88569"
         stop-color="#090909"
         id="stop1075" /><stop
         offset="1"
         id="stop1077" /></radialGradient><radialGradient
       id="radial-gradient-61"
       cx="-1082.4218"
       cy="2018.9773"
       r="57.69408"
       gradientTransform="matrix(-0.5777,1.1505,-1.3461,-0.6758,2337.4713,3021.2638)"
       xlink:href="#radial-gradient-60" /><radialGradient
       id="radial-gradient-62"
       cx="-2249.9021"
       cy="1408.4487"
       r="80.58358"
       gradientTransform="matrix(0.3682,0.5933,-0.6174,0.3833,1834.7901,1104.1192)"
       gradientUnits="userSpaceOnUse"><stop
         offset="0"
         stop-color="#a1a1a1"
         id="stop1081" /><stop
         offset="0.11122"
         stop-color="#7d7d7d"
         id="stop1083" /><stop
         offset="0.26743"
         stop-color="#505050"
         id="stop1085" /><stop
         offset="0.41804"
         stop-color="#2d2d2d"
         id="stop1087" /><stop
         offset="0.55948"
         stop-color="#141414"
         id="stop1089" /><stop
         offset="0.68817"
         stop-color="#050505"
         id="stop1091" /><stop
         offset="0.79261"
         id="stop1093" /></radialGradient><radialGradient
       id="radial-gradient-63"
       cx="-2037.6012"
       cy="3442.1233"
       r="43.487202"
       gradientTransform="matrix(0.3862,0.6222,-0.4072,0.2527,2629.5998,600.35392)"
       gradientUnits="userSpaceOnUse"><stop
         offset="0"
         stop-color="#575757"
         id="stop1096" /><stop
         offset="0.42232"
         stop-color="#2c2c2c"
         id="stop1098" /><stop
         offset="0.79408"
         stop-color="#0c0c0c"
         id="stop1100" /><stop
         offset="1"
         id="stop1102" /></radialGradient><mask
       id="mask-7"
       x="107.8775"
       y="86.5378"
       width="267.3648"
       height="246.69638"
       maskUnits="userSpaceOnUse"><path
         class="cls-48"
         d="M 307.67524,299.17906 C 243.64013,346.29081 161.88724,344.2688 125.32805,294.6864 88.89275,245.32595 111.36948,167.2994 175.45838,120.37261 239.6158,73.48523 321.14969,75.624 357.67635,124.954 394.26794,174.475 371.829,252.443 307.67524,299.17906 Z"
         id="path1105" /></mask><mask
       id="mask-8"
       x="83.29512"
       y="214.85508"
       width="134.7411"
       height="155.63226"
       maskUnits="userSpaceOnUse"><path
         class="cls-49"
         d="m 210.65593,268.33464 c 16.92993,40.76755 3.7459,84.7671 -29.45349,98.22761 -33.1995,13.4607 -73.62932,-8.83374 -90.58626,-49.53684 -16.83322,-40.95194 -3.68251,-84.73035 29.64725,-98.28273 33.22811,-13.37057 73.68301,8.86215 90.3925,49.59196 z"
         id="path1108" /><path
         class="cls-49"
         d="m 210.65593,268.33464 c 16.92993,40.76755 3.7459,84.7671 -29.45349,98.22761 -33.1995,13.4607 -73.62932,-8.83374 -90.58626,-49.53684 -16.83322,-40.95194 -3.68251,-84.73035 29.64725,-98.28273 33.22811,-13.37057 73.68301,8.86215 90.3925,49.59196 z"
         id="path1110" /></mask><mask
       id="mask-9"
       x="263.13184"
       y="134.8254"
       width="224.56143"
       height="290.22545"
       maskUnits="userSpaceOnUse"><path
         class="cls-50"
         d="m 487.542,284.90629 c -3.16359,79.97028 -55.90671,142.67221 -117.81035,140.06618 -61.83508,-2.88 -109.53116,-69.99647 -106.45934,-149.93648 3.31838,-80.12121 56.02947,-142.76158 117.83737,-140.13066 61.80825,2.78786 109.62812,69.96872 106.43232,150.00096 z"
         id="path1113" /></mask><mask
       id="mask-10"
       x="288.0761"
       y="163.07863"
       width="187.89811"
       height="242.61469"
       maskUnits="userSpaceOnUse"><path
         class="cls-51"
         d="m 475.86692,288.60771 c -2.51418,66.9 -46.70458,119.27534 -98.58209,117.01513 -51.69412,-2.16379 -91.86422,-58.4741 -89.07148,-125.45961 2.66467,-66.89942 46.82149,-119.21028 98.57638,-117.01814 51.69572,2.31839 91.52796,58.5264 89.07719,125.46262 z"
         id="path1116" /></mask><mask
       id="mask-11"
       x="318.07974"
       y="171.57207"
       width="169.57275"
       height="219.11918"
       maskUnits="userSpaceOnUse"><path
         class="cls-3"
         d="m 487.542,284.90629 c -2.31291,60.37784 -42.19121,107.68541 -88.89267,105.72625 -46.5978,-2.14341 -82.86581,-52.739 -80.45609,-113.3019 2.406,-60.41112 42.34343,-107.68722 88.94647,-105.698 46.66813,2.18028 82.77452,52.7697 80.40229,113.27365 z"
         id="path1119" /></mask><mask
       id="mask-12"
       x="323.96829"
       y="335.53332"
       width="98.58342"
       height="87.57588"
       maskUnits="userSpaceOnUse"><path
         class="cls-4"
         d="m 394.51943,413.526 c -24.51919,15.13578 -53.99369,12.00032 -65.74241,-6.98726 -11.7105,-18.90376 -1.29521,-46.43032 23.238,-61.49771 24.55678,-15.05112 53.94871,-11.87992 65.69312,7.01552 11.7622,18.96638 1.36227,46.47289 -23.18871,61.46945 z"
         id="path1122" /></mask><mask
       id="mask-13"
       x="321.72524"
       y="332.93664"
       width="107.12392"
       height="95.15379"
       maskUnits="userSpaceOnUse"><path
         class="cls-5"
         d="m 398.35749,417.73318 c -26.649,16.33394 -58.66086,13.01314 -71.38158,-7.59458 -12.74715,-20.56623 -1.496,-50.497 25.21432,-66.88255 26.74055,-16.33422 58.65048,-12.90186 71.447,7.63594 12.67482,20.58136 1.46139,50.5062 -25.27974,66.84119 z"
         id="path1125" /></mask><mask
       id="mask-14"
       x="318.54214"
       y="334.03846"
       width="113.94154"
       height="98.96639"
       maskUnits="userSpaceOnUse"><path
         class="cls-6"
         d="m 398.99573,421.48363 c -28.58618,17.50735 -62.334,14.76233 -75.36852,-6.19426 -12.96095,-20.93717 -0.29907,-52.10788 28.36139,-69.6875 28.59011,-17.56317 62.3654,-14.81625 75.41078,6.17682 12.99418,20.92976 0.20748,52.15364 -28.40365,69.70494 z"
         id="path1128" /></mask><mask
       id="mask-15"
       x="327.07542"
       y="334.94629"
       width="101.5945"
       height="90.26096"
       maskUnits="userSpaceOnUse"><path
         class="cls-7"
         d="m 399.77226,415.39893 c -25.28875,15.50735 -55.62363,12.27278 -67.71973,-7.20015 -12.08388,-19.49629 -1.41462,-47.89817 23.89142,-63.42425 25.31566,-15.54986 55.63653,-12.29315 67.80675,7.25646 12.0193,19.45411 1.24837,47.82271 -23.97844,63.36794 z"
         id="path1131" /></mask><mask
       id="mask-16"
       x="342.76929"
       y="336.49418"
       width="82.24298"
       height="73.04203"
       maskUnits="userSpaceOnUse"><path
         class="cls-8"
         d="m 401.61517,401.61037 c -20.46538,12.54613 -45.03693,9.90823 -54.79456,-5.8637 -9.834,-15.79159 -1.14233,-38.81084 19.33247,-51.32239 20.47982,-12.56922 44.96817,-9.89475 54.87,5.88032 9.72627,15.78054 1.06135,38.69998 -19.40791,51.30577 z"
         id="path1134" /></mask><mask
       id="mask-17"
       x="339.57983"
       y="337.88061"
       width="72.0993"
       height="58.36866"
       maskUnits="userSpaceOnUse"><path
         class="cls-9"
         d="m 384.63151,393.90967 c -19.23285,6.30973 -38.96371,-0.58129 -43.89648,-15.40256 -4.98971,-14.82619 6.65429,-31.95051 25.87524,-38.295 19.31081,-6.28885 38.908,0.57435 43.92066,15.41775 4.9656,14.81106 -6.63566,31.96243 -25.89942,38.27981 z"
         id="path1137" /></mask><mask
       id="mask-19"
       x="335.8724"
       y="337.55482"
       width="82.00184"
       height="66.41054"
       maskUnits="userSpaceOnUse"><path
         class="cls-10"
         d="m 387.11638,401.28923 c -21.91965,7.2134 -44.28061,-0.65968 -49.92588,-17.561 -5.6766,-16.80207 7.50906,-36.26717 29.41977,-43.51609 21.96493,-7.18616 44.27718,0.7144 49.97571,17.53159 5.60102,16.87206 -7.5803,36.42934 -29.4696,43.5455 z"
         id="path1140" /></mask><mask
       id="mask-20"
       x="333.32999"
       y="337.31761"
       width="88.77285"
       height="71.93833"
       maskUnits="userSpaceOnUse"><path
         class="cls-11"
         d="m 388.80079,406.353 c -23.73177,7.81476 -47.895,-0.69649 -54.04954,-18.95619 -6.12943,-18.30345 8.1342,-39.42633 31.859,-47.1847 23.75467,-7.8016 47.91976,0.71093 54.08123,19.00478 6.11352,18.23364 -8.20629,39.35083 -31.89069,47.13611 z"
         id="path1143" /></mask><mask
       id="mask-21"
       x="325.64169"
       y="328.99351"
       width="104.97443"
       height="90.69896"
       maskUnits="userSpaceOnUse"><path
         class="cls-13"
         d="m 400.76655,409.76755 c -26.10873,15.67554 -57.494,12.42826 -70.00438,-7.23644 -12.46968,-19.57789 -1.37919,-48.0861 24.74444,-63.6908 26.14875,-15.58787 57.44612,-12.30358 69.9519,7.2657 12.52477,19.64272 1.45063,48.13016 -24.69196,63.66154 z"
         id="path1146" /></mask><mask
       id="mask-22"
       x="323.25322"
       y="326.30424"
       width="114.0686"
       height="98.54711"
       maskUnits="userSpaceOnUse"><path
         class="cls-14"
         d="m 404.85343,414.12474 c -28.37662,16.91643 -62.46376,13.47721 -76.00913,-7.86541 -13.57354,-21.29966 -1.593,-52.29777 26.84892,-69.26768 28.47409,-16.91672 62.4527,-13.362 76.07875,7.90824 13.49656,21.31532 1.55617,52.30733 -26.91854,69.22485 z"
         id="path1149" /></mask><mask
       id="mask-23"
       x="319.86377"
       y="327.44535"
       width="121.3282"
       height="102.49567"
       maskUnits="userSpaceOnUse"><path
         class="cls-15"
         d="m 405.53305,418.00893 c -30.43938,18.13169 -66.37506,15.28878 -80.25455,-6.41515 -13.80119,-21.68382 -0.31845,-53.96612 30.2,-72.17265 30.44356,-18.18951 66.40845,-15.34462 80.29954,6.39709 13.8366,21.67614 0.22096,54.01351 -30.24499,72.19071 z"
         id="path1152" /></mask><mask
       id="mask-24"
       x="328.95025"
       y="328.38555"
       width="108.18071"
       height="93.4798"
       maskUnits="userSpaceOnUse"><path
         class="cls-16"
         d="m 406.35992,411.70725 c -26.92818,16.06037 -59.22962,12.71044 -72.1099,-7.45692 -12.86726,-20.19156 -1.50633,-49.60629 25.44026,-65.68605 26.95684,-16.10439 59.24336,-12.73155 72.20257,7.51524 12.79852,20.14787 1.3293,49.52813 -25.53293,65.62773 z"
         id="path1155" /></mask><mask
       id="mask-25"
       x="345.66153"
       y="329.98864"
       width="87.57466"
       height="75.64682"
       maskUnits="userSpaceOnUse"><path
         class="cls-17"
         d="m 408.3223,397.427 c -21.79212,12.99354 -47.9566,10.26157 -58.3468,-6.07281 -10.47149,-16.35474 -1.2164,-40.19489 20.58576,-53.15262 21.80749,-13.01746 47.88339,-10.24761 58.42709,6.09 10.35685,16.34329 1.1302,40.08007 -20.66605,53.13543 z"
         id="path1158" /></mask><mask
       id="mask-26"
       x="342.26531"
       y="331.42451"
       width="76.77339"
       height="60.45018"
       maskUnits="userSpaceOnUse"><path
         class="cls-18"
         d="m 390.23762,389.45165 c -20.4797,6.53474 -41.48967,-0.602 -46.74223,-15.95184 -5.31318,-15.35491 7.08568,-33.08991 27.5527,-39.66063 20.5627,-6.51312 41.43031,0.59483 46.768,15.96757 5.28748,15.33925 -7.06587,33.10225 -27.57847,39.6449 z"
         id="path1161" /></mask><mask
       id="mask-28"
       x="338.31753"
       y="331.0871"
       width="87.3179"
       height="68.77884"
       maskUnits="userSpaceOnUse"><path
         class="cls-19"
         d="m 392.88357,397.09437 c -23.34066,7.47065 -47.15125,-0.68319 -53.16249,-18.18725 -6.04461,-17.40126 7.99586,-37.56052 31.327,-45.06794 23.38888,-7.44243 47.1476,0.73988 53.21556,18.15679 5.96409,17.47375 -8.07171,37.72847 -31.38007,45.0984 z"
         id="path1164" /></mask><mask
       id="mask-29"
       x="335.61029"
       y="330.84144"
       width="94.52786"
       height="74.50375"
       maskUnits="userSpaceOnUse"><path
         class="cls-20"
         d="m 394.67719,402.33875 c -25.27027,8.09344 -51,-0.72133 -57.5535,-19.6322 -6.52679,-18.95617 8.66154,-40.83233 33.9244,-48.86737 25.29464,-8.07982 51.02632,0.73628 57.58723,19.68252 6.5098,18.88385 -8.73832,40.75412 -33.95813,48.81705 z"
         id="path1167" /></mask><mask
       id="mask-30"
       x="213.73558"
       y="81.71352"
       width="231.26151"
       height="186.76887"
       maskUnits="userSpaceOnUse"><path
         class="cls-21"
         d="m 304.56744,262.44976 c -62.43712,-17.94 -101.91407,-71.85932 -88.06327,-120.25649 13.769,-48.20631 75.48112,-72.58589 137.82539,-54.51879 62.35293,18.13113 101.645,71.96689 87.94138,120.21713 -13.79489,48.38755 -75.45032,72.76239 -137.7035,54.55815 z"
         id="path1170" /></mask><mask
       id="mask-31"
       x="204.75485"
       y="78.76513"
       width="251.39976"
       height="203.02455"
       maskUnits="userSpaceOnUse"><path
         class="cls-23"
         d="m 303.37149,275.23306 c -67.66617,-19.6752 -110.68264,-78.10791 -95.60377,-130.5838 14.96957,-52.45708 81.95971,-79.0891 149.805,-59.38995 67.80548,19.82745 110.48127,78.25937 95.63393,130.75557 -15.1044,52.35944 -82.02751,79.04543 -149.83516,59.21818 z"
         id="path1173" /></mask><mask
       id="mask-32"
       x="191.2281"
       y="81.1527"
       width="269.08788"
       height="208.1576"
       maskUnits="userSpaceOnUse"><path
         class="cls-24"
         d="m 298.08383,281.98631 c -72.56172,-21.12656 -119.17175,-81.58157 -103.98689,-135.11 15.264,-53.37633 86.46223,-79.536 159.25716,-58.39518 72.66079,21.04844 119.30925,81.55209 104.08006,135.154 -15.20123,53.42055 -86.67745,79.45271 -159.35033,58.35118 z"
         id="path1176" /></mask><mask
       id="mask-33"
       x="215.89624"
       y="87.67949"
       width="238.39812"
       height="192.46132"
       maskUnits="userSpaceOnUse"><path
         class="cls-25"
         d="m 309.41093,274.0523 c -64.22419,-18.66006 -104.84084,-74.16477 -90.70738,-123.87756 14.191,-49.72787 77.74836,-75.01151 142.03,-56.351 64.33594,18.64045 104.89445,74.15537 90.74545,124.10813 -14.21849,49.5562 -77.87465,74.61972 -142.06807,56.12043 z"
         id="path1179" /></mask><mask
       id="mask-34"
       x="259.57758"
       y="105.30577"
       width="192.87421"
       height="155.85637"
       maskUnits="userSpaceOnUse"><path
         class="cls-26"
         d="m 335.20556,256.2118 c -51.96881,-15.10627 -84.83889,-60.09273 -73.3317,-100.29129 11.42419,-40.3557 63.00372,-60.77365 114.92913,-45.59921 52.02921,15.09529 84.71211,59.99847 73.41833,100.44225 -11.56906,40.15937 -62.94158,60.47045 -115.01576,45.44825 z"
         id="path1182" /></mask><mask
       id="mask-35"
       x="274.93038"
       y="91.38232"
       width="156.93688"
       height="138.18562"
       maskUnits="userSpaceOnUse"><path
         class="cls-27"
         d="m 322.28951,216.20267 c -39.697,-22.50978 -58.13053,-65.87311 -40.89071,-96.58185 17.16168,-30.81117 63.38662,-37.36316 103.12352,-14.92593 39.7804,22.67147 58.05755,65.76959 40.902,96.64522 -17.17295,30.74798 -63.37818,37.41228 -103.13481,14.86256 z"
         id="path1185" /></mask><mask
       id="mask-37"
       x="259.91739"
       y="89.55018"
       width="178.4509"
       height="157.21463"
       maskUnits="userSpaceOnUse"><path
         class="cls-28"
         d="M 313.74946,231.54072 C 268.46981,205.92008 247.68502,156.68016 267.31366,121.62793 286.72923,86.674 339.197,79.143 384.52232,104.69489 c 45.30288,25.7375 65.968,74.93786 46.56044,109.9513 -19.64701,34.93396 -72.26189,42.61207 -117.3333,16.89453 z"
         id="path1188" /></mask><mask
       id="mask-38"
       x="249.55501"
       y="88.22995"
       width="193.26422"
       height="170.22567"
       maskUnits="userSpaceOnUse"><path
         class="cls-29"
         d="m 307.858,242.03108 c -49.03133,-27.73114 -71.48535,-80.94523 -50.3634,-118.90728 21.233,-37.98652 78.101,-46.234 127.02774,-18.42891 49.0441,27.78928 71.49881,81.00842 50.3304,119.03382 -21.14074,37.85402 -78.08443,45.99917 -126.99474,18.30237 z"
         id="path1191" /></mask><clipPath
       id="clip-path-11"><circle
         class="cls-52"
         cx="283.50018"
         cy="283.3248"
         r="213.63554"
         id="circle1194" /></clipPath><mask
       id="mask-39"
       x="192.12885"
       y="45.84999"
       width="272.96878"
       height="220.45204"
       maskUnits="userSpaceOnUse"><path
         class="cls-30"
         d="M 299.342,259.18143 C 225.6445,238.006 179.048,174.36252 195.39676,117.23707 211.64889,60.33691 284.49065,31.56055 358.07851,52.886 431.67659,74.287 478.05491,137.83189 461.87984,194.78391 445.59708,251.898 372.8223,280.6687 299.342,259.18143 Z"
         id="path1197" /></mask><mask
       id="mask-40"
       x="181.52848"
       y="42.36987"
       width="296.7389"
       height="239.63937"
       maskUnits="userSpaceOnUse"><path
         class="cls-31"
         d="M 297.93032,274.27016 C 218.06077,251.0466 167.28641,182.07575 185.08471,120.136 202.754,58.21844 281.8256,26.78343 361.90661,50.03526 c 80.034,23.40326 130.40622,92.37319 112.8812,154.33691 -17.82847,61.8023 -96.82095,93.30102 -176.85749,69.89799 z"
         id="path1200" /></mask><mask
       id="mask-41"
       x="165.56222"
       y="45.18803"
       width="317.61702"
       height="245.69815"
       maskUnits="userSpaceOnUse"><path
         class="cls-33"
         d="M 291.689,282.24134 C 206.041,257.30467 151.025,185.9468 168.94841,122.76469 186.96523,59.76211 271.00383,28.88458 356.92708,53.83812 442.69201,78.68258 497.75338,150.09787 479.77766,213.36674 461.835,276.42149 377.46824,307.14846 291.689,282.24134 Z"
         id="path1203" /></mask><mask
       id="mask-42"
       x="194.67918"
       y="52.89191"
       width="281.39246"
       height="227.1711"
       maskUnits="userSpaceOnUse"><path
         class="cls-34"
         d="M 305.059,272.87646 C 229.25213,250.85112 181.3104,185.33631 197.99278,126.658 c 16.75026,-58.69613 91.77,-88.53959 167.64468,-66.51372 75.93869,22.0022 123.81176,87.52906 107.11111,146.49064 -16.78278,58.49346 -91.91912,88.07708 -167.68957,66.24154 z"
         id="path1206" /></mask><mask
       id="mask-43"
       x="246.23831"
       y="73.69703"
       width="227.65846"
       height="183.96457"
       maskUnits="userSpaceOnUse"><path
         class="cls-35"
         d="M 335.50556,251.81848 C 274.16434,233.98785 235.36625,180.88821 248.94872,133.43998 262.43323,85.80626 323.315,61.706 384.60495,79.61709 c 61.41251,17.81768 99.98967,70.819 86.65909,118.55669 -13.6555,47.40199 -74.29289,71.37614 -135.75848,53.6447 z"
         id="path1209" /></mask><mask
       id="mask-44"
       x="264.35994"
       y="57.26253"
       width="185.23995"
       height="163.10696"
       maskUnits="userSpaceOnUse"><path
         class="cls-36"
         d="m 320.26014,204.59382 c -46.85622,-26.56934 -68.61418,-77.7531 -48.26522,-114.00007 20.25674,-36.36786 74.8182,-44.10148 121.72151,-17.61777 46.95467,26.7602 68.52805,77.63092 48.27858,114.07488 -20.27001,36.29327 -74.80826,44.15945 -121.73487,17.54296 z"
         id="path1212" /></mask><mask
       id="mask-46"
       x="246.63941"
       y="55.09997"
       width="210.63395"
       height="185.56778"
       maskUnits="userSpaceOnUse"><path
         class="cls-37"
         d="m 310.17992,222.69805 c -53.44569,-30.24124 -77.97895,-88.36142 -54.81034,-129.73521 22.9171,-41.25775 84.84725,-50.14693 138.34685,-19.98686 53.47311,30.37917 77.86507,88.45267 54.95748,129.78066 -23.19029,41.2342 -85.29409,50.29703 -138.49399,19.94141 z"
         id="path1215" /></mask><mask
       id="mask-47"
       x="234.40821"
       y="53.54164"
       width="228.1188"
       height="200.92533"
       maskUnits="userSpaceOnUse"><path
         class="cls-38"
         d="M 303.22593,235.08031 C 245.35193,202.34795 218.84843,139.53687 243.77966,94.72848 268.842,49.89122 335.96592,40.15636 393.71643,72.976 c 57.88905,32.801 84.3934,95.618 59.40733,140.50119 -24.95338,44.68081 -92.16668,54.29495 -149.89783,21.60312 z"
         id="path1218" /></mask><clipPath
       id="clip-path-12"><path
         class="cls-55"
         d="m 307.60909,234.54752 c -49.03134,-27.73114 -71.48535,-80.94523 -50.3634,-118.90728 21.233,-37.98652 78.101,-46.234 127.02773,-18.42891 49.0441,27.78928 71.49882,81.00842 50.3304,119.03382 -21.14072,37.85402 -78.0844,45.99917 -126.99473,18.30237 z"
         clip-path="url(#clip-path-2)"
         id="path1221" /></clipPath><mask
       id="mask-48"
       x="-139.2939"
       y="166.6404"
       width="272.96878"
       height="220.45204"
       maskUnits="userSpaceOnUse"><path
         class="cls-39"
         d="m -32.0808,379.97184 c -73.69745,-21.17546 -120.29395,-84.81891 -103.9452,-141.94437 16.25214,-56.90015 89.0939,-85.67652 162.68175,-64.35107 73.59809,21.401 119.9764,84.94589 103.80133,141.8979 -16.28275,57.11409 -89.05754,85.88481 -162.53788,64.39754 z"
         id="path1224" /></mask><mask
       id="mask-49"
       x="-149.89427"
       y="163.16028"
       width="296.7389"
       height="239.63937"
       maskUnits="userSpaceOnUse"><path
         class="cls-40"
         d="M -33.49244,395.06057 C -113.362,371.837 -164.13634,302.86615 -146.338,240.9264 c 17.66929,-61.91755 96.74088,-93.35257 176.82189,-70.10074 80.034,23.40327 130.40622,92.3732 112.88121,154.33692 -17.82852,61.8023 -96.82099,93.30102 -176.85754,69.89799 z"
         id="path1227" /></mask><mask
       id="mask-50"
       x="-165.86053"
       y="165.97843"
       width="317.61702"
       height="245.69815"
       maskUnits="userSpaceOnUse"><path
         class="cls-41"
         d="m -39.73371,403.03175 c -85.648,-24.93667 -140.664,-96.29454 -122.74059,-159.47666 18.01682,-63.00258 102.05542,-93.8801 187.97867,-68.92656 85.76493,24.84447 140.8263,96.25975 122.85063,159.52862 -17.94278,63.05474 -102.30951,93.78172 -188.08871,68.8746 z"
         id="path1230" /></mask><mask
       id="mask-51"
       x="-136.74357"
       y="173.68231"
       width="281.39246"
       height="227.1711"
       maskUnits="userSpaceOnUse"><path
         class="cls-43"
         d="m -26.3638,393.66687 c -75.80682,-22.02534 -123.74855,-87.54016 -107.0662,-146.21849 16.75025,-58.69613 91.77,-88.53959 167.64467,-66.51373 75.9387,22.00221 123.81176,87.52907 107.11111,146.49065 C 124.543,385.91879 49.4067,415.50244 -26.3638,393.66687 Z"
         id="path1233" /></mask><mask
       id="mask-52"
       x="-85.18444"
       y="194.48744"
       width="227.65846"
       height="183.96457"
       maskUnits="userSpaceOnUse"><path
         class="cls-44"
         d="M 4.08281,372.60888 C -57.25841,354.77825 -96.0565,301.67862 -82.474,254.23039 c 13.48451,-47.63373 74.36623,-71.734 135.65622,-53.82289 61.41252,17.81768 99.98967,70.819 86.6591,118.55669 -13.65553,47.40199 -74.29292,71.37614 -135.75851,53.64469 z"
         id="path1236" /></mask><mask
       id="mask-53"
       x="-67.06281"
       y="178.05294"
       width="185.23995"
       height="163.10696"
       maskUnits="userSpaceOnUse"><path
         class="cls-45"
         d="M -11.16262,325.38423 C -58.01884,298.81489 -79.7768,247.63113 -59.42783,211.38416 -39.1711,175.0163 15.39036,167.28267 62.29368,193.76639 c 46.95467,26.7602 68.528,77.63092 48.27858,114.07488 C 90.3022,344.13454 35.764,352.00072 -11.16262,325.38423 Z"
         id="path1239" /></mask><mask
       id="mask-55"
       x="-84.78334"
       y="175.89038"
       width="210.63395"
       height="185.56778"
       maskUnits="userSpaceOnUse"><path
         class="cls-46"
         d="m -21.24283,343.48845 c -53.44569,-30.24123 -77.979,-88.36141 -54.81035,-129.7352 22.9171,-41.25775 84.84726,-50.14693 138.34686,-19.98686 53.47311,30.37917 77.86507,88.45266 54.95748,129.78066 -23.19029,41.23419 -85.2941,50.29702 -138.49399,19.9414 z"
         id="path1242" /></mask><mask
       id="mask-56"
       x="-97.01455"
       y="174.33204"
       width="228.1188"
       height="200.92533"
       maskUnits="userSpaceOnUse"><path
         class="cls-47"
         d="m -28.19682,355.87072 c -57.874,-32.73236 -84.3775,-95.54344 -59.44628,-140.35183 25.06231,-44.83727 92.18626,-54.57212 149.93678,-21.7525 57.88905,32.801 84.3934,95.618 59.40733,140.50119 -24.95338,44.68086 -92.16668,54.29496 -149.89783,21.60314 z"
         id="path1245" /></mask></defs><title
     id="title1250">лого 1-07-07-07-07</title><metadata
     id="metadata1945"><rdf:RDF><cc:Work
         rdf:about=""><dc:title>лого 1-07-07-07-07</dc:title></cc:Work></rdf:RDF></metadata><g
     id="g2608"
     transform="translate(1.9157918,-5.747375)"><path
       style="fill:#fd9e9e;stroke-width:1.8247"
       d="m 300.69329,341.63099 -3.4838,-4.09643 4.11475,3.46829 c 3.86683,3.25934 4.94727,4.72457 3.48379,4.72457 -0.34702,0 -2.19866,-1.84339 -4.11474,-4.09643 z m -10.11779,-10.0135 c -2.27476,-2.88764 -2.21008,-2.95203 0.69047,-0.6874 1.7602,1.37431 3.20036,2.80806 3.20036,3.18611 0,1.49846 -1.50177,0.53402 -3.89083,-2.49871 z m -64.11675,-5.34013 c 1.32014,-0.52592 2.89746,-0.46125 3.50516,0.14365 0.60769,0.60498 -0.47244,1.03529 -2.40027,0.95624 -2.13043,-0.0874 -2.56376,-0.51877 -1.10489,-1.09996 z m -25.39837,-11.0456 -4.43352,-5.00675 5.02913,4.41379 c 4.70048,4.12536 5.86779,5.59971 4.43352,5.59971 -0.32757,0 -2.59068,-2.25303 -5.02913,-5.00675 z m 47.68657,4.43706 c 0,-0.31333 2.67458,-2.97601 5.94352,-5.91707 l 5.94352,-5.34737 -5.37128,5.91707 c -5.00678,5.51554 -6.51576,6.75392 -6.51576,5.34737 z m 14.77458,-27.80188 c 0.0878,-2.12095 0.52109,-2.55235 1.10488,-1.09998 0.52827,1.31427 0.46332,2.88457 -0.14429,3.48956 -0.60771,0.60498 -1.03992,-0.47034 -0.96051,-2.38958 z M 201.1988,268.35038 c 2.36232,-2.50337 4.70659,-4.55159 5.2095,-4.55159 0.50291,0 -1.01841,2.04822 -3.38073,4.55159 -2.36232,2.50338 -4.70659,4.55159 -5.2095,4.55159 -0.50292,0 1.01841,-2.04821 3.38073,-4.55159 z m 51.06728,-0.45516 -4.43352,-5.00675 5.02913,4.41379 c 4.70049,4.12536 5.86779,5.59971 4.43352,5.59971 -0.32757,0 -2.59068,-2.25304 -5.02913,-5.00675 z m 35.02953,-32.46801 c 0.0878,-2.12095 0.52109,-2.55235 1.10487,-1.09997 0.52828,1.31426 0.46332,2.88456 -0.14429,3.48956 -0.6077,0.60498 -1.03991,-0.47034 -0.96051,-2.38959 z m 1.82877,-10.92381 c 0.0878,-2.12095 0.5211,-2.55235 1.10488,-1.09998 0.52828,1.31426 0.46332,2.88456 -0.14429,3.48956 -0.6077,0.60498 -1.03992,-0.47034 -0.96051,-2.38958 z m -31.46683,-3.94472 c -2.32165,-2.94718 -2.23559,-2.98581 1.14766,-0.51519 2.01166,1.46902 4.00045,2.90277 4.41955,3.18612 0.41908,0.28334 -0.0973,0.51518 -1.14767,0.51518 -1.0503,0 -3.03909,-1.43375 -4.41954,-3.18611 z m -54.62998,-4.78383 c 0,-0.37806 1.44016,-1.81181 3.20036,-3.18612 2.90055,-2.26463 2.96523,-2.20024 0.69047,0.6874 -2.38906,3.03273 -3.89083,3.99717 -3.89083,2.49872 z m 27.19835,-27.98763 c -2.27476,-2.88763 -2.21007,-2.95203 0.69047,-0.68739 3.04628,2.37842 4.01504,3.87351 2.50989,3.87351 -0.37975,0 -1.81991,-1.43375 -3.20036,-3.18612 z"
       id="path2622" /><path
       style="fill:#a1a1a1;stroke-width:1.8247"
       d="m 212.66344,511.96428 c 1.77935,-0.46161 4.24819,-0.43126 5.48633,0.0675 1.23813,0.49873 -0.21768,0.8764 -3.23516,0.8393 -3.01748,-0.0371 -4.03051,-0.44515 -2.25117,-0.90675 z m 23.73928,0.007 c 1.76019,-0.45793 4.64051,-0.45793 6.40071,0 1.7602,0.45794 0.32004,0.83263 -3.20036,0.83263 -3.52039,0 -4.96055,-0.37469 -3.20035,-0.83263 z m -31.88927,-1.80931 c 1.32014,-0.52593 2.89746,-0.46126 3.50516,0.14365 0.60768,0.60498 -0.47245,1.03528 -2.40027,0.95623 -2.13043,-0.0874 -2.56376,-0.51877 -1.10489,-1.09996 z m 43.8906,0 c 1.32014,-0.52593 2.89746,-0.46126 3.50516,0.14365 0.60769,0.60498 -0.47244,1.03528 -2.40026,0.95623 -2.13044,-0.0874 -2.56376,-0.51877 -1.1049,-1.09996 z m 20.61182,-6.71762 c 1.8819,-1.67701 12.64903,-6.60299 12.64903,-5.78759 0,1.04865 -10.1384,6.46574 -12.10102,6.46574 -0.7205,0 -0.96709,-0.30545 -0.54801,-0.67877 z m 21.79291,-12.37547 c 7.59814,-7.62921 22.19895,-19.81451 17.37336,-14.49918 -3.01748,3.32373 -8.77812,8.56549 -12.80142,11.64836 -4.02331,3.08286 -6.08068,4.36574 -4.57194,2.85082 z m -139.98735,-11.06981 -7.22905,-7.73771 7.77229,7.19689 c 7.22816,6.69302 8.61267,8.27852 7.22906,8.27852 -0.29879,0 -3.79632,-3.48196 -7.7723,-7.7377 z m 165.5902,-15.02025 c 2.36232,-2.50338 4.70659,-4.55159 5.2095,-4.55159 0.50292,0 -1.0184,2.04821 -3.38072,4.55159 -2.36232,2.50337 -4.7066,4.55159 -5.20951,4.55159 -0.50291,0 1.01841,-2.04822 3.38073,-4.55159 z m -181.28201,-2.2758 c -2.27476,-2.88764 -2.21007,-2.95203 0.69047,-0.6874 1.76019,1.37431 3.20035,2.80806 3.20035,3.18612 0,1.49845 -1.50176,0.53401 -3.89082,-2.49872 z m -8.9106,-13.19961 c -1.07661,-2.0027 -1.54599,-3.64127 -1.04308,-3.64127 0.50291,0 1.79525,1.63857 2.87185,3.64127 1.0766,2.0027 1.54599,3.64127 1.04308,3.64127 -0.50292,0 -1.79525,-1.63857 -2.87185,-3.64127 z m 201.16526,0 c 1.0766,-2.0027 2.36894,-3.64127 2.87185,-3.64127 0.50292,0 0.0335,1.63857 -1.04307,3.64127 -1.0766,2.0027 -2.36894,3.64127 -2.87186,3.64127 -0.50291,0 -0.0335,-1.63857 1.04308,-3.64127 z m 11.02867,-20.93732 c 0,-1.00135 0.79773,-3.04956 1.77276,-4.55159 0.97503,-1.50202 1.77276,-1.91167 1.77276,-0.91032 0,1.00135 -0.79773,3.04957 -1.77276,4.55159 -0.97503,1.50203 -1.77276,1.91167 -1.77276,0.91032 z M 109.90442,412.02893 c 0.0877,-2.12095 0.52109,-2.55235 1.10488,-1.09997 0.52828,1.31426 0.46331,2.88456 -0.14438,3.48956 -0.60769,0.60498 -1.03992,-0.47035 -0.96051,-2.38959 z m 237.95291,-16.23401 c 0.0373,-3.00405 0.44713,-4.01257 0.9108,-2.24115 0.46367,1.77143 0.43318,4.22928 -0.0678,5.46191 -0.50095,1.23263 -0.88031,-0.21671 -0.84304,-3.22076 z m -131.18269,-15.93057 -9.07513,-9.55834 9.60107,9.03475 c 5.28059,4.96909 9.60107,9.27035 9.60107,9.55834 0,1.35854 -1.69423,-0.15294 -10.12701,-9.03475 z m 20.18527,0.45516 c 4.95351,-5.00675 9.41786,-9.10318 9.92078,-9.10318 0.50291,0 -3.13849,4.09643 -8.092,9.10318 -4.95352,5.00675 -9.41787,9.10318 -9.92078,9.10318 -0.50291,0 3.13849,-4.09643 8.092,-9.10318 z m 46.49535,4.09643 -4.43352,-5.00675 5.02913,4.41379 c 4.70048,4.12536 5.86779,5.59971 4.43352,5.59971 -0.32757,0 -2.59068,-2.25303 -5.02913,-5.00675 z m -177.25277,0.86475 c 0,-0.27539 6.37785,-6.62486 14.17301,-14.10993 l 14.173,-13.6092 -13.67004,14.10993 c -12.69644,13.10499 -14.67597,14.94063 -14.67597,13.6092 z m 228.59689,-13.15404 c -7.49335,-7.51013 -13.21279,-13.65477 -12.70988,-13.65477 0.50292,0 7.04531,6.14464 14.53866,13.65477 7.49335,7.51012 13.21279,13.65477 12.70987,13.65477 -0.50291,0 -7.0453,-6.14465 -14.53865,-13.65477 z m -184.93956,3.18611 c -2.27476,-2.88764 -2.21007,-2.95203 0.69047,-0.6874 1.76019,1.37431 3.20035,2.80806 3.20035,3.18612 0,1.49845 -1.50176,0.53401 -3.89082,-2.49872 z m -11.82752,-11.83413 -3.4838,-4.09644 4.11475,3.4683 c 3.86684,3.25934 4.94728,4.72457 3.48379,4.72457 -0.34702,0 -2.19866,-1.8434 -4.11474,-4.09643 z m 277.73127,-70.54966 c 0,-4.50607 0.35665,-6.34947 0.79254,-4.09643 0.43591,2.25304 0.43591,5.93982 0,8.19286 -0.43589,2.25304 -0.79254,0.40964 -0.79254,-4.09643 z m -2.18248,-11.98585 c 0.0878,-2.12095 0.5211,-2.55235 1.10488,-1.09997 0.52828,1.31426 0.46332,2.88456 -0.14429,3.48956 -0.60771,0.60497 -1.03992,-0.47035 -0.96051,-2.38959 z m -34.40877,-0.24442 c 2.77985,-0.41849 6.8946,-0.40729 9.14388,0.0248 2.24928,0.43215 -0.0251,0.77454 -5.05428,0.76088 -5.02913,-0.0146 -6.86944,-0.36726 -4.0896,-0.78573 z m 16.43384,-1.7692 c 1.76019,-0.45793 4.64051,-0.45793 6.40071,0 1.76019,0.45794 0.32003,0.83263 -3.20036,0.83263 -3.52039,0 -4.96055,-0.37469 -3.20035,-0.83263 z m 12.00133,-1.80932 c 1.32014,-0.52592 2.89746,-0.46125 3.50516,0.14365 0.60768,0.60498 -0.47245,1.03529 -2.40027,0.95624 -2.13043,-0.0874 -2.56376,-0.51877 -1.10489,-1.09996 z m 29.65931,-1.48725 c 0,-1.00135 0.79773,-3.04957 1.77276,-4.5516 0.97503,-1.50202 1.77276,-1.91166 1.77276,-0.91031 0,1.00135 -0.79773,3.04956 -1.77276,4.55159 -0.97503,1.50202 -1.77276,1.91167 -1.77276,0.91032 z m -69.12519,-6.37223 c 0,-3.50473 0.37636,-4.93848 0.83635,-3.18612 0.45998,1.75237 0.45998,4.61987 0,6.37223 -0.45999,1.75236 -0.83635,0.31861 -0.83635,-3.18611 z m -1.70504,-16.38573 c 0,-5.50742 0.34284,-7.76046 0.76185,-5.00675 0.41903,2.75371 0.41903,7.25979 0,10.0135 -0.41901,2.75371 -0.76185,0.50068 -0.76185,-5.00675 z m -29.35122,-12.17884 c 1.7602,-0.45792 4.64052,-0.45792 6.40071,0 1.7602,0.45795 0.32004,0.83264 -3.20035,0.83264 -3.5204,0 -4.96056,-0.37469 -3.20036,-0.83264 z m 18.74495,-0.56561 -9.14388,-1.24858 9.60107,-0.28604 c 5.37307,-0.16003 9.60107,0.51574 9.60107,1.53462 0,1.00135 -0.20574,1.69192 -0.45719,1.53461 -0.25146,-0.1573 -4.57194,-0.84789 -9.60107,-1.53461 z m -37.02871,-13.65477 c 0.0203,-4.0054 0.39481,-5.4296 0.83223,-3.16489 0.43743,2.26471 0.42082,5.54185 -0.0369,7.28255 -0.45772,1.74069 -0.81563,-0.11234 -0.79533,-4.11766 z m 137.00779,-10.0135 c 0.0296,-1.50203 0.71263,-4.77917 1.51794,-7.28255 1.17705,-3.65899 1.47472,-3.83752 1.51793,-0.91032 0.0296,2.0027 -0.65349,5.27985 -1.51793,7.28255 -0.96291,2.23084 -1.55088,2.58344 -1.51794,0.91032 z M 316.90972,209.1797 c 0,-4.50607 0.35664,-6.34947 0.79253,-4.09643 0.43591,2.25304 0.43591,5.93983 0,8.19286 -0.43589,2.25304 -0.79253,0.40965 -0.79253,-4.09643 z m -45.19767,-7.11275 c -0.56367,-0.90797 0.62219,-1.22205 2.63523,-0.69798 4.27017,1.1117 4.80995,2.34882 1.02484,2.34882 -1.44937,0 -3.09641,-0.74287 -3.66007,-1.65084 z m 35.11983,-3.27809 c 2.27484,-0.43548 5.56663,-0.41895 7.3151,0.0368 1.74848,0.45569 -0.11283,0.81201 -4.13606,0.7918 -4.02331,-0.0202 -5.45387,-0.39306 -3.17904,-0.82854 z m -39.336,-30.57348 c 0.0203,-4.0054 0.39482,-5.42959 0.83224,-3.16488 0.43743,2.26471 0.42082,5.54185 -0.0369,7.28255 -0.45772,1.74069 -0.81563,-0.11234 -0.79533,-4.11767 z m -35.20791,-7.57206 c 0,-0.99369 2.26311,-3.79292 5.02914,-6.2205 l 5.02913,-4.4138 -4.57194,5.46191 c -2.51457,3.00405 -4.77768,5.80328 -5.02913,6.22051 -0.25146,0.41723 -0.4572,-0.0544 -0.4572,-1.04812 z m 12.80143,-12.23201 c 0,-0.37806 1.44016,-1.81181 3.20036,-3.18611 2.90054,-2.26464 2.96523,-2.20024 0.69047,0.68739 -2.38906,3.03272 -3.89083,3.99717 -3.89083,2.49872 z m 7.3151,-5.46191 c 0,-0.37806 1.44016,-1.81181 3.20036,-3.18611 2.90054,-2.26464 2.96523,-2.20024 0.69047,0.68739 -2.38906,3.03272 -3.89083,3.99717 -3.89083,2.49872 z m 7.3151,-5.4619 c 0,-0.37807 1.44016,-1.81182 3.20036,-3.18612 2.90054,-2.26463 2.96523,-2.20024 0.69047,0.68739 -2.38906,3.03272 -3.89083,3.99717 -3.89083,2.49873 z m 182.73909,-38.911453 -4.43351,-5.00675 5.02913,4.413794 c 4.70048,4.125359 5.86779,5.599709 4.43352,5.599709 -0.32757,0 -2.59068,-2.25304 -5.02914,-5.006753 z m -14.49178,-9.55834 c -1.64825,-1.060448 -1.87381,-1.776006 -0.56512,-1.792757 1.19792,-0.01529 2.68665,0.791407 3.30829,1.792757 1.40322,2.260365 0.77013,2.260365 -2.74317,0 z m -69.83635,-1.243703 c 1.32014,-0.525929 2.89746,-0.461247 3.50516,0.14374 0.60769,0.604983 -0.47244,1.035288 -2.40027,0.956234 -2.13043,-0.08735 -2.56376,-0.518774 -1.10489,-1.099968 z"
       id="path2620" /><path
       style="fill:#fd6161;stroke-width:1.8247"
       d="m 143.82859,369.77619 c -0.49172,-0.79209 2.1343,-1.1545 5.83559,-0.80538 11.30878,1.06671 12.64243,1.81263 3.6372,2.03433 -4.71832,0.11615 -8.98107,-0.43687 -9.47279,-1.22895 z m 158.41003,0.18512 c 1.7602,-0.45793 4.64052,-0.45793 6.40072,0 1.76019,0.45795 0.32003,0.83263 -3.20036,0.83263 -3.52039,0 -4.96055,-0.37468 -3.20036,-0.83263 z m -146.7592,-26.74192 c 0,-0.37806 1.44016,-1.81181 3.20035,-3.18612 2.90054,-2.26463 2.96523,-2.20024 0.69047,0.6874 -2.38906,3.03273 -3.89082,3.99717 -3.89082,2.49872 z m 7.3151,-7.28255 c 0,-0.37805 1.44016,-1.8118 3.20035,-3.18611 2.90054,-2.26464 2.96523,-2.20024 0.69047,0.6874 -2.38906,3.03272 -3.89082,3.99717 -3.89082,2.49871 z m 58.06361,-7.92823 c 4.27476,-0.3833 11.26983,-0.3833 15.54459,0 4.27476,0.38331 0.77723,0.69694 -7.7723,0.69694 -8.54952,0 -12.04705,-0.31363 -7.77229,-0.69694 z m -1.71448,-3.55188 c 1.32014,-0.52593 2.89746,-0.46126 3.50516,0.14365 0.60768,0.60498 -0.47244,1.03528 -2.40027,0.95623 -2.13043,-0.0874 -2.56376,-0.51877 -1.10489,-1.09995 z m 14.6302,0 c 1.32014,-0.52593 2.89746,-0.46126 3.50516,0.14365 0.60769,0.60498 -0.47244,1.03528 -2.40027,0.95623 -2.13043,-0.0874 -2.56376,-0.51877 -1.10489,-1.09995 z M 192.1993,297.32885 c 0.0878,-2.12095 0.52109,-2.55235 1.10488,-1.09998 0.52827,1.31427 0.46332,2.88456 -0.1443,3.48956 -0.6077,0.60498 -1.03991,-0.47034 -0.9605,-2.38958 z m 69.49346,0 c 0.0878,-2.12095 0.52109,-2.55235 1.10487,-1.09998 0.52828,1.31427 0.46332,2.88456 -0.14429,3.48956 -0.6077,0.60498 -1.03991,-0.47034 -0.96051,-2.38958 z M 192.1993,286.40503 c 0.0878,-2.12095 0.52109,-2.55235 1.10488,-1.09997 0.52827,1.31426 0.46332,2.88456 -0.1443,3.48955 -0.6077,0.60498 -1.03991,-0.47034 -0.9605,-2.38958 z m 69.49346,0 c 0.0878,-2.12095 0.52109,-2.55235 1.10487,-1.09997 0.52828,1.31426 0.46332,2.88456 -0.14429,3.48955 -0.6077,0.60498 -1.03991,-0.47034 -0.96051,-2.38958 z m -40.72033,-27.49121 c 1.32014,-0.52593 2.89747,-0.46126 3.50516,0.14365 0.60768,0.60498 -0.47245,1.03529 -2.40027,0.95623 -2.13043,-0.0874 -2.56376,-0.51877 -1.10489,-1.09995 z m 10.85835,0.0379 c 1.25728,-0.50506 3.31465,-0.50506 4.57194,0 1.25728,0.50506 0.22859,0.91831 -2.28597,0.91831 -2.51457,0 -3.54325,-0.41325 -2.28597,-0.91831 z m 53.63605,-16.24199 c 0.0878,-2.12095 0.5211,-2.55235 1.10488,-1.09997 0.52828,1.31426 0.46332,2.88456 -0.14429,3.48956 -0.6077,0.60498 -1.03992,-0.47034 -0.96051,-2.38959 z M 168.42522,224.50334 c 0.0877,-2.12095 0.52109,-2.55235 1.10489,-1.09997 0.52828,1.31426 0.4633,2.88456 -0.14439,3.48956 -0.60768,0.60498 -1.03991,-0.47035 -0.96051,-2.38959 z m 30.9448,-3.26658 c 0,-0.37806 1.44016,-1.81181 3.20036,-3.18612 2.90054,-2.26463 2.96523,-2.20024 0.69047,0.6874 -2.38906,3.03273 -3.89083,3.99717 -3.89083,2.49872 z m -20.11653,-4.77451 c -1.50873,-0.97069 -1.92021,-1.76487 -0.91438,-1.76487 1.00582,0 3.0632,0.79418 4.57193,1.76487 1.50874,0.97069 1.92022,1.76487 0.91439,1.76487 -1.00582,0 -3.0632,-0.79418 -4.57194,-1.76487 z m -12.51267,-3.64128 c 0,-2.50337 0.41509,-3.52748 0.92241,-2.27579 0.50733,1.25169 0.50733,3.2999 0,4.55159 -0.50732,1.25169 -0.92241,0.22758 -0.92241,-2.2758 z m 41.77308,-2.50803 c 0,-0.37806 1.44016,-1.81181 3.20035,-3.18612 2.90055,-2.26463 2.96523,-2.20023 0.69048,0.6874 -2.38906,3.03273 -3.89083,3.99717 -3.89083,2.49872 z m 10.05826,-12.05706 c 1.82053,-2.0027 3.72152,-3.64127 4.22443,-3.64127 0.50292,0 -0.57513,1.63857 -2.39565,3.64127 -1.82053,2.0027 -3.72153,3.64128 -4.22444,3.64128 -0.50291,0 0.57513,-1.63858 2.39566,-3.64128 z m 16.28522,-4.09643 -3.48379,-4.09643 4.11474,3.46829 c 3.86684,3.25934 4.94728,4.72457 3.4838,4.72457 -0.34703,0 -2.19866,-1.84339 -4.11475,-4.09643 z"
       id="path2618" /><path
       style="fill:#5c5c5c;stroke-width:1.8247"
       d="m 149.94026,477.26839 -11.83421,-12.28929 12.34424,11.78154 c 11.46584,10.9432 13.18021,12.79705 11.8342,12.79705 -0.28051,0 -5.83541,-5.53018 -12.34423,-12.2893 z m 2.72725,-97.40404 -9.07513,-9.55834 9.60107,9.03475 c 5.28059,4.96909 9.60107,9.27035 9.60107,9.55834 0,1.35854 -1.69424,-0.15294 -10.12701,-9.03475 z m 22.01405,0.45516 c 4.95351,-5.00675 9.41786,-9.10318 9.92077,-9.10318 0.50292,0 -3.13849,4.09643 -8.092,9.10318 -4.95351,5.00675 -9.41785,9.10318 -9.92077,9.10318 -0.50291,0 3.13849,-4.09643 8.092,-9.10318 z m 40.16431,-0.45516 -9.07514,-9.55834 9.60107,9.03475 c 5.28059,4.96909 9.60107,9.27035 9.60107,9.55834 0,1.35854 -1.69423,-0.15294 -10.127,-9.03475 z m 86.02117,0.45516 c 4.95351,-5.00675 9.41786,-9.10318 9.92078,-9.10318 0.50291,0 -3.13849,4.09643 -8.092,9.10318 -4.95352,5.00675 -9.41787,9.10318 -9.92078,9.10318 -0.50291,0 3.13849,-4.09643 8.092,-9.10318 z M 136.63249,364.78657 c -2.82211,-2.47173 -4.40572,-4.49406 -3.51913,-4.49406 0.88658,0 3.54477,2.04822 5.90708,4.55159 5.46552,5.79188 4.25742,5.76277 -2.38795,-0.0575 z m 180.69353,-0.85279 c 1.82053,-2.0027 3.72152,-3.64127 4.22443,-3.64127 0.50291,0 -0.57513,1.63857 -2.39566,3.64127 -1.82052,2.0027 -3.72152,3.64128 -4.22443,3.64128 -0.50291,0 0.57513,-1.63858 2.39566,-3.64128 z m 100.37057,-55.42306 c -0.55641,-1.44353 -0.68934,-4.10621 -0.29542,-5.91707 0.44724,-2.05588 1.07321,-1.07013 1.6667,2.62461 0.99596,6.2002 0.34861,7.75448 -1.37128,3.29246 z m -48.1061,-31.20887 c 0.0878,-2.12095 0.52109,-2.55235 1.10487,-1.09998 0.52828,1.31427 0.46332,2.88457 -0.14429,3.48956 -0.6077,0.60498 -1.03991,-0.47034 -0.96051,-2.38958 z M 320.7715,239.32654 c -0.5564,-1.44352 -0.62604,-4.10621 -0.15471,-5.91706 0.57292,-2.20135 0.92721,-1.66967 1.06905,1.60438 0.18498,4.27012 1.08985,4.98825 7.07004,5.61102 l 6.85791,0.71416 -6.9153,0.30607 c -4.5571,0.20167 -7.26029,-0.58898 -7.92697,-2.31857 z m 132.94265,-18.46442 c 0.0878,-2.12095 0.52109,-2.55235 1.10487,-1.09997 0.52828,1.31426 0.46332,2.88456 -0.14429,3.48956 -0.6077,0.60498 -1.03991,-0.47034 -0.96051,-2.38959 z M 282.1569,200.63547 c 1.77934,-0.4616 4.24819,-0.43125 5.48632,0.0674 1.23814,0.49872 -0.21768,0.8764 -3.23515,0.83929 -3.01748,-0.0371 -4.03052,-0.44514 -2.25117,-0.90675 z m -11.04037,-6.02086 c 0,-3.50472 0.37636,-4.93848 0.83635,-3.18611 0.45997,1.75236 0.45997,4.61986 0,6.37222 -0.45999,1.75237 -0.83635,0.31862 -0.83635,-3.18611 z m 23.80699,4.20689 c 1.7602,-0.45793 4.64052,-0.45793 6.40072,0 1.76019,0.45795 0.32003,0.83263 -3.20036,0.83263 -3.52039,0 -4.96055,-0.37468 -3.20036,-0.83263 z m -25.63577,-18.77198 c 0,-3.50472 0.37636,-4.93848 0.83636,-3.18611 0.45997,1.75236 0.45997,4.61986 0,6.37222 -0.46,1.75237 -0.83636,0.31862 -0.83636,-3.18611 z m 192.26504,-17.29604 c 0.005,-10.0135 0.31186,-13.87765 0.68244,-8.587 0.37061,5.29066 0.36671,13.48352 -0.009,18.20636 -0.37486,4.72284 -0.67805,0.39414 -0.6733,-9.61936 z m -225.15007,-2.16533 c 1.76019,-0.45794 4.64051,-0.45794 6.40071,0 1.7602,0.45794 0.32004,0.83261 -3.20036,0.83261 -3.52039,0 -4.96055,-0.37467 -3.20035,-0.83261 z m 14.665,-1.82731 c 1.77934,-0.46161 4.24819,-0.43126 5.48633,0.0675 1.23813,0.49872 -0.21768,0.8764 -3.23516,0.83929 -3.01748,-0.0371 -4.03051,-0.44514 -2.25117,-0.90675 z m -11.46465,-5.11055 c 2.36232,-2.50337 4.70659,-4.55159 5.20951,-4.55159 0.50291,0 -1.01841,2.04822 -3.38073,4.55159 -2.36232,2.50338 -4.70659,4.5516 -5.2095,4.5516 -0.50292,0 1.0184,-2.04822 3.38072,-4.5516 z m 21.60241,3.30789 c 1.32014,-0.52593 2.89746,-0.46124 3.50516,0.14374 0.60768,0.60499 -0.47245,1.03529 -2.40027,0.95624 -2.13043,-0.0874 -2.56376,-0.51878 -1.10489,-1.09997 z m 180.3622,-57.471815 -5.37128,-5.917068 5.94352,5.347375 c 5.5402,4.984508 6.78412,6.486758 5.37128,6.486758 -0.31473,0 -2.98932,-2.66268 -5.94352,-5.917065 z M 389.21974,82.312096 c 1.32014,-0.525929 2.89746,-0.461248 3.50516,0.143739 0.60768,0.604983 -0.47245,1.035288 -2.40027,0.956234 -2.13043,-0.08735 -2.56376,-0.518774 -1.10489,-1.099968 z"
       id="path2616" /><path
       style="fill:#fd0202;stroke-width:1.8247"
       d="m 145.85427,363.25638 c 6.93357,-17.55683 18.11838,-30.1353 32.88869,-36.9867 11.62316,-5.39156 13.39616,-5.44279 26.11339,-0.75473 14.03574,5.17413 33.71345,5.01418 49.68045,-0.40383 l 12.19056,-4.13656 9.42677,3.56595 c 13.34731,5.04901 26.26708,17.27577 32.92044,31.1546 3.02956,6.31962 5.50829,12.35657 5.50829,13.41547 0,1.32777 -26.6418,1.88429 -85.84831,1.79326 l -85.84829,-0.132 2.96801,-7.51544 z m 71.8035,-39.69511 c -8.53518,-2.4146 -17.60693,-9.47541 -21.29409,-16.57387 -4.28614,-8.25158 -3.89794,-23.17869 0.79958,-30.74558 18.11935,-29.18728 64.90762,-17.98184 64.90762,15.54486 0,15.9366 -9.17085,27.54221 -25.21097,31.90416 -8.53085,2.31989 -10.59289,2.30598 -19.20214,-0.12963 z m -42.71223,-70.26105 c -1.42012,-2.2876 -7.33709,-40.41673 -6.41449,-41.33522 0.46753,-0.46544 6.52169,1.99458 13.4537,5.46675 6.93199,3.47218 13.57441,6.31304 14.76094,6.31304 1.18653,0 9.0103,-8.2643 17.38617,-18.3651 12.02555,-14.50212 15.63286,-17.83304 17.14967,-15.83561 7.77843,10.24321 29.15018,34.20071 30.50941,34.20071 0.92264,0 7.50195,-2.92008 14.62071,-6.48907 7.11875,-3.569 13.31219,-6.12175 13.76317,-5.67276 0.72302,0.71981 -3.35592,28.02047 -5.82935,39.01622 l -0.92147,4.09643 h -53.80611 c -29.59335,0 -54.1959,-0.62792 -54.67235,-1.39539 z"
       id="path2614" /><path
       style="fill:#2e2e2e;stroke-width:1.8247"
       d="m 233.89561,510.89722 c 0.88239,-0.87846 3.96771,-1.30374 6.85626,-0.94509 4.83459,0.6003 4.70709,0.72721 -1.60433,1.59719 -3.93139,0.54191 -6.17184,0.26372 -5.25193,-0.6521 z m -21.23217,-0.75358 c 1.77935,-0.4616 4.24819,-0.43125 5.48633,0.0675 1.23813,0.49872 -0.21768,0.8764 -3.23516,0.83929 -3.01748,-0.0371 -4.03051,-0.44514 -2.25117,-0.90675 z m 56.20004,-8.75182 c 2.51456,-1.43105 5.39488,-2.60192 6.40071,-2.60192 1.00583,0 -0.2286,1.17087 -2.74316,2.60192 -2.51457,1.43106 -5.39489,2.60193 -6.40072,2.60193 -1.00582,0 0.2286,-1.17087 2.74317,-2.60193 z m 22.85969,-13.65477 c 1.82052,-2.0027 3.72152,-3.64127 4.22443,-3.64127 0.50291,0 -0.57513,1.63857 -2.39566,3.64127 -1.82053,2.0027 -3.72152,3.64127 -4.22443,3.64127 -0.50292,0 0.57513,-1.63857 2.39566,-3.64127 z m 11.88703,-10.0135 c 3.4121,-3.50472 6.61529,-6.37222 7.1182,-6.37222 0.50291,0 -1.87733,2.8675 -5.28942,6.37222 -3.41209,3.50473 -6.61528,6.37223 -7.1182,6.37223 -0.50291,0 1.87733,-2.8675 5.28942,-6.37223 z m 10.97266,-12.74445 c 2.36232,-2.50338 4.70659,-4.55159 5.2095,-4.55159 0.50291,0 -1.01841,2.04821 -3.38073,4.55159 -2.36232,2.50337 -4.70659,4.55159 -5.2095,4.55159 -0.50292,0 1.0184,-2.04822 3.38073,-4.55159 z M 108.07564,397.46384 c 0.0877,-2.12095 0.52109,-2.55235 1.10489,-1.09997 0.52828,1.31426 0.46331,2.88456 -0.14439,3.48956 -0.60768,0.60498 -1.03991,-0.47035 -0.96051,-2.38959 z m 118.72601,-7.48911 c 1.50874,-0.53964 7.26938,-5.18585 12.80142,-10.32494 l 10.05827,-9.34378 -9.99579,10.46866 c -5.49769,5.75776 -11.25833,10.40397 -12.80143,10.32492 -2.45058,-0.12562 -2.4585,-0.26789 -0.0625,-1.12486 z m 59.5406,-0.38224 c -0.56366,-0.90797 0.62219,-1.22205 2.63523,-0.69798 4.27017,1.1117 4.80995,2.34882 1.02484,2.34882 -1.44937,0 -3.0964,-0.74288 -3.66007,-1.65084 z m 48.41382,-15.61425 -13.65912,-14.59605 14.48994,14.04142 c 7.96947,7.72278 14.11607,14.291 13.65912,14.59603 -0.45694,0.30505 -6.97742,-6.01358 -14.48994,-14.0414 z m -215.85216,-0.031 c 6.47976,-6.50877 12.19286,-11.83413 12.69577,-11.83413 0.50291,0 -4.38723,5.32536 -10.86699,11.83413 -6.47976,6.50878 -12.19285,11.83414 -12.69576,11.83414 -0.50292,0 4.38723,-5.32536 10.86698,-11.83414 z m 151.55506,-0.45515 c -2.27476,-2.88764 -2.21007,-2.95204 0.69048,-0.6874 1.76019,1.3743 3.20035,2.80805 3.20035,3.18611 0,1.49846 -1.50177,0.53401 -3.89083,-2.49871 z m 144.8509,-90.72837 c 0.0878,-2.12095 0.52109,-2.55235 1.10487,-1.09998 0.52828,1.31427 0.46332,2.88456 -0.14429,3.48956 -0.6077,0.60498 -1.03991,-0.47034 -0.96051,-2.38958 z m -37.17708,-3.86412 c 2.26311,-0.43397 5.96638,-0.43397 8.22949,0 2.26311,0.43395 0.41147,0.78901 -4.11474,0.78901 -4.52622,0 -6.37786,-0.35506 -4.11475,-0.78901 z m 19.23694,-1.79744 c 1.77935,-0.46161 4.24819,-0.43126 5.48633,0.0675 1.23813,0.49873 -0.21768,0.8764 -3.23516,0.8393 -3.01748,-0.0371 -4.03051,-0.44515 -2.25117,-0.90675 z m -29.46365,-18.76532 c 0,-2.50337 0.41509,-3.52748 0.92242,-2.27579 0.50732,1.25168 0.50732,3.2999 0,4.55159 -0.50733,1.25168 -0.92242,0.22758 -0.92242,-2.2758 z M 336.98535,238.8755 c 1.7602,-0.45793 4.64052,-0.45793 6.40071,0 1.7602,0.45794 0.32004,0.83263 -3.20035,0.83263 -3.5204,0 -4.96056,-0.37469 -3.20036,-0.83263 z m 13.73714,-1.85328 c 2.27483,-0.43548 5.56662,-0.41895 7.3151,0.0368 1.74847,0.45568 -0.11284,0.812 -4.13607,0.79179 -4.0233,-0.0202 -5.45386,-0.39306 -3.17903,-0.82854 z m 104.82043,-27.08391 c 0.0878,-2.12095 0.52109,-2.55235 1.10488,-1.09998 0.52827,1.31426 0.46332,2.88456 -0.14429,3.48956 -0.60771,0.60498 -1.03992,-0.47034 -0.96051,-2.38958 z m 1.97314,-9.86179 c 0,-2.50338 0.4151,-3.52748 0.92242,-2.2758 0.50732,1.25169 0.50732,3.29991 0,4.5516 -0.50732,1.25168 -0.92242,0.22757 -0.92242,-2.2758 z m -183.62345,0.61486 c 1.25728,-0.50506 3.31465,-0.50506 4.57194,0 1.25728,0.50507 0.22859,0.91832 -2.28597,0.91832 -2.51457,0 -3.54325,-0.41325 -2.28597,-0.91832 z m 36.11831,-2.4355 -7.3151,-1.30392 6.74997,-0.25835 c 3.71249,-0.14201 7.25859,0.56092 7.88023,1.56227 0.62164,1.00135 0.87594,1.70437 0.56513,1.56227 -0.31082,-0.14208 -3.85693,-0.84512 -7.88023,-1.56227 z m 149.46945,-10.92381 c 0,-3.50473 0.37636,-4.93848 0.83635,-3.18612 0.45997,1.75236 0.45997,4.61987 0,6.37223 -0.45999,1.75236 -0.83635,0.31861 -0.83635,-3.18611 z M 245.0894,150.23195 c 0,-0.37807 1.44016,-1.81182 3.20036,-3.18611 2.90054,-2.26464 2.96523,-2.20024 0.69047,0.68739 -2.38906,3.03272 -3.89083,3.99717 -3.89083,2.49872 z m 7.3151,-5.46191 c 0,-0.37807 1.44016,-1.81182 3.20036,-3.18611 2.90054,-2.26464 2.96523,-2.20024 0.69047,0.68739 -2.38906,3.03272 -3.89083,3.99717 -3.89083,2.49872 z m 207.00811,-3.8642 c 0.0373,-3.00405 0.44714,-4.01257 0.9108,-2.24114 0.46367,1.77141 0.43319,4.22927 -0.0678,5.4619 -0.50087,1.23263 -0.88023,-0.21671 -0.84296,-3.22076 z m -31.4457,-50.067497 c -1.64825,-1.060448 -1.87381,-1.776005 -0.56512,-1.792757 1.19792,-0.01529 2.68665,0.791407 3.30829,1.792757 1.40322,2.260365 0.77013,2.260365 -2.74317,0 z m -69.83635,-1.243702 c 1.32014,-0.525929 2.89746,-0.461248 3.50516,0.143739 0.60769,0.604983 -0.47244,1.035288 -2.40027,0.956235 -2.13043,-0.08736 -2.56376,-0.518774 -1.10489,-1.099969 z m 12.68713,-3.603344 c 1.25728,-0.505066 3.31466,-0.505066 4.57194,0 1.25728,0.505069 0.2286,0.918304 -2.28597,0.918304 -2.51457,0 -3.54325,-0.413235 -2.28597,-0.918304 z m 45.83368,-0.03792 c 1.32014,-0.525929 2.89745,-0.461248 3.50516,0.143739 0.60768,0.604983 -0.47245,1.035288 -2.40027,0.956234 -2.13043,-0.08735 -2.56376,-0.518774 -1.10489,-1.099968 z m -34.86103,-1.782713 c 1.25728,-0.505066 3.31466,-0.505066 4.57194,0 1.25728,0.505068 0.2286,0.918304 -2.28597,0.918304 -2.51457,0 -3.54325,-0.413236 -2.28597,-0.918304 z m 25.71715,-0.03792 c 1.32014,-0.525929 2.89746,-0.461247 3.50516,0.14374 0.60768,0.604982 -0.47245,1.035288 -2.40027,0.956234 -2.13043,-0.08735 -2.56376,-0.518774 -1.10489,-1.099968 z m -12.91572,-1.782712 c 1.25728,-0.505066 3.31465,-0.505066 4.57194,0 1.25728,0.505068 0.22859,0.918303 -2.28597,0.918303 -2.51457,0 -3.54326,-0.413235 -2.28597,-0.918303 z"
       id="path2612" /><path
       style="fill:#000000;stroke-width:1.8247"
       d="m 221.31532,511.58784 c -1.50874,-0.84008 -7.00892,-2.06507 -12.22263,-2.72223 -18.44042,-2.32435 -42.84626,-16.1532 -60.2901,-34.16164 -17.67274,-18.24474 -32.80626,-46.85192 -38.33488,-72.46518 l -3.20532,-14.84977 13.12353,-13.06512 13.12352,-13.06512 15.54843,15.39881 15.54842,15.39882 10.57699,-10.42003 c 10.29538,-10.14264 10.84502,-10.42005 20.6447,-10.42005 9.78005,0 10.3515,0.28609 20.00102,10.0135 5.46332,5.50742 10.81248,10.0135 11.88704,10.0135 1.07455,0 6.42371,-4.50608 11.88703,-10.0135 9.51839,-9.59523 10.332,-10.0135 19.47759,-10.0135 9.13046,0 9.9804,0.43417 19.60255,10.0135 5.53205,5.50742 10.95815,10.0135 12.05801,10.0135 1.09987,0 6.21241,-4.50608 11.3612,-10.0135 5.14878,-5.50743 10.47467,-10.0135 11.83532,-10.0135 1.36064,0 2.47389,-1.12861 2.47389,-2.50804 0,-1.3794 1.27992,-3.56553 2.84426,-4.85804 2.43366,-2.01076 4.69686,-0.53169 15.67743,10.24574 l 12.83317,12.59575 -1.08084,8.42749 c -2.76657,21.57164 -17.27339,52.63019 -33.48881,71.69824 -19.66085,23.11962 -46.9036,39.9378 -68.29913,42.16411 -5.99195,0.6235 -11.32895,1.83355 -11.86003,2.68901 -1.22296,1.96998 -8.12318,1.92126 -11.72236,-0.0827 z m 196.62897,-216.1709 c -0.76183,-8.14445 -2.02974,-15.84643 -2.81757,-17.11551 -1.12634,-1.81435 -5.86704,-1.92907 -22.18495,-0.53678 -11.41388,0.97384 -20.98781,1.61418 -21.2754,1.42296 -0.28759,-0.19122 -1.33303,-8.03318 -2.3232,-17.42659 -2.93442,-27.83751 -1.72187,-25.9674 -15.99816,-24.67364 -6.73471,0.61033 -16.5654,1.65882 -21.84598,2.33001 -9.21807,1.17164 -9.60731,1.0468 -9.75758,-3.12971 -0.0861,-2.39251 -1.11475,-12.13325 -2.28597,-21.64607 l -2.12946,-17.29604 -7.3151,0.10577 c -4.02331,0.0581 -13.96045,0.76591 -22.08255,1.5728 l -14.76745,1.46705 -2.37054,-21.17366 c -1.30378,-11.6455 -3.10807,-21.62745 -4.00955,-22.18211 -0.90146,-0.55466 -7.81759,-0.0162 -15.36919,1.19658 -7.55158,1.21278 -14.19084,1.74641 -14.75392,1.18585 -1.39025,-1.38407 16.58248,-15.40881 37.69208,-29.41243 48.38253,-32.095837 104.77967,-50.639354 136.11147,-44.753779 23.41231,4.397925 38.87607,18.296919 46.13448,41.466169 4.84872,15.47742 4.40894,58.61355 -0.85243,83.61118 -5.15395,24.48728 -16.77609,58.73605 -27.63987,81.45075 l -8.77404,18.34533 -1.38512,-14.80807 z"
       id="path2610" /></g></svg>
