<?xml version="1.0" encoding="UTF-8" standalone="no"?>
<!-- Created with Inkscape (http://www.inkscape.org/) -->

<svg
   version="1.1"
   id="svg224"
   width="311.95459"
   height="286.60919"
   viewBox="0 0 311.95459 286.60919"
   sodipodi:docname="РЕДАКТОР РЕЙТИНГА.svg"
   inkscape:version="1.2.1 (9c6d41e410, 2022-07-14)"
   xml:space="preserve"
   xmlns:inkscape="http://www.inkscape.org/namespaces/inkscape"
   xmlns:sodipodi="http://sodipodi.sourceforge.net/DTD/sodipodi-0.dtd"
   xmlns="http://www.w3.org/2000/svg"
   xmlns:svg="http://www.w3.org/2000/svg"><defs
     id="defs228" /><sodipodi:namedview
     id="namedview226"
     pagecolor="#ffffff"
     bordercolor="#111111"
     borderopacity="1"
     inkscape:showpageshadow="0"
     inkscape:pageopacity="0"
     inkscape:pagecheckerboard="1"
     inkscape:deskcolor="#d1d1d1"
     showgrid="false"
     inkscape:zoom="1.0557862"
     inkscape:cx="-100.39911"
     inkscape:cy="256.20718"
     inkscape:window-width="1920"
     inkscape:window-height="1018"
     inkscape:window-x="-6"
     inkscape:window-y="-6"
     inkscape:window-maximized="1"
     inkscape:current-layer="g230" /><g
     inkscape:groupmode="layer"
     inkscape:label="Image"
     id="g230"
     transform="translate(84.131999,-129.12997)"><path
       style="fill:#000000;stroke-width:0.981965"
       d="m 77.077489,397.13374 c 0.343719,-0.52448 0.825605,-0.9536 1.070855,-0.9536 0.245251,0 0.445909,0.42912 0.445909,0.9536 0,0.52448 -0.481886,0.9536 -1.070856,0.9536 -0.588969,0 -0.789627,-0.42912 -0.445908,-0.9536 z M -0.70157358,374.37175 c -0.29890162,-0.4561 -0.2513167,-28.34882 0.1057427,-61.98383 l 0.6492002,-61.15456 H 9.4941196 18.934873 V 313.21718 375.201 H 9.3883806 c -5.2505714,0 -9.79105368,-0.37317 -10.08995418,-0.82925 z m 26.95876558,-50.9034 0.2615,-51.73265 h 9.606172 9.606171 l 0.2615,51.73265 0.2615,51.73265 H 36.124864 25.995692 Z m 27.057662,8.82078 v -42.91188 h 9.44315 9.44316 l 0.62881,42.11006 c 0.345842,23.16054 0.392346,42.47089 0.103342,42.91188 -0.289015,0.441 -4.821398,0.80181 -10.07197,0.80181 h -9.546492 z m 50.081766,42.00185 c -0.32802,-0.50052 -0.28404,-14.80081 0.0977,-31.77843 l 0.6941,-30.86839 2.96247,-1.23666 c 2.25294,-0.94045 3.55865,-0.98048 5.45167,-0.16708 1.36904,0.58826 4.28788,1.06957 6.4863,1.06957 h 3.99712 v 31.94551 31.9455 h -9.54649 c -5.25057,0 -9.81487,-0.40951 -10.14288,-0.91002 z m -24.84966,-1.67784 c -0.566592,-8.9827 0.401508,-69.64742 1.122294,-70.32716 1.11466,-1.05119 16.158146,-0.86415 17.267224,0.21468 0.397908,0.38706 0.841158,16.36659 0.984998,35.51005 l 0.26151,34.8063 -9.794372,0.27293 c -5.386898,0.15011 -9.815647,-0.0645 -9.841654,-0.4768 z M 56.457003,280.44151 c -0.734478,-0.8346 0.681846,-6.14751 4.861137,-18.23508 L 67.215723,245.1491 82.25837,231.34544 c 8.273452,-7.59202 22.66581,-20.91699 31.98303,-29.61106 l 16.94039,-15.80741 13.1503,12.40148 13.15029,12.40149 -32.11304,30.16193 -32.113036,30.16194 -13.650875,4.05171 c -23.586569,7.00072 -22.004362,6.63601 -23.148426,5.33599 z m 22.952086,-10.22375 c 3.444864,-1.09711 6.263395,-2.07269 6.263395,-2.16796 0,-0.0953 -3.58658,-3.53575 -7.970179,-7.64549 l -7.97018,-7.47225 -2.253648,6.38658 -2.253649,6.3866 3.343959,3.25363 c 1.839167,1.78949 3.621365,3.25363 3.960432,3.25363 0.339058,0 3.434995,-0.89763 6.87987,-1.99474 z M 105.13018,221.9174 c 13.76873,-12.97691 25.03405,-24.14747 25.03405,-24.82346 0,-0.67599 -0.72713,-1.49221 -1.61583,-1.81383 -1.99262,-0.72109 -51.976499,45.97316 -51.976499,48.55572 0,0.95772 0.755166,1.67595 1.762115,1.67595 0.969172,0 13.027445,-10.61747 26.796164,-23.59438 z m 43.7408,-27.88447 -13.14529,-12.47953 6.21918,-5.68791 c 3.93125,-3.59542 7.07374,-5.6879 8.54209,-5.6879 1.59865,0 5.57092,3.06307 12.74036,9.82427 12.71488,11.99086 12.83084,12.51269 4.60321,20.71456 l -5.81426,5.79606 z"
       id="path6817" /></g></svg>
