<?xml version="1.0" encoding="UTF-8" standalone="no"?>
<svg
   xmlns:dc="http://purl.org/dc/elements/1.1/"
   xmlns:cc="http://creativecommons.org/ns#"
   xmlns:rdf="http://www.w3.org/1999/02/22-rdf-syntax-ns#"
   xmlns:svg="http://www.w3.org/2000/svg"
   xmlns="http://www.w3.org/2000/svg"
   xmlns:sodipodi="http://sodipodi.sourceforge.net/DTD/sodipodi-0.dtd"
   xmlns:inkscape="http://www.inkscape.org/namespaces/inkscape"
   inkscape:version="1.0 (4035a4fb49, 2020-05-01)"
   sodipodi:docname="турагенство.svg"
   id="svg574"
   viewBox="0 0 50.05 54.94"
   style="shape-rendering:geometricPrecision; text-rendering:geometricPrecision; image-rendering:optimizeQuality; fill-rule:evenodd; clip-rule:evenodd"
   version="1.1"
   height="39.7594mm"
   width="36.221mm"
   xml:space="preserve"><metadata
   id="metadata578"><rdf:RDF><cc:Work
       rdf:about=""><dc:format>image/svg+xml</dc:format><dc:type
         rdf:resource="http://purl.org/dc/dcmitype/StillImage" /><dc:title></dc:title></cc:Work></rdf:RDF></metadata><sodipodi:namedview
   inkscape:current-layer="svg574"
   inkscape:window-maximized="0"
   inkscape:window-y="0"
   inkscape:window-x="0"
   inkscape:cy="75.135873"
   inkscape:cx="68.449135"
   inkscape:zoom="5.5898732"
   showgrid="false"
   id="namedview576"
   inkscape:window-height="480"
   inkscape:window-width="900"
   inkscape:pageshadow="2"
   inkscape:pageopacity="0"
   guidetolerance="10"
   gridtolerance="10"
   objecttolerance="10"
   borderopacity="1"
   bordercolor="#666666"
   pagecolor="#ffffff" />
 <defs
   id="defs568">
  <style
   id="style566"
   type="text/css">
   <![CDATA[
    .fil0 {fill:#2B2A29}
   ]]>
  </style>
 </defs>
 <g
   id="Слой_x0020_1">
  <metadata
   id="CorelCorpID_0Corel-Layer" />
  <path
   id="path571"
   d="M18.7 0c2.71,0 4.9,2.19 4.9,4.9 0,2.71 -2.19,4.9 -4.9,4.9 -2.71,0 -4.9,-2.19 -4.9,-4.9 0,-2.71 2.19,-4.9 4.9,-4.9zm-15.57 5.78l6.45 0c1.72,0 3.13,1.41 3.13,3.13l0 0c0,1.72 -1.41,3.13 -3.13,3.13l-6.45 0c-1.72,0 -3.13,-1.41 -3.13,-3.13l0 -0c0,-1.72 1.41,-3.13 3.13,-3.13zm-1.97 8.26l0 1.11 6.17 6.67 0.12 -7.77 -6.29 0zm12.52 6.18l-4.34 2.54 0.13 -8.71c0.48,-0.02 0.97,-0.07 1.45,-0.14l2.76 6.32zm-12.52 -2.03l0 8.68c0,2.85 4.88,2.78 6.05,2.73l0.07 -4.79 -6.12 -6.62zm18.95 36.57c-0.54,0.35 -1.27,0.19 -1.62,-0.35 -0.35,-0.54 -0.19,-1.27 0.35,-1.62l13.35 -8.55c0.21,-0.13 0.44,-0.19 0.67,-0.19l4.94 -0.13 2.01 -9.98c0.04,-0.2 0.13,-0.38 0.26,-0.53l-0 -0 7.92 -9.28c0.42,-0.49 1.16,-0.55 1.65,-0.13 0.49,0.42 0.55,1.16 0.13,1.65l-7.73 9.05 -2.13 10.55c-0.09,0.54 -0.56,0.96 -1.13,0.98l-5.6 0.15 -13.07 8.38zm-5.79 -3.52c-0.34,1.17 -1.56,1.84 -2.73,1.5 -1.17,-0.34 -1.84,-1.56 -1.5,-2.73l2.94 -10.04c-1.32,-5.63 -3.86,-7.94 -3.9,-14.69l5.38 -3.14c0.49,1.12 2.33,5.78 2.99,6.48 0.87,0.72 1.79,1.42 2.62,1.89 2.91,1.68 5.12,3.36 5.12,3.36 0.48,0.36 0.77,0.89 0.85,1.44l1.17 7.97c0.18,1.21 -0.66,2.33 -1.87,2.5 -1.21,0.18 -2.33,-0.66 -2.5,-1.87l-1.04 -7.05c-0.82,-0.58 -2.26,-1.56 -3.95,-2.55 -0.93,-0.54 -1.94,-1.28 -2.89,-2.06 0.72,2.49 2.39,6.8 2.4,6.81 0.17,0.43 0.2,0.93 0.06,1.41l-3.14 10.75zm-0.92 -37.04c-0.47,-1.12 0.05,-2.41 1.17,-2.89 1.12,-0.47 2.41,0.05 2.89,1.17l3.24 7.64 8.63 2.15c1.18,0.29 1.9,1.49 1.61,2.67 -0.29,1.18 -1.49,1.9 -2.67,1.61l-9.69 -2.42 0 -0c-0.65,-0.16 -1.22,-0.62 -1.5,-1.28l-3.68 -8.65z"
   class="fil0" />
 </g>
</svg>
