<?xml version="1.0" encoding="UTF-8" standalone="no"?>
<svg
   xmlns:dc="http://purl.org/dc/elements/1.1/"
   xmlns:cc="http://creativecommons.org/ns#"
   xmlns:rdf="http://www.w3.org/1999/02/22-rdf-syntax-ns#"
   xmlns:svg="http://www.w3.org/2000/svg"
   xmlns="http://www.w3.org/2000/svg"
   xmlns:sodipodi="http://sodipodi.sourceforge.net/DTD/sodipodi-0.dtd"
   xmlns:inkscape="http://www.inkscape.org/namespaces/inkscape"
   xml:space="preserve"
   width="27.292414mm"
   height="36.796638mm"
   version="1.1"
   style="clip-rule:evenodd;fill-rule:evenodd;image-rendering:optimizeQuality;shape-rendering:geometricPrecision;text-rendering:geometricPrecision"
   viewBox="0 0 47.162436 63.592594"
   id="svg462"
   sodipodi:docname="ресторан.svg"
   inkscape:version="1.0 (4035a4fb49, 2020-05-01)"><metadata
   id="metadata466"><rdf:RDF><cc:Work
       rdf:about=""><dc:format>image/svg+xml</dc:format><dc:type
         rdf:resource="http://purl.org/dc/dcmitype/StillImage" /><dc:title></dc:title></cc:Work></rdf:RDF></metadata><sodipodi:namedview
   inkscape:document-rotation="0"
   pagecolor="#ffffff"
   bordercolor="#666666"
   borderopacity="1"
   objecttolerance="10"
   gridtolerance="10"
   guidetolerance="10"
   inkscape:pageopacity="0"
   inkscape:pageshadow="2"
   inkscape:window-width="1920"
   inkscape:window-height="1018"
   id="namedview464"
   showgrid="false"
   inkscape:zoom="4.2643606"
   inkscape:cx="48.564072"
   inkscape:cy="90.65876"
   inkscape:window-x="-6"
   inkscape:window-y="-6"
   inkscape:window-maximized="1"
   inkscape:current-layer="svg462" />
 <defs
   id="defs456">
  <style
   type="text/css"
   id="style454">
   <![CDATA[
    .fil0 {fill:#2B2A29}
   ]]>
  </style>
 </defs>
 
<path
   id="path8"
   d="m 22.752159,63.511272 c -0.912565,-0.23797 -1.544401,-0.942208 -1.872052,-2.086579 -0.17865,-0.623966 -0.165521,-3.096184 0.04552,-8.57156 0.08625,-2.237763 0.207661,-5.480268 0.269795,-7.205566 0.06214,-1.725299 0.178353,-4.911899 0.258262,-7.081333 0.07991,-2.169435 0.164492,-4.61529 0.187961,-5.435234 0.02347,-0.819943 0.05983,-1.607184 0.08081,-1.749423 l 0.03813,-0.258616 -1.289686,-0.942843 C 19.761575,29.661554 19.111107,29.173612 19.025418,29.095804 18.873615,28.95796 18.868487,28.881992 18.825413,26.132658 18.617017,12.831324 20.101851,3.7817958 22.996968,0.70853197 c 0.868627,-0.9220762 1.620586,-0.944718 2.148706,-0.0646984 l 0.223668,0.37270223 -0.02589,8.478964 c -0.01424,4.6634302 -0.04827,11.3441082 -0.07562,14.8459512 -0.02735,3.501844 -0.02548,7.34533 0.0041,8.541082 0.05366,2.166017 0.151841,6.012661 0.432041,16.92687 0.08113,3.1602 0.181416,6.794041 0.222853,8.075204 0.0816,2.523011 0.03464,3.172844 -0.29248,4.046915 -0.468437,1.251679 -1.652203,1.900503 -2.882225,1.57975 z M 4.249179,63.377124 C 4.037062,63.289064 3.776991,63.131334 3.671243,63.026629 3.226682,62.586444 2.906802,61.823786 2.726025,60.773045 2.59423,60.007001 2.609083,57.454363 2.763795,54.281823 2.832935,52.864004 2.925296,50.725628 2.969038,49.529876 3.012778,48.334125 3.095423,46.26563 3.152687,44.933222 3.209957,43.600813 3.315313,38.698809 3.386821,34.039881 3.508367,26.120977 3.50871,25.564521 3.392121,25.4988 3.323511,25.46013 3.056837,25.330937 2.799516,25.211697 2.542195,25.092456 2.076197,24.784977 1.763964,24.52841 1.284142,24.134132 1.137817,23.960967 0.81864896,23.409697 c -0.438682,-0.757697 -0.646895,-1.345724 -0.773466,-2.184392 -0.09462,-0.626929 -0.07524,-1.14955 0.310467,-8.37549 0.07751,-1.451984 0.199541,-3.7790402 0.271192,-5.1712362 l 0.130275,-2.531266 h 0.202506 c 0.20250004,0 0.20250804,1.9e-5 0.24704704,0.574582 0.0245,0.31602 0.09608,1.469066 0.159067,2.562324 0.06299,1.093259 0.178957,3.0499422 0.257704,4.3481872 0.07875,1.298244 0.182104,3.031307 0.22968,3.851251 0.06818,1.175121 0.110723,1.513825 0.200881,1.599511 0.134924,0.128231 0.302438,0.136246 0.481376,0.02303 0.148088,-0.09369 0.153177,-0.141876 0.31895,-3.020173 0.128314,-2.227901 0.383226,-6.5154392 0.507803,-8.5410812 l 0.08787,-1.428689 0.197752,-0.01907 0.197752,-0.01907 0.04601,0.578122 c 0.02531,0.317968 0.07949,1.276939 0.120412,2.131047 0.04092,0.854108 0.106143,2.125953 0.144939,2.8263212 0.0388,0.700368 0.141728,2.671029 0.228739,4.379245 0.164105,3.221754 0.204196,3.505704 0.508718,3.603064 0.199692,0.06384 0.4399,-0.233034 0.48862,-0.603894 0.04076,-0.31028 0.334479,-4.20001 0.756498,-10.0183852 0.104077,-1.434902 0.204783,-2.671806 0.223791,-2.748675 0.02419,-0.09782 0.08792,-0.139764 0.212356,-0.139764 0.242815,0 0.195962,-0.801517 0.535588,9.1622502 0.131031,3.844134 0.142901,3.944427 0.466832,3.944427 0.07471,0 0.196858,-0.05618 0.271438,-0.124839 C 7.969889,17.95615 8.028814,17.419775 8.3766,13.268499 8.591954,10.697967 8.824118,7.8820118 8.892519,7.0108218 c 0.1507004,-1.919384 0.1396154,-1.863509 0.3696814,-1.863509 0.156683,0 0.185302,0.03471 0.217687,0.263997 0.09367,0.663228 0.285498,6.3207132 0.347727,10.2554982 0.08987,5.682845 0.0331,6.658707 -0.446363,7.672171 C 9.0216654,24.099052 8.232627,24.82852 7.213142,25.3434 l -0.537481,0.271449 0.0438,7.671444 c 0.0294,5.148977 0.08124,8.468012 0.15768,10.094005 0.416099,8.851261 0.584202,13.323543 0.593051,15.777706 0.0048,1.326547 -0.01824,1.713591 -0.128892,2.166741 C 7.077797,62.403863 6.574998,63.144944 5.929791,63.40517 5.45008,63.598652 4.754847,63.587049 4.249229,63.37712 Z m 35.239905,0.07443 c -0.825579,-0.245809 -1.345523,-0.940457 -1.594578,-2.130365 -0.144762,-0.691625 -0.140598,-1.288762 0.03478,-4.989505 0.08015,-1.691134 0.182198,-4.053132 0.226785,-5.248883 0.04459,-1.195751 0.111741,-2.900862 0.149233,-3.789134 0.10177,-2.411195 0.255199,-21.918376 0.172575,-21.941323 -0.03798,-0.01055 -0.272366,-0.119384 -0.520851,-0.241856 -2.163155,-1.06617 -3.608791,-3.149587 -4.1757,-6.017918 -0.331775,-1.678649 -0.03983,-5.153694 0.614374,-7.313032 0.410032,-1.353388 1.134244,-2.8074332 1.813148,-3.6403702 1.021474,-1.25323 2.340434,-2.114039 3.669995,-2.395192 0.822415,-0.17391 2.072042,0.146568 3.101133,0.795313 1.996351,1.258513 3.552043,4.4150162 4.089823,8.2982692 0.162843,1.175868 0.109205,3.414054 -0.106437,4.441363 -0.406881,1.93836 -1.083844,3.29499 -2.2232,4.455277 -0.664121,0.676322 -1.76444,1.35912 -2.591969,1.608433 l -0.264763,0.07977 9.4e-4,1.742325 c 0.0014,2.518844 0.210292,16.695299 0.259586,17.613207 0.03922,0.730266 0.09177,1.88177 0.374207,8.199438 0.06339,1.41782 0.165186,3.612186 0.226223,4.876371 0.115733,2.397029 0.08859,3.07799 -0.153279,3.845786 -0.361312,1.146948 -1.247357,1.839204 -2.347903,1.83439 -0.266536,-0.0012 -0.605893,-0.03823 -0.754126,-0.08236 z"
   style="fill:#000000;stroke-width:0.0680527" /></svg>
