<?xml version="1.0" encoding="UTF-8" standalone="no"?>
<svg
   xmlns:dc="http://purl.org/dc/elements/1.1/"
   xmlns:cc="http://creativecommons.org/ns#"
   xmlns:rdf="http://www.w3.org/1999/02/22-rdf-syntax-ns#"
   xmlns:svg="http://www.w3.org/2000/svg"
   xmlns="http://www.w3.org/2000/svg"
   xmlns:sodipodi="http://sodipodi.sourceforge.net/DTD/sodipodi-0.dtd"
   xmlns:inkscape="http://www.inkscape.org/namespaces/inkscape"
   inkscape:version="1.0 (4035a4fb49, 2020-05-01)"
   sodipodi:docname="лук.svg"
   viewBox="0 0 244 207"
   height="207"
   width="244"
   id="svg17"
   version="1.1">
  <metadata
     id="metadata23">
    <rdf:RDF>
      <cc:Work
         rdf:about="">
        <dc:format>image/svg+xml</dc:format>
        <dc:type
           rdf:resource="http://purl.org/dc/dcmitype/StillImage" />
        <dc:title></dc:title>
      </cc:Work>
    </rdf:RDF>
  </metadata>
  <defs
     id="defs21" />
  <sodipodi:namedview
     inkscape:current-layer="g25"
     inkscape:window-maximized="1"
     inkscape:window-y="-6"
     inkscape:window-x="-6"
     inkscape:cy="128.34658"
     inkscape:cx="98.057585"
     inkscape:zoom="2.0289855"
     showgrid="false"
     id="namedview19"
     inkscape:window-height="1018"
     inkscape:window-width="1920"
     inkscape:pageshadow="2"
     inkscape:pageopacity="0"
     guidetolerance="10"
     gridtolerance="10"
     objecttolerance="10"
     borderopacity="1"
     bordercolor="#666666"
     pagecolor="#ffffff"
     inkscape:document-rotation="0" />
  <g
     id="g25"
     inkscape:label="Image"
     inkscape:groupmode="layer">
    <path
       id="path74"
       d="m 58.754028,203.87323 c -4.56723,-1.06133 -6.09398,-8.25953 -2.44659,-11.53498 1.51821,-1.36339 1.84288,-2.51493 1.38777,-4.92217 -0.35272,-1.86571 -0.1523,-3.41335 0.4933,-3.80928 3.76515,-2.30909 4.96815,-13.31913 2.86526,-26.22328 -1.22671,-7.52756 -3.68214,-12.1305 -12.6969,-23.8016 -2.67102,-3.45808 -4.85641,-7.12513 -4.85641,-8.14898 0,-4.34572 -3.372,-8.9422 -8.34876,-11.38046 -2.71513,-1.33022 -5.8223,-3.39026 -6.90481,-4.57787 -1.08251,-1.18761 -4.40385,-3.2013 -7.38076,-4.47489 -16.15312,-6.91068 -18.16435,-8.30845 -19.8133,-13.769839 -1.56146998,-5.171601 0.15291,-6.972255 9.32492,-9.794241 5.6404,-1.735399 9.59329,-2.186729 19.83734,-2.264968 7.03633,-0.05374 16.07233,0.295335 20.08,0.775723 l 7.28668,0.873433 -0.76917,-2.338229 c -0.42305,-1.286026 -0.95835,-6.073459 -1.18957,-10.638739 -0.48357,-9.548052 0.87381,-13.108051 6.81829,-17.882303 2.98886,-2.400473 4.57174,-2.863664 11.21357,-3.281375 7.07697,-0.445077 8.19295,-0.251332 13.14603,2.282279 3.41023,1.744409 5.52831,3.49116 5.72544,4.721705 0.17209,1.074184 1.01867,3.487517 1.88129,5.362962 0.86263,1.875446 1.64564,5.830395 1.74003,8.788776 0.23842,7.473061 0.32069,7.820201 1.85329,7.820201 1.36492,0 7.752082,-6.626252 38.571772,-40.015622 21.14881,-22.912161 34.52973,-36.15376682 36.53411,-36.15376682 1.69341,0 4.18449,3.42930022 4.83477,6.65565882 0.34472,1.710306 1.15294,3.109648 1.79607,3.109648 0.64312,0 6.29971,1.679404 12.57018,3.732009 11.96928,3.918076 18.75615,8.273746 23.61172,15.153518 1.19808,1.697526 2.97142,3.660628 3.94077,4.362448 0.96935,0.70182 1.76245,2.109319 1.76245,3.127776 0,2.945655 2.0709,6.668441 4.63796,8.337506 1.82792,1.18848 2.29726,2.247135 2.06256,4.652214 -0.27808,2.849446 -0.58049,3.100826 -3.56424,2.962927 -2.75881,-0.127504 -3.70545,0.459001 -6.15354,3.812491 -5.21911,7.149347 -6.19355,17.021178 -2.50622,25.389979 l 1.61348,3.661989 h 12.8382 c 8.30819,0 12.62358,0.344572 12.22998,0.976531 -0.35053,0.562806 -5.5868,0.976531 -12.35935,0.976531 -6.46313,0 -11.75114,0.266143 -11.75114,0.59143 0,0.325286 1.10712,1.897038 2.46026,3.492781 3.20008,3.773827 3.10684,6.370607 -0.36008,10.028997 -4.55137,4.80272 -6.68408,13.64619 -3.57633,14.82957 1.97267,0.75117 2.00463,8.46756 0.0417,10.08405 -0.97521,0.80313 -1.24029,2.1443 -0.82806,4.1896 0.49994,2.48043 0.33255,2.90406 -0.95392,2.4142 -2.12195,-0.80802 -4.39112,1.89674 -2.86324,3.41287 0.83637,0.82994 1.72365,0.78978 3.50993,-0.15885 2.12908,-1.13069 2.75772,-0.99171 5.74658,1.27046 2.37476,1.79739 3.66253,2.23583 4.40448,1.49959 0.57668,-0.57225 2.096,-0.89339 3.37625,-0.71364 3.15633,0.44314 4.03268,6.54236 1.05117,7.31604 -1.88346,0.48874 -4.22685,5.91464 -4.77799,11.06299 -0.14295,1.33525 -0.69264,2.57086 -1.22155,2.74581 -0.52891,0.17494 -2.30243,2.39145 -3.94119,4.92558 -2.83377,4.38207 -11.93578,11.86162 -18.30575,15.04269 -1.62377,0.81088 -6.16293,2.49336 -10.08704,3.73883 -6.5252,2.07104 -7.13473,2.48911 -7.13473,4.89369 0,1.44606 -0.84346,3.6628 -1.87433,4.92609 -1.79174,2.19567 -1.95778,2.22196 -3.76787,0.59644 -1.04141,-0.93524 -2.52951,-1.70044 -3.30684,-1.70044 -1.7294,0 -4.82478,-3.02142 -13.50585,-13.18316 -34.75369,-40.68133 -44.99503,-52.04292 -46.00665,-51.03909 -0.3013,0.29899 -0.57166,8.16986 -0.60078,17.49084 -0.0475,15.21934 0.21814,18.04244 2.60597,27.68906 2.51975,10.17959 4.60753,31.73725 3.07363,31.73725 -0.35919,0 -1.76665,-0.72403 -3.12769,-1.60895 -2.14329,-1.39353 -4.54326,-1.52691 -17.92523,-0.99619 -8.497832,0.33702 -19.879072,1.27222 -25.291622,2.07823 -9.9791,1.48603 -13.18556,1.6431 -16.72973,0.81952 z M 172.41774,182.03275 c 0,-3.11722 1.83494,-5.79499 3.97102,-5.79499 1.79644,0 1.93342,-0.70995 1.93117,-10.00944 -9.8e-4,-5.50519 -0.29349,-19.57456 -0.64927,-31.26526 -0.57391,-18.85928 -0.82429,-21.19996 -2.22067,-20.76018 -0.86561,0.27263 -6.66256,0.92846 -12.88212,1.45741 -12.63728,1.07475 -29.13892,5.46913 -30.65901,8.1645 -0.66896,1.18617 -2.26447,1.63338 -5.82741,1.63338 -6.09067,0 -6.20322,-0.24804 6.42545,14.15969 5.17849,5.90801 15.94477,18.31683 23.92506,27.57516 7.98029,9.25832 14.84176,16.83864 15.2477,16.84515 0.40594,0.007 0.73808,-0.89593 0.73808,-2.00542 z m 24.13725,-5.44191 c 10.12947,-3.84735 16.44277,-8.46661 19.65101,-14.37813 1.88365,-3.47081 1.88293,-3.48974 -0.2175,-5.71462 -2.53647,-2.68676 -3.87489,-6.02135 -5.7954,-14.4389 -0.79651,-3.4911 -2.94577,-10.08268 -4.77614,-14.64796 -1.83037,-4.56528 -3.63292,-9.95326 -4.00568,-11.97329 -0.37275,-2.02002 -1.0196,-3.88243 -1.43742,-4.13868 -0.87283,-0.53529 -18.51568,1.93291 -19.2869,2.69819 -0.98881,0.98121 1.63708,63.58305 2.72144,64.87957 1.55102,1.8545 2.83066,1.63197 13.14659,-2.28618 z m 22.11551,-28.12657 c 0,-1.31103 0.44285,-2.65528 0.9841,-2.98722 1.79839,-1.10292 1.03794,-4.15263 -1.17891,-4.72789 -2.41199,-0.6259 -4.72569,0.81495 -4.72569,2.94289 0,2.02729 2.83932,7.15592 3.96167,7.15592 0.52736,0 0.95883,-1.07266 0.95883,-2.3837 z m -8.05798,-28.1441 c 0.24405,-1.25747 -0.32719,-1.69771 -2.20293,-1.69771 -2.40582,0 -3.38861,1.75445 -1.84231,3.28885 1.18496,1.17586 3.70025,0.18651 4.04524,-1.59114 z m -1.96061,-9.27581 c 0.25575,-1.77876 -0.15776,-2.18721 -2.21423,-2.18721 -1.79601,0 -2.5287,0.51874 -2.5287,1.7903 0,3.78505 4.20519,4.13697 4.74293,0.39691 z m -43.12288,-12.80015 11.31716,-0.61717 0.29488,-4.51544 c 0.19901,-3.047355 -0.12095,-4.655929 -0.9841,-4.947556 -0.70344,-0.237667 -15.22862,-0.05454 -32.27817,0.406941 -25.00908,0.676926 -31.85493,1.154451 -35.42765,2.47122 -2.43565,0.897687 -6.64269,1.896958 -9.348962,2.220605 l -4.92051,0.58844 2.95231,1.15592 c 1.62376,0.63576 3.721262,1.59517 4.661122,2.13203 0.93986,0.53686 3.37551,1.00143 5.41256,1.03239 2.03705,0.031 5.47511,0.42723 7.64014,0.88062 3.85366,0.807 28.17727,0.41922 50.68122,-0.808 z m 33.26485,-5.255687 -0.29746,-5.126785 h -9.34896 -9.34896 l -0.29746,5.126785 -0.29745,5.126787 h 9.94387 9.94387 z m 6.58646,1.229857 c 0.83705,-1.606215 2.61981,-3.634228 3.96168,-4.506695 3.5665,-2.318881 3.00066,-3.314743 -1.88339,-3.314743 -4.85843,0 -5.51785,0.82646 -5.51785,6.915578 0,4.56409 1.34813,4.91913 3.43956,0.90586 z m -32.65872,-8.728946 c 3.62342,-0.735368 4.25596,-3.329674 0.92624,-3.798932 -2.75872,-0.388786 -2.93458,-2.129275 -0.21514,-2.129275 1.09951,0 2.23274,-0.604191 2.51831,-1.342647 0.28557,-0.738456 -0.28189,-14.690637 -1.26101,-31.004847 l -1.78023,-29.6622 -2.75564,-0.313723 c -2.02078,-0.230059 -3.18708,-1.21149 -4.37345,-3.680187 -0.88978,-1.851554 -1.95911,-3.248415 -2.37627,-3.104134 -0.41716,0.144282 -11.67908,11.907457 -25.02648,26.140391 -40.988312,43.707659 -40.751912,43.439347 -40.751912,46.254196 0,2.364489 0.33794,2.577881 4.182422,2.64097 2.30034,0.03775 5.06813,0.46727 6.15064,0.954489 2.13337,0.960192 59.49398,0.115139 64.76252,-0.954101 z m 27.25096,-1.964452 c 0,-1.042487 -0.38727,-2.132933 -0.8606,-2.423215 -0.47332,-0.290282 -5.1232,-0.249938 -10.33307,0.08966 -8.33454,0.543261 -9.47246,0.834361 -9.47246,2.423211 0,1.642031 0.93699,1.805778 10.33306,1.805778 9.57227,0 10.33307,-0.139555 10.33307,-1.895429 z m 10.82511,0.129012 c 0,-0.434438 -0.62427,-1.637061 -1.38727,-2.672496 -1.36132,-1.847397 -1.42574,-1.848058 -3.44435,-0.03529 -2.91461,2.617391 -2.56547,3.497674 1.38727,3.497674 1.89439,0 3.44435,-0.355449 3.44435,-0.789886 z m -10.15374,-6.231166 c 1.7039,-1.348082 5.23323,-17.242767 5.23323,-23.568344 0,-7.583156 1.69478,-14.635188 4.50463,-18.743867 1.31125,-1.917368 2.38408,-3.95178 2.38408,-4.520916 0,-0.569136 -2.65233,-3.61013 -5.89406,-6.757767 -5.2134,-5.062064 -6.83288,-6.002696 -14.02345,-8.145157 -4.47116,-1.3322 -9.77587,-2.712344 -11.78824,-3.066985 l -3.65887,-0.644804 0.54249,32.572457 c 0.29837,17.91485 0.72677,33.156991 0.95199,33.871425 0.32464,1.029808 2.49976,1.156559 10.49714,0.611701 5.54819,-0.377997 10.61118,-1.101482 11.25106,-1.607743 z M 212.58831,56.93338 c -0.46359,-3.126359 -2.77472,-3.461194 -2.77472,-0.402 0,1.641067 0.53981,2.522704 1.5446,2.522704 1.02576,0 1.43896,-0.712344 1.23012,-2.120704 z m 3.46999,-8.792263 c 0.77306,-1.224074 0.55536,-2.516336 -0.86474,-5.133022 -1.04385,-1.923402 -2.34068,-3.35064 -2.88184,-3.171641 -1.3009,0.430296 -2.85972,7.108747 -2.11111,9.044593 0.74476,1.925859 4.47142,1.455115 5.85769,-0.73993 z"
       style="fill:#000000;stroke-width:0.980309" />
  </g>
</svg>
