<?xml version="1.0" encoding="UTF-8" standalone="no"?>
<svg
   xmlns:dc="http://purl.org/dc/elements/1.1/"
   xmlns:cc="http://creativecommons.org/ns#"
   xmlns:rdf="http://www.w3.org/1999/02/22-rdf-syntax-ns#"
   xmlns:svg="http://www.w3.org/2000/svg"
   xmlns="http://www.w3.org/2000/svg"
   xmlns:sodipodi="http://sodipodi.sourceforge.net/DTD/sodipodi-0.dtd"
   xmlns:inkscape="http://www.inkscape.org/namespaces/inkscape"
   inkscape:version="1.0 (4035a4fb49, 2020-05-01)"
   sodipodi:docname="ДАРТС.svg"
   version="1.1"
   id="svg4362"
   width="1712.7979"
   height="1709.3895"
   viewBox="0 0 1712.7978 1709.3895">
  <sodipodi:namedview
     inkscape:current-layer="svg4362"
     inkscape:window-maximized="1"
     inkscape:window-y="-6"
     inkscape:window-x="-6"
     inkscape:cy="1116.8247"
     inkscape:cx="1165.3509"
     inkscape:zoom="0.24267578"
     showgrid="false"
     id="namedview261"
     inkscape:window-height="1018"
     inkscape:window-width="1920"
     inkscape:pageshadow="2"
     inkscape:pageopacity="0"
     guidetolerance="10"
     gridtolerance="10"
     objecttolerance="10"
     borderopacity="1"
     bordercolor="#666666"
     pagecolor="#ffffff"
     inkscape:document-rotation="0" />
  <metadata
     id="metadata4368">
    <rdf:RDF>
      <cc:Work
         rdf:about="">
        <dc:format>image/svg+xml</dc:format>
        <dc:type
           rdf:resource="http://purl.org/dc/dcmitype/StillImage" />
        <dc:title></dc:title>
      </cc:Work>
    </rdf:RDF>
  </metadata>
  <defs
     id="defs4366" />
  <path
     id="path7"
     d="M 801.761,1707.1753 C 670.0955,1696.2047 568.2011,1667.7711 459.9522,1611.7936 218.3571,1486.8602 48.667,1250.4347 9.0069,983.50181 3.3114,945.16811 0.0436,907.56328 0.0194,880.07898 L 4e-4,858.08048 h 21.4859 21.4858 v 21.4344 21.4344 h 12.4392 12.4392 v -21.4344 -21.4344 H 78.028 88.2055 v 21.4344 21.4344 h 12.4391 12.4392 v -21.1524 -21.1523 l 7.0059,-1.3979 c 8.0276,-1.6017 18.227,0.3733 20.6649,4.0015 0.9139,1.3601 1.687,11.6107 1.718,22.7792 0.063,22.5338 4.7616,68.13013 10.231,99.27513 16.8873,96.16259 60.9535,200.22269 119.8977,283.13199 55.4353,77.9738 131.8105,148.8863 212.5267,197.3259 105.1751,63.1178 214.0971,96.4247 334.7268,102.3549 l 31.6633,1.5565 0.6782,10.445 c 0.6756,10.4046 0.6462,10.451 -7.6031,11.9949 -11.9899,2.2439 -19.0842,10.2194 -19.0842,21.4545 v 9.1276 h 12.4391 12.4392 l 0.1531,-7.3329 c 0.1418,-6.7911 0.3296,-6.9684 2.543,-2.3999 3.4058,7.0297 0.5354,16.5015 -5.0008,16.5015 -3.4703,0 -4.4803,1.5259 -4.4803,6.7688 0,4.4402 1.1397,6.7687 3.313,6.7687 1.8221,0 4.2893,1.82 5.4826,4.0445 2.0046,3.7366 1.0414,3.9728 -12.6518,3.103 l -14.8216,-0.9415 1.0084,13.9065 c 1.1569,15.9566 5.7477,22.2847 17.9621,24.7596 7.2232,1.4635 7.6593,2.1026 8.3125,12.1801 l 0.6893,10.6354 -21.0443,-0.3793 c -11.5744,-0.2086 -25.1154,-0.7184 -30.0911,-1.133 z m -146.1167,-65.9524 7.0242,-6.5458 v -34.0311 c 0,-33.954 -0.014,-34.0467 -6.2196,-40.9061 -4.8864,-5.4014 -8.6435,-7.1302 -17.5279,-8.0652 -23.7072,-2.4951 -34.2898,10.5718 -32.0831,39.6147 0.9303,12.2443 2.0745,15.4212 7.11,19.7422 6.1409,5.2695 17.9432,6.9394 20.4498,2.8934 3.1668,-5.1118 5.6541,-1.6379 5.6541,7.8969 0,8.649 -0.6701,10.1531 -4.5233,10.1531 -3.3171,0 -4.5233,-1.5041 -4.5233,-5.6406 0,-5.2646 -0.7539,-5.6406 -11.3084,-5.6406 h -11.3083 v 7.6963 c 0,12.0886 10.1851,19.3787 27.0744,19.3787 11.3977,0 14.0966,-0.8754 20.1814,-6.5459 z m -23.7015,-43.9084 c -0.6501,-1.6901 -0.8726,-9.0412 -0.4944,-16.3359 0.5829,-11.2421 1.3768,-13.3707 5.2109,-13.9702 3.342,-0.5225 3.7311,-0.1656 1.4899,1.3667 -2.1672,1.4815 -2.8131,6.3508 -2.2617,17.0479 0.7122,13.8174 -1.1011,19.2839 -3.9447,11.8915 z m -33.1195,2.5089 -0.6123,-45.6891 -6.4551,-0.7366 c -4.0998,-0.4678 -8.226,0.8939 -11.3084,3.7322 -2.6692,2.4578 -8.6697,6.0373 -13.3344,7.9543 -6.5914,2.7088 -8.4813,4.7362 -8.4813,9.0983 0,4.6832 1.2174,5.7299 7.3504,6.3198 l 7.3505,0.707 0.6275,32.1516 0.6275,32.1516 h 12.4239 12.4239 z m -187.8548,-98.711 c 3.9935,-19.2346 7.3012,-39.7947 7.3504,-45.6891 l 0.09,-10.7172 h -22.6166 -22.6167 v 7.8969 c 0,7.8395 0.073,7.8968 10.044,7.8968 5.5242,0 10.6209,0.9312 11.326,2.0693 1.0511,1.6966 -9.5612,56.1919 -13.7912,70.8194 -1.047,3.6206 0.1626,3.9965 10.8879,3.3844 l 12.0658,-0.6886 z M 260.0603,1364.0416 c 4.3364,-2.1698 9.1557,-6.4833 10.7096,-9.5856 3.468,-6.924 3.7549,-30.7007 0.4834,-40.0628 -3.0974,-8.8639 -12.8515,-13.2578 -22.2079,-10.004 -8.065,2.8048 -9.3086,1.7938 -9.3086,-7.5674 0,-9.04 4.9036,-13.9053 9.0235,-8.9531 2.3352,2.807 2.1878,3.4122 -0.8308,3.4122 -2.4063,0 -3.6694,1.9417 -3.6694,5.6406 0,3.5098 1.2816,5.6407 3.3925,5.6407 1.8659,0 3.3925,-1.0153 3.3925,-2.2563 0,-1.2409 5.0887,-2.2562 11.3083,-2.2562 12.6991,0 13.5494,-1.563 8.0253,-14.7525 -3.894,-9.2972 -10.5391,-12.3226 -27.0664,-12.3226 -9.5119,0 -13.1686,1.1159 -17.8546,5.4484 -8.0443,7.4373 -8.8107,11.9751 -7.9523,47.0851 0.6418,26.2482 1.3491,31.153 5.0849,35.2649 8.1998,9.0251 25.188,11.4138 37.47,5.2686 z m -18.9507,-15.4108 c -2.4522,-6.3749 -1.4501,-24.7944 1.5732,-28.9192 2.7573,-3.7617 3.1491,-3.7754 6.1128,-0.2128 2.7455,3.3003 2.6545,4.0924 -0.6844,5.9565 -4.23,2.3614 -5.6315,19.9757 -1.5894,19.9757 1.2439,0 2.2616,1.5229 2.2616,3.3843 0,4.493 -5.9295,4.3504 -7.6738,-0.1845 z m -33.0362,-30.2749 v -47.3813 h -5.8051 c -3.1927,0 -9.0493,2.4687 -13.0146,5.4859 -3.9652,3.0172 -10.0038,6.5456 -13.4191,7.841 -8.5102,3.2278 -8.9961,13.7482 -0.6349,13.7482 3.1967,0 6.5732,1.8615 7.9158,4.3641 1.2877,2.4003 2.3412,17.63 2.3412,33.8438 v 29.4796 h 11.3084 11.3083 z M 122.9762,1140.22 c 8.2539,-3.1306 11.3158,-10.577 11.357,-27.6202 0.027,-11.0791 -0.9866,-16.2306 -3.8035,-19.3358 -3.3993,-3.7472 -3.461,-4.7327 -0.5375,-8.5878 4.684,-6.1769 4.3793,-24.1404 -0.5117,-30.1632 -8.06,-9.9252 -34.294302,-10.362 -43.9477,-0.7318 -6.0544,6.0399 -7.6651,18.9809 -3.4192,27.4717 3.1326,6.2644 3.1338,7.6639 0.011,13.9075 -2.4364,4.8723 -3.1899,11.354 -2.5271,21.7384 0.8126,12.7314 1.8123,15.5409 7.1635,20.1328 4.872398,4.181 8.853498,5.3367 18.3849,5.3367 6.6912,0 14.7146,-0.9668 17.8297,-2.1483 z m -20.1091,-18.3344 c -2.0415,-9.2726 0.5857,-22.3861 4.4849,-22.3861 4.0716,0 6.4047,11.047 4.4869,21.2452 -1.8647,9.9159 -6.899,10.556 -8.9718,1.1409 z m 1.1696,-50.5893 c 0,-7.5208 0.8796,-10.1531 3.3925,-10.1531 2.513,0 3.3925,2.6323 3.3925,10.1531 0,7.5208 -0.8795,10.1531 -3.3925,10.1531 -2.5129,0 -3.3925,-2.6323 -3.3925,-10.1531 z m 755.3969,626.9276 c 0,-10.6501 0.3393,-11.2653 7.3504,-13.3244 13.4912,-3.9623 20.1702,-30.1506 11.8051,-46.2881 -2.5425,-4.905 -2.8427,-7.83 -1.1308,-11.0209 3.0519,-5.689 2.9857,-21.7654 -0.1134,-27.5423 -1.344,-2.5054 -5.9239,-6.0059 -10.1775,-7.7789 -7.2909,-3.039 -7.7338,-3.848 -7.7338,-14.1238 v -10.9003 l 33.3595,-1.3883 c 68.0876,-2.8337 127.8659,-14.2496 195.0689,-37.2526 51.0925,-17.4884 90.7855,-36.0642 139.1611,-65.1254 112.5386,-67.6066 206.3008,-168.7299 267.5009,-288.5017 6.3108,-12.3507 12.5508,-24.9941 13.8666,-28.0964 1.3158,-3.1024 3.2793,-7.1636 4.3634,-9.0251 5.0115,-8.6052 31.5034,-88.4368 36.6878,-110.5563 2.4722,-10.548 5.436,-22.2241 6.5862,-25.9469 3.8323,-12.40349 11.6339,-77.57102 13.1768,-110.06642 l 1.5231,-32.0775 h 21.4859 21.4858 l 1.1308,15.7938 c 1.3213,18.4529 2.521,20.83 12.6427,25.049 11.3195,4.7182 23.9512,3.949 32.8216,-1.9987 7.3605,-4.9353 7.7327,-5.864 8.8157,-21.9985 l 1.1309,-16.8456 21.2782,-0.6534 21.2783,-0.6535 -1.4417,35.6254 c -7.2262,178.56392 -72.7546,352.69132 -185.7706,493.64452 -155.8551,194.3821 -383.4721,309.3897 -634.9109,320.8002 l -31.241,1.4177 z m 230.6901,-96.7083 v -46.2532 h -7.5653 c -4.6767,0 -9.1183,1.712 -11.6325,4.4834 -2.2369,2.4659 -7.4834,5.7158 -11.6589,7.222 -6.0927,2.1979 -7.5917,3.9561 -7.5917,8.9043 0,5.0489 1.1265,6.295 6.2196,6.8796 l 6.2196,0.7139 0.5921,29.3313 c 0.3257,16.1322 1.057,30.6004 1.6253,32.1516 0.6396,1.746 5.3678,2.8203 12.4124,2.8203 h 11.3794 z m 36.1866,45.3343 c 0,-0.5055 3.0533,-16.1721 6.785,-34.8148 3.7318,-18.6427 6.785,-39.0799 6.785,-45.4159 v -11.5202 l -22.0512,0.6458 -22.0513,0.6458 -0.7087,7.3328 c -0.6871,7.1096 -0.4461,7.3339 7.9158,7.3674 14.6631,0.059 15.0555,1.0723 9.6683,24.9724 -2.6339,11.6854 -6.118,28.0996 -7.7423,36.4759 l -2.9534,15.2297 h 12.1764 c 6.697,0 12.1764,-0.4135 12.1764,-0.9189 z m 216.7358,-117.2895 c 0.8979,-7.8467 -2.3801,-10.3171 -13.7511,-10.3634 -4.6647,-0.018 -8.4813,-0.608 -8.4813,-1.3088 0,-0.7008 5.3432,-9.9971 11.8738,-20.6583 10.0872,-16.4677 11.8737,-21.0565 11.8737,-30.4985 0,-9.702 -0.9385,-11.9508 -7.3861,-17.6979 -6.2842,-5.6015 -9.2624,-6.5837 -19.9636,-6.5837 -10.8858,0 -13.4666,0.887 -19.1884,6.5952 -5.3811,5.3682 -6.6111,8.5165 -6.6111,16.9219 v 10.3267 h 10.1508 c 10.0937,0 10.1589,-0.051 11.5974,-9.025 1.771,-11.0484 7.6535,-12.5157 7.6535,-1.909 0,6.7286 -8.4438,23.925 -23.0346,46.9117 -3.7008,5.8304 -6.3671,13.1836 -6.3671,17.5599 v 7.529 l 25.4438,-0.6379 25.4437,-0.638 z m 136.8337,-173.419 c 3.4686,-2.5303 3.8108,-7.4458 3.2593,-46.8173 l -0.6162,-43.9901 -6.1787,-0.71 c -3.9349,-0.4521 -8.8629,1.3277 -13.57,4.9009 -4.0652,3.086 -10.2457,6.3216 -13.7345,7.1902 -5.2046,1.2959 -6.2195,2.6416 -5.6541,7.4978 0.535,4.5963 2.2047,6.1772 7.474,7.0768 l 6.785,1.1583 0.6265,31.9784 c 0.5496,28.0489 1.1055,32.1038 4.5234,32.9985 7.4741,1.9566 13.237,1.5237 17.0853,-1.2835 z m 55.586,-0.4509 c 9.4462,-4.8731 12.0915,-13.7301 11.1783,-37.4263 -0.7237,-18.7788 -1.2978,-21.0225 -6.4413,-25.1762 -4.5521,-3.6761 -7.7305,-4.3138 -16.3971,-3.2899 -10.1991,1.2051 -10.7503,0.992 -10.7503,-4.1565 0,-5.0808 0.9007,-5.4694 14.1354,-6.0983 l 14.1354,-0.6718 0.7144,-7.4081 0.7143,-7.4081 -25.5926,0.6394 -25.5927,0.6393 v 22.5625 22.5626 l 10.766,0.6886 c 8.1029,0.5183 11.0998,-0.1794 12.1157,-2.8203 0.7423,-1.93 2.7675,-3.509 4.5003,-3.509 2.4458,0 3.1505,4.2897 3.1505,19.1782 0,15.543 -0.643,19.1781 -3.3925,19.1781 -2.513,0 -3.3925,-2.6323 -3.3925,-10.1531 v -10.1532 h -12.4392 -12.4392 v 10.3788 c 0,8.795 1.1735,11.5494 7.6897,18.05 6.7541,6.738 9.1067,7.6713 19.3365,7.6713 6.4057,0 14.5062,-1.4751 18.0009,-3.278 z m 113.8194,-219.9003 7.3861,-6.578 0.7345,-30.319 c 0.8664,-35.7685 -1.3867,-43.893 -13.8027,-49.7706 -9.8086,-4.6434 -17.4727,-4.773 -27.7959,-0.47 -12.5408,5.2273 -15.027,14.0546 -14.1504,50.2406 l 0.7345,30.319 7.3861,6.578 c 6.2501,5.5663 9.2883,6.5781 19.7539,6.5781 10.4656,0 13.5038,-1.0118 19.7539,-6.5781 z m -22.6431,-41.3673 c 0.8363,-42.8513 4.942,-42.8513 5.7784,0 0.5435,27.8481 0.1567,32.1516 -2.8892,32.1516 -3.046,0 -3.4327,-4.3035 -2.8892,-32.1516 z m -33.2975,-0.5641 v -45.125 l -6.2354,-0.7155 c -3.8389,-0.4404 -8.6196,1.1559 -12.4391,4.1534 -3.4121,2.6779 -9.5851,6.2785 -13.7177,8.0013 -9.9539,4.1497 -9.5216,12.757 0.7289,14.5126 l 6.785,1.1621 0.6282,32.2479 0.6282,32.2479 11.8109,-0.6798 11.811,-0.6798 z m -801.7611,463.4558 c -13.0611,-1.178 -27.8185,-2.9313 -32.7941,-3.896 -8.6427,-1.6758 -9.0187,-2.102 -8.4192,-9.5442 1.4029,-17.4165 2.1905,-18.6082 11.3574,-17.1847 42.8589,6.6556 131.4963,7.4145 176.5712,1.5118 10.4121,-1.3635 19.44,-1.9714 20.062,-1.3508 2.2186,2.2132 5.1053,22.5481 3.4268,24.1394 -6.3731,6.0424 -124.619,10.4362 -170.2041,6.3245 z m -81.42,-46.1301 c -34.9234,-8.101 -68.0089,-18.1514 -96.1208,-29.1986 -33.2858,-13.0804 -59.9342,-25.4471 -59.9342,-27.8136 0,-2.2352 96.8354,-192.4977 99.2781,-195.0618 0.8965,-0.941 10.8649,2.2848 22.152,7.1686 24.995,10.815 64.1206,23.3078 85.5124,27.3041 8.7075,1.6267 17.0213,4.0586 18.4751,5.4042 2.83,2.6193 3.3365,-0.9713 -20.2371,143.4624 l -11.9682,73.3282 -6.7049,0.4576 c -3.6877,0.2516 -17.3912,-2.0213 -30.4524,-5.0511 z m 254.7671,3.9972 c -0.5876,-0.9484 -4.2133,-21.5085 -8.0571,-45.6891 -3.8438,-24.1806 -11.4893,-71.8858 -16.99,-106.0116 -7.6179,-47.2602 -9.3677,-62.63 -7.3427,-64.4936 1.4622,-1.3456 9.7829,-3.758 18.4903,-5.3609 21.1585,-3.8949 65.9563,-18.5743 87.7047,-28.7392 10.4603,-4.889 18.366,-7.3801 19.4994,-6.1443 2.6276,2.8649 99.7385,192.9931 99.7385,195.2727 0,1.0092 -7.8876,5.5002 -17.528,9.98 -44.8404,20.8367 -90.0788,36.1697 -138.7994,47.0443 -27.5871,6.1576 -34.9522,6.9884 -36.7157,4.1417 z m -451.5321,-43.3975 c -8.0855,-4.9104 -16.2275,-9.6597 -18.0934,-10.5539 -9.1358,-4.3783 -31.6633,-19.5245 -31.6633,-21.2888 0,-1.1023 -1.3279,-2.0042 -2.9508,-2.0042 -8.5977,0 -101.0859,-75.2213 -101.0859,-82.2139 0,-2.8568 13.832,-17.0612 16.6139,-17.0612 0.9337,0 11.5716,8.7782 23.6398,19.5071 37.0387,32.9282 79.9305,63.8951 119.7963,86.4901 11.5265,6.5331 21.5182,12.7836 22.2037,13.89 1.4738,2.379 -8.2209,20.4905 -11.4978,21.4801 -1.2439,0.3756 -8.8771,-3.3347 -16.9625,-8.2453 z m 660.4099,-2.2528 c -2.9114,-6.2011 -4.8664,-11.6133 -4.3445,-12.0272 0.5219,-0.4139 8.0732,-4.6421 16.7806,-9.3962 39.8201,-21.7407 91.7495,-59.0422 129.2463,-92.8391 10.1335,-9.1337 19.4423,-16.6067 20.6861,-16.6067 2.2401,0 16.3001,14.8167 16.3001,17.1774 0,3.4216 -41.5583,40.1077 -69.2981,61.1736 -27.7831,21.0989 -96.2364,63.7929 -102.282,63.7929 -0.9873,0 -4.1771,-5.0736 -7.0885,-11.2747 z M 355.7507,1305.3825 c -33.2525,-37.0806 -68.7561,-86.503 -90.0839,-125.4004 -7.144,-13.0291 -7.9647,-15.8621 -5.3155,-18.3488 3.9453,-3.7033 190.4068,-98.2339 193.7661,-98.2339 1.3616,0 8.0166,9.3917 14.789,20.8704 13.4316,22.7655 30.7327,46.1369 51.9266,70.1456 l 13.6222,15.4315 -77.8006,77.6389 c -42.7904,42.7014 -79.0155,77.6389 -80.5003,77.6389 -1.4847,0 -10.6663,-8.884 -20.4036,-19.7422 z m 899.4747,-56.8006 c -61.6003,-60.3623 -77.5514,-77.1548 -75.7659,-79.7626 1.2439,-1.8169 10.1478,-12.6097 19.7864,-23.9841 18.4006,-21.7142 40.5905,-53.299 48.9681,-69.7004 2.7247,-5.3344 6.3473,-10.2323 8.0501,-10.8842 2.9747,-1.1388 189.1527,91.6157 195.3647,97.3312 7.3038,6.7201 -50.7535,94.2309 -95.1114,143.3635 -10.0201,11.0987 -19.3538,20.1606 -20.7415,20.1376 -1.3876,-0.023 -37.6354,-34.4484 -80.5505,-76.501 z m -444.2311,47.1508 c -9.8487,-1.1269 -18.6557,-2.8434 -19.5709,-3.8144 -1.7431,-1.8494 0.7635,-22.2977 3.0078,-24.5366 0.7131,-0.7114 11.2038,-0.049 23.3126,1.4711 20.7955,2.6113 70.2081,1.7686 91.8661,-1.5667 8.0259,-1.236 8.3844,-1.0027 9.648,6.279 3.0887,17.7989 2.922,18.4115 -5.5443,20.3728 -12.2934,2.8478 -82.7565,4.079 -102.7193,1.7948 z m -54.4666,-43.8765 c -40.1435,-10.569 -82.3804,-27.0874 -82.4901,-32.261 -0.034,-1.5785 18.0941,-38.1298 40.2835,-81.2251 22.1893,-43.0953 56.5383,-110.1256 76.3312,-148.95619 34.5942,-67.86833 36.2059,-70.54763 41.6413,-69.22003 3.1097,0.7595 6.4982,2.202 7.5299,3.2054 1.0317,1.0035 -1.1913,20.47643 -4.9399,43.27323 -7.0434,42.83359 -9.9272,60.87639 -25.0163,156.51759 -22.5883,143.1746 -20.7787,134.2605 -27.2297,134.1361 -3.1652,-0.061 -14.9146,-2.5225 -26.1099,-5.47 z m 155.2694,-66.0551 c -11.7229,-72.3168 -38.1432,-238.23659 -40.4098,-253.77399 -1.1119,-7.62193 -0.6349,-8.63093 5.11,-10.80993 4.801,-1.821 6.99,-1.6975 9.0341,0.5097 2.8815,3.1114 152.5739,295.52262 152.5739,298.04002 0,6.6724 -90.9971,37.6702 -110.5846,37.6702 -3.6434,0 -5.4318,-8.1478 -15.7236,-71.636 z m -275.1378,54.0145 c -26.077,-14.432 -72.6911,-48.9388 -86.6635,-64.1538 l -5.2435,-5.7099 7.1741,-8.1512 c 8.7768,-9.9723 12.9614,-10.1976 21.5485,-1.1601 9.8556,10.3723 46.9205,37.7826 69.4411,51.3531 10.8639,6.5464 19.7525,12.3149 19.7525,12.8189 0,3.3589 -10.4003,21.3355 -12.3244,21.3024 -1.307,-0.023 -7.4652,-2.8572 -13.6848,-6.2994 z m 422.3606,3.5199 c -4.5275,-5.6602 -9.7587,-17.6708 -8.5477,-19.6255 0.6839,-1.1038 7.6795,-5.5977 15.5459,-9.9863 19.0445,-10.6248 46.6586,-30.4417 65.1885,-46.7818 8.2906,-7.3108 16.5816,-13.2924 18.4245,-13.2924 1.8428,0 6.6683,3.7695 10.7232,8.3767 l 7.3725,8.3768 -13.3578,12.1427 c -19.0617,17.3277 -53.283,42.5068 -73.1917,53.8527 -19.0747,10.8705 -19.0239,10.8545 -22.1574,6.9371 z m -842.9198,-87.9559 c -12.7858,-26.8567 -18.6076,-40.5107 -22.8644,-53.6239 -2.2155,-6.8252 -5.3283,-15.4979 -6.9173,-19.2728 -1.5889,-3.7749 -4.1106,-11.8974 -5.6037,-18.05 -1.4931,-6.1526 -3.9865,-14.2326 -5.541,-17.9554 -1.5544,-3.7228 -4.007,-12.8606 -5.4502,-20.3062 -1.4431,-7.4457 -3.5047,-16.5835 -4.5813,-20.3063 -3.8402,-13.27929 -7.1849,-33.03939 -6.0789,-35.91449 1.1785,-3.0638 18.0831,-6.2684 23.0455,-4.3688 1.584,0.6064 3.5573,5.857 4.3852,11.6679 5.3595,37.62039 29.5971,114.76499 48.9695,155.86239 6.0821,12.9026 11.0583,24.3078 11.0583,25.3448 0,1.037 -5.0887,4.4579 -11.3081,7.602 l -11.3081,5.7165 z m 1260.2032,10.4092 c -5.9086,-3.0014 -10.7429,-6.4782 -10.7429,-7.7263 0,-1.2482 3.4415,-9.0974 7.6478,-17.4428 17.9175,-35.5487 42.2465,-109.2739 50.2362,-152.23249 4.4973,-24.1805 5.2541,-25.0194 20.1435,-22.3301 l 9.0467,1.634 -0.6033,11.1901 c -0.8512,15.7908 -14.4753,69.44999 -26.5972,104.75499 -9.6321,28.0536 -33.8308,84.8365 -36.9674,86.7452 -0.7812,0.4754 -6.2548,-1.5912 -12.1634,-4.5926 z m -926.6168,-38.5517 c -25.849,-28.7698 -58.896,-78.6819 -55.6088,-83.988 0.813,-1.3124 18.4691,-10.9005 39.2358,-21.3069 20.7666,-10.4064 88.0962,-44.52559 149.6212,-75.82049 l 111.8637,-56.89983 4.0468,4.9855 c 2.2257,2.7421 4.0467,5.7766 4.0467,6.7434 0,1.9352 -236.5756,237.62922 -239.5885,238.69572 -1.0296,0.3645 -7.1572,-5.2198 -13.6169,-12.4094 z m 479.5056,-105.2178 C 963.9598,957.11111 910.2401,902.96308 909.8148,901.69028 c -0.4253,-1.2728 1.1115,-4.6362 3.4151,-7.4742 l 4.1884,-5.1601 50.7314,25.9635 c 72.3161,37.01023 178.7078,91.02302 216.2724,109.79692 17.6565,8.8243 32.7682,17.1185 33.5816,18.4315 1.9487,3.1454 -16.6663,34.9485 -32.925,56.2516 -14.6176,19.1526 -33.5676,40.6319 -35.7959,40.5736 -0.8176,-0.02 -54.8585,-53.1457 -120.0907,-118.0538 z m -573.2716,25.031 c -12.7173,-19.5161 -41.3765,-114.01509 -36.0838,-118.98012 1.0803,-1.0135 7.3075,-2.549 13.838,-3.4123 10.8683,-1.4366 11.8738,-1.1898 11.8738,2.914 0,14.28163 20.4974,78.29212 35.3235,110.31052 0.7366,1.5906 -3.4221,5.0448 -10.197,8.4696 l -11.4408,5.7836 z m 785.1694,-0.8429 c -5.9086,-3.0013 -10.7429,-5.8505 -10.7429,-6.3316 0,-0.481 2.9357,-7.402 6.5238,-15.38 9.7539,-21.6876 22.1415,-59.59229 26.7079,-81.72319 l 4.0462,-19.60993 9.921,1.4842 c 12.7456,1.9067 16.1285,3.2576 16.1249,6.4391 -0.01,5.96973 -11.6712,49.38923 -18.8767,70.26652 -8.5439,24.7553 -18.3056,47.4707 -21.1445,49.2032 -0.9992,0.6098 -6.6511,-1.3469 -12.5597,-4.3483 z M 189.2136,951.84871 c -4.0484,-10.5247 -6.5052,-65.34223 -5.2476,-117.08563 1.3501,-55.54598 3.268,-76.46697 7.3686,-80.3787 1.146,-1.09327 12.9265,-0.12568 26.9163,2.21074 36.3893,6.07735 163.3802,26.49544 175.4705,28.21284 5.7028,0.81006 11.5283,2.18782 12.9456,3.06166 1.9268,1.18799 1.9079,9.65766 -0.075,33.57296 -1.9866,23.9575 -2.0205,40.3538 -0.1354,65.3345 1.3841,18.3427 2.1595,33.7093 1.7229,34.1481 -0.8371,0.8413 -17.1946,3.6847 -65.5367,11.39233 -16.1709,2.5782 -54.5118,8.7589 -85.202,13.7348 -62.1041,10.0691 -66.4417,10.4376 -68.227,5.7964 z m 1251.4685,-7.8674 c -35.4517,-5.8803 -79.9781,-13.08533 -98.9476,-16.01113 -18.9695,-2.9259 -35.493,-5.9381 -36.7189,-6.6939 -1.4582,-0.8991 -1.3393,-12.5373 0.344,-33.6608 1.9151,-24.0328 1.9213,-40.7057 0.024,-65.2207 -1.906,-24.6282 -1.8984,-33.33519 0.03,-34.5241 1.4183,-0.87443 7.2446,-2.25266 12.9474,-3.06272 12.9305,-1.83675 141.8662,-22.58994 175.4704,-28.2433 21.3449,-3.59094 25.2325,-3.73245 27.3717,-0.99645 8.9177,11.40565 10.3668,156.54927 1.9414,194.4546 -1.5544,6.9932 -5.7146,6.6884 -82.4622,-6.0415 z M 448.9566,910.53838 c -4.7618,-11.7575 -3.8017,-105.44 1.1627,-113.4533 1.6712,-2.6976 9.0246,-2.0589 47.893,4.16 25.2553,4.0408 87.6465,13.8615 138.647,21.8238 147.0512,22.9579 146.162,22.8008 148.3229,26.2058 7.1721,11.3011 3.3836,12.4655 -87.3687,26.8515 -47.2079,7.4835 -120.7188,19.176 -163.3576,25.9834 -42.6389,6.8075 -78.9146,12.3772 -80.6127,12.3772 -1.6981,0 -3.8071,-1.7768 -4.6866,-3.9484 z m 783.6521,0.4861 c -17.1068,-2.9958 -61.0461,-10.0275 -218.14,-34.9095 -90.7545,-14.3745 -94.5417,-15.538 -87.3688,-26.8403 2.1551,-3.3958 4.0831,-3.739 140.4071,-24.9966 46.6469,-7.2738 109.0417,-17.079 138.6552,-21.7893 45.3816,-7.2184 54.1517,-8.0655 55.8089,-5.3905 4.9575,8.0022 5.911,101.6956 1.1544,113.4401 -1.8674,4.6108 -6.5391,4.6852 -30.5168,0.4861 z m 406.3462,-25.1169 c -1.8851,-1.8805 -1.986,-21.7024 -0.135,-26.5144 0.755,-1.963 2.7905,-3.569 4.5233,-3.569 2.3929,0 3.1505,3.7982 3.1505,15.7938 0,11.6573 -0.7898,15.7938 -3.0155,15.7938 -1.6586,0 -3.6941,-0.6769 -4.5234,-1.5042 z m -792.2135,-9.627 c -7.7306,-3.2861 -14.4478,-13.5678 -14.4478,-22.1144 0,-5.9386 1.9183,-9.7319 7.9789,-15.7781 7.2133,-7.196 8.8743,-7.8401 17.3076,-6.7117 12.0218,1.6086 19.9107,9.397 21.5013,21.2273 1.0373,7.7151 0.2622,10.1059 -5.2577,16.2164 -6.961,7.7059 -18.5752,10.7766 -27.0823,7.1605 z m -728.5692,-24.2383 c -4.8435,-0.9941 -5.0888,-2.07 -5.0888,-22.3219 v -21.2775 h -6.6846 c -3.6765,0 -10.471902,2.5641 -15.100902,5.6979 -4.628998,3.1338 -10.780698,6.2898 -13.670398,7.0133 -8.3463,2.0898 -6.9985,10.6621 2.0963,13.3332 6.0904,1.7887 7.4719,3.4158 8.0591,9.4916 0.7061,7.305 0.6695,7.3328 -9.612,7.3328 H 67.8501 v -21.4344 -21.4344 h -7.7824 c -4.2803,0 -8.4233,1.0347 -9.2067,2.2992 -0.7834,1.2645 -6.4411,4.8352 -12.5727,7.9349 -13.332,6.7397 -14.739,12.597 -3.7978,15.8103 6.0904,1.7887 7.4719,3.4158 8.0591,9.4916 l 0.7087,7.3328 H 21.6292 0 l 0.019,-21.9984 C 0.074,766.9015 12.9728,685.03334 34.1164,612.90002 104.5655,372.55657 284.0389,170.13476 514.5289,71.059378 611.7128,29.28521 712.0699,6.37608 819.1473,1.52231 l 32.9191,-1.49221 1.4366,30.23257 c 1.5729,33.100188 0.6351,106.09913 -1.4052,109.3925 -0.7037,1.13584 -9.2642,2.32391 -19.0233,2.64016 -139.8348,4.53139 -270.0551,47.76099 -387.4399,128.61948 -58.1126,40.02989 -122.0167,102.47477 -166.7991,162.99021 -50.8172,68.67044 -92.2377,156.07676 -114.9393,242.54713 -12.6452,48.16524 -21.3119,108.40425 -21.4244,148.91263 -0.031,11.1685 -0.8065,21.4823 -1.7232,22.9195 -1.9472,3.0528 -15.2357,5.2647 -22.5768,3.758 z M 93.859198,605.3802 V 559.12703 L 87.5855,558.40789 c -4.1004,-0.47002 -8.5015,1.15083 -12.7042,4.67866 -3.5366,2.96882 -9.6188,6.71537 -13.5158,8.32571 -8.9444,3.69603 -10.3185,13.66167 -1.8836,13.66167 9.5268,0 10.6298,3.63663 10.6298,35.04712 0,16.29767 0.7254,30.3558 1.6121,31.24029 0.8866,0.88452 6.2298,1.30757 11.8737,0.94011 l 10.261698,-0.66807 z m 57.290602,39.70425 c 0.412,-3.60193 2.193,-7.98953 3.958,-9.75024 4.1455,-4.13566 4.0952,-10.6975 -0.1143,-14.89691 -2.5034,-2.4974 -3.4798,-10.46883 -3.9579,-32.31276 l -0.6347,-28.99751 h -15.6321 -15.6321 l -9.8117,29.26513 c -5.4757,16.33256 -9.811602,33.53188 -9.811602,38.92035 v 9.65523 H 113.0834 c 13.3926,0 13.57,0.0835 13.57,6.39271 0,8.67271 1.5743,9.7165 13.4858,8.941 9.4603,-0.61591 10.3202,-1.17952 11.0106,-7.217 z M 118.4956,615.3488 c 0.755,-1.96289 1.3728,-3.96166 1.3728,-4.44168 0,-0.48004 1.5266,-0.28837 3.3925,0.42591 5.0981,1.95164 4.0785,7.58469 -1.3728,7.58469 -3.4162,0 -4.3766,-1.01044 -3.3925,-3.56892 z m 3.6691,-13.91704 c 0.019,-3.41258 1.0212,-7.72766 2.227,-9.58907 1.6056,-2.47852 2.2017,-0.8178 2.2271,6.20469 0.019,5.27399 -0.9831,9.58908 -2.2271,9.58908 -1.2439,0 -2.246,-2.79212 -2.227,-6.2047 z M 229.1115,442.77899 c 14.655,-4.05983 17.3919,-11.41684 17.4018,-46.77825 0.012,-41.67417 -3.9547,-47.83331 -30.8044,-47.83331 -10.8077,0 -13.4049,0.89595 -19.1178,6.5952 -6.2846,6.26956 -6.611,7.55572 -6.611,26.04945 0,17.89599 0.4667,19.91982 5.8261,25.26644 4.952,4.94011 7.294,5.64711 15.6095,4.71207 9.3944,-1.05635 9.8376,-0.83012 11.1446,5.68955 1.3848,6.90702 -2.0339,13.88439 -5.6965,11.62624 -1.1029,-0.68003 -2.0054,-3.20715 -2.0054,-5.61579 0,-3.80413 -1.6338,-4.37934 -12.4391,-4.37934 -11.5716,0 -12.4392,0.37222 -12.4392,5.33635 0,7.4768 7.9977,16.78582 16.5394,19.25121 9.8121,2.83211 12.6222,2.84209 22.592,0.0801 z m -14.2531,-63.02403 c 0,-11.99561 0.7577,-15.79377 3.1505,-15.79377 1.7328,0 3.7364,1.52297 4.4524,3.38438 0.793,2.06156 0,3.38438 -2.0197,3.38438 -2.1828,0 -3.3215,2.32053 -3.3215,6.76876 0,4.5125 1.1308,6.76876 3.3925,6.76876 1.8659,0 3.3925,0.93228 3.3925,2.07171 0,4.62868 -2.9328,9.20955 -5.8962,9.20955 -2.3928,0 -3.1505,-3.79816 -3.1505,-15.79377 z M 386.7451,218.43291 v -46.25317 h -7.6389 c -4.3144,0 -8.9758,1.60704 -10.7109,3.69264 -1.6896,2.03096 -7.4118,5.54848 -12.7161,7.81671 -6.8385,2.92432 -9.6441,5.46012 -9.6441,8.71674 0,3.02324 1.4825,4.59268 4.3384,4.59268 11.2186,0 11.4933,0.80561 11.4933,33.70914 0,17.03355 0.6785,31.64698 1.5078,32.47426 0.8292,0.8273 6.4269,1.50418 12.4391,1.50418 h 10.9314 z m 58.8034,38.35629 c 0,-7.83955 -0.073,-7.89688 -10.044,-7.89688 -5.5243,0 -10.5099,-0.76149 -11.0791,-1.69219 -0.5693,-0.9307 4.0295,-9.93568 10.2195,-20.01106 17.0109,-27.6882 17.1581,-47.17732 0.4091,-54.15874 -20.4597,-8.52816 -38.4899,0.31028 -39.6891,19.45568 l -0.6359,10.15313 10.7089,0.68769 10.7089,0.68769 v -9.14864 c 0,-6.71128 0.9227,-9.14863 3.4635,-9.14863 4.3513,0 6.4637,5.24103 4.7761,11.85037 -0.7122,2.78934 -7.9274,16.23997 -16.0337,29.8903 -8.4019,14.1479 -14.7568,27.4865 -14.7807,31.02347 l -0.042,6.2047 h 26.0092 26.0091 z M 634.8696,150.53764 c 7.0956,-4.48649 10.3718,-17.83255 9.3471,-38.07654 -0.7989,-15.780922 -1.4967,-18.006192 -7.1743,-22.878232 -6.6943,-5.74437 -14.8646,-6.88037 -22.0176,-3.06134 -3.8713,2.06691 -4.3746,1.56011 -4.3746,-4.40485 0,-6.6925 0.1006,-6.74526 14.1354,-7.4122 14.0486,-0.6676 14.1354,-0.7133 14.1354,-7.44049 v -6.76875 l -25.4437,-0.63796 -25.4438,-0.63796 v 23.76455 23.764552 h 10.4936 c 7.1484,0 11.3649,-1.18876 13.2269,-3.72908 5.1749,-7.060242 7.9428,-1.04324 7.9428,17.26659 0,9.78104 -0.9666,18.37972 -2.1482,19.10818 -3.0284,1.86721 -6.8984,-6.23771 -6.8984,-14.44735 0,-6.79633 -0.1974,-6.91708 -11.3084,-6.91708 h -11.3083 v 10.97698 c 0,13.06895 5.7609,21.7563 16.5394,24.94134 8.7082,2.57327 23.4594,0.91279 30.2967,-3.41036 z m 215.0952,-40.96891 c 0.6871,-7.10957 0.4461,-7.33387 -7.9159,-7.36737 -15.6794,-0.0628 -16.1431,-2.218042 -4.4124,-20.509332 13.0266,-20.31188 16.3838,-31.42265 12.9498,-42.85707 C 847.2406,27.6949 839.8449,23.26707 824.5834,23.26707 c -16.6653,0 -23.9076,5.96019 -25.6161,21.081018 l -1.2178,10.77898 11.0524,-0.70029 c 10.6798,-0.67669 11.0906,-0.96052 12.1833,-8.41783 1.2122,-8.27303 5.9238,-11.81249 8.1209,-6.10066 2.1302,5.53806 -2.7499,17.1946 -17.2262,41.1466 -12.355,20.441952 -16.0462,31.437652 -11.9316,35.542412 0.8688,0.86678 12.3185,1.28982 25.4437,0.9401 l 23.8641,-0.63585 z m 2.6838,-23.126592 c 0,-1.24094 -1.5267,-2.25625 -3.3925,-2.25625 -1.8659,0 -3.3925,1.01531 -3.3925,2.25625 0,1.24094 1.5266,2.25626 3.3925,2.25626 1.8658,0 3.3925,-1.01532 3.3925,-2.25626 z m 718.1965,762.049242 c -0.4794,-1.5512 -1.4409,-16.527 -2.1366,-33.2797 -0.6957,-16.7527 -3.4834,-45.68911 -6.195,-64.30319 -2.7115,-18.61409 -4.9988,-38.15887 -5.0829,-43.43286 -0.084,-5.27399 -0.904,-9.58908 -1.8219,-9.58908 -0.9179,0 -2.794,-4.31508 -4.169,-9.58907 -6.1248,-23.49183 -21.0797,-73.38019 -23.8413,-79.5329 -9.3547,-20.84136 -19.0663,-45.78899 -19.0663,-48.9783 0,-2.01718 -0.8272,-4.00602 -1.8383,-4.41968 -1.011,-0.41364 -8.4667,-13.46728 -16.5683,-29.0081 -18.9614,-36.37277 -44.1987,-75.84257 -68.4927,-107.11912 -19.1551,-24.66057 -78.4178,-88.7623 -89.8141,-97.1478 -3.2766,-2.41097 -12.9452,-10.31816 -21.4858,-17.57154 -19.6006,-16.64647 -62.0359,-46.8599 -85.6401,-60.97463 -27.562,-16.48148 -91.9308,-47.27591 -120.5022,-57.64899 -37.6711,-13.67685 -85.5214,-26.64362 -122.627,-33.23029 -35.8418,-6.36232 -42.4758,-7.05875 -89.3359,-9.37841 l -31.6633,-1.56739 -1.2215,-18.05002 c -0.6718,-9.92751 -0.9562,-18.4432 -0.632,-18.92375 0.3243,-0.48055 3.4542,2.18547 6.9553,5.9245 11.6676,12.46022 35.817,11.34486 44.2125,-2.042 4.2467,-6.77144 6.6721,-47.772462 3.7567,-63.507142 C 910.5959,28.7169 903.9417,23.26707 886.9507,23.26707 c -8.0563,0 -14.8394,1.32676 -17.9712,3.51509 -7.4263,5.189148 -9.5459,2.29693 -9.5459,-13.02553 V 0 l 33.3595,1.48081 c 184.7985,8.20304 355.8777,72.328778 499.2631,187.13915 67.441,54.00077 124.8455,116.13717 173.9952,188.33768 87.8615,129.06777 139.0178,283.56305 145.3012,438.81814 l 1.4381,35.5359 h -21.8401 c -13.2632,0 -21.8402,-0.8991 -21.8402,-2.2894 0,-1.2592 -3.2821,-4.2806 -7.2935,-6.7143 -5.4269,-3.2923 -9.5186,-4.0699 -15.9869,-3.0381 l -8.6934,1.3868 0.7207,-8.7741 c 0.8013,-9.7563 6.9711,-12.5287 8.2284,-3.6975 0.6378,4.4807 2.0316,5.0766 11.8737,5.0766 10.8353,0 11.151,-0.1882 11.151,-6.6429 0,-3.6537 -2.2899,-9.2721 -5.0887,-12.4856 -9.0709,-10.4147 -33.3513,-10.4161 -43.7898,0 -4.672,4.6608 -5.4015,7.5354 -5.4015,21.2849 v 15.8963 h -21.5568 c -15.2728,0 -21.8109,-0.8222 -22.4285,-2.8203 z m 75.8226,-200.06883 c 6.0908,-6.0762 6.6111,-7.88208 6.6111,-22.94893 0,-11.82288 -1.0023,-17.45859 -3.6177,-20.34169 -3.3159,-3.65522 -3.3159,-4.41793 0,-9.14065 4.5508,-6.48167 4.6428,-18.18884 0.2101,-26.74024 -4.1786,-8.06112 -17.7096,-12.32717 -32.2159,-10.15702 -13.568,2.02977 -18.6565,7.60946 -18.6565,20.45719 v 10.27105 l 11.8737,-0.68197 c 11.6428,-0.66871 11.8992,-0.83563 13.183,-8.57886 1.6699,-10.07176 5.0099,-4.03585 3.9389,7.11802 -0.5606,5.83765 -1.8777,7.71097 -5.8135,8.2686 -3.9095,0.55391 -5.0888,2.20208 -5.0888,7.11212 0,5.14554 1.3938,6.87581 7.1518,8.87824 10.4982,3.65097 5.9283,5.82711 -10.675,5.08324 l -14.5701,-0.65275 v 12.72923 c 0,11.06081 0.8665,13.59365 6.611,19.32442 5.8745,5.86048 8.1615,6.59521 20.529,6.59521 12.3674,0 14.6544,-0.73473 20.5289,-6.59521 z m -22.7906,-11.45481 c 0,-1.24094 1.5266,-2.25626 3.3925,-2.25626 1.8659,0 3.3925,1.01532 3.3925,2.25626 0,1.24094 -1.5266,2.25625 -3.3925,2.25625 -1.8659,0 -3.3925,-1.01531 -3.3925,-2.25625 z m -32.7942,-30.45941 v -45.12505 l -6.4551,-0.7366 c -4.1573,-0.4744 -8.1937,0.8928 -11.3392,3.84075 -2.6862,2.51755 -8.7522,6.18969 -13.4798,8.1603 -6.7608,2.81809 -8.4441,4.64414 -7.885,8.55411 0.5044,3.52763 2.6811,5.30865 7.4958,6.13329 l 6.785,1.1621 0.6282,32.24787 0.6282,32.24787 11.811,-0.67978 11.8109,-0.67981 z M 1509.4779,437.048 c 2.2579,-0.86435 3.5775,-4.1043 3.5775,-8.78361 0,-4.50894 1.3293,-7.92299 3.3925,-8.71281 1.8659,-0.71429 3.3925,-3.90073 3.3925,-7.08096 0,-3.18023 -1.5266,-6.36667 -3.3925,-7.08095 -2.7826,-1.06525 -3.3925,-6.74864 -3.3925,-31.61558 v -30.31686 l -16.376,0.66291 -16.376,0.66291 -9.4884,27.07503 c -5.7152,16.30803 -9.5461,31.33697 -9.6332,37.79222 l -0.1447,10.7172 h 13.57 13.57 v 7.70887 c 0,4.23986 1.2722,8.22098 2.8271,8.84688 4.0924,1.64741 14.3159,1.71645 18.4737,0.12477 z m -29.4498,-37.55083 c 0.7839,-2.79211 2.0587,-9.39165 2.8329,-14.66564 2.1314,-14.51989 5.3161,-11.47869 5.3161,5.07657 0,13.43084 -0.4031,14.66564 -4.7871,14.66564 -3.879,0 -4.5168,-0.96311 -3.3619,-5.07657 z m -129.314,-134.91135 c 4.628,-1.28225 9.9712,-4.54845 11.8738,-7.25821 4.75,-6.76542 4.735,-34.94533 -0.023,-41.72104 -3.151,-4.48789 -3.1234,-5.50375 0.2913,-10.70278 5.4088,-8.23512 3.0433,-23.24529 -4.712,-29.90021 -4.7227,-4.05291 -8.6733,-5.0801 -19.5377,-5.0801 -12.0357,0 -14.3859,0.76622 -20.2288,6.5952 -5.2971,5.28442 -6.6111,8.56191 -6.6111,16.49066 0,5.4425 1.449,11.86631 3.2199,14.27513 2.7802,3.78161 2.7818,4.86436 0.011,7.92896 -4.605,5.09445 -6.3774,22.02347 -3.4438,32.89227 4.207,15.58594 19.3639,21.96471 39.1594,16.48012 z m -14.8422,-14.96099 c -2.4592,-2.45329 -1.6752,-25.16966 0.9239,-26.77219 3.6969,-2.27933 4.9349,0.162 6.0728,11.97605 0.7457,7.7424 0.1059,11.63225 -2.2315,13.56755 -1.8024,1.49226 -3.9467,2.04511 -4.7652,1.22859 z m -1.4882,-54.88257 c 0,-9.71007 5.2441,-12.89061 7.4403,-4.5125 0.6506,2.48187 0.2604,4.5125 -0.867,4.5125 -3.0991,0 -2.4562,6.22918 0.7771,7.53074 1.5549,0.62591 0.5372,1.21818 -2.2616,1.31615 -4.4589,0.15607 -5.0888,-0.93901 -5.0888,-8.84689 z m -32.7942,22.56253 v -46.25318 l -6.4784,-0.73884 c -4.5457,-0.51844 -8.2756,0.97898 -12.5033,5.01962 -3.3137,3.16715 -9.3038,6.89873 -13.3112,8.29238 -5.4802,1.90583 -7.2862,3.87737 -7.2862,7.95383 0,3.83872 1.2656,5.41991 4.3383,5.41991 11.2186,0 11.4933,0.80561 11.4933,33.70914 0,17.03355 0.7255,31.69378 1.6121,32.57827 0.8866,0.88452 6.2298,1.30757 11.8737,0.94012 l 10.2617,-0.66808 z M 1121.787,110.13279 V 63.879618 h -6.7065 c -3.6885,0 -11.5209,3.04594 -17.4053,6.76875 -5.8843,3.72282 -12.0262,6.76876 -13.6485,6.76876 -1.6223,0 -2.9497,2.32832 -2.9497,5.17404 0,3.8904 1.8236,5.70964 7.3504,7.33283 l 7.3504,2.15878 0.5921,29.331282 c 0.3257,16.1322 1.0571,30.60042 1.6253,32.15159 0.6396,1.746 5.3678,2.82032 12.4125,2.82032 h 11.3793 z M 774.621,809.89378 c -9.9513,-5.3723 -76.6139,-39.44355 -148.1392,-75.71394 -71.5252,-36.27039 -130.9708,-66.84734 -132.1014,-67.9488 -6.0692,-5.91305 59.2626,-96.95088 69.5752,-96.95088 1.4345,0 56.0365,53.30945 121.3377,118.46546 l 118.7294,118.46546 -3.3925,6.0116 c -1.8659,3.3064 -4.4102,6.3327 -5.6542,6.7253 -1.2439,0.3925 -10.4036,-3.6818 -20.355,-9.0542 z m 138.09,4.8159 c -1.9364,-2.758 -3.5208,-6.0614 -3.5208,-7.3409 0,-3.2087 235.7321,-238.08862 238.9525,-238.08862 3.3317,0 22.9596,21.40879 38.5152,42.00985 11.3321,15.00771 32.3808,49.53412 32.3808,53.11457 0,1.82506 -42.0102,23.71319 -161.7092,84.25363 -46.0249,23.27814 -96.0045,48.79087 -111.0657,56.69497 -15.0611,7.904 -27.9797,14.371 -28.708,14.371 -0.7282,0 -2.9084,-2.2565 -4.8448,-5.0145 z M 780.2752,699.79313 C 687.7861,518.659 674.0473,491.3967 674.0124,488.93197 c -0.094,-6.62415 89.4289,-36.97693 109.0601,-36.97693 5.9793,0 4.5843,-6.98412 26.8151,134.24702 14.2585,90.58339 17.7834,112.65525 24.996,156.51763 3.7486,22.79681 5.9716,42.26974 4.9399,43.2732 -1.0317,1.00345 -4.4202,2.4493 -7.5299,3.213 -5.454,1.33938 -7.2963,-1.82741 -52.0184,-89.41276 z m 95.5554,88.26518 c -6.19,-2.47235 -6.2002,-3.07405 -0.6085,-35.77105 2.4641,-14.40866 10.5376,-64.77947 17.9411,-111.93514 7.4034,-47.15568 17.2365,-108.83598 21.8513,-137.06734 l 8.3905,-51.32974 5.8972,0.0203 c 18.9406,0.0661 102.6929,28.04186 107.5834,35.93608 0.8019,1.29428 -20.2229,44.73233 -46.72167,96.52898 -26.49873,51.79692 -60.90143,119.03155 -76.45033,149.41057 -15.549,30.37902 -29.2886,55.46076 -30.5325,55.7372 -1.244,0.27645 -4.5516,-0.412 -7.3505,-1.52986 z m -446.7042,-4.31903 c -4.6784,-0.91802 -9.0928,-2.25429 -9.8096,-2.96945 -5.7937,-5.7798 32.6969,-123.49582 40.3804,-123.49582 4.9383,0 22.3326,11.75512 21.1522,14.29471 -9.9514,21.40969 -23.8563,60.62909 -29.7291,83.85227 -4.7124,18.63461 -8.5243,29.45093 -10.4525,29.65934 -1.6693,0.1805 -6.863,-0.42302 -11.5414,-1.34105 z m 839.5718,1.67929 c -1.9359,-13.26787 -17.9091,-66.09017 -25.7871,-85.27576 -5.8599,-14.2708 -10.8296,-27.40675 -11.0438,-29.19099 -0.3777,-3.14641 15.0998,-13.56581 20.2626,-13.6407 5.3569,-0.0776 27.3478,58.99983 36.9402,99.238 5.5746,23.38429 5.5963,24.24302 0.6457,25.59783 -6.3225,1.73028 -20.9112,4.00115 -21.0176,3.27162 z M 169.0347,743.10325 c -4.6784,-0.9051 -9.1233,-2.26128 -9.8776,-3.0137 -1.4727,-1.46918 4.2559,-33.84448 9.2641,-52.35613 10.6566,-39.39 15.6438,-55.27819 17.3517,-55.27819 1.07,0 1.9455,-2.61594 1.9455,-5.81319 0,-6.70723 16.1887,-48.60719 28.0605,-72.62682 l 8.1024,-16.39307 8.4931,3.52539 c 16.2204,6.73281 16.2592,7.12626 3.3773,34.24878 -19.4214,40.89133 -42.614,114.52661 -49.2398,156.33402 -1.4212,8.96741 -4.3622,13.93525 -7.8402,13.2435 -0.6219,-0.12364 -4.9586,-0.96547 -9.637,-1.87059 z m 1360.275,-0.82024 c -1.1655,-1.46067 -4.3819,-13.82424 -7.1476,-27.47456 -8.8879,-43.86645 -27.5284,-100.11832 -46.6426,-140.75381 -5.4775,-11.64483 -9.9591,-22.35713 -9.9591,-23.80513 0,-2.14915 17.8316,-12.55688 21.5138,-12.55688 1.8068,0 14.4955,26.42406 24.7051,51.44781 12.8518,31.49993 24.9556,69.35149 32.9586,103.06961 8.9121,37.54792 10.3087,48.25117 6.4533,49.45507 -8.6844,2.71183 -19.9567,3.03014 -21.8815,0.61789 z M 356.4185,597.45661 c -52.1313,-26.56365 -95.7199,-49.23112 -96.8637,-50.37213 -2.7189,-2.71237 5.9786,-19.74502 26.1101,-51.13252 24.484,-38.17356 63.5164,-87.83318 84.9831,-108.12088 l 6.9724,-6.58952 75.9339,75.40522 c 41.7637,41.47287 76.9402,77.20208 78.17,79.39822 1.8157,3.24224 -0.3193,6.84809 -11.3553,19.17815 -19.5412,21.83258 -38.8845,48.0364 -52.3346,70.89583 -6.4313,10.93057 -12.8494,19.82009 -14.2625,19.75448 -1.4131,-0.0657 -45.2221,-21.8532 -97.3534,-48.41685 z m 895.7466,43.45957 c -1.7404,-2.79211 -6.8517,-11.47496 -11.3582,-19.29522 -10.2906,-17.85725 -29.0979,-43.29977 -47.9386,-64.85113 -7.9968,-9.14727 -14.5396,-17.45529 -14.5396,-18.46224 0,-1.00696 35.2005,-36.83941 78.2234,-79.62768 l 78.2235,-77.79682 14.7793,15.79376 c 32.8096,35.06162 69.4436,84.88356 93.4123,127.03983 7.2046,12.67154 11.1185,21.81313 9.8717,23.05703 -2.7986,2.79188 -192.6719,99.21904 -195.3708,99.21904 -1.1762,0 -3.5625,-2.28446 -5.303,-5.07657 z m -698.4814,-91.83523 -9.6875,-9.66425 13.5156,-12.55013 c 24.9453,-23.16343 83.6655,-63.63027 92.332,-63.63027 2.3108,0 12.8247,17.56123 12.8247,21.42095 0,0.54667 -9.6996,6.68882 -21.5547,13.6492 -23.0176,13.51416 -49.7809,33.53727 -67.1077,50.2071 l -10.635,10.23165 z m 585.9741,0.75512 c -11.5474,-11.94087 -48.094,-39.22255 -70.4546,-52.59365 -10.8842,-6.50856 -19.7896,-12.22645 -19.7896,-12.70644 0,-3.76835 10.5558,-21.29968 12.8248,-21.29968 8.7483,0 65.2979,38.99023 92.077,63.48598 l 13.3043,12.16982 -6.1978,7.348 c -10.2762,12.18332 -13.0211,12.63685 -21.7641,3.59597 z M 628.1662,401.8985 C 569.8729,288.83967 553.487,255.37952 555.4631,253.43867 c 4.8474,-4.7609 56.4093,-26.08909 89.9543,-37.20897 39.0407,-12.9416 86.3966,-24.43045 96.0574,-23.30414 5.8652,0.68381 5.9568,1.00098 13.2245,45.81362 4.025,24.81878 11.8646,73.04618 17.4211,107.17199 5.5564,34.12582 9.2871,62.8802 8.2904,63.89863 -0.9968,1.01843 -10.3404,3.72171 -20.7636,6.00727 -31.4378,6.89362 -59.3663,16.47416 -102.9467,35.31471 -1.5312,0.66198 -13.101,-19.30055 -28.5343,-49.23328 z m 409.9391,41.98148 c -21.5929,-9.73889 -61.2494,-22.73448 -85.6704,-28.07451 -10.4232,-2.27919 -19.7576,-4.97724 -20.7431,-5.99567 -0.9855,-1.01843 0.2325,-14.5431 2.7068,-30.05484 2.4742,-15.51174 8.4269,-52.57068 13.2282,-82.35321 4.8013,-29.78254 10.4949,-65.15958 12.6525,-78.61568 2.7504,-17.15359 4.9512,-24.85927 7.3635,-25.78275 8.415,-3.2214 77.9227,14.62551 123.9576,31.82753 32.3923,12.10419 66.3733,27.56827 66.3733,30.20527 0,3.32312 -99.1437,195.67877 -101.0719,196.09678 -1.0087,0.21864 -9.4671,-3.04515 -18.7965,-7.25292 z m -245.2246,-5.78339 c -0.6452,-2.92584 -1.4554,-8.81585 -1.8005,-13.08892 -0.5823,-7.21008 -0.058,-7.89837 7.2883,-9.56344 26.0576,-5.90626 118.1631,-3.73631 122.2623,2.88042 1.2875,2.07821 -1.2705,21.98052 -3.0538,23.75949 -0.36,0.35919 -10.7908,-0.42402 -23.1794,-1.74052 -21.3643,-2.27029 -80.8064,-1.1696 -94.2285,1.74483 -5.1074,1.10901 -6.3087,0.45107 -7.2884,-3.99186 z M 366.8338,363.28971 c -3.9758,-4.09212 -7.2287,-8.56609 -7.2287,-9.94213 0,-1.37604 9.4142,-10.69604 20.9204,-20.71109 11.5063,-10.01505 23.4648,-20.61874 26.5746,-23.56371 23.504,-22.25843 118.5587,-82.95496 124.3353,-79.39342 3.572,2.20233 11.7184,19.07303 10.3087,21.34857 -0.675,1.08948 -8.601,6.02273 -17.6135,10.96279 -39.3103,21.54748 -87.6728,56.30341 -125.3793,90.10441 -11.4333,10.24914 -21.6656,18.63482 -22.7384,18.63482 -1.0727,0 -5.2033,-3.3481 -9.1791,-7.44024 z m 951.7182,-6.52357 c -32.0548,-30.01213 -84.92,-68.71739 -125.2958,-91.73548 -11.0706,-6.31128 -21.2472,-11.84713 -22.6147,-12.30188 -2.7926,-0.92865 7.1782,-24.14273 10.3697,-24.14273 6.336,0 67.8335,38.06968 98.5623,61.01443 24.2607,18.11514 72.9035,60.44595 72.9035,63.44341 0,2.98658 -13.9062,17.69116 -16.6313,17.58615 -1.4261,-0.055 -9.2082,-6.2937 -17.2937,-13.8639 z M 753.8643,180.81311 c -3.3167,-4.18251 -5.7044,-21.62589 -3.1737,-23.1862 1.1486,-0.70822 18.707,-2.90568 39.0186,-4.88325 53.8768,-5.24552 164.7998,-1.59167 172.1571,5.67093 2.0309,2.00479 -1.5252,20.04551 -4.5451,23.05822 -1.1371,1.13442 -9.1762,0.99546 -18.8377,-0.32564 -42.1118,-5.75825 -139.3184,-4.96666 -175.3158,1.42768 -4.3635,0.7751 -7.809,0.12265 -9.3034,-1.76174 z m 129.5379,-77.98057 c -2.2112,-2.20592 -1.4648,-60.100092 0.8214,-63.706362 3.342,-5.27181 5.0245,-1.40775 6.3024,14.47393 0.824,10.24096 0.3991,14.79201 -1.3811,14.79201 -3.1686,0 -3.4302,10.48539 -0.3097,12.40939 3.5556,2.19221 2.7941,20.747822 -0.9097,22.165682 -1.7442,0.66773 -3.7797,0.60714 -4.5233,-0.13466 z"
     style="fill:#000000;stroke-width:2.25896" />
</svg>
