<?xml version="1.0" encoding="UTF-8" standalone="no"?>
<svg
   xmlns:dc="http://purl.org/dc/elements/1.1/"
   xmlns:cc="http://creativecommons.org/ns#"
   xmlns:rdf="http://www.w3.org/1999/02/22-rdf-syntax-ns#"
   xmlns:svg="http://www.w3.org/2000/svg"
   xmlns="http://www.w3.org/2000/svg"
   xmlns:sodipodi="http://sodipodi.sourceforge.net/DTD/sodipodi-0.dtd"
   xmlns:inkscape="http://www.inkscape.org/namespaces/inkscape"
   inkscape:version="1.0 (4035a4fb49, 2020-05-01)"
   sodipodi:docname="ПИСТОЛЕТ.svg"
   viewBox="0 0 1262.8081 857.08746"
   height="857.08746"
   width="1262.8081"
   id="svg8"
   version="1.1">
  <metadata
     id="metadata14">
    <rdf:RDF>
      <cc:Work
         rdf:about="">
        <dc:format>image/svg+xml</dc:format>
        <dc:type
           rdf:resource="http://purl.org/dc/dcmitype/StillImage" />
        <dc:title></dc:title>
      </cc:Work>
    </rdf:RDF>
  </metadata>
  <defs
     id="defs12" />
  <sodipodi:namedview
     inkscape:current-layer="g16"
     inkscape:window-maximized="1"
     inkscape:window-y="-6"
     inkscape:window-x="-6"
     inkscape:cy="277.56948"
     inkscape:cx="450.79809"
     inkscape:zoom="0.31729151"
     showgrid="false"
     id="namedview10"
     inkscape:window-height="1018"
     inkscape:window-width="1920"
     inkscape:pageshadow="2"
     inkscape:pageopacity="0"
     guidetolerance="10"
     gridtolerance="10"
     objecttolerance="10"
     borderopacity="1"
     bordercolor="#666666"
     pagecolor="#ffffff"
     inkscape:document-rotation="0" />
  <g
     transform="translate(-497.21566,-170.10824)"
     id="g16"
     inkscape:label="Image"
     inkscape:groupmode="layer">
    <path
       id="path8"
       d="m 673.77021,1014.636 c -36.75365,-6.7525 -67.58067,-13.5002 -68.50451,-14.99503 -0.92384,-1.49481 -0.11636,-7.14886 1.79441,-12.56454 1.91077,-5.41571 3.47412,-10.13161 3.47412,-10.47983 0,-1.34205 -22.33998,-6.10614 -52.0243,-11.09441 -38.32096,-6.43956 -59.51531,-12.17143 -61.19547,-16.54987 -2.56434,-6.68255 45.09829,-137.27181 106.99604,-293.15492 15.41951,-38.83244 29.81666,-76.65951 31.99369,-84.06014 8.90245,-30.26331 0.9637,-61.63793 -21.88075,-86.47463 -13.6161,-14.80355 -23.8458,-18.3112 -59.62954,-20.4463 -32.5206,-1.94038 -48.07078,-5.3151 -48.59356,-10.54582 -1.20936,-12.10024 7.80928,-26.65352 22.72496,-36.67102 5.59599,-3.75831 20.95193,-10.96105 34.12432,-16.00612 38.65811,-14.80615 46.00844,-19.13771 50.70158,-29.87863 12.50069,-28.60958 12.30298,-78.99817 -0.3665,-93.40957 -2.24903,-2.55826 -13.76228,-11.17202 -25.585,-19.1417 -23.90688,-16.11559 -30.72705,-23.51444 -26.43854,-28.68177 3.80774,-4.58805 17.57313,-3.99584 39.26368,1.68918 32.74838,8.58324 36.76296,7.15292 57.69173,-20.55458 8.84545,-11.71044 16.91293,-15.76889 37.99446,-19.11355 14.74578,-2.33948 18.37647,-4.01594 27.03631,-12.48397 15.68662,-15.33916 26.13518,-13.12128 39.5438,8.39382 2.19481,3.52173 13.77891,4.05403 101.57127,4.66724 54.50166,0.38068 105.34657,-0.20451 112.98872,-1.3004 12.78418,-1.83329 14.49586,-1.48677 21.41507,4.33536 l 7.5203,6.3279 h 81.8529 c 60.1064,0 83.7058,-0.82263 88.8269,-3.09636 5.3525,-2.37644 61.5071,-3.38444 241.5184,-4.33536 l 234.5444,-1.23899 15.1781,-10.70552 c 8.3479,-5.88804 18.7429,-11.22128 23.0998,-11.85164 10.9307,-1.58145 25.7581,7.47096 34.9861,21.35969 4.0589,6.10877 9.3844,12.56358 11.8345,14.34402 2.4501,1.78044 4.4547,4.57102 4.4547,6.20129 0,1.63027 3.9019,8.45214 8.6707,15.15968 l 8.6708,12.19554 -0.069,33.62747 c -0.068,33.41318 -0.1159,33.68948 -7.432,43.35884 l -7.3632,9.73137 v 36.2031 36.2031 l -11.2048,10.9967 -11.2048,10.9967 -116.9268,0.9592 -116.9268,0.95923 -7.6926,5.8674 -7.6926,5.86738 -88.9951,-1.56447 c -48.9474,-0.86046 -106.564,-0.72733 -128.0368,0.29587 l -39.0417,1.86031 -12.427,11.17294 c -21.8564,19.6508 -25.0727,27.74494 -27.6159,69.49824 -2.9167,47.88379 -9.362,62.59309 -34.47,78.66593 -19.9038,12.74135 -29.5568,13.98562 -122.806,15.83001 l -87.12375,1.72321 -9.78751,6.78274 c -10.62205,7.36109 -22.31323,20.79758 -28.34029,32.57105 -4.96721,9.70313 -20.60787,59.62709 -51.22445,163.50497 -13.65405,46.32641 -30.518,102.06674 -37.47544,123.86741 -6.95743,21.80066 -13.29511,46.15341 -14.08367,54.11724 -1.35583,13.69231 -1.05448,14.78221 5.542,20.04201 4.66586,3.7204 6.45327,6.924 5.39782,9.6745 -1.35902,3.5415 -5.79952,4.0784 -32.00325,3.8689 -25.12856,-0.2009 -42.0587,-2.3806 -97.25005,-12.5204 z M 1117.0095,592.25832 c 26.2561,-9.83826 38.6821,-30.66575 40.4852,-67.85803 1.0511,-21.68195 0.6223,-24.66512 -5.1947,-36.14456 -6.6272,-13.07821 -18.4872,-25.05904 -32.0848,-32.41178 -5.8181,-3.14606 -13.7955,-4.34825 -29.0754,-4.38169 -25.6083,-0.056 -39.5011,5.94997 -55.8657,24.15134 -13.8115,15.36174 -19.3086,31.69272 -17.9838,53.42674 1.2973,21.28359 6.7234,32.12422 26.6542,53.25198 l 16.1686,17.13954 22.326,-1.29276 c 12.5453,-0.72641 27.6902,-3.30272 34.5704,-5.88078 z"
       style="fill:#000000;stroke-width:2.47735" />
  </g>
</svg>
