<?xml version="1.0" encoding="UTF-8" standalone="no"?>
<svg
   xmlns:dc="http://purl.org/dc/elements/1.1/"
   xmlns:cc="http://creativecommons.org/ns#"
   xmlns:rdf="http://www.w3.org/1999/02/22-rdf-syntax-ns#"
   xmlns:svg="http://www.w3.org/2000/svg"
   xmlns="http://www.w3.org/2000/svg"
   xmlns:sodipodi="http://sodipodi.sourceforge.net/DTD/sodipodi-0.dtd"
   xmlns:inkscape="http://www.inkscape.org/namespaces/inkscape"
   version="1.1"
   id="svg277"
   width="1048.3018"
   height="298.3382"
   viewBox="0 0 1048.3018 298.33819"
   sodipodi:docname="ВИНТОВКА.svg"
   inkscape:version="1.0 (4035a4fb49, 2020-05-01)">
  <metadata
     id="metadata283">
    <rdf:RDF>
      <cc:Work
         rdf:about="">
        <dc:format>image/svg+xml</dc:format>
        <dc:type
           rdf:resource="http://purl.org/dc/dcmitype/StillImage" />
        <dc:title></dc:title>
      </cc:Work>
    </rdf:RDF>
  </metadata>
  <defs
     id="defs281" />
  <sodipodi:namedview
     inkscape:document-rotation="0"
     pagecolor="#ffffff"
     bordercolor="#666666"
     borderopacity="1"
     objecttolerance="10"
     gridtolerance="10"
     guidetolerance="10"
     inkscape:pageopacity="0"
     inkscape:pageshadow="2"
     inkscape:window-width="1920"
     inkscape:window-height="1018"
     id="namedview279"
     showgrid="false"
     inkscape:zoom="0.8833336"
     inkscape:cx="509.38009"
     inkscape:cy="429.16027"
     inkscape:window-x="-6"
     inkscape:window-y="-6"
     inkscape:window-maximized="1"
     inkscape:current-layer="g285" />
  <g
     transform="translate(71.320837,218.07921)"
     inkscape:groupmode="layer"
     inkscape:label="Image"
     id="g285">
    <path
       id="path8"
       d="m 955.14132,73.138603 c -9.6094,-3.85801 -26.1202,-10.45193 -36.69054,-14.65315 -10.57037,-4.20123 -26.68801,-10.61527 -35.81698,-14.25344 -9.12896,-3.63816 -27.60528,-10.97504 -41.05848,-16.30416 -13.45321,-5.32912 -31.92953,-12.70589 -41.05849,-16.39282 C 791.38787,7.8481227 775.16774,1.4440527 764.47211,-2.6962273 l -19.44663,-7.5277897 -10.51022,8.1544797 -10.51024,8.15446 h -20.90913 -20.90911 l -2.25551,-8.29009 C 672.39864,-29.891307 647.89394,-43.940707 609.20175,-42.756867 l -13.97736,0.42765 -17.80743,19.89622 c -9.79407,10.94293 -19.10294,21.89020971 -20.68635,24.3272997 l -2.87895,4.43108 -33.47589,-0.57425 c -35.77281,-0.61365 -44.64057,-1.79708 -63.04879,-8.41399 -20.08799,-7.22071 -37.68791,-24.0332997 -37.69176,-36.0055997 l -10e-4,-4.29773 -81.68018,-0.34473 -81.68018,-0.34472 -0.47535,-24.87028 -0.47534,-24.87028 H 92.000977 -71.320837 v -12.551163 -12.55118 l 16.161319,-0.38137 16.16132,-0.38138 0.339244,-10.61132 c 0.186584,-5.83623 0.383141,-11.37983 0.436793,-12.31912 0.07387,-1.29316 4.021219,-1.6152 16.258867,-1.32641 l 16.1613186,0.38138 0.502466,12.27556 0.502465,12.27556 179.4560144,-0.33783 179.45601,-0.33782 0.48044,-21.6128 c 0.26424,-11.88704 -0.14764,-22.46477 -0.91515,-23.50604 -1.11444,-1.51184 -7.70635,0.50821 -32.72018,10.02686 l -31.32458,11.92012 -49.00366,-0.3518 -49.00365,-0.35181 -0.464,-37.47122 -0.46401,-37.47123 h 49.83901 49.83903 l 33.19083,12.61217 33.19082,12.61217 96.51905,-0.34283 96.51905,-0.34283 0.87359,-11.93773 0.87358,-11.93774 h 32.32264 32.32264 v 37.13962 37.13962 h -32.32264 -32.32264 l -0.50236,-12.26934 -0.50235,-12.26934 h -15.65897 -15.65896 v 24.53868 24.53868 h 40.83548 c 38.8508,0 41.5044,0.16259 54.59905,3.34545 7.56997,1.84001 15.72914,4.06599 18.1315,4.94665 5.4517,1.99847 32.01163,14.354723 33.19623,15.443593 0.48047,0.44164 5.95991,4.08586 12.17653,8.09827 6.21662,4.0124 14.55766,9.83205 18.53565,12.93254 l 7.23271,5.63727 H 840.45531 976.98092 V 6.0849327 c 0,58.5953703 -0.4611,74.2569603 -2.1839,74.1737303 -1.2012,-0.058 -10.0462,-3.26205 -19.6557,-7.12006 z m -424.74049,-93.05037 c 2.92756,-0.85288 20.27074,-19.42669 20.27074,-21.70911 0,-0.9112 -16.12633,-1.37155 -48.04717,-1.37155 -32.38209,0 -48.04716,0.45394 -48.04716,1.39228 0,5.77354 11.75238,13.7594 25.33396,17.21464 15.52098,3.94866 43.71635,6.44696 50.48963,4.47374 z M 485.1527,-143.13676 v -23.87547 l -48.48395,-0.35259 -48.48396,-0.35259 v 24.58065 24.58064 l 48.48396,-0.35258 48.48395,-0.35259 z"
       style="fill:#000000;stroke-width:1.52232" />
  </g>
</svg>
