<?xml version="1.0" encoding="UTF-8" standalone="no"?>
<svg
   xmlns:dc="http://purl.org/dc/elements/1.1/"
   xmlns:cc="http://creativecommons.org/ns#"
   xmlns:rdf="http://www.w3.org/1999/02/22-rdf-syntax-ns#"
   xmlns:svg="http://www.w3.org/2000/svg"
   xmlns="http://www.w3.org/2000/svg"
   xmlns:sodipodi="http://sodipodi.sourceforge.net/DTD/sodipodi-0.dtd"
   xmlns:inkscape="http://www.inkscape.org/namespaces/inkscape"
   version="1.1"
   id="svg26"
   width="2399.1125"
   height="2388.4951"
   viewBox="0 0 2399.1125 2388.4951"
   sodipodi:docname="мишень.svg"
   inkscape:version="1.0 (4035a4fb49, 2020-05-01)">
  <metadata
     id="metadata32">
    <rdf:RDF>
      <cc:Work
         rdf:about="">
        <dc:format>image/svg+xml</dc:format>
        <dc:type
           rdf:resource="http://purl.org/dc/dcmitype/StillImage" />
        <dc:title></dc:title>
      </cc:Work>
    </rdf:RDF>
  </metadata>
  <defs
     id="defs30" />
  <sodipodi:namedview
     inkscape:document-rotation="0"
     pagecolor="#ffffff"
     bordercolor="#666666"
     borderopacity="1"
     objecttolerance="10"
     gridtolerance="10"
     guidetolerance="10"
     inkscape:pageopacity="0"
     inkscape:pageshadow="2"
     inkscape:window-width="1920"
     inkscape:window-height="1018"
     id="namedview28"
     showgrid="false"
     inkscape:zoom="0.35"
     inkscape:cx="373.34746"
     inkscape:cy="1203.046"
     inkscape:window-x="-6"
     inkscape:window-y="-6"
     inkscape:window-maximized="1"
     inkscape:current-layer="g34" />
  <g
     transform="translate(-826.65254,-308.68495)"
     inkscape:groupmode="layer"
     inkscape:label="Image"
     id="g34">
    <path
       id="path8"
       d="m 2013.5907,2695.1193 c -7.2288,-2.8457 -14.92,-10.1584 -18.2648,-17.3662 -2.3561,-5.0774 -2.4203,-6.4672 -2.731,-59.1728 -0.254,-43.1143 -0.6061,-53.9732 -1.7497,-53.9732 -14.8202,0 -71.961,-4.5558 -98.5595,-7.8582 -237.5852,-29.497 -458.3694,-138.4558 -627.1279,-309.4924 -155.6467,-157.748 -257.0566,-356.6604 -292.30396,-573.3458 -4.36628,-26.842 -7.34363,-50.2863 -9.49075,-74.7321 -1.48274,-16.8816 -3.96548,-55.0578 -3.96548,-60.9757 0,-1.9649 -2.28946,-2.0649 -54.20535,-2.3683 -53.86478,-0.3148 -54.23768,-0.3326 -59.35045,-2.8408 -21.64805,-10.6201 -25.82165,-38.2629 -8.19845,-54.3005 9.98875,-9.0901 9.68372,-9.0504 69.62241,-9.0504 49.7094,0 52.13184,-0.094 52.13184,-2.019 0,-1.1104 0.51444,-11.1992 1.1432,-22.4197 11.93308,-212.9504 84.49319,-410.873 213.26419,-581.72208 46.124,-61.19583 108.1221,-125.94945 169.7557,-177.30053 102.8091,-85.65726 227.5654,-154.07893 354.7155,-194.54116 72.1629,-22.96396 142.3885,-37.63364 218.029,-45.5449 15.3631,-1.60684 64.2458,-4.97149 72.3981,-4.98325 l 3.5735,-0.006 0.3181,-53.97322 c 0.3097,-52.5423 0.3815,-54.10968 2.7079,-59.1205 3.0596,-6.59045 10.3058,-13.79846 16.9027,-16.81386 7.5369,-3.44502 21.0787,-3.3319 27.9635,0.23359 6.8061,3.52473 11.8552,8.4744 15.388,15.0847 l 2.9584,5.53572 0.3178,54.52678 0.3178,54.52679 3.5739,0.006 c 6.4218,0.009 55.5472,3.23797 67.5084,4.43692 201.5348,20.20116 389.1502,94.5403 548.725,217.42219 72.424,55.77071 143.8464,127.85257 198.6765,200.51073 112.8292,149.51588 183.4701,322.73718 206.5615,506.51788 3.438,27.363 7.803,81.1944 7.8293,96.5586 v 3.005 l 54.7613,0.3164 54.7613,0.3164 5.6302,2.9586 c 8.8244,4.6373 15.8627,13.3021 17.6995,21.7899 2.713,12.5362 -0.8279,23.7419 -10.1963,32.2674 -9.799,8.9174 -9.3389,8.8591 -70.0423,8.8591 h -52.6137 v 3.0447 c -0.012,7.4659 -3.4259,56.6462 -4.9753,71.6875 -18.4171,178.7918 -81.128,348.1942 -183.4086,495.4464 -37.1236,53.4464 -74.7683,98.2365 -122.8996,146.2275 -41.1336,41.0137 -71.4861,67.3998 -115.1267,100.0818 -158.0484,118.3609 -348.0524,191.0861 -543.7214,208.1123 -15.5265,1.351 -55.7899,3.9355 -61.3111,3.9355 -1.1443,0 -1.4957,10.9538 -1.7497,54.5268 l -0.3178,54.5268 -2.6216,4.9821 c -6.0641,11.5242 -15.7799,17.8116 -28.5117,18.4509 -6.012,0.3019 -9.1506,-0.1475 -13.7914,-1.9744 z m -21.2336,-396.1467 V 2166.195 l -5.8375,-0.5833 c -3.2106,-0.321 -12.5923,-1.1219 -20.8482,-1.78 -75.5495,-6.0216 -157.592,-28.5383 -229.5705,-63.0058 -110.3029,-52.8196 -207.7929,-139.2711 -273.4847,-242.5189 -56.356,-88.5746 -92.408,-193.8348 -100.6975,-294.0034 -0.6551,-7.9161 -1.4659,-17.5067 -1.8017,-21.3125 l -0.6107,-6.9197 h -133.4235 -133.4236 l 0.6812,10.2411 c 3.9971,60.0973 8.3068,94.7288 17.3944,139.7768 30.2478,149.9411 95.8458,287.4363 194.0893,406.8161 35.8939,43.6163 84.5673,92.0829 128.2995,127.7546 115.0685,93.8595 246.47,157.574 390.7799,189.4828 53.1135,11.744 101.3656,17.9997 165.3959,21.4428 l 3.0577,0.1644 z m 102.2952,130.4657 c 142.418,-9.6172 288.2338,-55.6199 411.4048,-129.7919 72.3201,-43.5503 132.9539,-91.8123 192.9644,-153.592 111.7784,-115.0737 192.5562,-260.1225 231.8001,-416.233 15.1039,-60.0821 22.9332,-112.4755 27.2572,-182.4018 l 0.7017,-11.3482 h -133.4228 -133.4228 l -0.706,8.5804 c -2.134,25.9341 -3.185,35.804 -5.6347,52.9087 -18.4721,128.9843 -75.278,250.2052 -162.8156,347.4391 -90.273,100.2724 -205.8895,169.6592 -336.9501,202.2195 -31.5373,7.8351 -69.9496,14.2118 -100.0714,16.6126 -8.2559,0.6581 -17.6376,1.459 -20.8482,1.78 l -5.8375,0.5833 v 132.784 132.7839 l 9.7291,-0.618 c 5.3511,-0.3399 16.9844,-1.1079 25.8518,-1.7066 z m -102.2952,-516.8882 v -120.6284 l -4.1696,-0.6712 c -17.2941,-2.7841 -35.8959,-6.7931 -46.8325,-10.0933 -75.2538,-22.7082 -138.8039,-75.3527 -174.7642,-144.7737 -15.8304,-30.5602 -24.9858,-59.3725 -30.5558,-96.1603 l -0.6287,-4.1518 h -121.1259 -121.126 l 0.516,4.7054 c 0.2838,2.5879 1.0408,9.9366 1.6821,16.3303 4.6761,46.6191 15.7392,92.7247 32.865,136.9663 47.2837,122.1491 140.5608,224.4559 258.0074,282.9835 63.6314,31.7097 127.2959,49.2393 201.1286,55.3795 2.4462,0.2035 4.5727,0.4536 4.7256,0.556 0.1529,0.103 0.278,-54.0966 0.278,-120.4423 z m 92.844,117.8389 c 142.1383,-16.3455 268.6121,-86.0996 357.9173,-197.4019 63.2439,-78.8218 102.9086,-175.6962 112.9576,-275.88 0.6413,-6.3937 1.3982,-13.7424 1.6821,-16.3303 l 0.5159,-4.7054 h -121.1763 c -71.1295,0 -121.1763,0.4119 -121.1763,0.9971 0,3.1027 -4.8227,28.3069 -7.2127,37.6952 -6.9881,27.4498 -22.7372,63.1903 -38.0788,86.4149 -45.2465,68.4957 -118.8463,116.435 -197.1038,128.3836 -4.5866,0.7003 -9.7152,1.5347 -11.397,1.8542 l -3.0577,0.5809 v 120.0371 120.037 l 5.8375,-0.011 c 3.2106,-0.011 12.3421,-0.758 20.2922,-1.6723 z m -725.5178,-561.632 c 0,-4.8445 2.7628,-34.4562 4.5658,-48.9356 25.3998,-203.9841 145.8391,-385.666 325.114,-490.43239 20.388,-11.91459 64.5555,-33.53382 85.7967,-41.99611 67.7225,-26.97989 133.7651,-42.05244 206.9122,-47.22247 l 10.2851,-0.72695 V 706.61514 573.78681 l -11.397,0.69873 c -6.2684,0.38429 -18.1519,1.19414 -26.4078,1.79967 -266.1274,19.51886 -512.5333,153.80825 -674.2567,367.46477 -24.6621,32.5817 -44.3858,62.29502 -65.4081,98.53572 -12.1945,21.0223 -39.1918,75.269 -49.039,98.5357 -34.7277,82.0537 -57.4341,168.6668 -67.3678,256.9732 -1.9588,17.4136 -3.0941,31.0277 -5.1372,61.6072 l -0.6843,10.2411 h 133.5121 c 73.4316,0 133.512,-0.3986 133.512,-0.8859 z m 375.8238,-0.1112 c 0,-3.0748 4.8117,-28.264 7.1644,-37.5056 9.7637,-38.3528 30.616,-79.7985 55.7666,-110.8413 36.5463,-45.1083 87.473,-79.3243 142.7714,-95.9236 10.6853,-3.2074 29.7044,-7.4273 42.5303,-9.4364 l 8.6173,-1.3499 v -120.5266 c 0,-66.2897 -0.3753,-120.51686 -0.8339,-120.50483 -3.7897,0.0994 -35.5642,3.62638 -45.3101,5.02944 -26.6,3.8294 -61.1805,12.08131 -88.1959,21.04612 -84.6792,28.10007 -162.0824,77.45187 -221.6093,141.29667 -80.7186,86.5739 -129.4806,193.2818 -141.0554,308.6773 -0.6413,6.3938 -1.3983,13.7425 -1.6821,16.3304 l -0.516,4.7054 h 121.1764 c 71.1294,0 121.1763,-0.4119 121.1763,-0.9971 z m 822.3479,-2.6012 c -0.3092,-1.979 -0.868,-7.5839 -1.2418,-12.4553 -1.0147,-13.2243 -4.7538,-39.16 -7.9011,-54.8036 -37.6815,-187.2972 -172.9495,-339.6409 -355.3008,-400.15257 -27.0154,-8.96481 -61.5959,-17.21672 -88.1959,-21.04612 -9.7459,-1.40306 -41.5204,-4.93003 -45.3101,-5.02944 -0.4587,-0.0121 -0.8339,54.21053 -0.8339,120.49453 v 120.5164 l 11.953,1.9073 c 115.6365,18.4511 209.115,103.2522 237.7325,215.6644 2.3528,9.2416 7.1645,34.4308 7.1645,37.5056 0,0.5852 50.076,0.9971 121.248,0.9971 h 121.2479 z m 400.2238,-7.75 c -7.6466,-123.6588 -31.7905,-225.7132 -78.1198,-330.2053 -106.2377,-239.61169 -309.739,-424.1939 -559.0341,-507.06182 -80.5121,-26.76297 -155.6811,-40.7315 -250.4565,-46.54194 l -11.397,-0.69873 v 132.82833 132.82834 l 10.2851,0.72695 c 73.1471,5.17003 139.1897,20.24258 206.9121,47.22247 21.2413,8.46229 65.4087,30.08152 85.7968,41.99611 82.3082,48.10005 153.7501,113.50299 208.5813,190.95029 68.675,97.001 109.7246,209.4167 119.4656,327.1607 0.8817,10.6562 1.6097,19.9978 1.618,20.7589 0.012,1.0994 27.4677,1.384 133.5325,1.384 h 133.5177 z"
       style="fill:#000000;stroke-width:1.10952" />
  </g>
</svg>
