<?xml version="1.0" encoding="UTF-8" standalone="no"?>
<svg
   xmlns:dc="http://purl.org/dc/elements/1.1/"
   xmlns:cc="http://creativecommons.org/ns#"
   xmlns:rdf="http://www.w3.org/1999/02/22-rdf-syntax-ns#"
   xmlns:svg="http://www.w3.org/2000/svg"
   xmlns="http://www.w3.org/2000/svg"
   xmlns:sodipodi="http://sodipodi.sourceforge.net/DTD/sodipodi-0.dtd"
   xmlns:inkscape="http://www.inkscape.org/namespaces/inkscape"
   xml:space="preserve"
   width="27.45322mm"
   height="36.935352mm"
   version="1.1"
   style="clip-rule:evenodd;fill-rule:evenodd;image-rendering:optimizeQuality;shape-rendering:geometricPrecision;text-rendering:geometricPrecision"
   viewBox="0 0 47.440316 63.832322"
   id="svg462"
   sodipodi:docname="юристы.svg"
   inkscape:version="1.0 (4035a4fb49, 2020-05-01)"><metadata
   id="metadata466"><rdf:RDF><cc:Work
       rdf:about=""><dc:format>image/svg+xml</dc:format><dc:type
         rdf:resource="http://purl.org/dc/dcmitype/StillImage" /><dc:title></dc:title></cc:Work></rdf:RDF></metadata><sodipodi:namedview
   inkscape:document-rotation="0"
   pagecolor="#ffffff"
   bordercolor="#666666"
   borderopacity="1"
   objecttolerance="10"
   gridtolerance="10"
   guidetolerance="10"
   inkscape:pageopacity="0"
   inkscape:pageshadow="2"
   inkscape:window-width="1920"
   inkscape:window-height="1018"
   id="namedview464"
   showgrid="false"
   inkscape:zoom="3.0153583"
   inkscape:cx="122.11302"
   inkscape:cy="45.215195"
   inkscape:window-x="-6"
   inkscape:window-y="-6"
   inkscape:window-maximized="1"
   inkscape:current-layer="svg462" />
 <defs
   id="defs456">
  <style
   type="text/css"
   id="style454">
   <![CDATA[
    .fil0 {fill:#2B2A29}
   ]]>
  </style>
 </defs>
 
<path
   id="path8"
   d="m 14.39422,63.729451 c -0.04974,-0.05771 -0.09043,-0.154709 -0.09043,-0.215542 0,-0.06083 -0.0763,-0.156148 -0.16955,-0.211813 -0.249013,-0.148642 -0.584007,-0.531868 -0.584007,-0.668091 0,-0.06506 0.07369,-0.28397 0.163764,-0.486462 0.10656,-0.239561 0.183748,-0.627812 0.22097,-1.111469 0.03146,-0.408816 0.08119,-1.0458 0.110498,-1.415522 l 0.0533,-0.672219 -0.358287,-0.814385 c -0.197059,-0.447911 -0.484774,-1.070167 -0.639369,-1.382792 -0.154594,-0.312624 -0.434042,-0.902893 -0.620995,-1.311709 -0.782031,-1.710095 -1.964666,-4.247451 -2.017534,-4.328641 -0.03132,-0.0481 -0.23445,-0.48096 -0.451402,-0.961921 -0.2169525,-0.48096 -0.7005945,-1.523769 -1.0747605,-2.317353 -0.987822,-2.09511 -1.585476,-3.370764 -1.905094,-4.066299 -0.371181,-0.807743 -0.761866,-1.646771 -1.017975,-2.186183 -0.114178,-0.24048 -0.353036,-0.752047 -0.530795,-1.136815 -0.859583,-1.860604 -1.187835,-2.564527 -1.34568,-2.885761 -0.09453,-0.192384 -0.242552,-0.497356 -0.328934,-0.677716 -0.08638,-0.18036 -0.214944,-0.327927 -0.285695,-0.327927 -0.07075,0 -0.597347,0.258446 -1.170214,0.574325 -1.096159,0.604421 -1.46155802,0.746042 -1.46155802,0.566467 0,-0.05793 0.48321902,-0.695716 1.07381902,-1.417296 0.919495,-1.123413 1.072145,-1.349456 1.062169,-1.572856 -0.0064,-0.143491 -0.06768,-0.332741 -0.136163,-0.420554 -0.103606,-0.132854 -0.160609,-0.143849 -0.339505,-0.06549 -0.459921,0.201457 -1.053776,-0.193839 -1.39463,-0.928325 -0.128782,-0.277505 -0.135128,-0.354112 -0.05155,-0.622326 0.06184,-0.198459 0.07788,-0.48464 0.04567,-0.814967 -0.03996,-0.409881 -0.02606,-0.53181 0.07134,-0.625615 0.187746,-0.180817 0.148104,-0.399879 -0.22342102,-1.234646 -0.316963,-0.712172 -0.36949,-0.783478 -0.659363,-0.895098 C 0.06573048,28.989286 0.02070148,28.935757 4.7648969e-7,28.691653 -0.03089952,28.327242 0.23781348,27.684269 0.51765548,27.45303 c 0.180192,-0.148896 0.310403,-0.175017 0.76592802,-0.153643 l 0.548829,0.02575 0.01828,0.48096 c 0.02301,0.605252 0.571602,1.920997 0.801688,1.922756 0.07797,6.12e-4 0.411435,-0.165655 0.741026,-0.369448 0.675533,-0.417694 0.761394,-0.555469 1.458489,-2.340334 0.372829,-0.9546 0.406058,-1.020021 1.180825,-2.324776 0.25946,-0.436947 0.724569,-1.243648 1.033576,-1.79267 0.309008,-0.549022 0.670012,-1.155626 0.802233,-1.34801 0.132221,-0.192384 0.331995,-0.605573 0.443944,-0.918197 0.71303,-1.991194 3.0484065,-7.084727 3.7678975,-8.217907 0.320697,-0.505089 1.047432,-0.946649 1.75561,-1.0667 0.842286,-0.142784 1.236545,-0.311262 1.682352,-0.718913 0.467254,-0.427264 0.761699,-1.0066796 0.774573,-1.5242187 C 16.300506,8.8004909 16.292755,8.7917716 15.922507,8.694671 15.515825,8.5880074 15.248614,8.4495324 15.037983,8.2362919 14.965173,8.1625741 14.829528,8.0591041 14.73656,8.0063585 14.424614,7.8293733 14.272576,7.3016298 14.243267,6.2940627 c -0.01947,-0.6691716 4.53e-4,-0.9593549 0.07342,-1.0699541 0.211433,-0.3204477 1.21383,-0.4496875 3.453462,-0.445257 1.139756,0.00225 2.285908,0.04272 2.547005,0.089922 0.422881,0.07645 0.482543,0.068867 0.546329,-0.069445 0.212874,-0.4615805 0.03286,-0.63766 -0.983373,-0.9618885 -0.269397,-0.085951 -0.417356,-0.1586419 -0.3288,-0.1615357 0.08856,-0.00289 0.444463,0.090011 0.790903,0.2064553 0.34644,0.1164441 0.639564,0.2004911 0.651387,0.1867709 0.09362,-0.1086398 0.142036,-0.5762589 0.06698,-0.6468534 -0.142741,-0.13425 -1.268723,-0.5203421 -2.101808,-0.7206967 -1.257352,-0.3023897 -2.636565,-0.1475659 -4.063318,0.4561289 -0.73338,0.3103111 -0.71278,0.5322806 0.02894,0.3118064 0.850089,-0.2526876 1.262672,-0.3237245 1.813329,-0.3122115 l 0.54262,0.011345 -0.559263,0.075227 c -0.556302,0.074829 -1.805846,0.4337304 -2.157608,0.6197214 -0.101379,0.053603 -0.184844,0.1600087 -0.185479,0.2364566 -6.03e-4,0.076448 -0.02838,0.1887681 -0.06165,0.2496004 -0.03327,0.060832 -0.05819,-0.275231 -0.05536,-0.7468072 l 0.0051,-0.8574115 0.37564,-0.6379576 c 0.460425,-0.7819521 1.648107,-1.98727797 2.042872,-2.07321957 0.143082,-0.03115 0.403473,-0.00934 0.578645,0.048458 0.577138,0.1904371 0.728301,0.1986318 1.035224,0.056121 0.447011,-0.2075579 0.991398,-0.1808177 1.417271,0.069616 0.458909,0.2698614 1.358374,1.36708287 1.619849,1.97598887 0.246667,0.5744244 0.25572,0.9729663 0.04118,1.8129619 l -0.161629,0.6328264 0.199069,0.3490808 c 0.241354,0.4232326 0.255812,0.9159614 0.05141,1.7519873 -0.384379,1.5721243 -0.52213,1.7480648 -1.369066,1.7486191 -0.619581,4.023e-4 -0.731653,0.1108043 -0.606112,0.5970611 0.113194,0.4384302 0.422998,0.8989117 0.867243,1.2890357 0.306174,0.268875 0.53545,0.368187 1.431759,0.620165 1.742006,0.48973 2.487684,0.711903 2.687355,0.800689 0.103614,0.04608 0.545786,0.397275 0.982604,0.780447 0.436819,0.383173 0.860695,0.737489 0.941947,0.78737 0.157617,0.09676 2.668403,1.206462 3.334018,1.473548 0.389022,0.156099 0.404524,0.155863 0.678201,-0.01034 0.930295,-0.56497 2.506515,-1.634047 3.22218,-2.185455 0.810334,-0.62435 0.986536,-0.813503 1.981136,-2.126759 0.549898,-0.726078 0.779523,-0.882255 1.694319,-1.1523627 l 0.664451,-0.1961906 0.286831,0.2518289 c 0.726703,0.6380264 1.93218,1.8074284 1.99283,1.9331934 0.04661,0.09664 0.02931,0.171695 -0.05631,0.244346 -0.174492,0.148065 -0.156581,0.191194 0.121332,0.292154 0.219873,0.07987 1.536538,0.412488 2.015767,0.509218 0.103614,0.02091 0.408804,0.09279 0.678201,0.159722 0.269397,0.06693 0.811958,0.188068 1.205692,0.269187 0.690784,0.142318 0.904269,0.268272 0.904269,0.533509 0,0.07317 -0.09811,0.114457 -0.27199,0.114457 -0.263491,0 -0.270943,0.0089 -0.238505,0.284204 0.03161,0.268322 0.802179,3.474188 1.770848,7.367435 l 0.435151,1.748946 0.286791,0.02743 c 0.157735,0.01509 0.302915,0.07619 0.322624,0.135794 0.124942,0.377839 -0.639179,1.444593 -1.322672,1.84652 -0.911987,0.536294 -2.406701,0.725064 -3.529042,0.44569 -1.048175,-0.260913 -2.123618,-1.190635 -2.244874,-1.940695 -0.05614,-0.347253 -0.0028,-0.443044 0.270324,-0.485474 0.173201,-0.02691 0.2297,-0.170276 0.700754,-1.778213 0.2818,-0.96192 0.595779,-2.063757 0.697731,-2.448525 0.101952,-0.384768 0.466899,-1.666263 0.810996,-2.847767 0.344095,-1.181503 0.612239,-2.194798 0.595875,-2.251768 -0.02241,-0.078 -0.976276,-0.103579 -3.862171,-0.103579 -2.107827,0 -3.848998,0.03114 -3.869268,0.0692 -0.02027,0.03806 0.433821,1.995785 1.009089,4.350503 1.392381,5.699361 1.250662,5.199502 1.474146,5.199502 0.619758,0 -0.05086,1.309495 -0.981451,1.916462 -0.505709,0.329842 -1.000453,0.503735 -1.769309,0.621881 -1.653845,0.254137 -3.470939,-0.548339 -4.008028,-1.77005 -0.214954,-0.488955 -0.169037,-0.713836 0.156875,-0.768293 0.249067,-0.04162 0.271359,-0.07532 0.462723,-0.699579 0.110577,-0.36072 0.345445,-1.187097 0.521929,-1.836393 0.176483,-0.649296 0.535933,-1.928214 0.798776,-2.842038 0.425846,-1.480539 0.561591,-2.142459 0.439369,-2.142459 -0.02197,0 -0.255619,0.212318 -0.519218,0.471817 -1.087014,1.07011 -2.644238,2.111717 -3.118036,2.085616 -0.242712,-0.01337 -1.202019,-0.274432 -2.464292,-0.670618 -0.207228,-0.06504 -0.834565,-0.281516 -1.394081,-0.481054 -1.341131,-0.478283 -2.041653,-0.701604 -2.208718,-0.704124 -0.123047,-0.0019 -0.131725,0.05587 -0.08842,0.588211 0.04078,0.501288 0.01144,0.748458 -0.194612,1.639636 -0.223454,0.966458 -0.246934,1.197918 -0.297171,2.929486 -0.05503,1.896774 -0.191864,3.087533 -0.411419,3.580231 -0.06795,0.152487 -0.220508,0.300274 -0.378332,0.366501 -0.145457,0.06104 -0.2641,0.132586 -0.263652,0.158996 0.0036,0.210226 0.252967,0.933651 0.401126,1.163551 0.397773,0.617231 0.863595,1.984179 1.101468,3.232247 0.555844,2.916397 0.527228,8.061679 -0.07455,13.404022 -0.152216,1.351315 -0.447106,3.772156 -0.60185,4.940773 -0.191951,1.449589 -0.518844,3.980694 -0.833243,6.451734 l -0.236751,1.86075 0.193722,1.163257 c 0.293776,1.764052 0.400213,3.037399 0.292837,3.503285 -0.07903,0.342878 -0.07098,0.420241 0.07608,0.7318 0.139675,0.295913 0.150918,0.382843 0.07464,0.577109 -0.04939,0.125795 -0.2007,0.310175 -0.336244,0.409735 -0.216161,0.158776 -0.325145,0.175045 -0.886966,0.132409 -0.38251,-0.02903 -0.867117,-0.137252 -1.203046,-0.268666 -1.095162,-0.428423 -2.899078,-0.25787 -3.84579,0.363605 -0.793529,0.520919 -1.939262,0.80371 -2.170245,0.535664 z m 7.706109,-3.414817 c -0.02784,-0.108216 -0.174072,-0.45254 -0.324963,-0.765164 -0.434851,-0.900951 -0.478603,-1.053882 -0.42401,-1.482084 0.02728,-0.213946 0.247005,-1.551889 0.488286,-2.973208 0.466232,-2.746459 0.637493,-4.021441 0.587918,-4.376885 -0.02036,-0.14598 -0.07523,0.01382 -0.165127,0.48096 -0.681549,3.541414 -1.110885,5.235388 -1.787577,7.053006 -0.434671,1.167541 -0.436431,1.152887 0.15068,1.255057 0.448857,0.07811 0.834457,0.312103 1.146042,0.695448 0.289511,0.356189 0.401214,0.394539 0.328751,0.11287 z m -4.657621,-1.245689 c 0.573832,-0.0719 1.169174,-0.153807 1.322982,-0.182006 l 0.279654,-0.05127 0.369966,-1.107841 c 1.597867,-4.78471 2.515459,-11.204095 2.95206,-20.652313 0.09324,-2.01787 0.0979,-5.832114 0.0072,-5.897167 -0.03787,-0.02716 -0.08712,0.46135 -0.111879,1.109792 -0.02432,0.637071 -0.07899,2.083068 -0.121474,3.213324 -0.449862,11.967515 -1.697396,18.532141 -4.177488,21.982274 -0.341245,0.474718 -1.19954,1.287616 -1.549119,1.467183 -0.238685,0.122608 -0.300083,0.248761 -0.121066,0.248761 0.05822,0 0.575344,-0.05883 1.149175,-0.130736 z m -3.3752,-1.40212 c -0.04038,-0.169726 -0.295876,-0.848536 -0.567759,-1.508466 -0.271884,-0.65993 -0.655979,-1.593385 -0.853546,-2.074345 -0.197566,-0.48096 -0.910492,-2.212417 -1.584282,-3.847681 -0.673789,-1.635265 -1.4029525,-3.406073 -1.6203645,-3.935129 -0.217412,-0.529056 -0.615006,-1.493162 -0.883544,-2.142458 -0.55519,-1.342394 -1.797362,-4.365471 -2.748783,-6.689719 -0.354382,-0.865728 -0.66903,-1.606189 -0.699216,-1.645469 -0.03019,-0.03928 -0.141365,0.01975 -0.247063,0.131171 l -0.192179,0.202589 2.865482,6.689718 c 1.576015,3.679345 3.6739855,8.588418 4.6621585,10.909051 1.651644,3.878734 2.069508,4.753037 1.869096,3.910738 z m 2.41436,-2.024736 c 0.509682,-0.330224 1.589713,-1.471889 1.589713,-1.680433 0,-0.136783 -0.470236,-0.08674 -1.524448,0.162252 l -0.657854,0.155375 -0.147187,-0.289492 c -0.714959,-1.406205 -1.196197,-3.248232 -1.894448,-7.25135 -0.209731,-1.202401 -0.410636,-2.220461 -0.446456,-2.262356 -0.07723,-0.09033 -0.0531,0.184857 0.194544,2.218632 0.334974,2.750978 0.616533,4.280085 1.135188,6.165035 0.373628,1.357881 1.019415,3.103924 1.148102,3.104173 0.05819,8.8e-5 0.329467,-0.144713 0.602846,-0.321836 z m -2.667844,-2.148344 c -0.02884,-0.3006 -0.135265,-1.038437 -0.236505,-1.639637 -0.10124,-0.6012 -0.214184,-1.329199 -0.250987,-1.617775 -0.0368,-0.288576 -0.122147,-0.898521 -0.189651,-1.355433 -0.136026,-0.920704 -0.218703,-1.579541 -0.345671,-2.75459 -0.04677,-0.432864 -0.09867,-0.81293 -0.115318,-0.844592 -0.03386,-0.06437 -0.243084,-2.077995 -0.334751,-3.221708 -0.18681,-2.330789 -0.222613,-3.100258 -0.264477,-5.684074 -0.03489,-2.153356 -0.0192,-3.196465 0.06474,-4.304682 l 0.110792,-1.462644 1.057106,-2.446049 c 0.761814,-1.762768 1.032572,-2.468385 0.96928,-2.526011 -0.0483,-0.04398 -0.185423,-0.10708 -0.304709,-0.140223 -0.119287,-0.03314 -0.31427,-0.173271 -0.433296,-0.311397 -0.245234,-0.284584 -0.262685,-0.472883 -0.128182,-1.383103 0.08569,-0.579872 0.07788,-0.647318 -0.271021,-2.340838 -0.403347,-1.957805 -0.499424,-2.328299 -0.615413,-2.373166 -0.127682,-0.04939 -0.919856,1.165215 -2.415294,3.703263 -0.5547455,0.94151 -0.8236425,1.486444 -0.9292185,1.883105 -0.219322,0.824023 -0.892521,1.931782 -2.222157,3.656594 -1.745943,2.264846 -1.789259,2.343589 -2.068877,3.760945 -0.216518,1.097512 -0.304478,1.324398 -0.550317,1.419494 -0.117306,0.04537 0.105143,0.503635 0.244476,0.503635 0.07051,0 0.361776,-0.123718 0.647267,-0.274929 1.271605,-0.673509 2.016594,-1.026961 2.075511,-0.984706 0.186004,0.133404 -0.01384,0.455163 -0.878235,1.414005 -0.518071,0.574677 -0.941947,1.092002 -0.941947,1.149612 0,0.05761 0.215657,0.584645 0.479237,1.171189 0.660576,1.469978 1.726777,3.877603 2.911973,6.575624 0.549322,1.250497 1.2443565,2.824548 1.5445215,3.497892 0.300165,0.673344 0.96172,2.168693 1.470121,3.322998 1.63703,3.716807 1.840847,4.153746 1.937581,4.153746 0.01972,0 0.01226,-0.245945 -0.01658,-0.546545 z m 3.681669,-22.054382 c 0.461798,-0.454603 0.925375,-0.91698 1.030171,-1.027506 0.268442,-0.283119 1.055942,-1.407035 1.017296,-1.45188 -0.0354,-0.04108 -0.206817,0.12162 -1.248864,1.185339 -0.388709,0.396792 -0.731365,0.72144 -0.76146,0.72144 -0.03009,0 -0.374022,-0.245945 -0.764283,-0.546545 -0.390259,-0.300601 -1.028185,-0.779815 -1.417611,-1.064922 -0.389427,-0.285106 -0.826733,-0.623418 -0.971793,-0.751804 -0.14506,-0.128386 -0.35746,-0.303344 -0.472,-0.388797 -0.201673,-0.150458 -0.206436,-0.150163 -0.150711,0.0093 0.101447,0.290394 0.860318,1.807609 1.166191,2.331574 0.464552,0.795786 1.398372,1.808607 1.668794,1.809975 0.03555,1.75e-4 0.44247,-0.371621 0.90427,-0.826223 z m 0.407153,-6.647461 c 2.566308,-1.598976 4.132821,-4.2481 5.217241,-8.822857 0.385973,-1.628276 0.471695,-2.341893 0.14851,-1.236316 -0.824054,2.818986 -1.520846,4.486598 -2.515471,6.020201 -1.018774,1.570836 -2.450713,2.882058 -3.685994,3.375252 -0.348189,0.139017 -0.431655,0.144621 -0.639986,0.04297 -0.372033,-0.181528 -1.259179,-0.87099 -1.627045,-1.264487 -0.182805,-0.195542 -0.349764,-0.322877 -0.371019,-0.282966 -0.02126,0.03991 0.0096,0.366388 0.06865,0.725505 0.05902,0.359117 0.107341,0.760407 0.10739,0.891754 7.1e-5,0.190336 0.04215,0.24874 0.207317,0.28771 0.113976,0.02689 0.597195,0.164726 1.07382,0.306296 0.933846,0.277378 1.106651,0.322717 1.281047,0.336114 0.06217,0.0048 0.39316,-0.165854 0.735535,-0.379175 z m 3.342508,-0.557226 c 0.581585,-0.689781 0.902909,-1.366176 1.114263,-2.345559 0.232492,-1.077328 0.260663,-1.283636 0.16601,-1.21575 -0.04588,0.0329 -0.08341,0.119265 -0.08341,0.191913 0,0.07265 -0.106502,0.428968 -0.23667,0.791819 -0.387637,1.080558 -1.269806,2.023982 -2.570331,2.74881 -0.196867,0.10972 -0.35794,0.229124 -0.35794,0.265342 0,0.03622 0.211938,0.07982 0.470973,0.0969 0.259036,0.01708 0.588367,0.03863 0.731849,0.0479 0.230807,0.01491 0.31901,-0.0521 0.765259,-0.581367 z m 16.268007,-1.238782 c 0,-0.133084 -0.400995,-1.840222 -0.903652,-3.847077 -0.126489,-0.505008 -0.262271,-1.055926 -0.301735,-1.224262 -0.06773,-0.288902 -0.404749,-1.630968 -0.644843,-2.567875 -0.05996,-0.233979 -0.109018,-0.479129 -0.109018,-0.544777 0,-0.180125 -0.234232,-0.822476 -0.299914,-0.822476 -0.03162,0 -0.197194,0.147567 -0.367952,0.327927 -0.305525,0.322703 -0.329088,0.392678 -1.479129,4.392529 -0.642761,2.235533 -1.168658,4.134232 -1.168658,4.219333 0,0.145062 0.164811,0.154731 2.637451,0.154731 1.720155,0 2.63745,-0.03062 2.63745,-0.08805 z m 8.796527,-0.414769 c -0.01976,-0.18036 -0.178045,-0.898521 -0.351748,-1.595914 -0.173704,-0.697392 -0.413413,-1.681174 -0.532688,-2.186183 -0.436866,-1.84968 -1.208827,-4.946338 -1.282278,-5.143755 -0.191795,-0.515494 -0.294196,-0.233002 -1.62436,4.481128 -0.718214,2.545365 -1.288503,4.660496 -1.267307,4.700294 0.02119,0.0398 1.176084,0.07236 2.56642,0.07236 h 2.527885 z M 18.25997,15.256596 c 1.479437,-0.316002 2.740029,-0.901007 3.771748,-1.750361 0.657112,-0.540963 0.761408,-0.743814 0.184429,-0.358707 -1.115911,0.744817 -2.283368,1.263345 -3.295423,1.463665 -0.730274,0.144547 -2.143125,0.126977 -2.780539,-0.03458 -1.148498,-0.291089 -2.413447,-1.10526 -3.015254,-1.940738 -0.156647,-0.217469 -0.309841,-0.395399 -0.340432,-0.395399 -0.03059,0 -0.209848,0.120788 -0.398348,0.268418 -0.405902,0.317897 -0.401091,0.339479 0.235509,1.056575 0.765602,0.862412 1.775563,1.461782 2.850147,1.69145 0.724496,0.154843 2.062426,0.154686 2.788163,-3.5e-4 z m 19.163152,-3.144588 c 0.05496,-0.06378 -0.246694,-0.05868 -0.393409,0.0067 -0.06556,0.02919 -0.119197,0.08547 -0.119197,0.125066 0,0.07074 0.434313,-0.04087 0.512606,-0.131723 z"
   style="fill:#000000;stroke-width:0.0811767" /></svg>
