<?xml version="1.0" encoding="UTF-8" standalone="no"?>
<svg
   xmlns:dc="http://purl.org/dc/elements/1.1/"
   xmlns:cc="http://creativecommons.org/ns#"
   xmlns:rdf="http://www.w3.org/1999/02/22-rdf-syntax-ns#"
   xmlns:svg="http://www.w3.org/2000/svg"
   xmlns="http://www.w3.org/2000/svg"
   xmlns:sodipodi="http://sodipodi.sourceforge.net/DTD/sodipodi-0.dtd"
   xmlns:inkscape="http://www.inkscape.org/namespaces/inkscape"
   inkscape:version="1.0 (4035a4fb49, 2020-05-01)"
   sodipodi:docname="РЕЗЕРВАЦИЯ.svg"
   viewBox="0 0 498.73917 501.96405"
   height="501.96405"
   width="498.73917"
   id="svg3001"
   version="1.1">
  <metadata
     id="metadata3007">
    <rdf:RDF>
      <cc:Work
         rdf:about="">
        <dc:format>image/svg+xml</dc:format>
        <dc:type
           rdf:resource="http://purl.org/dc/dcmitype/StillImage" />
        <dc:title></dc:title>
      </cc:Work>
    </rdf:RDF>
  </metadata>
  <defs
     id="defs3005" />
  <sodipodi:namedview
     inkscape:current-layer="g3009"
     inkscape:window-maximized="1"
     inkscape:window-y="-6"
     inkscape:window-x="-6"
     inkscape:cy="214.8289"
     inkscape:cx="112.40398"
     inkscape:zoom="1.1600971"
     showgrid="false"
     id="namedview3003"
     inkscape:window-height="1018"
     inkscape:window-width="1920"
     inkscape:pageshadow="2"
     inkscape:pageopacity="0"
     guidetolerance="10"
     gridtolerance="10"
     objecttolerance="10"
     borderopacity="1"
     bordercolor="#666666"
     pagecolor="#ffffff"
     inkscape:document-rotation="0" />
  <g
     transform="translate(-130.46742,-30.314763)"
     id="g3009"
     inkscape:label="Image"
     inkscape:groupmode="layer">
    <path
       id="path8"
       d="m 169.64651,530.8688 c 0,-1.09668 -1.41186,-1.41001 -6.35337,-1.41001 -3.52965,0 -6.35336,-0.41778 -6.35336,-0.94001 0,-0.517 -1.19126,-0.94 -2.64724,-0.94 -1.64717,0 -2.64724,-0.53268 -2.64724,-1.41002 0,-0.7755 -0.71475,-1.41001 -1.58834,-1.41001 -0.87358,0 -1.58834,-0.6345 -1.58834,-1.41001 0,-0.7755 -0.71475,-1.41001 -1.58834,-1.41001 -0.87359,0 -1.58834,-0.6345 -1.58834,-1.41001 0,-0.77551 -0.71475,-1.41001 -1.58834,-1.41001 -0.87359,0 -1.58834,-0.63451 -1.58834,-1.41001 0,-0.77551 -0.71476,-1.41001 -1.58834,-1.41001 -0.87359,0 -1.58835,-0.63451 -1.58835,-1.41002 0,-0.7755 -0.71475,-1.41001 -1.58834,-1.41001 -0.9883,0 -1.58834,-0.88778 -1.58834,-2.35002 0,-1.29251 -0.4765,-2.35002 -1.05889,-2.35002 -0.58828,0 -1.0589,-2.50669 -1.0589,-5.64004 0,-4.38671 -0.35296,-5.64005 -1.58834,-5.64005 -1.40536,0 -1.58834,-17.65125 -1.58834,-153.22123 V 191.05606 H 379.837 629.20658 v 150.40121 c 0,133.0633 -0.18311,150.40122 -1.58834,150.40122 -1.27068,0 -1.58835,1.41001 -1.58835,7.05005 0,4.07337 -0.44708,7.05006 -1.05889,7.05006 -0.58239,0 -1.05889,1.05751 -1.05889,2.35002 0,1.46224 -0.60005,2.35002 -1.58834,2.35002 -1.0589,0 -1.58835,0.94001 -1.58835,2.82002 0,1.88002 -0.52944,2.82003 -1.58834,2.82003 -0.87359,0 -1.58834,0.6345 -1.58834,1.41001 0,0.7755 -0.71475,1.41001 -1.58834,1.41001 -0.87359,0 -1.58834,0.6345 -1.58834,1.41001 0,0.77551 -0.71475,1.41001 -1.58834,1.41001 -0.87359,0 -1.58834,0.63451 -1.58834,1.41001 0,0.77551 -0.71476,1.41001 -1.58835,1.41001 -0.87358,0 -1.58834,0.63451 -1.58834,1.41001 0,0.87734 -1.00006,1.41002 -2.64723,1.41002 -1.45598,0 -2.64724,0.423 -2.64724,0.94 0,0.54312 -3.35317,0.94001 -7.9417,0.94001 -6.35337,0 -7.94171,0.282 -7.94171,1.41001 0,1.24858 -23.88395,1.41001 -208.60215,1.41001 -184.71821,0 -208.60215,-0.16143 -208.60215,-1.41001 z m 423.55767,-29.14023 c 0,-0.77551 0.71475,-1.41001 1.58834,-1.41001 1.40465,0 1.58834,-15.98013 1.58834,-138.18112 0,-122.20098 -0.18369,-138.18111 -1.58834,-138.18111 -0.87359,0 -1.58834,-0.63451 -1.58834,-1.41001 0,-1.24868 -24.4134,-1.41002 -213.36718,-1.41002 -188.95378,0 -213.36718,0.16134 -213.36718,1.41002 0,0.7755 -0.71475,1.41001 -1.58834,1.41001 -1.40465,0 -1.58834,15.98013 -1.58834,138.18111 0,122.20099 0.18369,138.18112 1.58834,138.18112 0.87359,0 1.58834,0.6345 1.58834,1.41001 0,1.24868 24.4134,1.41001 213.36718,1.41001 188.95378,0 213.36718,-0.16133 213.36718,-1.41001 z M 187.64771,434.51803 V 406.3178 h 31.76682 31.76682 v 28.20023 28.20022 h -31.76682 -31.76682 z m 81.53485,0 V 406.3178 h 31.76682 31.76683 v 28.20023 28.20022 h -31.76683 -31.76682 z m 78.35816,0 V 406.3178 h 32.29628 32.29627 v 28.20023 28.20022 H 379.837 347.54072 Z m 82.59375,0 V 406.3178 h 31.76683 31.76682 v 28.20023 28.20022 H 461.9013 430.13447 Z M 187.64771,362.13744 v -28.20023 h 31.76682 31.76682 v 28.20023 28.20023 h -31.76682 -31.76682 z m 81.53485,0 v -28.20023 h 31.76682 31.76683 v 28.20023 28.20023 h -31.76683 -31.76682 z m 78.35816,0 v -28.20023 h 32.29628 32.29627 v 28.20023 28.20023 H 379.837 347.54072 Z m 82.59375,0 v -28.20023 h 31.76683 31.76682 v 28.20023 28.20023 H 461.9013 430.13447 Z m 78.35817,0 v -28.20023 h 31.76683 31.76682 v 28.20023 28.20023 H 540.25947 508.49264 Z M 269.18256,289.75686 v -28.20023 h 31.76682 31.76683 v 28.20023 28.20023 h -31.76683 -31.76682 z m 78.35816,0 v -28.20023 h 32.29628 32.29627 v 28.20023 28.20023 H 379.837 347.54072 Z m 82.59375,0 v -28.20023 h 31.76683 31.76682 v 28.20023 28.20023 H 461.9013 430.13447 Z m 78.35817,0 v -28.20023 h 31.76683 31.76682 v 28.20023 28.20023 H 540.25947 508.49264 Z M 130.46742,146.87571 c 0,-19.42683 0.2206,-22.56019 1.58834,-22.56019 1.23538,0 1.58834,-1.25334 1.58834,-5.64004 0,-3.13336 0.47062,-5.64005 1.0589,-5.64005 0.58239,0 1.05889,-1.05751 1.05889,-2.35002 0,-1.46223 0.60004,-2.35002 1.58834,-2.35002 0.87359,0 1.58834,-0.6345 1.58834,-1.41001 0,-0.77551 0.71476,-1.41001 1.58835,-1.41001 0.87358,0 1.58834,-0.63451 1.58834,-1.41001 0,-0.77551 0.71475,-1.41001 1.58834,-1.41001 0.87359,0 1.58834,-0.63451 1.58834,-1.41001 0,-0.77551 0.71475,-1.410016 1.58834,-1.410016 0.87359,0 1.58834,-0.634505 1.58834,-1.410011 0,-0.775506 0.71476,-1.410012 1.58834,-1.410012 0.87359,0 1.58834,-0.634505 1.58834,-1.410011 0,-0.87734 1.00007,-1.410011 2.64724,-1.410011 1.64717,0 2.64724,-0.532672 2.64724,-1.410012 0,-1.128009 1.58834,-1.410011 7.9417,-1.410011 4.58854,0 7.94171,-0.396892 7.94171,-0.940008 0,-0.609018 13.23618,-0.940007 37.59074,-0.940007 32.70806,0 37.59074,-0.183148 37.59074,-1.410012 0,-0.775506 0.71476,-1.410011 1.58834,-1.410011 1.37336,0 1.58834,-3.498917 1.58834,-25.850208 0,-22.351292 0.21499,-25.850209 1.58835,-25.850209 0.87358,0 1.58834,-0.423004 1.58834,-0.940008 0,-0.517004 1.4295,-0.940008 3.17668,-0.940008 2.11779,0 3.17668,-0.470003 3.17668,-1.410011 0,-1.082433 1.35304,-1.410011 5.82392,-1.410011 4.47088,0 5.82392,0.327578 5.82392,1.410011 0,0.940008 1.05889,1.410011 3.17668,1.410011 1.74718,0 3.17668,0.423004 3.17668,0.940008 0,0.517004 0.71476,0.940008 1.58834,0.940008 1.37336,0 1.58835,3.498917 1.58835,25.850209 0,16.6068 0.37863,25.850208 1.05889,25.850208 0.58239,0 1.05889,0.634505 1.05889,1.410011 0,1.242957 11.3537,1.410012 95.82993,1.410012 h 95.82992 V 69.325078 c 0,-12.846771 0.3858,-20.210163 1.0589,-20.210163 0.6118,0 1.05889,-2.976691 1.05889,-7.050057 0,-5.640046 0.31767,-7.050057 1.58834,-7.050057 0.87359,0 1.58834,-0.423004 1.58834,-0.940008 0,-0.517004 0.71476,-0.940008 1.58834,-0.940008 0.87359,0 1.58834,-0.634505 1.58834,-1.410011 0,-1.119057 1.52951,-1.410011 7.41226,-1.410011 5.88275,0 7.41226,0.290954 7.41226,1.410011 0,0.940008 1.0589,1.410011 3.17669,1.410011 1.74717,0 3.17668,0.423004 3.17668,0.940008 0,0.517004 0.71475,0.940008 1.58834,0.940008 1.37335,0 1.58834,3.498917 1.58834,25.850209 0,22.351291 0.21499,25.850208 1.58834,25.850208 0.87359,0 1.58834,0.634505 1.58834,1.410011 0,1.226864 4.88268,1.410012 37.59075,1.410012 24.35456,0 37.59074,0.330989 37.59074,0.940007 0,0.522227 2.82372,0.940008 6.35337,0.940008 4.9415,0 6.35336,0.313335 6.35336,1.410011 0,0.87734 1.00006,1.410012 2.64724,1.410012 1.64717,0 2.64723,0.532671 2.64723,1.410011 0,0.940008 1.0589,1.410011 3.17668,1.410011 2.11779,0 3.17669,0.470004 3.17669,1.410012 0,0.775506 0.71475,1.410011 1.58834,1.410011 0.87359,0 1.58834,0.634506 1.58834,1.410016 0,0.7755 0.71475,1.41001 1.58834,1.41001 0.87359,0 1.58834,0.6345 1.58834,1.41001 0,0.7755 0.71475,1.41001 1.58834,1.41001 0.9883,0 1.58834,0.88778 1.58834,2.35002 0,1.46223 0.60005,2.35002 1.58835,2.35002 1.05889,0 1.58834,0.94 1.58834,2.82002 0,1.55101 0.4765,2.82002 1.05889,2.82002 0.65725,0 1.05889,5.17004 1.05889,13.63012 0,11.48897 0.24951,13.6301 1.58835,13.6301 1.33621,0 1.58834,2.08891 1.58834,13.16011 v 13.16011 H 379.837 130.46742 Z m 141.89182,13.63011 c 0,-1.04446 1.23538,-1.41002 4.76502,-1.41002 3.52965,0 4.76503,-0.36556 4.76503,-1.41001 0,-0.87733 1.00006,-1.41001 2.64723,-1.41001 1.64717,0 2.64724,-0.53267 2.64724,-1.41001 0,-0.77551 0.71475,-1.41001 1.58834,-1.41001 0.87359,0 1.58834,-0.63451 1.58834,-1.41001 0,-0.77551 0.71475,-1.41001 1.58834,-1.41001 0.9883,0 1.58834,-0.88779 1.58834,-2.35002 0,-1.46224 0.60005,-2.35002 1.58834,-2.35002 0.87359,0 1.58834,-0.63451 1.58834,-1.41001 0,-0.77551 0.71476,-1.41002 1.58835,-1.41002 1.3304,0 1.58834,-1.98445 1.58834,-12.22009 0,-10.23565 -0.25794,-12.2201 -1.58834,-12.2201 -1.0589,0 -1.58835,-0.94001 -1.58835,-2.82003 0,-1.88001 -0.52944,-2.82002 -1.58834,-2.82002 -0.87358,0 -1.58834,-0.63451 -1.58834,-1.41001 0,-0.77551 -0.71475,-1.41001 -1.58834,-1.41001 -0.87359,0 -1.58834,-0.42301 -1.58834,-0.94001 0,-0.517 -0.71475,-0.94001 -1.58834,-0.94001 -0.87359,0 -1.58834,-0.6345 -1.58834,-1.41001 0,-0.77551 -0.71476,-1.41001 -1.58834,-1.41001 -0.87359,0 -1.58835,0.6345 -1.58835,1.41001 0,0.77551 -0.4765,1.41001 -1.05889,1.41001 -0.66039,0 -1.05889,5.48338 -1.05889,14.57012 0,12.32454 -0.2448,14.57012 -1.58835,14.57012 -0.87358,0 -1.58834,0.6345 -1.58834,1.41001 0,0.77551 -0.71475,1.41001 -1.58834,1.41001 -0.87359,0 -1.58834,0.63451 -1.58834,1.41001 0,0.94001 -1.05889,1.41001 -3.17668,1.41001 -2.11779,0 -3.17668,0.47001 -3.17668,1.41002 0,0.94 -1.0589,1.41001 -3.17669,1.41001 -2.11779,0 -3.17668,-0.47001 -3.17668,-1.41001 0,-0.87734 -1.00006,-1.41002 -2.64724,-1.41002 -1.64717,0 -2.64723,-0.53267 -2.64723,-1.41001 0,-0.7755 -0.71475,-1.41001 -1.58834,-1.41001 -0.87359,0 -1.58834,-0.6345 -1.58834,-1.41001 0,-0.77551 -0.71476,-1.41001 -1.58834,-1.41001 -1.34355,0 -1.58835,-2.24558 -1.58835,-14.57012 0,-12.32454 -0.24479,-14.57012 -1.58834,-14.57012 -0.87358,0 -1.58834,-0.6345 -1.58834,-1.41001 0,-0.77551 -0.71475,-1.41001 -1.58834,-1.41001 -0.87359,0 -1.58834,0.6345 -1.58834,1.41001 0,0.77551 -0.51054,1.41001 -1.13453,1.41001 -1.46602,0 -4.15994,2.39147 -4.15994,3.69289 0,0.55393 -0.71476,1.00715 -1.58834,1.00715 -1.0589,0 -1.58834,0.94001 -1.58834,2.82002 0,1.88002 -0.52945,2.82003 -1.58835,2.82003 -1.31978,0 -1.58834,1.82778 -1.58834,10.81009 0,8.98229 0.26856,10.81008 1.58834,10.81008 1.0589,0 1.58835,0.94001 1.58835,2.82002 0,1.88002 0.52944,2.82003 1.58834,2.82003 0.98829,0 1.58834,0.88778 1.58834,2.35002 0,1.29251 0.4765,2.35002 1.05889,2.35002 0.58239,0 1.0589,0.6345 1.0589,1.41001 0,0.94 1.05889,1.41001 3.17668,1.41001 2.11779,0 3.17668,0.47 3.17668,1.41001 0,0.77551 0.71476,1.41001 1.58834,1.41001 0.87359,0 1.58834,0.63451 1.58834,1.41001 0,1.04445 1.23538,1.41001 4.76503,1.41001 3.52964,0 4.76502,0.36556 4.76502,1.41002 0,1.08243 1.35304,1.41001 5.82392,1.41001 4.47088,0 5.82392,-0.32758 5.82392,-1.41001 z m 224.48556,0 c 0,-1.08244 1.35304,-1.41002 5.82392,-1.41002 4.47089,0 5.82392,-0.32757 5.82392,-1.41001 0,-0.7755 0.71475,-1.41001 1.58834,-1.41001 0.87359,0 1.58834,-0.6345 1.58834,-1.41001 0,-0.94001 1.0589,-1.41001 3.17669,-1.41001 2.11778,0 3.17668,-0.47001 3.17668,-1.41001 0,-0.77551 0.4765,-1.41001 1.05889,-1.41001 0.58239,0 1.0589,-1.05751 1.0589,-2.35002 0,-1.46224 0.60004,-2.35002 1.58834,-2.35002 1.05889,0 1.58834,-0.94001 1.58834,-2.82003 0,-1.88001 0.52945,-2.82002 1.58834,-2.82002 1.31978,0 1.58834,-1.82779 1.58834,-10.81008 0,-8.98231 -0.26856,-10.81009 -1.58834,-10.81009 -1.05889,0 -1.58834,-0.94001 -1.58834,-2.82003 0,-1.88001 -0.52945,-2.82002 -1.58834,-2.82002 -0.87359,0 -1.58834,-0.45322 -1.58834,-1.00715 0,-1.30142 -2.69393,-3.69289 -4.15994,-3.69289 -0.624,0 -1.13453,-0.6345 -1.13453,-1.41001 0,-0.77551 -0.71476,-1.41001 -1.58835,-1.41001 -0.87358,0 -1.58834,0.6345 -1.58834,1.41001 0,0.77551 -0.71475,1.41001 -1.58834,1.41001 -1.34354,0 -1.58834,2.24558 -1.58834,14.57012 0,12.32454 -0.24479,14.57012 -1.58834,14.57012 -0.87359,0 -1.58834,0.6345 -1.58834,1.41001 0,0.77551 -0.71476,1.41001 -1.58834,1.41001 -0.87359,0 -1.58834,0.63451 -1.58834,1.41001 0,0.87734 -1.00007,1.41001 -2.64724,1.41001 -1.64717,0 -2.64724,0.53268 -2.64724,1.41002 0,0.94 -1.05889,1.41001 -3.17668,1.41001 -2.11779,0 -3.17668,-0.47001 -3.17668,-1.41001 0,-0.94001 -1.05889,-1.41002 -3.17668,-1.41002 -2.11779,0 -3.17669,-0.47 -3.17669,-1.41001 0,-0.7755 -0.71475,-1.41001 -1.58834,-1.41001 -0.87358,0 -1.58834,-0.6345 -1.58834,-1.41001 0,-0.77551 -0.71475,-1.41001 -1.58834,-1.41001 -1.17655,0 -1.58834,-1.09668 -1.58834,-4.23003 0,-2.32652 -0.4765,-4.23004 -1.05889,-4.23004 -0.64946,0 -1.0589,-4.54337 -1.0589,-11.7501 v -11.75009 h -3.17668 c -2.11779,0 -3.17668,0.47 -3.17668,1.41001 0,0.77551 -0.71476,1.41001 -1.58835,1.41001 -0.98829,0 -1.58834,0.88779 -1.58834,2.35002 0,1.46224 -0.60004,2.35002 -1.58834,2.35002 -1.05889,0 -1.58834,0.94001 -1.58834,2.82002 0,1.88002 -0.52945,2.82003 -1.58834,2.82003 -1.17655,0 -1.58834,1.09667 -1.58834,4.23003 0,3.13336 -0.4118,4.23004 -1.58834,4.23004 -0.9883,0 -1.58834,0.88778 -1.58834,2.35002 0,1.46223 0.60004,2.35001 1.58834,2.35001 1.23538,0 1.58834,1.25334 1.58834,5.64005 0,4.3867 0.35296,5.64004 1.58834,5.64004 0.9883,0 1.58834,0.88779 1.58834,2.35002 0,1.46224 0.60004,2.35002 1.58834,2.35002 0.87359,0 1.58834,0.63451 1.58834,1.41001 0,0.77551 0.71476,1.41002 1.58834,1.41002 0.87359,0 1.58835,0.6345 1.58835,1.41001 0,0.7755 0.71475,1.41001 1.58834,1.41001 0.87358,0 1.58834,0.6345 1.58834,1.41001 0,0.87734 1.00006,1.41001 2.64723,1.41001 1.64718,0 2.64724,0.53268 2.64724,1.41001 0,1.04445 1.23538,1.41001 4.76502,1.41001 3.52965,0 4.76503,0.36556 4.76503,1.41002 0,1.04445 1.23538,1.41001 4.76502,1.41001 3.52964,0 4.76502,-0.36556 4.76502,-1.41001 z"
       style="fill:#ff0000;stroke-width:0.997682" />
  </g>
</svg>
