<?xml version="1.0" encoding="UTF-8" standalone="no"?>
<svg
   xmlns:dc="http://purl.org/dc/elements/1.1/"
   xmlns:cc="http://creativecommons.org/ns#"
   xmlns:rdf="http://www.w3.org/1999/02/22-rdf-syntax-ns#"
   xmlns:svg="http://www.w3.org/2000/svg"
   xmlns="http://www.w3.org/2000/svg"
   xmlns:sodipodi="http://sodipodi.sourceforge.net/DTD/sodipodi-0.dtd"
   xmlns:inkscape="http://www.inkscape.org/namespaces/inkscape"
   xml:space="preserve"
   width="31.991308mm"
   height="35.924686mm"
   version="1.1"
   style="clip-rule:evenodd;fill-rule:evenodd;image-rendering:optimizeQuality;shape-rendering:geometricPrecision;text-rendering:geometricPrecision"
   viewBox="0 0 43.218897 48.540405"
   id="svg3250"
   sodipodi:docname="УЧЕБА.svg"
   inkscape:version="1.0 (4035a4fb49, 2020-05-01)"><metadata
   id="metadata3254"><rdf:RDF><cc:Work
       rdf:about=""><dc:format>image/svg+xml</dc:format><dc:type
         rdf:resource="http://purl.org/dc/dcmitype/StillImage" /><dc:title></dc:title></cc:Work></rdf:RDF></metadata><sodipodi:namedview
   inkscape:document-rotation="0"
   pagecolor="#ffffff"
   bordercolor="#666666"
   borderopacity="1"
   objecttolerance="10"
   gridtolerance="10"
   guidetolerance="10"
   inkscape:pageopacity="0"
   inkscape:pageshadow="2"
   inkscape:window-width="1920"
   inkscape:window-height="1018"
   id="namedview3252"
   showgrid="false"
   inkscape:zoom="2.1814529"
   inkscape:cx="140.44942"
   inkscape:cy="91.953408"
   inkscape:window-x="-6"
   inkscape:window-y="-6"
   inkscape:window-maximized="1"
   inkscape:current-layer="svg3250" />
 <defs
   id="defs3244">
  <style
   type="text/css"
   id="style3242">
   <![CDATA[
    .fil0 {fill:black;fill-rule:nonzero}
   ]]>
  </style>
 </defs>
 
<path
   id="path8"
   d="m 5.4232723,44.421969 v -4.118433 h 5.5516577 5.551658 l 0.792986,0.798472 c 0.82429,0.829993 2.096297,2.225401 2.996476,3.287175 0.287404,0.338997 0.732771,0.838289 0.989704,1.109539 l 0.467151,0.493181 1.092887,-1.289264 c 0.60109,-0.709097 1.235568,-1.440555 1.409952,-1.625465 0.174384,-0.184909 0.788952,-0.884622 1.365705,-1.554918 l 1.048644,-1.21872 h 5.032918 c 3.835052,0 5.066455,0.05001 5.173833,0.210124 0.0775,0.115569 0.165726,1.968863 0.196046,4.118433 l 0.05513,3.908308 H 21.285646 5.4232723 Z M 20.141865,38.300983 c -0.191603,-0.07916 -0.826159,-0.228854 -1.410125,-0.332658 -1.163425,-0.206808 -3.133661,-0.921842 -3.567849,-1.294837 -0.151246,-0.129929 -0.333561,-0.236235 -0.405146,-0.236235 -0.26388,0 -2.180216,-1.530324 -2.889857,-2.307746 -0.817463,-0.895541 -2.0193297,-2.796685 -2.2906467,-3.623402 -0.09759,-0.297371 -0.246383,-0.691964 -0.330643,-0.876873 -0.671154,-1.472846 -0.64848,-6.661425 0.03228,-7.387963 0.207888,-0.221866 0.187788,-0.764852 -0.02831,-0.764852 -0.116613,0 -0.16164,-1.115314 -0.130638,-3.235911 l 0.04731,-3.235911 1.3063837,-0.621798 c 2.63051,-1.252039 5.61665,-2.119654 8.622135,-2.505138 0.766412,-0.0983 1.700196,-0.219433 2.075076,-0.269184 0.374881,-0.04975 1.080329,-0.0101 1.56766,0.08811 0.487334,0.09821 1.552317,0.26439 2.36663,0.369286 0.814313,0.104896 1.872484,0.304727 2.351491,0.444069 1.599185,0.465197 3.997986,1.26871 4.74463,1.589283 0.406112,0.174364 0.80396,0.317026 0.884106,0.317026 0.08015,0 0.316149,0.175076 0.524452,0.389058 0.35928,0.369076 0.378732,0.541231 0.378732,3.352064 0,1.794013 -0.06872,3.003996 -0.174185,3.066899 -0.213341,0.127246 -0.22954,0.798229 -0.02455,1.017001 0.678063,0.723655 0.689809,6.72226 0.01446,7.379558 -0.09025,0.08783 -0.164082,0.289573 -0.164082,0.448312 0,0.15874 -0.2819,0.805502 -0.626444,1.437249 -1.675349,3.071878 -4.096405,5.07657 -7.463178,6.179686 -1.714974,0.561907 -4.713085,0.902698 -5.409678,0.614909 z M 42.350391,26.396869 c -0.143703,-0.05279 -0.300469,-0.150124 -0.348369,-0.216296 -0.0479,-0.06617 -0.40255,-0.274601 -0.788111,-0.463176 l -0.701016,-0.342864 -0.742174,0.488381 c -0.408196,0.268611 -0.817782,0.488382 -0.910191,0.488382 -0.09472,0 -0.168014,-0.623324 -0.168014,-1.428844 v -1.428844 h 0.78383 0.78383 v -4.790829 c 0,-5.408437 0.08953,-5.130395 -1.382305,-4.292888 -0.868986,0.494473 -2.944696,1.51925 -3.077275,1.51925 -0.03807,0 -0.07042,-0.359313 -0.07188,-0.798472 -0.0014,-0.439159 -0.06025,-0.881053 -0.130638,-0.981987 -0.07038,-0.100933 -0.519887,-0.322742 -0.998895,-0.492909 -0.479006,-0.170167 -1.025533,-0.409075 -1.214502,-0.530907 -0.188968,-0.121832 -0.463308,-0.221978 -0.609646,-0.222548 -0.146336,-5.72e-4 -0.492397,-0.114948 -0.769026,-0.254173 -0.27663,-0.139226 -0.942885,-0.370372 -1.480569,-0.513658 -0.537683,-0.143286 -1.134373,-0.332774 -1.325976,-0.421086 -0.191603,-0.08831 -0.89705,-0.26839 -1.567661,-0.400175 -0.67061,-0.131786 -1.572015,-0.333862 -2.003122,-0.44906 -1.056333,-0.282267 -7.123378,-0.283523 -8.186672,-0.0017 -0.431107,0.114266 -1.332512,0.321603 -2.003122,0.460748 -0.67061,0.139146 -1.454442,0.353633 -1.741846,0.476639 -0.287405,0.123006 -0.934065,0.322446 -1.437023,0.443201 -0.502957,0.120755 -0.914468,0.272699 -0.914468,0.337652 0,0.06495 -0.215554,0.16937 -0.479008,0.232038 -0.263454,0.06267 -1.1256667,0.416304 -1.9160287,0.785858 -1.315093,0.614906 -1.437023,0.713757 -1.437023,1.165027 0,0.27121 -0.04565,0.49311 -0.101443,0.49311 -0.241004,0 -2.603861,-1.066123 -2.656478,-1.198606 -0.03193,-0.0804 -0.172729,-0.146189 -0.312877,-0.146189 -0.140149,0 -0.819468,-0.252571 -1.509599,-0.561268 -0.690131,-0.308698 -1.659629,-0.735321 -2.15443995,-0.948051 -1.042817,-0.448329 -1.043726,-0.670409 -0.0045,-1.11254 0.40151395,-0.170829 0.76921595,-0.352824 0.81711695,-0.404432 0.122337,-0.131806 2.26955,-1.3442899 2.380632,-1.3442899 0.0502,0 0.299323,-0.1404755 0.553615,-0.3121679 0.254293,-0.1716924 0.854266,-0.5248139 1.333273,-0.7847145 0.479008,-0.2599009 1.184455,-0.6476324 1.567661,-0.8616258 0.383206,-0.2139936 1.021739,-0.5605853 1.418962,-0.7702039 0.908216,-0.4792749 3.5497477,-1.9424275 4.3905987,-2.4319661 0.349396,-0.2034167 0.909607,-0.5059954 1.244912,-0.6723971 0.335306,-0.1664016 0.648838,-0.3437961 0.696739,-0.3942099 0.0479,-0.050414 1.262838,-0.725292 2.69986,-1.4997289 1.437023,-0.7744369 2.751269,-1.5214329 2.920547,-1.65999102 0.277053,-0.22677414 0.34294,-0.2155023 0.659978,0.1129097 0.193709,0.20065845 0.434634,0.36483355 0.535388,0.36483355 0.100755,0 2.037682,1.00374697 4.304282,2.23054887 2.266599,1.2268018 4.395431,2.3652838 4.730737,2.5299597 1.120928,0.5505127 1.654028,0.8378352 1.741845,0.9387923 0.0479,0.055068 0.394442,0.2514137 0.770094,0.4363229 0.375652,0.1849092 1.002716,0.5077173 1.393475,0.7173512 2.580185,1.3842088 2.592937,1.3892484 2.880371,1.1382128 0.268957,-0.2348995 1.534045,-0.5826285 2.149087,-0.5907101 0.172007,-0.00226 0.505135,0.1815639 0.740284,0.4084979 0.339091,0.3272429 0.427545,0.5852343 0.427545,1.2469963 0,0.8984839 0.123209,1.3661839 0.359905,1.3661839 0.195493,0 1.730309,0.896416 1.730309,1.010595 0,0.04867 -0.470298,0.338012 -1.045107,0.642975 l -1.045107,0.554478 v 5.115649 5.115649 h 0.78383 0.783831 v 1.512894 c 0,0.832091 -0.0196,1.506921 -0.04355,1.499622 -0.02395,-0.0073 -0.16112,-0.05646 -0.304822,-0.109255 z M 40.118582,13.13877 c 0.437833,-0.150478 0.674858,-0.948305 0.425769,-1.433149 -0.148387,-0.288835 -0.376665,-0.41318 -0.825641,-0.449735 -0.741641,-0.06038 -1.084255,0.258838 -1.084255,1.010223 0,0.550529 0.639504,1.231154 0.998897,1.063127 0.10525,-0.04921 0.323602,-0.134917 0.48523,-0.190466 z m -0.03259,-3.5034315 c 0,-0.5083109 -0.203502,-0.6397625 -0.77582,-0.5011381 -0.581224,0.1407816 -0.564643,0.4641586 0.03554,0.6930336 0.701702,0.26759 0.740284,0.257589 0.740284,-0.1918955 z"
   style="fill:#000000;stroke-width:0.171115" /></svg>
