<?xml version="1.0" encoding="UTF-8" standalone="no"?>
<svg
   xmlns:dc="http://purl.org/dc/elements/1.1/"
   xmlns:cc="http://creativecommons.org/ns#"
   xmlns:rdf="http://www.w3.org/1999/02/22-rdf-syntax-ns#"
   xmlns:svg="http://www.w3.org/2000/svg"
   xmlns="http://www.w3.org/2000/svg"
   xmlns:sodipodi="http://sodipodi.sourceforge.net/DTD/sodipodi-0.dtd"
   xmlns:inkscape="http://www.inkscape.org/namespaces/inkscape"
   inkscape:version="1.0 (4035a4fb49, 2020-05-01)"
   sodipodi:docname="АТЛЕТИКА.svg"
   version="1.1"
   id="svg4362"
   width="1727.8588"
   height="1506.7545"
   viewBox="0 0 1727.8588 1506.7545">
  <sodipodi:namedview
     inkscape:current-layer="svg4362"
     inkscape:window-maximized="1"
     inkscape:window-y="-6"
     inkscape:window-x="-6"
     inkscape:cy="1044.0997"
     inkscape:cx="28.272985"
     inkscape:zoom="0.24267578"
     showgrid="false"
     id="namedview261"
     inkscape:window-height="1018"
     inkscape:window-width="1920"
     inkscape:pageshadow="2"
     inkscape:pageopacity="0"
     guidetolerance="10"
     gridtolerance="10"
     objecttolerance="10"
     borderopacity="1"
     bordercolor="#666666"
     pagecolor="#ffffff"
     inkscape:document-rotation="0" />
  <metadata
     id="metadata4368">
    <rdf:RDF>
      <cc:Work
         rdf:about="">
        <dc:format>image/svg+xml</dc:format>
        <dc:type
           rdf:resource="http://purl.org/dc/dcmitype/StillImage" />
        <dc:title></dc:title>
      </cc:Work>
    </rdf:RDF>
  </metadata>
  <defs
     id="defs4366" />
  <path
     id="path220"
     d="m 1415.9149,1502.2144 c -5.8385,-3.0181 -17.2958,-6.9536 -25.4605,-8.7455 -8.1648,-1.7919 -18.4012,-5.6511 -22.7475,-8.5761 -4.3463,-2.925 -12.3844,-6.2428 -17.8624,-7.373 -17.7674,-3.6654 -18.7464,-7.7998 -18.1755,-76.7617 0.2824,-34.1097 0.6512,-125.7197 0.8195,-203.5777 l 0.3061,-141.5602 13.6204,-19.1254 c 7.4912,-10.519 18.5818,-24.8194 24.6456,-31.7788 22.668,-26.01564 38.7883,-47.00014 38.7883,-50.49244 0,-2.6947 -5.9391,-3.2439 -23.5057,-2.1736 l -23.5057,1.4322 -18.3907,18.568 c -21.736,21.9453 -27.8278,23.1163 -39.5372,7.5999 -4.5523,-6.0324 -12.889,-14.1576 -18.5259,-18.0562 -25.4986,-17.6348 -25.1515,-17.243 -25.1515,-28.3874 0,-5.9226 1.6378,-12.3285 3.6396,-14.2352 6.1931,-5.8991 25.3714,-4.1312 34.7984,3.2077 7.546,5.8746 28.2008,13.5484 36.4671,13.5484 3.1472,0 67.6456,-59.7406 67.6456,-62.6557 0,-0.9633 5.0038,-7.56782 11.1195,-14.67686 l 11.1194,-12.92548 19.6482,1.91742 19.6481,1.91745 -1.7071,-15.7551 c -0.9389,-8.6653 -4.0853,-19.21229 -6.9919,-23.43774 -2.9066,-4.22546 -7.4536,-11.71922 -10.1043,-16.65279 -7.6269,-14.19539 -12.808,-15.77301 -31.2132,-9.50415 -20.6603,7.03699 -30.9519,13.0346 -38.9167,22.67938 -7.7669,9.40523 -15.7805,9.88301 -24.0447,1.43355 -13.1184,-13.41237 -2.9842,-37.01203 15.8938,-37.01203 4.6194,0 9.2741,-2.1991 10.9434,-5.17007 1.5977,-2.84354 6.2719,-6.8865 10.3872,-8.98436 11.932,-6.08258 13.9781,-14.22183 12.169,-48.40777 l -1.6579,-31.32974 9.5667,-12.42486 c 9.3616,-12.15857 9.902,-12.40621 25.217,-11.55593 15.6225,0.86736 15.6658,0.89723 24.3582,16.75833 l 8.7079,15.8894 h 18.3052 c 16.942,0 18.9181,0.69925 26.5348,9.3892 4.5262,5.16405 9.6778,9.38919 11.448,9.38919 6.7901,0 58.4994,66.11059 58.5347,74.83696 0.01,2.53555 1.9082,8.05951 4.2175,12.27549 2.3094,4.21598 5.8652,12.66626 7.9019,18.77839 2.0366,6.11214 5.9365,14.36307 8.6663,18.33542 4.0245,5.85629 4.9645,15.23514 4.9697,49.5827 0.01,39.4002 -0.4704,42.9753 -6.8178,51.1625 -3.7534,4.8412 -6.8243,11.514 -6.8243,14.8284 0,8.2601 13.2514,20.2086 22.4122,20.2086 10.5194,0 23.875,5.1286 28.5085,10.9475 2.9527,3.708 9.7885,5.1636 27.936,5.9486 22.8378,0.9879 24.3855,1.4891 31.2741,10.1278 24.6395,30.89914 31.3785,85.07904 10.2255,82.21054 -4.2235,-0.5727 -9.3632,-5.6529 -14.2015,-14.0372 -14.488,-25.1062 -26.435,-36.3683 -44.2385,-41.7023 -10.4253,-3.1235 -21.7568,-4.4035 -30.8554,-3.4854 -7.9087,0.7979 -30.2951,3.0979 -49.7475,5.111 -31.9847,3.3101 -36.1079,3.1985 -43.1011,-1.1661 -10.0181,-6.2524 -15.2325,-24.61244 -12.9499,-45.59654 1.7454,-16.0454 1.6529,-16.282 -9.7918,-25.0425 -6.3546,-4.8643 -17.3041,-10.319 -24.3321,-12.1215 -7.028,-1.8026 -15.4904,-5.8609 -18.8053,-9.0184 -7.1338,-6.7951 -18.5208,-11.2882 -28.6081,-11.2882 -5.7996,0 -7.9687,2.2427 -10.7641,11.1299 -2.585,8.2185 -2.6169,12.7031 -0.1216,17.144 4.256,7.5748 4.7816,311.62544 0.5569,322.20944 -2.0335,5.0948 -1.6099,8.5781 1.5163,12.4662 21.9126,27.253 20.7933,22.7486 22.8778,92.0653 1.0512,34.9567 2.0869,64.0045 2.3016,64.5506 0.2148,0.5461 14.3802,0.5461 31.4787,0 28.0634,-0.8964 31.5947,-0.4308 36.295,4.785 2.8637,3.1779 5.2522,7.8311 5.3077,10.3405 0.09,4.0817 9.3661,4.4215 88.016,3.2245 67.806,-1.032 88.9653,-0.5079 92.5063,2.2914 2.9378,2.3224 4.5912,8.6451 4.5912,17.5568 0,20.5601 -5.0072,22.922 -48.5961,22.922 -19.313,0 -36.4111,1.2349 -37.9958,2.7443 -1.5848,1.5094 -24.7189,3.4265 -51.4093,4.2601 -156.0717,4.8747 -147.8076,4.9256 -159.2322,-0.9801 z m -24.8873,-59.8449 c 11.1858,-2.5893 21.7027,-6.2869 23.3708,-8.217 1.901,-2.1995 2.467,-22.815 1.5165,-55.2385 -0.8341,-28.4512 -0.3009,-61.4797 1.1851,-73.3968 1.4859,-11.917 2.4591,-25.5675 2.1626,-30.3343 -0.2963,-4.7668 -1.2074,-65.2188 -2.0245,-134.3377 -0.817,-69.1189 -2.1331,-127.4063 -2.9246,-129.5274 -0.856,-2.2944 -8.7724,5.3128 -19.5417,18.7783 -9.9565,12.4493 -23.0938,28.4853 -29.194,35.6355 -19.8327,23.2465 -19.4218,20.186 -19.4218,144.6327 0,106.5956 0.3299,113.4807 5.7876,120.7812 5.0463,6.7505 5.9256,14.2071 6.8661,58.2257 0.5932,27.766 2.1639,52.1088 3.4904,54.0949 3.0752,4.6045 4.3012,4.5577 28.7275,-1.0966 z m 103.7451,-587.8156 c 0,-3.15364 -12.9,-6.33522 -20.2328,-4.99008 -3.0512,0.55971 -5.287,2.29989 -4.9684,3.86708 1.2446,6.12233 25.2012,7.18987 25.2012,1.123 z m -1235.0661,520.136 -9.27,-8.8298 1.4965,-27.2519 c 1.6506,-30.0583 3.0875,-32.7882 41.6985,-79.2238 5.5928,-6.7263 14.1024,-20.2237 18.9101,-29.9943 4.8076,-9.7707 10.0707,-19.7149 11.6958,-22.0983 1.625,-2.3834 5.0983,-8.8836 7.7185,-14.4449 6.0119,-12.76 22.015,-28.8899 28.663,-28.8899 2.7841,0 8.5941,-2.6464 12.9111,-5.8809 4.317,-3.2346 11.6665,-7.1969 16.3322,-8.8052 10.3243,-3.5588 25.1396,-24.8418 25.2312,-36.2458 0.037,-4.5607 2.7664,-13.9593 6.066,-20.8859 3.2997,-6.9265 5.9994,-14.8764 5.9994,-17.6665 0,-2.7901 2.3885,-8.1733 5.3077,-11.9627 17.7232,-23.006 28.0552,-57.3525 28.0552,-93.26384 0,-17.0962 -1.3795,-21.9293 -10.8765,-38.1051 -5.9821,-10.1891 -11.9185,-18.5256 -13.1921,-18.5256 -1.2735,0 -8.2145,-3.7737 -15.4244,-8.386 -13.9916,-8.9507 -16.6187,-8.8116 -32.9638,1.7458 -7.2185,4.6624 -14.6495,6.6402 -24.9489,6.6402 -9.3209,0 -18.2887,2.1025 -24.599,5.7672 -14.0801,8.177 -34.2511,7.5701 -52.6989,-1.5854 -8.1722,-4.0559 -16.9058,-9.6425 -19.408,-12.4149 -8.5921,-9.5197 -40.9974,-24.5254 -48.8224,-22.6078 -7.8128,1.9146 -57.3324,54.6286 -57.3324,61.0308 0,2.0963 -10.3853,14.6868 -23.0785,27.9788 -12.6932,13.2921 -26.3588,29.0425 -30.368,35.00104 -4.0092,5.9586 -8.295999,10.887 -9.526099,10.9522 -1.2302,0.065 -8.3785,7.9391 -15.8852,17.4977 -18.7491,23.8742 -38.8283,47.038 -58.6055,67.6088 -13.2604003,13.7926 -17.4485003,16.6122 -20.4995003,13.8011 -2.91159998,-2.6826 -3.02659998,-5.2219 -0.4779,-10.5501 4.1646,-8.7062 28.1320003,-38.886 36.7784003,-46.3112 3.5247,-3.0269 6.4086,-7.0928 6.4086,-9.0353 0,-3.2071 20.5952,-28.2115 47.3004,-57.42694 5.6796,-6.2134 10.326399,-11.9061 10.326399,-12.6503 0,-0.7443 4.832,-6.711 10.7376,-13.2593 33.2245,-36.8401 43.8563,-49.6349 43.8563,-52.7783 0,-1.3647 4.1049,-6.1717 9.1218,-10.6821 9.944,-8.9398 30.3072,-36.83504 30.3072,-41.51722 0,-4.16565 17.6736,-24.83358 24.1708,-28.2658 7.5368,-3.98148 56.1177,-54.87236 67.5673,-70.78008 5.1464,-7.15023 15.2724,-19.11993 22.5023,-26.59933 7.2299,-7.4794 13.1528,-15.27966 13.1619,-17.3339 0.01,-2.05424 11.6104,-15.11732 25.7805,-29.02907 14.1701,-13.91175 25.7638,-26.03979 25.7638,-26.95118 0,-4.66235 27.9042,-27.51404 32.5555,-26.6608 7.78,1.42713 8.429,10.87765 1.0836,15.77826 -3.4882,2.32719 -6.3422,6.28932 -6.3422,8.8047 0,2.51538 -2.3884,6.26378 -5.3077,8.32974 -4.5001,3.18479 -2.7384,3.50971 11.5786,2.13545 l 16.8864,-1.62089 15.5497,18.61369 c 8.5523,10.23754 18.4457,25.67043 21.9853,34.29534 9.0379,22.02229 11.6971,24.09372 23.6429,18.41733 5.3282,-2.53185 9.6877,-5.66007 9.6877,-6.95159 0,-2.06825 7.5763,-5.88968 28.8134,-14.53311 3.3363,-1.35788 10.1605,-3.32109 15.165,-4.36268 5.0044,-1.0416 15.6941,-5.04287 23.7549,-8.89169 8.0607,-3.84884 16.2498,-7.01052 18.1979,-7.02595 1.9481,-0.0144 9.5347,-4.56554 16.8591,-10.11144 10.708,-8.10781 15.9616,-10.08338 26.8148,-10.08338 11.0418,0 15.7544,-1.83985 25.8996,-10.11144 21.3806,-17.43207 38.6069,-11.46045 38.6069,13.38341 0,10.83152 -1.6223,14.42614 -10.0017,22.16214 -5.5009,5.07851 -11.0908,9.23368 -12.422,9.23368 -1.3312,0 -6.4236,2.71518 -11.3164,6.03373 -4.8928,3.31857 -13.9535,7.36387 -20.1349,8.98962 -6.1814,1.62571 -14.5154,5.41074 -18.5199,8.41115 -4.0046,3.00044 -9.0209,5.45533 -11.1475,5.45533 -2.1265,0 -13.0317,8.3519 -24.2337,18.55981 l -20.3673,18.55983 2.1339,13.55401 c 1.1736,7.45471 4.8192,21.5285 8.1012,31.27512 3.282,9.74662 6.8023,23.57133 7.8229,30.72156 1.0206,7.15023 3.5984,15.60055 5.7284,18.77835 2.1301,3.1779 5.4623,12.2782 7.4051,20.2229 1.9427,7.9447 5.3025,18.3451 7.4663,23.1119 2.1637,4.7668 4.9004,14.5171 6.0815,21.6674 2.564,15.5224 14.8386,33.9568 42.9162,64.45294 44.3563,48.177 49.0008,54.2439 66.8646,87.3431 3.6642,6.7894 8.1,13.1907 9.8572,14.2251 1.7572,1.0345 3.195,4.0896 3.195,6.7891 0,2.6995 3.4121,11.0135 7.5825,18.4756 4.1703,7.462 7.5824,15.4016 7.5824,17.6435 0,2.2419 2.4714,7.1766 5.4919,10.966 3.0206,3.7894 7.1356,12.09 9.1446,18.4458 2.0089,6.3557 7.6974,16.7561 12.6411,23.1118 4.9436,6.3558 10.3817,14.8061 12.0846,18.7784 1.7029,3.9724 4.4717,9.1725 6.153,11.556 1.6812,2.3834 4.6667,7.5835 6.6344,11.5559 4.4579,8.9996 20.737,25.9699 25.0285,26.0912 1.758,0.05 10.0205,3.2879 18.3613,7.196 11.0446,5.1751 20.1876,7.1129 33.6511,7.1321 18.982,0.026 28.5252,4.9709 28.5252,14.7772 0,5.2185 -16.5696,22.806 -21.486,22.806 -1.9965,0 -9.9213,2.7624 -17.6107,6.1387 -7.6894,3.3763 -19.863,8.7065 -27.0525,11.845 -14.796,6.459 -30.1545,5.2907 -37.7706,-2.873 -5.6091,-6.0124 -20.4329,-39.0589 -20.4329,-45.5507 0,-6.5346 -12.8908,-21.8232 -37.2497,-44.1783 -23.441,-21.5128 -41.6082,-45.534 -41.6082,-55.0159 0,-14.2533 -14.8289,-33.8897 -35.4234,-46.9072 -33.1532,-20.9557 -37.5501,-24.1712 -72.2478,-52.8357 -26.8385,-22.1717 -35.2452,-27.5794 -42.9875,-27.652 -14.2487,-0.1338 -29.3365,13.4189 -48.0024,43.1184 -1.6681,2.6542 -8.8336,11.424 -15.9232,19.4885 -7.0896,8.0645 -12.8902,15.6019 -12.8902,16.7498 0,8.1378 -49.6632,56.0404 -58.2906,56.2241 -2.8673,0.061 -13.7557,9.8614 -24.1964,21.7784 -10.4407,11.9171 -19.9081,21.6674 -21.0385,21.6674 -6.5273,0 -29.8522,23.3808 -38.3706,38.4626 -5.4784,9.6996 -12.2649,20.0608 -15.081,23.0248 -2.8659,3.0164 -8.086,19.4244 -11.8561,37.2664 -3.8268,18.1104 -8.978,34.2372 -11.9277,37.3418 -7.9189,8.3347 -21.3807,6.9272 -32.1863,-3.3653 z m 81.6875,-512.63163 c 9.6248,-8.73918 19.3127,-15.88941 21.5288,-15.88941 2.2161,0 14.0542,-8.12526 26.3069,-18.05614 19.7245,-15.98674 21.7842,-18.57888 17.9714,-22.6171 -2.3684,-2.50853 -4.3063,-5.61846 -4.3063,-6.91099 0,-1.29251 -6.1418,-9.19775 -13.6484,-17.56719 -7.5067,-8.36944 -13.6485,-16.22605 -13.6485,-17.45916 0,-1.2331 -2.6264,-4.92589 -5.8364,-8.20618 -3.9731,-4.06006 -6.2573,-11.4981 -7.1549,-23.29806 -1.5764,-20.72562 -7.3861,-24.00586 -16.8055,-9.48866 -3.4213,5.27297 -9.7179,12.71675 -13.9923,16.54173 -4.2745,3.82499 -7.7718,8.14792 -7.7718,9.60648 0,3.56079 -8.9243,14.14585 -30.692,36.40349 -9.9664,10.19083 -20.0535,22.08873 -22.4157,26.43977 -2.3621,4.35104 -6.3926,8.67776 -8.9565,9.61488 -2.5639,0.93716 -4.6617,3.5356 -4.6617,5.77433 0,2.23873 -2.0472,5.68881 -4.5495,7.66687 -2.5022,1.97806 -4.5494,4.61321 -4.5494,5.85594 0,2.93425 31.9946,20.1449 37.4494,20.1449 2.2981,0 9.3307,3.90013 15.6279,8.66699 6.2973,4.7668 13.9596,8.6669 17.0272,8.6669 3.0677,0 13.4525,-7.1502 23.0773,-15.88939 z M 873.6156,660.69616 c -5.6016,-5.33563 -4.3699,-11.38042 4.0183,-19.72008 5.143,-5.11324 8.5695,-12.94851 10.4336,-23.85843 1.5267,-8.93464 4.2224,-18.81964 5.9906,-21.96661 1.7682,-3.147 3.2148,-8.84789 3.2148,-12.66868 0,-8.45727 -16.9453,-28.10076 -24.2408,-28.10076 -2.8991,0 -8.7796,-2.62881 -13.0679,-5.84176 -4.2882,-3.21298 -15.6706,-7.22823 -25.2942,-8.92277 -9.6236,-1.69456 -20.6181,-5.41918 -24.4323,-8.27693 -3.8141,-2.85775 -12.0038,-6.10171 -18.1992,-7.20879 -6.1954,-1.10709 -14.9068,-4.829 -19.3586,-8.27093 -4.4518,-3.44193 -12.0196,-8.49589 -16.8172,-11.23101 -14.4701,-8.24946 -20.3985,-12.05214 -29.4044,-18.86116 -4.7286,-3.57511 -10.645,-6.50021 -13.1475,-6.50021 -2.5026,0 -8.5396,-3.80011 -13.4158,-8.44472 -7.6009,-7.24003 -8.8656,-10.66119 -8.8656,-23.98191 0,-13.39497 1.7655,-18.10595 12.805,-34.16777 15.3742,-22.36862 21.2402,-32.00594 29.364,-48.24266 3.3788,-6.753 7.4231,-12.27818 8.9874,-12.27818 1.5642,0 4.1906,-3.57512 5.8363,-7.9447 1.6457,-4.36959 11.3273,-16.39498 21.5145,-26.72309 24.3426,-24.67926 24.5312,-34.29116 0.7573,-38.58951 -5.6149,-1.01516 -14.8751,-5.74823 -20.5783,-10.51794 -5.7032,-4.76971 -12.7104,-8.72103 -15.5716,-8.78069 -9.3172,-0.19414 -27.6103,-18.25259 -37.9351,-37.4483 -13.7614,-25.58492 -23.4845,-40.44576 -26.4627,-40.44576 -2.1922,0 -6.974,6.44283 -20.3394,27.40453 -2.0405,3.20033 -5.8122,10.04391 -8.3814,15.20797 -2.5692,5.16406 -6.4966,9.38919 -8.7275,9.38919 -14.1485,0 -55.2084,-18.68737 -62.0422,-28.23687 -8.7885,-12.28112 -18.9138,-20.45226 -27.5939,-22.26819 -4.7713,-0.99822 -15.7532,-9.20251 -25.5408,-19.08091 L 499.9507,146.7888 v -20.99209 c 0,-13.18774 1.5408,-22.99919 4.1444,-26.390773 4.0161,-5.231529 4.5091,-5.19235 15.9232,1.265463 6.4784,3.66527 15.5953,7.72276 20.2599,9.01663 7.3571,2.04076 8.8643,1.39215 11.3737,-4.89468 1.591,-3.98595 2.8927,-13.756273 2.8927,-21.711833 0,-20.53893 11.0443,-37.76592 28.2168,-44.01276 19.4462,-7.07396 29.7507,-5.99016 44.5447,4.68512 23.4374,16.91232 22.6946,16.76289 73.0149,14.68828 l 46.4008,-1.91302 15.6752,-15.415699 c 8.6214,-8.478631 17.3899,-15.4157 19.4856,-15.4157 2.0957,0 7.8655,-3.2501 12.8217,-7.22245 5.397,-4.32567 12.8715,-7.24823 18.6358,-7.2867 5.2935,-0.0353 13.0366,-2.6065105 17.207,-5.7137305 9.7975,-7.29981 21.8779,-7.29981 28.8134,0 3.8563,4.05878 9.3415,5.7779705 18.4353,5.7779705 9.1288,0 15.4736,1.99993 21.5192,6.78306 4.7154,3.73068 12.0919,7.59944 16.3923,8.59723 4.3004,0.99779 11.5361,5.09565 16.0795,9.10634 4.5433,4.0107 9.8084,7.29218 11.7001,7.29218 1.8917,0 6.608,2.83532 10.4806,6.30071 6.0556,5.41882 11.6934,6.53081 40.2793,7.9447 42.117,2.08315 43.6094,3.24099 45.124,35.0076 1.2901,27.060352 -1.2899,31.638512 -17.8295,31.638512 -8.7275,0 -14.6275,-2.49817 -24.6509,-10.43754 -7.2474,-5.74065 -14.1933,-12.11276 -15.4353,-14.160242 -1.2421,-2.04749 -9.4311,-7.55614 -18.198,-12.24144 -14.2288,-7.60436 -19.6584,-8.7015 -50.5846,-10.2216 -28.4067,-1.39626 -36.1669,-2.77469 -43.0974,-7.65535 -4.7043,-3.31293 -13.1068,-5.95247 -18.9485,-5.95247 -9.0493,0 -12.8267,2.48864 -27.4061,18.05614 -9.3006,9.93088 -16.9162,20.818132 -16.9238,24.193902 -0.018,7.87045 30.3938,36.35353 48.2853,45.22387 9.3577,4.63942 14.4067,9.41292 16.6814,15.77115 1.7942,5.0149 9.0627,13.83858 16.1523,19.60819 7.0896,5.76961 12.8902,12.34755 12.8902,14.61766 0,2.2701 3.4122,6.95339 7.5825,10.4073 4.1704,3.45392 7.5825,7.79398 7.5825,9.64458 0,1.8506 2.7297,5.71778 6.066,8.59372 3.3363,2.87594 6.066,6.6718 6.066,8.43524 0,1.76344 2.5289,7.73715 5.6198,13.27492 3.0909,5.53774 7.3803,15.26882 9.532,21.62458 2.1516,6.35576 8.8354,17.4117 14.8528,24.56875 13.1277,15.61391 17.0198,21.36351 23.4595,34.6554 2.6943,5.56129 6.1255,12.0615 7.6247,14.44491 1.4993,2.38341 4.7789,8.88363 7.2881,14.44492 2.5091,5.56129 5.9212,12.0615 7.5824,14.44491 1.6613,2.38341 5.1711,8.88362 7.7997,14.44492 6.7595,14.30118 15.5806,22.50821 26.5679,24.71839 5.212,1.04844 12.206,4.19538 15.5423,6.99316 3.3363,2.79781 9.5776,5.87455 13.8696,6.83721 4.292,0.96264 16.9793,8.2835 28.1939,16.26853 11.2146,7.98506 21.6153,14.51829 23.1126,14.51829 1.4973,0 4.5058,2.27508 6.6856,5.05572 4.8117,6.13817 43.7507,35.96983 53.246,40.79253 4.3776,2.22339 12.2816,2.77432 22.0656,1.53806 20.2913,-2.56394 25.6175,2.12407 30.0676,26.46473 1.8637,10.19398 5.9885,22.77359 9.1663,27.95467 5.9131,9.64082 13.9292,54.54087 11.0245,61.75093 -3.4185,8.48544 -12.9476,4.06775 -20.2007,-9.36501 -3.9704,-7.35315 -15.0929,-21.32861 -24.7165,-31.05656 -9.6237,-9.72796 -17.5086,-18.59977 -17.522,-19.71514 -0.059,-4.88854 -28.2642,-19.89028 -43.0043,-22.87272 -8.8898,-1.79871 -19.5754,-5.54554 -23.7458,-8.32628 -4.1704,-2.78076 -12.3595,-5.9899 -18.198,-7.13148 -5.8385,-1.14155 -15.3924,-5.05358 -21.2309,-8.69338 -5.8385,-3.6398 -14.7101,-7.51887 -19.7145,-8.62015 -5.0044,-1.10131 -11.3795,-3.95961 -14.1669,-6.3518 -2.7874,-2.39223 -10.9765,-5.90965 -18.198,-7.81652 -19.949,-5.2676 -32.7464,-13.19396 -50.7626,-31.44086 -9.0209,-9.13641 -17.557,-16.61165 -18.9691,-16.61165 -4.0751,0 -45.0245,-30.58656 -61.7994,-46.16017 -8.4036,-7.80181 -19.2103,-15.60868 -24.0148,-17.34863 -7.9773,-2.88898 -9.7025,-2.26401 -19.8796,7.20183 -11.2256,10.44102 -21.0146,16.38331 -44.7063,27.13821 -10.3219,4.68564 -12.8903,7.35971 -12.8903,13.42068 0,10.51405 23.9155,38.64659 43.3321,50.9729 26.3856,16.75044 33.0081,20.86767 43.2496,26.88831 10.4625,6.15053 22.0018,13.3538 35.3735,22.08151 4.5199,2.95011 11.3441,5.38156 15.165,5.40326 13.2284,0.0751 20.8582,3.62039 25.2665,11.74022 7.8708,14.49775 5.647,22.26594 -16.8898,59.00043 -4.8741,7.9447 -10.342,17.69501 -12.1507,21.66737 -1.8087,3.97235 -8.3255,12.20476 -14.4817,18.29425 -17.7821,17.58934 -34.1524,23.68319 -42.433,15.79574 z M 596.1644,162.48538 c 1.3011,-3.76719 -16.2009,-20.42166 -23.9736,-22.81263 -2.8057,-0.86306 -6.4513,-5.08481 -8.1013,-9.38164 l -3,-7.81244 -0.2393,8.77834 c -0.2918,10.70048 10.0421,30.86917 17.2482,33.66326 7.286,2.82506 16.687,1.55803 18.0661,-2.43489 z"
     style="fill:#000000;stroke-width:2.96011" />
</svg>
