<?xml version="1.0" encoding="UTF-8" standalone="no"?>
<svg
   xmlns:dc="http://purl.org/dc/elements/1.1/"
   xmlns:cc="http://creativecommons.org/ns#"
   xmlns:rdf="http://www.w3.org/1999/02/22-rdf-syntax-ns#"
   xmlns:svg="http://www.w3.org/2000/svg"
   xmlns="http://www.w3.org/2000/svg"
   xmlns:sodipodi="http://sodipodi.sourceforge.net/DTD/sodipodi-0.dtd"
   xmlns:inkscape="http://www.inkscape.org/namespaces/inkscape"
   version="1.1"
   id="svg416"
   width="1232.5813"
   height="1598.2333"
   viewBox="0 0 1232.5813 1598.2333"
   sodipodi:docname="легкая.svg"
   inkscape:version="1.0 (4035a4fb49, 2020-05-01)">
  <metadata
     id="metadata422">
    <rdf:RDF>
      <cc:Work
         rdf:about="">
        <dc:format>image/svg+xml</dc:format>
        <dc:type
           rdf:resource="http://purl.org/dc/dcmitype/StillImage" />
        <dc:title></dc:title>
      </cc:Work>
    </rdf:RDF>
  </metadata>
  <defs
     id="defs420" />
  <sodipodi:namedview
     inkscape:document-rotation="0"
     pagecolor="#ffffff"
     bordercolor="#666666"
     borderopacity="1"
     objecttolerance="10"
     gridtolerance="10"
     guidetolerance="10"
     inkscape:pageopacity="0"
     inkscape:pageshadow="2"
     inkscape:window-width="1920"
     inkscape:window-height="1018"
     id="namedview418"
     showgrid="false"
     inkscape:zoom="0.53125"
     inkscape:cx="434.37674"
     inkscape:cy="750.37889"
     inkscape:window-x="-6"
     inkscape:window-y="-6"
     inkscape:window-maximized="1"
     inkscape:current-layer="g424" />
  <g
     transform="translate(-184.12326,-49.62111)"
     inkscape:groupmode="layer"
     inkscape:label="Image"
     id="g424">
    <path
       id="path130"
       d="m 1190.5453,1646.2373 c -1.4632,-0.9079 -2.9014,-2.8084 -3.196,-4.2234 -0.2946,-1.415 -3.107,-6.119 -6.2498,-10.4534 -7.555,-10.4197 -11.3617,-21.0949 -11.3803,-31.9138 -0.012,-7.2526 -0.9489,-12.7316 -4.5756,-26.7711 -0.7908,-3.0611 -1.4378,-7.6508 -1.4378,-10.1993 0,-3.9077 0.4935,-5.0949 3.1495,-7.5772 l 3.1495,-2.9434 -1.7809,-10.3572 c -0.9795,-5.6965 -2.3492,-14.4073 -3.0437,-19.3573 -0.6946,-4.95 -2.0124,-11.025 -2.9285,-13.5 -0.9161,-2.475 -3.1724,-10.35 -5.014,-17.5 -2.7884,-10.8258 -6.4408,-20.7542 -12.5077,-34 -0.5038,-1.1 -3.5824,-7.85 -6.8414,-15 -3.2589,-7.15 -10.6723,-22.675 -16.4741,-34.5 -8.8524,-18.0425 -14.4547,-30.1498 -25.2184,-54.5 -0.7293,-1.65 -2.1117,-4.9746 -3.0719,-7.388 -0.9603,-2.4133 -3.8957,-8.0383 -6.5232,-12.5 -4.1836,-7.1039 -9.8554,-16.9033 -16.5604,-28.612 -1.1024,-1.925 -2.8105,-6.2 -3.7959,-9.5 -0.9854,-3.3 -2.8075,-9.375 -4.049,-13.5 -1.2416,-4.125 -2.7937,-10.875 -3.4493,-15 -0.6555,-4.125 -1.6239,-10.2 -2.1519,-13.5 -0.528,-3.3 -1.3754,-10.275 -1.8832,-15.5 -0.5077,-5.225 -1.3904,-13.9073 -1.9614,-19.294 -0.5711,-5.3867 -1.0244,-20.2367 -1.0075,-33 0.03,-22.819 -0.012,-23.2935 -2.5029,-28.4511 -1.3935,-2.8848 -2.5337,-5.7205 -2.5337,-6.3016 0,-0.5811 -7.0878,-8.3458 -15.7506,-17.2549 -8.6629,-8.9091 -17.4601,-18.2969 -19.5494,-20.8616 -2.0893,-2.5648 -7.2927,-7.3662 -11.56306,-10.6697 -4.2704,-3.3036 -9.42488,-8.0329 -11.45441,-10.5097 -3.75637,-4.5842 -22.55466,-17.7034 -36.68248,-25.6006 -4.125,-2.3058 -8.43873,-5.1743 -9.58607,-6.3746 -1.14734,-1.2002 -6.52531,-5.7822 -11.95104,-10.1822 -5.42574,-4.4 -11.74134,-9.6912 -14.03467,-11.7583 -4.61205,-4.1569 -4.72268,-4.1197 -8.22026,2.7583 -1.11874,2.2 -4.8857,7.4435 -8.37102,11.6524 -3.48532,4.2089 -9.71194,12.2899 -13.83694,17.9579 -6.91231,9.4979 -18.67541,24.7119 -20.01735,25.8897 -0.31331,0.275 -3.92508,4.4868 -8.02615,9.3595 -18.61496,22.1176 -34.82907,40.5324 -45.02899,51.1405 -13.78638,14.3381 -22.80351,26.4715 -39.92751,53.7264 -6.07058,9.662 -8.54679,12.0142 -16.61552,15.7833 -19.84995,9.2724 -23.96593,9.2529 -44.88448,-0.213 -11.27439,-5.1017 -22,-9.3886 -22,-8.7931 0,0.1839 -1.125,-0.2889 -2.5,-1.0507 -2.30549,-1.2772 -7.18844,-2.7443 -26.76621,-8.042 -4.87443,-1.3189 -8.98898,-3.2727 -12.5,-5.9355 -2.87858,-2.1832 -7.48379,-4.7011 -10.23379,-5.5955 -2.75,-0.8944 -6.35,-2.4358 -8,-3.4255 -3.75861,-2.2544 -11.34197,-4.9206 -14.05,-4.9398 -1.1275,-0.01 -2.4775,-0.4083 -3,-0.8895 -0.5225,-0.4812 -4.09008,-2.1116 -7.92796,-3.623 -3.83787,-1.5114 -8.33787,-3.7437 -10,-4.9607 -1.66212,-1.2169 -5.27204,-3.0379 -8.02204,-4.0467 -2.75,-1.0088 -6.35,-2.6445 -8,-3.6349 -1.65,-0.9905 -4.40757,-2.4432 -6.12792,-3.2283 -1.72036,-0.7851 -3.43863,-1.9302 -3.81838,-2.5446 -0.91357,-1.4782 -6.08505,-3.5924 -11.0537,-4.519 -2.2,-0.4103 -7.15,-2.6916 -11,-5.0695 -3.85,-2.3779 -9.025,-4.8963 -11.5,-5.5965 -2.475,-0.7002 -8.75195,-3.4395 -13.94877,-6.0875 -5.19682,-2.6479 -9.91306,-4.8144 -10.48053,-4.8144 -4.1403,0 -37.0249,-14.9493 -49.65707,-22.5741 -7.67329,-4.6316 -25.34952,-10.4259 -31.80538,-10.4259 -2.82614,0 -7.71915,-0.6462 -10.87335,-1.4359 -3.15419,-0.7898 -8.4349,-2.0045 -11.7349,-2.6993 -3.3,-0.6949 -8.25,-2.6126 -11,-4.2616 -4.1266,-2.4744 -6.3101,-3.0575 -12.5,-3.3383 -4.91328,-0.2229 -8.2267,0.1038 -9.60701,0.9474 -6.65206,4.0654 -10.39507,6.9598 -10.41046,8.0502 -0.01,0.6806 -3.03601,3.0375 -6.72532,5.2375 -6.20677,3.7012 -7.41937,4.0452 -16.23253,4.6044 -9.12245,0.5789 -19.33403,3.4611 -23.12539,6.5272 -0.76961,0.6224 -4.24755,1.3287 -7.72875,1.5695 -3.65156,0.2527 -6.66611,0.9827 -7.12516,1.7255 -0.48198,0.7798 -1.61853,1.0263 -2.88276,0.625 -1.14789,-0.3643 -2.98219,-0.1833 -4.07623,0.4022 -2.30402,1.233 -11.08192,-0.6257 -12.34555,-2.6143 -0.54017,-0.85 -1.69208,-0.9271 -3.99339,-0.2671 -1.77884,0.5102 -4.70721,0.9276 -6.5075,0.9276 -1.96805,0 -7.55319,2.1527 -14.00661,5.3987 -10.27422,5.1677 -11.35865,6.0356 -25.35203,20.2889 -16.14311,16.443 -20.6465,19.4676 -26.19163,17.5912 -1.75432,-0.5936 -5.70666,-1.8386 -8.78297,-2.7667 -5.07453,-1.5308 -5.8041,-2.1197 -7.86623,-6.3497 -6.89486,-14.1433 -7.24985,-19.8384 -2.15507,-34.5743 3.74607,-10.8348 5.92175,-15.2361 11.80202,-23.8746 1.20309,-1.7674 4.00893,-5.9135 6.23519,-9.2135 10.00067,-14.8241 14.54765,-20.1867 20.4903,-24.1658 3.3479,-2.2418 7.53466,-4.6324 9.30392,-5.3126 1.76927,-0.6802 3.78766,-1.9246 4.48532,-2.7652 2.34709,-2.8281 8.73449,-6.2564 11.65643,-6.2564 4.28656,0 17.77882,-7.5227 24.64141,-13.739 9.23492,-8.3651 11.49658,-10.6758 11.51154,-11.761 0.05,-3.6254 13.87606,-25.83432 17.18566,-27.60557 1.18855,-0.63609 5.17602,-3.91007 8.86103,-7.2755 3.68501,-3.36542 7.91399,-6.95354 9.39774,-7.97361 1.48375,-1.02005 4.28036,-4.05755 6.21468,-6.75 1.93433,-2.69244 3.98158,-4.89535 4.54945,-4.89535 0.56787,0 3.68912,-1.35 6.9361,-3 4.71031,-2.39361 7.18037,-3 12.22007,-3 3.61948,0 7.60391,0.64228 9.33174,1.50423 1.65841,0.82732 7.076,5.66482 12.03909,10.75 4.96308,5.08517 12.00806,11.96073 15.65549,15.27899 6.20151,5.64186 6.69215,6.40467 7.56361,11.75911 0.79087,4.8593 1.73422,6.6379 6.23286,11.7517 2.91552,3.3142 7.0908,7.2476 9.2784,8.7409 2.18761,1.4933 4.88761,3.6576 6,4.8096 1.1124,1.152 4.49754,2.6837 7.52254,3.4038 3.025,0.7201 11.575,3.7643 19,6.7649 7.425,3.0007 15.075,5.8258 17,6.2781 1.925,0.4523 6.15735,1.753 9.40523,2.8905 3.24787,1.1375 7.13503,2.0682 8.63813,2.0682 1.5031,0 6.72075,1.1907 11.59477,2.646 4.87403,1.4553 11.33687,3.2336 14.36187,3.9516 3.025,0.7181 8.875,2.5145 13,3.9919 4.125,1.4775 11.1,3.0991 15.5,3.6036 10.46603,1.2 41.00288,0.9514 45.57552,-0.3711 3.98084,-1.1512 18.13852,-0.5382 27.42448,1.1876 3.3,0.6133 9.825,1.4519 14.5,1.8636 6.00233,0.5285 10.75278,1.6855 16.16659,3.9376 4.21662,1.7541 8.57756,3.1892 9.69098,3.1892 1.11342,0 2.28111,0.4154 2.59488,0.9231 0.31377,0.5076 2.02782,1.2327 3.80902,1.6113 1.78119,0.3785 3.91353,1.2329 4.73853,1.8987 0.825,0.6658 4.425,2.4681 8,4.0051 3.8276,1.6456 8.55569,4.7586 11.5,7.5716 9.83569,9.3972 17.52404,10.712 21.18962,3.6235 0.88861,-1.7184 4.19341,-5.8263 7.34399,-9.1288 6.20389,-6.503 9.29443,-11.9517 14.46639,-25.5045 1.83568,-4.8103 4.44624,-10.9407 5.80122,-13.6231 1.35499,-2.6823 2.73657,-6.9019 3.07018,-9.3769 1.32273,-9.8131 2.54367,-14.0424 12.12477,-42.00003 6.71081,-19.58214 12.13239,-32.0728 17.18714,-39.59703 9.27386,-13.80459 23.49629,-38.80185 25.21065,-44.31009 l 1.85382,-5.95634 -6.14871,-12.31827 c -7.4818,-14.98896 -7.86989,-16.11013 -11.0574,-31.94391 -2.2005,-10.93091 -2.54167,-15.22714 -2.54167,-32.0066 0,-10.65953 0.46462,-20.95299 1.03248,-22.87436 0.56786,-1.92137 1.21085,-5.2934 1.42886,-7.4934 1.32248,-13.34533 5.93491,-32.27058 10.47991,-43 0.46596,-1.1 1.62369,-4.25 2.57274,-7 0.94905,-2.75 3.9823,-9.275 6.74055,-14.5 2.75826,-5.225 6.10741,-11.69341 7.44255,-14.37427 2.27025,-4.55844 4.53444,-7.03332 20.02374,-21.88698 5.28154,-5.0648 6.26851,-6.63631 8.1645,-13 1.18619,-3.98131 2.59725,-8.62069 3.13569,-10.30975 0.53844,-1.68905 0.97469,-6.41405 0.96944,-10.5 -0.0101,-7.83707 -2.00179,-15.06947 -10.99603,-39.929 -2.2884,-6.325 -5.22485,-14.65 -6.52545,-18.5 -1.3006,-3.85 -4.2548,-12.17499 -6.56489,-18.5 -4.52208,-12.3814 -5.21871,-16.95612 -6.31949,-41.5 -0.34534,-7.69999 -1.11085,-18.97888 -1.70113,-25.0642 -0.99814,-10.29003 -0.69497,-35.67505 0.70758,-59.24595 0.31226,-5.24785 0.14288,-9.82932 -0.38821,-10.5 -1.11681,-1.41037 -3.1108,-7.38704 -3.79123,-11.36363 -0.26597,-1.55442 -0.87236,-4.17622 -1.34753,-5.82621 -0.83265,-2.89131 -1.67465,-7.31666 -4.13835,-21.75 -0.63371,-3.7125 -1.56123,-6.75 -2.06116,-6.75 -1.37045,0 -15.32769,7.17185 -24.31119,12.49218 -14.08061,8.33901 -36.91907,18.39245 -55.6686,24.5052 -6.39994,2.08652 -12.70467,4.47905 -14.01051,5.31675 -1.30585,0.83769 -4.39927,2.04468 -6.87427,2.68221 -2.475,0.63753 -6.75,2.19952 -9.5,3.4711 -2.75,1.27158 -7.475,3.1491 -10.5,4.17226 -3.025,1.02317 -6.12379,2.69887 -6.8862,3.7238 -1.05527,1.41861 -1.47301,7.14819 -1.74983,24 -0.19999,12.17507 -0.49901,27.3115 -0.66448,33.6365 -0.30631,11.70815 0.89365,21.79758 4.9357,41.49999 0.78984,3.85 2.28081,11.725 3.31325,17.5 1.03244,5.775 3.32428,16.57501 5.09298,24 1.76869,7.425 4.07219,17.26873 5.11888,21.87495 1.04669,4.60622 2.33882,9.18914 2.87139,10.18426 0.53257,0.99513 0.96831,3.38733 0.96831,5.31603 0,1.9287 0.39465,3.75063 0.877,4.04874 0.48236,0.29812 1.36076,2.46315 1.952,4.81119 1.07812,4.28161 3.79771,7.66833 12.23881,15.24108 2.4377,2.18693 7.18959,7.28037 10.55974,11.31874 6.84343,8.20033 7.27862,9.58494 7.99623,25.44104 0.36614,8.0901 0.14339,10.20331 -1.31757,12.5 -0.96701,1.52019 -2.29775,3.10495 -2.9572,3.52168 -0.65945,0.41675 -1.69014,2.24591 -2.29044,4.06481 -0.79977,2.42334 -2.15595,3.77675 -5.075,5.06463 l -3.98357,1.75755 v 6.38299 6.38299 l -6.96697,4.13901 c -3.83183,2.27645 -7.53098,3.95099 -8.22034,3.72121 -0.68935,-0.22979 -4.41671,0.53786 -8.28303,1.70588 -6.19291,1.87088 -7.62481,1.98032 -12.02966,0.91944 -2.75,-0.66233 -8.08057,-1.24743 -11.84571,-1.30022 -3.93404,-0.0552 -7.97465,-0.71523 -9.5,-1.55188 -4.31257,-2.36546 -15.37537,-6.66218 -19.21679,-7.46369 -6.36494,-1.32803 -9.7537,-4.74764 -11.92291,-12.03144 -1.07271,-3.60194 -1.95035,-6.77399 -1.95033,-7.04899 2e-5,-0.275 -0.93091,-3.2 -2.06875,-6.5 -2.13701,-6.19785 -2.09576,-11.95426 0.14917,-20.81281 0.53143,-2.09705 1.14686,-5.02205 1.36761,-6.5 0.67819,-4.54036 3.14156,-11.42335 6.1337,-17.13837 2.62822,-5.01991 2.87995,-6.45743 3.18189,-18.17021 0.21807,-8.45888 -0.0676,-13.45793 -0.85274,-14.92506 -0.95967,-1.79316 -1.92254,-9.8854 -3.08814,-25.95355 -0.10044,-1.38465 -1.66901,-8.73804 -3.94627,-18.5 -0.51321,-2.2 -1.11203,-5.13827 -1.33072,-6.5295 -0.21868,-1.39122 -0.86931,-4.31622 -1.44584,-6.5 -0.57654,-2.18377 -2.22021,-9.1455 -3.6526,-15.4705 -4.31102,-19.03611 -4.54516,-19.89943 -10.03514,-37 -2.91345,-9.075 -5.75354,-18.975 -6.31132,-22 -0.55778,-3.025 -1.48697,-6.7375 -2.06488,-8.25 -0.5779,-1.5125 -0.848,-2.75 -0.60023,-2.75 0.24777,0 0.007,-1.16658 -0.53513,-2.59239 -2.81387,-7.40105 -4.17353,-18.1376 -3.53417,-27.90761 0.99623,-15.22341 2.01365,-22.76787 3.40986,-25.28519 4.78827,-8.63303 20.87133,-26.64964 29.92993,-33.52819 12.7241,-9.66189 46.51047,-32.68661 47.96419,-32.68661 0.5353,0 2.11727,-1.06022 3.51549,-2.35605 1.39822,-1.29582 8.54686,-5.37375 15.88586,-9.06206 7.339,-3.6883 14.09998,-7.39049 15.02439,-8.22707 2.19737,-1.98859 7.23498,-4.88544 12.83958,-7.38332 2.475,-1.10307 6.075,-2.86192 8,-3.90855 1.925,-1.04662 5.96589,-3.17644 8.97976,-4.73295 4.78675,-2.47211 6.48447,-4.27518 13.42425,-14.25725 14.62658,-21.03866 28.24476,-31.68039 49.09599,-38.36536 16.4546,-5.27539 22.96622,-6.12047 41.52918,-5.38967 17.40115,0.68506 26.56033,-0.55002 31.82286,-4.2912 4.82259,-3.42842 13.36779,-4.45898 35.39796,-4.26902 l 20.75,0.17892 v -10.47354 -10.47354 l -6.21441,-9.24468 c -3.41793,-5.08457 -11.29946,-14.57802 -17.51452,-21.09655 -10.20776,-10.7062 -11.82517,-12.92953 -16.73176,-23 -6.99542,-14.35765 -8.68343,-21.60453 -9.23516,-39.64812 -0.48179,-15.75632 1.26191,-27.40241 5.58965,-37.3329 1.15841,-2.65809 2.1062,-5.25026 2.1062,-5.76037 0,-0.5101 1.77542,-4.5228 3.94537,-8.91709 2.16995,-4.394298 3.72912,-7.989631 3.46481,-7.989631 -0.99055,0 2.05347,-4.683624 6.49484,-9.993175 5.84009,-6.981677 5.36107,-6.507472 13.46909,-13.333568 8.0538,-6.780453 28.56625,-17.104443 36.18256,-18.210812 2.71883,-0.394946 5.79043,-1.158294 6.82577,-1.696329 2.88849,-1.501053 40.27567,-2.742106 51.2704,-1.701901 8.69201,0.822348 12.70931,1.666512 18.84711,3.960367 1.1,0.411099 4.025,1.330602 6.5,2.043339 6.8532,1.973536 26.4489,12.380983 30.0025,15.934512 1.0986,1.098662 2.4006,1.997567 2.8933,1.997567 2.0245,0 14.4231,22.476186 15.6485,28.367431 1.0083,4.84785 5.3504,17.68028 7.5112,22.19829 1.6429,3.43495 1.9445,6.26094 1.9445,18.2152 0,14.12591 0.01,14.15495 2.8534,17.43427 1.5693,1.80665 3.3693,4.26772 4,5.46907 1.4546,2.7709 1.4493,10.45909 -0.015,21.31573 -0.6305,4.67501 -1.2224,12.55001 -1.3154,17.5 -0.093,4.95 -0.537,11.80424 -0.9867,15.23165 -0.5396,4.11354 -0.4052,8.19229 0.3954,12 0.9528,4.53103 0.9509,6.73362 -0.01,10.26835 -0.672,2.475 -1.3883,8.325 -1.5917,13 -0.5023,11.54177 -0.7556,12.32229 -5.068,15.62118 -3.7459,2.86553 -3.8301,2.87883 -18.2226,2.87883 h -14.4594 l -0.8514,4.5 c -0.4682,2.47499 -1.5351,5.99399 -2.3707,7.81998 -0.8357,1.82601 -1.3122,3.85989 -1.059,4.51977 0.2532,0.65988 5.5768,3.81306 11.8301,7.00706 6.2534,3.194 11.8417,6.40973 12.4185,7.14608 0.5768,0.73635 4.8518,1.84259 9.5,2.4583 22.2554,2.94806 30.3206,5.17582 34.2964,9.47339 8.6675,9.36892 17.1448,23.35986 22.1616,36.57542 1.9834,5.225 4.2567,10.49804 5.0518,11.71789 0.795,1.21985 1.6546,3.69485 1.9102,5.5 1.3059,9.22196 2.5357,14.91675 3.6683,16.98581 0.7757,1.41715 1.5223,8.80482 1.95,19.2963 0.6532,16.02072 0.8742,17.43034 3.8373,24.47055 1.7292,4.10882 4.2377,9.3366 5.5743,11.6173 2.4587,4.19552 5.3281,11.60046 7.3283,18.91215 0.6019,2.2 2.3031,7.825 3.7805,12.5 1.4775,4.675 3.0281,12.325 3.4458,17 0.4177,4.675 1.0123,9.39999 1.3214,10.5 2.3012,8.18981 3.8813,16.05504 4.4539,22.17038 0.5166,5.51677 1.2038,7.73679 2.9797,9.6265 2.2384,2.38173 2.6645,2.4458 14.0673,2.11511 8.0338,-0.23298 12.688,-0.82548 14.6917,-1.87033 1.613,-0.84114 3.2771,-1.53211 3.6981,-1.53551 2.4565,-0.0198 12.1965,-7.93826 14.4098,-11.71492 1.3979,-2.38529 3.3994,-4.79597 4.4478,-5.35706 4.3542,-2.3303 10.877,-17.25882 10.877,-24.89384 0,-3.16134 0.6125,-4.09038 4.75,-7.20439 8.7701,-6.60073 8.3768,-6.56146 18.6848,-1.86566 4.4003,2.00458 4.4569,2.00507 8.9562,0.0765 6.9009,-2.95806 11.382,-3.55404 13.399,-1.78204 0.9405,0.82626 3.6225,2.46386 5.96,3.63912 2.3375,1.17526 4.25,2.29127 4.25,2.48002 0,2.91236 2.4026,11.40356 3.6015,12.72834 0.8717,0.96317 1.7268,3.27844 1.9003,5.14505 0.1735,1.86661 1.2548,4.93485 2.4031,6.81831 1.1482,1.88346 2.0893,5.10109 2.0914,7.1503 0,2.04921 0.902,5.19921 2,7 1.412,2.31593 1.9973,5.04313 2,9.31847 0,5.06068 -0.6557,7.37138 -4.0485,14.19917 -2.386,4.80191 -4.8421,8.4056 -5.9735,8.76469 -1.0568,0.3354 -4.2958,2.24388 -7.1978,4.24106 -2.9021,1.99718 -9.2747,5.61858 -14.1614,8.04754 -8.0006,3.97676 -10.0064,4.53013 -20.152,5.55977 l -11.2671,1.14346 -4.848,4.45909 c -5.6179,5.16723 -17.8415,13.57114 -24.3496,16.74072 -2.4758,1.2058 -6.0758,3.82559 -8,5.82175 -3.813,3.95576 -16.0599,12.47844 -17.9312,12.47844 -0.6401,0 -3.0266,0.9 -5.3033,2 -2.2768,1.1 -4.9338,2 -5.9046,2 -1.6069,0 -3.6456,0.6746 -9.3593,3.09693 -9.684,4.10561 -13.6133,5.1535 -19.5,5.20038 -6.6237,0.0527 -14.5058,-1.81238 -17.2365,-4.07868 -0.8336,-0.69182 -3.8294,-2.52312 -6.6573,-4.06957 -4.4195,-2.41686 -5.8897,-4.07771 -10.4688,-11.82687 -5.116,-8.65774 -5.3553,-9.38799 -6.0355,-18.41868 -0.3895,-5.17193 -1.0646,-9.76133 -1.5002,-10.19867 -0.8762,-0.8797 -3.8753,9.72348 -5.1749,18.29516 -0.9796,6.46156 -1.8987,10.1748 -4.7026,19 -1.1358,3.575 -3.3018,10.55 -4.8132,15.5 -1.5114,4.95 -3.3054,10.8 -3.9867,13 -0.6812,2.2 -2.7884,7.6 -4.6825,12 -1.8941,4.4 -5.1112,12.05 -7.149,17 -2.0378,4.95 -4.1289,9.9 -4.6469,11 -0.518,1.1 -2.2459,5.65216 -3.8398,10.1159 -1.961,5.49169 -4.5089,10.11497 -7.88,14.29841 -4.6567,5.77893 -5.0936,6.81582 -6.6923,15.8841 -1.8091,10.26222 -5.2989,20.1028 -9.1321,25.75131 -2.1279,3.13569 -3.9588,8.33143 -5.0577,14.35331 -0.2412,1.32167 -1.0559,5.04946 -1.8105,8.28399 -0.9971,4.27423 -1.1263,7.57924 -0.4728,12.09697 1.3598,9.40057 1.0898,15.47335 -1.0445,23.49734 -1.0653,4.00473 -2.1387,7.60788 -2.3853,8.00698 -0.2467,0.39911 -1.6289,5.22252 -3.0716,10.71867 -1.4428,5.49616 -4.154,14.04302 -6.0249,18.99302 -2.5275,6.68693 -3.6981,11.90487 -4.5549,20.30265 -0.6341,6.21645 -0.9329,11.87617 -0.664,12.57714 0.269,0.70097 3.7166,5.85305 7.6613,11.44907 7.2881,10.33887 11.6722,17.96485 21.6568,37.67114 3.0653,6.05 9.6893,17.40489 14.7199,25.2331 12.4447,19.36533 12.7695,19.8868 24.2748,38.96881 5.5705,9.23897 11.1396,18.82307 12.3757,21.29807 2.1036,4.2119 18.2241,27.5891 23.9287,34.7005 1.412,1.7602 3.4673,4.4526 4.5673,5.983 1.1,1.5303 5.6,6.4157 10,10.8564 17.6744,17.8378 29.6662,30.6272 29.1765,31.117 -0.2843,0.2843 0.1601,2.797 0.9877,5.5838 1.1678,3.9325 1.3458,7.5508 0.7953,16.163 -1.0018,15.6718 -0.7055,44.126 0.5945,57.0963 0.6064,6.05 1.4475,19.6447 1.869,30.2105 0.4216,10.5658 1.2276,19.7908 1.791,20.5 0.5635,0.7092 1.2717,3.3145 1.5739,5.7895 0.3022,2.475 1.2323,9 2.0668,14.5 0.8346,5.5 1.7933,13.375 2.1305,17.5 0.6,7.3412 1.2517,11.6318 3.5331,23.2613 0.6216,3.1688 1.3146,7.2183 1.54,8.999 0.2253,1.7807 0.8707,5.4881 1.4341,8.2387 0.5634,2.7505 1.9039,9.951 2.9789,16.001 1.075,6.05 2.2002,12.35 2.5004,14 1.8405,10.1137 3.8096,21.1082 5.1045,28.5 0.819,4.675 2.1561,11.2 2.9714,14.5 0.8152,3.3 1.6852,7.125 1.9332,8.5 0.248,1.375 0.898,4.3 1.4443,6.5 1.0283,4.1406 5.2658,23.0188 5.6759,25.2859 0.1279,0.7072 0.7253,3.4072 1.3275,6 7.7656,33.4322 9.5238,37.4397 30.5849,69.7141 1.7946,2.75 5.6825,7.288 8.6398,10.0844 l 5.3769,5.0844 8.527,0.6555 c 10.5245,0.8089 17.3295,3.0361 19.9234,6.5203 3.3291,4.4721 6.3553,7.2142 10.1229,9.1731 2.6166,1.3603 4.1807,3.2153 5.7113,6.7733 1.1594,2.6949 2.753,5.4353 3.5415,6.0896 3.179,2.6384 20.7544,10.5428 30.2805,13.6185 5.5752,1.8 13.289,4.9293 17.1418,6.9538 6.9551,3.6548 7.054,3.6738 13.8633,2.665 10.0127,-1.4836 19.6272,-3.1687 20.2851,-3.5554 0.3152,-0.1853 4.5563,0.2579 9.4247,0.9847 9.2643,1.3832 12.9282,3.1869 19.4742,9.5867 3.059,2.9908 3.1742,3.4032 3.1742,11.3646 v 8.2612 l -5.75,4.3657 c -9.6595,7.334 -11.5314,8.592 -17.75,11.9288 -3.3,1.7708 -6.2371,3.5847 -6.527,4.0309 -0.2898,0.4462 -3.5519,2.2268 -7.2489,3.9568 -3.6971,1.7301 -6.9526,3.5188 -7.2345,3.9749 -0.2819,0.4561 -1.9699,1.1462 -3.7511,1.5334 -1.7812,0.3872 -6.1351,2.4469 -9.6754,4.5769 -3.5402,2.1301 -7.0427,3.8729 -7.7832,3.8729 -0.7405,0 -3.4968,1.0897 -6.1251,2.4216 -7.1366,3.6164 -24.3954,7.5761 -33.0265,7.5773 -8.5957,0 -27.5978,-2.6396 -30.5754,-4.2493 -1.1753,-0.6353 -6.2582,-1.0406 -11.8896,-0.948 -9.8137,0.1613 -9.8621,0.1746 -20.6591,5.6519 -10.7093,5.4329 -15.4295,6.7962 -29.5042,8.5215 -3.85,0.472 -9.025,1.3346 -11.5,1.9171 -6.6453,1.5639 -14.0964,1.3051 -17.1605,-0.596 z M 697.05052,699.05762 c -0.59635,-3.28868 -1.24017,-3.90358 -2.29691,-2.19373 -0.47457,0.76788 -0.3933,2.65621 0.1858,4.31741 1.22373,3.51041 2.83825,1.88627 2.11111,-2.12368 z"
       style="fill:#000000" />
  </g>
</svg>
