<?xml version="1.0" encoding="UTF-8" standalone="no"?>
<svg
   xmlns:dc="http://purl.org/dc/elements/1.1/"
   xmlns:cc="http://creativecommons.org/ns#"
   xmlns:rdf="http://www.w3.org/1999/02/22-rdf-syntax-ns#"
   xmlns:svg="http://www.w3.org/2000/svg"
   xmlns="http://www.w3.org/2000/svg"
   xmlns:sodipodi="http://sodipodi.sourceforge.net/DTD/sodipodi-0.dtd"
   xmlns:inkscape="http://www.inkscape.org/namespaces/inkscape"
   inkscape:version="1.0 (4035a4fb49, 2020-05-01)"
   sodipodi:docname="пауэрлифтинг.svg"
   viewBox="0 0 505.5419 441.64495"
   height="441.64496"
   width="505.5419"
   id="svg210"
   version="1.1">
  <metadata
     id="metadata216">
    <rdf:RDF>
      <cc:Work
         rdf:about="">
        <dc:format>image/svg+xml</dc:format>
        <dc:type
           rdf:resource="http://purl.org/dc/dcmitype/StillImage" />
        <dc:title></dc:title>
      </cc:Work>
    </rdf:RDF>
  </metadata>
  <defs
     id="defs214" />
  <sodipodi:namedview
     inkscape:current-layer="g218"
     inkscape:window-maximized="1"
     inkscape:window-y="-6"
     inkscape:window-x="-6"
     inkscape:cy="301.77635"
     inkscape:cx="487.52824"
     inkscape:zoom="0.95043105"
     showgrid="false"
     id="namedview212"
     inkscape:window-height="1018"
     inkscape:window-width="1920"
     inkscape:pageshadow="2"
     inkscape:pageopacity="0"
     guidetolerance="10"
     gridtolerance="10"
     objecttolerance="10"
     borderopacity="1"
     bordercolor="#666666"
     pagecolor="#ffffff"
     inkscape:document-rotation="0" />
  <g
     transform="translate(459.71874,-20.250728)"
     id="g218"
     inkscape:label="Image"
     inkscape:groupmode="layer">
    <path
       style="fill:#000000;stroke-width:2.53968"
       d="m -195.07088,448.56235 c -0.88083,-7.33334 -1.61145,-20.23609 -1.62359,-28.67276 -0.0127,-8.4367 -1.82982,-22.15099 -4.03931,-30.47619 -2.50063,-9.42223 -3.47924,-19.90507 -2.59218,-27.76716 1.10898,-9.82916 0.0516,-16.06367 -4.76792,-28.11035 -3.40612,-8.51398 -6.90384,-20.54459 -7.77269,-26.73468 -0.86886,-6.1901 -2.83405,-14.55589 -4.3671,-18.59063 -2.66863,-7.02347 -3.16036,-6.21216 -11.54489,19.04762 -7.07741,21.32183 -8.70125,30.01003 -8.46411,45.28632 0.19391,12.49079 -0.92984,20.76975 -3.31282,24.40665 -6.74289,10.29098 -11.97525,33.75988 -11.12775,49.9118 l 0.82384,15.701 -8.88889,2.28904 c -4.88889,1.25898 -13.10383,4.03597 -18.25543,6.17113 -11.53157,4.7794 -22.37949,2.6784 -22.37949,-4.33445 0,-2.89664 4.64066,-8.40828 11.1856,-13.28496 13.25011,-9.87273 14.01759,-12.46151 16.39998,-55.31857 0.9706,-17.46032 2.83983,-33.46032 4.15385,-35.55556 2.88081,-4.59352 1.82733,-33.10148 -1.36538,-36.94846 -1.24739,-1.50301 -3.04625,-13.80447 -3.99746,-27.33659 -1.64887,-23.45712 -2.00094,-24.60383 -7.55394,-24.60383 -3.20346,0 -6.53079,1.14285 -7.39408,2.53968 -2.03792,3.29742 -15.73986,3.29742 -17.77778,0 -1.7058,-2.76005 -26.95103,-3.41503 -36.19047,-0.93896 -4.26975,1.14425 -5.71429,3.40389 -5.71429,8.93864 0,9.47793 -10.90215,31.08908 -18.29607,36.26798 -4.10758,2.87705 -11.81213,3.98631 -27.68779,3.98631 h -21.99652 l -9.13627,-10.11276 c -5.30543,-5.87249 -10.34776,-14.92404 -12.02559,-21.5873 -1.58913,-6.311 -3.82211,-11.47455 -4.96218,-11.47455 -1.14007,0 -5.12861,-1.16179 -8.86343,-2.58177 -5.49842,-2.09049 -6.21969,-3.26965 -3.79042,-6.19674 1.65008,-1.98823 5.41903,-3.96929 8.37543,-4.40235 4.06845,-0.59596 6.12519,-3.73784 8.45978,-12.92324 6.35964,-25.02179 16.37396,-32.99473 43.79468,-34.86732 27.37159,-1.86924 37.89326,6.0051 44.35138,33.1923 l 2.97904,12.54103 h 18.0446 18.0446 l 2.94168,-9.81846 c 1.61793,-5.40016 2.94169,-15.42489 2.94169,-22.27719 0,-13.19434 5.46841,-34.22372 16.28429,-62.62305 3.61507,-9.49211 6.57285,-21.03739 6.57285,-25.65617 0,-12.71094 9.52566,-24.97379 22.91592,-29.500794 6.25339,-2.114154 12.79837,-4.753031 14.5444,-5.86417 4.40039,-2.800315 3.96652,-10.84929 -0.9928,-18.418174 -6.61904,-10.10194 -3.22395,-38.555734 5.50773,-46.159447 18.59155,-16.1898806 45.99618,6.511172 37.20593,30.820128 -6.38365,17.653691 -4.39031,20.834186 20.85636,33.277528 13.81034,6.80671 16.30324,9.25011 22.65343,22.203689 4.73311,9.6549 8.07785,22.05308 9.93461,36.82539 2.85823,22.73982 3.04406,31.06134 1.55596,69.67718 -0.46652,12.10565 -0.27678,22.55025 0.42164,23.21022 0.69841,0.65997 15.47614,1.61249 32.83939,2.11671 l 31.56957,0.91677 3.15414,-18.68109 c 3.7876,-22.433 7.76193,-32.74052 13.8881,-36.01914 7.43756,-3.98046 41.0624,-3.00343 47.31317,1.37477 6.40048,4.48308 9.96907,14.63555 12.3742501,35.20427 l 1.74171,14.89467 12.07657,-1.1604 c 6.6421399,-0.63823 18.7797899,0.17808 26.9725499,1.81399 13.24714,2.64518 14.89595,3.65498 14.89595,9.12288 0,4.68735 -1.50883,6.30699 -6.34921,6.81554 -3.49206,0.36689 -10.79517,1.88935 -16.2291,3.38324 -7.46888,2.05332 -10.34492,1.96377 -11.7854,-0.36698 -1.25222,-2.02612 -4.9505799,-2.51187 -10.78752989,-1.41685 -8.61542001,1.61626 -8.93580001,2.09627 -10.67144001,15.98783 -0.9841301,7.87683 -4.2552101,19.41745 -7.2690601,25.64582 l -5.47969,11.32427 -25.39683,-1.72943 c -13.96825,-0.95118 -26.42164,-2.74435 -27.67418,-3.98481 -2.75721,-2.73059 -8.928,-33.52845 -9.05786,-45.20692 l -0.0934,-8.39515 -32.38095,1.09206 c -17.80952,0.60064 -36.1057,1.93828 -40.65818,2.97254 -5.10974,1.16086 -9.58601,0.79429 -11.69727,-0.95791 -2.83,-2.34868 -3.72854,3.90644 -5.20805,36.25508 -1.48849,32.54468 -1.0893,41.49699 2.38301,53.44134 3.83433,13.18959 3.8466,15.94905 0.15187,34.18283 -5.29544,26.1341 -4.9969,42.32483 1.02504,55.59271 7.62903,16.80861 2.32208,25.95769 -15.05681,25.95769 -6.6174,0 -7.15746,-0.83157 -8.6591,-13.33333 z M -267.99987,230.3077 c 6.58008,-14.49563 6.86351,-16.36134 3.6529,-24.04542 -1.91438,-4.58174 -3.49818,-16.65286 -3.51957,-26.8247 -0.0436,-20.73735 -2.41341,-19.91426 -8.90526,3.09303 -2.16774,7.68254 -6.88604,19.95517 -10.48511,27.27253 -5.17762,10.52673 -6.17037,15.29459 -4.75526,22.8378 2.34712,12.51119 3.03167,13.38173 10.52278,13.38173 5.32812,0 7.50952,-2.54128 13.48952,-15.71497 z m 95.48892,-11.58662 c -1.03584,-13.61904 -1.81737,-29.90476 -1.73674,-36.19047 0.13816,-10.76624 -5.32599,-23.06878 -8.73275,-19.66202 -2.05359,2.05357 -1.82275,7.9933 1.60292,41.24932 3.64828,35.4168 4.44191,39.36508 7.91256,39.36508 2.02479,0 2.29798,-7.09141 0.95401,-24.76191 z"
       id="path144" />
  </g>
</svg>
