<?xml version="1.0" encoding="UTF-8" standalone="no"?>
<svg
   xmlns:dc="http://purl.org/dc/elements/1.1/"
   xmlns:cc="http://creativecommons.org/ns#"
   xmlns:rdf="http://www.w3.org/1999/02/22-rdf-syntax-ns#"
   xmlns:svg="http://www.w3.org/2000/svg"
   xmlns="http://www.w3.org/2000/svg"
   xmlns:sodipodi="http://sodipodi.sourceforge.net/DTD/sodipodi-0.dtd"
   xmlns:inkscape="http://www.inkscape.org/namespaces/inkscape"
   version="1.1"
   id="svg428"
   width="429.33771"
   height="410.71152"
   viewBox="0 0 429.33771 410.71152"
   sodipodi:docname="копье.svg"
   inkscape:version="1.0 (4035a4fb49, 2020-05-01)">
  <metadata
     id="metadata434">
    <rdf:RDF>
      <cc:Work
         rdf:about="">
        <dc:format>image/svg+xml</dc:format>
        <dc:type
           rdf:resource="http://purl.org/dc/dcmitype/StillImage" />
        <dc:title></dc:title>
      </cc:Work>
    </rdf:RDF>
  </metadata>
  <defs
     id="defs432" />
  <sodipodi:namedview
     inkscape:document-rotation="0"
     pagecolor="#ffffff"
     bordercolor="#666666"
     borderopacity="1"
     objecttolerance="10"
     gridtolerance="10"
     guidetolerance="10"
     inkscape:pageopacity="0"
     inkscape:pageshadow="2"
     inkscape:window-width="1920"
     inkscape:window-height="1018"
     id="namedview430"
     showgrid="false"
     inkscape:zoom="1.6601562"
     inkscape:cx="217.26823"
     inkscape:cy="222.57601"
     inkscape:window-x="-6"
     inkscape:window-y="-6"
     inkscape:window-maximized="1"
     inkscape:current-layer="g436" />
  <g
     transform="translate(-38.731769,-33.423995)"
     inkscape:groupmode="layer"
     inkscape:label="Image"
     id="g436">
    <path
       id="path116"
       d="m 415.85519,442.73515 c -0.66607,-0.91941 -1.50778,-4.17687 -1.87049,-7.2388 -0.50168,-4.23525 -1.29417,-6.31736 -3.31256,-8.70301 -1.45921,-1.72474 -3.1109,-4.7029 -3.67041,-6.61814 -0.94222,-3.22517 -3.09479,-7.27 -14.2416,-26.76079 -2.88543,-5.04531 -5.18924,-7.87854 -7.50862,-9.23408 -8.81672,-5.15289 -16.78839,-19.19669 -20.23388,-35.64632 -3.01959,-14.41624 -7.89611,-19.60789 -21.88309,-23.29723 -9.08616,-2.39665 -19.13333,-8.06595 -36.93866,-20.84332 -9.26188,-6.64646 -12.07403,-8.19946 -14.83931,-8.19494 -6.29487,0.0103 -9.58835,1.74993 -14.15867,7.47871 -6.15958,7.7209 -15.66303,25.23214 -19.14289,35.27305 -4.91139,14.17153 -11.97435,24.22654 -17.02619,24.23892 -0.83883,0.002 -3.98126,2.08991 -6.98321,4.63967 -7.08182,6.01511 -13.33968,9.3421 -17.59479,9.3543 -2.23727,0.006 -5.23541,1.177 -8.729,3.40814 -2.92671,1.8691 -10.6038,5.51082 -17.06021,8.09271 -22.67832,9.06895 -24.79768,10.4057 -26.24233,16.55188 -0.74167,3.15539 -1.83508,4.61332 -5.47744,7.30351 -5.89051,4.35062 -7.06024,6.00884 -8.92599,12.65353 -2.11224,7.5226 -4.28936,10.74779 -8.14945,12.0727 -7.62116,2.61582 -13.04241,-4.24262 -12.03982,-15.23159 0.69332,-7.59908 2.43322,-12.19133 6.56432,-17.32561 1.85049,-2.29985 5.18811,-8.22643 7.41692,-13.17017 6.61052,-14.66284 11.48981,-18.03574 17.13216,-11.84292 3.08427,3.38518 4.37866,2.97257 10.87198,-3.46565 8.04446,-7.97621 23.81477,-21.03416 27.90914,-23.10901 2.26592,-1.14826 6.34898,-2.3396 9.07349,-2.64743 5.96527,-0.67397 10.76063,-3.25343 13.02764,-7.00768 0.92084,-1.52495 3.06922,-7.72264 4.77418,-13.77264 1.70496,-6.05 6.10188,-19.775 9.77092,-30.5 6.84856,-20.01895 12.73336,-42.79506 12.73336,-49.2822 0,-3.45992 -0.2654,-3.80304 -4.87308,-6.30022 -5.08932,-2.7582 -8.21116,-7.01036 -8.21716,-11.19233 -0.002,-1.50432 -0.74236,-2.59668 -2.18551,-3.22525 -2.03368,-0.88578 -2.18225,-1.4154 -2.18225,-7.7789 0,-7.57334 -2.49386,-14.85921 -6.59804,-19.27629 -2.15378,-2.318 -2.30041,-2.33989 -4.57847,-0.68359 -1.2944,0.94111 -4.90667,3.17983 -8.0273,4.97494 -5.52169,3.17632 -5.98986,3.26705 -17.458,3.38341 -6.48128,0.0658 -14.61952,0.46733 -18.08496,0.89238 -4.45659,0.5466 -9.74404,0.25906 -18.06448,-0.98239 -12.90783,-1.92592 -12.32779,-2.01552 -24.31799,3.75673 -5.70413,2.74605 -5.95797,3.09294 -61.991613,84.71371 -29.128807,42.43015 -33.790068,48.4771 -33.790068,43.83509 0,-1.29617 19.226734,-30.81384 60.082793,-92.24156 16.529098,-24.85177 27.207218,-41.7654 27.207218,-43.09497 0,-2.42284 6.46682,-14.49856 7.76432,-14.49856 0.45055,0 0.96556,0.50304 1.14446,1.11787 0.17889,0.61482 17.18425,-22.89768 37.78969,-52.25 62.61721,-89.197849 73.7752,-104.831867 76.02217,-106.518516 2.66086,-1.997314 3.46932,-1.27534 2.03243,1.815001 -0.59729,1.284605 -24.43141,37.355079 -52.96472,80.156605 -28.5333,42.80153 -51.6917,78.03522 -51.46313,78.29709 0.91709,1.05062 30.44813,0.36412 32.31371,-0.75119 1.05454,-0.63043 3.72735,-3.06663 5.93961,-5.41377 4.49079,-4.76458 7.79331,-6.85398 17.36376,-10.98556 5.72806,-2.47281 7.63926,-4.02308 15.28312,-12.39688 4.80499,-5.26386 10.78089,-11.14565 13.27975,-13.07065 2.49886,-1.925 4.7471,-4.07817 4.99609,-4.78482 0.24897,-0.70665 0.0183,-3.60498 -0.51252,-6.44073 -0.73932,-3.94921 -1.93495,-6.33998 -5.10865,-10.21518 -2.27889,-2.7826 -4.73706,-6.40927 -5.4626,-8.05927 -2.01917,-4.59199 -2.67728,-11.00221 -1.53619,-14.96318 2.09907,-7.28636 14.09676,-15.290798 21.29028,-14.204138 4.18105,0.6316 12.61769,7.116028 13.79825,10.605388 0.47674,1.40906 0.73353,7.06193 0.57066,12.56193 l -0.29613,10 3.35098,0.31567 c 3.13871,0.29566 3.687,-0.10156 8.65506,-6.2706 7.31483,-9.08308 9.61462,-10.54507 16.58804,-10.54507 3.13094,0 8.87338,0.69124 12.76098,1.53608 6.92769,1.50551 7.2119,1.4871 14.28105,-0.92532 3.96699,-1.35378 8.97392,-2.77734 11.12655,-3.16347 2.15262,-0.38614 5.1198,-1.75582 6.59373,-3.04374 3.47621,-3.0375 8.46883,-5.403548 11.40208,-5.403548 2.81988,0 7.93716,3.456468 8.58633,5.799648 0.64754,2.33727 0.29535,3.74987 -0.85918,3.44614 -0.59512,-0.15656 -0.82542,0.84529 -0.59957,2.60817 0.42755,3.33723 -2.12178,9.58235 -5.29746,12.97722 -1.60149,1.71203 -3.81054,2.56564 -8.31735,3.21393 -3.37518,0.48551 -8.61879,2.03824 -11.65247,3.4505 -5.07449,2.36232 -8.11541,3.1006 -21.64086,5.25399 -5.98045,0.95214 -6.98103,2.85132 -6.98099,13.2504 4e-5,9.21372 0.79361,13.12402 9.15057,45.08905 l 6.64344,25.41095 -0.12291,12 c -0.0676,6.6 -0.0918,12.95114 -0.0538,14.11364 0.11605,3.54868 4.3876,7.34181 15.34487,13.62621 20.69211,11.8677 26.26265,17.15786 37.8529,35.94767 3.95321,6.40887 8.89688,13.25699 10.98591,15.21804 2.91796,2.7392 4.44988,5.36503 6.60997,11.33 3.98822,11.01318 6.47091,16.42201 11.0491,24.07175 2.20297,3.68098 7.61922,15.11221 12.03612,25.40274 7.9721,18.57356 8.04484,18.69869 9.97152,17.15269 1.61868,-1.29885 2.37204,-1.35274 4.53853,-0.32469 3.40875,1.61754 6.03012,5.54098 6.03012,9.02538 0,4.91816 1.84605,5.93657 10.76113,5.93657 9.47889,0 13.13366,-1.02611 16.39181,-4.60212 4.08902,-4.48796 13.03881,-5.05291 14.42631,-0.91065 0.27952,0.83448 0.24825,2.70386 -0.0695,4.15418 -0.73265,3.34418 -19.30102,25.19173 -26.23402,30.86696 -11.59035,9.48767 -22.91507,13.90565 -25.71997,10.03384 z"
       style="fill:#000000;stroke-width:0.934291" />
  </g>
</svg>
