<?xml version="1.0" encoding="UTF-8" standalone="no"?>
<svg
   xmlns:dc="http://purl.org/dc/elements/1.1/"
   xmlns:cc="http://creativecommons.org/ns#"
   xmlns:rdf="http://www.w3.org/1999/02/22-rdf-syntax-ns#"
   xmlns:svg="http://www.w3.org/2000/svg"
   xmlns="http://www.w3.org/2000/svg"
   xmlns:sodipodi="http://sodipodi.sourceforge.net/DTD/sodipodi-0.dtd"
   xmlns:inkscape="http://www.inkscape.org/namespaces/inkscape"
   inkscape:version="1.0 (4035a4fb49, 2020-05-01)"
   sodipodi:docname="дзюдо.svg"
   id="svg810"
   viewBox="0 0 19.750184 43.55564"
   style="clip-rule:evenodd;fill-rule:evenodd;image-rendering:optimizeQuality;shape-rendering:geometricPrecision;text-rendering:geometricPrecision"
   version="1.1"
   height="34.531181mm"
   width="15.660276mm"
   xml:space="preserve"><metadata
   id="metadata814"><rdf:RDF><cc:Work
       rdf:about=""><dc:format>image/svg+xml</dc:format><dc:type
         rdf:resource="http://purl.org/dc/dcmitype/StillImage" /><dc:title></dc:title></cc:Work></rdf:RDF></metadata><sodipodi:namedview
   inkscape:current-layer="svg810"
   inkscape:window-maximized="1"
   inkscape:window-y="-6"
   inkscape:window-x="-6"
   inkscape:cy="67.919943"
   inkscape:cx="47.238969"
   inkscape:zoom="3.2030773"
   showgrid="false"
   id="namedview812"
   inkscape:window-height="1018"
   inkscape:window-width="1920"
   inkscape:pageshadow="2"
   inkscape:pageopacity="0"
   guidetolerance="10"
   gridtolerance="10"
   objecttolerance="10"
   borderopacity="1"
   bordercolor="#666666"
   pagecolor="#ffffff"
   inkscape:document-rotation="0" />
 <defs
   id="defs804">
  <style
   id="style802"
   type="text/css">
   <![CDATA[
    .fil0 {fill:#2B2A29}
   ]]>
  </style>
 </defs>
 
<path
   id="path8"
   d="m 3.82407,43.372824 c -0.707476,-0.345578 -0.696069,-0.656849 0.04812,-1.313108 0.637647,-0.562305 0.983454,-0.977048 0.983454,-1.179498 0,-0.07245 -0.140246,-0.193293 -0.311658,-0.268537 -0.171412,-0.07524 -0.41999,-0.24928 -0.552396,-0.386746 -0.132406,-0.137466 -0.281796,-0.249939 -0.331976,-0.249939 -0.143089,0 -0.108597,-1.091235 0.09441,-2.986989 0.203443,-1.899797 0.20803,-1.931039 0.47316,-3.222157 0.143557,-0.699086 0.200365,-1.484364 0.261509,-3.614914 0.06972,-2.429206 0.178997,-3.907873 0.46203,-6.251674 0.114955,-0.951952 0.116558,-0.935625 -0.09188,-0.935625 -0.217325,0 -0.771831,0.434386 -0.989366,0.775045 -0.08627,0.1351 -0.189312,0.245637 -0.22898,0.245637 -0.141281,0 -0.06892,-0.953606 0.127276,-1.677226 0.232043,-0.855848 0.963803,-2.244066 1.817471,-3.447914 0.56022,-0.790027 0.597727,-0.824121 0.783041,-0.711798 0.10705,0.06488 0.648373,0.299693 1.20294,0.521795 0.554567,0.222102 1.019398,0.41233 1.032956,0.422728 0.01356,0.0104 -0.141783,0.125602 -0.345205,0.256009 -0.203422,0.130406 -0.457565,0.36838 -0.564764,0.528831 l -0.194905,0.291729 0.119485,4.832166 0.119485,4.832167 0.282705,-0.0742 C 8.176469,29.717796 8.422456,29.63929 8.56762,29.584145 L 8.831554,29.483883 8.768984,28.031217 C 8.734574,27.232251 8.64592,25.679075 8.571978,24.579716 8.257361,19.901995 8.262409,19.815312 8.869729,19.468099 c 0.282365,-0.161433 0.344748,-0.168238 0.60983,-0.06652 0.162408,0.06232 0.529802,0.10838 0.816431,0.10236 0.436471,-0.0092 0.554003,0.02141 0.7234,0.188212 0.362763,0.357204 0.54637,1.217325 0.643881,3.016319 0.04945,0.912234 0.151641,2.452084 0.2271,3.421889 0.07546,0.969804 0.137197,2.012813 0.137197,2.317798 0,0.304984 0.02193,0.554516 0.04875,0.554516 0.02681,0 0.29451,-0.09569 0.59489,-0.212642 0.30038,-0.116954 0.60552,-0.212642 0.678088,-0.212642 0.148744,0 0.153953,0.07976 -0.13053,-1.998835 -0.352863,-2.578226 -1.054033,-6.086043 -1.37056,-6.856642 -0.101233,-0.246456 -0.174698,-0.451631 -0.163255,-0.455944 0.01144,-0.0043 0.632452,-0.250951 1.380021,-0.548088 0.747569,-0.297137 1.370579,-0.525544 1.384468,-0.50757 0.01389,0.01797 0.157748,0.191737 0.319687,0.386143 0.362786,0.435522 0.697001,1.239205 0.883172,2.123754 0.69919,3.322053 0.712615,3.434228 0.41101,3.434228 -0.165498,0 -0.184593,0.03417 -0.130503,0.233531 0.233988,0.862412 0.470668,3.156736 0.598891,5.805502 0.07125,1.471883 0.117316,1.79585 0.409181,2.877687 0.519649,1.92614 0.733442,3.200535 0.925101,5.514405 l 0.05752,0.694452 -0.511346,0.105858 -0.511347,0.105859 0.002,0.475541 c 0.0023,0.551476 0.214514,1.039778 0.723372,1.664795 0.848139,1.04175 0.92534,1.424444 0.352528,1.747527 -0.418277,0.23592 -1.464347,0.234434 -1.884755,-0.0027 -0.347499,-0.195992 -0.516434,-0.532532 -0.441645,-0.879816 0.02869,-0.133236 -0.01486,-0.640387 -0.09679,-1.127003 l -0.148965,-0.884753 -0.379243,-0.0013 c -0.43106,-0.0014 -1.358933,-0.186705 -2.025177,-0.404384 l -0.450612,-0.147228 0.06446,-3.27847 c 0.04321,-2.197596 0.03258,-3.41007 -0.03224,-3.677638 -0.05319,-0.219542 -0.30064,-0.791973 -0.549898,-1.272069 -0.490765,-0.945263 -0.807809,-1.934753 -1.11091,-3.467131 -0.239649,-1.211576 -0.261275,-1.277924 -0.360421,-1.105738 -0.04041,0.07017 -0.09853,0.280687 -0.129163,0.467812 -0.100226,0.612223 -0.434179,1.421941 -1.210263,2.93446 -0.420066,0.818672 -0.896481,1.841001 -1.0587,2.271843 l -0.294944,0.783349 0.145578,0.747673 c 0.08007,0.41122 0.187204,1.149567 0.23808,1.64077 0.10403,1.004413 0.297752,4.095067 0.258929,4.130981 -0.08604,0.07959 -1.614849,0.547143 -1.789067,0.547143 -0.195942,0 -0.21227,0.03591 -0.21227,0.466789 0,0.402428 -0.06275,0.569545 -0.45511,1.212059 -0.2503,0.409956 -0.517323,0.850586 -0.593374,0.979235 -0.128648,0.217621 -0.178582,0.233644 -0.717225,0.230146 -0.391578,-0.0025 -0.689624,-0.05782 -0.920915,-0.170798 z M 17.874667,21.663669 c -0.197661,-0.150471 -0.528673,-0.350134 -0.735583,-0.443696 -0.352162,-0.159245 -0.377978,-0.195645 -0.404028,-0.569696 -0.03543,-0.508675 0.174901,-0.895477 0.569955,-1.04817 0.616975,-0.238468 0.617708,-0.37087 0.01034,-1.869463 -0.17064,-0.421031 -0.334223,-0.836836 -0.363516,-0.92401 -0.03653,-0.108714 -0.111168,-0.144492 -0.237613,-0.113904 -0.13314,0.03221 -0.249649,-0.0346 -0.419417,-0.240495 -0.291322,-0.353319 -0.589318,-1.062736 -0.589318,-1.402947 0,-0.140476 -0.03863,-0.321875 -0.08585,-0.403107 -0.04722,-0.08123 -0.132311,-0.335918 -0.189098,-0.565966 -0.05679,-0.23005 -0.169973,-0.555392 -0.251522,-0.722983 l -0.148271,-0.304712 -0.06834,0.425284 c -0.03759,0.233906 -0.07197,0.965926 -0.07639,1.626711 -0.0095,1.413689 -0.04293,1.607132 -0.336439,1.945675 -0.199285,0.22986 -0.269212,0.253763 -0.704991,0.240988 -0.285949,-0.0084 -0.540162,0.03104 -0.621686,0.09641 -0.505031,0.404958 -1.75881,0.740359 -2.753746,0.736659 -0.744703,-0.0028 -1.479879,-0.159248 -3.034045,-0.64578 -0.528293,-0.165381 -1.031357,-0.300693 -1.11792,-0.300693 -0.22437,0 -0.534888,-0.888118 -0.632811,-1.809916 -0.07764,-0.730892 -0.282832,-1.239738 -0.530742,-1.316182 -0.07239,-0.02232 -0.115566,0.05291 -0.118127,0.205815 -0.0062,0.372338 -0.202842,0.796546 -0.580831,1.253227 -0.189755,0.229259 -0.428339,0.567933 -0.530186,0.752609 -0.174338,0.316119 -0.206166,0.333922 -0.543755,0.30414 -0.33059,-0.02916 -0.363072,-0.0127 -0.416162,0.210899 -0.03167,0.133392 -0.246794,0.497913 -0.478052,0.810046 -0.628862,0.848789 -0.867396,1.715782 -0.472061,1.715782 0.281212,0 0.818335,0.529077 0.818335,0.806076 0,0.29152 -0.457887,0.724946 -0.765858,0.724946 -0.168643,0 -0.314642,0.111154 -0.558607,0.425284 -0.199673,0.257101 -0.400247,0.425284 -0.50719,0.425284 -0.25610204,0 -0.96773304,-0.528492 -1.00153203523,-0.743786 C -0.01622004,20.843171 0.10424196,20.385574 0.26729796,19.927114 c 0.281343,-0.791041 0.299395,-0.920341 0.353887,-2.534698 0.05083,-1.505975 0.08078,-1.748727 0.261012,-2.115968 0.111976,-0.228158 0.20359204,-0.459411 0.20359204,-0.513896 0,-0.05448 -0.18619404,-0.268104 -0.41376504,-0.474709 -0.227571,-0.206606 -0.413765,-0.419702 -0.413765,-0.473547 0,-0.183175 0.77208704,-0.910158 1.09927904,-1.03506 0.494983,-0.188954 0.647599,-0.352382 0.648821,-0.694789 0.0023,-0.641375 0.359445,-1.529825 0.730567,-1.817334 C 2.843871,10.184259 3.161924,9.7858737 3.443706,9.3818131 4.028245,8.5436116 4.632339,7.9155563 5.204312,7.5513706 5.421366,7.4131688 6.124767,7.1318049 6.767425,6.9261175 7.681568,6.6335396 7.975921,6.5007625 8.11979,6.3160918 8.220933,6.186265 8.43816,5.9581774 8.602516,5.8092303 9.019867,5.4310101 8.999495,5.1275714 8.497115,4.2392283 L 8.092882,3.5244374 8.165392,2.633202 C 8.270797,1.3377613 8.706183,0.56426618 9.555595,0.16340466 c 1.189474,-0.5613461 2.449567,0.37409104 2.73834,2.03282294 0.05154,0.2960615 0.07059,0.645238 0.04233,0.7759476 -0.0287,0.1327344 -0.0067,0.2631996 0.04983,0.2955178 0.166329,0.095093 0.114839,0.4353338 -0.0921,0.6085742 -0.320771,0.2685374 -0.450325,0.5948377 -0.450325,1.1342013 0,0.4433107 0.02903,0.5302013 0.214773,0.6427823 0.118126,0.071598 0.347973,0.3017545 0.510772,0.5114586 0.368304,0.4744174 0.802914,0.7103152 2.032889,1.1034108 1.107118,0.3538309 1.402285,0.5708011 2.118183,1.5570226 0.704085,0.9699494 1.009088,1.6431902 1.248466,2.7557722 0.241622,1.123021 0.376845,1.413548 1.002584,2.15406 0.376563,0.445632 0.779844,1.057612 0.779844,1.183415 0,0.02306 -0.144817,0.105497 -0.321817,0.183194 l -0.321817,0.141267 v 2.622883 c 0,1.540687 0.04056,2.797849 0.09831,3.046944 0.116104,0.5008 0.03,0.709358 -0.372315,0.901812 -0.385119,0.184227 -0.553563,0.157733 -0.958884,-0.150821 z"
   style="fill:#000000;stroke-width:0.0884352" /></svg>
