<?xml version="1.0" encoding="UTF-8" standalone="no"?>
<svg
   xmlns:dc="http://purl.org/dc/elements/1.1/"
   xmlns:cc="http://creativecommons.org/ns#"
   xmlns:rdf="http://www.w3.org/1999/02/22-rdf-syntax-ns#"
   xmlns:svg="http://www.w3.org/2000/svg"
   xmlns="http://www.w3.org/2000/svg"
   xmlns:sodipodi="http://sodipodi.sourceforge.net/DTD/sodipodi-0.dtd"
   xmlns:inkscape="http://www.inkscape.org/namespaces/inkscape"
   version="1.1"
   id="svg368"
   width="1279.1757"
   height="1257.6246"
   viewBox="0 0 1279.1757 1257.6246"
   sodipodi:docname="сумо.svg"
   inkscape:version="1.0 (4035a4fb49, 2020-05-01)">
  <metadata
     id="metadata374">
    <rdf:RDF>
      <cc:Work
         rdf:about="">
        <dc:format>image/svg+xml</dc:format>
        <dc:type
           rdf:resource="http://purl.org/dc/dcmitype/StillImage" />
        <dc:title></dc:title>
      </cc:Work>
    </rdf:RDF>
  </metadata>
  <defs
     id="defs372" />
  <sodipodi:namedview
     inkscape:document-rotation="0"
     pagecolor="#ffffff"
     bordercolor="#666666"
     borderopacity="1"
     objecttolerance="10"
     gridtolerance="10"
     guidetolerance="10"
     inkscape:pageopacity="0"
     inkscape:pageshadow="2"
     inkscape:window-width="1920"
     inkscape:window-height="1018"
     id="namedview370"
     showgrid="false"
     inkscape:zoom="0.67567568"
     inkscape:cx="186.87511"
     inkscape:cy="631.70446"
     inkscape:window-x="-6"
     inkscape:window-y="-6"
     inkscape:window-maximized="1"
     inkscape:current-layer="g376" />
  <g
     transform="translate(-453.12489,2.7044556)"
     inkscape:groupmode="layer"
     inkscape:label="Image"
     id="g376">
    <path
       id="path8"
       d="m 1366.88,1252.0004 c -29.3186,-2.7672 -29.6507,-2.7759 -54,-1.4083 -66.6965,3.7459 -78.2956,3.8047 -89.972,0.4559 -5.5904,-1.6033 -11.5754,-5.7474 -14.5982,-10.1082 -2.6841,-3.8721 -2.9298,-4.9466 -2.9298,-12.8132 0,-6.2704 0.9999,-13.0374 3.7069,-25.0866 7.3452,-32.6948 10.9722,-58.6084 12.8768,-92 1.5339,-26.8913 0.6104,-40.5864 -5.698,-84.5 l -5.4589,-38 1.1003,-18.5 c 1.0703,-17.99594 2.9965,-36.6739 6.5713,-63.72132 1.6549,-12.52046 1.6581,-14.73981 0.061,-41.86691 -0.9274,-15.75507 -1.9101,-29.00792 -2.1838,-29.45076 -0.2737,-0.44285 -3.4702,-1.79439 -7.1034,-3.00343 l -6.6057,-2.19826 -16.1334,16.73598 -16.1334,16.73597 4.1519,4.29956 c 7.3793,7.64163 7.0105,13.3139 -1.4775,22.72769 -17.2648,19.1478 -37.8558,44.73916 -58.5285,72.74148 -20.2304,27.4033 -21.503,29 -23.1131,29 -1.6174,0 -32.8576,-24.67964 -55.0328,-43.4757 C 986.2147,906.04345 930.61474,851.42369 889.2621,804.04 853.99235,763.62636 834.73062,738.41365 784.21634,666.54 710.54993,561.72461 674.08549,507.48175 676.01166,505.57959 c 0.20259,-0.20005 20.8347,-11.9094 45.84915,-26.02077 25.01444,-14.11137 46.03156,-26.11412 46.70471,-26.67278 0.67314,-0.55867 3.37729,-4.69007 6.00922,-9.1809 9.52617,-16.2544 16.65496,-20.92025 26.2423,-17.17576 7.2528,2.8327 20.06903,6.51062 22.68716,6.51062 3.57164,0 10.96605,-3.78778 18.46938,-9.46092 12.20344,-9.22683 14.4908,-11.78015 16.81807,-18.77358 2.82374,-8.48533 7.67614,-16.37 12.41174,-20.1678 3.36932,-2.70209 4.73508,-3.1124 11.5,-3.45484 4.22214,-0.21372 11.38059,0.16204 15.90769,0.83504 l 8.23107,1.22362 17.03235,-9.3446 c 10.12172,-5.55317 16.84769,-9.82578 16.57725,-10.53055 -0.25031,-0.65228 -19.49384,-25.54436 -42.76342,-55.31575 L 855.38,253.92083 l -20.5,0.56532 c -22.2075,0.6124 -47.48874,-0.58252 -61,-2.88317 -24.72053,-4.20933 -26.6752,-5.01864 -97,-40.16176 -57.21566,-28.59214 -69.07659,-33.57069 -96.5,-40.50522 -16.48082,-4.16749 -37.61483,-2.97124 -65.75163,3.72173 -12.7611,3.03551 -17.22301,2.66046 -22.39731,-1.88265 -6.03983,-5.30304 -8.96407,-12.88517 -15.24296,-39.52275 -3.89241,-16.51321 -6.82661,-26.70303 -8.84375,-30.71233 -4.23394,-8.415471 -11.70731,-25.981741 -13.76703,-32.359605 -1.50812,-4.669888 -1.58535,-6.494302 -0.60008,-14.17704 3.39258,-26.453864 12.83702,-46.450755 25.89642,-54.8309506 6.32254,-4.0571598 10.86864,-4.8755166 15.05582,-2.7102423 4.51558,2.33509882 7.28385,7.1864605 13.1686,23.0778379 13.06345,35.276942 19.44309,42.897145 44.98192,53.728879 13.04319,5.531984 25.51908,8.920842 47.1449,12.806089 9.85044,1.769707 18.17935,2.166367 62.8551,2.993435 62.1221,1.150047 77.47437,2.044285 94.5,5.50443 15.58091,3.166537 42.36622,10.828467 71,20.309537 11.55,3.82438 24.15,7.42358 28,7.99823 3.85,0.57465 18.53623,1.35942 32.63607,1.74395 l 25.63607,0.69913 10.86393,-4.56835 c 21.93636,-9.22437 46.40616,-16.60788 66.62986,-20.10488 7.20792,-1.24636 10.94037,-2.65712 20.99997,-7.937387 30.4084,-15.961239 36.5016,-19.038821 56.7341,-28.655487 51.006,-24.243547 89.066,-38.759101 118.1842,-45.073854 13.3526,-2.895736 27.9825,-3.360315 64.3158,-2.042379 87.05,3.157607 141.7311,9.147641 175.9905,19.278836 25.3119,7.485226 49.1937,22.992269 67.1571,43.606661 6.718,7.709556 6.7247,7.713933 14.2868,9.366706 8.0769,1.765291 20.1144,6.008794 23.8156,8.395524 1.2375,0.79801 3.3236,2.14399 4.6357,2.99106 l 2.3857,1.54012 -0.027,-7.290123 c -0.045,-12.25123 4.5559,-19.540014 15.7123,-24.889472 10.809,-5.182839 18.7495,-6.402719 41.5433,-6.382206 16.0742,0.01447 24.098,0.527139 37.1657,2.374683 l 16.6656,2.356234 5.8112,-5.673716 c 6.915,-6.751299 15.9599,-11.472703 23.462,-12.246985 6.4184,-0.662438 15.9243,1.483925 23.5646,5.320727 14.0289,7.044982 26.4064,26.689166 26.6844,42.350608 0.1301,7.32443 -2.3024,13.64596 -9.5232,24.74909 -2.4461,3.76125 -3.8483,6.94616 -3.5222,8 0.298,0.963 2.3486,6.03857 4.557,11.27905 7.0469,16.72296 9.4026,26.1131 9.5258,37.97186 0.1746,16.80563 0.7912,15.96158 -38.6529,52.90937 l -21.762,20.38473 2.1528,3.60295 c 20.2246,33.84728 33.078,63.35354 39.4836,90.63915 2.5298,10.77583 2.8044,13.7015 2.7658,29.4638 -0.039,16.05994 -0.2638,18.22598 -2.7271,26.32235 -2.9573,9.71963 -4.6269,13.32453 -11.6614,25.17765 -21.9596,37.00181 -28.506,47.02577 -44.0825,67.5 -24.0763,31.64665 -36.3456,44.29534 -68.6744,70.79837 -14.703,12.05349 -31.0078,26.36733 -36.2328,31.80853 -23.0809,24.03599 -46.0104,46.93626 -52,51.93382 -3.575,2.98288 -28.55,20.31606 -55.5,38.51818 -26.95,18.20213 -51.1609,35.1977 -53.802,37.76794 -2.6411,2.57024 -6.1037,7.37316 -7.6948,10.67316 l -2.8929,6 -0.6711,29 c -0.6034,26.07165 -0.9145,29.94558 -3.0816,38.36426 -2.9199,11.34333 -7.3619,23.4041 -16.4774,44.73866 -5.6352,13.18906 -6.8838,17.07954 -6.9,21.5 -0.099,27.00349 -13.5242,108.21712 -37.6734,227.89708 -6.3814,31.625 -11.7938,58.625 -12.0277,60 -0.331,1.9461 0.6433,3.5763 4.3978,7.3577 7.574,7.6284 17.3165,13.5804 37.8231,23.1073 57.0872,26.5215 67.2932,31.9976 71.5157,38.3725 1.6414,2.478 2.9843,5.694 2.9843,7.1469 0,5.4921 -11.3572,12.156 -20.2607,11.888 -2.3316,-0.07 -17.5143,-1.3806 -33.7393,-2.912 z m 4.6241,-594.20781 c 32.3339,-37.96445 59.7773,-66.74744 87.7745,-92.05901 10.4598,-9.45647 20.9656,-18.99358 23.3463,-21.19358 3.4913,-3.22645 5.6752,-6.9812 11.2927,-19.41567 3.8304,-8.47862 6.803,-15.57708 6.6057,-15.77436 -0.1973,-0.19728 -3.0102,0.36562 -6.251,1.25089 -3.2408,0.88526 -12.2209,1.90872 -19.9558,2.27435 l -14.0636,0.66479 -21.9582,20.65253 -21.9583,20.65253 -2.2172,6.88443 c -3.7049,11.5033 -6.8182,15.39597 -17.1188,21.40405 -8.3199,4.85286 -9.2877,5.75103 -12.2167,11.33841 -1.7495,3.33743 -4.1311,7.12434 -5.2923,8.41537 -2.9363,3.26439 -8.7709,6.07574 -14.1355,6.81104 -2.4918,0.34153 -4.7631,0.99739 -5.0475,1.45747 -0.7437,1.20327 1.8503,55.88417 2.6511,55.88417 0.3678,0 4.2128,-4.16133 8.5446,-9.24741 z m -192.76,-455.11022 c 38.9632,-22.87594 55.9313,-27.35849 87.6065,-23.14346 6.0338,0.80292 11.2516,1.13164 11.5951,0.73048 8.4475,-9.86611 20.9403,-26.60438 20.2956,-27.19259 -0.4737,-0.43222 -6.7113,-4.28297 -13.8613,-8.55722 -16.1562,-9.6581 -30.0968,-19.5425 -38.7671,-27.48727 l -6.645,-6.08898 -16.9617,5.46971 c -29.4195,9.4871 -68.2592,18.66924 -144.9585,34.26987 l -38.3323,7.79678 4.3323,1.9614 c 17.7613,8.04125 38.434,18.92118 49.8323,26.22649 36.3309,23.28494 39.9288,24.67236 61.8641,23.85631 l 11.3641,-0.42277 z"
       style="fill:#000000" />
  </g>
</svg>
