<?xml version="1.0" encoding="UTF-8" standalone="no"?>
<svg
   xmlns:dc="http://purl.org/dc/elements/1.1/"
   xmlns:cc="http://creativecommons.org/ns#"
   xmlns:rdf="http://www.w3.org/1999/02/22-rdf-syntax-ns#"
   xmlns:svg="http://www.w3.org/2000/svg"
   xmlns="http://www.w3.org/2000/svg"
   xmlns:sodipodi="http://sodipodi.sourceforge.net/DTD/sodipodi-0.dtd"
   xmlns:inkscape="http://www.inkscape.org/namespaces/inkscape"
   inkscape:version="1.0 (4035a4fb49, 2020-05-01)"
   sodipodi:docname="БОРЬБА.svg"
   viewBox="0 0 1246.774 934.65869"
   height="934.65869"
   width="1246.774"
   id="svg8"
   version="1.1">
  <metadata
     id="metadata14">
    <rdf:RDF>
      <cc:Work
         rdf:about="">
        <dc:format>image/svg+xml</dc:format>
        <dc:type
           rdf:resource="http://purl.org/dc/dcmitype/StillImage" />
        <dc:title></dc:title>
      </cc:Work>
    </rdf:RDF>
  </metadata>
  <defs
     id="defs12" />
  <sodipodi:namedview
     inkscape:current-layer="g16"
     inkscape:window-maximized="1"
     inkscape:window-y="-6"
     inkscape:window-x="-6"
     inkscape:cy="447.16687"
     inkscape:cx="55.415018"
     inkscape:zoom="0.31729151"
     showgrid="false"
     id="namedview10"
     inkscape:window-height="1018"
     inkscape:window-width="1920"
     inkscape:pageshadow="2"
     inkscape:pageopacity="0"
     guidetolerance="10"
     gridtolerance="10"
     objecttolerance="10"
     borderopacity="1"
     bordercolor="#666666"
     pagecolor="#ffffff"
     inkscape:document-rotation="0" />
  <g
     transform="translate(-892.59873,-0.51085398)"
     id="g16"
     inkscape:label="Image"
     inkscape:groupmode="layer">
    <path
       id="path22"
       d="m 930.0283,933.5727 c -17.67906,-4.69212 -31.50044,-18.79815 -36.0414,-36.78382 -2.62261,-10.38746 -1.4392,-24.31057 2.79038,-32.82942 0.71324,-1.43659 22.47759,-39.38958 48.36523,-84.33998 l 47.06842,-81.72805 0.0102,-99.85844 c 0.01,-94.40684 0.0897,-100.24636 1.46559,-106.964 2.9628,-14.46552 2.49695,-13.64882 72.08318,-126.37469 56.1108,-90.89622 66.6008,-107.44238 71.4815,-112.7487 13.8151,-15.01992 30.9044,-22.98601 51.3639,-23.94304 14.2937,-0.66861 18.8816,0.52602 64.2991,16.74263 8.1446,2.90806 17.7863,6.32412 21.426,7.59124 3.6398,1.26713 9.9217,3.93202 13.9599,5.922 9.259,4.56276 17.6829,12.69023 21.9968,21.22282 1.5368,3.0396 15.0169,38.12329 29.9558,77.96376 l 27.1616,72.43722 h 52.6586 c 50.8433,0 52.8591,0.0563 58.4755,1.63291 16.7308,4.69656 29.2859,16.72203 35.1608,33.67754 2.3073,6.65907 2.807,18.11597 1.1244,25.77734 -4.1176,18.74811 -18.379,33.64919 -36.7631,38.41214 -5.7486,1.48936 -8.8729,1.55691 -72.0076,1.55691 -63.1346,0 -66.2589,-0.0676 -72.0075,-1.55691 -11.5464,-2.99143 -22.4292,-10.5348 -28.6386,-19.8508 -1.5585,-2.33819 -15.3554,-27.6996 -30.6597,-56.35868 -15.3044,-28.65909 -28.0938,-52.39224 -28.421,-52.74033 -0.4212,-0.44827 -48.4397,89.05069 -50.5342,94.18804 -0.1883,0.46195 42.4325,49.98885 116.1858,135.01208 17.6133,20.30473 21.3647,25.06395 23.9549,30.39091 2.6849,5.52173 6.3561,19.64821 29.1916,112.32593 23.1541,93.97109 26.1205,106.7108 26.1205,112.18106 0,22.96832 -15.7234,43.33743 -37.8854,49.07912 -16.8832,4.3741 -34.4126,-0.62892 -47.141,-13.4543 -9.9799,-10.0561 -8.771,-6.47411 -39.6977,-117.62589 -15.0419,-54.06146 -28.0214,-100.60286 -28.8433,-103.42535 l -1.4943,-5.13179 -42.631,-41.05434 c -23.447,-22.57989 -50.8391,-48.99039 -60.8712,-58.69002 -10.0321,-9.69962 -18.3945,-17.47936 -18.5832,-17.2883 -0.1886,0.19106 -5.5971,32.76535 -12.019,72.38733 -8.8797,54.78654 -12.1366,73.19483 -13.5989,76.86209 -1.0576,2.65219 -25.1696,46.0497 -53.5823,96.43885 -50.60178,89.74076 -51.77926,91.73829 -57.50494,97.55411 -12.59857,12.79695 -30.52248,17.86329 -47.37436,13.39082 z m 748.2074,0 c -22.0872,-5.86201 -37.6946,-26.34497 -37.5334,-49.25842 0.025,-3.57544 0.6619,-8.64612 1.4465,-11.5189 0.7708,-2.82249 11.7757,-41.1925 24.4552,-85.2667 12.6795,-44.0742 23.766,-83.68769 24.6366,-88.02998 2.3092,-11.51763 6.4934,-19.634 14.0318,-27.218 3.2555,-3.27511 34.0869,-33.09982 68.5142,-66.27705 l 62.5951,-60.32226 -1.8033,-1.80308 c -0.9917,-0.99169 -17.9365,-16.90203 -37.6548,-35.3563 -33.2511,-31.11938 -35.908,-33.42745 -36.6285,-31.81917 -0.4273,0.95372 -10.4534,23.38216 -22.2804,49.84098 l -21.5035,48.10693 -16.6887,5.70948 c -19.3014,6.60328 -120.1946,41.14281 -137.4931,47.06902 -9.6547,3.30757 -12.9286,4.07178 -18.7983,4.38805 -24.34,1.31148 -46.0591,-15.50429 -51.393,-39.79044 -0.9899,-4.50729 -1.2213,-8.03514 -0.8952,-13.64811 0.7477,-12.86953 5.3198,-23.08303 14.555,-32.51358 8.0613,-8.23183 13.9073,-10.98405 39.3851,-18.54193 11.1451,-3.30618 24.6479,-7.32647 30.0062,-8.93397 5.3582,-1.60752 22.0266,-6.59452 37.0408,-11.08223 l 27.2985,-8.15949 27.2053,-69.17357 c 14.9629,-38.04546 28.4495,-71.66051 29.9702,-74.70011 4.2404,-8.47575 12.5476,-16.50594 21.8998,-21.16956 6.9388,-3.46011 62.5911,-23.67936 77.1507,-28.02989 5.883,-1.75789 8.0646,-1.98119 19.4846,-1.99443 11.793,-0.0136 13.4417,0.16374 19.8742,2.13856 14.0162,4.30304 23.9099,10.35682 33.9947,20.80076 3.2654,3.38161 36.7473,42.91964 74.4042,87.8623 37.6571,44.94266 71.167,84.58674 74.4667,88.09796 10.0966,10.744 15.7904,21.01211 19.8819,35.85456 1.1147,4.04388 1.4,7.80972 1.3456,17.7639 l -0.069,12.6321 -18.3491,88.02998 c -10.092,48.41648 -18.4702,88.80061 -18.6181,89.74249 -0.225,1.4324 9.6097,9.70335 60.1332,50.5716 33.2212,26.87259 62.1762,50.83664 64.3444,53.25356 10.8383,12.08118 15.2707,30.14533 11.2776,45.96112 -2.3286,9.22278 -6.4539,16.50305 -13.2555,23.393 -12.2453,12.40449 -28.7028,17.38422 -45.6098,13.80073 -12.2113,-2.58816 -11.7589,-2.24338 -93.1362,-70.96795 -41.3657,-34.93416 -77.8648,-66.12488 -81.1092,-69.31291 -6.9302,-6.80989 -11.5041,-15.13405 -13.6271,-24.80045 -2.5728,-11.71454 -2.1757,-13.81968 15.1693,-80.41037 8.5894,-32.9765 15.485,-60.09109 15.3235,-60.2547 -0.2511,-0.25436 -24.8165,19.84231 -116.7541,95.51532 -8.887,7.31478 -16.4678,13.90992 -16.846,14.65585 -1.2551,2.4751 -48.2213,153.64618 -49.1839,158.30979 -0.5199,2.51845 -2.384,7.49076 -4.1425,11.0497 -10.132,20.50609 -34.5237,31.64318 -56.5182,25.80581 z m -53.166,-605.8736 c -26.9351,-4.90231 -48.4725,-18.13143 -64.3614,-39.53328 -8.1704,-11.00533 -13.742,-23.04451 -17.2552,-37.28528 -1.8678,-7.57132 -2.1022,-10.02446 -2.1327,-22.32246 -0.037,-14.97166 0.7026,-20.41365 4.3082,-31.69233 8.4593,-26.46097 27.6856,-48.68927 52.4201,-60.60494 12.2414,-5.89719 23.8198,-8.71508 38.322,-9.32665 25.8105,-1.08846 48.0564,6.50133 68.2545,23.28688 16.1519,13.4229 27.8044,32.50014 33.2494,54.43556 1.917,7.72276 2.1115,9.85118 2.1115,23.11197 0,13.27045 -0.1936,15.38583 -2.1174,23.13652 -9.6429,38.8512 -38.5722,67.40253 -76.9474,75.94182 -7.9494,1.76892 -28.1735,2.24964 -35.8516,0.85219 z M 1275.9062,201.37806 c -8.6758,-1.57904 -15.2916,-3.45513 -21.7283,-6.16166 -30.466,-12.81048 -51.8381,-38.02561 -59.8882,-70.6569 -1.8678,-7.57132 -2.1022,-10.02446 -2.1328,-22.32246 -0.037,-14.971662 0.7026,-20.413651 4.3083,-31.692328 8.4592,-26.460974 27.6856,-48.689276 52.4201,-60.6049428 12.2414,-5.897187 23.8197,-8.7150778 38.322,-9.32665317 25.8104,-1.0884611 48.0563,6.50133317 68.2545,23.28688097 16.1519,13.422905 27.8043,32.500138 33.2493,54.435565 1.917,7.722755 2.1115,9.851178 2.1115,23.111968 0,13.26079 -0.1945,15.38921 -2.1115,23.11197 -9.6503,38.87639 -38.5701,67.4253 -76.9533,75.96637 -7.9494,1.76892 -28.1735,2.24964 -35.8516,0.85219 z"
       style="fill:#000000;stroke-width:0.784428" />
  </g>
</svg>
