<?xml version="1.0" encoding="UTF-8" standalone="no"?>
<!-- Created with Inkscape (http://www.inkscape.org/) -->

<svg
   version="1.1"
   id="svg224"
   width="311.95459"
   height="286.60919"
   viewBox="0 0 311.95459 286.60919"
   sodipodi:docname="НОВАЯ ВЕРИФИКАЦИЯ.svg"
   inkscape:version="1.2.1 (9c6d41e410, 2022-07-14)"
   xml:space="preserve"
   xmlns:inkscape="http://www.inkscape.org/namespaces/inkscape"
   xmlns:sodipodi="http://sodipodi.sourceforge.net/DTD/sodipodi-0.dtd"
   xmlns="http://www.w3.org/2000/svg"
   xmlns:svg="http://www.w3.org/2000/svg"><defs
     id="defs228"><linearGradient
       id="id2"
       gradientUnits="userSpaceOnUse"
       x1="68.220001"
       y1="68.220001"
       x2="267.45999"
       y2="267.45999"
       gradientTransform="matrix(0.33001727,0,0,0.32686068,-22.547656,206.87226)">
   <stop
   offset="0"
   style="stop-opacity:1; stop-color:#D4B146"
   id="stop13923" />
   <stop
   offset="0.0588235"
   style="stop-opacity:1; stop-color:#E0C472"
   id="stop13925" />
   <stop
   offset="0.211765"
   style="stop-opacity:1; stop-color:#F7F4BD"
   id="stop13927" />
   <stop
   offset="0.329412"
   style="stop-opacity:1; stop-color:#FEFFFA"
   id="stop13929" />
   <stop
   offset="0.521569"
   style="stop-opacity:1; stop-color:#F2E9AB"
   id="stop13931" />
   <stop
   offset="0.760784"
   style="stop-opacity:1; stop-color:#DBBD60"
   id="stop13933" />
   <stop
   offset="1"
   style="stop-opacity:1; stop-color:#CCA930"
   id="stop13935" />
  </linearGradient><linearGradient
       id="id3"
       gradientUnits="userSpaceOnUse"
       x1="61.75"
       y1="61.75"
       x2="273.92999"
       y2="273.92999"
       gradientTransform="matrix(0.33001727,0,0,0.32686068,-22.547656,206.87226)">
   <stop
   offset="0"
   style="stop-opacity:1; stop-color:#A06E28"
   id="stop13938" />
   <stop
   offset="0.341176"
   style="stop-opacity:1; stop-color:#F1E9AD"
   id="stop13940" />
   <stop
   offset="0.65098"
   style="stop-opacity:1; stop-color:#B2873D"
   id="stop13942" />
   <stop
   offset="1"
   style="stop-opacity:1; stop-color:#7B511C"
   id="stop13944" />
  </linearGradient><linearGradient
       id="id1"
       gradientUnits="userSpaceOnUse"
       x1="121.23"
       y1="151.48"
       x2="214.44"
       y2="183.24001"
       gradientTransform="matrix(0.33001727,0,0,0.32686068,-22.547656,206.87226)">
   <stop
   offset="0"
   style="stop-opacity:1; stop-color:#E2CA77"
   id="stop13914" />
   <stop
   offset="0.270588"
   style="stop-opacity:1; stop-color:#DFC570"
   id="stop13916" />
   <stop
   offset="0.709804"
   style="stop-opacity:1; stop-color:#CAA648"
   id="stop13918" />
   <stop
   offset="1"
   style="stop-opacity:1; stop-color:#A87F17"
   id="stop13920" />
  </linearGradient></defs><sodipodi:namedview
     id="namedview226"
     pagecolor="#ffffff"
     bordercolor="#111111"
     borderopacity="1"
     inkscape:showpageshadow="0"
     inkscape:pageopacity="0"
     inkscape:pagecheckerboard="1"
     inkscape:deskcolor="#d1d1d1"
     showgrid="false"
     inkscape:zoom="1.0557862"
     inkscape:cx="-122.18383"
     inkscape:cy="182.32858"
     inkscape:window-width="1920"
     inkscape:window-height="1018"
     inkscape:window-x="-6"
     inkscape:window-y="-6"
     inkscape:window-maximized="1"
     inkscape:current-layer="g230" /><g
     inkscape:groupmode="layer"
     inkscape:label="Image"
     id="g230"
     transform="translate(84.131999,-129.12997)"><g
       id="g6942"
       transform="translate(-0.94716146,0.94716122)"><path
         id="path7026"
         style="fill:#fefefe;stroke-width:0.974029"
         d="m 72.498756,130.60078 c -24.653304,-0.0805 -50.158227,4.93969 -68.238281,13.9707 -3.0800813,1.53851 -7.3179137,3.48013 -9.4179688,4.3125 -2.1000551,0.83237 -3.8183594,1.868 -3.8183594,2.30274 0,0.43467 -0.6873212,0.79101 -1.5273438,0.79101 -0.840021,0 -1.527344,0.41917 -1.527344,0.93164 0,0.51247 -0.691607,0.93164 -1.537109,0.93164 -0.845503,0 -2.322251,0.83834 -3.28125,1.86328 -0.958999,1.02494 -2.324339,1.86328 -3.035156,1.86328 -0.710823,0 -1.864985,0.83836 -2.564453,1.86329 -0.699474,1.02488 -1.849378,1.86328 -2.554688,1.86328 -0.70531,0 -1.285162,0.31486 -1.289062,0.69922 -0.0038,0.38435 -1.608224,1.6969 -3.564454,2.91601 -1.956225,1.21912 -3.55664,2.79149 -3.55664,3.49414 0,0.70264 -0.615917,1.27735 -1.369141,1.27735 -1.740023,0 -4.968125,3.20641 -4.0625,4.03515 0.374568,0.34276 0.150858,0.62305 -0.496094,0.62305 -1.478152,0 -5.273437,2.92223 -5.273437,4.06055 0,0.46793 -1.144883,1.82241 -2.544922,3.00976 -1.400039,1.18735 -2.544922,2.49649 -2.544922,2.91016 0,0.41366 -0.934412,1.28694 -2.076172,1.93945 -1.141761,0.6525 -1.853775,1.51562 -1.582031,1.91797 0.271744,0.40236 -0.373554,1.30278 -1.433594,2.00195 -1.06004,0.69916 -1.695174,1.61409 -1.412109,2.03321 0.283065,0.41912 0.02861,0.76171 -0.564453,0.76171 -0.593068,0 -1.078125,0.43876 -1.078125,0.97266 0,0.5339 -0.899335,1.85443 -2,2.93555 -1.100664,1.08112 -1.762444,2.321 -1.46875,2.75586 0.293695,0.43486 0.0501,0.79101 -0.542969,0.79101 -0.593062,0 -1.078125,0.83835 -1.078125,1.86328 0,1.02494 -0.450652,1.86329 -1,1.86329 -0.549343,0 -1.306689,1.15321 -1.683594,2.5625 -0.376899,1.40923 -1.083407,2.80376 -1.570312,3.09765 -0.48691,0.29391 -1.099991,1.54921 -1.361328,2.79102 -0.261341,1.24182 -0.936393,2.39975 -1.501953,2.57226 -0.565566,0.17252 -1.029297,1.14719 -1.029297,2.16602 0,1.01884 -0.687323,2.4813 -1.527344,3.25 -0.840021,0.7687 -1.527344,2.59073 -1.527344,4.04883 0,1.45804 -0.429579,2.7901 -0.955078,2.96093 -0.525493,0.17082 -1.200342,2.19453 -1.5,4.4961 -0.299658,2.30157 -1.014956,4.32854 -1.589844,4.5039 -0.574881,0.17535 -1.046875,2.37881 -1.046875,4.89844 0,2.51963 -0.412943,4.58203 -0.917968,4.58203 -1.419613,0 -2.249044,9.23378 -2.345704,26.08985 -0.09362,16.32631 0.834102,27.01953 2.345704,27.01953 0.505025,0 0.917968,1.70844 0.917968,3.79492 0,2.20889 0.670403,4.40588 1.603516,5.25977 1.301031,1.19051 1.348278,1.6131 0.253906,2.24804 -0.741395,0.43016 -0.89009,0.78888 -0.330078,0.79688 0.560018,0.008 1.091278,1.15564 1.179688,2.54883 0.08841,1.39314 0.661828,2.68649 1.273437,2.87304 0.611609,0.18657 1.111328,1.53214 1.111328,2.99024 0,1.45804 0.716071,3.30604 1.591797,4.10742 0.875727,0.80138 1.343147,1.82515 1.039063,2.27539 -0.304091,0.45026 0.370905,1.7912 1.498046,2.98047 1.127148,1.18927 1.812748,2.72806 1.523438,3.41797 -0.289309,0.68991 0.151842,1.49154 0.982422,1.7832 0.83058,0.29167 1.511719,1.29502 1.511719,2.22852 0,0.93345 0.687322,2.327 1.527343,3.0957 0.840021,0.7687 1.527344,2.05603 1.527344,2.86133 0,0.80531 0.485063,1.46289 1.078125,1.46289 0.593061,0 0.836664,0.35615 0.542969,0.79101 -0.293694,0.43485 0.368086,1.6767 1.46875,2.75782 1.100665,1.08106 2,2.40164 2,2.93554 0,0.53389 0.485057,0.97071 1.078125,0.97071 0.593058,0 0.847518,0.34259 0.564453,0.76171 -0.283065,0.41912 0.352069,1.33405 1.412109,2.03321 1.06004,0.69917 1.705338,1.60153 1.433594,2.0039 -0.271744,0.40235 0.44027,1.26547 1.582031,1.91797 1.14176,0.6525 2.076172,1.52383 2.076172,1.9375 0,0.41367 1.144883,1.7228 2.544922,2.91016 1.400039,1.18735 2.544922,2.54183 2.544922,3.00976 0,1.13831 3.795285,4.06055 5.273437,4.06055 0.646952,0 0.870662,0.28028 0.496094,0.62305 -0.905625,0.82874 2.322477,4.03515 4.0625,4.03515 0.753224,0 1.369141,0.57665 1.369141,1.2793 0,0.70264 1.600415,2.27502 3.55664,3.49414 1.95623,1.2191 3.560554,2.52971 3.564454,2.91406 0.0038,0.38435 0.583752,0.69922 1.289062,0.69922 0.70531,0 1.855214,0.83835 2.554688,1.86328 0.699468,1.02494 1.85363,1.86329 2.564453,1.86329 0.710817,0 2.076157,0.83834 3.035156,1.86328 0.958999,1.02493 2.435747,1.86523 3.28125,1.86523 0.845502,0 1.537109,0.41917 1.537109,0.93164 0,0.51247 0.648048,0.93164 1.441407,0.93164 0.7933515,0 1.5965275,0.31541 1.7832027,0.70117 0.522779,1.08031 15.9741921,8.21094 24.5332033,11.32227 9.447169,3.4342 23.975929,6.67698 39.443359,8.80273 1.400039,0.19242 8.732774,0.40496 16.292969,0.47266 26.814755,0.24022 50.46523,-5.286 75.38086,-17.61523 12.58755,-6.22886 22.66536,-13.25619 34.66211,-24.16797 14.07085,-12.79836 20.07977,-20.63034 30.03515,-39.14844 5.37489,-9.99784 5.58184,-10.46554 8.04883,-18.16992 0.98459,-3.07481 2.19799,-6.63881 2.69532,-7.91992 4.60461,-11.86218 4.59421,-56.87312 -0.0156,-68.95118 -0.489,-1.28111 -1.6951,-4.84511 -2.67969,-7.91992 -0.98459,-3.07481 -2.2329,-6.63875 -2.77343,-7.91992 -1.62115,-3.84248 -3.98983,-8.75983 -4.93555,-10.24805 -0.48849,-0.7687 -1.81356,-3.07513 -2.94531,-5.125 -14.08076,-25.50382 -37.92145,-47.02677 -66.66797,-60.18359 -16.3898,-7.5013 -28.6738,-11.23086 -45.705081,-13.87891 -7.721949,-1.20062 -15.846683,-1.79544 -24.064453,-1.82226 z m 1.279297,6.39844 c 19.719617,0.21519 39.332557,3.45947 53.177737,9.32031 13.05715,5.52722 31.00579,14.04297 29.59765,14.04297 -0.47262,0 0.86302,1.25328 2.9668,2.7832 2.10379,1.52992 4.2274,2.55243 4.7207,2.27344 0.49332,-0.27899 0.89844,0.067 0.89844,0.76953 0,1.35366 5.29461,5.35547 7.08594,5.35547 0.5827,0 1.05859,0.6149 1.05859,1.36718 0,0.75233 1.26079,1.99522 2.80078,2.75977 1.54005,0.76455 2.36486,1.40528 1.83203,1.42578 -0.53277,0.0205 0.93829,1.71576 3.26954,3.76563 2.33118,2.04981 4.03023,3.72656 3.77734,3.72656 -0.6049,0 2.38913,3.39011 5.81641,6.58594 1.50234,1.40088 2.45678,2.79829 2.12109,3.10547 -0.33569,0.30713 -0.0752,0.55859 0.57812,0.55859 0.65336,0 1.1875,0.62778 1.1875,1.39648 0,0.7687 0.53421,1.39844 1.1875,1.39844 0.65335,0 0.89587,0.26724 0.53907,0.59375 -0.62244,0.56959 2.38502,5.05343 5.11328,7.625 0.71845,0.67719 1.30664,2.04097 1.30664,3.0293 0,0.98833 0.45757,1.79687 1.01758,1.79687 0.56002,0 0.92736,0.31292 0.8164,0.69727 -0.36709,1.27163 1.33994,4.89258 2.30664,4.89258 0.52227,0 0.94922,1.04895 0.94922,2.33007 0,1.28117 0.40856,2.32813 0.90625,2.32813 0.49769,0 1.20456,1.46808 1.57227,3.26172 0.36771,1.79364 1.07507,3.26172 1.57226,3.26172 0.49718,0 0.86461,1.26861 0.81641,2.82031 -0.0535,1.72263 0.66846,3.38203 1.85156,4.26172 1.06569,0.79247 1.36403,1.17605 0.66407,0.85156 -0.70002,-0.32448 -1.27344,-0.14623 -1.27344,0.39649 0,0.54265 0.36819,0.98632 0.81836,0.98632 0.45018,0 0.86131,1.73135 0.91211,3.84571 0.0508,2.11431 0.52309,4.10592 1.05078,4.42578 0.52769,0.31986 0.99917,1.83954 1.04687,3.37695 0.28565,9.19059 1.69891,21.89649 2.43555,21.89649 0.47543,0 0.86523,0.83835 0.86523,1.86328 0,1.02494 -0.39395,1.86328 -0.875,1.86328 -0.48106,0 -1.20437,5.55105 -1.60742,12.33594 -0.40306,6.78484 -1.10427,12.55096 -1.55859,12.8125 -0.45433,0.26149 -1.10538,2.99015 -1.44531,6.06445 -0.33993,3.07428 -1.07698,5.72905 -1.63868,5.90039 -0.5617,0.17134 -1.02148,1.5346 -1.02148,3.0293 0,1.49464 -0.43802,2.71875 -0.97266,2.71875 -0.53464,0 -1.27291,1.46612 -1.64062,3.25976 -0.36771,1.79364 -1.07458,3.26172 -1.57227,3.26172 -0.49769,0 -0.90625,0.86814 -0.90625,1.92969 0,1.06153 -0.68731,2.55941 -1.52734,3.32812 -0.84003,0.7687 -1.52734,2.20698 -1.52734,3.19532 0,0.98827 -0.45756,1.79687 -1.01758,1.79687 -0.56001,0 -1.01758,0.77353 -1.01758,1.71875 0,0.94523 -1.15775,2.93678 -2.57227,4.42578 -1.41446,1.489 -2.83976,3.64968 -3.16601,4.80274 -0.32624,1.15299 -1.00069,2.09765 -1.5,2.09765 -0.4993,0 -0.90821,0.62779 -0.90821,1.39649 0,0.7687 -0.53414,1.39843 -1.1875,1.39843 -0.6533,0 -0.91381,0.25141 -0.57812,0.5586 0.33569,0.3072 -0.61875,1.70454 -2.12109,3.10547 -3.42728,3.19578 -6.42131,6.58398 -5.81641,6.58398 0.25289,0 -1.44616,1.67865 -3.77734,3.72852 -2.33125,2.04981 -3.80231,3.74317 -3.26954,3.76367 0.53283,0.0205 -0.29198,0.66318 -1.83203,1.42773 -1.53999,0.76456 -2.80078,2.00547 -2.80078,2.75782 0,0.75227 -0.47589,1.36718 -1.05859,1.36718 -1.79133,0 -7.08594,4.00181 -7.08594,5.35547 0,0.70237 -0.45444,1.02109 -1.00976,0.70703 -0.55533,-0.31407 -2.18114,0.49983 -3.61133,1.8086 -1.4302,1.3087 -3.06325,2.3789 -3.63086,2.3789 -0.56757,0 -0.77984,0.37423 -0.47071,0.83203 0.30919,0.4578 -0.69013,1.12113 -2.2207,1.47266 -1.53057,0.35154 -3.01711,0.91995 -3.30273,1.26367 -0.82498,0.9928 -4.18886,2.78194 -9.6836,5.15235 -2.80003,1.20788 -8.14822,3.52918 -11.88672,5.1582 -10.12467,4.4117 -29.452601,8.8386 -43.095698,9.87109 -14.453493,1.09383 -16.495372,1.12757 -26.496094,0.42188 -41.019631,-2.89452 -79.648744,-21.85 -104.330078,-51.19336 -1.939704,-2.3061 -3.821557,-4.40203 -4.183594,-4.6582 -2.229621,-1.57804 -14.969247,-23.47071 -18.164062,-31.21485 -2.848755,-6.9053 -5.995718,-18.42489 -8.16211,-29.87109 -1.338216,-7.07057 -1.398924,-30.72799 -0.0918,-36.03711 0.538046,-2.18534 1.425745,-6.27908 1.972657,-9.09766 1.586544,-8.17643 2.23558,-10.5286 3.761718,-13.65234 0.788961,-1.61485 1.433594,-3.61118 1.433594,-4.4375 0,-0.82632 0.42666,-2.23124 0.947266,-3.1211 0.520599,-0.88981 2.896871,-5.39174 5.28125,-10.0039 7.221007,-13.96788 12.695823,-21.48815 24.318359,-33.41016 19.210187,-19.70514 47.639299,-34.7035 76.875,-40.55664 10.686886,-2.13957 22.556902,-3.1018 34.388672,-2.97265 z" /><path
         style="fill:#fdfdfd;stroke-width:0.974029"
         d="m 15.331212,365.58345 c -1.266526,-1.47783 -1.230512,-1.51078 0.384437,-0.3518 0.980032,0.70334 1.781876,1.43711 1.781876,1.63059 0,0.76687 -0.836148,0.27329 -2.166313,-1.27879 z"
         id="path7024" /><path
         id="path7022"
         style="fill:#fcfcfc;stroke-width:0.974029"
         d="m -82.934838,259.45234 c -0.154335,-0.0214 -0.260484,0.31964 -0.291015,0.99805 -0.04421,0.98223 0.196811,1.53226 0.535156,1.22265 0.338349,-0.30963 0.374209,-1.1145 0.08008,-1.78711 -0.12189,-0.27873 -0.231616,-0.42076 -0.324219,-0.43359 z m 0,23.29297 c -0.154335,-0.0214 -0.260484,0.31963 -0.291015,0.99805 -0.04421,0.9822 0.196811,1.53227 0.535156,1.22265 0.338349,-0.30962 0.374209,-1.11256 0.08008,-1.78515 -0.12189,-0.27874 -0.231616,-0.42272 -0.324219,-0.43555 z m 152.361329,38.8125 c -0.05256,-0.0481 -0.465965,0.23301 -1.273438,0.8125 -0.980029,0.70334 -1.78125,1.43738 -1.78125,1.63086 0,0.76687 0.835853,0.27278 2.166016,-1.2793 0.633261,-0.73891 0.941228,-1.11597 0.888672,-1.16406 z" /><path
         style="fill:#fbfbfb;stroke-width:0.974029"
         d="m -83.22534,265.1086 c 0.04885,-1.08546 0.290131,-1.30624 0.615172,-0.56295 0.294133,0.67261 0.257959,1.47626 -0.08039,1.78588 -0.338345,0.30962 -0.578999,-0.24071 -0.534787,-1.22293 z"
         id="path7020" /><path
         style="fill:#fafafa;stroke-width:0.974029"
         d="m -83.107225,276.36737 c 0.02075,-1.53741 0.248952,-2.05355 0.507114,-1.14697 0.258161,0.90657 0.241183,2.16445 -0.03772,2.79528 -0.278916,0.63083 -0.49014,-0.11091 -0.469389,-1.64831 z m -0.03772,-7.91997 c 0,-1.28117 0.231108,-1.80528 0.513574,-1.1647 0.282465,0.64059 0.282465,1.68882 0,2.3294 -0.282466,0.64059 -0.513574,0.11647 -0.513574,-1.1647 z"
         id="path7018" /><path
         id="path7016"
         style="fill:#f8f8f8;stroke-width:0.974029"
         d="m -82.831322,270.7414 c -0.184164,-0.0628 -0.314453,0.47272 -0.314453,1.4336 0,1.28112 0.231206,1.80465 0.513672,1.16406 0.282465,-0.64058 0.282465,-1.68949 0,-2.33008 -0.07062,-0.16014 -0.137831,-0.24665 -0.199219,-0.26758 z m 303.427732,0 c -0.18416,-0.0628 -0.3125,0.47272 -0.3125,1.4336 0,1.28112 0.22926,1.80465 0.51172,1.16406 0.28247,-0.64058 0.28247,-1.68949 0,-2.33008 -0.0706,-0.16014 -0.13783,-0.24665 -0.19922,-0.26758 z m -104.33203,40.56641 c -0.0525,-0.0481 -0.46596,0.23496 -1.27344,0.81445 -0.98003,0.70334 -1.78125,1.43543 -1.78125,1.62891 0,0.76687 0.83586,0.27473 2.16602,-1.27735 0.63326,-0.73887 0.94123,-1.11792 0.88867,-1.16601 z m -6.10937,5.5918 c -0.0526,-0.0481 -0.46597,0.233 -1.27344,0.8125 -0.98003,0.70329 -1.78125,1.43738 -1.78125,1.63086 0,0.76683 0.83589,0.27278 2.16601,-1.2793 0.63326,-0.73892 0.94123,-1.11597 0.88868,-1.16406 z" /><path
         id="path7014"
         style="fill:#f6f6f6;stroke-width:0.974029"
         d="m 69.883522,221.66328 c -0.142133,0.0158 -0.244182,0.58482 -0.257813,1.59375 -0.02075,1.5374 0.189832,2.27925 0.46875,1.64844 0.278965,-0.63083 0.295266,-1.88836 0.03711,-2.79493 -0.08874,-0.31163 -0.173597,-0.45555 -0.248047,-0.44726 z" /><path
         style="fill:#f2f2f2;stroke-width:0.974029"
         d="m 133.73476,328.08008 c 0,-1.28117 0.23111,-1.80528 0.51358,-1.1647 0.28246,0.64059 0.28246,1.68882 0,2.3294 -0.28247,0.64059 -0.51358,0.11647 -0.51358,-1.1647 z"
         id="path7012" /><path
         style="fill:#f0f0f0;stroke-width:0.974029"
         d="m 123.80421,313.87073 -1.93968,-2.09646 2.29098,1.775 c 2.15295,1.66805 2.75451,2.41793 1.93969,2.41793 -0.19322,0 -1.22416,-0.94341 -2.29099,-2.09647 z"
         id="path7010" /><path
         style="fill:#d6d6d6;stroke-width:0.974029"
         d="m 177.43761,207.33943 c 0.0489,-1.08545 0.29013,-1.30623 0.61517,-0.56294 0.29413,0.67261 0.25796,1.47626 -0.0803,1.78588 -0.33834,0.30961 -0.579,-0.24071 -0.53479,-1.22294 z"
         id="path7008" /><path
         id="path7006"
         style="fill:#cccccc;stroke-width:0.974029"
         d="m 53.135475,206.13984 c -0.461378,0 -0.923426,0.0641 -1.273438,0.19336 -0.70002,0.25848 -0.126605,0.4707 1.273438,0.4707 1.400044,0 1.971506,-0.21222 1.271484,-0.4707 -0.35001,-0.12924 -0.810107,-0.19336 -1.271484,-0.19336 z" /><path
         style="fill:#cacaca;stroke-width:0.974029"
         d="m 176.49978,219.99585 c 0,-1.28117 0.23111,-1.80529 0.51357,-1.1647 0.28247,0.64058 0.28247,1.68881 0,2.3294 -0.28246,0.64058 -0.51357,0.11647 -0.51357,-1.1647 z m 0,-24.22578 c 0,-1.28117 0.23111,-1.80529 0.51357,-1.1647 0.28247,0.64058 0.28247,1.68882 0,2.3294 -0.28246,0.64059 -0.51357,0.11647 -0.51357,-1.1647 z"
         id="path7004" /><path
         style="fill:#c6c6c6;stroke-width:0.974029"
         d="m 151.11987,273.1062 c 0,-1.79363 0.20955,-2.5274 0.46566,-1.63058 0.2561,0.89682 0.2561,2.36435 0,3.26117 -0.25611,0.89682 -0.46566,0.16305 -0.46566,-1.63059 z"
         id="path7002" /><path
         id="path7000"
         style="fill:#bcbcbc;stroke-width:0.974029"
         d="m 77.352272,226.63203 c -0.319187,0.004 -0.666712,0.0639 -0.988281,0.18164 -0.81226,0.29744 -0.572886,0.5178 0.613281,0.5625 1.073359,0.0405 1.676233,-0.17865 1.33789,-0.48828 -0.190321,-0.17413 -0.552508,-0.26127 -0.96289,-0.25586 z" /><path
         id="path6998"
         style="fill:#a9a9a9;stroke-width:0.974029"
         d="m 60.262428,205.2082 c -0.461377,0 -0.923428,0.0641 -1.273437,0.19336 -0.700023,0.25848 -0.126606,0.4707 1.273437,0.4707 1.400043,0 1.973459,-0.21222 1.273438,-0.4707 -0.350011,-0.12924 -0.81206,-0.19336 -1.273438,-0.19336 z m 40.644532,41.92383 c -0.35372,-0.0133 -0.75749,0.0451 -1.125001,0.17969 -0.812259,0.29742 -0.570928,0.5178 0.615231,0.5625 1.07336,0.0404 1.67428,-0.17868 1.33594,-0.48829 -0.16918,-0.15478 -0.47245,-0.24058 -0.82617,-0.2539 z" /><path
         id="path6996"
         style="fill:#a1a1a1;stroke-width:0.974029"
         d="m 123.82102,250.23945 c -0.16006,0.0327 -0.26758,0.55474 -0.26758,1.43555 0,1.28116 0.23122,1.8066 0.51368,1.16601 0.28246,-0.64059 0.28246,-1.6895 0,-2.33008 -0.0883,-0.20018 -0.17334,-0.28634 -0.2461,-0.27148 z m 28.45117,27.84766 c -0.15432,-0.0214 -0.2585,0.31963 -0.28906,0.99804 -0.0442,0.98222 0.19486,1.53228 0.5332,1.22266 0.33827,-0.30962 0.37617,-1.11255 0.082,-1.78516 -0.12189,-0.27873 -0.23358,-0.42271 -0.32618,-0.43554 z" /><path
         id="path6994"
         style="fill:#999999;stroke-width:0.974029"
         d="m 85.596412,225.70625 c -0.55365,-0.006 -1.145279,0.0479 -1.640625,0.16601 -0.990688,0.23624 -0.426143,0.44585 1.253907,0.46485 1.680046,0.019 2.490139,-0.17446 1.800781,-0.42969 -0.344681,-0.12761 -0.860409,-0.19492 -1.414063,-0.20117 z M 5.2780531,316.89961 c -0.052556,-0.0481 -0.4640128,0.233 -1.2714844,0.8125 -0.9800276,0.7033 -1.7832031,1.43738 -1.7832031,1.63086 0,0.76684 0.8378092,0.27278 2.1679687,-1.2793 0.633261,-0.73892 0.9392749,-1.11597 0.8867188,-1.16406 z" /><path
         id="path6992"
         style="fill:#858585;stroke-width:0.974029"
         d="m 109.93626,246.19843 c -0.31919,0.004 -0.66867,0.0639 -0.99024,0.18164 -0.81226,0.29744 -0.57093,0.5178 0.61524,0.5625 1.07336,0.0405 1.67427,-0.17867 1.33593,-0.48828 -0.19032,-0.17412 -0.55055,-0.26127 -0.96093,-0.25586 z" /><path
         id="path6990"
         style="fill:#7d7d7d;stroke-width:0.974029"
         d="m 124.75852,259.45234 c -0.14192,0.014 -0.23854,0.35356 -0.26758,0.99805 -0.0442,0.98223 0.19681,1.53226 0.53516,1.22265 0.33826,-0.30963 0.37421,-1.1145 0.0801,-1.78711 -0.13205,-0.30196 -0.25055,-0.44318 -0.34766,-0.43359 z" /><path
         id="path6988"
         style="fill:#7a7a7a;stroke-width:0.974029"
         d="m 96.336647,229.73945 c -0.163389,0.0204 -0.275391,0.54544 -0.275391,1.4375 0,1.28118 0.231209,1.80464 0.513672,1.16406 0.282463,-0.64059 0.282463,-1.68753 0,-2.32812 -0.07944,-0.18017 -0.155336,-0.26847 -0.222656,-0.27344 -0.0054,-4e-4 -0.01036,-6.6e-4 -0.01563,0 z" /><path
         id="path6986"
         style="fill:#757575;stroke-width:0.974029"
         d="m 92.760475,224.76875 c -0.353724,-0.0133 -0.757491,0.0471 -1.125,0.18164 -0.812258,0.29744 -0.570929,0.5178 0.615234,0.5625 1.073359,0.0405 1.676234,-0.18061 1.337891,-0.49024 -0.169176,-0.15478 -0.474402,-0.24058 -0.828125,-0.2539 z m 39.673825,41.93359 c -0.55365,-0.006 -1.14528,0.0498 -1.64062,0.16797 -0.99069,0.23624 -0.42612,0.44389 1.2539,0.46289 1.68006,0.019 2.49013,-0.17252 1.80079,-0.42773 -0.34468,-0.12766 -0.86041,-0.19686 -1.41407,-0.20313 z" /><path
         id="path6984"
         style="fill:#646464;stroke-width:0.974029"
         d="m 117.16087,245.27265 c -0.55366,-0.006 -1.14528,0.0479 -1.64063,0.16602 -0.99069,0.23624 -0.42614,0.44584 1.25391,0.46484 1.68006,0.019 2.49015,-0.17445 1.80078,-0.42969 -0.34468,-0.12765 -0.86041,-0.1949 -1.41406,-0.20117 z" /><path
         id="path6982"
         style="fill:#eb1b23;stroke-width:0.974029"
         d="m 5.5143812,202.24531 c -0.087297,-0.009 0.1885677,1.38185 0.640625,2.35156 0.054149,0.001 0.1079851,0.006 0.1621094,0.008 -0.139957,-0.48497 -0.2674577,-0.94453 -0.7089844,-2.17578 -0.045113,-0.1258 -0.076708,-0.18187 -0.09375,-0.18359 z m 2.6113281,21.76562 c 0.047184,0.28179 0.097467,0.56246 0.125,0.85157 1.0585056,-0.1363 1.5649341,-0.20251 1.6015625,-0.20703 0.070914,-0.0482 0.1419456,-0.1007 0.2128902,-0.14844 -0.02655,-0.0537 -0.04261,-0.11023 -0.068359,-0.16406 -0.5177257,-0.0918 -0.9465861,-0.16846 -1.78125,-0.31055 -0.029858,-0.007 -0.060005,-0.0139 -0.089844,-0.0215 z M 125.8054,275.70625 c 0.2271,0.58161 0.40278,1.067 0.875,2.11914 0.17184,0.38287 -0.63452,-1.54095 -0.39649,-1.19532 0.17629,0.25597 0.36745,0.71597 0.54883,1.22657 -0.16811,-0.74347 -0.49961,-1.4509 -1.02734,-2.15039 z m -61.082034,14.59961 c -0.543262,0.0199 -1.075909,0.0129 -1.607422,0.004 1.022432,0.53147 1.996714,0.94958 2.943359,1.31446 -0.0666,-0.0862 -0.117025,-0.18544 -0.142578,-0.30469 -0.04438,-0.20715 -0.0847,-0.33864 -0.128906,-0.54102 -0.355154,-0.15677 -0.711127,-0.31149 -1.064453,-0.47265 z" /><path
         id="path6980"
         style="fill:#555555;stroke-width:0.974029"
         d="m 97.375709,236.57148 c -0.142133,0.0158 -0.246135,0.58483 -0.259765,1.59375 -0.02075,1.5374 0.191783,2.27927 0.470703,1.64844 0.278964,-0.63083 0.295266,-1.88834 0.03711,-2.79492 -0.08874,-0.31164 -0.173595,-0.45555 -0.248047,-0.44727 z" /><path
         id="path6978"
         style="fill:#525252;stroke-width:0.974029"
         d="m 68.846412,207.69257 c -0.131701,0.065 -0.227253,0.62701 -0.240234,1.5879 -0.02075,1.53737 0.191783,2.27926 0.470703,1.64843 0.278964,-0.63083 0.295265,-1.88834 0.03711,-2.79492 -0.09681,-0.33997 -0.188557,-0.48041 -0.267579,-0.44141 z m 72.873048,58.08008 c -0.46138,0 -0.92342,0.0641 -1.27344,0.19336 -0.70002,0.25848 -0.1266,0.47071 1.27344,0.47071 1.40005,0 1.97346,-0.21223 1.27344,-0.47071 -0.35001,-0.12924 -0.81206,-0.19336 -1.27344,-0.19336 z" /><path
         id="path6976"
         style="fill:#353535;stroke-width:0.974029"
         d="m 69.863991,214.21601 c -0.131703,0.065 -0.2253,0.62507 -0.238282,1.58594 -0.02075,1.53741 0.189833,2.27927 0.46875,1.64844 0.278965,-0.63083 0.295265,-1.88837 0.03711,-2.79492 -0.09681,-0.33997 -0.188557,-0.47846 -0.267578,-0.43946 z M 98.30735,243.6125 c -0.154331,-0.0214 -0.260472,0.31964 -0.291016,0.99804 -0.04421,0.98223 0.196805,1.53227 0.535157,1.22266 0.338302,-0.30963 0.374203,-1.1145 0.08008,-1.78711 -0.121888,-0.27873 -0.231621,-0.42076 -0.324219,-0.43359 z m 49.4375,21.22265 c -0.35372,-0.0133 -0.75749,0.0451 -1.125,0.17969 -0.81226,0.29743 -0.57091,0.51975 0.61523,0.56445 1.07337,0.0405 1.67428,-0.18061 1.33594,-0.49023 -0.16917,-0.15478 -0.47245,-0.24058 -0.82617,-0.25391 z" /><path
         style="fill:#2e2e2e;stroke-width:0.974029"
         d="m 106.59131,321.55776 c 1.01362,-1.02494 2.07204,-1.86352 2.35205,-1.86352 0.28001,0 -0.32022,0.83858 -1.33384,1.86352 -1.01362,1.02494 -2.07205,1.86352 -2.35205,1.86352 -0.28001,0 0.32021,-0.83858 1.33384,-1.86352 z"
         id="path6974" /><path
         id="path6972"
         style="fill:#2c2c2c;stroke-width:0.974029"
         d="m 70.881569,221.35273 c -0.163389,0.0204 -0.275391,0.54544 -0.275391,1.4375 0,1.28117 0.231209,1.80661 0.513672,1.16602 0.282463,-0.64059 0.282463,-1.6895 0,-2.33008 -0.07944,-0.18017 -0.155336,-0.26846 -0.222656,-0.27344 -0.0054,-4e-4 -0.01036,-6.6e-4 -0.01563,0 z" /><path
         style="fill:#2a2a2a;stroke-width:0.974029"
         d="m 132.63617,327.53656 c 0.0489,-1.08545 0.29013,-1.30624 0.61516,-0.56294 0.29413,0.67261 0.25797,1.47625 -0.0803,1.78588 -0.33836,0.30961 -0.579,-0.24072 -0.53479,-1.22294 z"
         id="path6970" /><path
         id="path6968"
         style="fill:#282828;stroke-width:0.974029"
         d="m 176.93235,202.09882 c -0.13834,-0.13241 -0.23467,1.85924 -0.23242,5.31836 0.003,4.61221 0.17823,6.38132 0.38867,3.93164 0.21008,-2.44964 0.20824,-6.22223 -0.006,-8.38476 -0.0534,-0.54063 -0.10428,-0.8211 -0.15039,-0.86524 z M 73.377662,386.89961 c -0.553649,-0.006 -1.145279,0.0498 -1.640625,0.16796 -0.990687,0.23624 -0.426142,0.4439 1.253907,0.4629 1.680044,0.019 2.490138,-0.17445 1.800781,-0.42969 -0.344681,-0.12765 -0.860409,-0.19491 -1.414063,-0.20117 z m -14.132812,0.002 c -0.461378,0 -0.923426,0.0641 -1.273438,0.19336 -0.700018,0.25848 -0.126602,0.4707 1.273438,0.4707 1.40004,0 1.971506,-0.21222 1.271484,-0.4707 -0.350007,-0.12924 -0.81011,-0.19336 -1.271484,-0.19336 z" /><path
         id="path6966"
         style="fill:#202020;stroke-width:0.974029"
         d="m 53.135475,205.2082 c -0.461378,0 -0.923426,0.0641 -1.273438,0.19336 -0.70002,0.25848 -0.126605,0.4707 1.273438,0.4707 1.400044,0 1.971506,-0.21222 1.271484,-0.4707 -0.35001,-0.12924 -0.810107,-0.19336 -1.271484,-0.19336 z" /><path
         style="fill:#1e1e1e;stroke-width:0.974029"
         d="m 152.13808,273.1062 c 0,-1.79363 0.20955,-2.5274 0.46566,-1.63058 0.25611,0.89682 0.25611,2.36435 0,3.26117 -0.25611,0.89682 -0.46566,0.16305 -0.46566,-1.63059 z m 23.38122,-53.57623 c 0.0208,-1.53741 0.24895,-2.05355 0.50711,-1.14697 0.25816,0.90657 0.24118,2.16445 -0.0378,2.79528 -0.27892,0.63083 -0.49014,-0.11091 -0.46939,-1.64831 z m -0.0377,-23.7599 c 0,-1.28117 0.23111,-1.80529 0.51358,-1.1647 0.28246,0.64058 0.28246,1.68882 0,2.3294 -0.28247,0.64059 -0.51358,0.11647 -0.51358,-1.1647 z"
         id="path6964" /><path
         id="path6962"
         style="fill:#1a1a1a;stroke-width:0.974029"
         d="m 77.352272,225.70039 c -0.319187,0.004 -0.666712,0.0639 -0.988281,0.18164 -0.81226,0.29744 -0.572886,0.5178 0.613281,0.5625 1.073359,0.0405 1.676233,-0.18061 1.33789,-0.49024 -0.190321,-0.17413 -0.552508,-0.25932 -0.96289,-0.2539 z" /><path
         id="path6960"
         style="fill:#161616;stroke-width:0.974029"
         d="m 60.262428,204.27656 c -0.461377,0 -0.923428,0.0641 -1.273437,0.19336 -0.700023,0.25848 -0.126606,0.4707 1.273437,0.4707 1.400043,0 1.973459,-0.21222 1.273438,-0.4707 -0.350011,-0.12924 -0.81206,-0.19336 -1.273438,-0.19336 z m 40.644532,41.92383 c -0.35372,-0.0133 -0.75749,0.0451 -1.125001,0.17968 -0.812259,0.29744 -0.570928,0.5178 0.615231,0.5625 1.07336,0.0405 1.67428,-0.17867 1.33594,-0.48828 -0.16918,-0.15478 -0.47245,-0.24058 -0.82617,-0.2539 z" /><path
         style="fill:#141414;stroke-width:0.974029"
         d="m 153.00046,279.08501 c 0.0489,-1.08546 0.29013,-1.30624 0.61517,-0.56295 0.29413,0.67261 0.25796,1.47626 -0.0803,1.78588 -0.33834,0.30962 -0.579,-0.24071 -0.53479,-1.22293 z"
         id="path6958" /><path
         id="path6956"
         style="fill:#121212;stroke-width:0.974029"
         d="m 124.8679,249.6164 c -0.14213,0.0158 -0.24612,0.58483 -0.25977,1.59375 -0.0208,1.5374 0.19178,2.27927 0.4707,1.64844 0.27898,-0.63083 0.29526,-1.88835 0.0371,-2.79492 -0.0887,-0.31164 -0.17359,-0.45555 -0.24804,-0.44727 z" /><path
         id="path6954"
         style="fill:#101010;stroke-width:0.974029"
         d="m 85.387428,224.77461 c -0.490858,0.008 -0.998213,0.0627 -1.431641,0.16601 -0.99069,0.23624 -0.426145,0.44585 1.253907,0.46485 1.68005,0.019 2.490141,-0.17446 1.800781,-0.42969 -0.387766,-0.14356 -0.991943,-0.21144 -1.623047,-0.20117 z" /><path
         id="path6952"
         style="fill:#0c0c0c;stroke-width:0.974029"
         d="m 109.93626,245.26679 c -0.31919,0.004 -0.66867,0.0639 -0.99024,0.18164 -0.81226,0.29744 -0.57093,0.5178 0.61524,0.5625 1.07336,0.0404 1.67427,-0.17867 1.33593,-0.48828 -0.19032,-0.17412 -0.55055,-0.26127 -0.96093,-0.25586 z" /><path
         id="path6950"
         style="fill:#080808;stroke-width:0.974029"
         d="m 97.424537,227.60859 c -0.141496,-0.0237 -0.242231,0.76064 -0.25,2.16992 -0.0113,2.04983 0.188511,2.99827 0.44336,2.10742 0.254871,-0.89085 0.265038,-2.56754 0.02148,-3.72656 -0.07611,-0.3622 -0.150526,-0.54001 -0.214844,-0.55078 z m 28.478513,31.01953 c -0.18416,-0.0628 -0.31445,0.47271 -0.31445,1.4336 0,1.28114 0.23121,1.80464 0.51367,1.16406 0.28246,-0.64059 0.28246,-1.68754 0,-2.32813 -0.0706,-0.16014 -0.13783,-0.2486 -0.19922,-0.26953 z m 6.65235,7.13867 c -0.64593,0 -1.29123,0.0566 -1.78125,0.17383 -0.98003,0.23437 -0.17881,0.42774 1.78125,0.42774 1.96003,0 2.76323,-0.19337 1.7832,-0.42774 -0.49002,-0.11718 -1.13727,-0.17383 -1.7832,-0.17383 z" /><path
         id="path6948"
         style="fill:#060606;stroke-width:0.974029"
         d="m 92.514381,223.84101 c -0.490917,0.008 -0.998214,0.0646 -1.43164,0.16797 -0.990691,0.23624 -0.426144,0.44584 1.253906,0.46484 1.68005,0.019 2.490141,-0.17444 1.800781,-0.42968 -0.34468,-0.12761 -0.86041,-0.19687 -1.414062,-0.20313 -0.06921,-7.5e-4 -0.138854,-0.001 -0.208985,0 z" /><path
         id="path6946"
         style="fill:#020202;stroke-width:0.974029"
         d="m 116.8718,244.3332 c -0.6515,0.01 -1.31501,0.0646 -1.86914,0.16211 -1.26657,0.22286 -0.46858,0.41353 1.77149,0.42383 2.24005,0.0103 3.27623,-0.17304 2.30273,-0.40625 -0.5476,-0.13118 -1.36743,-0.19191 -2.20508,-0.17969 z" /><path
         id="path6944"
         style="fill:#000000;stroke-width:0.974029"
         d="m 139.44797,167.18672 c -4.91279,0.13226 -10.6751,1.11785 -19.61914,3.16796 -13.00025,2.97994 -32.317713,11.08806 -45.921871,19.27344 -8.050688,4.84399 -15.267228,9.48234 -16.751953,10.76758 -0.909353,0.78718 -2.528716,1.90585 -3.599609,2.48633 -3.49072,1.89217 -0.702428,2.41771 6.736328,1.26953 4.016827,-0.62 7.638577,-0.76772 8.066406,-0.32813 0.427029,0.43877 1.377687,5.75339 2.113281,11.8086 1.262408,10.39176 1.455896,10.98256 3.455079,10.55859 1.164889,-0.24704 6.346825,-0.96116 11.515625,-1.58789 12.023028,-1.45781 12.490689,-1.16406 12.505859,7.85352 0.0062,3.6526 0.303957,8.2641 0.662109,10.24804 l 0.650391,3.60743 5.193355,-0.59961 c 11.41274,-1.31748 17.47663,-1.55024 18.79688,-0.72266 0.85747,0.53748 1.77319,4.17373 2.39844,9.53125 0.6177,5.29272 1.59325,9.19826 2.50781,10.03516 1.20132,1.09927 3.44879,1.26042 11.37891,0.81836 5.43507,-0.303 10.421,-0.24579 11.08007,0.12695 1.38083,0.78094 3.7934,13.60789 2.82813,15.03711 -0.35416,0.52439 -0.40861,0.95312 -0.1211,0.95312 0.56729,0 7.74219,-13.50642 7.74219,-14.57422 0,-0.35806 1.31336,-3.40934 2.91797,-6.78125 7.79926,-16.38932 11.73866,-34.09889 11.72656,-52.71875 -0.01,-14.8267 -1.49307,-21.29456 -6.36718,-27.77734 -3.3313,-4.43076 -9.29503,-9.02734 -11.71289,-9.02734 -0.84435,0 -1.77097,-0.34756 -2.0586,-0.77344 -0.28762,-0.42587 -3.75013,-1.33247 -7.69531,-2.01367 -2.83802,-0.49003 -5.48003,-0.71806 -8.42774,-0.63867 z m 1.25391,141.32617 c -0.31821,0 -0.5938,0.21463 -0.78125,0.53125 0.57515,0.48563 1.13908,0.96077 1.70508,1.43945 0.0582,-0.17555 0.0937,-0.36753 0.0937,-0.57227 0,-0.76865 -0.45757,-1.39843 -1.01758,-1.39843 z m -127.537108,2.58398 -7.1113283,6.50781 -7.1113281,6.50782 1.80273436,7.80664 C 2.538701,339.6836 10.079859,355.74326 12.957741,357.9289 c 0.817113,0.62056 1.484375,1.64428 1.484375,2.27539 0,0.63111 3.754881,4.57787 8.34375,8.77149 9.609443,8.78173 19.048788,13.95603 29.839843,16.35547 3.920107,0.87166 8.501596,1.88558 10.181641,2.2539 5.024548,1.10156 20.802972,-2.57432 30.304687,-7.06054 6.575926,-3.10485 24.169923,-17.45179 24.169923,-19.70899 0,-0.50749 0.65343,-1.51999 1.45117,-2.25 2.687,-2.45886 8.59484,-13.8436 11.1543,-21.49414 4.07077,-12.16814 4.15142,-11.76938 -3.84766,-19.14648 l -7.02539,-6.47852 -8.10156,7.38477 c -4.4565,4.06164 -8.77934,7.38476 -9.60547,7.38476 -0.82612,0 -5.178108,-3.30443 -9.669922,-7.34375 l -8.166016,-7.34375 -7.99414,7.34375 c -4.396335,4.03932 -8.728993,7.34375 -9.628906,7.34375 -0.899919,0 -5.237352,-3.29467 -9.638672,-7.32226 l -8.001953,-7.32227 -8.144532,7.32227 c -4.478826,4.02759 -8.660845,7.32226 -9.292968,7.32226 -0.632128,0 -4.851357,-3.4025 -9.376954,-7.56054 z" /></g><ellipse
       class="fil1"
       cx="32.842445"
       cy="261.73257"
       id="circle13952"
       style="clip-rule:evenodd;fill:url(#id2);fill-rule:evenodd;stroke-width:0.328435;image-rendering:optimizeQuality;shape-rendering:geometricPrecision;text-rendering:geometricPrecision"
       rx="46.492832"
       ry="46.048134" /><path
       class="fil2"
       d="m 32.842442,212.69366 c 27.345234,0 49.512494,21.95523 49.512494,49.03891 0,27.08367 -22.16726,49.03891 -49.512494,49.03891 -27.3452301,0 -49.51249,-21.95524 -49.51249,-49.03891 0,-27.08368 22.1672599,-49.03891 49.51249,-49.03891 z m 0,0.57528 c 27.025115,0 48.931663,21.697 48.931663,48.46363 0,26.76661 -21.906548,48.46363 -48.931663,48.46363 -27.0251137,0 -48.93166,-21.69702 -48.93166,-48.46363 0,-26.76663 21.9065463,-48.46363 48.93166,-48.46363 z"
       id="path13954"
       style="clip-rule:evenodd;fill:url(#id3);fill-rule:evenodd;stroke-width:0.328435;image-rendering:optimizeQuality;shape-rendering:geometricPrecision;text-rendering:geometricPrecision" /><path
       class="fil3"
       d="m 32.842442,218.40719 c 24.160565,0 43.743792,19.39917 43.743792,43.32538 0,23.92947 -19.586529,43.32538 -43.743792,43.32538 -24.160564,0 -43.743789,-19.39917 -43.743789,-43.32538 0,-23.92947 19.5865254,-43.32538 43.743789,-43.32538 z m -17.094894,17.28765 -4.560839,-8.82523 3.788598,-1.92194 c 0.95045,-0.48375 1.686389,-0.75504 2.197915,-0.81389 0.514828,-0.0621 1.003253,0.0458 1.471877,0.31706 0.468625,0.27457 0.838245,0.67006 1.108859,1.19304 0.343218,0.66353 0.432322,1.30745 0.260713,1.93829 -0.168308,0.63084 -0.613832,1.1963 -1.33657,1.70621 0.504926,0.0261 0.950451,0.11112 1.33987,0.25495 0.392721,0.14055 0.980152,0.44779 1.762293,0.91521 l 1.976803,1.17015 -2.151713,1.09173 -2.287019,-1.27149 c -0.815143,-0.45107 -1.356372,-0.71909 -1.620385,-0.81062 -0.260713,-0.0915 -0.504926,-0.12094 -0.729338,-0.0915 -0.227713,0.0327 -0.547828,0.15362 -0.96035,0.36281 l -0.366319,0.18631 1.904199,3.68372 -1.805194,0.91521 z m -15.62961801,44.87471 1.45207591,-0.85964 2.2309171,3.69679 -3.42887965,2.02981 c -0.57092984,-0.15036 -1.19466256,-0.48702 -1.87779825,-1.01001 -0.6798355,-0.52296 -1.2309644,-1.1342 -1.6533865,-1.83695 -0.5379282,-0.88906 -0.8151427,-1.77485 -0.8382439,-2.66065 -0.019802,-0.88252 0.2211115,-1.70294 0.7227378,-2.44818 0.5016262,-0.74852 1.1682612,-1.36955 1.9933042,-1.85657 0.89434688,-0.52951 1.80519462,-0.81389 2.7259426,-0.85964 0.9207487,-0.0392 1.7853933,0.18631 2.5873356,0.67987 0.6171325,0.37589 1.1649611,0.97078 1.656687,1.78138 0.6369331,1.05576 0.9108474,2.01346 0.8217429,2.87311 -0.092405,0.85965 -0.4785254,1.60815 -1.1682615,2.24554 L 3.9857327,280.8245 c 0.3498178,-0.36935 0.5478287,-0.791 0.5940309,-1.26822 0.046204,-0.47395 -0.079204,-0.9577 -0.3795198,-1.45126 -0.4521238,-0.74851 -1.0527554,-1.20285 -1.7985943,-1.35974 -0.7491393,-0.15689 -1.59728349,0.0457 -2.54113295,0.6047 -1.02305345,0.60469 -1.65338645,1.28129 -1.89099885,2.03307 -0.2376125,0.75178 -0.1419075,1.49049 0.2970155,2.21611 0.2178113,0.35955 0.5049264,0.67661 0.86464521,0.95444 0.35971878,0.27783 0.72273775,0.48375 1.08245665,0.6243 l 1.08905674,-0.64392 -1.18476181,-1.96116 z m 8.00291901,0.87272 1.4487754,1.40223 -3.7885982,3.84388 c -0.6039315,0.61123 -0.9735505,1.02307 -1.1154579,1.2388 -0.2244119,0.34974 -0.3102166,0.72564 -0.2541137,1.12114 0.056104,0.40203 0.2871154,0.79426 0.6864363,1.17996 0.4059211,0.39224 0.792041,0.6047 1.1649605,0.64066 0.3696197,0.0327 0.6963368,-0.0523 0.9768514,-0.25169 0.2805145,-0.20266 0.6996367,-0.58181 1.2507652,-1.14401 l 3.871102,-3.9256 1.452077,1.40224 -3.676393,3.72948 c -0.8382435,0.8531 -1.4718768,1.41857 -1.8975987,1.69313 -0.4257225,0.27456 -0.8613455,0.43473 -1.3101689,0.47395 -0.4488235,0.0426 -0.9174477,-0.0392 -1.4091735,-0.23207 -0.4950263,-0.19612 -1.0230536,-0.56547 -1.5873832,-1.11133 -0.6831359,-0.66026 -1.1220587,-1.23554 -1.3200689,-1.73236 -0.1980103,-0.49683 -0.2739143,-0.96751 -0.2343124,-1.41858 0.042903,-0.44779 0.1650086,-0.84002 0.3729194,-1.17669 0.306916,-0.49683 0.8514449,-1.14401 1.6335852,-1.93829 l 3.7324956,-3.78831 z m 9.309787,18.90889 -1.900899,-1.06557 0.369619,-2.38608 -3.494883,-1.95789 -1.844797,1.55913 -1.864597,-1.04597 8.309835,-6.7366 1.864598,1.0427 -1.435575,10.58374 z m -1.270567,-5.22977 0.613832,-3.8733 -2.999857,2.53644 z m 3.521285,5.91291 2.029606,-9.70776 4.168118,0.85637 c 1.046155,0.21573 1.791994,0.46088 2.227617,0.73217 0.442223,0.2713 0.755739,0.66026 0.947149,1.16362 0.191411,0.50664 0.227713,1.04269 0.108905,1.61796 -0.151808,0.7289 -0.491725,1.28783 -1.023054,1.67353 -0.531328,0.38569 -1.237565,0.55239 -2.118711,0.5001 0.37622,0.3334 0.669936,0.6766 0.884447,1.02961 0.217812,0.35301 0.481825,0.9577 0.792042,1.80754 l 0.798642,2.13766 -2.366225,-0.48701 -0.976851,-2.40897 c -0.349818,-0.85637 -0.600632,-1.40223 -0.749139,-1.63757 -0.145207,-0.23207 -0.316817,-0.40858 -0.511526,-0.52298 -0.198012,-0.11436 -0.521429,-0.219 -0.980152,-0.31378 l -0.402622,-0.0817 -0.848144,4.05307 -1.983403,-0.40857 z m 3.154966,-5.19055 1.465275,0.30072 c 0.950451,0.19611 1.547781,0.27456 1.801894,0.24514 0.250814,-0.0294 0.468625,-0.13075 0.640234,-0.29744 0.17491,-0.1667 0.293716,-0.39551 0.353119,-0.68968 0.06931,-0.32686 0.033,-0.60796 -0.099,-0.84658 -0.132006,-0.2386 -0.356418,-0.4151 -0.663334,-0.53278 -0.158408,-0.0555 -0.636934,-0.16669 -1.435576,-0.33012 l -1.544481,-0.31706 -0.514827,2.4678 z m 16.982688,6.63527 -2.178114,0.14708 -1.016454,-2.19322 -4.006409,0.27129 -0.673235,2.30763 -2.138512,0.14383 3.194567,-10.1523 2.135211,-0.14381 z m -3.966808,-3.67391 -1.640186,-3.56606 -1.095657,3.75237 z m 6.260428,3.30129 -3.326575,-9.35148 1.851398,-0.64718 6.11522,4.90944 -2.227617,-6.26592 1.765593,-0.61776 3.326573,9.35148 -1.9108,0.66679 -6.012914,-4.81139 2.184714,6.14498 -1.765592,0.61778 z m 12.405351,-5.29514 -4.405732,-6.98829 -2.514732,1.55587 -0.894347,-1.42185 6.735652,-4.1642 0.894347,1.42184 -2.50153,1.54605 4.405732,6.98829 z m 6.412234,-4.63816 -7.29338,-6.7889 5.072362,-5.34744 1.234264,1.14729 -3.686293,3.8831 1.62039,1.50683 3.425578,-3.61181 1.234263,1.14728 -3.425579,3.61182 1.976801,1.84022 3.818302,-4.02693 1.234263,1.14729 -5.207668,5.48798 z m 6.923762,-7.86753 -8.804863,-4.71333 3.521289,-6.4555 1.488378,0.79754 -2.557638,4.69045 1.957003,1.04596 2.379423,-4.36032 1.488379,0.79754 -2.379423,4.36031 2.386026,1.27803 2.650035,-4.86042 1.48838,0.79754 -3.613686,6.62546 z m -52.93477,-54.61842 1.32997,-0.6766 c 0.861345,-0.438 1.379471,-0.74524 1.557681,-0.92829 0.174909,-0.17978 0.280515,-0.39223 0.310217,-0.63084 0.02971,-0.23861 -0.0231,-0.49029 -0.16171,-0.75504 -0.155107,-0.29745 -0.356418,-0.49357 -0.613832,-0.59817 -0.254113,-0.10129 -0.541228,-0.10129 -0.854745,-0.003 -0.158408,0.0555 -0.600631,0.26475 -1.329968,0.63411 l -1.402574,0.71255 1.15836,2.24226 z m 10.049026,1.85656 -1.263966,-9.83523 7.349484,-0.92502 0.214512,1.66046 -5.339679,0.67333 0.280513,2.18343 4.96346,-0.62431 0.214512,1.66046 -4.96346,0.6243 0.343218,2.66392 5.534389,-0.69622 0.214511,1.66045 -7.544194,0.95117 z m 18.190552,0.59489 -2.148413,-0.37916 -0.452123,-2.373 -3.950307,-0.69948 -1.217764,2.07555 -2.10881,-0.37261 5.583892,-9.08346 2.10881,0.37262 2.188015,10.45627 z m -2.950355,-4.51721 -0.719438,-3.85368 -1.980103,3.37646 z m 3.983309,5.15786 4.524536,-8.75006 1.805195,0.91521 -3.752297,7.25957 4.468434,2.26515 -0.77224,1.49049 -6.270328,-3.18036 z m -46.4763327,18.07213 1.2771669,3.27841 3.5443855,0.18957 -2.75234416,2.21613 0.91084774,3.39608 -2.98005598,-1.90887 -2.9800559,1.90887 0.9108477,-3.39608 -2.7523438,-2.21613 3.5443851,-0.18957 z m 70.2474757,0 1.277167,3.27841 3.544387,0.18957 -2.752343,2.21613 0.910843,3.39608 -2.980054,-1.90887 -2.980057,1.90887 0.910848,-3.39608 -2.752343,-2.21613 3.544387,-0.18957 z M 32.839142,233.44931 c 15.771526,0 28.556395,12.66258 28.556395,28.28326 0,15.62068 -12.784869,28.28326 -28.556395,28.28326 -15.771524,0 -28.5563939,-12.66258 -28.5563939,-28.28326 0,-15.62068 12.7848699,-28.28326 28.5563939,-28.28326 z"
       id="path13956"
       style="clip-rule:evenodd;fill:#000000;fill-rule:evenodd;stroke-width:0.328435;image-rendering:optimizeQuality;shape-rendering:geometricPrecision;text-rendering:geometricPrecision" /><path
       class="fil4"
       d="M 16.037963,268.19133 H 13.48693 v -9.56721 c -0.930649,0.86618 -2.029607,1.5101 -3.296873,1.92522 v -2.30764 c 0.666635,-0.21574 1.392673,-0.62431 2.171513,-1.22899 0.782142,-0.60144 1.316769,-1.30745 1.607184,-2.11152 h 2.07251 v 13.28688 z m 8.154726,-13.28688 c 1.290368,0 2.300221,0.45761 3.029559,1.37608 0.867945,1.08191 1.300269,2.88291 1.300269,5.39321 0,2.50702 -0.438924,4.30802 -1.310169,5.403 -0.722738,0.9054 -1.729291,1.35648 -3.022958,1.35648 -1.296968,0 -2.343123,-0.49684 -3.138464,-1.48723 -0.795342,-0.99038 -1.191363,-2.7587 -1.191363,-5.2984 0,-2.49394 0.438923,-4.29168 1.310168,-5.38666 0.722738,-0.90542 1.729291,-1.35648 3.022958,-1.35648 z m 0,2.10499 c -0.303615,0 -0.577529,0.0981 -0.815141,0.29417 -0.237613,0.19284 -0.425723,0.54585 -0.55443,1.05249 -0.174909,0.65372 -0.260713,1.76178 -0.260713,3.31436 0,1.55587 0.07921,2.6247 0.234312,3.20651 0.155108,0.58181 0.349818,0.96751 0.587431,1.16362 0.237613,0.19284 0.504926,0.28764 0.811842,0.28764 0.303617,0 0.57753,-0.0981 0.815143,-0.29417 0.237612,-0.19286 0.422422,-0.54586 0.554428,-1.0525 0.17491,-0.65044 0.260715,-1.75197 0.260715,-3.3111 0,-1.55258 -0.0759,-2.62142 -0.234313,-3.20323 -0.155108,-0.58181 -0.349819,-0.97078 -0.58743,-1.16689 -0.234313,-0.19612 -0.504926,-0.29418 -0.811844,-0.29418 z m 10.362543,-2.10499 c 1.290368,0 2.300221,0.45761 3.029559,1.37608 0.867945,1.08191 1.300268,2.88291 1.300268,5.39321 0,2.50702 -0.438923,4.30802 -1.310168,5.403 -0.722738,0.9054 -1.729291,1.35648 -3.022959,1.35648 -1.296967,0 -2.343122,-0.49684 -3.138464,-1.48723 -0.795341,-0.99038 -1.191362,-2.7587 -1.191362,-5.2984 0,-2.49394 0.438923,-4.29168 1.310168,-5.38666 0.722738,-0.90542 1.729291,-1.35648 3.022958,-1.35648 z m 0,2.10499 c -0.303615,0 -0.57753,0.0981 -0.815143,0.29417 -0.237612,0.19284 -0.425721,0.54585 -0.554428,1.05249 -0.17491,0.65372 -0.260714,1.76178 -0.260714,3.31436 0,1.55587 0.07921,2.6247 0.234312,3.20651 0.155109,0.58181 0.349819,0.96751 0.587432,1.16362 0.237611,0.19284 0.504926,0.28764 0.811841,0.28764 0.303617,0 0.57753,-0.0981 0.815144,-0.29417 0.237611,-0.19286 0.422421,-0.54586 0.554428,-1.0525 0.174909,-0.65044 0.260714,-1.75197 0.260714,-3.3111 0,-1.55258 -0.0759,-2.62142 -0.234312,-3.20323 -0.155108,-0.58181 -0.349819,-0.97078 -0.58743,-1.16689 -0.234313,-0.19612 -0.504927,-0.29418 -0.811844,-0.29418 z m 6.049217,1.20938 c 0,-1.17997 0.264013,-2.05595 0.788741,-2.6247 0.524727,-0.56873 1.237565,-0.85637 2.131912,-0.85637 0.927348,0 1.656686,0.28437 2.181414,0.84984 0.524727,0.56547 0.785441,1.44145 0.785441,2.63123 0,1.17997 -0.260714,2.05594 -0.785441,2.62469 -0.524728,0.56873 -1.237565,0.85637 -2.135212,0.85637 -0.927348,0 -1.653387,-0.28437 -2.178114,-0.84984 -0.524728,-0.56546 -0.788741,-1.44144 -0.788741,-2.63122 z m 1.993304,0 c 0,0.85311 0.099,1.42511 0.300316,1.71601 0.151808,0.21574 0.363019,0.32361 0.630333,0.32361 0.273914,0 0.488426,-0.10789 0.640233,-0.32361 0.19471,-0.2909 0.290416,-0.8629 0.290416,-1.71601 0,-0.8531 -0.09571,-1.42184 -0.290416,-1.70622 -0.151807,-0.22226 -0.366319,-0.33339 -0.640233,-0.33339 -0.267314,0 -0.478525,0.10788 -0.630333,0.32359 -0.201311,0.29091 -0.300316,0.86292 -0.300316,1.71602 z m 2.877751,10.49223 h -1.890999 l 7.101972,-13.97003 h 1.851396 z m 4.128516,-3.48434 c 0,-1.18323 0.264013,-2.06249 0.788741,-2.63123 0.524727,-0.57201 1.240865,-0.85965 2.151712,-0.85965 0.917449,0 1.636886,0.28438 2.161614,0.85965 0.524728,0.572 0.785442,1.448 0.785442,2.63123 0,1.19304 -0.260714,2.0723 -0.785442,2.64431 -0.524728,0.572 -1.237565,0.85963 -2.135212,0.85963 -0.927349,0 -1.653387,-0.28437 -2.178114,-0.85963 -0.524728,-0.57201 -0.788741,-1.45127 -0.788741,-2.64431 z m 1.993304,0.007 c 0,0.85965 0.099,1.43493 0.300315,1.72255 0.151809,0.22555 0.363019,0.33667 0.630334,0.33667 0.273915,0 0.485125,-0.10789 0.630332,-0.32685 0.201311,-0.29091 0.300317,-0.86945 0.300317,-1.73237 0,-0.85964 -0.09571,-1.43818 -0.290415,-1.73236 -0.151808,-0.21899 -0.366319,-0.32686 -0.640234,-0.32686 -0.273915,0 -0.485126,0.10789 -0.630334,0.32686 -0.20131,0.2909 -0.300315,0.86946 -0.300315,1.73236 z"
       id="path13958"
       style="clip-rule:evenodd;fill:#000000;fill-rule:nonzero;stroke-width:0.328435;image-rendering:optimizeQuality;shape-rendering:geometricPrecision;text-rendering:geometricPrecision" /><path
       class="fil5"
       d="m 20.430493,279.67395 0.650134,-1.67026 1.805195,-0.0981 -1.402574,-1.12766 0.465325,-1.7291 -1.51808,0.97078 -1.518079,-0.97078 0.465324,1.7291 -1.402573,1.12766 1.805195,0.0981 z m 12.411949,-43.04755 1.277168,3.27841 3.544385,0.18958 -2.752344,2.21612 0.910848,3.39609 -2.980057,-1.90888 -2.980055,1.90888 0.910847,-3.39609 -2.752343,-2.21612 3.544385,-0.18958 z m -12.411949,6.84773 0.650134,1.67025 1.805195,0.0981 -1.402574,1.12766 0.465325,1.7291 -1.51808,-0.97077 -1.518079,0.97077 0.465324,-1.7291 -1.402573,-1.12766 1.805195,-0.0981 z m 24.823899,0 0.650134,1.67025 1.805195,0.0981 -1.402574,1.12766 0.465325,1.7291 -1.51808,-0.97077 -1.518079,0.97077 0.465324,-1.7291 -1.402573,-1.12766 1.805194,-0.0981 z m 0,36.19982 0.650134,-1.67026 1.805195,-0.0981 -1.402574,-1.12766 0.465325,-1.7291 -1.51808,0.97078 -1.518079,-0.97078 0.465324,1.7291 -1.402573,1.12766 1.805194,0.0981 z m -12.41195,6.84773 1.277168,-3.27841 3.544385,-0.18957 -2.752344,-2.21613 0.910848,-3.39608 -2.980057,1.90887 -2.980055,-1.90887 0.910847,3.39608 -2.752343,2.21613 3.544385,0.18957 z"
       id="path13960"
       style="clip-rule:evenodd;fill:url(#id1);fill-rule:evenodd;stroke-width:0.328435;image-rendering:optimizeQuality;shape-rendering:geometricPrecision;text-rendering:geometricPrecision" /></g></svg>
