<?xml version="1.0" encoding="UTF-8" standalone="no"?>
<svg
   xmlns:dc="http://purl.org/dc/elements/1.1/"
   xmlns:cc="http://creativecommons.org/ns#"
   xmlns:rdf="http://www.w3.org/1999/02/22-rdf-syntax-ns#"
   xmlns:svg="http://www.w3.org/2000/svg"
   xmlns="http://www.w3.org/2000/svg"
   xmlns:sodipodi="http://sodipodi.sourceforge.net/DTD/sodipodi-0.dtd"
   xmlns:inkscape="http://www.inkscape.org/namespaces/inkscape"
   version="1.1"
   id="svg487"
   width="2182.9624"
   height="2594.4417"
   viewBox="0 0 2182.9624 2594.4417"
   sodipodi:docname="акробатика.svg"
   inkscape:version="1.0 (4035a4fb49, 2020-05-01)">
  <metadata
     id="metadata493">
    <rdf:RDF>
      <cc:Work
         rdf:about="">
        <dc:format>image/svg+xml</dc:format>
        <dc:type
           rdf:resource="http://purl.org/dc/dcmitype/StillImage" />
        <dc:title></dc:title>
      </cc:Work>
    </rdf:RDF>
  </metadata>
  <defs
     id="defs491" />
  <sodipodi:namedview
     inkscape:document-rotation="0"
     pagecolor="#ffffff"
     bordercolor="#666666"
     borderopacity="1"
     objecttolerance="10"
     gridtolerance="10"
     guidetolerance="10"
     inkscape:pageopacity="0"
     inkscape:pageshadow="2"
     inkscape:window-width="1920"
     inkscape:window-height="1018"
     id="namedview489"
     showgrid="false"
     inkscape:zoom="0.3235677"
     inkscape:cx="686.74594"
     inkscape:cy="1257.8511"
     inkscape:window-x="-6"
     inkscape:window-y="-6"
     inkscape:window-maximized="1"
     inkscape:current-layer="g495" />
  <g
     transform="translate(-408.46536,-40.177063)"
     inkscape:groupmode="layer"
     inkscape:label="Image"
     id="g495">
    <path
       id="path134"
       d="m 1504.2979,2631.1608 c -12.1229,-5.2325 -15.0945,-16.9007 -5.0705,-19.909 3.2536,-0.9765 25.6902,-7.3021 49.8592,-14.057 47.6476,-13.3169 64.4974,-19.5158 72.5523,-26.6913 2.8568,-2.5448 12.0392,-6.4384 20.4054,-8.6523 8.3662,-2.2138 16.7324,-5.2615 18.5916,-6.7725 1.8591,-1.511 8.7042,-3.7559 15.2113,-4.9887 22.271,-4.2194 33.8028,-19.0852 33.8028,-43.5756 0,-8.3787 1.7427,-16.3111 3.8726,-17.6274 5.1381,-3.1756 2.0805,-56.3178 -9.4152,-163.6394 -6.6383,-61.9742 -9.0768,-104.085 -9.6891,-167.324 -0.821,-84.7804 -3.66,-111.9067 -17.2976,-165.2752 -2.8,-10.9577 -6.4086,-36.1342 -8.019,-55.9478 -2.6559,-32.6761 -7.9334,-54.2699 -13.2636,-54.2699 -1.1123,0 -6.5724,14.6777 -12.1334,32.6171 -7.7319,24.9422 -12.3024,34.2475 -19.4238,39.5459 -9.2372,6.8726 -9.5252,6.8785 -35.493,0.7336 -47.1596,-11.1597 -58.5947,-15.0848 -68.6866,-23.5766 -8.6961,-7.3173 -11.2742,-7.9217 -20.3279,-4.7656 -15.5355,5.4157 -24.0038,-0.1487 -31.0925,-20.4298 -3.3425,-9.5632 -11.3016,-22.3899 -17.823,-28.7235 -10.3314,-10.0337 -14.6903,-11.7305 -35.369,-13.7681 -17.4501,-1.7195 -23.5854,-3.6174 -23.5854,-7.2959 0,-2.7345 -2.5361,-5.945 -5.6357,-7.1345 -3.0996,-1.1894 -11.2878,-7.9867 -18.196,-15.1051 -6.9082,-7.1184 -13.407,-12.9426 -14.442,-12.9426 -1.0349,0 -2.4783,5.7042 -3.2076,12.676 -0.9197,8.7928 -1.6032,5.9451 -2.2311,-9.2957 -0.6356,-15.4276 -1.6151,-19.4548 -3.2885,-13.5212 -2.3498,8.3315 -2.4406,8.288 -6.4389,-3.0833 -7.5225,-21.3943 -8.2378,-7.6303 -0.8649,16.6433 7.1134,23.4193 7.1624,24.837 1.8394,53.2437 -5.3378,28.4862 -12.825,51.5062 -16.7522,51.5062 -1.0762,0 -1.1324,-10.2676 -0.125,-22.8169 l 1.8318,-22.8169 -11.595,34.2008 c -10.3599,30.558 -27.2445,68.8978 -30.342,68.8978 -0.6406,0 4.8151,-14.831 12.1238,-32.9577 17.5778,-43.596 29.7531,-86.2022 29.5699,-103.4768 -0.082,-7.6934 -2.4488,-20.0725 -5.2605,-27.5092 -2.8117,-7.4366 -6.5199,-17.9775 -8.2406,-23.4243 -1.7207,-5.4467 -4.8373,-10.9593 -6.9259,-12.2501 -2.1487,-1.328 -5.0297,-18.9979 -6.6354,-40.6963 -4.5396,-61.3441 5.6055,-120.0522 23.9084,-138.3551 3.6754,-3.6754 6.6826,-7.8758 6.6826,-9.3341 0,-1.4583 4.2708,-5.1742 9.4906,-8.2577 10.0576,-5.9412 42.1167,-44.5258 39.3195,-47.3229 -0.9072,-0.9073 0.6689,-3.5737 3.5026,-5.9255 8.0753,-6.7018 6.1882,-12.2002 -8.0601,-23.485 l -13.2121,-10.4643 4.747,-20.3487 c 9.0615,-38.8431 26.5815,-61.5226 51.0764,-66.1179 15.6358,-2.9333 72.4855,15.122 91.9033,29.1882 14.8533,10.7597 49.0535,51.7485 52.4675,62.8821 1.6389,5.3445 8.5005,9.237 26.4659,15.0137 19.3548,6.2233 27.1186,10.8747 38.4388,23.0287 l 14.1854,15.2303 7.5334,-16.0265 c 4.1453,-8.8189 14.3133,-21.6606 22.6088,-28.5538 25.5789,-21.2552 75.3077,-71.5289 75.3077,-76.133 0,-2.4001 5.2537,-9.4559 11.6748,-15.6795 6.4211,-6.2236 12.664,-15.8197 13.8731,-21.3247 1.2091,-5.505 7.4977,-15.8747 13.9746,-23.0439 11.1189,-12.3072 11.5592,-13.6923 7.889,-24.8131 -3.3825,-10.2492 -2.5886,-15.8583 6.1148,-43.205 5.5011,-17.2847 12.6261,-40.8807 15.8334,-52.4357 l 5.8313,-21.0091 -9.7082,-27.4977 c -8.625,-24.4298 -11.1224,-28.222 -22.3842,-33.9892 -6.9718,-3.5703 -12.6761,-7.8557 -12.6761,-9.523 0,-1.6673 -7.7815,-4.7003 -17.2922,-6.74 -9.5108,-2.0397 -21.2995,-6.5151 -26.1972,-9.9453 -4.8977,-3.4302 -17.2711,-8.9092 -27.4965,-12.1756 -24.9383,-7.9663 -46.4607,-21.9682 -66.5217,-43.2775 -22.2456,-23.6296 -33.5314,-40.6331 -60.0207,-90.4288 -12.2796,-23.08365 -27.2395,-47.11028 -33.2442,-53.39247 -17.2863,-18.08518 -53.6454,-46.69373 -116.6169,-91.75829 -34.8413,-24.93357 -75.7243,-58.07064 -101.4085,-82.19513 -49.4529,-46.44971 -80.4463,-69.64118 -114.019,-85.3171 -28.0649,-13.10417 -119.4744,-45.54463 -128.3339,-45.54463 -9.1294,0 -91.79321,-43.75474 -129.59926,-68.59816 -18.0241,-11.84413 -44.17954,-30.66 -58.1232,-41.8131 -28.71827,-22.97081 -129.92471,-116.83251 -160.56675,-148.91409 -11.15678,-11.68092 -22.0222,-21.23804 -24.14539,-21.23804 -5.09102,0 -7.96392,8.02583 -7.96392,22.24831 0,12.02579 -7.57748,16.34964 -11.36325,6.48409 -1.07014,-2.78874 -4.65541,-5.06765 -7.96728,-5.06427 -5.22047,0.007 -5.87199,-2.63774 -4.89719,-19.86681 l 1.12439,-19.87297 -38.30749,0.43019 c -34.81595,0.39098 -39.28978,-0.27046 -49.0847,-7.257 -6.20456,-4.42561 -14.6016,-15.89933 -19.79087,-27.04226 -4.95752,-10.64528 -10.74499,-22.98791 -12.86104,-27.42807 -3.5226,-7.39158 -38.96261,-38.80501 -76.5941,-67.89173 -8.35343,-6.45667 -18.20407,-15.51287 -21.8903,-20.1249 -3.68622,-4.61203 -10.91158,-12.69161 -16.05633,-17.95462 -9.67227,-9.89458 -12.54095,-22.75507 -5.12875,-22.99249 2.32394,-0.0744 -0.0616,-2.45911 -5.30118,-5.29928 -7.21025,-3.90838 -9.35248,-7.36847 -8.81068,-14.23086 0.39372,-4.9868 -0.21787,-11.3486 -1.35909,-14.13733 -1.14122,-2.78873 -3.63757,-8.87324 -5.54745,-13.52113 -1.90988,-4.64788 -5.32723,-11.04524 -7.59411,-14.21633 -3.2394,-4.531542 -3.24113,-8.200541 -0.008,-17.141406 2.26244,-6.256672 4.11353,-15.112412 4.11353,-19.679418 0,-8.951947 8.4829,-23.329043 13.76481,-23.329043 1.78233,0 11.20312,5.240605 20.93508,11.645788 19.40774,12.773383 50.53483,26.64819 72.07942,32.129189 8.31673,2.115796 21.40961,10.156364 32.87369,20.18832 20.51974,17.95636 92.08935,70.6478 121.60404,89.52813 9.96204,6.37263 37.77572,31.14004 61.80817,55.03867 61.68036,61.3369 105.65154,89.90773 232.99115,151.38895 35.32395,17.05487 81.71835,40.66675 103.09865,52.4708 21.3803,11.80408 46.9864,25.94396 56.9025,31.42198 10.8411,5.98901 59.9312,21.9934 123.1275,40.14206 101.9599,29.28078 155.4344,47.10805 183.3503,61.12517 7.4366,3.73406 33.5161,18.66554 57.9543,33.18108 51.4921,30.58458 91.5953,51.08329 160.0739,81.82171 26.9577,12.10067 66.3518,30.53253 87.5424,40.95969 21.1906,10.42715 40.3744,18.95848 42.6307,18.95848 2.2563,0 16.8622,-5.87223 32.4576,-13.04938 63.6354,-29.28571 125.6453,-36.53713 219.8646,-25.71093 42.1431,4.84242 91.2648,14.91942 128.7765,26.41768 8.8333,2.70761 16.8173,3.69837 17.7423,2.20168 2.3468,-3.79707 -22.4447,-35.89612 -59.7163,-77.3184 -17.3532,-19.28573 -35.3542,-40.07997 -40.0021,-46.2094 -13.3312,-17.58081 -28.672,-28.58478 -39.8502,-28.58478 -14.0855,0 -53.0998,12.47284 -58.1868,18.60227 -2.3096,2.78285 -9.406,5.0597 -15.7699,5.0597 -23.1795,0 -40.5173,-28.77924 -45.5529,-75.61403 -5.5048,-51.19859 -6.0621,-52.68669 -25.4193,-67.87403 -9.6003,-7.53228 -24.5319,-18.06287 -33.1813,-23.40135 -15.3626,-9.48196 -20.4501,-14.2084 -57.2941,-53.22757 -18.9874,-20.10832 -22.9029,-30.93762 -18.0113,-49.81479 3.2568,-12.56863 10.8151,-16.81677 19.8649,-11.16509 3.4468,2.15257 10.1094,3.91376 14.8058,3.91376 4.6963,0 31.717,11.61435 60.0458,25.80967 28.3289,14.19532 61.1988,29.46304 73.0443,33.92826 26.935,10.15332 38.2616,15.82279 59.5896,29.82733 9.2957,6.10385 31.4056,19.48925 49.1331,29.74537 17.7274,10.25611 44.3471,28.73831 59.1549,41.07154 30.5141,25.41481 103.0825,75.13004 170.5852,116.86455 54.805,33.88398 81.6493,53.7839 157.1831,116.52092 31.6056,26.2511 65.3787,53.42691 75.0513,60.39069 25.7619,18.54734 46.9487,43.75565 55.2387,65.7235 14.1312,37.44696 2.9506,94.63731 -24.276,124.17468 -25.4177,27.57487 -65.4777,39.55117 -154.2733,46.12127 -53.4334,3.9536 -112.1317,2.4606 -272.0268,-6.9191 -35.9075,-2.1064 -36.3423,-2.0423 -36.338,5.3556 0,4.1181 2.3682,14.45 5.2573,22.9596 2.8891,8.5097 4.4095,18.1296 3.3786,21.3775 -1.0308,3.248 10.3354,43.8739 25.2583,90.2798 50.31,156.45 51.3133,160.4996 49.7946,200.9942 -1.1803,31.4694 -2.7851,39.1334 -14.157,67.6057 -18.8166,47.1119 -24.7495,72.6389 -21.6048,92.9577 3.2279,20.8567 1.2051,32.9927 -11.3189,67.9085 -10.6127,29.5872 -37.3819,65.6832 -55.6681,75.0635 -5.3174,2.7277 -14.2326,9.8607 -19.8116,15.8511 -8.4009,9.0205 -13.6275,11.3217 -30.4225,13.3949 -11.1535,1.3768 -28.6452,4.5066 -38.8705,6.9552 -10.2254,2.4485 -22.5898,5.3301 -27.4764,6.4034 l -8.8849,1.9516 4.7975,21.1655 c 3.0532,13.4703 5.9096,58.0346 7.8563,122.5739 3.1712,105.1347 9.7242,188.9496 18.6142,238.0813 2.8367,15.677 4.4448,30.8883 3.5736,33.8028 -0.8712,2.9145 -3.2491,28.1159 -5.2842,56.0033 -4.3537,59.6589 -10.6481,101.0463 -33.4324,219.8252 l -16.8381,87.7804 3.0241,47.2872 c 2.7122,42.4073 2.4111,48.3374 -2.9168,57.4648 l -5.941,10.1776 -67.4192,4.1779 c -37.0806,2.2979 -75.7854,5.8533 -86.0108,7.9009 -18.9976,3.8043 -27.7566,4.4587 -45.6338,3.4097 -5.5774,-0.3272 -17.3792,0.024 -26.2261,0.7784 -8.8468,0.7554 -23.0757,-0.2261 -31.6196,-2.1813 -12.0128,-2.7489 -23.6925,-2.2729 -51.5205,2.0998 -52.2888,8.2162 -100.9951,9.9565 -114.5774,4.094 z m 315.6989,-83.4512 c 12.5879,-4.5519 16.6926,-11.5094 10.9047,-18.4835 -2.9734,-3.5827 -2.9868,-6.8246 -0.054,-13.2601 11.0512,-24.2546 16.1994,-157.458 8.7429,-226.2114 -9.0504,-83.4514 -9.7374,-120.0309 -3.1413,-167.2611 5.8771,-42.0818 5.8599,-42.9066 -3.0878,-148.7952 l -8.9976,-106.4789 -13.7091,-28.1546 c -7.5399,-15.485 -14.2523,-27.6113 -14.9162,-26.9473 -0.664,0.6639 0.3548,7.249 2.264,14.6334 1.9092,7.3844 4.7393,48.4122 6.2891,91.1727 2.8819,79.5148 9.5907,152.624 18.146,197.7465 3.5165,18.5471 4.4933,45.3135 3.6391,99.7183 -1.04,66.2329 -3.0085,88.0248 -17.9994,199.2512 -11.7009,86.8164 -15.8364,126.7447 -13.5666,130.9859 3.8114,7.1217 10.1273,7.6381 25.4868,2.0841 z"
       style="fill:#000000;stroke-width:3.38028" />
  </g>
</svg>
