<?xml version="1.0" encoding="UTF-8" standalone="no"?>
<svg
   xmlns:dc="http://purl.org/dc/elements/1.1/"
   xmlns:cc="http://creativecommons.org/ns#"
   xmlns:rdf="http://www.w3.org/1999/02/22-rdf-syntax-ns#"
   xmlns:svg="http://www.w3.org/2000/svg"
   xmlns="http://www.w3.org/2000/svg"
   xmlns:sodipodi="http://sodipodi.sourceforge.net/DTD/sodipodi-0.dtd"
   xmlns:inkscape="http://www.inkscape.org/namespaces/inkscape"
   version="1.1"
   id="svg402"
   width="121.6853"
   height="213.20418"
   viewBox="0 0 121.6853 213.20418"
   sodipodi:docname="художественная.svg"
   inkscape:version="1.0 (4035a4fb49, 2020-05-01)">
  <metadata
     id="metadata408">
    <rdf:RDF>
      <cc:Work
         rdf:about="">
        <dc:format>image/svg+xml</dc:format>
        <dc:type
           rdf:resource="http://purl.org/dc/dcmitype/StillImage" />
        <dc:title></dc:title>
      </cc:Work>
    </rdf:RDF>
  </metadata>
  <defs
     id="defs406" />
  <sodipodi:namedview
     inkscape:document-rotation="0"
     pagecolor="#ffffff"
     bordercolor="#666666"
     borderopacity="1"
     objecttolerance="10"
     gridtolerance="10"
     guidetolerance="10"
     inkscape:pageopacity="0"
     inkscape:pageshadow="2"
     inkscape:window-width="1920"
     inkscape:window-height="1018"
     id="namedview404"
     showgrid="false"
     inkscape:zoom="2.1"
     inkscape:cx="-49.86234"
     inkscape:cy="33.363071"
     inkscape:window-x="-6"
     inkscape:window-y="-6"
     inkscape:window-maximized="1"
     inkscape:current-layer="g410" />
  <g
     transform="translate(-130.14584,15.891828)"
     inkscape:groupmode="layer"
     inkscape:label="Image"
     id="g410">
    <path
       id="path176"
       d="m 197.69495,197.16228 c -3.73186,-0.56646 -5.0719,-1.47188 -6.00243,-4.05565 -1.25552,-3.48617 -2.20091,-4.56229 -6.36862,-7.24934 -2.29182,-1.4776 -3.90352,-3.29692 -3.90352,-4.40637 0,-0.41066 0.34545,-1.66994 0.76767,-2.7984 1.17626,-3.14382 1.0551,-5.00784 -0.90146,-13.86755 -1.75502,-7.94714 -2.04628,-8.84492 -3.49191,-10.76339 -2.13328,-2.83105 -2.25354,-3.24709 -2.26901,-7.84905 -0.0255,-7.58651 0.24244,-25.95706 0.61327,-42.05015 0.4371,-18.968669 0.22719,-22.832241 -1.418,-26.100546 -0.85446,-1.697459 -1.01839,-2.409364 -1.25314,-5.442166 -0.14854,-1.919081 -0.66012,-6.954233 -1.13684,-11.189225 l -0.86675,-7.69999 0.68906,-5.082693 c 0.37898,-2.79548 0.61854,-5.186412 0.53236,-5.313183 -0.0862,-0.126771 -1.29973,-0.317602 -2.69676,-0.424071 -3.25012,-0.247691 -10.48096,-1.14887 -14.82275,-1.847354 -6.16358,-0.991563 -16.56558,-3.093578 -17.65232,-3.567146 -1.67677,-0.730677 -4.87763,-5.030212 -6.63209,-8.908508 -0.82118,-1.815247 -0.98683,-4.933923 -0.3357,-6.320131 0.36825,-0.78397 0.38004,-0.766222 0.44907,0.675827 0.0949,1.982658 0.54808,3.434658 1.67546,5.368176 0.9651,1.655195 3.88158,4.533822 4.88747,4.824043 0.31123,0.0898 0.56588,0.395933 0.56588,0.680301 0,0.511304 0.49973,0.715749 4.1454,1.695923 0.67555,0.181625 4.33733,0.434014 8.13729,0.56086 9.78779,0.32673 19.10209,0.742307 21.84745,0.974774 l 2.34867,0.198875 0.19329,-2.481038 c 0.50553,-6.488856 1.19439,-8.542901 3.53145,-10.53012 0.79585,-0.676722 5.65185,-3.779992 10.7911,-6.89615 10.32067,-6.257894 16.23591,-10.4012438 18.06819,-12.6559272 0.6623,-0.8149836 1.63758,-1.6449813 2.1673,-1.8444393 0.77749,-0.2927566 0.94519,-0.5020704 0.87013,-1.086038 -0.0849,-0.6601327 0.2158,-0.87490706 3.43829,-2.45620282 2.77111,-1.35980008 4.22534,-2.31390998 6.75549,-4.43224368 5.14813,-4.3102169 13.96964,-9.352066 18.00775,-10.292164 2.24867,-0.523503 4.14588,-0.566012 4.65381,-0.104274 1.04688,0.951665 -9.2e-4,2.198329 -4.1538,4.941736 -2.65613,1.7546927 -4.77189,3.8291127 -5.81625,5.7026105 -0.42132,0.755805 -1.15492,2.7553564 -1.63024,4.44344712 -1.20156,4.26738578 -1.40007,4.42540108 -5.85976,4.66442708 -3.09243,0.1657461 -3.50216,0.2500743 -4.0156,0.8264744 -1.18845,1.3341829 -0.4499,2.7426908 2.0869,3.9799803 0.8177,0.3988227 3.62852,1.3790276 6.24627,2.1782336 8.6022,2.626277 16.92404,6.027229 19.56892,7.997387 1.96236,1.461757 2.33872,2.314314 2.32483,5.266333 -0.0171,3.627962 -0.73579,6.521741 -3.22379,12.979967 -1.66534,4.32279 -5.39248,12.157623 -7.17068,15.07351 -0.79582,1.304975 -1.64962,2.875132 -1.89734,3.489238 -0.73048,1.810887 -0.5763,4.418454 0.42086,7.118047 0.75735,2.050368 0.87486,2.789794 0.86501,5.443212 -0.0101,2.725832 -0.12413,3.368223 -1.01555,5.722351 -2.40433,6.349521 -5.55078,11.119106 -9.76863,14.807909 -3.22963,2.824527 -4.61768,3.474561 -10.08332,4.722084 -2.19553,0.501125 -5.30458,1.412014 -6.90901,2.024197 -1.60443,0.612185 -4.39425,1.470666 -6.19962,1.907734 -4.99565,1.209426 -7.03197,2.337053 -8.20785,4.545183 -0.35051,0.6582 -0.97946,2.75928 -1.39767,4.66906 -0.63305,2.89092 -1.15189,4.26693 -3.09857,8.21771 -2.54298,5.16097 -3.13063,6.90526 -4.09861,12.16559 -0.94187,5.11846 -1.30111,9.59405 -0.9642,12.01247 0.15792,1.13356 0.78109,8.46725 1.38482,16.2971 0.83294,10.8026 1.32196,15.48158 2.02758,19.40017 1.05578,5.86316 2.75653,12.57286 3.6549,14.41907 0.34899,0.71719 1.78255,2.35305 3.37901,3.85583 2.77872,2.61569 3.09022,3.09779 2.40437,3.72126 -0.35028,0.31842 -2.58353,0.39348 -4.23753,0.14241 z m 8.28474,-126.4668 c -0.0123,-0.986386 -0.63647,-4.446686 -1.12035,-6.210845 -1.00181,-3.652476 -2.4052,-5.863768 -4.6792,-7.372925 -1.82593,-1.211796 -7.52395,-4.071777 -8.11231,-4.071777 -1.10407,0 -1.51151,4.029448 -0.6684,6.610284 0.62685,1.918852 1.25255,2.560378 4.53934,4.654189 1.55701,0.991868 4.21272,2.938961 5.90159,4.326876 3.01584,2.478421 4.15154,3.044769 4.13933,2.064198 z m 25.3853,-22.420216 c 1.68095,-3.402499 1.68037,-3.449202 -0.0399,-3.234854 -3.22067,0.401291 -4.80833,1.661729 -4.17464,3.314213 0.38999,1.016976 2.13609,2.788878 2.6075,2.646032 0.16858,-0.05108 0.89176,-1.277508 1.60706,-2.725391 z m -17.82263,0.180323 c 0.22113,-0.523851 -0.63198,-3.512817 -1.38035,-4.836193 -0.3257,-0.575948 -1.75562,-2.206784 -3.17761,-3.624085 -3.46425,-3.452822 -4.33246,-5.04469 -4.54172,-8.327235 -0.13852,-2.172902 -0.31187,-2.798121 -1.22827,-4.429878 -0.58684,-1.044946 -1.21811,-1.953569 -1.40282,-2.019158 -0.49181,-0.174644 -3.38443,0.919383 -5.46157,2.065632 -2.69107,1.485045 -5.28724,3.552167 -6.15833,4.903376 -1.56758,2.431578 -1.77114,7.569523 -0.37492,9.462885 1.37479,1.8643 5.07242,3.00784 9.74162,3.012722 2.54672,0.0028 4.73822,0.584699 7.6272,2.025699 1.91469,0.955035 5.06642,2.093258 5.94913,2.148483 0.13197,0.0083 0.3154,-0.163754 0.40764,-0.382248 z m 20.75226,-4.836598 c 1.52143,-1.441915 2.17996,-2.755418 3.25376,-6.489983 0.50765,-1.765555 1.36819,-4.089388 1.9123,-5.164073 2.1496,-4.245669 2.28383,-5.252889 0.95409,-7.158971 -2.55899,-3.668097 -18.18704,-12.687234 -22.55452,-13.016478 -1.85331,-0.139712 -2.78422,0.194297 -5.3064,1.903929 -1.69962,1.152068 -4.41861,4.217783 -4.41861,4.982074 0,0.287084 0.78922,0.892302 2.01037,1.541677 1.7699,0.941182 2.41952,1.114831 5.431,1.451766 2.52906,0.282958 3.90591,0.594502 5.28248,1.195279 3.80806,1.661952 6.79243,4.473184 7.58235,7.142457 0.54081,1.827502 1.12921,2.618311 2.72224,3.658701 1.42066,0.927814 1.48827,1.028125 1.16989,1.735687 -0.34027,0.756216 -0.40321,8.530085 -0.073,9.015796 0.32638,0.480072 0.93933,0.239641 2.03404,-0.797861 z m -92.40469,-9.990831 c -3.76404,-0.921505 -6.76027,-3.108878 -8.39198,-6.126494 -3.21347,-5.942874 -0.68997,-12.790783 5.78558,-15.700096 2.27879,-1.023802 2.42825,-1.051205 5.73345,-1.051205 3.17949,0 3.52429,0.05625 5.46353,0.891328 5.15911,2.221626 8.03264,7.159772 7.23841,12.439154 -0.7166,4.763327 -5.01625,8.792429 -10.34816,9.697018 -2.16557,0.367403 -3.5197,0.330414 -5.48083,-0.149705 z"
       style="fill:#000000;stroke-width:0.29277" />
  </g>
</svg>
