<?xml version="1.0" encoding="UTF-8" standalone="no"?>
<svg
   xmlns:dc="http://purl.org/dc/elements/1.1/"
   xmlns:cc="http://creativecommons.org/ns#"
   xmlns:rdf="http://www.w3.org/1999/02/22-rdf-syntax-ns#"
   xmlns:svg="http://www.w3.org/2000/svg"
   xmlns="http://www.w3.org/2000/svg"
   xmlns:sodipodi="http://sodipodi.sourceforge.net/DTD/sodipodi-0.dtd"
   xmlns:inkscape="http://www.inkscape.org/namespaces/inkscape"
   version="1.1"
   id="svg446"
   width="484.00934"
   height="636.45483"
   viewBox="0 0 484.00934 636.45483"
   sodipodi:docname="чирлидеры.svg"
   inkscape:version="1.0 (4035a4fb49, 2020-05-01)">
  <metadata
     id="metadata452">
    <rdf:RDF>
      <cc:Work
         rdf:about="">
        <dc:format>image/svg+xml</dc:format>
        <dc:type
           rdf:resource="http://purl.org/dc/dcmitype/StillImage" />
        <dc:title></dc:title>
      </cc:Work>
    </rdf:RDF>
  </metadata>
  <defs
     id="defs450" />
  <sodipodi:namedview
     inkscape:document-rotation="0"
     pagecolor="#ffffff"
     bordercolor="#666666"
     borderopacity="1"
     objecttolerance="10"
     gridtolerance="10"
     guidetolerance="10"
     inkscape:pageopacity="0"
     inkscape:pageshadow="2"
     inkscape:window-width="1920"
     inkscape:window-height="1018"
     id="namedview448"
     showgrid="false"
     inkscape:zoom="0.65625"
     inkscape:cx="481.25746"
     inkscape:cy="610.72736"
     inkscape:window-x="-6"
     inkscape:window-y="-6"
     inkscape:window-maximized="1"
     inkscape:current-layer="g454" />
  <g
     transform="translate(574.35761,5.0323156)"
     inkscape:groupmode="layer"
     inkscape:label="Image"
     id="g454">
    <path
       id="path190"
       d="m -316.72034,629.30212 c -6.35625,-2.97618 -16.99318,-15.0269 -24.65615,-27.93324 -3.43425,-5.78415 -8.32755,-12.51259 -10.87399,-14.95211 -10.91524,-10.45692 -11.2778,-11.00927 -13.26695,-20.21134 -2.76163,-12.77561 -15.89657,-37.66582 -21.14035,-40.06014 -2.63848,-1.20474 -4.01863,-2.84189 -4.55469,-5.40284 -1.27931,-6.11159 -5.48131,-14.9085 -7.50266,-15.70682 -1.04552,-0.41294 -1.90095,-2.10367 -1.90095,-3.75719 0,-4.23657 -4.89271,-9.72535 -15.46732,-17.35164 -5.01135,-3.61414 -12.58902,-10.31229 -16.83926,-14.88478 -4.25024,-4.57248 -13.17863,-13.45012 -19.84084,-19.72808 -16.21323,-15.27805 -16.2804,-18.89454 -0.38275,-20.60472 6.61837,-0.71196 7.84421,-0.40195 18.79753,4.75379 16.21079,7.63046 17.05007,7.90461 33.12648,10.82112 18.56807,3.36853 22.96865,5.80002 25.65414,14.17483 2.62206,8.17707 7.92092,4.67116 31.23785,-20.66803 15.2487,-16.5712 28.52823,-27.89074 32.72008,-27.89074 1.47704,0 1.62821,-1.53293 0.93149,-9.44608 -1.56406,-17.7642 -8.90443,-34.50046 -20.84993,-47.53844 -4.33662,-4.73322 -9.11521,-11.30001 -10.6191,-14.59288 -1.50389,-3.29286 -8.22303,-12.64781 -14.93142,-20.78878 -17.99954,-21.84334 -26.56781,-33.91582 -35.71417,-50.32028 -12.44097,-22.31353 -13.78486,-24.43877 -21.89917,-34.63151 -4.14224,-5.20324 -12.64197,-17.45211 -18.88829,-27.2197 -6.24632,-9.76759 -14.37057,-22.44196 -18.05389,-28.16527 l -6.69694,-10.40599 -8.66304,-0.23264 c -7.37361,-0.19801 -9.20273,-0.70002 -12.28891,-3.37274 -4.50939,-3.90525 -6.28318,-4.03981 -5.06629,-0.38434 0.50456,1.51566 0.94228,4.40919 0.97271,6.43007 0.0429,2.84898 -0.46725,3.67433 -2.27105,3.67433 -1.47643,0 -2.57325,-1.07633 -3.00209,-2.94603 -0.37165,-1.62032 -1.63423,-3.54934 -2.80573,-4.28671 -1.72272,-1.08434 -2.57085,-0.78781 -4.43548,1.55073 -1.26801,1.5903 -2.30547,3.93269 -2.30547,5.2053 0,1.27263 -0.66938,2.37918 -1.48751,2.45899 -5.4928,0.53585 -8.03257,-2.29483 -8.03257,-8.95264 0,-5.07091 -1.62557,-5.91735 -6.0189,-3.13404 -2.09602,1.32787 -2.70596,1.13888 -4.59806,-1.42473 l -2.18147,-2.9557 -1.33585,2.56898 c -0.73472,1.41295 -1.33586,5.39758 -1.33586,8.85474 0,6.13463 -0.0787,6.27644 -3.27253,5.89821 -2.99688,-0.35491 -3.30307,-0.87757 -3.63523,-6.20523 -0.24707,-3.96295 -0.88861,-5.81769 -2.01229,-5.81769 -0.90727,0 -1.98054,0.55115 -2.38505,1.22477 -0.4045,0.67363 -2.04262,1.22478 -3.64026,1.22478 -2.30511,0 -2.90479,-0.63213 -2.90479,-3.06194 0,-2.72889 -0.49187,-3.06194 -4.52204,-3.06194 -8.14199,0 -10.2905,-6.06334 -3.22514,-9.10168 7.41072,-3.18686 1.09743,-8.65338 -7.72296,-6.68712 -5.93776,1.32365 -7.23169,-0.82915 -5.31255,-8.83887 0.71007,-2.96356 0.42016,-3.2509 -4.01669,-3.98111 -4.56525,-0.75134 -8.52092,-3.40442 -8.52092,-5.71499 0,-0.59392 2.54365,-2.38539 5.65255,-3.98105 7.08283,-3.63529 8.21651,-7.01191 2.35421,-7.01191 -2.42957,0 -4.86103,-0.90206 -6.03731,-2.2398 -2.9566,-3.36246 -2.43186,-3.98913 2.64114,-3.15423 5.09537,0.83859 6.52811,-0.3707 6.63266,-5.59824 0.0542,-2.71048 0.64821,-3.14178 4.8068,-3.49012 7.64016,-0.639968 10.43115,-5.091698 3.21739,-5.131858 -4.01794,-0.02236 -13.62071,-3.404676 -14.68145,-5.171139 -0.43767,-0.728843 -0.51737,-2.071818 -0.17713,-2.984388 0.48337,-1.296448 2.64293,-1.485467 9.87726,-0.864521 8.66632,0.74386 9.34644,0.625811 10.6314,-1.845296 1.72741,-3.321984 0.73848,-5.038924 -2.90232,-5.038924 -1.55901,0 -3.16553,-0.551149 -3.57004,-1.224776 -0.4045,-0.673627 -2.04262,-1.224777 -3.64026,-1.224777 -2.37994,0 -2.9015,-0.608568 -2.88657,-3.368135 0.0317,-5.854237 1.4331,-6.87245 8.18937,-5.950014 3.33989,0.455996 6.07253,0.601834 6.07253,0.324086 0,-0.27775 -0.80325,-2.483628 -1.78501,-4.901953 -2.28366,-5.625226 -2.25305,-7.703036 0.1273,-8.643149 1.19907,-0.473567 3.52927,0.709888 6.24755,3.172989 l 4.33524,3.928254 0.59501,-5.436431 c 0.77171,-7.050981 3.54164,-7.785999 6.94815,-1.843732 1.37041,2.39054 2.96046,4.346439 3.53344,4.346439 1.30305,0 3.79853,-8.366741 3.79853,-12.735525 0,-2.252148 0.83089,-3.598329 2.67753,-4.338022 2.23336,-0.894604 3.27938,-0.353429 6.30572,3.262362 l 3.62821,4.33488 2.05178,-3.222894 c 1.12848,-1.772592 2.97656,-3.222757 4.10686,-3.222589 1.62913,2.42e-4 2.07907,1.157063 2.1708,5.581192 0.10941,5.276814 3.43989,12.17776 5.87715,12.17776 1.82292,0 3.05437,-7.322419 2.41719,-14.372978 -0.61499,-6.805058 -0.53614,-7.049806 2.52607,-7.840827 2.53513,-0.654866 3.6638,-0.167356 5.70133,2.462596 3.0589,3.948308 4.18773,3.129126 4.18773,-3.039002 0,-8.86005 3.99069,-7.358019 7.63829,2.874927 2.29668,6.443067 3.81385,8.006092 5.79352,5.968593 1.60759,-1.654555 5.60836,-1.810047 5.60836,-0.217971 0,0.629775 -0.52225,2.558798 -1.16056,4.286718 -1.46786,3.973549 0.33524,9.265556 3.15697,9.265556 1.13042,0 3.79596,-1.73639 5.92342,-3.858644 l 3.8681,-3.858644 1.20234,2.940062 c 0.66128,1.617033 1.99796,5.006872 2.97039,7.532973 1.97497,5.130448 4.28614,5.786761 7.57669,2.151593 1.8924,-2.090597 2.51906,-2.208632 4.36206,-0.821623 1.81072,1.362716 1.92494,2.056723 0.71988,4.374189 -1.76187,3.388257 -0.84949,6.237411 1.99738,6.237411 1.17211,0 2.82484,1.143278 3.67272,2.540618 1.31561,2.16818 1.18313,3.165933 -0.90376,6.806279 -3.27611,5.714805 -3.1553,6.159059 2.01718,7.418058 5.51122,1.341449 5.73389,3.794029 0.64394,7.092869 -2.65017,1.7176 -3.81408,3.411778 -3.80383,5.536808 0.008,1.68407 -0.33624,4.53541 -0.76525,6.33631 -0.74341,3.12068 -0.51854,3.31472 4.79098,4.1342 3.30984,0.51084 5.8554,1.62261 6.2717,2.73916 0.79293,2.1267 -4.64262,7.23344 -8.92256,8.38282 -1.47263,0.39547 -2.67752,1.17107 -2.67752,1.72356 0,1.55638 3.32504,4.60871 5.9571,5.4685 2.52167,0.82372 3.0551,3.72741 1.2303,6.69708 -0.7421,1.20769 -2.83266,1.72294 -6.35104,1.56535 -4.34857,-0.19479 -5.47532,0.2301 -6.59374,2.48643 -0.74191,1.49676 -2.47844,4.16309 -3.85896,5.92517 -3.76649,4.80753 -4.45011,3.7912 35.01333,52.05442 7.09602,8.67835 14.97913,19.36129 17.51799,23.73987 8.1787,14.10514 36.12045,50.04878 46.17317,59.39613 4.42251,4.1122 6.4813,5.01897 15.42576,6.79405 5.67716,1.12667 10.72373,1.81888 11.21461,1.53822 0.49088,-0.28065 0.89251,-1.5005 0.89251,-2.71079 0,-1.51933 -2.85487,-3.67186 -9.22258,-6.95366 -5.07242,-2.61424 -11.98441,-7.24076 -15.35998,-10.28116 -3.37557,-3.04039 -7.92736,-6.6303 -10.11509,-7.97755 -2.18773,-1.34726 -5.0487,-4.69419 -6.35771,-7.43762 -1.30902,-2.74344 -2.91553,-6.09059 -3.57004,-7.43813 -10.93338,-22.51024 -12.49672,-28.92845 -9.5413,-39.17121 0.97948,-3.39459 3.38335,-8.60606 5.34192,-11.58103 1.9586,-2.97498 3.54602,-5.9602 3.52762,-6.63383 -0.0184,-0.67362 -2.06767,-2.87822 -4.55396,-4.8991 -8.98125,-7.30007 -11.30373,-14.03976 -8.45133,-24.52518 0.83058,-3.0532 1.57316,-6.77572 1.65019,-8.2723 0.10282,-1.99766 0.78497,-2.63053 2.56595,-2.38058 2.08769,0.29301 2.6402,-0.73155 3.96286,-7.34865 1.3229,-6.61823 2.29158,-8.41408 6.95525,-12.89443 5.5934,-5.37352 8.65789,-6.56568 8.65789,-3.36813 0,2.88672 3.23405,2.14564 4.00859,-0.91858 1.09818,-4.3446 7.49143,-10.48726 12.3649,-11.88025 6.80628,-1.94545 7.42672,-1.7033 7.42672,2.89856 0,5.68733 2.17721,6.08522 7.14007,1.30489 4.0946,-3.94403 15.33536,-7.70157 17.98929,-6.01344 0.62164,0.39542 0.97851,2.72328 0.79306,5.17303 -0.33376,4.40884 -0.28277,4.46253 5.01786,5.28397 5.51099,0.85402 15.19303,4.32984 17.19565,6.17317 0.70478,0.64872 0.59275,1.59405 -0.2975,2.51032 -2.25359,2.31942 -1.7624,3.0269 3.62953,5.22791 5.01915,2.04884 11.6026,7.46265 11.6026,9.54125 0,0.59581 -1.31407,0.90606 -2.92014,0.68944 -4.02268,-0.54255 -4.08619,0.17649 -0.45205,5.11765 3.86418,5.25393 5.3435,10.94799 6.38542,24.57815 0.79869,10.44852 0.78835,10.50249 -2.42927,12.67234 -2.85502,1.92534 -3.14724,2.72067 -2.50899,6.82871 0.65469,4.21383 0.44418,4.72144 -2.24631,5.41644 -2.45369,0.63382 -2.96872,1.5065 -2.96872,5.03024 0,2.68872 -0.57324,4.26339 -1.55204,4.26339 -2.17459,0 -11.58564,-6.30131 -20.905,-13.99725 -4.33852,-3.58277 -9.60202,-7.41056 -11.69667,-8.5062 -3.91642,-2.04857 -14.63672,-2.77574 -14.63672,-0.99284 0,0.54958 2.26835,2.31138 5.04079,3.9151 8.71194,5.03943 15.5415,14.31615 19.37497,26.31746 1.07587,3.36813 3.04848,8.50177 4.38357,11.40808 1.80331,3.92549 2.21288,6.44485 1.59289,9.79821 -0.45901,2.48271 -1.03751,12.09232 -1.28555,21.35469 -0.53777,20.08154 -0.0825,20.52661 10.65058,10.4106 5.46419,-5.15008 7.05582,-7.52722 7.99551,-11.94157 1.0213,-4.79778 5.60829,-16.8014 12.87077,-33.68135 1.1593,-2.69451 2.80939,-6.82813 3.66687,-9.18583 0.85748,-2.35769 1.99009,-4.87607 2.51688,-5.59638 0.52681,-0.72032 1.81371,-5.12951 2.85976,-9.79821 2.5182,-11.23898 9.18153,-28.07363 19.48998,-49.24073 8.744,-17.95466 9.82073,-22.37945 6.39414,-26.27641 -1.657,-1.88445 -1.76626,-2.74247 -0.595,-4.67273 1.96258,-3.2344 1.81887,-4.77847 -0.96837,-10.40521 -1.7688,-3.57074 -3.20831,-4.91487 -5.45387,-5.09252 -6.95932,-0.55054 -8.49761,-6.03406 -2.85317,-10.170678 1.96352,-1.43899 3.57003,-3.0239 3.57003,-3.52202 0,-0.49812 -2.06223,-1.842104 -4.58272,-2.986632 -6.42448,-2.917282 -9.29354,-6.350369 -7.33591,-8.778077 0.82497,-1.023076 3.32546,-1.860139 5.55664,-1.860139 4.43676,0 6.36084,-2.561393 4.06387,-5.409938 -0.75592,-0.937426 -1.05397,-3.01839 -0.66234,-4.624364 0.59913,-2.456829 0.0283,-3.255544 -3.59905,-5.035842 -3.33133,-1.635008 -4.22527,-2.737745 -3.93336,-4.852056 0.27933,-2.023109 1.30815,-2.84052 3.94782,-3.136601 5.43214,-0.609304 6.02812,-2.097001 2.54621,-6.355906 -1.72767,-2.11321 -3.12419,-4.488849 -3.10338,-5.279199 0.0694,-2.636057 3.16906,-5.723717 5.7459,-5.723717 2.67511,0 3.66936,-4.040199 1.35632,-5.511494 -1.78292,-1.134101 -1.43316,-4.267566 0.56443,-5.056504 0.96494,-0.381099 2.63645,0.214877 3.71447,1.324392 3.86219,3.97502 6.60057,1.595232 8.85705,-7.69721 1.25665,-5.17502 1.35236,-5.257608 3.89377,-3.35968 8.06161,6.020422 7.90526,5.950302 9.75148,4.373313 2.13126,-1.820463 2.35575,-8.70967 0.35104,-10.772943 -2.49306,-2.5658936 0.69261,-4.6573386 4.42676,-2.9062406 1.68482,0.79008 3.26282,1.4365086 3.50667,1.4365086 0.24386,0 1.35276,-2.8935346 2.46423,-6.4300766 2.24851,-7.1544307 4.42226,-10.2015705 6.3863,-8.9522672 0.71731,0.4562755 1.3124,2.3127254 1.32242,4.12544438 0.01,1.81271892 0.51317,4.10120982 1.1181,5.08553582 0.90923,1.479475 1.62591,1.205493 4.13476,-1.580697 2.59045,-2.87679902 3.40484,-3.16661892 5.56091,-1.97901092 2.1762,1.19869092 2.4174,2.09034692 1.74179,6.43881092 -0.85548,5.5062066 1.40088,15.5400246 3.49459,15.5400246 2.36699,0 5.55016,-7.4075 5.55016,-12.9157126 0,-6.306006 2.15265,-7.284603 5.26614,-2.393992 2.52284,3.9628146 3.46348,3.8591806 6.06175,-0.66785 1.74139,-3.034051 2.80834,-3.662329 5.71983,-3.368135 3.35259,0.338766 3.62614,0.758083 4.32194,6.6251866 0.40856,3.444943 1.28284,7.256698 1.94288,8.470568 1.06344,1.955785 1.55385,1.630233 4.30777,-2.859707 3.85642,-6.2874436 6.69166,-5.8448866 6.69166,1.044515 0,2.582682 0.45065,4.982441 1.00145,5.332798 0.55079,0.350357 2.73786,-1.206843 4.86013,-3.460444 2.58246,-2.742258 4.61274,-3.894504 6.13861,-3.483824 2.74393,0.738516 2.85798,2.657073 0.50282,8.458437 -0.97742,2.40762 -1.51602,4.812297 -1.1969,5.343725 0.31911,0.531429 2.71303,0.409051 5.3198,-0.27195 6.404,-1.672997 8.36431,-0.682049 8.36431,4.228223 0,3.817175 -0.33619,4.133347 -6.23217,5.860964 -6.77902,1.986365 -8.30565,4.438216 -4.92797,7.914575 1.62112,1.66847 3.06209,1.915668 6.902,1.184037 9.06134,-1.726483 11.95911,-1.403653 12.34518,1.37533 0.41268,2.970408 -2.25277,4.475199 -12.10107,6.831734 -7.84286,1.876662 -8.14384,3.944854 -0.65353,4.490721 6.19637,0.451569 7.35929,1.376649 7.52165,5.983332 0.10972,3.11184 0.52707,3.431363 4.48243,3.431363 2.39881,0 4.80775,0.458424 5.35316,1.018721 1.4774,1.517673 -3.13617,4.492773 -6.96708,4.492773 -5.22723,0 -4.13996,3.449045 1.96317,6.227624 5.8807,2.677312 6.90597,3.75923 5.9619,6.291335 -0.6728,1.804477 -7.05409,4.627908 -10.45964,4.627908 -2.31227,0 -2.53202,1.58366 -0.70683,5.0937 0.71017,1.36572 0.97744,3.769778 0.59395,5.342368 -0.6475,2.65519 -1.14309,2.81215 -6.94375,2.19922 -5.23099,-0.55273 -6.59423,-0.26332 -8.38545,1.7802 -1.97109,2.24873 -1.98776,2.59585 -0.2125,4.42298 1.05955,1.0905 2.95921,1.98273 4.22147,1.98273 2.86113,0 3.07317,3.92327 0.36279,6.71282 -1.3343,1.37329 -2.99142,1.74925 -5.35505,1.21495 -3.06155,-0.69207 -3.42281,-0.44901 -3.42281,2.30299 0,3.99954 -3.67669,5.2536 -7.61538,2.59749 l -2.96381,-1.99871 -0.36296,6.52681 c -0.33933,6.10199 -0.57595,6.55201 -3.63548,6.91434 -3.1207,0.36956 -3.27328,0.14226 -3.28877,-4.89911 -0.0215,-6.99318 -1.09216,-10.79814 -3.03844,-10.79814 -0.8729,0 -2.08149,0.90924 -2.68574,2.02051 -1.06195,1.95304 -2.71318,1.91516 -7.6472,-0.17543 -1.75391,-0.74315 -2.08252,-0.19438 -2.08252,3.47775 0,6.83936 -2.17843,10.59926 -6.14107,10.59926 -2.51962,0 -3.37901,-0.58849 -3.37901,-2.31387 0,-3.4671 -4.0381,-8.03155 -6.31117,-7.1338 -1.05702,0.41747 -2.37116,2.54364 -2.92032,4.72485 -0.74433,2.95636 -1.89257,4.21654 -4.51107,4.95081 -5.33013,1.49468 -6.48762,0.47753 -6.48762,-5.70105 0,-6.24938 -1.75205,-7.20037 -5.46811,-2.96799 -1.24683,1.42006 -4.67933,3.84105 -7.62779,5.37998 -4.61562,2.40909 -5.88141,3.96558 -9.1056,11.19681 -7.2207,16.19453 -8.65142,20.99762 -16.47395,55.30441 -1.58165,6.93656 -4.47903,15.75495 -6.43862,19.59643 -1.95958,3.84147 -4.93356,11.94484 -6.60882,18.00748 -1.67527,6.06264 -5.50878,19.69788 -8.51891,30.30053 -3.32063,11.6963 -5.19418,20.42077 -4.76408,22.18455 0.3899,1.59884 2.95539,6.36942 5.70109,10.60126 6.01465,9.27013 6.89602,15.62775 4.16664,30.05533 -1.21767,6.43666 -2.11319,21.23781 -2.64071,43.6456 l -0.7982,33.90605 3.04434,3.13329 c 5.32199,5.47747 9.78762,13.23492 14.33819,24.9075 6.34537,16.27647 11.87079,25.18937 23.03708,37.16042 5.40506,5.79461 9.82738,11.10418 9.82738,11.79905 0,1.66432 -8.1796,9.22021 -14.25299,13.16618 -3.98621,2.5899 -4.69857,3.62885 -4.11865,6.00695 0.62283,2.55405 -0.37383,3.51362 -8.91763,8.58565 -8.20372,4.87014 -9.98994,5.50581 -12.14131,4.3208 -2.78704,-1.53516 -4.54745,0.0358 -4.58159,4.0886 -0.0107,1.26698 -1.79038,3.03294 -4.29575,4.26258 l -4.27753,2.0994 -2.37125,-3.3503 c -2.91614,-4.12019 -4.54383,-3.3156 -4.54383,2.24609 0,2.88465 -0.55001,4.21443 -1.74315,4.21443 -3.14488,0 -4.12783,4.36339 -5.40368,23.98733 -1.91003,29.37836 -4.53225,45.3248 -9.07246,55.1721 -2.63704,5.71951 -8.18188,10.24925 -12.54606,10.24925 -1.97589,0 -5.10894,1.11133 -6.96232,2.4696 -9.94179,7.286 -20.45448,9.10719 -29.1279,5.04601 z m -27.66991,-110.57445 c -0.86315,-3.45199 -1.63496,-4.17047 -4.82643,-4.49289 -3.19919,-0.3232 -3.79898,0.0279 -3.79898,2.22387 0,3.84758 2.02252,7.07298 5.68247,9.06205 2.95606,1.60654 3.27477,1.56582 3.60651,-0.46082 0.20014,-1.22272 -0.0984,-4.0722 -0.66357,-6.33221 z"
       style="fill:#000000;stroke-width:1.20727" />
  </g>
</svg>
