<?xml version="1.0" encoding="UTF-8" standalone="no"?>
<svg
   xmlns:dc="http://purl.org/dc/elements/1.1/"
   xmlns:cc="http://creativecommons.org/ns#"
   xmlns:rdf="http://www.w3.org/1999/02/22-rdf-syntax-ns#"
   xmlns:svg="http://www.w3.org/2000/svg"
   xmlns="http://www.w3.org/2000/svg"
   xmlns:sodipodi="http://sodipodi.sourceforge.net/DTD/sodipodi-0.dtd"
   xmlns:inkscape="http://www.inkscape.org/namespaces/inkscape"
   inkscape:version="1.0 (4035a4fb49, 2020-05-01)"
   sodipodi:docname="ГИМНАСТИКА.svg"
   viewBox="0 0 1258.8624 1210.7632"
   height="1210.7632"
   width="1258.8624"
   id="svg434"
   version="1.1">
  <metadata
     id="metadata440">
    <rdf:RDF>
      <cc:Work
         rdf:about="">
        <dc:format>image/svg+xml</dc:format>
        <dc:type
           rdf:resource="http://purl.org/dc/dcmitype/StillImage" />
        <dc:title></dc:title>
      </cc:Work>
    </rdf:RDF>
  </metadata>
  <defs
     id="defs438" />
  <sodipodi:namedview
     inkscape:current-layer="g442"
     inkscape:window-maximized="1"
     inkscape:window-y="-6"
     inkscape:window-x="-6"
     inkscape:cy="483.46378"
     inkscape:cx="-61.462462"
     inkscape:zoom="0.48329512"
     showgrid="false"
     id="namedview436"
     inkscape:window-height="1018"
     inkscape:window-width="1920"
     inkscape:pageshadow="2"
     inkscape:pageopacity="0"
     guidetolerance="10"
     gridtolerance="10"
     objecttolerance="10"
     borderopacity="1"
     bordercolor="#666666"
     pagecolor="#ffffff"
     inkscape:document-rotation="0" />
  <g
     transform="translate(-552.638,-94.785565)"
     id="g442"
     inkscape:label="Image"
     inkscape:groupmode="layer">
    <path
       id="path148"
       d="m 1220.4045,1271.5814 v -33.9676 h -10.4326 c -9.8829,0 -109.6779,7.0468 -143.7087,10.1476 l -15.8582,1.445 v -17.6111 -17.6111 l 10.7836,-0.082 c 20.789,-0.1577 157.0231,-11.1494 158.4257,-12.7822 0.7794,-0.9074 0.7592,-3.6456 -0.045,-6.085 -1.1154,-3.3839 -4.3479,-4.1016 -13.6343,-3.0278 -18.7098,2.1637 -132.6701,10.162 -144.7878,10.162 h -10.7423 v -15.838 -15.8379 l 18.3955,-1.8105 c 10.1175,-0.9958 57.2163,-4.5123 104.6639,-7.8144 47.4476,-3.3022 92.2628,-6.754 99.5892,-7.6706 13.0229,-1.6293 13.3209,-1.8799 13.3209,-11.2013 0,-5.2441 1.1599,-10.8849 2.5775,-12.5352 1.7451,-2.0315 0.082,-12.9532 -5.1501,-33.8199 -5.0989,-20.3358 -8.5832,-42.8762 -10.243,-66.2638 -3.1396,-44.24043 -7.4236,-61.15159 -20.636,-81.46119 -13.2808,-20.41478 -24.0456,-46.95743 -27.7478,-68.41721 -2.7363,-15.86058 -2.5047,-17.77683 4.0249,-33.31321 7.4131,-17.63831 19.4855,-29.41363 33.5014,-32.67682 6.002,-1.39739 8.2834,-3.77465 9.2739,-9.66372 1.4846,-8.82646 -3.9297,-47.77998 -9.6541,-69.45765 -2.0897,-7.91341 -3.0615,-17.88216 -2.1596,-22.15277 1.9893,-9.4198 18.6806,-32.18912 29.4158,-40.12753 15.6333,-11.56032 58.7877,-3.8562 71.1299,12.69842 3.5169,4.71727 7.3226,34.86914 7.8876,62.49305 0.1495,7.31041 1.2359,15.04155 2.414,17.1803 1.3251,2.40541 0.7675,5.222 -1.4618,7.38426 -1.9822,1.92259 -5.0522,12.1352 -6.8222,22.69468 -3.8951,23.23681 -6.0207,26.58333 -16.8847,26.58333 -15.0682,0 -11.5819,4.93921 11.4076,16.16178 32.8701,16.04587 47.0771,28.02384 51.481,43.40389 2.6644,9.30511 5.5963,13.48537 11.3873,16.23612 7.5936,3.607 8.2672,3.22175 25.5889,-14.6343 9.7844,-10.08633 25.0365,-28.37826 33.8936,-40.64871 8.857,-12.27045 27.5215,-33.47901 41.4767,-47.13014 13.9551,-13.65112 31.082,-32.02921 38.0596,-40.84019 55.3301,-69.86843 105.8989,-123.68445 146.1291,-155.51266 14.5959,-11.54762 16.5608,-14.51984 29.0808,-43.98935 23.2184,-54.65162 42.7567,-78.31805 61.3226,-74.27907 5.2724,1.14698 11.0134,3.4584 12.7578,5.13649 4.7851,4.6032 3.8615,33.68701 -1.903,59.92493 -2.791,12.70376 -5.0746,30.133 -5.0746,38.73164 0,20.66224 -3.2141,27.93834 -16.4537,37.24773 -9.8893,6.95363 -12.6307,11.65176 -26.5162,45.44322 -21.3199,51.88371 -44.5912,91.48273 -72.6707,123.65874 -17.071,19.5614 -30.1829,38.76584 -49.2474,72.13061 -14.2902,25.00917 -30.2772,50.92792 -35.5267,57.5972 -5.2496,6.66925 -14.4027,21.43009 -20.3404,32.80184 -28.0306,53.68359 -38.4232,59.82489 -107.1292,63.30639 -21.945,1.112 -40.531,2.7563 -41.3022,3.6541 -0.7712,0.8977 -0.2284,5.226 1.2061,9.6184 1.4346,4.3924 2.6968,24.182 2.805,43.9768 0.1446,26.4696 1.3873,39.8974 4.6974,50.7591 l 4.5008,14.7685 30.6166,-0.9971 c 29.1028,-0.9479 30.7599,-0.6855 33.5142,5.3054 1.5936,3.4665 2.5437,10.561 2.1112,15.7657 -0.7784,9.3673 -0.9708,9.4929 -19.0144,12.4167 -16.0222,2.5963 -17.9362,3.5579 -15.8166,7.9468 2.0349,4.2135 5.1396,4.7268 19.8861,3.2876 l 17.4748,-1.7054 4.0422,9.0996 c 3.0031,6.7602 3.4083,11.0407 1.5763,16.6499 -1.3562,4.1526 -2.7796,7.647 -3.163,7.7653 -0.3834,0.1181 -38.947,3.1089 -85.6969,6.6458 l -84.9997,6.4308 -0.708,39.1365 -0.708,39.1366 h -6.2696 -6.2696 v -38.8028 -38.8028 l -23.4701,1.8504 c -12.9085,1.0178 -35.1734,2.719 -49.4775,3.7806 l -26.0073,1.9302 v 35.0222 35.0222 h -6.3433 -6.3433 z m 109.1042,-76.8548 c 35.5857,-2.4484 71.9845,-5.2225 80.8863,-6.1645 15.6192,-1.653 16.0184,-1.8961 11.4179,-6.9534 -4.4931,-4.9392 -7.2469,-5.0003 -47.9014,-1.064 -23.7238,2.297 -56.8356,4.7584 -73.5818,5.4697 -16.7463,0.7113 -38.7257,2.0922 -48.8432,3.0687 -16.1765,1.5613 -18.3955,2.4861 -18.3955,7.666 0,5.4412 1.2098,5.7585 15.8582,4.1598 8.722,-0.9518 44.9738,-3.7338 80.5595,-6.1823 z m 62.9801,-50.5246 c 16.0186,-1.423 18.3366,-2.3248 16.8294,-6.5475 -5.0279,-14.0861 -11.8609,-43.7631 -16.4294,-71.3554 -8.2473,-49.8106 -8.0054,-49.291 -24.8337,-53.3421 -17.9182,-4.3134 -35.3801,-12.1921 -48.6737,-21.96125 l -10.1712,-7.47447 0.033,8.15976 c 0.018,4.48782 2.1751,16.13476 4.7935,25.88196 3.5557,13.2363 4.4298,23.0562 3.4533,38.7951 -1.6743,26.9845 5.0074,63.9934 13.7346,76.0744 3.3916,4.695 5.553,10.3975 4.8032,12.6722 -1.4229,4.3165 -2.4798,4.3334 56.4613,-0.9027 z m -599.3767,43.6578 c -0.995,-1.8742 3.20711,-4.8474 10.46477,-7.4042 6.67004,-2.3498 17.4353,-6.9602 23.92273,-10.2453 10.41582,-5.2742 11.98633,-7.2954 13.42841,-17.2823 0.89818,-6.2202 0.45223,-23.272 -0.99099,-37.8928 -1.44322,-14.6209 -2.6334,-36.1951 -2.64487,-47.9429 -0.0178,-19.0344 -3.79241,-56.7887 -6.87001,-68.72839 -0.74223,-2.87963 -2.41247,-0.9389 -4.77132,5.54409 -3.51521,9.6611 -3.96784,9.9116 -14.39985,7.9715 -5.92379,-1.1017 -11.76602,-3.1604 -12.98273,-4.5748 -1.21669,-1.4145 -3.50027,-2.009 -5.07461,-1.3211 -1.57433,0.6878 -4.80746,-2.7389 -7.18471,-7.61509 -2.37726,-4.87615 -6.31916,-8.86571 -8.75977,-8.86571 -2.44064,0 -7.9216,-3.93111 -12.17993,-8.73578 l -7.74244,-8.73579 0.92525,13.543 c 0.6732,9.85311 0.11012,12.95656 -2.06623,11.39071 -1.64531,-1.18375 -2.36558,-4.05106 -1.60058,-6.37181 0.76502,-2.32076 -0.45113,-9.5788 -2.70251,-16.12899 -2.89879,-8.43371 -3.69295,-17.05128 -2.72111,-29.52755 1.16965,-15.016 2.75364,-19.39791 10.72479,-29.66903 6.76841,-8.72131 8.58584,-12.94339 6.57779,-15.28098 -7.78131,-9.0583 2.8874,-30.65329 13.28269,-26.88608 13.45267,4.87521 16.90036,7.39123 23.67796,17.27949 3.96264,5.78137 8.49224,10.51158 10.06577,10.51164 1.57351,6e-5 4.29817,2.01602 6.05477,4.47997 2.75605,3.86583 5.21199,2.07146 17.91757,-13.09108 13.82989,-16.50429 23.78975,-33.37619 21.36736,-36.19612 -0.59094,-0.68789 0.55344,-7.54727 2.54302,-15.24309 5.6556,-21.87615 1.75579,-29.56006 -19.75673,-38.92708 -13.42007,-5.8434 -21.83317,-15.86419 -31.00103,-36.92519 -4.42243,-10.15943 -11.11751,-18.24103 -24.59817,-29.6923 -10.18708,-8.65349 -24.31467,-21.9733 -31.39464,-29.59959 -13.46254,-14.50132 -25.8807,-22.97121 -42.94804,-29.29305 -26.2633,-9.72802 -45.76209,-24.52176 -73.85485,-56.03369 -10.17732,-11.416 -19.13195,-20.75638 -19.89917,-20.75638 -0.76722,0 -1.39495,2.0722 -1.39495,4.60488 0,2.53269 -1.14179,3.7834 -2.5373,2.77938 -1.39552,-1.00402 -2.53731,-4.37216 -2.53731,-7.48474 0,-4.6675 -1.28762,-5.35947 -7.34761,-3.94854 -5.61981,1.3084 -8.45391,0.1719 -12.05221,-4.83276 -2.58752,-3.59888 -11.13461,-14.03836 -18.99353,-23.19886 -14.15018,-16.49371 -21.7794,-33.92301 -20.21952,-46.19248 0.41307,-3.24908 1.04434,-6.26805 1.40282,-6.70884 0.35849,-0.44078 6.24123,2.25495 13.07276,5.99053 14.93745,8.16796 40.18159,29.50256 59.6812,50.43834 19.51982,20.9575 81.12348,58.37382 115.05231,69.8795 16.04245,5.44019 41.3112,17.97092 68.29489,33.8673 23.55698,13.87771 44.82249,25.23219 47.25666,25.23219 2.43419,0 8.52479,-1.99375 13.53472,-4.43056 11.56009,-5.62278 44.13248,-5.74498 61.92102,-0.23216 7.32647,2.27048 13.32086,3.39897 13.32086,2.50778 0,-0.89119 -6.45344,-10.17722 -14.34098,-20.63563 -11.4362,-15.16369 -15.41918,-18.65573 -19.66412,-17.24026 -16.48828,5.49805 -18.19099,5.2835 -21.30992,-2.68524 -1.67366,-4.27622 -3.04302,-11.54204 -3.04302,-16.14639 0,-6.20416 -2.46342,-10.5568 -9.51489,-16.81197 -19.94028,-17.68852 -26.77173,-33.33115 -13.60603,-31.15513 8.97854,1.484 45.42405,22.87788 61.18051,35.91357 7.67535,6.35002 25.37306,20.48281 39.32824,31.40622 32.6038,25.52062 67.05671,59.24425 70.12581,68.64146 1.3183,4.03644 1.6557,11.42787 0.7496,16.42539 -4.2813,23.6142 -22.1171,30.07174 -75.05131,27.1728 l -34.62356,-1.89616 2.15813,11.10397 c 1.18697,6.10716 5.63515,24.22677 9.88483,40.26582 8.74797,33.01631 9.30857,41.02888 3.92075,56.03993 -2.09328,5.83208 -3.80596,15.5435 -3.80596,21.58093 0,13.51529 -8.40097,34.45896 -16.21214,40.41696 -3.19754,2.43893 -10.31887,5.84662 -15.82518,7.57265 l -10.01147,3.13822 0.8112,30.33172 c 0.44619,16.68245 1.90818,40.96505 3.24887,53.96135 2.58541,25.0621 0.72712,52.3445 -6.43803,94.5185 -2.20799,12.9963 -3.85635,28.9463 -3.66301,35.4444 0.19334,6.4982 0.24561,13.3175 0.11621,15.1541 -0.15021,2.1303 -10.11086,4.0256 -27.51135,5.2348 -15.00182,1.0425 -36.55232,2.6737 -47.89,3.625 -13.35064,1.1201 -21.19979,0.626 -22.27663,-1.4022 z m 75.5406,-32.3901 c 2.07731,-14.6258 2.03552,-67.0283 -0.0515,-64.5988 -1.85459,2.159 -8.18096,54.3915 -8.37123,69.1156 -0.17178,13.2929 6.39322,9.7725 8.42274,-4.5168 z m -1.93802,-82.4633 c -0.84315,-0.9815 -1.44282,0.7631 -1.33265,3.8768 0.12179,3.4409 0.72298,4.1408 1.53294,1.7845 0.73295,-2.1322 0.64283,-4.6798 -0.20019,-5.6613 z m 3.49656,-25.168 c -0.087,-18.5166 -4.72896,-61.18858 -7.21998,-66.37032 -2.53107,-5.26498 -2.45048,-1.67263 1.22399,54.55552 1.3821,21.1491 6.08332,30.4126 5.99599,11.8148 z M 752.2716,1004.2713 c -0.86248,-1.6245 -0.35897,-2.9537 1.1189,-2.9537 1.47788,0 2.68706,1.3292 2.68706,2.9537 0,3.7848 -1.79656,3.7848 -3.80596,0 z m 402.0928,-284.29388 c -11.8403,-15.8537 -20.0719,-24.76449 -28.1152,-30.43495 -5.9321,-4.18212 -8.3372,-7.85257 -7.7418,-11.81481 3.1134,-20.71739 2.8021,-28.65181 -1.8973,-48.35162 -2.877,-12.06026 -8.1178,-26.7772 -11.6462,-32.70428 l -6.4153,-10.7765 1.2849,-61.8142 c 2.4162,-116.2446 2.1091,-137.89403 -2.1144,-149.01023 -5.8524,-15.40383 -11.8659,-72.60204 -9.3068,-88.52371 1.1727,-7.29636 1.6955,-14.08875 1.1616,-15.09422 -0.5338,-1.00544 -10.7205,-2.74904 -22.6372,-3.87464 -11.9167,-1.12557 -36.063,-4.53887 -53.6583,-7.58508 -28.24725,-4.8903 -32.87324,-6.51404 -39.52454,-13.87313 -9.24157,-10.22504 -14.75927,-22.06327 -14.48575,-31.07912 0.19867,-6.55185 0.31231,-6.51422 3.20474,1.06265 3.39695,8.8985 11.58275,20.20501 14.62823,20.20501 1.1158,0 -0.7274,-3.20846 -4.09603,-7.12988 -9.02179,-10.50237 -10.59896,-21.54266 -4.8242,-33.77001 6.47295,-13.70568 19.16523,-21.12786 36.12965,-21.12786 16.7054,0 29.9264,6.91881 36.2354,18.96265 6.0103,11.47368 6.0103,18.53616 0,30.00985 -7.4619,14.24485 -20.5617,19.9543 -41.92763,18.27391 -16.1138,-1.26731 -17.1956,-1.03102 -10.37723,2.26685 4.5497,2.20057 27.70246,4.54793 57.55186,5.83492 l 49.9401,2.15322 1.5366,-11.42894 c 2.9344,-21.8247 5.8704,-25.08506 40.8804,-45.39655 37.139,-21.5467 47.6593,-28.77733 65.3556,-44.91904 6.754,-6.16072 13.762,-11.20131 15.5734,-11.20131 1.8114,0 9.3287,-4.83287 16.7052,-10.73971 28.415,-22.75382 73.426,-41.114177 73.426,-29.951095 0,2.429735 -6.4104,8.923945 -14.2454,14.431565 -13.9213,9.78608 -18.7195,16.43482 -23.7466,32.90507 -2.177,7.13248 -3.8015,8.1282 -13.3256,8.16792 -5.9655,0.0248 -12.5591,1.30597 -14.6523,2.84688 -7.0591,5.19639 2.4034,10.93892 36.7909,22.32734 41.5766,13.76927 53.604,20.19408 55.6606,29.73285 3.0706,14.2422 -9.4207,50.07785 -30.2651,86.82543 -7.9352,13.98938 -8.9537,17.68098 -7.3344,26.58332 1.0343,5.68588 1.9608,17.19235 2.059,25.56991 0.1537,13.12153 -1.2278,17.60685 -9.9709,32.37246 -17.2099,29.06506 -22.7579,32.12648 -96.3249,53.15295 -18.2606,5.21913 -23.3604,10.13188 -26.9717,25.98248 -1.5143,6.64631 -6.001,18.27456 -9.9704,25.84059 -9.0306,17.21288 -15.1638,40.82629 -15.1704,58.40699 -0.01,28.9348 8.2092,106.37728 13.9727,131.6421 5.3095,23.2745 7.3442,27.92006 16.3468,37.32261 5.6553,5.9066 10.2824,11.55556 10.2824,12.55323 0,0.99768 -5.1788,1.81396 -11.5085,1.81396 -8.7726,0 -12.6885,-1.57993 -16.472,-6.64583 z m 37.3091,-379.12479 c -2.2888,-16.41825 -8.3252,-24.49252 -25.296,-33.83556 -13.5999,-7.48725 -15.8758,-7.99709 -17.803,-3.9882 -3.2009,6.6582 -0.053,17.96911 6.5174,23.41421 9.5686,7.93057 33.4619,24.44079 35.8313,24.75938 1.2292,0.16541 1.5668,-4.49214 0.7503,-10.34983 z m 85.4629,-63.1922 c 10.0555,-14.68927 24.4619,-47.95915 24.4619,-56.49184 0,-9.02968 -44.9927,-37.82526 -66.3576,-42.46919 -10.1359,-2.20317 -23.7679,3.57808 -31.3085,13.27769 -3.9938,5.13728 -3.9275,5.66236 1.1106,8.80117 2.9468,1.83588 11.3195,4.12334 18.606,5.08327 16.2595,2.14202 30.0872,9.89038 37.0574,20.76512 2.8925,4.51281 7.1109,10.43661 9.3743,13.16403 2.552,3.07522 4.2803,10.72806 4.5498,20.14641 0.4119,14.39425 0.067,15.27298 -6.5971,16.82462 -6.6976,1.55934 -9.5009,8.85458 -5.2874,13.75964 2.6982,3.14091 4.6003,1.44094 14.3906,-12.86092 z m -61.8065,2.66489 c 0,-3.61879 -5.2469,-11.91214 -12.6136,-19.9375 -8.8942,-9.68926 -13.0475,-16.75408 -14.0849,-23.95845 -2.8455,-19.76184 -7.9596,-21.69179 -28.2861,-10.6746 -14.5758,7.90024 -18.5973,14.18947 -18.5973,29.08458 0,12.44874 6.3022,16.44191 30.0179,19.01996 9.0772,0.98674 21.7361,4.17724 28.131,7.09001 14.9057,6.78926 15.433,6.76794 15.433,-0.624 z"
       style="fill:#000000;stroke-width:2.7376" />
  </g>
</svg>
