<?xml version="1.0" encoding="UTF-8" standalone="no"?>
<svg
   xmlns:dc="http://purl.org/dc/elements/1.1/"
   xmlns:cc="http://creativecommons.org/ns#"
   xmlns:rdf="http://www.w3.org/1999/02/22-rdf-syntax-ns#"
   xmlns:svg="http://www.w3.org/2000/svg"
   xmlns="http://www.w3.org/2000/svg"
   xmlns:sodipodi="http://sodipodi.sourceforge.net/DTD/sodipodi-0.dtd"
   xmlns:inkscape="http://www.inkscape.org/namespaces/inkscape"
   version="1.1"
   id="svg434"
   width="1280.0728"
   height="1228.776"
   viewBox="0 0 1280.0728 1228.776"
   sodipodi:docname="спортивная.svg"
   inkscape:version="1.0 (4035a4fb49, 2020-05-01)">
  <metadata
     id="metadata440">
    <rdf:RDF>
      <cc:Work
         rdf:about="">
        <dc:format>image/svg+xml</dc:format>
        <dc:type
           rdf:resource="http://purl.org/dc/dcmitype/StillImage" />
        <dc:title></dc:title>
      </cc:Work>
    </rdf:RDF>
  </metadata>
  <defs
     id="defs438" />
  <sodipodi:namedview
     inkscape:document-rotation="0"
     pagecolor="#ffffff"
     bordercolor="#666666"
     borderopacity="1"
     objecttolerance="10"
     gridtolerance="10"
     guidetolerance="10"
     inkscape:pageopacity="0"
     inkscape:pageshadow="2"
     inkscape:window-width="1920"
     inkscape:window-height="1018"
     id="namedview436"
     showgrid="false"
     inkscape:zoom="0.68348251"
     inkscape:cx="262.67954"
     inkscape:cy="583.55105"
     inkscape:window-x="-6"
     inkscape:window-y="-6"
     inkscape:window-maximized="1"
     inkscape:current-layer="g442" />
  <g
     transform="translate(-377.32046,-30.948947)"
     inkscape:groupmode="layer"
     inkscape:label="Image"
     id="g442">
    <path
       id="path162"
       d="m 661.23773,1208.975 -0.25916,-50.75 -13,0.1899 c -7.15,0.1045 -53.95,2.8936 -104,6.1981 -126.79514,8.3716 -162.98711,10.5228 -164.87102,9.7999 -1.44,-0.5526 -1.62898,-3.2944 -1.62898,-23.6335 0,-22.7833 0.022,-23.0218 2.25,-24.3936 2.25863,-1.3906 5.91384,-1.6649 109.59488,-8.2268 21.08968,-1.3347 55.06468,-3.5395 75.5,-4.8995 20.43531,-1.3599 49.53012,-3.2291 64.65512,-4.1537 15.125,-0.9246 28.5125,-2.0524 29.75,-2.5062 2.03632,-0.7467 2.25,-1.4806 2.25,-7.7274 0,-4.4277 -0.46401,-7.2874 -1.29422,-7.9764 -0.92963,-0.7715 -18.04327,0.029 -60.75,2.8416 -194.64287,12.8191 -218.94172,14.2442 -220.52202,12.9326 -2.14891,-1.7834 -2.10989,-45.126 0.0426,-47.2785 0.9763,-0.9763 4.61731,-1.6907 10.75,-2.1092 19.55091,-1.3344 102.45356,-6.7336 177.27367,-11.5455 42.9,-2.7589 91.5,-5.901 108,-6.9823 16.5,-1.0813 44.4,-2.8873 62,-4.0133 17.6,-1.126 33.07718,-2.2901 34.39372,-2.5868 2.37884,-0.5363 2.38958,-0.5987 1.72603,-10.0385 -0.79524,-11.3132 0.26289,-15.7255 5.13658,-21.4193 3.35182,-3.91588 3.41827,-4.1645 2.73763,-10.24245 -0.85778,-7.65974 -5.54705,-26.14344 -12.99672,-51.22915 -13.00641,-43.79725 -14.94937,-56.87312 -17.47541,-117.60763 -1.06667,-25.64632 -1.81665,-30.71124 -6.15281,-41.55246 -1.5751,-3.93805 -3.79141,-11.06574 -4.92513,-15.83933 -2.86339,-12.05641 -2.90938,-12.14737 -10.90903,-21.57645 -26.80453,-31.59411 -49.66634,-77.79464 -57.46659,-116.13197 -1.94039,-9.53676 -1.99602,-25.11013 -0.1213,-33.95534 2.65972,-12.54899 11.03976,-27.84795 21.35905,-38.99402 11.72289,-12.66211 29.06314,-22.66128 44.25445,-25.5191 5.38887,-1.01376 9.03305,-2.25471 10.08148,-3.43302 1.73483,-1.94976 4.86353,-16.824 4.86008,-23.1055 -10e-4,-2.69001 -0.55377,-4.01009 -2.00203,-4.78518 -1.83835,-0.98386 -2.00061,-2.09802 -2.00755,-13.78518 -0.0111,-18.60334 -2.07261,-29.83056 -10.92087,-59.47499 -5.95616,-19.95501 -7.07158,-25.66706 -7.07158,-36.21339 0,-15.96851 4.98297,-27.05756 16.41348,-36.52644 3.65168,-3.025 8.15498,-7.77416 10.00733,-10.55368 17.08965,-25.64371 47.4653,-35.7722 86.45319,-28.82707 21.86523,3.89498 51.8242,17.70251 58.74379,27.07393 5.92733,8.02757 6.88604,11.20677 6.81343,22.59427 -0.055,8.63329 0.19919,10.68461 1.27314,10.2725 1.03635,-0.39768 1.10894,-0.0796 0.31878,1.39681 -2.29069,4.28019 -0.47025,26.52405 2.99502,36.59603 2.80781,8.16105 2.61949,16.38722 -0.51816,22.63414 -1.375,2.73757 -2.5,5.80347 -2.5,6.81313 0,1.00965 2.04681,6.36151 4.54846,11.89302 5.1082,11.29495 5.05609,12.01855 -1.20957,16.7976 -4.82189,3.67783 -6.33889,7.69888 -6.33889,16.80218 0,4.99365 -0.67842,9.48734 -2,13.24746 -1.1,3.1297 -2,6.66408 -2,7.85418 0,1.1901 -1.08541,4.58069 -2.41203,7.53466 -1.32662,2.95396 -2.72018,8.17804 -3.09682,11.60907 -1.28651,11.7197 -5.60424,14.3183 -24.99115,15.04077 -7.96034,0.29665 -13.28481,0.91797 -13.73469,1.60273 -1.2448,1.89472 -0.84333,6.3974 0.7088,7.94952 0.81076,0.81077 4.74826,2.71273 8.75,4.2266 41.76421,15.79948 83.24574,37.44766 97.74662,51.01154 9.20102,8.60648 16.02927,22.61148 16.02927,32.87664 v 5.40038 l 6.97392,4.63625 c 7.53624,5.01008 17.61178,9.5196 21.25618,9.5136 3.3719,-0.006 6.9291,-2.52443 21.2699,-15.0615 27.4876,-24.03042 58.1854,-56.57794 73.1802,-77.58992 13.9858,-19.59804 26.112,-31.63446 66.3198,-65.82839 55.0963,-46.85562 67.5164,-58.9654 81.9171,-79.86995 11.2695,-16.35912 23.8679,-30.52808 53.534,-60.20741 65.589,-65.61822 147.2597,-134.93899 189.3838,-160.74582 4.5841,-2.80844 9.3165,-6.27289 10.5163,-7.69876 1.1998,-1.42588 5.5289,-10.67046 9.6204,-20.54351 4.0914,-9.87305 12.9487,-28.976 19.683,-42.451 17.8935,-35.804176 30.152,-53.867274 50.2938,-74.108647 11.4955,-11.552312 18.5491,-16.624876 28.2899,-20.344666 5.298,-2.023208 8.0671,-1.849843 22.1614,1.387446 12.1695,2.795199 15.5892,4.645826 18.6003,10.065867 2.3177,4.171776 2.5268,5.667019 2.8678,20.5 0.5188,22.570351 -3.3188,51.12442 -9.6094,71.5 -1.9527,6.325 -4.184,13.75 -4.9584,16.5 -0.8321,2.95515 -1.9983,16.44612 -2.8515,32.98767 -2.0931,40.57866 -3.5597,43.87396 -24.4845,55.01233 -12.2032,6.49579 -20.6572,13.38067 -24.4147,19.88311 -1.3085,2.26429 -6.4569,13.67148 -11.441,25.34931 -31.8242,74.56533 -70.6229,138.96058 -113.1841,187.85462 -10.1537,11.66453 -16.5213,18.0197 -22.1806,22.13729 -22.8815,16.64819 -24.6401,18.95006 -81.1936,106.27567 -38.4798,59.41762 -45.0491,68.74385 -59.0693,83.85982 -13.202,14.23374 -15.4942,17.51586 -35.3661,50.64018 -20.6311,34.38972 -27.0601,43.42207 -40.6146,57.06126 -9.4043,9.46299 -12.3377,11.75299 -20.2214,15.786 -21.4069,10.951 -49.0353,16.98466 -90.2786,19.71555 -10.1873,0.67454 -24.3949,0.88416 -34,0.50162 -12.9311,-0.51499 -21.2586,-0.21222 -38.5,1.39979 -27.1639,2.53972 -29.5,2.89472 -29.5,4.48285 0,0.6992 1.522,4.59714 3.3823,8.6621 6.0544,13.22998 7.0384,19.001 7.0571,41.39083 0.01,11 -0.3574,29.675 -0.8147,41.5 -0.6755,17.47077 -0.5446,23.36778 0.6986,31.46647 2.0257,13.19683 15.461,55.31123 17.8953,56.09503 0.9452,0.3043 19.1702,-0.6565 40.5,-2.1352 21.3297,-1.4787 43.2173,-2.742 48.639,-2.8074 l 9.8576,-0.1189 3.7867,4.2596 c 5.7448,6.462 8.2323,12.5343 8.7768,21.4253 0.4286,6.9981 0.1991,8.2654 -2.5689,14.1803 -4.5585,9.7413 -1.2234,8.9409 -51.1284,12.2697 -15.5429,1.0367 -15.2059,0.641 -7.8914,9.2664 l 6.2535,7.3742 16.5282,-0.703 c 9.0906,-0.3866 20.8033,-1.0726 26.0283,-1.5245 11.5337,-0.9973 14.5327,-0.033 19.0499,6.1251 8.0619,10.9903 9.5983,22.3687 4.5289,33.5407 -3.1144,6.8638 -5.5447,8.9742 -11.2584,9.7765 -2.1013,0.295 -29.2454,2.1128 -60.3204,4.0396 -66.5645,4.1272 -191.46174,12.1543 -208.26292,13.385 -6.59201,0.4829 -12.41663,1.4042 -13.25,2.0958 -1.28421,1.0658 -1.48708,8.9934 -1.48708,58.1117 v 56.8776 h -10.99174 -10.99175 l -0.25825,-56.75 -0.25826,-56.75 -5.25191,-0.3023 c -2.88855,-0.1663 -33.71355,1.5376 -68.5,3.7864 -88.64885,5.7308 -88.70491,5.7352 -90.30922,7.0666 -1.21733,1.0103 -1.43887,9.0279 -1.43887,52.0717 v 50.8776 H 672.48773 661.4969 Z m 105.74084,-108.7266 c 37.95,-2.4616 86.55,-5.6173 108,-7.0127 21.45,-1.3955 59.7,-3.8823 85,-5.5263 25.3,-1.644 47.05583,-3.2325 48.34643,-3.53 2.2783,-0.5252 2.2133,-0.6919 -2.241,-5.7476 -2.523,-2.8638 -5.4753,-6.2193 -6.56061,-7.4568 -2.32774,-2.6541 -7.5182,-2.8802 -28.59493,-1.2458 -7.12244,0.5523 -34.54989,2.3412 -60.94989,3.9754 -61.98497,3.8368 -58.87755,3.4633 -63.4926,7.6327 -3.56833,3.2238 -4.11735,3.3877 -11.34467,3.3877 -5.08131,0 -8.77387,-0.5622 -11.15727,-1.6988 -3.38959,-1.6164 -3.71625,-1.6079 -6.73402,0.1747 -4.86126,2.8717 -20.71614,3.212 -26.8587,0.5766 l -4.58726,-1.9681 -46.91274,2.9269 c -52.03535,3.2465 -53.40798,3.3774 -54.56651,5.2033 -0.95327,1.5024 -1.12353,10.8992 -0.23924,13.2036 0.88285,2.3007 5.02569,2.156 82.89301,-2.8948 z m 122.5,-75.5318 c 48.85482,-2.7339 91.46971,-6.128 92.72696,-7.3852 0.39316,-0.3932 -1.17397,-6.203 -3.4825,-12.9106 -12.15681,-35.32283 -21.28799,-72.77264 -28.81902,-118.1958 -3.99216,-24.07862 -8.1286,-40.17082 -12.72379,-49.5 -3.69169,-7.49488 -3.23668,-7.27261 -23.66831,-11.56184 -35.56482,-7.46617 -62.16507,-18.35601 -88.38699,-36.18464 -5.96951,-4.05875 -10.96345,-7.23869 -11.09765,-7.06653 -0.65454,0.8397 -2.54712,12.58024 -2.53566,15.72979 0.007,1.97077 3.35703,14.26711 7.44412,27.3252 8.97066,28.66093 10.12928,35.40649 8.63371,50.26642 -1.38134,13.72506 -1.41064,46.57892 -0.0529,59.28101 0.5709,5.34083 2.35303,14.49817 3.9603,20.34965 3.45052,12.56215 4.98376,21.36608 4.99415,28.67668 0.009,6.61361 1.08049,8.66542 5.79099,11.09336 8.08981,4.16975 15.55389,16.0982 15.66255,25.0306 0.0475,3.9009 -0.24939,4.5259 -2.44599,5.1503 -3.7653,1.0703 14.03699,1.0188 34,-0.098 z"
       style="fill:#000000" />
  </g>
</svg>
